<svg xmlns="http://www.w3.org/2000/svg" xmlns:xlink="http://www.w3.org/1999/xlink" version="1.1" width="116.49509251117706" height="151.7359982728958" viewBox="0.2570478320121765 0.31035923957824707 116.49509251117706 151.7359982728958">
  <defs>
    <linearGradient id="grad_1" x2="1">
      <stop offset="0" stop-color="#6600CC" stop-opacity="1"/>
      <stop offset="1" stop-color="#FFFFFF" stop-opacity="1"/>
    </linearGradient>
    <linearGradient id="grad_2" x2="1">
      <stop offset="0" stop-color="#6600CC" stop-opacity="1"/>
      <stop offset="1" stop-color="#FFFFFF" stop-opacity="1"/>
    </linearGradient>
    <linearGradient id="grad_3" x2="1">
      <stop offset="0" stop-color="#FFFF00" stop-opacity="1"/>
      <stop offset="1" stop-color="#FFFFFF" stop-opacity="1"/>
    </linearGradient>
    <linearGradient id="grad_4" x2="1">
      <stop offset="0" stop-color="#CC0000" stop-opacity="1"/>
      <stop offset="1" stop-color="#FFFFFF" stop-opacity="1"/>
    </linearGradient>
    <linearGradient id="grad_5" x2="1">
      <stop offset="0" stop-color="#999900" stop-opacity="1"/>
      <stop offset="1" stop-color="#FFFFFF" stop-opacity="1"/>
    </linearGradient>
  <linearGradient id="grad_1-.276281476020813,0,0,1.276281476020813,-2.25,-0.45" x2="54.9176" x1="49.9127" y1="128.5065" y2="128.5065" gradientUnits="userSpaceOnUse">
      <stop offset="0" stop-color="#6600CC" stop-opacity="1"/>
      <stop offset="1" stop-color="#FFFFFF" stop-opacity="1"/>
    </linearGradient><linearGradient id="grad_2-.276281476020813,0,0,1.276281476020813,-2.25,-0.45" x2="55.6131" x1="51.4987" y1="66.5471" y2="66.5471" gradientUnits="userSpaceOnUse">
      <stop offset="0" stop-color="#6600CC" stop-opacity="1"/>
      <stop offset="1" stop-color="#FFFFFF" stop-opacity="1"/>
    </linearGradient><linearGradient id="grad_3-.276281476020813,0,0,1.276281476020813,-2.25,-0.45" x2="34.5338" x1="28.054" y1="73.3515" y2="73.3515" gradientUnits="userSpaceOnUse">
      <stop offset="0" stop-color="#FFFF00" stop-opacity="1"/>
      <stop offset="1" stop-color="#FFFFFF" stop-opacity="1"/>
    </linearGradient><linearGradient id="grad_4-.276281476020813,0,0,1.276281476020813,-2.25,-0.45" x2="69.6838" x1="63.5091" y1="49.7489" y2="49.7489" gradientUnits="userSpaceOnUse">
      <stop offset="0" stop-color="#CC0000" stop-opacity="1"/>
      <stop offset="1" stop-color="#FFFFFF" stop-opacity="1"/>
    </linearGradient><linearGradient id="grad_5-.276281476020813,0,0,1.276281476020813,-2.25,-0.45" x2="62.7367" x1="56.188" y1="27.6355" y2="27.6355" gradientUnits="userSpaceOnUse">
      <stop offset="0" stop-color="#999900" stop-opacity="1"/>
      <stop offset="1" stop-color="#FFFFFF" stop-opacity="1"/>
    </linearGradient></defs>
  <!-- Exported by Scratch - http://scratch.mit.edu/ -->
  <g id="ID0.5285904193297029">
    <g id="ID0.8156192279420793">
      <g id="ID0.8212421177886426">
        <g id="Bottom">
          <g id="Bottom_1_">
            <path id="ID0.26467505656182766" fill="#20891D" d="M 58.9975 145.3805 C 31.5549 145.3805 6.4938 131.3018 2.7543 129.1053 C 38.6344 109.4646 52.7616 43.4094 54.7002 33.4761 C 75.0352 97.1409 106.1829 120.0144 109.5931 122.364 C 96.5763 137.636 79.5545 145.3805 58.9975 145.3805 L 58.9975 145.3805 Z " stroke-width="1.276281476020813"/>
            <path id="ID0.09849025495350361" d="M 54.7755 34.7498 C 65.8639 68.9657 79.9693 90.919 89.9537 103.3959 C 99.4875 115.31 106.9742 120.9371 109.117 122.4278 C 96.1934 137.4471 79.3337 145.0601 58.9975 145.0601 C 32.6206 145.0601 8.4376 132.005 3.4001 129.1104 C 23.3305 117.9034 36.3026 92.5029 43.7114 73.0038 C 50.1414 56.0816 53.5924 40.6003 54.7755 34.7498 M 54.6224 32.1718 C 54.6224 32.1718 41.4435 108.1501 2.1098 129.0913 C 2.1098 129.0913 28.9449 145.6995 58.9987 145.6995 C 76.4825 145.6995 95.055 140.0801 110.0679 122.2976 C 110.0666 122.2976 76.2426 100.874 54.6224 32.1718 L 54.6224 32.1718 Z " stroke-width="1.276281476020813"/>
          </g>
          <path id="Snow_10_" fill="#FFFFFF" stroke="#000000" stroke-width="0.6381407380104065" d="M 113.3734 117.8268 C 111.4871 116.9207 105.5103 116.4625 104.6335 118.9844 C 104.4663 119.4617 104.756 119.8842 105.1121 120.1599 C 106.6015 121.3085 102.6986 122.6422 102.1383 123.602 C 101.7644 124.2389 101.6368 125.0034 101.5653 125.7257 C 101.2845 128.545 100.3413 129.4755 97.5744 130.1251 C 95.0422 130.7211 92.2293 132.9737 91.5541 135.6756 C 89.4164 135.5582 87.3131 135.7637 86.5192 135.9858 C 85.2787 136.3329 84.264 137.1 83.3004 137.913 C 82.795 138.4388 82.3011 138.9786 81.8238 139.5326 C 80.2169 141.3423 79.238 140.754 77.5635 141.0092 C 76.0384 141.2428 74.6102 141.7673 73.3965 142.6122 C 73.1655 142.5012 72.9217 142.4067 72.6652 142.3327 C 68.7636 141.2185 65.2053 144.5164 61.1518 143.595 C 59.2948 143.1738 57.4379 142.348 55.489 142.8547 C 54.7385 143.05 53.4291 143.5975 52.186 143.8438 C 51.0003 142.9683 50.343 141.766 49.202 140.5727 C 46.9889 138.255 43.0567 138.8395 40.6535 140.4055 C 39.4704 141.1764 37.3351 139.9205 35.9363 140.2817 C 35.847 140.306 35.736 140.3034 35.6402 140.3175 C 35.1004 140.0877 34.5248 139.9231 34.0028 139.7789 C 32.7086 139.4202 31.3915 138.8434 30.082 138.9965 C 29.3775 138.6864 28.7292 138.3686 28.2085 138.0955 C 27.6431 137.7994 26.9896 136.9021 26.2749 136.1887 C 28.3705 136.3891 30.6359 135.9488 31.9646 134.2462 C 32.045 134.1428 31.9416 133.9641 31.8127 134.0496 C 29.292 135.7075 25.6955 134.6431 23.065 133.6719 C 22.4103 133.4307 21.7658 133.2532 21.1264 133.1039 C 20.062 132.7478 18.9478 132.527 17.905 132.4173 C 17.2554 132.199 16.4794 132.171 15.8579 132.1352 C 15.0117 132.088 14.2893 131.7945 13.5516 131.5201 C 12.7016 130.7198 12.0163 129.7243 10.9863 129.0619 C 9.5479 128.1354 8.5563 127.3721 8.4542 125.8049 C 8.5448 125.7653 8.6354 125.7296 8.7247 125.704 C 9.3016 125.5381 9.8006 125.214 10.0763 124.6805 C 10.7119 123.4489 5.8595 122.6627 3.3503 123.9504 C 1.441 124.9306 0.8705 127.0224 0.896 128.9177 C 0.9165 130.4148 2.3076 132.1365 3.6771 132.633 C 6.0292 133.4855 8.4044 133.6349 10.0865 135.6782 C 11.1318 136.9468 11.9678 137.7075 13.6142 138.1605 C 14.5395 138.4145 15.5771 138.2499 16.5139 138.0967 C 22.4716 137.1268 23.1531 140.3634 26.0337 143.8183 C 27.4082 145.4673 27.6226 145.3766 29.8127 146.0607 C 30.6589 146.3249 34.013 149.0345 35.3658 149.2795 C 39.1258 149.9572 41.8187 147.457 45.4178 147.7327 C 47.1561 148.2929 48.3954 150.4269 50.1452 151.0497 C 52.6709 151.9482 54.6045 150.9808 56.9861 150.0887 C 59.8692 149.0089 63.7312 151.2705 66.8479 151.1646 C 69.3341 151.0816 71.7169 150.1691 73.6556 148.6388 C 74.0321 148.3427 74.3269 148.0185 74.5592 147.6803 C 75.5496 147.8973 76.5068 148.3785 77.6771 148.7639 C 80.1161 149.568 82.0101 148.5035 83.913 146.9758 C 85.003 146.099 85.8211 144.8176 86.754 143.7813 C 88.5957 141.7329 91.2414 142.163 93.6881 142.0302 C 95.434 141.9345 96.7588 140.8535 97.18 139.2071 C 97.3408 138.5779 97.2412 138.0636 96.9834 137.6271 C 97.1034 137.3399 97.2234 137.0617 97.3574 136.809 C 98.8685 133.9692 102.4332 134.5015 104.9755 133.2622 C 106.844 132.3509 107.4272 129.7613 108.2122 128.0575 C 109.3047 125.6862 112.5171 125.8712 114.5349 124.7251 C 117.5163 123.0277 115.7869 118.9895 113.3734 117.8268 Z "/>
          <path id="Snow_9_" fill="#FFFFFF" stroke="#000000" stroke-width="0.6381407380104065" d="M 92.6619 119.971 C 92.7462 119.6596 92.3518 119.4286 92.1221 119.6583 C 90.1183 121.6506 88.6697 124.0589 85.5543 124.3052 C 83.1562 124.4929 80.804 122.7648 78.4123 123.81 C 77.5367 124.1929 76.8705 124.6626 76.129 125.2471 C 74.5081 126.5247 73.4399 126.0078 71.6786 125.5164 C 70.0258 125.0557 68.0744 126.4762 67.0278 127.5508 C 66.904 127.6772 67.0623 127.889 67.2167 127.7959 C 68.0884 127.2777 68.9614 127.1271 69.8382 127.1667 C 71.5216 127.8316 73.3556 129.0862 75.1539 129.0862 C 75.6555 129.0862 76.1877 128.845 76.6153 128.5948 C 78.1289 127.7078 79.492 126.8667 81.3401 126.8336 C 84.2666 126.7825 87.2773 127.4219 89.105 125.2152 C 90.8394 124.0385 92.0927 122.0794 92.6619 119.971 Z "/>
          <path id="Snow_8_" fill="#FFFFFF" stroke="#000000" stroke-width="0.6381407380104065" d="M 57.3689 120.3258 C 52.5408 121.7463 47.6539 117.7873 42.5934 117.823 C 39.4627 117.846 36.623 116.9743 33.7654 115.8103 C 32.1062 115.1339 22.6898 117.0713 23.356 113.1531 C 23.5079 112.2648 22.9808 111.3561 21.9917 111.3612 C 16.5496 111.3905 20.2381 118.6998 23.097 120.1292 C 26.6756 121.9173 33.1872 119.8306 36.5413 122.4572 C 41.3248 126.2031 43.0044 122.1892 48.4745 121.9901 C 51.992 122.9205 54.0978 123.5216 57.6816 121.0686 C 58.0479 120.8184 57.8297 120.1905 57.3689 120.3258 Z "/>
          <path id="Snow_7_" fill="#FFFFFF" stroke="#000000" stroke-width="0.6381407380104065" d="M 94.9057 102.9262 C 93.9038 102.4451 92.9542 102.7169 92.311 103.6065 C 92.2038 103.7558 92.0966 103.9064 91.9881 104.057 C 91.6907 104.4705 91.7749 104.9951 92.0289 105.4022 C 91.2976 105.6422 90.5816 105.9281 90.0022 106.2395 C 87.9742 107.3294 86.9774 109.4072 84.3546 109.6229 C 81.9118 109.8245 79.8162 110.3083 77.3287 110.1079 C 76.762 110.0607 76.2324 110.1219 75.7219 110.2393 C 74.6779 109.9828 73.6785 109.7263 72.8962 109.5616 C 69.5281 108.8507 67.1057 112.2712 63.4913 111.5718 C 60.9527 111.0817 59.2897 111.6586 57.1532 112.94 C 56.9554 113.0586 57.0882 113.3471 57.3051 113.3011 C 65.0981 111.6228 60.3924 115.0752 65.25 114.6195 C 68.6615 114.3017 71.5701 112.0644 75.2101 113.8742 C 76.3319 114.4319 77.4678 114.7293 78.6139 114.8646 C 81.0427 117.6099 86.2371 115.1122 89.1075 114.4868 C 93.1725 113.5972 96.3134 111.9878 96.7907 107.5196 C 97.656 105.8221 97.4059 104.1311 94.9057 102.9262 Z "/>
          <g id="Lights_4_">
            <path id="String_3_" d="M 96.3147 109.6905 C 95.6051 109.8258 95.9216 110.8532 96.6082 110.7562 C 100.4307 110.2113 99.2973 115.527 98.7115 117.4312 C 97.9062 120.0412 95.8361 122.0679 93.8553 123.8279 C 89.7418 127.4857 84.4555 129.7231 79.1295 130.8832 C 68.6194 133.1754 57.2056 130.3995 48.3201 124.5911 C 41.1117 119.8816 37.2113 110.7205 28.779 107.9535 C 22.2954 105.8272 18.3262 110.2125 18.3224 116.34 C 18.3224 116.525 18.5878 116.5557 18.6389 116.3821 C 20.307 110.843 21.5769 106.9912 28.5582 108.755 C 33.9543 110.1194 37.4117 115.333 40.887 119.2588 C 47.7419 127.002 57.5974 131.3975 67.7655 132.5002 C 77.7167 133.5787 87.9908 130.7262 95.5004 124.027 C 98.4512 121.3953 100.5609 117.8498 100.5634 113.8206 C 100.5685 111.1251 99.0842 109.1634 96.3147 109.6905 Z " stroke-width="1.276281476020813"/>
            <g id="Light_17_">
              <path id="Base_8_" fill="#B7B7B7" stroke="#000000" stroke-width="0.6381407380104065" d="M 16.5943 115.1224 C 16.2344 114.996 16.0914 114.4766 16.2714 113.9597 L 16.2714 113.9597 C 16.4514 113.4428 16.8878 113.1237 17.249 113.2514 L 19.0448 113.8767 C 19.4047 114.0031 19.5489 114.5238 19.3689 115.0407 L 19.3689 115.0407 C 19.1877 115.5563 18.7499 115.8754 18.3913 115.7503 L 16.5943 115.1224 Z "/>
              <path id="Light_18_" fill="#EA0000" stroke="#000000" stroke-width="0.6381407380104065" d="M 14.8062 115.5729 C 13.1585 114.6668 11.8363 113.5832 12.2026 112.5379 C 12.5676 111.4926 14.2715 111.4697 16.1297 111.7862 C 18.0122 112.1027 18.7563 113.6547 18.3926 114.6999 C 18.0288 115.7452 16.4807 116.4957 14.8062 115.5729 Z "/>
              <path id="Highlight_10_" fill="#FFFFFF" d="M 16.2408 112.8991 C 15.2389 112.4677 14.6773 112.6311 14.7628 112.3822 C 14.8522 112.1321 15.1087 112.0734 16.1616 112.3618 C 17.2299 112.6541 17.8055 113.1646 17.72 113.4135 C 17.6319 113.6662 17.2605 113.3343 16.2408 112.8991 Z " stroke-width="1.276281476020813"/>
            </g>
            <g id="Light_19_">
              <path id="Base_9_" fill="#B7B7B7" stroke="#000000" stroke-width="0.6381407380104065" d="M 37.8227 112.1908 C 38.1124 111.9432 38.6331 112.0785 38.993 112.492 L 38.993 112.492 C 39.3504 112.9055 39.4091 113.4441 39.1181 113.693 L 37.6785 114.9361 C 37.39 115.1837 36.8668 115.0496 36.5081 114.6374 L 36.5081 114.6374 C 36.152 114.2226 36.0946 113.6827 36.383 113.4364 L 37.8227 112.1908 Z "/>
              <path id="Light_20_" fill="#FFF533" stroke="#000000" stroke-width="0.6381407380104065" d="M 38.3255 110.4167 C 39.9324 109.4417 41.5316 108.8367 42.2539 109.6765 C 42.9776 110.515 42.1467 112.0019 40.9445 113.4543 C 39.7295 114.9271 38.0141 114.7969 37.2892 113.9597 C 36.5668 113.1225 36.6893 111.4071 38.3255 110.4167 Z "/>
              <path id="Highlight_11_" fill="#FFFFFF" d="M 39.9247 112.9961 C 40.799 112.3427 40.9368 111.7734 41.1104 111.9725 C 41.2827 112.1742 41.2048 112.4256 40.4289 113.1939 C 39.6414 113.9725 38.9126 114.2175 38.7391 114.0184 C 38.5668 113.818 39.039 113.6598 39.9247 112.9961 Z " stroke-width="1.276281476020813"/>
            </g>
            <g id="Light_21_">
              <path id="Base_10_" fill="#B7B7B7" stroke="#000000" stroke-width="0.6381407380104065" d="M 54.0595 130.6445 C 53.8464 130.9598 53.3078 130.9649 52.8522 130.6598 L 52.8522 130.6598 C 52.3991 130.3523 52.2025 129.8469 52.4182 129.5329 L 53.4839 127.958 C 53.6984 127.6427 54.2395 127.6376 54.6939 127.9414 L 54.6939 127.9414 C 55.1457 128.2502 55.3409 128.7556 55.1265 129.0696 L 54.0595 130.6445 Z "/>
              <path id="Light_22_" fill="url(#grad_1-.276281476020813,0,0,1.276281476020813,-2.25,-0.45)" stroke="#000000" stroke-width="0.6381407380104065" d="M 54.0366 132.4888 C 52.7373 133.8467 51.3525 134.8486 50.4362 134.2258 C 49.5173 133.6042 49.9346 131.9527 50.717 130.2374 C 51.507 128.4991 53.198 128.1775 54.1144 128.7977 C 55.0308 129.4193 55.3588 131.1078 54.0366 132.4888 Z "/>
              <path id="Highlight_12_" fill="#FFFFFF" d="M 51.8209 130.4161 C 51.1483 131.2737 51.1611 131.8595 50.9429 131.7128 C 50.7233 131.5635 50.7335 131.2993 51.2836 130.3574 C 51.8414 129.3989 52.4808 128.9739 52.7003 129.1206 C 52.9185 129.2687 52.5038 129.5431 51.8209 130.4161 Z " stroke-width="1.276281476020813"/>
            </g>
            <g id="Light_23_">
              <path id="Base_11_" fill="#B7B7B7" stroke="#000000" stroke-width="0.6381407380104065" d="M 76.3192 130.5016 C 76.3332 130.1213 76.7888 129.8328 77.3364 129.8507 L 77.3364 129.8507 C 77.8852 129.8737 78.3178 130.1991 78.3 130.5794 L 78.2259 132.4798 C 78.2081 132.8614 77.7524 133.1499 77.2049 133.132 L 77.2049 133.132 C 76.6587 133.1065 76.2247 132.7823 76.2426 132.402 L 76.3192 130.5016 Z "/>
              <path id="Light_24_" fill="#EA0000" stroke="#000000" stroke-width="0.6381407380104065" d="M 75.3645 128.9215 C 75.7512 127.0812 76.3996 125.4998 77.5061 125.5458 C 78.6152 125.5879 79.1321 127.2126 79.3733 129.0824 C 79.6184 130.9751 78.351 132.1403 77.2457 132.0982 C 76.1405 132.0535 74.9701 130.7913 75.3645 128.9215 Z "/>
              <path id="Highlight_13_" fill="#FFFFFF" d="M 78.3408 129.5137 C 78.462 128.4289 78.1417 127.9401 78.4059 127.949 C 78.6701 127.9605 78.8003 128.189 78.8309 129.2802 C 78.8615 130.388 78.5424 131.0861 78.2795 131.0772 C 78.0141 131.0683 78.2221 130.6152 78.3408 129.5137 Z " stroke-width="1.276281476020813"/>
            </g>
            <g id="Light_25_">
              <path id="Base_12_" fill="#B7B7B7" stroke="#000000" stroke-width="0.6381407380104065" d="M 101.0344 112.4205 C 101.2794 112.1308 101.8154 112.1857 102.2353 112.5418 L 102.2353 112.5418 C 102.6514 112.8991 102.788 113.4211 102.5391 113.7108 L 101.3037 115.1569 C 101.0535 115.4466 100.5175 115.3904 100.0988 115.0369 L 100.0988 115.0369 C 99.6866 114.6795 99.5462 114.1562 99.7964 113.8665 L 101.0344 112.4205 Z "/>
              <path id="Light_26_" fill="#0074FF" stroke="#000000" stroke-width="0.6381407380104065" d="M 101.2615 110.5903 C 102.7063 109.3855 104.1932 108.5444 105.0329 109.2668 C 105.8778 109.9866 105.278 111.582 104.3093 113.2003 C 103.3304 114.8378 101.6125 114.9692 100.7727 114.2507 C 99.9316 113.5309 99.7925 111.8155 101.2615 110.5903 Z "/>
              <path id="Highlight_14_" fill="#FFFFFF" d="M 103.2308 112.8991 C 103.9979 112.1219 104.0489 111.5399 104.2506 111.7096 C 104.451 111.8832 104.4114 112.1436 103.7592 113.0191 C 103.0981 113.9074 102.4153 114.2596 102.2149 114.0886 C 102.0133 113.915 102.4561 113.6904 103.2308 112.8991 Z " stroke-width="1.276281476020813"/>
            </g>
          </g>
        </g>
        <g id="Middle">
          <g id="Middle_1_">
            <path id="ID0.12049101293087006" fill="#20891D" d="M 57.5183 99.2748 C 40.06 99.2735 25.6814 94.3701 22.8774 93.3503 C 45.026 73.5947 48.9659 30.5394 49.5032 22.7834 C 76.9637 78.3451 93.1048 87.6032 96.5074 89.0071 C 85.4727 95.8212 72.3614 99.2748 57.5234 99.2748 C 57.5234 99.2748 57.5208 99.2748 57.5183 99.2748 Z " stroke-width="1.276281476020813"/>
            <path id="ID0.2506782151758671" d="M 49.7342 23.9691 C 75.6006 76.0273 91.4074 86.8987 95.8297 89.0467 C 84.9545 95.6221 72.0717 98.9557 57.5183 98.9557 C 40.9751 98.9557 27.204 94.5385 23.4875 93.2303 C 44.4453 74.0823 48.9225 34.113 49.7342 23.9691 M 49.2569 21.5646 C 49.2569 21.5646 47.091 71.8488 22.2674 93.4626 C 22.2674 93.4626 37.838 99.5939 57.5183 99.5939 C 70.0756 99.5939 84.3036 97.1 97.2387 88.9267 C 97.2387 88.9254 80.3229 84.7635 49.2569 21.5646 L 49.2569 21.5646 Z " stroke-width="1.276281476020813"/>
          </g>
          <path id="Snow_3_" fill="#FFFFFF" stroke="#000000" stroke-width="0.6381407380104065" d="M 84.8179 76.2494 C 84.6584 75.6738 84.1479 75.0752 83.5314 74.9629 C 83.3208 74.9259 83.1103 74.8876 82.8997 74.8493 C 82.259 74.7345 81.5902 75.014 81.4128 75.693 C 80.9214 77.5793 78.9368 77.4338 77.2993 78.2238 C 76.5514 78.585 75.7882 79.1402 75.3568 79.8702 C 74.1839 81.8548 72.4827 80.7917 70.7201 81.292 C 67.5728 82.1892 66.331 84.9447 62.7574 84.8643 C 60.2559 84.8069 58.5903 85.8075 57.337 87.8623 C 57.1992 88.0856 57.4225 88.3511 57.6663 88.2899 C 60.0619 87.6913 61.7632 87.8087 64.1894 87.9555 C 65.3163 88.0231 66.6437 88.1495 67.6813 87.5432 C 69.3251 86.5809 70.5453 84.997 72.7481 85.2178 C 74.466 85.3889 75.5572 85.1796 76.9981 84.2236 C 78.0077 83.5548 78.2961 82.068 79.5265 81.6379 C 80.5437 81.2805 81.5315 80.9359 82.5232 80.5058 C 84.3151 79.7286 85.3425 78.1396 84.8179 76.2494 Z "/>
          <path id="Snow_2_" fill="#FFFFFF" stroke="#000000" stroke-width="0.6381407380104065" d="M 67.9008 74.6234 C 66.1102 77.9711 62.4536 74.8123 59.9713 75.2896 C 57.9024 75.6878 56.5572 77.0011 54.7079 77.1211 C 54.6147 77.0828 54.5216 77.0458 54.4131 77.0216 C 53.9204 76.9092 53.4648 76.8748 53.0321 76.8965 C 52.8777 76.848 52.722 76.7957 52.5586 76.7293 C 50.574 75.915 48.4069 78.2991 46.7796 78.9385 C 46.5346 79.0355 46.2704 79.093 46.0241 79.1606 C 44.5449 79.0304 43.0261 78.5084 41.7243 78.0924 C 41.575 78.0439 41.4473 78.2225 41.5239 78.3514 C 42.6751 80.2991 44.4721 81.5524 46.6239 82.1624 C 47.7802 82.4904 48.9672 82.3437 50.0712 81.9263 C 50.7897 81.6532 51.6946 80.8159 52.5599 80.4752 C 54.1068 80.9295 55.7149 82.0667 57.3549 80.6743 C 58.8201 79.4286 60.0223 77.5997 62.0861 77.5576 C 63.185 77.5359 64.16 77.5653 65.2449 77.4032 C 66.7445 77.1785 67.6749 76.0031 68.1114 74.7102 C 68.1522 74.5877 67.9621 74.5086 67.9008 74.6234 Z "/>
          <path id="Snow_1_" fill="#FFFFFF" stroke="#000000" stroke-width="0.6381407380104065" d="M 96.6006 84.4942 C 94.7423 83.283 92.8636 84.4572 90.9632 84.6231 C 90.3723 84.6754 88.2549 87.5011 88.0737 89.011 C 87.8887 90.5425 82.2526 91.8673 81.8123 92.097 C 78.9751 93.5698 78.1813 94.139 74.6906 94.0778 C 74.5388 94.0752 74.4022 94.0931 74.2554 94.0957 C 74.0563 93.9489 70.7724 94.6151 69.2894 95.2596 C 66.1983 96.6023 66.6794 95.5149 63.9699 95.9629 C 60.1091 96.5997 57.0065 97.7088 52.8228 97.0528 C 51.3998 96.8307 49.5173 96.5831 48.1019 96.9622 C 47.8632 97.026 47.636 97.0732 47.4076 97.1217 C 45.5072 97.0873 43.2239 96.9316 41.1231 96.5078 C 39.4244 95.8429 37.764 94.901 35.8036 94.0842 C 35.8036 94.0829 35.8023 94.0829 35.8023 94.0816 C 33.9071 91.9643 27.0432 91.1513 26.779 90.993 C 26.7356 90.9662 26.4076 89.1131 25.3496 89.4066 C 23.1352 90.0205 18.0939 91.3733 20.0875 94.7772 C 20.7269 95.8671 22.4039 95.8084 23.4671 95.8186 C 25.735 95.8454 28.4752 98.2027 30.8338 97.197 C 31.4413 96.9379 32.0335 96.915 32.618 97.0643 C 32.9026 97.1766 33.186 97.2876 33.4693 97.3999 C 34.1342 97.7496 41.8583 106.5177 45.5148 104.3506 C 49.1382 102.2 51.8694 101.5223 54.2637 102.6161 C 57.1073 103.9128 60.3976 106.1654 63.1071 105.6192 C 65.8434 105.0666 67.8893 103.3257 70.2173 105.7583 C 71.3608 106.9555 72.8311 106.8623 74.2478 106.5624 C 75.3632 106.325 76.1035 104.9019 76.6382 104.0366 C 77.3823 102.8267 82.8512 101.7023 83.0069 101.5428 C 84.0815 101.3015 85.2965 100.8268 85.6143 99.673 C 85.6654 99.4867 85.6909 99.271 85.719 99.0578 C 86.9736 97.6654 90.1655 95.6578 90.223 95.6246 C 91.7405 95.0797 93.2924 94.3956 94.4322 93.4575 C 95.0652 93.1984 95.6625 92.8513 96.3185 92.3714 C 97.5909 91.4397 98.7319 90.2706 98.9489 88.6485 C 99.1812 86.923 97.9649 85.3812 96.6006 84.4942 Z "/>
          <g id="Lights_3_">
            <path id="String_2_" d="M 87.4024 78.063 C 85.7113 77.1326 83.534 79.153 82.6763 80.3654 C 77.1449 88.1801 70.1037 92.8551 60.4422 93.9297 C 56.0544 94.4186 51.3245 93.8506 47.0451 92.8781 C 42.6853 91.8851 39.3619 89.3543 35.7985 86.8438 C 34.0577 85.616 30.7112 83.574 28.4918 84.8413 C 26.682 85.8751 26.3362 87.1348 27.1619 88.9625 C 27.2538 89.1641 27.5729 89.0199 27.5142 88.8144 C 27.472 85.3455 30.5453 84.5976 32.8465 86.0321 C 33.4361 86.3167 34.0066 86.6358 34.5554 86.9906 C 35.6836 87.6696 36.7238 88.5132 37.7742 89.3032 C 39.709 90.7556 41.7383 91.9311 43.9718 92.8526 C 48.9276 94.8997 55.1584 95.3068 60.4397 94.938 C 65.7184 94.5692 70.9218 92.7709 75.2981 89.8112 C 77.0798 88.6064 78.6165 87.0723 80.0434 85.4757 C 80.7083 84.7329 81.3324 83.9377 81.9284 83.1388 C 82.3368 82.5964 82.7389 82.0488 83.132 81.4975 C 83.4229 81.1171 83.7127 80.7368 84.0037 80.3578 C 85.5224 78.3591 88.0214 78.3961 87.6755 82.3449 C 87.4113 82.7508 88.1069 83.1528 88.3239 82.7227 C 89.0143 81.3545 89.6027 79.2742 87.4024 78.063 Z " stroke-width="1.276281476020813"/>
            <g id="Light_11_">
              <path id="Base_5_" fill="#B7B7B7" stroke="#000000" stroke-width="0.6381407380104065" d="M 89.8822 77.8614 C 90.2281 77.7005 90.6939 77.9749 90.9237 78.4714 L 90.9237 78.4714 C 91.1547 78.9692 91.0615 79.5014 90.7156 79.6609 L 88.9901 80.4624 C 88.6442 80.622 88.1771 80.3488 87.9461 79.8511 L 87.9461 79.8511 C 87.7176 79.3546 87.8108 78.8224 88.1554 78.6629 L 89.8822 77.8614 Z "/>
              <path id="Light_12_" fill="#FFF533" stroke="#000000" stroke-width="0.6381407380104065" d="M 90.8509 76.2941 C 92.6645 75.7976 94.3671 75.6534 94.8329 76.6591 C 95.2987 77.6648 94.0901 78.8683 92.5381 79.9328 C 90.9645 81.0163 89.35 80.4203 88.8842 79.4159 C 88.417 78.4127 89.008 76.7969 90.8509 76.2941 Z "/>
              <path id="Highlight_7_" fill="#FFFFFF" d="M 91.683 79.2117 C 92.7028 78.8237 92.9925 78.3144 93.1048 78.5531 C 93.2159 78.793 93.0716 79.0151 92.1144 79.5397 C 91.1432 80.0732 90.3761 80.1089 90.2638 79.8702 C 90.1502 79.629 90.648 79.6099 91.683 79.2117 Z " stroke-width="1.276281476020813"/>
            </g>
            <g id="Light_15_">
              <path id="Base_7_" fill="#B7B7B7" stroke="#000000" stroke-width="0.6381407380104065" d="M 45.035 95.3362 C 44.8001 95.6361 44.2628 95.6055 43.8301 95.2698 L 43.8301 95.2698 C 43.3988 94.9329 43.2367 94.4173 43.4728 94.1161 L 44.6406 92.6152 C 44.8754 92.3152 45.414 92.3446 45.8492 92.6815 L 45.8492 92.6815 C 46.2781 93.0185 46.4401 93.5354 46.2053 93.834 L 45.035 95.3362 Z "/>
              <path id="Light_16_" fill="#0074FF" stroke="#000000" stroke-width="0.6381407380104065" d="M 44.8895 97.1728 C 43.5034 98.4439 42.0548 99.3488 41.1819 98.6673 C 40.3076 97.987 40.8322 96.3649 41.7268 94.707 C 42.6304 93.0249 44.3381 92.8168 45.2124 93.4958 C 46.0866 94.1748 46.2997 95.8837 44.8895 97.1728 Z "/>
              <path id="Highlight_9_" fill="#FFFFFF" d="M 42.8168 94.9584 C 42.088 95.7701 42.0638 96.3559 41.8545 96.1939 C 41.6451 96.0305 41.6732 95.7676 42.2833 94.8627 C 42.9023 93.9451 43.5698 93.5622 43.7791 93.723 C 43.9884 93.8863 43.5557 94.1314 42.8168 94.9584 Z " stroke-width="1.276281476020813"/>
            </g>
            <g id="Light_13_">
              <path id="Base_6_" fill="#B7B7B7" stroke="#000000" stroke-width="0.6381407380104065" d="M 74.1788 91.2802 C 74.4494 91.5482 74.355 92.0791 73.9695 92.4684 L 73.9695 92.4684 C 73.5841 92.8589 73.0506 92.9572 72.78 92.6866 L 71.4297 91.3465 C 71.1592 91.0785 71.2536 90.5463 71.639 90.1558 L 71.639 90.1558 C 72.0258 89.7678 72.558 89.6695 72.8273 89.9388 L 74.1788 91.2802 Z "/>
              <path id="Light_14_" fill="#FF6D00" stroke="#000000" stroke-width="0.6381407380104065" d="M 75.9861 91.6439 C 77.0811 93.1716 77.8073 94.7185 77.0262 95.5047 C 76.2451 96.2896 74.697 95.5761 73.1591 94.4888 C 71.5969 93.3911 71.5944 91.6694 72.3742 90.8833 C 73.1527 90.0983 74.8731 90.0894 75.9861 91.6439 Z "/>
              <path id="Highlight_1_" fill="#FFFFFF" d="M 75.0084 92.3076 C 74.3473 91.4384 73.7768 91.3057 73.9746 91.1296 C 74.175 90.9547 74.4277 91.0313 75.2024 91.8009 C 75.9861 92.5807 76.2375 93.3082 76.0397 93.483 C 75.8418 93.6592 75.681 93.1882 75.0084 92.3076 Z " stroke-width="1.276281476020813"/>
            </g>
          </g>
        </g>
        <g id="Top">
          <g id="Top_1_">
            <path id="ID0.985733509529382" fill="#20891D" d="M 41.6196 64.3366 C 37.2598 64.3366 34.0704 63.9895 32.858 63.8325 C 47.2442 44.8465 44.0075 24.6851 42.0676 12.6 L 41.7587 10.6562 C 41.6056 9.6786 41.0708 7.6825 40.6305 6.119 C 66.331 46.6499 78.4608 51.7946 81.5634 52.4187 C 68.3756 62.2524 52.6071 64.3366 41.6196 64.3366 C 41.6209 64.3366 41.6209 64.3366 41.6196 64.3366 Z " stroke-width="1.276281476020813"/>
            <path id="ID0.27076679933816195" d="M 41.4907 8.0666 C 64.8709 44.5759 76.6331 51.3823 80.8066 52.5782 C 67.8051 62.0036 52.4016 64.0175 41.6196 64.0175 C 37.8252 64.0175 34.9191 63.7521 33.4438 63.5823 C 47.5288 44.6193 44.3151 24.5906 42.3816 12.5502 C 42.2744 11.8789 42.1697 11.2305 42.0727 10.6077 C 41.9821 10.0193 41.7549 9.0698 41.4907 8.0666 M 39.6963 4.0425 C 39.6963 4.0425 41.178 9.0047 41.4435 10.706 C 43.3209 22.7515 47.7573 44.0322 32.2721 64.0737 C 32.2721 64.0737 35.9363 64.6557 41.6196 64.6557 C 51.8618 64.6557 68.664 62.7668 82.4109 52.1762 C 82.4109 52.1762 82.3649 52.1826 82.2717 52.1826 C 80.8844 52.1826 68.9793 50.7085 39.6963 4.0425 L 39.6963 4.0425 Z " stroke-width="1.276281476020813"/>
          </g>
          <path id="Snow_6_" fill="#FFFFFF" stroke="#000000" stroke-width="0.6381407380104065" d="M 84.9047 51.7269 C 82.185 48.147 75.4053 47.7092 71.2459 48.5694 C 69.2345 48.9855 66.9321 51.9924 69.2447 53.5546 C 70.2811 54.2565 69.0878 53.8915 68.0476 54.3484 C 67.1874 54.7262 66.6845 55.1206 66.054 55.6477 C 64.6246 56.0829 63.176 56.467 61.7325 56.8576 C 59.7096 56.1071 57.4455 55.6273 55.4851 56.9189 C 53.5784 58.1773 51.5019 59.8428 49.1191 59.9921 C 46.7247 60.1427 44.3892 58.9813 42.0944 59.1358 C 39.8277 59.2876 36.5962 58.4657 34.5056 59.16 C 31.3073 60.2219 25.735 63.5555 31.2652 66.796 C 33.3914 68.0416 36.8731 65.521 39.3351 66.4233 C 39.9132 66.6352 40.7224 66.6326 41.3171 66.4693 C 43.714 65.8094 45.5212 65.4419 48.0444 66.0136 C 50.5025 66.5701 52.6697 64.9097 54.9951 64.1209 C 55.7787 64.015 57.5744 63.7457 57.6995 63.761 C 58.8647 63.9001 60.3312 63.2709 61.3611 62.8778 C 63.1467 62.1937 64.8837 62.8995 66.5786 61.9244 C 68.2556 60.9596 70.9741 59.049 72.3321 58.5946 C 74.3486 57.9207 75.6644 57.9845 77.4206 56.7389 C 80.0574 54.8691 82.8639 56.5143 84.906 53.3797 C 85.1919 52.9381 85.2353 52.1609 84.9047 51.7269 Z "/>
          <path id="Snow_5_" fill="#FFFFFF" stroke="#000000" stroke-width="0.6381407380104065" d="M 63.8193 38.0911 C 62.4498 38.6616 61.3726 39.8192 60.7205 41.1287 C 60.4945 41.5818 58.5138 41.2933 58.0875 41.2729 C 57.2821 41.2359 56.4806 41.7158 55.831 42.1242 C 53.9919 43.2856 53.2874 44.6551 50.9339 45.1375 C 49.3922 45.4553 48.4388 46.184 47.9908 47.6633 C 47.9653 47.7462 48.0444 47.8037 48.1197 47.7922 C 50.3622 47.4297 52.9453 47.9581 55.0423 47.1783 C 55.7838 46.9039 56.3415 46.3857 56.8929 45.8407 C 58.3045 44.447 59.6535 45.4234 61.1952 44.9843 C 63.4096 45.0686 66.1906 43.5256 67.4273 42.1587 C 69.7527 39.5895 66.4037 37.0152 63.8193 38.0911 Z "/>
          <path id="Snow_4_" fill="#FFFFFF" stroke="#000000" stroke-width="0.6381407380104065" d="M 50.0609 34.5916 C 50.0954 34.4346 49.9933 34.3172 49.8402 34.3006 C 48.8778 34.1972 48.2257 34.5661 47.2429 34.21 C 46.3955 33.9024 45.4855 33.5221 44.5615 33.7365 C 43.5455 33.9739 42.9342 34.6158 42.3254 35.4199 C 42.2054 35.5947 42.1123 35.7836 42.0459 35.9853 C 42.0063 36.0772 41.9821 36.1448 41.9719 36.1971 C 41.6949 36.3018 41.4295 36.4205 41.2074 36.6426 C 39.6439 38.2047 41.6069 40.7918 43.5762 40.0617 C 44.3981 39.758 44.9635 39.287 45.4676 38.5736 C 45.668 38.289 45.8505 37.989 46.0764 37.7236 C 46.3572 37.3917 46.8192 37.2947 47.1127 36.9412 C 47.2034 36.8315 47.2774 36.7013 47.3374 36.566 C 48.5728 36.5417 49.7776 35.8934 50.0609 34.5916 Z "/>
          <g id="Lights_2_">
            <path id="String_1_" d="M 72.8515 44.4726 C 70.8911 43.0138 68.8044 44.1803 67.0317 45.671 C 64.2302 48.027 62.1499 50.8706 60.5111 54.1263 C 58.6133 57.8965 57.6918 62.1031 54.4348 65.0079 C 50.0992 68.8751 43.1588 69.4634 38.0001 72.0262 C 35.0991 73.4684 30.322 76.3515 33.7182 79.5741 C 33.9364 79.7834 34.2236 79.4771 34.0423 79.2525 C 29.255 73.3408 48.5919 69.8603 52.1847 67.5924 C 55.6511 65.4036 57.8118 62.8421 59.3536 59.1791 C 60.5265 56.3943 61.7045 53.6643 63.3534 51.1233 C 64.2468 49.7474 65.3802 48.6141 66.5084 47.4437 C 67.0712 46.8822 67.6813 46.3755 68.336 45.9211 C 69.3941 44.9997 73.9504 44.0335 71.9951 46.3742 C 71.7271 46.6231 72.0704 47.0264 72.3742 46.8643 C 73.1833 46.4355 74.0257 45.3468 72.8515 44.4726 Z " stroke-width="1.276281476020813"/>
            <g id="Light_4_">
              <path id="Base" fill="#B7B7B7" stroke="#000000" stroke-width="0.6381407380104065" d="M 54.5471 68.1055 C 54.5471 68.4858 54.1017 68.7947 53.5554 68.7947 L 53.5554 68.7947 C 53.0079 68.7947 52.565 68.4858 52.565 68.1055 L 52.565 66.2025 C 52.565 65.8222 53.0092 65.5133 53.5554 65.5133 L 53.5554 65.5133 C 54.1029 65.5133 54.5471 65.8222 54.5471 66.2025 L 54.5471 68.1055 Z "/>
              <path id="Light_1_" fill="url(#grad_2-.276281476020813,0,0,1.276281476020813,-2.25,-0.45)" stroke="#000000" stroke-width="0.6381407380104065" d="M 55.5617 69.6447 C 55.2503 71.5004 54.6645 73.1034 53.5567 73.1034 C 52.4489 73.1034 51.8656 71.4991 51.5504 69.6447 C 51.2313 67.7609 52.4489 66.5471 53.5554 66.5471 C 54.6619 66.5471 55.8795 67.7609 55.5617 69.6447 Z "/>
              <path id="Highlight_2_" fill="#FFFFFF" d="M 52.565 69.1712 C 52.4884 70.2585 52.8305 70.7372 52.565 70.7372 C 52.3008 70.7372 52.1604 70.5125 52.0851 69.4239 C 52.0086 68.3186 52.2995 67.6064 52.565 67.6064 C 52.8305 67.6064 52.6403 68.0672 52.565 69.1712 Z " stroke-width="1.276281476020813"/>
            </g>
            <g id="Light_5_">
              <path id="Base_2_" fill="#B7B7B7" stroke="#000000" stroke-width="0.6381407380104065" d="M 33.1719 76.2162 C 32.798 76.2928 32.4074 75.9163 32.2989 75.3803 L 32.2989 75.3803 C 32.1917 74.8429 32.4061 74.3465 32.7801 74.2725 L 34.6447 73.8972 C 35.0174 73.8219 35.408 74.1959 35.5164 74.7332 L 35.5164 74.7332 C 35.6249 75.2692 35.4105 75.7657 35.0366 75.841 L 33.1719 76.2162 Z "/>
              <path id="Light_6_" fill="url(#grad_3-.276281476020813,0,0,1.276281476020813,-2.25,-0.45)" stroke="#000000" stroke-width="0.6381407380104065" d="M 31.8625 77.5155 C 29.9825 77.5742 28.2952 77.3177 28.0757 76.2303 C 27.8575 75.1454 29.315 74.2559 31.0712 73.582 C 32.8541 72.8979 34.2861 73.8513 34.5031 74.9374 C 34.7213 76.0235 33.7718 77.4555 31.8625 77.5155 Z "/>
              <path id="Highlight_4_" fill="#FFFFFF" d="M 31.7348 74.483 C 30.6538 74.6234 30.2518 75.051 30.1995 74.7919 C 30.1471 74.5328 30.3398 74.3516 31.3928 74.0631 C 32.461 73.7709 33.2179 73.9151 33.2689 74.1755 C 33.3212 74.4345 32.8337 74.3401 31.7348 74.483 Z " stroke-width="1.276281476020813"/>
            </g>
            <g id="Light_3_">
              <path id="Base_1_" fill="#B7B7B7" stroke="#000000" stroke-width="0.6381407380104065" d="M 65.5103 50.5974 C 65.8524 50.7633 65.9366 51.2981 65.6967 51.7908 L 65.6967 51.7908 C 65.458 52.2834 64.9871 52.5476 64.6437 52.3804 L 62.9322 51.5508 C 62.5889 51.3849 62.506 50.8501 62.7459 50.3588 L 62.7459 50.3588 C 62.9846 49.8661 63.4555 49.6007 63.7988 49.7666 L 65.5103 50.5974 Z "/>
              <path id="Light_2_" fill="url(#grad_4-.276281476020813,0,0,1.276281476020813,-2.25,-0.45)" stroke="#000000" stroke-width="0.6381407380104065" d="M 67.3367 50.3562 C 68.8695 51.4462 70.059 52.6727 69.574 53.6694 C 69.0916 54.6662 67.3941 54.4914 65.5869 53.9643 C 63.7516 53.4308 63.1913 51.8048 63.6738 50.8093 C 64.1588 49.8125 65.7822 49.2471 67.3367 50.3562 Z "/>
              <path id="Highlight_3_" fill="#FFFFFF" d="M 65.6048 52.8462 C 66.5492 53.3887 67.1287 53.2904 67.0138 53.5303 C 66.8977 53.7677 66.6347 53.7958 65.6239 53.3899 C 64.5952 52.9751 64.0809 52.4034 64.197 52.1647 C 64.3132 51.926 64.6425 52.2962 65.6048 52.8462 Z " stroke-width="1.276281476020813"/>
            </g>
          </g>
          <g id="Lights">
            <path id="String" d="M 57.4889 28.0149 C 53.3703 28.893 52.7131 34.5418 50.708 37.5475 C 48.6915 40.5697 46.2883 43.4681 42.7721 44.7125 C 41.2597 45.2473 39.7409 45.782 38.6995 47.0596 C 37.2994 48.7787 38.4059 51.6172 40.5412 50.4073 C 40.8934 50.2069 40.2425 49.8546 39.8494 49.9784 C 38.2451 49.7193 39.21 47.2536 40.6765 46.6524 C 41.2329 46.35 41.8123 46.0973 42.4147 45.8956 C 43.1907 45.6033 43.9744 45.3532 44.7337 45.0175 C 47.0566 43.9901 48.8204 41.7362 50.3175 39.7809 C 51.9818 37.6087 52.9824 35.351 54.0442 32.8648 C 54.6607 31.4239 56.4819 27.5503 58.7065 29.3218 C 59.7747 30.1718 59.8003 32.3683 59.8398 33.5884 C 59.8577 34.1168 60.6681 34.1206 60.663 33.5884 C 60.6426 31.891 60.2635 27.424 57.4889 28.0149 Z " stroke-width="1.276281476020813"/>
            <g id="Light_7_">
              <path id="Base_3_" fill="#B7B7B7" stroke="#000000" stroke-width="0.6381407380104065" d="M 46.3572 45.209 C 46.1147 45.5038 45.5748 45.4578 45.1536 45.1094 L 45.1536 45.1094 C 44.7312 44.761 44.5857 44.2403 44.8295 43.9455 L 46.0407 42.4803 C 46.2832 42.1867 46.8217 42.2314 47.2442 42.5798 L 47.2442 42.5798 C 47.6654 42.9283 47.8121 43.449 47.5696 43.7438 L 46.3572 45.209 Z "/>
              <path id="Light_8_" fill="#EA0000" stroke="#000000" stroke-width="0.6381407380104065" d="M 46.1581 47.043 C 44.7363 48.2733 43.2635 49.1386 42.4084 48.4316 C 41.5545 47.7271 42.1263 46.1177 43.0657 44.4879 C 44.019 42.8325 45.7305 42.6717 46.5844 43.3775 C 47.4395 44.0833 47.6028 45.7935 46.1581 47.043 Z "/>
              <path id="Highlight_5_" fill="#FFFFFF" d="M 44.1492 44.7687 C 43.3988 45.5599 43.3566 46.1445 43.1512 45.976 C 42.947 45.8075 42.9827 45.5459 43.617 44.6589 C 44.2628 43.7591 44.9418 43.3941 45.146 43.5626 C 45.3502 43.731 44.9112 43.9659 44.1492 44.7687 Z " stroke-width="1.276281476020813"/>
            </g>
            <g id="Light_9_">
              <path id="Base_4_" fill="#B7B7B7" stroke="#000000" stroke-width="0.6381407380104065" d="M 57.6855 28.7654 C 58.0671 28.7398 58.4002 29.1648 58.4334 29.7124 L 58.4334 29.7124 C 58.4678 30.2599 58.1896 30.7206 57.808 30.7449 L 55.9101 30.8636 C 55.5285 30.8853 55.1942 30.4615 55.1597 29.9153 L 55.1597 29.9153 C 55.1265 29.3703 55.406 28.907 55.7876 28.8841 L 57.6855 28.7654 Z "/>
              <path id="Light_10_" fill="url(#grad_5-.276281476020813,0,0,1.276281476020813,-2.25,-0.45)" stroke="#000000" stroke-width="0.6381407380104065" d="M 59.1596 27.6563 C 61.028 27.8541 62.6668 28.3378 62.7344 29.4443 C 62.8046 30.5496 61.2399 31.2311 59.4072 31.6587 C 57.5476 32.0952 56.2598 30.9542 56.1909 29.8489 C 56.122 28.7449 57.2592 27.4559 59.1596 27.6563 Z "/>
              <path id="Highlight_6_" fill="#FFFFFF" d="M 58.8724 30.6772 C 59.9623 30.6862 60.4192 30.316 60.4358 30.5815 C 60.4524 30.8457 60.2367 30.9989 59.1557 31.1405 C 58.0569 31.2835 57.3268 31.0384 57.3115 30.773 C 57.2936 30.51 57.7633 30.6708 58.8724 30.6772 Z " stroke-width="1.276281476020813"/>
            </g>
          </g>
          <g id="Star_2_">
            <path id="Star" fill="#7F00FF" stroke="#000000" stroke-width="0.6381407380104065" d="M 52.3417 17.52 C 51.3564 19.1447 44.7631 16.8602 44.7631 16.8602 C 44.7631 16.8602 41.7741 23.1663 39.9222 22.7298 C 38.0716 22.2946 38.2081 15.3185 38.2081 15.3185 C 38.2081 15.3185 31.2881 14.4251 31.1299 12.5298 C 30.9716 10.6332 37.6491 8.6078 37.6491 8.6078 C 37.6491 8.6078 36.3601 1.7503 38.1137 1.0139 C 39.8686 0.2775 43.8582 6.0029 43.8582 6.0029 C 43.8582 6.0029 49.9818 2.6565 51.2236 4.0987 C 52.4655 5.5383 48.255 11.1029 48.255 11.1029 C 48.255 11.1029 53.3295 15.8928 52.3417 17.52 Z "/>
            <path id="Star_1_" fill="#FFFFFF" d="M 47.2876 14.6995 C 46.7924 15.5163 43.4792 14.3676 43.4792 14.3676 C 43.4792 14.3676 41.9783 17.5366 41.0466 17.3171 C 40.1162 17.0989 40.1851 13.5942 40.1851 13.5942 C 40.1851 13.5942 36.7072 13.145 36.6294 12.1928 C 36.5502 11.2395 39.9056 10.2223 39.9056 10.2223 C 39.9056 10.2223 39.2572 6.7763 40.1379 6.4062 C 41.0198 6.0361 43.0248 8.9128 43.0248 8.9128 C 43.0248 8.9128 46.1019 7.2319 46.726 7.9556 C 47.3501 8.6805 45.2353 11.4756 45.2353 11.4756 C 45.2353 11.4756 47.7841 13.8814 47.2876 14.6995 Z " stroke-width="1.276281476020813"/>
          </g>
        </g>
      </g>
    </g>
  </g>
</svg>