<svg version="1.1" xmlns="http://www.w3.org/2000/svg" xmlns:xlink="http://www.w3.org/1999/xlink" width="68.07378" height="76.31918" viewBox="0,0,68.07378,76.31918"><g transform="translate(-206.96676,-141.11559)"><g data-paper-data="{&quot;isPaintingLayer&quot;:true}" stroke-linecap="butt" stroke-linejoin="miter" stroke-miterlimit="10" stroke-dasharray="" stroke-dashoffset="0" style="mix-blend-mode: normal"><g data-paper-data="{&quot;index&quot;:null}" id="Hat_Base" stroke="none" stroke-width="1"><path d="M212.726,202.6691c-0.719,-8.2591 5.4647,-15.1157 2.8368,-26.1833c-2.642,-11.0711 -2.642,-21.788 0,-24.6001c2.6279,-2.8156 4.93,2.4296 6.0243,3.8639c1.4379,1.8877 11.8857,11.953 30.6882,21.9687c18.806,10.0122 17.2229,26.0026 17.2229,26.0026c-30.2242,-13.1784 -56.7722,-1.0554 -56.7722,-1.0518z" id="Fill_1_" fill="#458ef9" fill-rule="evenodd"/><g id="Stripes_3_" fill="#1f1287" fill-rule="evenodd"><path d="M268.2162,195.2848c0,0 -25.7724,-14.0886 -54.6544,0l1.5158,-5.0929c0,0 22.2521,-11.6484 50.8223,0.0036z" id="ID0.4795656418427825"/><path d="M256.9892,180.3037c0,0 -24.4124,-6.7645 -39.946,3.2583l-0.9279,-4.1437c0,0 16.89,-9.573 33.9713,-3.9029z" id="ID0.2848444706760347"/><path d="M232.7397,166.548c0,0 -12.7251,0.0992 -16.8121,7.5189l-1.576,-3.7612c0,0 2.5039,-7.2674 15.0413,-7.1222l3.7753,3.6797" id="ID0.9288907898589969"/><path d="M221.5871,155.7496c0,0 -6.212,1.0908 -7.8376,4.9264v-6.5697l6.6406,-1.7389z" id="ID0.18686081282794476"/></g><path d="M269.1441,204.532c-9.2366,-4.0233 -19.0646,-6.0668 -29.2078,-6.0668c-15.6682,0 -26.7357,4.9618 -26.8455,5.0114l-1.1404,0.517l-0.1098,-1.2502c-0.3188,-3.6478 0.6304,-6.9451 1.6256,-10.4407c1.3281,-4.6395 2.6987,-9.4349 1.2325,-15.6115c-2.3765,-9.9803 -3.0706,-21.912 0.216,-25.4111c0.6835,-0.7296 1.4308,-1.0979 2.2206,-1.0979c2.0046,0 3.4566,2.3375 4.5085,4.041c0.2514,0.4002 0.4639,0.7543 0.6517,0.9916c1.0979,1.445 11.3863,11.5953 30.3977,21.7208c19.1071,10.1751 17.7046,26.7074 17.6869,26.8703l-0.1204,1.2113zM216.2074,152.4913c-2.0931,2.2277 -2.6066,11.9565 0.216,23.7891c1.5761,6.6264 0.0744,11.8751 -1.2537,16.5075c-0.8287,2.9219 -1.6256,5.6985 -1.6185,8.5743c3.3079,-1.3033 13.143,-4.6714 26.3886,-4.6714c9.952,0 19.6029,1.9196 28.7155,5.7056c-0.0602,-3.8604 -1.5477,-15.7815 -16.7944,-23.8989c-19.5391,-10.4089 -29.7744,-20.63 -30.9786,-22.2131c-0.2089,-0.2727 -0.4568,-0.6729 -0.7402,-1.1298c-0.7012,-1.1191 -1.9868,-3.2016 -3.0103,-3.2016c-0.2834,0 -0.595,0.1806 -0.9244,0.5383z" id="Outline_6_" fill="#000000" fill-rule="nonzero"/></g><path d="M220.4326,143.7754c1.151,1.0943 1.8664,2.6102 1.8664,4.2783c0,1.6681 -0.7154,3.1839 -1.8664,4.2782c-1.1546,1.0944 -2.7483,1.7744 -4.505,1.7744c-1.7566,0 -3.3504,-0.68 -4.5049,-1.7744c-1.1511,-1.0943 -1.8665,-2.6101 -1.8665,-4.2782c0,-1.6681 0.7154,-3.184 1.8665,-4.2783c1.1545,-1.0944 2.7483,-1.7744 4.5049,-1.7744c1.7567,0 3.3504,0.68 4.505,1.7744z" data-paper-data="{&quot;index&quot;:null}" id="Puff" fill="#4a3ced" fill-rule="evenodd" stroke="#000000" stroke-width="1.77081"/><g data-paper-data="{&quot;index&quot;:null}" id="Brim" stroke="none" stroke-width="1"><path d="M268.9068,215.6668c-33.5675,-12.6506 -56.071,0 -56.071,0c0,0 -2.7377,1.105 -3.6444,1.105c-4.0162,0 0.4852,-7.4303 0.4852,-7.4303c-3.1874,-4.041 4.2358,-8.6097 8.0324,-10.3663c3.8038,-1.7567 8.6806,-3.5169 23.4987,-3.6904c14.8217,-0.1736 28.3755,6.1624 30.8618,8.4326c2.4826,2.2737 0,4.9229 0,4.9229c7.2178,11.3048 -3.1627,7.0301 -3.1627,7.0265z" id="Brim_Fill" fill="#4a3ced" fill-rule="evenodd"/><path d="M208.6992,209.3521c-0.595,-0.9421 -0.7615,-1.962 -0.5065,-3.0352c0.9669,-4.0303 7.7597,-7.3524 9.1091,-7.9757c3.9028,-1.8027 8.9496,-3.577 23.782,-3.7541l0.6127,-0.0036c14.7544,0 28.1382,6.2475 30.7307,8.6204c0.8464,0.7756 1.2927,1.6751 1.3281,2.6703c0.046,1.1829 -0.5136,2.2029 -0.9102,2.7696c2.001,2.6385 2.6385,4.9618 1.8947,6.9133c-1.2572,3.2972 -6.7043,0.5879 -6.7043,0.5879c-9.6509,-3.5771 -19.3018,-5.3904 -28.6977,-5.3904c-14.4959,0 -24.0016,4.381 -25.9177,5.3479c0,0 -3.0635,1.367 -4.218,1.3316c-1.314,-0.0425 -1.8594,-0.9137 -2.125,-2.0825c-0.5277,-2.3197 0.9739,-4.9795 1.6221,-5.9995zM208.4512,215.0364c0.6021,1.8133 3.9277,0.0213 3.9277,0.0213c0.4144,-0.2338 10.3557,-5.7127 26.9624,-5.7127c9.7288,0 19.7233,1.9054 29.7001,5.6702l0.5064,0.1912c0,0 3.1981,1.6327 3.8816,-0.1558c0.5915,-1.5548 -0.0885,-3.5629 -2.0187,-5.9641l-0.3825,-0.4781c0,0 -1.0448,-1.3281 -3.2441,-2.38c0,0 1.8487,0.0142 3.9666,1.5158c0.2798,-0.4073 0.6375,-1.0695 0.6056,-1.8168c-0.0248,-0.6163 -0.3081,-1.1688 -0.8747,-1.6858c-2.1711,-1.9904 -15.268,-8.2556 -29.7816,-8.2556l-0.5985,0.0036c-14.549,0.1735 -19.44,1.8877 -23.2083,3.6266c-3.7222,1.7177 -7.742,4.5581 -8.3299,7.023c-0.1594,0.6446 -0.0071,1.2396 0.3117,1.8204c1.9904,-1.2962 3.6939,-1.3139 3.6939,-1.3139c-2.1994,1.0519 -3.2441,2.3835 -3.2441,2.3835l-0.0355,-0.0035l-0.1664,0.2337c-0.6056,0.8358 -2.2808,3.4566 -1.6717,5.277z" id="Brim_Outline" fill="#000000" fill-rule="nonzero"/></g></g></g></svg>