<svg xmlns="http://www.w3.org/2000/svg" xmlns:xlink="http://www.w3.org/1999/xlink" version="1.1" width="481" height="361" viewBox="-0.5 -0.5 481 361">
  <defs>
    <radialGradient id="grad_1" cx="0.4979" cy="0.3583" r="0.8342100000000001">
      <stop offset="0" stop-color="#FFF34E" stop-opacity="1"/>
      <stop offset="1" stop-color="#0C0255" stop-opacity="1"/>
    </radialGradient>
  </defs>
  <!-- Exported by Scratch - http://scratch.mit.edu/ -->
  <path id="ID0.36037091817706823" fill="url(#grad_1)" stroke="none" d="M 0 0 L 480 0 L 480 360 L 0 360 L 0 0 Z " stroke-width="1"/>
  <path id="ID0.15764051768928766" fill="#FFFF00" stroke="#FFFF00" stroke-width="0.7643254377073194" stroke-linecap="round" d="M 45.2804 56.4942 L 47.6058 46.7399 L 55.2335 53.7464 L 64.8892 50.6919 L 60.7604 59.8142 L 66.5198 70.4179 L 53.3988 66.9529 L 44.5426 76.9694 L 44.1242 64.8765 L 34.9628 59.3572 L 45.2804 56.4942 Z "/>
  <path id="ID0.15764051768928766" fill="#FFFF00" stroke="#FFFF00" stroke-width="0.7643254377073194" stroke-linecap="round" d="M 369.5304 198.8058 L 371.8558 208.5601 L 379.4835 201.5536 L 389.1392 204.6081 L 385.0104 195.4858 L 390.7698 184.8821 L 377.6488 188.3471 L 368.7926 178.3306 L 368.3742 190.4235 L 359.2128 195.9428 L 369.5304 198.8058 Z "/>
  <path id="ID0.15764051768928766" fill="#FFFF00" stroke="#FFFF00" stroke-width="0.7643254377073194" stroke-linecap="round" d="M 195.9196 260.0058 L 193.5942 269.7601 L 185.9665 262.7536 L 176.3108 265.8081 L 180.4396 256.6858 L 174.6802 246.0821 L 187.8012 249.5471 L 196.6574 239.5306 L 197.0758 251.6235 L 206.2372 257.1428 L 195.9196 260.0058 Z "/>
  <path id="ID0.15764051768928766" fill="#FFFF00" stroke="#FFFF00" stroke-width="0.7643254377073194" stroke-linecap="round" d="M 241.5804 45.7058 L 243.9058 55.4601 L 251.5335 48.4536 L 261.1892 51.5081 L 257.0604 42.3858 L 262.8198 31.7821 L 249.6988 35.2471 L 240.8426 25.2306 L 240.4242 37.3235 L 231.2628 42.8428 L 241.5804 45.7058 Z "/>
  <path id="ID0.15764051768928766" fill="#FFFF00" stroke="#FFFF00" stroke-width="0.7643254377073194" stroke-linecap="round" d="M 224.4696 152.8942 L 222.1442 143.1399 L 214.5165 150.1464 L 204.8608 147.0919 L 208.9896 156.2142 L 203.2302 166.8179 L 216.3512 163.3529 L 225.2074 173.3694 L 225.6258 161.2765 L 234.7872 155.7572 L 224.4696 152.8942 Z "/>
  <path id="ID0.15764051768928766" fill="#FFFF00" stroke="#FFFF00" stroke-width="0.7643254377073194" stroke-linecap="round" d="M 87.0804 174.2442 L 89.4058 164.4899 L 97.0335 171.4964 L 106.6892 168.4419 L 102.5604 177.5642 L 108.3198 188.1679 L 95.1988 184.7029 L 86.3426 194.7194 L 85.9242 182.6265 L 76.7628 177.1072 L 87.0804 174.2442 Z "/>
  <path id="ID0.15764051768928766" fill="#FFFF00" stroke="#FFFF00" stroke-width="0.7643254377073194" stroke-linecap="round" d="M 392.0804 327.0558 L 394.4058 336.8101 L 402.0335 329.8036 L 411.6892 332.8581 L 407.5604 323.7358 L 413.3198 313.1321 L 400.1988 316.5971 L 391.3426 306.5806 L 390.9242 318.6735 L 381.7628 324.1928 L 392.0804 327.0558 Z "/>
  <path id="ID0.15764051768928766" fill="#FFFF00" stroke="#FFFF00" stroke-width="0.7643254377073194" stroke-linecap="round" d="M 427.3196 88.6442 L 424.9942 78.8899 L 417.3665 85.8964 L 407.7108 82.8419 L 411.8396 91.9642 L 406.0802 102.5679 L 419.2012 99.1029 L 428.0574 109.1194 L 428.4758 97.0265 L 437.6372 91.5072 L 427.3196 88.6442 Z "/>
  <path id="ID0.15764051768928766" fill="#FFFF00" stroke="#FFFF00" stroke-width="0.7643254377073194" stroke-linecap="round" d="M 51.9696 311.5942 L 49.6442 301.8399 L 42.0165 308.8464 L 32.3608 305.7919 L 36.4896 314.9142 L 30.7302 325.5179 L 43.8512 322.0529 L 52.7074 332.0694 L 53.1258 319.9765 L 62.2872 314.4572 L 51.9696 311.5942 Z "/>
</svg>