<svg version="1.1" xmlns="http://www.w3.org/2000/svg" xmlns:xlink="http://www.w3.org/1999/xlink" width="38.587" height="33.385" viewBox="0,0,38.587,33.385"><g transform="translate(-220.707,-163.308)"><g data-paper-data="{&quot;isPaintingLayer&quot;:true}" fill="#ffffff" fill-rule="nonzero" stroke="none" stroke-width="1" stroke-linecap="butt" stroke-linejoin="miter" stroke-miterlimit="10" stroke-dasharray="" stroke-dashoffset="0" style="mix-blend-mode: normal"><path d="M259.294,179.974l-1.293,2.23l-2.576,0.002l-1,-1.729l-2.785,0.004l0.838,1.449c0.138,0.241 0.056,0.545 -0.184,0.682c-0.078,0.047 -0.164,0.068 -0.25,0.068c-0.172,0 -0.34,-0.092 -0.432,-0.25l-1.127,-1.947l-2.045,0.002l2.229,3.857c0.136,0.241 0.054,0.545 -0.184,0.684c-0.078,0.045 -0.164,0.066 -0.25,0.066c-0.172,0 -0.34,-0.09 -0.435,-0.25l-2.516,-4.355l-2.582,0.004l2.812,3.844l-4.727,-0.514l1.346,2.33h4.91c0.277,0 0.5,0.225 0.5,0.5c0,0.275 -0.223,0.5 -0.5,0.5h-4.332l1.023,1.771h2.121c0.274,0 0.5,0.226 0.5,0.5c0,0.277 -0.226,0.5 -0.5,0.5h-1.545l1.317,2.283l2.002,-0.004l1.285,2.229l-1.291,2.229l-2.58,0.006l-1.287,-2.229l1.007,-1.732l-1.361,-2.356l-0.855,1.485c-0.092,0.16 -0.26,0.25 -0.434,0.25c-0.084,0 -0.17,-0.02 -0.25,-0.065c-0.242,-0.138 -0.324,-0.445 -0.184,-0.685l1.146,-1.985l-1.023,-1.771l-2.252,3.897c-0.092,0.159 -0.262,0.25 -0.434,0.25c-0.084,0 -0.17,-0.02 -0.25,-0.067c-0.241,-0.138 -0.323,-0.446 -0.182,-0.683l2.539,-4.399l-1.303,-2.257l-1.92,4.354l-1.92,-4.358l-1.379,2.381l2.472,4.281c0.137,0.242 0.055,0.545 -0.183,0.685c-0.08,0.044 -0.166,0.065 -0.25,0.065c-0.172,0 -0.342,-0.09 -0.434,-0.25l-2.186,-3.783l-1.024,1.769l1.081,1.873c0.138,0.243 0.056,0.545 -0.184,0.684c-0.078,0.045 -0.164,0.066 -0.25,0.066c-0.172,0 -0.34,-0.09 -0.432,-0.25l-0.795,-1.373l-1.312,2.266l0.998,1.729l-1.294,2.232l-2.577,0.004l-1.287,-2.229l1.293,-2.232l2,-0.002l1.335,-2.307h-1.675c-0.276,0 -0.5,-0.223 -0.5,-0.5c0,-0.275 0.224,-0.5 0.5,-0.5h2.255l1.025,-1.771h-4.467c-0.275,0 -0.5,-0.226 -0.5,-0.5c0,-0.276 0.225,-0.5 0.5,-0.5h5.048l1.349,-2.327l-4.72,0.512l2.806,-3.83l-2.731,0.004l-2.504,4.336c-0.092,0.158 -0.261,0.25 -0.433,0.25c-0.085,0 -0.171,-0.021 -0.25,-0.066c-0.241,-0.139 -0.323,-0.446 -0.183,-0.684l2.213,-3.834l-2.051,0.004l-1.105,1.916c-0.092,0.158 -0.262,0.25 -0.434,0.25c-0.084,0 -0.17,-0.021 -0.25,-0.066c-0.241,-0.139 -0.323,-0.446 -0.183,-0.684l0.815,-1.416l-2.619,0.003l-1.004,1.732l-2.58,0.004l-1.287,-2.229l1.293,-2.232l2.58,-0.002l0.994,1.727l2.617,-0.004l-0.814,-1.41c-0.136,-0.24 -0.054,-0.545 0.184,-0.684c0.243,-0.136 0.545,-0.054 0.685,0.184l1.101,1.91l2.047,-0.005l-2.207,-3.818c-0.137,-0.241 -0.055,-0.545 0.184,-0.684c0.237,-0.138 0.544,-0.055 0.684,0.184l2.494,4.316l2.75,-0.004l-2.812,-3.843l4.729,0.514l-1.323,-2.294h-5.08c-0.275,0 -0.5,-0.224 -0.5,-0.5c0,-0.275 0.225,-0.5 0.5,-0.5h4.502l-1.022,-1.771h-2.293c-0.276,0 -0.5,-0.225 -0.5,-0.5c0,-0.276 0.224,-0.5 0.5,-0.5h1.714l-1.339,-2.318l-2.004,0.003l-1.287,-2.229l1.295,-2.231l2.578,-0.004l1.285,2.23l-1.002,1.732l1.297,2.247l0.771,-1.34c0.139,-0.241 0.445,-0.322 0.685,-0.185c0.24,0.139 0.322,0.446 0.184,0.685l-1.061,1.84l1.021,1.771l2.168,-3.754c0.137,-0.241 0.442,-0.323 0.682,-0.183c0.241,0.138 0.323,0.445 0.184,0.683l-2.454,4.254l1.364,2.363l1.919,-4.349l1.923,4.358l1.293,-2.234l-2.533,-4.393c-0.138,-0.241 -0.056,-0.545 0.184,-0.683c0.239,-0.139 0.545,-0.057 0.682,0.183l2.249,3.894l1.025,-1.769l-1.146,-1.982c-0.137,-0.241 -0.056,-0.545 0.185,-0.684c0.241,-0.139 0.545,-0.055 0.682,0.184l0.857,1.485l1.396,-2.414l-0.998,-1.728l1.291,-2.233l2.579,-0.002l1.285,2.229l-1.293,2.23l-2,0.004l-1.354,2.342h1.546c0.274,0 0.5,0.225 0.5,0.5c0,0.277 -0.226,0.5 -0.5,0.5h-2.127l-1.027,1.772h4.34c0.277,0 0.5,0.224 0.5,0.5c0,0.276 -0.223,0.5 -0.5,0.5h-4.92l-1.326,2.289l4.719,-0.513l-2.805,3.83l2.605,-0.004l2.479,-4.295c0.139,-0.24 0.446,-0.323 0.684,-0.184c0.242,0.139 0.324,0.445 0.185,0.684l-2.188,3.793l2.047,-0.002l1.084,-1.879c0.139,-0.241 0.446,-0.321 0.684,-0.183c0.241,0.138 0.323,0.445 0.182,0.683l-0.793,1.377l2.748,-0.004l1.004,-1.731l2.58,-0.003zM242.168,182.748l3.199,0.349l-1.906,-2.604l-0.359,-0.493l0.369,-0.507l1.896,-2.593l-3.193,0.349l-0.623,0.067l-0.248,-0.562l-1.301,-2.953l-1.3,2.944l-0.251,0.569l-0.612,-0.066l-3.202,-0.348l1.903,2.603l0.362,0.496l-0.367,0.503l-1.898,2.593l3.194,-0.349l0.622,-0.065l0.248,0.562l1.301,2.95l1.301,-2.944l0.25,-0.566z"/></g></g></svg>