<svg version="1.1" xmlns="http://www.w3.org/2000/svg" xmlns:xlink="http://www.w3.org/1999/xlink" width="32.73243" height="37.61055" viewBox="0,0,32.73243,37.61055"><g transform="translate(-223.63378,-161.19473)"><g data-paper-data="{&quot;isPaintingLayer&quot;:true}" fill="#ffffff" fill-rule="nonzero" stroke="none" stroke-width="1" stroke-linecap="butt" stroke-linejoin="miter" stroke-miterlimit="10" stroke-dasharray="" stroke-dashoffset="0" style="mix-blend-mode: normal"><path d="M256.29081,188.81129c0.10227,0.18429 0.10035,0.40884 -0.00504,0.59136c-0.10539,0.18253 -0.29888,0.29648 -0.50966,0.3l-4.00824,0.06762c-0.00336,0.00008 -0.0068,0.00008 -0.01016,0.00008c-0.25663,0 -0.48533,-0.16341 -0.56816,-0.40708l-0.93442,-2.74948l-2.90449,-1.67686l1.39359,4.1005c0.10667,0.31385 -0.0613,0.65475 -0.37515,0.76141c-0.06402,0.02177 -0.12915,0.03209 -0.19317,0.03209c-0.24999,0 -0.48333,-0.15732 -0.56823,-0.40723l-1.67167,-4.91889l-5.00292,2.88841l3.424,3.90708c0.21846,0.24919 0.19341,0.62842 -0.05586,0.84688c-0.24919,0.21846 -0.62842,0.19349 -0.84688,-0.05586l-2.85415,-3.25691v3.35381l1.91389,2.18389c0.17189,0.19613 0.1975,0.48077 0.0633,0.70435l-2.06266,3.43744c-0.10843,0.18077 -0.30384,0.29136 -0.51462,0.29136c-0.21078,0 -0.40619,-0.11059 -0.51462,-0.29136l-2.06266,-3.43744c-0.13412,-0.22358 -0.10851,-0.50822 0.0633,-0.70435l1.91389,-2.18397v-3.3539l-2.85431,3.25714c-0.11867,0.1354 -0.2848,0.20462 -0.45165,0.20462c-0.14044,0 -0.28144,-0.04898 -0.39531,-0.14877c-0.24927,-0.21838 -0.27432,-0.5976 -0.05586,-0.84687l3.42407,-3.90725l-5.00291,-2.8884l-1.67159,4.91873c-0.0849,0.24983 -0.31825,0.40723 -0.56824,0.40723c-0.0641,0 -0.12915,-0.01032 -0.19317,-0.03208c-0.31384,-0.10667 -0.48182,-0.44749 -0.37515,-0.76134l1.39343,-4.10034l-2.90449,1.67686l-0.93442,2.74941c-0.08283,0.24367 -0.31153,0.40707 -0.56816,0.40707c-0.00336,0 -0.00673,-0.00008 -0.01017,-0.00008l-4.00823,-0.06762c-0.21078,-0.00352 -0.40427,-0.11747 -0.50966,-0.3c-0.10547,-0.18253 -0.10731,-0.40699 -0.00504,-0.59136l1.94566,-3.50506c0.1266,-0.22791 0.38603,-0.3481 0.64162,-0.29737l2.84823,0.56552l2.90457,-1.67695l-4.24791,-0.84343c-0.32513,-0.06458 -0.53639,-0.38043 -0.47181,-0.70556c0.06458,-0.32513 0.38066,-0.53607 0.70555,-0.47181l5.09574,1.01172v-5.77673l-5.09558,1.01165c-0.03937,0.00784 -0.07874,0.0116 -0.11747,0.0116c-0.28064,0 -0.53135,-0.19773 -0.58808,-0.48341c-0.06458,-0.32513 0.14668,-0.64098 0.47181,-0.70556l4.24766,-0.84336l-2.90449,-1.67694l-2.84823,0.56552c-0.03905,0.00776 -0.07826,0.01153 -0.11699,0.01153c-0.21494,0 -0.41739,-0.11571 -0.52463,-0.30889l-1.94558,-3.50498c-0.10227,-0.18429 -0.10035,-0.40883 0.00504,-0.59136c0.10539,-0.18253 0.29888,-0.29648 0.50966,-0.3l4.00824,-0.06762c0.25783,-0.00432 0.49454,0.16004 0.5784,0.40699l0.93442,2.74948l2.90448,1.67687l-1.39359,-4.1005c-0.10667,-0.31385 0.0613,-0.65474 0.37515,-0.76141c0.31384,-0.10675 0.65466,0.0613 0.76133,0.37515l1.67166,4.91889l5.00291,-2.88841l-3.42399,-3.90709c-0.21846,-0.24919 -0.19341,-0.62841 0.05586,-0.84687c0.24919,-0.21838 0.62842,-0.1935 0.84688,0.05585l2.85415,3.25691v-3.35389l-1.91381,-2.18381c-0.17189,-0.19613 -0.19749,-0.48077 -0.0633,-0.70435l2.06266,-3.43743c0.10843,-0.18077 0.30384,-0.29136 0.51462,-0.29136c0.21078,0 0.40619,0.11059 0.51462,0.29136l2.06274,3.43735c0.13412,0.22358 0.10851,0.50822 -0.0633,0.70436l-1.91389,2.18397v3.3539l2.85415,-3.25715c0.21846,-0.24935 0.59761,-0.27423 0.84688,-0.05586c0.24927,0.21838 0.27432,0.59761 0.05586,0.84688l-3.42408,3.90725l5.00292,2.88841l1.67159,-4.91873c0.10667,-0.31385 0.44756,-0.4819 0.76133,-0.37515c0.31384,0.10667 0.48182,0.44749 0.37515,0.76133l-1.39343,4.10034l2.90449,-1.67686l0.93442,-2.7494c0.08394,-0.24687 0.31672,-0.40892 0.5784,-0.40699l4.00824,0.06762c0.21078,0.00352 0.40427,0.11748 0.50966,0.3c0.10547,0.18253 0.10731,0.40699 0.00504,0.59136l-1.94558,3.50506c-0.10723,0.19309 -0.30968,0.30888 -0.52462,0.30888c-0.03873,0 -0.07794,-0.00376 -0.117,-0.01152l-2.84824,-0.56552l-2.90448,1.67695l4.2479,0.84343c0.32513,0.06458 0.53639,0.38043 0.47181,0.70556c-0.05674,0.28568 -0.30752,0.48341 -0.58801,0.48341c-0.03881,0 -0.0781,-0.00376 -0.11755,-0.0116l-5.09574,-1.01172v5.77672l5.09557,-1.01164c0.32497,-0.06458 0.64098,0.14668 0.70556,0.47181c0.06458,0.32513 -0.14669,0.64097 -0.47182,0.70555l-4.24766,0.84336l2.90449,1.67695l2.84823,-0.56552c0.25559,-0.05106 0.51502,0.0693 0.64162,0.29736zM245.66898,182.57988v-5.15984l-3.34109,1.92894c0.0581,0.20726 0.08979,0.4254 0.08979,0.65098c0,0.22559 -0.03177,0.44372 -0.08979,0.65098zM241.21726,179.99996c0,-0.67114 -0.54608,-1.21721 -1.21722,-1.21721c-0.67114,0 -1.21722,0.54607 -1.21722,1.21721c0,0.67115 0.54599,1.21722 1.21722,1.21722c0.67122,0 1.21722,-0.54608 1.21722,-1.21722zM245.06881,176.38047l-4.4686,-2.57992v3.85724c0.43452,0.11147 0.82191,0.34114 1.12647,0.65226zM239.39987,173.80063l-4.4686,2.57992l3.34213,1.92957c0.30456,-0.3112 0.69196,-0.54087 1.12647,-0.65226zM234.3311,177.42004v5.15984l3.34109,-1.92894c-0.0581,-0.20726 -0.08979,-0.42539 -0.08979,-0.65098c0,-0.22558 0.03177,-0.44372 0.08979,-0.65098zM234.93127,183.61945l4.4686,2.57991v-3.85723c-0.43452,-0.11147 -0.82191,-0.34114 -1.12647,-0.65226zM240.60021,186.19928l4.4686,-2.57991l-3.34213,-1.92958c-0.30456,0.3112 -0.69195,0.54087 -1.12647,0.65226zM251.53941,173.3377l1.96871,0.39091l1.24779,-2.24791l-2.57063,-0.04337zM238.67711,165.16583l1.32292,1.50954l1.32293,-1.50954l-1.32293,-2.20453zM228.46067,173.33762l-0.64586,-1.90036l-2.57072,0.04337l1.24779,2.24791zM228.46067,186.66221l-1.9687,-0.39091l-1.24779,2.24791l2.57064,0.04338zM241.32297,194.83409l-1.32293,-1.50954l-1.32292,1.50954l1.32292,2.20454zM254.75599,188.51929l-1.24779,-2.24791l-1.96878,0.39091l0.64586,1.90037z"/></g></g></svg>