<svg version="1.1" xmlns="http://www.w3.org/2000/svg" xmlns:xlink="http://www.w3.org/1999/xlink" width="52.89791" height="53.25529" viewBox="0,0,52.89791,53.25529"><g transform="translate(-213.55105,-153.37236)"><g data-paper-data="{&quot;isPaintingLayer&quot;:true}" fill-rule="nonzero" stroke="none" stroke-width="1" stroke-linecap="butt" stroke-linejoin="miter" stroke-miterlimit="10" stroke-dasharray="" stroke-dashoffset="0" style="mix-blend-mode: normal"><path d="M266.44895,179.82148c0,0.74039 -0.59993,1.34032 -1.34032,1.34032h-4.34513l1.91933,1.91933c0.52344,0.52326 0.52344,1.37195 -0.00018,1.89539c-0.26163,0.26163 -0.60475,0.39244 -0.94769,0.39244c-0.34312,0 -0.68606,-0.13081 -0.94787,-0.39263l-3.81454,-3.81472h-6.22533l2.47601,2.47065c0.32793,0.23339 0.54828,0.60993 0.56382,1.04312c0.02591,0.71966 -0.52094,1.32549 -1.23166,1.38249c-0.00536,0.00054 -0.01072,0.00107 -0.01609,0.00143c-0.01448,0.0009 -0.02877,0.00322 -0.04343,0.00375l-4.12085,0.1485l4.60033,4.60033h5.34233c0.74039,0 1.34032,0.59993 1.34032,1.34032c0,0.74039 -0.59993,1.34032 -1.34032,1.34032h-2.66187l3.10596,3.10935c0.52344,0.52344 0.51968,1.37195 -0.00375,1.89557c-0.26181,0.26163 -0.61225,0.39244 -0.9552,0.39244c-0.34312,0 -0.70089,-0.13081 -0.96271,-0.39244l-3.2282,-3.19835v2.83986c0,0.74039 -0.59993,1.34032 -1.34032,1.34032c-0.74039,0 -1.34032,-0.59993 -1.34032,-1.34032v-5.52032l-4.35764,-4.38748l0.05469,4.23469c0.00447,0.74021 -0.59206,1.38428 -1.33227,1.38428c-0.00286,0 -0.00554,0 -0.00822,0c-0.46161,0 -0.77881,-0.20909 -1.16607,-0.5808c-0.38726,-0.37171 -2.84076,-2.67634 -2.84076,-2.67634v6.37991l3.92981,3.9039c0.52344,0.52344 0.54953,1.37195 0.02609,1.89557c-0.26163,0.26163 -0.61225,0.39244 -0.9552,0.39244c-0.34294,0 -0.70089,-0.13081 -0.96271,-0.39244l-2.038,-2.00815v4.52312c0,0.74039 -0.59993,1.34032 -1.34032,1.34032c-0.74039,0 -1.34032,-0.59993 -1.34032,-1.34032v-4.39714l-1.85625,1.88216c-0.26163,0.26163 -0.57866,0.39244 -0.9216,0.39244c-0.34312,0 -0.69339,-0.13081 -0.9552,-0.39263c-0.52326,-0.52344 -0.53827,-1.37213 -0.01465,-1.89557l3.74771,-3.77737v-6.32362c0,0 -2.62184,2.68617 -2.81181,2.82574c-0.26235,0.19265 -0.52684,0.27092 -0.77059,0.27575c-0.71751,0.01448 -1.31959,-0.56811 -1.34604,-1.29117l-0.1746,-4.35871l-4.54725,4.5174v5.39433c0,0.74039 -0.59993,1.34032 -1.34032,1.34032c-0.74039,0 -1.34032,-0.59993 -1.34032,-1.34032v-2.71369l-3.04252,3.07218c-0.26181,0.26163 -0.57508,0.39244 -0.91803,0.39244c-0.34294,0 -0.68606,-0.13081 -0.94787,-0.39244c-0.52344,-0.52344 -0.52344,-1.37195 0,-1.89557l3.10935,-3.10935h-2.78804c-0.74039,0 -1.34032,-0.59993 -1.34032,-1.34032c0,-0.74039 0.59993,-1.34032 1.34032,-1.34032h5.46867l4.48988,-4.48988l-3.93249,0.02234c-0.00322,0 -0.00661,0 -0.00983,0c-0.00375,0 -0.00769,-0.00054 -0.01162,-0.00054c-0.00626,0 -0.01233,0.0009 -0.01841,0.0009c-0.32686,0 -0.65443,-0.11884 -0.91249,-0.35903c-0.54203,-0.50449 -0.57258,-1.35247 -0.06845,-1.89431l2.72585,-2.92975h-6.25964l-3.81472,3.81472c-0.26181,0.26163 -0.60493,0.39244 -0.94787,0.39244c-0.34294,0 -0.68606,-0.13081 -0.94787,-0.39244c-0.52344,-0.52344 -0.52344,-1.37195 0,-1.89557l1.91933,-1.91933h-4.4713c-0.74039,0 -1.34032,-0.59993 -1.34032,-1.34032c0,-0.74039 0.59993,-1.34032 1.34032,-1.34032h4.52312l-1.97116,-1.97116c-0.52344,-0.52344 -0.52344,-1.37195 0,-1.89557c0.52344,-0.52326 1.37195,-0.52326 1.89557,0l3.8669,3.8669h6.20531l-2.83093,-2.76588c-0.25734,-0.25412 -0.41997,-0.5867 -0.42801,-0.92178c0,-0.00125 -0.06166,-0.00286 -0.06166,-0.00429c0,-0.00071 0,-0.00143 0,-0.00197c0,-0.02002 0.06166,-0.04021 0.06237,-0.06023c0.00697,-0.7118 0.63299,-1.29957 1.35158,-1.32566l4.12049,-0.1485l-4.42197,-4.42197h-5.52068c-0.74039,0 -1.34032,-0.59993 -1.34032,-1.34032c0,-0.74039 0.59993,-1.34032 1.34032,-1.34032h2.84004l-3.16887,-3.16136c-0.52344,-0.52362 -0.53094,-1.37213 -0.0075,-1.89574c0.52362,-0.52326 1.35711,-0.52326 1.88073,0l3.0427,3.07237v-2.66169c0,-0.74039 0.59993,-1.34032 1.34032,-1.34032c0.74039,0 1.34032,0.59993 1.34032,1.34032v5.34233l4.48559,4.45772l0.01573,-3.79381c-0.00036,-0.11133 0.01054,-0.21945 0.03592,-0.32364c0.04128,-0.25645 0.14994,-0.50378 0.34205,-0.70679c0.50932,-0.53738 1.34228,-0.56043 1.88002,-0.05165l2.8908,2.76552v-6.33005l-3.78488,-3.80721c-0.52344,-0.52344 -0.5011,-1.37195 0.02234,-1.89557c0.52362,-0.52326 1.35711,-0.52326 1.88073,0l1.88181,1.91147v-4.35925c0,-0.74039 0.59993,-1.34032 1.34032,-1.34032c0.74039,0 1.34032,0.59993 1.34032,1.34032v4.35907l1.93381,-1.91147c0.52344,-0.52326 1.39429,-0.52326 1.9179,0c0.52344,0.52344 0.50861,1.37195 -0.01483,1.89557l-3.83688,3.80721v6.29413l2.85059,-2.72102c0.53309,-0.51397 1.40966,-0.49824 1.92309,0.03467c0.24412,0.25341 0.36367,0.57812 0.36993,0.90409c0.00018,0.00643 -0.00626,0.01251 -0.00608,0.01894l0.07416,4.04686l4.43859,-4.46844v-5.46867c0,-0.74039 0.59993,-1.34032 1.34032,-1.34032c0.74039,0 1.34032,0.59993 1.34032,1.34032v2.78786l3.22802,-3.19853c0.52362,-0.52326 1.40179,-0.52326 1.92541,0c0.52344,0.52362 0.52344,1.37213 0,1.89574l-3.16136,3.16136h2.71388c0.74039,0 1.34032,0.59993 1.34032,1.34032c0,0.74039 -0.59993,1.34032 -1.34032,1.34032h-5.39433l-4.29688,4.29688c0,0 3.67122,-0.00786 3.84135,0.00054c0.28057,0.02841 0.55436,0.14386 0.77649,0.35045c0.54203,0.50449 0.57258,1.35247 0.06845,1.89431l-2.89187,3.10811h6.49947l3.86708,-3.86673c0.52326,-0.52344 1.37195,-0.52326 1.89539,0.00018c0.52344,0.52326 0.52344,1.37195 -0.00018,1.89539l-1.97134,1.97116h4.39731c0.74039,0 1.34032,0.6001 1.34032,1.34049zM245.95426,175.8l-2.68099,2.68099h3.48607l2.49692,-2.68367zM241.28084,172.88025v3.74235l2.57323,-2.55822l-0.06362,-3.57454zM236.11169,173.99271l2.48852,2.50336v-3.61081l-2.48477,-2.38094zM233.22572,178.48098h3.62761l-2.63917,-2.63917l-3.53165,0.12724zM234.32781,183.63513l2.47351,-2.47351h-3.72626l-2.32393,2.49781zM238.60021,186.95536v-3.86083l-2.53016,2.545l0.15262,3.76039zM243.86176,185.53391l-2.58091,-2.56608v3.96359l2.61845,2.40864zM246.95163,181.16162h-3.62636l2.46082,2.46082l3.5052,-0.12617z" fill="#ffffff"/><g fill="#000000" font-family="&quot;Helvetica Neue&quot;, Helvetica, Arial, sans-serif" font-weight="400" font-size="16" text-anchor="start"/></g></g></svg>