<svg version="1.1" xmlns="http://www.w3.org/2000/svg" xmlns:xlink="http://www.w3.org/1999/xlink" width="32.812" height="32.812" viewBox="0,0,32.812,32.812"><g transform="translate(-228.5935,-168.5935)"><g data-paper-data="{&quot;isPaintingLayer&quot;:true}" fill="#ffffff" fill-rule="nonzero" stroke="none" stroke-width="1" stroke-linecap="butt" stroke-linejoin="miter" stroke-miterlimit="10" stroke-dasharray="" stroke-dashoffset="0" style="mix-blend-mode: normal"><path d="M257.6995,193.0175c0,0.432 -0.351,0.781 -0.781,0.781h-3.119v3.119c0,0.431 -0.351,0.781 -0.781,0.781c-0.432,0 -0.781,-0.351 -0.781,-0.781v-4.682h4.682c0.43,0.001 0.78,0.351 0.78,0.782zM233.2665,177.9455h4.682v-4.681c0,-0.431 -0.35,-0.781 -0.781,-0.781c-0.431,0 -0.782,0.35 -0.782,0.781v3.119h-3.119c-0.431,0 -0.781,0.35 -0.781,0.781c0,0.431 0.35,0.781 0.781,0.781zM232.3015,192.8335c0,0.431 0.35,0.781 0.781,0.781h3.121v3.12c0,0.432 0.35,0.781 0.781,0.781c0.431,0 0.781,-0.35 0.781,-0.781v-4.683h-4.683c-0.431,0 -0.781,0.35 -0.781,0.782zM257.5165,176.9835c0,-0.432 -0.35,-0.781 -0.781,-0.781h-3.121v-3.121c0,-0.431 -0.35,-0.781 -0.781,-0.781c-0.431,0 -0.781,0.35 -0.781,0.781v4.684h4.684c0.43,-0.001 0.78,-0.352 0.78,-0.782zM261.4055,185.0005c0,0.431 -0.35,0.781 -0.781,0.781h-3.426l1.876,1.873c0.305,0.306 0.305,0.802 0,1.107c-0.152,0.15 -0.354,0.228 -0.554,0.228c-0.198,0 -0.398,-0.075 -0.55,-0.228l-2.979,-2.98h-2.995c-0.163,1.479 -0.79,2.815 -1.728,3.875h5.609c0.432,0 0.781,0.351 0.781,0.781c0,0.432 -0.35,0.781 -0.781,0.781h-4.666v4.667c0,0.431 -0.351,0.781 -0.781,0.781c-0.432,0 -0.781,-0.351 -0.781,-0.781v-5.61c-1.058,0.933 -2.392,1.556 -3.866,1.719v2.995l2.978,2.98c0.306,0.305 0.306,0.8 0,1.104c-0.152,0.152 -0.352,0.23 -0.551,0.23c-0.199,0 -0.401,-0.077 -0.553,-0.23l-1.874,-1.876v3.427c0,0.431 -0.35,0.781 -0.781,0.781c-0.431,0 -0.781,-0.351 -0.781,-0.781v-3.427l-1.875,1.876c-0.305,0.306 -0.8,0.306 -1.105,0c-0.305,-0.305 -0.305,-0.8 0,-1.104l2.979,-2.98v-2.995c-1.474,-0.163 -2.807,-0.787 -3.865,-1.717v5.608c0,0.431 -0.35,0.781 -0.781,0.781c-0.431,0 -0.781,-0.351 -0.781,-0.781v-4.667h-4.665c-0.431,0 -0.781,-0.35 -0.781,-0.781c0,-0.431 0.35,-0.781 0.781,-0.781h5.607c-0.936,-1.06 -1.563,-2.396 -1.728,-3.875h-2.997l-2.979,2.979c-0.152,0.151 -0.352,0.229 -0.552,0.229c-0.2,0 -0.4,-0.077 -0.552,-0.229c-0.306,-0.306 -0.306,-0.801 0,-1.106l1.874,-1.873h-3.426c-0.432,-0.001 -0.782,-0.352 -0.782,-0.782c0,-0.432 0.35,-0.781 0.781,-0.781h3.426l-1.874,-1.875c-0.305,-0.305 -0.305,-0.801 0,-1.106c0.306,-0.306 0.8,-0.306 1.105,0l2.979,2.979h2.995c0.163,-1.475 0.787,-2.809 1.72,-3.866h-5.599c-0.431,0 -0.781,-0.35 -0.781,-0.781c0,-0.431 0.35,-0.781 0.781,-0.781h4.666v-4.667c0,-0.431 0.35,-0.781 0.781,-0.781c0.431,0 0.781,0.35 0.781,0.781v5.599c1.058,-0.933 2.391,-1.554 3.865,-1.717v-2.995l-2.978,-2.979c-0.305,-0.305 -0.305,-0.8 0,-1.105c0.305,-0.305 0.8,-0.305 1.105,0l1.874,1.875v-3.425c-0.001,-0.431 0.349,-0.781 0.781,-0.781c0.431,0 0.781,0.35 0.781,0.781v3.426l1.875,-1.875c0.306,-0.307 0.8,-0.307 1.104,0c0.306,0.305 0.306,0.8 0,1.105l-2.978,2.98v2.996c1.475,0.164 2.809,0.788 3.866,1.718v-5.599c0,-0.432 0.35,-0.781 0.781,-0.781c0.431,0 0.781,0.35 0.781,0.781v4.666h4.666c0.432,0 0.781,0.35 0.781,0.781c0,0.431 -0.35,0.781 -0.781,0.781h-5.599c0.932,1.058 1.556,2.392 1.718,3.866h2.995l2.979,-2.979c0.305,-0.305 0.799,-0.305 1.106,0c0.305,0.305 0.305,0.801 0,1.106l-1.876,1.874h3.427c0.429,-0.002 0.778,0.347 0.778,0.78zM250.3995,184.2185c-0.346,-2.391 -2.227,-4.271 -4.618,-4.617c-0.257,-0.037 -0.514,-0.079 -0.781,-0.079c-0.268,0 -0.524,0.042 -0.781,0.079c-2.391,0.346 -4.272,2.227 -4.618,4.617c-0.038,0.257 -0.079,0.514 -0.079,0.781c0,0.267 0.041,0.522 0.079,0.781c0.346,2.391 2.227,4.271 4.618,4.616c0.257,0.036 0.514,0.079 0.781,0.079c0.267,0 0.524,-0.043 0.781,-0.079c2.391,-0.346 4.272,-2.226 4.618,-4.616c0.037,-0.259 0.079,-0.515 0.079,-0.781c0,-0.266 -0.043,-0.524 -0.079,-0.781z"/></g></g></svg>