<svg version="1.1" xmlns="http://www.w3.org/2000/svg" xmlns:xlink="http://www.w3.org/1999/xlink" width="32.809" height="32.816" viewBox="0,0,32.809,32.816"><g transform="translate(-223.597,-163.5905)"><g data-paper-data="{&quot;isPaintingLayer&quot;:true}" fill="#ffffff" fill-rule="nonzero" stroke="none" stroke-width="1" stroke-linecap="butt" stroke-linejoin="miter" stroke-miterlimit="10" stroke-dasharray="" stroke-dashoffset="0" style="mix-blend-mode: normal"><path d="M256.406,179.9995c0,0.43 -0.349,0.781 -0.781,0.781h-2.271l1.424,1.425c0.306,0.305 0.306,0.8 0,1.105c-0.152,0.155 -0.352,0.229 -0.551,0.229c-0.2,0 -0.401,-0.076 -0.553,-0.229l-2.529,-2.53h-2.802l3.248,3.248c0.305,0.304 0.305,0.8 0,1.105c-0.152,0.154 -0.352,0.228 -0.553,0.228c-0.199,0 -0.399,-0.076 -0.551,-0.228l-3.617,-3.617c-0.234,1.068 -0.714,2.046 -1.376,2.873l6.528,6.526c0.305,0.304 0.305,0.8 0,1.105c-0.153,0.154 -0.353,0.231 -0.553,0.231c-0.199,0 -0.4,-0.08 -0.552,-0.231l-6.527,-6.527c-0.88,0.704 -1.93,1.2 -3.08,1.417l4.005,4.005c0.305,0.304 0.305,0.8 0,1.105c-0.152,0.154 -0.353,0.229 -0.552,0.229c-0.2,0 -0.401,-0.078 -0.552,-0.229l-3.428,-3.427v2.291l2.529,2.529c0.305,0.305 0.305,0.8 0,1.106c-0.151,0.153 -0.353,0.229 -0.552,0.229c-0.199,0 -0.399,-0.078 -0.551,-0.229l-1.426,-1.425v2.531c0,0.431 -0.35,0.781 -0.781,0.781c-0.431,0 -0.781,-0.349 -0.781,-0.781v-2.531l-1.425,1.425c-0.305,0.305 -0.799,0.305 -1.105,0c-0.305,-0.305 -0.305,-0.8 0,-1.106l2.531,-2.529v-2.291l-3.427,3.427c-0.305,0.306 -0.8,0.306 -1.105,0c-0.305,-0.304 -0.305,-0.8 0,-1.105l4.001,-4.002c-1.149,-0.218 -2.2,-0.712 -3.08,-1.418l-6.527,6.527c-0.152,0.154 -0.353,0.231 -0.553,0.231c-0.199,0 -0.399,-0.079 -0.551,-0.231c-0.305,-0.304 -0.305,-0.8 0,-1.105l6.527,-6.526c-0.66,-0.827 -1.139,-1.805 -1.375,-2.873l-3.618,3.617c-0.151,0.154 -0.352,0.228 -0.551,0.228c-0.2,0 -0.4,-0.076 -0.552,-0.228c-0.305,-0.304 -0.305,-0.8 0,-1.105l3.249,-3.25h-2.281l-2.53,2.528c-0.151,0.155 -0.353,0.23 -0.552,0.23c-0.199,0 -0.399,-0.077 -0.551,-0.23c-0.305,-0.304 -0.305,-0.798 0,-1.104l1.424,-1.424h-2.792c-0.431,0 -0.781,-0.35 -0.781,-0.781c0,-0.431 0.349,-0.781 0.781,-0.781h2.791l-1.424,-1.425c-0.305,-0.305 -0.305,-0.799 0,-1.106c0.305,-0.305 0.8,-0.305 1.105,0l2.531,2.532h2.279l-3.247,-3.248c-0.305,-0.305 -0.305,-0.799 0,-1.106c0.305,-0.305 0.8,-0.305 1.105,0l3.618,3.618c0.234,-1.071 0.713,-2.047 1.377,-2.873l-6.529,-6.527c-0.305,-0.305 -0.305,-0.8 0,-1.105c0.305,-0.305 0.8,-0.305 1.105,0l6.53,6.526c0.88,-0.704 1.929,-1.2 3.079,-1.417l-4.005,-4.005c-0.305,-0.305 -0.305,-0.8 0,-1.105c0.305,-0.305 0.801,-0.305 1.106,0l3.427,3.427v-2.291l-2.531,-2.53c-0.306,-0.305 -0.306,-0.8 0,-1.105c0.305,-0.305 0.8,-0.305 1.106,0l1.425,1.424v-2.531c0,-0.431 0.35,-0.781 0.781,-0.781c0.431,0 0.781,0.35 0.783,0.781v2.533l1.425,-1.424c0.304,-0.305 0.8,-0.305 1.105,0c0.306,0.305 0.306,0.8 0,1.105l-2.53,2.53v2.29l3.427,-3.427c0.304,-0.305 0.8,-0.305 1.105,0c0.306,0.305 0.306,0.8 0,1.105l-4.004,4.005c1.147,0.217 2.198,0.712 3.078,1.417l6.529,-6.527c0.304,-0.305 0.799,-0.305 1.105,0c0.305,0.305 0.305,0.8 0,1.105l-6.53,6.527c0.663,0.827 1.142,1.806 1.378,2.873l3.615,-3.618c0.305,-0.305 0.8,-0.305 1.105,0c0.306,0.306 0.306,0.8 0,1.106l-3.248,3.248h2.802l2.53,-2.532c0.304,-0.305 0.799,-0.305 1.105,0c0.305,0.306 0.305,0.801 0,1.106l-1.424,1.425h2.271c0.431,0 0.77,0.349 0.772,0.781zM245.406,180.7815c0.03,-0.22 0.06,-0.441 0.065,-0.671c0.001,-0.038 0.012,-0.072 0.012,-0.11c0,-0.039 -0.011,-0.072 -0.012,-0.111c-0.003,-0.23 -0.035,-0.45 -0.065,-0.67c-0.138,-0.951 -0.514,-1.817 -1.076,-2.543c-0.289,-0.374 -0.625,-0.71 -0.999,-0.999c-0.727,-0.559 -1.592,-0.935 -2.541,-1.074c-0.258,-0.036 -0.513,-0.078 -0.782,-0.078c-0.267,0 -0.524,0.042 -0.781,0.078c-0.95,0.139 -1.814,0.515 -2.541,1.074c-0.375,0.289 -0.71,0.624 -0.999,0.999c-0.562,0.726 -0.938,1.592 -1.076,2.543c-0.031,0.22 -0.061,0.441 -0.066,0.67c-0.002,0.039 -0.012,0.072 -0.012,0.111c0,0.038 0.011,0.072 0.012,0.11c0.003,0.231 0.034,0.451 0.066,0.671c0.138,0.951 0.514,1.815 1.076,2.542c0.289,0.374 0.624,0.71 0.999,0.997c0.727,0.561 1.591,0.937 2.541,1.076c0.257,0.036 0.513,0.078 0.781,0.078c0.269,0 0.524,-0.042 0.782,-0.078c0.949,-0.138 1.814,-0.514 2.541,-1.076c0.374,-0.287 0.71,-0.623 0.999,-0.997c0.562,-0.727 0.94,-1.591 1.076,-2.542z"/></g></g></svg>