<svg version="1.1" xmlns="http://www.w3.org/2000/svg" xmlns:xlink="http://www.w3.org/1999/xlink" width="35.64894" height="42.0153" viewBox="0,0,35.64894,42.0153"><g transform="translate(-222.17553,-158.99235)"><g data-paper-data="{&quot;isPaintingLayer&quot;:true}" fill="#ffffff" fill-rule="nonzero" stroke="none" stroke-width="1" stroke-linecap="butt" stroke-linejoin="miter" stroke-miterlimit="10" stroke-dasharray="" stroke-dashoffset="0" style="mix-blend-mode: normal"><path d="M257.59385,190.50375c-0.45731,0.81913 -1.44346,1.11579 -2.20259,0.66256l-5.29752,-3.16264l1.65553,4.66001c0.25838,0.8847 -0.21954,1.84982 -1.06723,2.15559c-0.84778,0.30567 -1.74441,-0.16388 -2.0027,-1.04867l-1.26029,-7.36385l-5.76294,-3.4405v6.88107l5.53719,4.81051c0.61184,0.67372 0.55678,1.71139 -0.12318,2.31782c-0.31646,0.2823 -0.71266,0.4213 -1.10734,0.4213c-0.45325,0 -0.90451,-0.18316 -1.23163,-0.54332l-3.07504,-3.81256v6.32536c0,0.90644 -0.74146,1.64122 -1.65616,1.64122c-0.91469,0 -1.65616,-0.73478 -1.65616,-1.64122v-6.32536l-3.07504,3.81256c-0.61184,0.67372 -1.6591,0.72829 -2.33898,0.12202c-0.67987,-0.60644 -0.73502,-1.64409 -0.1231,-2.31782l5.53711,-4.81051v-6.88107l-5.76294,3.4405l-1.26029,7.36385c-0.25829,0.88479 -1.15492,1.35434 -2.00278,1.04867c-0.3946,-0.14221 -0.70916,-0.42754 -0.9065,-0.78098c-0.22662,-0.40587 -0.2988,-0.9016 -0.16073,-1.37461l1.65553,-4.65992l-5.29752,3.16264c-0.75913,0.45323 -1.7452,0.15657 -2.20259,-0.66256c-0.45739,-0.81913 -0.2127,-1.85057 0.54627,-2.30378l5.29752,-3.16264l-4.73056,-0.84753c-0.87013,-0.21106 -1.43949,-1.12161 -1.27166,-2.03356c0.16798,-0.91203 1.00946,-1.48022 1.87968,-1.26916l6.7974,2.55334l6.53584,-3.4405l-6.53575,-3.44042l-6.79732,2.55334c-0.87021,0.21106 -1.71178,-0.35714 -1.87968,-1.26916c-0.16782,-0.91211 0.40153,-1.82251 1.27166,-2.03356l4.73056,-0.84753l-5.29752,-3.16264c-0.75913,-0.45323 -1.00374,-1.48466 -0.54643,-2.30378c0.45731,-0.81913 1.44346,-1.11579 2.20259,-0.66256l5.29744,3.16264l-1.65553,-4.66001c-0.25829,-0.88479 0.21939,-1.84991 1.06731,-2.15559c0.84778,-0.30567 1.74441,0.16388 2.00278,1.04867l1.26029,7.36385l5.76294,3.4405v-6.88107l-5.53711,-4.81051c-0.61184,-0.67372 -0.55678,-1.71147 0.1231,-2.31782c0.67995,-0.60644 1.72714,-0.55179 2.33898,0.12194l3.07504,3.81256v-6.32528c0,-0.90644 0.74146,-1.64122 1.65616,-1.64122c0.91469,0 1.65616,0.73478 1.65616,1.64122v6.32528l3.07504,-3.81256c0.61184,-0.67364 1.65902,-0.72846 2.33898,-0.12194c0.67995,0.60635 0.73502,1.64409 0.12318,2.31782l-5.53711,4.81051v6.88092l5.76294,-3.4405l1.26029,-7.36376c0.25829,-0.88479 1.15492,-1.35434 2.0027,-1.04867c0.84785,0.30576 1.32562,1.27079 1.06731,2.15559l-1.65553,4.66001l5.29752,-3.16264c0.75913,-0.45314 1.7452,-0.15657 2.20259,0.66256c0.45739,0.81913 0.2127,1.85057 -0.54643,2.30378l-5.29744,3.16264l4.73048,0.84745c0.87013,0.21106 1.43964,1.12145 1.27166,2.03356c-0.16782,0.91211 -1.00939,1.4803 -1.8796,1.26924l-6.7974,-2.55334l-6.53584,3.4405l6.53575,3.44058l6.7974,-2.55334c0.87013,-0.21106 1.71171,0.35714 1.8796,1.26924c0.07814,0.4245 -0.0035,0.84884 -0.20084,1.20227c-0.2267,0.40596 -0.60571,0.71845 -1.0709,0.83128l-4.73048,0.84745l5.29752,3.16264c0.75921,0.45314 1.00382,1.48457 0.54635,2.30363z"/></g></g></svg>