<svg version="1.1" xmlns="http://www.w3.org/2000/svg" xmlns:xlink="http://www.w3.org/1999/xlink" width="608.98252" height="442.42493" viewBox="0,0,608.98252,442.42493"><g transform="translate(45.5,18.1982)"><g data-paper-data="{&quot;isPaintingLayer&quot;:true}" fill-rule="nonzero" stroke="none" stroke-linecap="butt" stroke-linejoin="miter" stroke-miterlimit="10" stroke-dasharray="" stroke-dashoffset="0" style="mix-blend-mode: normal"><path d="M-15.25526,378.1982v-396.3964h510.51051v396.3964z" fill="#00a3ff" stroke-width="0"/><text transform="translate(27.17974,65.03001) scale(1.31338,1.31338)" font-size="40" xml:space="preserve" fill="#000000" fill-rule="nonzero" stroke="none" stroke-width="1" stroke-linecap="butt" stroke-linejoin="miter" stroke-miterlimit="10" stroke-dasharray="" stroke-dashoffset="0" font-family="Sans Serif" font-weight="normal" text-anchor="start" style="mix-blend-mode: normal"><tspan x="0" dy="0">Happy New Year!</tspan></text><path d="M185.87801,169.75089c-2.08013,1.38675 -3.46688,-0.69338 -3.46688,-0.69338l-1.48928,-2.26871c-2.79278,-5.6698 -6.60291,-9.23477 -11.36439,-13.19748c0,0 -1.92056,-1.60046 -0.3201,-3.52102c1.60046,-1.92056 3.52102,-0.32009 3.52102,-0.32009c5.29953,4.42248 9.47193,8.55385 12.63561,14.80252l1.17739,1.73128c0,0 1.38675,2.08012 -0.69338,3.46687z" fill="#9966ff" stroke-width="0.5"/><path d="M271.92569,178.56967c1.76776,1.76776 0,3.53554 0,3.53554l-0.83397,0.81946c-4.05933,3.38185 -7.60483,6.44042 -8.11576,12.02219c0,0 -0.27607,2.48471 -2.76078,2.20863c-2.48471,-0.27608 -2.20863,-2.76078 -2.20863,-2.76078c0.48235,-3.85111 2.02459,-7.94566 4.57995,-11.00982c1.45794,-1.74822 3.55574,-2.84379 5.3043,-4.30133l0.49936,-0.51388c0,0 1.76776,-1.76776 3.53553,0z" fill="#9966ff" stroke-width="0.5"/><path d="M213.05683,177.56967c1.76776,-1.76776 3.53554,0 3.53554,0l2.05116,2.05269c3.78748,4.2885 4.90447,8.65283 7.68501,13.47473c0,0 1.24035,2.17061 -0.93026,3.41096c-2.17061,1.24034 -3.41096,-0.93026 -3.41096,-0.93026c-2.52732,-4.45723 -3.49978,-8.63809 -6.98165,-12.52527l-1.94884,-1.94731c0,0 -1.76776,-1.76777 0,-3.53554z" fill="#9966ff" stroke-width="0.5"/><path d="M276.91661,140.39776c0.60634,2.42535 -1.81902,3.03169 -1.81902,3.03169l-1.1491,0.27969c-5.63248,1.85655 -11.28681,5.32273 -13.88783,10.74633c0,0 -1.11804,2.23607 -3.35411,1.11803c-2.23607,-1.11803 -1.11803,-3.3541 -1.11803,-3.3541c3.4246,-6.64047 9.74078,-10.88488 16.77883,-13.25368l1.51757,-0.38698c0,0 2.42535,-0.60634 3.03169,1.81902z" fill="#9966ff" stroke-width="0.5"/><path d="M193.45289,139.88019c0.79057,-2.37171 3.16227,-1.58113 3.16227,-1.58113l2.19423,0.74051c2.87148,1.24352 4.52848,1.77371 7.1421,4.22294c1.55251,1.45487 2.33668,3.55768 3.5741,5.2885c0,0 1.4531,2.03433 -0.58123,3.48743c-2.03433,1.45309 -3.48743,-0.58124 -3.48743,-0.58124c-2.65525,-3.72052 -4.2047,-5.95449 -8.61713,-7.8219l-1.80578,-0.59282c0,0 -2.3717,-0.79057 -1.58113,-3.16228z" fill="#9966ff" stroke-width="0.5"/><path d="M340.30529,142.69402c0.31009,2.48069 -2.17061,2.79078 -2.17061,2.79078l-2.4916,0.30511c-2.25708,0.62187 -4.6484,0.86103 -6.78285,1.82292c-0.11279,0.05083 -7.0288,4.77921 -7.18226,4.88379c-7.37781,5.02803 -14.99311,12.02358 -20.15238,19.2939c0,0 -1.4531,2.03433 -3.48743,0.58124c-2.03433,-1.45309 -0.58123,-3.48743 -0.58123,-3.48743c5.55757,-7.7352 13.52837,-15.13298 21.40189,-20.51716c0.89326,-0.61084 7.33515,-5.03629 7.93013,-5.30514c0.29746,-0.13441 6.44582,-1.78839 7.88382,-2.17708l2.84174,-0.36156c0,0 2.4807,-0.31008 2.79078,2.17061z" fill="#9966ff" stroke-width="0.5"/><path d="M219.99126,155.33744c2,-1.5 3.5,0.5 3.5,0.5l2.10647,2.82028c4.73108,8.77225 7.97273,17.8197 11.25317,27.18718c0,0 0.82587,2.35965 -1.53377,3.18553c-2.35965,0.82587 -3.18553,-1.53377 -3.18553,-1.53377c-3.14687,-8.99595 -6.21492,-17.71439 -10.74683,-26.14615l-1.89352,-2.51306c0,0 -1.5,-2 0.5,-3.5z" fill="#aeff66" stroke-width="0.5"/><path d="M207.76427,264.09612c-2.42535,0.60634 -3.03169,-1.81902 -3.03169,-1.81902l-0.66093,-2.64416c-2.15259,-7.97648 -4.24491,-15.96686 -6.3234,-23.96295c-2.67894,-9.14588 -5.35669,-18.29211 -8.03489,-27.43821c-1.83631,-6.27103 -3.60828,-12.39317 -6.81898,-18.14456c-5.73473,-10.27275 -13.71623,-19.22304 -20.73645,-28.58312c0,0 -1.5,-2 0.5,-3.5c2,-1.5 3.5,0.5 3.5,0.5c7.15753,9.5436 15.25492,18.67151 21.10224,29.14594c3.3946,6.0808 5.30991,12.54542 7.25169,19.17663c2.68535,9.17048 5.37114,18.34083 8.05576,27.51154c2.08585,8.0206 4.18437,16.03578 6.34327,24.03705l0.6724,2.68918c0,0 0.60634,2.42535 -1.81902,3.03169z" fill="#aeff66" stroke-width="0.5"/><path d="M350.99126,159.67076c0,2.5 -2.5,2.5 -2.5,2.5h-0.66667c-19.26454,-0.01881 -34.20025,10.66031 -45.46388,25.46573c-7.96062,10.45061 -14.42257,21.74491 -20.67624,33.23421c-3.07997,5.65854 -6.9701,10.9059 -9.96618,16.60267c-3.87432,7.36664 -6.34945,15.49211 -7.764,23.62575c0,0 -0.42835,2.46303 -2.89138,2.03467c-2.46303,-0.42836 -2.03467,-2.89138 -2.03467,-2.89138c1.49937,-8.62142 4.1413,-17.23152 8.236,-25.04092c3.0118,-5.74411 6.93137,-11.02964 10.03382,-16.73066c6.37291,-11.71078 12.97898,-23.20751 21.08414,-33.86277c12.23372,-16.06327 28.59374,-27.41841 49.4424,-27.4373h0.66667c0,0 2.5,0 2.5,2.5z" fill="#aeff66" stroke-width="0.5"/><path d="M216.083,132.75524c0.68167,-0.33823 1.91193,-0.65186 2.99548,0.6484c1.60046,1.92056 -0.3201,3.52102 -0.3201,3.52102l-3.8268,2.23585c-1.26367,-1.21289 -2.94619,-2.10432 -3.79101,-3.63867c-0.56607,-1.0281 -0.1279,-2.34429 -0.14932,-3.51773c-0.06955,-3.81144 0.24929,-11.4289 3.89884,-13.82134c1.04964,-0.68809 6.06167,-0.34058 7.5204,0.05764c7.38304,2.01551 12.95171,9.60974 13.89536,17.12491c0.02366,0.18848 0.01873,7.57624 0.01873,8.30545c0,0 0,2.5 -2.5,2.5c-2.5,0 -2.5,-2.5 -2.5,-2.5c0,-7.15789 -0.11236,-11.7426 -5.0203,-17.32248c-2.32191,-2.63981 -3.97865,-2.9849 -7.30172,-3.51568c-0.53099,-0.08482 -1.11575,-0.61718 -1.57683,-0.34049c-0.60842,0.36509 -0.78081,3.81072 -0.81033,3.97104c-0.23567,1.2802 -0.08844,4.37807 -0.53242,6.29209z" fill="#aeff66" stroke-width="0.5"/><path d="M306.88492,124.24541c2.10519,-0.5263 2.83991,1.23151 2.9972,1.70477c1.37006,0.23762 2.06161,-0.16008 3.25084,-1.74555c1.06207,-1.69008 1.88774,-3.53019 2.59519,-5.3967c0.93297,-2.46151 2.65155,-6.16658 1.3858,-9.031c-0.16718,-0.37833 -0.7804,-0.27552 -1.17702,-0.39288c-2.77576,-0.82131 -5.73473,-1.38254 -8.61502,-1.09378c-8.16129,0.81822 -16.61734,4.54983 -23.58754,8.65582c-3.10005,1.82618 -10.53285,5.62376 -10.07646,9.72466c0,0 0,2.5 -2.5,2.5c-2.5,0 -2.5,-2.5 -2.5,-2.5c0.06344,-1.20779 -0.38286,-2.55836 0.1903,-3.62338c0.62088,-1.15368 6.46882,-6.72891 7.82815,-7.72366c8.2627,-6.04662 19.91412,-11.05335 30.16538,-12.01033c4.40078,-0.41083 6.87309,-0.27061 11.00614,1.45025c1.22336,0.50937 2.66683,1.0012 3.35399,2.13428c2.64182,4.35612 0.73752,9.54921 -0.7921,13.66563c-0.85021,2.28803 -1.93712,4.50104 -3.2269,6.57334c-3.13592,3.57076 -5.31863,4.31234 -9.96464,3.29256l-2.15235,-3.15235c0,0 -0.60634,-2.42535 1.81902,-3.03169z" fill="#e466ff" stroke-width="0.5"/><path d="M169.09842,125.59782c0.41792,-0.64095 1.29345,-1.4843 2.85008,-0.96542c2.37171,0.79057 1.58114,3.16228 1.58114,3.16228l-2.70505,2.70943c-4.82549,-0.04462 -9.55108,-0.68572 -12.48856,-5.23312c-1.29189,-1.99992 -1.17724,-7.52529 -1.00833,-9.39141c0.14826,-1.63787 -0.10146,-3.56981 0.9388,-4.84358c1.47502,-1.80611 5.19164,-1.52947 7.22477,-1.53189c3.62894,-0.00432 6.28194,-0.27308 9.7792,0.7995c7.80227,2.39289 13.88083,8.05141 18.30092,14.64709c0,0 1.38675,2.08013 -0.69338,3.46688c-2.08013,1.38675 -3.46688,-0.69338 -3.46688,-0.69338c-4.27101,-6.44369 -10.98163,-12.64955 -19.1316,-13.22907c-1.59207,-0.1132 -3.19218,0.01115 -4.78827,0.00898c-0.78709,-0.00108 -1.57542,0.0266 -2.36121,-0.01873c-0.36458,-0.02103 -0.91948,-0.5075 -1.0807,-0.17983c-0.27126,0.5513 0.24727,1.20917 0.27214,1.82309c0.19105,4.71603 -0.61873,8.4594 5.27019,9.41338c0.49762,0.08061 1.00128,0.08028 1.50673,0.0558z" fill="#e466ff" stroke-width="0.5"/><path d="M218.74777,236.91602c0.73914,0.17042 1.91016,0.71041 1.91016,2.42141c0,2.5 -2.5,2.5 -2.5,2.5l-2.58722,-0.89954c-0.71209,-0.95585 -1.87224,-1.70522 -2.13627,-2.86755c-0.69153,-3.04435 0.77491,-8.13108 4.01112,-9.4626c3.73085,-1.53503 7.29606,4.16188 8.77422,6.31592c4.60098,6.70478 4.77148,13.47562 4.77148,21.41378c0,0 0,2.5 -2.5,2.5c-2.5,0 -2.5,-2.5 -2.5,-2.5c0,-6.8972 0.10758,-12.77713 -3.89519,-18.58623c-0.87793,-1.27411 -1.87121,-2.46984 -2.91114,-3.61555c-0.17916,-0.19738 -0.13138,-0.92876 -0.31464,-0.7352c-1.00736,1.06401 -0.76968,2.46851 -0.12253,3.51556z" fill="#e466ff" stroke-width="0.5"/><path d="M247.65793,218.33744c0,-2.5 2.5,-2.5 2.5,-2.5h0.33334c1.7755,0.02529 5.36322,0.53326 3.53511,-2.19368c-0.28289,-0.42198 -0.47544,-0.96222 -0.91302,-1.22033c-3.19696,-1.88575 -6.39657,1.0215 -8.5512,3.0448c-6.97298,6.548 -5.499,14.07114 -2.69919,22.41196c0,0 0.79057,2.37171 -1.58114,3.16228c-2.37171,0.79057 -3.16227,-1.58114 -3.16227,-1.58114c-1.97365,-5.95833 -4.15715,-13.13805 -1.96956,-19.33387c2.58575,-7.32351 12.65443,-16.75122 20.71917,-11.87602c3.49095,2.11031 5.17908,7.68241 2.02351,10.88618c-1.96965,1.99973 -4.97845,1.67432 -7.40141,1.69982h-0.33334c0,0 -2.5,0 -2.5,-2.5z" fill="#e466ff" stroke-width="0.5"/><path d="M361.82459,127.17077c2.5,0 2.5,2.5 2.5,2.5l-0.0193,0.02325c-0.13593,3.21452 3.42606,1.79443 5.89593,1.66706c3.73129,-3.14918 1.08413,-10.74865 -2.34675,-13.22367c-0.6243,-0.45037 -3.76261,-0.35111 -4.11687,-0.31214c-5.98056,0.65784 -10.40825,4.56385 -15.13915,7.88876c-6.36185,4.47115 -12.59365,7.8923 -17.05171,14.37977c0,0 -1.42302,2.05548 -3.4785,0.63245c-2.05548,-1.42302 -0.63246,-3.47851 -0.63246,-3.47851c4.88223,-7.00561 11.38925,-10.77548 18.28163,-15.62023c6.19287,-4.35305 12.90158,-9.92856 21.07931,-8.77134c8.37031,1.18448 13.01033,13.50793 8.4472,20.52585c-0.73908,1.13667 -2.08619,1.7323 -3.12928,2.59846c-3.80252,0.43932 -9.20027,1.92118 -12.03683,-1.92295c-0.75497,-1.02314 -0.48927,-2.49555 -0.73391,-3.74333l-0.0193,-0.64342c0,0 0,-2.5 2.5,-2.5z" fill="#e466ff" stroke-width="0.5"/><path d="M230.61102,94.96977c2.03433,1.4531 0.58124,3.48743 0.58124,3.48743l-2.13345,2.82775c-3.86447,1.70744 -8.65566,3.0966 -11.92015,-1.14021c-1.45329,-1.88615 -1.12179,-5.74134 -1.09634,-7.97664c1.12183,-2.73061 2.68008,-7.47325 5.29702,-9.17497c10.6246,-6.90887 25.654,3.85491 29.47023,13.74196c2.85088,7.38604 0.51503,16.24188 0.51503,23.93568c0,0 0,2.5 -2.5,2.5c-2.5,0 -2.5,-2.5 -2.5,-2.5c0,-6.80496 2.43203,-15.57729 -0.15163,-22.06432c-2.33453,-5.8615 -7.41662,-10.0916 -13.39749,-11.87367c-2.53681,-0.75587 -6.0655,-1.25633 -8.46563,0.2823c-1.592,1.02057 -2.59328,4.46523 -3.36964,6.15836c0.00877,0.43226 0.02799,3.69629 0.23699,4.02337c0.94155,1.47352 3.58005,0.6516 4.74652,0.19312l1.19988,-1.83891c0,0 1.45309,-2.03434 3.48743,-0.58124z" fill="#e466ff" stroke-width="0.5"/><path d="M146.65793,197.0041c0,2.5 -2.5,2.5 -2.5,2.5l-2.34868,-0.21547c-1.33411,-0.71391 -3.09994,-0.92716 -4.00234,-2.14174c-2.25341,-3.03298 -0.63864,-8.28135 0.72609,-11.14209c0.58089,-1.20991 0.68171,-2.80774 1.74268,-3.62973c1.09395,-0.84755 2.68233,-0.73787 4.06024,-0.86615c6.37568,-0.59356 10.62574,4.62355 14.90114,8.7057c3.33315,3.18249 5.2563,7.2765 7.69221,11.10692c3.54799,5.57918 6.84499,11.24148 8.94073,17.58004c2.45272,7.41821 3.87386,15.6273 5.40606,23.27888c0,0 0.49028,2.45146 -1.96117,2.94174c-2.45145,0.49029 -2.94174,-1.96116 -2.94174,-1.96116c-1.4913,-7.46595 -2.8687,-15.48405 -5.26062,-22.72111c-2.86416,-8.66589 -8.10343,-17.41722 -13.56498,-24.69235c-1.34534,-1.79208 -3.98887,-3.85499 -5.47026,-5.15881c-1.62427,-1.42957 -2.8533,-3.69546 -4.96051,-4.18698c-2.41897,-0.56423 -3.68678,-0.47599 -4.00059,1.60159c-0.73037,1.37381 -1.09642,2.97357 -1.12876,4.52912c-0.01156,0.55603 -0.50461,1.23776 -0.14515,1.66213c0.445,0.52536 1.33177,0.34995 1.99766,0.52492l0.31799,-0.21547c0,0 2.5,0 2.5,2.5z" fill="#ffd366" stroke-width="0.5"/><path d="M326.15792,207.17077c2.5,0 2.5,2.5 2.5,2.5l-0.20214,0.34853c2.39319,6.17778 11.06929,4.5187 14.78374,0.38176c1.84213,-2.05166 2.29205,-5.58213 2.42222,-8.20188c0.11329,-2.28012 0.3598,-6.9911 -2.4423,-8.37609c-1.9617,-0.96962 -6.27643,-0.64428 -8.14182,-0.63011c-13.56582,1.57317 -23.39437,7.99074 -33.15834,17.21636c-3.59717,3.39883 -7.87716,6.53489 -10.69632,10.67053c-4.32157,6.33964 -7.52632,13.80262 -10.41784,20.87081c0,0 -0.94658,2.31386 -3.26045,1.36728c-2.31387,-0.94658 -1.36728,-3.26044 -1.36728,-3.26044c3.02356,-7.39093 6.3911,-15.1685 10.91549,-21.79587c3.0401,-4.45317 7.51546,-7.8234 11.3925,-11.48663c10.66024,-10.07235 21.50534,-16.86021 36.29118,-18.57297c3.41681,-0.01029 7.79372,-0.44834 10.98651,1.31639c4.6501,2.57022 5.06507,8.45142 4.89103,12.95724c-0.14281,3.69717 -1.04498,8.26268 -3.57778,11.13145c-6.32975,7.16939 -18.94416,7.77096 -23.21627,-1.61824l-0.20213,-2.31814c0,0 0,-2.5 2.5,-2.5z" fill="#ffd366" stroke-width="0.5"/><path d="M296.32459,146.67076c0,-2.5 2.5,-2.5 2.5,-2.5l0.39366,0.07465c2.1802,-0.44518 4.29852,-1.55493 2.4333,-4.2152c-1.14794,-1.63726 -7.53961,0.2936 -8.83979,1.09669c-4.70728,2.90759 -7.60816,7.80949 -10.56883,12.25661c-3.08425,4.63274 -6.73338,8.77685 -9.60794,13.5735c0,0 -1.28624,2.14373 -3.42997,0.8575c-2.14373,-1.28624 -0.85749,-3.42998 -0.85749,-3.42998c2.91766,-4.85728 6.60902,-9.06265 9.72539,-13.75983c5.20324,-7.84264 12.48224,-18.24657 23.58767,-15.73621c4.15899,0.94013 6.99044,5.93155 5.14036,10.07232c-1.51344,3.38733 -3.45234,3.32302 -6.37002,4.13531l-1.60634,0.07464c0,0 -2.5,0 -2.5,-2.5z" fill="#ffd366" stroke-width="0.5"/><path d="M319.65792,93.0041c0,-2.5 2.5,-2.5 2.5,-2.5c0.88889,0 2.11111,0 3,0c0.47062,0.11258 0.93451,0.41711 1.41185,0.33773c0.70259,-0.11684 -0.54537,-3.94842 -1.19655,-4.26833c-1.2636,-0.62077 -2.80746,0.2674 -4.2153,0.26394c-3.46186,-0.00853 -6.16996,0.70508 -9.56467,1.29514c-12.60301,2.1906 -23.68354,8.55515 -30.65951,19.54704c0,0 -1.34218,2.10916 -3.45134,0.76696c-2.10915,-1.34219 -0.76697,-3.45134 -0.76697,-3.45134c4.78533,-7.50098 12.26391,-14.23583 20.35298,-18.12099c5.34316,-2.5663 11.20013,-3.12453 16.9065,-4.31625c3.32536,-0.69447 6.44761,-0.85975 9.84967,-0.72057c1.26358,0.05169 2.69971,-0.38576 3.7847,0.26393c4.08792,2.44783 6.01804,9.96141 1.47012,13.06501c-1.08371,0.73955 -2.61433,0.22515 -3.92149,0.33772c-0.88889,0 -1.77777,0 -2.66666,0h-0.33334c0,0 -2.5,0 -2.5,-2.5z" fill="#ffd366" stroke-width="0.5"/><path d="M362.11955,102.21353c0.79057,-2.37171 3.16228,-1.58114 3.16228,-1.58114l0.20943,0.20504c1.43255,0.00784 3.16422,0.87844 4.29773,0.00241c1.1377,-0.87928 -0.97627,-3.60165 -1.58777,-3.85939c-1.67612,-0.70647 -5.25885,0.52221 -6.93442,0.81755c-7.66829,1.35164 -14.74801,5.5885 -19.89409,11.51901c0,0 -1.64627,1.88144 -3.52771,0.23518c-1.88144,-1.64626 -0.23518,-3.5277 -0.23518,-3.5277c5.95236,-6.75392 13.94723,-11.58857 22.77257,-13.14765c2.59262,-0.45801 7.18089,-1.75419 9.73225,-0.51579c4.24357,2.05977 6.76969,8.21045 3.0789,12.14061c-1.51617,1.6145 -5.69181,1.32658 -7.70227,1.33575l-1.79057,-0.46162c0,0 -2.37171,-0.79057 -1.58114,-3.16228z" fill="#ffd366" stroke-width="0.5"/><path d="M117.82459,128.83744c1.39387,0 2.01059,0.77714 2.28346,1.46484c0.74213,0.54726 1.54004,1.05353 1.92488,1.8633c3.54049,7.44982 -2.84613,15.24357 -9.46292,17.89147c-1.08619,0.43467 -2.33882,0.15326 -3.50802,0.11187c-7.24746,-0.2565 -16.55928,-4.78714 -18.68073,-12.30224c-1.54164,-5.46114 1.58764,-11.5274 3.77214,-16.35652c5.8792,-5.06757 11.15576,-5.34003 18.67119,-5.33939c12.14228,0.00104 23.78525,3.33634 34.4911,8.95091c3.12411,1.63841 6.79027,3.36636 8.97926,6.31141c1.94814,2.621 2.65244,4.52255 3.8275,7.25288c0,0 0.9848,2.29786 -1.31306,3.28266c-2.29787,0.9848 -3.28266,-1.31306 -3.28266,-1.31306c-0.9513,-2.23019 -1.61667,-4.01359 -3.13389,-6.09622c-1.72182,-2.36348 -4.93215,-3.71898 -7.39268,-5.00616c-10.00209,-5.23243 -20.83162,-8.38344 -32.17557,-8.38242c-5.6479,0.00051 -10.09209,-0.2385 -14.66214,3.32728c-1.47255,3.80738 -3.86425,8.11601 -2.89452,12.31015c1.22135,5.28241 9.36875,8.06092 13.98593,8.36442c0.60827,0.03999 1.26984,0.36295 1.82531,0.11187c3.53453,-1.59763 10.2818,-8.30594 5.14496,-11.69316l-0.89954,-2.25388c0,0 0,-2.5 2.5,-2.5z" fill="#ffd366" stroke-width="0.5"/><path d="M93.32459,177.0041c0,-2.5 2.5,-2.5 2.5,-2.5l3.58722,0.89954c0.71342,0.96023 1.847,1.72095 2.14026,2.8807c1.29104,5.10568 -3.3706,11.8716 -7.79539,13.70618c-3.19342,1.32404 -7.0049,1.0285 -10.37871,0.84436c-4.12163,-0.22495 -8.89805,-0.53139 -11.1633,-4.79773c-0.63141,-1.18918 -0.19214,-2.68699 -0.22342,-4.03304c-0.06515,-2.80384 0.16858,-5.63915 0.77014,-8.37848c3.23777,-8.57544 9.9345,-16.65517 18.62229,-20.06534c4.84375,-1.90129 9.72132,-1.38984 14.77424,-1.38952c5.31728,0.00034 10.66135,-0.06321 15.90803,0.87572c5.20598,0.93164 9.98857,1.7271 14.95128,3.60995c1.45771,0.55305 3.11544,0.76476 4.35154,1.71492c1.15929,0.89112 1.69062,2.38622 2.53594,3.57933c0,0 1.38675,2.08013 -0.69338,3.46688c-2.08013,1.38675 -3.46688,-0.69338 -3.46688,-0.69338c-3.33572,-5.51525 -12.66034,-5.69148 -18.56276,-6.75652c-6.34208,-1.14436 -12.93529,-0.78307 -19.35711,-0.79691c-3.697,-0.00797 -5.06918,-0.3872 -8.59385,1.03585c-7.16575,2.8931 -13.011,9.66863 -15.67629,16.84264c-0.51216,2.26879 -0.487,4.63023 -0.56319,6.95485c-0.02161,0.65951 -0.48155,1.35968 -0.22342,1.96696c0.4776,1.12364 2.55194,1.44295 3.47433,1.56816c3.19166,0.43328 10.72427,1.76943 13.20988,-1.02936c1.80577,-2.0333 4.44915,-5.71891 2.11865,-7.9053l0.25388,0.89954c0,0 -2.5,0 -2.5,-2.5z" fill="#ffd366" stroke-width="0.5"/><path d="M68.55583,281.59535v-189.18919h318.31832v189.18919z" fill="#00a3ff" stroke-width="0"/><path d="M214.20147,101.41517v-22.52252h130.63063v22.52252z" fill="#00a3ff" stroke-width="0"/><path d="M106.31643,103.46924c0,0.17857 -0.01031,0.35457 -0.02688,0.52909l-0.73454,7.72833h-9.52326l-0.73454,-7.72833c-0.01657,-0.17415 -0.02688,-0.35052 -0.02688,-0.52909c0,-3.05009 2.47277,-5.52286 5.52287,-5.52286c3.05009,0 5.52286,2.4724 5.52323,5.52286z" fill="#ffba48" stroke-width="1"/><path d="M105.55501,111.72666l-4.76181,50.10086l-4.76181,-50.10086c0.95914,-1.63403 2.73014,-2.73455 4.76181,-2.73455c2.03168,0 3.8023,1.10016 4.76181,2.73456z" fill="#ffd185" stroke-width="1"/><path d="M72.99514,107.89968c0.06848,0.16532 0.12629,0.33174 0.17784,0.49926l2.27873,7.4209l-8.79829,3.64435l-3.63589,-6.85866c-0.0821,-0.15464 -0.15868,-0.3137 -0.22717,-0.47865c-1.16716,-2.81777 0.17084,-6.04864 2.98897,-7.21581c2.81777,-1.16753 6.04864,0.17084 7.21581,2.98861z" fill="#ff9a42" stroke-width="1"/><path d="M75.45208,115.81984l14.7733,48.10968l-23.57196,-44.46496c0.26068,-1.87704 1.4757,-3.57108 3.35274,-4.3487c1.8774,-0.77762 3.93412,-0.43851 5.44591,0.70399z" fill="#ffba48" stroke-width="1"/><path d="M43.90658,124.74442c0.12629,0.12629 0.24374,0.25811 0.3553,0.39323l4.94517,5.98421l-6.73385,6.73385l-5.98384,-4.94517c-0.13512,-0.11156 -0.26693,-0.22902 -0.39323,-0.35531c-2.15687,-2.15687 -2.15687,-5.65357 0,-7.81043c2.15649,-2.15687 5.65357,-2.15686 7.81044,-0.00037z" fill="#ffba48" stroke-width="1"/><path d="M49.20706,131.12186l32.05987,38.79335l-38.79371,-32.0595c-0.47717,-1.83359 -0.00331,-3.8638 1.43337,-5.30048c1.43668,-1.43668 3.46689,-1.91091 5.30048,-1.43337z" fill="#ffd185" stroke-width="1"/><path d="M23.4786,151.43901c0.16495,0.06849 0.32401,0.14506 0.47865,0.22717l6.85866,3.63589l-3.64435,8.79829l-7.42089,-2.27873c-0.16752,-0.05154 -0.33431,-0.10935 -0.49926,-0.17784c-2.81813,-1.16716 -4.15614,-4.39767 -2.98897,-7.2158c1.16717,-2.81813 4.39767,-4.15614 7.21618,-2.98897z" fill="#ff9a42" stroke-width="1"/><path d="M30.81591,155.30207l44.46496,23.57196l-48.10932,-14.77367c-1.14287,-1.51143 -1.48197,-3.5685 -0.70435,-5.44555c0.77762,-1.87704 2.47166,-3.0917 4.3487,-3.35274z" fill="#ffba48" stroke-width="1"/><path d="M14.82059,183.91862c0.17858,0 0.35457,0.01031 0.5291,0.02688l7.72833,0.73454v9.52326l-7.72833,0.73454c-0.17416,0.01657 -0.35052,0.02688 -0.5291,0.02688c-3.05009,0 -5.52286,-2.47277 -5.52286,-5.52287c0,-3.05046 2.4724,-5.52286 5.52287,-5.52323z" fill="#ffba48" stroke-width="1"/><path d="M23.07801,184.68004l50.10086,4.76182l-50.10086,4.76181c-1.63403,-0.95914 -2.73455,-2.73013 -2.73455,-4.76181c0,-2.03204 1.10016,-3.80267 2.73456,-4.76182z" fill="#ffd185" stroke-width="1"/><path d="M19.25103,217.23954c0.16532,-0.06849 0.33174,-0.12629 0.49926,-0.17784l7.4209,-2.27873l3.64436,8.79829l-6.85867,3.63589c-0.15464,0.0821 -0.3137,0.15869 -0.47865,0.22718c-2.81777,1.16716 -6.04864,-0.17084 -7.2158,-2.98898c-1.16754,-2.81777 0.17084,-6.04864 2.98861,-7.21581z" fill="#ff9a42" stroke-width="1"/><path d="M27.17119,214.78297l48.10968,-14.77366l-44.46496,23.57196c-1.87704,-0.26068 -3.57108,-1.47571 -4.3487,-3.35275c-0.77762,-1.87704 -0.43851,-3.93412 0.70398,-5.44554z" fill="#ffba48" stroke-width="1"/><path d="M36.09614,246.32847c0.12629,-0.12629 0.2581,-0.24374 0.39323,-0.3553l5.98384,-4.94518l6.73385,6.73385l-4.94517,5.98385c-0.11156,0.13513 -0.22901,0.26693 -0.3553,0.39323c-2.15687,2.15687 -5.65357,2.15687 -7.81044,0c-2.15687,-2.15687 -2.15687,-5.65394 0,-7.81044z" fill="#ffba48" stroke-width="1"/><path d="M42.47321,241.02763l38.79335,-32.05987l-32.0595,38.79371c-1.83359,0.47718 -3.8638,0.00331 -5.30048,-1.43337c-1.43668,-1.43668 -1.91091,-3.46689 -1.43337,-5.30048z" fill="#ffd185" stroke-width="1"/><path d="M62.79036,266.75645c0.06849,-0.16495 0.14507,-0.32401 0.22717,-0.47865l3.63589,-6.85866l8.79829,3.64435l-2.27873,7.42089c-0.05155,0.16752 -0.10935,0.33431 -0.17784,0.49926c-1.16716,2.81813 -4.39767,4.15614 -7.2158,2.98897c-2.81814,-1.16753 -4.15614,-4.39804 -2.98898,-7.21617z" fill="#ff9a42" stroke-width="1"/><path d="M66.65342,259.41877l23.57196,-44.46496l-14.77367,48.10931c-1.51143,1.14287 -3.56851,1.48197 -5.44554,0.70435c-1.87704,-0.77762 -3.0917,-2.47167 -3.35274,-4.34871z" fill="#ffba48" stroke-width="1"/><path d="M95.26997,275.41446c0,-0.17857 0.01031,-0.35456 0.02688,-0.52909l0.73454,-7.72834h9.52326l0.73454,7.72834c0.01657,0.17416 0.02688,0.35052 0.02688,0.52909c0,3.0501 -2.47277,5.52287 -5.52286,5.52287c-3.05047,0 -5.52286,-2.47277 -5.52323,-5.52287z" fill="#ffba48" stroke-width="1"/><path d="M96.03139,267.15704l4.76181,-50.10086l4.76181,50.10086c-0.95914,1.63403 -2.73013,2.73456 -4.76181,2.73456c-2.03204,0 -3.80267,-1.10053 -4.76181,-2.73455z" fill="#ffd185" stroke-width="1"/><path d="M128.59089,270.98402c-0.06848,-0.16532 -0.12629,-0.33174 -0.17783,-0.49926l-2.27873,-7.42089l8.7983,-3.64436l3.63589,6.85866c0.0821,0.15464 0.15869,0.3137 0.22717,0.47865c1.16717,2.81777 -0.17084,6.04864 -2.98898,7.2158c-2.81776,1.16717 -6.04864,-0.1712 -7.21581,-2.98861z" fill="#ff7a3c" stroke-width="1"/><path d="M126.13432,263.06312l-14.77367,-48.10931l23.57196,44.46496c-0.26068,1.87704 -1.47571,3.57108 -3.35275,4.3487c-1.87704,0.77762 -3.93412,0.43851 -5.44554,-0.70435z" fill="#ff9a42" stroke-width="1"/><path d="M157.67982,254.13891c-0.12629,-0.12629 -0.24374,-0.2581 -0.3553,-0.39323l-4.94518,-5.98385l6.73385,-6.73385l5.98385,4.94518c0.13512,0.11156 0.26693,0.22902 0.39323,0.3553c2.15687,2.15686 2.15687,5.65357 0,7.81044c-2.15687,2.15687 -5.65394,2.15687 -7.81044,0z" fill="#ff9a42" stroke-width="1"/><path d="M152.37898,247.76184l-32.0595,-38.79371l38.79335,32.0595c0.47717,1.83359 0.00331,3.8638 -1.43337,5.30048c-1.43668,1.43668 -3.46688,1.91091 -5.30047,1.43374z" fill="#ffba48" stroke-width="1"/><path d="M178.1078,227.44432c-0.16495,-0.06848 -0.32401,-0.14507 -0.47865,-0.22717l-6.85866,-3.63588l3.64436,-8.79829l7.42089,2.27873c0.16753,0.05154 0.33432,0.10935 0.49927,0.17784c2.81814,1.16716 4.15614,4.39767 2.98897,7.21581c-1.16753,2.81813 -4.39804,4.15651 -7.21617,2.98897z" fill="#ff7a3c" stroke-width="1"/><path d="M170.77012,223.58126l-44.46496,-23.57196l48.10932,14.77366c1.14287,1.51143 1.48197,3.5685 0.70435,5.44554c-0.77762,1.87704 -2.47167,3.09207 -4.3487,3.35275z" fill="#ff9a42" stroke-width="1"/><path d="M186.76581,194.96508c-0.17857,0 -0.35457,-0.01031 -0.52909,-0.02688l-7.72834,-0.73454v-9.52326l7.72834,-0.73454c0.17416,-0.01657 0.35052,-0.02688 0.52909,-0.02688c3.05009,0 5.52286,2.47278 5.52286,5.52287c0,3.05009 -2.47277,5.52286 -5.52286,5.52323z" fill="#ff9a42" stroke-width="1"/><path d="M178.50839,194.2033l-50.10086,-4.76145l50.10086,-4.76181c1.63403,0.95914 2.73456,2.73013 2.73456,4.76181c0,2.03168 -1.10053,3.80231 -2.73455,4.76145z" fill="#ffba48" stroke-width="1"/><path d="M182.33537,161.64379c-0.16532,0.06849 -0.33174,0.1263 -0.49927,0.17784l-7.42089,2.27873l-3.64436,-8.79829l6.85867,-3.63589c0.15464,-0.08211 0.3137,-0.15868 0.47865,-0.22717c2.81777,-1.16717 6.04864,0.17084 7.2158,2.98897c1.16717,2.81777 -0.1712,6.04864 -2.9886,7.2158z" fill="#ff7a3c" stroke-width="1"/><path d="M174.41447,164.10036l-48.10932,14.77367l44.46496,-23.57196c1.87704,0.26068 3.57108,1.4757 4.3487,3.35274c0.77762,1.87741 0.43852,3.93412 -0.70435,5.44555z" fill="#ff9a42" stroke-width="1"/><path d="M165.49026,132.55523c-0.12629,0.12629 -0.2581,0.24375 -0.39323,0.35531l-5.98385,4.94518l-6.73385,-6.73385l4.94518,-5.98385c0.11156,-0.13513 0.22901,-0.26694 0.3553,-0.39323c2.15687,-2.15686 5.65357,-2.15686 7.81044,0c2.15687,2.1565 2.15687,5.65357 0,7.81043z" fill="#ff9a42" stroke-width="1"/><path d="M159.11319,137.85607l-38.79371,32.0595l32.0595,-38.79371c1.83359,-0.47717 3.86379,-0.00331 5.30047,1.43337c1.43668,1.43668 1.91091,3.46689 1.43374,5.30084z" fill="#ffba48" stroke-width="1"/><path d="M138.79567,112.12725c-0.06849,0.16495 -0.14507,0.32401 -0.22717,0.47865l-3.63589,6.85866l-8.7983,-3.64435l2.27873,-7.42089c0.05155,-0.16752 0.10935,-0.33432 0.17783,-0.49927c1.16717,-2.81813 4.39768,-4.15614 7.21581,-2.98897c2.81814,1.16716 4.15651,4.39768 2.98898,7.21618z" fill="#ff7a3c" stroke-width="1"/><g fill="#ff9a42" stroke-width="1"><path d="M134.93261,119.46456l-23.57196,44.46496l14.77367,-48.10932c1.51143,-1.14287 3.5685,-1.48197 5.44554,-0.70435c1.87704,0.77762 3.09207,2.47167 3.35275,4.3487z"/><path d="M80.18187,99.70412c0,-1.52509 1.23633,-2.76143 2.76143,-2.76143c1.5251,0 2.76144,1.23634 2.76144,2.76143c0,1.52509 -1.23634,2.76144 -2.76144,2.76144c-1.52509,0 -2.76143,-1.23634 -2.76143,-2.76144z"/><path d="M47.19931,113.36585c0,-1.52509 1.23633,-2.76143 2.76143,-2.76143c1.52509,0 2.76143,1.23634 2.76143,2.76143c0,1.5251 -1.23634,2.76143 -2.76143,2.76143c-1.5251,0 -2.76143,-1.23634 -2.76143,-2.76143z"/><path d="M21.95576,138.60939c0,-1.5251 1.23634,-2.76143 2.76143,-2.76143c1.5251,0 2.76143,1.23633 2.76143,2.76143c0,1.52509 -1.23634,2.76144 -2.76143,2.76144c-1.5251,0 -2.76143,-1.23634 -2.76143,-2.76144z"/><path d="M8.29404,171.59195c0,-1.52509 1.23633,-2.76143 2.76143,-2.76143c1.5251,0 2.76144,1.23633 2.76144,2.76143c0,1.5251 -1.23634,2.76144 -2.76144,2.76144c-1.5251,0 -2.76143,-1.23634 -2.76143,-2.76144z"/><path d="M8.29404,207.29175c0,-1.52509 1.23633,-2.76143 2.76143,-2.76143c1.5251,0 2.76144,1.23634 2.76144,2.76143c0,1.5251 -1.23634,2.76144 -2.76144,2.76144c-1.5251,0 -2.76143,-1.23634 -2.76143,-2.76144z"/><path d="M21.95576,240.27394c0,-1.5251 1.23634,-2.76143 2.76143,-2.76143c1.5251,0 2.76143,1.23633 2.76143,2.76143c0,1.52509 -1.23634,2.76143 -2.76143,2.76143c-1.5251,0 -2.76143,-1.23634 -2.76143,-2.76143z"/><path d="M47.19931,265.51749c0,-1.52509 1.23633,-2.76144 2.76143,-2.76144c1.52509,0 2.76143,1.23634 2.76143,2.76144c0,1.5251 -1.23634,2.76143 -2.76143,2.76143c-1.5251,0 -2.76143,-1.23633 -2.76143,-2.76143z"/><path d="M80.18187,279.17921c0,-1.52509 1.23633,-2.76143 2.76143,-2.76143c1.5251,0 2.76144,1.23633 2.76144,2.76143c0,1.5251 -1.23634,2.76144 -2.76144,2.76144c-1.52509,0 -2.76143,-1.23634 -2.76143,-2.76144z"/><path d="M115.88167,279.17921c0,-1.52509 1.23634,-2.76143 2.76144,-2.76143c1.52509,0 2.76143,1.23633 2.76143,2.76143c0,1.5251 -1.23634,2.76144 -2.76143,2.76144c-1.52509,0 -2.76144,-1.23634 -2.76144,-2.76144z"/><path d="M148.86386,265.51749c0,-1.52509 1.23634,-2.76144 2.76143,-2.76144c1.52509,0 2.76144,1.23634 2.76144,2.76144c0,1.5251 -1.23634,2.76143 -2.76144,2.76143c-1.52509,0 -2.76143,-1.23633 -2.76143,-2.76143z"/><path d="M174.1074,240.27394c0,-1.5251 1.23634,-2.76143 2.76144,-2.76143c1.52509,0 2.76143,1.23633 2.76143,2.76143c0,1.52509 -1.23633,2.76143 -2.76143,2.76143c-1.52509,0 -2.76144,-1.23634 -2.76144,-2.76143z"/><path d="M187.76913,207.29175c0,-1.52509 1.23633,-2.76143 2.76143,-2.76143c1.52509,0 2.76144,1.23634 2.76144,2.76143c0,1.5251 -1.23634,2.76144 -2.76144,2.76144c-1.52509,0 -2.76143,-1.23634 -2.76143,-2.76144z"/><path d="M187.76913,171.59195c0,-1.52509 1.23633,-2.76143 2.76143,-2.76143c1.52509,0 2.76144,1.23633 2.76144,2.76143c0,1.5251 -1.23634,2.76144 -2.76144,2.76144c-1.52509,0 -2.76143,-1.23634 -2.76143,-2.76144z"/><path d="M174.1074,138.60939c0,-1.5251 1.23634,-2.76143 2.76144,-2.76143c1.52509,0 2.76143,1.23633 2.76143,2.76143c0,1.52509 -1.23633,2.76144 -2.76143,2.76144c-1.52509,0 -2.76144,-1.23634 -2.76144,-2.76144z"/><path d="M148.86386,113.36585c0,-1.52509 1.23634,-2.76143 2.76143,-2.76143c1.52509,0 2.76144,1.23634 2.76144,2.76143c0,1.5251 -1.23634,2.76143 -2.76144,2.76143c-1.52509,0 -2.76143,-1.23634 -2.76143,-2.76143z"/><path d="M115.88167,99.70412c0,-1.52509 1.23634,-2.76143 2.76144,-2.76143c1.52509,0 2.76143,1.23634 2.76143,2.76143c0,1.52509 -1.23634,2.76144 -2.76143,2.76144c-1.52509,0 -2.76144,-1.23634 -2.76144,-2.76144z"/></g><path d="M110.76234,195.91796c0.71944,2.1587 -1.33432,4.21247 -3.49303,3.49303l-2.72278,-0.90759l-1.28351,2.56703c-1.01768,2.03536 -3.92198,2.03536 -4.93966,0l-1.28351,-2.56703l-2.72278,0.90759c-2.1587,0.71944 -4.21247,-1.33433 -3.49303,-3.49303l0.9076,-2.72278l-2.56703,-1.28351c-2.03536,-1.01768 -2.03536,-3.92198 0,-4.93966l2.56703,-1.28351l-0.9076,-2.72278c-0.71944,-2.1587 1.33432,-4.21248 3.49303,-3.49303l2.72278,0.9076l1.28351,-2.56703c1.01768,-2.03536 3.92198,-2.03536 4.93966,0l1.28351,2.56703l2.72278,-0.9076c2.1587,-0.71945 4.21247,1.33433 3.49303,3.49303l-0.90759,2.72278l2.56703,1.28351c2.03536,1.01768 2.03536,3.92198 0,4.93966l-2.56703,1.28351z" fill="#ffba48" stroke-width="1"/><path d="M315.59724,147.61532c0.09492,0.05805 0.18512,0.12075 0.2725,0.18629l3.86917,2.90284l-3.09591,5.06206l-4.34676,-2.12196c-0.09796,-0.04781 -0.19506,-0.09967 -0.28998,-0.15772c-1.62126,-0.99155 -2.13178,-3.10981 -1.14023,-4.73109c0.99155,-1.62126 3.10962,-2.13191 4.7312,-1.14043z" fill="#ff2500" stroke-width="1"/><path d="M319.73891,150.70445l25.08294,18.81838l-28.17897,-13.75613c-0.55676,-1.04103 -0.566,-2.34017 0.09448,-3.42009c0.66048,-1.07994 1.82086,-1.66346 3.00155,-1.64215z" fill="#ff2500" stroke-width="1"/><path d="M307.11983,166.76744c0.11014,0.01735 0.21739,0.04072 0.32319,0.06777l4.68535,1.2012l-0.92309,5.86145l-4.82769,-0.29703c-0.10889,-0.00663 -0.21833,-0.01763 -0.32828,-0.03485c-1.87721,-0.29563 -3.1596,-2.05715 -2.86386,-3.93456c0.29543,-1.87733 2.05716,-3.15959 3.93437,-2.86397z" fill="#ff2500" stroke-width="1"/><path d="M312.12849,168.03622l30.37518,7.78725l-31.2982,-1.92549c-0.91299,-0.74877 -1.41846,-1.94532 -1.22159,-3.19585c0.19698,-1.25072 1.04585,-2.23372 2.14461,-2.6659z" fill="#ff2500" stroke-width="1"/><path d="M306.61721,187.70541c0.10818,-0.02607 0.21643,-0.04565 0.32452,-0.06103l4.78851,-0.68319l1.39025,5.76846l-4.57387,1.57307c-0.10323,0.03555 -0.20851,0.06743 -0.3167,0.09351c-1.84765,0.4453 -3.70631,-0.69144 -4.15161,-2.53908c-0.44543,-1.84745 0.69145,-3.70631 2.5389,-4.15174z" fill="#ff2500" stroke-width="1"/><path d="M311.73025,186.9612l31.0428,-4.43001l-29.65255,10.19846c-1.12976,-0.34244 -2.05487,-1.25432 -2.35148,-2.48503c-0.29661,-1.23071 0.11131,-2.46404 0.96123,-3.28343z" fill="#ff2500" stroke-width="1"/><path d="M314.16571,207.24197c0.09003,-0.06542 0.18245,-0.12507 0.27636,-0.18058l4.16232,-2.4637l3.49196,4.79737l-3.6237,3.20376c-0.08186,0.07229 -0.16681,0.14215 -0.25684,0.20756c-1.53654,1.11854 -3.68868,0.77955 -4.80721,-0.757c-1.11853,-1.53655 -0.77955,-3.68869 0.75713,-4.80742z" fill="#ff2500" stroke-width="1"/><path d="M318.60438,204.59769l26.98469,-15.97221l-23.49273,20.76959c-1.17493,0.11614 -2.3786,-0.37234 -3.12354,-1.39589c-0.74494,-1.02355 -0.83987,-2.31888 -0.36842,-3.40148z" fill="#ff2500" stroke-width="1"/><path d="M328.61552,222.40288c0.05806,-0.09492 0.12074,-0.18511 0.18629,-0.2725l2.90284,-3.86918l5.06206,3.09591l-2.12196,4.34676c-0.04781,0.09796 -0.09966,0.19506 -0.15771,0.28998c-0.99155,1.62126 -3.10982,2.13179 -4.73109,1.14023c-1.62146,-0.99167 -2.13191,-3.10962 -1.14043,-4.7312z" fill="#ff2500" stroke-width="1"/><path d="M331.70464,218.26121l18.8184,-25.08293l-13.75613,28.17896c-1.04104,0.55676 -2.34017,0.566 -3.4201,-0.09447c-1.08013,-0.6606 -1.66365,-1.821 -1.64215,-3.00156z" fill="#ff2500" stroke-width="1"/><path d="M347.76743,230.88018c0.01734,-0.11014 0.04072,-0.21739 0.06778,-0.32319l1.20121,-4.68535l5.86145,0.92309l-0.29704,4.82769c-0.00664,0.10889 -0.01763,0.21833 -0.03485,0.32828c-0.29563,1.87721 -2.05715,3.15959 -3.93456,2.86385c-1.87733,-0.29542 -3.1596,-2.05716 -2.86398,-3.93437z" fill="#ff2500" stroke-width="1"/><path d="M349.03641,225.87164l7.78706,-30.3753l-1.92549,31.2982c-0.74877,0.91299 -1.94533,1.41846 -3.19586,1.22159c-1.25053,-0.19687 -2.23372,-1.04585 -2.66571,-2.14448z" fill="#ff2500" stroke-width="1"/><path d="M368.70572,231.38272c-0.02607,-0.10818 -0.04565,-0.21643 -0.06102,-0.32452l-0.68331,-4.78831l5.76846,-1.39026l1.57307,4.57388c0.03556,0.10323 0.06744,0.20851 0.09352,0.3167c0.4453,1.84766 -0.69144,3.70631 -2.53909,4.15161c-1.84765,0.4453 -3.70651,-0.69156 -4.15161,-2.53909z" fill="#ff2500" stroke-width="1"/><path d="M367.9612,226.26976l-4.43001,-31.04281l10.19846,29.65256c-0.34244,1.12976 -1.25432,2.05486 -2.48503,2.35147c-1.23071,0.29662 -2.46404,-0.11131 -3.28343,-0.96122z" fill="#ff2500" stroke-width="1"/><path d="M388.24216,223.83441c-0.06541,-0.09003 -0.12507,-0.18244 -0.18058,-0.27635l-2.46371,-4.16233l4.79737,-3.49196l3.20376,3.62371c0.07229,0.08186 0.14216,0.1668 0.20757,0.25683c1.11854,1.53654 0.77954,3.68868 -0.757,4.80721c-1.53674,1.11842 -3.68888,0.77943 -4.80741,-0.75712z" fill="#ff2500" stroke-width="1"/><path d="M385.59768,219.39561l-15.9722,-26.98469l20.76959,23.49273c0.11614,1.17493 -0.37236,2.3786 -1.3959,3.12354c-1.02355,0.74494 -2.31888,0.83987 -3.40148,0.36842z" fill="#ff2500" stroke-width="1"/><path d="M403.40308,209.38461c-0.09492,-0.05805 -0.18511,-0.12074 -0.2725,-0.18629l-3.86918,-2.90284l3.09591,-5.06206l4.34677,2.12196c0.09796,0.04781 0.19506,0.09966 0.28998,0.15771c1.62127,0.99156 2.13179,3.10982 1.14024,4.73109c-0.99167,1.62147 -3.10982,2.13178 -4.73121,1.14042z" fill="#ff2500" stroke-width="1"/><path d="M399.2614,206.29548l-25.08294,-18.81839l28.17897,13.75614c0.55676,1.04103 0.56601,2.34017 -0.09446,3.4201c-0.6606,1.08013 -1.82119,1.66352 -3.00155,1.64215z" fill="#ff2500" stroke-width="1"/><path d="M411.88037,190.23269c-0.11014,-0.01735 -0.21739,-0.04072 -0.32319,-0.06778l-4.68534,-1.2012l0.92309,-5.86145l4.82769,0.29703c0.10889,0.00663 0.21834,0.01763 0.32828,0.03485c1.87721,0.29562 3.15959,2.05715 2.86385,3.93456c-0.29562,1.87721 -2.05735,3.15948 -3.93437,2.86398z" fill="#ff2500" stroke-width="1"/><path d="M406.87144,188.96347l-30.37511,-7.78693l31.2982,1.92549c0.91299,0.74877 1.41846,1.94533 1.2216,3.19586c-0.19687,1.25053 -1.04585,2.23372 -2.14468,2.66558z" fill="#ff2500" stroke-width="1"/><path d="M412.38291,169.2944c-0.10818,0.02607 -0.21643,0.04565 -0.32453,0.06102l-4.78832,0.68331l-1.39025,-5.76846l4.57388,-1.57307c0.10323,-0.03555 0.20851,-0.06743 0.31669,-0.09351c1.84765,-0.4453 3.70632,0.69143 4.15162,2.53909c0.4453,1.84766 -0.69156,3.70651 -2.5391,4.15161z" fill="#ff2500" stroke-width="1"/><path d="M407.26995,170.03892l-31.04287,4.4297l29.65243,-10.19827c1.12976,0.34244 2.05487,1.25433 2.35148,2.48504c0.29661,1.23071 -0.11131,2.46402 -0.96103,3.28354z" fill="#ff2500" stroke-width="1"/><path d="M404.83441,149.75784c-0.09003,0.06542 -0.18244,0.12507 -0.27636,0.18058l-4.16232,2.46371l-3.49196,-4.79738l3.6237,-3.20376c0.08186,-0.07229 0.16681,-0.14216 0.25684,-0.20757c1.53655,-1.11854 3.68868,-0.77955 4.80722,0.757c1.11842,1.53674 0.77962,3.689 -0.75712,4.80741z" fill="#ff2500" stroke-width="1"/><path d="M400.39561,152.40232l-26.98469,15.97221l23.49273,-20.76959c1.17493,-0.11614 2.3786,0.37234 3.12354,1.39589c0.74494,1.02355 0.84007,2.31901 0.36843,3.40148z" fill="#ff2500" stroke-width="1"/><path d="M390.3848,134.59705c-0.05805,0.09492 -0.12074,0.18511 -0.18628,0.27249l-2.90285,3.86918l-5.06206,-3.09591l2.12196,-4.34677c0.04781,-0.09796 0.09967,-0.19505 0.15771,-0.28997c0.99155,-1.62126 3.10982,-2.13178 4.73109,-1.14023c1.62126,0.99155 2.13178,3.10981 1.14043,4.7312z" fill="#ff2500" stroke-width="1"/><path d="M387.29548,138.73861l-18.8182,25.08305l13.75614,-28.17896c1.04104,-0.55676 2.34017,-0.56601 3.4201,0.09446c1.07993,0.66047 1.66333,1.82108 1.64196,3.00144z" fill="#ff2500" stroke-width="1"/><path d="M371.23269,126.11964c-0.01734,0.11014 -0.04071,0.21739 -0.06777,0.32319l-1.20121,4.68534l-5.86145,-0.92309l0.29703,-4.82769c0.00662,-0.10889 0.01763,-0.21833 0.03485,-0.32828c0.29562,-1.87721 2.05715,-3.15959 3.93455,-2.86385c1.87721,0.29562 3.15948,2.05735 2.86398,3.93436z" fill="#ff2500" stroke-width="1"/><path d="M369.96347,131.12857l-7.78693,30.37511l1.92549,-31.29819c0.74877,-0.91299 1.94532,-1.41847 3.19585,-1.2216c1.25073,0.19699 2.23373,1.04585 2.66559,2.14469z" fill="#ff2500" stroke-width="1"/><path d="M350.29459,125.61721c0.02607,0.10819 0.04566,0.21643 0.06103,0.32453l0.68331,4.78832l-5.76846,1.39025l-1.57307,-4.57388c-0.03556,-0.10323 -0.06744,-0.20851 -0.09351,-0.31669c-0.4453,-1.84765 0.69144,-3.70631 2.53909,-4.15162c1.84746,-0.44542 3.70631,0.69144 4.15161,2.53909z" fill="#ff2500" stroke-width="1"/><path d="M351.03912,130.73017l4.4297,31.04288l-10.19847,-29.65255c0.34244,-1.12976 1.25432,-2.05486 2.48503,-2.35147c1.23071,-0.29662 2.46403,0.11131 3.28374,0.96114z" fill="#ff2500" stroke-width="1"/><path d="M330.75803,133.16572c0.06541,0.09003 0.12506,0.18244 0.18057,0.27635l2.46371,4.16233l-4.79737,3.49196l-3.20376,-3.62371c-0.07229,-0.08186 -0.14216,-0.16681 -0.20758,-0.25683c-1.11853,-1.53655 -0.77954,-3.68869 0.757,-4.80722c1.53655,-1.11854 3.68881,-0.77974 4.80743,0.75712z" fill="#ff2500" stroke-width="1"/><g fill="#ff2500" stroke-width="1"><path d="M333.40232,137.6044l15.97221,26.98468l-20.76959,-23.49273c-0.11614,-1.17493 0.37235,-2.37859 1.39589,-3.12354c1.02355,-0.74494 2.31901,-0.84007 3.40148,-0.36843z"/><path d="M305.09983,160.28306c-0.81066,-0.49579 -1.06591,-1.55488 -0.57011,-2.36554c0.49579,-0.81066 1.55488,-1.06591 2.36554,-0.57012c0.81066,0.49579 1.06591,1.55489 0.57012,2.36555c-0.49579,0.81066 -1.55489,1.06591 -2.36554,0.57012z"/><path d="M301.63939,182.25612c-0.81066,-0.49579 -1.06591,-1.55488 -0.57011,-2.36554c0.49579,-0.81066 1.55488,-1.06591 2.36554,-0.57012c0.81066,0.49579 1.0659,1.55488 0.57011,2.36554c-0.49579,0.81066 -1.55488,1.06591 -2.36554,0.57012z"/><path d="M306.85111,203.88065c-0.81066,-0.49579 -1.06591,-1.55488 -0.57012,-2.36554c0.49579,-0.81066 1.55488,-1.06591 2.36554,-0.57011c0.81066,0.49579 1.06591,1.55488 0.57012,2.36554c-0.49579,0.81066 -1.55489,1.0659 -2.36554,0.57011z"/><path d="M319.9416,221.86478c-0.81066,-0.49579 -1.06591,-1.55488 -0.57011,-2.36554c0.49579,-0.81066 1.55489,-1.06591 2.36554,-0.57012c0.81066,0.49579 1.06591,1.55489 0.57012,2.36555c-0.49579,0.81066 -1.55489,1.06591 -2.36555,0.57011z"/><path d="M338.91771,233.47041c-0.81066,-0.49579 -1.06591,-1.55488 -0.57011,-2.36554c0.49579,-0.81066 1.55489,-1.06591 2.36554,-0.57012c0.81066,0.49579 1.06591,1.55489 0.57011,2.36555c-0.49579,0.81066 -1.55489,1.06591 -2.36554,0.57011z"/><path d="M360.89057,236.93073c-0.81066,-0.49579 -1.06591,-1.55488 -0.57012,-2.36554c0.49579,-0.81066 1.55488,-1.06591 2.36554,-0.57012c0.81066,0.49579 1.06591,1.55488 0.57012,2.36554c-0.49579,0.81066 -1.55488,1.0659 -2.36554,0.57011z"/><path d="M382.51511,231.71901c-0.81066,-0.49579 -1.06592,-1.55488 -0.57012,-2.36554c0.49579,-0.81066 1.55489,-1.0659 2.36555,-0.57011c0.81066,0.49579 1.06591,1.55488 0.57012,2.36554c-0.49579,0.81066 -1.55489,1.06591 -2.36554,0.57011z"/><path d="M400.49924,218.62852c-0.81066,-0.49579 -1.06591,-1.55488 -0.57012,-2.36554c0.49579,-0.81066 1.55489,-1.06591 2.36554,-0.57012c0.81066,0.49579 1.06591,1.55489 0.57012,2.36555c-0.49579,0.81066 -1.55489,1.0659 -2.36554,0.57011z"/><path d="M412.10486,199.65241c-0.81066,-0.49579 -1.06591,-1.55488 -0.57011,-2.36554c0.49579,-0.81066 1.55489,-1.06591 2.36554,-0.57012c0.81066,0.49579 1.06591,1.55489 0.57012,2.36555c-0.49579,0.81066 -1.55489,1.06591 -2.36555,0.57012z"/><path d="M415.56518,177.67955c-0.81066,-0.49579 -1.06592,-1.55488 -0.57013,-2.36554c0.49579,-0.81066 1.55489,-1.06591 2.36555,-0.57012c0.81066,0.49579 1.06591,1.55488 0.57011,2.36554c-0.49579,0.81066 -1.55488,1.06591 -2.36554,0.57012z"/><path d="M410.35346,156.05502c-0.81066,-0.49579 -1.06591,-1.55488 -0.57011,-2.36554c0.49579,-0.81066 1.55488,-1.06591 2.36554,-0.57012c0.81066,0.49579 1.06591,1.55488 0.57012,2.36554c-0.49579,0.81066 -1.55489,1.06591 -2.36554,0.57012z"/><path d="M397.26317,138.07101c-0.81066,-0.49579 -1.06591,-1.55489 -0.57012,-2.36555c0.49579,-0.81066 1.55489,-1.06591 2.36554,-0.57012c0.81066,0.49579 1.06591,1.55489 0.57012,2.36555c-0.49579,0.81066 -1.55489,1.06591 -2.36554,0.57012z"/><path d="M378.28706,126.46538c-0.81066,-0.49579 -1.06591,-1.55488 -0.57011,-2.36554c0.49579,-0.81066 1.55488,-1.06592 2.36554,-0.57012c0.81066,0.4958 1.06592,1.55489 0.57013,2.36555c-0.49579,0.81066 -1.55489,1.06591 -2.36555,0.57011z"/><path d="M356.314,123.00494c-0.81066,-0.4958 -1.06591,-1.55489 -0.57012,-2.36555c0.49579,-0.81066 1.55488,-1.06591 2.36554,-0.57011c0.81066,0.49579 1.06592,1.55488 0.57013,2.36554c-0.49579,0.81066 -1.55489,1.06591 -2.36555,0.57012z"/><path d="M334.68947,128.21666c-0.81066,-0.49579 -1.06591,-1.55488 -0.57012,-2.36554c0.49579,-0.81066 1.55489,-1.06591 2.36554,-0.57012c0.81066,0.4958 1.06591,1.55488 0.57011,2.36554c-0.49579,0.81066 -1.55488,1.06591 -2.36554,0.57012z"/><path d="M316.70546,141.30695c-0.81066,-0.49579 -1.06591,-1.55489 -0.57012,-2.36555c0.49579,-0.81066 1.55488,-1.06591 2.36554,-0.57012c0.81066,0.49579 1.06591,1.55489 0.57012,2.36555c-0.49579,0.81066 -1.55489,1.06591 -2.36554,0.57012z"/></g><path d="M366.18337,175.30622c1.38133,0.31936 1.80535,2.07868 0.72116,2.99226l-1.36757,1.15223l0.94724,1.51676c0.75105,1.20262 -0.1931,2.74639 -1.60583,2.62566l-1.78176,-0.15226l-0.40272,1.74233c-0.31935,1.38133 -2.07869,1.80535 -2.99225,0.72117l-1.15224,-1.36758l-1.51676,0.94724c-1.20262,0.75105 -2.74639,-0.19311 -2.62566,-1.60583l0.15227,-1.78175l-1.74234,-0.40272c-1.38133,-0.31936 -1.80536,-2.07869 -0.72116,-2.99225l1.36758,-1.15223l-0.94724,-1.51676c-0.75105,-1.20262 0.19311,-2.74639 1.60584,-2.62566l1.78175,0.15227l0.40272,-1.74233c0.31935,-1.38134 2.07869,-1.80535 2.99226,-0.72117l1.15224,1.36758l1.51676,-0.94725c1.20262,-0.75105 2.74638,0.19311 2.62565,1.60583l-0.15226,1.78176z" fill="#ff2500" stroke-width="1"/><text transform="translate(199.5,394.5104) scale(1.9961,1.9961)" font-size="40" xml:space="preserve" fill="#ff0000" fill-rule="nonzero" stroke="none" stroke-width="1" stroke-linecap="butt" stroke-linejoin="miter" stroke-miterlimit="10" stroke-dasharray="" stroke-dashoffset="0" font-family="Sans Serif" font-weight="normal" text-anchor="start" style="mix-blend-mode: normal"><tspan x="0" dy="0">lol</tspan></text><path d="M-45.5,424.22673v-77c0,0 2.56155,-21.87007 50.44376,-26.48133c36.22095,-3.48823 117.64465,9.96482 133.69287,9.96482c34.86635,0 108.8812,-3.83952 175.70608,-1.07583c43.9407,1.81726 174.27471,-10.42185 213.10193,-11.42003c65.16221,-1.67519 22.05536,29.01237 22.05536,29.01237v77z" fill="#f7f7f7" stroke-width="0"/></g></g></svg>