<svg version="1.1" xmlns="http://www.w3.org/2000/svg" xmlns:xlink="http://www.w3.org/1999/xlink" width="31.13307" height="35.8" viewBox="0,0,31.13307,35.8"><g transform="translate(-224.43399,-162.1)"><g data-paper-data="{&quot;isPaintingLayer&quot;:true}" fill="#ffffff" fill-rule="nonzero" stroke="none" stroke-width="1" stroke-linecap="butt" stroke-linejoin="miter" stroke-miterlimit="10" stroke-dasharray="" stroke-dashoffset="0" style="mix-blend-mode: normal"><path d="M255.505,188.946c-0.093,0.16 -0.261,0.25 -0.435,0.25c-0.085,0 -0.171,-0.021 -0.25,-0.066l-3.053,-1.764l0.001,2.123c0,0.275 -0.225,0.5 -0.5,0.5c-0.275,0 -0.5,-0.225 -0.5,-0.5l-0.001,-2.699l-2.318,-1.34v5.461c0,0.276 -0.225,0.5 -0.5,0.5c-0.276,0 -0.5,-0.224 -0.5,-0.5v-6.039l-3.62,-2.09l0.514,4.729l-3.838,-2.811v4.179l5.229,3.021c0.241,0.139 0.323,0.445 0.184,0.684c-0.093,0.16 -0.261,0.25 -0.435,0.25c-0.085,0 -0.171,-0.02 -0.25,-0.066l-4.729,-2.73v2.678l2.341,1.354c0.241,0.139 0.323,0.445 0.184,0.684c-0.093,0.16 -0.261,0.25 -0.435,0.25c-0.085,0 -0.171,-0.02 -0.25,-0.066l-1.841,-1.062v3.524c0,0.274 -0.224,0.5 -0.5,0.5c-0.276,0 -0.5,-0.226 -0.5,-0.5v-3.51l-1.839,1.062c-0.239,0.136 -0.545,0.052 -0.683,-0.184c-0.138,-0.242 -0.056,-0.545 0.183,-0.684l2.339,-1.353v-2.679l-4.728,2.73c-0.239,0.134 -0.545,0.052 -0.683,-0.184c-0.138,-0.242 -0.056,-0.545 0.183,-0.684l5.228,-3.021v-4.183l-3.837,2.81l0.514,-4.729l-3.619,2.09l-0.002,6.041c0,0.277 -0.224,0.5 -0.5,0.5c-0.276,0 -0.5,-0.223 -0.5,-0.5l0.002,-5.463l-2.322,1.34l0.001,2.701c0,0.275 -0.224,0.5 -0.5,0.5c-0.276,0 -0.5,-0.224 -0.5,-0.5l-0.001,-2.121l-3.051,1.763c-0.079,0.044 -0.165,0.065 -0.25,0.065c-0.173,0 -0.341,-0.09 -0.434,-0.25c-0.138,-0.241 -0.056,-0.545 0.183,-0.684l3.05,-1.76l-1.838,-1.062c-0.239,-0.139 -0.321,-0.446 -0.183,-0.684c0.138,-0.242 0.444,-0.326 0.683,-0.184l2.338,1.352l2.321,-1.34l-4.731,-2.729c-0.239,-0.141 -0.321,-0.446 -0.183,-0.686c0.138,-0.242 0.442,-0.322 0.683,-0.184l5.231,3.018l3.621,-2.09l-4.351,-1.919l4.352,-1.919l-3.622,-2.091l-5.23,3.021c-0.079,0.045 -0.165,0.066 -0.25,0.066c-0.173,0 -0.341,-0.09 -0.434,-0.25c-0.138,-0.241 -0.056,-0.545 0.183,-0.684l4.729,-2.73l-2.319,-1.339l-2.339,1.351c-0.079,0.045 -0.165,0.066 -0.25,0.066c-0.173,0 -0.341,-0.09 -0.434,-0.25c-0.138,-0.241 -0.056,-0.545 0.183,-0.684l1.839,-1.062l-3.052,-1.762c-0.239,-0.138 -0.321,-0.444 -0.183,-0.683c0.138,-0.241 0.444,-0.325 0.683,-0.184l3.053,1.764l-0.001,-2.125c0,-0.277 0.224,-0.5 0.5,-0.5c0.276,0 0.5,0.223 0.5,0.5l0.001,2.701l2.318,1.34v-5.462c0,-0.276 0.224,-0.5 0.5,-0.5c0.276,0 0.5,0.224 0.5,0.5v6.038l3.621,2.092l-0.514,-4.729l3.837,2.811v-4.184l-5.229,-3.02c-0.239,-0.139 -0.321,-0.445 -0.183,-0.684c0.138,-0.241 0.443,-0.324 0.683,-0.184l4.729,2.73v-2.678l-2.339,-1.352c-0.239,-0.139 -0.321,-0.445 -0.183,-0.684c0.138,-0.241 0.443,-0.325 0.683,-0.184l1.839,1.062v-3.523c0,-0.276 0.224,-0.5 0.5,-0.5c0.276,0 0.5,0.224 0.5,0.5v3.52l1.839,-1.065c0.239,-0.14 0.544,-0.056 0.684,0.182c0.137,0.241 0.055,0.546 -0.184,0.684l-2.339,1.352v2.678l4.729,-2.73c0.239,-0.139 0.544,-0.056 0.684,0.182c0.136,0.241 0.054,0.546 -0.184,0.684l-5.229,3.021v4.181l3.838,-2.81l-0.515,4.728l3.619,-2.09l0.001,-6.037c0,-0.276 0.225,-0.5 0.5,-0.5c0.276,0 0.5,0.224 0.5,0.5l-0.001,5.46l2.32,-1.34l-0.001,-2.699c0,-0.275 0.224,-0.5 0.5,-0.5c0.275,0 0.5,0.225 0.5,0.5l0.001,2.122l3.051,-1.763c0.238,-0.138 0.544,-0.054 0.684,0.184c0.136,0.241 0.055,0.545 -0.184,0.684l-3.052,1.762l1.841,1.064c0.24,0.137 0.322,0.444 0.184,0.682c-0.094,0.16 -0.262,0.25 -0.435,0.25c-0.085,0 -0.171,-0.02 -0.25,-0.066l-2.342,-1.353l-2.32,1.34l4.731,2.732c0.241,0.137 0.323,0.444 0.184,0.683c-0.093,0.159 -0.261,0.25 -0.435,0.25c-0.085,0 -0.171,-0.02 -0.25,-0.067l-5.231,-3.021l-3.619,2.091l4.354,1.919l-4.352,1.918l3.619,2.09l5.23,-3.019c0.239,-0.139 0.545,-0.055 0.684,0.183c0.137,0.243 0.055,0.545 -0.184,0.684l-4.729,2.73l2.32,1.34l2.338,-1.353c0.239,-0.139 0.544,-0.055 0.684,0.183c0.136,0.243 0.054,0.545 -0.184,0.684l-1.84,1.062l3.054,1.764c0.242,0.136 0.324,0.444 0.193,0.686zM242.748,182.159l-0.066,-0.615l0.566,-0.25l2.944,-1.299l-2.946,-1.3l-0.564,-0.249l0.066,-0.616l0.349,-3.201l-2.6,1.901l-0.5,0.365l-0.5,-0.364l-2.598,-1.901l0.348,3.2l0.067,0.616l-0.566,0.25l-2.946,1.299l2.945,1.299l0.567,0.25l-0.067,0.615l-0.348,3.201l2.598,-1.9l0.501,-0.365l0.499,0.363l2.6,1.901z"/></g></g></svg>