<svg version="1.1" xmlns="http://www.w3.org/2000/svg" xmlns:xlink="http://www.w3.org/1999/xlink" width="42.79056" height="48.91208" viewBox="0,0,42.79056,48.91208"><g transform="translate(-218.60472,-155.54396)"><g data-paper-data="{&quot;isPaintingLayer&quot;:true}" fill="#ffffff" fill-rule="nonzero" stroke="none" stroke-width="1" stroke-linecap="butt" stroke-linejoin="miter" stroke-miterlimit="10" stroke-dasharray="" stroke-dashoffset="0" style="mix-blend-mode: normal"><path d="M261.05525,190.79767c0.35527,0.39791 0.41641,0.97808 0.15169,1.44109c-0.22374,0.39097 -0.63751,0.62396 -1.07574,0.62396c-0.0808,0 -0.1621,-0.0076 -0.2434,-0.02396l-6.20275,-1.24114c-0.39146,-0.07849 -0.72129,-0.34073 -0.88587,-0.70443c-0.16458,-0.36387 -0.14393,-0.78474 0.05585,-1.1306l0.40567,-0.70262l-2.18171,-1.25949l-0.30041,3.95973c-0.04941,0.65073 -0.59256,1.14563 -1.23453,1.14563c-0.0314,0 -0.06312,-0.00099 -0.09502,-0.00347c-0.68262,-0.05189 -1.19421,-0.64709 -1.14249,-1.32955l0.36502,-4.81272l-5.22996,-0.5686l-2.06901,4.68994l4.33351,2.24731c0.60777,0.31495 0.83944,1.06285 0.52448,1.67061c-0.22043,0.42534 -0.66444,0.6694 -1.11242,0.6694c-0.19234,0 -0.40931,-0.04495 -0.59174,-0.1393l-3.4255,-1.75208v2.45122h0.79912c0.39758,0 0.77103,0.19086 1.00402,0.51292c0.23299,0.32206 0.29727,0.73633 0.17301,1.11391l-1.97268,5.97058c-0.16657,0.50664 -0.63867,0.83002 -1.17224,0.83002c-0.00149,0 -0.00314,0 -0.00479,0c-0.53142,0 -1.00369,-0.31694 -1.17406,-0.8206l-2.02655,-5.98148c-0.12773,-0.37824 -0.06577,-0.78937 0.16723,-1.11391c0.23266,-0.32454 0.60744,-0.51143 1.00699,-0.51143h0.72129v-2.51914l-3.53439,1.71969c-0.61685,0.29612 -1.31253,0.03652 -1.60914,-0.5805c-0.29628,-0.61702 -0.03635,-1.35748 0.58067,-1.65392l4.31996,-2.07546l-2.08488,-4.72811l-5.0158,0.54547l0.36469,4.80875c0.05205,0.68246 -0.45921,1.27766 -1.14183,1.32955c-0.03189,0.00231 -0.06362,0.00347 -0.09518,0.00347c-0.64197,0.00017 -1.18513,-0.4949 -1.23453,-1.14563l-0.30041,-3.9599l-2.13362,1.23189l0.40567,0.70262c0.19978,0.34585 0.22043,0.76673 0.05585,1.1306c-0.16458,0.36387 -0.49441,0.62594 -0.88587,0.70443l-6.20275,1.24114c-0.0813,0.01619 -0.16276,0.02413 -0.2434,0.02413c-0.43839,0 -0.852,-0.23299 -1.07574,-0.62396c-0.26472,-0.46301 -0.20358,-1.04335 0.15169,-1.44109l4.20346,-4.70448c0.26455,-0.29645 0.65453,-0.44847 1.05111,-0.40699c0.39576,0.04065 0.74756,0.26869 0.94635,0.61305l0.35445,0.61421l2.07529,-1.19802l-3.20771,-2.05166c-0.57637,-0.36882 -0.74492,-1.13522 -0.37626,-1.71176c0.36915,-0.5767 1.13539,-0.74475 1.71176,-0.37626l4.02203,2.57251l2.99603,-4.09325l-3.03007,-4.14001l-3.93808,2.69016c-0.21366,0.14608 -0.45706,0.21614 -0.69782,0.21614c-0.39559,0 -0.78458,-0.18904 -1.02468,-0.54035c-0.38601,-0.56513 -0.24076,-1.33632 0.32437,-1.7225l3.27942,-2.23971l-2.13362,-1.23189l-0.40567,0.70262c-0.19945,0.34585 -0.55357,0.57439 -0.95114,0.61371c-0.04065,0.00397 -0.08163,0.00595 -0.12228,0.00595c-0.35445,0 -0.69419,-0.15202 -0.93049,-0.42121l-4.17636,-4.75125c-0.35213,-0.40039 -0.40865,-0.98138 -0.14013,-1.44208c0.26852,-0.46103 0.80242,-0.69848 1.32393,-0.58926l6.17565,1.28791c0.38915,0.08113 0.71583,0.34404 0.8781,0.70691c0.16227,0.36271 0.14095,0.78144 -0.05784,1.1258l-0.35478,0.61421l2.07496,1.19802l0.17284,-3.80374c0.03123,-0.68345 0.61157,-1.20876 1.29419,-1.18166c0.68361,0.03107 1.21239,0.61057 1.18116,1.29435l-0.22192,4.86675l5.05265,0.5496l2.10206,-4.77355l-4.34541,-2.08504c-0.61718,-0.29645 -0.88818,-1.03707 -0.5919,-1.65392c0.29661,-0.61718 1.0146,-0.87678 1.63161,-0.5805l3.53439,1.71969v-2.46378h-0.72129c-0.39956,0 -0.77433,-0.19234 -1.00699,-0.51688c-0.23299,-0.32437 -0.29496,-0.74112 -0.16723,-1.11936l2.02655,-5.97058c0.17037,-0.50366 0.6428,-0.8206 1.17406,-0.8206c0.00149,0 0.00314,0 0.00479,0c0.53341,0 1.00567,0.32338 1.17224,0.83002l1.94392,5.89457c0.06064,0.14591 0.09419,0.30091 0.09419,0.46896c0,0.6846 -0.55472,1.23387 -1.23933,1.23387c-0.00099,0.00017 -0.00231,0.00017 -0.0033,0h-0.79912v2.39603l3.4255,-1.75191c0.60793,-0.31479 1.40044,-0.07766 1.71539,0.5301c0.31495,0.6076 0.07783,1.35566 -0.52994,1.67061l-4.35598,2.25739l2.08736,4.73489l5.26747,-0.5729l-0.22176,-4.87105c-0.03107,-0.68378 0.49788,-1.26329 1.18182,-1.29435c0.68361,-0.03074 1.26312,0.49788 1.29419,1.18166l0.17301,3.80374l2.12305,-1.22561l-0.35461,-0.61421c-0.19895,-0.34437 -0.2201,-0.76309 -0.05784,-1.1258c0.16227,-0.36287 0.48896,-0.62578 0.8781,-0.70691l6.17565,-1.28791c0.52217,-0.10856 1.05541,0.12839 1.32393,0.58926c0.26852,0.4607 0.21201,1.04153 -0.14013,1.44208l-4.17636,4.75125c-0.2363,0.26918 -0.57604,0.42121 -0.93049,0.42121c-0.04065,0 -0.08163,-0.00198 -0.12228,-0.00595c-0.39758,-0.03933 -0.75169,-0.26786 -0.95114,-0.61371l-0.40567,-0.70262l-2.18138,1.25949l3.27876,2.24004c0.56513,0.38617 0.71038,1.15737 0.32437,1.7225c-0.2401,0.35114 -0.62859,0.54035 -1.02434,0.54035c-0.24076,0 -0.48416,-0.07006 -0.69815,-0.21614l-4.06648,-2.77824l-3.11484,4.25535l3.07766,4.20495l4.15307,-2.65662c0.57604,-0.36833 1.34293,-0.20061 1.71176,0.37626c0.36899,0.57653 0.20044,1.34293 -0.37626,1.71176l-3.20738,2.05166l2.12305,1.22561l0.35445,-0.61421c0.19895,-0.34437 0.55059,-0.5724 0.94635,-0.61305c0.3946,-0.04247 0.78606,0.11055 1.05111,0.40699z"/></g></g></svg>