<svg version="1.1" xmlns="http://www.w3.org/2000/svg" xmlns:xlink="http://www.w3.org/1999/xlink" width="42.83829" height="39.28924" viewBox="0,0,42.83829,39.28924"><g transform="translate(-218.58085,-160.35538)"><g data-paper-data="{&quot;isPaintingLayer&quot;:true}" fill="#ffffff" fill-rule="nonzero" stroke="none" stroke-width="1" stroke-linecap="butt" stroke-linejoin="miter" stroke-miterlimit="10" stroke-dasharray="" stroke-dashoffset="0" style="mix-blend-mode: normal"><path d="M261.41915,180.81971h-6.11345l3.4521,5.97911l-1.41993,0.81982l-3.9254,-6.79893h-9.48247c-0.17643,0.85688 -0.62372,1.61614 -1.24809,2.18378l4.73528,8.20235l7.85015,0.00033l-0.00011,1.63964l-6.90343,-0.00022l3.0564,5.29417l-1.41993,0.81982l-3.05694,-5.29516l-3.45231,5.97954l-1.41993,-0.81982l3.92562,-6.79947l-4.72577,-8.18584c-0.4133,0.14221 -0.85611,0.22048 -1.31707,0.22048c-0.43188,0 -0.8478,-0.06843 -1.23847,-0.19391l-4.71145,8.1607l3.92497,6.79871l-1.41993,0.81982l-3.45166,-5.97878l-3.05629,5.29385l-1.41993,-0.81982l3.05672,-5.29461h-6.90452v-1.63964h7.85092l4.70401,-8.14769c-0.65673,-0.57322 -1.12851,-1.35314 -1.31073,-2.23811h-9.39032l-3.92562,6.79893l-1.41993,-0.81982l3.45231,-5.97911h-6.11312v-1.63964h6.11367l-3.45199,-5.97889l1.41993,-0.81982l3.92519,6.79871h9.38988c0.18222,-0.88497 0.65411,-1.66489 1.31084,-2.238l-4.70412,-8.14802l-7.85146,-0.00033l0.00011,-1.63964l6.90474,0.00022l-3.05661,-5.29439l1.41993,-0.81982l3.05661,5.29428l3.45166,-5.97845l1.41993,0.81982l-3.92497,6.79838l4.71123,8.16026c0.39067,-0.12538 0.80659,-0.19381 1.23836,-0.19381c0.46096,0 0.90366,0.07827 1.31696,0.22048l4.72609,-8.18639l-3.9254,-6.79958l1.41993,-0.81982l3.4521,5.97965l3.05683,-5.29483l1.41993,0.81982l-3.05683,5.29483h6.90353v1.63964h-7.85004l-4.73506,8.20191c0.62437,0.56764 1.07167,1.3268 1.24809,2.18367h9.48312l3.92551,-6.79871l1.41993,0.81982l-3.4522,5.97889h6.1129zM239.95376,182.41978c1.33423,0 2.41967,-1.08555 2.41967,-2.41978c0,-1.33423 -1.08544,-2.41967 -2.41967,-2.41967c-1.33423,0 -2.41978,1.08544 -2.41978,2.41967c0,1.33423 1.08555,2.41978 2.41978,2.41978z"/></g></g></svg>