<svg version="1.1" xmlns="http://www.w3.org/2000/svg" xmlns:xlink="http://www.w3.org/1999/xlink" width="521.31772" height="270.07386"><defs><linearGradient x1="-24.15472" y1="166.52776" x2="-24.15472" y2="186.67699" gradientUnits="userSpaceOnUse" id="color-1"><stop offset="0" stop-color="#817666"/><stop offset="1" stop-color="#786f5f"/></linearGradient></defs><g transform="translate(105.70704,14.33068)"><g data-paper-data="{&quot;isPaintingLayer&quot;:true}" fill="none" fill-rule="nonzero" stroke="none" stroke-width="none" stroke-linecap="none" stroke-linejoin="miter" stroke-miterlimit="10" stroke-dasharray="" stroke-dashoffset="0" font-family="none" font-weight="none" font-size="none" text-anchor="none" style="mix-blend-mode: normal"><g data-paper-data="{&quot;origPos&quot;:null,&quot;index&quot;:null}" stroke-linecap="butt"><path d="M-59.68387,252.18987c0,0 2.17923,-7.03633 8.69496,-24.92449c5.50168,-15.10412 11.13277,-19.27965 11.13277,-19.27965c0,0 -5.18932,15.8568 -6.62802,31.10384c-1.76782,18.73515 2.34727,15.36771 2.34727,15.36771z" data-paper-data="{&quot;origPos&quot;:null,&quot;origRot&quot;:0}" fill="#8eb480" stroke="none" stroke-width="0"/><path d="M-61.6408,251.75184c0,0 2.92726,2.00444 1.66972,-9.14755c-1.02341,-9.07572 -4.71481,-18.5144 -4.71481,-18.5144c0,0 4.00565,2.48546 7.91924,11.47611c4.63493,10.64783 6.18512,14.83617 6.18512,14.83617z" data-paper-data="{&quot;origPos&quot;:null,&quot;origRot&quot;:0}" fill="#8eb480" stroke="none" stroke-width="0"/><g data-paper-data="{&quot;origPos&quot;:null}" stroke="none" stroke-width="0.5"><path d="M-84.0567,47.18204c0,-5.03845 4.08446,-9.12292 9.12291,-9.12292c5.03845,0 9.12291,4.08446 9.12291,9.12292c0,5.03845 -4.08446,9.12292 -9.12291,9.12292c-5.03845,0 -9.12291,-4.08447 -9.12291,-9.12292z" data-paper-data="{&quot;origPos&quot;:null}" fill="#6c4343"/><path d="M-74.93377,38.05915c5.03844,0 9.12291,4.08449 9.12291,9.12292c0,5.03843 -4.08448,9.12291 -9.12291,9.12291c-5.03843,0 -5.03843,-18.24584 0,-18.24584z" data-paper-data="{&quot;origPos&quot;:null}" fill="#6c4343"/><path d="M-85.54953,46.18683c0,-5.03845 4.08446,-9.12292 9.12291,-9.12292c5.03845,0 9.12291,4.08446 9.12291,9.12292c0,5.03845 -4.08446,9.12292 -9.12291,9.12292c-5.03845,0 -9.12291,-4.08447 -9.12291,-9.12292z" data-paper-data="{&quot;origPos&quot;:null}" fill="#c76262"/><path d="M-76.42661,37.06393c5.03844,0 9.12291,4.08449 9.12291,9.12292c0,5.03843 -4.08448,9.12291 -9.12291,9.12291c-5.03843,0 -5.03843,-18.24584 0,-18.24584z" data-paper-data="{&quot;origPos&quot;:null}" fill="#c76e6e"/></g><path d="M-28.17294,243.63534l0.95829,-120.83513l12.96091,-1.81912l12.79329,11.24799l16.67645,-9.09237c0,0 -0.65612,87.31121 -0.81909,107.86174c-0.05432,6.85019 17.22429,12.97337 17.22429,12.97337c0,0 -16.21642,-0.08611 -26.00955,-0.14121c-13.5423,-0.07621 -33.7846,-0.19527 -33.7846,-0.19527z" data-paper-data="{&quot;origPos&quot;:null,&quot;origRot&quot;:0}" fill="#908472" stroke="none" stroke-width="0"/><path d="M-28.17294,243.63534l0.95829,-120.83513l12.96091,-1.81912l12.79329,11.24799l16.67645,-9.09237c0,0 -1.60381,35.36781 -0.49404,65.45846c0.69109,18.73833 -0.19382,25.85489 -0.32505,42.40328c-0.05432,6.85019 1.00787,12.88726 -8.78526,12.83215c-13.5423,-0.07621 -33.7846,-0.19527 -33.7846,-0.19527z" data-paper-data="{&quot;origPos&quot;:null,&quot;origRot&quot;:0}" fill="#887c6b" stroke="none" stroke-width="0"/><path d="M-28.17294,243.63534l0.95829,-120.83513l12.96091,-1.81912l12.79329,11.24799c0,0 16.02033,78.21884 15.85736,98.76937c-0.05432,6.85019 1.00787,12.88726 -8.78526,12.83215c-13.5423,-0.07621 -33.7846,-0.19527 -33.7846,-0.19527z" data-paper-data="{&quot;origPos&quot;:null,&quot;origRot&quot;:0}" fill="#847968" stroke="none" stroke-width="0"/><path d="M-28.1729,243.63534c0,0 0.12526,-15.7964 0.20545,-25.90692c0.24055,-30.33151 0.75283,-94.92821 0.75283,-94.92821l12.9609,-1.81912l12.79329,11.24799z" data-paper-data="{&quot;origPos&quot;:null,&quot;origRot&quot;:0}" fill="#817666" stroke="none" stroke-width="0"/><path d="M14.76334,145.35978c0,0 -10.64939,-3.97577 -18.16014,-5.13126c-9.00652,-1.38561 -24.16334,-1.38003 -24.16334,-1.38003v-18.44871h42.3235v24.96001z" data-paper-data="{&quot;origPos&quot;:null,&quot;index&quot;:null}" fill="#5d554a" stroke="none" stroke-width="0"/><path d="M14.76334,143.98595c0,0 -10.64939,-3.97577 -18.16014,-5.13126c-9.00652,-1.38561 -24.16334,-1.38003 -24.16334,-1.38003v-18.44871h42.3235v24.96001z" data-paper-data="{&quot;origPos&quot;:null,&quot;index&quot;:null}" fill="#6c6356" stroke="none" stroke-width="0"/><g data-paper-data="{&quot;origPos&quot;:null,&quot;index&quot;:null}" stroke="none" stroke-width="0"><path d="M-12.89018,117.90024c0,0 -18.72086,-1.50366 -25.14641,-9.41203c-4.58599,-5.64429 -3.06926,-25.31495 -3.06926,-25.31495z" fill="#8eb480"/><path d="M-41.34625,83.17327c0,0 18.72086,1.50366 25.14641,9.41203c4.58599,5.64427 3.06926,25.31493 3.06926,25.31493z" data-paper-data="{&quot;index&quot;:null,&quot;origPos&quot;:null}" fill="#9dc78d"/></g><g data-paper-data="{&quot;origPos&quot;:null,&quot;index&quot;:null,&quot;origRot&quot;:0}" fill="#9dc78d" stroke="none" stroke-width="0"><path d="M-52.39333,117.3347c0,0 -13.67571,-12.87271 -13.75014,-23.06214c-0.05313,-7.27229 13.42332,-21.68135 13.42332,-21.68135z"/><path d="M-52.90782,72.44095c0,0 13.67571,12.87271 13.75014,23.06214c0.05313,7.27229 -13.42332,21.68135 -13.42332,21.68135z" data-paper-data="{&quot;index&quot;:null,&quot;origPos&quot;:null}"/></g><g data-paper-data="{&quot;origPos&quot;:null,&quot;origRot&quot;:0,&quot;index&quot;:null}" stroke="none" stroke-width="0"><path d="M-17.14973,122.79881c0,0 4.34458,-18.27174 13.14135,-23.41439c6.27834,-3.67037 25.48674,0.83214 25.48674,0.83214z" fill="#8eb480"/><path d="M21.51505,99.97904c0,0 -4.34458,18.27174 -13.14135,23.41439c-6.27833,3.67037 -25.48673,-0.83214 -25.48673,-0.83214z" data-paper-data="{&quot;index&quot;:null,&quot;origPos&quot;:null}" fill="#9dc78d"/></g><g data-paper-data="{&quot;origPos&quot;:null,&quot;index&quot;:null}" fill="#9dc78d" stroke="none" stroke-width="0"><path d="M-47.61716,90.22668c0,0 -1.51673,-19.67066 3.06926,-25.31495c6.42555,-7.90837 25.14641,-9.41203 25.14641,-9.41203z"/><path d="M-19.64189,55.49963c0,0 1.51673,19.67066 -3.06926,25.31493c-6.42555,7.90837 -25.14641,9.41203 -25.14641,9.41203z" data-paper-data="{&quot;index&quot;:null,&quot;origPos&quot;:null}"/></g><g data-paper-data="{&quot;origPos&quot;:null,&quot;index&quot;:null,&quot;origRot&quot;:0}" fill="#9dc78d" stroke="none" stroke-width="0"><path d="M-67.9132,117.08702c0,0 -13.47644,-14.40906 -13.42332,-21.68135c0.07442,-10.18943 13.75014,-23.06214 13.75014,-23.06214z"/><path d="M-67.77406,72.49374c0,0 13.47644,14.40906 13.42332,21.68135c-0.07442,10.18943 -13.75014,23.06214 -13.75014,23.06214z" data-paper-data="{&quot;index&quot;:null,&quot;origPos&quot;:null}"/></g><g data-paper-data="{&quot;origPos&quot;:null,&quot;origRot&quot;:0,&quot;index&quot;:null}" fill="#9dc78d" stroke="none" stroke-width="0"><path d="M14.96705,73.1833c0,0 -19.2084,4.50251 -25.48674,0.83214c-8.79677,-5.14265 -13.14135,-23.41439 -13.14135,-23.41439z"/><path d="M-23.62432,50.83864c0,0 19.2084,-4.50251 25.48673,-0.83214c8.79677,5.14265 13.14135,23.41439 13.14135,23.41439z" data-paper-data="{&quot;index&quot;:null,&quot;origPos&quot;:null}"/></g><g data-paper-data="{&quot;origPos&quot;:null,&quot;index&quot;:null}" stroke="none" stroke-width="0"><path d="M-8.94884,87.51415c0,0 1.51673,19.67066 -3.06926,25.31495c-6.42555,7.90837 -25.14641,9.41203 -25.14641,9.41203z" fill="#8eb480"/><path d="M-36.92407,122.24106c0,0 -1.51673,-19.67066 3.06926,-25.31493c6.42555,-7.90837 25.14641,-9.41203 25.14641,-9.41203z" data-paper-data="{&quot;index&quot;:null,&quot;origPos&quot;:null}" fill="#9dc78d"/></g><g data-paper-data="{&quot;origPos&quot;:null,&quot;index&quot;:null,&quot;origRot&quot;:0}" fill="#9dc78d" stroke="none" stroke-width="0"><path d="M2.66549,76.93209c0,0 13.47644,14.40906 13.42332,21.68135c-0.07442,10.18943 -13.75014,23.06214 -13.75014,23.06214z"/><path d="M2.52635,121.52526c0,0 -13.47644,-14.40906 -13.42332,-21.68135c0.07442,-10.18943 13.75014,-23.06214 13.75014,-23.06214z" data-paper-data="{&quot;index&quot;:null,&quot;origPos&quot;:null}"/></g><g data-paper-data="{&quot;origPos&quot;:null,&quot;index&quot;:null}" fill="#9dc78d" stroke="none" stroke-width="0"><path d="M-30.65318,59.84055c0,0 18.72086,1.50366 25.14641,9.41203c4.58599,5.64429 3.06926,25.31495 3.06926,25.31495z"/><path d="M-2.19713,94.56754c0,0 -18.72086,-1.50366 -25.14641,-9.41203c-4.58599,-5.64427 -3.06926,-25.31493 -3.06926,-25.31493z" data-paper-data="{&quot;index&quot;:null,&quot;origPos&quot;:null}"/></g><g data-paper-data="{&quot;origPos&quot;:null,&quot;index&quot;:null,&quot;origRot&quot;:0}" fill="#9dc78d" stroke="none" stroke-width="0"><path d="M8.84997,60.40606c0,0 13.67571,12.87271 13.75014,23.06214c0.05313,7.27229 -13.42332,21.68135 -13.42332,21.68135z"/><path d="M9.36447,105.29986c0,0 -13.67571,-12.87271 -13.75014,-23.06214c-0.05313,-7.27229 13.42332,-21.68135 13.42332,-21.68135z" data-paper-data="{&quot;index&quot;:null,&quot;origPos&quot;:null}"/></g><g data-paper-data="{&quot;origPos&quot;:null,&quot;origRot&quot;:0,&quot;index&quot;:null}" fill="#9dc78d" stroke="none" stroke-width="0"><path d="M-26.39362,54.94191c0,0 -4.34458,18.27174 -13.14135,23.41439c-6.27834,3.67037 -25.48674,-0.83214 -25.48674,-0.83214z"/><path d="M-65.05841,77.7618c0,0 4.34458,-18.27174 13.14135,-23.41439c6.27833,-3.67037 25.48673,0.83214 25.48673,0.83214z" data-paper-data="{&quot;index&quot;:null,&quot;origPos&quot;:null}"/></g><g data-paper-data="{&quot;origPos&quot;:null,&quot;index&quot;:null,&quot;origRot&quot;:0}" fill="#9dc78d" stroke="none" stroke-width="0"><path d="M-62.48713,58.58263c0,0 -13.47644,-14.40906 -13.42332,-21.68135c0.07442,-10.18943 13.75014,-23.06214 13.75014,-23.06214z"/><path d="M-62.34799,13.98946c0,0 13.47644,14.40906 13.42332,21.68135c-0.07442,10.18943 -13.75014,23.06214 -13.75014,23.06214z" data-paper-data="{&quot;index&quot;:null,&quot;origPos&quot;:null}"/></g><g data-paper-data="{&quot;origPos&quot;:null,&quot;index&quot;:null,&quot;origRot&quot;:0}" fill="#9dc78d" stroke="none" stroke-width="0"><path d="M-68.6716,75.10868c0,0 -13.67571,-12.87271 -13.75014,-23.06214c-0.05313,-7.27229 13.42332,-21.68135 13.42332,-21.68135z"/><path d="M-69.18609,30.21496c0,0 13.67571,12.87271 13.75014,23.06214c0.05313,7.27229 -13.42332,21.68135 -13.42332,21.68135z" data-paper-data="{&quot;index&quot;:null,&quot;origPos&quot;:null}"/></g><g data-paper-data="{&quot;origPos&quot;:null,&quot;origRot&quot;:0,&quot;index&quot;:null}" fill="#9dc78d" stroke="none" stroke-width="0"><path d="M-33.428,80.57285c0,0 4.34458,-18.27174 13.14135,-23.41439c6.27834,-3.67037 25.48674,0.83214 25.48674,0.83214z"/><path d="M5.23679,57.75294c0,0 -4.34458,18.27174 -13.14135,23.41439c-6.27833,3.67037 -25.48673,-0.83214 -25.48673,-0.83214z" data-paper-data="{&quot;index&quot;:null,&quot;origPos&quot;:null}"/></g><g data-paper-data="{&quot;origPos&quot;:null,&quot;index&quot;:null,&quot;origRot&quot;:0}" fill="#9dc78d" stroke="none" stroke-width="0"><path d="M-7.42831,9.49832c0,0 13.67571,12.87271 13.75014,23.06214c0.05313,7.27229 -13.42332,21.68135 -13.42332,21.68135z"/><path d="M-6.91381,54.392c0,0 -13.67571,-12.87271 -13.75014,-23.06214c-0.05313,-7.27229 13.42332,-21.68135 13.42332,-21.68135z" data-paper-data="{&quot;index&quot;:null,&quot;origPos&quot;:null}"/></g><g data-paper-data="{&quot;origPos&quot;:null,&quot;index&quot;:null}" fill="#9dc78d" stroke="none" stroke-width="0"><path d="M-12.20447,36.60634c0,0 1.51673,19.67066 -3.06926,25.31495c-6.42555,7.90837 -25.14641,9.41203 -25.14641,9.41203z"/><path d="M-40.17974,71.33326c0,0 -1.51673,-19.67066 3.06926,-25.31493c6.42555,-7.90837 25.14641,-9.41203 25.14641,-9.41203z" data-paper-data="{&quot;index&quot;:null,&quot;origPos&quot;:null}"/></g><g data-paper-data="{&quot;origPos&quot;:null,&quot;index&quot;:null,&quot;origRot&quot;:0}" fill="#9dc78d" stroke="none" stroke-width="0"><path d="M-0.59015,26.02424c0,0 13.47644,14.40906 13.42332,21.68135c-0.07442,10.18943 -13.75014,23.06214 -13.75014,23.06214z"/><path d="M-0.7293,70.61751c0,0 -13.47644,-14.40906 -13.42332,-21.68135c0.07442,-10.18943 13.75014,-23.06214 13.75014,-23.06214z" data-paper-data="{&quot;index&quot;:null,&quot;origPos&quot;:null}"/></g><g data-paper-data="{&quot;origPos&quot;:null,&quot;origRot&quot;:0,&quot;index&quot;:null}" fill="#9dc78d" stroke="none" stroke-width="0"><path d="M-92.15217,57.99054c0,0 19.2084,-4.50251 25.48674,-0.83214c8.79677,5.14265 13.14135,23.41439 13.14135,23.41439z"/><path d="M-53.56078,80.33525c0,0 -19.2084,4.50251 -25.48673,0.83214c-8.79677,-5.14265 -13.14135,-23.41439 -13.14135,-23.41439z" data-paper-data="{&quot;index&quot;:null,&quot;origPos&quot;:null}"/></g><g data-paper-data="{&quot;origPos&quot;:null,&quot;index&quot;:null,&quot;origRot&quot;:0}" fill="#9dc78d" stroke="none" stroke-width="0"><path d="M-36.11506,64.15896c0,0 -13.67571,-12.87271 -13.75014,-23.06214c-0.05313,-7.27229 13.42332,-21.68135 13.42332,-21.68135z"/><path d="M-36.62956,19.2653c0,0 13.67571,12.87271 13.75014,23.06214c0.05313,7.27229 -13.42332,21.68135 -13.42332,21.68135z" data-paper-data="{&quot;index&quot;:null,&quot;origPos&quot;:null}"/></g><g data-paper-data="{&quot;origPos&quot;:null,&quot;index&quot;:null}" fill="#9dc78d" stroke="none" stroke-width="0"><path d="M-31.33889,37.05102c0,0 -1.51673,-19.67066 3.06926,-25.31495c6.42555,-7.90837 25.14641,-9.41203 25.14641,-9.41203z"/><path d="M-3.36365,2.32405c0,0 1.51673,19.67066 -3.06926,25.31493c-6.42555,7.90837 -25.14641,9.41203 -25.14641,9.41203z" data-paper-data="{&quot;index&quot;:null,&quot;origPos&quot;:null}"/></g><g data-paper-data="{&quot;origPos&quot;:null,&quot;index&quot;:null,&quot;origRot&quot;:0}" fill="#9dc78d" stroke="none" stroke-width="0"><path d="M-42.9532,47.63307c0,0 -13.47644,-14.40906 -13.42332,-21.68135c0.07442,-10.18943 13.75014,-23.06214 13.75014,-23.06214z"/><path d="M-42.81406,3.03981c0,0 13.47644,14.40906 13.42332,21.68135c-0.07442,10.18943 -13.75014,23.06214 -13.75014,23.06214z" data-paper-data="{&quot;index&quot;:null,&quot;origPos&quot;:null}"/></g><g data-paper-data="{&quot;origPos&quot;:null,&quot;origRot&quot;:0,&quot;index&quot;:null}" fill="#9dc78d" stroke="none" stroke-width="0"><path d="M31.24531,20.00763c0,0 -19.2084,4.50251 -25.48674,0.83214c-8.79677,-5.14265 -13.14135,-23.41439 -13.14135,-23.41439z"/><path d="M-7.34606,-2.33699c0,0 19.2084,-4.50251 25.48673,-0.83214c8.79677,5.14265 13.14135,23.41439 13.14135,23.41439z" data-paper-data="{&quot;index&quot;:null,&quot;origPos&quot;:null}"/></g><g data-paper-data="{&quot;origPos&quot;:null,&quot;index&quot;:null,&quot;origRot&quot;:0}" stroke="none" stroke-width="0"><path d="M18.94375,23.75642c0,0 13.47644,14.40906 13.42332,21.68135c-0.07442,10.18943 -13.75014,23.06214 -13.75014,23.06214z" fill="#8eb480"/><path d="M18.80461,68.3496c0,0 -13.47644,-14.40906 -13.42332,-21.68135c0.07442,-10.18943 13.75014,-23.06214 13.75014,-23.06214z" data-paper-data="{&quot;index&quot;:null,&quot;origPos&quot;:null}" fill="#9dc78d"/></g><g data-paper-data="{&quot;origPos&quot;:null,&quot;index&quot;:null}" fill="#9dc78d" stroke="none" stroke-width="0"><path d="M-14.37492,6.66488c0,0 18.72086,1.50366 25.14641,9.41203c4.58599,5.64429 3.06926,25.31495 3.06926,25.31495z"/><path d="M14.08115,41.39187c0,0 -18.72086,-1.50366 -25.14641,-9.41203c-4.58599,-5.64427 -3.06926,-25.31493 -3.06926,-25.31493z" data-paper-data="{&quot;index&quot;:null,&quot;origPos&quot;:null}"/></g><g data-paper-data="{&quot;origPos&quot;:null,&quot;index&quot;:null,&quot;origRot&quot;:0}" stroke="none" stroke-width="0"><path d="M25.12824,7.23038c0,0 13.67571,12.87271 13.75014,23.06214c0.05313,7.27229 -13.42332,21.68135 -13.42332,21.68135z" fill="#8eb480"/><path d="M25.64274,52.12416c0,0 -13.67571,-12.87271 -13.75014,-23.06214c-0.05313,-7.27229 13.42332,-21.68135 13.42332,-21.68135z" data-paper-data="{&quot;index&quot;:null,&quot;origPos&quot;:null}" fill="#9dc78d"/></g><g data-paper-data="{&quot;origPos&quot;:null,&quot;origRot&quot;:0,&quot;index&quot;:null}" fill="#9dc78d" stroke="none" stroke-width="0"><path d="M-10.11536,1.76628c0,0 -4.34458,18.27174 -13.14135,23.41439c-6.27834,3.67037 -25.48674,-0.83214 -25.48674,-0.83214z"/><path d="M-48.78014,24.58609c0,0 4.34458,-18.27174 13.14135,-23.41439c6.27833,-3.67037 25.48673,0.83214 25.48673,0.83214z" data-paper-data="{&quot;index&quot;:null,&quot;origPos&quot;:null}"/></g><g data-paper-data="{&quot;origPos&quot;:null,&quot;index&quot;:null}" stroke="none" stroke-width="0"><path d="M31.20424,49.53151c0,0 1.51673,19.67066 -3.06926,25.31495c-6.42555,7.90837 -25.14641,9.41203 -25.14641,9.41203z" fill="#8eb480"/><path d="M3.22898,84.25849c0,0 -1.51673,-19.67066 3.06926,-25.31493c6.42555,-7.90837 25.14641,-9.41203 25.14641,-9.41203z" data-paper-data="{&quot;index&quot;:null,&quot;origPos&quot;:null}" fill="#9dc78d"/></g><g data-paper-data="{&quot;origPos&quot;:null,&quot;index&quot;:null,&quot;origRot&quot;:0}" stroke="none" stroke-width="0"><path d="M42.81854,38.94945c0,0 13.47644,14.40906 13.42332,21.68135c-0.07442,10.18943 -13.75014,23.06214 -13.75014,23.06214z" fill="#8eb480"/><path d="M42.6794,83.54272c0,0 -13.47644,-14.40906 -13.42332,-21.68135c0.07442,-10.18943 13.75014,-23.06214 13.75014,-23.06214z" data-paper-data="{&quot;index&quot;:null,&quot;origPos&quot;:null}" fill="#9dc78d"/></g><g data-paper-data="{&quot;origPos&quot;:null,&quot;origRot&quot;:0,&quot;index&quot;:null}" fill="#9dc78d" stroke="none" stroke-width="0"><path d="M-31.37996,66.57484c0,0 19.2084,-4.50251 25.48674,-0.83214c8.79677,5.14265 13.14135,23.41439 13.14135,23.41439z"/><path d="M7.21142,88.91951c0,0 -19.2084,4.50251 -25.48673,0.83214c-8.79677,-5.14265 -13.14135,-23.41439 -13.14135,-23.41439z" data-paper-data="{&quot;index&quot;:null,&quot;origPos&quot;:null}"/></g><g data-paper-data="{&quot;origPos&quot;:null,&quot;index&quot;:null}" fill="#9dc78d" stroke="none" stroke-width="0"><path d="M14.24027,79.91762c0,0 -18.72086,-1.50366 -25.14641,-9.41203c-4.58599,-5.64429 -3.06926,-25.31495 -3.06926,-25.31495z"/><path d="M-14.21582,45.19066c0,0 18.72086,1.50366 25.14641,9.41203c4.58599,5.64427 3.06926,25.31493 3.06926,25.31493z" data-paper-data="{&quot;index&quot;:null,&quot;origPos&quot;:null}"/></g><g data-paper-data="{&quot;origPos&quot;:null,&quot;index&quot;:null,&quot;origRot&quot;:0}" fill="#9dc78d" stroke="none" stroke-width="0"><path d="M-25.26289,79.35208c0,0 -13.67571,-12.87271 -13.75014,-23.06214c-0.05313,-7.27229 13.42332,-21.68135 13.42332,-21.68135z"/><path d="M-25.77739,34.45834c0,0 13.67571,12.87271 13.75014,23.06214c0.05313,7.27229 -13.42332,21.68135 -13.42332,21.68135z" data-paper-data="{&quot;index&quot;:null,&quot;origPos&quot;:null}"/></g><g data-paper-data="{&quot;origPos&quot;:null,&quot;origRot&quot;:0,&quot;index&quot;:null}" stroke="none" stroke-width="0"><path d="M9.98072,84.81626c0,0 4.34458,-18.27174 13.14135,-23.41439c6.27834,-3.67037 25.48674,0.83214 25.48674,0.83214z" fill="#8eb480"/><path d="M48.64551,61.99636c0,0 -4.34458,18.27174 -13.14135,23.41439c-6.27833,3.67037 -25.48673,-0.83214 -25.48673,-0.83214z" data-paper-data="{&quot;index&quot;:null,&quot;origPos&quot;:null}" fill="#9dc78d"/></g><g data-paper-data="{&quot;origPos&quot;:null,&quot;index&quot;:null,&quot;origRot&quot;:0}" fill="#8db27e" stroke="none" stroke-width="0"><path d="M46.0742,81.17551c0,0 13.47644,14.40906 13.42332,21.68135c-0.07442,10.18943 -13.75014,23.06214 -13.75014,23.06214z"/><path d="M45.93506,125.76871c0,0 -13.47644,-14.40906 -13.42332,-21.68135c0.07442,-10.18943 13.75014,-23.06214 13.75014,-23.06214z" data-paper-data="{&quot;index&quot;:null,&quot;origPos&quot;:null}"/></g><g data-paper-data="{&quot;origPos&quot;:null,&quot;index&quot;:null}" stroke="none" stroke-width="0"><path d="M12.75553,64.08393c0,0 18.72086,1.50366 25.14641,9.41203c4.58599,5.64429 3.06926,25.31495 3.06926,25.31495z" fill="#8eb480"/><path d="M41.2116,98.81095c0,0 -18.72086,-1.50366 -25.14641,-9.41203c-4.58599,-5.64427 -3.06926,-25.31493 -3.06926,-25.31493z" data-paper-data="{&quot;index&quot;:null,&quot;origPos&quot;:null}" fill="#9dc78d"/></g><g data-paper-data="{&quot;origPos&quot;:null,&quot;index&quot;:null,&quot;origRot&quot;:0}" fill="#8db27e" stroke="none" stroke-width="0"><path d="M52.25869,64.64952c0,0 13.67571,12.87271 13.75014,23.06214c0.05313,7.27229 -13.42332,21.68135 -13.42332,21.68135z"/><path d="M52.77319,109.54325c0,0 -13.67571,-12.87271 -13.75014,-23.06214c-0.05313,-7.27229 13.42332,-21.68135 13.42332,-21.68135z" data-paper-data="{&quot;index&quot;:null,&quot;origPos&quot;:null}"/></g><g data-paper-data="{&quot;origPos&quot;:null,&quot;origRot&quot;:0,&quot;index&quot;:null}" fill="#9dc78d" stroke="none" stroke-width="0"><path d="M17.01509,59.18529c0,0 -4.34458,18.27174 -13.14135,23.41439c-6.27834,3.67037 -25.48674,-0.83214 -25.48674,-0.83214z"/><path d="M-21.6497,82.0052c0,0 4.34458,-18.27174 13.14135,-23.41439c6.27833,-3.67037 25.48673,0.83214 25.48673,0.83214z" data-paper-data="{&quot;index&quot;:null,&quot;origPos&quot;:null}"/></g><g data-paper-data="{&quot;origPos&quot;:null,&quot;index&quot;:null,&quot;origRot&quot;:0}" stroke="none" stroke-width="0"><path d="M-8.98464,130.25977c0,0 -13.67571,-12.87271 -13.75014,-23.06214c-0.05313,-7.27229 13.42332,-21.68135 13.42332,-21.68135z" fill="#8eb480"/><path d="M-9.49911,85.36614c0,0 13.67571,12.87271 13.75014,23.06214c0.05313,7.27229 -13.42332,21.68135 -13.42332,21.68135z" data-paper-data="{&quot;index&quot;:null,&quot;origPos&quot;:null}" fill="#9dc78d"/></g><g data-paper-data="{&quot;origPos&quot;:null,&quot;index&quot;:null}" fill="#9dc78d" stroke="none" stroke-width="0"><path d="M-4.20844,103.15185c0,0 -1.51673,-19.67066 3.06926,-25.31495c6.42555,-7.90837 25.14641,-9.41203 25.14641,-9.41203z"/><path d="M23.7668,68.42481c0,0 1.51673,19.67066 -3.06926,25.31493c-6.42555,7.90837 -25.14641,9.41203 -25.14641,9.41203z" data-paper-data="{&quot;index&quot;:null,&quot;origPos&quot;:null}"/></g><g data-paper-data="{&quot;origPos&quot;:null,&quot;index&quot;:null,&quot;origRot&quot;:0}" fill="#9dc78d" stroke="none" stroke-width="0"><path d="M-15.82275,113.73388c0,0 -13.47644,-14.40906 -13.42332,-21.68135c0.07442,-10.18943 13.75014,-23.06214 13.75014,-23.06214z"/><path d="M-15.6836,69.14057c0,0 13.47644,14.40906 13.42332,21.68135c-0.07442,10.18943 -13.75014,23.06214 -13.75014,23.06214z" data-paper-data="{&quot;index&quot;:null,&quot;origPos&quot;:null}"/></g><g data-paper-data="{&quot;origPos&quot;:null,&quot;origRot&quot;:0,&quot;index&quot;:null}" stroke="none" stroke-width="0"><path d="M58.37577,86.10847c0,0 -19.2084,4.50251 -25.48674,0.83214c-8.79677,-5.14265 -13.14135,-23.41439 -13.14135,-23.41439z" fill="#8eb480"/><path d="M19.78436,63.76382c0,0 19.2084,-4.50251 25.48673,-0.83214c8.79677,5.14265 13.14135,23.41439 13.14135,23.41439z" data-paper-data="{&quot;index&quot;:null,&quot;origPos&quot;:null}" fill="#9dc78d"/></g><g data-paper-data="{&quot;origPos&quot;:null,&quot;index&quot;:null,&quot;origRot&quot;:0}" stroke="none" stroke-width="0"><path d="M19.70214,75.59917c0,0 13.67571,12.87271 13.75014,23.06214c0.05313,7.27229 -13.42332,21.68135 -13.42332,21.68135z" fill="#8eb480"/><path d="M20.21665,120.49285c0,0 -13.67571,-12.87271 -13.75014,-23.06214c-0.05313,-7.27229 13.42332,-21.68135 13.42332,-21.68135z" data-paper-data="{&quot;index&quot;:null,&quot;origPos&quot;:null}" fill="#9dc78d"/></g><g data-paper-data="{&quot;origPos&quot;:null,&quot;index&quot;:null}" stroke="none" stroke-width="0"><path d="M14.92597,102.70719c0,0 1.51673,19.67066 -3.06926,25.31495c-6.42555,7.90837 -25.14641,9.41203 -25.14641,9.41203z" fill="#8eb480"/><path d="M-13.04928,137.4341c0,0 -1.51673,-19.67066 3.06926,-25.31493c6.42555,-7.90837 25.14641,-9.41203 25.14641,-9.41203z" data-paper-data="{&quot;index&quot;:null,&quot;origPos&quot;:null}" fill="#9dc78d"/></g><g data-paper-data="{&quot;origPos&quot;:null,&quot;index&quot;:null,&quot;origRot&quot;:0}" fill="#8db27e" stroke="none" stroke-width="0"><path d="M26.54029,92.12515c0,0 13.47644,14.40906 13.42332,21.68135c-0.07442,10.18943 -13.75014,23.06214 -13.75014,23.06214z"/><path d="M26.40115,136.7183c0,0 -13.47644,-14.40906 -13.42332,-21.68135c0.07442,-10.18943 13.75014,-23.06214 13.75014,-23.06214z" data-paper-data="{&quot;index&quot;:null,&quot;origPos&quot;:null}"/></g><g data-paper-data="{&quot;origPos&quot;:null,&quot;origRot&quot;:0,&quot;index&quot;:null}" fill="#9dc78d" stroke="none" stroke-width="0"><path d="M-47.65824,119.75046c0,0 19.2084,-4.50251 25.48674,-0.83214c8.79677,5.14265 13.14135,23.41439 13.14135,23.41439z"/><path d="M-9.06686,142.09519c0,0 -19.2084,4.50251 -25.48673,0.83214c-8.79677,-5.14265 -13.14135,-23.41439 -13.14135,-23.41439z" data-paper-data="{&quot;index&quot;:null,&quot;origPos&quot;:null}"/></g><g data-paper-data="{&quot;origPos&quot;:null,&quot;index&quot;:null}" fill="#9dc78d" stroke="none" stroke-width="0"><path d="M-2.038,133.09321c0,0 -18.72086,-1.50366 -25.14641,-9.41203c-4.58599,-5.64429 -3.06926,-25.31495 -3.06926,-25.31495z"/><path d="M-30.49408,98.36633c0,0 18.72086,1.50366 25.14641,9.41203c4.58599,5.64427 3.06926,25.31493 3.06926,25.31493z" data-paper-data="{&quot;index&quot;:null,&quot;origPos&quot;:null}"/></g><g data-paper-data="{&quot;origPos&quot;:null,&quot;index&quot;:null,&quot;origRot&quot;:0}" fill="#9dc78d" stroke="none" stroke-width="0"><path d="M-48.05246,134.69817c0,0 -13.67571,-12.87271 -13.75014,-23.06214c-0.05313,-7.27229 13.42332,-21.68135 13.42332,-21.68135z"/><path d="M-48.56695,89.80446c0,0 13.67571,12.87271 13.75014,23.06214c0.05313,7.27229 -13.42332,21.68135 -13.42332,21.68135z" data-paper-data="{&quot;index&quot;:null,&quot;origPos&quot;:null}"/></g><g data-paper-data="{&quot;origPos&quot;:null,&quot;index&quot;:null,&quot;origRot&quot;:0}" stroke="none" stroke-width="0"><path d="M21.26359,41.94887c0,0 -17.12131,-7.71962 -20.50868,-17.3298c-2.41762,-6.85889 5.63412,-24.87012 5.63412,-24.87012z" fill="#8eb480"/><path d="M6.16265,-0.33203c0,0 17.12132,7.71963 20.5087,17.3298c2.41763,6.85889 -5.63412,24.87011 -5.63412,24.87011z" data-paper-data="{&quot;index&quot;:null,&quot;origPos&quot;:null}" fill="#9dc78d"/></g><g data-paper-data="{&quot;origPos&quot;:null,&quot;index&quot;:null,&quot;origRot&quot;:0}" fill="#9dc78d" stroke="none" stroke-width="0"><path d="M-15.74228,28.11463c0,0 -8.54253,-16.72594 -5.18159,-26.34539c2.39873,-6.86551 19.94006,-15.89529 19.94006,-15.89529z"/><path d="M-1.10993,-14.33068c0,0 8.54255,16.72594 5.1816,26.34539c-2.39874,6.86549 -19.94008,15.89528 -19.94008,15.89528z" data-paper-data="{&quot;index&quot;:null,&quot;origPos&quot;:null}"/></g><g data-paper-data="{&quot;origPos&quot;:null,&quot;origRot&quot;:0,&quot;index&quot;:null}" stroke="none" stroke-width="0"><path d="M15.6033,45.12716c0,0 10.24341,-15.74181 20.25811,-17.62207c7.14762,-1.34195 23.71821,9.36556 23.71821,9.36556z" fill="#8eb480"/><path d="M59.69417,36.65927c0,0 -10.24342,15.74181 -20.25813,17.62206c-7.14761,1.34197 -23.71818,-9.36556 -23.71818,-9.36556z" data-paper-data="{&quot;index&quot;:null,&quot;origPos&quot;:null}" fill="#9dc78d"/></g><g data-paper-data="{&quot;origPos&quot;:null,&quot;index&quot;:null,&quot;origRot&quot;:0}" stroke="none" stroke-width="0"><path d="M50.39205,10.87463c0,0 -5.19542,19.03268 -11.41417,22.80314c-8.71324,5.28291 -26.84721,0.395 -26.84721,0.395z" fill="#8eb480"/><path d="M12.35703,34.15374c0,0 5.19542,-19.03268 11.41415,-22.80314c8.71324,-5.28289 26.84721,-0.395 26.84721,-0.395z" data-paper-data="{&quot;index&quot;:null,&quot;origPos&quot;:null}" fill="#9dc78d"/></g><g data-paper-data="{&quot;origPos&quot;:null,&quot;index&quot;:null,&quot;origRot&quot;:0}" stroke="none" stroke-width="0"><path d="M56.20957,11.33267c0,0 7.83759,18.10545 5.33882,24.93518c-3.50112,9.56933 -20.71275,17.0854 -20.71275,17.0854z" fill="#8db27e"/><path d="M41.06296,53.27495c0,0 -7.83759,-18.10545 -5.33882,-24.93518c3.5011,-9.56933 20.71274,-17.0854 20.71274,-17.0854z" data-paper-data="{&quot;index&quot;:null,&quot;origPos&quot;:null}" fill="#9dc78d"/></g><g data-paper-data="{&quot;origPos&quot;:null,&quot;origRot&quot;:0,&quot;index&quot;:null}" fill="#9dc78d" stroke="none" stroke-width="0"><path d="M-14.27639,5.84913c0,0 19.60281,2.22833 24.2786,7.79844c6.55141,7.80443 4.48976,26.47208 4.48976,26.47208z"/><path d="M14.53738,39.88357c0,0 -19.60279,-2.22835 -24.2786,-7.79844c-6.5514,-7.80443 -4.48975,-26.47208 -4.48975,-26.47208z" data-paper-data="{&quot;index&quot;:null,&quot;origPos&quot;:null}"/></g><g data-paper-data="{&quot;origPos&quot;:null,&quot;index&quot;:null,&quot;origRot&quot;:0}" fill="#9dc78d" stroke="none" stroke-width="0"><path d="M-33.02633,66.77864c0,0 -8.54255,-16.72594 -5.1816,-26.34539c2.39874,-6.86551 19.94008,-15.89529 19.94008,-15.89529z"/><path d="M-18.39398,24.33329c0,0 8.54255,16.72594 5.1816,26.34539c-2.39874,6.86551 -19.94008,15.89529 -19.94008,15.89529z" data-paper-data="{&quot;index&quot;:null,&quot;origPos&quot;:null}"/></g><g data-paper-data="{&quot;origPos&quot;:null,&quot;index&quot;:null,&quot;origRot&quot;:0}" fill="#9dc78d" stroke="none" stroke-width="0"><path d="M-19.40113,42.86188c0,0 5.19542,-19.03269 11.41417,-22.80315c8.71324,-5.28289 26.8472,-0.395 26.8472,-0.395z"/><path d="M18.63383,19.5828c0,0 -5.19542,19.03268 -11.41415,22.80313c-8.71324,5.28291 -26.8472,0.395 -26.8472,0.395z" data-paper-data="{&quot;index&quot;:null,&quot;origPos&quot;:null}"/></g><g data-paper-data="{&quot;origPos&quot;:null,&quot;index&quot;:null,&quot;origRot&quot;:0}" stroke="none" stroke-width="0"><path d="M32.42179,47.27498c0,0 7.83759,18.10545 5.33882,24.93518c-3.5011,9.56935 -20.71274,17.0854 -20.71274,17.0854z" fill="#8eb480"/><path d="M17.27516,89.21733c0,0 -7.83759,-18.10546 -5.33882,-24.9352c3.5011,-9.56935 20.71275,-17.0854 20.71275,-17.0854z" data-paper-data="{&quot;index&quot;:null,&quot;origPos&quot;:null}" fill="#9dc78d"/></g><g data-paper-data="{&quot;origPos&quot;:null,&quot;index&quot;:null,&quot;origRot&quot;:0}" fill="#9dc78d" stroke="none" stroke-width="0"><path d="M6.80393,19.96242c0,0 17.12131,7.71962 20.50868,17.3298c2.41762,6.85889 -5.63412,24.87012 -5.63412,24.87012z"/><path d="M21.90486,62.24327c0,0 -17.12131,-7.71961 -20.50868,-17.3298c-2.41763,-6.85889 5.63412,-24.87012 5.63412,-24.87012z" data-paper-data="{&quot;index&quot;:null,&quot;origPos&quot;:null}"/></g><g data-paper-data="{&quot;origPos&quot;:null,&quot;index&quot;:null,&quot;origRot&quot;:0}" fill="#9dc78d" stroke="none" stroke-width="0"><path d="M43.80981,33.79659c0,0 8.54253,16.72594 5.18159,26.34539c-2.39874,6.86549 -19.94008,15.89528 -19.94008,15.89528z"/><path d="M29.17747,76.24191c0,0 -8.54255,-16.72594 -5.1816,-26.34539c2.39874,-6.86551 19.94008,-15.89529 19.94008,-15.89529z" data-paper-data="{&quot;index&quot;:null,&quot;origPos&quot;:null}"/></g><g data-paper-data="{&quot;origPos&quot;:null,&quot;index&quot;:null,&quot;origRot&quot;:0}" fill="#9dc78d" stroke="none" stroke-width="0"><path d="M-6.9321,70.18789c0,0 -7.83759,-18.10546 -5.33882,-24.9352c3.5011,-9.56933 20.71274,-17.0854 20.71274,-17.0854z"/><path d="M8.21452,28.24561c0,0 7.83758,18.10545 5.33881,24.93518c-3.5011,9.56933 -20.71274,17.0854 -20.71274,17.0854z" data-paper-data="{&quot;index&quot;:null,&quot;origPos&quot;:null}"/></g><g data-paper-data="{&quot;origPos&quot;:null,&quot;index&quot;:null,&quot;origRot&quot;:0}" fill="#9dc78d" stroke="none" stroke-width="0"><path d="M18.68575,97.50056c0,0 -17.12131,-7.71962 -20.50868,-17.3298c-2.41762,-6.85889 5.63412,-24.87013 5.63412,-24.87013z"/><path d="M3.5848,55.21963c0,0 17.12131,7.71962 20.50868,17.3298c2.41763,6.85889 -5.63412,24.87012 -5.63412,24.87012z" data-paper-data="{&quot;index&quot;:null,&quot;origPos&quot;:null}"/></g><g data-paper-data="{&quot;origPos&quot;:null,&quot;index&quot;:null,&quot;origRot&quot;:0}" fill="#9dc78d" stroke="none" stroke-width="0"><path d="M-18.32014,83.66641c0,0 -8.54255,-16.72594 -5.1816,-26.34539c2.39874,-6.86551 19.94008,-15.89529 19.94008,-15.89529z"/><path d="M-3.68778,41.22106c0,0 8.54255,16.72594 5.1816,26.34539c-2.39874,6.86551 -19.94008,15.89529 -19.94008,15.89529z" data-paper-data="{&quot;index&quot;:null,&quot;origPos&quot;:null}"/></g><g data-paper-data="{&quot;origPos&quot;:null,&quot;index&quot;:null,&quot;origRot&quot;:0}" fill="#8db27e" stroke="none" stroke-width="0"><path d="M61.43935,37.08347c0,0 8.54255,16.72592 5.1816,26.34537c-2.39874,6.86549 -19.94008,15.89529 -19.94008,15.89529z"/><path d="M46.80701,79.52881c0,0 -8.54255,-16.72592 -5.1816,-26.34537c2.39873,-6.86549 19.94008,-15.89529 19.94008,-15.89529z" data-paper-data="{&quot;index&quot;:null,&quot;origPos&quot;:null}"/></g><g data-paper-data="{&quot;origPos&quot;:null,&quot;index&quot;:null,&quot;origRot&quot;:0}" stroke="none" stroke-width="0"><path d="M47.81417,66.42629c0,0 -5.19542,19.03268 -11.41417,22.80314c-8.71324,5.28291 -26.8472,0.395 -26.8472,0.395z" fill="#8db27e"/><path d="M9.77919,89.7054c0,0 5.19542,-19.03268 11.41415,-22.80313c8.71324,-5.28289 26.8472,-0.395 26.8472,-0.395z" data-paper-data="{&quot;index&quot;:null,&quot;origPos&quot;:null}" fill="#9dc78d"/></g><g data-paper-data="{&quot;origPos&quot;:null,&quot;index&quot;:null,&quot;origRot&quot;:0}" fill="#8db27e" stroke="none" stroke-width="0"><path d="M62.31345,60.37297c0,0 7.83759,18.10545 5.33882,24.93518c-3.50112,9.56933 -20.71275,17.0854 -20.71275,17.0854z"/><path d="M47.16686,102.31535c0,0 -7.83759,-18.10546 -5.33882,-24.9352c3.5011,-9.56935 20.71274,-17.0854 20.71274,-17.0854z" data-paper-data="{&quot;index&quot;:null,&quot;origPos&quot;:null}"/></g><g data-paper-data="{&quot;origPos&quot;:null,&quot;origRot&quot;:0,&quot;index&quot;:null}" fill="#9dc78d" stroke="none" stroke-width="0"><path d="M-16.85425,61.40073c0,0 19.60281,2.22833 24.27861,7.79844c6.55141,7.80443 4.48975,26.47208 4.48975,26.47208z"/><path d="M11.95957,95.43525c0,0 -19.60279,-2.22835 -24.2786,-7.79844c-6.55141,-7.80443 -4.48975,-26.47208 -4.48975,-26.47208z" data-paper-data="{&quot;index&quot;:null,&quot;origPos&quot;:null}"/></g><g data-paper-data="{&quot;origPos&quot;:null}" stroke="none" stroke-width="0.5"><g data-paper-data="{&quot;origPos&quot;:null}" fill="#6c4343"><path d="M-55.32841,127.49088c0,-6.47743 5.25098,-11.72841 11.72841,-11.72841c6.47743,0 11.72841,5.25098 11.72841,11.72841c0,6.47743 -5.25098,11.72843 -11.72841,11.72843c-6.47743,0 -11.72841,-5.25099 -11.72841,-11.72843z" data-paper-data="{&quot;origPos&quot;:null}"/><path d="M-43.59998,115.76249c6.47742,0 11.72841,5.25101 11.72841,11.72843c0,6.47742 -5.25101,11.72841 -11.72841,11.72841c-6.47742,0 -6.47742,-23.45684 0,-23.45684z" data-paper-data="{&quot;origPos&quot;:null}"/></g><g data-paper-data="{&quot;origPos&quot;:null}"><path d="M-57.24762,126.21141c0,-6.47743 5.25098,-11.72841 11.72841,-11.72841c6.47743,0 11.72841,5.25098 11.72841,11.72841c0,6.47743 -5.25098,11.72843 -11.72841,11.72843c-6.47743,0 -11.72841,-5.25099 -11.72841,-11.72843z" data-paper-data="{&quot;origPos&quot;:null}" fill="#c76e6e"/><path d="M-45.51919,114.48303c6.47742,0 11.72841,5.25101 11.72841,11.72843c0,6.47742 -5.25101,11.72841 -11.72841,11.72841c-6.47742,0 -6.47742,-23.45684 0,-23.45684z" data-paper-data="{&quot;origPos&quot;:null}" fill="#c76262"/></g></g><g data-paper-data="{&quot;origPos&quot;:null}" stroke="none" stroke-width="0.5"><g data-paper-data="{&quot;origPos&quot;:null}" fill="#6c4343"><path d="M-86.55224,80.90279c0,-6.47743 5.25099,-11.72843 11.72843,-11.72843c6.47743,0 11.72841,5.25098 11.72841,11.72843c0,6.47743 -5.25098,11.72843 -11.72841,11.72843c-6.47743,0 -11.72843,-5.25099 -11.72843,-11.72843z" data-paper-data="{&quot;origPos&quot;:null}"/><path d="M-74.82382,69.17436c6.47742,0 11.72841,5.25102 11.72841,11.72843c0,6.47741 -5.25101,11.72841 -11.72841,11.72841c-6.47742,0 -6.47742,-23.45684 0,-23.45684z" data-paper-data="{&quot;origPos&quot;:null}"/></g><g data-paper-data="{&quot;origPos&quot;:null}"><path d="M-88.47143,79.62334c0,-6.47743 5.25098,-11.72843 11.72841,-11.72843c6.47743,0 11.72843,5.25098 11.72843,11.72843c0,6.47743 -5.25099,11.72843 -11.72843,11.72843c-6.47743,0 -11.72841,-5.25099 -11.72841,-11.72843z" data-paper-data="{&quot;origPos&quot;:null}" fill="#c76e6e"/><path d="M-76.74302,67.89491c6.47742,0 11.72843,5.25102 11.72843,11.72843c0,6.47741 -5.25101,11.72841 -11.72843,11.72841c-6.47742,0 -6.47742,-23.45684 0,-23.45684z" data-paper-data="{&quot;origPos&quot;:null}" fill="#c76262"/></g></g><g data-paper-data="{&quot;origPos&quot;:null,&quot;index&quot;:null,&quot;origRot&quot;:0}" fill="#8db27e" stroke="none" stroke-width="0"><path d="M63.68728,67.24202c0,0 7.83759,18.10545 5.33882,24.93518c-3.50112,9.56933 -20.71275,17.0854 -20.71275,17.0854z"/><path d="M48.54069,109.18439c0,0 -7.83759,-18.10546 -5.33882,-24.9352c3.5011,-9.56935 20.71274,-17.0854 20.71274,-17.0854z" data-paper-data="{&quot;index&quot;:null,&quot;origPos&quot;:null}"/></g><g data-paper-data="{&quot;origPos&quot;:null,&quot;index&quot;:null,&quot;origRot&quot;:0}" fill="#9dc78d" stroke="none" stroke-width="0"><path d="M-19.29639,69.43077c0,0 -7.83759,-18.10546 -5.33882,-24.9352c3.5011,-9.56933 20.71274,-17.0854 20.71274,-17.0854z"/><path d="M-4.14976,27.48849c0,0 7.83758,18.10545 5.33881,24.93518c-3.5011,9.56933 -20.71274,17.0854 -20.71274,17.0854z" data-paper-data="{&quot;index&quot;:null,&quot;origPos&quot;:null}"/></g><g data-paper-data="{&quot;origPos&quot;:null,&quot;origRot&quot;:0,&quot;index&quot;:null}" fill="#9dc78d" stroke="none" stroke-width="0"><path d="M-88.2831,66.85963c0,0 19.2084,-4.50251 25.48674,-0.83214c8.79677,5.14265 13.14135,23.41439 13.14135,23.41439z"/><path d="M-49.69174,89.2043c0,0 -19.2084,4.50251 -25.48673,0.83214c-8.79677,-5.14265 -13.14135,-23.41439 -13.14135,-23.41439z" data-paper-data="{&quot;index&quot;:null,&quot;origPos&quot;:null}"/></g><g data-paper-data="{&quot;origPos&quot;:null,&quot;index&quot;:null,&quot;origRot&quot;:0}" fill="#9dc78d" stroke="none" stroke-width="0"><path d="M-35.68817,141.56716c0,0 -13.67571,-12.87271 -13.75014,-23.06214c-0.05313,-7.27229 13.42332,-21.68135 13.42332,-21.68135z"/><path d="M-36.20266,96.67352c0,0 13.67571,12.87271 13.75014,23.06214c0.05313,7.27229 -13.42332,21.68135 -13.42332,21.68135z" data-paper-data="{&quot;index&quot;:null,&quot;origPos&quot;:null}"/></g><path d="M-35.60314,183.92937c0,0 4.93508,-6.93686 6.92137,-11.37681c1.05187,-2.35125 0.86355,-6.02479 0.86355,-6.02479l16.02779,0.91588l-3.20555,19.23335z" data-paper-data="{&quot;origPos&quot;:null}" fill="url(#color-1)" stroke="none" stroke-width="NaN"/><g data-paper-data="{&quot;origPos&quot;:null}" stroke-width="5"><path d="M-33.24647,189.05826c0,-6.28579 5.09564,-11.38143 11.38143,-11.38143c6.28579,0 11.38143,5.09564 11.38143,11.38143c0,6.28579 -5.09564,11.38143 -11.38143,11.38143c-6.28579,0 -11.38143,-5.09564 -11.38143,-11.38143z" data-paper-data="{&quot;origPos&quot;:null}" fill="#786f5f" stroke="#726c61"/><path d="M-33.88588,189.05826c0,-6.63893 5.38192,-12.02084 12.02084,-12.02084c6.63893,0 12.02084,5.38192 12.02084,12.02084c0,6.63893 -5.38192,12.02084 -12.02084,12.02084c-6.63893,0 -12.02084,-5.38192 -12.02084,-12.02084z" data-paper-data="{&quot;origPos&quot;:null}" fill="#786f5f" stroke="#746d63"/><path d="M-29.53792,189.05826c0,-4.23761 3.43525,-7.67288 7.67288,-7.67288c4.23761,0 7.67288,3.43525 7.67288,7.67288c0,4.23761 -3.43525,7.67288 -7.67288,7.67288c-4.23761,0 -7.67288,-3.43525 -7.67288,-7.67288z" data-paper-data="{&quot;origPos&quot;:null}" fill="#7d7364" stroke="none"/></g><g data-paper-data="{&quot;origPos&quot;:null}"><path d="M-1.29076,233.70707c0,-3.0531 2.47503,-5.52812 5.52812,-5.52812c3.0531,0 5.52812,2.47503 5.52812,5.52812c0,3.0531 -2.47503,5.52812 -5.52812,5.52812c-3.0531,0 -5.52812,-2.47503 -5.52812,-5.52812z" data-paper-data="{&quot;origPos&quot;:null}" fill="#786f5f" stroke="#726c61" stroke-width="5"/><path d="M-1.60133,233.70707c0,-3.22462 2.61407,-5.83869 5.83869,-5.83869c3.22462,0 5.83869,2.61407 5.83869,5.83869c0,3.22462 -2.61407,5.83869 -5.83869,5.83869c-3.22462,0 -5.83869,-2.61407 -5.83869,-5.83869z" data-paper-data="{&quot;origPos&quot;:null}" fill="#786f5f" stroke="#746d63" stroke-width="1"/><path d="M0.51053,233.70707c0,-2.05827 1.66855,-3.72683 3.72683,-3.72683c2.05827,0 3.72683,1.66855 3.72683,3.72683c0,2.05827 -1.66855,3.72683 -3.72683,3.72683c-2.05827,0 -3.72683,-1.66855 -3.72683,-3.72683z" data-paper-data="{&quot;origPos&quot;:null}" fill="#7d7364" stroke="none" stroke-width="0.5"/></g><g data-paper-data="{&quot;origPos&quot;:null,&quot;index&quot;:null,&quot;origRot&quot;:0}" fill="#9dc78d" stroke="none" stroke-width="0"><path d="M-33.90043,48.91517c0,0 -7.83759,-18.10546 -5.33882,-24.9352c3.5011,-9.56935 20.71275,-17.0854 20.71275,-17.0854z"/><path d="M-18.75382,6.97279c0,0 7.83759,18.10545 5.33882,24.93518c-3.5011,9.56935 -20.71274,17.0854 -20.71274,17.0854z" data-paper-data="{&quot;index&quot;:null,&quot;origPos&quot;:null}"/></g><g data-paper-data="{&quot;origPos&quot;:null,&quot;origRot&quot;:0,&quot;index&quot;:null}" fill="#9dc78d" stroke="none" stroke-width="0"><path d="M45.26725,47.88735c0,0 -19.60281,-2.22835 -24.2786,-7.79845c-6.5514,-7.80443 -4.48975,-26.47208 -4.48975,-26.47208z"/><path d="M16.45347,13.85295c0,0 19.60281,2.22835 24.2786,7.79844c6.5514,7.80443 4.48975,26.47208 4.48975,26.47208z" data-paper-data="{&quot;index&quot;:null,&quot;origPos&quot;:null}"/></g><g data-paper-data="{&quot;origPos&quot;:null,&quot;origRot&quot;:0,&quot;index&quot;:null}" fill="#9dc78d" stroke="none" stroke-width="0"><path d="M12.46421,16.78412c0,0 -10.24341,15.74181 -20.25811,17.62207c-7.14761,1.34197 -23.71819,-9.36556 -23.71819,-9.36556z"/><path d="M-31.62666,25.252c0,0 10.24341,-15.74181 20.25811,-17.62206c7.14761,-1.34197 23.71819,9.36554 23.71819,9.36554z" data-paper-data="{&quot;index&quot;:null,&quot;origPos&quot;:null}"/></g><g data-paper-data="{&quot;origPos&quot;:null,&quot;index&quot;:null,&quot;origRot&quot;:0}" fill="#9dc78d" stroke="none" stroke-width="0"><path d="M-35.35668,116.00179c0,0 -13.47644,-14.40906 -13.42332,-21.68135c0.07442,-10.18943 13.75014,-23.06214 13.75014,-23.06214z"/><path d="M-35.21754,71.40852c0,0 13.47644,14.40906 13.42332,21.68135c-0.07442,10.18943 -13.75014,23.06214 -13.75014,23.06214z" data-paper-data="{&quot;index&quot;:null,&quot;origPos&quot;:null}"/></g><g data-paper-data="{&quot;origPos&quot;:null,&quot;index&quot;:null}" fill="#9dc78d" stroke="none" stroke-width="0"><path d="M-29.16846,75.67421c0,0 -18.72086,-1.50366 -25.14641,-9.41203c-4.58599,-5.64429 -3.06926,-25.31495 -3.06926,-25.31495z"/><path d="M-57.62453,40.94721c0,0 18.72086,1.50366 25.14641,9.41203c4.58599,5.64427 3.06926,25.31493 3.06926,25.31493z" data-paper-data="{&quot;index&quot;:null,&quot;origPos&quot;:null}"/></g><g data-paper-data="{&quot;origPos&quot;:null,&quot;origRot&quot;:0,&quot;index&quot;:null}" fill="#8db27e" stroke="none" stroke-width="0"><path d="M-6.29756,137.99185c0,0 4.34458,-18.27174 13.14135,-23.41439c6.27834,-3.67037 25.48674,0.83214 25.48674,0.83214z" data-paper-data="{&quot;origPos&quot;:null}"/><path d="M32.36724,115.17209c0,0 -4.34458,18.27174 -13.14135,23.41439c-6.27833,3.67037 -25.48673,-0.83214 -25.48673,-0.83214z" data-paper-data="{&quot;index&quot;:null,&quot;origPos&quot;:null}"/></g><g data-paper-data="{&quot;origPos&quot;:null}" stroke="none" stroke-width="0.5"><g data-paper-data="{&quot;origPos&quot;:null}" fill="#6c4343"><path d="M36.21214,101.01468c0,-6.47743 5.25098,-11.72843 11.72841,-11.72843c6.47743,0 11.72841,5.25098 11.72841,11.72843c0,6.47743 -5.25098,11.72843 -11.72841,11.72843c-6.47743,0 -11.72841,-5.25099 -11.72841,-11.72843z" data-paper-data="{&quot;origPos&quot;:null}"/><path d="M47.94059,89.28631c6.47741,0 11.72841,5.25102 11.72841,11.72843c0,6.47741 -5.25101,11.72841 -11.72841,11.72841c-6.47741,0 -6.47741,-23.45684 0,-23.45684z" data-paper-data="{&quot;origPos&quot;:null}"/></g><g data-paper-data="{&quot;origPos&quot;:null}"><path d="M34.29295,99.73522c0,-6.47743 5.25098,-11.72843 11.72841,-11.72843c6.47743,0 11.72841,5.25098 11.72841,11.72843c0,6.47743 -5.25098,11.72843 -11.72841,11.72843c-6.47743,0 -11.72841,-5.25099 -11.72841,-11.72843z" data-paper-data="{&quot;origPos&quot;:null}" fill="#c76e6e"/><path d="M46.02137,88.00685c6.47741,0 11.72841,5.25102 11.72841,11.72843c0,6.47741 -5.25101,11.72841 -11.72841,11.72841c-6.47741,0 -6.47741,-23.45684 0,-23.45684z" data-paper-data="{&quot;origPos&quot;:null}" fill="#c76262"/></g></g><g data-paper-data="{&quot;origPos&quot;:null}" fill="#8eb480" stroke="none" stroke-width="0"><path d="M16.59484,251.4573c0,0 4.1151,3.36743 2.34727,-15.36771c-1.4387,-15.24704 -6.62802,-31.10384 -6.62802,-31.10384c0,0 5.63109,4.17553 11.13277,19.27965c6.51573,17.88816 8.69495,24.92449 8.69495,24.92449z" data-paper-data="{&quot;origPos&quot;:null,&quot;origRot&quot;:0,&quot;index&quot;:null}"/><path d="M23.03949,247.40217c0,0 1.55019,-4.18834 6.18512,-14.83618c3.9136,-8.99065 7.91924,-11.47611 7.91924,-11.47611c0,0 -3.69139,9.43868 -4.71481,18.5144c-1.25753,11.152 1.66972,9.14756 1.66972,9.14756z" data-paper-data="{&quot;origPos&quot;:null,&quot;origRot&quot;:0,&quot;index&quot;:null}"/></g><g data-paper-data="{&quot;origPos&quot;:null,&quot;origRot&quot;:0,&quot;index&quot;:null}" fill="#8db27e" stroke="none" stroke-width="0"><path d="M13.02544,100.67881c0,0 10.24341,-15.74181 20.25811,-17.62206c7.14762,-1.34197 23.71821,9.36554 23.71821,9.36554z"/><path d="M57.11636,92.21096c0,0 -10.24341,15.74181 -20.25811,17.62206c-7.14761,1.34197 -23.71819,-9.36556 -23.71819,-9.36556z" data-paper-data="{&quot;index&quot;:null,&quot;origPos&quot;:null}"/></g><path d="M-65.99998,66.80002v-7h14v7z" data-paper-data="{&quot;origPos&quot;:null}" fill="#9dc78d" stroke="none" stroke-width="0"/><path d="M-39.99998,135.80002v-21h16v21z" data-paper-data="{&quot;origPos&quot;:null}" fill="#9dc78d" stroke="none" stroke-width="0"/><g data-paper-data="{&quot;origPos&quot;:null}" stroke="none" stroke-width="0.5"><path d="M-55.0567,75.18206c0,-5.03845 4.08446,-9.12292 9.12291,-9.12292c5.03845,0 9.12291,4.08446 9.12291,9.12292c0,5.03845 -4.08446,9.12292 -9.12291,9.12292c-5.03845,0 -9.12291,-4.08447 -9.12291,-9.12292z" data-paper-data="{&quot;origPos&quot;:null}" fill="#6c4343"/><path d="M-45.93377,66.05912c5.03844,0 9.12291,4.08449 9.12291,9.12292c0,5.03843 -4.08448,9.12291 -9.12291,9.12291c-5.03843,0 -5.03843,-18.24584 0,-18.24584z" data-paper-data="{&quot;origPos&quot;:null}" fill="#6c4343"/><path d="M-56.54954,74.18684c0,-5.03845 4.08446,-9.12292 9.12291,-9.12292c5.03845,0 9.12291,4.08446 9.12291,9.12292c0,5.03845 -4.08446,9.12292 -9.12291,9.12292c-5.03845,0 -9.12291,-4.08447 -9.12291,-9.12292z" data-paper-data="{&quot;origPos&quot;:null}" fill="#c76e6e"/><path d="M-47.42661,65.06392c5.03844,0 9.12291,4.08449 9.12291,9.12292c0,5.03843 -4.08448,9.12291 -9.12291,9.12291c-5.03843,0 -5.03843,-18.24584 0,-18.24584z" data-paper-data="{&quot;origPos&quot;:null}" fill="#c76262"/></g><g data-paper-data="{&quot;origPos&quot;:null}" stroke="none" stroke-width="0.5"><path d="M17.9433,48.18205c0,-5.03845 4.08446,-9.12292 9.12291,-9.12292c5.03845,0 9.12291,4.08446 9.12291,9.12292c0,5.03845 -4.08446,9.12292 -9.12291,9.12292c-5.03845,0 -9.12291,-4.08447 -9.12291,-9.12292z" data-paper-data="{&quot;origPos&quot;:null}" fill="#6c4343"/><path d="M27.06623,39.05915c5.03844,0 9.12291,4.08449 9.12291,9.12292c0,5.03843 -4.08448,9.12291 -9.12291,9.12291c-5.03843,0 -5.03843,-18.24584 0,-18.24584z" data-paper-data="{&quot;origPos&quot;:null}" fill="#6c4343"/><path d="M16.45046,47.18683c0,-5.03845 4.08446,-9.12292 9.12291,-9.12292c5.03845,0 9.12291,4.08446 9.12291,9.12292c0,5.03845 -4.08446,9.12292 -9.12291,9.12292c-5.03845,0 -9.12291,-4.08447 -9.12291,-9.12292z" data-paper-data="{&quot;origPos&quot;:null}" fill="#c76e6e"/><path d="M25.57339,38.0639c5.03844,0 9.12291,4.08449 9.12291,9.12292c0,5.03843 -4.08448,9.12291 -9.12291,9.12291c-5.03843,0 -5.03843,-18.24584 0,-18.24584z" data-paper-data="{&quot;origPos&quot;:null}" fill="#c76262"/></g><g data-paper-data="{&quot;origPos&quot;:null}" stroke="none" stroke-width="0.5"><path d="M-7.0567,123.18196c0,-5.03845 4.08446,-9.12292 9.12291,-9.12292c5.03845,0 9.12291,4.08446 9.12291,9.12292c0,5.03845 -4.08446,9.12292 -9.12291,9.12292c-5.03845,0 -9.12291,-4.08447 -9.12291,-9.12292z" data-paper-data="{&quot;origPos&quot;:null}" fill="#6c4343"/><path d="M2.06623,114.05916c5.03844,0 9.12291,4.08449 9.12291,9.12292c0,5.03843 -4.08448,9.12291 -9.12291,9.12291c-5.03843,0 -5.03843,-18.24584 0,-18.24584z" data-paper-data="{&quot;origPos&quot;:null}" fill="#6c4343"/><path d="M-8.54954,122.18678c0,-5.03845 4.08446,-9.12292 9.12291,-9.12292c5.03845,0 9.12291,4.08446 9.12291,9.12292c0,5.03845 -4.08446,9.12292 -9.12291,9.12292c-5.03845,0 -9.12291,-4.08447 -9.12291,-9.12292z" data-paper-data="{&quot;origPos&quot;:null}" fill="#c76e6e"/><path d="M0.57339,113.06393c5.03844,0 9.12291,4.08449 9.12291,9.12292c0,5.03843 -4.08448,9.12291 -9.12291,9.12291c-5.03843,0 -5.03843,-18.24584 0,-18.24584z" data-paper-data="{&quot;origPos&quot;:null}" fill="#c76262"/></g><g data-paper-data="{&quot;origPos&quot;:null}" fill="#6c4343" stroke="none" stroke-width="0.5"><path d="M-103.78787,244.01471c0,-6.47743 5.25098,-11.72843 11.72841,-11.72843c6.47743,0 11.72841,5.25098 11.72841,11.72843c0,6.47743 -5.25098,11.72843 -11.72841,11.72843c-6.47743,0 -11.72841,-5.25099 -11.72841,-11.72843z" data-paper-data="{&quot;origPos&quot;:null}"/><path d="M-92.05941,232.28634c6.47741,0 11.72841,5.25102 11.72841,11.72843c0,6.47741 -5.25101,11.72841 -11.72841,11.72841c-6.47741,0 -6.47741,-23.45684 0,-23.45684z" data-paper-data="{&quot;origPos&quot;:null}"/></g><g data-paper-data="{&quot;origPos&quot;:null}" stroke="none" stroke-width="0.5"><path d="M-105.70704,242.73524c0,-6.47743 5.25098,-11.72843 11.72841,-11.72843c6.47743,0 11.72841,5.25098 11.72841,11.72843c0,6.47743 -5.25098,11.72843 -11.72841,11.72843c-6.47743,0 -11.72841,-5.25099 -11.72841,-11.72843z" data-paper-data="{&quot;origPos&quot;:null}" fill="#c76e6e"/><path d="M-93.97862,231.00688c6.47741,0 11.72841,5.25102 11.72841,11.72843c0,6.47741 -5.25101,11.72841 -11.72841,11.72841c-6.47741,0 -6.47741,-23.45684 0,-23.45684z" data-paper-data="{&quot;origPos&quot;:null}" fill="#c76262"/></g><g data-paper-data="{&quot;origPos&quot;:null}" stroke="none" stroke-width="0.5"><g data-paper-data="{&quot;origPos&quot;:null}" fill="#6c4343"><path d="M-91.78787,236.01468c0,-6.47743 5.25098,-11.72843 11.72841,-11.72843c6.47743,0 11.72841,5.25098 11.72841,11.72843c0,6.47743 -5.25098,11.72843 -11.72841,11.72843c-6.47743,0 -11.72841,-5.25099 -11.72841,-11.72843z" data-paper-data="{&quot;origPos&quot;:null}"/><path d="M-80.05941,224.28634c6.47741,0 11.72841,5.25102 11.72841,11.72843c0,6.47741 -5.25101,11.72841 -11.72841,11.72841c-6.47741,0 -6.47741,-23.45684 0,-23.45684z" data-paper-data="{&quot;origPos&quot;:null}"/></g><g data-paper-data="{&quot;origPos&quot;:null}"><path d="M-93.70704,234.73525c0,-6.47743 5.25098,-11.72843 11.72841,-11.72843c6.47743,0 11.72841,5.25098 11.72841,11.72843c0,6.47743 -5.25098,11.72843 -11.72841,11.72843c-6.47743,0 -11.72841,-5.25099 -11.72841,-11.72843z" data-paper-data="{&quot;origPos&quot;:null}" fill="#c76e6e"/><path d="M-81.97861,223.00688c6.47741,0 11.72841,5.25102 11.72841,11.72843c0,6.47741 -5.25101,11.72841 -11.72841,11.72841c-6.47741,0 -6.47741,-23.45684 0,-23.45684z" data-paper-data="{&quot;origPos&quot;:null}" fill="#c76262"/></g></g><g data-paper-data="{&quot;origPos&quot;:null,&quot;origRot&quot;:0}" fill="#6c4343" stroke="none" stroke-width="0.5"><path d="M64.78031,248.16052c-5.49944,3.42247 -12.73207,1.73877 -16.15454,-3.76067c-3.42247,-5.49944 -1.73876,-12.73205 3.7607,-16.15453c5.49944,-3.42247 12.73207,-1.73877 16.15454,3.76067c3.42247,5.49944 1.73875,12.73206 -3.7607,16.15453z" data-paper-data="{&quot;origPos&quot;:null}"/><path d="M48.62579,244.39978c-3.42246,-5.49942 -1.73872,-12.73207 3.7607,-16.15453c5.49942,-3.42246 12.73207,-1.73873 16.15452,3.76068c3.42246,5.49942 -16.49276,17.89327 -19.91521,12.39385z" data-paper-data="{&quot;origPos&quot;:null}"/></g><g data-paper-data="{&quot;origPos&quot;:null,&quot;origRot&quot;:0,&quot;index&quot;:null}" stroke="none" stroke-width="0.5"><path d="M68.46873,246.70527c-3.42247,5.49944 -10.6551,7.18314 -16.15454,3.76067c-5.49945,-3.42248 -7.18316,-10.65509 -3.7607,-16.15453c3.42247,-5.49944 10.6551,-7.18314 16.15454,-3.76067c5.49945,3.42247 7.18316,10.65509 3.7607,16.15453z" data-paper-data="{&quot;origPos&quot;:null}" fill="#c76e6e"/><path d="M68.46878,246.7053c-3.42245,5.49941 -10.6551,7.18314 -16.15452,3.76068c-5.49942,-3.42246 -7.18315,-10.65511 -3.7607,-16.15453c3.42246,-5.49942 23.33767,6.89443 19.91521,12.39385z" data-paper-data="{&quot;origPos&quot;:null}" fill="#c76262"/></g><g data-paper-data="{&quot;origPos&quot;:null,&quot;origRot&quot;:0,&quot;index&quot;:null}" stroke="none" stroke-width="0.5"><g data-paper-data="{&quot;origPos&quot;:null}" fill="#6c4343"><path d="M55.40844,240.74398c-3.42247,5.49944 -10.6551,7.18314 -16.15454,3.76067c-5.49945,-3.42248 -7.18316,-10.65509 -3.7607,-16.15453c3.42247,-5.49944 10.6551,-7.18314 16.15454,-3.76067c5.49945,3.42247 7.18316,10.65509 3.7607,16.15453z" data-paper-data="{&quot;origPos&quot;:null}"/><path d="M55.40846,240.74406c-3.42245,5.49941 -10.6551,7.18314 -16.15452,3.76068c-5.49942,-3.42246 -7.18315,-10.65511 -3.7607,-16.15453c3.42246,-5.49942 23.33767,6.89443 19.91521,12.39385z" data-paper-data="{&quot;origPos&quot;:null}"/></g><g data-paper-data="{&quot;origPos&quot;:null}"><path d="M55.3362,238.43856c-3.42247,5.49944 -10.6551,7.18314 -16.15454,3.76067c-5.49945,-3.42248 -7.18316,-10.65509 -3.7607,-16.15453c3.42247,-5.49944 10.6551,-7.18314 16.15454,-3.76067c5.49945,3.42247 7.18316,10.65509 3.7607,16.15453z" data-paper-data="{&quot;origPos&quot;:null}" fill="#c76e6e"/><path d="M55.33622,238.4386c-3.42245,5.49941 -10.6551,7.18314 -16.15452,3.76068c-5.49942,-3.42246 -7.18315,-10.65511 -3.7607,-16.15453c3.42246,-5.49942 23.33767,6.89443 19.91521,12.39385z" data-paper-data="{&quot;origPos&quot;:null}" fill="#c76262"/></g></g><g data-paper-data="{&quot;origPos&quot;:null,&quot;index&quot;:null}" fill="#8eb480" stroke="none" stroke-width="0"><path d="M64.59488,251.45726c0,0 4.1151,3.36743 2.34727,-15.36771c-1.4387,-15.24704 -6.62802,-31.10384 -6.62802,-31.10384c0,0 5.63109,4.17553 11.13277,19.27965c6.51573,17.88816 8.69495,24.92449 8.69495,24.92449z" data-paper-data="{&quot;origPos&quot;:null,&quot;origRot&quot;:0,&quot;index&quot;:null}"/><path d="M71.03954,247.40217c0,0 1.55019,-4.18834 6.18512,-14.83618c3.9136,-8.99065 7.91924,-11.47611 7.91924,-11.47611c0,0 -3.69139,9.43868 -4.71481,18.5144c-1.25753,11.152 1.66972,9.14756 1.66972,9.14756z" data-paper-data="{&quot;origPos&quot;:null,&quot;origRot&quot;:0,&quot;index&quot;:null}"/></g></g><path d="M75.47641,227.56839c-0.473,-2.29331 -2.27857,-11.04761 -3.73697,-18.11864c-0.35475,-1.71998 1.23381,-3.82814 2.47601,-4.08435c3.72662,-0.76862 36.97182,-7.62544 36.97182,-7.62544l4.84796,23.50526c0,0 -33.16155,6.83957 -37.46151,7.72644c-1.43332,0.29562 -2.93964,-0.63885 -3.09731,-1.40328z" data-paper-data="{&quot;origPos&quot;:null}" fill="#36312b" stroke="none" stroke-width="0" stroke-linecap="butt"/><path d="M103.22976,218.80216l6.05995,29.38158l-13.7114,2.82798l-6.05995,-29.38158z" data-paper-data="{&quot;origPos&quot;:null,&quot;index&quot;:null}" fill="#585146" stroke="none" stroke-width="0" stroke-linecap="butt"/><path d="M102.62377,215.86401l1.71699,8.32478l-13.7114,2.82798l-1.71699,-8.32478z" data-paper-data="{&quot;origPos&quot;:null,&quot;index&quot;:null}" fill="#3d3831" stroke="none" stroke-width="0" stroke-linecap="butt"/><path d="M75.47641,226.56839c-0.473,-2.29331 -2.27857,-11.04761 -3.73697,-18.11864c-0.35475,-1.71998 1.23381,-3.82814 2.47601,-4.08435c3.72662,-0.76862 36.97182,-7.62544 36.97182,-7.62544l17.60446,8.62166l-12.7565,14.8836c0,0 -33.16155,6.83957 -37.46151,7.72644c-1.43332,0.29562 -2.93964,-0.63885 -3.09731,-1.40328z" data-paper-data="{&quot;origPos&quot;:null}" fill="#817666" stroke="none" stroke-width="0" stroke-linecap="butt"/><path d="M75.47641,226.56839c-0.473,-2.29331 -2.27857,-11.04761 -3.73697,-18.11864c-0.35475,-1.71998 1.23381,-3.82814 2.47601,-4.08435c3.72662,-0.76862 36.97182,-7.62544 36.97182,-7.62544l4.84796,23.50526c0,0 -33.16155,6.83957 -37.46151,7.72644c-1.43332,0.29562 -2.93964,-0.63885 -3.09731,-1.40328z" data-paper-data="{&quot;origPos&quot;:null}" fill="#776d5e" stroke="none" stroke-width="0" stroke-linecap="butt"/><path d="M85.87325,218.80828l-6.27113,-15.55387l5.87632,-1.21199z" data-paper-data="{&quot;origPos&quot;:null}" fill="#585146" stroke="none" stroke-width="0" stroke-linecap="butt"/><path d="M94.75349,219.78462l-6.1737,-18.38185l4.57047,-0.94266z" data-paper-data="{&quot;origPos&quot;:null}" fill="#585146" stroke="none" stroke-width="0" stroke-linecap="butt"/><path d="M104.26426,211.44146l-5.56414,-12.12602l5.87632,-1.21199z" data-paper-data="{&quot;origPos&quot;:null}" fill="#585146" stroke="none" stroke-width="0" stroke-linecap="butt"/><path d="M98.14002,204.02568l6.17371,18.38185l-4.57047,0.94266z" data-paper-data="{&quot;origPos&quot;:null,&quot;index&quot;:null}" fill="#585146" stroke="none" stroke-width="0" stroke-linecap="butt"/><path d="M240.51148,215.5912c0,0 5.0182,-8.11328 14.78945,-28.73932c8.25054,-17.41588 11.44477,-21.88185 11.44477,-21.88185c0,0 -3.69845,22.11895 -5.85598,39.69963c-2.65114,21.60266 2.93668,13.53596 2.93668,13.53596z" data-paper-data="{&quot;origPos&quot;:null,&quot;origRot&quot;:0}" fill="#8eb480" stroke="none" stroke-width="0" stroke-linecap="butt"/><path d="M243.13615,215.14938c0,0 1.84177,9.87016 3.79358,-15.3342c1.58842,-20.51182 3.03674,-46.4167 3.03674,-46.4167c0,0 1.07593,5.47445 2.92024,26.40368c2.18422,24.78696 3.70013,34.6541 3.70013,34.6541z" data-paper-data="{&quot;origPos&quot;:null}" fill="#8eb480" stroke="none" stroke-width="0" stroke-linecap="butt"/><path d="M243.69804,217.36459c0,0 3.85835,9.03101 0.45482,-15.95964c-2.76986,-20.33788 -6.80845,-45.86143 -6.80845,-45.86143c0,0 2.19273,4.99325 8.37684,24.74054c7.32394,23.38718 10.86587,32.5097 10.86587,32.5097z" data-paper-data="{&quot;origPos&quot;:null,&quot;origRot&quot;:0}" fill="#8eb480" stroke="none" stroke-width="0" stroke-linecap="butt"/><g data-paper-data="{&quot;origPos&quot;:null}" fill="#8eb480" stroke="none" stroke-width="0" stroke-linecap="butt"><path d="M234.02109,212.05653c0,0 4.77733,-7.68571 4.6348,-16.44525c-0.29758,-18.28923 -5.7625,-52.86389 -5.7625,-52.86389c0,0 8.83308,27.17782 11.83664,40.10085c3.69067,15.87944 4.72502,30.64499 4.72502,30.64499z" data-paper-data="{&quot;origPos&quot;:null}"/><path d="M228.98402,216.13099c0,0 4.18071,2.86275 2.3847,-13.06455c-1.46164,-12.96196 -6.7337,-26.44229 -6.7337,-26.44229c0,0 5.72089,3.54975 11.31028,16.3902c6.61962,15.20724 8.8336,21.18904 8.8336,21.18904z" data-paper-data="{&quot;origPos&quot;:null,&quot;origRot&quot;:0}"/></g><path d="M267.41933,222.20562c0,0 5.58782,8.0667 2.93668,-13.53596c-2.15753,-17.58068 -5.85598,-39.69963 -5.85598,-39.69963c0,0 3.19423,4.46597 11.44477,21.88185c9.77125,20.62604 14.78945,28.73932 14.78945,28.73932z" data-paper-data="{&quot;origPos&quot;:null,&quot;origRot&quot;:0,&quot;index&quot;:null}" fill="#8eb480" stroke="none" stroke-width="0" stroke-linecap="butt"/><path d="M274.65885,218.45626c0,0 1.51591,-9.86714 3.70013,-34.6541c1.84431,-20.92923 2.92024,-26.40368 2.92024,-26.40368c0,0 1.44832,25.90488 3.03674,46.4167c1.95181,25.20436 3.79358,15.3342 3.79358,15.3342z" data-paper-data="{&quot;origPos&quot;:null,&quot;index&quot;:null}" fill="#8eb480" stroke="none" stroke-width="0" stroke-linecap="butt"/><path d="M274.65858,216.79376c0,0 3.54193,-9.12252 10.86587,-32.5097c6.18411,-19.74729 8.37684,-24.74054 8.37684,-24.74054c0,0 -4.03859,25.52355 -6.80845,45.86143c-3.40353,24.99065 0.45482,15.95964 0.45482,15.95964z" data-paper-data="{&quot;origPos&quot;:null,&quot;origRot&quot;:0,&quot;index&quot;:null}" fill="#8eb480" stroke="none" stroke-width="0" stroke-linecap="butt"/><path d="M329.51147,213.5912c0,0 5.0182,-8.11328 14.78945,-28.73932c8.25054,-17.41588 11.44477,-21.88185 11.44477,-21.88185c0,0 -3.69845,22.11895 -5.85598,39.69963c-2.65114,21.60266 2.93668,13.53596 2.93668,13.53596z" data-paper-data="{&quot;origPos&quot;:null,&quot;origRot&quot;:0}" fill="#86aa79" stroke="none" stroke-width="0" stroke-linecap="butt"/><path d="M332.13617,213.14938c0,0 1.84177,9.87016 3.79358,-15.3342c1.58842,-20.51182 3.03674,-46.4167 3.03674,-46.4167c0,0 1.07593,5.47445 2.92024,26.40368c2.18422,24.78696 3.70013,34.6541 3.70013,34.6541z" data-paper-data="{&quot;origPos&quot;:null}" fill="#86aa79" stroke="none" stroke-width="0" stroke-linecap="butt"/><path d="M332.69804,215.36459c0,0 3.85835,9.03101 0.45482,-15.95964c-2.76986,-20.33788 -6.80845,-45.86143 -6.80845,-45.86143c0,0 2.19273,4.99325 8.37684,24.74054c7.32394,23.38718 10.86587,32.5097 10.86587,32.5097z" data-paper-data="{&quot;origPos&quot;:null,&quot;origRot&quot;:0}" fill="#86aa79" stroke="none" stroke-width="0" stroke-linecap="butt"/><path d="M356.41933,220.20562c0,0 5.58782,8.0667 2.93668,-13.53596c-2.15753,-17.58068 -5.85598,-39.69963 -5.85598,-39.69963c0,0 3.19423,4.46597 11.44477,21.88185c9.77125,20.62604 14.78945,28.73932 14.78945,28.73932z" data-paper-data="{&quot;origPos&quot;:null,&quot;origRot&quot;:0,&quot;index&quot;:null}" fill="#86aa79" stroke="none" stroke-width="0" stroke-linecap="butt"/><path d="M363.65885,216.45626c0,0 1.51591,-9.86714 3.70013,-34.6541c1.84431,-20.92923 2.92024,-26.40368 2.92024,-26.40368c0,0 1.44832,25.90488 3.03674,46.4167c1.95181,25.20436 3.79358,15.3342 3.79358,15.3342z" data-paper-data="{&quot;origPos&quot;:null,&quot;index&quot;:null}" fill="#86aa79" stroke="none" stroke-width="0" stroke-linecap="butt"/><path d="M363.65858,214.79376c0,0 3.54193,-9.12252 10.86587,-32.5097c6.18411,-19.74729 8.37684,-24.74054 8.37684,-24.74054c0,0 -4.03859,25.52355 -6.80845,45.86143c-3.40353,24.99065 0.45482,15.95964 0.45482,15.95964z" data-paper-data="{&quot;origPos&quot;:null,&quot;origRot&quot;:0,&quot;index&quot;:null}" fill="#86aa79" stroke="none" stroke-width="0" stroke-linecap="butt"/><g data-paper-data="{&quot;origPos&quot;:null,&quot;index&quot;:null}" fill="#86aa79" stroke="none" stroke-width="0" stroke-linecap="butt"><path d="M370.79065,215.49323c0,0 1.03435,-14.76555 4.72502,-30.64499c3.00356,-12.92303 11.83664,-40.10085 11.83664,-40.10085c0,0 -5.46492,34.57466 -5.7625,52.86389c-0.14253,8.75954 4.6348,16.44525 4.6348,16.44525z" data-paper-data="{&quot;origPos&quot;:null}"/><path d="M375.46681,216.20339c0,0 2.21398,-5.9818 8.8336,-21.18904c5.58939,-12.84045 11.31028,-16.3902 11.31028,-16.3902c0,0 -5.27206,13.48033 -6.7337,26.44229c-1.79601,15.9273 2.3847,13.06455 2.3847,13.06455z" data-paper-data="{&quot;origPos&quot;:null,&quot;origRot&quot;:0}"/></g><g data-paper-data="{&quot;origPos&quot;:null,&quot;index&quot;:null}" fill="#8eb480" stroke="none" stroke-width="0" stroke-linecap="butt"><path d="M400.17673,207.05653c0,0 4.77733,-7.68571 4.6348,-16.44525c-0.29758,-18.28923 -5.7625,-52.86389 -5.7625,-52.86389c0,0 8.83308,27.17782 11.83664,40.10085c3.69067,15.87944 4.72502,30.64499 4.72502,30.64499z" data-paper-data="{&quot;origPos&quot;:null}"/><path d="M395.13965,211.13099c0,0 4.18071,2.86275 2.3847,-13.06455c-1.46164,-12.96196 -6.7337,-26.44229 -6.7337,-26.44229c0,0 5.72089,3.54975 11.31028,16.3902c6.61962,15.20724 8.8336,21.18904 8.8336,21.18904z" data-paper-data="{&quot;origPos&quot;:null,&quot;origRot&quot;:0}"/></g><path d="M128.38769,65.62759c-1.17426,0 -2.21963,-0.26635 -3.13612,-0.79907c-0.9165,-0.53844 -1.63537,-1.2659 -2.15662,-2.1824c-0.51553,-0.9165 -0.77329,-1.95327 -0.77329,-3.11035c0,-1.18571 0.2549,-2.23968 0.7647,-3.1619c0.51553,-0.92795 1.22008,-1.65255 2.11366,-2.17381c0.89358,-0.52126 1.91891,-0.78188 3.07598,-0.78188c0.87067,0 1.66401,0.16611 2.38002,0.49834c0.71601,0.33223 1.36042,0.82771 1.93323,1.48644c0.20621,0.23485 0.28068,0.47829 0.2234,0.73033c-0.05728,0.24631 -0.21767,0.46397 -0.48116,0.653c-0.20621,0.14893 -0.43534,0.19762 -0.68737,0.14607c-0.24631,-0.05155 -0.47256,-0.18043 -0.67878,-0.38664c-0.72174,-0.76184 -1.61818,-1.14275 -2.68933,-1.14275c-0.74465,0 -1.40338,0.17184 -1.97619,0.51553c-0.57281,0.34369 -1.0196,0.82484 -1.34037,1.44348c-0.32077,0.6129 -0.48116,1.33751 -0.48116,2.17381c0,0.79048 0.16325,1.49503 0.48975,2.11366c0.33223,0.6129 0.79048,1.09979 1.37474,1.46066c0.58999,0.36087 1.27163,0.54131 2.04493,0.54131c0.51553,0 0.96805,-0.06301 1.35756,-0.18903c0.38951,-0.12602 0.74465,-0.32077 1.06542,-0.58426c0.23485,-0.18903 0.47543,-0.295 0.72174,-0.31791c0.25203,-0.02291 0.47257,0.04582 0.6616,0.20621c0.25203,0.20621 0.39237,0.4382 0.42102,0.69597c0.02864,0.25776 -0.06014,0.48975 -0.26635,0.69597c-1.05397,0.9795 -2.37429,1.46926 -3.96097,1.46926zM146.31568,65.56744c-0.32077,0 -0.58713,-0.10597 -0.79907,-0.31791c-0.21194,-0.21767 -0.31791,-0.48689 -0.31791,-0.80766v-5.41304c0,-0.8363 -0.15466,-1.51794 -0.46397,-2.04493c-0.30932,-0.52698 -0.7246,-0.91935 -1.24586,-1.17712c-0.52126,-0.25776 -1.11698,-0.38664 -1.78716,-0.38664c-0.61863,0 -1.17712,0.12602 -1.67546,0.37805c-0.49834,0.24631 -0.89358,0.57853 -1.18571,0.99669c-0.29213,0.41815 -0.4382,0.89931 -0.4382,1.44348h-1.39194c0,-0.92222 0.2234,-1.74706 0.67019,-2.47453c0.4468,-0.72747 1.0597,-1.30314 1.83873,-1.72701c0.77902,-0.42388 1.65255,-0.63582 2.6206,-0.63582c1.00814,0 1.91032,0.21767 2.70652,0.653c0.80193,0.42961 1.43489,1.06256 1.89886,1.89886c0.46397,0.8363 0.69597,1.86163 0.69597,3.07598v5.41304c0,0.32077 -0.10884,0.58999 -0.3265,0.80766c-0.21194,0.21194 -0.47829,0.31791 -0.79907,0.31791zM137.27675,65.56744c-0.32077,0 -0.58999,-0.10597 -0.80766,-0.31791c-0.21194,-0.21767 -0.31791,-0.48689 -0.31791,-0.80766v-9.81221c0,-0.33796 0.10597,-0.60718 0.31791,-0.80766c0.21767,-0.20621 0.48689,-0.30932 0.80766,-0.30932c0.33796,0 0.61004,0.10311 0.81626,0.30932c0.20621,0.20048 0.30932,0.4697 0.30932,0.80766v9.81221c0,0.32077 -0.10311,0.58999 -0.30932,0.80766c-0.20622,0.21194 -0.47831,0.31791 -0.81626,0.31791zM137.27675,61.16827c-0.32077,0 -0.58999,-0.10597 -0.80766,-0.31791c-0.21194,-0.21767 -0.31791,-0.48689 -0.31791,-0.80766v-10.55972c0,-0.33796 0.10597,-0.60718 0.31791,-0.80766c0.21767,-0.20621 0.48689,-0.30932 0.80766,-0.30932c0.33796,0 0.61004,0.10311 0.81626,0.30932c0.20621,0.20048 0.30932,0.4697 0.30932,0.80766v10.55972c0,0.32077 -0.10311,0.58999 -0.30932,0.80766c-0.20622,0.21194 -0.47831,0.31791 -0.81626,0.31791zM156.82795,65.62759c-1.21435,0 -2.2941,-0.26063 -3.23923,-0.78188c-0.94513,-0.52126 -1.68692,-1.24013 -2.22536,-2.15662c-0.53271,-0.9165 -0.79907,-1.96759 -0.79907,-3.15331c0,-1.2029 0.25203,-2.26259 0.75611,-3.17909c0.50407,-0.9165 1.2029,-1.63537 2.09648,-2.15662c0.89931,-0.52126 1.9275,-0.78188 3.08458,-0.78188c1.14562,0 2.12798,0.2549 2.9471,0.7647c0.81911,0.50407 1.44348,1.20003 1.87308,2.08789c0.43534,0.88785 0.653,1.91032 0.653,3.06739c0,0.28068 -0.09451,0.51266 -0.28354,0.69597c-0.18903,0.1833 -0.42961,0.27495 -0.72174,0.27495h-8.86707v-1.76138h8.79834l-0.90217,0.61863c-0.01718,-0.73319 -0.16611,-1.38906 -0.44679,-1.96759c-0.27495,-0.58426 -0.67019,-1.04251 -1.18571,-1.37474c-0.5098,-0.33796 -1.1313,-0.50693 -1.86449,-0.50693c-0.8363,0 -1.55231,0.1833 -2.14803,0.5499c-0.58999,0.3666 -1.03964,0.86781 -1.34896,1.50362c-0.30932,0.63582 -0.46397,1.35756 -0.46397,2.16522c0,0.80766 0.1833,1.52653 0.5499,2.15663c0.3666,0.63009 0.87067,1.12843 1.51221,1.49503c0.64727,0.3666 1.38906,0.5499 2.22536,0.5499c0.45824,0 0.92508,-0.08306 1.40052,-0.24917c0.47543,-0.17184 0.85921,-0.3666 1.15134,-0.58426c0.2234,-0.16039 0.46111,-0.24344 0.71315,-0.24917c0.25776,-0.01145 0.48402,0.06301 0.67878,0.2234c0.24631,0.2234 0.37519,0.46684 0.38665,0.73033c0.01718,0.26349 -0.09738,0.48975 -0.34369,0.67878c-0.49834,0.39524 -1.11984,0.71887 -1.86449,0.97091c-0.73892,0.24631 -1.44634,0.36946 -2.12225,0.36946zM169.84984,65.62759c-1.17426,0 -2.21963,-0.26635 -3.13612,-0.79907c-0.9165,-0.53844 -1.63537,-1.2659 -2.15662,-2.1824c-0.51553,-0.9165 -0.77329,-1.95327 -0.77329,-3.11035c0,-1.18571 0.2549,-2.23968 0.7647,-3.1619c0.51553,-0.92795 1.22008,-1.65255 2.11366,-2.17381c0.89358,-0.52126 1.91891,-0.78188 3.07598,-0.78188c0.87067,0 1.66401,0.16611 2.38002,0.49834c0.71601,0.33223 1.36042,0.82771 1.93323,1.48644c0.20621,0.23485 0.28068,0.47829 0.2234,0.73033c-0.05728,0.24631 -0.21767,0.46397 -0.48116,0.653c-0.20621,0.14893 -0.43534,0.19762 -0.68737,0.14607c-0.24631,-0.05155 -0.47256,-0.18043 -0.67878,-0.38664c-0.72174,-0.76184 -1.61818,-1.14275 -2.68933,-1.14275c-0.74465,0 -1.40338,0.17184 -1.97619,0.51553c-0.57281,0.34369 -1.0196,0.82484 -1.34037,1.44348c-0.32077,0.6129 -0.48116,1.33751 -0.48116,2.17381c0,0.79048 0.16325,1.49503 0.48975,2.11366c0.33223,0.6129 0.79048,1.09979 1.37474,1.46066c0.58999,0.36087 1.27163,0.54131 2.04493,0.54131c0.51553,0 0.96805,-0.06301 1.35756,-0.18903c0.38951,-0.12602 0.74465,-0.32077 1.06542,-0.58426c0.23485,-0.18903 0.47543,-0.295 0.72174,-0.31791c0.25203,-0.02291 0.47257,0.04582 0.6616,0.20621c0.25203,0.20621 0.39237,0.4382 0.42102,0.69597c0.02864,0.25776 -0.06014,0.48975 -0.26635,0.69597c-1.05397,0.9795 -2.37429,1.46926 -3.96097,1.46926zM179.72699,61.1425l-1.36615,-1.49503l6.75341,-6.03167c0.2234,-0.20048 0.4697,-0.29213 0.73892,-0.27495c0.26922,0.01145 0.50121,0.12602 0.69597,0.34369c0.20621,0.2234 0.30073,0.46684 0.28354,0.73033c-0.01718,0.26349 -0.13461,0.49834 -0.35227,0.70455zM178.69593,65.54166c-0.32077,0 -0.5814,-0.09738 -0.78188,-0.29213c-0.20048,-0.20048 -0.30072,-0.46111 -0.30072,-0.78188v-15.02763c0,-0.32077 0.10024,-0.57853 0.30073,-0.77329c0.20048,-0.20048 0.46111,-0.30072 0.78189,-0.30072c0.32077,0 0.57853,0.10024 0.77329,0.30073c0.20048,0.19476 0.30073,0.45252 0.30073,0.77329v15.02763c0,0.32077 -0.10024,0.5814 -0.30072,0.78189c-0.19476,0.19476 -0.45252,0.29213 -0.77329,0.29213zM186.54913,65.42997c-0.23485,0.18903 -0.49548,0.27208 -0.78188,0.24917c-0.2864,-0.01718 -0.52412,-0.1432 -0.71314,-0.37805l-4.46791,-5.52473l1.53799,-1.45207l4.57961,5.63644c0.18903,0.23485 0.27208,0.48689 0.24917,0.75611c-0.02291,0.26922 -0.15752,0.50694 -0.40383,0.71315zM191.25451,70.68835c-0.32077,0 -0.58999,-0.10597 -0.80766,-0.31791c-0.21194,-0.21194 -0.31791,-0.48116 -0.31791,-0.80766v-10.02701c0.01718,-1.15707 0.28927,-2.19672 0.81625,-3.11894c0.52698,-0.92795 1.24586,-1.65828 2.15663,-2.19099c0.91077,-0.53844 1.93609,-0.80766 3.07598,-0.80766c1.1628,0 2.19672,0.26922 3.10176,0.80766c0.91077,0.53271 1.6325,1.26305 2.16522,2.191c0.53844,0.92222 0.80766,1.96187 0.80766,3.11894c0,1.15707 -0.24631,2.19385 -0.73892,3.11035c-0.49261,0.9165 -1.16566,1.64396 -2.01915,2.1824c-0.84776,0.53271 -1.80435,0.79907 -2.86977,0.79907c-0.86494,0 -1.66114,-0.17757 -2.38861,-0.53271c-0.72747,-0.36087 -1.3461,-0.85062 -1.8559,-1.46925v5.93716c0,0.3265 -0.10311,0.59572 -0.30932,0.80766c-0.20621,0.21194 -0.47829,0.31791 -0.81625,0.31791zM196.1778,63.6514c0.75038,0 1.4177,-0.18043 2.00197,-0.5413c0.58999,-0.36087 1.05683,-0.85062 1.40052,-1.46925c0.34369,-0.62436 0.51553,-1.32605 0.51553,-2.10507c0,-0.79048 -0.17184,-1.4979 -0.51553,-2.12225c-0.34369,-0.62436 -0.81052,-1.11411 -1.40051,-1.46925c-0.58426,-0.36087 -1.25159,-0.5413 -2.00196,-0.5413c-0.73319,0 -1.39765,0.18044 -1.99337,0.54131c-0.58999,0.35514 -1.05397,0.84489 -1.39192,1.46926c-0.33796,0.62436 -0.50693,1.33178 -0.50693,2.12226c0,0.77902 0.16898,1.48071 0.50694,2.10507c0.33796,0.61863 0.80193,1.10839 1.39192,1.46926c0.59572,0.36087 1.26018,0.54131 1.99337,0.54131zM211.04801,65.62759c-1.18571,0 -2.23395,-0.26063 -3.14472,-0.78188c-0.91077,-0.52126 -1.62677,-1.24013 -2.14803,-2.15662c-0.51553,-0.9165 -0.77329,-1.96759 -0.77329,-3.15331c0,-1.2029 0.25776,-2.26259 0.77329,-3.17909c0.52126,-0.9165 1.23727,-1.63537 2.14803,-2.15662c0.91077,-0.52126 1.959,-0.78188 3.14472,-0.78188c1.17426,0 2.21677,0.26063 3.12753,0.78189c0.91077,0.52126 1.62391,1.24013 2.13944,2.15663c0.52126,0.9165 0.78189,1.97619 0.78189,3.17909c0,1.18571 -0.25776,2.23682 -0.77329,3.15331c-0.5098,0.9165 -1.22008,1.63537 -2.13085,2.15663c-0.90504,0.52126 -1.95327,0.78189 -3.14472,0.78189zM211.04801,63.6514c0.76184,0 1.43489,-0.17471 2.01915,-0.52412c0.58999,-0.35514 1.04824,-0.83916 1.37474,-1.45207c0.33223,-0.61863 0.49834,-1.33178 0.49834,-2.13944c0,-0.80766 -0.16611,-1.5208 -0.49834,-2.13944c-0.3265,-0.62436 -0.78475,-1.11125 -1.37474,-1.46066c-0.58426,-0.35514 -1.25732,-0.53271 -2.01915,-0.53271c-0.76184,0 -1.43775,0.17757 -2.02774,0.53271c-0.58426,0.34941 -1.04537,0.8363 -1.38333,1.46066c-0.33223,0.61863 -0.49834,1.33178 -0.49834,2.13944c0,0.80766 0.16611,1.52081 0.49834,2.13944c0.33796,0.6129 0.79907,1.09693 1.38334,1.45207c0.58999,0.34941 1.2659,0.52412 2.02774,0.52412zM221.78815,65.54166c-0.3265,0 -0.59572,-0.10597 -0.80766,-0.31791c-0.21194,-0.21194 -0.31791,-0.48116 -0.31791,-0.80766v-9.78643c0,-0.33796 0.10597,-0.60718 0.31791,-0.80766c0.21194,-0.20621 0.48116,-0.30932 0.80766,-0.30932c0.33223,0 0.60145,0.10311 0.80766,0.30932c0.20621,0.20048 0.30932,0.4697 0.30932,0.80766v9.78644c0,0.3265 -0.10311,0.59572 -0.30932,0.80766c-0.20621,0.21194 -0.47543,0.31791 -0.80766,0.31791zM221.98577,51.55369c-0.40097,0 -0.74465,-0.1432 -1.03106,-0.42961c-0.28068,-0.2864 -0.42101,-0.62722 -0.42101,-1.02246c0,-0.39524 0.14034,-0.73606 0.42102,-1.02246c0.2864,-0.2864 0.63009,-0.42961 1.03106,-0.42961c0.39524,0 0.73606,0.1432 1.02247,0.42961c0.2864,0.2864 0.42961,0.62723 0.42961,1.02247c0,0.39524 -0.1432,0.73606 -0.42961,1.02247c-0.2864,0.2864 -0.62722,0.42961 -1.02246,0.42961zM237.24641,65.56744c-0.32077,0 -0.58713,-0.10597 -0.79907,-0.31791c-0.21194,-0.21767 -0.31791,-0.48689 -0.31791,-0.80766v-5.41304c0,-0.8363 -0.15466,-1.51794 -0.46397,-2.04493c-0.30932,-0.52698 -0.7246,-0.91935 -1.24586,-1.17712c-0.52126,-0.25776 -1.11698,-0.38664 -1.78716,-0.38664c-0.61863,0 -1.17712,0.12602 -1.67546,0.37805c-0.49834,0.24631 -0.89358,0.57853 -1.18571,0.99669c-0.29213,0.41815 -0.4382,0.89931 -0.4382,1.44348h-1.39192c0,-0.92222 0.2234,-1.74706 0.67019,-2.47453c0.44679,-0.72747 1.05969,-1.30314 1.83872,-1.72701c0.77902,-0.42388 1.65255,-0.63582 2.6206,-0.63582c1.00814,0 1.91032,0.21767 2.70652,0.653c0.80193,0.42961 1.43489,1.06256 1.89886,1.89886c0.46397,0.8363 0.69597,1.86163 0.69597,3.07598v5.41304c0,0.32077 -0.10884,0.58999 -0.3265,0.80766c-0.21194,0.21194 -0.47829,0.31791 -0.79907,0.31791zM228.20749,65.56744c-0.32077,0 -0.58999,-0.10597 -0.80766,-0.31791c-0.21194,-0.21767 -0.31791,-0.48689 -0.31791,-0.80766v-9.81221c0,-0.33796 0.10597,-0.60718 0.31791,-0.80766c0.21767,-0.20621 0.48689,-0.30932 0.80766,-0.30932c0.33796,0 0.61004,0.10311 0.81625,0.30932c0.20621,0.20048 0.30932,0.4697 0.30932,0.80766v9.81221c0,0.32077 -0.10311,0.58999 -0.30932,0.80766c-0.20621,0.21194 -0.47829,0.31791 -0.81625,0.31791zM246.46506,65.54166c-0.73319,0 -1.39479,-0.18616 -1.98478,-0.55849c-0.58426,-0.37805 -1.04537,-0.88785 -1.38333,-1.5294c-0.33796,-0.64727 -0.50693,-1.37474 -0.50693,-2.1824v-10.49098c0,-0.32077 0.10311,-0.58426 0.30932,-0.79048c0.20621,-0.20621 0.4697,-0.30932 0.79048,-0.30932c0.3265,0 0.58999,0.10311 0.79048,0.30932c0.20621,0.20621 0.30932,0.4697 0.30932,0.79048v10.49098c0,0.58999 0.16039,1.08261 0.48116,1.47785c0.3265,0.39524 0.7246,0.59286 1.19431,0.59286h0.74752c0.26349,0 0.48689,0.10311 0.67019,0.30932c0.1833,0.20621 0.27495,0.4697 0.27495,0.79048c0,0.32077 -0.12315,0.58426 -0.36946,0.79048c-0.24058,0.20621 -0.5499,0.30932 -0.92795,0.30932zM241.58473,55.84116c-0.30932,0 -0.56135,-0.08592 -0.75611,-0.25776c-0.18903,-0.17757 -0.28354,-0.3981 -0.28354,-0.66159c0,-0.29786 0.09452,-0.53271 0.28354,-0.70455c0.19476,-0.17757 0.44679,-0.26635 0.75611,-0.26635h5.07795c0.30932,0 0.55849,0.08879 0.74752,0.26636c0.18903,0.17184 0.28354,0.40669 0.28354,0.70455c0,0.26349 -0.09451,0.48402 -0.28354,0.6616c-0.18903,0.17184 -0.4382,0.25776 -0.74751,0.25776z" data-paper-data="{&quot;origPos&quot;:null,&quot;index&quot;:null}" fill="#908472" stroke="#847968" stroke-width="1.5" stroke-linecap="square"/></g></g></svg>