<svg version="1.1" xmlns="http://www.w3.org/2000/svg" xmlns:xlink="http://www.w3.org/1999/xlink" width="456.92025" height="540.85685"><g transform="translate(-94.99835,-208.64295)"><g data-paper-data="{&quot;isPaintingLayer&quot;:true}" fill="none" fill-rule="nonzero" stroke="none" stroke-width="0" stroke-linecap="butt" stroke-linejoin="miter" stroke-miterlimit="10" stroke-dasharray="" stroke-dashoffset="0" font-family="none" font-weight="none" font-size="none" text-anchor="none" style="mix-blend-mode: normal"><path d="M135.79143,524.13464v-195h216v195z" data-paper-data="{&quot;origPos&quot;:null}" fill="#a1937c" stroke="none"/><path d="M129.97096,350.40511c0,0 -2.07429,-11.19051 -1.67116,-17.3616c0.66255,-10.14259 2.3478,-14.28587 2.3478,-24.44105c0,-7.19999 -3.35907,-16.17407 -6.06446,-23.2512c-3.61225,-9.44938 -0.02529,-22.7251 -0.02529,-22.7251h226.24228c0,0 0,14.86099 0,23.94875c0,24.78129 0,62.83647 0,62.83647z" data-paper-data="{&quot;origPos&quot;:null}" fill="#a1937c" stroke="#000000"/><path d="M121.55788,269.37136v-17.55579h230.24228v17.55579z" data-paper-data="{&quot;origPos&quot;:null}" fill="#706756" stroke="#000000"/><path d="M120.79147,265.72425v-16.55579c0,0 40.84462,0 66.98726,0c66.11233,0 169.40461,0 169.40461,0v16.55579z" data-paper-data="{&quot;origPos&quot;:null}" fill="#8b7f6b" stroke="#000000"/><path d="M102.95494,423.51364l-1.4362,-187.13916l37.26013,3.52423l1.15562,182.87686z" data-paper-data="{&quot;origPos&quot;:null,&quot;origRot&quot;:0}" fill="#d3bb76" stroke="none"/><path d="M101.31718,290.33012l-0.5611,-40.11639l36.75739,-0.51412l0.56109,40.1164z" data-paper-data="{&quot;origPos&quot;:null,&quot;origRot&quot;:0}" fill="#b9a568" stroke="none"/><path d="M95.51887,286.47858l-0.52051,-37.21537l47.95692,-0.67076l0.52052,37.21536z" data-paper-data="{&quot;origPos&quot;:null,&quot;origRot&quot;:0}" fill="#e7cd81" stroke="none"/><path d="M101.46413,280.30165l-0.36148,-25.84504l5.16901,-0.0723l0.36149,25.84505z" data-paper-data="{&quot;origPos&quot;:null,&quot;origRot&quot;:0}" fill="#d3bb76" stroke="none"/><path d="M131.61269,279.59274l-0.36148,-25.84506l5.169,-0.0723l0.36148,25.84505z" data-paper-data="{&quot;origPos&quot;:null,&quot;origRot&quot;:0}" fill="#d3bb76" stroke="none"/><path d="M110.64948,279.88591l-0.36148,-25.84505l5.169,-0.0723l0.36148,25.84506z" data-paper-data="{&quot;origPos&quot;:null,&quot;origRot&quot;:0}" fill="#d3bb76" stroke="none"/><path d="M122.7105,279.71721l-0.36148,-25.84505l5.169,-0.0723l0.36148,25.84505z" data-paper-data="{&quot;origPos&quot;:null,&quot;origRot&quot;:0}" fill="#d3bb76" stroke="none"/><path d="M112.0345,279.65596l-0.08032,-5.74333l12.92253,-0.18075l0.08033,5.74334z" data-paper-data="{&quot;origPos&quot;:null,&quot;origRot&quot;:0}" fill="#d3bb76" stroke="none"/><path d="M112.61886,259.82932l-0.08033,-5.74334l12.92253,-0.18075l0.08032,5.74335z" data-paper-data="{&quot;origPos&quot;:null,&quot;origRot&quot;:0}" fill="#d3bb76" stroke="none"/><path d="M101.80307,366.34354l-0.9017,-64.46904l37.33173,-0.52215l0.9017,64.46904z" data-paper-data="{&quot;origPos&quot;:null,&quot;origRot&quot;:0}" fill="#b9a568" stroke="none"/><path d="M96.00293,362.36045l-0.90673,-64.828l47.95692,-0.67077l0.90673,64.828z" data-paper-data="{&quot;origPos&quot;:null,&quot;origRot&quot;:0}" fill="#e7cd81" stroke="none"/><path d="M103.1869,352.3364l-0.66273,-47.38257l5.169,-0.07229l0.66273,47.38258z" data-paper-data="{&quot;origPos&quot;:null,&quot;origRot&quot;:0}" fill="#b9a568" stroke="none"/><path d="M103.16763,350.95803l-0.66273,-47.38257l5.169,-0.0723l0.66272,47.38258z" data-paper-data="{&quot;origPos&quot;:null,&quot;origRot&quot;:0}" fill="#d3bb76" stroke="none"/><path d="M102.7478,308.62141l-0.0699,-4.9967l24.98354,-0.34944l0.06989,4.99671z" data-paper-data="{&quot;origPos&quot;:null,&quot;origRot&quot;:0}" fill="#d3bb76" stroke="none"/><path d="M123.0436,342.75266l-0.54705,-39.11218l5.16901,-0.0723l0.54705,39.11218z" data-paper-data="{&quot;origPos&quot;:null,&quot;origRot&quot;:0}" fill="#d3bb76" stroke="none"/><path d="M113.05257,343.06474l-0.38076,-27.22345l5.16901,-0.0723l0.38077,27.22346z" data-paper-data="{&quot;origPos&quot;:null,&quot;origRot&quot;:0}" fill="#d3bb76" stroke="none"/><path d="M113.22558,343.11401l-0.07712,-5.51362l14.81784,-0.20725l0.07712,5.51362z" data-paper-data="{&quot;origPos&quot;:null,&quot;origRot&quot;:0}" fill="#d3bb76" stroke="none"/><path d="M103.19965,353.24963l-0.06989,-4.99671l33.94316,-0.47476l0.06989,4.99671z" data-paper-data="{&quot;origPos&quot;:null,&quot;origRot&quot;:0}" fill="#d3bb76" stroke="none"/><path d="M132.83459,352.7834l-0.69166,-49.45019l5.169,-0.0723l0.69164,49.45019z" data-paper-data="{&quot;origPos&quot;:null,&quot;origRot&quot;:0}" fill="#d3bb76" stroke="none"/><path d="M102.9022,414.12458l-0.5611,-40.1164l36.7574,-0.51411l0.56109,40.1164z" data-paper-data="{&quot;origPos&quot;:null,&quot;origRot&quot;:0}" fill="#b9a568" stroke="none"/><path d="M97.10386,410.27295l-0.52052,-37.21536l47.95692,-0.67077l0.52051,37.21537z" data-paper-data="{&quot;origPos&quot;:null,&quot;origRot&quot;:0}" fill="#e7cd81" stroke="none"/><path d="M103.04917,404.09597l-0.36148,-25.84506l5.16901,-0.0723l0.36149,25.84505z" data-paper-data="{&quot;origPos&quot;:null,&quot;origRot&quot;:0}" fill="#d3bb76" stroke="none"/><path d="M133.19768,403.38706l-0.36149,-25.84506l5.169,-0.07229l0.36149,25.84505z" data-paper-data="{&quot;origPos&quot;:null,&quot;origRot&quot;:0}" fill="#d3bb76" stroke="none"/><path d="M112.2345,403.68029l-0.36149,-25.84505l5.16901,-0.0723l0.36148,25.84505z" data-paper-data="{&quot;origPos&quot;:null,&quot;origRot&quot;:0}" fill="#d3bb76" stroke="none"/><path d="M124.29552,403.51161l-0.36148,-25.84506l5.169,-0.0723l0.36148,25.84505z" data-paper-data="{&quot;origPos&quot;:null,&quot;origRot&quot;:0}" fill="#d3bb76" stroke="none"/><path d="M114.2039,383.62369l-0.08032,-5.74333l12.92252,-0.18076l0.08033,5.74335z" data-paper-data="{&quot;origPos&quot;:null,&quot;origRot&quot;:0}" fill="#d3bb76" stroke="none"/><g data-paper-data="{&quot;origPos&quot;:null}" stroke="none"><path d="M337.95495,419.51364l-1.4362,-187.13916l37.26013,3.52423l1.15562,182.87686z" data-paper-data="{&quot;origPos&quot;:null,&quot;origRot&quot;:0}" fill="#d3bb76"/><path d="M336.31719,286.33012l-0.5611,-40.11639l36.75739,-0.51412l0.56109,40.1164z" data-paper-data="{&quot;origPos&quot;:null,&quot;origRot&quot;:0}" fill="#b9a568"/><path d="M330.51883,282.47858l-0.52051,-37.21537l47.95692,-0.67076l0.52052,37.21536z" data-paper-data="{&quot;origPos&quot;:null,&quot;origRot&quot;:0}" fill="#e7cd81"/><path d="M336.46411,276.30165l-0.36148,-25.84504l5.16901,-0.0723l0.36149,25.84505z" data-paper-data="{&quot;origPos&quot;:null,&quot;origRot&quot;:0}" fill="#d3bb76"/><path d="M366.61271,275.59274l-0.36148,-25.84506l5.169,-0.0723l0.36148,25.84505z" data-paper-data="{&quot;origPos&quot;:null,&quot;origRot&quot;:0}" fill="#d3bb76"/><path d="M345.64951,275.88591l-0.36148,-25.84505l5.169,-0.0723l0.36148,25.84506z" data-paper-data="{&quot;origPos&quot;:null,&quot;origRot&quot;:0}" fill="#d3bb76"/><path d="M357.71052,275.71721l-0.36148,-25.84505l5.169,-0.0723l0.36148,25.84505z" data-paper-data="{&quot;origPos&quot;:null,&quot;origRot&quot;:0}" fill="#d3bb76"/><path d="M347.03449,275.65596l-0.08032,-5.74333l12.92253,-0.18075l0.08033,5.74334z" data-paper-data="{&quot;origPos&quot;:null,&quot;origRot&quot;:0}" fill="#d3bb76"/><path d="M347.61889,255.82932l-0.08033,-5.74334l12.92253,-0.18075l0.08032,5.74335z" data-paper-data="{&quot;origPos&quot;:null,&quot;origRot&quot;:0}" fill="#d3bb76"/><path d="M336.80308,362.34354l-0.9017,-64.46904l37.33173,-0.52215l0.9017,64.46904z" data-paper-data="{&quot;origPos&quot;:null,&quot;origRot&quot;:0}" fill="#b9a568"/><path d="M331.00289,358.36045l-0.90673,-64.828l47.95692,-0.67077l0.90673,64.828z" data-paper-data="{&quot;origPos&quot;:null,&quot;origRot&quot;:0}" fill="#e7cd81"/><path d="M338.18688,348.3364l-0.66273,-47.38257l5.169,-0.07229l0.66273,47.38258z" data-paper-data="{&quot;origPos&quot;:null,&quot;origRot&quot;:0}" fill="#b9a568"/><path d="M338.16764,346.95803l-0.66273,-47.38257l5.169,-0.0723l0.66272,47.38258z" data-paper-data="{&quot;origPos&quot;:null,&quot;origRot&quot;:0}" fill="#d3bb76"/><path d="M337.74783,304.62141l-0.0699,-4.9967l24.98354,-0.34944l0.06989,4.99671z" data-paper-data="{&quot;origPos&quot;:null,&quot;origRot&quot;:0}" fill="#d3bb76"/><path d="M358.04361,338.75266l-0.54705,-39.11218l5.16901,-0.0723l0.54705,39.11218z" data-paper-data="{&quot;origPos&quot;:null,&quot;origRot&quot;:0}" fill="#d3bb76"/><path d="M348.05259,339.06474l-0.38076,-27.22345l5.16901,-0.0723l0.38077,27.22346z" data-paper-data="{&quot;origPos&quot;:null,&quot;origRot&quot;:0}" fill="#d3bb76"/><path d="M348.22556,339.11401l-0.07712,-5.51362l14.81784,-0.20725l0.07712,5.51362z" data-paper-data="{&quot;origPos&quot;:null,&quot;origRot&quot;:0}" fill="#d3bb76"/><path d="M338.19967,349.24963l-0.06989,-4.99671l33.94316,-0.47476l0.06989,4.99671z" data-paper-data="{&quot;origPos&quot;:null,&quot;origRot&quot;:0}" fill="#d3bb76"/><path d="M367.8346,348.7834l-0.69166,-49.45019l5.169,-0.0723l0.69164,49.45019z" data-paper-data="{&quot;origPos&quot;:null,&quot;origRot&quot;:0}" fill="#d3bb76"/><path d="M337.90221,410.12458l-0.5611,-40.1164l36.7574,-0.51411l0.56109,40.1164z" data-paper-data="{&quot;origPos&quot;:null,&quot;origRot&quot;:0}" fill="#b9a568"/><path d="M332.10384,406.27289l-0.52052,-37.21536l47.95692,-0.67077l0.52051,37.21537z" data-paper-data="{&quot;origPos&quot;:null,&quot;origRot&quot;:0}" fill="#e7cd81"/><path d="M338.04917,400.09597l-0.36148,-25.84506l5.16901,-0.0723l0.36149,25.84505z" data-paper-data="{&quot;origPos&quot;:null,&quot;origRot&quot;:0}" fill="#d3bb76"/><path d="M368.19772,399.38706l-0.36149,-25.84506l5.169,-0.07229l0.36149,25.84505z" data-paper-data="{&quot;origPos&quot;:null,&quot;origRot&quot;:0}" fill="#d3bb76"/><path d="M347.23452,399.68029l-0.36149,-25.84505l5.16901,-0.0723l0.36148,25.84505z" data-paper-data="{&quot;origPos&quot;:null,&quot;origRot&quot;:0}" fill="#d3bb76"/><path d="M359.29549,399.51161l-0.36148,-25.84506l5.169,-0.0723l0.36148,25.84505z" data-paper-data="{&quot;origPos&quot;:null,&quot;origRot&quot;:0}" fill="#d3bb76"/><path d="M349.20392,379.62369l-0.08032,-5.74333l12.92252,-0.18076l0.08033,5.74335z" data-paper-data="{&quot;origPos&quot;:null,&quot;origRot&quot;:0}" fill="#d3bb76"/></g><g data-paper-data="{&quot;origPos&quot;:null}" stroke="none"><path d="M105.95494,598.9136l-1.4362,-187.13916l37.26013,3.52423l1.15562,182.87686z" data-paper-data="{&quot;origPos&quot;:null,&quot;origRot&quot;:0}" fill="#d3bb76"/><path d="M104.31717,465.73013l-0.5611,-40.11639l36.75739,-0.51412l0.56109,40.1164z" data-paper-data="{&quot;origPos&quot;:null,&quot;origRot&quot;:0}" fill="#b9a568"/><path d="M98.51887,461.87857l-0.52051,-37.21537l47.95692,-0.67076l0.52052,37.21536z" data-paper-data="{&quot;origPos&quot;:null,&quot;origRot&quot;:0}" fill="#e7cd81"/><path d="M104.46412,455.70161l-0.36148,-25.84504l5.16901,-0.0723l0.36149,25.84505z" data-paper-data="{&quot;origPos&quot;:null,&quot;origRot&quot;:0}" fill="#d3bb76"/><path d="M134.61269,454.99273l-0.36148,-25.84506l5.169,-0.0723l0.36148,25.84505z" data-paper-data="{&quot;origPos&quot;:null,&quot;origRot&quot;:0}" fill="#d3bb76"/><path d="M113.64948,455.28591l-0.36148,-25.84505l5.169,-0.0723l0.36148,25.84506z" data-paper-data="{&quot;origPos&quot;:null,&quot;origRot&quot;:0}" fill="#d3bb76"/><path d="M125.7105,455.11722l-0.36148,-25.84505l5.169,-0.0723l0.36148,25.84505z" data-paper-data="{&quot;origPos&quot;:null,&quot;origRot&quot;:0}" fill="#d3bb76"/><path d="M115.0345,455.05593l-0.08032,-5.74333l12.92253,-0.18075l0.08033,5.74334z" data-paper-data="{&quot;origPos&quot;:null,&quot;origRot&quot;:0}" fill="#d3bb76"/><path d="M115.61886,435.22929l-0.08033,-5.74334l12.92253,-0.18075l0.08032,5.74335z" data-paper-data="{&quot;origPos&quot;:null,&quot;origRot&quot;:0}" fill="#d3bb76"/><path d="M104.80307,541.74359l-0.9017,-64.46904l37.33173,-0.52215l0.9017,64.46904z" data-paper-data="{&quot;origPos&quot;:null,&quot;origRot&quot;:0}" fill="#b9a568"/><path d="M99.00293,537.76044l-0.90673,-64.828l47.95692,-0.67077l0.90673,64.828z" data-paper-data="{&quot;origPos&quot;:null,&quot;origRot&quot;:0}" fill="#e7cd81"/><path d="M106.1869,527.73643l-0.66273,-47.38257l5.169,-0.07229l0.66273,47.38258z" data-paper-data="{&quot;origPos&quot;:null,&quot;origRot&quot;:0}" fill="#b9a568"/><path d="M106.16763,526.35805l-0.66273,-47.38257l5.169,-0.0723l0.66272,47.38258z" data-paper-data="{&quot;origPos&quot;:null,&quot;origRot&quot;:0}" fill="#d3bb76"/><path d="M105.7478,484.02142l-0.0699,-4.9967l24.98354,-0.34944l0.06989,4.99671z" data-paper-data="{&quot;origPos&quot;:null,&quot;origRot&quot;:0}" fill="#d3bb76"/><path d="M126.0436,518.15267l-0.54705,-39.11218l5.16901,-0.0723l0.54705,39.11218z" data-paper-data="{&quot;origPos&quot;:null,&quot;origRot&quot;:0}" fill="#d3bb76"/><path d="M116.05257,518.46477l-0.38076,-27.22345l5.16901,-0.0723l0.38077,27.22346z" data-paper-data="{&quot;origPos&quot;:null,&quot;origRot&quot;:0}" fill="#d3bb76"/><path d="M116.22558,518.51403l-0.07712,-5.51362l14.81784,-0.20725l0.07712,5.51362z" data-paper-data="{&quot;origPos&quot;:null,&quot;origRot&quot;:0}" fill="#d3bb76"/><path d="M106.19966,528.64965l-0.06989,-4.99671l33.94316,-0.47476l0.06989,4.99671z" data-paper-data="{&quot;origPos&quot;:null,&quot;origRot&quot;:0}" fill="#d3bb76"/><path d="M135.83459,528.18343l-0.69166,-49.45019l5.169,-0.0723l0.69164,49.45019z" data-paper-data="{&quot;origPos&quot;:null,&quot;origRot&quot;:0}" fill="#d3bb76"/><path d="M105.9022,589.52455l-0.5611,-40.1164l36.7574,-0.51411l0.56109,40.1164z" data-paper-data="{&quot;origPos&quot;:null,&quot;origRot&quot;:0}" fill="#b9a568"/><path d="M100.10386,585.67294l-0.52052,-37.21536l47.95692,-0.67077l0.52051,37.21537z" data-paper-data="{&quot;origPos&quot;:null,&quot;origRot&quot;:0}" fill="#e7cd81"/><path d="M106.04917,579.496l-0.36148,-25.84506l5.16901,-0.0723l0.36149,25.84505z" data-paper-data="{&quot;origPos&quot;:null,&quot;origRot&quot;:0}" fill="#d3bb76"/><path d="M136.19768,578.78704l-0.36149,-25.84506l5.169,-0.07229l0.36149,25.84505z" data-paper-data="{&quot;origPos&quot;:null,&quot;origRot&quot;:0}" fill="#d3bb76"/><path d="M115.2345,579.08028l-0.36149,-25.84505l5.16901,-0.0723l0.36148,25.84505z" data-paper-data="{&quot;origPos&quot;:null,&quot;origRot&quot;:0}" fill="#d3bb76"/><path d="M127.29552,578.91159l-0.36148,-25.84506l5.169,-0.0723l0.36148,25.84505z" data-paper-data="{&quot;origPos&quot;:null,&quot;origRot&quot;:0}" fill="#d3bb76"/><path d="M117.2039,559.02371l-0.08032,-5.74333l12.92252,-0.18076l0.08033,5.74335z" data-paper-data="{&quot;origPos&quot;:null,&quot;origRot&quot;:0}" fill="#d3bb76"/></g><g data-paper-data="{&quot;origPos&quot;:null}" stroke="none"><path d="M339.95495,597.51363l-1.4362,-187.13916l37.26013,3.52423l1.15562,182.87686z" data-paper-data="{&quot;origPos&quot;:null,&quot;origRot&quot;:0}" fill="#d3bb76"/><path d="M338.31719,464.33011l-0.5611,-40.11639l36.75739,-0.51412l0.56109,40.1164z" data-paper-data="{&quot;origPos&quot;:null,&quot;origRot&quot;:0}" fill="#b9a568"/><path d="M332.51883,460.47857l-0.52051,-37.21537l47.95692,-0.67076l0.52052,37.21536z" data-paper-data="{&quot;origPos&quot;:null,&quot;origRot&quot;:0}" fill="#e7cd81"/><path d="M338.46411,454.30162l-0.36148,-25.84504l5.16901,-0.0723l0.36149,25.84505z" data-paper-data="{&quot;origPos&quot;:null,&quot;origRot&quot;:0}" fill="#d3bb76"/><path d="M368.61271,453.59273l-0.36148,-25.84506l5.169,-0.0723l0.36148,25.84505z" data-paper-data="{&quot;origPos&quot;:null,&quot;origRot&quot;:0}" fill="#d3bb76"/><path d="M347.64951,453.88592l-0.36148,-25.84505l5.169,-0.0723l0.36148,25.84506z" data-paper-data="{&quot;origPos&quot;:null,&quot;origRot&quot;:0}" fill="#d3bb76"/><path d="M359.71052,453.71719l-0.36148,-25.84505l5.169,-0.0723l0.36148,25.84505z" data-paper-data="{&quot;origPos&quot;:null,&quot;origRot&quot;:0}" fill="#d3bb76"/><path d="M349.03449,453.65596l-0.08032,-5.74333l12.92253,-0.18075l0.08033,5.74334z" data-paper-data="{&quot;origPos&quot;:null,&quot;origRot&quot;:0}" fill="#d3bb76"/><path d="M349.61889,433.82929l-0.08033,-5.74334l12.92253,-0.18075l0.08032,5.74335z" data-paper-data="{&quot;origPos&quot;:null,&quot;origRot&quot;:0}" fill="#d3bb76"/><path d="M338.80308,540.3436l-0.9017,-64.46904l37.33173,-0.52215l0.9017,64.46904z" data-paper-data="{&quot;origPos&quot;:null,&quot;origRot&quot;:0}" fill="#b9a568"/><path d="M333.00289,536.36045l-0.90673,-64.828l47.95692,-0.67077l0.90673,64.828z" data-paper-data="{&quot;origPos&quot;:null,&quot;origRot&quot;:0}" fill="#e7cd81"/><path d="M340.18688,526.33644l-0.66273,-47.38257l5.169,-0.07229l0.66273,47.38258z" data-paper-data="{&quot;origPos&quot;:null,&quot;origRot&quot;:0}" fill="#b9a568"/><path d="M340.16764,524.95806l-0.66273,-47.38257l5.169,-0.0723l0.66272,47.38258z" data-paper-data="{&quot;origPos&quot;:null,&quot;origRot&quot;:0}" fill="#d3bb76"/><path d="M339.74783,482.62143l-0.0699,-4.9967l24.98354,-0.34944l0.06989,4.99671z" data-paper-data="{&quot;origPos&quot;:null,&quot;origRot&quot;:0}" fill="#d3bb76"/><path d="M360.04361,516.75265l-0.54705,-39.11218l5.16901,-0.0723l0.54705,39.11218z" data-paper-data="{&quot;origPos&quot;:null,&quot;origRot&quot;:0}" fill="#d3bb76"/><path d="M350.05259,517.06478l-0.38076,-27.22345l5.16901,-0.0723l0.38077,27.22346z" data-paper-data="{&quot;origPos&quot;:null,&quot;origRot&quot;:0}" fill="#d3bb76"/><path d="M350.22556,517.11404l-0.07712,-5.51362l14.81784,-0.20725l0.07712,5.51362z" data-paper-data="{&quot;origPos&quot;:null,&quot;origRot&quot;:0}" fill="#d3bb76"/><path d="M340.19967,527.24966l-0.06989,-4.99671l33.94316,-0.47476l0.06989,4.99671z" data-paper-data="{&quot;origPos&quot;:null,&quot;origRot&quot;:0}" fill="#d3bb76"/><path d="M369.8346,526.78344l-0.69166,-49.45019l5.169,-0.0723l0.69164,49.45019z" data-paper-data="{&quot;origPos&quot;:null,&quot;origRot&quot;:0}" fill="#d3bb76"/><path d="M339.90221,588.12458l-0.5611,-40.1164l36.7574,-0.51411l0.56109,40.1164z" data-paper-data="{&quot;origPos&quot;:null,&quot;origRot&quot;:0}" fill="#b9a568"/><path d="M334.10384,584.27295l-0.52052,-37.21536l47.95692,-0.67077l0.52051,37.21537z" data-paper-data="{&quot;origPos&quot;:null,&quot;origRot&quot;:0}" fill="#e7cd81"/><path d="M340.04917,578.09602l-0.36148,-25.84506l5.16901,-0.0723l0.36149,25.84505z" data-paper-data="{&quot;origPos&quot;:null,&quot;origRot&quot;:0}" fill="#d3bb76"/><path d="M370.19772,577.38708l-0.36149,-25.84506l5.169,-0.07229l0.36149,25.84505z" data-paper-data="{&quot;origPos&quot;:null,&quot;origRot&quot;:0}" fill="#d3bb76"/><path d="M349.23452,577.68031l-0.36149,-25.84505l5.16901,-0.0723l0.36148,25.84505z" data-paper-data="{&quot;origPos&quot;:null,&quot;origRot&quot;:0}" fill="#d3bb76"/><path d="M361.29549,577.51163l-0.36148,-25.84506l5.169,-0.0723l0.36148,25.84505z" data-paper-data="{&quot;origPos&quot;:null,&quot;origRot&quot;:0}" fill="#d3bb76"/><path d="M351.20392,557.62372l-0.08032,-5.74333l12.92252,-0.18076l0.08033,5.74335z" data-paper-data="{&quot;origPos&quot;:null,&quot;origRot&quot;:0}" fill="#d3bb76"/></g><path d="M226.88044,529.64594l-8.97232,-46.53004l5.076,-0.97879l8.97233,46.53005z" data-paper-data="{&quot;origPos&quot;:null,&quot;origRot&quot;:0}" fill="#b9a568" stroke="none"/><path d="M226.61943,528.29234l-8.97232,-46.53003l5.076,-0.9788l8.97231,46.53005z" data-paper-data="{&quot;origPos&quot;:null,&quot;origRot&quot;:0}" fill="#d3bb76" stroke="none"/><path d="M218.77227,486.68721l-0.94619,-4.90679l24.53403,-4.73086l0.94617,4.90681z" data-paper-data="{&quot;origPos&quot;:null,&quot;origRot&quot;:0}" fill="#d3bb76" stroke="none"/><path d="M244.74584,516.72442l-7.40625,-38.40846l5.07601,-0.9788l7.40624,38.40846z" data-paper-data="{&quot;origPos&quot;:null,&quot;origRot&quot;:0}" fill="#d3bb76" stroke="none"/><path d="M234.9648,518.78602l-5.155,-26.73363l5.076,-0.97881l5.15502,26.73365z" data-paper-data="{&quot;origPos&quot;:null,&quot;origRot&quot;:0}" fill="#d3bb76" stroke="none"/><path d="M235.14377,518.80412l-1.04406,-5.41442l14.55123,-2.80589l1.04406,5.41442z" data-paper-data="{&quot;origPos&quot;:null,&quot;origRot&quot;:0}" fill="#d3bb76" stroke="none"/><path d="M151.79143,627.13462v-215h175v215z" data-paper-data="{&quot;origPos&quot;:null}" fill="#a1937c" stroke="none"/><g data-paper-data="{&quot;origPos&quot;:null,&quot;origRot&quot;:0}" stroke="none"><g data-paper-data="{&quot;origPos&quot;:null}"><path d="M492.3152,500.84137l-20.17056,-289.62903l36.89381,-2.56939l20.17056,289.62904z" data-paper-data="{&quot;origPos&quot;:null}" fill="#d3bb76"/><path d="M477.51657,286.22032l-4.47939,-64.31955l37.24517,-2.59386l4.47939,64.31955z" data-paper-data="{&quot;origPos&quot;:null}" fill="#b9a568"/><path d="M471.50423,282.56539l-4.50433,-64.67768l47.84572,-3.33211l4.50433,64.67768z" data-paper-data="{&quot;origPos&quot;:null}" fill="#e7cd81"/><path d="M478.12067,272.15795l-3.2922,-47.27271l5.15702,-0.35915l3.2922,47.27272z" data-paper-data="{&quot;origPos&quot;:null}" fill="#b9a568"/><path d="M478.02484,270.78275l-3.2922,-47.27271l5.15702,-0.35915l3.2922,47.27272z" data-paper-data="{&quot;origPos&quot;:null}" fill="#d3bb76"/><path d="M475.25533,228.53482l-0.34718,-4.98513l24.92562,-1.73589l0.34718,4.98513z" data-paper-data="{&quot;origPos&quot;:null}" fill="#d3bb76"/><path d="M497.41464,261.48662l-2.71756,-39.02149l5.15703,-0.35915l2.71756,39.02149z" data-paper-data="{&quot;origPos&quot;:null}" fill="#d3bb76"/><path d="M487.45636,262.35288l-1.89152,-27.16032l5.15703,-0.35915l1.89152,27.16032z" data-paper-data="{&quot;origPos&quot;:null}" fill="#d3bb76"/><path d="M487.63185,262.39245l-0.38309,-5.50083l14.78347,-1.02956l0.38309,5.50083z" data-paper-data="{&quot;origPos&quot;:null}" fill="#d3bb76"/><path d="M478.18407,273.06905l-0.34718,-4.98513l33.86446,-2.35841l0.34718,4.98513z" data-paper-data="{&quot;origPos&quot;:null}" fill="#d3bb76"/><path d="M507.74741,270.95833l-3.43586,-49.33552l5.15702,-0.35915l3.43586,49.33552z" data-paper-data="{&quot;origPos&quot;:null}" fill="#d3bb76"/><path d="M487.00394,408.05564l-4.47939,-64.31955l37.24517,-2.59386l4.47939,64.31955z" data-paper-data="{&quot;origPos&quot;:null}" fill="#b9a568"/><path d="M480.99159,404.40061l-4.50433,-64.67768l47.84572,-3.33211l4.50433,64.67768z" data-paper-data="{&quot;origPos&quot;:null}" fill="#e7cd81"/><path d="M487.60803,393.99324l-3.2922,-47.27271l5.15702,-0.35915l3.2922,47.27272z" data-paper-data="{&quot;origPos&quot;:null}" fill="#b9a568"/><path d="M487.51226,392.61803l-3.2922,-47.27271l5.15702,-0.35915l3.2922,47.27272z" data-paper-data="{&quot;origPos&quot;:null}" fill="#d3bb76"/><path d="M484.74269,350.37006l-0.34718,-4.98513l24.92562,-1.73589l0.34718,4.98513z" data-paper-data="{&quot;origPos&quot;:null}" fill="#d3bb76"/><path d="M506.90201,383.32192l-2.71756,-39.02149l5.15703,-0.35915l2.71756,39.02149z" data-paper-data="{&quot;origPos&quot;:null}" fill="#d3bb76"/><path d="M496.94373,384.18816l-1.89152,-27.16032l5.15703,-0.35915l1.89152,27.16032z" data-paper-data="{&quot;origPos&quot;:null}" fill="#d3bb76"/><path d="M497.11919,384.22778l-0.38309,-5.50083l14.78347,-1.02956l0.38309,5.50083z" data-paper-data="{&quot;origPos&quot;:null}" fill="#d3bb76"/><path d="M487.67143,394.90435l-0.34718,-4.98513l33.86446,-2.35841l0.34718,4.98513z" data-paper-data="{&quot;origPos&quot;:null}" fill="#d3bb76"/><path d="M517.23475,392.79367l-3.43586,-49.33552l5.15702,-0.35915l3.43586,49.33552z" data-paper-data="{&quot;origPos&quot;:null}" fill="#d3bb76"/><path d="M490.75396,455.70185l-2.78734,-40.02339l36.67217,-2.55395l2.78734,40.02339z" data-paper-data="{&quot;origPos&quot;:null}" fill="#b9a568"/><path d="M484.75079,452.17813l-2.58577,-37.12908l47.84572,-3.33211l2.58577,37.12908z" data-paper-data="{&quot;origPos&quot;:null}" fill="#e7cd81"/><path d="M490.34394,445.68068l-1.79575,-25.78513l5.15703,-0.35915l1.79575,25.78513z" data-paper-data="{&quot;origPos&quot;:null}" fill="#d3bb76"/><path d="M520.40667,443.2991l-1.79575,-25.78513l5.15702,-0.35915l1.79575,25.78513z" data-paper-data="{&quot;origPos&quot;:null}" fill="#d3bb76"/><path d="M499.49204,444.75565l-1.79575,-25.78513l5.15702,-0.35915l1.79575,25.78513z" data-paper-data="{&quot;origPos&quot;:null}" fill="#d3bb76"/><path d="M511.52511,443.91763l-1.79575,-25.78513l5.15702,-0.35915l1.79575,25.78513z" data-paper-data="{&quot;origPos&quot;:null}" fill="#d3bb76"/><path d="M500.86218,444.44912l-0.39905,-5.73002l12.89256,-0.89787l0.39905,5.73002z" data-paper-data="{&quot;origPos&quot;:null}" fill="#d3bb76"/><path d="M500.34494,424.62068l-0.39906,-5.73003l12.89256,-0.89787l0.39906,5.73003z" data-paper-data="{&quot;origPos&quot;:null}" fill="#d3bb76"/><path d="M481.26662,333.86661l-2.78734,-40.02339l36.67217,-2.55395l2.78734,40.02339z" data-paper-data="{&quot;origPos&quot;:null}" fill="#b9a568"/><path d="M475.26343,330.34287l-2.58577,-37.12908l47.84572,-3.33211l2.58577,37.12908z" data-paper-data="{&quot;origPos&quot;:null}" fill="#e7cd81"/><path d="M480.85661,323.8454l-1.79575,-25.78513l5.15703,-0.35915l1.79575,25.78513z" data-paper-data="{&quot;origPos&quot;:null}" fill="#d3bb76"/><path d="M510.91931,321.46377l-1.79575,-25.78513l5.15702,-0.35915l1.79575,25.78513z" data-paper-data="{&quot;origPos&quot;:null}" fill="#d3bb76"/><path d="M490.00469,322.92032l-1.79575,-25.78513l5.15702,-0.35915l1.79575,25.78513z" data-paper-data="{&quot;origPos&quot;:null}" fill="#d3bb76"/><path d="M502.03774,322.0823l-1.79575,-25.78513l5.15702,-0.35915l1.79575,25.78513z" data-paper-data="{&quot;origPos&quot;:null}" fill="#d3bb76"/><path d="M491.3748,322.61379l-0.39905,-5.73002l12.89256,-0.89787l0.39905,5.73002z" data-paper-data="{&quot;origPos&quot;:null}" fill="#d3bb76"/><path d="M490.85754,302.78535l-0.39906,-5.73003l12.89256,-0.89787l0.39906,5.73003z" data-paper-data="{&quot;origPos&quot;:null}" fill="#d3bb76"/></g><g data-paper-data="{&quot;origPos&quot;:null}"><path d="M511.63732,749.4998l-20.17056,-289.62903l36.89381,-2.56939l20.17056,289.62904z" data-paper-data="{&quot;origPos&quot;:null}" fill="#d3bb76"/><path d="M496.83866,534.87875l-4.47939,-64.31955l37.24517,-2.59386l4.47939,64.31955z" data-paper-data="{&quot;origPos&quot;:null}" fill="#b9a568"/><path d="M490.82634,531.22381l-4.50433,-64.67768l47.84572,-3.33211l4.50433,64.67768z" data-paper-data="{&quot;origPos&quot;:null}" fill="#e7cd81"/><path d="M497.44276,520.81637l-3.2922,-47.27271l5.15702,-0.35915l3.2922,47.27272z" data-paper-data="{&quot;origPos&quot;:null}" fill="#b9a568"/><path d="M497.34694,519.44118l-3.2922,-47.27271l5.15702,-0.35915l3.2922,47.27272z" data-paper-data="{&quot;origPos&quot;:null}" fill="#d3bb76"/><path d="M494.57743,477.19325l-0.34718,-4.98513l24.92562,-1.73589l0.34718,4.98513z" data-paper-data="{&quot;origPos&quot;:null}" fill="#d3bb76"/><path d="M516.73673,510.14504l-2.71756,-39.02149l5.15703,-0.35915l2.71756,39.02149z" data-paper-data="{&quot;origPos&quot;:null}" fill="#d3bb76"/><path d="M506.77846,511.0113l-1.89152,-27.16032l5.15703,-0.35915l1.89152,27.16032z" data-paper-data="{&quot;origPos&quot;:null}" fill="#d3bb76"/><path d="M506.95394,511.05087l-0.38309,-5.50083l14.78347,-1.02956l0.38309,5.50083z" data-paper-data="{&quot;origPos&quot;:null}" fill="#d3bb76"/><path d="M497.50616,521.72747l-0.34718,-4.98513l33.86446,-2.35841l0.34718,4.98513z" data-paper-data="{&quot;origPos&quot;:null}" fill="#d3bb76"/><path d="M527.06949,519.61675l-3.43586,-49.33552l5.15702,-0.35915l3.43586,49.33552z" data-paper-data="{&quot;origPos&quot;:null}" fill="#d3bb76"/><path d="M506.32604,656.71407l-4.47939,-64.31955l37.24517,-2.59386l4.47939,64.31955z" data-paper-data="{&quot;origPos&quot;:null}" fill="#b9a568"/><path d="M500.3137,653.05904l-4.50433,-64.67768l47.84572,-3.33211l4.50433,64.67768z" data-paper-data="{&quot;origPos&quot;:null}" fill="#e7cd81"/><path d="M506.93013,642.65167l-3.2922,-47.27271l5.15702,-0.35915l3.2922,47.27272z" data-paper-data="{&quot;origPos&quot;:null}" fill="#b9a568"/><path d="M506.83435,641.27645l-3.2922,-47.27271l5.15702,-0.35915l3.2922,47.27272z" data-paper-data="{&quot;origPos&quot;:null}" fill="#d3bb76"/><path d="M504.06479,599.02848l-0.34718,-4.98513l24.92562,-1.73589l0.34718,4.98513z" data-paper-data="{&quot;origPos&quot;:null}" fill="#d3bb76"/><path d="M526.22408,631.98035l-2.71756,-39.02149l5.15703,-0.35915l2.71756,39.02149z" data-paper-data="{&quot;origPos&quot;:null}" fill="#d3bb76"/><path d="M516.26582,632.8466l-1.89152,-27.16032l5.15703,-0.35915l1.89152,27.16032z" data-paper-data="{&quot;origPos&quot;:null}" fill="#d3bb76"/><path d="M516.4413,632.8862l-0.38309,-5.50083l14.78347,-1.02956l0.38309,5.50083z" data-paper-data="{&quot;origPos&quot;:null}" fill="#d3bb76"/><path d="M506.99353,643.56278l-0.34718,-4.98513l33.86446,-2.35841l0.34718,4.98513z" data-paper-data="{&quot;origPos&quot;:null}" fill="#d3bb76"/><path d="M536.55684,641.45209l-3.43586,-49.33552l5.15702,-0.35915l3.43586,49.33552z" data-paper-data="{&quot;origPos&quot;:null}" fill="#d3bb76"/><path d="M510.07608,704.36027l-2.78734,-40.02339l36.67217,-2.55395l2.78734,40.02339z" data-paper-data="{&quot;origPos&quot;:null}" fill="#b9a568"/><path d="M504.07289,700.83656l-2.58577,-37.12908l47.84572,-3.33211l2.58577,37.12908z" data-paper-data="{&quot;origPos&quot;:null}" fill="#e7cd81"/><path d="M509.66607,694.3391l-1.79575,-25.78513l5.15703,-0.35915l1.79575,25.78513z" data-paper-data="{&quot;origPos&quot;:null}" fill="#d3bb76"/><path d="M539.72876,691.95752l-1.79575,-25.78513l5.15702,-0.35915l1.79575,25.78513z" data-paper-data="{&quot;origPos&quot;:null}" fill="#d3bb76"/><path d="M518.81414,693.41407l-1.79575,-25.78513l5.15702,-0.35915l1.79575,25.78513z" data-paper-data="{&quot;origPos&quot;:null}" fill="#d3bb76"/><path d="M530.84719,692.57606l-1.79575,-25.78513l5.15702,-0.35915l1.79575,25.78513z" data-paper-data="{&quot;origPos&quot;:null}" fill="#d3bb76"/><path d="M520.18427,693.10754l-0.39905,-5.73002l12.89256,-0.89787l0.39905,5.73002z" data-paper-data="{&quot;origPos&quot;:null}" fill="#d3bb76"/><path d="M519.66703,673.2791l-0.39906,-5.73003l12.89256,-0.89787l0.39906,5.73003z" data-paper-data="{&quot;origPos&quot;:null}" fill="#d3bb76"/><path d="M500.58872,582.52503l-2.78734,-40.02339l36.67217,-2.55395l2.78734,40.02339z" data-paper-data="{&quot;origPos&quot;:null}" fill="#b9a568"/><path d="M494.58552,579.00129l-2.58577,-37.12908l47.84572,-3.33211l2.58577,37.12908z" data-paper-data="{&quot;origPos&quot;:null}" fill="#e7cd81"/><path d="M500.1787,572.50383l-1.79575,-25.78513l5.15703,-0.35915l1.79575,25.78513z" data-paper-data="{&quot;origPos&quot;:null}" fill="#d3bb76"/><path d="M530.24141,570.12219l-1.79575,-25.78513l5.15702,-0.35915l1.79575,25.78513z" data-paper-data="{&quot;origPos&quot;:null}" fill="#d3bb76"/><path d="M509.32679,571.57874l-1.79575,-25.78513l5.15702,-0.35915l1.79575,25.78513z" data-paper-data="{&quot;origPos&quot;:null}" fill="#d3bb76"/><path d="M521.35984,570.74073l-1.79575,-25.78513l5.15702,-0.35915l1.79575,25.78513z" data-paper-data="{&quot;origPos&quot;:null}" fill="#d3bb76"/><path d="M510.6969,571.27221l-0.39905,-5.73002l12.89256,-0.89787l0.39905,5.73002z" data-paper-data="{&quot;origPos&quot;:null}" fill="#d3bb76"/><path d="M510.17967,551.44378l-0.39906,-5.73003l12.89256,-0.89787l0.39906,5.73003z" data-paper-data="{&quot;origPos&quot;:null}" fill="#d3bb76"/></g></g><path d="M205.00002,714.80001v-444h64v444z" data-paper-data="{&quot;origPos&quot;:null}" fill="#9e907a" stroke="none"/></g></g></svg>