<svg version="1.1" xmlns="http://www.w3.org/2000/svg" xmlns:xlink="http://www.w3.org/1999/xlink" width="271.24487" height="548.04552"><defs><linearGradient x1="300.74518" y1="286.41831" x2="280.25277" y2="305.98842" gradientUnits="userSpaceOnUse" id="color-1"><stop offset="0" stop-color="#8e8e8e"/><stop offset="1" stop-color="#818181"/></linearGradient><linearGradient x1="215.24331" y1="240.32636" x2="211.75482" y2="272.05728" gradientUnits="userSpaceOnUse" id="color-2"><stop offset="0" stop-color="#8e8e8e"/><stop offset="1" stop-color="#818181"/></linearGradient></defs><g transform="translate(-127.17424,36.64544)"><g data-paper-data="{&quot;isPaintingLayer&quot;:true}" fill="none" fill-rule="nonzero" stroke="none" stroke-width="none" stroke-linecap="none" stroke-linejoin="miter" stroke-miterlimit="10" stroke-dasharray="" stroke-dashoffset="0" font-family="none" font-weight="none" font-size="none" text-anchor="none" style="mix-blend-mode: normal"><g data-paper-data="{&quot;origPos&quot;:null}"><path d="M259.75937,222.85455l-0.66667,-236.63999" data-paper-data="{&quot;origPos&quot;:null}" fill="none" stroke="#cecece" stroke-width="15" stroke-linecap="round"/><path d="M256.42604,222.85452l-0.66667,-236.63999" data-paper-data="{&quot;origPos&quot;:null}" fill="none" stroke="#e7e7e7" stroke-width="15" stroke-linecap="round"/><path d="M244.5927,-21.14544c0,-7.1797 5.8203,-13 13,-13c7.1797,0 13,5.8203 13,13c0,7.1797 -5.8203,13 -13,13c-7.1797,0 -13,-5.8203 -13,-13z" data-paper-data="{&quot;origPos&quot;:null}" fill="#ff7e7e" stroke="#ff9b9b" stroke-width="5" stroke-linecap="butt"/></g><path d="M137.90792,283.00005v-80h241.41026v80z" data-paper-data="{&quot;origPos&quot;:null}" fill="#847968" stroke="none" stroke-width="NaN" stroke-linecap="butt"/><path d="M167.90792,269.00005v-40h185.76923v40z" data-paper-data="{&quot;origPos&quot;:null}" fill="#7c7262" stroke="none" stroke-width="0" stroke-linecap="butt"/><path d="M168.80538,511.40008v-252h185.76922v252z" data-paper-data="{&quot;origPos&quot;:null}" fill="#786e5f" stroke="none" stroke-width="0" stroke-linecap="butt"/><path d="M164.31818,211.00008v-9h187.56411v9z" data-paper-data="{&quot;origPos&quot;:null}" fill="#61584c" stroke="none" stroke-width="0" stroke-linecap="butt"/><path d="M168.80538,206.00008v-19h187.56409v19z" data-paper-data="{&quot;origPos&quot;:null}" fill="#91b782" stroke="none" stroke-width="0" stroke-linecap="butt"/><path d="M167.90792,206.00008v-12h187.56411v12z" data-paper-data="{&quot;origPos&quot;:null}" fill="#8aaf7c" stroke="none" stroke-width="0" stroke-linecap="butt"/><g data-paper-data="{&quot;origPos&quot;:null,&quot;origRot&quot;:0}" stroke="none" stroke-width="0" stroke-linecap="butt"><path d="M143.1701,473.82475l-10.63436,-290.13572l36.95835,-1.35464l10.63436,290.13573z" data-paper-data="{&quot;origPos&quot;:null}" fill="#d3bb76"/><path d="M135.43789,258.83313l-2.36163,-64.43207l37.31032,-1.36754l2.36163,64.43207z" data-paper-data="{&quot;origPos&quot;:null}" fill="#b9a568"/><path d="M129.54902,254.9824l-2.37478,-64.79083l47.92943,-1.75676l2.37478,64.79083z" data-paper-data="{&quot;origPos&quot;:null}" fill="#e7cd81"/><path d="M136.50413,244.79824l-1.73572,-47.35541l5.16604,-0.18935l1.73572,47.35542z" data-paper-data="{&quot;origPos&quot;:null}" fill="#b9a568"/><path d="M136.45362,243.42056l-1.73571,-47.35541l5.16604,-0.18935l1.73571,47.35542z" data-paper-data="{&quot;origPos&quot;:null}" fill="#d3bb76"/><path d="M135.07504,201.10441l-0.18304,-4.99384l24.96922,-0.9152l0.18304,4.99384z" data-paper-data="{&quot;origPos&quot;:null}" fill="#d3bb76"/><path d="M156.13865,234.76719l-1.43276,-39.08975l5.16605,-0.18935l1.43276,39.08975z" data-paper-data="{&quot;origPos&quot;:null}" fill="#d3bb76"/><path d="M146.15728,235.30542l-0.99725,-27.20784l5.16605,-0.18935l0.99725,27.20784z" data-paper-data="{&quot;origPos&quot;:null}" fill="#d3bb76"/><path d="M146.33136,235.35081l-0.20197,-5.51046l14.80933,-0.54281l0.20197,5.51046z" data-paper-data="{&quot;origPos&quot;:null}" fill="#d3bb76"/><path d="M136.53756,245.71086l-0.18303,-4.99384l33.92369,-1.24341l0.18303,4.99384z" data-paper-data="{&quot;origPos&quot;:null}" fill="#d3bb76"/><path d="M166.15434,244.57357l-1.81146,-49.42184l5.16604,-0.18935l1.81146,49.42184z" data-paper-data="{&quot;origPos&quot;:null}" fill="#d3bb76"/><path d="M140.91321,380.91454l-2.36163,-64.43207l37.31032,-1.36754l2.36163,64.43207z" data-paper-data="{&quot;origPos&quot;:null}" fill="#b9a568"/><path d="M135.02434,377.06382l-2.37478,-64.79083l47.92943,-1.75676l2.37478,64.79083z" data-paper-data="{&quot;origPos&quot;:null}" fill="#e7cd81"/><path d="M141.97946,366.87964l-1.73572,-47.35541l5.16604,-0.18935l1.73571,47.35542z" data-paper-data="{&quot;origPos&quot;:null}" fill="#b9a568"/><path d="M141.92896,365.50203l-1.73572,-47.35541l5.16604,-0.18935l1.73572,47.35542z" data-paper-data="{&quot;origPos&quot;:null}" fill="#d3bb76"/><path d="M140.55037,323.18578l-0.18303,-4.99384l24.96922,-0.9152l0.18303,4.99384z" data-paper-data="{&quot;origPos&quot;:null}" fill="#d3bb76"/><path d="M161.61398,356.84861l-1.43276,-39.08975l5.16605,-0.18935l1.43276,39.08975z" data-paper-data="{&quot;origPos&quot;:null}" fill="#d3bb76"/><path d="M151.6326,357.38689l-0.99725,-27.20784l5.16605,-0.18935l0.99725,27.20784z" data-paper-data="{&quot;origPos&quot;:null}" fill="#d3bb76"/><path d="M151.80669,357.43223l-0.20198,-5.51046l14.80933,-0.54281l0.20198,5.51046z" data-paper-data="{&quot;origPos&quot;:null}" fill="#d3bb76"/><path d="M142.01289,367.7923l-0.18303,-4.99384l33.92369,-1.24341l0.18303,4.99384z" data-paper-data="{&quot;origPos&quot;:null}" fill="#d3bb76"/><path d="M171.62966,366.65503l-1.81146,-49.42184l5.16604,-0.18935l1.81146,49.42184z" data-paper-data="{&quot;origPos&quot;:null}" fill="#d3bb76"/><path d="M143.09425,428.65832l-1.46954,-40.09341l36.73632,-1.3465l1.46954,40.09341z" data-paper-data="{&quot;origPos&quot;:null}" fill="#b9a568"/><path d="M137.2102,424.93908l-1.36328,-37.19404l47.92943,-1.75676l1.36328,37.19404z" data-paper-data="{&quot;origPos&quot;:null}" fill="#e7cd81"/><path d="M143.01405,418.62907l-0.94676,-25.83024l5.16605,-0.18935l0.94676,25.83024z" data-paper-data="{&quot;origPos&quot;:null}" fill="#d3bb76"/><path d="M173.13881,417.2375l-0.94675,-25.83024l5.16604,-0.18935l0.94675,25.83024z" data-paper-data="{&quot;origPos&quot;:null}" fill="#d3bb76"/><path d="M152.18761,418.00542l-0.94676,-25.83024l5.16604,-0.18935l0.94676,25.83024z" data-paper-data="{&quot;origPos&quot;:null}" fill="#d3bb76"/><path d="M164.24173,417.56359l-0.94676,-25.83024l5.16604,-0.18935l0.94676,25.83024z" data-paper-data="{&quot;origPos&quot;:null}" fill="#d3bb76"/><path d="M153.56709,417.74415l-0.21039,-5.74005l12.91512,-0.47337l0.21039,5.74005z" data-paper-data="{&quot;origPos&quot;:null}" fill="#d3bb76"/><path d="M153.70224,397.9094l-0.21039,-5.74006l12.91512,-0.47337l0.21039,5.74006z" data-paper-data="{&quot;origPos&quot;:null}" fill="#d3bb76"/><path d="M137.61892,306.57696l-1.46954,-40.09341l36.73632,-1.3465l1.46954,40.09341z" data-paper-data="{&quot;origPos&quot;:null}" fill="#b9a568"/><path d="M131.73487,302.85758l-1.36328,-37.19404l47.92943,-1.75676l1.36328,37.19404z" data-paper-data="{&quot;origPos&quot;:null}" fill="#e7cd81"/><path d="M137.53874,296.54768l-0.94676,-25.83024l5.16605,-0.18935l0.94676,25.83024z" data-paper-data="{&quot;origPos&quot;:null}" fill="#d3bb76"/><path d="M167.66349,295.15602l-0.94675,-25.83024l5.16604,-0.18935l0.94675,25.83024z" data-paper-data="{&quot;origPos&quot;:null}" fill="#d3bb76"/><path d="M146.71229,295.92394l-0.94675,-25.83024l5.16604,-0.18935l0.94675,25.83024z" data-paper-data="{&quot;origPos&quot;:null}" fill="#d3bb76"/><path d="M158.76639,295.48216l-0.94675,-25.83024l5.16604,-0.18935l0.94675,25.83024z" data-paper-data="{&quot;origPos&quot;:null}" fill="#d3bb76"/><path d="M148.09174,295.66265l-0.21039,-5.74005l12.91512,-0.47337l0.21039,5.74005z" data-paper-data="{&quot;origPos&quot;:null}" fill="#d3bb76"/><path d="M148.22693,275.82795l-0.21039,-5.74006l12.91512,-0.47337l0.21039,5.74006z" data-paper-data="{&quot;origPos&quot;:null}" fill="#d3bb76"/></g><g data-paper-data="{&quot;origPos&quot;:null,&quot;origRot&quot;:0,&quot;index&quot;:null}" stroke="none" stroke-width="0" stroke-linecap="butt"><path d="M348.21584,469.27514l7.00234,-290.24609l36.97241,0.89198l-7.00234,290.2461z" data-paper-data="{&quot;origPos&quot;:null}" fill="#d3bb76"/><path d="M353.55222,254.21068l1.55505,-64.45659l37.32452,0.90048l-1.55505,64.45659z" data-paper-data="{&quot;origPos&quot;:null}" fill="#b9a568"/><path d="M347.90802,250.00954l1.56371,-64.81548l47.94766,1.15676l-1.56371,64.81548z" data-paper-data="{&quot;origPos&quot;:null}" fill="#e7cd81"/><path d="M355.46872,240.26645l1.14291,-47.37342l5.16801,0.12468l-1.14291,47.37344z" data-paper-data="{&quot;origPos&quot;:null}" fill="#b9a568"/><path d="M355.50193,238.88832l1.14291,-47.37342l5.168,0.12468l-1.14291,47.37343z" data-paper-data="{&quot;origPos&quot;:null}" fill="#d3bb76"/><path d="M356.69535,196.5665l0.12052,-4.99575l24.97872,0.60262l-0.12053,4.99575z" data-paper-data="{&quot;origPos&quot;:null}" fill="#d3bb76"/><path d="M375.67608,231.44616l0.94342,-39.10462l5.16801,0.12468l-0.94342,39.10462z" data-paper-data="{&quot;origPos&quot;:null}" fill="#d3bb76"/><path d="M365.68046,231.37733l0.65665,-27.21819l5.16802,0.12468l-0.65666,27.21819z" data-paper-data="{&quot;origPos&quot;:null}" fill="#d3bb76"/><path d="M365.85146,231.43317l0.133,-5.51254l14.81497,0.35743l-0.13299,5.51254z" data-paper-data="{&quot;origPos&quot;:null}" fill="#d3bb76"/><path d="M355.44667,241.17943l0.12052,-4.99574l33.9366,0.81874l-0.12053,4.99574z" data-paper-data="{&quot;origPos&quot;:null}" fill="#d3bb76"/><path d="M385.07782,241.84257l1.19278,-49.44063l5.168,0.12468l-1.19278,49.44064z" data-paper-data="{&quot;origPos&quot;:null}" fill="#d3bb76"/><path d="M351.60465,376.39932l1.55505,-64.45658l37.32452,0.90047l-1.55505,64.45658z" data-paper-data="{&quot;origPos&quot;:null}" fill="#b9a568"/><path d="M345.96047,372.19813l1.56371,-64.81548l47.94765,1.15677l-1.56371,64.81548z" data-paper-data="{&quot;origPos&quot;:null}" fill="#e7cd81"/><path d="M353.52113,362.45506l1.14291,-47.37342l5.168,0.12468l-1.1429,47.37343z" data-paper-data="{&quot;origPos&quot;:null}" fill="#b9a568"/><path d="M353.55436,361.07691l1.14291,-47.37343l5.168,0.12468l-1.14291,47.37343z" data-paper-data="{&quot;origPos&quot;:null}" fill="#d3bb76"/><path d="M354.74776,318.75505l0.12052,-4.99574l24.97872,0.60263l-0.12053,4.99575z" data-paper-data="{&quot;origPos&quot;:null}" fill="#d3bb76"/><path d="M373.72849,353.63474l0.94342,-39.10462l5.16802,0.12468l-0.94342,39.10462z" data-paper-data="{&quot;origPos&quot;:null}" fill="#d3bb76"/><path d="M363.73286,353.56594l0.65666,-27.21819l5.16802,0.12468l-0.65665,27.21819z" data-paper-data="{&quot;origPos&quot;:null}" fill="#d3bb76"/><path d="M363.90388,353.62173l0.13299,-5.51254l14.81497,0.35742l-0.133,5.51255z" data-paper-data="{&quot;origPos&quot;:null}" fill="#d3bb76"/><path d="M353.49907,363.36807l0.12052,-4.99574l33.93661,0.81874l-0.12052,4.99575z" data-paper-data="{&quot;origPos&quot;:null}" fill="#d3bb76"/><path d="M383.13024,364.0312l1.19278,-49.44063l5.168,0.12468l-1.19278,49.44063z" data-paper-data="{&quot;origPos&quot;:null}" fill="#d3bb76"/><path d="M350.88266,424.18745l0.96764,-40.10866l36.7503,0.88662l-0.96765,40.10866z" data-paper-data="{&quot;origPos&quot;:null}" fill="#b9a568"/><path d="M345.23529,420.11771l0.89767,-37.20819l47.94766,1.15677l-0.89766,37.20818z" data-paper-data="{&quot;origPos&quot;:null}" fill="#e7cd81"/><path d="M351.41158,414.17178l0.62341,-25.84007l5.16801,0.12468l-0.62341,25.84006z" data-paper-data="{&quot;origPos&quot;:null}" fill="#d3bb76"/><path d="M381.56526,414.61199l0.62341,-25.84006l5.16801,0.12468l-0.62341,25.84006z" data-paper-data="{&quot;origPos&quot;:null}" fill="#d3bb76"/><path d="M360.6061,414.10633l0.62341,-25.84006l5.168,0.12468l-0.6234,25.84006z" data-paper-data="{&quot;origPos&quot;:null}" fill="#d3bb76"/><path d="M372.66479,414.39726l0.62341,-25.84006l5.168,0.12468l-0.62341,25.84006z" data-paper-data="{&quot;origPos&quot;:null}" fill="#d3bb76"/><path d="M361.99889,413.92927l0.13854,-5.74223l12.92003,0.3117l-0.13854,5.74223z" data-paper-data="{&quot;origPos&quot;:null}" fill="#d3bb76"/><path d="M363.33815,394.13936l0.13854,-5.74224l12.92003,0.3117l-0.13854,5.74224z" data-paper-data="{&quot;origPos&quot;:null}" fill="#d3bb76"/><path d="M352.83021,301.99888l0.96765,-40.10866l36.75029,0.88662l-0.96764,40.10867z" data-paper-data="{&quot;origPos&quot;:null}" fill="#b9a568"/><path d="M347.18288,297.92913l0.89767,-37.20819l47.94766,1.15676l-0.89766,37.20819z" data-paper-data="{&quot;origPos&quot;:null}" fill="#e7cd81"/><path d="M353.35915,291.98321l0.62341,-25.84006l5.16801,0.12468l-0.6234,25.84006z" data-paper-data="{&quot;origPos&quot;:null}" fill="#d3bb76"/><path d="M383.51283,292.42332l0.6234,-25.84006l5.16801,0.12468l-0.6234,25.84006z" data-paper-data="{&quot;origPos&quot;:null}" fill="#d3bb76"/><path d="M362.55366,291.91768l0.6234,-25.84007l5.16801,0.12468l-0.62341,25.84006z" data-paper-data="{&quot;origPos&quot;:null}" fill="#d3bb76"/><path d="M374.61236,292.20861l0.6234,-25.84006l5.16801,0.12468l-0.62341,25.84006z" data-paper-data="{&quot;origPos&quot;:null}" fill="#d3bb76"/><path d="M363.94643,291.74064l0.13854,-5.74223l12.92003,0.3117l-0.13853,5.74223z" data-paper-data="{&quot;origPos&quot;:null}" fill="#d3bb76"/><path d="M365.28572,271.9507l0.13854,-5.74224l12.92003,0.31171l-0.13854,5.74223z" data-paper-data="{&quot;origPos&quot;:null}" fill="#d3bb76"/></g><g data-paper-data="{&quot;origPos&quot;:null,&quot;origRot&quot;:0,&quot;index&quot;:null}" stroke="none" stroke-width="0" stroke-linecap="butt"><path d="M349.21557,469.29926l7.00233,-290.2461l36.97241,0.89198l-7.00234,290.24611z" data-paper-data="{&quot;origPos&quot;:null}" fill="#d3bb76"/><path d="M354.55193,254.23482l1.55505,-64.45658l37.32452,0.90047l-1.55505,64.45659z" data-paper-data="{&quot;origPos&quot;:null}" fill="#b9a568"/><path d="M348.90775,250.03365l1.5637,-64.81548l47.94766,1.15676l-1.56371,64.81548z" data-paper-data="{&quot;origPos&quot;:null}" fill="#e7cd81"/><path d="M356.46842,240.29054l1.14291,-47.37342l5.168,0.12468l-1.14291,47.37344z" data-paper-data="{&quot;origPos&quot;:null}" fill="#b9a568"/><path d="M356.50165,238.91241l1.14291,-47.37343l5.168,0.12469l-1.14291,47.37343z" data-paper-data="{&quot;origPos&quot;:null}" fill="#d3bb76"/><path d="M357.69506,196.59061l0.12052,-4.99575l24.97872,0.60262l-0.12052,4.99574z" data-paper-data="{&quot;origPos&quot;:null}" fill="#d3bb76"/><path d="M376.6758,231.47025l0.94342,-39.10462l5.16802,0.12468l-0.94342,39.10462z" data-paper-data="{&quot;origPos&quot;:null}" fill="#d3bb76"/><path d="M366.68015,231.40149l0.65666,-27.21819l5.16801,0.12468l-0.65665,27.21819z" data-paper-data="{&quot;origPos&quot;:null}" fill="#d3bb76"/><path d="M366.85117,231.45728l0.13299,-5.51254l14.81497,0.35742l-0.13299,5.51255z" data-paper-data="{&quot;origPos&quot;:null}" fill="#d3bb76"/><path d="M356.44638,241.20359l0.12052,-4.99574l33.93661,0.81874l-0.12053,4.99574z" data-paper-data="{&quot;origPos&quot;:null}" fill="#d3bb76"/><path d="M386.07755,241.86673l1.19278,-49.44064l5.16801,0.12468l-1.19278,49.44063z" data-paper-data="{&quot;origPos&quot;:null}" fill="#d3bb76"/><path d="M352.60437,376.42342l1.55505,-64.45658l37.32451,0.90047l-1.55505,64.45659z" data-paper-data="{&quot;origPos&quot;:null}" fill="#b9a568"/><path d="M346.96016,372.22226l1.56371,-64.81548l47.94766,1.15676l-1.56371,64.81548z" data-paper-data="{&quot;origPos&quot;:null}" fill="#e7cd81"/><path d="M354.52086,362.47917l1.1429,-47.37343l5.16801,0.12468l-1.14291,47.37344z" data-paper-data="{&quot;origPos&quot;:null}" fill="#b9a568"/><path d="M354.55409,361.10104l1.14291,-47.37343l5.168,0.12468l-1.14291,47.37343z" data-paper-data="{&quot;origPos&quot;:null}" fill="#d3bb76"/><path d="M355.74749,318.77914l0.12053,-4.99574l24.97872,0.60263l-0.12052,4.99575z" data-paper-data="{&quot;origPos&quot;:null}" fill="#d3bb76"/><path d="M374.72822,353.65886l0.94342,-39.10462l5.16801,0.12468l-0.94342,39.10462z" data-paper-data="{&quot;origPos&quot;:null}" fill="#d3bb76"/><path d="M364.73259,353.59003l0.65665,-27.21819l5.16802,0.12468l-0.65666,27.21819z" data-paper-data="{&quot;origPos&quot;:null}" fill="#d3bb76"/><path d="M364.90359,353.64589l0.13299,-5.51254l14.81497,0.35742l-0.13299,5.51255z" data-paper-data="{&quot;origPos&quot;:null}" fill="#d3bb76"/><path d="M354.4988,363.3922l0.12053,-4.99575l33.9366,0.81875l-0.12053,4.99574z" data-paper-data="{&quot;origPos&quot;:null}" fill="#d3bb76"/><path d="M384.12997,364.05534l1.19278,-49.44063l5.16801,0.12467l-1.19278,49.44064z" data-paper-data="{&quot;origPos&quot;:null}" fill="#d3bb76"/><path d="M351.88235,424.21155l0.96764,-40.10865l36.7503,0.88661l-0.96764,40.10867z" data-paper-data="{&quot;origPos&quot;:null}" fill="#b9a568"/><path d="M346.23502,420.14189l0.89767,-37.20819l47.94765,1.15676l-0.89766,37.20818z" data-paper-data="{&quot;origPos&quot;:null}" fill="#e7cd81"/><path d="M352.41129,414.19592l0.62341,-25.84006l5.16801,0.12468l-0.62341,25.84006z" data-paper-data="{&quot;origPos&quot;:null}" fill="#d3bb76"/><path d="M382.56497,414.63612l0.62341,-25.84006l5.168,0.12468l-0.62341,25.84006z" data-paper-data="{&quot;origPos&quot;:null}" fill="#d3bb76"/><path d="M361.60579,414.13045l0.62341,-25.84006l5.168,0.12468l-0.6234,25.84006z" data-paper-data="{&quot;origPos&quot;:null}" fill="#d3bb76"/><path d="M373.6645,414.42138l0.62341,-25.84006l5.168,0.12468l-0.62341,25.84006z" data-paper-data="{&quot;origPos&quot;:null}" fill="#d3bb76"/><path d="M362.99859,413.95339l0.13853,-5.74223l12.92003,0.3117l-0.13853,5.74222z" data-paper-data="{&quot;origPos&quot;:null}" fill="#d3bb76"/><path d="M364.33788,394.16345l0.13853,-5.74224l12.92003,0.3117l-0.13854,5.74224z" data-paper-data="{&quot;origPos&quot;:null}" fill="#d3bb76"/><path d="M353.82994,302.02297l0.96764,-40.10866l36.7503,0.88662l-0.96764,40.10866z" data-paper-data="{&quot;origPos&quot;:null}" fill="#b9a568"/><path d="M348.18258,297.95322l0.89766,-37.20819l47.94766,1.15677l-0.89767,37.20818z" data-paper-data="{&quot;origPos&quot;:null}" fill="#e7cd81"/><path d="M354.35885,292.0073l0.6234,-25.84007l5.16802,0.12468l-0.62341,25.84006z" data-paper-data="{&quot;origPos&quot;:null}" fill="#d3bb76"/><path d="M384.51255,292.44749l0.62341,-25.84007l5.168,0.12468l-0.6234,25.84006z" data-paper-data="{&quot;origPos&quot;:null}" fill="#d3bb76"/><path d="M363.55337,291.94183l0.62341,-25.84006l5.168,0.12468l-0.6234,25.84006z" data-paper-data="{&quot;origPos&quot;:null}" fill="#d3bb76"/><path d="M375.61207,292.23276l0.62341,-25.84006l5.16801,0.12468l-0.6234,25.84006z" data-paper-data="{&quot;origPos&quot;:null}" fill="#d3bb76"/><path d="M364.94614,291.76473l0.13854,-5.74223l12.92003,0.31171l-0.13854,5.74223z" data-paper-data="{&quot;origPos&quot;:null}" fill="#d3bb76"/><path d="M366.28545,271.97479l0.13854,-5.74224l12.92003,0.3117l-0.13854,5.74224z" data-paper-data="{&quot;origPos&quot;:null}" fill="#d3bb76"/></g><g data-paper-data="{&quot;origPos&quot;:null}" stroke="none" stroke-linecap="butt"><path d="M273.5505,297.90854l8.28566,-14.35289l22.20779,6.88753l-7.94537,21.95397l-16.06516,-1.37884z" data-paper-data="{&quot;origPos&quot;:null,&quot;origRot&quot;:0}" fill="#534c42" stroke-width="0"/><path d="M276.45636,296.34005l7.43586,-12.88079l19.93006,6.18112l-7.13047,19.70227l-14.41745,-1.23742z" data-paper-data="{&quot;origPos&quot;:null,&quot;origRot&quot;:0}" fill="url(#color-1)" stroke-width="NaN"/></g><g data-paper-data="{&quot;origPos&quot;:null,&quot;origRot&quot;:0}" stroke="none" stroke-linecap="butt"><path d="M200.11823,269.94696l-3.2574,-18.38386l24.14474,-10.15653l9.06025,24.69257l-14.8544,10.4551z" data-paper-data="{&quot;origPos&quot;:null,&quot;origRot&quot;:0}" fill="#534c42" stroke-width="0"/><path d="M201.48747,266.48807l-2.92329,-16.49834l21.66835,-9.11482l8.13097,22.16l-13.33088,9.38278z" data-paper-data="{&quot;origPos&quot;:null,&quot;origRot&quot;:0}" fill="url(#color-2)" stroke-width="NaN"/></g></g></g></svg>