<svg version="1.1" xmlns="http://www.w3.org/2000/svg" xmlns:xlink="http://www.w3.org/1999/xlink" width="111.8961" height="84.75239" viewBox="0,0,111.8961,84.75239"><defs><linearGradient x1="240" y1="137.6238" x2="240" y2="222.3762" gradientUnits="userSpaceOnUse" id="color-1"><stop offset="0" stop-color="#ffffff"/><stop offset="1" stop-color="#ffffff" stop-opacity="0"/></linearGradient></defs><g transform="translate(-184.05195,-137.6238)"><g data-paper-data="{&quot;isPaintingLayer&quot;:true}" fill="url(#color-1)" fill-rule="nonzero" stroke="none" stroke-width="0.5" stroke-linecap="butt" stroke-linejoin="miter" stroke-miterlimit="10" stroke-dasharray="" stroke-dashoffset="0" font-family="none" font-weight="none" font-size="none" text-anchor="none" style="mix-blend-mode: normal"><path d="M225.92405,222.3762c-10.90585,0 -20.18069,-6.98321 -23.59697,-16.72208c-9.15684,-2.56406 -16.43763,-10.26666 -17.98002,-20.27677c-2.00257,-12.9967 6.39051,-25.19586 18.98302,-28.14399c2.44503,-9.35103 10.22828,-16.82902 20.38902,-18.39462c7.17705,-1.10586 14.1109,0.95841 19.37798,5.14938c3.486,-3.12265 7.8875,-5.30333 12.85793,-6.06919c6.28006,-0.96765 12.3739,0.49194 17.32779,3.6797c7.46105,4.32557 12.47922,12.39846 12.47922,21.64341c0,0.74338 -0.03245,1.47919 -0.096,2.20607c5.98698,4.52079 9.87617,11.67251 9.94814,19.73573c0.0133,0.0811 0.02622,0.16236 0.03877,0.24377c2.10263,13.64608 -7.25518,26.41293 -20.90126,28.51556c-1.20649,0.1859 -2.40611,0.28222 -3.5921,0.2939c-4.50369,4.38352 -10.65431,7.08344 -17.43553,7.08344c-4.80901,0 -9.30089,-1.35784 -13.11314,-3.71104c-4.12337,2.99823 -9.19858,4.76673 -14.68685,4.76673z" data-paper-data="{&quot;origPos&quot;:null}"/></g></g></svg>