<svg version="1.1" xmlns="http://www.w3.org/2000/svg" xmlns:xlink="http://www.w3.org/1999/xlink" width="653.18499" height="267.02341" viewBox="0,0,653.18499,267.02341"><defs><linearGradient x1="339.84531" y1="34.72775" x2="339.84531" y2="54.87698" gradientUnits="userSpaceOnUse" id="color-1"><stop offset="0" stop-color="#817666"/><stop offset="1" stop-color="#786f5f"/></linearGradient></defs><g transform="translate(160.39324,146.13069)"><g data-paper-data="{&quot;isPaintingLayer&quot;:true}" fill="none" fill-rule="nonzero" stroke="none" stroke-width="none" stroke-linecap="none" stroke-linejoin="miter" stroke-miterlimit="10" stroke-dasharray="" stroke-dashoffset="0" font-family="none" font-weight="none" font-size="none" text-anchor="none" style="mix-blend-mode: normal"><path d="M311.31614,118.38986c0,0 2.17923,-7.03633 8.69496,-24.92449c5.50168,-15.10412 11.13277,-19.27965 11.13277,-19.27965c0,0 -5.18932,15.8568 -6.62802,31.10384c-1.76782,18.73515 2.34727,15.36771 2.34727,15.36771z" data-paper-data="{&quot;origPos&quot;:null,&quot;origRot&quot;:0}" fill="#8eb480" stroke="none" stroke-width="0" stroke-linecap="butt"/><path d="M309.3592,117.95183c0,0 2.92726,2.00444 1.66972,-9.14755c-1.02341,-9.07572 -4.71481,-18.5144 -4.71481,-18.5144c0,0 4.00565,2.48546 7.91924,11.47611c4.63493,10.64783 6.18512,14.83617 6.18512,14.83617z" data-paper-data="{&quot;origPos&quot;:null,&quot;origRot&quot;:0}" fill="#8eb480" stroke="none" stroke-width="0" stroke-linecap="butt"/><path d="M279.94333,-84.61797c0,-5.03845 4.08446,-9.12292 9.12291,-9.12292c5.03845,0 9.12291,4.08446 9.12291,9.12292c0,5.03845 -4.08446,9.12292 -9.12291,9.12292c-5.03845,0 -9.12291,-4.08447 -9.12291,-9.12292z" data-paper-data="{&quot;origPos&quot;:null}" fill="#6c4343" stroke="none" stroke-width="0.5" stroke-linecap="butt"/><path d="M289.06624,-93.74086c5.03844,0 9.12291,4.08449 9.12291,9.12292c0,5.03843 -4.08448,9.12291 -9.12291,9.12291c-5.03843,0 -5.03843,-18.24584 0,-18.24584z" data-paper-data="{&quot;origPos&quot;:null}" fill="#6c4343" stroke="none" stroke-width="0.5" stroke-linecap="butt"/><path d="M278.4505,-85.61318c0,-5.03845 4.08446,-9.12292 9.12291,-9.12292c5.03845,0 9.12291,4.08446 9.12291,9.12292c0,5.03845 -4.08446,9.12292 -9.12291,9.12292c-5.03845,0 -9.12291,-4.08447 -9.12291,-9.12292z" data-paper-data="{&quot;origPos&quot;:null}" fill="#c76262" stroke="none" stroke-width="0.5" stroke-linecap="butt"/><path d="M287.5734,-94.73608c5.03844,0 9.12291,4.08449 9.12291,9.12292c0,5.03843 -4.08448,9.12291 -9.12291,9.12291c-5.03843,0 -5.03843,-18.24584 0,-18.24584z" data-paper-data="{&quot;origPos&quot;:null}" fill="#c76e6e" stroke="none" stroke-width="0.5" stroke-linecap="butt"/><path d="M335.82709,111.83533l0.95829,-120.83513l12.96091,-1.81912l12.79329,11.24799l16.67645,-9.09237c0,0 -0.65612,87.31121 -0.81909,107.86174c-0.05432,6.85019 17.22429,12.97337 17.22429,12.97337c0,0 -16.21642,-0.08611 -26.00955,-0.14121c-13.5423,-0.07621 -33.7846,-0.19527 -33.7846,-0.19527z" data-paper-data="{&quot;origPos&quot;:null,&quot;origRot&quot;:0}" fill="#908472" stroke="none" stroke-width="0" stroke-linecap="butt"/><path d="M335.82709,111.83533l0.95829,-120.83513l12.96091,-1.81912l12.79329,11.24799l16.67645,-9.09237c0,0 -1.60381,35.36781 -0.49404,65.45846c0.69109,18.73833 -0.19382,25.85489 -0.32505,42.40328c-0.05432,6.85019 1.00787,12.88726 -8.78526,12.83215c-13.5423,-0.07621 -33.7846,-0.19527 -33.7846,-0.19527z" data-paper-data="{&quot;origPos&quot;:null,&quot;origRot&quot;:0}" fill="#887c6b" stroke="none" stroke-width="0" stroke-linecap="butt"/><path d="M335.82709,111.83533l0.95829,-120.83513l12.96091,-1.81912l12.79329,11.24799c0,0 16.02033,78.21884 15.85736,98.76937c-0.05432,6.85019 1.00787,12.88726 -8.78526,12.83215c-13.5423,-0.07621 -33.7846,-0.19527 -33.7846,-0.19527z" data-paper-data="{&quot;origPos&quot;:null,&quot;origRot&quot;:0}" fill="#847968" stroke="none" stroke-width="0" stroke-linecap="butt"/><path d="M335.82712,111.83533c0,0 0.12526,-15.7964 0.20545,-25.90692c0.24055,-30.33151 0.75283,-94.92821 0.75283,-94.92821l12.9609,-1.81912l12.79329,11.24799z" data-paper-data="{&quot;origPos&quot;:null,&quot;origRot&quot;:0}" fill="#817666" stroke="none" stroke-width="0" stroke-linecap="butt"/><path d="M378.76336,13.55977c0,0 -10.64939,-3.97577 -18.16014,-5.13126c-9.00652,-1.38561 -24.16334,-1.38003 -24.16334,-1.38003v-18.44871h42.3235v24.96001z" data-paper-data="{&quot;origPos&quot;:null,&quot;index&quot;:null}" fill="#5d554a" stroke="none" stroke-width="0" stroke-linecap="butt"/><path d="M378.76336,12.18594c0,0 -10.64939,-3.97577 -18.16014,-5.13126c-9.00652,-1.38561 -24.16334,-1.38003 -24.16334,-1.38003v-18.44871h42.3235v24.96001z" data-paper-data="{&quot;origPos&quot;:null,&quot;index&quot;:null}" fill="#6c6356" stroke="none" stroke-width="0" stroke-linecap="butt"/><path d="M351.10985,-13.89977c0,0 -18.72086,-1.50366 -25.14641,-9.41203c-4.58599,-5.64429 -3.06926,-25.31495 -3.06926,-25.31495z" fill="#8eb480" stroke="none" stroke-width="0" stroke-linecap="butt"/><path d="M322.65378,-48.62674c0,0 18.72086,1.50366 25.14641,9.41203c4.58599,5.64427 3.06926,25.31493 3.06926,25.31493z" data-paper-data="{&quot;index&quot;:null,&quot;origPos&quot;:null}" fill="#9dc78d" stroke="none" stroke-width="0" stroke-linecap="butt"/><path d="M311.6067,-14.46531c0,0 -13.67571,-12.87271 -13.75014,-23.06214c-0.05313,-7.27229 13.42332,-21.68135 13.42332,-21.68135z" fill="#9dc78d" stroke="none" stroke-width="0" stroke-linecap="butt"/><path d="M311.09218,-59.35906c0,0 13.67571,12.87271 13.75014,23.06214c0.05313,7.27229 -13.42332,21.68135 -13.42332,21.68135z" data-paper-data="{&quot;index&quot;:null,&quot;origPos&quot;:null}" fill="#9dc78d" stroke="none" stroke-width="0" stroke-linecap="butt"/><path d="M346.85029,-9.0012c0,0 4.34458,-18.27174 13.14135,-23.41439c6.27834,-3.67037 25.48674,0.83214 25.48674,0.83214z" fill="#8eb480" stroke="none" stroke-width="0" stroke-linecap="butt"/><path d="M385.51507,-31.82097c0,0 -4.34458,18.27174 -13.14135,23.41439c-6.27833,3.67037 -25.48673,-0.83214 -25.48673,-0.83214z" data-paper-data="{&quot;index&quot;:null,&quot;origPos&quot;:null}" fill="#9dc78d" stroke="none" stroke-width="0" stroke-linecap="butt"/><path d="M316.38284,-41.57333c0,0 -1.51673,-19.67066 3.06926,-25.31495c6.42555,-7.90837 25.14641,-9.41203 25.14641,-9.41203z" fill="#9dc78d" stroke="none" stroke-width="0" stroke-linecap="butt"/><path d="M344.35814,-76.30038c0,0 1.51673,19.67066 -3.06926,25.31493c-6.42555,7.90837 -25.14641,9.41203 -25.14641,9.41203z" data-paper-data="{&quot;index&quot;:null,&quot;origPos&quot;:null}" fill="#9dc78d" stroke="none" stroke-width="0" stroke-linecap="butt"/><path d="M296.08682,-14.71299c0,0 -13.47644,-14.40906 -13.42332,-21.68135c0.07442,-10.18943 13.75014,-23.06214 13.75014,-23.06214z" fill="#9dc78d" stroke="none" stroke-width="0" stroke-linecap="butt"/><path d="M296.22596,-59.30627c0,0 13.47644,14.40906 13.42332,21.68135c-0.07442,10.18943 -13.75014,23.06214 -13.75014,23.06214z" data-paper-data="{&quot;index&quot;:null,&quot;origPos&quot;:null}" fill="#9dc78d" stroke="none" stroke-width="0" stroke-linecap="butt"/><path d="M378.96707,-58.61671c0,0 -19.2084,4.50251 -25.48674,0.83214c-8.79677,-5.14265 -13.14135,-23.41439 -13.14135,-23.41439z" fill="#9dc78d" stroke="none" stroke-width="0" stroke-linecap="butt"/><path d="M340.37571,-80.96137c0,0 19.2084,-4.50251 25.48673,-0.83214c8.79677,5.14265 13.14135,23.41439 13.14135,23.41439z" data-paper-data="{&quot;index&quot;:null,&quot;origPos&quot;:null}" fill="#9dc78d" stroke="none" stroke-width="0" stroke-linecap="butt"/><path d="M355.05119,-44.28586c0,0 1.51673,19.67066 -3.06926,25.31495c-6.42555,7.90837 -25.14641,9.41203 -25.14641,9.41203z" fill="#8eb480" stroke="none" stroke-width="0" stroke-linecap="butt"/><path d="M327.07595,-9.55895c0,0 -1.51673,-19.67066 3.06926,-25.31493c6.42555,-7.90837 25.14641,-9.41203 25.14641,-9.41203z" data-paper-data="{&quot;index&quot;:null,&quot;origPos&quot;:null}" fill="#9dc78d" stroke="none" stroke-width="0" stroke-linecap="butt"/><path d="M366.66552,-54.86792c0,0 13.47644,14.40906 13.42332,21.68135c-0.07442,10.18943 -13.75014,23.06214 -13.75014,23.06214z" fill="#9dc78d" stroke="none" stroke-width="0" stroke-linecap="butt"/><path d="M366.52638,-10.27475c0,0 -13.47644,-14.40906 -13.42332,-21.68135c0.07442,-10.18943 13.75014,-23.06214 13.75014,-23.06214z" data-paper-data="{&quot;index&quot;:null,&quot;origPos&quot;:null}" fill="#9dc78d" stroke="none" stroke-width="0" stroke-linecap="butt"/><path d="M333.34684,-71.95946c0,0 18.72086,1.50366 25.14641,9.41203c4.58599,5.64429 3.06926,25.31495 3.06926,25.31495z" fill="#9dc78d" stroke="none" stroke-width="0" stroke-linecap="butt"/><path d="M361.8029,-37.23247c0,0 -18.72086,-1.50366 -25.14641,-9.41203c-4.58599,-5.64427 -3.06926,-25.31493 -3.06926,-25.31493z" data-paper-data="{&quot;index&quot;:null,&quot;origPos&quot;:null}" fill="#9dc78d" stroke="none" stroke-width="0" stroke-linecap="butt"/><path d="M372.85,-71.39395c0,0 13.67571,12.87271 13.75014,23.06214c0.05313,7.27229 -13.42332,21.68135 -13.42332,21.68135z" fill="#9dc78d" stroke="none" stroke-width="0" stroke-linecap="butt"/><path d="M373.3645,-26.50015c0,0 -13.67571,-12.87271 -13.75014,-23.06214c-0.05313,-7.27229 13.42332,-21.68135 13.42332,-21.68135z" data-paper-data="{&quot;index&quot;:null,&quot;origPos&quot;:null}" fill="#9dc78d" stroke="none" stroke-width="0" stroke-linecap="butt"/><path d="M337.60641,-76.8581c0,0 -4.34458,18.27174 -13.14135,23.41439c-6.27834,3.67037 -25.48674,-0.83214 -25.48674,-0.83214z" fill="#9dc78d" stroke="none" stroke-width="0" stroke-linecap="butt"/><path d="M298.94162,-54.03821c0,0 4.34458,-18.27174 13.14135,-23.41439c6.27833,-3.67037 25.48673,0.83214 25.48673,0.83214z" data-paper-data="{&quot;index&quot;:null,&quot;origPos&quot;:null}" fill="#9dc78d" stroke="none" stroke-width="0" stroke-linecap="butt"/><path d="M301.5129,-73.21738c0,0 -13.47644,-14.40906 -13.42332,-21.68135c0.07442,-10.18943 13.75014,-23.06214 13.75014,-23.06214z" fill="#9dc78d" stroke="none" stroke-width="0" stroke-linecap="butt"/><path d="M301.65202,-117.81055c0,0 13.47644,14.40906 13.42332,21.68135c-0.07442,10.18943 -13.75014,23.06214 -13.75014,23.06214z" data-paper-data="{&quot;index&quot;:null,&quot;origPos&quot;:null}" fill="#9dc78d" stroke="none" stroke-width="0" stroke-linecap="butt"/><path d="M295.3284,-56.69133c0,0 -13.67571,-12.87271 -13.75014,-23.06214c-0.05313,-7.27229 13.42332,-21.68135 13.42332,-21.68135z" fill="#9dc78d" stroke="none" stroke-width="0" stroke-linecap="butt"/><path d="M294.81393,-101.58505c0,0 13.67571,12.87271 13.75014,23.06214c0.05313,7.27229 -13.42332,21.68135 -13.42332,21.68135z" data-paper-data="{&quot;index&quot;:null,&quot;origPos&quot;:null}" fill="#9dc78d" stroke="none" stroke-width="0" stroke-linecap="butt"/><path d="M330.57203,-51.22716c0,0 4.34458,-18.27174 13.14135,-23.41439c6.27834,-3.67037 25.48674,0.83214 25.48674,0.83214z" fill="#9dc78d" stroke="none" stroke-width="0" stroke-linecap="butt"/><path d="M369.23682,-74.04707c0,0 -4.34458,18.27174 -13.14135,23.41439c-6.27833,3.67037 -25.48673,-0.83214 -25.48673,-0.83214z" data-paper-data="{&quot;index&quot;:null,&quot;origPos&quot;:null}" fill="#9dc78d" stroke="none" stroke-width="0" stroke-linecap="butt"/><path d="M356.57172,-122.30169c0,0 13.67571,12.87271 13.75014,23.06214c0.05313,7.27229 -13.42332,21.68135 -13.42332,21.68135z" fill="#9dc78d" stroke="none" stroke-width="0" stroke-linecap="butt"/><path d="M357.08622,-77.40801c0,0 -13.67571,-12.87271 -13.75014,-23.06214c-0.05313,-7.27229 13.42332,-21.68135 13.42332,-21.68135z" data-paper-data="{&quot;index&quot;:null,&quot;origPos&quot;:null}" fill="#9dc78d" stroke="none" stroke-width="0" stroke-linecap="butt"/><path d="M351.79556,-95.19367c0,0 1.51673,19.67066 -3.06926,25.31495c-6.42555,7.90837 -25.14641,9.41203 -25.14641,9.41203z" fill="#9dc78d" stroke="none" stroke-width="0" stroke-linecap="butt"/><path d="M323.82028,-60.46675c0,0 -1.51673,-19.67066 3.06926,-25.31493c6.42555,-7.90837 25.14641,-9.41203 25.14641,-9.41203z" data-paper-data="{&quot;index&quot;:null,&quot;origPos&quot;:null}" fill="#9dc78d" stroke="none" stroke-width="0" stroke-linecap="butt"/><path d="M363.40988,-105.77577c0,0 13.47644,14.40906 13.42332,21.68135c-0.07442,10.18943 -13.75014,23.06214 -13.75014,23.06214z" fill="#9dc78d" stroke="none" stroke-width="0" stroke-linecap="butt"/><path d="M363.27073,-61.1825c0,0 -13.47644,-14.40906 -13.42332,-21.68135c0.07442,-10.18943 13.75014,-23.06214 13.75014,-23.06214z" data-paper-data="{&quot;index&quot;:null,&quot;origPos&quot;:null}" fill="#9dc78d" stroke="none" stroke-width="0" stroke-linecap="butt"/><path d="M271.84783,-73.80947c0,0 19.2084,-4.50251 25.48674,-0.83214c8.79677,5.14265 13.14135,23.41439 13.14135,23.41439z" fill="#9dc78d" stroke="none" stroke-width="0" stroke-linecap="butt"/><path d="M310.43924,-51.46476c0,0 -19.2084,4.50251 -25.48673,0.83214c-8.79677,-5.14265 -13.14135,-23.41439 -13.14135,-23.41439z" data-paper-data="{&quot;index&quot;:null,&quot;origPos&quot;:null}" fill="#9dc78d" stroke="none" stroke-width="0" stroke-linecap="butt"/><path d="M327.88496,-67.64105c0,0 -13.67571,-12.87271 -13.75014,-23.06214c-0.05313,-7.27229 13.42332,-21.68135 13.42332,-21.68135z" fill="#9dc78d" stroke="none" stroke-width="0" stroke-linecap="butt"/><path d="M327.37046,-112.53471c0,0 13.67571,12.87271 13.75014,23.06214c0.05313,7.27229 -13.42332,21.68135 -13.42332,21.68135z" data-paper-data="{&quot;index&quot;:null,&quot;origPos&quot;:null}" fill="#9dc78d" stroke="none" stroke-width="0" stroke-linecap="butt"/><path d="M332.66114,-94.74899c0,0 -1.51673,-19.67066 3.06926,-25.31495c6.42555,-7.90837 25.14641,-9.41203 25.14641,-9.41203z" fill="#9dc78d" stroke="none" stroke-width="0" stroke-linecap="butt"/><path d="M360.63638,-129.47596c0,0 1.51673,19.67066 -3.06926,25.31493c-6.42555,7.90837 -25.14641,9.41203 -25.14641,9.41203z" data-paper-data="{&quot;index&quot;:null,&quot;origPos&quot;:null}" fill="#9dc78d" stroke="none" stroke-width="0" stroke-linecap="butt"/><path d="M321.04682,-84.16694c0,0 -13.47644,-14.40906 -13.42332,-21.68135c0.07442,-10.18943 13.75014,-23.06214 13.75014,-23.06214z" fill="#9dc78d" stroke="none" stroke-width="0" stroke-linecap="butt"/><path d="M321.18596,-128.7602c0,0 13.47644,14.40906 13.42332,21.68135c-0.07442,10.18943 -13.75014,23.06214 -13.75014,23.06214z" data-paper-data="{&quot;index&quot;:null,&quot;origPos&quot;:null}" fill="#9dc78d" stroke="none" stroke-width="0" stroke-linecap="butt"/><path d="M395.24534,-111.79238c0,0 -19.2084,4.50251 -25.48674,0.83214c-8.79677,-5.14265 -13.14135,-23.41439 -13.14135,-23.41439z" fill="#9dc78d" stroke="none" stroke-width="0" stroke-linecap="butt"/><path d="M356.65397,-134.137c0,0 19.2084,-4.50251 25.48673,-0.83214c8.79677,5.14265 13.14135,23.41439 13.14135,23.41439z" data-paper-data="{&quot;index&quot;:null,&quot;origPos&quot;:null}" fill="#9dc78d" stroke="none" stroke-width="0" stroke-linecap="butt"/><path d="M382.94377,-108.04359c0,0 13.47644,14.40906 13.42332,21.68135c-0.07442,10.18943 -13.75014,23.06214 -13.75014,23.06214z" fill="#8eb480" stroke="none" stroke-width="0" stroke-linecap="butt"/><path d="M382.80463,-63.45041c0,0 -13.47644,-14.40906 -13.42332,-21.68135c0.07442,-10.18943 13.75014,-23.06214 13.75014,-23.06214z" data-paper-data="{&quot;index&quot;:null,&quot;origPos&quot;:null}" fill="#9dc78d" stroke="none" stroke-width="0" stroke-linecap="butt"/><path d="M349.6251,-125.13513c0,0 18.72086,1.50366 25.14641,9.41203c4.58599,5.64429 3.06926,25.31495 3.06926,25.31495z" fill="#9dc78d" stroke="none" stroke-width="0" stroke-linecap="butt"/><path d="M378.08118,-90.40814c0,0 -18.72086,-1.50366 -25.14641,-9.41203c-4.58599,-5.64427 -3.06926,-25.31493 -3.06926,-25.31493z" data-paper-data="{&quot;index&quot;:null,&quot;origPos&quot;:null}" fill="#9dc78d" stroke="none" stroke-width="0" stroke-linecap="butt"/><path d="M389.12827,-124.56963c0,0 13.67571,12.87271 13.75014,23.06214c0.05313,7.27229 -13.42332,21.68135 -13.42332,21.68135z" fill="#8eb480" stroke="none" stroke-width="0" stroke-linecap="butt"/><path d="M389.64277,-79.67585c0,0 -13.67571,-12.87271 -13.75014,-23.06214c-0.05313,-7.27229 13.42332,-21.68135 13.42332,-21.68135z" data-paper-data="{&quot;index&quot;:null,&quot;origPos&quot;:null}" fill="#9dc78d" stroke="none" stroke-width="0" stroke-linecap="butt"/><path d="M353.88467,-130.03373c0,0 -4.34458,18.27174 -13.14135,23.41439c-6.27834,3.67037 -25.48674,-0.83214 -25.48674,-0.83214z" fill="#9dc78d" stroke="none" stroke-width="0" stroke-linecap="butt"/><path d="M315.21988,-107.21392c0,0 4.34458,-18.27174 13.14135,-23.41439c6.27833,-3.67037 25.48673,0.83214 25.48673,0.83214z" data-paper-data="{&quot;index&quot;:null,&quot;origPos&quot;:null}" fill="#9dc78d" stroke="none" stroke-width="0" stroke-linecap="butt"/><path d="M395.20427,-82.2685c0,0 1.51673,19.67066 -3.06926,25.31495c-6.42555,7.90837 -25.14641,9.41203 -25.14641,9.41203z" fill="#8eb480" stroke="none" stroke-width="0" stroke-linecap="butt"/><path d="M367.22901,-47.54152c0,0 -1.51673,-19.67066 3.06926,-25.31493c6.42555,-7.90837 25.14641,-9.41203 25.14641,-9.41203z" data-paper-data="{&quot;index&quot;:null,&quot;origPos&quot;:null}" fill="#9dc78d" stroke="none" stroke-width="0" stroke-linecap="butt"/><path d="M406.81857,-92.85056c0,0 13.47644,14.40906 13.42332,21.68135c-0.07442,10.18943 -13.75014,23.06214 -13.75014,23.06214z" fill="#8eb480" stroke="none" stroke-width="0" stroke-linecap="butt"/><path d="M406.67943,-48.25729c0,0 -13.47644,-14.40906 -13.42332,-21.68135c0.07442,-10.18943 13.75014,-23.06214 13.75014,-23.06214z" data-paper-data="{&quot;index&quot;:null,&quot;origPos&quot;:null}" fill="#9dc78d" stroke="none" stroke-width="0" stroke-linecap="butt"/><path d="M332.62005,-65.22517c0,0 19.2084,-4.50251 25.48674,-0.83214c8.79677,5.14265 13.14135,23.41439 13.14135,23.41439z" fill="#9dc78d" stroke="none" stroke-width="0" stroke-linecap="butt"/><path d="M371.21145,-42.8805c0,0 -19.2084,4.50251 -25.48673,0.83214c-8.79677,-5.14265 -13.14135,-23.41439 -13.14135,-23.41439z" data-paper-data="{&quot;index&quot;:null,&quot;origPos&quot;:null}" fill="#9dc78d" stroke="none" stroke-width="0" stroke-linecap="butt"/><path d="M378.2403,-51.88239c0,0 -18.72086,-1.50366 -25.14641,-9.41203c-4.58599,-5.64429 -3.06926,-25.31495 -3.06926,-25.31495z" fill="#9dc78d" stroke="none" stroke-width="0" stroke-linecap="butt"/><path d="M349.78421,-86.60935c0,0 18.72086,1.50366 25.14641,9.41203c4.58599,5.64427 3.06926,25.31493 3.06926,25.31493z" data-paper-data="{&quot;index&quot;:null,&quot;origPos&quot;:null}" fill="#9dc78d" stroke="none" stroke-width="0" stroke-linecap="butt"/><path d="M338.73714,-52.44793c0,0 -13.67571,-12.87271 -13.75014,-23.06214c-0.05313,-7.27229 13.42332,-21.68135 13.42332,-21.68135z" fill="#9dc78d" stroke="none" stroke-width="0" stroke-linecap="butt"/><path d="M338.22264,-97.34167c0,0 13.67571,12.87271 13.75014,23.06214c0.05313,7.27229 -13.42332,21.68135 -13.42332,21.68135z" data-paper-data="{&quot;index&quot;:null,&quot;origPos&quot;:null}" fill="#9dc78d" stroke="none" stroke-width="0" stroke-linecap="butt"/><path d="M373.98075,-46.98375c0,0 4.34458,-18.27174 13.14135,-23.41439c6.27834,-3.67037 25.48674,0.83214 25.48674,0.83214z" fill="#8eb480" stroke="none" stroke-width="0" stroke-linecap="butt"/><path d="M412.64554,-69.80365c0,0 -4.34458,18.27174 -13.14135,23.41439c-6.27833,3.67037 -25.48673,-0.83214 -25.48673,-0.83214z" data-paper-data="{&quot;index&quot;:null,&quot;origPos&quot;:null}" fill="#9dc78d" stroke="none" stroke-width="0" stroke-linecap="butt"/><path d="M410.07423,-50.6245c0,0 13.47644,14.40906 13.42332,21.68135c-0.07442,10.18943 -13.75014,23.06214 -13.75014,23.06214z" fill="#8db27e" stroke="none" stroke-width="0" stroke-linecap="butt"/><path d="M409.93509,-6.0313c0,0 -13.47644,-14.40906 -13.42332,-21.68135c0.07442,-10.18943 13.75014,-23.06214 13.75014,-23.06214z" data-paper-data="{&quot;index&quot;:null,&quot;origPos&quot;:null}" fill="#8db27e" stroke="none" stroke-width="0" stroke-linecap="butt"/><path d="M376.75556,-67.71608c0,0 18.72086,1.50366 25.14641,9.41203c4.58599,5.64429 3.06926,25.31495 3.06926,25.31495z" fill="#8eb480" stroke="none" stroke-width="0" stroke-linecap="butt"/><path d="M405.21163,-32.98906c0,0 -18.72086,-1.50366 -25.14641,-9.41203c-4.58599,-5.64427 -3.06926,-25.31493 -3.06926,-25.31493z" data-paper-data="{&quot;index&quot;:null,&quot;origPos&quot;:null}" fill="#9dc78d" stroke="none" stroke-width="0" stroke-linecap="butt"/><path d="M416.25872,-67.15049c0,0 13.67571,12.87271 13.75014,23.06214c0.05313,7.27229 -13.42332,21.68135 -13.42332,21.68135z" fill="#8db27e" stroke="none" stroke-width="0" stroke-linecap="butt"/><path d="M416.77322,-22.25676c0,0 -13.67571,-12.87271 -13.75014,-23.06214c-0.05313,-7.27229 13.42332,-21.68135 13.42332,-21.68135z" data-paper-data="{&quot;index&quot;:null,&quot;origPos&quot;:null}" fill="#8db27e" stroke="none" stroke-width="0" stroke-linecap="butt"/><path d="M381.01512,-72.61472c0,0 -4.34458,18.27174 -13.14135,23.41439c-6.27834,3.67037 -25.48674,-0.83214 -25.48674,-0.83214z" fill="#9dc78d" stroke="none" stroke-width="0" stroke-linecap="butt"/><path d="M342.35033,-49.79481c0,0 4.34458,-18.27174 13.14135,-23.41439c6.27833,-3.67037 25.48673,0.83214 25.48673,0.83214z" data-paper-data="{&quot;index&quot;:null,&quot;origPos&quot;:null}" fill="#9dc78d" stroke="none" stroke-width="0" stroke-linecap="butt"/><path d="M355.01539,-1.54024c0,0 -13.67571,-12.87271 -13.75014,-23.06214c-0.05313,-7.27229 13.42332,-21.68135 13.42332,-21.68135z" fill="#8eb480" stroke="none" stroke-width="0" stroke-linecap="butt"/><path d="M354.50092,-46.43387c0,0 13.67571,12.87271 13.75014,23.06214c0.05313,7.27229 -13.42332,21.68135 -13.42332,21.68135z" data-paper-data="{&quot;index&quot;:null,&quot;origPos&quot;:null}" fill="#9dc78d" stroke="none" stroke-width="0" stroke-linecap="butt"/><path d="M359.79159,-28.64816c0,0 -1.51673,-19.67066 3.06926,-25.31495c6.42555,-7.90837 25.14641,-9.41203 25.14641,-9.41203z" fill="#9dc78d" stroke="none" stroke-width="0" stroke-linecap="butt"/><path d="M387.76683,-63.3752c0,0 1.51673,19.67066 -3.06926,25.31493c-6.42555,7.90837 -25.14641,9.41203 -25.14641,9.41203z" data-paper-data="{&quot;index&quot;:null,&quot;origPos&quot;:null}" fill="#9dc78d" stroke="none" stroke-width="0" stroke-linecap="butt"/><path d="M348.17728,-18.06613c0,0 -13.47644,-14.40906 -13.42332,-21.68135c0.07442,-10.18943 13.75014,-23.06214 13.75014,-23.06214z" fill="#9dc78d" stroke="none" stroke-width="0" stroke-linecap="butt"/><path d="M348.31643,-62.65944c0,0 13.47644,14.40906 13.42332,21.68135c-0.07442,10.18943 -13.75014,23.06214 -13.75014,23.06214z" data-paper-data="{&quot;index&quot;:null,&quot;origPos&quot;:null}" fill="#9dc78d" stroke="none" stroke-width="0" stroke-linecap="butt"/><path d="M422.3758,-45.69154c0,0 -19.2084,4.50251 -25.48674,0.83214c-8.79677,-5.14265 -13.14135,-23.41439 -13.14135,-23.41439z" fill="#8eb480" stroke="none" stroke-width="0" stroke-linecap="butt"/><path d="M383.78439,-68.03619c0,0 19.2084,-4.50251 25.48673,-0.83214c8.79677,5.14265 13.14135,23.41439 13.14135,23.41439z" data-paper-data="{&quot;index&quot;:null,&quot;origPos&quot;:null}" fill="#9dc78d" stroke="none" stroke-width="0" stroke-linecap="butt"/><path d="M383.70217,-56.20084c0,0 13.67571,12.87271 13.75014,23.06214c0.05313,7.27229 -13.42332,21.68135 -13.42332,21.68135z" fill="#8eb480" stroke="none" stroke-width="0" stroke-linecap="butt"/><path d="M384.21668,-11.30716c0,0 -13.67571,-12.87271 -13.75014,-23.06214c-0.05313,-7.27229 13.42332,-21.68135 13.42332,-21.68135z" data-paper-data="{&quot;index&quot;:null,&quot;origPos&quot;:null}" fill="#9dc78d" stroke="none" stroke-width="0" stroke-linecap="butt"/><path d="M378.926,-29.09282c0,0 1.51673,19.67066 -3.06926,25.31495c-6.42555,7.90837 -25.14641,9.41203 -25.14641,9.41203z" fill="#8eb480" stroke="none" stroke-width="0" stroke-linecap="butt"/><path d="M350.95075,5.63409c0,0 -1.51673,-19.67066 3.06926,-25.31493c6.42555,-7.90837 25.14641,-9.41203 25.14641,-9.41203z" data-paper-data="{&quot;index&quot;:null,&quot;origPos&quot;:null}" fill="#9dc78d" stroke="none" stroke-width="0" stroke-linecap="butt"/><path d="M390.54032,-39.67486c0,0 13.47644,14.40906 13.42332,21.68135c-0.07442,10.18943 -13.75014,23.06214 -13.75014,23.06214z" fill="#8db27e" stroke="none" stroke-width="0" stroke-linecap="butt"/><path d="M390.40118,4.91829c0,0 -13.47644,-14.40906 -13.42332,-21.68135c0.07442,-10.18943 13.75014,-23.06214 13.75014,-23.06214z" data-paper-data="{&quot;index&quot;:null,&quot;origPos&quot;:null}" fill="#8db27e" stroke="none" stroke-width="0" stroke-linecap="butt"/><path d="M316.34179,-12.04955c0,0 19.2084,-4.50251 25.48674,-0.83214c8.79677,5.14265 13.14135,23.41439 13.14135,23.41439z" fill="#9dc78d" stroke="none" stroke-width="0" stroke-linecap="butt"/><path d="M354.93317,10.29518c0,0 -19.2084,4.50251 -25.48673,0.83214c-8.79677,-5.14265 -13.14135,-23.41439 -13.14135,-23.41439z" data-paper-data="{&quot;index&quot;:null,&quot;origPos&quot;:null}" fill="#9dc78d" stroke="none" stroke-width="0" stroke-linecap="butt"/><path d="M361.96203,1.2932c0,0 -18.72086,-1.50366 -25.14641,-9.41203c-4.58599,-5.64429 -3.06926,-25.31495 -3.06926,-25.31495z" fill="#9dc78d" stroke="none" stroke-width="0" stroke-linecap="butt"/><path d="M333.50595,-33.43368c0,0 18.72086,1.50366 25.14641,9.41203c4.58599,5.64427 3.06926,25.31493 3.06926,25.31493z" data-paper-data="{&quot;index&quot;:null,&quot;origPos&quot;:null}" fill="#9dc78d" stroke="none" stroke-width="0" stroke-linecap="butt"/><path d="M315.94757,2.89816c0,0 -13.67571,-12.87271 -13.75014,-23.06214c-0.05313,-7.27229 13.42332,-21.68135 13.42332,-21.68135z" fill="#9dc78d" stroke="none" stroke-width="0" stroke-linecap="butt"/><path d="M315.43307,-41.99555c0,0 13.67571,12.87271 13.75014,23.06214c0.05313,7.27229 -13.42332,21.68135 -13.42332,21.68135z" data-paper-data="{&quot;index&quot;:null,&quot;origPos&quot;:null}" fill="#9dc78d" stroke="none" stroke-width="0" stroke-linecap="butt"/><path d="M385.26362,-89.85114c0,0 -17.12131,-7.71962 -20.50868,-17.3298c-2.41762,-6.85889 5.63412,-24.87012 5.63412,-24.87012z" fill="#8eb480" stroke="none" stroke-width="0" stroke-linecap="butt"/><path d="M370.16268,-132.13204c0,0 17.12132,7.71963 20.5087,17.3298c2.41763,6.85889 -5.63412,24.87011 -5.63412,24.87011z" data-paper-data="{&quot;index&quot;:null,&quot;origPos&quot;:null}" fill="#9dc78d" stroke="none" stroke-width="0" stroke-linecap="butt"/><path d="M348.25775,-103.68538c0,0 -8.54253,-16.72594 -5.18159,-26.34539c2.39873,-6.86551 19.94006,-15.89529 19.94006,-15.89529z" fill="#9dc78d" stroke="none" stroke-width="0" stroke-linecap="butt"/><path d="M362.8901,-146.13069c0,0 8.54255,16.72594 5.1816,26.34539c-2.39874,6.86549 -19.94008,15.89528 -19.94008,15.89528z" data-paper-data="{&quot;index&quot;:null,&quot;origPos&quot;:null}" fill="#9dc78d" stroke="none" stroke-width="0" stroke-linecap="butt"/><path d="M379.60333,-86.67285c0,0 10.24341,-15.74181 20.25811,-17.62207c7.14762,-1.34195 23.71821,9.36556 23.71821,9.36556z" fill="#8eb480" stroke="none" stroke-width="0" stroke-linecap="butt"/><path d="M423.6942,-95.14074c0,0 -10.24342,15.74181 -20.25813,17.62206c-7.14761,1.34197 -23.71818,-9.36556 -23.71818,-9.36556z" data-paper-data="{&quot;index&quot;:null,&quot;origPos&quot;:null}" fill="#9dc78d" stroke="none" stroke-width="0" stroke-linecap="butt"/><path d="M414.39208,-120.92538c0,0 -5.19542,19.03268 -11.41417,22.80314c-8.71324,5.28291 -26.84721,0.395 -26.84721,0.395z" fill="#8eb480" stroke="none" stroke-width="0" stroke-linecap="butt"/><path d="M376.35706,-97.64627c0,0 5.19542,-19.03268 11.41415,-22.80314c8.71324,-5.28289 26.84721,-0.395 26.84721,-0.395z" data-paper-data="{&quot;index&quot;:null,&quot;origPos&quot;:null}" fill="#9dc78d" stroke="none" stroke-width="0" stroke-linecap="butt"/><path d="M420.2096,-120.46734c0,0 7.83759,18.10545 5.33882,24.93518c-3.50112,9.56933 -20.71275,17.0854 -20.71275,17.0854z" fill="#8db27e" stroke="none" stroke-width="0" stroke-linecap="butt"/><path d="M405.06299,-78.52506c0,0 -7.83759,-18.10545 -5.33882,-24.93518c3.5011,-9.56933 20.71274,-17.0854 20.71274,-17.0854z" data-paper-data="{&quot;index&quot;:null,&quot;origPos&quot;:null}" fill="#9dc78d" stroke="none" stroke-width="0" stroke-linecap="butt"/><path d="M349.72364,-125.95088c0,0 19.60281,2.22833 24.2786,7.79844c6.55141,7.80443 4.48976,26.47208 4.48976,26.47208z" fill="#9dc78d" stroke="none" stroke-width="0" stroke-linecap="butt"/><path d="M378.53741,-91.91644c0,0 -19.60279,-2.22835 -24.2786,-7.79844c-6.5514,-7.80443 -4.48975,-26.47208 -4.48975,-26.47208z" data-paper-data="{&quot;index&quot;:null,&quot;origPos&quot;:null}" fill="#9dc78d" stroke="none" stroke-width="0" stroke-linecap="butt"/><path d="M330.97369,-65.02137c0,0 -8.54255,-16.72594 -5.1816,-26.34539c2.39874,-6.86551 19.94008,-15.89529 19.94008,-15.89529z" fill="#9dc78d" stroke="none" stroke-width="0" stroke-linecap="butt"/><path d="M345.60605,-107.46672c0,0 8.54255,16.72594 5.1816,26.34539c-2.39874,6.86551 -19.94008,15.89529 -19.94008,15.89529z" data-paper-data="{&quot;index&quot;:null,&quot;origPos&quot;:null}" fill="#9dc78d" stroke="none" stroke-width="0" stroke-linecap="butt"/><path d="M344.5989,-88.93813c0,0 5.19542,-19.03269 11.41417,-22.80315c8.71324,-5.28289 26.8472,-0.395 26.8472,-0.395z" fill="#9dc78d" stroke="none" stroke-width="0" stroke-linecap="butt"/><path d="M382.63386,-112.21721c0,0 -5.19542,19.03268 -11.41415,22.80313c-8.71324,5.28291 -26.8472,0.395 -26.8472,0.395z" data-paper-data="{&quot;index&quot;:null,&quot;origPos&quot;:null}" fill="#9dc78d" stroke="none" stroke-width="0" stroke-linecap="butt"/><path d="M396.42182,-84.52503c0,0 7.83759,18.10545 5.33882,24.93518c-3.5011,9.56935 -20.71274,17.0854 -20.71274,17.0854z" fill="#8eb480" stroke="none" stroke-width="0" stroke-linecap="butt"/><path d="M381.27519,-42.58268c0,0 -7.83759,-18.10546 -5.33882,-24.9352c3.5011,-9.56935 20.71275,-17.0854 20.71275,-17.0854z" data-paper-data="{&quot;index&quot;:null,&quot;origPos&quot;:null}" fill="#9dc78d" stroke="none" stroke-width="0" stroke-linecap="butt"/><path d="M370.80396,-111.83759c0,0 17.12131,7.71962 20.50868,17.3298c2.41762,6.85889 -5.63412,24.87012 -5.63412,24.87012z" fill="#9dc78d" stroke="none" stroke-width="0" stroke-linecap="butt"/><path d="M385.90489,-69.55674c0,0 -17.12131,-7.71961 -20.50868,-17.3298c-2.41763,-6.85889 5.63412,-24.87012 5.63412,-24.87012z" data-paper-data="{&quot;index&quot;:null,&quot;origPos&quot;:null}" fill="#9dc78d" stroke="none" stroke-width="0" stroke-linecap="butt"/><path d="M407.80983,-98.00342c0,0 8.54253,16.72594 5.18159,26.34539c-2.39874,6.86549 -19.94008,15.89528 -19.94008,15.89528z" fill="#9dc78d" stroke="none" stroke-width="0" stroke-linecap="butt"/><path d="M393.17749,-55.5581c0,0 -8.54255,-16.72594 -5.1816,-26.34539c2.39874,-6.86551 19.94008,-15.89529 19.94008,-15.89529z" data-paper-data="{&quot;index&quot;:null,&quot;origPos&quot;:null}" fill="#9dc78d" stroke="none" stroke-width="0" stroke-linecap="butt"/><path d="M357.06793,-61.61212c0,0 -7.83759,-18.10546 -5.33882,-24.9352c3.5011,-9.56933 20.71274,-17.0854 20.71274,-17.0854z" fill="#9dc78d" stroke="none" stroke-width="0" stroke-linecap="butt"/><path d="M372.21455,-103.5544c0,0 7.83758,18.10545 5.33881,24.93518c-3.5011,9.56933 -20.71274,17.0854 -20.71274,17.0854z" data-paper-data="{&quot;index&quot;:null,&quot;origPos&quot;:null}" fill="#9dc78d" stroke="none" stroke-width="0" stroke-linecap="butt"/><path d="M382.68578,-34.29945c0,0 -17.12131,-7.71962 -20.50868,-17.3298c-2.41762,-6.85889 5.63412,-24.87013 5.63412,-24.87013z" fill="#9dc78d" stroke="none" stroke-width="0" stroke-linecap="butt"/><path d="M367.58482,-76.58038c0,0 17.12131,7.71962 20.50868,17.3298c2.41763,6.85889 -5.63412,24.87012 -5.63412,24.87012z" data-paper-data="{&quot;index&quot;:null,&quot;origPos&quot;:null}" fill="#9dc78d" stroke="none" stroke-width="0" stroke-linecap="butt"/><path d="M345.67988,-48.1336c0,0 -8.54255,-16.72594 -5.1816,-26.34539c2.39874,-6.86551 19.94008,-15.89529 19.94008,-15.89529z" fill="#9dc78d" stroke="none" stroke-width="0" stroke-linecap="butt"/><path d="M360.31224,-90.57895c0,0 8.54255,16.72594 5.1816,26.34539c-2.39874,6.86551 -19.94008,15.89529 -19.94008,15.89529z" data-paper-data="{&quot;index&quot;:null,&quot;origPos&quot;:null}" fill="#9dc78d" stroke="none" stroke-width="0" stroke-linecap="butt"/><path d="M425.43938,-94.71654c0,0 8.54255,16.72592 5.1816,26.34537c-2.39874,6.86549 -19.94008,15.89529 -19.94008,15.89529z" fill="#8db27e" stroke="none" stroke-width="0" stroke-linecap="butt"/><path d="M410.80704,-52.2712c0,0 -8.54255,-16.72592 -5.1816,-26.34537c2.39873,-6.86549 19.94008,-15.89529 19.94008,-15.89529z" data-paper-data="{&quot;index&quot;:null,&quot;origPos&quot;:null}" fill="#8db27e" stroke="none" stroke-width="0" stroke-linecap="butt"/><path d="M411.8142,-65.37372c0,0 -5.19542,19.03268 -11.41417,22.80314c-8.71324,5.28291 -26.8472,0.395 -26.8472,0.395z" fill="#8db27e" stroke="none" stroke-width="0" stroke-linecap="butt"/><path d="M373.77921,-42.09461c0,0 5.19542,-19.03268 11.41415,-22.80313c8.71324,-5.28289 26.8472,-0.395 26.8472,-0.395z" data-paper-data="{&quot;index&quot;:null,&quot;origPos&quot;:null}" fill="#9dc78d" stroke="none" stroke-width="0" stroke-linecap="butt"/><path d="M426.31348,-71.42704c0,0 7.83759,18.10545 5.33882,24.93518c-3.50112,9.56933 -20.71275,17.0854 -20.71275,17.0854z" fill="#8db27e" stroke="none" stroke-width="0" stroke-linecap="butt"/><path d="M411.16689,-29.48466c0,0 -7.83759,-18.10546 -5.33882,-24.9352c3.5011,-9.56935 20.71274,-17.0854 20.71274,-17.0854z" data-paper-data="{&quot;index&quot;:null,&quot;origPos&quot;:null}" fill="#8db27e" stroke="none" stroke-width="0" stroke-linecap="butt"/><path d="M347.14578,-70.39928c0,0 19.60281,2.22833 24.27861,7.79844c6.55141,7.80443 4.48975,26.47208 4.48975,26.47208z" fill="#9dc78d" stroke="none" stroke-width="0" stroke-linecap="butt"/><path d="M375.9596,-36.36476c0,0 -19.60279,-2.22835 -24.2786,-7.79844c-6.55141,-7.80443 -4.48975,-26.47208 -4.48975,-26.47208z" data-paper-data="{&quot;index&quot;:null,&quot;origPos&quot;:null}" fill="#9dc78d" stroke="none" stroke-width="0" stroke-linecap="butt"/><path d="M308.67161,-4.30913c0,-6.47743 5.25098,-11.72841 11.72841,-11.72841c6.47743,0 11.72841,5.25098 11.72841,11.72841c0,6.47743 -5.25098,11.72843 -11.72841,11.72843c-6.47743,0 -11.72841,-5.25099 -11.72841,-11.72843z" data-paper-data="{&quot;origPos&quot;:null}" fill="#6c4343" stroke="none" stroke-width="0.5" stroke-linecap="butt"/><path d="M320.40004,-16.03752c6.47742,0 11.72841,5.25101 11.72841,11.72843c0,6.47742 -5.25101,11.72841 -11.72841,11.72841c-6.47742,0 -6.47742,-23.45684 0,-23.45684z" data-paper-data="{&quot;origPos&quot;:null}" fill="#6c4343" stroke="none" stroke-width="0.5" stroke-linecap="butt"/><path d="M306.75239,-5.5886c0,-6.47743 5.25098,-11.72841 11.72841,-11.72841c6.47743,0 11.72841,5.25098 11.72841,11.72841c0,6.47743 -5.25098,11.72843 -11.72841,11.72843c-6.47743,0 -11.72841,-5.25099 -11.72841,-11.72843z" data-paper-data="{&quot;origPos&quot;:null}" fill="#c76e6e" stroke="none" stroke-width="0.5" stroke-linecap="butt"/><path d="M318.48084,-17.31698c6.47742,0 11.72841,5.25101 11.72841,11.72843c0,6.47742 -5.25101,11.72841 -11.72841,11.72841c-6.47742,0 -6.47742,-23.45684 0,-23.45684z" data-paper-data="{&quot;origPos&quot;:null}" fill="#c76262" stroke="none" stroke-width="0.5" stroke-linecap="butt"/><path d="M277.44777,-50.89722c0,-6.47743 5.25099,-11.72843 11.72843,-11.72843c6.47743,0 11.72841,5.25098 11.72841,11.72843c0,6.47743 -5.25098,11.72843 -11.72841,11.72843c-6.47743,0 -11.72843,-5.25099 -11.72843,-11.72843z" data-paper-data="{&quot;origPos&quot;:null}" fill="#6c4343" stroke="none" stroke-width="0.5" stroke-linecap="butt"/><path d="M289.17619,-62.62565c6.47742,0 11.72841,5.25102 11.72841,11.72843c0,6.47741 -5.25101,11.72841 -11.72841,11.72841c-6.47742,0 -6.47742,-23.45684 0,-23.45684z" data-paper-data="{&quot;origPos&quot;:null}" fill="#6c4343" stroke="none" stroke-width="0.5" stroke-linecap="butt"/><path d="M275.5286,-52.17667c0,-6.47743 5.25098,-11.72843 11.72841,-11.72843c6.47743,0 11.72843,5.25098 11.72843,11.72843c0,6.47743 -5.25099,11.72843 -11.72843,11.72843c-6.47743,0 -11.72841,-5.25099 -11.72841,-11.72843z" data-paper-data="{&quot;origPos&quot;:null}" fill="#c76e6e" stroke="none" stroke-width="0.5" stroke-linecap="butt"/><path d="M287.25701,-63.9051c6.47742,0 11.72843,5.25102 11.72843,11.72843c0,6.47741 -5.25101,11.72841 -11.72843,11.72841c-6.47742,0 -6.47742,-23.45684 0,-23.45684z" data-paper-data="{&quot;origPos&quot;:null}" fill="#c76262" stroke="none" stroke-width="0.5" stroke-linecap="butt"/><path d="M427.68731,-64.55799c0,0 7.83759,18.10545 5.33882,24.93518c-3.50112,9.56933 -20.71275,17.0854 -20.71275,17.0854z" fill="#8db27e" stroke="none" stroke-width="0" stroke-linecap="butt"/><path d="M412.54072,-22.61562c0,0 -7.83759,-18.10546 -5.33882,-24.9352c3.5011,-9.56935 20.71274,-17.0854 20.71274,-17.0854z" data-paper-data="{&quot;index&quot;:null,&quot;origPos&quot;:null}" fill="#8db27e" stroke="none" stroke-width="0" stroke-linecap="butt"/><path d="M344.70364,-62.36924c0,0 -7.83759,-18.10546 -5.33882,-24.9352c3.5011,-9.56933 20.71274,-17.0854 20.71274,-17.0854z" fill="#9dc78d" stroke="none" stroke-width="0" stroke-linecap="butt"/><path d="M359.85027,-104.31152c0,0 7.83758,18.10545 5.33881,24.93518c-3.5011,9.56933 -20.71274,17.0854 -20.71274,17.0854z" data-paper-data="{&quot;index&quot;:null,&quot;origPos&quot;:null}" fill="#9dc78d" stroke="none" stroke-width="0" stroke-linecap="butt"/><path d="M275.71691,-64.94038c0,0 19.2084,-4.50251 25.48674,-0.83214c8.79677,5.14265 13.14135,23.41439 13.14135,23.41439z" fill="#9dc78d" stroke="none" stroke-width="0" stroke-linecap="butt"/><path d="M314.30827,-42.59571c0,0 -19.2084,4.50251 -25.48673,0.83214c-8.79677,-5.14265 -13.14135,-23.41439 -13.14135,-23.41439z" data-paper-data="{&quot;index&quot;:null,&quot;origPos&quot;:null}" fill="#9dc78d" stroke="none" stroke-width="0" stroke-linecap="butt"/><path d="M328.31183,9.76715c0,0 -13.67571,-12.87271 -13.75014,-23.06214c-0.05313,-7.27229 13.42332,-21.68135 13.42332,-21.68135z" fill="#9dc78d" stroke="none" stroke-width="0" stroke-linecap="butt"/><path d="M327.79736,-35.12649c0,0 13.67571,12.87271 13.75014,23.06214c0.05313,7.27229 -13.42332,21.68135 -13.42332,21.68135z" data-paper-data="{&quot;index&quot;:null,&quot;origPos&quot;:null}" fill="#9dc78d" stroke="none" stroke-width="0" stroke-linecap="butt"/><path d="M328.39689,52.12936c0,0 4.93508,-6.93686 6.92137,-11.37681c1.05187,-2.35125 0.86355,-6.02479 0.86355,-6.02479l16.02779,0.91588l-3.20555,19.23335z" data-paper-data="{&quot;origPos&quot;:null}" fill="url(#color-1)" stroke="none" stroke-width="NaN" stroke-linecap="butt"/><path d="M330.75355,57.25825c0,-6.28579 5.09564,-11.38143 11.38143,-11.38143c6.28579,0 11.38143,5.09564 11.38143,11.38143c0,6.28579 -5.09564,11.38143 -11.38143,11.38143c-6.28579,0 -11.38143,-5.09564 -11.38143,-11.38143z" data-paper-data="{&quot;origPos&quot;:null}" fill="#786f5f" stroke="#726c61" stroke-width="5" stroke-linecap="butt"/><path d="M330.11414,57.25825c0,-6.63893 5.38192,-12.02084 12.02084,-12.02084c6.63893,0 12.02084,5.38192 12.02084,12.02084c0,6.63893 -5.38192,12.02084 -12.02084,12.02084c-6.63893,0 -12.02084,-5.38192 -12.02084,-12.02084z" data-paper-data="{&quot;origPos&quot;:null}" fill="#786f5f" stroke="#746d63" stroke-width="5" stroke-linecap="butt"/><path d="M334.46209,57.25825c0,-4.23761 3.43525,-7.67288 7.67288,-7.67288c4.23761,0 7.67288,3.43525 7.67288,7.67288c0,4.23761 -3.43525,7.67288 -7.67288,7.67288c-4.23761,0 -7.67288,-3.43525 -7.67288,-7.67288z" data-paper-data="{&quot;origPos&quot;:null}" fill="#7d7364" stroke="none" stroke-width="5" stroke-linecap="butt"/><path d="M362.70926,101.90706c0,-3.0531 2.47503,-5.52812 5.52812,-5.52812c3.0531,0 5.52812,2.47503 5.52812,5.52812c0,3.0531 -2.47503,5.52812 -5.52812,5.52812c-3.0531,0 -5.52812,-2.47503 -5.52812,-5.52812z" data-paper-data="{&quot;origPos&quot;:null}" fill="#786f5f" stroke="#726c61" stroke-width="5" stroke-linecap="butt"/><path d="M362.3987,101.90706c0,-3.22462 2.61407,-5.83869 5.83869,-5.83869c3.22462,0 5.83869,2.61407 5.83869,5.83869c0,3.22462 -2.61407,5.83869 -5.83869,5.83869c-3.22462,0 -5.83869,-2.61407 -5.83869,-5.83869z" data-paper-data="{&quot;origPos&quot;:null}" fill="#786f5f" stroke="#746d63" stroke-width="1" stroke-linecap="butt"/><path d="M364.51056,101.90706c0,-2.05827 1.66855,-3.72683 3.72683,-3.72683c2.05827,0 3.72683,1.66855 3.72683,3.72683c0,2.05827 -1.66855,3.72683 -3.72683,3.72683c-2.05827,0 -3.72683,-1.66855 -3.72683,-3.72683z" data-paper-data="{&quot;origPos&quot;:null}" fill="#7d7364" stroke="none" stroke-width="0.5" stroke-linecap="butt"/><path d="M330.09959,-82.88484c0,0 -7.83759,-18.10546 -5.33882,-24.9352c3.5011,-9.56935 20.71275,-17.0854 20.71275,-17.0854z" fill="#9dc78d" stroke="none" stroke-width="0" stroke-linecap="butt"/><path d="M345.24621,-124.82722c0,0 7.83759,18.10545 5.33882,24.93518c-3.5011,9.56935 -20.71274,17.0854 -20.71274,17.0854z" data-paper-data="{&quot;index&quot;:null,&quot;origPos&quot;:null}" fill="#9dc78d" stroke="none" stroke-width="0" stroke-linecap="butt"/><path d="M409.26728,-83.91266c0,0 -19.60281,-2.22835 -24.2786,-7.79845c-6.5514,-7.80443 -4.48975,-26.47208 -4.48975,-26.47208z" fill="#9dc78d" stroke="none" stroke-width="0" stroke-linecap="butt"/><path d="M380.4535,-117.94706c0,0 19.60281,2.22835 24.2786,7.79844c6.5514,7.80443 4.48975,26.47208 4.48975,26.47208z" data-paper-data="{&quot;index&quot;:null,&quot;origPos&quot;:null}" fill="#9dc78d" stroke="none" stroke-width="0" stroke-linecap="butt"/><path d="M376.46424,-115.01589c0,0 -10.24341,15.74181 -20.25811,17.62207c-7.14761,1.34197 -23.71819,-9.36556 -23.71819,-9.36556z" fill="#9dc78d" stroke="none" stroke-width="0" stroke-linecap="butt"/><path d="M332.37334,-106.54801c0,0 10.24341,-15.74181 20.25811,-17.62206c7.14761,-1.34197 23.71819,9.36554 23.71819,9.36554z" data-paper-data="{&quot;index&quot;:null,&quot;origPos&quot;:null}" fill="#9dc78d" stroke="none" stroke-width="0" stroke-linecap="butt"/><path d="M328.64333,-15.79822c0,0 -13.47644,-14.40906 -13.42332,-21.68135c0.07442,-10.18943 13.75014,-23.06214 13.75014,-23.06214z" fill="#9dc78d" stroke="none" stroke-width="0" stroke-linecap="butt"/><path d="M328.78247,-60.39149c0,0 13.47644,14.40906 13.42332,21.68135c-0.07442,10.18943 -13.75014,23.06214 -13.75014,23.06214z" data-paper-data="{&quot;index&quot;:null,&quot;origPos&quot;:null}" fill="#9dc78d" stroke="none" stroke-width="0" stroke-linecap="butt"/><path d="M334.83155,-56.1258c0,0 -18.72086,-1.50366 -25.14641,-9.41203c-4.58599,-5.64429 -3.06926,-25.31495 -3.06926,-25.31495z" fill="#9dc78d" stroke="none" stroke-width="0" stroke-linecap="butt"/><path d="M306.3755,-90.8528c0,0 18.72086,1.50366 25.14641,9.41203c4.58599,5.64427 3.06926,25.31493 3.06926,25.31493z" data-paper-data="{&quot;index&quot;:null,&quot;origPos&quot;:null}" fill="#9dc78d" stroke="none" stroke-width="0" stroke-linecap="butt"/><path d="M357.70246,6.19184c0,0 4.34458,-18.27174 13.14135,-23.41439c6.27834,-3.67037 25.48674,0.83214 25.48674,0.83214z" data-paper-data="{&quot;origPos&quot;:null}" fill="#8db27e" stroke="none" stroke-width="0" stroke-linecap="butt"/><path d="M396.36727,-16.62792c0,0 -4.34458,18.27174 -13.14135,23.41439c-6.27833,3.67037 -25.48673,-0.83214 -25.48673,-0.83214z" data-paper-data="{&quot;index&quot;:null,&quot;origPos&quot;:null}" fill="#8db27e" stroke="none" stroke-width="0" stroke-linecap="butt"/><path d="M400.21217,-30.78533c0,-6.47743 5.25098,-11.72843 11.72841,-11.72843c6.47743,0 11.72841,5.25098 11.72841,11.72843c0,6.47743 -5.25098,11.72843 -11.72841,11.72843c-6.47743,0 -11.72841,-5.25099 -11.72841,-11.72843z" data-paper-data="{&quot;origPos&quot;:null}" fill="#6c4343" stroke="none" stroke-width="0.5" stroke-linecap="butt"/><path d="M411.94062,-42.5137c6.47741,0 11.72841,5.25102 11.72841,11.72843c0,6.47741 -5.25101,11.72841 -11.72841,11.72841c-6.47741,0 -6.47741,-23.45684 0,-23.45684z" data-paper-data="{&quot;origPos&quot;:null}" fill="#6c4343" stroke="none" stroke-width="0.5" stroke-linecap="butt"/><path d="M398.29298,-32.06479c0,-6.47743 5.25098,-11.72843 11.72841,-11.72843c6.47743,0 11.72841,5.25098 11.72841,11.72843c0,6.47743 -5.25098,11.72843 -11.72841,11.72843c-6.47743,0 -11.72841,-5.25099 -11.72841,-11.72843z" data-paper-data="{&quot;origPos&quot;:null}" fill="#c76e6e" stroke="none" stroke-width="0.5" stroke-linecap="butt"/><path d="M410.0214,-43.79316c6.47741,0 11.72841,5.25102 11.72841,11.72843c0,6.47741 -5.25101,11.72841 -11.72841,11.72841c-6.47741,0 -6.47741,-23.45684 0,-23.45684z" data-paper-data="{&quot;origPos&quot;:null}" fill="#c76262" stroke="none" stroke-width="0.5" stroke-linecap="butt"/><path d="M380.59487,119.65729c0,0 4.1151,3.36743 2.34727,-15.36771c-1.4387,-15.24704 -6.62802,-31.10384 -6.62802,-31.10384c0,0 5.63109,4.17553 11.13277,19.27965c6.51573,17.88816 8.69495,24.92449 8.69495,24.92449z" data-paper-data="{&quot;origPos&quot;:null,&quot;origRot&quot;:0,&quot;index&quot;:null}" fill="#8eb480" stroke="none" stroke-width="0" stroke-linecap="butt"/><path d="M387.03952,115.60216c0,0 1.55019,-4.18834 6.18512,-14.83618c3.9136,-8.99065 7.91924,-11.47611 7.91924,-11.47611c0,0 -3.69139,9.43868 -4.71481,18.5144c-1.25753,11.152 1.66972,9.14756 1.66972,9.14756z" data-paper-data="{&quot;origPos&quot;:null,&quot;origRot&quot;:0,&quot;index&quot;:null}" fill="#8eb480" stroke="none" stroke-width="0" stroke-linecap="butt"/><path d="M377.02547,-31.1212c0,0 10.24341,-15.74181 20.25811,-17.62206c7.14762,-1.34197 23.71821,9.36554 23.71821,9.36554z" fill="#8db27e" stroke="none" stroke-width="0" stroke-linecap="butt"/><path d="M421.11639,-39.58905c0,0 -10.24341,15.74181 -20.25811,17.62206c-7.14761,1.34197 -23.71819,-9.36556 -23.71819,-9.36556z" data-paper-data="{&quot;index&quot;:null,&quot;origPos&quot;:null}" fill="#8db27e" stroke="none" stroke-width="0" stroke-linecap="butt"/><path d="M298.00005,-64.99999v-7h14v7z" data-paper-data="{&quot;origPos&quot;:null}" fill="#9dc78d" stroke="none" stroke-width="0" stroke-linecap="butt"/><path d="M324.00005,4.00001v-21h16v21z" data-paper-data="{&quot;origPos&quot;:null}" fill="#9dc78d" stroke="none" stroke-width="0" stroke-linecap="butt"/><path d="M308.94333,-56.61795c0,-5.03845 4.08446,-9.12292 9.12291,-9.12292c5.03845,0 9.12291,4.08446 9.12291,9.12292c0,5.03845 -4.08446,9.12292 -9.12291,9.12292c-5.03845,0 -9.12291,-4.08447 -9.12291,-9.12292z" data-paper-data="{&quot;origPos&quot;:null}" fill="#6c4343" stroke="none" stroke-width="0.5" stroke-linecap="butt"/><path d="M318.06624,-65.74089c5.03844,0 9.12291,4.08449 9.12291,9.12292c0,5.03843 -4.08448,9.12291 -9.12291,9.12291c-5.03843,0 -5.03843,-18.24584 0,-18.24584z" data-paper-data="{&quot;origPos&quot;:null}" fill="#6c4343" stroke="none" stroke-width="0.5" stroke-linecap="butt"/><path d="M307.45049,-57.61317c0,-5.03845 4.08446,-9.12292 9.12291,-9.12292c5.03845,0 9.12291,4.08446 9.12291,9.12292c0,5.03845 -4.08446,9.12292 -9.12291,9.12292c-5.03845,0 -9.12291,-4.08447 -9.12291,-9.12292z" data-paper-data="{&quot;origPos&quot;:null}" fill="#c76e6e" stroke="none" stroke-width="0.5" stroke-linecap="butt"/><path d="M316.5734,-66.73609c5.03844,0 9.12291,4.08449 9.12291,9.12292c0,5.03843 -4.08448,9.12291 -9.12291,9.12291c-5.03843,0 -5.03843,-18.24584 0,-18.24584z" data-paper-data="{&quot;origPos&quot;:null}" fill="#c76262" stroke="none" stroke-width="0.5" stroke-linecap="butt"/><path d="M381.94333,-83.61796c0,-5.03845 4.08446,-9.12292 9.12291,-9.12292c5.03845,0 9.12291,4.08446 9.12291,9.12292c0,5.03845 -4.08446,9.12292 -9.12291,9.12292c-5.03845,0 -9.12291,-4.08447 -9.12291,-9.12292z" data-paper-data="{&quot;origPos&quot;:null}" fill="#6c4343" stroke="none" stroke-width="0.5" stroke-linecap="butt"/><path d="M391.06626,-92.74086c5.03844,0 9.12291,4.08449 9.12291,9.12292c0,5.03843 -4.08448,9.12291 -9.12291,9.12291c-5.03843,0 -5.03843,-18.24584 0,-18.24584z" data-paper-data="{&quot;origPos&quot;:null}" fill="#6c4343" stroke="none" stroke-width="0.5" stroke-linecap="butt"/><path d="M380.45049,-84.61318c0,-5.03845 4.08446,-9.12292 9.12291,-9.12292c5.03845,0 9.12291,4.08446 9.12291,9.12292c0,5.03845 -4.08446,9.12292 -9.12291,9.12292c-5.03845,0 -9.12291,-4.08447 -9.12291,-9.12292z" data-paper-data="{&quot;origPos&quot;:null}" fill="#c76e6e" stroke="none" stroke-width="0.5" stroke-linecap="butt"/><path d="M389.57342,-93.73611c5.03844,0 9.12291,4.08449 9.12291,9.12292c0,5.03843 -4.08448,9.12291 -9.12291,9.12291c-5.03843,0 -5.03843,-18.24584 0,-18.24584z" data-paper-data="{&quot;origPos&quot;:null}" fill="#c76262" stroke="none" stroke-width="0.5" stroke-linecap="butt"/><path d="M356.94333,-8.61805c0,-5.03845 4.08446,-9.12292 9.12291,-9.12292c5.03845,0 9.12291,4.08446 9.12291,9.12292c0,5.03845 -4.08446,9.12292 -9.12291,9.12292c-5.03845,0 -9.12291,-4.08447 -9.12291,-9.12292z" data-paper-data="{&quot;origPos&quot;:null}" fill="#6c4343" stroke="none" stroke-width="0.5" stroke-linecap="butt"/><path d="M366.06626,-17.74085c5.03844,0 9.12291,4.08449 9.12291,9.12292c0,5.03843 -4.08448,9.12291 -9.12291,9.12291c-5.03843,0 -5.03843,-18.24584 0,-18.24584z" data-paper-data="{&quot;origPos&quot;:null}" fill="#6c4343" stroke="none" stroke-width="0.5" stroke-linecap="butt"/><path d="M355.45049,-9.61323c0,-5.03845 4.08446,-9.12292 9.12291,-9.12292c5.03845,0 9.12291,4.08446 9.12291,9.12292c0,5.03845 -4.08446,9.12292 -9.12291,9.12292c-5.03845,0 -9.12291,-4.08447 -9.12291,-9.12292z" data-paper-data="{&quot;origPos&quot;:null}" fill="#c76e6e" stroke="none" stroke-width="0.5" stroke-linecap="butt"/><path d="M364.57342,-18.73608c5.03844,0 9.12291,4.08449 9.12291,9.12292c0,5.03843 -4.08448,9.12291 -9.12291,9.12291c-5.03843,0 -5.03843,-18.24584 0,-18.24584z" data-paper-data="{&quot;origPos&quot;:null}" fill="#c76262" stroke="none" stroke-width="0.5" stroke-linecap="butt"/><path d="M270.09477,80.09196c5.13999,-3.94177 12.50221,-2.97044 16.44399,2.16956c3.94177,5.13999 2.97042,12.5022 -2.16959,16.44398c-5.13999,3.94177 -12.50221,2.97044 -16.44399,-2.16956c-3.94177,-5.13999 -2.97042,-12.50221 2.16959,-16.44398z" data-paper-data="{&quot;origPos&quot;:null,&quot;origRot&quot;:0}" fill="#6c4343" stroke="none" stroke-width="0.5" stroke-linecap="butt"/><path d="M286.53873,82.26159c3.94176,5.13998 2.97039,12.50222 -2.16959,16.44398c-5.13998,3.94176 -12.50222,2.9704 -16.44397,-2.16957c-3.94176,-5.13998 14.6718,-19.41439 18.61356,-14.27441z" data-paper-data="{&quot;origPos&quot;:null,&quot;origRot&quot;:0}" fill="#6c4343" stroke="none" stroke-width="0.5" stroke-linecap="butt"/><path d="M269.94217,77.79044c5.13999,-3.94177 12.50221,-2.97044 16.44399,2.16956c3.94177,5.13999 2.97042,12.5022 -2.16959,16.44398c-5.13999,3.94177 -12.50221,2.97044 -16.44399,-2.16956c-3.94177,-5.13999 -2.97042,-12.50221 2.16959,-16.44398z" data-paper-data="{&quot;origPos&quot;:null,&quot;origRot&quot;:0}" fill="#c76e6e" stroke="none" stroke-width="0.5" stroke-linecap="butt"/><path d="M286.38612,79.96005c3.94176,5.13998 2.97039,12.50222 -2.16959,16.44398c-5.13998,3.94176 -12.50222,2.9704 -16.44397,-2.16957c-3.94176,-5.13998 14.6718,-19.41439 18.61356,-14.27441z" data-paper-data="{&quot;origPos&quot;:null,&quot;origRot&quot;:0}" fill="#c76262" stroke="none" stroke-width="0.5" stroke-linecap="butt"/><path d="M283.74546,84.74591c5.13999,-3.94177 12.50221,-2.97044 16.44399,2.16956c3.94177,5.13999 2.97042,12.5022 -2.16959,16.44398c-5.13999,3.94177 -12.50221,2.97044 -16.44399,-2.16956c-3.94177,-5.13999 -2.97042,-12.50221 2.16959,-16.44398z" data-paper-data="{&quot;origPos&quot;:null,&quot;origRot&quot;:0}" fill="#6c4343" stroke="none" stroke-width="0.5" stroke-linecap="butt"/><path d="M300.1894,86.91556c3.94176,5.13998 2.97039,12.50222 -2.16959,16.44398c-5.13998,3.94176 -12.50222,2.9704 -16.44397,-2.16957c-3.94176,-5.13998 14.6718,-19.41439 18.61356,-14.27441z" data-paper-data="{&quot;origPos&quot;:null,&quot;origRot&quot;:0}" fill="#6c4343" stroke="none" stroke-width="0.5" stroke-linecap="butt"/><path d="M283.59281,82.44442c5.13999,-3.94177 12.50221,-2.97044 16.44399,2.16956c3.94177,5.13999 2.97042,12.5022 -2.16959,16.44398c-5.13999,3.94177 -12.50221,2.97044 -16.44399,-2.16956c-3.94177,-5.13999 -2.97042,-12.50221 2.16959,-16.44398z" data-paper-data="{&quot;origPos&quot;:null,&quot;origRot&quot;:0}" fill="#c76e6e" stroke="none" stroke-width="0.5" stroke-linecap="butt"/><path d="M300.03678,84.61403c3.94176,5.13998 2.97039,12.50222 -2.16959,16.44398c-5.13998,3.94176 -12.50222,2.9704 -16.44397,-2.16957c-3.94176,-5.13998 14.6718,-19.41439 18.61356,-14.27441z" data-paper-data="{&quot;origPos&quot;:null,&quot;origRot&quot;:0}" fill="#c76262" stroke="none" stroke-width="0.5" stroke-linecap="butt"/><path d="M428.78034,116.36051c-5.49944,3.42247 -12.73207,1.73877 -16.15454,-3.76067c-3.42247,-5.49944 -1.73876,-12.73205 3.7607,-16.15453c5.49944,-3.42247 12.73207,-1.73877 16.15454,3.76067c3.42247,5.49944 1.73875,12.73206 -3.7607,16.15453z" data-paper-data="{&quot;origPos&quot;:null}" fill="#6c4343" stroke="none" stroke-width="0.5" stroke-linecap="butt"/><path d="M412.62582,112.59977c-3.42246,-5.49942 -1.73872,-12.73207 3.7607,-16.15453c5.49942,-3.42246 12.73207,-1.73873 16.15452,3.76068c3.42246,5.49942 -16.49276,17.89327 -19.91521,12.39385z" data-paper-data="{&quot;origPos&quot;:null}" fill="#6c4343" stroke="none" stroke-width="0.5" stroke-linecap="butt"/><path d="M432.46876,114.90526c-3.42247,5.49944 -10.6551,7.18314 -16.15454,3.76067c-5.49945,-3.42248 -7.18316,-10.65509 -3.7607,-16.15453c3.42247,-5.49944 10.6551,-7.18314 16.15454,-3.76067c5.49945,3.42247 7.18316,10.65509 3.7607,16.15453z" data-paper-data="{&quot;origPos&quot;:null}" fill="#c76e6e" stroke="none" stroke-width="0.5" stroke-linecap="butt"/><path d="M432.46881,114.90529c-3.42245,5.49941 -10.6551,7.18314 -16.15452,3.76068c-5.49942,-3.42246 -7.18315,-10.65511 -3.7607,-16.15453c3.42246,-5.49942 23.33767,6.89443 19.91521,12.39385z" data-paper-data="{&quot;origPos&quot;:null}" fill="#c76262" stroke="none" stroke-width="0.5" stroke-linecap="butt"/><path d="M419.40847,108.94397c-3.42247,5.49944 -10.6551,7.18314 -16.15454,3.76067c-5.49945,-3.42248 -7.18316,-10.65509 -3.7607,-16.15453c3.42247,-5.49944 10.6551,-7.18314 16.15454,-3.76067c5.49945,3.42247 7.18316,10.65509 3.7607,16.15453z" data-paper-data="{&quot;origPos&quot;:null}" fill="#6c4343" stroke="none" stroke-width="0.5" stroke-linecap="butt"/><path d="M419.40849,108.94405c-3.42245,5.49941 -10.6551,7.18314 -16.15452,3.76068c-5.49942,-3.42246 -7.18315,-10.65511 -3.7607,-16.15453c3.42246,-5.49942 23.33767,6.89443 19.91521,12.39385z" data-paper-data="{&quot;origPos&quot;:null}" fill="#6c4343" stroke="none" stroke-width="0.5" stroke-linecap="butt"/><path d="M419.33623,106.63855c-3.42247,5.49944 -10.6551,7.18314 -16.15454,3.76067c-5.49945,-3.42248 -7.18316,-10.65509 -3.7607,-16.15453c3.42247,-5.49944 10.6551,-7.18314 16.15454,-3.76067c5.49945,3.42247 7.18316,10.65509 3.7607,16.15453z" data-paper-data="{&quot;origPos&quot;:null}" fill="#c76e6e" stroke="none" stroke-width="0.5" stroke-linecap="butt"/><path d="M419.33624,106.63859c-3.42245,5.49941 -10.6551,7.18314 -16.15452,3.76068c-5.49942,-3.42246 -7.18315,-10.65511 -3.7607,-16.15453c3.42246,-5.49942 23.33767,6.89443 19.91521,12.39385z" data-paper-data="{&quot;origPos&quot;:null}" fill="#c76262" stroke="none" stroke-width="0.5" stroke-linecap="butt"/><path d="M428.59491,119.65725c0,0 4.1151,3.36743 2.34727,-15.36771c-1.4387,-15.24704 -6.62802,-31.10384 -6.62802,-31.10384c0,0 5.63109,4.17553 11.13277,19.27965c6.51573,17.88816 8.69495,24.92449 8.69495,24.92449z" data-paper-data="{&quot;origPos&quot;:null,&quot;origRot&quot;:0,&quot;index&quot;:null}" fill="#8eb480" stroke="none" stroke-width="0" stroke-linecap="butt"/><path d="M435.03957,115.60216c0,0 1.55019,-4.18834 6.18512,-14.83618c3.9136,-8.99065 7.91924,-11.47611 7.91924,-11.47611c0,0 -3.69139,9.43868 -4.71481,18.5144c-1.25753,11.152 1.66972,9.14756 1.66972,9.14756z" data-paper-data="{&quot;origPos&quot;:null,&quot;origRot&quot;:0,&quot;index&quot;:null}" fill="#8eb480" stroke="none" stroke-width="0" stroke-linecap="butt"/><path d="M439.47644,95.76838c-0.473,-2.29331 -2.27857,-11.04761 -3.73697,-18.11864c-0.35475,-1.71998 1.23381,-3.82814 2.47601,-4.08435c3.72662,-0.76862 36.97182,-7.62544 36.97182,-7.62544l4.84796,23.50526c0,0 -33.16155,6.83957 -37.46151,7.72644c-1.43332,0.29562 -2.93964,-0.63885 -3.09731,-1.40328z" data-paper-data="{&quot;origPos&quot;:null}" fill="#36312b" stroke="none" stroke-width="0" stroke-linecap="butt"/><path d="M467.22979,87.00215l6.05995,29.38158l-13.7114,2.82798l-6.05995,-29.38158z" data-paper-data="{&quot;origPos&quot;:null,&quot;index&quot;:null}" fill="#585146" stroke="none" stroke-width="0" stroke-linecap="butt"/><path d="M466.6238,84.064l1.71699,8.32478l-13.7114,2.82798l-1.71699,-8.32478z" data-paper-data="{&quot;origPos&quot;:null,&quot;index&quot;:null}" fill="#3d3831" stroke="none" stroke-width="0" stroke-linecap="butt"/><path d="M439.47644,94.76838c-0.473,-2.29331 -2.27857,-11.04761 -3.73697,-18.11864c-0.35475,-1.71998 1.23381,-3.82814 2.47601,-4.08435c3.72662,-0.76862 36.97182,-7.62544 36.97182,-7.62544l17.60446,8.62166l-12.7565,14.8836c0,0 -33.16155,6.83957 -37.46151,7.72644c-1.43332,0.29562 -2.93964,-0.63885 -3.09731,-1.40328z" data-paper-data="{&quot;origPos&quot;:null}" fill="#817666" stroke="none" stroke-width="0" stroke-linecap="butt"/><path d="M439.47644,94.76838c-0.473,-2.29331 -2.27857,-11.04761 -3.73697,-18.11864c-0.35475,-1.71998 1.23381,-3.82814 2.47601,-4.08435c3.72662,-0.76862 36.97182,-7.62544 36.97182,-7.62544l4.84796,23.50526c0,0 -33.16155,6.83957 -37.46151,7.72644c-1.43332,0.29562 -2.93964,-0.63885 -3.09731,-1.40328z" data-paper-data="{&quot;origPos&quot;:null}" fill="#776d5e" stroke="none" stroke-width="0" stroke-linecap="butt"/><path d="M449.87326,87.00827l-6.27113,-15.55387l5.87632,-1.21199z" data-paper-data="{&quot;origPos&quot;:null}" fill="#585146" stroke="none" stroke-width="0" stroke-linecap="butt"/><path d="M458.75352,87.98461l-6.1737,-18.38185l4.57047,-0.94266z" data-paper-data="{&quot;origPos&quot;:null}" fill="#585146" stroke="none" stroke-width="0" stroke-linecap="butt"/><path d="M468.26429,79.64145l-5.56414,-12.12602l5.87632,-1.21199z" data-paper-data="{&quot;origPos&quot;:null}" fill="#585146" stroke="none" stroke-width="0" stroke-linecap="butt"/><path d="M462.14005,72.22567l6.17371,18.38185l-4.57047,0.94266z" data-paper-data="{&quot;origPos&quot;:null,&quot;index&quot;:null}" fill="#585146" stroke="none" stroke-width="0" stroke-linecap="butt"/><path d="M-158.58256,-125.75917c-0.28112,0 -0.51706,-0.09287 -0.70782,-0.27861c-0.18574,-0.18574 -0.27861,-0.42168 -0.27861,-0.70782v-8.78748c0.01506,-1.01404 0.25351,-1.92516 0.71535,-2.73338c0.46184,-0.81324 1.09185,-1.45329 1.89002,-1.92014c0.79818,-0.47188 1.69676,-0.70782 2.69573,-0.70782c1.01906,0 1.92516,0.23594 2.71832,0.70782c0.79818,0.46686 1.4307,1.10691 1.89755,1.92014c0.47188,0.80822 0.70782,1.71935 0.70782,2.73338c0,1.01404 -0.21586,1.92266 -0.64758,2.72585c-0.43172,0.8032 -1.02157,1.44074 -1.76954,1.91261c-0.74296,0.46686 -1.5813,0.70029 -2.51501,0.70029c-0.75802,0 -1.4558,-0.15562 -2.09333,-0.46686c-0.63754,-0.31626 -1.1797,-0.74547 -1.62648,-1.28763v5.20321c0,0.28614 -0.09036,0.52208 -0.27108,0.70782c-0.18072,0.18574 -0.41917,0.27861 -0.71535,0.27861zM-154.26788,-131.92622c0.65762,0 1.24245,-0.15813 1.75448,-0.47439c0.51706,-0.31626 0.92619,-0.74547 1.22739,-1.28763c0.3012,-0.54718 0.4518,-1.16213 0.4518,-1.84484c0,-0.69276 -0.1506,-1.31273 -0.4518,-1.8599c-0.3012,-0.54718 -0.71033,-0.97639 -1.22739,-1.28763c-0.51204,-0.31626 -1.09687,-0.47439 -1.75448,-0.47439c-0.64256,0 -1.22488,0.15813 -1.74695,0.47439c-0.51706,0.31124 -0.92368,0.74045 -1.21986,1.28763c-0.29618,0.54718 -0.44427,1.16715 -0.44427,1.8599c0,0.68272 0.14809,1.29767 0.44427,1.84484c0.29618,0.54216 0.7028,0.97137 1.21986,1.28763c0.52208,0.31626 1.1044,0.47439 1.74695,0.47439zM-145.06867,-136.86588c0,-0.76806 0.18825,-1.4558 0.56475,-2.06321c0.38152,-0.61244 0.89356,-1.09938 1.53612,-1.46082c0.64256,-0.36144 1.34787,-0.54216 2.11592,-0.54216c0.77308,0 1.34787,0.1255 1.72437,0.3765c0.38152,0.251 0.5271,0.54969 0.43674,0.89607c-0.03514,0.18072 -0.10793,0.32128 -0.21837,0.42168c-0.11044,0.09538 -0.23594,0.15562 -0.3765,0.18072c-0.14056,0.0251 -0.29618,0.01757 -0.46686,-0.02259c-0.81826,-0.16566 -1.55619,-0.17821 -2.21381,-0.03765c-0.65762,0.14056 -1.17719,0.40411 -1.55871,0.79065c-0.3765,0.38654 -0.56475,0.87348 -0.56475,1.46082zM-145.05361,-130.26962c-0.30622,0 -0.54467,-0.08032 -0.71535,-0.24096c-0.16566,-0.16064 -0.24849,-0.4016 -0.24849,-0.72288v-8.6143c0,-0.31124 0.08283,-0.54969 0.24849,-0.71535c0.17068,-0.16566 0.40913,-0.24849 0.71535,-0.24849c0.32128,0 0.56224,0.08032 0.72288,0.24096c0.16064,0.16064 0.24096,0.4016 0.24096,0.72288v8.6143c0,0.30622 -0.08032,0.54467 -0.24096,0.71535c-0.16064,0.16566 -0.4016,0.24849 -0.72288,0.24849zM-132.46529,-130.19432c-1.06424,0 -2.0105,-0.22841 -2.8388,-0.68523c-0.8283,-0.45682 -1.47839,-1.08683 -1.95026,-1.89002c-0.46686,-0.8032 -0.70029,-1.72437 -0.70029,-2.7635c0,-1.0542 0.22088,-1.9829 0.66264,-2.78609c0.44176,-0.8032 1.0542,-1.43321 1.83731,-1.89002c0.78814,-0.45682 1.68923,-0.68523 2.70326,-0.68523c1.004,0 1.86492,0.22339 2.58278,0.67017c0.71786,0.44176 1.26504,1.05169 1.64154,1.82978c0.38152,0.7781 0.57228,1.67417 0.57228,2.6882c0,0.24598 -0.08283,0.44929 -0.24849,0.60993c-0.16566,0.16064 -0.3765,0.24096 -0.63252,0.24096h-7.77094v-1.54365h7.7107l-0.79065,0.54216c-0.01506,-0.64256 -0.14558,-1.21735 -0.39156,-1.72437c-0.24096,-0.51204 -0.58734,-0.91364 -1.03914,-1.2048c-0.44678,-0.29618 -0.99145,-0.44427 -1.63401,-0.44427c-0.73292,0 -1.36042,0.16064 -1.88249,0.48192c-0.51706,0.32128 -0.91113,0.76053 -1.18221,1.31775c-0.27108,0.55722 -0.40662,1.18974 -0.40662,1.89755c0,0.70782 0.16064,1.33783 0.48192,1.89002c0.32128,0.5522 0.76304,0.98894 1.32528,1.31022c0.56726,0.32128 1.21735,0.48192 1.95026,0.48192c0.4016,0 0.81073,-0.07279 1.22739,-0.21837c0.41666,-0.1506 0.753,-0.32128 1.00902,-0.51204c0.19578,-0.14056 0.40411,-0.21335 0.62499,-0.21837c0.2259,-0.01004 0.42419,0.05522 0.59487,0.19578c0.21586,0.19578 0.32881,0.40913 0.33885,0.64005c0.01506,0.23092 -0.08534,0.42921 -0.3012,0.59487c-0.43674,0.34638 -0.98141,0.63001 -1.63401,0.85089c-0.64758,0.21586 -1.26755,0.32379 -1.8599,0.32379zM-121.60889,-130.19432c-0.89858,0 -1.73189,-0.13805 -2.49995,-0.41415c-0.76304,-0.2761 -1.3554,-0.62499 -1.77707,-1.04667c-0.19578,-0.20582 -0.27861,-0.43925 -0.24849,-0.70029c0.03514,-0.26606 0.16064,-0.48443 0.3765,-0.65511c0.26104,-0.2008 0.51455,-0.28614 0.76053,-0.25602c0.251,0.03012 0.46686,0.14307 0.64758,0.33885c0.22088,0.24096 0.57228,0.46937 1.0542,0.68523c0.48192,0.21084 1.01906,0.31626 1.61142,0.31626c0.74296,0 1.31022,-0.12048 1.70178,-0.36144c0.39156,-0.24598 0.59487,-0.56224 0.60993,-0.94878c0.01004,-0.38654 -0.1757,-0.72037 -0.55722,-1.00149c-0.3765,-0.28614 -1.06424,-0.51957 -2.06321,-0.70029c-1.30018,-0.25602 -2.24393,-0.64005 -2.83127,-1.15209c-0.58232,-0.51706 -0.87348,-1.14707 -0.87348,-1.89002c0,-0.65762 0.19327,-1.19978 0.57981,-1.62648c0.38654,-0.43172 0.88101,-0.753 1.48341,-0.96384c0.6024,-0.21586 1.23241,-0.32379 1.89002,-0.32379c0.84838,0 1.59887,0.13554 2.25146,0.40662c0.65762,0.27108 1.1797,0.64507 1.56624,1.12197c0.18072,0.20582 0.26355,0.42168 0.24849,0.64758c-0.01004,0.22088 -0.11797,0.40913 -0.32379,0.56475c-0.20582,0.14056 -0.4518,0.18574 -0.73794,0.13554c-0.28112,-0.0502 -0.51706,-0.16566 -0.70782,-0.34638c-0.32128,-0.31124 -0.67017,-0.52459 -1.04667,-0.64005c-0.37148,-0.11546 -0.80069,-0.17319 -1.28763,-0.17319c-0.56726,0 -1.04667,0.09789 -1.43823,0.29367c-0.39156,0.19076 -0.58734,0.47188 -0.58734,0.84336c0,0.23092 0.06024,0.44176 0.18072,0.63252c0.1255,0.18574 0.36646,0.35391 0.72288,0.50451c0.36144,0.14558 0.88854,0.28865 1.5813,0.42921c0.96384,0.19076 1.72437,0.43423 2.28158,0.73041c0.56224,0.29618 0.96384,0.64005 1.2048,1.03161c0.24598,0.39156 0.36897,0.84336 0.36897,1.3554c0,0.59236 -0.15813,1.12699 -0.47439,1.60389c-0.31124,0.4769 -0.77308,0.85591 -1.38552,1.13703c-0.60742,0.28112 -1.36795,0.42168 -2.28158,0.42168zM-111.14161,-130.19432c-0.89858,0 -1.73189,-0.13805 -2.49995,-0.41415c-0.76304,-0.2761 -1.3554,-0.62499 -1.77707,-1.04667c-0.19578,-0.20582 -0.27861,-0.43925 -0.24849,-0.70029c0.03514,-0.26606 0.16064,-0.48443 0.3765,-0.65511c0.26104,-0.2008 0.51455,-0.28614 0.76053,-0.25602c0.251,0.03012 0.46686,0.14307 0.64758,0.33885c0.22088,0.24096 0.57228,0.46937 1.0542,0.68523c0.48192,0.21084 1.01906,0.31626 1.61142,0.31626c0.74296,0 1.31022,-0.12048 1.70178,-0.36144c0.39156,-0.24598 0.59487,-0.56224 0.60993,-0.94878c0.01004,-0.38654 -0.1757,-0.72037 -0.55722,-1.00149c-0.3765,-0.28614 -1.06424,-0.51957 -2.06321,-0.70029c-1.30018,-0.25602 -2.24393,-0.64005 -2.83127,-1.15209c-0.58232,-0.51706 -0.87348,-1.14707 -0.87348,-1.89002c0,-0.65762 0.19327,-1.19978 0.57981,-1.62648c0.38654,-0.43172 0.88101,-0.753 1.48341,-0.96384c0.6024,-0.21586 1.23241,-0.32379 1.89002,-0.32379c0.84838,0 1.59887,0.13554 2.25146,0.40662c0.65762,0.27108 1.1797,0.64507 1.56624,1.12197c0.18072,0.20582 0.26355,0.42168 0.24849,0.64758c-0.01004,0.22088 -0.11797,0.40913 -0.32379,0.56475c-0.20582,0.14056 -0.4518,0.18574 -0.73794,0.13554c-0.28112,-0.0502 -0.51706,-0.16566 -0.70782,-0.34638c-0.32128,-0.31124 -0.67017,-0.52459 -1.04667,-0.64005c-0.37148,-0.11546 -0.80069,-0.17319 -1.28763,-0.17319c-0.56726,0 -1.04667,0.09789 -1.43823,0.29367c-0.39156,0.19076 -0.58734,0.47188 -0.58734,0.84336c0,0.23092 0.06024,0.44176 0.18072,0.63252c0.1255,0.18574 0.36646,0.35391 0.72288,0.50451c0.36144,0.14558 0.88854,0.28865 1.5813,0.42921c0.96384,0.19076 1.72437,0.43423 2.28158,0.73041c0.56224,0.29618 0.96384,0.64005 1.2048,1.03161c0.24598,0.39156 0.36897,0.84336 0.36897,1.3554c0,0.59236 -0.15813,1.12699 -0.47439,1.60389c-0.31124,0.4769 -0.77308,0.85591 -1.38552,1.13703c-0.60742,0.28112 -1.36795,0.42168 -2.28158,0.42168zM-94.08502,-130.19432c-0.99898,0 -1.90007,-0.23343 -2.70326,-0.70029c-0.8032,-0.47188 -1.44074,-1.11193 -1.91261,-1.92014c-0.46686,-0.80822 -0.70029,-1.71935 -0.70029,-2.73338c0,-1.01906 0.21335,-1.93019 0.64005,-2.73338c0.43172,-0.8032 1.01906,-1.43823 1.76201,-1.90508c0.74798,-0.47188 1.59134,-0.70782 2.53007,-0.70782c0.75802,0 1.4583,0.15813 2.10086,0.47439c0.64256,0.31626 1.18221,0.74296 1.61895,1.2801v-5.20321c0,-0.29618 0.09287,-0.53212 0.27861,-0.70782c0.18574,-0.18072 0.42168,-0.27108 0.70782,-0.27108c0.29618,0 0.53212,0.09036 0.70782,0.27108c0.18072,0.1757 0.27108,0.41164 0.27108,0.70782v8.79501c0,1.01404 -0.23594,1.92516 -0.70782,2.73338c-0.46686,0.80822 -1.09938,1.44827 -1.89755,1.92014c-0.79316,0.46686 -1.69173,0.70029 -2.69573,0.70029zM-94.08502,-131.92622c0.65762,0 1.24245,-0.15813 1.75448,-0.47439c0.51706,-0.31626 0.92117,-0.75049 1.21233,-1.30269c0.29618,-0.5522 0.44427,-1.16715 0.44427,-1.84484c0,-0.69778 -0.14809,-1.31524 -0.44427,-1.85237c-0.29116,-0.54216 -0.69527,-0.96886 -1.21233,-1.2801c-0.51204,-0.31626 -1.09687,-0.47439 -1.75448,-0.47439c-0.64256,0 -1.22488,0.15813 -1.74695,0.47439c-0.51706,0.31124 -0.92619,0.73794 -1.22739,1.2801c-0.3012,0.53714 -0.4518,1.1546 -0.4518,1.85237c0,0.6777 0.1506,1.29265 0.4518,1.84484c0.3012,0.5522 0.71033,0.98643 1.22739,1.30269c0.52208,0.31626 1.1044,0.47439 1.74695,0.47439zM-80.53349,-130.19432c-1.03914,0 -1.95779,-0.22841 -2.75597,-0.68523c-0.79818,-0.45682 -1.42568,-1.08683 -1.88249,-1.89002c-0.4518,-0.8032 -0.6777,-1.72437 -0.6777,-2.7635c0,-1.0542 0.2259,-1.9829 0.6777,-2.78609c0.45682,-0.8032 1.08432,-1.43321 1.88249,-1.89002c0.79818,-0.45682 1.71684,-0.68523 2.75597,-0.68523c1.0291,0 1.94273,0.22841 2.74091,0.68523c0.79818,0.45682 1.42317,1.08683 1.87496,1.89002c0.45682,0.8032 0.68523,1.73189 0.68523,2.78609c0,1.03914 -0.2259,1.96031 -0.6777,2.7635c-0.44678,0.8032 -1.06926,1.43321 -1.86743,1.89002c-0.79316,0.45682 -1.71182,0.68523 -2.75597,0.68523zM-80.53349,-131.92622c0.66766,0 1.25751,-0.15311 1.76954,-0.45933c0.51706,-0.31124 0.91866,-0.73543 1.2048,-1.27257c0.29116,-0.54216 0.43674,-1.16715 0.43674,-1.87496c0,-0.70782 -0.14558,-1.33281 -0.43674,-1.87496c-0.28614,-0.54718 -0.68774,-0.97388 -1.2048,-1.2801c-0.51204,-0.31124 -1.10189,-0.46686 -1.76954,-0.46686c-0.66766,0 -1.26002,0.15562 -1.77707,0.46686c-0.51204,0.30622 -0.91615,0.73292 -1.21233,1.2801c-0.29116,0.54216 -0.43674,1.16715 -0.43674,1.87496c0,0.70782 0.14558,1.33281 0.43674,1.87496c0.29618,0.53714 0.70029,0.96133 1.21233,1.27257c0.51706,0.30622 1.10942,0.45933 1.77707,0.45933zM-70.44935,-130.26962c-0.20582,0 -0.39658,-0.06024 -0.57228,-0.18072c-0.17068,-0.1255 -0.28865,-0.2761 -0.35391,-0.4518l-2.85386,-8.56159c-0.1004,-0.39658 -0.09789,-0.72037 0.00753,-0.97137c0.11044,-0.251 0.3514,-0.3765 0.72288,-0.3765c0.24598,0 0.44929,0.06777 0.60993,0.20331c0.16064,0.13052 0.29367,0.35642 0.39909,0.6777l2.42465,7.59775h-0.67017l2.28911,-7.74835c0.06526,-0.22088 0.17319,-0.39658 0.32379,-0.5271c0.15562,-0.13554 0.36897,-0.20331 0.64005,-0.20331c0.25602,0 0.46435,0.06777 0.62499,0.20331c0.16064,0.13052 0.26857,0.30622 0.32379,0.5271l1.86743,7.28902h-0.28614l2.27405,-7.13842c0.1757,-0.58734 0.50953,-0.88101 1.00149,-0.88101c0.35642,0 0.59989,0.1255 0.73041,0.3765c0.13052,0.251 0.12299,0.57479 -0.02259,0.97137l-2.84633,8.56159c-0.05522,0.1757 -0.16566,0.3263 -0.33132,0.4518c-0.16566,0.12048 -0.35893,0.18072 -0.57981,0.18072c-0.20582,0 -0.39909,-0.06024 -0.57981,-0.18072c-0.1757,-0.1255 -0.29116,-0.2761 -0.34638,-0.4518l-1.98038,-7.34926h0.18825l-2.07827,7.34926c-0.0502,0.1757 -0.16315,0.3263 -0.33885,0.4518c-0.1757,0.12048 -0.37148,0.18072 -0.58734,0.18072zM-49.94011,-130.24703c-0.28112,0 -0.51455,-0.09287 -0.70029,-0.27861c-0.18574,-0.19076 -0.27861,-0.4267 -0.27861,-0.70782v-4.74389c0,-0.73292 -0.13554,-1.3303 -0.40662,-1.79213c-0.27108,-0.46184 -0.63503,-0.80571 -1.09185,-1.03161c-0.45682,-0.2259 -0.9789,-0.33885 -1.56624,-0.33885c-0.54216,0 -1.03161,0.11044 -1.46835,0.33132c-0.43674,0.21586 -0.78312,0.50702 -1.03914,0.87348c-0.25602,0.36646 -0.38403,0.78814 -0.38403,1.26504h-1.21986c0,-0.80822 0.19578,-1.5311 0.58734,-2.16863c0.39156,-0.63754 0.9287,-1.14205 1.61142,-1.51353c0.68272,-0.37148 1.44827,-0.55722 2.29664,-0.55722c0.88352,0 1.67417,0.19076 2.37194,0.57228c0.7028,0.3765 1.25751,0.93121 1.66413,1.66413c0.40662,0.73292 0.60993,1.63149 0.60993,2.69573v4.74389c0,0.28112 -0.09538,0.51706 -0.28614,0.70782c-0.18574,0.18574 -0.41917,0.27861 -0.70029,0.27861zM-57.86165,-130.24703c-0.28112,0 -0.51706,-0.09287 -0.70782,-0.27861c-0.18574,-0.19076 -0.27861,-0.4267 -0.27861,-0.70782v-8.59924c0,-0.29618 0.09287,-0.53212 0.27861,-0.70782c0.19076,-0.18072 0.4267,-0.27108 0.70782,-0.27108c0.29618,0 0.53463,0.09036 0.71535,0.27108c0.18072,0.1757 0.27108,0.41164 0.27108,0.70782v8.59924c0,0.28112 -0.09036,0.51706 -0.27108,0.70782c-0.18072,0.18574 -0.41917,0.27861 -0.71535,0.27861zM-35.65576,-130.19432c-0.93874,0 -1.78209,-0.23343 -2.53007,-0.70029c-0.74296,-0.47188 -1.3303,-1.10942 -1.76201,-1.91261c-0.4267,-0.8032 -0.64005,-1.71182 -0.64005,-2.72585c0,-1.01404 0.23343,-1.92516 0.70029,-2.73338c0.47188,-0.81324 1.10942,-1.45329 1.91261,-1.92014c0.8032,-0.47188 1.70429,-0.70782 2.70326,-0.70782c1.004,0 1.90257,0.23594 2.69573,0.70782c0.79818,0.46686 1.4307,1.10691 1.89755,1.92014c0.47188,0.80822 0.70782,1.71935 0.70782,2.73338h-0.753c0,1.01404 -0.21586,1.92266 -0.64758,2.72585c-0.4267,0.8032 -1.01404,1.44074 -1.76201,1.91261c-0.74296,0.46686 -1.58381,0.70029 -2.52254,0.70029zM-35.27173,-131.92622c0.65762,0 1.24245,-0.15813 1.75448,-0.47439c0.51706,-0.31626 0.92117,-0.74547 1.21233,-1.28763c0.29618,-0.54718 0.44427,-1.16213 0.44427,-1.84484c0,-0.69276 -0.14809,-1.31273 -0.44427,-1.8599c-0.29116,-0.54718 -0.69527,-0.97639 -1.21233,-1.28763c-0.51204,-0.31626 -1.09687,-0.47439 -1.75448,-0.47439c-0.64256,0 -1.22488,0.15813 -1.74695,0.47439c-0.51706,0.31124 -0.92619,0.74045 -1.22739,1.28763c-0.3012,0.54718 -0.4518,1.16715 -0.4518,1.8599c0,0.68272 0.1506,1.29767 0.4518,1.84484c0.3012,0.54216 0.71033,0.97137 1.22739,1.28763c0.52208,0.31626 1.1044,0.47439 1.74695,0.47439zM-30.94952,-130.24703c-0.28614,0 -0.52208,-0.09287 -0.70782,-0.27861c-0.18574,-0.19076 -0.27861,-0.4267 -0.27861,-0.70782v-2.95175l0.36897,-2.04062l1.59636,0.69276v4.29962c0,0.28112 -0.09287,0.51706 -0.27861,0.70782c-0.18574,0.18574 -0.41917,0.27861 -0.70029,0.27861zM-26.0927,-136.86588c0,-0.76806 0.18825,-1.4558 0.56475,-2.06321c0.38152,-0.61244 0.89356,-1.09938 1.53612,-1.46082c0.64256,-0.36144 1.34787,-0.54216 2.11592,-0.54216c0.77308,0 1.34787,0.1255 1.72437,0.3765c0.38152,0.251 0.5271,0.54969 0.43674,0.89607c-0.03514,0.18072 -0.10793,0.32128 -0.21837,0.42168c-0.11044,0.09538 -0.23594,0.15562 -0.3765,0.18072c-0.14056,0.0251 -0.29618,0.01757 -0.46686,-0.02259c-0.81826,-0.16566 -1.55619,-0.17821 -2.21381,-0.03765c-0.65762,0.14056 -1.17719,0.40411 -1.55871,0.79065c-0.3765,0.38654 -0.56475,0.87348 -0.56475,1.46082zM-26.07764,-130.26962c-0.30622,0 -0.54467,-0.08032 -0.71535,-0.24096c-0.16566,-0.16064 -0.24849,-0.4016 -0.24849,-0.72288v-8.6143c0,-0.31124 0.08283,-0.54969 0.24849,-0.71535c0.17068,-0.16566 0.40913,-0.24849 0.71535,-0.24849c0.32128,0 0.56224,0.08032 0.72288,0.24096c0.16064,0.16064 0.24096,0.4016 0.24096,0.72288v8.6143c0,0.30622 -0.08032,0.54467 -0.24096,0.71535c-0.16064,0.16566 -0.4016,0.24849 -0.72288,0.24849zM-16.7242,-136.86588c0,-0.76806 0.18825,-1.4558 0.56475,-2.06321c0.38152,-0.61244 0.89356,-1.09938 1.53612,-1.46082c0.64256,-0.36144 1.34787,-0.54216 2.11592,-0.54216c0.77308,0 1.34787,0.1255 1.72437,0.3765c0.38152,0.251 0.5271,0.54969 0.43674,0.89607c-0.03514,0.18072 -0.10793,0.32128 -0.21837,0.42168c-0.11044,0.09538 -0.23594,0.15562 -0.3765,0.18072c-0.14056,0.0251 -0.29618,0.01757 -0.46686,-0.02259c-0.81826,-0.16566 -1.55619,-0.17821 -2.21381,-0.03765c-0.65762,0.14056 -1.17719,0.40411 -1.55871,0.79065c-0.3765,0.38654 -0.56475,0.87348 -0.56475,1.46082zM-16.70914,-130.26962c-0.30622,0 -0.54467,-0.08032 -0.71535,-0.24096c-0.16566,-0.16064 -0.24849,-0.4016 -0.24849,-0.72288v-8.6143c0,-0.31124 0.08283,-0.54969 0.24849,-0.71535c0.17068,-0.16566 0.40913,-0.24849 0.71535,-0.24849c0.32128,0 0.56224,0.08032 0.72288,0.24096c0.16064,0.16064 0.24096,0.4016 0.24096,0.72288v8.6143c0,0.30622 -0.08032,0.54467 -0.24096,0.71535c-0.16064,0.16566 -0.4016,0.24849 -0.72288,0.24849zM-4.29403,-130.19432c-1.03914,0 -1.95779,-0.22841 -2.75597,-0.68523c-0.79818,-0.45682 -1.42568,-1.08683 -1.88249,-1.89002c-0.4518,-0.8032 -0.6777,-1.72437 -0.6777,-2.7635c0,-1.0542 0.2259,-1.9829 0.6777,-2.78609c0.45682,-0.8032 1.08432,-1.43321 1.88249,-1.89002c0.79818,-0.45682 1.71684,-0.68523 2.75597,-0.68523c1.0291,0 1.94273,0.22841 2.74091,0.68523c0.79818,0.45682 1.42317,1.08683 1.87496,1.89002c0.45682,0.8032 0.68523,1.73189 0.68523,2.78609c0,1.03914 -0.2259,1.96031 -0.6777,2.7635c-0.44678,0.8032 -1.06926,1.43321 -1.86743,1.89002c-0.79316,0.45682 -1.71182,0.68523 -2.75597,0.68523zM-4.29403,-131.92622c0.66766,0 1.25751,-0.15311 1.76954,-0.45933c0.51706,-0.31124 0.91866,-0.73543 1.2048,-1.27257c0.29116,-0.54216 0.43674,-1.16715 0.43674,-1.87496c0,-0.70782 -0.14558,-1.33281 -0.43674,-1.87496c-0.28614,-0.54718 -0.68774,-0.97388 -1.2048,-1.2801c-0.51204,-0.31124 -1.10189,-0.46686 -1.76954,-0.46686c-0.66766,0 -1.26002,0.15562 -1.77707,0.46686c-0.51204,0.30622 -0.91615,0.73292 -1.21233,1.2801c-0.29116,0.54216 -0.43674,1.16715 -0.43674,1.87496c0,0.70782 0.14558,1.33281 0.43674,1.87496c0.29618,0.53714 0.70029,0.96133 1.21233,1.27257c0.51706,0.30622 1.10942,0.45933 1.77707,0.45933zM5.79011,-130.26962c-0.20582,0 -0.39658,-0.06024 -0.57228,-0.18072c-0.17068,-0.1255 -0.28865,-0.2761 -0.35391,-0.4518l-2.85386,-8.56159c-0.1004,-0.39658 -0.09789,-0.72037 0.00753,-0.97137c0.11044,-0.251 0.3514,-0.3765 0.72288,-0.3765c0.24598,0 0.44929,0.06777 0.60993,0.20331c0.16064,0.13052 0.29367,0.35642 0.39909,0.6777l2.42465,7.59775h-0.67017l2.28911,-7.74835c0.06526,-0.22088 0.17319,-0.39658 0.32379,-0.5271c0.15562,-0.13554 0.36897,-0.20331 0.64005,-0.20331c0.25602,0 0.46435,0.06777 0.62499,0.20331c0.16064,0.13052 0.26857,0.30622 0.32379,0.5271l1.86743,7.28902h-0.28614l2.27405,-7.13842c0.1757,-0.58734 0.50953,-0.88101 1.00149,-0.88101c0.35642,0 0.59989,0.1255 0.73041,0.3765c0.13052,0.251 0.12299,0.57479 -0.02259,0.97137l-2.84633,8.56159c-0.05522,0.1757 -0.16566,0.3263 -0.33132,0.4518c-0.16566,0.12048 -0.35893,0.18072 -0.57981,0.18072c-0.20582,0 -0.39909,-0.06024 -0.57981,-0.18072c-0.1757,-0.1255 -0.29116,-0.2761 -0.34638,-0.4518l-1.98038,-7.34926h0.18825l-2.07827,7.34926c-0.0502,0.1757 -0.16315,0.3263 -0.33885,0.4518c-0.1757,0.12048 -0.37148,0.18072 -0.58734,0.18072zM26.87975,-130.26962c-0.64256,0 -1.22237,-0.16315 -1.73942,-0.48945c-0.51204,-0.33132 -0.91615,-0.7781 -1.21233,-1.34034c-0.29618,-0.56726 -0.44427,-1.2048 -0.44427,-1.91261v-9.1941c0,-0.28112 0.09036,-0.51204 0.27108,-0.69276c0.18072,-0.18072 0.41164,-0.27108 0.69276,-0.27108c0.28614,0 0.51706,0.09036 0.69276,0.27108c0.18072,0.18072 0.27108,0.41164 0.27108,0.69276v9.1941c0,0.51706 0.14056,0.94878 0.42168,1.29516c0.28614,0.34638 0.63503,0.51957 1.04667,0.51957h0.65511c0.23092,0 0.4267,0.09036 0.58734,0.27108c0.16064,0.18072 0.24096,0.41164 0.24096,0.69276c0,0.28112 -0.10793,0.51204 -0.32379,0.69276c-0.21084,0.18072 -0.48192,0.27108 -0.81324,0.27108zM22.60272,-138.77097c-0.27108,0 -0.49196,-0.0753 -0.66264,-0.2259c-0.16566,-0.15562 -0.24849,-0.34889 -0.24849,-0.57981c0,-0.26104 0.08283,-0.46686 0.24849,-0.61746c0.17068,-0.15562 0.39156,-0.23343 0.66264,-0.23343h4.45022c0.27108,0 0.48945,0.07781 0.65511,0.23343c0.16566,0.1506 0.24849,0.35642 0.24849,0.61746c0,0.23092 -0.08283,0.42419 -0.24849,0.57981c-0.16566,0.1506 -0.38403,0.2259 -0.65511,0.2259zM35.55096,-130.19432c-1.03914,0 -1.95779,-0.22841 -2.75597,-0.68523c-0.79818,-0.45682 -1.42568,-1.08683 -1.88249,-1.89002c-0.4518,-0.8032 -0.6777,-1.72437 -0.6777,-2.7635c0,-1.0542 0.2259,-1.9829 0.6777,-2.78609c0.45682,-0.8032 1.08432,-1.43321 1.88249,-1.89002c0.79818,-0.45682 1.71684,-0.68523 2.75597,-0.68523c1.0291,0 1.94273,0.22841 2.74091,0.68523c0.79818,0.45682 1.42317,1.08683 1.87496,1.89002c0.45682,0.8032 0.68523,1.73189 0.68523,2.78609c0,1.03914 -0.2259,1.96031 -0.6777,2.7635c-0.44678,0.8032 -1.06926,1.43321 -1.86743,1.89002c-0.79316,0.45682 -1.71182,0.68523 -2.75597,0.68523zM35.55096,-131.92622c0.66766,0 1.25751,-0.15311 1.76954,-0.45933c0.51706,-0.31124 0.91866,-0.73543 1.2048,-1.27257c0.29116,-0.54216 0.43674,-1.16715 0.43674,-1.87496c0,-0.70782 -0.14558,-1.33281 -0.43674,-1.87496c-0.28614,-0.54718 -0.68774,-0.97388 -1.2048,-1.2801c-0.51204,-0.31124 -1.10189,-0.46686 -1.76954,-0.46686c-0.66766,0 -1.26002,0.15562 -1.77707,0.46686c-0.51204,0.30622 -0.91615,0.73292 -1.21233,1.2801c-0.29116,0.54216 -0.43674,1.16715 -0.43674,1.87496c0,0.70782 0.14558,1.33281 0.43674,1.87496c0.29618,0.53714 0.70029,0.96133 1.21233,1.27257c0.51706,0.30622 1.10942,0.45933 1.77707,0.45933zM53.26959,-130.19432c-0.89858,0 -1.73189,-0.13805 -2.49995,-0.41415c-0.76304,-0.2761 -1.3554,-0.62499 -1.77707,-1.04667c-0.19578,-0.20582 -0.27861,-0.43925 -0.24849,-0.70029c0.03514,-0.26606 0.16064,-0.48443 0.3765,-0.65511c0.26104,-0.2008 0.51455,-0.28614 0.76053,-0.25602c0.251,0.03012 0.46686,0.14307 0.64758,0.33885c0.22088,0.24096 0.57228,0.46937 1.0542,0.68523c0.48192,0.21084 1.01906,0.31626 1.61142,0.31626c0.74296,0 1.31022,-0.12048 1.70178,-0.36144c0.39156,-0.24598 0.59487,-0.56224 0.60993,-0.94878c0.01004,-0.38654 -0.1757,-0.72037 -0.55722,-1.00149c-0.3765,-0.28614 -1.06424,-0.51957 -2.06321,-0.70029c-1.30018,-0.25602 -2.24393,-0.64005 -2.83127,-1.15209c-0.58232,-0.51706 -0.87348,-1.14707 -0.87348,-1.89002c0,-0.65762 0.19327,-1.19978 0.57981,-1.62648c0.38654,-0.43172 0.88101,-0.753 1.48341,-0.96384c0.6024,-0.21586 1.23241,-0.32379 1.89002,-0.32379c0.84838,0 1.59887,0.13554 2.25146,0.40662c0.65762,0.27108 1.1797,0.64507 1.56624,1.12197c0.18072,0.20582 0.26355,0.42168 0.24849,0.64758c-0.01004,0.22088 -0.11797,0.40913 -0.32379,0.56475c-0.20582,0.14056 -0.4518,0.18574 -0.73794,0.13554c-0.28112,-0.0502 -0.51706,-0.16566 -0.70782,-0.34638c-0.32128,-0.31124 -0.67017,-0.52459 -1.04667,-0.64005c-0.37148,-0.11546 -0.80069,-0.17319 -1.28763,-0.17319c-0.56726,0 -1.04667,0.09789 -1.43823,0.29367c-0.39156,0.19076 -0.58734,0.47188 -0.58734,0.84336c0,0.23092 0.06024,0.44176 0.18072,0.63252c0.1255,0.18574 0.36646,0.35391 0.72288,0.50451c0.36144,0.14558 0.88854,0.28865 1.5813,0.42921c0.96384,0.19076 1.72437,0.43423 2.28158,0.73041c0.56224,0.29618 0.96384,0.64005 1.2048,1.03161c0.24598,0.39156 0.36897,0.84336 0.36897,1.3554c0,0.59236 -0.15813,1.12699 -0.47439,1.60389c-0.31124,0.4769 -0.77308,0.85591 -1.38552,1.13703c-0.60742,0.28112 -1.36795,0.42168 -2.28158,0.42168zM62.40404,-130.26962c-0.56224,0 -1.06424,-0.15311 -1.506,-0.45933c-0.43674,-0.31124 -0.7781,-0.73292 -1.02408,-1.26504c-0.24096,-0.53212 -0.36144,-1.14707 -0.36144,-1.84484v-10.51937c0,-0.28614 0.09036,-0.51706 0.27108,-0.69276c0.18072,-0.18072 0.41164,-0.27108 0.69276,-0.27108c0.28614,0 0.51706,0.09036 0.69276,0.27108c0.18072,0.1757 0.27108,0.40662 0.27108,0.69276v10.51937c0,0.4769 0.09036,0.87097 0.27108,1.18221c0.18072,0.30622 0.41164,0.45933 0.69276,0.45933h0.48192c0.25602,0 0.46435,0.09036 0.62499,0.27108c0.16064,0.18072 0.24096,0.41164 0.24096,0.69276c0,0.28112 -0.12299,0.51204 -0.36897,0.69276c-0.24096,0.18072 -0.55471,0.27108 -0.94125,0.27108zM66.86179,-130.26962c-0.28614,0 -0.52208,-0.09287 -0.70782,-0.27861c-0.18574,-0.18574 -0.27861,-0.42168 -0.27861,-0.70782v-8.57665c0,-0.29618 0.09287,-0.53212 0.27861,-0.70782c0.18574,-0.18072 0.42168,-0.27108 0.70782,-0.27108c0.29116,0 0.5271,0.09036 0.70782,0.27108c0.18072,0.1757 0.27108,0.41164 0.27108,0.70782v8.57665c0,0.28614 -0.09036,0.52208 -0.27108,0.70782c-0.18072,0.18574 -0.41666,0.27861 -0.70782,0.27861zM67.03498,-142.52842c-0.3514,0 -0.6526,-0.1255 -0.9036,-0.3765c-0.24598,-0.251 -0.36897,-0.54969 -0.36897,-0.89607c0,-0.34638 0.12299,-0.64507 0.36897,-0.89607c0.251,-0.251 0.5522,-0.3765 0.9036,-0.3765c0.34638,0 0.64507,0.1255 0.89607,0.3765c0.251,0.251 0.3765,0.54969 0.3765,0.89607c0,0.34638 -0.1255,0.64507 -0.3765,0.89607c-0.251,0.251 -0.54969,0.3765 -0.89607,0.3765zM76.28268,-130.19432c-0.99898,0 -1.90007,-0.23343 -2.70326,-0.70029c-0.8032,-0.47188 -1.44074,-1.11193 -1.91261,-1.92014c-0.46686,-0.80822 -0.70029,-1.71935 -0.70029,-2.73338c0,-1.01906 0.21335,-1.93019 0.64005,-2.73338c0.43172,-0.8032 1.01906,-1.43823 1.76201,-1.90508c0.74798,-0.47188 1.59134,-0.70782 2.53007,-0.70782c0.75802,0 1.4583,0.15813 2.10086,0.47439c0.64256,0.31626 1.18221,0.74296 1.61895,1.2801v-5.20321c0,-0.29618 0.09287,-0.53212 0.27861,-0.70782c0.18574,-0.18072 0.42168,-0.27108 0.70782,-0.27108c0.29618,0 0.53213,0.09036 0.70785,0.27108c0.18072,0.1757 0.27108,0.41164 0.27108,0.70782v8.79501c0,1.01404 -0.23595,1.92516 -0.70785,2.73338c-0.46686,0.80822 -1.09938,1.44827 -1.89755,1.92014c-0.79316,0.46686 -1.69173,0.70029 -2.69573,0.70029zM76.28268,-131.92622c0.65762,0 1.24245,-0.15813 1.75448,-0.47439c0.51706,-0.31626 0.92117,-0.75049 1.21233,-1.30269c0.29618,-0.5522 0.44427,-1.16715 0.44427,-1.84484c0,-0.69778 -0.14809,-1.31524 -0.44427,-1.85237c-0.29116,-0.54216 -0.69527,-0.96886 -1.21233,-1.2801c-0.51204,-0.31626 -1.09687,-0.47439 -1.75448,-0.47439c-0.64256,0 -1.22488,0.15813 -1.74695,0.47439c-0.51706,0.31124 -0.92619,0.73794 -1.22739,1.2801c-0.3012,0.53714 -0.4518,1.1546 -0.4518,1.85237c0,0.6777 0.1506,1.29265 0.4518,1.84484c0.3012,0.5522 0.71033,0.98643 1.22739,1.30269c0.52208,0.31626 1.1044,0.47439 1.74695,0.47439zM90.00741,-130.19432c-1.06424,0 -2.0105,-0.22841 -2.8388,-0.68523c-0.8283,-0.45682 -1.47839,-1.08683 -1.95026,-1.89002c-0.46686,-0.8032 -0.70029,-1.72437 -0.70029,-2.7635c0,-1.0542 0.22088,-1.9829 0.66264,-2.78609c0.44176,-0.8032 1.0542,-1.43321 1.83731,-1.89002c0.78814,-0.45682 1.68923,-0.68523 2.70326,-0.68523c1.004,0 1.86492,0.22339 2.58278,0.67017c0.71786,0.44176 1.26504,1.05169 1.64154,1.82978c0.38152,0.7781 0.57228,1.67417 0.57228,2.6882c0,0.24598 -0.08283,0.44929 -0.24849,0.60993c-0.16566,0.16064 -0.3765,0.24096 -0.63252,0.24096h-7.77094v-1.54365h7.7107l-0.79065,0.54216c-0.01506,-0.64256 -0.14558,-1.21735 -0.39156,-1.72437c-0.24096,-0.51204 -0.58734,-0.91364 -1.03914,-1.2048c-0.44678,-0.29618 -0.99145,-0.44427 -1.63401,-0.44427c-0.73292,0 -1.36042,0.16064 -1.88249,0.48192c-0.51706,0.32128 -0.91113,0.76053 -1.18221,1.31775c-0.27108,0.55722 -0.40662,1.18974 -0.40662,1.89755c0,0.70782 0.16064,1.33783 0.48192,1.89002c0.32128,0.5522 0.76304,0.98894 1.32528,1.31022c0.56726,0.32128 1.21735,0.48192 1.95026,0.48192c0.4016,0 0.81073,-0.07279 1.22739,-0.21837c0.41666,-0.1506 0.753,-0.32128 1.00902,-0.51204c0.19578,-0.14056 0.40411,-0.21335 0.62499,-0.21837c0.2259,-0.01004 0.42419,0.05522 0.59487,0.19578c0.21586,0.19578 0.32881,0.40913 0.33885,0.64005c0.01506,0.23092 -0.08534,0.42921 -0.3012,0.59487c-0.43674,0.34638 -0.98141,0.63001 -1.63401,0.85089c-0.64758,0.21586 -1.26755,0.32379 -1.8599,0.32379zM107.45314,-130.19432c-0.99898,0 -1.90007,-0.23343 -2.70326,-0.70029c-0.8032,-0.47188 -1.44074,-1.11193 -1.91261,-1.92014c-0.46686,-0.80822 -0.70029,-1.71935 -0.70029,-2.73338c0,-1.01906 0.21335,-1.93019 0.64005,-2.73338c0.43172,-0.8032 1.01906,-1.43823 1.76201,-1.90508c0.74798,-0.47188 1.59134,-0.70782 2.53007,-0.70782c0.75802,0 1.4583,0.15813 2.10086,0.47439c0.64256,0.31626 1.18221,0.74296 1.61895,1.2801v-5.20321c0,-0.29618 0.09287,-0.53212 0.27861,-0.70782c0.18574,-0.18072 0.42168,-0.27108 0.70782,-0.27108c0.29618,0 0.53212,0.09036 0.70782,0.27108c0.18072,0.1757 0.27108,0.41164 0.27108,0.70782v8.79501c0,1.01404 -0.23594,1.92516 -0.70782,2.73338c-0.46686,0.80822 -1.09938,1.44827 -1.89755,1.92014c-0.79316,0.46686 -1.69173,0.70029 -2.69573,0.70029zM107.45314,-131.92622c0.65762,0 1.24245,-0.15813 1.75448,-0.47439c0.51706,-0.31626 0.92117,-0.75049 1.21233,-1.30269c0.29618,-0.5522 0.44427,-1.16715 0.44427,-1.84484c0,-0.69778 -0.14809,-1.31524 -0.44427,-1.85237c-0.29116,-0.54216 -0.69527,-0.96886 -1.21233,-1.2801c-0.51204,-0.31626 -1.09687,-0.47439 -1.75448,-0.47439c-0.64256,0 -1.22488,0.15813 -1.74695,0.47439c-0.51706,0.31124 -0.92619,0.73794 -1.22739,1.2801c-0.3012,0.53714 -0.4518,1.1546 -0.4518,1.85237c0,0.6777 0.1506,1.29265 0.4518,1.84484c0.3012,0.5522 0.71033,0.98643 1.22739,1.30269c0.52208,0.31626 1.1044,0.47439 1.74695,0.47439zM121.00469,-130.19432c-1.03914,0 -1.95779,-0.22841 -2.75597,-0.68523c-0.79818,-0.45682 -1.42568,-1.08683 -1.88249,-1.89002c-0.4518,-0.8032 -0.6777,-1.72437 -0.6777,-2.7635c0,-1.0542 0.2259,-1.9829 0.6777,-2.78609c0.45682,-0.8032 1.08432,-1.43321 1.88249,-1.89002c0.79818,-0.45682 1.71684,-0.68523 2.75597,-0.68523c1.0291,0 1.94273,0.22841 2.74091,0.68523c0.79818,0.45682 1.42317,1.08683 1.87496,1.89002c0.45682,0.8032 0.68523,1.73189 0.68523,2.78609c0,1.03914 -0.2259,1.96031 -0.6777,2.7635c-0.44678,0.8032 -1.06926,1.43321 -1.86743,1.89002c-0.79316,0.45682 -1.71182,0.68523 -2.75597,0.68523zM121.00469,-131.92622c0.66766,0 1.25751,-0.15311 1.76954,-0.45933c0.51706,-0.31124 0.91866,-0.73543 1.2048,-1.27257c0.29116,-0.54216 0.43674,-1.16715 0.43674,-1.87496c0,-0.70782 -0.14558,-1.33281 -0.43674,-1.87496c-0.28614,-0.54718 -0.68774,-0.97388 -1.2048,-1.2801c-0.51204,-0.31124 -1.10189,-0.46686 -1.76954,-0.46686c-0.66766,0 -1.26002,0.15562 -1.77707,0.46686c-0.51204,0.30622 -0.91615,0.73292 -1.21233,1.2801c-0.29116,0.54216 -0.43674,1.16715 -0.43674,1.87496c0,0.70782 0.14558,1.33281 0.43674,1.87496c0.29618,0.53714 0.70029,0.96133 1.21233,1.27257c0.51706,0.30622 1.10942,0.45933 1.77707,0.45933zM131.08883,-130.26962c-0.20582,0 -0.39658,-0.06024 -0.57228,-0.18072c-0.17068,-0.1255 -0.28865,-0.2761 -0.35391,-0.4518l-2.85386,-8.56159c-0.1004,-0.39658 -0.09789,-0.72037 0.00753,-0.97137c0.11044,-0.251 0.3514,-0.3765 0.72288,-0.3765c0.24598,0 0.44929,0.06777 0.60993,0.20331c0.16064,0.13052 0.29367,0.35642 0.39909,0.6777l2.42465,7.59775h-0.67017l2.28911,-7.74835c0.06526,-0.22088 0.17319,-0.39658 0.32379,-0.5271c0.15562,-0.13554 0.36897,-0.20331 0.64005,-0.20331c0.25602,0 0.46435,0.06777 0.62499,0.20331c0.16064,0.13052 0.26857,0.30622 0.32379,0.5271l1.86743,7.28902h-0.28614l2.27405,-7.13842c0.1757,-0.58734 0.50953,-0.88101 1.00149,-0.88101c0.35642,0 0.59989,0.1255 0.73041,0.3765c0.13052,0.251 0.12299,0.57479 -0.02259,0.97137l-2.84633,8.56159c-0.05522,0.1757 -0.16566,0.3263 -0.33132,0.4518c-0.16566,0.12048 -0.35893,0.18072 -0.57981,0.18072c-0.20582,0 -0.39909,-0.06024 -0.57981,-0.18072c-0.1757,-0.1255 -0.29116,-0.2761 -0.34638,-0.4518l-1.98038,-7.34926h0.18825l-2.07827,7.34926c-0.0502,0.1757 -0.16315,0.3263 -0.33885,0.4518c-0.1757,0.12048 -0.37148,0.18072 -0.58734,0.18072zM151.59807,-130.24703c-0.28112,0 -0.51455,-0.09287 -0.70029,-0.27861c-0.18574,-0.19076 -0.27861,-0.4267 -0.27861,-0.70782v-4.74389c0,-0.73292 -0.13554,-1.3303 -0.40662,-1.79213c-0.27108,-0.46184 -0.63503,-0.80571 -1.09185,-1.03161c-0.45682,-0.2259 -0.9789,-0.33885 -1.56624,-0.33885c-0.54216,0 -1.03161,0.11044 -1.46835,0.33132c-0.43674,0.21586 -0.78312,0.50702 -1.03914,0.87348c-0.25602,0.36646 -0.38403,0.78814 -0.38403,1.26504h-1.21986c0,-0.80822 0.19578,-1.5311 0.58734,-2.16863c0.39156,-0.63754 0.9287,-1.14205 1.61142,-1.51353c0.68272,-0.37148 1.44827,-0.55722 2.29664,-0.55722c0.88352,0 1.67417,0.19076 2.37194,0.57228c0.7028,0.3765 1.25751,0.93121 1.66413,1.66413c0.40662,0.73292 0.60993,1.63149 0.60993,2.69573v4.74389c0,0.28112 -0.09538,0.51706 -0.28614,0.70782c-0.18574,0.18574 -0.41917,0.27861 -0.70029,0.27861zM143.67654,-130.24703c-0.28112,0 -0.51706,-0.09287 -0.70782,-0.27861c-0.18574,-0.19076 -0.27861,-0.4267 -0.27861,-0.70782v-8.59924c0,-0.29618 0.09287,-0.53212 0.27861,-0.70782c0.19076,-0.18072 0.4267,-0.27108 0.70782,-0.27108c0.29618,0 0.53463,0.09036 0.71535,0.27108c0.18072,0.1757 0.27108,0.41164 0.27108,0.70782v8.59924c0,0.28112 -0.09036,0.51706 -0.27108,0.70782c-0.18072,0.18574 -0.41917,0.27861 -0.71535,0.27861zM165.3252,-130.19432c-0.89858,0 -1.73189,-0.13805 -2.49995,-0.41415c-0.76304,-0.2761 -1.3554,-0.62499 -1.77707,-1.04667c-0.19578,-0.20582 -0.27861,-0.43925 -0.24849,-0.70029c0.03514,-0.26606 0.16064,-0.48443 0.3765,-0.65511c0.26104,-0.2008 0.51455,-0.28614 0.76053,-0.25602c0.251,0.03012 0.46686,0.14307 0.64758,0.33885c0.22088,0.24096 0.57228,0.46937 1.0542,0.68523c0.48192,0.21084 1.01906,0.31626 1.61142,0.31626c0.74296,0 1.31022,-0.12048 1.70178,-0.36144c0.39156,-0.24598 0.59487,-0.56224 0.60993,-0.94878c0.01004,-0.38654 -0.1757,-0.72037 -0.55722,-1.00149c-0.3765,-0.28614 -1.06424,-0.51957 -2.06321,-0.70029c-1.30018,-0.25602 -2.24393,-0.64005 -2.83127,-1.15209c-0.58232,-0.51706 -0.87348,-1.14707 -0.87348,-1.89002c0,-0.65762 0.19327,-1.19978 0.57981,-1.62648c0.38654,-0.43172 0.88101,-0.753 1.48341,-0.96384c0.6024,-0.21586 1.23241,-0.32379 1.89002,-0.32379c0.84838,0 1.59887,0.13554 2.25146,0.40662c0.65762,0.27108 1.1797,0.64507 1.56624,1.12197c0.18072,0.20582 0.26355,0.42168 0.24849,0.64758c-0.01004,0.22088 -0.11797,0.40913 -0.32379,0.56475c-0.20582,0.14056 -0.4518,0.18574 -0.73794,0.13554c-0.28112,-0.0502 -0.51706,-0.16566 -0.70782,-0.34638c-0.32128,-0.31124 -0.67017,-0.52459 -1.04667,-0.64005c-0.37148,-0.11546 -0.80069,-0.17319 -1.28763,-0.17319c-0.56726,0 -1.04667,0.09789 -1.43823,0.29367c-0.39156,0.19076 -0.58734,0.47188 -0.58734,0.84336c0,0.23092 0.06024,0.44176 0.18072,0.63252c0.1255,0.18574 0.36646,0.35391 0.72288,0.50451c0.36144,0.14558 0.88854,0.28865 1.5813,0.42921c0.96384,0.19076 1.72437,0.43423 2.28158,0.73041c0.56224,0.29618 0.96384,0.64005 1.2048,1.03161c0.24598,0.39156 0.36897,0.84336 0.36897,1.3554c0,0.59236 -0.15813,1.12699 -0.47439,1.60389c-0.31124,0.4769 -0.77308,0.85591 -1.38552,1.13703c-0.60742,0.28112 -1.36795,0.42168 -2.28158,0.42168zM174.45965,-130.26962c-0.56224,0 -1.06424,-0.15311 -1.506,-0.45933c-0.43674,-0.31124 -0.7781,-0.73292 -1.02408,-1.26504c-0.24096,-0.53212 -0.36144,-1.14707 -0.36144,-1.84484v-10.51937c0,-0.28614 0.09036,-0.51706 0.27108,-0.69276c0.18072,-0.18072 0.41164,-0.27108 0.69276,-0.27108c0.28614,0 0.51706,0.09036 0.69276,0.27108c0.18072,0.1757 0.27108,0.40662 0.27108,0.69276v10.51937c0,0.4769 0.09036,0.87097 0.27108,1.18221c0.18072,0.30622 0.41164,0.45933 0.69276,0.45933h0.48192c0.25602,0 0.46435,0.09036 0.62499,0.27108c0.16064,0.18072 0.24096,0.41164 0.24096,0.69276c0,0.28112 -0.12299,0.51204 -0.36897,0.69276c-0.24096,0.18072 -0.55471,0.27108 -0.94125,0.27108zM181.93842,-130.19432c-1.03914,0 -1.95779,-0.22841 -2.75597,-0.68523c-0.79818,-0.45682 -1.42568,-1.08683 -1.88249,-1.89002c-0.4518,-0.8032 -0.6777,-1.72437 -0.6777,-2.7635c0,-1.0542 0.2259,-1.9829 0.6777,-2.78609c0.45682,-0.8032 1.08432,-1.43321 1.88249,-1.89002c0.79818,-0.45682 1.71684,-0.68523 2.75597,-0.68523c1.0291,0 1.94273,0.22841 2.74091,0.68523c0.79818,0.45682 1.42317,1.08683 1.87496,1.89002c0.45682,0.8032 0.68523,1.73189 0.68523,2.78609c0,1.03914 -0.2259,1.96031 -0.6777,2.7635c-0.44678,0.8032 -1.06926,1.43321 -1.86743,1.89002c-0.79316,0.45682 -1.71182,0.68523 -2.75597,0.68523zM181.93842,-131.92622c0.66766,0 1.25751,-0.15311 1.76954,-0.45933c0.51706,-0.31124 0.91866,-0.73543 1.2048,-1.27257c0.29116,-0.54216 0.43674,-1.16715 0.43674,-1.87496c0,-0.70782 -0.14558,-1.33281 -0.43674,-1.87496c-0.28614,-0.54718 -0.68774,-0.97388 -1.2048,-1.2801c-0.51204,-0.31124 -1.10189,-0.46686 -1.76954,-0.46686c-0.66766,0 -1.26002,0.15562 -1.77707,0.46686c-0.51204,0.30622 -0.91615,0.73292 -1.21233,1.2801c-0.29116,0.54216 -0.43674,1.16715 -0.43674,1.87496c0,0.70782 0.14558,1.33281 0.43674,1.87496c0.29618,0.53714 0.70029,0.96133 1.21233,1.27257c0.51706,0.30622 1.10942,0.45933 1.77707,0.45933zM191.15511,-125.75917c-0.28112,0 -0.51706,-0.09287 -0.70782,-0.27861c-0.18574,-0.18574 -0.27861,-0.42168 -0.27861,-0.70782v-8.78748c0.01506,-1.01404 0.25351,-1.92516 0.71535,-2.73338c0.46184,-0.81324 1.09185,-1.45329 1.89002,-1.92014c0.79818,-0.47188 1.69676,-0.70782 2.69573,-0.70782c1.01906,0 1.92516,0.23594 2.71832,0.70782c0.79818,0.46686 1.4307,1.10691 1.89755,1.92014c0.47188,0.80822 0.70782,1.71935 0.70782,2.73338c0,1.01404 -0.21586,1.92266 -0.64758,2.72585c-0.43172,0.8032 -1.02157,1.44074 -1.76954,1.91261c-0.74296,0.46686 -1.5813,0.70029 -2.51501,0.70029c-0.75802,0 -1.4558,-0.15562 -2.09333,-0.46686c-0.63754,-0.31626 -1.1797,-0.74547 -1.62648,-1.28763v5.20321c0,0.28614 -0.09036,0.52208 -0.27108,0.70782c-0.18072,0.18574 -0.41917,0.27861 -0.71535,0.27861zM195.46979,-131.92622c0.65762,0 1.24245,-0.15813 1.75448,-0.47439c0.51706,-0.31626 0.92619,-0.74547 1.22739,-1.28763c0.3012,-0.54718 0.4518,-1.16213 0.4518,-1.84484c0,-0.69276 -0.1506,-1.31273 -0.4518,-1.8599c-0.3012,-0.54718 -0.71033,-0.97639 -1.22739,-1.28763c-0.51204,-0.31626 -1.09687,-0.47439 -1.75448,-0.47439c-0.64256,0 -1.22488,0.15813 -1.74695,0.47439c-0.51706,0.31124 -0.92368,0.74045 -1.21986,1.28763c-0.29618,0.54718 -0.44427,1.16715 -0.44427,1.8599c0,0.68272 0.14809,1.29767 0.44427,1.84484c0.29618,0.54216 0.7028,0.97137 1.21986,1.28763c0.52208,0.31626 1.1044,0.47439 1.74695,0.47439zM208.67496,-130.19432c-1.06424,0 -2.0105,-0.22841 -2.8388,-0.68523c-0.8283,-0.45682 -1.47839,-1.08683 -1.95026,-1.89002c-0.46686,-0.8032 -0.70029,-1.72437 -0.70029,-2.7635c0,-1.0542 0.22088,-1.9829 0.66264,-2.78609c0.44176,-0.8032 1.0542,-1.43321 1.83731,-1.89002c0.78814,-0.45682 1.68923,-0.68523 2.70326,-0.68523c1.004,0 1.86492,0.22339 2.58278,0.67017c0.71786,0.44176 1.26504,1.05169 1.64154,1.82978c0.38152,0.7781 0.57228,1.67417 0.57228,2.6882c0,0.24598 -0.08283,0.44929 -0.24849,0.60993c-0.16566,0.16064 -0.3765,0.24096 -0.63252,0.24096h-7.77094v-1.54365h7.7107l-0.79065,0.54216c-0.01506,-0.64256 -0.14558,-1.21735 -0.39156,-1.72437c-0.24096,-0.51204 -0.58734,-0.91364 -1.03914,-1.2048c-0.44678,-0.29618 -0.99145,-0.44427 -1.63401,-0.44427c-0.73292,0 -1.36042,0.16064 -1.88249,0.48192c-0.51706,0.32128 -0.91113,0.76053 -1.18221,1.31775c-0.27108,0.55722 -0.40662,1.18974 -0.40662,1.89755c0,0.70782 0.16064,1.33783 0.48192,1.89002c0.32128,0.5522 0.76304,0.98894 1.32528,1.31022c0.56726,0.32128 1.21735,0.48192 1.95026,0.48192c0.4016,0 0.81073,-0.07279 1.22739,-0.21837c0.41666,-0.1506 0.753,-0.32128 1.00902,-0.51204c0.19578,-0.14056 0.40411,-0.21335 0.62499,-0.21837c0.2259,-0.01004 0.42419,0.05522 0.59487,0.19578c0.21586,0.19578 0.32881,0.40913 0.33885,0.64005c0.01506,0.23092 -0.08534,0.42921 -0.3012,0.59487c-0.43674,0.34638 -0.98141,0.63001 -1.63401,0.85089c-0.64758,0.21586 -1.26755,0.32379 -1.8599,0.32379zM219.53136,-130.19432c-0.89858,0 -1.73189,-0.13805 -2.49995,-0.41415c-0.76304,-0.2761 -1.3554,-0.62499 -1.77707,-1.04667c-0.19578,-0.20582 -0.27861,-0.43925 -0.24849,-0.70029c0.03514,-0.26606 0.16064,-0.48443 0.3765,-0.65511c0.26104,-0.2008 0.51455,-0.28614 0.76053,-0.25602c0.251,0.03012 0.46686,0.14307 0.64758,0.33885c0.22088,0.24096 0.57228,0.46937 1.0542,0.68523c0.48192,0.21084 1.01906,0.31626 1.61142,0.31626c0.74296,0 1.31022,-0.12048 1.70178,-0.36144c0.39156,-0.24598 0.59487,-0.56224 0.60993,-0.94878c0.01004,-0.38654 -0.1757,-0.72037 -0.55722,-1.00149c-0.3765,-0.28614 -1.06424,-0.51957 -2.06321,-0.70029c-1.30018,-0.25602 -2.24393,-0.64005 -2.83127,-1.15209c-0.58232,-0.51706 -0.87348,-1.14707 -0.87348,-1.89002c0,-0.65762 0.19327,-1.19978 0.57981,-1.62648c0.38654,-0.43172 0.88101,-0.753 1.48341,-0.96384c0.6024,-0.21586 1.23241,-0.32379 1.89002,-0.32379c0.84838,0 1.59887,0.13554 2.25146,0.40662c0.65762,0.27108 1.1797,0.64507 1.56624,1.12197c0.18072,0.20582 0.26355,0.42168 0.24849,0.64758c-0.01004,0.22088 -0.11797,0.40913 -0.32379,0.56475c-0.20582,0.14056 -0.4518,0.18574 -0.73794,0.13554c-0.28112,-0.0502 -0.51706,-0.16566 -0.70782,-0.34638c-0.32128,-0.31124 -0.67017,-0.52459 -1.04667,-0.64005c-0.37148,-0.11546 -0.80069,-0.17319 -1.28763,-0.17319c-0.56726,0 -1.04667,0.09789 -1.43823,0.29367c-0.39156,0.19076 -0.58734,0.47188 -0.58734,0.84336c0,0.23092 0.06024,0.44176 0.18072,0.63252c0.1255,0.18574 0.36646,0.35391 0.72288,0.50451c0.36144,0.14558 0.88854,0.28865 1.5813,0.42921c0.96384,0.19076 1.72437,0.43423 2.28158,0.73041c0.56224,0.29618 0.96384,0.64005 1.2048,1.03161c0.24598,0.39156 0.36897,0.84336 0.36897,1.3554c0,0.59236 -0.15813,1.12699 -0.47439,1.60389c-0.31124,0.4769 -0.77308,0.85591 -1.38552,1.13703c-0.60742,0.28112 -1.36795,0.42168 -2.28158,0.42168z" data-paper-data="{&quot;origPos&quot;:null}" fill="#887c6b" stroke="#887c6b" stroke-width="1.5" stroke-linecap="square"/></g></g></svg>