<svg version="1.1" xmlns="http://www.w3.org/2000/svg" xmlns:xlink="http://www.w3.org/1999/xlink" width="28.96276" height="45.92553"><g transform="translate(-226.32211,-144.47619)"><g data-paper-data="{&quot;isPaintingLayer&quot;:true}" fill="none" fill-rule="nonzero" stroke="none" stroke-width="4" stroke-linecap="butt" stroke-linejoin="miter" stroke-miterlimit="10" stroke-dasharray="" stroke-dashoffset="0" font-family="none" font-weight="none" font-size="none" text-anchor="none" style="mix-blend-mode: normal"><path d="M252.54158,170.46266c0,1.36961 -5.2918,2.47989 -11.81957,2.47989c-6.52777,0 -11.81957,-1.11028 -11.81957,-2.47989c0,-1.36961 5.2918,-2.47989 11.81957,-2.47989c6.52777,0 11.81957,1.11028 11.81957,2.47989z" data-paper-data="{&quot;origPos&quot;:null}" stroke="#787878"/><path d="M252.91323,175.45845c0,1.36961 -5.2918,2.47989 -11.81957,2.47989c-6.52777,0 -11.81956,-1.11028 -11.81956,-2.47989c0,-1.36961 5.2918,-2.47989 11.81956,-2.47989c6.52777,0 11.81957,1.11028 11.81957,2.47989z" data-paper-data="{&quot;origPos&quot;:null}" stroke="#787878"/><path d="M252.91323,180.92603c0,1.36961 -5.2918,2.47989 -11.81957,2.47989c-6.52777,0 -11.81956,-1.11028 -11.81956,-2.47989c0,-1.36961 5.2918,-2.47989 11.81956,-2.47989c6.52777,0 11.81957,1.11028 11.81957,2.47989z" data-paper-data="{&quot;origPos&quot;:null}" stroke="#787878"/><path d="M253.28487,185.92183c0,1.36961 -5.2918,2.47989 -11.81957,2.47989c-6.52777,0 -11.81956,-1.11028 -11.81956,-2.47989c0,-1.36961 5.2918,-2.47989 11.81956,-2.47989c6.52777,0 11.81957,1.11028 11.81957,2.47989z" data-paper-data="{&quot;origPos&quot;:null}" stroke="#787878"/><path d="M251.96125,148.95608c0,1.36961 -5.2918,2.47989 -11.81957,2.47989c-6.52777,0 -11.81957,-1.11029 -11.81957,-2.47989c0,-1.36961 5.2918,-2.47989 11.81957,-2.47989c6.52777,0 11.81957,1.11029 11.81957,2.47989z" data-paper-data="{&quot;origPos&quot;:null}" stroke="#787878"/><path d="M252.3329,153.95187c0,1.36961 -5.2918,2.47989 -11.81957,2.47989c-6.52777,0 -11.81956,-1.11029 -11.81956,-2.47989c0,-1.36961 5.2918,-2.47989 11.81956,-2.47989c6.52777,0 11.81957,1.11029 11.81957,2.47989z" data-paper-data="{&quot;origPos&quot;:null}" stroke="#787878"/><path d="M252.3329,159.41945c0,1.36961 -5.2918,2.47989 -11.81957,2.47989c-6.52777,0 -11.81956,-1.11029 -11.81956,-2.47989c0,-1.36961 5.2918,-2.47989 11.81956,-2.47989c6.52777,0 11.81957,1.11028 11.81957,2.47989z" data-paper-data="{&quot;origPos&quot;:null}" stroke="#787878"/><path d="M252.70454,164.41525c0,1.36961 -5.2918,2.47989 -11.81957,2.47989c-6.52777,0 -11.81956,-1.11029 -11.81956,-2.47989c0,-1.36961 5.2918,-2.47989 11.81956,-2.47989c6.52777,0 11.81957,1.11029 11.81957,2.47989z" data-paper-data="{&quot;origPos&quot;:null}" stroke="#787878"/></g></g></svg>