<svg version="1.1" xmlns="http://www.w3.org/2000/svg" xmlns:xlink="http://www.w3.org/1999/xlink" width="271.24487" height="332.37101"><defs><linearGradient x1="404.74518" y1="292.4183" x2="384.25277" y2="311.98841" gradientUnits="userSpaceOnUse" id="color-1"><stop offset="0" stop-color="#8e8e8e"/><stop offset="1" stop-color="#818181"/></linearGradient><linearGradient x1="319.24331" y1="246.32637" x2="315.75482" y2="278.05728" gradientUnits="userSpaceOnUse" id="color-2"><stop offset="0" stop-color="#8e8e8e"/><stop offset="1" stop-color="#818181"/></linearGradient></defs><g transform="translate(-231.17424,-185.02904)"><g data-paper-data="{&quot;isPaintingLayer&quot;:true}" fill="none" fill-rule="nonzero" stroke="none" stroke-width="none" stroke-linecap="butt" stroke-linejoin="miter" stroke-miterlimit="10" stroke-dasharray="" stroke-dashoffset="0" font-family="none" font-weight="none" font-size="none" text-anchor="none" style="mix-blend-mode: normal"><path d="M241.90792,289.00005v-80h241.41026v80z" data-paper-data="{&quot;origPos&quot;:null}" fill="#847968" stroke-width="NaN"/><path d="M271.90792,275.00005v-40h185.76923v40z" data-paper-data="{&quot;origPos&quot;:null}" fill="#7c7262" stroke-width="0"/><path d="M272.80538,517.40005v-252h185.76922v252z" data-paper-data="{&quot;origPos&quot;:null}" fill="#786e5f" stroke-width="0"/><path d="M268.31818,217.00008v-9h187.56411v9z" data-paper-data="{&quot;origPos&quot;:null}" fill="#61584c" stroke-width="0"/><path d="M272.80538,212.00008v-19h187.56409v19z" data-paper-data="{&quot;origPos&quot;:null}" fill="#91b782" stroke-width="0"/><path d="M271.90792,212.00008v-12h187.56411v12z" data-paper-data="{&quot;origPos&quot;:null}" fill="#8aaf7c" stroke-width="0"/><g data-paper-data="{&quot;origPos&quot;:null,&quot;origRot&quot;:0}" stroke-width="0"><path d="M247.1701,479.82475l-10.63436,-290.13572l36.95835,-1.35464l10.63436,290.13573z" data-paper-data="{&quot;origPos&quot;:null}" fill="#d3bb76"/><path d="M239.43789,264.83314l-2.36163,-64.43207l37.31032,-1.36754l2.36163,64.43207z" data-paper-data="{&quot;origPos&quot;:null}" fill="#b9a568"/><path d="M233.54902,260.9824l-2.37478,-64.79083l47.92943,-1.75676l2.37478,64.79083z" data-paper-data="{&quot;origPos&quot;:null}" fill="#e7cd81"/><path d="M240.50413,250.79824l-1.73572,-47.35541l5.16604,-0.18935l1.73572,47.35542z" data-paper-data="{&quot;origPos&quot;:null}" fill="#b9a568"/><path d="M240.45362,249.42057l-1.73571,-47.35541l5.16604,-0.18935l1.73571,47.35542z" data-paper-data="{&quot;origPos&quot;:null}" fill="#d3bb76"/><path d="M239.07504,207.10441l-0.18304,-4.99384l24.96922,-0.9152l0.18304,4.99384z" data-paper-data="{&quot;origPos&quot;:null}" fill="#d3bb76"/><path d="M260.13865,240.76719l-1.43276,-39.08975l5.16605,-0.18935l1.43276,39.08975z" data-paper-data="{&quot;origPos&quot;:null}" fill="#d3bb76"/><path d="M250.15728,241.30542l-0.99725,-27.20784l5.16605,-0.18935l0.99725,27.20784z" data-paper-data="{&quot;origPos&quot;:null}" fill="#d3bb76"/><path d="M250.33136,241.35081l-0.20197,-5.51046l14.80933,-0.54281l0.20197,5.51046z" data-paper-data="{&quot;origPos&quot;:null}" fill="#d3bb76"/><path d="M240.53756,251.71086l-0.18303,-4.99384l33.92369,-1.24341l0.18303,4.99384z" data-paper-data="{&quot;origPos&quot;:null}" fill="#d3bb76"/><path d="M270.15434,250.57358l-1.81146,-49.42184l5.16604,-0.18935l1.81146,49.42184z" data-paper-data="{&quot;origPos&quot;:null}" fill="#d3bb76"/><path d="M244.91321,386.91454l-2.36163,-64.43207l37.31032,-1.36754l2.36163,64.43207z" data-paper-data="{&quot;origPos&quot;:null}" fill="#b9a568"/><path d="M239.02434,383.06382l-2.37478,-64.79083l47.92943,-1.75676l2.37478,64.79083z" data-paper-data="{&quot;origPos&quot;:null}" fill="#e7cd81"/><path d="M245.97946,372.87964l-1.73572,-47.35541l5.16604,-0.18935l1.73571,47.35542z" data-paper-data="{&quot;origPos&quot;:null}" fill="#b9a568"/><path d="M245.92896,371.50203l-1.73572,-47.35541l5.16604,-0.18935l1.73572,47.35542z" data-paper-data="{&quot;origPos&quot;:null}" fill="#d3bb76"/><path d="M244.55037,329.18577l-0.18303,-4.99384l24.96922,-0.9152l0.18303,4.99384z" data-paper-data="{&quot;origPos&quot;:null}" fill="#d3bb76"/><path d="M265.61398,362.84861l-1.43276,-39.08975l5.16605,-0.18935l1.43276,39.08975z" data-paper-data="{&quot;origPos&quot;:null}" fill="#d3bb76"/><path d="M255.6326,363.38689l-0.99725,-27.20784l5.16605,-0.18935l0.99725,27.20784z" data-paper-data="{&quot;origPos&quot;:null}" fill="#d3bb76"/><path d="M255.80669,363.43223l-0.20198,-5.51046l14.80933,-0.54281l0.20198,5.51046z" data-paper-data="{&quot;origPos&quot;:null}" fill="#d3bb76"/><path d="M246.01289,373.7923l-0.18303,-4.99384l33.92369,-1.24341l0.18303,4.99384z" data-paper-data="{&quot;origPos&quot;:null}" fill="#d3bb76"/><path d="M275.62966,372.65503l-1.81146,-49.42184l5.16604,-0.18935l1.81146,49.42184z" data-paper-data="{&quot;origPos&quot;:null}" fill="#d3bb76"/><path d="M247.09425,434.65833l-1.46954,-40.09341l36.73632,-1.3465l1.46954,40.09341z" data-paper-data="{&quot;origPos&quot;:null}" fill="#b9a568"/><path d="M241.2102,430.93907l-1.36328,-37.19404l47.92943,-1.75676l1.36328,37.19404z" data-paper-data="{&quot;origPos&quot;:null}" fill="#e7cd81"/><path d="M247.01405,424.62907l-0.94676,-25.83024l5.16605,-0.18935l0.94676,25.83024z" data-paper-data="{&quot;origPos&quot;:null}" fill="#d3bb76"/><path d="M277.13881,423.2375l-0.94675,-25.83024l5.16604,-0.18935l0.94675,25.83024z" data-paper-data="{&quot;origPos&quot;:null}" fill="#d3bb76"/><path d="M256.18761,424.00542l-0.94676,-25.83024l5.16604,-0.18935l0.94676,25.83024z" data-paper-data="{&quot;origPos&quot;:null}" fill="#d3bb76"/><path d="M268.24173,423.56359l-0.94676,-25.83024l5.16604,-0.18935l0.94676,25.83024z" data-paper-data="{&quot;origPos&quot;:null}" fill="#d3bb76"/><path d="M257.56709,423.74414l-0.21039,-5.74005l12.91512,-0.47337l0.21039,5.74005z" data-paper-data="{&quot;origPos&quot;:null}" fill="#d3bb76"/><path d="M257.70224,403.9094l-0.21039,-5.74006l12.91512,-0.47337l0.21039,5.74006z" data-paper-data="{&quot;origPos&quot;:null}" fill="#d3bb76"/><path d="M241.61892,312.57696l-1.46954,-40.09341l36.73632,-1.3465l1.46954,40.09341z" data-paper-data="{&quot;origPos&quot;:null}" fill="#b9a568"/><path d="M235.73487,308.85758l-1.36328,-37.19404l47.92943,-1.75676l1.36328,37.19404z" data-paper-data="{&quot;origPos&quot;:null}" fill="#e7cd81"/><path d="M241.53874,302.54768l-0.94676,-25.83024l5.16605,-0.18935l0.94676,25.83024z" data-paper-data="{&quot;origPos&quot;:null}" fill="#d3bb76"/><path d="M271.66349,301.15602l-0.94675,-25.83024l5.16604,-0.18935l0.94675,25.83024z" data-paper-data="{&quot;origPos&quot;:null}" fill="#d3bb76"/><path d="M250.71229,301.92393l-0.94675,-25.83024l5.16604,-0.18935l0.94675,25.83024z" data-paper-data="{&quot;origPos&quot;:null}" fill="#d3bb76"/><path d="M262.76639,301.48215l-0.94675,-25.83024l5.16604,-0.18935l0.94675,25.83024z" data-paper-data="{&quot;origPos&quot;:null}" fill="#d3bb76"/><path d="M252.09174,301.66265l-0.21039,-5.74005l12.91512,-0.47337l0.21039,5.74005z" data-paper-data="{&quot;origPos&quot;:null}" fill="#d3bb76"/><path d="M252.22693,281.82795l-0.21039,-5.74006l12.91512,-0.47337l0.21039,5.74006z" data-paper-data="{&quot;origPos&quot;:null}" fill="#d3bb76"/></g><g data-paper-data="{&quot;origPos&quot;:null,&quot;origRot&quot;:0,&quot;index&quot;:null}" stroke-width="0"><path d="M452.21584,475.27514l7.00234,-290.24609l36.97241,0.89198l-7.00234,290.2461z" data-paper-data="{&quot;origPos&quot;:null}" fill="#d3bb76"/><path d="M457.55222,260.21065l1.55505,-64.45659l37.32452,0.90048l-1.55505,64.45659z" data-paper-data="{&quot;origPos&quot;:null}" fill="#b9a568"/><path d="M451.90802,256.00954l1.56371,-64.81548l47.94766,1.15676l-1.56371,64.81548z" data-paper-data="{&quot;origPos&quot;:null}" fill="#e7cd81"/><path d="M459.46872,246.26645l1.14291,-47.37342l5.16801,0.12468l-1.14291,47.37344z" data-paper-data="{&quot;origPos&quot;:null}" fill="#b9a568"/><path d="M459.50193,244.88833l1.14291,-47.37342l5.168,0.12468l-1.14291,47.37343z" data-paper-data="{&quot;origPos&quot;:null}" fill="#d3bb76"/><path d="M460.69535,202.5665l0.12052,-4.99575l24.97872,0.60262l-0.12053,4.99575z" data-paper-data="{&quot;origPos&quot;:null}" fill="#d3bb76"/><path d="M479.67608,237.44616l0.94342,-39.10462l5.16801,0.12468l-0.94342,39.10462z" data-paper-data="{&quot;origPos&quot;:null}" fill="#d3bb76"/><path d="M469.68046,237.37733l0.65665,-27.21819l5.16802,0.12468l-0.65666,27.21819z" data-paper-data="{&quot;origPos&quot;:null}" fill="#d3bb76"/><path d="M469.85146,237.43318l0.133,-5.51254l14.81497,0.35743l-0.13299,5.51254z" data-paper-data="{&quot;origPos&quot;:null}" fill="#d3bb76"/><path d="M459.44667,247.17943l0.12052,-4.99574l33.9366,0.81874l-0.12053,4.99574z" data-paper-data="{&quot;origPos&quot;:null}" fill="#d3bb76"/><path d="M489.07782,247.84258l1.19278,-49.44063l5.168,0.12468l-1.19278,49.44064z" data-paper-data="{&quot;origPos&quot;:null}" fill="#d3bb76"/><path d="M455.60465,382.39932l1.55505,-64.45658l37.32452,0.90047l-1.55505,64.45658z" data-paper-data="{&quot;origPos&quot;:null}" fill="#b9a568"/><path d="M449.96047,378.19813l1.56371,-64.81548l47.94765,1.15677l-1.56371,64.81548z" data-paper-data="{&quot;origPos&quot;:null}" fill="#e7cd81"/><path d="M457.52113,368.45506l1.14291,-47.37342l5.168,0.12468l-1.1429,47.37343z" data-paper-data="{&quot;origPos&quot;:null}" fill="#b9a568"/><path d="M457.55436,367.07691l1.14291,-47.37343l5.168,0.12468l-1.14291,47.37343z" data-paper-data="{&quot;origPos&quot;:null}" fill="#d3bb76"/><path d="M458.74776,324.75506l0.12052,-4.99574l24.97872,0.60263l-0.12053,4.99575z" data-paper-data="{&quot;origPos&quot;:null}" fill="#d3bb76"/><path d="M477.72849,359.63474l0.94342,-39.10462l5.16802,0.12468l-0.94342,39.10462z" data-paper-data="{&quot;origPos&quot;:null}" fill="#d3bb76"/><path d="M467.73286,359.56594l0.65666,-27.21819l5.16802,0.12468l-0.65665,27.21819z" data-paper-data="{&quot;origPos&quot;:null}" fill="#d3bb76"/><path d="M467.90388,359.62173l0.13299,-5.51254l14.81497,0.35742l-0.133,5.51255z" data-paper-data="{&quot;origPos&quot;:null}" fill="#d3bb76"/><path d="M457.49907,369.36807l0.12052,-4.99574l33.93661,0.81874l-0.12052,4.99575z" data-paper-data="{&quot;origPos&quot;:null}" fill="#d3bb76"/><path d="M487.13024,370.0312l1.19278,-49.44063l5.168,0.12468l-1.19278,49.44063z" data-paper-data="{&quot;origPos&quot;:null}" fill="#d3bb76"/><path d="M454.88266,430.18745l0.96764,-40.10866l36.7503,0.88662l-0.96765,40.10866z" data-paper-data="{&quot;origPos&quot;:null}" fill="#b9a568"/><path d="M449.23529,426.11771l0.89767,-37.20819l47.94766,1.15677l-0.89766,37.20818z" data-paper-data="{&quot;origPos&quot;:null}" fill="#e7cd81"/><path d="M455.41158,420.17178l0.62341,-25.84007l5.16801,0.12468l-0.62341,25.84006z" data-paper-data="{&quot;origPos&quot;:null}" fill="#d3bb76"/><path d="M485.56526,420.61199l0.62341,-25.84006l5.16801,0.12468l-0.62341,25.84006z" data-paper-data="{&quot;origPos&quot;:null}" fill="#d3bb76"/><path d="M464.6061,420.10633l0.62341,-25.84006l5.168,0.12468l-0.6234,25.84006z" data-paper-data="{&quot;origPos&quot;:null}" fill="#d3bb76"/><path d="M476.66479,420.39726l0.62341,-25.84006l5.168,0.12468l-0.62341,25.84006z" data-paper-data="{&quot;origPos&quot;:null}" fill="#d3bb76"/><path d="M465.99889,419.92927l0.13854,-5.74223l12.92003,0.3117l-0.13854,5.74223z" data-paper-data="{&quot;origPos&quot;:null}" fill="#d3bb76"/><path d="M467.33815,400.13936l0.13854,-5.74224l12.92003,0.3117l-0.13854,5.74224z" data-paper-data="{&quot;origPos&quot;:null}" fill="#d3bb76"/><path d="M456.83021,307.99888l0.96765,-40.10866l36.75029,0.88662l-0.96764,40.10867z" data-paper-data="{&quot;origPos&quot;:null}" fill="#b9a568"/><path d="M451.18288,303.92913l0.89767,-37.20819l47.94766,1.15676l-0.89766,37.20819z" data-paper-data="{&quot;origPos&quot;:null}" fill="#e7cd81"/><path d="M457.35915,297.98321l0.62341,-25.84006l5.16801,0.12468l-0.6234,25.84006z" data-paper-data="{&quot;origPos&quot;:null}" fill="#d3bb76"/><path d="M487.51283,298.42332l0.6234,-25.84006l5.16801,0.12468l-0.6234,25.84006z" data-paper-data="{&quot;origPos&quot;:null}" fill="#d3bb76"/><path d="M466.55366,297.91767l0.6234,-25.84007l5.16801,0.12468l-0.62341,25.84006z" data-paper-data="{&quot;origPos&quot;:null}" fill="#d3bb76"/><path d="M478.61236,298.2086l0.6234,-25.84006l5.16801,0.12468l-0.62341,25.84006z" data-paper-data="{&quot;origPos&quot;:null}" fill="#d3bb76"/><path d="M467.94643,297.74064l0.13854,-5.74223l12.92003,0.3117l-0.13853,5.74223z" data-paper-data="{&quot;origPos&quot;:null}" fill="#d3bb76"/><path d="M469.28572,277.95071l0.13854,-5.74224l12.92003,0.31171l-0.13854,5.74223z" data-paper-data="{&quot;origPos&quot;:null}" fill="#d3bb76"/></g><g data-paper-data="{&quot;origPos&quot;:null,&quot;origRot&quot;:0,&quot;index&quot;:null}" stroke-width="0"><path d="M453.21557,475.29926l7.00233,-290.2461l36.97241,0.89198l-7.00234,290.24611z" data-paper-data="{&quot;origPos&quot;:null}" fill="#d3bb76"/><path d="M458.55193,260.23482l1.55505,-64.45658l37.32452,0.90047l-1.55505,64.45659z" data-paper-data="{&quot;origPos&quot;:null}" fill="#b9a568"/><path d="M452.90775,256.03362l1.5637,-64.81548l47.94766,1.15676l-1.56371,64.81548z" data-paper-data="{&quot;origPos&quot;:null}" fill="#e7cd81"/><path d="M460.46842,246.29054l1.14291,-47.37342l5.168,0.12468l-1.14291,47.37344z" data-paper-data="{&quot;origPos&quot;:null}" fill="#b9a568"/><path d="M460.50165,244.91242l1.14291,-47.37343l5.168,0.12469l-1.14291,47.37343z" data-paper-data="{&quot;origPos&quot;:null}" fill="#d3bb76"/><path d="M461.69506,202.59061l0.12052,-4.99575l24.97872,0.60262l-0.12052,4.99574z" data-paper-data="{&quot;origPos&quot;:null}" fill="#d3bb76"/><path d="M480.6758,237.47025l0.94342,-39.10462l5.16802,0.12468l-0.94342,39.10462z" data-paper-data="{&quot;origPos&quot;:null}" fill="#d3bb76"/><path d="M470.68015,237.40149l0.65666,-27.21819l5.16801,0.12468l-0.65665,27.21819z" data-paper-data="{&quot;origPos&quot;:null}" fill="#d3bb76"/><path d="M470.85117,237.45728l0.13299,-5.51254l14.81497,0.35742l-0.13299,5.51255z" data-paper-data="{&quot;origPos&quot;:null}" fill="#d3bb76"/><path d="M460.44638,247.20359l0.12052,-4.99574l33.93661,0.81874l-0.12053,4.99574z" data-paper-data="{&quot;origPos&quot;:null}" fill="#d3bb76"/><path d="M490.07755,247.86673l1.19278,-49.44064l5.16801,0.12468l-1.19278,49.44063z" data-paper-data="{&quot;origPos&quot;:null}" fill="#d3bb76"/><path d="M456.60437,382.42342l1.55505,-64.45658l37.32451,0.90047l-1.55505,64.45659z" data-paper-data="{&quot;origPos&quot;:null}" fill="#b9a568"/><path d="M450.96016,378.22226l1.56371,-64.81548l47.94766,1.15676l-1.56371,64.81548z" data-paper-data="{&quot;origPos&quot;:null}" fill="#e7cd81"/><path d="M458.52086,368.47917l1.1429,-47.37343l5.16801,0.12468l-1.14291,47.37344z" data-paper-data="{&quot;origPos&quot;:null}" fill="#b9a568"/><path d="M458.55409,367.10104l1.14291,-47.37343l5.168,0.12468l-1.14291,47.37343z" data-paper-data="{&quot;origPos&quot;:null}" fill="#d3bb76"/><path d="M459.74749,324.77915l0.12053,-4.99574l24.97872,0.60263l-0.12052,4.99575z" data-paper-data="{&quot;origPos&quot;:null}" fill="#d3bb76"/><path d="M478.72822,359.65886l0.94342,-39.10462l5.16801,0.12468l-0.94342,39.10462z" data-paper-data="{&quot;origPos&quot;:null}" fill="#d3bb76"/><path d="M468.73259,359.59003l0.65665,-27.21819l5.16802,0.12468l-0.65666,27.21819z" data-paper-data="{&quot;origPos&quot;:null}" fill="#d3bb76"/><path d="M468.90359,359.64589l0.13299,-5.51254l14.81497,0.35742l-0.13299,5.51255z" data-paper-data="{&quot;origPos&quot;:null}" fill="#d3bb76"/><path d="M458.4988,369.3922l0.12053,-4.99575l33.9366,0.81875l-0.12053,4.99574z" data-paper-data="{&quot;origPos&quot;:null}" fill="#d3bb76"/><path d="M488.12997,370.05534l1.19278,-49.44063l5.16801,0.12467l-1.19278,49.44064z" data-paper-data="{&quot;origPos&quot;:null}" fill="#d3bb76"/><path d="M455.88235,430.21155l0.96764,-40.10865l36.7503,0.88661l-0.96764,40.10867z" data-paper-data="{&quot;origPos&quot;:null}" fill="#b9a568"/><path d="M450.23502,426.14188l0.89767,-37.20819l47.94765,1.15676l-0.89766,37.20818z" data-paper-data="{&quot;origPos&quot;:null}" fill="#e7cd81"/><path d="M456.41129,420.19592l0.62341,-25.84006l5.16801,0.12468l-0.62341,25.84006z" data-paper-data="{&quot;origPos&quot;:null}" fill="#d3bb76"/><path d="M486.56497,420.63612l0.62341,-25.84006l5.168,0.12468l-0.62341,25.84006z" data-paper-data="{&quot;origPos&quot;:null}" fill="#d3bb76"/><path d="M465.60579,420.13045l0.62341,-25.84006l5.168,0.12468l-0.6234,25.84006z" data-paper-data="{&quot;origPos&quot;:null}" fill="#d3bb76"/><path d="M477.6645,420.42138l0.62341,-25.84006l5.168,0.12468l-0.62341,25.84006z" data-paper-data="{&quot;origPos&quot;:null}" fill="#d3bb76"/><path d="M466.99859,419.95339l0.13853,-5.74223l12.92003,0.3117l-0.13853,5.74222z" data-paper-data="{&quot;origPos&quot;:null}" fill="#d3bb76"/><path d="M468.33788,400.16345l0.13853,-5.74224l12.92003,0.3117l-0.13854,5.74224z" data-paper-data="{&quot;origPos&quot;:null}" fill="#d3bb76"/><path d="M457.82994,308.02297l0.96764,-40.10866l36.7503,0.88662l-0.96764,40.10866z" data-paper-data="{&quot;origPos&quot;:null}" fill="#b9a568"/><path d="M452.18258,303.95322l0.89766,-37.20819l47.94766,1.15677l-0.89767,37.20818z" data-paper-data="{&quot;origPos&quot;:null}" fill="#e7cd81"/><path d="M458.35885,298.0073l0.6234,-25.84007l5.16802,0.12468l-0.62341,25.84006z" data-paper-data="{&quot;origPos&quot;:null}" fill="#d3bb76"/><path d="M488.51255,298.44748l0.62341,-25.84007l5.168,0.12468l-0.6234,25.84006z" data-paper-data="{&quot;origPos&quot;:null}" fill="#d3bb76"/><path d="M467.55337,297.94184l0.62341,-25.84006l5.168,0.12468l-0.6234,25.84006z" data-paper-data="{&quot;origPos&quot;:null}" fill="#d3bb76"/><path d="M479.61207,298.23276l0.62341,-25.84006l5.16801,0.12468l-0.6234,25.84006z" data-paper-data="{&quot;origPos&quot;:null}" fill="#d3bb76"/><path d="M468.94614,297.76473l0.13854,-5.74223l12.92003,0.31171l-0.13854,5.74223z" data-paper-data="{&quot;origPos&quot;:null}" fill="#d3bb76"/><path d="M470.28545,277.97479l0.13854,-5.74224l12.92003,0.3117l-0.13854,5.74224z" data-paper-data="{&quot;origPos&quot;:null}" fill="#d3bb76"/></g><g data-paper-data="{&quot;origPos&quot;:null}"><path d="M377.5505,303.90853l8.28566,-14.35289l22.20779,6.88753l-7.94537,21.95397l-16.06516,-1.37884z" data-paper-data="{&quot;origPos&quot;:null,&quot;origRot&quot;:0}" fill="#534c42" stroke-width="0"/><path d="M380.45636,302.34004l7.43586,-12.88079l19.93006,6.18112l-7.13047,19.70227l-14.41745,-1.23742z" data-paper-data="{&quot;origPos&quot;:null,&quot;origRot&quot;:0}" fill="url(#color-1)" stroke-width="NaN"/></g><g data-paper-data="{&quot;origPos&quot;:null,&quot;origRot&quot;:0}"><path d="M304.11823,275.94696l-3.2574,-18.38386l24.14474,-10.15653l9.06025,24.69257l-14.8544,10.4551z" data-paper-data="{&quot;origPos&quot;:null,&quot;origRot&quot;:0}" fill="#534c42" stroke-width="0"/><path d="M305.48747,272.48807l-2.92329,-16.49834l21.66835,-9.11482l8.13097,22.16l-13.33088,9.38278z" data-paper-data="{&quot;origPos&quot;:null,&quot;origRot&quot;:0}" fill="url(#color-2)" stroke-width="NaN"/></g></g></g></svg>