<svg version="1.1" xmlns="http://www.w3.org/2000/svg" xmlns:xlink="http://www.w3.org/1999/xlink" width="476.33501" height="659.51863"><defs><linearGradient x1="167.05496" y1="465.8187" x2="192.74201" y2="497.6063" gradientUnits="userSpaceOnUse" id="color-1"><stop offset="0" stop-color="#8e8e8e"/><stop offset="1" stop-color="#818181"/></linearGradient><linearGradient x1="191.74517" y1="454.41826" x2="171.25275" y2="473.98837" gradientUnits="userSpaceOnUse" id="color-2"><stop offset="0" stop-color="#8e8e8e"/><stop offset="1" stop-color="#818181"/></linearGradient><linearGradient x1="339.74516" y1="263.41828" x2="319.25275" y2="282.98839" gradientUnits="userSpaceOnUse" id="color-3"><stop offset="0" stop-color="#8e8e8e"/><stop offset="1" stop-color="#818181"/></linearGradient><linearGradient x1="334.05497" y1="185.81872" x2="359.74201" y2="217.60632" gradientUnits="userSpaceOnUse" id="color-4"><stop offset="0" stop-color="#8e8e8e"/><stop offset="1" stop-color="#818181"/></linearGradient></defs><g transform="translate(-45.30611,15.82425)"><g data-paper-data="{&quot;isPaintingLayer&quot;:true}" fill="none" fill-rule="nonzero" stroke="none" stroke-width="none" stroke-linecap="butt" stroke-linejoin="miter" stroke-miterlimit="10" stroke-dasharray="" stroke-dashoffset="0" font-family="none" font-weight="none" font-size="none" text-anchor="none" style="mix-blend-mode: normal"><g data-paper-data="{&quot;origPos&quot;:null}" stroke-width="0"><g data-paper-data="{&quot;origPos&quot;:null}"><path d="M69.84481,306.29438v-290.33055h36.98317v290.33056z" data-paper-data="{&quot;origPos&quot;:null}" fill="#d3bb76"/><path d="M69.9926,91.16378v-64.47534h37.33538v64.47534z" data-paper-data="{&quot;origPos&quot;:null}" fill="#b9a568"/><path d="M64.24872,87.09998v-64.83434h47.96161v64.83434z" data-paper-data="{&quot;origPos&quot;:null}" fill="#e7cd81"/><path d="M71.57221,77.17736v-47.38721h5.16951v47.38722z" data-paper-data="{&quot;origPos&quot;:null}" fill="#b9a568"/><path d="M71.57216,75.79882v-47.38721h5.16951v47.38722z" data-paper-data="{&quot;origPos&quot;:null}" fill="#d3bb76"/><path d="M71.74449,33.46057v-4.9972h24.98599v4.9972z" data-paper-data="{&quot;origPos&quot;:null}" fill="#d3bb76"/><path d="M91.56095,67.87225v-39.116h5.16952v39.116z" data-paper-data="{&quot;origPos&quot;:null}" fill="#d3bb76"/><path d="M81.56655,68.04457v-27.22611h5.16952v27.22611z" data-paper-data="{&quot;origPos&quot;:null}" fill="#d3bb76"/><path d="M81.73886,68.09623v-5.51415h14.81928v5.51415z" data-paper-data="{&quot;origPos&quot;:null}" fill="#d3bb76"/><path d="M71.57216,78.09066v-4.9972h33.94648v4.9972z" data-paper-data="{&quot;origPos&quot;:null}" fill="#d3bb76"/><path d="M101.21071,78.03894v-49.45502h5.16951v49.45502z" data-paper-data="{&quot;origPos&quot;:null}" fill="#d3bb76"/><path d="M70.9926,213.36385v-64.47534h37.33538v64.47534z" data-paper-data="{&quot;origPos&quot;:null}" fill="#b9a568"/><path d="M65.24872,209.29994v-64.83434h47.96161v64.83434z" data-paper-data="{&quot;origPos&quot;:null}" fill="#e7cd81"/><path d="M72.57221,199.3774v-47.38721h5.16951v47.38722z" data-paper-data="{&quot;origPos&quot;:null}" fill="#b9a568"/><path d="M72.57221,197.99885v-47.38721h5.16951v47.38722z" data-paper-data="{&quot;origPos&quot;:null}" fill="#d3bb76"/><path d="M72.74449,155.66055v-4.9972h24.98599v4.9972z" data-paper-data="{&quot;origPos&quot;:null}" fill="#d3bb76"/><path d="M92.56095,190.0723v-39.116h5.16952v39.116z" data-paper-data="{&quot;origPos&quot;:null}" fill="#d3bb76"/><path d="M82.56655,190.24461v-27.22611h5.16952v27.22611z" data-paper-data="{&quot;origPos&quot;:null}" fill="#d3bb76"/><path d="M82.73886,190.29631v-5.51415h14.81928v5.51415z" data-paper-data="{&quot;origPos&quot;:null}" fill="#d3bb76"/><path d="M72.57216,200.29071v-4.9972h33.94648v4.9972z" data-paper-data="{&quot;origPos&quot;:null}" fill="#d3bb76"/><path d="M102.21071,200.23902v-49.45502h5.16951v49.45502z" data-paper-data="{&quot;origPos&quot;:null}" fill="#d3bb76"/><path d="M71.42339,261.15546v-40.12033h36.76099v40.12033z" data-paper-data="{&quot;origPos&quot;:null}" fill="#b9a568"/><path d="M65.67951,257.22319v-37.21901h47.96161v37.21901z" data-paper-data="{&quot;origPos&quot;:null}" fill="#e7cd81"/><path d="M71.71058,251.13002v-25.84758h5.16952v25.84758z" data-paper-data="{&quot;origPos&quot;:null}" fill="#d3bb76"/><path d="M101.86611,250.84278v-25.84758h5.16951v25.84758z" data-paper-data="{&quot;origPos&quot;:null}" fill="#d3bb76"/><path d="M80.90083,250.84278v-25.84758h5.16951v25.84758z" data-paper-data="{&quot;origPos&quot;:null}" fill="#d3bb76"/><path d="M92.96303,250.84278v-25.84758h5.16951v25.84758z" data-paper-data="{&quot;origPos&quot;:null}" fill="#d3bb76"/><path d="M82.28894,250.63218v-5.7439h12.92379v5.7439z" data-paper-data="{&quot;origPos&quot;:null}" fill="#d3bb76"/><path d="M83.15052,230.81572v-5.74391h12.92379v5.74391z" data-paper-data="{&quot;origPos&quot;:null}" fill="#d3bb76"/><path d="M70.42339,138.95548v-40.12033h36.76099v40.12033z" data-paper-data="{&quot;origPos&quot;:null}" fill="#b9a568"/><path d="M64.67951,135.02318v-37.21901h47.96161v37.21901z" data-paper-data="{&quot;origPos&quot;:null}" fill="#e7cd81"/><path d="M70.71058,128.93v-25.84758h5.16952v25.84758z" data-paper-data="{&quot;origPos&quot;:null}" fill="#d3bb76"/><path d="M100.86611,128.64271v-25.84758h5.16951v25.84758z" data-paper-data="{&quot;origPos&quot;:null}" fill="#d3bb76"/><path d="M79.90083,128.64271v-25.84758h5.16951v25.84758z" data-paper-data="{&quot;origPos&quot;:null}" fill="#d3bb76"/><path d="M91.96303,128.64271v-25.84758h5.16951v25.84758z" data-paper-data="{&quot;origPos&quot;:null}" fill="#d3bb76"/><path d="M81.28893,128.43211v-5.7439h12.92379v5.7439z" data-paper-data="{&quot;origPos&quot;:null}" fill="#d3bb76"/><path d="M82.15052,108.61565v-5.74391h12.92379v5.74391z" data-paper-data="{&quot;origPos&quot;:null}" fill="#d3bb76"/></g><g data-paper-data="{&quot;origPos&quot;:null}"><path d="M71.84481,555.69437v-290.33055h36.98317v290.33056z" data-paper-data="{&quot;origPos&quot;:null}" fill="#d3bb76"/><path d="M71.9926,340.56378v-64.47534h37.33538v64.47534z" data-paper-data="{&quot;origPos&quot;:null}" fill="#b9a568"/><path d="M66.24872,336.49997v-64.83434h47.96161v64.83434z" data-paper-data="{&quot;origPos&quot;:null}" fill="#e7cd81"/><path d="M73.57221,326.57735v-47.38721h5.16951v47.38722z" data-paper-data="{&quot;origPos&quot;:null}" fill="#b9a568"/><path d="M73.57216,325.19882v-47.38721h5.16951v47.38722z" data-paper-data="{&quot;origPos&quot;:null}" fill="#d3bb76"/><path d="M73.74449,282.86056v-4.9972h24.98599v4.9972z" data-paper-data="{&quot;origPos&quot;:null}" fill="#d3bb76"/><path d="M93.56095,317.27224v-39.116h5.16952v39.116z" data-paper-data="{&quot;origPos&quot;:null}" fill="#d3bb76"/><path d="M83.56655,317.44456v-27.22611h5.16952v27.22611z" data-paper-data="{&quot;origPos&quot;:null}" fill="#d3bb76"/><path d="M83.73886,317.49623v-5.51415h14.81928v5.51415z" data-paper-data="{&quot;origPos&quot;:null}" fill="#d3bb76"/><path d="M73.57216,327.49065v-4.9972h33.94648v4.9972z" data-paper-data="{&quot;origPos&quot;:null}" fill="#d3bb76"/><path d="M103.21071,327.43893v-49.45502h5.16951v49.45502z" data-paper-data="{&quot;origPos&quot;:null}" fill="#d3bb76"/><path d="M72.9926,462.76384v-64.47534h37.33538v64.47534z" data-paper-data="{&quot;origPos&quot;:null}" fill="#b9a568"/><path d="M67.24872,458.69994v-64.83434h47.96161v64.83434z" data-paper-data="{&quot;origPos&quot;:null}" fill="#e7cd81"/><path d="M74.57221,448.77739v-47.38721h5.16951v47.38722z" data-paper-data="{&quot;origPos&quot;:null}" fill="#b9a568"/><path d="M74.57221,447.39884v-47.38721h5.16951v47.38722z" data-paper-data="{&quot;origPos&quot;:null}" fill="#d3bb76"/><path d="M74.74449,405.06054v-4.9972h24.98599v4.9972z" data-paper-data="{&quot;origPos&quot;:null}" fill="#d3bb76"/><path d="M94.56095,439.47229v-39.116h5.16952v39.116z" data-paper-data="{&quot;origPos&quot;:null}" fill="#d3bb76"/><path d="M84.56655,439.6446v-27.22611h5.16952v27.22611z" data-paper-data="{&quot;origPos&quot;:null}" fill="#d3bb76"/><path d="M84.73886,439.6963v-5.51415h14.81928v5.51415z" data-paper-data="{&quot;origPos&quot;:null}" fill="#d3bb76"/><path d="M74.57216,449.6907v-4.9972h33.94648v4.9972z" data-paper-data="{&quot;origPos&quot;:null}" fill="#d3bb76"/><path d="M104.21071,449.63901v-49.45502h5.16951v49.45502z" data-paper-data="{&quot;origPos&quot;:null}" fill="#d3bb76"/><path d="M73.42339,510.55545v-40.12033h36.76099v40.12033z" data-paper-data="{&quot;origPos&quot;:null}" fill="#b9a568"/><path d="M67.67951,506.62318v-37.21901h47.96161v37.21901z" data-paper-data="{&quot;origPos&quot;:null}" fill="#e7cd81"/><path d="M73.71058,500.53001v-25.84758h5.16952v25.84758z" data-paper-data="{&quot;origPos&quot;:null}" fill="#d3bb76"/><path d="M103.86611,500.24277v-25.84758h5.16951v25.84758z" data-paper-data="{&quot;origPos&quot;:null}" fill="#d3bb76"/><path d="M82.90083,500.24277v-25.84758h5.16951v25.84758z" data-paper-data="{&quot;origPos&quot;:null}" fill="#d3bb76"/><path d="M94.96303,500.24277v-25.84758h5.16951v25.84758z" data-paper-data="{&quot;origPos&quot;:null}" fill="#d3bb76"/><path d="M84.28894,500.03217v-5.7439h12.92379v5.7439z" data-paper-data="{&quot;origPos&quot;:null}" fill="#d3bb76"/><path d="M85.15052,480.21571v-5.74391h12.92379v5.74391z" data-paper-data="{&quot;origPos&quot;:null}" fill="#d3bb76"/><path d="M72.42339,388.35547v-40.12033h36.76099v40.12033z" data-paper-data="{&quot;origPos&quot;:null}" fill="#b9a568"/><path d="M66.67951,384.42317v-37.21901h47.96161v37.21901z" data-paper-data="{&quot;origPos&quot;:null}" fill="#e7cd81"/><path d="M72.71058,378.32999v-25.84758h5.16952v25.84758z" data-paper-data="{&quot;origPos&quot;:null}" fill="#d3bb76"/><path d="M102.86611,378.0427v-25.84758h5.16951v25.84758z" data-paper-data="{&quot;origPos&quot;:null}" fill="#d3bb76"/><path d="M81.90083,378.0427v-25.84758h5.16951v25.84758z" data-paper-data="{&quot;origPos&quot;:null}" fill="#d3bb76"/><path d="M93.96303,378.0427v-25.84758h5.16951v25.84758z" data-paper-data="{&quot;origPos&quot;:null}" fill="#d3bb76"/><path d="M83.28893,377.8321v-5.7439h12.92379v5.7439z" data-paper-data="{&quot;origPos&quot;:null}" fill="#d3bb76"/><path d="M84.15052,358.01564v-5.74391h12.92379v5.74391z" data-paper-data="{&quot;origPos&quot;:null}" fill="#d3bb76"/></g></g><g data-paper-data="{&quot;origPos&quot;:null}" stroke-width="0"><g data-paper-data="{&quot;origPos&quot;:null}"><path d="M158.84481,357.29438v-290.33055h36.98317v290.33056z" data-paper-data="{&quot;origPos&quot;:null}" fill="#d3bb76"/><path d="M158.9926,142.16378v-64.47534h37.33538v64.47534z" data-paper-data="{&quot;origPos&quot;:null}" fill="#b9a568"/><path d="M153.24872,138.09998v-64.83434h47.96161v64.83434z" data-paper-data="{&quot;origPos&quot;:null}" fill="#e7cd81"/><path d="M160.57221,128.17736v-47.38721h5.16951v47.38722z" data-paper-data="{&quot;origPos&quot;:null}" fill="#b9a568"/><path d="M160.57216,126.79883v-47.38721h5.16951v47.38722z" data-paper-data="{&quot;origPos&quot;:null}" fill="#d3bb76"/><path d="M160.74449,84.46057v-4.9972h24.98599v4.9972z" data-paper-data="{&quot;origPos&quot;:null}" fill="#d3bb76"/><path d="M180.56095,118.87225v-39.116h5.16952v39.116z" data-paper-data="{&quot;origPos&quot;:null}" fill="#d3bb76"/><path d="M170.56655,119.04457v-27.22611h5.16952v27.22611z" data-paper-data="{&quot;origPos&quot;:null}" fill="#d3bb76"/><path d="M170.73886,119.09624v-5.51415h14.81928v5.51415z" data-paper-data="{&quot;origPos&quot;:null}" fill="#d3bb76"/><path d="M160.57216,129.09066v-4.9972h33.94648v4.9972z" data-paper-data="{&quot;origPos&quot;:null}" fill="#d3bb76"/><path d="M190.21071,129.03894v-49.45502h5.16951v49.45502z" data-paper-data="{&quot;origPos&quot;:null}" fill="#d3bb76"/><path d="M159.9926,264.36385v-64.47534h37.33538v64.47534z" data-paper-data="{&quot;origPos&quot;:null}" fill="#b9a568"/><path d="M154.24872,260.29994v-64.83434h47.96161v64.83434z" data-paper-data="{&quot;origPos&quot;:null}" fill="#e7cd81"/><path d="M161.57221,250.37739v-47.38721h5.16951v47.38722z" data-paper-data="{&quot;origPos&quot;:null}" fill="#b9a568"/><path d="M161.57221,248.99885v-47.38721h5.16951v47.38722z" data-paper-data="{&quot;origPos&quot;:null}" fill="#d3bb76"/><path d="M161.74449,206.66055v-4.9972h24.98599v4.9972z" data-paper-data="{&quot;origPos&quot;:null}" fill="#d3bb76"/><path d="M181.56095,241.0723v-39.116h5.16952v39.116z" data-paper-data="{&quot;origPos&quot;:null}" fill="#d3bb76"/><path d="M171.56655,241.2446v-27.22611h5.16952v27.22611z" data-paper-data="{&quot;origPos&quot;:null}" fill="#d3bb76"/><path d="M171.73886,241.29631v-5.51415h14.81928v5.51415z" data-paper-data="{&quot;origPos&quot;:null}" fill="#d3bb76"/><path d="M161.57216,251.29071v-4.9972h33.94648v4.9972z" data-paper-data="{&quot;origPos&quot;:null}" fill="#d3bb76"/><path d="M191.21071,251.23902v-49.45502h5.16951v49.45502z" data-paper-data="{&quot;origPos&quot;:null}" fill="#d3bb76"/><path d="M160.42339,312.15546v-40.12033h36.76099v40.12033z" data-paper-data="{&quot;origPos&quot;:null}" fill="#b9a568"/><path d="M154.67951,308.22319v-37.21901h47.96161v37.21901z" data-paper-data="{&quot;origPos&quot;:null}" fill="#e7cd81"/><path d="M160.71058,302.13002v-25.84758h5.16952v25.84758z" data-paper-data="{&quot;origPos&quot;:null}" fill="#d3bb76"/><path d="M190.86611,301.84278v-25.84758h5.16951v25.84758z" data-paper-data="{&quot;origPos&quot;:null}" fill="#d3bb76"/><path d="M169.90083,301.84278v-25.84758h5.16951v25.84758z" data-paper-data="{&quot;origPos&quot;:null}" fill="#d3bb76"/><path d="M181.96303,301.84278v-25.84758h5.16951v25.84758z" data-paper-data="{&quot;origPos&quot;:null}" fill="#d3bb76"/><path d="M171.28894,301.63218v-5.7439h12.92379v5.7439z" data-paper-data="{&quot;origPos&quot;:null}" fill="#d3bb76"/><path d="M172.15052,281.81572v-5.74391h12.92379v5.74391z" data-paper-data="{&quot;origPos&quot;:null}" fill="#d3bb76"/><path d="M159.42339,189.95548v-40.12033h36.76099v40.12033z" data-paper-data="{&quot;origPos&quot;:null}" fill="#b9a568"/><path d="M153.67951,186.02318v-37.21901h47.96161v37.21901z" data-paper-data="{&quot;origPos&quot;:null}" fill="#e7cd81"/><path d="M159.71058,179.93v-25.84758h5.16952v25.84758z" data-paper-data="{&quot;origPos&quot;:null}" fill="#d3bb76"/><path d="M189.86611,179.64271v-25.84758h5.16951v25.84758z" data-paper-data="{&quot;origPos&quot;:null}" fill="#d3bb76"/><path d="M168.90083,179.64271v-25.84758h5.16951v25.84758z" data-paper-data="{&quot;origPos&quot;:null}" fill="#d3bb76"/><path d="M180.96303,179.64271v-25.84758h5.16951v25.84758z" data-paper-data="{&quot;origPos&quot;:null}" fill="#d3bb76"/><path d="M170.28893,179.43211v-5.7439h12.92379v5.7439z" data-paper-data="{&quot;origPos&quot;:null}" fill="#d3bb76"/><path d="M171.15052,159.61565v-5.74391h12.92379v5.74391z" data-paper-data="{&quot;origPos&quot;:null}" fill="#d3bb76"/></g><g data-paper-data="{&quot;origPos&quot;:null}"><path d="M160.84481,606.69437v-290.33055h36.98317v290.33056z" data-paper-data="{&quot;origPos&quot;:null}" fill="#d3bb76"/><path d="M160.9926,391.56378v-64.47534h37.33538v64.47534z" data-paper-data="{&quot;origPos&quot;:null}" fill="#b9a568"/><path d="M155.24872,387.49997v-64.83434h47.96161v64.83434z" data-paper-data="{&quot;origPos&quot;:null}" fill="#e7cd81"/><path d="M162.57221,377.57735v-47.38721h5.16951v47.38722z" data-paper-data="{&quot;origPos&quot;:null}" fill="#b9a568"/><path d="M162.57216,376.19882v-47.38721h5.16951v47.38722z" data-paper-data="{&quot;origPos&quot;:null}" fill="#d3bb76"/><path d="M162.74449,333.86056v-4.9972h24.98599v4.9972z" data-paper-data="{&quot;origPos&quot;:null}" fill="#d3bb76"/><path d="M182.56095,368.27224v-39.116h5.16952v39.116z" data-paper-data="{&quot;origPos&quot;:null}" fill="#d3bb76"/><path d="M172.56655,368.44456v-27.22611h5.16952v27.22611z" data-paper-data="{&quot;origPos&quot;:null}" fill="#d3bb76"/><path d="M172.73886,368.49623v-5.51415h14.81928v5.51415z" data-paper-data="{&quot;origPos&quot;:null}" fill="#d3bb76"/><path d="M162.57216,378.49065v-4.9972h33.94648v4.9972z" data-paper-data="{&quot;origPos&quot;:null}" fill="#d3bb76"/><path d="M192.21071,378.43893v-49.45502h5.16951v49.45502z" data-paper-data="{&quot;origPos&quot;:null}" fill="#d3bb76"/><path d="M161.9926,513.76384v-64.47534h37.33538v64.47534z" data-paper-data="{&quot;origPos&quot;:null}" fill="#b9a568"/><path d="M156.24872,509.69994v-64.83434h47.96161v64.83434z" data-paper-data="{&quot;origPos&quot;:null}" fill="#e7cd81"/><path d="M163.57221,499.77739v-47.38721h5.16951v47.38722z" data-paper-data="{&quot;origPos&quot;:null}" fill="#b9a568"/><path d="M163.57221,498.39884v-47.38721h5.16951v47.38722z" data-paper-data="{&quot;origPos&quot;:null}" fill="#d3bb76"/><path d="M163.74449,456.06054v-4.9972h24.98599v4.9972z" data-paper-data="{&quot;origPos&quot;:null}" fill="#d3bb76"/><path d="M183.56095,490.47229v-39.116h5.16952v39.116z" data-paper-data="{&quot;origPos&quot;:null}" fill="#d3bb76"/><path d="M173.56655,490.6446v-27.22611h5.16952v27.22611z" data-paper-data="{&quot;origPos&quot;:null}" fill="#d3bb76"/><path d="M173.73886,490.6963v-5.51415h14.81928v5.51415z" data-paper-data="{&quot;origPos&quot;:null}" fill="#d3bb76"/><path d="M163.57216,500.6907v-4.9972h33.94648v4.9972z" data-paper-data="{&quot;origPos&quot;:null}" fill="#d3bb76"/><path d="M193.21071,500.63901v-49.45502h5.16951v49.45502z" data-paper-data="{&quot;origPos&quot;:null}" fill="#d3bb76"/><path d="M162.42339,561.55545v-40.12033h36.76099v40.12033z" data-paper-data="{&quot;origPos&quot;:null}" fill="#b9a568"/><path d="M156.67951,557.62318v-37.21901h47.96161v37.21901z" data-paper-data="{&quot;origPos&quot;:null}" fill="#e7cd81"/><path d="M162.71058,551.53001v-25.84758h5.16952v25.84758z" data-paper-data="{&quot;origPos&quot;:null}" fill="#d3bb76"/><path d="M192.86611,551.24277v-25.84758h5.16951v25.84758z" data-paper-data="{&quot;origPos&quot;:null}" fill="#d3bb76"/><path d="M171.90083,551.24277v-25.84758h5.16951v25.84758z" data-paper-data="{&quot;origPos&quot;:null}" fill="#d3bb76"/><path d="M183.96303,551.24277v-25.84758h5.16951v25.84758z" data-paper-data="{&quot;origPos&quot;:null}" fill="#d3bb76"/><path d="M173.28894,551.03217v-5.7439h12.92379v5.7439z" data-paper-data="{&quot;origPos&quot;:null}" fill="#d3bb76"/><path d="M174.15052,531.21571v-5.74391h12.92379v5.74391z" data-paper-data="{&quot;origPos&quot;:null}" fill="#d3bb76"/><path d="M161.42339,439.35547v-40.12033h36.76099v40.12033z" data-paper-data="{&quot;origPos&quot;:null}" fill="#b9a568"/><path d="M155.67951,435.42317v-37.21901h47.96161v37.21901z" data-paper-data="{&quot;origPos&quot;:null}" fill="#e7cd81"/><path d="M161.71058,429.32999v-25.84758h5.16952v25.84758z" data-paper-data="{&quot;origPos&quot;:null}" fill="#d3bb76"/><path d="M191.86611,429.0427v-25.84758h5.16951v25.84758z" data-paper-data="{&quot;origPos&quot;:null}" fill="#d3bb76"/><path d="M170.90083,429.0427v-25.84758h5.16951v25.84758z" data-paper-data="{&quot;origPos&quot;:null}" fill="#d3bb76"/><path d="M182.96303,429.0427v-25.84758h5.16951v25.84758z" data-paper-data="{&quot;origPos&quot;:null}" fill="#d3bb76"/><path d="M172.28893,428.8321v-5.7439h12.92379v5.7439z" data-paper-data="{&quot;origPos&quot;:null}" fill="#d3bb76"/><path d="M173.15052,409.01564v-5.74391h12.92379v5.74391z" data-paper-data="{&quot;origPos&quot;:null}" fill="#d3bb76"/></g></g><g data-paper-data="{&quot;origPos&quot;:null,&quot;origRot&quot;:0}" stroke-width="0"><path d="M45.30611,15.3391l15.93254,-31.16335l248.61433,127.10627l-15.93254,31.16335z" data-paper-data="{&quot;origPos&quot;:null,&quot;origRot&quot;:0}" fill="#e7cd81"/><path d="M50.31348,5.54491l10.92517,-21.36915l248.61433,127.10627l-10.92517,21.36915z" data-paper-data="{&quot;origPos&quot;:null,&quot;origRot&quot;:0}" fill="#d8c079"/><path d="M53.49998,-0.68776l7.73866,-15.13648l248.61433,127.10627l-7.73866,15.13648z" data-paper-data="{&quot;origPos&quot;:null,&quot;origRot&quot;:0}" fill="#d3bb76"/></g><path d="" data-paper-data="{&quot;origPos&quot;:null}" fill="#d3bb76" stroke-width="0"/><g data-paper-data="{&quot;origPos&quot;:null,&quot;origRot&quot;:0}"><path d="M180.32947,506.27696l-19.64286,-13.62024l12.54682,-31.0999l30.60898,14.03708l-3.89667,22.92723z" data-paper-data="{&quot;origPos&quot;:null,&quot;origRot&quot;:0}" fill="#534c42" stroke-width="0"/><path d="M178.42134,501.91325l-17.6282,-12.22331l11.25997,-27.91015l27.46958,12.59739l-3.49701,20.57572z" data-paper-data="{&quot;origPos&quot;:null,&quot;origRot&quot;:0}" fill="url(#color-1)" stroke-width="NaN"/></g><g data-paper-data="{&quot;origPos&quot;:null}"><path d="M164.55048,465.90851l8.28566,-14.35289l22.20779,6.88753l-7.94537,21.95397l-16.06516,-1.37884z" data-paper-data="{&quot;origPos&quot;:null,&quot;origRot&quot;:0}" fill="#534c42" stroke-width="0"/><path d="M167.45635,464.34009l7.43586,-12.88079l19.93006,6.18112l-7.13047,19.70227l-14.41745,-1.23742z" data-paper-data="{&quot;origPos&quot;:null,&quot;origRot&quot;:0}" fill="url(#color-2)" stroke-width="NaN"/></g><path d="M251.05519,206.00005v-80h228.24475v80z" data-paper-data="{&quot;origPos&quot;:null}" fill="#847968" stroke-width="NaN"/><path d="M250.6508,192.00004v-40h228.45202v40z" data-paper-data="{&quot;origPos&quot;:null}" fill="#7c7262" stroke-width="0"/><path d="M250.44861,434.40001v-252h228.45202v252z" data-paper-data="{&quot;origPos&quot;:null}" fill="#786e5f" stroke-width="0"/><path d="M251.12151,134.0001v-9h228.3785v9z" data-paper-data="{&quot;origPos&quot;:null}" fill="#61584c" stroke-width="0"/><path d="M245.00001,129.0001v-19h242.8785v19z" data-paper-data="{&quot;origPos&quot;:null}" fill="#91b782" stroke-width="0"/><path d="M246.22431,129.0001v-12h241.8785v12z" data-paper-data="{&quot;origPos&quot;:null}" fill="#8aaf7c" stroke-width="0"/><g data-paper-data="{&quot;origPos&quot;:null}"><path d="M312.55048,274.90853l8.28566,-14.35289l22.20779,6.88753l-7.94537,21.95397l-16.06516,-1.37884z" data-paper-data="{&quot;origPos&quot;:null,&quot;origRot&quot;:0}" fill="#534c42" stroke-width="0"/><path d="M315.45633,273.34011l7.43586,-12.88079l19.93006,6.18112l-7.13047,19.70227l-14.41745,-1.23742z" data-paper-data="{&quot;origPos&quot;:null,&quot;origRot&quot;:0}" fill="url(#color-3)" stroke-width="NaN"/></g><g data-paper-data="{&quot;origPos&quot;:null,&quot;origRot&quot;:0}"><path d="M347.32946,226.27698l-19.64286,-13.62024l12.54682,-31.0999l30.60898,14.03708l-3.89667,22.92723z" data-paper-data="{&quot;origPos&quot;:null,&quot;origRot&quot;:0}" fill="#534c42" stroke-width="0"/><path d="M345.42133,221.91327l-17.6282,-12.22331l11.25997,-27.91015l27.46958,12.59739l-3.49701,20.57572z" data-paper-data="{&quot;origPos&quot;:null,&quot;origRot&quot;:0}" fill="url(#color-4)" stroke-width="NaN"/></g><g data-paper-data="{&quot;origPos&quot;:null}" stroke-width="0"><g data-paper-data="{&quot;origPos&quot;:null}"><path d="M475.84481,394.29438v-290.33055h36.98317v290.33056z" data-paper-data="{&quot;origPos&quot;:null}" fill="#d3bb76"/><path d="M475.9926,179.16378v-64.47534h37.33538v64.47534z" data-paper-data="{&quot;origPos&quot;:null}" fill="#b9a568"/><path d="M470.24872,175.09998v-64.83434h47.96161v64.83434z" data-paper-data="{&quot;origPos&quot;:null}" fill="#e7cd81"/><path d="M477.57221,165.17736v-47.38721h5.16951v47.38722z" data-paper-data="{&quot;origPos&quot;:null}" fill="#b9a568"/><path d="M477.57216,163.79883v-47.38721h5.16951v47.38722z" data-paper-data="{&quot;origPos&quot;:null}" fill="#d3bb76"/><path d="M477.74449,121.46057v-4.9972h24.98599v4.9972z" data-paper-data="{&quot;origPos&quot;:null}" fill="#d3bb76"/><path d="M497.56095,155.87225v-39.116h5.16952v39.116z" data-paper-data="{&quot;origPos&quot;:null}" fill="#d3bb76"/><path d="M487.56655,156.04457v-27.22611h5.16952v27.22611z" data-paper-data="{&quot;origPos&quot;:null}" fill="#d3bb76"/><path d="M487.73886,156.09624v-5.51415h14.81928v5.51415z" data-paper-data="{&quot;origPos&quot;:null}" fill="#d3bb76"/><path d="M477.57216,166.09066v-4.9972h33.94648v4.9972z" data-paper-data="{&quot;origPos&quot;:null}" fill="#d3bb76"/><path d="M507.21071,166.03894v-49.45502h5.16951v49.45502z" data-paper-data="{&quot;origPos&quot;:null}" fill="#d3bb76"/><path d="M476.9926,301.36385v-64.47534h37.33538v64.47534z" data-paper-data="{&quot;origPos&quot;:null}" fill="#b9a568"/><path d="M471.24872,297.29994v-64.83434h47.96161v64.83434z" data-paper-data="{&quot;origPos&quot;:null}" fill="#e7cd81"/><path d="M478.57221,287.37739v-47.38721h5.16951v47.38722z" data-paper-data="{&quot;origPos&quot;:null}" fill="#b9a568"/><path d="M478.57221,285.99885v-47.38721h5.16951v47.38722z" data-paper-data="{&quot;origPos&quot;:null}" fill="#d3bb76"/><path d="M478.74449,243.66055v-4.9972h24.98599v4.9972z" data-paper-data="{&quot;origPos&quot;:null}" fill="#d3bb76"/><path d="M498.56095,278.0723v-39.116h5.16952v39.116z" data-paper-data="{&quot;origPos&quot;:null}" fill="#d3bb76"/><path d="M488.56655,278.2446v-27.22611h5.16952v27.22611z" data-paper-data="{&quot;origPos&quot;:null}" fill="#d3bb76"/><path d="M488.73886,278.29631v-5.51415h14.81928v5.51415z" data-paper-data="{&quot;origPos&quot;:null}" fill="#d3bb76"/><path d="M478.57216,288.29071v-4.9972h33.94648v4.9972z" data-paper-data="{&quot;origPos&quot;:null}" fill="#d3bb76"/><path d="M508.21071,288.23902v-49.45502h5.16951v49.45502z" data-paper-data="{&quot;origPos&quot;:null}" fill="#d3bb76"/><path d="M477.42339,349.15546v-40.12033h36.76099v40.12033z" data-paper-data="{&quot;origPos&quot;:null}" fill="#b9a568"/><path d="M471.67951,345.22319v-37.21901h47.96161v37.21901z" data-paper-data="{&quot;origPos&quot;:null}" fill="#e7cd81"/><path d="M477.71058,339.13002v-25.84758h5.16952v25.84758z" data-paper-data="{&quot;origPos&quot;:null}" fill="#d3bb76"/><path d="M507.86611,338.84278v-25.84758h5.16951v25.84758z" data-paper-data="{&quot;origPos&quot;:null}" fill="#d3bb76"/><path d="M486.90083,338.84278v-25.84758h5.16951v25.84758z" data-paper-data="{&quot;origPos&quot;:null}" fill="#d3bb76"/><path d="M498.96303,338.84278v-25.84758h5.16951v25.84758z" data-paper-data="{&quot;origPos&quot;:null}" fill="#d3bb76"/><path d="M488.28894,338.63218v-5.7439h12.92379v5.7439z" data-paper-data="{&quot;origPos&quot;:null}" fill="#d3bb76"/><path d="M489.15052,318.81572v-5.74391h12.92379v5.74391z" data-paper-data="{&quot;origPos&quot;:null}" fill="#d3bb76"/><path d="M476.42339,226.95548v-40.12033h36.76099v40.12033z" data-paper-data="{&quot;origPos&quot;:null}" fill="#b9a568"/><path d="M470.67951,223.02318v-37.21901h47.96161v37.21901z" data-paper-data="{&quot;origPos&quot;:null}" fill="#e7cd81"/><path d="M476.71058,216.93v-25.84758h5.16952v25.84758z" data-paper-data="{&quot;origPos&quot;:null}" fill="#d3bb76"/><path d="M506.86611,216.64271v-25.84758h5.16951v25.84758z" data-paper-data="{&quot;origPos&quot;:null}" fill="#d3bb76"/><path d="M485.90083,216.64271v-25.84758h5.16951v25.84758z" data-paper-data="{&quot;origPos&quot;:null}" fill="#d3bb76"/><path d="M497.96303,216.64271v-25.84758h5.16951v25.84758z" data-paper-data="{&quot;origPos&quot;:null}" fill="#d3bb76"/><path d="M487.28893,216.43211v-5.7439h12.92379v5.7439z" data-paper-data="{&quot;origPos&quot;:null}" fill="#d3bb76"/><path d="M488.15052,196.61565v-5.74391h12.92379v5.74391z" data-paper-data="{&quot;origPos&quot;:null}" fill="#d3bb76"/></g><g data-paper-data="{&quot;origPos&quot;:null}"><path d="M477.84481,643.69437v-290.33055h36.98317v290.33056z" data-paper-data="{&quot;origPos&quot;:null}" fill="#d3bb76"/><path d="M477.9926,428.56378v-64.47534h37.33538v64.47534z" data-paper-data="{&quot;origPos&quot;:null}" fill="#b9a568"/><path d="M472.24872,424.49997v-64.83434h47.96161v64.83434z" data-paper-data="{&quot;origPos&quot;:null}" fill="#e7cd81"/><path d="M479.57221,414.57735v-47.38721h5.16951v47.38722z" data-paper-data="{&quot;origPos&quot;:null}" fill="#b9a568"/><path d="M479.57216,413.19882v-47.38721h5.16951v47.38722z" data-paper-data="{&quot;origPos&quot;:null}" fill="#d3bb76"/><path d="M479.74449,370.86056v-4.9972h24.98599v4.9972z" data-paper-data="{&quot;origPos&quot;:null}" fill="#d3bb76"/><path d="M499.56095,405.27224v-39.116h5.16952v39.116z" data-paper-data="{&quot;origPos&quot;:null}" fill="#d3bb76"/><path d="M489.56655,405.44456v-27.22611h5.16952v27.22611z" data-paper-data="{&quot;origPos&quot;:null}" fill="#d3bb76"/><path d="M489.73886,405.49623v-5.51415h14.81928v5.51415z" data-paper-data="{&quot;origPos&quot;:null}" fill="#d3bb76"/><path d="M479.57216,415.49065v-4.9972h33.94648v4.9972z" data-paper-data="{&quot;origPos&quot;:null}" fill="#d3bb76"/><path d="M509.21071,415.43893v-49.45502h5.16951v49.45502z" data-paper-data="{&quot;origPos&quot;:null}" fill="#d3bb76"/><path d="M478.9926,550.76384v-64.47534h37.33538v64.47534z" data-paper-data="{&quot;origPos&quot;:null}" fill="#b9a568"/><path d="M473.24872,546.69994v-64.83434h47.96161v64.83434z" data-paper-data="{&quot;origPos&quot;:null}" fill="#e7cd81"/><path d="M480.57221,536.77739v-47.38721h5.16951v47.38722z" data-paper-data="{&quot;origPos&quot;:null}" fill="#b9a568"/><path d="M480.57221,535.39884v-47.38721h5.16951v47.38722z" data-paper-data="{&quot;origPos&quot;:null}" fill="#d3bb76"/><path d="M480.74449,493.06054v-4.9972h24.98599v4.9972z" data-paper-data="{&quot;origPos&quot;:null}" fill="#d3bb76"/><path d="M500.56095,527.47229v-39.116h5.16952v39.116z" data-paper-data="{&quot;origPos&quot;:null}" fill="#d3bb76"/><path d="M490.56655,527.6446v-27.22611h5.16952v27.22611z" data-paper-data="{&quot;origPos&quot;:null}" fill="#d3bb76"/><path d="M490.73886,527.6963v-5.51415h14.81928v5.51415z" data-paper-data="{&quot;origPos&quot;:null}" fill="#d3bb76"/><path d="M480.57216,537.6907v-4.9972h33.94648v4.9972z" data-paper-data="{&quot;origPos&quot;:null}" fill="#d3bb76"/><path d="M510.21071,537.63901v-49.45502h5.16951v49.45502z" data-paper-data="{&quot;origPos&quot;:null}" fill="#d3bb76"/><path d="M479.42339,598.55545v-40.12033h36.76099v40.12033z" data-paper-data="{&quot;origPos&quot;:null}" fill="#b9a568"/><path d="M473.67951,594.62318v-37.21901h47.96161v37.21901z" data-paper-data="{&quot;origPos&quot;:null}" fill="#e7cd81"/><path d="M479.71058,588.53001v-25.84758h5.16952v25.84758z" data-paper-data="{&quot;origPos&quot;:null}" fill="#d3bb76"/><path d="M509.86611,588.24277v-25.84758h5.16951v25.84758z" data-paper-data="{&quot;origPos&quot;:null}" fill="#d3bb76"/><path d="M488.90083,588.24277v-25.84758h5.16951v25.84758z" data-paper-data="{&quot;origPos&quot;:null}" fill="#d3bb76"/><path d="M500.96303,588.24277v-25.84758h5.16951v25.84758z" data-paper-data="{&quot;origPos&quot;:null}" fill="#d3bb76"/><path d="M490.28894,588.03217v-5.7439h12.92379v5.7439z" data-paper-data="{&quot;origPos&quot;:null}" fill="#d3bb76"/><path d="M491.15052,568.21571v-5.74391h12.92379v5.74391z" data-paper-data="{&quot;origPos&quot;:null}" fill="#d3bb76"/><path d="M478.42339,476.35547v-40.12033h36.76099v40.12033z" data-paper-data="{&quot;origPos&quot;:null}" fill="#b9a568"/><path d="M472.67951,472.42317v-37.21901h47.96161v37.21901z" data-paper-data="{&quot;origPos&quot;:null}" fill="#e7cd81"/><path d="M478.71058,466.32999v-25.84758h5.16952v25.84758z" data-paper-data="{&quot;origPos&quot;:null}" fill="#d3bb76"/><path d="M508.86611,466.0427v-25.84758h5.16951v25.84758z" data-paper-data="{&quot;origPos&quot;:null}" fill="#d3bb76"/><path d="M487.90083,466.0427v-25.84758h5.16951v25.84758z" data-paper-data="{&quot;origPos&quot;:null}" fill="#d3bb76"/><path d="M499.96303,466.0427v-25.84758h5.16951v25.84758z" data-paper-data="{&quot;origPos&quot;:null}" fill="#d3bb76"/><path d="M489.28893,465.8321v-5.7439h12.92379v5.7439z" data-paper-data="{&quot;origPos&quot;:null}" fill="#d3bb76"/><path d="M490.15052,446.01564v-5.74391h12.92379v5.74391z" data-paper-data="{&quot;origPos&quot;:null}" fill="#d3bb76"/></g></g></g></g></svg>