<svg version="1.1" xmlns="http://www.w3.org/2000/svg" xmlns:xlink="http://www.w3.org/1999/xlink" width="172.31376" height="570.58853"><g transform="translate(-329.55631,-171.11283)"><g data-paper-data="{&quot;isPaintingLayer&quot;:true}" fill="none" fill-rule="nonzero" stroke="none" stroke-width="0" stroke-linecap="butt" stroke-linejoin="miter" stroke-miterlimit="10" stroke-dasharray="" stroke-dashoffset="0" font-family="none" font-weight="none" font-size="none" text-anchor="none" style="mix-blend-mode: normal"><g data-paper-data="{&quot;origPos&quot;:null,&quot;origRot&quot;:0}"><g data-paper-data="{&quot;origPos&quot;:null,&quot;origRot&quot;:0,&quot;index&quot;:null}"><path d="M349.76423,462.96211l-14.94361,-289.94572l36.93415,-1.90356l14.9436,289.94573z" data-paper-data="{&quot;origPos&quot;:null}" fill="#d3bb76"/><path d="M338.83883,248.10908l-3.31861,-64.38987l37.28589,-1.92169l3.31861,64.38988z" data-paper-data="{&quot;origPos&quot;:null}" fill="#b9a568"/><path d="M332.8934,244.34627l-3.33709,-64.7484l47.89804,-2.46863l3.33708,64.7484z" data-paper-data="{&quot;origPos&quot;:null}" fill="#e7cd81"/><path d="M339.69645,234.05987l-2.43906,-47.32439l5.16265,-0.26608l2.43907,47.32441z" data-paper-data="{&quot;origPos&quot;:null}" fill="#b9a568"/><path d="M339.62548,232.68318l-2.43906,-47.3244l5.16265,-0.26607l2.43906,47.3244z" data-paper-data="{&quot;origPos&quot;:null}" fill="#d3bb76"/><path d="M337.61838,190.39214l-0.25722,-4.99058l24.95287,-1.28606l0.25722,4.99057z" data-paper-data="{&quot;origPos&quot;:null}" fill="#d3bb76"/><path d="M359.17978,223.73826l-2.01334,-39.06415l5.16267,-0.26608l2.01334,39.06415z" data-paper-data="{&quot;origPos&quot;:null}" fill="#d3bb76"/><path d="M349.2075,224.4248l-1.40135,-27.19002l5.16266,-0.26608l1.40136,27.19002z" data-paper-data="{&quot;origPos&quot;:null}" fill="#d3bb76"/><path d="M349.38225,224.46751l-0.28382,-5.50683l14.79964,-0.76276l0.28382,5.50684z" data-paper-data="{&quot;origPos&quot;:null}" fill="#d3bb76"/><path d="M339.74345,234.97193l-0.25722,-4.99057l33.90149,-1.74726l0.25721,4.99057z" data-paper-data="{&quot;origPos&quot;:null}" fill="#d3bb76"/><path d="M369.34004,233.39476l-2.5455,-49.38947l5.16266,-0.26608l2.5455,49.38946z" data-paper-data="{&quot;origPos&quot;:null}" fill="#d3bb76"/><path d="M346.12727,370.09566l-3.31861,-64.38987l37.28588,-1.92169l3.31861,64.38988z" data-paper-data="{&quot;origPos&quot;:null}" fill="#b9a568"/><path d="M340.18182,366.33286l-3.33708,-64.7484l47.89804,-2.46863l3.33708,64.7484z" data-paper-data="{&quot;origPos&quot;:null}" fill="#e7cd81"/><path d="M346.9849,356.04648l-2.43907,-47.3244l5.16266,-0.26608l2.43907,47.32441z" data-paper-data="{&quot;origPos&quot;:null}" fill="#b9a568"/><path d="M346.91392,354.66976l-2.43906,-47.3244l5.16265,-0.26608l2.43906,47.3244z" data-paper-data="{&quot;origPos&quot;:null}" fill="#d3bb76"/><path d="M344.90681,312.37866l-0.25721,-4.99057l24.95287,-1.28605l0.25722,4.99058z" data-paper-data="{&quot;origPos&quot;:null}" fill="#d3bb76"/><path d="M366.46821,345.72483l-2.01334,-39.06415l5.16266,-0.26608l2.01334,39.06415z" data-paper-data="{&quot;origPos&quot;:null}" fill="#d3bb76"/><path d="M356.49594,346.41132l-1.40136,-27.19002l5.16267,-0.26608l1.40135,27.19002z" data-paper-data="{&quot;origPos&quot;:null}" fill="#d3bb76"/><path d="M356.67067,346.4541l-0.28382,-5.50683l14.79964,-0.76276l0.28382,5.50684z" data-paper-data="{&quot;origPos&quot;:null}" fill="#d3bb76"/><path d="M347.03187,356.95854l-0.25721,-4.99058l33.90148,-1.74725l0.25721,4.99057z" data-paper-data="{&quot;origPos&quot;:null}" fill="#d3bb76"/><path d="M376.62847,355.38137l-2.5455,-49.38946l5.16266,-0.26609l2.5455,49.38947z" data-paper-data="{&quot;origPos&quot;:null}" fill="#d3bb76"/><path d="M349.01735,417.80177l-2.06503,-40.06714l36.71227,-1.89213l2.06504,40.06716z" data-paper-data="{&quot;origPos&quot;:null}" fill="#b9a568"/><path d="M343.07872,414.17033l-1.9157,-37.16968l47.89803,-2.46863l1.91571,37.16967z" data-paper-data="{&quot;origPos&quot;:null}" fill="#e7cd81"/><path d="M348.78817,407.77479l-1.3304,-25.81332l5.16266,-0.26608l1.3304,25.81332z" data-paper-data="{&quot;origPos&quot;:null}" fill="#d3bb76"/><path d="M378.88894,405.93585l-1.3304,-25.81332l5.16265,-0.26608l1.3304,25.81332z" data-paper-data="{&quot;origPos&quot;:null}" fill="#d3bb76"/><path d="M357.95145,407.01494l-1.3304,-25.81332l5.16265,-0.26608l1.33041,25.81332z" data-paper-data="{&quot;origPos&quot;:null}" fill="#d3bb76"/><path d="M369.99768,406.39409l-1.3304,-25.81332l5.16265,-0.26608l1.3304,25.81332z" data-paper-data="{&quot;origPos&quot;:null}" fill="#d3bb76"/><path d="M359.3269,406.73318l-0.29565,-5.73629l12.90666,-0.6652l0.29565,5.73628z" data-paper-data="{&quot;origPos&quot;:null}" fill="#d3bb76"/><path d="M359.16738,386.89862l-0.29565,-5.7363l12.90666,-0.6652l0.29564,5.7363z" data-paper-data="{&quot;origPos&quot;:null}" fill="#d3bb76"/><path d="M341.72894,295.81521l-2.06503,-40.06715l36.71227,-1.89212l2.06503,40.06715z" data-paper-data="{&quot;origPos&quot;:null}" fill="#b9a568"/><path d="M335.79027,292.1837l-1.91571,-37.16968l47.89804,-2.46862l1.9157,37.16967z" data-paper-data="{&quot;origPos&quot;:null}" fill="#e7cd81"/><path d="M341.49972,285.7882l-1.33041,-25.81333l5.16267,-0.26608l1.3304,25.81332z" data-paper-data="{&quot;origPos&quot;:null}" fill="#d3bb76"/><path d="M371.60052,283.94925l-1.3304,-25.81333l5.16265,-0.26608l1.33041,25.81332z" data-paper-data="{&quot;origPos&quot;:null}" fill="#d3bb76"/><path d="M350.66303,285.02836l-1.3304,-25.81332l5.16265,-0.26608l1.33041,25.81332z" data-paper-data="{&quot;origPos&quot;:null}" fill="#d3bb76"/><path d="M362.70925,284.4075l-1.3304,-25.81332l5.16266,-0.26608l1.33041,25.81332z" data-paper-data="{&quot;origPos&quot;:null}" fill="#d3bb76"/><path d="M352.03844,284.74653l-0.29564,-5.73629l12.90666,-0.66519l0.29564,5.73629z" data-paper-data="{&quot;origPos&quot;:null}" fill="#d3bb76"/><path d="M351.87894,264.91197l-0.29564,-5.7363l12.90666,-0.6652l0.29564,5.7363z" data-paper-data="{&quot;origPos&quot;:null}" fill="#d3bb76"/></g><g data-paper-data="{&quot;origPos&quot;:null,&quot;origRot&quot;:0,&quot;index&quot;:null}"><path d="M360.65754,659.70136l-14.94361,-289.94572l36.93415,-1.90356l14.9436,289.94573z" data-paper-data="{&quot;origPos&quot;:null}" fill="#d3bb76"/><path d="M349.73213,444.84834l-3.31861,-64.38987l37.28589,-1.92169l3.31861,64.38988z" data-paper-data="{&quot;origPos&quot;:null}" fill="#b9a568"/><path d="M343.78671,441.08553l-3.33709,-64.7484l47.89804,-2.46863l3.33708,64.7484z" data-paper-data="{&quot;origPos&quot;:null}" fill="#e7cd81"/><path d="M350.58976,430.79912l-2.43906,-47.32439l5.16265,-0.26608l2.43907,47.32441z" data-paper-data="{&quot;origPos&quot;:null}" fill="#b9a568"/><path d="M350.51879,429.42244l-2.43906,-47.3244l5.16265,-0.26607l2.43906,47.3244z" data-paper-data="{&quot;origPos&quot;:null}" fill="#d3bb76"/><path d="M348.51169,387.13139l-0.25722,-4.99058l24.95287,-1.28606l0.25722,4.99057z" data-paper-data="{&quot;origPos&quot;:null}" fill="#d3bb76"/><path d="M370.07309,420.47752l-2.01334,-39.06415l5.16267,-0.26608l2.01334,39.06415z" data-paper-data="{&quot;origPos&quot;:null}" fill="#d3bb76"/><path d="M360.10081,421.16405l-1.40135,-27.19002l5.16266,-0.26608l1.40136,27.19002z" data-paper-data="{&quot;origPos&quot;:null}" fill="#d3bb76"/><path d="M360.27556,421.20677l-0.28382,-5.50683l14.79964,-0.76276l0.28382,5.50684z" data-paper-data="{&quot;origPos&quot;:null}" fill="#d3bb76"/><path d="M350.63676,431.71121l-0.25722,-4.99057l33.90149,-1.74726l0.25721,4.99057z" data-paper-data="{&quot;origPos&quot;:null}" fill="#d3bb76"/><path d="M380.23335,430.13404l-2.5455,-49.38947l5.16266,-0.26608l2.5455,49.38946z" data-paper-data="{&quot;origPos&quot;:null}" fill="#d3bb76"/><path d="M357.02058,566.83491l-3.31861,-64.38987l37.28588,-1.92169l3.31861,64.38988z" data-paper-data="{&quot;origPos&quot;:null}" fill="#b9a568"/><path d="M351.07513,563.07213l-3.33708,-64.7484l47.89804,-2.46863l3.33708,64.7484z" data-paper-data="{&quot;origPos&quot;:null}" fill="#e7cd81"/><path d="M357.87821,552.78572l-2.43907,-47.3244l5.16266,-0.26608l2.43907,47.32441z" data-paper-data="{&quot;origPos&quot;:null}" fill="#b9a568"/><path d="M357.80723,551.40902l-2.43906,-47.3244l5.16265,-0.26608l2.43906,47.3244z" data-paper-data="{&quot;origPos&quot;:null}" fill="#d3bb76"/><path d="M355.80012,509.11792l-0.25721,-4.99057l24.95287,-1.28605l0.25722,4.99058z" data-paper-data="{&quot;origPos&quot;:null}" fill="#d3bb76"/><path d="M377.36152,542.46411l-2.01334,-39.06415l5.16266,-0.26608l2.01334,39.06415z" data-paper-data="{&quot;origPos&quot;:null}" fill="#d3bb76"/><path d="M367.38925,543.15056l-1.40136,-27.19002l5.16267,-0.26608l1.40135,27.19002z" data-paper-data="{&quot;origPos&quot;:null}" fill="#d3bb76"/><path d="M367.56398,543.19336l-0.28382,-5.50683l14.79964,-0.76276l0.28382,5.50684z" data-paper-data="{&quot;origPos&quot;:null}" fill="#d3bb76"/><path d="M357.92518,553.6978l-0.25721,-4.99058l33.90148,-1.74725l0.25721,4.99057z" data-paper-data="{&quot;origPos&quot;:null}" fill="#d3bb76"/><path d="M387.52178,552.12065l-2.5455,-49.38946l5.16266,-0.26609l2.5455,49.38947z" data-paper-data="{&quot;origPos&quot;:null}" fill="#d3bb76"/><path d="M359.91066,614.54103l-2.06503,-40.06714l36.71227,-1.89213l2.06504,40.06716z" data-paper-data="{&quot;origPos&quot;:null}" fill="#b9a568"/><path d="M353.97203,610.90958l-1.9157,-37.16968l47.89803,-2.46863l1.91571,37.16967z" data-paper-data="{&quot;origPos&quot;:null}" fill="#e7cd81"/><path d="M359.68148,604.51406l-1.3304,-25.81332l5.16266,-0.26608l1.3304,25.81332z" data-paper-data="{&quot;origPos&quot;:null}" fill="#d3bb76"/><path d="M389.78225,602.6751l-1.3304,-25.81332l5.16265,-0.26608l1.3304,25.81332z" data-paper-data="{&quot;origPos&quot;:null}" fill="#d3bb76"/><path d="M368.84476,603.7542l-1.3304,-25.81332l5.16265,-0.26608l1.33041,25.81332z" data-paper-data="{&quot;origPos&quot;:null}" fill="#d3bb76"/><path d="M380.89099,603.13335l-1.3304,-25.81332l5.16265,-0.26608l1.3304,25.81332z" data-paper-data="{&quot;origPos&quot;:null}" fill="#d3bb76"/><path d="M370.2202,603.47243l-0.29565,-5.73629l12.90666,-0.6652l0.29565,5.73628z" data-paper-data="{&quot;origPos&quot;:null}" fill="#d3bb76"/><path d="M370.06068,583.63787l-0.29565,-5.7363l12.90666,-0.6652l0.29564,5.7363z" data-paper-data="{&quot;origPos&quot;:null}" fill="#d3bb76"/><path d="M352.62224,492.55447l-2.06503,-40.06715l36.71227,-1.89212l2.06503,40.06715z" data-paper-data="{&quot;origPos&quot;:null}" fill="#b9a568"/><path d="M346.68358,488.92296l-1.91571,-37.16968l47.89804,-2.46862l1.9157,37.16967z" data-paper-data="{&quot;origPos&quot;:null}" fill="#e7cd81"/><path d="M352.39303,482.52746l-1.33041,-25.81333l5.16267,-0.26608l1.3304,25.81332z" data-paper-data="{&quot;origPos&quot;:null}" fill="#d3bb76"/><path d="M382.49383,480.68851l-1.3304,-25.81333l5.16265,-0.26608l1.33041,25.81332z" data-paper-data="{&quot;origPos&quot;:null}" fill="#d3bb76"/><path d="M361.55634,481.76762l-1.3304,-25.81332l5.16265,-0.26608l1.33041,25.81332z" data-paper-data="{&quot;origPos&quot;:null}" fill="#d3bb76"/><path d="M373.60256,481.14675l-1.3304,-25.81332l5.16266,-0.26608l1.33041,25.81332z" data-paper-data="{&quot;origPos&quot;:null}" fill="#d3bb76"/><path d="M362.93175,481.48579l-0.29564,-5.73629l12.90666,-0.66519l0.29564,5.73629z" data-paper-data="{&quot;origPos&quot;:null}" fill="#d3bb76"/><path d="M362.77225,461.65123l-0.29564,-5.7363l12.90666,-0.6652l0.29564,5.7363z" data-paper-data="{&quot;origPos&quot;:null}" fill="#d3bb76"/></g></g><g data-paper-data="{&quot;origPos&quot;:null,&quot;origRot&quot;:0,&quot;index&quot;:null}"><g data-paper-data="{&quot;origPos&quot;:null,&quot;origRot&quot;:0,&quot;index&quot;:null}"><path d="M444.72801,543.05857l14.9436,-289.94573l36.93415,1.90356l-14.9436,289.94572z" data-paper-data="{&quot;origPos&quot;:null}" fill="#d3bb76"/><path d="M455.30166,328.1874l3.31861,-64.38988l37.28589,1.92169l-3.3186,64.38988z" data-paper-data="{&quot;origPos&quot;:null}" fill="#b9a568"/><path d="M450.63495,323.87764l3.33708,-64.7484l47.89804,2.46863l-3.33709,64.7484z" data-paper-data="{&quot;origPos&quot;:null}" fill="#e7cd81"/><path d="M486.56727,315.79381l2.43907,-47.32441l5.16265,0.26608l-2.43907,47.32439z" data-paper-data="{&quot;origPos&quot;:null}" fill="#b9a568"/><path d="M486.63824,314.41711l2.43907,-47.3244l5.16265,0.26607l-2.43906,47.3244z" data-paper-data="{&quot;origPos&quot;:null}" fill="#d3bb76"/><path d="M468.85513,271.10608l0.25722,-4.99057l24.95286,1.28606l-0.25721,4.99058z" data-paper-data="{&quot;origPos&quot;:null}" fill="#d3bb76"/><path d="M467.08392,305.47218l2.01333,-39.06415l5.16267,0.26608l-2.01334,39.06415z" data-paper-data="{&quot;origPos&quot;:null}" fill="#d3bb76"/><path d="M477.0562,306.15872l1.40136,-27.19002l5.16266,0.26608l-1.40134,27.19002z" data-paper-data="{&quot;origPos&quot;:null}" fill="#d3bb76"/><path d="M467.24449,305.70475l0.28382,-5.50684l14.79964,0.76276l-0.28382,5.50683z" data-paper-data="{&quot;origPos&quot;:null}" fill="#d3bb76"/><path d="M457.78145,315.22468l0.2572,-4.99057l33.90149,1.74726l-0.25722,4.99057z" data-paper-data="{&quot;origPos&quot;:null}" fill="#d3bb76"/><path d="M456.92367,315.12868l2.5455,-49.38946l5.16266,0.26608l-2.5455,49.38948z" data-paper-data="{&quot;origPos&quot;:null}" fill="#d3bb76"/><path d="M448.01323,450.17398l3.31861,-64.38988l37.28588,1.92169l-3.31861,64.38987z" data-paper-data="{&quot;origPos&quot;:null}" fill="#b9a568"/><path d="M443.34652,445.86423l3.33709,-64.7484l47.89803,2.46864l-3.33708,64.7484z" data-paper-data="{&quot;origPos&quot;:null}" fill="#e7cd81"/><path d="M479.27883,437.78041l2.43907,-47.32441l5.16267,0.26608l-2.43908,47.3244z" data-paper-data="{&quot;origPos&quot;:null}" fill="#b9a568"/><path d="M479.3498,436.40369l2.43906,-47.32441l5.16265,0.26608l-2.43907,47.3244z" data-paper-data="{&quot;origPos&quot;:null}" fill="#d3bb76"/><path d="M461.56669,393.09263l0.25721,-4.99058l24.95287,1.28605l-0.2572,4.99057z" data-paper-data="{&quot;origPos&quot;:null}" fill="#d3bb76"/><path d="M459.79551,427.45876l2.01333,-39.06415l5.16266,0.26608l-2.01333,39.06415z" data-paper-data="{&quot;origPos&quot;:null}" fill="#d3bb76"/><path d="M469.76778,428.14524l1.40134,-27.19002l5.16267,0.26608l-1.40136,27.19002z" data-paper-data="{&quot;origPos&quot;:null}" fill="#d3bb76"/><path d="M459.95607,427.69135l0.28382,-5.50684l14.79964,0.76277l-0.28382,5.50683z" data-paper-data="{&quot;origPos&quot;:null}" fill="#d3bb76"/><path d="M450.49303,437.21129l0.2572,-4.99057l33.90148,1.74725l-0.2572,4.99058z" data-paper-data="{&quot;origPos&quot;:null}" fill="#d3bb76"/><path d="M449.63525,437.1153l2.5455,-49.38947l5.16266,0.26609l-2.5455,49.38946z" data-paper-data="{&quot;origPos&quot;:null}" fill="#d3bb76"/><path d="M445.69676,497.90966l2.06504,-40.06716l36.71227,1.89213l-2.06503,40.06714z" data-paper-data="{&quot;origPos&quot;:null}" fill="#b9a568"/><path d="M440.44962,493.70169l1.91571,-37.16967l47.89803,2.46864l-1.91569,37.16968z" data-paper-data="{&quot;origPos&quot;:null}" fill="#e7cd81"/><path d="M477.47555,489.50871l1.3304,-25.81332l5.16266,0.26609l-1.33039,25.81331z" data-paper-data="{&quot;origPos&quot;:null}" fill="#d3bb76"/><path d="M447.37479,487.66977l1.33039,-25.81332l5.16265,0.26608l-1.3304,25.81332z" data-paper-data="{&quot;origPos&quot;:null}" fill="#d3bb76"/><path d="M468.31227,488.74886l1.3304,-25.81331l5.16265,0.26608l-1.3304,25.81332z" data-paper-data="{&quot;origPos&quot;:null}" fill="#d3bb76"/><path d="M456.26605,488.12801l1.3304,-25.81332l5.16265,0.26608l-1.3304,25.81332z" data-paper-data="{&quot;origPos&quot;:null}" fill="#d3bb76"/><path d="M459.19282,488.06797l0.29565,-5.73627l12.90666,0.6652l-0.29565,5.73629z" data-paper-data="{&quot;origPos&quot;:null}" fill="#d3bb76"/><path d="M459.35235,468.23342l0.29564,-5.73629l12.90666,0.6652l-0.29565,5.73629z" data-paper-data="{&quot;origPos&quot;:null}" fill="#d3bb76"/><path d="M452.98518,375.92309l2.06503,-40.06715l36.71227,1.89212l-2.06503,40.06715z" data-paper-data="{&quot;origPos&quot;:null}" fill="#b9a568"/><path d="M447.73808,371.71507l1.9157,-37.16967l47.89804,2.46862l-1.91571,37.16969z" data-paper-data="{&quot;origPos&quot;:null}" fill="#e7cd81"/><path d="M484.76399,367.52211l1.33039,-25.81331l5.16267,0.26608l-1.3304,25.81333z" data-paper-data="{&quot;origPos&quot;:null}" fill="#d3bb76"/><path d="M454.6632,365.68316l1.3304,-25.81331l5.16265,0.26608l-1.33039,25.81333z" data-paper-data="{&quot;origPos&quot;:null}" fill="#d3bb76"/><path d="M475.60069,366.76228l1.3304,-25.81331l5.16265,0.26608l-1.3304,25.81332z" data-paper-data="{&quot;origPos&quot;:null}" fill="#d3bb76"/><path d="M463.55446,366.14142l1.3304,-25.81332l5.16267,0.26608l-1.3304,25.81332z" data-paper-data="{&quot;origPos&quot;:null}" fill="#d3bb76"/><path d="M466.48128,366.08134l0.29564,-5.73629l12.90666,0.66519l-0.29564,5.73629z" data-paper-data="{&quot;origPos&quot;:null}" fill="#d3bb76"/><path d="M466.64078,346.24677l0.29564,-5.7363l12.90666,0.66521l-0.29564,5.73629z" data-paper-data="{&quot;origPos&quot;:null}" fill="#d3bb76"/></g><g data-paper-data="{&quot;origPos&quot;:null,&quot;origRot&quot;:0,&quot;index&quot;:null}"><path d="M433.8347,739.79781l14.9436,-289.94573l36.93415,1.90356l-14.9436,289.94572z" data-paper-data="{&quot;origPos&quot;:null}" fill="#d3bb76"/><path d="M444.40835,524.92666l3.31861,-64.38988l37.28589,1.92169l-3.31861,64.38987z" data-paper-data="{&quot;origPos&quot;:null}" fill="#b9a568"/><path d="M439.74164,520.6169l3.33708,-64.7484l47.89804,2.46864l-3.3371,64.7484z" data-paper-data="{&quot;origPos&quot;:null}" fill="#e7cd81"/><path d="M475.67396,512.53307l2.43906,-47.32442l5.16265,0.26608l-2.43906,47.32439z" data-paper-data="{&quot;origPos&quot;:null}" fill="#b9a568"/><path d="M475.74493,511.15637l2.43906,-47.3244l5.16266,0.26607l-2.43907,47.3244z" data-paper-data="{&quot;origPos&quot;:null}" fill="#d3bb76"/><path d="M457.96182,467.84532l0.25722,-4.99057l24.95287,1.28605l-0.25722,4.99058z" data-paper-data="{&quot;origPos&quot;:null}" fill="#d3bb76"/><path d="M456.19061,502.21144l2.01334,-39.06415l5.16267,0.26608l-2.01334,39.06415z" data-paper-data="{&quot;origPos&quot;:null}" fill="#d3bb76"/><path d="M466.16289,502.89798l1.40136,-27.19002l5.16266,0.26608l-1.40135,27.19002z" data-paper-data="{&quot;origPos&quot;:null}" fill="#d3bb76"/><path d="M456.35118,502.44402l0.28382,-5.50684l14.79964,0.76276l-0.28382,5.50684z" data-paper-data="{&quot;origPos&quot;:null}" fill="#d3bb76"/><path d="M446.88814,511.96396l0.2572,-4.99057l33.90149,1.74725l-0.25722,4.99057z" data-paper-data="{&quot;origPos&quot;:null}" fill="#d3bb76"/><path d="M446.03036,511.86795l2.5455,-49.38946l5.16266,0.26608l-2.5455,49.38947z" data-paper-data="{&quot;origPos&quot;:null}" fill="#d3bb76"/><path d="M437.11992,646.91323l3.31861,-64.38989l37.28588,1.92169l-3.3186,64.38987z" data-paper-data="{&quot;origPos&quot;:null}" fill="#b9a568"/><path d="M432.45321,642.60349l3.33709,-64.7484l47.89803,2.46863l-3.33708,64.74841z" data-paper-data="{&quot;origPos&quot;:null}" fill="#e7cd81"/><path d="M468.38552,634.51965l2.43907,-47.32441l5.16266,0.26608l-2.43908,47.3244z" data-paper-data="{&quot;origPos&quot;:null}" fill="#b9a568"/><path d="M468.45649,633.14294l2.43906,-47.3244l5.16265,0.26608l-2.43906,47.3244z" data-paper-data="{&quot;origPos&quot;:null}" fill="#d3bb76"/><path d="M450.67338,589.83188l0.25721,-4.99058l24.95287,1.28605l-0.2572,4.99057z" data-paper-data="{&quot;origPos&quot;:null}" fill="#d3bb76"/><path d="M448.9022,624.19803l2.01334,-39.06415l5.16266,0.26608l-2.01333,39.06415z" data-paper-data="{&quot;origPos&quot;:null}" fill="#d3bb76"/><path d="M458.87447,624.88449l1.40135,-27.19002l5.16267,0.26608l-1.40136,27.19002z" data-paper-data="{&quot;origPos&quot;:null}" fill="#d3bb76"/><path d="M449.06276,624.43061l0.28383,-5.50684l14.79963,0.76276l-0.28382,5.50684z" data-paper-data="{&quot;origPos&quot;:null}" fill="#d3bb76"/><path d="M439.59972,633.95055l0.2572,-4.99057l33.90148,1.74725l-0.2572,4.99058z" data-paper-data="{&quot;origPos&quot;:null}" fill="#d3bb76"/><path d="M438.74194,633.85457l2.5455,-49.38947l5.16266,0.26609l-2.5455,49.38947z" data-paper-data="{&quot;origPos&quot;:null}" fill="#d3bb76"/><path d="M434.80345,694.64892l2.06504,-40.06716l36.71226,1.89213l-2.06504,40.06714z" data-paper-data="{&quot;origPos&quot;:null}" fill="#b9a568"/><path d="M429.55631,690.44094l1.91571,-37.16967l47.89803,2.46864l-1.91569,37.16968z" data-paper-data="{&quot;origPos&quot;:null}" fill="#e7cd81"/><path d="M466.58224,686.24798l1.3304,-25.81332l5.16266,0.26608l-1.3304,25.81332z" data-paper-data="{&quot;origPos&quot;:null}" fill="#d3bb76"/><path d="M436.48148,684.40902l1.33039,-25.81331l5.16265,0.26608l-1.33039,25.81332z" data-paper-data="{&quot;origPos&quot;:null}" fill="#d3bb76"/><path d="M457.41896,685.48812l1.33041,-25.81331l5.16265,0.26608l-1.3304,25.81331z" data-paper-data="{&quot;origPos&quot;:null}" fill="#d3bb76"/><path d="M445.37274,684.86728l1.33039,-25.81332l5.16265,0.26608l-1.3304,25.81332z" data-paper-data="{&quot;origPos&quot;:null}" fill="#d3bb76"/><path d="M448.29952,684.80722l0.29565,-5.73628l12.90666,0.66521l-0.29565,5.73629z" data-paper-data="{&quot;origPos&quot;:null}" fill="#d3bb76"/><path d="M448.45904,664.97267l0.29564,-5.7363l12.90666,0.66521l-0.29565,5.7363z" data-paper-data="{&quot;origPos&quot;:null}" fill="#d3bb76"/><path d="M442.09187,572.66234l2.06504,-40.06715l36.71227,1.89213l-2.06504,40.06715z" data-paper-data="{&quot;origPos&quot;:null}" fill="#b9a568"/><path d="M436.84477,568.45433l1.91569,-37.16968l47.89804,2.46863l-1.91571,37.16968z" data-paper-data="{&quot;origPos&quot;:null}" fill="#e7cd81"/><path d="M473.87068,564.26137l1.3304,-25.81332l5.16267,0.26608l-1.3304,25.81333z" data-paper-data="{&quot;origPos&quot;:null}" fill="#d3bb76"/><path d="M443.76989,562.42242l1.3304,-25.81332l5.16265,0.26608l-1.3304,25.81333z" data-paper-data="{&quot;origPos&quot;:null}" fill="#d3bb76"/><path d="M464.70738,563.50154l1.3304,-25.81332l5.16265,0.26608l-1.33039,25.81332z" data-paper-data="{&quot;origPos&quot;:null}" fill="#d3bb76"/><path d="M452.66115,562.88067l1.3304,-25.81331l5.16267,0.26608l-1.3304,25.81332z" data-paper-data="{&quot;origPos&quot;:null}" fill="#d3bb76"/><path d="M455.58797,562.8206l0.29564,-5.73629l12.90666,0.6652l-0.29564,5.73629z" data-paper-data="{&quot;origPos&quot;:null}" fill="#d3bb76"/><path d="M455.74747,542.98602l0.29564,-5.7363l12.90666,0.66521l-0.29564,5.7363z" data-paper-data="{&quot;origPos&quot;:null}" fill="#d3bb76"/></g></g></g></g></svg>