<svg version="1.1" xmlns="http://www.w3.org/2000/svg" xmlns:xlink="http://www.w3.org/1999/xlink" width="960" height="720"><defs><clipPath id="clip-1"><path d="M-240,-180h960v720h-960z" id="clip-1" fill="none" stroke="none" stroke-width="1" stroke-linecap="butt"/></clipPath></defs><g transform="translate(240,180)"><g clip-path="url(#clip-1)" data-paper-data="{&quot;isPaintingLayer&quot;:true}" fill="none" fill-rule="nonzero" stroke="none" stroke-width="none" stroke-linecap="none" stroke-linejoin="miter" stroke-miterlimit="10" stroke-dasharray="" stroke-dashoffset="0" font-family="none" font-weight="none" font-size="none" text-anchor="none" style="mix-blend-mode: normal"><path d="M99.15079,189.51268c-0.76398,0 -1.39394,-0.25466 -1.88986,-0.76398c-0.49592,-0.52273 -0.74388,-1.15938 -0.74388,-1.90996v-34.84169c0,-0.76398 0.25466,-1.40064 0.76398,-1.90996c0.52273,-0.50932 1.14598,-0.76398 1.86975,-0.76398c0.75058,0 1.38053,0.25466 1.88986,0.76398c0.52273,0.50932 0.78409,1.14598 0.78409,1.90996v32.16775h18.61708c0.76398,0 1.40064,0.26136 1.90996,0.78409c0.52273,0.50932 0.78409,1.13927 0.78409,1.88986c0,0.75058 -0.26136,1.38723 -0.78409,1.90996c-0.50932,0.50932 -1.14598,0.76398 -1.90996,0.76398zM142.26599,189.71373c-2.84149,0 -5.36799,-0.60985 -7.57952,-1.82954c-2.21153,-1.21969 -3.94725,-2.9018 -5.20715,-5.04632c-1.2465,-2.14451 -1.86975,-4.60401 -1.86975,-7.37848c0,-2.81468 0.58974,-5.29428 1.76923,-7.43879c1.17948,-2.14451 2.81468,-3.82662 4.90558,-5.04632c2.1043,-1.21969 4.51019,-1.82954 7.21764,-1.82954c2.68065,0 4.9793,0.59644 6.89596,1.78933c1.91666,1.17948 3.37761,2.80797 4.38286,4.88548c1.01864,2.0775 1.52797,4.46998 1.52797,7.17743c0,0.65676 -0.22115,1.19959 -0.66346,1.62849c-0.44231,0.42891 -1.00524,0.64335 -1.68881,0.64335h-20.7482v-4.12149h20.58736l-2.11101,1.44755c-0.04021,-1.71562 -0.3887,-3.25028 -1.04545,-4.60401c-0.64335,-1.36713 -1.56818,-2.43939 -2.77447,-3.21677c-1.19289,-0.79079 -2.64714,-1.18619 -4.36275,-1.18619c-1.95687,0 -3.63227,0.42891 -5.02621,1.28671c-1.38053,0.8578 -2.43269,2.03059 -3.15646,3.51835c-0.72377,1.48776 -1.08566,3.17656 -1.08566,5.06642c0,1.88986 0.42891,3.57196 1.28671,5.04632c0.8578,1.47436 2.03729,2.64044 3.53845,3.49824c1.51457,0.8578 3.25028,1.28671 5.20715,1.28671c1.07226,0 2.16462,-0.19434 3.27709,-0.58304c1.11247,-0.4021 2.01048,-0.8578 2.69405,-1.36713c0.52273,-0.37529 1.07896,-0.56964 1.6687,-0.58304c0.60315,-0.02681 1.13257,0.14744 1.58828,0.52273c0.57634,0.52273 0.87791,1.09237 0.90472,1.70891c0.04021,0.61655 -0.22786,1.14598 -0.80419,1.58828c-1.16608,0.92482 -2.62033,1.6821 -4.36275,2.27185c-1.72902,0.57634 -3.38432,0.86451 -4.9659,0.86451zM169.49918,189.45237c-1.05885,0 -1.88315,-0.56294 -2.4729,-1.68881l-10.91693,-22.99994c-0.26807,-0.58974 -0.29487,-1.16608 -0.08042,-1.72902c0.22786,-0.56294 0.67016,-0.99854 1.32692,-1.30681c0.57634,-0.30828 1.16608,-0.36189 1.76923,-0.16084c0.60315,0.20105 1.05885,0.59644 1.36713,1.18619l10.19315,21.97459h-2.4729l10.09263,-21.97459c0.30828,-0.58974 0.77739,-0.98514 1.40734,-1.18619c0.64335,-0.20105 1.28671,-0.14744 1.93006,0.16084c0.61655,0.26807 1.02535,0.69697 1.2264,1.28671c0.21445,0.57634 0.18094,1.15938 -0.10052,1.74912l-10.89682,22.99994c-0.52273,1.12587 -1.31352,1.68881 -2.37237,1.68881zM200.37376,189.71373c-2.84149,0 -5.36799,-0.60985 -7.57952,-1.82954c-2.21153,-1.21969 -3.94725,-2.9018 -5.20715,-5.04632c-1.2465,-2.14451 -1.86975,-4.60401 -1.86975,-7.37848c0,-2.81468 0.58974,-5.29428 1.76923,-7.43879c1.17948,-2.14451 2.81468,-3.82662 4.90558,-5.04632c2.1043,-1.21969 4.51019,-1.82954 7.21764,-1.82954c2.68065,0 4.9793,0.59644 6.89596,1.78933c1.91666,1.17948 3.37761,2.80797 4.38286,4.88548c1.01864,2.0775 1.52797,4.46998 1.52797,7.17743c0,0.65676 -0.22115,1.19959 -0.66346,1.62849c-0.44231,0.42891 -1.00524,0.64335 -1.68881,0.64335h-20.7482v-4.12149h20.58736l-2.11101,1.44755c-0.04021,-1.71562 -0.3887,-3.25028 -1.04545,-4.60401c-0.64335,-1.36713 -1.56818,-2.43939 -2.77447,-3.21677c-1.19289,-0.79079 -2.64714,-1.18619 -4.36275,-1.18619c-1.95687,0 -3.63227,0.42891 -5.02621,1.28671c-1.38053,0.8578 -2.43269,2.03059 -3.15646,3.51835c-0.72377,1.48776 -1.08566,3.17656 -1.08566,5.06642c0,1.88986 0.42891,3.57196 1.28671,5.04632c0.8578,1.47436 2.03729,2.64044 3.53845,3.49824c1.51457,0.8578 3.25028,1.28671 5.20715,1.28671c1.07226,0 2.16462,-0.19434 3.27709,-0.58304c1.11247,-0.4021 2.01048,-0.8578 2.69405,-1.36713c0.52273,-0.37529 1.07896,-0.56964 1.6687,-0.58304c0.60315,-0.02681 1.13257,0.14744 1.58828,0.52273c0.57634,0.52273 0.87791,1.09237 0.90472,1.70891c0.04021,0.61655 -0.22786,1.14598 -0.80419,1.58828c-1.16608,0.92482 -2.62033,1.6821 -4.36275,2.27185c-1.72902,0.57634 -3.38432,0.86451 -4.9659,0.86451zM225.80153,189.51268c-1.50116,0 -2.84149,-0.4088 -4.02097,-1.2264c-1.16608,-0.831 -2.0775,-1.95687 -2.73426,-3.37761c-0.64335,-1.42074 -0.96503,-3.06264 -0.96503,-4.92569v-28.08646c0,-0.76398 0.24126,-1.38053 0.72377,-1.84965c0.48252,-0.48252 1.09906,-0.72377 1.84965,-0.72377c0.76398,0 1.38053,0.24126 1.84965,0.72377c0.48252,0.46912 0.72377,1.08566 0.72377,1.84965v28.08646c0,1.27331 0.24126,2.32546 0.72377,3.15646c0.48252,0.81759 1.09906,1.2264 1.84965,1.2264h1.28671c0.68356,0 1.2398,0.24126 1.6687,0.72377c0.42891,0.48252 0.64335,1.09906 0.64335,1.84965c0,0.75058 -0.32838,1.36713 -0.98514,1.84965c-0.64335,0.48252 -1.48105,0.72377 -2.51311,0.72377zM259.88081,189.71373c-2.39918,0 -4.62411,-0.36859 -6.67481,-1.10577c-2.03729,-0.73718 -3.61887,-1.6687 -4.74474,-2.79457c-0.52273,-0.54953 -0.74388,-1.17278 -0.66346,-1.86975c0.09382,-0.71037 0.42891,-1.29341 1.00524,-1.74912c0.69697,-0.53613 1.37383,-0.76398 2.03059,-0.68356c0.67016,0.08042 1.2465,0.38199 1.72902,0.90472c0.58974,0.64335 1.52797,1.2532 2.81468,1.82954c1.28671,0.56294 2.72086,0.8444 4.30244,0.8444c1.98368,0 3.49824,-0.32168 4.54369,-0.96503c1.04545,-0.65676 1.58828,-1.50116 1.62849,-2.53321c0.02681,-1.03205 -0.46912,-1.92336 -1.48776,-2.67394c-1.00524,-0.76398 -2.84149,-1.38723 -5.50873,-1.86975c-3.47143,-0.68356 -5.99124,-1.70891 -7.55942,-3.07604c-1.55478,-1.38053 -2.33216,-3.06264 -2.33216,-5.04632c0,-1.75582 0.51602,-3.20337 1.54807,-4.34265c1.03205,-1.15268 2.35227,-2.01048 3.96065,-2.57342c1.60839,-0.57634 3.29049,-0.86451 5.04632,-0.86451c2.26514,0 4.26893,0.36189 6.01135,1.08566c1.75582,0.72377 3.14976,1.72231 4.18181,2.99562c0.48252,0.54953 0.70367,1.12587 0.66346,1.72902c-0.02681,0.58974 -0.31497,1.09237 -0.86451,1.50786c-0.54953,0.37529 -1.20629,0.49592 -1.97027,0.36189c-0.75058,-0.13403 -1.38053,-0.44231 -1.88986,-0.92482c-0.8578,-0.831 -1.78933,-1.40064 -2.79457,-1.70891c-0.99184,-0.30828 -2.13782,-0.46241 -3.43793,-0.46241c-1.51457,0 -2.79457,0.26136 -3.84002,0.78409c-1.04545,0.50932 -1.56818,1.2599 -1.56818,2.25174c0,0.61655 0.16084,1.17948 0.48252,1.68881c0.33508,0.49592 0.97843,0.94493 1.93006,1.34702c0.96503,0.3887 2.37237,0.77069 4.22202,1.14598c2.57342,0.50932 4.60401,1.15938 6.09177,1.95017c1.50116,0.79079 2.57342,1.70891 3.21677,2.75436c0.65676,1.04545 0.98514,2.25174 0.98514,3.61887c0,1.58158 -0.4222,3.00902 -1.2666,4.28233c-0.831,1.27331 -2.06409,2.28525 -3.69929,3.03583c-1.62179,0.75058 -3.65238,1.12587 -6.09177,1.12587zM290.80364,189.71373c-2.84149,0 -5.36799,-0.60985 -7.57952,-1.82954c-2.21153,-1.21969 -3.94725,-2.9018 -5.20715,-5.04632c-1.2465,-2.14451 -1.86975,-4.60401 -1.86975,-7.37848c0,-2.81468 0.58974,-5.29428 1.76923,-7.43879c1.17948,-2.14451 2.81468,-3.82662 4.90558,-5.04632c2.1043,-1.21969 4.51019,-1.82954 7.21764,-1.82954c2.68065,0 4.9793,0.59644 6.89596,1.78933c1.91666,1.17948 3.37761,2.80797 4.38286,4.88548c1.01864,2.0775 1.52797,4.46998 1.52797,7.17743c0,0.65676 -0.22115,1.19959 -0.66346,1.62849c-0.44231,0.42891 -1.00524,0.64335 -1.68881,0.64335h-20.7482v-4.12149h20.58736l-2.11101,1.44755c-0.04021,-1.71562 -0.3887,-3.25028 -1.04545,-4.60401c-0.64335,-1.36713 -1.56818,-2.43939 -2.77447,-3.21677c-1.19289,-0.79079 -2.64714,-1.18619 -4.36275,-1.18619c-1.95687,0 -3.63227,0.42891 -5.02621,1.28671c-1.38053,0.8578 -2.43269,2.03059 -3.15646,3.51835c-0.72377,1.48776 -1.08566,3.17656 -1.08566,5.06642c0,1.88986 0.42891,3.57196 1.28671,5.04632c0.8578,1.47436 2.03729,2.64044 3.53845,3.49824c1.51457,0.8578 3.25028,1.28671 5.20715,1.28671c1.07226,0 2.16462,-0.19434 3.27709,-0.58304c1.11247,-0.4021 2.01048,-0.8578 2.69405,-1.36713c0.52273,-0.37529 1.07896,-0.56964 1.6687,-0.58304c0.60315,-0.02681 1.13257,0.14744 1.58828,0.52273c0.57634,0.52273 0.87791,1.09237 0.90472,1.70891c0.04021,0.61655 -0.22786,1.14598 -0.80419,1.58828c-1.16608,0.92482 -2.62033,1.6821 -4.36275,2.27185c-1.72902,0.57634 -3.38432,0.86451 -4.9659,0.86451zM316.23144,189.51268c-1.50116,0 -2.84149,-0.4088 -4.02097,-1.2264c-1.16608,-0.831 -2.0775,-1.95687 -2.73426,-3.37761c-0.64335,-1.42074 -0.96503,-3.06264 -0.96503,-4.92569v-28.08646c0,-0.76398 0.24126,-1.38053 0.72377,-1.84965c0.48252,-0.48252 1.09906,-0.72377 1.84965,-0.72377c0.76398,0 1.38053,0.24126 1.84965,0.72377c0.48252,0.46912 0.72377,1.08566 0.72377,1.84965v28.08646c0,1.27331 0.24126,2.32546 0.72377,3.15646c0.48252,0.81759 1.09906,1.2264 1.84965,1.2264h1.28671c0.68356,0 1.2398,0.24126 1.6687,0.72377c0.42891,0.48252 0.64335,1.09906 0.64335,1.84965c0,0.75058 -0.32838,1.36713 -0.98514,1.84965c-0.64335,0.48252 -1.48105,0.72377 -2.51311,0.72377zM336.66196,189.71373c-2.84149,0 -5.36799,-0.60985 -7.57952,-1.82954c-2.21153,-1.21969 -3.94725,-2.9018 -5.20715,-5.04632c-1.2465,-2.14451 -1.86975,-4.60401 -1.86975,-7.37848c0,-2.81468 0.58974,-5.29428 1.76923,-7.43879c1.17948,-2.14451 2.81468,-3.82662 4.90558,-5.04632c2.1043,-1.21969 4.51019,-1.82954 7.21764,-1.82954c2.68065,0 4.9793,0.59644 6.89596,1.78933c1.91666,1.17948 3.37761,2.80797 4.38286,4.88548c1.01864,2.0775 1.52797,4.46998 1.52797,7.17743c0,0.65676 -0.22115,1.19959 -0.66346,1.62849c-0.44231,0.42891 -1.00524,0.64335 -1.68881,0.64335h-20.7482v-4.12149h20.58736l-2.11101,1.44755c-0.04021,-1.71562 -0.3887,-3.25028 -1.04545,-4.60401c-0.64335,-1.36713 -1.56818,-2.43939 -2.77447,-3.21677c-1.19289,-0.79079 -2.64714,-1.18619 -4.36275,-1.18619c-1.95687,0 -3.63227,0.42891 -5.02621,1.28671c-1.38053,0.8578 -2.43269,2.03059 -3.15646,3.51835c-0.72377,1.48776 -1.08566,3.17656 -1.08566,5.06642c0,1.88986 0.42891,3.57196 1.28671,5.04632c0.8578,1.47436 2.03729,2.64044 3.53845,3.49824c1.51457,0.8578 3.25028,1.28671 5.20715,1.28671c1.07226,0 2.16462,-0.19434 3.27709,-0.58304c1.11247,-0.4021 2.01048,-0.8578 2.69405,-1.36713c0.52273,-0.37529 1.07896,-0.56964 1.6687,-0.58304c0.60315,-0.02681 1.13257,0.14744 1.58828,0.52273c0.57634,0.52273 0.87791,1.09237 0.90472,1.70891c0.04021,0.61655 -0.22786,1.14598 -0.80419,1.58828c-1.16608,0.92482 -2.62033,1.6821 -4.36275,2.27185c-1.72902,0.57634 -3.38432,0.86451 -4.9659,0.86451zM367.13202,189.71373c-2.74766,0 -5.19375,-0.62325 -7.33827,-1.86975c-2.14451,-1.2599 -3.82662,-2.96212 -5.04632,-5.10663c-1.20629,-2.14451 -1.80944,-4.5705 -1.80944,-7.27795c0,-2.77447 0.59644,-5.24066 1.78933,-7.39858c1.20629,-2.17132 2.85489,-3.86683 4.94579,-5.08652c2.0909,-1.21969 4.49008,-1.82954 7.19753,-1.82954c2.03729,0 3.89364,0.3887 5.56904,1.16608c1.67541,0.77739 3.18327,1.93677 4.52359,3.47814c0.48252,0.54953 0.65676,1.11917 0.52273,1.70891c-0.13403,0.57634 -0.50932,1.08566 -1.12587,1.52797c-0.48252,0.34849 -1.01864,0.46241 -1.60839,0.34178c-0.57634,-0.12063 -1.10577,-0.4222 -1.58828,-0.90472c-1.68881,-1.78263 -3.78641,-2.67394 -6.29282,-2.67394c-1.74242,0 -3.28379,0.4021 -4.62411,1.20629c-1.34032,0.80419 -2.38577,1.93006 -3.13636,3.37761c-0.75058,1.43415 -1.12587,3.12965 -1.12587,5.08652c0,1.84965 0.38199,3.49824 1.14598,4.94579c0.77739,1.43415 1.84965,2.57342 3.21677,3.41782c1.38053,0.8444 2.97552,1.2666 4.78495,1.2666c1.20629,0 2.26514,-0.14744 3.17656,-0.44231c0.91142,-0.29487 1.74242,-0.75058 2.493,-1.36713c0.54953,-0.44231 1.11247,-0.69027 1.68881,-0.74388c0.58974,-0.05361 1.10577,0.10723 1.54807,0.48252c0.58974,0.48252 0.91812,1.02535 0.98514,1.62849c0.06702,0.60315 -0.14073,1.14598 -0.62325,1.62849c-2.46619,2.29195 -5.55564,3.43793 -9.26833,3.43793zM395.55139,189.51268c-1.71562,0 -3.26369,-0.4356 -4.64422,-1.30681c-1.36713,-0.88461 -2.44609,-2.0775 -3.23688,-3.57866c-0.79079,-1.51457 -1.18619,-3.21677 -1.18619,-5.10663v-24.54801c0,-0.75058 0.24126,-1.36713 0.72377,-1.84965c0.48252,-0.48252 1.09906,-0.72377 1.84965,-0.72377c0.76398,0 1.38053,0.24126 1.84965,0.72377c0.48252,0.48252 0.72377,1.09906 0.72377,1.84965v24.54801c0,1.38053 0.37529,2.53321 1.12587,3.45803c0.76398,0.92482 1.69551,1.38723 2.79457,1.38723h1.74912c0.61655,0 1.13927,0.24126 1.56818,0.72377c0.42891,0.48252 0.64335,1.09906 0.64335,1.84965c0,0.75058 -0.28817,1.36713 -0.86451,1.84965c-0.56294,0.48252 -1.28671,0.72377 -2.17132,0.72377zM384.13184,166.81432c-0.72377,0 -1.31352,-0.20105 -1.76923,-0.60315c-0.44231,-0.4155 -0.66346,-0.93153 -0.66346,-1.54807c0,-0.69697 0.22115,-1.2465 0.66346,-1.6486c0.45571,-0.4155 1.04545,-0.62325 1.76923,-0.62325h11.88196c0.72377,0 1.30681,0.20775 1.74912,0.62325c0.44231,0.4021 0.66346,0.95163 0.66346,1.6486c0,0.61655 -0.22115,1.13257 -0.66346,1.54807c-0.44231,0.4021 -1.02535,0.60315 -1.74912,0.60315z" data-paper-data="{&quot;origPos&quot;:null}" fill="#817764" stroke="#817764" stroke-width="2.5" stroke-linecap="square"/></g></g></svg>