<svg version="1.1" xmlns="http://www.w3.org/2000/svg" xmlns:xlink="http://www.w3.org/1999/xlink" width="48.44664" height="47.43533"><defs><radialGradient cx="48.6863" cy="173.89162" r="21.47806" gradientUnits="userSpaceOnUse" id="color-1"><stop offset="0" stop-color="#ffdebf"/><stop offset="1" stop-color="#ffdebf" stop-opacity="0"/></radialGradient><linearGradient x1="71.45533" y1="168.70843" x2="52.46715" y2="199.84889" gradientUnits="userSpaceOnUse" id="color-2"><stop offset="0" stop-color="#706756"/><stop offset="1" stop-color="#706756" stop-opacity="0"/></linearGradient></defs><g transform="translate(-21.64346,-152.41356)"><g data-paper-data="{&quot;isPaintingLayer&quot;:true}" fill="none" fill-rule="nonzero" stroke="none" stroke-width="none" stroke-linecap="none" stroke-linejoin="miter" stroke-miterlimit="10" stroke-dasharray="" stroke-dashoffset="0" font-family="none" font-weight="none" font-size="none" text-anchor="none" style="mix-blend-mode: normal"><path d="M70.0901,173.89162c0,11.86201 -9.58281,21.47806 -21.40381,21.47806c-11.82099,0 -21.4038,-9.61605 -21.4038,-21.47806c0,-11.86201 9.58281,-21.47806 21.4038,-21.47806c11.82099,0 21.40381,9.61605 21.40381,21.47806z" data-paper-data="{&quot;origPos&quot;:null}" fill="url(#color-1)" stroke="none" stroke-width="0" stroke-linecap="butt"/><path d="M52.46715,199.84889l-30.82369,-16.07688c0,0 9.61743,-15.78032 10.19933,-16.07628c1.74574,-0.88788 19.0564,-11.52146 19.0564,-11.52146l9.1407,29.1045z" data-paper-data="{&quot;origPos&quot;:null,&quot;index&quot;:null}" id="ID0.2113282661885023" fill="url(#color-2)" stroke="none" stroke-width="0.7621" stroke-linecap="round"/><path d="M49.99272,161.61039c2.11385,-1.30697 5.41646,0.39367 5.41646,2.78909c0,7.17874 0,12.30918 0,18.3946c0,2.14587 -2.01256,3.8127 -3.78031,2.59622c-4.42597,-3.04581 -8.67528,-5.97005 -14.22789,-9.79118c-1.8531,-1.27524 -2.16792,-4.86311 -0.51627,-5.88431c4.95491,-3.06351 7.99244,-4.94155 13.10803,-8.10441z" data-paper-data="{&quot;origPos&quot;:null,&quot;index&quot;:null}" id="ID0.8089321344159544" fill="#706756" stroke="#706756" stroke-width="10.5" stroke-linecap="round"/></g></g></svg>