<svg version="1.1" xmlns="http://www.w3.org/2000/svg" xmlns:xlink="http://www.w3.org/1999/xlink" width="416.36285" height="414.50894"><defs><linearGradient x1="362.73439" y1="161.21829" x2="383.2268" y2="180.7884" gradientUnits="userSpaceOnUse" id="color-1"><stop offset="0" stop-color="#8e8e8e"/><stop offset="1" stop-color="#818181"/></linearGradient><linearGradient x1="213.42458" y1="193.61873" x2="187.73754" y2="225.40633" gradientUnits="userSpaceOnUse" id="color-2"><stop offset="0" stop-color="#8e8e8e"/><stop offset="1" stop-color="#818181"/></linearGradient><linearGradient x1="287.23623" y1="143.32637" x2="290.72472" y2="175.05722" gradientUnits="userSpaceOnUse" id="color-3"><stop offset="0" stop-color="#8e8e8e"/><stop offset="1" stop-color="#818181"/></linearGradient><linearGradient x1="485.23623" y1="180.32636" x2="488.72472" y2="212.05728" gradientUnits="userSpaceOnUse" id="color-4"><stop offset="0" stop-color="#8e8e8e"/><stop offset="1" stop-color="#818181"/></linearGradient><linearGradient x1="348.23623" y1="229.32637" x2="351.72472" y2="261.05723" gradientUnits="userSpaceOnUse" id="color-5"><stop offset="0" stop-color="#8e8e8e"/><stop offset="1" stop-color="#818181"/></linearGradient></defs><g transform="translate(-176.63715,-94.13111)"><g data-paper-data="{&quot;isPaintingLayer&quot;:true}" fill="none" fill-rule="nonzero" stroke="none" stroke-width="none" stroke-linecap="butt" stroke-linejoin="miter" stroke-miterlimit="10" stroke-dasharray="" stroke-dashoffset="0" font-family="none" font-weight="none" font-size="none" text-anchor="none" style="mix-blend-mode: normal"><path d="M185.6454,196.80006v-80h366.9267v80z" data-paper-data="{&quot;origPos&quot;:null,&quot;index&quot;:null}" fill="#847968" stroke-width="NaN"/><path d="M185.6454,182.80006v-40h370.50648v40z" data-paper-data="{&quot;origPos&quot;:null,&quot;index&quot;:null}" fill="#7c7262" stroke-width="0"/><path d="M185.65498,124.80012v-9h374.08624v9z" data-paper-data="{&quot;origPos&quot;:null,&quot;index&quot;:null}" fill="#61584c" stroke-width="0"/><path d="M178.21786,119.80012v-19h374.08624v19z" data-paper-data="{&quot;origPos&quot;:null,&quot;index&quot;:null}" fill="#91b782" stroke-width="0"/><path d="M178.47629,119.80012v-12h374.08624v12z" data-paper-data="{&quot;origPos&quot;:null,&quot;index&quot;:null}" fill="#8aaf7c" stroke-width="0"/><path d="M184.21785,423.20003v-252h361.76636v252z" data-paper-data="{&quot;origPos&quot;:null,&quot;index&quot;:null}" fill="#786e5f" stroke-width="0"/><path d="M383.44615,185.81832l-16.06516,1.37884l-7.94537,-21.95397l22.20779,-6.88753l8.28566,14.35289z" data-paper-data="{&quot;origPos&quot;:null,&quot;origRot&quot;:0}" fill="#534c42" stroke-width="0"/><path d="M381.20521,182.90531l-14.41745,1.23742l-7.13047,-19.70227l19.93006,-6.18112l7.43586,12.88079z" data-paper-data="{&quot;origPos&quot;:null,&quot;origRot&quot;:0}" fill="url(#color-1)" stroke-width="NaN"/><path d="M524.26879,383.21098l26.91969,-289.07986l36.82385,3.42911l-26.91969,289.07985z" data-paper-data="{&quot;origPos&quot;:null}" fill="#d3bb76" stroke-width="0"/><path d="M543.71804,168.96077l5.97821,-64.19759l37.17454,3.46177l-5.97821,64.19759z" data-paper-data="{&quot;origPos&quot;:null}" fill="#b9a568" stroke-width="0"/><path d="M539.23351,164.46168l6.01149,-64.55504l47.755,4.44704l-6.01149,64.55504z" data-paper-data="{&quot;origPos&quot;:null}" fill="#e7cd81" stroke-width="0"/><path d="M575.46937,157.8706l4.39378,-47.18308l5.14724,0.47932l-4.39378,47.18307z" data-paper-data="{&quot;origPos&quot;:null}" fill="#b9a568" stroke-width="0"/><path d="M575.59721,156.49794l4.39378,-47.18308l5.14724,0.47932l-4.39378,47.18307z" data-paper-data="{&quot;origPos&quot;:null}" fill="#d3bb76" stroke-width="0"/><path d="M559.62016,112.48869l0.46334,-4.97567l24.87835,2.31672l-0.46334,4.97567z" data-paper-data="{&quot;origPos&quot;:null}" fill="#d3bb76" stroke-width="0"/><path d="M556.42948,146.75215l3.62687,-38.94749l5.14725,0.47932l-3.62687,38.94749z" data-paper-data="{&quot;origPos&quot;:null}" fill="#d3bb76" stroke-width="0"/><path d="M566.36484,147.85038l2.52443,-27.10882l5.14725,0.47932l-2.52443,27.10882z" data-paper-data="{&quot;origPos&quot;:null}" fill="#d3bb76" stroke-width="0"/><path d="M556.58029,146.99118l0.51128,-5.4904l14.75544,1.37406l-0.51128,5.4904z" data-paper-data="{&quot;origPos&quot;:null}" fill="#d3bb76" stroke-width="0"/><path d="M546.73171,156.11166l0.46334,-4.97567l33.80024,3.14755l-0.46334,4.97567z" data-paper-data="{&quot;origPos&quot;:null}" fill="#d3bb76" stroke-width="0"/><path d="M545.87863,155.98029l4.58551,-49.24198l5.14724,0.47932l-4.58551,49.24198z" data-paper-data="{&quot;origPos&quot;:null}" fill="#d3bb76" stroke-width="0"/><path d="M531.39187,290.54159l5.97821,-64.19759l37.17454,3.46177l-5.97821,64.19759z" data-paper-data="{&quot;origPos&quot;:null}" fill="#b9a568" stroke-width="0"/><path d="M526.90733,286.04258l6.01149,-64.55504l47.755,4.44704l-6.01149,64.55504z" data-paper-data="{&quot;origPos&quot;:null}" fill="#e7cd81" stroke-width="0"/><path d="M563.14319,279.45144l4.39378,-47.18308l5.14724,0.47932l-4.39378,47.18307z" data-paper-data="{&quot;origPos&quot;:null}" fill="#b9a568" stroke-width="0"/><path d="M563.27101,278.07885l4.39378,-47.18308l5.14724,0.47932l-4.39378,47.18307z" data-paper-data="{&quot;origPos&quot;:null}" fill="#d3bb76" stroke-width="0"/><path d="M547.29398,234.06956l0.46334,-4.97567l24.87835,2.31672l-0.46334,4.97567z" data-paper-data="{&quot;origPos&quot;:null}" fill="#d3bb76" stroke-width="0"/><path d="M544.1033,268.33305l3.62687,-38.94749l5.14725,0.47932l-3.62687,38.94749z" data-paper-data="{&quot;origPos&quot;:null}" fill="#d3bb76" stroke-width="0"/><path d="M554.03867,269.43129l2.52443,-27.10882l5.14725,0.47932l-2.52443,27.10882z" data-paper-data="{&quot;origPos&quot;:null}" fill="#d3bb76" stroke-width="0"/><path d="M544.25412,268.57205l0.51128,-5.4904l14.75544,1.37406l-0.51128,5.4904z" data-paper-data="{&quot;origPos&quot;:null}" fill="#d3bb76" stroke-width="0"/><path d="M534.40553,277.69257l0.46334,-4.97567l33.80024,3.14755l-0.46334,4.97567z" data-paper-data="{&quot;origPos&quot;:null}" fill="#d3bb76" stroke-width="0"/><path d="M533.55245,277.5612l4.58551,-49.24198l5.14724,0.47932l-4.58551,49.24198z" data-paper-data="{&quot;origPos&quot;:null}" fill="#d3bb76" stroke-width="0"/><path d="M527.10356,338.14073l3.71999,-39.9475l36.60263,3.40851l-3.71999,39.9475z" data-paper-data="{&quot;origPos&quot;:null}" fill="#b9a568" stroke-width="0"/><path d="M522.03492,333.71941l3.45098,-37.05868l47.755,4.44704l-3.45098,37.05868z" data-paper-data="{&quot;origPos&quot;:null}" fill="#e7cd81" stroke-width="0"/><path d="M559.20253,331.06101l2.39661,-25.73623l5.14725,0.47932l-2.39661,25.73623z" data-paper-data="{&quot;origPos&quot;:null}" fill="#d3bb76" stroke-width="0"/><path d="M529.20356,327.97899l2.39661,-25.73623l5.14724,0.47932l-2.39661,25.73623z" data-paper-data="{&quot;origPos&quot;:null}" fill="#d3bb76" stroke-width="0"/><path d="M550.07851,329.92287l2.39661,-25.73623l5.14724,0.47932l-2.39661,25.73623z" data-paper-data="{&quot;origPos&quot;:null}" fill="#d3bb76" stroke-width="0"/><path d="M538.06827,328.80448l2.39661,-25.73623l5.14724,0.47932l-2.39661,25.73623z" data-paper-data="{&quot;origPos&quot;:null}" fill="#d3bb76" stroke-width="0"/><path d="M540.99502,328.86548l0.53258,-5.71916l12.86812,1.1983l-0.53258,5.71916z" data-paper-data="{&quot;origPos&quot;:null}" fill="#d3bb76" stroke-width="0"/><path d="M541.97455,309.05449l0.53258,-5.71917l12.86812,1.1983l-0.53258,5.71917z" data-paper-data="{&quot;origPos&quot;:null}" fill="#d3bb76" stroke-width="0"/><path d="M539.42973,216.55988l3.71999,-39.9475l36.60263,3.40851l-3.71999,39.9475z" data-paper-data="{&quot;origPos&quot;:null}" fill="#b9a568" stroke-width="0"/><path d="M534.3611,212.13847l3.45098,-37.05868l47.755,4.44704l-3.45098,37.05868z" data-paper-data="{&quot;origPos&quot;:null}" fill="#e7cd81" stroke-width="0"/><path d="M571.5287,209.48011l2.39661,-25.73623l5.14725,0.47932l-2.39661,25.73623z" data-paper-data="{&quot;origPos&quot;:null}" fill="#d3bb76" stroke-width="0"/><path d="M541.52974,206.39802l2.39661,-25.73623l5.14724,0.47932l-2.39661,25.73623z" data-paper-data="{&quot;origPos&quot;:null}" fill="#d3bb76" stroke-width="0"/><path d="M562.40469,208.34196l2.39661,-25.73623l5.14724,0.47932l-2.39661,25.73623z" data-paper-data="{&quot;origPos&quot;:null}" fill="#d3bb76" stroke-width="0"/><path d="M550.39445,207.22358l2.39661,-25.73623l5.14724,0.47932l-2.39661,25.73623z" data-paper-data="{&quot;origPos&quot;:null}" fill="#d3bb76" stroke-width="0"/><path d="M553.32121,207.28459l0.53258,-5.71916l12.86812,1.1983l-0.53258,5.71916z" data-paper-data="{&quot;origPos&quot;:null}" fill="#d3bb76" stroke-width="0"/><path d="M554.30072,187.47362l0.53258,-5.71917l12.86812,1.1983l-0.53258,5.71917z" data-paper-data="{&quot;origPos&quot;:null}" fill="#d3bb76" stroke-width="0"/><path d="M180.53382,226.32117l-3.89667,-22.92723l30.60898,-14.03708l12.54682,31.0999l-19.64286,13.62024z" data-paper-data="{&quot;origPos&quot;:null,&quot;origRot&quot;:0}" fill="#534c42" stroke-width="0"/><path d="M184.45388,222.75293l-3.49701,-20.57572l27.46958,-12.59739l11.25997,27.91015l-17.6282,12.22331z" data-paper-data="{&quot;origPos&quot;:null,&quot;origRot&quot;:0}" fill="url(#color-2)" stroke-width="NaN"/><path d="M287.26812,179.55418l-14.8544,-10.4551l9.06025,-24.69257l24.14474,10.15653l-3.2574,18.38386z" data-paper-data="{&quot;origPos&quot;:null,&quot;origRot&quot;:0}" fill="#534c42" stroke-width="0"/><path d="M287.44692,175.41763l-13.33088,-9.38278l8.13097,-22.16l21.66835,9.11482l-2.92329,16.49834z" data-paper-data="{&quot;origPos&quot;:null,&quot;origRot&quot;:0}" fill="url(#color-3)" stroke-width="NaN"/><path d="M485.26812,216.55423l-14.8544,-10.4551l9.06025,-24.69257l24.14474,10.15653l-3.2574,18.38386z" data-paper-data="{&quot;origPos&quot;:null,&quot;origRot&quot;:0}" fill="#534c42" stroke-width="0"/><path d="M485.44692,212.41769l-13.33088,-9.38278l8.13097,-22.16l21.66835,9.11482l-2.92329,16.49834z" data-paper-data="{&quot;origPos&quot;:null,&quot;origRot&quot;:0}" fill="url(#color-4)" stroke-width="NaN"/><path d="M348.26812,265.55419l-14.8544,-10.4551l9.06025,-24.69257l24.14474,10.15653l-3.2574,18.38386z" data-paper-data="{&quot;origPos&quot;:null,&quot;origRot&quot;:0}" fill="#534c42" stroke-width="0"/><path d="M348.44692,261.41764l-13.33088,-9.38278l8.13097,-22.16l21.66835,9.11482l-2.92329,16.49834z" data-paper-data="{&quot;origPos&quot;:null,&quot;origRot&quot;:0}" fill="url(#color-5)" stroke-width="NaN"/><path d="M512.71341,505.21096l26.91969,-289.07986l36.82385,3.42911l-26.91969,289.07985z" data-paper-data="{&quot;origPos&quot;:null}" fill="#d3bb76" stroke-width="0"/><path d="M532.16266,290.96074l5.97821,-64.19759l37.17454,3.46177l-5.97821,64.19759z" data-paper-data="{&quot;origPos&quot;:null}" fill="#b9a568" stroke-width="0"/><path d="M527.67813,286.46171l6.01149,-64.55504l47.755,4.44704l-6.01149,64.55504z" data-paper-data="{&quot;origPos&quot;:null}" fill="#e7cd81" stroke-width="0"/><path d="M563.91399,279.87057l4.39378,-47.18308l5.14724,0.47932l-4.39378,47.18307z" data-paper-data="{&quot;origPos&quot;:null}" fill="#b9a568" stroke-width="0"/><path d="M564.04183,278.49791l4.39378,-47.18308l5.14724,0.47932l-4.39378,47.18307z" data-paper-data="{&quot;origPos&quot;:null}" fill="#d3bb76" stroke-width="0"/><path d="M548.06478,234.48867l0.46334,-4.97567l24.87835,2.31672l-0.46334,4.97567z" data-paper-data="{&quot;origPos&quot;:null}" fill="#d3bb76" stroke-width="0"/><path d="M544.8741,268.75212l3.62687,-38.94749l5.14725,0.47932l-3.62687,38.94749z" data-paper-data="{&quot;origPos&quot;:null}" fill="#d3bb76" stroke-width="0"/><path d="M554.80946,269.85033l2.52443,-27.10882l5.14725,0.47932l-2.52443,27.10882z" data-paper-data="{&quot;origPos&quot;:null}" fill="#d3bb76" stroke-width="0"/><path d="M545.02491,268.99116l0.51128,-5.4904l14.75544,1.37406l-0.51128,5.4904z" data-paper-data="{&quot;origPos&quot;:null}" fill="#d3bb76" stroke-width="0"/><path d="M535.17633,278.11163l0.46334,-4.97567l33.80024,3.14755l-0.46334,4.97567z" data-paper-data="{&quot;origPos&quot;:null}" fill="#d3bb76" stroke-width="0"/><path d="M534.32325,277.98026l4.58551,-49.24198l5.14724,0.47932l-4.58551,49.24198z" data-paper-data="{&quot;origPos&quot;:null}" fill="#d3bb76" stroke-width="0"/><path d="M519.83649,412.54161l5.97821,-64.19759l37.17454,3.46177l-5.97821,64.19759z" data-paper-data="{&quot;origPos&quot;:null}" fill="#b9a568" stroke-width="0"/><path d="M515.35195,408.04261l6.01149,-64.55504l47.755,4.44704l-6.01149,64.55504z" data-paper-data="{&quot;origPos&quot;:null}" fill="#e7cd81" stroke-width="0"/><path d="M551.58781,401.45146l4.39378,-47.18308l5.14724,0.47932l-4.39378,47.18307z" data-paper-data="{&quot;origPos&quot;:null}" fill="#b9a568" stroke-width="0"/><path d="M551.71563,400.07885l4.39378,-47.18308l5.14724,0.47932l-4.39378,47.18307z" data-paper-data="{&quot;origPos&quot;:null}" fill="#d3bb76" stroke-width="0"/><path d="M535.7386,356.06954l0.46334,-4.97567l24.87835,2.31672l-0.46334,4.97567z" data-paper-data="{&quot;origPos&quot;:null}" fill="#d3bb76" stroke-width="0"/><path d="M532.54792,390.33303l3.62687,-38.94749l5.14725,0.47932l-3.62687,38.94749z" data-paper-data="{&quot;origPos&quot;:null}" fill="#d3bb76" stroke-width="0"/><path d="M542.48329,391.4313l2.52443,-27.10882l5.14725,0.47932l-2.52443,27.10882z" data-paper-data="{&quot;origPos&quot;:null}" fill="#d3bb76" stroke-width="0"/><path d="M532.69874,390.57205l0.51128,-5.4904l14.75544,1.37406l-0.51128,5.4904z" data-paper-data="{&quot;origPos&quot;:null}" fill="#d3bb76" stroke-width="0"/><path d="M522.85015,399.69256l0.46334,-4.97567l33.80024,3.14755l-0.46334,4.97567z" data-paper-data="{&quot;origPos&quot;:null}" fill="#d3bb76" stroke-width="0"/><path d="M521.99707,399.56121l4.58551,-49.24198l5.14724,0.47932l-4.58551,49.24198z" data-paper-data="{&quot;origPos&quot;:null}" fill="#d3bb76" stroke-width="0"/><path d="M515.54818,460.14071l3.71999,-39.9475l36.60263,3.40851l-3.71999,39.9475z" data-paper-data="{&quot;origPos&quot;:null}" fill="#b9a568" stroke-width="0"/><path d="M510.47954,455.71939l3.45098,-37.05868l47.755,4.44704l-3.45098,37.05868z" data-paper-data="{&quot;origPos&quot;:null}" fill="#e7cd81" stroke-width="0"/><path d="M547.64715,453.06099l2.39661,-25.73623l5.14725,0.47932l-2.39661,25.73623z" data-paper-data="{&quot;origPos&quot;:null}" fill="#d3bb76" stroke-width="0"/><path d="M517.64818,449.97897l2.39661,-25.73623l5.14724,0.47932l-2.39661,25.73623z" data-paper-data="{&quot;origPos&quot;:null}" fill="#d3bb76" stroke-width="0"/><path d="M538.52313,451.92288l2.39661,-25.73623l5.14724,0.47932l-2.39661,25.73623z" data-paper-data="{&quot;origPos&quot;:null}" fill="#d3bb76" stroke-width="0"/><path d="M526.51289,450.80446l2.39661,-25.73623l5.14724,0.47932l-2.39661,25.73623z" data-paper-data="{&quot;origPos&quot;:null}" fill="#d3bb76" stroke-width="0"/><path d="M529.43964,467.86551l0.53258,-5.71916l12.86812,1.1983l-0.53258,5.71916z" data-paper-data="{&quot;origPos&quot;:null}" fill="#d3bb76" stroke-width="0"/><path d="M530.41917,431.05452l0.53258,-5.71917l12.86812,1.1983l-0.53258,5.71917z" data-paper-data="{&quot;origPos&quot;:null}" fill="#d3bb76" stroke-width="0"/><path d="M527.87435,338.55986l3.71999,-39.9475l36.60263,3.40851l-3.71999,39.9475z" data-paper-data="{&quot;origPos&quot;:null}" fill="#b9a568" stroke-width="0"/><path d="M522.80572,334.13845l3.45098,-37.05868l47.755,4.44704l-3.45098,37.05868z" data-paper-data="{&quot;origPos&quot;:null}" fill="#e7cd81" stroke-width="0"/><path d="M559.97332,331.48008l2.39661,-25.73623l5.14725,0.47932l-2.39661,25.73623z" data-paper-data="{&quot;origPos&quot;:null}" fill="#d3bb76" stroke-width="0"/><path d="M529.97436,328.39797l2.39661,-25.73623l5.14724,0.47932l-2.39661,25.73623z" data-paper-data="{&quot;origPos&quot;:null}" fill="#d3bb76" stroke-width="0"/><path d="M550.84931,330.34191l2.39661,-25.73623l5.14724,0.47932l-2.39661,25.73623z" data-paper-data="{&quot;origPos&quot;:null}" fill="#d3bb76" stroke-width="0"/><path d="M538.83907,329.22355l2.39661,-25.73623l5.14724,0.47932l-2.39661,25.73623z" data-paper-data="{&quot;origPos&quot;:null}" fill="#d3bb76" stroke-width="0"/><path d="M541.76583,329.28454l0.53258,-5.71916l12.86812,1.1983l-0.53258,5.71916z" data-paper-data="{&quot;origPos&quot;:null}" fill="#d3bb76" stroke-width="0"/><path d="M542.74534,309.4736l0.53258,-5.71917l12.86812,1.1983l-0.53258,5.71917z" data-paper-data="{&quot;origPos&quot;:null}" fill="#d3bb76" stroke-width="0"/></g></g></svg>