<svg version="1.1" xmlns="http://www.w3.org/2000/svg" xmlns:xlink="http://www.w3.org/1999/xlink" width="368.06167" height="647.76016"><g transform="translate(-98.99839,-75.37451)"><g data-paper-data="{&quot;isPaintingLayer&quot;:true}" fill="none" fill-rule="nonzero" stroke="none" stroke-width="0" stroke-linecap="butt" stroke-linejoin="miter" stroke-miterlimit="10" stroke-dasharray="" stroke-dashoffset="0" font-family="none" font-weight="none" font-size="none" text-anchor="none" style="mix-blend-mode: normal"><path d="M131.79146,410.13469v-235h216v235z" data-paper-data="{&quot;origPos&quot;:null}" fill="#a1937c" stroke="none"/><path d="M143.79146,723.13468v-398h175v398z" data-paper-data="{&quot;origPos&quot;:null}" fill="#a1937c" stroke="none"/><path d="M141.79146,545.13465v-195h216v195z" data-paper-data="{&quot;origPos&quot;:null}" fill="#a1937c" stroke="none"/><path d="M108.95497,444.51369l-1.4362,-187.13916l37.26013,3.52423l1.15562,182.87686z" data-paper-data="{&quot;origPos&quot;:null,&quot;origRot&quot;:0}" fill="#d3bb76" stroke="none"/><path d="M108.90223,435.12463l-0.5611,-40.1164l36.7574,-0.51411l0.56109,40.1164z" data-paper-data="{&quot;origPos&quot;:null,&quot;origRot&quot;:0}" fill="#b9a568" stroke="none"/><path d="M103.1039,431.273l-0.52052,-37.21536l47.95692,-0.67077l0.52051,37.21537z" data-paper-data="{&quot;origPos&quot;:null,&quot;origRot&quot;:0}" fill="#e7cd81" stroke="none"/><g data-paper-data="{&quot;origPos&quot;:null}" stroke="none"><path d="M343.95501,440.51369l-1.4362,-187.13916l37.26013,3.52423l1.15562,182.87686z" data-paper-data="{&quot;origPos&quot;:null,&quot;origRot&quot;:0}" fill="#d3bb76"/><path d="M342.31725,307.33016l-0.5611,-40.11639l36.75739,-0.51412l0.56109,40.1164z" data-paper-data="{&quot;origPos&quot;:null,&quot;origRot&quot;:0}" fill="#b9a568"/><path d="M336.5189,303.47862l-0.52051,-37.21537l47.95692,-0.67076l0.52052,37.21536z" data-paper-data="{&quot;origPos&quot;:null,&quot;origRot&quot;:0}" fill="#e7cd81"/><path d="M342.46417,297.3017l-0.36148,-25.84504l5.16901,-0.0723l0.36149,25.84505z" data-paper-data="{&quot;origPos&quot;:null,&quot;origRot&quot;:0}" fill="#d3bb76"/><path d="M372.61274,296.59277l-0.36148,-25.84506l5.169,-0.0723l0.36148,25.84505z" data-paper-data="{&quot;origPos&quot;:null,&quot;origRot&quot;:0}" fill="#d3bb76"/><path d="M351.64957,296.88595l-0.36148,-25.84505l5.169,-0.0723l0.36148,25.84506z" data-paper-data="{&quot;origPos&quot;:null,&quot;origRot&quot;:0}" fill="#d3bb76"/><path d="M363.71057,296.71725l-0.36148,-25.84505l5.169,-0.0723l0.36148,25.84505z" data-paper-data="{&quot;origPos&quot;:null,&quot;origRot&quot;:0}" fill="#d3bb76"/><path d="M353.03455,296.65599l-0.08032,-5.74333l12.92253,-0.18075l0.08033,5.74334z" data-paper-data="{&quot;origPos&quot;:null,&quot;origRot&quot;:0}" fill="#d3bb76"/><path d="M353.61895,276.82935l-0.08033,-5.74334l12.92253,-0.18075l0.08032,5.74335z" data-paper-data="{&quot;origPos&quot;:null,&quot;origRot&quot;:0}" fill="#d3bb76"/><path d="M342.8031,383.34358l-0.9017,-64.46904l37.33173,-0.52215l0.9017,64.46904z" data-paper-data="{&quot;origPos&quot;:null,&quot;origRot&quot;:0}" fill="#b9a568"/><path d="M337.00296,379.3605l-0.90673,-64.828l47.95692,-0.67077l0.90673,64.828z" data-paper-data="{&quot;origPos&quot;:null,&quot;origRot&quot;:0}" fill="#e7cd81"/><path d="M344.18695,369.33645l-0.66273,-47.38257l5.169,-0.07229l0.66273,47.38258z" data-paper-data="{&quot;origPos&quot;:null,&quot;origRot&quot;:0}" fill="#b9a568"/><path d="M344.1677,367.95808l-0.66273,-47.38257l5.169,-0.0723l0.66272,47.38258z" data-paper-data="{&quot;origPos&quot;:null,&quot;origRot&quot;:0}" fill="#d3bb76"/><path d="M343.74789,325.62145l-0.0699,-4.9967l24.98354,-0.34944l0.06989,4.99671z" data-paper-data="{&quot;origPos&quot;:null,&quot;origRot&quot;:0}" fill="#d3bb76"/><path d="M364.04365,359.75269l-0.54705,-39.11218l5.16901,-0.0723l0.54705,39.11218z" data-paper-data="{&quot;origPos&quot;:null,&quot;origRot&quot;:0}" fill="#d3bb76"/><path d="M354.05265,360.06479l-0.38076,-27.22345l5.16901,-0.0723l0.38077,27.22346z" data-paper-data="{&quot;origPos&quot;:null,&quot;origRot&quot;:0}" fill="#d3bb76"/><path d="M354.22563,360.11406l-0.07712,-5.51362l14.81784,-0.20725l0.07712,5.51362z" data-paper-data="{&quot;origPos&quot;:null,&quot;origRot&quot;:0}" fill="#d3bb76"/><path d="M344.19973,370.24968l-0.06989,-4.99671l33.94316,-0.47476l0.06989,4.99671z" data-paper-data="{&quot;origPos&quot;:null,&quot;origRot&quot;:0}" fill="#d3bb76"/><path d="M373.83462,369.78345l-0.69166,-49.45019l5.169,-0.0723l0.69164,49.45019z" data-paper-data="{&quot;origPos&quot;:null,&quot;origRot&quot;:0}" fill="#d3bb76"/><path d="M343.90227,431.12463l-0.5611,-40.1164l36.7574,-0.51411l0.56109,40.1164z" data-paper-data="{&quot;origPos&quot;:null,&quot;origRot&quot;:0}" fill="#b9a568"/><path d="M338.10391,427.27293l-0.52052,-37.21536l47.95692,-0.67077l0.52051,37.21537z" data-paper-data="{&quot;origPos&quot;:null,&quot;origRot&quot;:0}" fill="#e7cd81"/><path d="M344.04923,421.09602l-0.36148,-25.84506l5.16901,-0.0723l0.36149,25.84505z" data-paper-data="{&quot;origPos&quot;:null,&quot;origRot&quot;:0}" fill="#d3bb76"/><path d="M374.19778,420.3871l-0.36149,-25.84506l5.169,-0.07229l0.36149,25.84505z" data-paper-data="{&quot;origPos&quot;:null,&quot;origRot&quot;:0}" fill="#d3bb76"/><path d="M353.23458,420.68034l-0.36149,-25.84505l5.16901,-0.0723l0.36148,25.84505z" data-paper-data="{&quot;origPos&quot;:null,&quot;origRot&quot;:0}" fill="#d3bb76"/><path d="M365.29554,420.51165l-0.36148,-25.84506l5.169,-0.0723l0.36148,25.84505z" data-paper-data="{&quot;origPos&quot;:null,&quot;origRot&quot;:0}" fill="#d3bb76"/><path d="M355.20396,400.62374l-0.08032,-5.74333l12.92252,-0.18076l0.08033,5.74335z" data-paper-data="{&quot;origPos&quot;:null,&quot;origRot&quot;:0}" fill="#d3bb76"/></g><g data-paper-data="{&quot;origPos&quot;:null}" stroke="none"><path d="M111.95497,619.9136l-1.4362,-187.13916l37.26013,3.52423l1.15562,182.87686z" data-paper-data="{&quot;origPos&quot;:null,&quot;origRot&quot;:0}" fill="#d3bb76"/><path d="M110.3172,486.73018l-0.5611,-40.11639l36.75739,-0.51412l0.56109,40.1164z" data-paper-data="{&quot;origPos&quot;:null,&quot;origRot&quot;:0}" fill="#b9a568"/><path d="M104.5189,482.87861l-0.52051,-37.21537l47.95692,-0.67076l0.52052,37.21536z" data-paper-data="{&quot;origPos&quot;:null,&quot;origRot&quot;:0}" fill="#e7cd81"/><path d="M110.46417,476.70165l-0.36148,-25.84504l5.16901,-0.0723l0.36149,25.84505z" data-paper-data="{&quot;origPos&quot;:null,&quot;origRot&quot;:0}" fill="#d3bb76"/><path d="M140.61272,475.99278l-0.36148,-25.84506l5.169,-0.0723l0.36148,25.84505z" data-paper-data="{&quot;origPos&quot;:null,&quot;origRot&quot;:0}" fill="#d3bb76"/><path d="M119.64952,476.28595l-0.36148,-25.84505l5.169,-0.0723l0.36148,25.84506z" data-paper-data="{&quot;origPos&quot;:null,&quot;origRot&quot;:0}" fill="#d3bb76"/><path d="M131.71051,476.11725l-0.36148,-25.84505l5.169,-0.0723l0.36148,25.84505z" data-paper-data="{&quot;origPos&quot;:null,&quot;origRot&quot;:0}" fill="#d3bb76"/><path d="M121.03455,476.05597l-0.08032,-5.74333l12.92253,-0.18075l0.08033,5.74334z" data-paper-data="{&quot;origPos&quot;:null,&quot;origRot&quot;:0}" fill="#d3bb76"/><path d="M121.61889,456.22932l-0.08033,-5.74334l12.92253,-0.18075l0.08032,5.74335z" data-paper-data="{&quot;origPos&quot;:null,&quot;origRot&quot;:0}" fill="#d3bb76"/><path d="M110.8031,562.74362l-0.9017,-64.46904l37.33173,-0.52215l0.9017,64.46904z" data-paper-data="{&quot;origPos&quot;:null,&quot;origRot&quot;:0}" fill="#b9a568"/><path d="M105.00296,558.76046l-0.90673,-64.828l47.95692,-0.67077l0.90673,64.828z" data-paper-data="{&quot;origPos&quot;:null,&quot;origRot&quot;:0}" fill="#e7cd81"/><path d="M112.18695,548.73646l-0.66273,-47.38257l5.169,-0.07229l0.66273,47.38258z" data-paper-data="{&quot;origPos&quot;:null,&quot;origRot&quot;:0}" fill="#b9a568"/><path d="M112.16766,547.35808l-0.66273,-47.38257l5.169,-0.0723l0.66272,47.38258z" data-paper-data="{&quot;origPos&quot;:null,&quot;origRot&quot;:0}" fill="#d3bb76"/><path d="M111.74783,505.02147l-0.0699,-4.9967l24.98354,-0.34944l0.06989,4.99671z" data-paper-data="{&quot;origPos&quot;:null,&quot;origRot&quot;:0}" fill="#d3bb76"/><path d="M132.04361,539.15271l-0.54705,-39.11218l5.16901,-0.0723l0.54705,39.11218z" data-paper-data="{&quot;origPos&quot;:null,&quot;origRot&quot;:0}" fill="#d3bb76"/><path d="M122.05259,539.4648l-0.38076,-27.22345l5.16901,-0.0723l0.38077,27.22346z" data-paper-data="{&quot;origPos&quot;:null,&quot;origRot&quot;:0}" fill="#d3bb76"/><path d="M122.22561,539.51406l-0.07712,-5.51362l14.81784,-0.20725l0.07712,5.51362z" data-paper-data="{&quot;origPos&quot;:null,&quot;origRot&quot;:0}" fill="#d3bb76"/><path d="M112.19971,549.64968l-0.06989,-4.99671l33.94316,-0.47476l0.06989,4.99671z" data-paper-data="{&quot;origPos&quot;:null,&quot;origRot&quot;:0}" fill="#d3bb76"/><path d="M141.83462,549.18346l-0.69166,-49.45019l5.169,-0.0723l0.69164,49.45019z" data-paper-data="{&quot;origPos&quot;:null,&quot;origRot&quot;:0}" fill="#d3bb76"/><path d="M111.90223,610.52459l-0.5611,-40.1164l36.7574,-0.51411l0.56109,40.1164z" data-paper-data="{&quot;origPos&quot;:null,&quot;origRot&quot;:0}" fill="#b9a568"/><path d="M106.1039,606.67297l-0.52052,-37.21536l47.95692,-0.67077l0.52051,37.21537z" data-paper-data="{&quot;origPos&quot;:null,&quot;origRot&quot;:0}" fill="#e7cd81"/><path d="M112.0492,600.49604l-0.36148,-25.84506l5.16901,-0.0723l0.36149,25.84505z" data-paper-data="{&quot;origPos&quot;:null,&quot;origRot&quot;:0}" fill="#d3bb76"/><path d="M142.19771,599.78707l-0.36149,-25.84506l5.169,-0.07229l0.36149,25.84505z" data-paper-data="{&quot;origPos&quot;:null,&quot;origRot&quot;:0}" fill="#d3bb76"/><path d="M121.23454,600.0803l-0.36149,-25.84505l5.16901,-0.0723l0.36148,25.84505z" data-paper-data="{&quot;origPos&quot;:null,&quot;origRot&quot;:0}" fill="#d3bb76"/><path d="M133.29555,599.91162l-0.36148,-25.84506l5.169,-0.0723l0.36148,25.84505z" data-paper-data="{&quot;origPos&quot;:null,&quot;origRot&quot;:0}" fill="#d3bb76"/><path d="M123.20393,580.02374l-0.08032,-5.74333l12.92252,-0.18076l0.08033,5.74335z" data-paper-data="{&quot;origPos&quot;:null,&quot;origRot&quot;:0}" fill="#d3bb76"/></g><g data-paper-data="{&quot;origPos&quot;:null}" stroke="none"><path d="M345.95501,618.51366l-1.4362,-187.13916l37.26013,3.52423l1.15562,182.87686z" data-paper-data="{&quot;origPos&quot;:null,&quot;origRot&quot;:0}" fill="#d3bb76"/><path d="M344.31725,485.33014l-0.5611,-40.11639l36.75739,-0.51412l0.56109,40.1164z" data-paper-data="{&quot;origPos&quot;:null,&quot;origRot&quot;:0}" fill="#b9a568"/><path d="M338.5189,481.4786l-0.52051,-37.21537l47.95692,-0.67076l0.52052,37.21536z" data-paper-data="{&quot;origPos&quot;:null,&quot;origRot&quot;:0}" fill="#e7cd81"/><path d="M344.46417,475.30166l-0.36148,-25.84504l5.16901,-0.0723l0.36149,25.84505z" data-paper-data="{&quot;origPos&quot;:null,&quot;origRot&quot;:0}" fill="#d3bb76"/><path d="M374.61274,474.59277l-0.36148,-25.84506l5.169,-0.0723l0.36148,25.84505z" data-paper-data="{&quot;origPos&quot;:null,&quot;origRot&quot;:0}" fill="#d3bb76"/><path d="M353.64957,474.88596l-0.36148,-25.84505l5.169,-0.0723l0.36148,25.84506z" data-paper-data="{&quot;origPos&quot;:null,&quot;origRot&quot;:0}" fill="#d3bb76"/><path d="M365.71057,474.71723l-0.36148,-25.84505l5.169,-0.0723l0.36148,25.84505z" data-paper-data="{&quot;origPos&quot;:null,&quot;origRot&quot;:0}" fill="#d3bb76"/><path d="M355.03455,474.65599l-0.08032,-5.74333l12.92253,-0.18075l0.08033,5.74334z" data-paper-data="{&quot;origPos&quot;:null,&quot;origRot&quot;:0}" fill="#d3bb76"/><path d="M355.61894,454.82933l-0.08033,-5.74334l12.92253,-0.18075l0.08032,5.74335z" data-paper-data="{&quot;origPos&quot;:null,&quot;origRot&quot;:0}" fill="#d3bb76"/><path d="M344.8031,561.34363l-0.9017,-64.46904l37.33173,-0.52215l0.9017,64.46904z" data-paper-data="{&quot;origPos&quot;:null,&quot;origRot&quot;:0}" fill="#b9a568"/><path d="M339.00296,557.36047l-0.90673,-64.828l47.95692,-0.67077l0.90673,64.828z" data-paper-data="{&quot;origPos&quot;:null,&quot;origRot&quot;:0}" fill="#e7cd81"/><path d="M346.18695,547.33647l-0.66273,-47.38257l5.169,-0.07229l0.66273,47.38258z" data-paper-data="{&quot;origPos&quot;:null,&quot;origRot&quot;:0}" fill="#b9a568"/><path d="M346.1677,545.95809l-0.66273,-47.38257l5.169,-0.0723l0.66272,47.38258z" data-paper-data="{&quot;origPos&quot;:null,&quot;origRot&quot;:0}" fill="#d3bb76"/><path d="M345.74789,503.62148l-0.0699,-4.9967l24.98354,-0.34944l0.06989,4.99671z" data-paper-data="{&quot;origPos&quot;:null,&quot;origRot&quot;:0}" fill="#d3bb76"/><path d="M366.04365,537.75267l-0.54705,-39.11218l5.16901,-0.0723l0.54705,39.11218z" data-paper-data="{&quot;origPos&quot;:null,&quot;origRot&quot;:0}" fill="#d3bb76"/><path d="M356.05265,538.06481l-0.38076,-27.22345l5.16901,-0.0723l0.38077,27.22346z" data-paper-data="{&quot;origPos&quot;:null,&quot;origRot&quot;:0}" fill="#d3bb76"/><path d="M356.22561,538.11407l-0.07712,-5.51362l14.81784,-0.20725l0.07712,5.51362z" data-paper-data="{&quot;origPos&quot;:null,&quot;origRot&quot;:0}" fill="#d3bb76"/><path d="M346.19973,548.2497l-0.06989,-4.99671l33.94316,-0.47476l0.06989,4.99671z" data-paper-data="{&quot;origPos&quot;:null,&quot;origRot&quot;:0}" fill="#d3bb76"/><path d="M375.83462,547.78347l-0.69166,-49.45019l5.169,-0.0723l0.69164,49.45019z" data-paper-data="{&quot;origPos&quot;:null,&quot;origRot&quot;:0}" fill="#d3bb76"/><path d="M345.90227,609.12461l-0.5611,-40.1164l36.7574,-0.51411l0.56109,40.1164z" data-paper-data="{&quot;origPos&quot;:null,&quot;origRot&quot;:0}" fill="#b9a568"/><path d="M340.10391,605.27298l-0.52052,-37.21536l47.95692,-0.67077l0.52051,37.21537z" data-paper-data="{&quot;origPos&quot;:null,&quot;origRot&quot;:0}" fill="#e7cd81"/><path d="M346.04923,599.09606l-0.36148,-25.84506l5.16901,-0.0723l0.36149,25.84505z" data-paper-data="{&quot;origPos&quot;:null,&quot;origRot&quot;:0}" fill="#d3bb76"/><path d="M376.19778,598.38708l-0.36149,-25.84506l5.169,-0.07229l0.36149,25.84505z" data-paper-data="{&quot;origPos&quot;:null,&quot;origRot&quot;:0}" fill="#d3bb76"/><path d="M355.23457,598.68031l-0.36149,-25.84505l5.16901,-0.0723l0.36148,25.84505z" data-paper-data="{&quot;origPos&quot;:null,&quot;origRot&quot;:0}" fill="#d3bb76"/><path d="M367.29554,598.51163l-0.36148,-25.84506l5.169,-0.0723l0.36148,25.84505z" data-paper-data="{&quot;origPos&quot;:null,&quot;origRot&quot;:0}" fill="#d3bb76"/><path d="M357.20396,578.62375l-0.08032,-5.74333l12.92252,-0.18076l0.08033,5.74335z" data-paper-data="{&quot;origPos&quot;:null,&quot;origRot&quot;:0}" fill="#d3bb76"/></g><path d="M157.79146,648.13465v-215h175v215z" data-paper-data="{&quot;origPos&quot;:null}" fill="#a1937c" stroke="none"/><path d="M133.97097,193.40515c0,0 -2.07429,-11.19051 -1.67116,-17.3616c0.66255,-10.14259 2.3478,-14.28587 2.3478,-24.44105c0,-7.19999 -3.35907,-16.17407 -6.06446,-23.2512c-3.61225,-9.44938 -0.02529,-22.7251 -0.02529,-22.7251h226.24228c0,0 0,14.86099 0,23.94875c0,24.78129 0,62.83647 0,62.83647z" data-paper-data="{&quot;origPos&quot;:null}" fill="#a1937c" stroke="#000000"/><path d="M125.55792,112.3714v-17.55579h230.24228v17.55579z" data-paper-data="{&quot;origPos&quot;:null}" fill="#706756" stroke="#000000"/><path d="M124.7915,108.72429v-16.55579c0,0 40.84462,0 66.98726,0c66.11233,0 169.40461,0 169.40461,0v16.55579z" data-paper-data="{&quot;origPos&quot;:null}" fill="#8b7f6b" stroke="#000000"/><path d="M106.95497,266.51367l-1.4362,-187.13916l37.26013,3.52423l1.15562,182.87686z" data-paper-data="{&quot;origPos&quot;:null,&quot;origRot&quot;:0}" fill="#d3bb76" stroke="none"/><path d="M105.31721,133.33013l-0.5611,-40.11639l36.75739,-0.51412l0.56109,40.1164z" data-paper-data="{&quot;origPos&quot;:null,&quot;origRot&quot;:0}" fill="#b9a568" stroke="none"/><path d="M99.5189,129.47862l-0.52051,-37.21537l47.95692,-0.67076l0.52052,37.21536z" data-paper-data="{&quot;origPos&quot;:null,&quot;origRot&quot;:0}" fill="#e7cd81" stroke="none"/><path d="M105.46417,123.30168l-0.36148,-25.84504l5.16901,-0.0723l0.36149,25.84505z" data-paper-data="{&quot;origPos&quot;:null,&quot;origRot&quot;:0}" fill="#d3bb76" stroke="none"/><path d="M135.61272,122.59278l-0.36148,-25.84506l5.169,-0.0723l0.36148,25.84505z" data-paper-data="{&quot;origPos&quot;:null,&quot;origRot&quot;:0}" fill="#d3bb76" stroke="none"/><path d="M114.64952,122.88594l-0.36148,-25.84505l5.169,-0.0723l0.36148,25.84506z" data-paper-data="{&quot;origPos&quot;:null,&quot;origRot&quot;:0}" fill="#d3bb76" stroke="none"/><path d="M126.71054,122.71725l-0.36148,-25.84505l5.169,-0.0723l0.36148,25.84505z" data-paper-data="{&quot;origPos&quot;:null,&quot;origRot&quot;:0}" fill="#d3bb76" stroke="none"/><path d="M116.03455,122.65599l-0.08032,-5.74333l12.92253,-0.18075l0.08033,5.74334z" data-paper-data="{&quot;origPos&quot;:null,&quot;origRot&quot;:0}" fill="#d3bb76" stroke="none"/><path d="M116.61889,102.82935l-0.08033,-5.74334l12.92253,-0.18075l0.08032,5.74335z" data-paper-data="{&quot;origPos&quot;:null,&quot;origRot&quot;:0}" fill="#d3bb76" stroke="none"/><path d="M105.8031,209.34353l-0.9017,-64.46904l37.33173,-0.52215l0.9017,64.46904z" data-paper-data="{&quot;origPos&quot;:null,&quot;origRot&quot;:0}" fill="#b9a568" stroke="none"/><path d="M100.00296,205.36046l-0.90673,-64.828l47.95692,-0.67077l0.90673,64.828z" data-paper-data="{&quot;origPos&quot;:null,&quot;origRot&quot;:0}" fill="#e7cd81" stroke="none"/><path d="M107.18695,195.33645l-0.66273,-47.38257l5.169,-0.07229l0.66273,47.38258z" data-paper-data="{&quot;origPos&quot;:null,&quot;origRot&quot;:0}" fill="#b9a568" stroke="none"/><path d="M107.16766,193.95806l-0.66273,-47.38257l5.169,-0.0723l0.66272,47.38258z" data-paper-data="{&quot;origPos&quot;:null,&quot;origRot&quot;:0}" fill="#d3bb76" stroke="none"/><path d="M106.74783,151.62142l-0.0699,-4.9967l24.98354,-0.34944l0.06989,4.99671z" data-paper-data="{&quot;origPos&quot;:null,&quot;origRot&quot;:0}" fill="#d3bb76" stroke="none"/><path d="M127.04363,185.75269l-0.54705,-39.11218l5.16901,-0.0723l0.54705,39.11218z" data-paper-data="{&quot;origPos&quot;:null,&quot;origRot&quot;:0}" fill="#d3bb76" stroke="none"/><path d="M117.0526,186.06479l-0.38076,-27.22345l5.16901,-0.0723l0.38077,27.22346z" data-paper-data="{&quot;origPos&quot;:null,&quot;origRot&quot;:0}" fill="#d3bb76" stroke="none"/><path d="M117.22561,186.11404l-0.07712,-5.51362l14.81784,-0.20725l0.07712,5.51362z" data-paper-data="{&quot;origPos&quot;:null,&quot;origRot&quot;:0}" fill="#d3bb76" stroke="none"/><path d="M107.19968,196.24968l-0.06989,-4.99671l33.94316,-0.47476l0.06989,4.99671z" data-paper-data="{&quot;origPos&quot;:null,&quot;origRot&quot;:0}" fill="#d3bb76" stroke="none"/><path d="M136.83462,195.78345l-0.69166,-49.45019l5.169,-0.0723l0.69164,49.45019z" data-paper-data="{&quot;origPos&quot;:null,&quot;origRot&quot;:0}" fill="#d3bb76" stroke="none"/><path d="M106.90223,257.1246l-0.5611,-40.1164l36.7574,-0.51411l0.56109,40.1164z" data-paper-data="{&quot;origPos&quot;:null,&quot;origRot&quot;:0}" fill="#b9a568" stroke="none"/><path d="M101.1039,253.27297l-0.52052,-37.21536l47.95692,-0.67077l0.52051,37.21537z" data-paper-data="{&quot;origPos&quot;:null,&quot;origRot&quot;:0}" fill="#e7cd81" stroke="none"/><path d="M107.0492,247.09602l-0.36148,-25.84506l5.16901,-0.0723l0.36149,25.84505z" data-paper-data="{&quot;origPos&quot;:null,&quot;origRot&quot;:0}" fill="#d3bb76" stroke="none"/><path d="M137.19771,246.38711l-0.36149,-25.84506l5.169,-0.07229l0.36149,25.84505z" data-paper-data="{&quot;origPos&quot;:null,&quot;origRot&quot;:0}" fill="#d3bb76" stroke="none"/><path d="M116.23454,246.6803l-0.36149,-25.84505l5.16901,-0.0723l0.36148,25.84505z" data-paper-data="{&quot;origPos&quot;:null,&quot;origRot&quot;:0}" fill="#d3bb76" stroke="none"/><path d="M128.29555,246.51165l-0.36148,-25.84506l5.169,-0.0723l0.36148,25.84505z" data-paper-data="{&quot;origPos&quot;:null,&quot;origRot&quot;:0}" fill="#d3bb76" stroke="none"/><path d="M118.20393,226.62372l-0.08032,-5.74333l12.92252,-0.18076l0.08033,5.74335z" data-paper-data="{&quot;origPos&quot;:null,&quot;origRot&quot;:0}" fill="#d3bb76" stroke="none"/><g data-paper-data="{&quot;origPos&quot;:null}" stroke="none"><path d="M341.95501,262.51367l-1.4362,-187.13916l37.26013,3.52423l1.15562,182.87686z" data-paper-data="{&quot;origPos&quot;:null,&quot;origRot&quot;:0}" fill="#d3bb76"/><path d="M340.31725,129.33015l-0.5611,-40.11639l36.75739,-0.51412l0.56109,40.1164z" data-paper-data="{&quot;origPos&quot;:null,&quot;origRot&quot;:0}" fill="#b9a568"/><path d="M334.51887,125.47862l-0.52051,-37.21537l47.95692,-0.67076l0.52052,37.21536z" data-paper-data="{&quot;origPos&quot;:null,&quot;origRot&quot;:0}" fill="#e7cd81"/><path d="M340.46417,119.30169l-0.36148,-25.84504l5.16901,-0.0723l0.36149,25.84505z" data-paper-data="{&quot;origPos&quot;:null,&quot;origRot&quot;:0}" fill="#d3bb76"/><path d="M370.61274,118.59278l-0.36148,-25.84506l5.169,-0.0723l0.36148,25.84505z" data-paper-data="{&quot;origPos&quot;:null,&quot;origRot&quot;:0}" fill="#d3bb76"/><path d="M349.64957,118.88595l-0.36148,-25.84505l5.169,-0.0723l0.36148,25.84506z" data-paper-data="{&quot;origPos&quot;:null,&quot;origRot&quot;:0}" fill="#d3bb76"/><path d="M361.71052,118.71725l-0.36148,-25.84505l5.169,-0.0723l0.36148,25.84505z" data-paper-data="{&quot;origPos&quot;:null,&quot;origRot&quot;:0}" fill="#d3bb76"/><path d="M351.03455,118.656l-0.08032,-5.74333l12.92253,-0.18075l0.08033,5.74334z" data-paper-data="{&quot;origPos&quot;:null,&quot;origRot&quot;:0}" fill="#d3bb76"/><path d="M351.61895,98.82936l-0.08033,-5.74334l12.92253,-0.18075l0.08032,5.74335z" data-paper-data="{&quot;origPos&quot;:null,&quot;origRot&quot;:0}" fill="#d3bb76"/><path d="M340.8031,205.34358l-0.9017,-64.46904l37.33173,-0.52215l0.9017,64.46904z" data-paper-data="{&quot;origPos&quot;:null,&quot;origRot&quot;:0}" fill="#b9a568"/><path d="M335.00293,201.36049l-0.90673,-64.828l47.95692,-0.67077l0.90673,64.828z" data-paper-data="{&quot;origPos&quot;:null,&quot;origRot&quot;:0}" fill="#e7cd81"/><path d="M342.18695,191.33645l-0.66273,-47.38257l5.169,-0.07229l0.66273,47.38258z" data-paper-data="{&quot;origPos&quot;:null,&quot;origRot&quot;:0}" fill="#b9a568"/><path d="M342.1677,189.95806l-0.66273,-47.38257l5.169,-0.0723l0.66272,47.38258z" data-paper-data="{&quot;origPos&quot;:null,&quot;origRot&quot;:0}" fill="#d3bb76"/><path d="M341.74789,147.62142l-0.0699,-4.9967l24.98354,-0.34944l0.06989,4.99671z" data-paper-data="{&quot;origPos&quot;:null,&quot;origRot&quot;:0}" fill="#d3bb76"/><path d="M362.04365,181.75269l-0.54705,-39.11218l5.16901,-0.0723l0.54705,39.11218z" data-paper-data="{&quot;origPos&quot;:null,&quot;origRot&quot;:0}" fill="#d3bb76"/><path d="M352.05265,182.06479l-0.38076,-27.22345l5.16901,-0.0723l0.38077,27.22346z" data-paper-data="{&quot;origPos&quot;:null,&quot;origRot&quot;:0}" fill="#d3bb76"/><path d="M352.22563,182.11404l-0.07712,-5.51362l14.81784,-0.20725l0.07712,5.51362z" data-paper-data="{&quot;origPos&quot;:null,&quot;origRot&quot;:0}" fill="#d3bb76"/><path d="M342.19973,192.24968l-0.06989,-4.99671l33.94316,-0.47476l0.06989,4.99671z" data-paper-data="{&quot;origPos&quot;:null,&quot;origRot&quot;:0}" fill="#d3bb76"/><path d="M371.83462,191.78345l-0.69166,-49.45019l5.169,-0.0723l0.69164,49.45019z" data-paper-data="{&quot;origPos&quot;:null,&quot;origRot&quot;:0}" fill="#d3bb76"/><path d="M341.90227,253.1246l-0.5611,-40.1164l36.7574,-0.51411l0.56109,40.1164z" data-paper-data="{&quot;origPos&quot;:null,&quot;origRot&quot;:0}" fill="#b9a568"/><path d="M336.10391,249.27293l-0.52052,-37.21536l47.95692,-0.67077l0.52051,37.21537z" data-paper-data="{&quot;origPos&quot;:null,&quot;origRot&quot;:0}" fill="#e7cd81"/><path d="M342.04923,243.09602l-0.36148,-25.84506l5.16901,-0.0723l0.36149,25.84505z" data-paper-data="{&quot;origPos&quot;:null,&quot;origRot&quot;:0}" fill="#d3bb76"/><path d="M372.19778,242.38711l-0.36149,-25.84506l5.169,-0.07229l0.36149,25.84505z" data-paper-data="{&quot;origPos&quot;:null,&quot;origRot&quot;:0}" fill="#d3bb76"/><path d="M351.23452,242.6803l-0.36149,-25.84505l5.16901,-0.0723l0.36148,25.84505z" data-paper-data="{&quot;origPos&quot;:null,&quot;origRot&quot;:0}" fill="#d3bb76"/><path d="M363.29554,242.51165l-0.36148,-25.84506l5.169,-0.0723l0.36148,25.84505z" data-paper-data="{&quot;origPos&quot;:null,&quot;origRot&quot;:0}" fill="#d3bb76"/><path d="M353.20398,222.62372l-0.08032,-5.74333l12.92252,-0.18076l0.08033,5.74335z" data-paper-data="{&quot;origPos&quot;:null,&quot;origRot&quot;:0}" fill="#d3bb76"/></g><g data-paper-data="{&quot;origPos&quot;:null}" stroke="none"><path d="M107.95497,441.91363l-1.4362,-187.13916l37.26013,3.52423l1.15562,182.87686z" data-paper-data="{&quot;origPos&quot;:null,&quot;origRot&quot;:0}" fill="#d3bb76"/><path d="M106.3172,308.73017l-0.5611,-40.11639l36.75739,-0.51412l0.56109,40.1164z" data-paper-data="{&quot;origPos&quot;:null,&quot;origRot&quot;:0}" fill="#b9a568"/><path d="M100.5189,304.87861l-0.52051,-37.21537l47.95692,-0.67076l0.52052,37.21536z" data-paper-data="{&quot;origPos&quot;:null,&quot;origRot&quot;:0}" fill="#e7cd81"/><path d="M106.46417,298.70164l-0.36148,-25.84504l5.16901,-0.0723l0.36149,25.84505z" data-paper-data="{&quot;origPos&quot;:null,&quot;origRot&quot;:0}" fill="#d3bb76"/><path d="M136.61272,297.99276l-0.36148,-25.84506l5.169,-0.0723l0.36148,25.84505z" data-paper-data="{&quot;origPos&quot;:null,&quot;origRot&quot;:0}" fill="#d3bb76"/><path d="M115.64952,298.28594l-0.36148,-25.84505l5.169,-0.0723l0.36148,25.84506z" data-paper-data="{&quot;origPos&quot;:null,&quot;origRot&quot;:0}" fill="#d3bb76"/><path d="M127.71051,298.11726l-0.36148,-25.84505l5.169,-0.0723l0.36148,25.84505z" data-paper-data="{&quot;origPos&quot;:null,&quot;origRot&quot;:0}" fill="#d3bb76"/><path d="M117.03455,298.05593l-0.08032,-5.74333l12.92253,-0.18075l0.08033,5.74334z" data-paper-data="{&quot;origPos&quot;:null,&quot;origRot&quot;:0}" fill="#d3bb76"/><path d="M117.61889,278.22929l-0.08033,-5.74334l12.92253,-0.18075l0.08032,5.74335z" data-paper-data="{&quot;origPos&quot;:null,&quot;origRot&quot;:0}" fill="#d3bb76"/><path d="M106.8031,384.74364l-0.9017,-64.46904l37.33173,-0.52215l0.9017,64.46904z" data-paper-data="{&quot;origPos&quot;:null,&quot;origRot&quot;:0}" fill="#b9a568"/><path d="M101.00296,380.76048l-0.90673,-64.828l47.95692,-0.67077l0.90673,64.828z" data-paper-data="{&quot;origPos&quot;:null,&quot;origRot&quot;:0}" fill="#e7cd81"/><path d="M108.18695,370.73648l-0.66273,-47.38257l5.169,-0.07229l0.66273,47.38258z" data-paper-data="{&quot;origPos&quot;:null,&quot;origRot&quot;:0}" fill="#b9a568"/><path d="M108.16766,369.35808l-0.66273,-47.38257l5.169,-0.0723l0.66272,47.38258z" data-paper-data="{&quot;origPos&quot;:null,&quot;origRot&quot;:0}" fill="#d3bb76"/><path d="M107.74783,327.02146l-0.0699,-4.9967l24.98354,-0.34944l0.06989,4.99671z" data-paper-data="{&quot;origPos&quot;:null,&quot;origRot&quot;:0}" fill="#d3bb76"/><path d="M128.0436,361.15271l-0.54705,-39.11218l5.16901,-0.0723l0.54705,39.11218z" data-paper-data="{&quot;origPos&quot;:null,&quot;origRot&quot;:0}" fill="#d3bb76"/><path d="M118.0526,361.46482l-0.38076,-27.22345l5.16901,-0.0723l0.38077,27.22346z" data-paper-data="{&quot;origPos&quot;:null,&quot;origRot&quot;:0}" fill="#d3bb76"/><path d="M118.22561,361.51406l-0.07712,-5.51362l14.81784,-0.20725l0.07712,5.51362z" data-paper-data="{&quot;origPos&quot;:null,&quot;origRot&quot;:0}" fill="#d3bb76"/><path d="M108.19971,371.6497l-0.06989,-4.99671l33.94316,-0.47476l0.06989,4.99671z" data-paper-data="{&quot;origPos&quot;:null,&quot;origRot&quot;:0}" fill="#d3bb76"/><path d="M137.83462,371.18348l-0.69166,-49.45019l5.169,-0.0723l0.69164,49.45019z" data-paper-data="{&quot;origPos&quot;:null,&quot;origRot&quot;:0}" fill="#d3bb76"/><path d="M107.90223,432.5246l-0.5611,-40.1164l36.7574,-0.51411l0.56109,40.1164z" data-paper-data="{&quot;origPos&quot;:null,&quot;origRot&quot;:0}" fill="#b9a568"/><path d="M102.1039,428.67299l-0.52052,-37.21536l47.95692,-0.67077l0.52051,37.21537z" data-paper-data="{&quot;origPos&quot;:null,&quot;origRot&quot;:0}" fill="#e7cd81"/><path d="M108.0492,422.49605l-0.36148,-25.84506l5.16901,-0.0723l0.36149,25.84505z" data-paper-data="{&quot;origPos&quot;:null,&quot;origRot&quot;:0}" fill="#d3bb76"/><path d="M138.19771,421.78709l-0.36149,-25.84506l5.169,-0.07229l0.36149,25.84505z" data-paper-data="{&quot;origPos&quot;:null,&quot;origRot&quot;:0}" fill="#d3bb76"/><path d="M117.23454,422.08032l-0.36149,-25.84505l5.16901,-0.0723l0.36148,25.84505z" data-paper-data="{&quot;origPos&quot;:null,&quot;origRot&quot;:0}" fill="#d3bb76"/><path d="M129.29555,421.91164l-0.36148,-25.84506l5.169,-0.0723l0.36148,25.84505z" data-paper-data="{&quot;origPos&quot;:null,&quot;origRot&quot;:0}" fill="#d3bb76"/><path d="M119.20393,402.02374l-0.08032,-5.74333l12.92252,-0.18076l0.08033,5.74335z" data-paper-data="{&quot;origPos&quot;:null,&quot;origRot&quot;:0}" fill="#d3bb76"/></g><g data-paper-data="{&quot;origPos&quot;:null}" stroke="none"><path d="M341.95501,440.51368l-1.4362,-187.13916l37.26013,3.52423l1.15562,182.87686z" data-paper-data="{&quot;origPos&quot;:null,&quot;origRot&quot;:0}" fill="#d3bb76"/><path d="M340.31725,307.33011l-0.5611,-40.11639l36.75739,-0.51412l0.56109,40.1164z" data-paper-data="{&quot;origPos&quot;:null,&quot;origRot&quot;:0}" fill="#b9a568"/><path d="M334.51887,303.47857l-0.52051,-37.21537l47.95692,-0.67076l0.52052,37.21536z" data-paper-data="{&quot;origPos&quot;:null,&quot;origRot&quot;:0}" fill="#e7cd81"/><path d="M340.46417,297.30165l-0.36148,-25.84504l5.16901,-0.0723l0.36149,25.84505z" data-paper-data="{&quot;origPos&quot;:null,&quot;origRot&quot;:0}" fill="#d3bb76"/><path d="M370.61274,296.59276l-0.36148,-25.84506l5.169,-0.0723l0.36148,25.84505z" data-paper-data="{&quot;origPos&quot;:null,&quot;origRot&quot;:0}" fill="#d3bb76"/><path d="M349.64957,296.88595l-0.36148,-25.84505l5.169,-0.0723l0.36148,25.84506z" data-paper-data="{&quot;origPos&quot;:null,&quot;origRot&quot;:0}" fill="#d3bb76"/><path d="M361.71052,296.71722l-0.36148,-25.84505l5.169,-0.0723l0.36148,25.84505z" data-paper-data="{&quot;origPos&quot;:null,&quot;origRot&quot;:0}" fill="#d3bb76"/><path d="M351.03455,296.65598l-0.08032,-5.74333l12.92253,-0.18075l0.08033,5.74334z" data-paper-data="{&quot;origPos&quot;:null,&quot;origRot&quot;:0}" fill="#d3bb76"/><path d="M351.61895,276.8293l-0.08033,-5.74334l12.92253,-0.18075l0.08032,5.74335z" data-paper-data="{&quot;origPos&quot;:null,&quot;origRot&quot;:0}" fill="#d3bb76"/><path d="M340.8031,383.34365l-0.9017,-64.46904l37.33173,-0.52215l0.9017,64.46904z" data-paper-data="{&quot;origPos&quot;:null,&quot;origRot&quot;:0}" fill="#b9a568"/><path d="M335.00293,379.3605l-0.90673,-64.828l47.95692,-0.67077l0.90673,64.828z" data-paper-data="{&quot;origPos&quot;:null,&quot;origRot&quot;:0}" fill="#e7cd81"/><path d="M342.18695,369.33649l-0.66273,-47.38257l5.169,-0.07229l0.66273,47.38258z" data-paper-data="{&quot;origPos&quot;:null,&quot;origRot&quot;:0}" fill="#b9a568"/><path d="M342.1677,367.95811l-0.66273,-47.38257l5.169,-0.0723l0.66272,47.38258z" data-paper-data="{&quot;origPos&quot;:null,&quot;origRot&quot;:0}" fill="#d3bb76"/><path d="M341.74789,325.62147l-0.0699,-4.9967l24.98354,-0.34944l0.06989,4.99671z" data-paper-data="{&quot;origPos&quot;:null,&quot;origRot&quot;:0}" fill="#d3bb76"/><path d="M362.04365,359.75269l-0.54705,-39.11218l5.16901,-0.0723l0.54705,39.11218z" data-paper-data="{&quot;origPos&quot;:null,&quot;origRot&quot;:0}" fill="#d3bb76"/><path d="M352.05265,360.06483l-0.38076,-27.22345l5.16901,-0.0723l0.38077,27.22346z" data-paper-data="{&quot;origPos&quot;:null,&quot;origRot&quot;:0}" fill="#d3bb76"/><path d="M352.22563,360.11409l-0.07712,-5.51362l14.81784,-0.20725l0.07712,5.51362z" data-paper-data="{&quot;origPos&quot;:null,&quot;origRot&quot;:0}" fill="#d3bb76"/><path d="M342.19973,370.24971l-0.06989,-4.99671l33.94316,-0.47476l0.06989,4.99671z" data-paper-data="{&quot;origPos&quot;:null,&quot;origRot&quot;:0}" fill="#d3bb76"/><path d="M371.83462,369.78349l-0.69166,-49.45019l5.169,-0.0723l0.69164,49.45019z" data-paper-data="{&quot;origPos&quot;:null,&quot;origRot&quot;:0}" fill="#d3bb76"/><path d="M341.90227,431.12463l-0.5611,-40.1164l36.7574,-0.51411l0.56109,40.1164z" data-paper-data="{&quot;origPos&quot;:null,&quot;origRot&quot;:0}" fill="#b9a568"/><path d="M336.10391,427.273l-0.52052,-37.21536l47.95692,-0.67077l0.52051,37.21537z" data-paper-data="{&quot;origPos&quot;:null,&quot;origRot&quot;:0}" fill="#e7cd81"/><path d="M342.04923,421.09607l-0.36148,-25.84506l5.16901,-0.0723l0.36149,25.84505z" data-paper-data="{&quot;origPos&quot;:null,&quot;origRot&quot;:0}" fill="#d3bb76"/><path d="M372.19778,420.38712l-0.36149,-25.84506l5.169,-0.07229l0.36149,25.84505z" data-paper-data="{&quot;origPos&quot;:null,&quot;origRot&quot;:0}" fill="#d3bb76"/><path d="M351.23452,420.68035l-0.36149,-25.84505l5.16901,-0.0723l0.36148,25.84505z" data-paper-data="{&quot;origPos&quot;:null,&quot;origRot&quot;:0}" fill="#d3bb76"/><path d="M363.29554,420.51167l-0.36148,-25.84506l5.169,-0.0723l0.36148,25.84505z" data-paper-data="{&quot;origPos&quot;:null,&quot;origRot&quot;:0}" fill="#d3bb76"/><path d="M353.20398,400.62375l-0.08032,-5.74333l12.92252,-0.18076l0.08033,5.74335z" data-paper-data="{&quot;origPos&quot;:null,&quot;origRot&quot;:0}" fill="#d3bb76"/></g><path d="M226.8805,529.64595l-8.97232,-46.53004l5.076,-0.97879l8.97233,46.53005z" data-paper-data="{&quot;origPos&quot;:null,&quot;origRot&quot;:0}" fill="#b9a568" stroke="none"/><path d="M226.61949,528.29234l-8.97232,-46.53003l5.076,-0.9788l8.97231,46.53005z" data-paper-data="{&quot;origPos&quot;:null,&quot;origRot&quot;:0}" fill="#d3bb76" stroke="none"/><path d="M218.77234,486.68724l-0.94619,-4.90679l24.53403,-4.73086l0.94617,4.90681z" data-paper-data="{&quot;origPos&quot;:null,&quot;origRot&quot;:0}" fill="#d3bb76" stroke="none"/><path d="M244.74586,516.72444l-7.40625,-38.40846l5.07601,-0.9788l7.40624,38.40846z" data-paper-data="{&quot;origPos&quot;:null,&quot;origRot&quot;:0}" fill="#d3bb76" stroke="none"/><path d="M234.96486,518.78604l-5.155,-26.73363l5.076,-0.97881l5.15502,26.73365z" data-paper-data="{&quot;origPos&quot;:null,&quot;origRot&quot;:0}" fill="#d3bb76" stroke="none"/><path d="M235.14383,518.80414l-1.04406,-5.41442l14.55123,-2.80589l1.04406,5.41442z" data-paper-data="{&quot;origPos&quot;:null,&quot;origRot&quot;:0}" fill="#d3bb76" stroke="none"/><g data-paper-data="{&quot;origPos&quot;:null,&quot;index&quot;:null,&quot;origRot&quot;:0}" stroke="none"><path d="M424.54558,513.62956l-3.2849,-182.85101l37.16358,-4.42785l3.10789,187.11886z" data-paper-data="{&quot;origPos&quot;:null,&quot;origRot&quot;:0}" fill="#d3bb76"/><path d="M423.17676,380.66405l-0.41309,-40.1182l36.75904,-0.37849l0.41308,40.11819z" data-paper-data="{&quot;origPos&quot;:null,&quot;origRot&quot;:0}" fill="#b9a568"/><path d="M417.67986,376.78815l-0.38321,-37.21703l47.95907,-0.49381l0.38322,37.21704z" data-paper-data="{&quot;origPos&quot;:null,&quot;origRot&quot;:0}" fill="#e7cd81"/><path d="M454.37619,370.31684l-0.26612,-25.84621l5.16924,-0.05322l0.26613,25.8462z" data-paper-data="{&quot;origPos&quot;:null,&quot;origRot&quot;:0}" fill="#d3bb76"/><path d="M424.21927,370.34011l-0.26613,-25.84621l5.16923,-0.05322l0.26613,25.84622z" data-paper-data="{&quot;origPos&quot;:null,&quot;origRot&quot;:0}" fill="#d3bb76"/><path d="M445.18342,370.12424l-0.26613,-25.84622l5.16923,-0.05322l0.26613,25.84621z" data-paper-data="{&quot;origPos&quot;:null,&quot;origRot&quot;:0}" fill="#d3bb76"/><path d="M433.12186,370.24839l-0.26613,-25.84621l5.16923,-0.05322l0.26613,25.84621z" data-paper-data="{&quot;origPos&quot;:null,&quot;origRot&quot;:0}" fill="#d3bb76"/><path d="M436.03937,370.0078l-0.05914,-5.7436l12.92311,-0.13306l0.05915,5.74359z" data-paper-data="{&quot;origPos&quot;:null,&quot;origRot&quot;:0}" fill="#d3bb76"/><path d="M434.97377,350.2012l-0.05915,-5.74361l12.92311,-0.13306l0.05914,5.7436z" data-paper-data="{&quot;origPos&quot;:null,&quot;origRot&quot;:0}" fill="#d3bb76"/><path d="M423.96223,456.67276l-0.66385,-64.47193l37.3334,-0.3844l0.66385,64.47193z" data-paper-data="{&quot;origPos&quot;:null,&quot;origRot&quot;:0}" fill="#b9a568"/><path d="M419.03833,452.65942l-0.66754,-64.8309l47.95907,-0.4938l0.66754,64.8309z" data-paper-data="{&quot;origPos&quot;:null,&quot;origRot&quot;:0}" fill="#e7cd81"/><path d="M454.4029,442.37219l-0.4879,-47.3847l5.16923,-0.05323l0.4879,47.38469z" data-paper-data="{&quot;origPos&quot;:null,&quot;origRot&quot;:0}" fill="#b9a568"/><path d="M454.3887,440.99375l-0.48791,-47.3847l5.16923,-0.05322l0.4879,47.38469z" data-paper-data="{&quot;origPos&quot;:null,&quot;origRot&quot;:0}" fill="#d3bb76"/><path d="M433.96503,398.86345l-0.05145,-4.99693l24.98466,-0.25725l0.05144,4.99692z" data-paper-data="{&quot;origPos&quot;:null,&quot;origRot&quot;:0}" fill="#d3bb76"/><path d="M434.31933,433.27336l-0.40274,-39.11393l5.16924,-0.05322l0.40274,39.11393z" data-paper-data="{&quot;origPos&quot;:null,&quot;origRot&quot;:0}" fill="#d3bb76"/><path d="M444.31499,433.34277l-0.28032,-27.22468l5.16924,-0.05322l0.28033,27.22467z" data-paper-data="{&quot;origPos&quot;:null,&quot;origRot&quot;:0}" fill="#d3bb76"/><path d="M434.49399,433.49559l-0.05677,-5.51387l14.8185,-0.15258l0.05677,5.51387z" data-paper-data="{&quot;origPos&quot;:null,&quot;origRot&quot;:0}" fill="#d3bb76"/><path d="M425.63683,443.58173l-0.05145,-4.99693l33.94468,-0.34951l0.05145,4.99693z" data-paper-data="{&quot;origPos&quot;:null,&quot;origRot&quot;:0}" fill="#d3bb76"/><path d="M424.77482,443.53887l-0.50919,-49.45241l5.16923,-0.05322l0.50917,49.45241z" data-paper-data="{&quot;origPos&quot;:null,&quot;origRot&quot;:0}" fill="#d3bb76"/><path d="M424.59788,504.4605l-0.41309,-40.1182l36.75905,-0.3785l0.41308,40.1182z" data-paper-data="{&quot;origPos&quot;:null,&quot;origRot&quot;:0}" fill="#b9a568"/><path d="M419.10101,500.58448l-0.38322,-37.21704l47.95907,-0.4938l0.38321,37.21703z" data-paper-data="{&quot;origPos&quot;:null,&quot;origRot&quot;:0}" fill="#e7cd81"/><path d="M455.79726,494.11313l-0.26612,-25.84621l5.16924,-0.05322l0.26613,25.84622z" data-paper-data="{&quot;origPos&quot;:null,&quot;origRot&quot;:0}" fill="#d3bb76"/><path d="M425.64041,494.13643l-0.26612,-25.84621l5.16923,-0.05323l0.26612,25.84622z" data-paper-data="{&quot;origPos&quot;:null,&quot;origRot&quot;:0}" fill="#d3bb76"/><path d="M446.60454,493.92058l-0.26613,-25.84621l5.16924,-0.05322l0.26612,25.84621z" data-paper-data="{&quot;origPos&quot;:null,&quot;origRot&quot;:0}" fill="#d3bb76"/><path d="M434.54302,494.04479l-0.26613,-25.84621l5.16923,-0.05322l0.26613,25.84622z" data-paper-data="{&quot;origPos&quot;:null,&quot;origRot&quot;:0}" fill="#d3bb76"/><path d="M436.39488,473.99757l-0.05914,-5.74361l12.9231,-0.13305l0.05915,5.74359z" data-paper-data="{&quot;origPos&quot;:null,&quot;origRot&quot;:0}" fill="#d3bb76"/></g><g data-paper-data="{&quot;origPos&quot;:null,&quot;index&quot;:null,&quot;origRot&quot;:0}" stroke="none"><path d="M421.22323,337.63348l-3.2849,-182.85101l37.16358,-4.42785l3.10789,187.11886z" data-paper-data="{&quot;origPos&quot;:null,&quot;origRot&quot;:0}" fill="#d3bb76"/><path d="M419.8544,204.66794l-0.41309,-40.1182l36.75904,-0.37849l0.41308,40.11819z" data-paper-data="{&quot;origPos&quot;:null,&quot;origRot&quot;:0}" fill="#b9a568"/><path d="M414.3575,200.79206l-0.38321,-37.21703l47.95907,-0.49381l0.38322,37.21704z" data-paper-data="{&quot;origPos&quot;:null,&quot;origRot&quot;:0}" fill="#e7cd81"/><path d="M451.05382,194.32075l-0.26612,-25.84621l5.16924,-0.05322l0.26613,25.8462z" data-paper-data="{&quot;origPos&quot;:null,&quot;origRot&quot;:0}" fill="#d3bb76"/><path d="M420.89691,194.34403l-0.26613,-25.84621l5.16923,-0.05322l0.26613,25.84622z" data-paper-data="{&quot;origPos&quot;:null,&quot;origRot&quot;:0}" fill="#d3bb76"/><path d="M441.86106,194.12815l-0.26613,-25.84622l5.16923,-0.05322l0.26613,25.84621z" data-paper-data="{&quot;origPos&quot;:null,&quot;origRot&quot;:0}" fill="#d3bb76"/><path d="M429.79952,194.25233l-0.26613,-25.84621l5.16923,-0.05322l0.26613,25.84621z" data-paper-data="{&quot;origPos&quot;:null,&quot;origRot&quot;:0}" fill="#d3bb76"/><path d="M432.71701,194.01171l-0.05914,-5.7436l12.92311,-0.13306l0.05915,5.74359z" data-paper-data="{&quot;origPos&quot;:null,&quot;origRot&quot;:0}" fill="#d3bb76"/><path d="M431.65141,174.20511l-0.05915,-5.74361l12.92311,-0.13306l0.05914,5.7436z" data-paper-data="{&quot;origPos&quot;:null,&quot;origRot&quot;:0}" fill="#d3bb76"/><path d="M420.63987,280.67668l-0.66385,-64.47193l37.3334,-0.3844l0.66385,64.47193z" data-paper-data="{&quot;origPos&quot;:null,&quot;origRot&quot;:0}" fill="#b9a568"/><path d="M415.71597,276.66333l-0.66754,-64.8309l47.95907,-0.4938l0.66754,64.8309z" data-paper-data="{&quot;origPos&quot;:null,&quot;origRot&quot;:0}" fill="#e7cd81"/><path d="M451.08054,266.37609l-0.4879,-47.3847l5.16923,-0.05323l0.4879,47.38469z" data-paper-data="{&quot;origPos&quot;:null,&quot;origRot&quot;:0}" fill="#b9a568"/><path d="M451.06634,264.99766l-0.48791,-47.3847l5.16923,-0.05322l0.4879,47.38469z" data-paper-data="{&quot;origPos&quot;:null,&quot;origRot&quot;:0}" fill="#d3bb76"/><path d="M430.64267,222.86735l-0.05145,-4.99693l24.98466,-0.25725l0.05144,4.99692z" data-paper-data="{&quot;origPos&quot;:null,&quot;origRot&quot;:0}" fill="#d3bb76"/><path d="M430.99697,257.27725l-0.40274,-39.11393l5.16924,-0.05322l0.40274,39.11393z" data-paper-data="{&quot;origPos&quot;:null,&quot;origRot&quot;:0}" fill="#d3bb76"/><path d="M440.99263,257.34668l-0.28032,-27.22468l5.16924,-0.05322l0.28033,27.22467z" data-paper-data="{&quot;origPos&quot;:null,&quot;origRot&quot;:0}" fill="#d3bb76"/><path d="M431.17163,257.49951l-0.05677,-5.51387l14.8185,-0.15258l0.05677,5.51387z" data-paper-data="{&quot;origPos&quot;:null,&quot;origRot&quot;:0}" fill="#d3bb76"/><path d="M422.31447,267.58563l-0.05145,-4.99693l33.94468,-0.34951l0.05145,4.99693z" data-paper-data="{&quot;origPos&quot;:null,&quot;origRot&quot;:0}" fill="#d3bb76"/><path d="M421.45246,267.54278l-0.50919,-49.45241l5.16923,-0.05322l0.50917,49.45241z" data-paper-data="{&quot;origPos&quot;:null,&quot;origRot&quot;:0}" fill="#d3bb76"/><path d="M421.27552,328.46439l-0.41309,-40.1182l36.75905,-0.3785l0.41308,40.1182z" data-paper-data="{&quot;origPos&quot;:null,&quot;origRot&quot;:0}" fill="#b9a568"/><path d="M415.77865,324.58838l-0.38322,-37.21704l47.95907,-0.4938l0.38321,37.21703z" data-paper-data="{&quot;origPos&quot;:null,&quot;origRot&quot;:0}" fill="#e7cd81"/><path d="M452.4749,318.11703l-0.26612,-25.84621l5.16924,-0.05322l0.26613,25.84622z" data-paper-data="{&quot;origPos&quot;:null,&quot;origRot&quot;:0}" fill="#d3bb76"/><path d="M422.31805,318.14034l-0.26612,-25.84621l5.16923,-0.05323l0.26612,25.84622z" data-paper-data="{&quot;origPos&quot;:null,&quot;origRot&quot;:0}" fill="#d3bb76"/><path d="M443.28221,317.92449l-0.26613,-25.84621l5.16924,-0.05322l0.26612,25.84621z" data-paper-data="{&quot;origPos&quot;:null,&quot;origRot&quot;:0}" fill="#d3bb76"/><path d="M431.22066,318.04868l-0.26613,-25.84621l5.16923,-0.05322l0.26613,25.84622z" data-paper-data="{&quot;origPos&quot;:null,&quot;origRot&quot;:0}" fill="#d3bb76"/><path d="M433.07252,298.00147l-0.05914,-5.74361l12.9231,-0.13305l0.05915,5.74359z" data-paper-data="{&quot;origPos&quot;:null,&quot;origRot&quot;:0}" fill="#d3bb76"/></g><path d="M204.00001,524.8v-246h109v246z" data-paper-data="{&quot;origPos&quot;:null}" fill="#a1937c" stroke="none"/><path d="M232.00001,523.8v-262h75v262z" fill="#a1937c" stroke="none"/><path d="M165,627.8v-314h158v314z" data-paper-data="{&quot;origPos&quot;:null}" fill="#a1937c" stroke="none"/><path d="M211.00002,556.80001v-444h64v444z" data-paper-data="{&quot;origPos&quot;:null}" fill="#9e907a" stroke="none"/></g></g></svg>