<svg version="1.1" xmlns="http://www.w3.org/2000/svg" xmlns:xlink="http://www.w3.org/1999/xlink" width="81.97565" height="80.9327"><g transform="translate(-439.63502,-127.74739)"><g data-paper-data="{&quot;isPaintingLayer&quot;:true}" fill="#8eb480" fill-rule="nonzero" stroke="none" stroke-width="0" stroke-linecap="butt" stroke-linejoin="miter" stroke-miterlimit="10" stroke-dasharray="" stroke-dashoffset="0" font-family="none" font-weight="none" font-size="none" text-anchor="none" style="mix-blend-mode: normal"><path d="M455.51146,200.5912c0,0 5.0182,-8.11328 14.78945,-28.73932c8.25054,-17.41588 11.44477,-21.88185 11.44477,-21.88185c0,0 -3.69845,22.11895 -5.85598,39.69963c-2.65114,21.60266 2.93668,13.53596 2.93668,13.53596z" data-paper-data="{&quot;origPos&quot;:null,&quot;origRot&quot;:0}"/><path d="M458.13616,200.14938c0,0 1.84177,9.87016 3.79358,-15.3342c1.58842,-20.51182 3.03674,-46.4167 3.03674,-46.4167c0,0 1.07593,5.47445 2.92024,26.40368c2.18422,24.78696 3.70013,34.6541 3.70013,34.6541z" data-paper-data="{&quot;origPos&quot;:null}"/><path d="M458.69803,202.36459c0,0 3.85835,9.03101 0.45482,-15.95964c-2.76986,-20.33788 -6.80845,-45.86143 -6.80845,-45.86143c0,0 2.19273,4.99325 8.37684,24.74054c7.32394,23.38718 10.86587,32.5097 10.86587,32.5097z" data-paper-data="{&quot;origPos&quot;:null,&quot;origRot&quot;:0}"/><g data-paper-data="{&quot;origPos&quot;:null}"><path d="M449.0211,197.05653c0,0 4.77733,-7.68571 4.6348,-16.44525c-0.29758,-18.28923 -5.7625,-52.86389 -5.7625,-52.86389c0,0 8.83308,27.17782 11.83664,40.10085c3.69067,15.87944 4.72502,30.64499 4.72502,30.64499z" data-paper-data="{&quot;origPos&quot;:null}"/><path d="M443.98402,201.13099c0,0 4.18071,2.86275 2.3847,-13.06455c-1.46164,-12.96196 -6.7337,-26.44229 -6.7337,-26.44229c0,0 5.72089,3.54975 11.31028,16.3902c6.61962,15.20724 8.8336,21.18904 8.8336,21.18904z" data-paper-data="{&quot;origPos&quot;:null,&quot;origRot&quot;:0}"/></g><path d="M482.41931,207.20562c0,0 5.58782,8.0667 2.93668,-13.53596c-2.15753,-17.58068 -5.85598,-39.69963 -5.85598,-39.69963c0,0 3.19423,4.46597 11.44477,21.88185c9.77125,20.62604 14.78945,28.73932 14.78945,28.73932z" data-paper-data="{&quot;origPos&quot;:null,&quot;origRot&quot;:0,&quot;index&quot;:null}"/><path d="M489.65884,203.45626c0,0 1.51591,-9.86714 3.70013,-34.6541c1.84431,-20.92923 2.92024,-26.40368 2.92024,-26.40368c0,0 1.44832,25.90488 3.03674,46.4167c1.95181,25.20436 3.79358,15.3342 3.79358,15.3342z" data-paper-data="{&quot;origPos&quot;:null,&quot;index&quot;:null}"/><path d="M489.65858,201.79376c0,0 3.54193,-9.12252 10.86587,-32.5097c6.18411,-19.74729 8.37684,-24.74054 8.37684,-24.74054c0,0 -4.03859,25.52355 -6.80845,45.86143c-3.40353,24.99065 0.45482,15.95964 0.45482,15.95964z" data-paper-data="{&quot;origPos&quot;:null,&quot;origRot&quot;:0,&quot;index&quot;:null}"/><g data-paper-data="{&quot;origPos&quot;:null,&quot;index&quot;:null}"><path d="M496.79063,202.49323c0,0 1.03435,-14.76555 4.72502,-30.64499c3.00356,-12.92303 11.83664,-40.10085 11.83664,-40.10085c0,0 -5.46492,34.57466 -5.7625,52.86389c-0.14253,8.75954 4.6348,16.44525 4.6348,16.44525z" data-paper-data="{&quot;origPos&quot;:null}"/><path d="M501.46679,203.20339c0,0 2.21398,-5.9818 8.8336,-21.18904c5.58939,-12.84045 11.31028,-16.3902 11.31028,-16.3902c0,0 -5.27206,13.48033 -6.7337,26.44229c-1.79601,15.9273 2.3847,13.06455 2.3847,13.06455z" data-paper-data="{&quot;origPos&quot;:null,&quot;origRot&quot;:0}"/></g></g></g></svg>