<svg version="1.1" xmlns="http://www.w3.org/2000/svg" xmlns:xlink="http://www.w3.org/1999/xlink" width="614.49227" height="529.1241"><g transform="translate(-197.79156,-38.21057)"><g data-paper-data="{&quot;isPaintingLayer&quot;:true}" fill="none" fill-rule="nonzero" stroke="none" stroke-width="none" stroke-linecap="butt" stroke-linejoin="miter" stroke-miterlimit="10" stroke-dasharray="" stroke-dashoffset="0" font-family="none" font-weight="none" font-size="none" text-anchor="none" style="mix-blend-mode: normal"><g data-paper-data="{&quot;origPos&quot;:null}" stroke="none" stroke-width="0"><path d="M308.17802,252.58952l-1.4362,-187.13916l37.26013,3.52423l1.15562,182.87686z" data-paper-data="{&quot;origPos&quot;:null,&quot;origRot&quot;:0}" fill="#d3bb76"/><path d="M306.54026,119.40603l-0.5611,-40.11639l36.75739,-0.51412l0.56109,40.1164z" data-paper-data="{&quot;origPos&quot;:null,&quot;origRot&quot;:0}" fill="#b9a568"/><path d="M300.7419,115.55446l-0.52051,-37.21537l47.95692,-0.67076l0.52052,37.21536z" data-paper-data="{&quot;origPos&quot;:null,&quot;origRot&quot;:0}" fill="#e7cd81"/><path d="M306.68719,109.37751l-0.36148,-25.84504l5.16901,-0.0723l0.36149,25.84505z" data-paper-data="{&quot;origPos&quot;:null,&quot;origRot&quot;:0}" fill="#d3bb76"/><path d="M336.83576,108.6686l-0.36148,-25.84506l5.169,-0.0723l0.36148,25.84505z" data-paper-data="{&quot;origPos&quot;:null,&quot;origRot&quot;:0}" fill="#d3bb76"/><path d="M315.87258,108.96181l-0.36148,-25.84505l5.169,-0.0723l0.36148,25.84506z" data-paper-data="{&quot;origPos&quot;:null,&quot;origRot&quot;:0}" fill="#d3bb76"/><path d="M327.93354,108.79308l-0.36148,-25.84505l5.169,-0.0723l0.36148,25.84505z" data-paper-data="{&quot;origPos&quot;:null,&quot;origRot&quot;:0}" fill="#d3bb76"/><path d="M317.25757,108.73184l-0.08032,-5.74333l12.92253,-0.18075l0.08033,5.74334z" data-paper-data="{&quot;origPos&quot;:null,&quot;origRot&quot;:0}" fill="#d3bb76"/><path d="M317.84196,88.90521l-0.08033,-5.74334l12.92253,-0.18075l0.08032,5.74335z" data-paper-data="{&quot;origPos&quot;:null,&quot;origRot&quot;:0}" fill="#d3bb76"/><path d="M307.02612,195.41949l-0.9017,-64.46904l37.33173,-0.52215l0.9017,64.46904z" data-paper-data="{&quot;origPos&quot;:null,&quot;origRot&quot;:0}" fill="#b9a568"/><path d="M301.22596,191.43636l-0.90673,-64.828l47.95692,-0.67077l0.90673,64.828z" data-paper-data="{&quot;origPos&quot;:null,&quot;origRot&quot;:0}" fill="#e7cd81"/><path d="M308.40999,181.41233l-0.66273,-47.38257l5.169,-0.07229l0.66273,47.38258z" data-paper-data="{&quot;origPos&quot;:null,&quot;origRot&quot;:0}" fill="#b9a568"/><path d="M308.39072,180.03391l-0.66273,-47.38257l5.169,-0.0723l0.66272,47.38258z" data-paper-data="{&quot;origPos&quot;:null,&quot;origRot&quot;:0}" fill="#d3bb76"/><path d="M307.97087,137.69732l-0.0699,-4.9967l24.98354,-0.34944l0.06989,4.99671z" data-paper-data="{&quot;origPos&quot;:null,&quot;origRot&quot;:0}" fill="#d3bb76"/><path d="M328.26662,171.82856l-0.54705,-39.11218l5.16901,-0.0723l0.54705,39.11218z" data-paper-data="{&quot;origPos&quot;:null,&quot;origRot&quot;:0}" fill="#d3bb76"/><path d="M318.27564,172.14065l-0.38076,-27.22345l5.16901,-0.0723l0.38077,27.22346z" data-paper-data="{&quot;origPos&quot;:null,&quot;origRot&quot;:0}" fill="#d3bb76"/><path d="M318.44867,172.18989l-0.07712,-5.51362l14.81784,-0.20725l0.07712,5.51362z" data-paper-data="{&quot;origPos&quot;:null,&quot;origRot&quot;:0}" fill="#d3bb76"/><path d="M308.42269,182.32554l-0.06989,-4.99671l33.94316,-0.47476l0.06989,4.99671z" data-paper-data="{&quot;origPos&quot;:null,&quot;origRot&quot;:0}" fill="#d3bb76"/><path d="M338.05766,181.85931l-0.69166,-49.45019l5.169,-0.0723l0.69164,49.45019z" data-paper-data="{&quot;origPos&quot;:null,&quot;origRot&quot;:0}" fill="#d3bb76"/><path d="M308.12523,243.20045l-0.5611,-40.1164l36.7574,-0.51411l0.56109,40.1164z" data-paper-data="{&quot;origPos&quot;:null,&quot;origRot&quot;:0}" fill="#b9a568"/><path d="M302.32693,239.34882l-0.52052,-37.21536l47.95692,-0.67077l0.52051,37.21537z" data-paper-data="{&quot;origPos&quot;:null,&quot;origRot&quot;:0}" fill="#e7cd81"/><path d="M308.27225,233.1719l-0.36148,-25.84506l5.16901,-0.0723l0.36149,25.84505z" data-paper-data="{&quot;origPos&quot;:null,&quot;origRot&quot;:0}" fill="#d3bb76"/><path d="M338.42077,232.46295l-0.36149,-25.84506l5.169,-0.07229l0.36149,25.84505z" data-paper-data="{&quot;origPos&quot;:null,&quot;origRot&quot;:0}" fill="#d3bb76"/><path d="M317.45758,232.7562l-0.36149,-25.84505l5.16901,-0.0723l0.36148,25.84505z" data-paper-data="{&quot;origPos&quot;:null,&quot;origRot&quot;:0}" fill="#d3bb76"/><path d="M329.5186,232.5875l-0.36148,-25.84506l5.169,-0.0723l0.36148,25.84505z" data-paper-data="{&quot;origPos&quot;:null,&quot;origRot&quot;:0}" fill="#d3bb76"/><path d="M319.42702,212.69959l-0.08032,-5.74333l12.92252,-0.18076l0.08033,5.74335z" data-paper-data="{&quot;origPos&quot;:null,&quot;origRot&quot;:0}" fill="#d3bb76"/></g><g data-paper-data="{&quot;origPos&quot;:null}" stroke="none" stroke-width="0"><path d="M387.17799,252.58952l-1.4362,-187.13916l37.26013,3.52423l1.15562,182.87686z" data-paper-data="{&quot;origPos&quot;:null,&quot;origRot&quot;:0}" fill="#d3bb76"/><path d="M385.54028,119.40603l-0.5611,-40.11639l36.75739,-0.51412l0.56109,40.1164z" data-paper-data="{&quot;origPos&quot;:null,&quot;origRot&quot;:0}" fill="#b9a568"/><path d="M379.74193,115.55446l-0.52051,-37.21537l47.95692,-0.67076l0.52052,37.21536z" data-paper-data="{&quot;origPos&quot;:null,&quot;origRot&quot;:0}" fill="#e7cd81"/><path d="M385.68722,109.37751l-0.36148,-25.84504l5.16901,-0.0723l0.36149,25.84505z" data-paper-data="{&quot;origPos&quot;:null,&quot;origRot&quot;:0}" fill="#d3bb76"/><path d="M415.8358,108.6686l-0.36148,-25.84506l5.169,-0.0723l0.36148,25.84505z" data-paper-data="{&quot;origPos&quot;:null,&quot;origRot&quot;:0}" fill="#d3bb76"/><path d="M394.87259,108.96181l-0.36148,-25.84505l5.169,-0.0723l0.36148,25.84506z" data-paper-data="{&quot;origPos&quot;:null,&quot;origRot&quot;:0}" fill="#d3bb76"/><path d="M406.93356,108.79308l-0.36148,-25.84505l5.169,-0.0723l0.36148,25.84505z" data-paper-data="{&quot;origPos&quot;:null,&quot;origRot&quot;:0}" fill="#d3bb76"/><path d="M396.2576,108.73184l-0.08032,-5.74333l12.92253,-0.18075l0.08033,5.74334z" data-paper-data="{&quot;origPos&quot;:null,&quot;origRot&quot;:0}" fill="#d3bb76"/><path d="M396.84194,88.90521l-0.08033,-5.74334l12.92253,-0.18075l0.08032,5.74335z" data-paper-data="{&quot;origPos&quot;:null,&quot;origRot&quot;:0}" fill="#d3bb76"/><path d="M386.02614,195.41949l-0.9017,-64.46904l37.33173,-0.52215l0.9017,64.46904z" data-paper-data="{&quot;origPos&quot;:null,&quot;origRot&quot;:0}" fill="#b9a568"/><path d="M380.22599,191.43636l-0.90673,-64.828l47.95692,-0.67077l0.90673,64.828z" data-paper-data="{&quot;origPos&quot;:null,&quot;origRot&quot;:0}" fill="#e7cd81"/><path d="M387.41001,181.41233l-0.66273,-47.38257l5.169,-0.07229l0.66273,47.38258z" data-paper-data="{&quot;origPos&quot;:null,&quot;origRot&quot;:0}" fill="#b9a568"/><path d="M387.39069,180.03391l-0.66273,-47.38257l5.169,-0.0723l0.66272,47.38258z" data-paper-data="{&quot;origPos&quot;:null,&quot;origRot&quot;:0}" fill="#d3bb76"/><path d="M386.97089,137.69732l-0.0699,-4.9967l24.98354,-0.34944l0.06989,4.99671z" data-paper-data="{&quot;origPos&quot;:null,&quot;origRot&quot;:0}" fill="#d3bb76"/><path d="M407.26665,171.82856l-0.54705,-39.11218l5.16901,-0.0723l0.54705,39.11218z" data-paper-data="{&quot;origPos&quot;:null,&quot;origRot&quot;:0}" fill="#d3bb76"/><path d="M397.27566,172.14065l-0.38076,-27.22345l5.16901,-0.0723l0.38077,27.22346z" data-paper-data="{&quot;origPos&quot;:null,&quot;origRot&quot;:0}" fill="#d3bb76"/><path d="M397.44866,172.18989l-0.07712,-5.51362l14.81784,-0.20725l0.07712,5.51362z" data-paper-data="{&quot;origPos&quot;:null,&quot;origRot&quot;:0}" fill="#d3bb76"/><path d="M387.42272,182.32554l-0.06989,-4.99671l33.94316,-0.47476l0.06989,4.99671z" data-paper-data="{&quot;origPos&quot;:null,&quot;origRot&quot;:0}" fill="#d3bb76"/><path d="M417.05768,181.85931l-0.69166,-49.45019l5.169,-0.0723l0.69164,49.45019z" data-paper-data="{&quot;origPos&quot;:null,&quot;origRot&quot;:0}" fill="#d3bb76"/><path d="M387.12526,243.20045l-0.5611,-40.1164l36.7574,-0.51411l0.56109,40.1164z" data-paper-data="{&quot;origPos&quot;:null,&quot;origRot&quot;:0}" fill="#b9a568"/><path d="M381.3269,239.34882l-0.52052,-37.21536l47.95692,-0.67077l0.52051,37.21537z" data-paper-data="{&quot;origPos&quot;:null,&quot;origRot&quot;:0}" fill="#e7cd81"/><path d="M387.27228,233.1719l-0.36148,-25.84506l5.16901,-0.0723l0.36149,25.84505z" data-paper-data="{&quot;origPos&quot;:null,&quot;origRot&quot;:0}" fill="#d3bb76"/><path d="M417.42082,232.46295l-0.36149,-25.84506l5.169,-0.07229l0.36149,25.84505z" data-paper-data="{&quot;origPos&quot;:null,&quot;origRot&quot;:0}" fill="#d3bb76"/><path d="M396.45756,232.7562l-0.36149,-25.84505l5.16901,-0.0723l0.36148,25.84505z" data-paper-data="{&quot;origPos&quot;:null,&quot;origRot&quot;:0}" fill="#d3bb76"/><path d="M408.51862,232.5875l-0.36148,-25.84506l5.169,-0.0723l0.36148,25.84505z" data-paper-data="{&quot;origPos&quot;:null,&quot;origRot&quot;:0}" fill="#d3bb76"/><path d="M398.427,212.69959l-0.08032,-5.74333l12.92252,-0.18076l0.08033,5.74335z" data-paper-data="{&quot;origPos&quot;:null,&quot;origRot&quot;:0}" fill="#d3bb76"/></g><g data-paper-data="{&quot;origPos&quot;:null}" stroke="none" stroke-width="0"><path d="M462.17802,253.58952l-1.4362,-187.13916l37.26013,3.52423l1.15562,182.87686z" data-paper-data="{&quot;origPos&quot;:null,&quot;origRot&quot;:0}" fill="#d3bb76"/><path d="M460.54028,120.40603l-0.5611,-40.11639l36.75739,-0.51412l0.56109,40.1164z" data-paper-data="{&quot;origPos&quot;:null,&quot;origRot&quot;:0}" fill="#b9a568"/><path d="M454.74196,116.55446l-0.52051,-37.21537l47.95692,-0.67076l0.52052,37.21536z" data-paper-data="{&quot;origPos&quot;:null,&quot;origRot&quot;:0}" fill="#e7cd81"/><path d="M460.68725,110.37752l-0.36148,-25.84504l5.16901,-0.0723l0.36149,25.84505z" data-paper-data="{&quot;origPos&quot;:null,&quot;origRot&quot;:0}" fill="#d3bb76"/><path d="M490.83577,109.6686l-0.36148,-25.84506l5.169,-0.0723l0.36148,25.84505z" data-paper-data="{&quot;origPos&quot;:null,&quot;origRot&quot;:0}" fill="#d3bb76"/><path d="M469.8726,109.96181l-0.36148,-25.84505l5.169,-0.0723l0.36148,25.84506z" data-paper-data="{&quot;origPos&quot;:null,&quot;origRot&quot;:0}" fill="#d3bb76"/><path d="M481.93361,109.79308l-0.36148,-25.84505l5.169,-0.0723l0.36148,25.84505z" data-paper-data="{&quot;origPos&quot;:null,&quot;origRot&quot;:0}" fill="#d3bb76"/><path d="M471.2576,109.73184l-0.08032,-5.74333l12.92253,-0.18075l0.08033,5.74334z" data-paper-data="{&quot;origPos&quot;:null,&quot;origRot&quot;:0}" fill="#d3bb76"/><path d="M471.84198,89.90521l-0.08033,-5.74334l12.92253,-0.18075l0.08032,5.74335z" data-paper-data="{&quot;origPos&quot;:null,&quot;origRot&quot;:0}" fill="#d3bb76"/><path d="M461.02616,196.41949l-0.9017,-64.46904l37.33173,-0.52215l0.9017,64.46904z" data-paper-data="{&quot;origPos&quot;:null,&quot;origRot&quot;:0}" fill="#b9a568"/><path d="M455.22602,192.43636l-0.90673,-64.828l47.95692,-0.67077l0.90673,64.828z" data-paper-data="{&quot;origPos&quot;:null,&quot;origRot&quot;:0}" fill="#e7cd81"/><path d="M462.41002,182.41233l-0.66273,-47.38257l5.169,-0.07229l0.66273,47.38258z" data-paper-data="{&quot;origPos&quot;:null,&quot;origRot&quot;:0}" fill="#b9a568"/><path d="M462.3907,181.03391l-0.66273,-47.38257l5.169,-0.0723l0.66272,47.38258z" data-paper-data="{&quot;origPos&quot;:null,&quot;origRot&quot;:0}" fill="#d3bb76"/><path d="M461.97091,138.69732l-0.0699,-4.9967l24.98354,-0.34944l0.06989,4.99671z" data-paper-data="{&quot;origPos&quot;:null,&quot;origRot&quot;:0}" fill="#d3bb76"/><path d="M482.26669,172.82856l-0.54705,-39.11218l5.16901,-0.0723l0.54705,39.11218z" data-paper-data="{&quot;origPos&quot;:null,&quot;origRot&quot;:0}" fill="#d3bb76"/><path d="M472.27566,173.14065l-0.38076,-27.22345l5.16901,-0.0723l0.38077,27.22346z" data-paper-data="{&quot;origPos&quot;:null,&quot;origRot&quot;:0}" fill="#d3bb76"/><path d="M472.44866,173.18989l-0.07712,-5.51362l14.81784,-0.20725l0.07712,5.51362z" data-paper-data="{&quot;origPos&quot;:null,&quot;origRot&quot;:0}" fill="#d3bb76"/><path d="M462.42277,183.32554l-0.06989,-4.99671l33.94316,-0.47476l0.06989,4.99671z" data-paper-data="{&quot;origPos&quot;:null,&quot;origRot&quot;:0}" fill="#d3bb76"/><path d="M492.05767,182.85931l-0.69166,-49.45019l5.169,-0.0723l0.69164,49.45019z" data-paper-data="{&quot;origPos&quot;:null,&quot;origRot&quot;:0}" fill="#d3bb76"/><path d="M462.1253,244.20045l-0.5611,-40.1164l36.7574,-0.51411l0.56109,40.1164z" data-paper-data="{&quot;origPos&quot;:null,&quot;origRot&quot;:0}" fill="#b9a568"/><path d="M456.32693,240.34882l-0.52052,-37.21536l47.95692,-0.67077l0.52051,37.21537z" data-paper-data="{&quot;origPos&quot;:null,&quot;origRot&quot;:0}" fill="#e7cd81"/><path d="M462.27228,234.1719l-0.36148,-25.84506l5.16901,-0.0723l0.36149,25.84505z" data-paper-data="{&quot;origPos&quot;:null,&quot;origRot&quot;:0}" fill="#d3bb76"/><path d="M492.42078,233.46295l-0.36149,-25.84506l5.169,-0.07229l0.36149,25.84505z" data-paper-data="{&quot;origPos&quot;:null,&quot;origRot&quot;:0}" fill="#d3bb76"/><path d="M471.45762,233.7562l-0.36149,-25.84505l5.16901,-0.0723l0.36148,25.84505z" data-paper-data="{&quot;origPos&quot;:null,&quot;origRot&quot;:0}" fill="#d3bb76"/><path d="M483.51862,233.5875l-0.36148,-25.84506l5.169,-0.0723l0.36148,25.84505z" data-paper-data="{&quot;origPos&quot;:null,&quot;origRot&quot;:0}" fill="#d3bb76"/><path d="M473.427,213.69959l-0.08032,-5.74333l12.92252,-0.18076l0.08033,5.74335z" data-paper-data="{&quot;origPos&quot;:null,&quot;origRot&quot;:0}" fill="#d3bb76"/></g><g data-paper-data="{&quot;origPos&quot;:null}" stroke="none" stroke-width="0"><path d="M231.17802,254.58952l-1.4362,-187.13916l37.26013,3.52423l1.15562,182.87686z" data-paper-data="{&quot;origPos&quot;:null,&quot;origRot&quot;:0}" fill="#d3bb76"/><path d="M229.54023,121.40603l-0.5611,-40.11639l36.75739,-0.51412l0.56109,40.1164z" data-paper-data="{&quot;origPos&quot;:null,&quot;origRot&quot;:0}" fill="#b9a568"/><path d="M223.74194,117.55446l-0.52051,-37.21537l47.95692,-0.67076l0.52052,37.21536z" data-paper-data="{&quot;origPos&quot;:null,&quot;origRot&quot;:0}" fill="#e7cd81"/><path d="M229.68717,111.37752l-0.36148,-25.84504l5.16901,-0.0723l0.36149,25.84505z" data-paper-data="{&quot;origPos&quot;:null,&quot;origRot&quot;:0}" fill="#d3bb76"/><path d="M259.83574,110.6686l-0.36148,-25.84506l5.169,-0.0723l0.36148,25.84505z" data-paper-data="{&quot;origPos&quot;:null,&quot;origRot&quot;:0}" fill="#d3bb76"/><path d="M238.87254,110.96181l-0.36148,-25.84505l5.169,-0.0723l0.36148,25.84506z" data-paper-data="{&quot;origPos&quot;:null,&quot;origRot&quot;:0}" fill="#d3bb76"/><path d="M250.93355,110.7931l-0.36148,-25.84505l5.169,-0.0723l0.36148,25.84505z" data-paper-data="{&quot;origPos&quot;:null,&quot;origRot&quot;:0}" fill="#d3bb76"/><path d="M240.25755,110.73184l-0.08032,-5.74333l12.92253,-0.18075l0.08033,5.74334z" data-paper-data="{&quot;origPos&quot;:null,&quot;origRot&quot;:0}" fill="#d3bb76"/><path d="M240.84191,90.90521l-0.08033,-5.74334l12.92253,-0.18075l0.08032,5.74335z" data-paper-data="{&quot;origPos&quot;:null,&quot;origRot&quot;:0}" fill="#d3bb76"/><path d="M230.02613,197.41949l-0.9017,-64.46904l37.33173,-0.52215l0.9017,64.46904z" data-paper-data="{&quot;origPos&quot;:null,&quot;origRot&quot;:0}" fill="#b9a568"/><path d="M224.226,193.43636l-0.90673,-64.828l47.95692,-0.67077l0.90673,64.828z" data-paper-data="{&quot;origPos&quot;:null,&quot;origRot&quot;:0}" fill="#e7cd81"/><path d="M231.40996,183.41233l-0.66273,-47.38257l5.169,-0.07229l0.66273,47.38258z" data-paper-data="{&quot;origPos&quot;:null,&quot;origRot&quot;:0}" fill="#b9a568"/><path d="M231.3907,182.03391l-0.66273,-47.38257l5.169,-0.0723l0.66272,47.38258z" data-paper-data="{&quot;origPos&quot;:null,&quot;origRot&quot;:0}" fill="#d3bb76"/><path d="M230.97088,139.69732l-0.0699,-4.9967l24.98354,-0.34944l0.06989,4.99671z" data-paper-data="{&quot;origPos&quot;:null,&quot;origRot&quot;:0}" fill="#d3bb76"/><path d="M251.26666,173.82856l-0.54705,-39.11218l5.16901,-0.0723l0.54705,39.11218z" data-paper-data="{&quot;origPos&quot;:null,&quot;origRot&quot;:0}" fill="#d3bb76"/><path d="M241.27564,174.14065l-0.38076,-27.22345l5.16901,-0.0723l0.38077,27.22346z" data-paper-data="{&quot;origPos&quot;:null,&quot;origRot&quot;:0}" fill="#d3bb76"/><path d="M241.44864,174.18989l-0.07712,-5.51362l14.81784,-0.20725l0.07712,5.51362z" data-paper-data="{&quot;origPos&quot;:null,&quot;origRot&quot;:0}" fill="#d3bb76"/><path d="M231.42273,184.32554l-0.06989,-4.99671l33.94316,-0.47476l0.06989,4.99671z" data-paper-data="{&quot;origPos&quot;:null,&quot;origRot&quot;:0}" fill="#d3bb76"/><path d="M261.05764,183.85931l-0.69166,-49.45019l5.169,-0.0723l0.69164,49.45019z" data-paper-data="{&quot;origPos&quot;:null,&quot;origRot&quot;:0}" fill="#d3bb76"/><path d="M231.12527,245.20045l-0.5611,-40.1164l36.7574,-0.51411l0.56109,40.1164z" data-paper-data="{&quot;origPos&quot;:null,&quot;origRot&quot;:0}" fill="#b9a568"/><path d="M225.32693,241.34882l-0.52052,-37.21536l47.95692,-0.67077l0.52051,37.21537z" data-paper-data="{&quot;origPos&quot;:null,&quot;origRot&quot;:0}" fill="#e7cd81"/><path d="M231.27224,235.1719l-0.36148,-25.84506l5.16901,-0.0723l0.36149,25.84505z" data-paper-data="{&quot;origPos&quot;:null,&quot;origRot&quot;:0}" fill="#d3bb76"/><path d="M261.4208,234.46295l-0.36149,-25.84506l5.169,-0.07229l0.36149,25.84505z" data-paper-data="{&quot;origPos&quot;:null,&quot;origRot&quot;:0}" fill="#d3bb76"/><path d="M240.45757,234.7562l-0.36149,-25.84505l5.16901,-0.0723l0.36148,25.84505z" data-paper-data="{&quot;origPos&quot;:null,&quot;origRot&quot;:0}" fill="#d3bb76"/><path d="M252.51861,234.5875l-0.36148,-25.84506l5.169,-0.0723l0.36148,25.84505z" data-paper-data="{&quot;origPos&quot;:null,&quot;origRot&quot;:0}" fill="#d3bb76"/><path d="M242.42701,214.69959l-0.08032,-5.74333l12.92252,-0.18076l0.08033,5.74335z" data-paper-data="{&quot;origPos&quot;:null,&quot;origRot&quot;:0}" fill="#d3bb76"/></g><path d="M224.288,49.60327v-6.62785h53.20909v6.62785z" data-paper-data="{&quot;origPos&quot;:null}" fill="#e7cd81" stroke="none" stroke-width="0"/><path d="M224.96842,73.21057v-35h279.22229v35z" data-paper-data="{&quot;origPos&quot;:null}" fill="#e7cd81" stroke="none" stroke-width="0"/><path d="M224.96842,62.21057v-24h279.22229v24z" data-paper-data="{&quot;origPos&quot;:null}" fill="#d8c079" stroke="none" stroke-width="0"/><path d="M224.96842,55.21057v-17h279.22229v17z" data-paper-data="{&quot;origPos&quot;:null}" fill="#d3bb76" stroke="none" stroke-width="0"/><path d="M406.64219,47.52224v-6.62785h98.13646v6.62785z" data-paper-data="{&quot;origPos&quot;:null}" fill="#e7cd81" stroke="none" stroke-width="0"/><path d="M345.56231,47.52224v-6.62785h65.72674v6.62785z" data-paper-data="{&quot;origPos&quot;:null}" fill="#e7cd81" stroke="none" stroke-width="0"/><path d="M283.95057,47.60327v-6.62785h63.14232v6.62785z" data-paper-data="{&quot;origPos&quot;:null}" fill="#e7cd81" stroke="none" stroke-width="0"/><path d="M225.45052,47.60327v-6.62785h63.14232v6.62785z" data-paper-data="{&quot;origPos&quot;:null}" fill="#e7cd81" stroke="none" stroke-width="0"/><path d="M218.0156,567.33467v-244h559.42774v244z" data-paper-data="{&quot;origPos&quot;:null}" fill="#a1937c" stroke="none" stroke-width="0"/><path d="M221.18332,352.40513c0,0 -5.28586,-11.19051 -4.25858,-17.3616c1.68836,-10.14259 5.98284,-14.28587 5.98284,-24.44105c0,-7.19999 -8.55984,-16.17407 -15.45392,-23.2512c-9.20501,-9.44938 -0.06445,-22.7251 -0.06445,-22.7251h576.52791c0,0 0,14.86099 0,23.94875c0,24.78129 0,62.83647 0,62.83647z" data-paper-data="{&quot;origPos&quot;:null}" fill="#a1937c" stroke="#000000" stroke-width="0"/><path d="M199.74451,270.37137v-17.55579h586.72101v17.55579z" data-paper-data="{&quot;origPos&quot;:null}" fill="#706756" stroke="#000000" stroke-width="0"/><path d="M197.79157,266.72426v-16.55579c0,0 104.08339,0 170.70207,0c168.4725,0 431.6898,0 431.6898,0v16.55579z" data-paper-data="{&quot;origPos&quot;:null}" fill="#8b7f6b" stroke="#000000" stroke-width="0"/><path d="M266.55548,468.13467v-195h378.33564v195z" data-paper-data="{&quot;origPos&quot;:null}" fill="#a1937c" stroke="none" stroke-width="0"/><g data-paper-data="{&quot;origPos&quot;:null}" stroke="none"><g data-paper-data="{&quot;origPos&quot;:null}" stroke-width="0"><path d="M770.17802,416.78951l-1.4362,-187.13916l37.26013,3.52423l1.15562,182.87686z" data-paper-data="{&quot;origPos&quot;:null,&quot;origRot&quot;:0}" fill="#d3bb76"/><path d="M768.54023,283.60602l-0.5611,-40.11639l36.75739,-0.51412l0.56109,40.1164z" data-paper-data="{&quot;origPos&quot;:null,&quot;origRot&quot;:0}" fill="#b9a568"/><path d="M762.74194,279.75445l-0.52051,-37.21537l47.95692,-0.67076l0.52052,37.21536z" data-paper-data="{&quot;origPos&quot;:null,&quot;origRot&quot;:0}" fill="#e7cd81"/><path d="M768.68717,273.57751l-0.36148,-25.84504l5.16901,-0.0723l0.36149,25.84505z" data-paper-data="{&quot;origPos&quot;:null,&quot;origRot&quot;:0}" fill="#d3bb76"/><path d="M798.83575,272.86859l-0.36148,-25.84506l5.169,-0.0723l0.36148,25.84505z" data-paper-data="{&quot;origPos&quot;:null,&quot;origRot&quot;:0}" fill="#d3bb76"/><path d="M777.87254,273.1618l-0.36148,-25.84505l5.169,-0.0723l0.36148,25.84506z" data-paper-data="{&quot;origPos&quot;:null,&quot;origRot&quot;:0}" fill="#d3bb76"/><path d="M789.93355,272.99309l-0.36148,-25.84505l5.169,-0.0723l0.36148,25.84505z" data-paper-data="{&quot;origPos&quot;:null,&quot;origRot&quot;:0}" fill="#d3bb76"/><path d="M779.25755,272.93183l-0.08032,-5.74333l12.92253,-0.18075l0.08033,5.74334z" data-paper-data="{&quot;origPos&quot;:null,&quot;origRot&quot;:0}" fill="#d3bb76"/><path d="M779.84191,253.1052l-0.08033,-5.74334l12.92253,-0.18075l0.08032,5.74335z" data-paper-data="{&quot;origPos&quot;:null,&quot;origRot&quot;:0}" fill="#d3bb76"/><path d="M769.02613,359.61948l-0.9017,-64.46904l37.33173,-0.52215l0.9017,64.46904z" data-paper-data="{&quot;origPos&quot;:null,&quot;origRot&quot;:0}" fill="#b9a568"/><path d="M763.226,355.63635l-0.90673,-64.828l47.95692,-0.67077l0.90673,64.828z" data-paper-data="{&quot;origPos&quot;:null,&quot;origRot&quot;:0}" fill="#e7cd81"/><path d="M770.40996,345.61232l-0.66273,-47.38257l5.169,-0.07229l0.66273,47.38258z" data-paper-data="{&quot;origPos&quot;:null,&quot;origRot&quot;:0}" fill="#b9a568"/><path d="M770.3907,344.2339l-0.66273,-47.38257l5.169,-0.0723l0.66272,47.38258z" data-paper-data="{&quot;origPos&quot;:null,&quot;origRot&quot;:0}" fill="#d3bb76"/><path d="M769.97088,301.89731l-0.0699,-4.9967l24.98354,-0.34944l0.06989,4.99671z" data-paper-data="{&quot;origPos&quot;:null,&quot;origRot&quot;:0}" fill="#d3bb76"/><path d="M790.26666,336.02855l-0.54705,-39.11218l5.16901,-0.0723l0.54705,39.11218z" data-paper-data="{&quot;origPos&quot;:null,&quot;origRot&quot;:0}" fill="#d3bb76"/><path d="M780.27564,336.34064l-0.38076,-27.22345l5.16901,-0.0723l0.38077,27.22346z" data-paper-data="{&quot;origPos&quot;:null,&quot;origRot&quot;:0}" fill="#d3bb76"/><path d="M780.44864,336.38988l-0.07712,-5.51362l14.81784,-0.20725l0.07712,5.51362z" data-paper-data="{&quot;origPos&quot;:null,&quot;origRot&quot;:0}" fill="#d3bb76"/><path d="M770.42273,346.52553l-0.06989,-4.99671l33.94316,-0.47476l0.06989,4.99671z" data-paper-data="{&quot;origPos&quot;:null,&quot;origRot&quot;:0}" fill="#d3bb76"/><path d="M800.05765,346.0593l-0.69166,-49.45019l5.169,-0.0723l0.69164,49.45019z" data-paper-data="{&quot;origPos&quot;:null,&quot;origRot&quot;:0}" fill="#d3bb76"/><path d="M770.12527,407.40044l-0.5611,-40.1164l36.7574,-0.51411l0.56109,40.1164z" data-paper-data="{&quot;origPos&quot;:null,&quot;origRot&quot;:0}" fill="#b9a568"/><path d="M764.32693,403.54881l-0.52052,-37.21536l47.95692,-0.67077l0.52051,37.21537z" data-paper-data="{&quot;origPos&quot;:null,&quot;origRot&quot;:0}" fill="#e7cd81"/><path d="M770.27224,397.37189l-0.36148,-25.84506l5.16901,-0.0723l0.36149,25.84505z" data-paper-data="{&quot;origPos&quot;:null,&quot;origRot&quot;:0}" fill="#d3bb76"/><path d="M800.42081,396.66294l-0.36149,-25.84506l5.169,-0.07229l0.36149,25.84505z" data-paper-data="{&quot;origPos&quot;:null,&quot;origRot&quot;:0}" fill="#d3bb76"/><path d="M779.45757,396.95619l-0.36149,-25.84505l5.16901,-0.0723l0.36148,25.84505z" data-paper-data="{&quot;origPos&quot;:null,&quot;origRot&quot;:0}" fill="#d3bb76"/><path d="M791.51861,396.78749l-0.36148,-25.84506l5.169,-0.0723l0.36148,25.84505z" data-paper-data="{&quot;origPos&quot;:null,&quot;origRot&quot;:0}" fill="#d3bb76"/><path d="M781.42701,376.89958l-0.08032,-5.74333l12.92252,-0.18076l0.08033,5.74335z" data-paper-data="{&quot;origPos&quot;:null,&quot;origRot&quot;:0}" fill="#d3bb76"/></g><path d="M305.5,291.8c0,-1.38071 1.11929,-2.5 2.5,-2.5c1.38071,0 2.5,1.11929 2.5,2.5c0,1.38071 -1.11929,2.5 -2.5,2.5c-1.38071,0 -2.5,-1.11929 -2.5,-2.5z" data-paper-data="{&quot;origPos&quot;:null}" fill="#a1937c" stroke-width="0.5"/></g></g></g></svg>