<svg version="1.1" xmlns="http://www.w3.org/2000/svg" xmlns:xlink="http://www.w3.org/1999/xlink" width="57.10276" height="54.27175" viewBox="0,0,57.10276,54.27175"><g transform="translate(-542.68898,-70.73995)"><g data-paper-data="{&quot;isPaintingLayer&quot;:true}" fill="none" fill-rule="nonzero" stroke="none" stroke-width="0" stroke-linecap="butt" stroke-linejoin="miter" stroke-miterlimit="10" stroke-dasharray="" stroke-dashoffset="0" font-family="none" font-weight="none" font-size="none" text-anchor="none" style="mix-blend-mode: normal"><path d="M546.47642,101.56838c-0.473,-2.29331 -2.27857,-11.04761 -3.73697,-18.11864c-0.35475,-1.71998 1.23381,-3.82814 2.47601,-4.08435c3.72662,-0.76862 36.97182,-7.62544 36.97182,-7.62544l4.84796,23.50526c0,0 -33.16155,6.83957 -37.46151,7.72644c-1.43332,0.29562 -2.93964,-0.63885 -3.09731,-1.40328z" data-paper-data="{&quot;origPos&quot;:null}" fill="#36312b"/><path d="M574.22976,92.80214l6.05995,29.38158l-13.7114,2.82798l-6.05995,-29.38158z" data-paper-data="{&quot;origPos&quot;:null,&quot;index&quot;:null}" fill="#585146"/><path d="M573.62376,89.86399l1.71699,8.32478l-13.7114,2.82798l-1.71699,-8.32478z" data-paper-data="{&quot;origPos&quot;:null,&quot;index&quot;:null}" fill="#3d3831"/><path d="M546.47642,100.56838c-0.473,-2.29331 -2.27857,-11.04761 -3.73697,-18.11864c-0.35475,-1.71998 1.23381,-3.82814 2.47601,-4.08435c3.72662,-0.76862 36.97182,-7.62544 36.97182,-7.62544l17.60446,8.62166l-12.7565,14.8836c0,0 -33.16155,6.83957 -37.46151,7.72644c-1.43332,0.29562 -2.93964,-0.63885 -3.09731,-1.40328z" data-paper-data="{&quot;origPos&quot;:null}" fill="#817666"/><path d="M546.47642,100.56838c-0.473,-2.29331 -2.27857,-11.04761 -3.73697,-18.11864c-0.35475,-1.71998 1.23381,-3.82814 2.47601,-4.08435c3.72662,-0.76862 36.97182,-7.62544 36.97182,-7.62544l4.84796,23.50526c0,0 -33.16155,6.83957 -37.46151,7.72644c-1.43332,0.29562 -2.93964,-0.63885 -3.09731,-1.40328z" data-paper-data="{&quot;origPos&quot;:null}" fill="#776d5e"/><path d="M556.87322,92.80827l-6.27113,-15.55387l5.87632,-1.21199z" data-paper-data="{&quot;origPos&quot;:null}" fill="#585146"/><path d="M565.75349,93.7846l-6.1737,-18.38185l4.57047,-0.94266z" data-paper-data="{&quot;origPos&quot;:null}" fill="#585146"/><path d="M575.26425,85.44144l-5.56414,-12.12602l5.87632,-1.21199z" data-paper-data="{&quot;origPos&quot;:null}" fill="#585146"/><path d="M569.14001,78.02566l6.17371,18.38185l-4.57047,0.94266z" data-paper-data="{&quot;origPos&quot;:null,&quot;index&quot;:null}" fill="#585146"/></g></g></svg>