<svg version="1.1" xmlns="http://www.w3.org/2000/svg" xmlns:xlink="http://www.w3.org/1999/xlink" width="1141.57399" height="284.03544"><defs><linearGradient x1="356.4651" y1="14.56544" x2="352.76115" y2="34.37131" gradientUnits="userSpaceOnUse" id="color-1"><stop offset="0" stop-color="#817666"/><stop offset="1" stop-color="#786f5f"/></linearGradient></defs><g transform="translate(-125.62052,35.32353)"><g data-paper-data="{&quot;isPaintingLayer&quot;:true}" fill="none" fill-rule="nonzero" stroke="none" stroke-width="none" stroke-linecap="none" stroke-linejoin="miter" stroke-miterlimit="10" stroke-dasharray="" stroke-dashoffset="0" font-family="none" font-weight="none" font-size="none" text-anchor="none" style="mix-blend-mode: normal"><g data-paper-data="{&quot;origPos&quot;:null,&quot;index&quot;:null}" stroke-linecap="butt"><path d="M346.24048,91.09768c0,0 -19.91924,-3.60403 -33.24477,-6.01854c-9.63637,-1.74607 -25.59227,-4.64243 -25.59227,-4.64243c0,0 18.10976,-2.84258 19.31561,-9.58602c3.61753,-20.23028 19.02265,-106.17422 19.02265,-106.17422l14.72085,12.00299l14.64295,-8.70457l12.40564,4.17067l-21.27067,118.95211z" data-paper-data="{&quot;origPos&quot;:null,&quot;origRot&quot;:0}" fill="#908472" stroke="none" stroke-width="0"/><path d="M346.24049,91.09766c0,0 -19.91924,-3.60403 -33.24477,-6.01854c-9.63638,-1.74606 -7.48252,-7.48499 -6.27667,-14.22843c2.91303,-16.29051 3.35141,-23.44846 7.47531,-41.74043c6.6223,-29.37387 11.54734,-64.43379 11.54734,-64.43379l14.72085,12.00299l14.64295,-8.70457l12.40564,4.17067l-21.27067,118.95211z" data-paper-data="{&quot;origPos&quot;:null,&quot;origRot&quot;:0}" fill="#887c6b" stroke="none" stroke-width="0"/><path d="M346.24049,91.09766c0,0 -19.91924,-3.60403 -33.24477,-6.01854c-9.63638,-1.74606 -7.48252,-7.48499 -6.27667,-14.22843c3.61753,-20.23028 33.7435,-94.17123 33.7435,-94.17123l14.64295,-8.70457l12.40564,4.17067l-21.27067,118.95211z" data-paper-data="{&quot;origPos&quot;:null,&quot;origRot&quot;:0}" fill="#847968" stroke="none" stroke-width="0"/><path d="M340.46252,-23.32054l14.64295,-8.70457l12.40563,4.17067c0,0 -11.37099,63.59007 -16.71026,93.44891c-1.77975,9.95296 -4.56041,25.5032 -4.56041,25.5032z" data-paper-data="{&quot;origPos&quot;:null,&quot;origRot&quot;:0}" fill="#817666" stroke="none" stroke-width="0"/><path d="M343.75849,32.68771l0.38466,-19.49485l15.92302,2.04605c0,0 -0.8604,3.57632 -0.25868,6.08086c1.13626,4.72942 4.71207,12.45526 4.71207,12.45526z" data-paper-data="{&quot;origPos&quot;:null}" fill="url(#color-1)" stroke="none" stroke-width="NaN"/><g data-paper-data="{&quot;origPos&quot;:null}"><path d="M347.98054,47.47858c-6.17868,-1.15549 -10.25077,-7.10101 -9.09528,-13.27968c1.15549,-6.17868 7.10101,-10.25077 13.27968,-9.09528c6.17868,1.15549 10.25077,7.10101 9.09528,13.27968c-1.15549,6.17868 -7.10101,10.25077 -13.27968,9.09528z" data-paper-data="{&quot;origPos&quot;:null}" fill="#786f5f" stroke="#726c61" stroke-width="5"/><path d="M347.86301,48.10709c-6.52579,-1.2204 -10.82666,-7.49994 -9.60625,-14.02573c1.2204,-6.52579 7.49994,-10.82666 14.02573,-9.60625c6.52579,1.2204 10.82666,7.49994 9.60625,14.02573c-1.2204,6.52579 -7.49994,10.82666 -14.02573,9.60625z" data-paper-data="{&quot;origPos&quot;:null}" fill="#786f5f" stroke="#746d63" stroke-width="5"/><path d="M348.66227,43.83322c-4.16541,-0.77899 -6.91063,-4.7872 -6.13165,-8.9526c0.77899,-4.16541 4.7872,-6.91063 8.9526,-6.13165c4.16541,0.77899 6.91063,4.7872 6.13165,8.9526c-0.77899,4.16541 -4.7872,6.91063 -8.9526,6.13165z" data-paper-data="{&quot;origPos&quot;:null}" fill="#7d7364" stroke="none" stroke-width="5"/><path d="M315.19134,80.81465c-3.00106,-0.56124 -4.97894,-3.44906 -4.4177,-6.45013c0.56124,-3.00106 3.44906,-4.97894 6.45013,-4.4177c3.00106,0.56124 4.97894,3.44906 4.4177,6.45013c-0.56124,3.00106 -3.44906,4.97894 -6.45013,4.4177z" data-paper-data="{&quot;origPos&quot;:null}" fill="#786f5f" stroke="#726c61" stroke-width="5"/><path d="M315.13426,81.11993c-3.16967,-0.59276 -5.25866,-3.64282 -4.66589,-6.81249c0.59276,-3.16967 3.64282,-5.25866 6.81249,-4.66589c3.16967,0.59276 5.25866,3.64282 4.66589,6.81249c-0.59276,3.16967 -3.64282,5.25866 -6.81249,4.66589z" data-paper-data="{&quot;origPos&quot;:null}" fill="#786f5f" stroke="#746d63" stroke-width="1"/><path d="M315.52247,79.04406c-2.0232,-0.37837 -3.35659,-2.32522 -2.97823,-4.34841c0.37837,-2.0232 2.32522,-3.35659 4.34841,-2.97823c2.0232,0.37837 3.35659,2.32522 2.97823,4.34841c-0.37837,2.0232 -2.32522,3.35659 -4.34841,2.97823z" data-paper-data="{&quot;origPos&quot;:null}" fill="#7d7364" stroke="none" stroke-width="0.5"/></g></g><path d="M172.58214,10.44466c0,0 0.60857,25.15412 0.72457,29.9486c0.03866,1.59816 -1.44068,4.18721 -2.42623,4.24616c-2.9566,0.17688 -12.49638,0.74757 -12.49638,0.74757" data-paper-data="{&quot;origPos&quot;:null,&quot;origRot&quot;:0,&quot;index&quot;:null}" fill="none" stroke="#7da17c" stroke-width="17.5" stroke-linecap="round"/><path d="M153.8652,97.21695l-1.32966,-74.22199" data-paper-data="{&quot;origPos&quot;:null,&quot;origRot&quot;:0,&quot;index&quot;:null}" fill="none" stroke="#739472" stroke-width="17.5" stroke-linecap="round"/><path d="M150.43748,65.93541c0,0 -7.26104,-0.19849 -11.90847,-0.32553c-1.70875,-0.04671 -4.36247,-2.59659 -4.35223,-4.18193c0.03071,-4.75601 0.19374,-29.99657 0.19374,-29.99657" data-paper-data="{&quot;origPos&quot;:null,&quot;origRot&quot;:0,&quot;index&quot;:null}" fill="none" stroke="#739472" stroke-width="17.5" stroke-linecap="round"/><path d="" fill="#36734b" stroke="none" stroke-width="0" stroke-linecap="butt"/><path d="" data-paper-data="{&quot;origPos&quot;:null}" fill="#2f6442" stroke="none" stroke-width="0" stroke-linecap="butt"/><path d="M163.81971,167.51754c0,0 8.31179,-36.38326 24.40231,-45.20292c20.37612,-11.16871 48.05817,-2.74729 69.56197,-2.74729c36.54561,0 31.74903,47.95021 31.74903,47.95021z" data-paper-data="{&quot;origPos&quot;:null}" fill="#998c76" stroke="none" stroke-width="0" stroke-linecap="butt"/><path d="M193.23992,142.51753c0,0 8.31179,-36.38326 24.40231,-45.20292c20.37612,-11.16871 48.05817,-2.74729 69.56197,-2.74729c36.54561,0 31.74903,47.95021 31.74903,47.95021z" data-paper-data="{&quot;origPos&quot;:null}" fill="#998c76" stroke="none" stroke-width="0" stroke-linecap="butt"/><path d="M164.62936,151.91752c0,0 8.31179,-36.38326 24.40231,-45.20292c20.37612,-11.16871 48.05817,-2.74729 69.56197,-2.74729c36.54561,0 31.74903,47.95021 31.74903,47.95021z" data-paper-data="{&quot;origPos&quot;:null}" fill="#776d5b" stroke="none" stroke-width="0" stroke-linecap="butt"/><path d="M231.19821,135.9819c0,0 7.99651,-33.6153 18.33213,-38.16821c13.08842,-5.76554 28.89963,9.57834 41.72824,15.07171c21.80216,9.33595 14.9369,55.21126 14.9369,55.21126z" data-paper-data="{&quot;origPos&quot;:null,&quot;origRot&quot;:0}" fill="#776d5b" stroke="none" stroke-width="0" stroke-linecap="butt"/><path d="M159.2228,135.51754c0,0 8.31179,-36.38326 24.40231,-45.20292c20.37612,-11.16871 48.05817,-2.74729 69.56197,-2.74729c36.54561,0 31.74903,47.95021 31.74903,47.95021z" data-paper-data="{&quot;origPos&quot;:null}" fill="#998c76" stroke="none" stroke-width="0" stroke-linecap="butt"/><path d="M135.20915,132.91752c0,0 8.31179,-36.38326 24.40231,-45.20292c20.37612,-11.16871 48.05817,-2.74729 69.56197,-2.74729c36.54561,0 31.74903,47.95021 31.74903,47.95021z" data-paper-data="{&quot;origPos&quot;:null}" fill="#776d5b" stroke="none" stroke-width="0" stroke-linecap="butt"/><path d="M201.778,116.98191c0,0 7.99651,-33.6153 18.33213,-38.16821c13.08842,-5.76554 28.89963,9.57834 41.72824,15.07171c21.80216,9.33595 14.9369,55.21126 14.9369,55.21126z" data-paper-data="{&quot;origPos&quot;:null,&quot;origRot&quot;:0}" fill="#776d5b" stroke="none" stroke-width="0" stroke-linecap="butt"/><path d="M229.0958,142.51753c0,0 8.31179,-36.38326 24.40231,-45.20292c20.37612,-11.16871 48.05817,-2.74729 69.56196,-2.74729c36.54561,0 31.74903,47.95021 31.74903,47.95021z" data-paper-data="{&quot;origPos&quot;:null}" fill="#998c76" stroke="none" stroke-width="0" stroke-linecap="butt"/><path d="M200.48523,151.91752c0,0 8.31179,-36.38326 24.40231,-45.20292c20.37612,-11.16871 48.05817,-2.74729 69.56196,-2.74729c36.54561,0 31.74904,47.95021 31.74904,47.95021z" data-paper-data="{&quot;origPos&quot;:null}" fill="#776d5b" stroke="none" stroke-width="0" stroke-linecap="butt"/><path d="M267.05409,135.9819c0,0 7.99651,-33.6153 18.33213,-38.16821c13.08842,-5.76554 28.89963,9.57834 41.72823,15.07171c21.80215,9.33595 14.9369,55.21126 14.9369,55.21126z" data-paper-data="{&quot;origPos&quot;:null,&quot;origRot&quot;:0}" fill="#776d5b" stroke="none" stroke-width="0" stroke-linecap="butt"/><path d="M188.64301,110.51753c0,0 8.31179,-36.38326 24.40231,-45.20292c20.37612,-11.16871 48.05817,-2.74729 69.56197,-2.74729c36.54561,0 31.74903,47.95021 31.74903,47.95021z" data-paper-data="{&quot;origPos&quot;:null}" fill="#998c76" stroke="none" stroke-width="0" stroke-linecap="butt"/><path d="M160.03245,119.91752c0,0 8.31179,-36.38326 24.40231,-45.20292c20.37612,-11.16871 48.05817,-2.74729 69.56197,-2.74729c36.54561,0 31.74903,47.95021 31.74903,47.95021z" data-paper-data="{&quot;origPos&quot;:null}" fill="#776d5b" stroke="none" stroke-width="0" stroke-linecap="butt"/><path d="M226.6013,103.98191c0,0 7.99651,-33.6153 18.33213,-38.16821c13.08842,-5.76554 28.89963,9.57834 41.72824,15.07171c21.80216,9.33595 14.9369,55.21126 14.9369,55.21126z" data-paper-data="{&quot;origPos&quot;:null,&quot;origRot&quot;:0}" fill="#776d5b" stroke="none" stroke-width="0" stroke-linecap="butt"/><path d="M237.37023,134.51753c0,0 8.31179,-36.38326 24.40231,-45.20292c20.37612,-11.16871 48.05817,-2.74729 69.56196,-2.74729c36.54561,0 31.74903,47.95021 31.74903,47.95021z" data-paper-data="{&quot;origPos&quot;:null}" fill="#998c76" stroke="none" stroke-width="0" stroke-linecap="butt"/><path d="M213.35657,143.91752c0,0 8.31179,-36.38326 24.40231,-45.20292c20.37612,-11.16871 48.05817,-2.74729 69.56196,-2.74729c36.54561,0 31.74904,47.95021 31.74904,47.95021z" data-paper-data="{&quot;origPos&quot;:null}" fill="#776d5b" stroke="none" stroke-width="0" stroke-linecap="butt"/><path d="M492.54114,110.01145c0.7256,-2.22632 3.49546,-10.72489 5.73274,-17.58937c0.5442,-1.66974 2.96868,-2.71365 4.1746,-2.32062c3.61776,1.1791 35.89181,11.69788 35.89181,11.69788l-7.43706,22.81863c0,0 -32.19285,-10.49231 -36.3672,-11.85282c-1.39145,-0.4535 -2.23674,-2.01162 -1.99488,-2.75372z" data-paper-data="{&quot;origPos&quot;:null,&quot;origRot&quot;:0}" fill="#36312b" stroke="none" stroke-width="0" stroke-linecap="butt"/><path d="M520.99127,116.1503l-9.29633,28.5233l-13.31087,-4.33828l9.29633,-28.5233z" data-paper-data="{&quot;origPos&quot;:null,&quot;index&quot;:null,&quot;origRot&quot;:0}" fill="#585146" stroke="none" stroke-width="0" stroke-linecap="butt"/><path d="M521.9209,113.29798l-2.63396,8.0816l-13.31087,-4.33828l2.63396,-8.0816z" data-paper-data="{&quot;origPos&quot;:null,&quot;index&quot;:null,&quot;origRot&quot;:0}" fill="#3d3831" stroke="none" stroke-width="0" stroke-linecap="butt"/><path d="M493.03668,109.14287c0.7256,-2.22632 3.49546,-10.72489 5.73274,-17.58937c0.5442,-1.66974 2.96868,-2.71365 4.1746,-2.32062c3.61776,1.1791 35.89181,11.69788 35.89181,11.69788l11.0185,16.21242l-18.45556,6.60621c0,0 -32.19285,-10.49231 -36.3672,-11.85282c-1.39145,-0.4535 -2.23674,-2.01162 -1.99488,-2.75372z" data-paper-data="{&quot;origPos&quot;:null,&quot;origRot&quot;:0}" fill="#817666" stroke="none" stroke-width="0" stroke-linecap="butt"/><path d="M493.03668,109.14287c0.7256,-2.22632 3.49546,-10.72489 5.73274,-17.58937c0.5442,-1.66974 2.96868,-2.71365 4.1746,-2.32062c3.61776,1.1791 35.89181,11.69788 35.89181,11.69788l-7.43706,22.81863c0,0 -32.19285,-10.49231 -36.3672,-11.85282c-1.39145,-0.4535 -2.23674,-2.01162 -1.99488,-2.75372z" data-paper-data="{&quot;origPos&quot;:null,&quot;origRot&quot;:0}" fill="#776d5e" stroke="none" stroke-width="0" stroke-linecap="butt"/><path d="M505.91266,107.55467l2.26065,-16.61744l5.70466,1.85927z" data-paper-data="{&quot;origPos&quot;:null,&quot;origRot&quot;:0}" fill="#585146" stroke="none" stroke-width="0" stroke-linecap="butt"/><path d="M513.14208,112.80327l3.74667,-19.02549l4.43696,1.4461z" data-paper-data="{&quot;origPos&quot;:null,&quot;origRot&quot;:0}" fill="#585146" stroke="none" stroke-width="0" stroke-linecap="butt"/><path d="M525.53737,110.26957l1.17608,-13.28973l5.70466,1.85927z" data-paper-data="{&quot;origPos&quot;:null,&quot;origRot&quot;:0}" fill="#585146" stroke="none" stroke-width="0" stroke-linecap="butt"/><path d="M523.89282,100.79352l-3.74666,19.0255l-4.43696,-1.4461z" data-paper-data="{&quot;origPos&quot;:null,&quot;index&quot;:null,&quot;origRot&quot;:0}" fill="#585146" stroke="none" stroke-width="0" stroke-linecap="butt"/><path d="M1209.81667,214.2318c0.70458,-2.23306 3.39424,-10.75736 5.56672,-17.64261c0.52844,-1.67479 2.94297,-2.7415 4.15254,-2.35985c3.62872,1.14496 36.00046,11.35913 36.00046,11.35913l-7.22169,22.88771c0,0 -32.2903,-10.18848 -36.47728,-11.50958c-1.39566,-0.44037 -2.2556,-1.99045 -2.02074,-2.7348z" data-paper-data="{&quot;origPos&quot;:null}" fill="#36312b" stroke="none" stroke-width="0" stroke-linecap="butt"/><path d="M1238.32338,220.10228l-9.02713,28.60963l-13.35116,-4.21265l9.02713,-28.60963z" data-paper-data="{&quot;origPos&quot;:null,&quot;index&quot;:null}" fill="#585146" stroke="none" stroke-width="0" stroke-linecap="butt"/><path d="M1239.22609,217.24133l-2.55768,8.10607l-13.35116,-4.21265l2.55768,-8.10607z" data-paper-data="{&quot;origPos&quot;:null,&quot;index&quot;:null}" fill="#3d3831" stroke="none" stroke-width="0" stroke-linecap="butt"/><path d="M1210.304,213.35858c0.70458,-2.23306 3.39424,-10.75735 5.56672,-17.64261c0.52844,-1.67479 2.94298,-2.7415 4.15254,-2.35986c3.62872,1.14496 36.00046,11.35913 36.00046,11.35913l11.17079,16.10787l-18.39249,6.77983c0,0 -32.29029,-10.18847 -36.47728,-11.50957c-1.39566,-0.44037 -2.2556,-1.99045 -2.02075,-2.7348z" data-paper-data="{&quot;origPos&quot;:null}" fill="#817666" stroke="none" stroke-width="0" stroke-linecap="butt"/><path d="M1210.304,213.35858c0.70458,-2.23306 3.39424,-10.75735 5.56672,-17.64261c0.52844,-1.67479 2.94298,-2.7415 4.15254,-2.35986c3.62872,1.14496 36.00046,11.35913 36.00046,11.35913l-7.2217,22.8877c0,0 -32.29029,-10.18847 -36.47728,-11.50957c-1.39566,-0.44037 -2.2556,-1.99045 -2.02075,-2.7348z" data-paper-data="{&quot;origPos&quot;:null}" fill="#776d5e" stroke="none" stroke-width="0" stroke-linecap="butt"/><path d="M1223.16444,211.64913l2.10396,-16.63801l5.72193,1.80543z" data-paper-data="{&quot;origPos&quot;:null}" fill="#585146" stroke="none" stroke-width="0" stroke-linecap="butt"/><path d="M1230.443,216.82937l3.56721,-19.05996l4.45039,1.40422z" data-paper-data="{&quot;origPos&quot;:null}" fill="#585146" stroke="none" stroke-width="0" stroke-linecap="butt"/><path d="M1242.81387,214.17895l1.05078,-13.30022l5.72193,1.80543z" data-paper-data="{&quot;origPos&quot;:null}" fill="#585146" stroke="none" stroke-width="0" stroke-linecap="butt"/><path d="M1241.08009,204.71882l-3.5672,19.05996l-4.45039,-1.40422z" data-paper-data="{&quot;origPos&quot;:null,&quot;index&quot;:null}" fill="#585146" stroke="none" stroke-width="0" stroke-linecap="butt"/><path d="M775.5,232.80001c0,-1.38071 1.11929,-2.5 2.5,-2.5c1.38071,0 2.5,1.11929 2.5,2.5c0,1.38071 -1.11929,2.5 -2.5,2.5c-1.38071,0 -2.5,-1.11929 -2.5,-2.5z" data-paper-data="{&quot;origPos&quot;:null}" fill="#9966ff" stroke="none" stroke-width="0.5" stroke-linecap="butt"/></g></g></svg>