<svg version="1.1" xmlns="http://www.w3.org/2000/svg" xmlns:xlink="http://www.w3.org/1999/xlink" width="434.96508" height="851.66892"><defs><linearGradient x1="294.74515" y1="326.21826" x2="274.25274" y2="345.78837" gradientUnits="userSpaceOnUse" id="color-1"><stop offset="0" stop-color="#8e8e8e"/><stop offset="1" stop-color="#818181"/></linearGradient><linearGradient x1="344.05496" y1="341.6187" x2="369.742" y2="373.4063" gradientUnits="userSpaceOnUse" id="color-2"><stop offset="0" stop-color="#8e8e8e"/><stop offset="1" stop-color="#818181"/></linearGradient><linearGradient x1="224.24331" y1="373.32634" x2="220.75482" y2="405.05724" gradientUnits="userSpaceOnUse" id="color-3"><stop offset="0" stop-color="#8e8e8e"/><stop offset="1" stop-color="#818181"/></linearGradient><linearGradient x1="460.74515" y1="319.21826" x2="440.25274" y2="338.78837" gradientUnits="userSpaceOnUse" id="color-4"><stop offset="0" stop-color="#8e8e8e"/><stop offset="1" stop-color="#818181"/></linearGradient><linearGradient x1="297.74515" y1="2.51282" x2="277.25274" y2="-17.05729" gradientUnits="userSpaceOnUse" id="color-5"><stop offset="0" stop-color="#8e8e8e"/><stop offset="1" stop-color="#818181"/></linearGradient><linearGradient x1="347.05496" y1="-12.88762" x2="372.742" y2="-44.67522" gradientUnits="userSpaceOnUse" id="color-6"><stop offset="0" stop-color="#8e8e8e"/><stop offset="1" stop-color="#818181"/></linearGradient><linearGradient x1="227.24331" y1="-44.59526" x2="223.75482" y2="-76.32616" gradientUnits="userSpaceOnUse" id="color-7"><stop offset="0" stop-color="#8e8e8e"/><stop offset="1" stop-color="#818181"/></linearGradient><linearGradient x1="463.74515" y1="9.51282" x2="443.25274" y2="-10.05729" gradientUnits="userSpaceOnUse" id="color-8"><stop offset="0" stop-color="#8e8e8e"/><stop offset="1" stop-color="#818181"/></linearGradient></defs><g transform="translate(-119.47954,261.46892)"><g data-paper-data="{&quot;isPaintingLayer&quot;:true}" fill="none" fill-rule="nonzero" stroke="none" stroke-width="none" stroke-linecap="butt" stroke-linejoin="miter" stroke-miterlimit="10" stroke-dasharray="" stroke-dashoffset="0" font-family="none" font-weight="none" font-size="none" text-anchor="none" style="mix-blend-mode: normal"><path d="M159.73832,361.80003v-80h358.27103v80z" data-paper-data="{&quot;origPos&quot;:null}" fill="#847968" stroke-width="NaN"/><path d="M156.24299,347.80003v-40h361.76636v40z" data-paper-data="{&quot;origPos&quot;:null}" fill="#7c7262" stroke-width="0"/><path d="M154.49533,590.19999v-252h361.76636v252z" data-paper-data="{&quot;origPos&quot;:null}" fill="#786e5f" stroke-width="0"/><path d="M159.73832,289.80008v-9h365.26168v9z" data-paper-data="{&quot;origPos&quot;:null}" fill="#61584c" stroke-width="0"/><path d="M151,284.80008v-19h365.26168v19z" data-paper-data="{&quot;origPos&quot;:null}" fill="#91b782" stroke-width="0"/><path d="M152.74767,284.80008v-12h365.26168v12z" data-paper-data="{&quot;origPos&quot;:null}" fill="#8aaf7c" stroke-width="0"/><g data-paper-data="{&quot;origPos&quot;:null}"><path d="M267.55047,337.70852l8.28566,-14.35289l22.20779,6.88753l-7.94537,21.95397l-16.06516,-1.37884z" data-paper-data="{&quot;origPos&quot;:null,&quot;origRot&quot;:0}" fill="#534c42" stroke-width="0"/><path d="M270.45633,336.14009l7.43586,-12.88079l19.93006,6.18112l-7.13047,19.70227l-14.41745,-1.23742z" data-paper-data="{&quot;origPos&quot;:null,&quot;origRot&quot;:0}" fill="url(#color-1)" stroke-width="NaN"/></g><g data-paper-data="{&quot;origPos&quot;:null,&quot;origRot&quot;:0}" stroke-width="0"><path d="M151.3869,551.64005l-26.91969,-289.07985l36.82385,-3.42911l26.91969,289.07986z" data-paper-data="{&quot;origPos&quot;:null}" fill="#d3bb76"/><path d="M131.58696,337.42251l-5.97821,-64.19759l37.17454,-3.46177l5.97821,64.19759z" data-paper-data="{&quot;origPos&quot;:null}" fill="#b9a568"/><path d="M125.49103,333.90873l-6.01149,-64.55504l47.755,-4.44704l6.01149,64.55504z" data-paper-data="{&quot;origPos&quot;:null}" fill="#e7cd81"/><path d="M131.86293,323.34989l-4.39378,-47.18307l5.14724,-0.47932l4.39378,47.18308z" data-paper-data="{&quot;origPos&quot;:null}" fill="#b9a568"/><path d="M131.73509,321.97722l-4.39378,-47.18307l5.14724,-0.47932l4.39378,47.18308z" data-paper-data="{&quot;origPos&quot;:null}" fill="#d3bb76"/><path d="M127.98103,279.80538l-0.46334,-4.97567l24.87835,-2.31672l0.46334,4.97567z" data-paper-data="{&quot;origPos&quot;:null}" fill="#d3bb76"/><path d="M150.90281,312.23144l-3.62687,-38.94749l5.14725,-0.47932l3.62687,38.94749z" data-paper-data="{&quot;origPos&quot;:null}" fill="#d3bb76"/><path d="M140.96745,313.32966l-2.52443,-27.10882l5.14725,-0.47932l2.52443,27.10882z" data-paper-data="{&quot;origPos&quot;:null}" fill="#d3bb76"/><path d="M141.14381,313.36521l-0.51128,-5.4904l14.75544,-1.37406l0.51128,5.4904z" data-paper-data="{&quot;origPos&quot;:null}" fill="#d3bb76"/><path d="M131.94759,324.25919l-0.46334,-4.97567l33.80024,-3.14755l0.46334,4.97567z" data-paper-data="{&quot;origPos&quot;:null}" fill="#d3bb76"/><path d="M161.45367,321.45958l-4.58551,-49.24198l5.14724,-0.47932l4.58551,49.24198z" data-paper-data="{&quot;origPos&quot;:null}" fill="#d3bb76"/><path d="M143.91313,459.00336l-5.97821,-64.19759l37.17454,-3.46177l5.97821,64.19759z" data-paper-data="{&quot;origPos&quot;:null}" fill="#b9a568"/><path d="M137.81721,455.48963l-6.01149,-64.55504l47.755,-4.44704l6.01149,64.55504z" data-paper-data="{&quot;origPos&quot;:null}" fill="#e7cd81"/><path d="M144.18911,444.93075l-4.39378,-47.18307l5.14724,-0.47932l4.39378,47.18308z" data-paper-data="{&quot;origPos&quot;:null}" fill="#b9a568"/><path d="M144.06129,443.55814l-4.39378,-47.18307l5.14724,-0.47932l4.39378,47.18308z" data-paper-data="{&quot;origPos&quot;:null}" fill="#d3bb76"/><path d="M140.30721,401.38624l-0.46334,-4.97567l24.87835,-2.31672l0.46334,4.97567z" data-paper-data="{&quot;origPos&quot;:null}" fill="#d3bb76"/><path d="M163.22899,433.81233l-3.62687,-38.94749l5.14725,-0.47932l3.62687,38.94749z" data-paper-data="{&quot;origPos&quot;:null}" fill="#d3bb76"/><path d="M153.29362,434.9106l-2.52443,-27.10882l5.14725,-0.47932l2.52443,27.10882z" data-paper-data="{&quot;origPos&quot;:null}" fill="#d3bb76"/><path d="M153.46998,434.9461l-0.51128,-5.4904l14.75544,-1.37406l0.51128,5.4904z" data-paper-data="{&quot;origPos&quot;:null}" fill="#d3bb76"/><path d="M144.27377,445.84009l-0.46334,-4.97567l33.80024,-3.14755l0.46334,4.97567z" data-paper-data="{&quot;origPos&quot;:null}" fill="#d3bb76"/><path d="M173.77985,443.04051l-4.58551,-49.24198l5.14724,-0.47932l4.58551,49.24198z" data-paper-data="{&quot;origPos&quot;:null}" fill="#d3bb76"/><path d="M148.77335,506.54921l-3.71999,-39.9475l36.60263,-3.40851l3.71999,39.9475z" data-paper-data="{&quot;origPos&quot;:null}" fill="#b9a568"/><path d="M142.68962,503.16642l-3.45098,-37.05868l47.755,-4.44704l3.45098,37.05868z" data-paper-data="{&quot;origPos&quot;:null}" fill="#e7cd81"/><path d="M148.12976,496.5403l-2.39661,-25.73623l5.14725,-0.47932l2.39661,25.73623z" data-paper-data="{&quot;origPos&quot;:null}" fill="#d3bb76"/><path d="M178.12874,493.45828l-2.39661,-25.73623l5.14724,-0.47932l2.39661,25.73623z" data-paper-data="{&quot;origPos&quot;:null}" fill="#d3bb76"/><path d="M157.25379,495.40219l-2.39661,-25.73623l5.14724,-0.47932l2.39661,25.73623z" data-paper-data="{&quot;origPos&quot;:null}" fill="#d3bb76"/><path d="M169.26403,494.28376l-2.39661,-25.73623l5.14724,-0.47932l2.39661,25.73623z" data-paper-data="{&quot;origPos&quot;:null}" fill="#d3bb76"/><path d="M158.6164,495.0638l-0.53258,-5.71916l12.86812,-1.1983l0.53258,5.71916z" data-paper-data="{&quot;origPos&quot;:null}" fill="#d3bb76"/><path d="M157.63687,475.25281l-0.53258,-5.71917l12.86812,-1.1983l0.53258,5.71917z" data-paper-data="{&quot;origPos&quot;:null}" fill="#d3bb76"/><path d="M136.44718,384.96835l-3.71999,-39.9475l36.60263,-3.40851l3.71999,39.9475z" data-paper-data="{&quot;origPos&quot;:null}" fill="#b9a568"/><path d="M130.36344,381.58547l-3.45098,-37.05868l47.755,-4.44704l3.45098,37.05868z" data-paper-data="{&quot;origPos&quot;:null}" fill="#e7cd81"/><path d="M135.80359,374.9594l-2.39661,-25.73623l5.14725,-0.47932l2.39661,25.73623z" data-paper-data="{&quot;origPos&quot;:null}" fill="#d3bb76"/><path d="M165.80256,371.8773l-2.39661,-25.73623l5.14724,-0.47932l2.39661,25.73623z" data-paper-data="{&quot;origPos&quot;:null}" fill="#d3bb76"/><path d="M144.92761,373.82124l-2.39661,-25.73623l5.14724,-0.47932l2.39661,25.73623z" data-paper-data="{&quot;origPos&quot;:null}" fill="#d3bb76"/><path d="M156.93785,372.70286l-2.39661,-25.73623l5.14724,-0.47932l2.39661,25.73623z" data-paper-data="{&quot;origPos&quot;:null}" fill="#d3bb76"/><path d="M146.29021,373.48286l-0.53258,-5.71916l12.86812,-1.1983l0.53258,5.71916z" data-paper-data="{&quot;origPos&quot;:null}" fill="#d3bb76"/><path d="M145.3107,353.67188l-0.53258,-5.71917l12.86812,-1.1983l0.53258,5.71917z" data-paper-data="{&quot;origPos&quot;:null}" fill="#d3bb76"/></g><g data-paper-data="{&quot;origPos&quot;:null,&quot;origRot&quot;:0}"><path d="M357.32945,382.07696l-19.64286,-13.62024l12.54682,-31.0999l30.60898,14.03708l-3.89667,22.92723z" data-paper-data="{&quot;origPos&quot;:null,&quot;origRot&quot;:0}" fill="#534c42" stroke-width="0"/><path d="M355.42132,377.71325l-17.6282,-12.22331l11.25997,-27.91015l27.46958,12.59739l-3.49701,20.57572z" data-paper-data="{&quot;origPos&quot;:null,&quot;origRot&quot;:0}" fill="url(#color-2)" stroke-width="NaN"/></g><g data-paper-data="{&quot;origPos&quot;:null,&quot;origRot&quot;:0}"><path d="M209.11823,402.94692l-3.2574,-18.38386l24.14474,-10.15653l9.06025,24.69257l-14.8544,10.4551z" data-paper-data="{&quot;origPos&quot;:null,&quot;origRot&quot;:0}" fill="#534c42" stroke-width="0"/><path d="M210.48747,399.48803l-2.92329,-16.49834l21.66835,-9.11482l8.13097,22.16l-13.33088,9.38278z" data-paper-data="{&quot;origPos&quot;:null,&quot;origRot&quot;:0}" fill="url(#color-3)" stroke-width="NaN"/></g><g data-paper-data="{&quot;origPos&quot;:null,&quot;origRot&quot;:0,&quot;index&quot;:null}" stroke-width="0"><path d="M482.71341,548.21095l26.91969,-289.07986l36.82385,3.42911l-26.91969,289.07985z" data-paper-data="{&quot;origPos&quot;:null}" fill="#d3bb76"/><path d="M502.16266,333.96074l5.97821,-64.19759l37.17454,3.46177l-5.97821,64.19759z" data-paper-data="{&quot;origPos&quot;:null}" fill="#b9a568"/><path d="M497.67813,329.46169l6.01149,-64.55504l47.755,4.44704l-6.01149,64.55504z" data-paper-data="{&quot;origPos&quot;:null}" fill="#e7cd81"/><path d="M533.91399,322.87058l4.39378,-47.18308l5.14724,0.47932l-4.39378,47.18307z" data-paper-data="{&quot;origPos&quot;:null}" fill="#b9a568"/><path d="M534.04183,321.49791l4.39378,-47.18308l5.14724,0.47932l-4.39378,47.18307z" data-paper-data="{&quot;origPos&quot;:null}" fill="#d3bb76"/><path d="M518.06478,277.48866l0.46334,-4.97567l24.87835,2.31672l-0.46334,4.97567z" data-paper-data="{&quot;origPos&quot;:null}" fill="#d3bb76"/><path d="M514.8741,311.75212l3.62687,-38.94749l5.14725,0.47932l-3.62687,38.94749z" data-paper-data="{&quot;origPos&quot;:null}" fill="#d3bb76"/><path d="M524.80946,312.85034l2.52443,-27.10882l5.14725,0.47932l-2.52443,27.10882z" data-paper-data="{&quot;origPos&quot;:null}" fill="#d3bb76"/><path d="M515.02491,311.99115l0.51128,-5.4904l14.75544,1.37406l-0.51128,5.4904z" data-paper-data="{&quot;origPos&quot;:null}" fill="#d3bb76"/><path d="M505.17633,321.11164l0.46334,-4.97567l33.80024,3.14755l-0.46334,4.97567z" data-paper-data="{&quot;origPos&quot;:null}" fill="#d3bb76"/><path d="M504.32325,320.98026l4.58551,-49.24198l5.14724,0.47932l-4.58551,49.24198z" data-paper-data="{&quot;origPos&quot;:null}" fill="#d3bb76"/><path d="M489.83649,455.54159l5.97821,-64.19759l37.17454,3.46177l-5.97821,64.19759z" data-paper-data="{&quot;origPos&quot;:null}" fill="#b9a568"/><path d="M485.35195,451.04259l6.01149,-64.55504l47.755,4.44704l-6.01149,64.55504z" data-paper-data="{&quot;origPos&quot;:null}" fill="#e7cd81"/><path d="M521.58781,444.45144l4.39378,-47.18308l5.14724,0.47932l-4.39378,47.18307z" data-paper-data="{&quot;origPos&quot;:null}" fill="#b9a568"/><path d="M521.71563,443.07883l4.39378,-47.18308l5.14724,0.47932l-4.39378,47.18307z" data-paper-data="{&quot;origPos&quot;:null}" fill="#d3bb76"/><path d="M505.7386,399.06952l0.46334,-4.97567l24.87835,2.31672l-0.46334,4.97567z" data-paper-data="{&quot;origPos&quot;:null}" fill="#d3bb76"/><path d="M502.54792,433.33301l3.62687,-38.94749l5.14725,0.47932l-3.62687,38.94749z" data-paper-data="{&quot;origPos&quot;:null}" fill="#d3bb76"/><path d="M512.48329,434.43128l2.52443,-27.10882l5.14725,0.47932l-2.52443,27.10882z" data-paper-data="{&quot;origPos&quot;:null}" fill="#d3bb76"/><path d="M502.69874,433.57204l0.51128,-5.4904l14.75544,1.37406l-0.51128,5.4904z" data-paper-data="{&quot;origPos&quot;:null}" fill="#d3bb76"/><path d="M492.85015,442.69254l0.46334,-4.97567l33.80024,3.14755l-0.46334,4.97567z" data-paper-data="{&quot;origPos&quot;:null}" fill="#d3bb76"/><path d="M491.99707,442.56119l4.58551,-49.24198l5.14724,0.47932l-4.58551,49.24198z" data-paper-data="{&quot;origPos&quot;:null}" fill="#d3bb76"/><path d="M485.54818,503.1407l3.71999,-39.9475l36.60263,3.40851l-3.71999,39.9475z" data-paper-data="{&quot;origPos&quot;:null}" fill="#b9a568"/><path d="M480.47954,498.71938l3.45098,-37.05868l47.755,4.44704l-3.45098,37.05868z" data-paper-data="{&quot;origPos&quot;:null}" fill="#e7cd81"/><path d="M517.64715,496.06098l2.39661,-25.73623l5.14725,0.47932l-2.39661,25.73623z" data-paper-data="{&quot;origPos&quot;:null}" fill="#d3bb76"/><path d="M487.64818,492.97896l2.39661,-25.73623l5.14724,0.47932l-2.39661,25.73623z" data-paper-data="{&quot;origPos&quot;:null}" fill="#d3bb76"/><path d="M508.52313,494.92287l2.39661,-25.73623l5.14724,0.47932l-2.39661,25.73623z" data-paper-data="{&quot;origPos&quot;:null}" fill="#d3bb76"/><path d="M496.51289,493.80444l2.39661,-25.73623l5.14724,0.47932l-2.39661,25.73623z" data-paper-data="{&quot;origPos&quot;:null}" fill="#d3bb76"/><path d="M499.43964,493.8655l0.53258,-5.71916l12.86812,1.1983l-0.53258,5.71916z" data-paper-data="{&quot;origPos&quot;:null}" fill="#d3bb76"/><path d="M500.41917,474.05451l0.53258,-5.71917l12.86812,1.1983l-0.53258,5.71917z" data-paper-data="{&quot;origPos&quot;:null}" fill="#d3bb76"/><path d="M497.87435,381.55984l3.71999,-39.9475l36.60263,3.40851l-3.71999,39.9475z" data-paper-data="{&quot;origPos&quot;:null}" fill="#b9a568"/><path d="M492.80572,377.13843l3.45098,-37.05868l47.755,4.44704l-3.45098,37.05868z" data-paper-data="{&quot;origPos&quot;:null}" fill="#e7cd81"/><path d="M529.97332,374.48008l2.39661,-25.73623l5.14725,0.47932l-2.39661,25.73623z" data-paper-data="{&quot;origPos&quot;:null}" fill="#d3bb76"/><path d="M499.97436,371.39798l2.39661,-25.73623l5.14724,0.47932l-2.39661,25.73623z" data-paper-data="{&quot;origPos&quot;:null}" fill="#d3bb76"/><path d="M520.84931,373.34192l2.39661,-25.73623l5.14724,0.47932l-2.39661,25.73623z" data-paper-data="{&quot;origPos&quot;:null}" fill="#d3bb76"/><path d="M508.83907,372.22354l2.39661,-25.73623l5.14724,0.47932l-2.39661,25.73623z" data-paper-data="{&quot;origPos&quot;:null}" fill="#d3bb76"/><path d="M511.76583,372.28456l0.53258,-5.71916l12.86812,1.1983l-0.53258,5.71916z" data-paper-data="{&quot;origPos&quot;:null}" fill="#d3bb76"/><path d="M512.74534,352.47358l0.53258,-5.71917l12.86812,1.1983l-0.53258,5.71917z" data-paper-data="{&quot;origPos&quot;:null}" fill="#d3bb76"/></g><g data-paper-data="{&quot;origPos&quot;:null}"><path d="M433.55047,330.70851l8.28566,-14.35289l22.20779,6.88753l-7.94537,21.95397l-16.06516,-1.37884z" data-paper-data="{&quot;origPos&quot;:null,&quot;origRot&quot;:0}" fill="#534c42" stroke-width="0"/><path d="M436.45633,329.14009l7.43586,-12.88079l19.93006,6.18112l-7.13047,19.70227l-14.41745,-1.23742z" data-paper-data="{&quot;origPos&quot;:null,&quot;origRot&quot;:0}" fill="url(#color-4)" stroke-width="NaN"/></g><path d="M521.00935,-33.06895v80h-358.27103v-80z" data-paper-data="{&quot;origPos&quot;:null,&quot;index&quot;:null}" fill="#847968" stroke-width="NaN"/><path d="M521.00935,-19.06895v40h-361.76636v-40z" data-paper-data="{&quot;origPos&quot;:null,&quot;index&quot;:null}" fill="#7c7262" stroke-width="0"/><path d="M519.26169,-261.46892v252h-361.76636v-252z" data-paper-data="{&quot;origPos&quot;:null,&quot;index&quot;:null}" fill="#786e5f" stroke-width="0"/><path d="M528,38.93099v9h-365.26168v-9z" data-paper-data="{&quot;origPos&quot;:null,&quot;index&quot;:null}" fill="#61584c" stroke-width="0"/><path d="M519.26168,43.93099v19h-365.26168v-19z" data-paper-data="{&quot;origPos&quot;:null,&quot;index&quot;:null}" fill="#91b782" stroke-width="0"/><path d="M521.00935,43.93099v12h-365.26168v-12z" data-paper-data="{&quot;origPos&quot;:null,&quot;index&quot;:null}" fill="#8aaf7c" stroke-width="0"/><g data-paper-data="{&quot;origPos&quot;:null,&quot;index&quot;:null}"><path d="M277.03339,-22.08721l16.06516,-1.37884l7.94537,21.95397l-22.20779,6.88753l-8.28566,-14.35289z" data-paper-data="{&quot;origPos&quot;:null,&quot;origRot&quot;:0}" fill="#534c42" stroke-width="0"/><path d="M279.27433,-19.17419l14.41745,-1.23742l7.13047,19.70227l-19.93006,6.18112l-7.43586,-12.88079z" data-paper-data="{&quot;origPos&quot;:null,&quot;origRot&quot;:0}" fill="url(#color-5)" stroke-width="NaN"/></g><g data-paper-data="{&quot;origPos&quot;:null,&quot;origRot&quot;:0,&quot;index&quot;:null}" stroke-width="0"><path d="M191.21075,-219.47987l-26.91969,289.07986l-36.82385,-3.42911l26.91969,-289.07985z" data-paper-data="{&quot;origPos&quot;:null}" fill="#d3bb76"/><path d="M171.7615,-5.22966l-5.97821,64.19759l-37.17454,-3.46177l5.97821,-64.19759z" data-paper-data="{&quot;origPos&quot;:null}" fill="#b9a568"/><path d="M176.24603,-0.73061l-6.01149,64.55504l-47.755,-4.44704l6.01149,-64.55504z" data-paper-data="{&quot;origPos&quot;:null}" fill="#e7cd81"/><path d="M140.01017,5.8605l-4.39378,47.18308l-5.14724,-0.47932l4.39378,-47.18307z" data-paper-data="{&quot;origPos&quot;:null}" fill="#b9a568"/><path d="M139.88233,7.23317l-4.39378,47.18308l-5.14724,-0.47932l4.39378,-47.18307z" data-paper-data="{&quot;origPos&quot;:null}" fill="#d3bb76"/><path d="M155.85938,51.24242l-0.46334,4.97567l-24.87835,-2.31672l0.46334,-4.97567z" data-paper-data="{&quot;origPos&quot;:null}" fill="#d3bb76"/><path d="M159.05006,16.97896l-3.62687,38.94749l-5.14725,-0.47932l3.62687,-38.94749z" data-paper-data="{&quot;origPos&quot;:null}" fill="#d3bb76"/><path d="M149.1147,15.88074l-2.52443,27.10882l-5.14725,-0.47932l2.52443,-27.10882z" data-paper-data="{&quot;origPos&quot;:null}" fill="#d3bb76"/><path d="M158.89925,16.73993l-0.51128,5.4904l-14.75544,-1.37406l0.51128,-5.4904z" data-paper-data="{&quot;origPos&quot;:null}" fill="#d3bb76"/><path d="M168.74783,7.61944l-0.46334,4.97567l-33.80024,-3.14755l0.46334,-4.97567z" data-paper-data="{&quot;origPos&quot;:null}" fill="#d3bb76"/><path d="M169.60091,7.75082l-4.58551,49.24198l-5.14724,-0.47932l4.58551,-49.24198z" data-paper-data="{&quot;origPos&quot;:null}" fill="#d3bb76"/><path d="M184.08767,-126.81051l-5.97821,64.19759l-37.17454,-3.46177l5.97821,-64.19759z" data-paper-data="{&quot;origPos&quot;:null}" fill="#b9a568"/><path d="M188.57221,-122.31151l-6.01149,64.55504l-47.755,-4.44704l6.01149,-64.55504z" data-paper-data="{&quot;origPos&quot;:null}" fill="#e7cd81"/><path d="M152.33635,-115.72036l-4.39378,47.18308l-5.14724,-0.47932l4.39378,-47.18307z" data-paper-data="{&quot;origPos&quot;:null}" fill="#b9a568"/><path d="M152.20853,-114.34775l-4.39378,47.18308l-5.14724,-0.47932l4.39378,-47.18307z" data-paper-data="{&quot;origPos&quot;:null}" fill="#d3bb76"/><path d="M168.18556,-70.33844l-0.46334,4.97567l-24.87835,-2.31672l0.46334,-4.97567z" data-paper-data="{&quot;origPos&quot;:null}" fill="#d3bb76"/><path d="M171.37624,-104.60193l-3.62687,38.94749l-5.14725,-0.47932l3.62687,-38.94749z" data-paper-data="{&quot;origPos&quot;:null}" fill="#d3bb76"/><path d="M161.44087,-105.7002l-2.52443,27.10882l-5.14725,-0.47932l2.52443,-27.10882z" data-paper-data="{&quot;origPos&quot;:null}" fill="#d3bb76"/><path d="M171.22542,-104.84096l-0.51128,5.4904l-14.75544,-1.37406l0.51128,-5.4904z" data-paper-data="{&quot;origPos&quot;:null}" fill="#d3bb76"/><path d="M181.07401,-113.96146l-0.46334,4.97567l-33.80024,-3.14755l0.46334,-4.97567z" data-paper-data="{&quot;origPos&quot;:null}" fill="#d3bb76"/><path d="M181.92709,-113.83011l-4.58551,49.24198l-5.14724,-0.47932l4.58551,-49.24198z" data-paper-data="{&quot;origPos&quot;:null}" fill="#d3bb76"/><path d="M188.37598,-174.40962l-3.71999,39.9475l-36.60263,-3.40851l3.71999,-39.9475z" data-paper-data="{&quot;origPos&quot;:null}" fill="#b9a568"/><path d="M193.44462,-169.9883l-3.45098,37.05868l-47.755,-4.44704l3.45098,-37.05868z" data-paper-data="{&quot;origPos&quot;:null}" fill="#e7cd81"/><path d="M156.27701,-167.3299l-2.39661,25.73623l-5.14725,-0.47932l2.39661,-25.73623z" data-paper-data="{&quot;origPos&quot;:null}" fill="#d3bb76"/><path d="M186.27598,-164.24788l-2.39661,25.73623l-5.14724,-0.47932l2.39661,-25.73623z" data-paper-data="{&quot;origPos&quot;:null}" fill="#d3bb76"/><path d="M165.40103,-166.19179l-2.39661,25.73623l-5.14724,-0.47932l2.39661,-25.73623z" data-paper-data="{&quot;origPos&quot;:null}" fill="#d3bb76"/><path d="M177.41127,-165.07336l-2.39661,25.73623l-5.14724,-0.47932l2.39661,-25.73623z" data-paper-data="{&quot;origPos&quot;:null}" fill="#d3bb76"/><path d="M174.48452,-165.13442l-0.53258,5.71916l-12.86812,-1.1983l0.53258,-5.71916z" data-paper-data="{&quot;origPos&quot;:null}" fill="#d3bb76"/><path d="M173.50499,-145.32343l-0.53258,5.71917l-12.86812,-1.1983l0.53258,-5.71917z" data-paper-data="{&quot;origPos&quot;:null}" fill="#d3bb76"/><path d="M176.04981,-52.82876l-3.71999,39.9475l-36.60263,-3.40851l3.71999,-39.9475z" data-paper-data="{&quot;origPos&quot;:null}" fill="#b9a568"/><path d="M181.11844,-48.40735l-3.45098,37.05868l-47.755,-4.44704l3.45098,-37.05868z" data-paper-data="{&quot;origPos&quot;:null}" fill="#e7cd81"/><path d="M143.95084,-45.749l-2.39661,25.73623l-5.14725,-0.47932l2.39661,-25.73623z" data-paper-data="{&quot;origPos&quot;:null}" fill="#d3bb76"/><path d="M173.9498,-42.6669l-2.39661,25.73623l-5.14724,-0.47932l2.39661,-25.73623z" data-paper-data="{&quot;origPos&quot;:null}" fill="#d3bb76"/><path d="M153.07485,-44.61084l-2.39661,25.73623l-5.14724,-0.47932l2.39661,-25.73623z" data-paper-data="{&quot;origPos&quot;:null}" fill="#d3bb76"/><path d="M165.08509,-43.49246l-2.39661,25.73623l-5.14724,-0.47932l2.39661,-25.73623z" data-paper-data="{&quot;origPos&quot;:null}" fill="#d3bb76"/><path d="M162.15833,-43.55348l-0.53258,5.71916l-12.86812,-1.1983l0.53258,-5.71916z" data-paper-data="{&quot;origPos&quot;:null}" fill="#d3bb76"/><path d="M161.17882,-23.7425l-0.53258,5.71917l-12.86812,-1.1983l0.53258,-5.71917z" data-paper-data="{&quot;origPos&quot;:null}" fill="#d3bb76"/></g><g data-paper-data="{&quot;origPos&quot;:null,&quot;origRot&quot;:0,&quot;index&quot;:null}"><path d="M379.94572,-45.59005l3.89667,22.92723l-30.60898,14.03708l-12.54682,-31.0999l19.64286,-13.62024z" data-paper-data="{&quot;origPos&quot;:null,&quot;origRot&quot;:0}" fill="#534c42" stroke-width="0"/><path d="M376.02566,-42.02182l3.49701,20.57572l-27.46958,12.59739l-11.25997,-27.91015l17.6282,-12.22331z" data-paper-data="{&quot;origPos&quot;:null,&quot;origRot&quot;:0}" fill="url(#color-6)" stroke-width="NaN"/></g><g data-paper-data="{&quot;origPos&quot;:null,&quot;origRot&quot;:0,&quot;index&quot;:null}"><path d="M227.21142,-80.82312l14.8544,10.4551l-9.06025,24.69257l-24.14474,-10.15653l3.2574,-18.38386z" data-paper-data="{&quot;origPos&quot;:null,&quot;origRot&quot;:0}" fill="#534c42" stroke-width="0"/><path d="M227.03262,-76.68657l13.33088,9.38278l-8.13097,22.16l-21.66835,-9.11482l2.92329,-16.49834z" data-paper-data="{&quot;origPos&quot;:null,&quot;origRot&quot;:0}" fill="url(#color-7)" stroke-width="NaN"/></g><g data-paper-data="{&quot;origPos&quot;:null,&quot;origRot&quot;:0,&quot;index&quot;:null}" stroke-width="0"><path d="M522.53726,-222.90897l26.91969,289.07985l-36.82385,3.42911l-26.91969,-289.07986z" data-paper-data="{&quot;origPos&quot;:null}" fill="#d3bb76"/><path d="M542.3372,-8.69143l5.97821,64.19759l-37.17454,3.46177l-5.97821,-64.19759z" data-paper-data="{&quot;origPos&quot;:null}" fill="#b9a568"/><path d="M548.43313,-5.17765l6.01149,64.55504l-47.755,4.44704l-6.01149,-64.55504z" data-paper-data="{&quot;origPos&quot;:null}" fill="#e7cd81"/><path d="M542.06123,5.38119l4.39378,47.18307l-5.14724,0.47932l-4.39378,-47.18308z" data-paper-data="{&quot;origPos&quot;:null}" fill="#b9a568"/><path d="M542.18907,6.75386l4.39378,47.18307l-5.14724,0.47932l-4.39378,-47.18308z" data-paper-data="{&quot;origPos&quot;:null}" fill="#d3bb76"/><path d="M545.94313,48.9257l0.46334,4.97567l-24.87835,2.31672l-0.46334,-4.97567z" data-paper-data="{&quot;origPos&quot;:null}" fill="#d3bb76"/><path d="M523.02135,16.49964l3.62687,38.94749l-5.14725,0.47932l-3.62687,-38.94749z" data-paper-data="{&quot;origPos&quot;:null}" fill="#d3bb76"/><path d="M532.95671,15.40142l2.52443,27.10882l-5.14725,0.47932l-2.52443,-27.10882z" data-paper-data="{&quot;origPos&quot;:null}" fill="#d3bb76"/><path d="M532.78035,15.36587l0.51128,5.4904l-14.75544,1.37406l-0.51128,-5.4904z" data-paper-data="{&quot;origPos&quot;:null}" fill="#d3bb76"/><path d="M541.97657,4.47189l0.46334,4.97567l-33.80024,3.14755l-0.46334,-4.97567z" data-paper-data="{&quot;origPos&quot;:null}" fill="#d3bb76"/><path d="M512.47049,7.2715l4.58551,49.24198l-5.14724,0.47932l-4.58551,-49.24198z" data-paper-data="{&quot;origPos&quot;:null}" fill="#d3bb76"/><path d="M530.01103,-130.27228l5.97821,64.19759l-37.17454,3.46177l-5.97821,-64.19759z" data-paper-data="{&quot;origPos&quot;:null}" fill="#b9a568"/><path d="M536.10695,-126.75855l6.01149,64.55504l-47.755,4.44704l-6.01149,-64.55504z" data-paper-data="{&quot;origPos&quot;:null}" fill="#e7cd81"/><path d="M529.73505,-116.19967l4.39378,47.18307l-5.14724,0.47932l-4.39378,-47.18308z" data-paper-data="{&quot;origPos&quot;:null}" fill="#b9a568"/><path d="M529.86287,-114.82706l4.39378,47.18307l-5.14724,0.47932l-4.39378,-47.18308z" data-paper-data="{&quot;origPos&quot;:null}" fill="#d3bb76"/><path d="M533.61695,-72.65516l0.46334,4.97567l-24.87835,2.31672l-0.46334,-4.97567z" data-paper-data="{&quot;origPos&quot;:null}" fill="#d3bb76"/><path d="M510.69517,-105.08125l3.62687,38.94749l-5.14725,0.47932l-3.62687,-38.94749z" data-paper-data="{&quot;origPos&quot;:null}" fill="#d3bb76"/><path d="M520.63054,-106.17952l2.52443,27.10882l-5.14725,0.47932l-2.52443,-27.10882z" data-paper-data="{&quot;origPos&quot;:null}" fill="#d3bb76"/><path d="M520.45418,-106.21502l0.51128,5.4904l-14.75544,1.37406l-0.51128,-5.4904z" data-paper-data="{&quot;origPos&quot;:null}" fill="#d3bb76"/><path d="M529.65039,-117.10901l0.46334,4.97567l-33.80024,3.14755l-0.46334,-4.97567z" data-paper-data="{&quot;origPos&quot;:null}" fill="#d3bb76"/><path d="M500.14431,-114.30943l4.58551,49.24198l-5.14724,0.47932l-4.58551,-49.24198z" data-paper-data="{&quot;origPos&quot;:null}" fill="#d3bb76"/><path d="M525.15081,-177.81813l3.71999,39.9475l-36.60263,3.40851l-3.71999,-39.9475z" data-paper-data="{&quot;origPos&quot;:null}" fill="#b9a568"/><path d="M531.23454,-174.43534l3.45098,37.05868l-47.755,4.44704l-3.45098,-37.05868z" data-paper-data="{&quot;origPos&quot;:null}" fill="#e7cd81"/><path d="M525.7944,-167.80922l2.39661,25.73623l-5.14725,0.47932l-2.39661,-25.73623z" data-paper-data="{&quot;origPos&quot;:null}" fill="#d3bb76"/><path d="M495.79542,-164.7272l2.39661,25.73623l-5.14724,0.47932l-2.39661,-25.73623z" data-paper-data="{&quot;origPos&quot;:null}" fill="#d3bb76"/><path d="M516.67037,-166.67111l2.39661,25.73623l-5.14724,0.47932l-2.39661,-25.73623z" data-paper-data="{&quot;origPos&quot;:null}" fill="#d3bb76"/><path d="M504.66013,-165.55268l2.39661,25.73623l-5.14724,0.47932l-2.39661,-25.73623z" data-paper-data="{&quot;origPos&quot;:null}" fill="#d3bb76"/><path d="M515.30776,-166.33272l0.53258,5.71916l-12.86812,1.1983l-0.53258,-5.71916z" data-paper-data="{&quot;origPos&quot;:null}" fill="#d3bb76"/><path d="M516.28729,-146.52173l0.53258,5.71917l-12.86812,1.1983l-0.53258,-5.71917z" data-paper-data="{&quot;origPos&quot;:null}" fill="#d3bb76"/><path d="M537.47698,-56.23727l3.71999,39.9475l-36.60263,3.40851l-3.71999,-39.9475z" data-paper-data="{&quot;origPos&quot;:null}" fill="#b9a568"/><path d="M543.56072,-52.85439l3.45098,37.05868l-47.755,4.44704l-3.45098,-37.05868z" data-paper-data="{&quot;origPos&quot;:null}" fill="#e7cd81"/><path d="M538.12057,-46.22832l2.39661,25.73623l-5.14725,0.47932l-2.39661,-25.73623z" data-paper-data="{&quot;origPos&quot;:null}" fill="#d3bb76"/><path d="M508.1216,-43.14622l2.39661,25.73623l-5.14724,0.47932l-2.39661,-25.73623z" data-paper-data="{&quot;origPos&quot;:null}" fill="#d3bb76"/><path d="M528.99655,-45.09016l2.39661,25.73623l-5.14724,0.47932l-2.39661,-25.73623z" data-paper-data="{&quot;origPos&quot;:null}" fill="#d3bb76"/><path d="M516.98631,-43.97178l2.39661,25.73623l-5.14724,0.47932l-2.39661,-25.73623z" data-paper-data="{&quot;origPos&quot;:null}" fill="#d3bb76"/><path d="M527.63395,-44.75178l0.53258,5.71916l-12.86812,1.1983l-0.53258,-5.71916z" data-paper-data="{&quot;origPos&quot;:null}" fill="#d3bb76"/><path d="M528.61346,-24.9408l0.53258,5.71917l-12.86812,1.1983l-0.53258,-5.71917z" data-paper-data="{&quot;origPos&quot;:null}" fill="#d3bb76"/></g><g data-paper-data="{&quot;origPos&quot;:null,&quot;index&quot;:null}"><path d="M443.03339,-15.08721l16.06516,-1.37884l7.94537,21.95397l-22.20779,6.88753l-8.28566,-14.35289z" data-paper-data="{&quot;origPos&quot;:null,&quot;origRot&quot;:0}" fill="#534c42" stroke-width="0"/><path d="M445.27433,-12.17419l14.41745,-1.23742l7.13047,19.70227l-19.93006,6.18112l-7.43586,-12.88079z" data-paper-data="{&quot;origPos&quot;:null,&quot;origRot&quot;:0}" fill="url(#color-8)" stroke-width="NaN"/></g></g></g></svg>