<svg version="1.1" xmlns="http://www.w3.org/2000/svg" xmlns:xlink="http://www.w3.org/1999/xlink" width="75.69942" height="541.12128"><g transform="translate(-337.47129,-0.95417)"><g data-paper-data="{&quot;isPaintingLayer&quot;:true}" fill="none" fill-rule="nonzero" stroke="none" stroke-width="0" stroke-linecap="butt" stroke-linejoin="miter" stroke-miterlimit="10" stroke-dasharray="" stroke-dashoffset="0" font-family="none" font-weight="none" font-size="none" text-anchor="none" style="mix-blend-mode: normal"><g data-paper-data="{&quot;origPos&quot;:null,&quot;origRot&quot;:0}"><path d="M352.56171,290.67938l18.73854,-289.72522l36.90606,2.38697l-18.73854,289.72522z" data-paper-data="{&quot;origPos&quot;:null}" fill="#d3bb76"/><path d="M366.59418,76.00686l4.16137,-64.34091l37.25753,2.4097l-4.16137,64.34091z" data-paper-data="{&quot;origPos&quot;:null}" fill="#b9a568"/><path d="M361.12455,71.58081l4.18454,-64.69915l47.86161,3.09554l-4.18454,64.69916z" data-paper-data="{&quot;origPos&quot;:null}" fill="#e7cd81"/><path d="M369.07319,62.15156l3.05847,-47.28841l5.15874,0.33364l-3.05847,47.28842z" data-paper-data="{&quot;origPos&quot;:null}" fill="#b9a568"/><path d="M369.16212,60.7759l3.05847,-47.28841l5.15873,0.33365l-3.05847,47.28842z" data-paper-data="{&quot;origPos&quot;:null}" fill="#d3bb76"/><path d="M372.06671,18.53704l0.32253,-4.98678l24.93389,1.61266l-0.32253,4.98678z" data-paper-data="{&quot;origPos&quot;:null}" fill="#d3bb76"/><path d="M389.62081,54.15596l2.52464,-39.03444l5.15874,0.33365l-2.52463,39.03444z" data-paper-data="{&quot;origPos&quot;:null}" fill="#d3bb76"/><path d="M379.63616,53.68286l1.75723,-27.16934l5.15875,0.33365l-1.75723,27.16933z" data-paper-data="{&quot;origPos&quot;:null}" fill="#d3bb76"/><path d="M379.80478,53.74555l0.35589,-5.50266l14.78838,0.95647l-0.35589,5.50266z" data-paper-data="{&quot;origPos&quot;:null}" fill="#d3bb76"/><path d="M369.01423,63.06295l0.32253,-4.98678l33.87571,2.19099l-0.32253,4.98678z" data-paper-data="{&quot;origPos&quot;:null}" fill="#d3bb76"/><path d="M398.59432,64.92428l3.19193,-49.3519l5.15873,0.33365l-3.19193,49.3519z" data-paper-data="{&quot;origPos&quot;:null}" fill="#d3bb76"/><path d="M359.70506,198.01668l4.16137,-64.34091l37.25754,2.40971l-4.16137,64.34091z" data-paper-data="{&quot;origPos&quot;:null}" fill="#b9a568"/><path d="M354.23541,193.59054l4.18454,-64.69915l47.86161,3.09554l-4.18454,64.69916z" data-paper-data="{&quot;origPos&quot;:null}" fill="#e7cd81"/><path d="M362.18408,184.16135l3.05847,-47.2884l5.15873,0.33365l-3.05847,47.28842z" data-paper-data="{&quot;origPos&quot;:null}" fill="#b9a568"/><path d="M362.27303,182.78569l3.05847,-47.28841l5.15873,0.33365l-3.05847,47.28842z" data-paper-data="{&quot;origPos&quot;:null}" fill="#d3bb76"/><path d="M365.17758,140.54677l0.32253,-4.98679l24.93389,1.61266l-0.32253,4.98679z" data-paper-data="{&quot;origPos&quot;:null}" fill="#d3bb76"/><path d="M382.73173,176.16578l2.52463,-39.03444l5.15874,0.33365l-2.52463,39.03444z" data-paper-data="{&quot;origPos&quot;:null}" fill="#d3bb76"/><path d="M372.74703,175.69266l1.75723,-27.16934l5.15874,0.33365l-1.75723,27.16934z" data-paper-data="{&quot;origPos&quot;:null}" fill="#d3bb76"/><path d="M372.91563,175.75537l0.35589,-5.50266l14.78838,0.95648l-0.35589,5.50266z" data-paper-data="{&quot;origPos&quot;:null}" fill="#d3bb76"/><path d="M362.12508,185.07275l0.32253,-4.98678l33.87571,2.19099l-0.32253,4.98678z" data-paper-data="{&quot;origPos&quot;:null}" fill="#d3bb76"/><path d="M391.70517,186.93411l3.19193,-49.3519l5.15874,0.33365l-3.19194,49.35191z" data-paper-data="{&quot;origPos&quot;:null}" fill="#d3bb76"/><path d="M357.05036,245.73645l2.58945,-40.03669l36.68434,2.37262l-2.58945,40.03669z" data-paper-data="{&quot;origPos&quot;:null}" fill="#b9a568"/><path d="M351.57226,241.44166l2.40219,-37.14141l47.86161,3.09554l-2.40219,37.14141z" data-paper-data="{&quot;origPos&quot;:null}" fill="#e7cd81"/><path d="M357.98401,235.75045l1.66825,-25.7937l5.15874,0.33365l-1.66825,25.7937z" data-paper-data="{&quot;origPos&quot;:null}" fill="#d3bb76"/><path d="M388.09522,237.41011l1.66825,-25.7937l5.15873,0.33364l-1.66825,25.7937z" data-paper-data="{&quot;origPos&quot;:null}" fill="#d3bb76"/><path d="M367.17365,236.05697l1.66825,-25.7937l5.15873,0.33365l-1.66825,25.7937z" data-paper-data="{&quot;origPos&quot;:null}" fill="#d3bb76"/><path d="M379.2107,236.83549l1.66825,-25.79369l5.15873,0.33365l-1.66825,25.79369z" data-paper-data="{&quot;origPos&quot;:null}" fill="#d3bb76"/><path d="M368.57246,235.93641l0.37073,-5.73192l12.89684,0.83413l-0.37073,5.73192z" data-paper-data="{&quot;origPos&quot;:null}" fill="#d3bb76"/><path d="M370.71121,216.21687l0.37072,-5.73194l12.89684,0.83413l-0.37072,5.73194z" data-paper-data="{&quot;origPos&quot;:null}" fill="#d3bb76"/><path d="M363.93949,123.72672l2.58945,-40.03669l36.68434,2.37262l-2.58945,40.03669z" data-paper-data="{&quot;origPos&quot;:null}" fill="#b9a568"/><path d="M358.46141,119.43191l2.40219,-37.14141l47.86161,3.09554l-2.40219,37.14141z" data-paper-data="{&quot;origPos&quot;:null}" fill="#e7cd81"/><path d="M364.87316,113.74069l1.66825,-25.79369l5.15875,0.33365l-1.66825,25.7937z" data-paper-data="{&quot;origPos&quot;:null}" fill="#d3bb76"/><path d="M394.98432,115.40027l1.66825,-25.7937l5.15873,0.33365l-1.66825,25.79369z" data-paper-data="{&quot;origPos&quot;:null}" fill="#d3bb76"/><path d="M374.06278,114.04716l1.66825,-25.79369l5.15873,0.33364l-1.66825,25.7937z" data-paper-data="{&quot;origPos&quot;:null}" fill="#d3bb76"/><path d="M386.09983,114.82566l1.66825,-25.79369l5.15873,0.33365l-1.66825,25.79369z" data-paper-data="{&quot;origPos&quot;:null}" fill="#d3bb76"/><path d="M375.46158,113.92657l0.37073,-5.73193l12.89684,0.83413l-0.37073,5.73192z" data-paper-data="{&quot;origPos&quot;:null}" fill="#d3bb76"/><path d="M377.60036,94.20704l0.37072,-5.73194l12.89684,0.83413l-0.37072,5.73194z" data-paper-data="{&quot;origPos&quot;:null}" fill="#d3bb76"/></g><g data-paper-data="{&quot;origPos&quot;:null,&quot;origRot&quot;:0}"><path d="M338.46076,539.68847l18.73854,-289.72521l36.90606,2.38697l-18.73853,289.72522z" data-paper-data="{&quot;origPos&quot;:null}" fill="#d3bb76"/><path d="M352.49321,325.01594l4.16137,-64.34091l37.25753,2.4097l-4.16137,64.34091z" data-paper-data="{&quot;origPos&quot;:null}" fill="#b9a568"/><path d="M347.0236,320.58989l4.18454,-64.69916l47.86161,3.09554l-4.18454,64.69916z" data-paper-data="{&quot;origPos&quot;:null}" fill="#e7cd81"/><path d="M354.97224,311.16062l3.05847,-47.28841l5.15873,0.33365l-3.05847,47.28842z" data-paper-data="{&quot;origPos&quot;:null}" fill="#b9a568"/><path d="M355.06115,309.78498l3.05847,-47.28841l5.15873,0.33365l-3.05847,47.28842z" data-paper-data="{&quot;origPos&quot;:null}" fill="#d3bb76"/><path d="M357.96573,267.54612l0.32253,-4.98678l24.93389,1.61266l-0.32253,4.98678z" data-paper-data="{&quot;origPos&quot;:null}" fill="#d3bb76"/><path d="M375.51988,303.16504l2.52463,-39.03445l5.15874,0.33365l-2.52463,39.03444z" data-paper-data="{&quot;origPos&quot;:null}" fill="#d3bb76"/><path d="M365.53516,302.69195l1.75723,-27.16934l5.15874,0.33365l-1.75723,27.16934z" data-paper-data="{&quot;origPos&quot;:null}" fill="#d3bb76"/><path d="M365.70382,302.75462l0.35589,-5.50266l14.78838,0.95647l-0.35589,5.50266z" data-paper-data="{&quot;origPos&quot;:null}" fill="#d3bb76"/><path d="M354.91322,312.07203l0.32253,-4.98678l33.87571,2.19098l-0.32253,4.98678z" data-paper-data="{&quot;origPos&quot;:null}" fill="#d3bb76"/><path d="M384.49334,313.93334l3.19193,-49.3519l5.15874,0.33365l-3.19194,49.3519z" data-paper-data="{&quot;origPos&quot;:null}" fill="#d3bb76"/><path d="M345.60406,447.02577l4.16137,-64.34091l37.25753,2.4097l-4.16137,64.34091z" data-paper-data="{&quot;origPos&quot;:null}" fill="#b9a568"/><path d="M340.13448,442.59959l4.18453,-64.69916l47.86161,3.09554l-4.18454,64.69915z" data-paper-data="{&quot;origPos&quot;:null}" fill="#e7cd81"/><path d="M348.08309,433.17043l3.05847,-47.28841l5.15874,0.33365l-3.05847,47.28842z" data-paper-data="{&quot;origPos&quot;:null}" fill="#b9a568"/><path d="M348.17207,431.79475l3.05847,-47.28841l5.15874,0.33365l-3.05847,47.28842z" data-paper-data="{&quot;origPos&quot;:null}" fill="#d3bb76"/><path d="M351.07662,389.55585l0.32253,-4.98678l24.93389,1.61265l-0.32253,4.98678z" data-paper-data="{&quot;origPos&quot;:null}" fill="#d3bb76"/><path d="M368.63072,425.17481l2.52463,-39.03444l5.15874,0.33365l-2.52463,39.03444z" data-paper-data="{&quot;origPos&quot;:null}" fill="#d3bb76"/><path d="M358.64604,424.70174l1.75723,-27.16934l5.15874,0.33365l-1.75723,27.16934z" data-paper-data="{&quot;origPos&quot;:null}" fill="#d3bb76"/><path d="M358.81467,424.76444l0.35589,-5.50266l14.78838,0.95648l-0.35589,5.50266z" data-paper-data="{&quot;origPos&quot;:null}" fill="#d3bb76"/><path d="M348.02407,434.08182l0.32254,-4.98678l33.87571,2.19099l-0.32253,4.98678z" data-paper-data="{&quot;origPos&quot;:null}" fill="#d3bb76"/><path d="M377.60417,435.94317l3.19194,-49.3519l5.15873,0.33365l-3.19193,49.3519z" data-paper-data="{&quot;origPos&quot;:null}" fill="#d3bb76"/><path d="M342.9494,494.74553l2.58945,-40.03669l36.68434,2.37262l-2.58945,40.03669z" data-paper-data="{&quot;origPos&quot;:null}" fill="#b9a568"/><path d="M337.47129,490.45071l2.40219,-37.14141l47.86161,3.09554l-2.40219,37.14141z" data-paper-data="{&quot;origPos&quot;:null}" fill="#e7cd81"/><path d="M343.88306,484.75954l1.66825,-25.79369l5.15874,0.33365l-1.66825,25.79369z" data-paper-data="{&quot;origPos&quot;:null}" fill="#d3bb76"/><path d="M373.99424,486.4192l1.66825,-25.79369l5.15874,0.33364l-1.66825,25.7937z" data-paper-data="{&quot;origPos&quot;:null}" fill="#d3bb76"/><path d="M353.07266,485.06605l1.66825,-25.79369l5.15874,0.33365l-1.66825,25.79369z" data-paper-data="{&quot;origPos&quot;:null}" fill="#d3bb76"/><path d="M365.1097,485.84454l1.66825,-25.7937l5.15873,0.33365l-1.66824,25.7937z" data-paper-data="{&quot;origPos&quot;:null}" fill="#d3bb76"/><path d="M354.47149,484.94549l0.37073,-5.73193l12.89684,0.83414l-0.37073,5.73193z" data-paper-data="{&quot;origPos&quot;:null}" fill="#d3bb76"/><path d="M356.61027,465.22593l0.37072,-5.73193l12.89684,0.83413l-0.37072,5.73194z" data-paper-data="{&quot;origPos&quot;:null}" fill="#d3bb76"/><path d="M349.83853,372.73579l2.58945,-40.03669l36.68434,2.37262l-2.58945,40.03669z" data-paper-data="{&quot;origPos&quot;:null}" fill="#b9a568"/><path d="M344.3604,368.44096l2.40219,-37.14141l47.86161,3.09554l-2.40219,37.14141z" data-paper-data="{&quot;origPos&quot;:null}" fill="#e7cd81"/><path d="M350.7722,362.74974l1.66824,-25.79369l5.15875,0.33365l-1.66825,25.79369z" data-paper-data="{&quot;origPos&quot;:null}" fill="#d3bb76"/><path d="M380.88338,364.40936l1.66825,-25.7937l5.15873,0.33365l-1.66825,25.7937z" data-paper-data="{&quot;origPos&quot;:null}" fill="#d3bb76"/><path d="M359.96181,363.05621l1.66825,-25.7937l5.15873,0.33365l-1.66825,25.79369z" data-paper-data="{&quot;origPos&quot;:null}" fill="#d3bb76"/><path d="M371.99884,363.83474l1.66825,-25.79369l5.15873,0.33364l-1.66825,25.79369z" data-paper-data="{&quot;origPos&quot;:null}" fill="#d3bb76"/><path d="M361.36059,362.93565l0.37073,-5.73192l12.89684,0.83413l-0.37073,5.73192z" data-paper-data="{&quot;origPos&quot;:null}" fill="#d3bb76"/><path d="M363.4994,343.21613l0.37072,-5.73193l12.89684,0.83413l-0.37072,5.73194z" data-paper-data="{&quot;origPos&quot;:null}" fill="#d3bb76"/></g></g></g></svg>