<svg version="1.1" xmlns="http://www.w3.org/2000/svg" xmlns:xlink="http://www.w3.org/1999/xlink" width="573.94757" height="488.13808"><defs><linearGradient x1="549.74518" y1="254.41828" x2="529.25277" y2="273.98839" gradientUnits="userSpaceOnUse" id="color-1"><stop offset="0" stop-color="#8e8e8e"/><stop offset="1" stop-color="#818181"/></linearGradient><linearGradient x1="514.24331" y1="187.32635" x2="510.75482" y2="219.05728" gradientUnits="userSpaceOnUse" id="color-2"><stop offset="0" stop-color="#8e8e8e"/><stop offset="1" stop-color="#818181"/></linearGradient><linearGradient x1="363.42967" y1="244.81831" x2="383.92208" y2="264.3884" gradientUnits="userSpaceOnUse" id="color-3"><stop offset="0" stop-color="#8e8e8e"/><stop offset="1" stop-color="#818181"/></linearGradient><linearGradient x1="290.24815" y1="248.796" x2="289.19694" y2="289.8481" gradientUnits="userSpaceOnUse" id="color-4"><stop offset="0" stop-color="#8e8e8e"/><stop offset="1" stop-color="#818181"/></linearGradient><linearGradient x1="241.17752" y1="314.7546" x2="241.94744" y2="344.82175" gradientUnits="userSpaceOnUse" id="color-5"><stop offset="0" stop-color="#8e8e8e"/><stop offset="1" stop-color="#818181"/></linearGradient><linearGradient x1="399.42967" y1="150.81831" x2="419.92208" y2="170.38842" gradientUnits="userSpaceOnUse" id="color-6"><stop offset="0" stop-color="#8e8e8e"/><stop offset="1" stop-color="#818181"/></linearGradient><linearGradient x1="326.24815" y1="154.796" x2="325.19694" y2="195.84812" gradientUnits="userSpaceOnUse" id="color-7"><stop offset="0" stop-color="#8e8e8e"/><stop offset="1" stop-color="#818181"/></linearGradient><linearGradient x1="225.29511" y1="179.00273" x2="251.16373" y2="203.70707" gradientUnits="userSpaceOnUse" id="color-8"><stop offset="0" stop-color="#8e8e8e"/><stop offset="1" stop-color="#818181"/></linearGradient><linearGradient x1="277.17752" y1="220.75461" x2="277.94744" y2="250.82175" gradientUnits="userSpaceOnUse" id="color-9"><stop offset="0" stop-color="#8e8e8e"/><stop offset="1" stop-color="#818181"/></linearGradient><linearGradient x1="143.29511" y1="269.00273" x2="169.16373" y2="293.70707" gradientUnits="userSpaceOnUse" id="color-10"><stop offset="0" stop-color="#8e8e8e"/><stop offset="1" stop-color="#818181"/></linearGradient></defs><g transform="translate(-73.47154,-100.05314)"><g data-paper-data="{&quot;isPaintingLayer&quot;:true}" fill="none" fill-rule="nonzero" stroke="none" stroke-width="none" stroke-linecap="butt" stroke-linejoin="miter" stroke-miterlimit="10" stroke-dasharray="" stroke-dashoffset="0" font-family="none" font-weight="none" font-size="none" text-anchor="none" style="mix-blend-mode: normal"><path d="M418.48082,226.60008v80h-325.88186v-80z" data-paper-data="{&quot;origPos&quot;:null,&quot;index&quot;:null}" fill="#847968" stroke-width="NaN"/><path d="M91.94327,293.60006v-40h339.32366v40z" data-paper-data="{&quot;origPos&quot;:null,&quot;index&quot;:null}" fill="#7c7262" stroke-width="0"/><path d="M83.60025,536.00006v-252h385.76922v252z" data-paper-data="{&quot;origPos&quot;:null,&quot;index&quot;:null}" fill="#786e5f" stroke-width="0"/><path d="M76.70986,235.6001v-9h348.22569v9z" data-paper-data="{&quot;origPos&quot;:null,&quot;index&quot;:null}" fill="#61584c" stroke-width="0"/><path d="M75.80538,230.6001v-19h348.22565v19z" data-paper-data="{&quot;origPos&quot;:null,&quot;index&quot;:null}" fill="#91b782" stroke-width="0"/><path d="M73.47154,230.6001v-12h348.22569v12z" data-paper-data="{&quot;origPos&quot;:null,&quot;index&quot;:null}" fill="#8aaf7c" stroke-width="0"/><path d="M386.90792,251.00007v-80h241.41026v80z" data-paper-data="{&quot;origPos&quot;:null}" fill="#847968" stroke-width="NaN"/><path d="M416.90792,237.00003v-40h185.76923v40z" data-paper-data="{&quot;origPos&quot;:null}" fill="#7c7262" stroke-width="0"/><path d="M424.80538,479.40003v-252h185.76922v252z" data-paper-data="{&quot;origPos&quot;:null}" fill="#786e5f" stroke-width="0"/><path d="M413.31818,179.00007v-9h187.56411v9z" data-paper-data="{&quot;origPos&quot;:null}" fill="#61584c" stroke-width="0"/><path d="M417.80538,174.00007v-19h187.56409v19z" data-paper-data="{&quot;origPos&quot;:null}" fill="#91b782" stroke-width="0"/><path d="M416.90792,174.00007v-12h187.56411v12z" data-paper-data="{&quot;origPos&quot;:null}" fill="#8aaf7c" stroke-width="0"/><g data-paper-data="{&quot;origPos&quot;:null,&quot;origRot&quot;:0,&quot;index&quot;:null}" stroke-width="0"><path d="M597.21584,437.27512l7.00234,-290.24609l36.97241,0.89198l-7.00234,290.2461z" data-paper-data="{&quot;origPos&quot;:null}" fill="#d3bb76"/><path d="M602.55222,222.21067l1.55505,-64.45659l37.32452,0.90048l-1.55505,64.45659z" data-paper-data="{&quot;origPos&quot;:null}" fill="#b9a568"/><path d="M596.90802,218.00951l1.56371,-64.81548l47.94766,1.15676l-1.56371,64.81548z" data-paper-data="{&quot;origPos&quot;:null}" fill="#e7cd81"/><path d="M604.46872,208.26642l1.14291,-47.37342l5.16801,0.12468l-1.14291,47.37344z" data-paper-data="{&quot;origPos&quot;:null}" fill="#b9a568"/><path d="M604.50193,206.8883l1.14291,-47.37342l5.168,0.12468l-1.14291,47.37343z" data-paper-data="{&quot;origPos&quot;:null}" fill="#d3bb76"/><path d="M605.69535,164.56644l0.12052,-4.99575l24.97872,0.60262l-0.12053,4.99575z" data-paper-data="{&quot;origPos&quot;:null}" fill="#d3bb76"/><path d="M624.67608,199.44613l0.94342,-39.10462l5.16801,0.12468l-0.94342,39.10462z" data-paper-data="{&quot;origPos&quot;:null}" fill="#d3bb76"/><path d="M614.68046,199.37732l0.65665,-27.21819l5.16802,0.12468l-0.65666,27.21819z" data-paper-data="{&quot;origPos&quot;:null}" fill="#d3bb76"/><path d="M614.85146,199.43315l0.133,-5.51254l14.81497,0.35743l-0.13299,5.51254z" data-paper-data="{&quot;origPos&quot;:null}" fill="#d3bb76"/><path d="M604.44667,209.17942l0.12052,-4.99574l33.9366,0.81874l-0.12053,4.99574z" data-paper-data="{&quot;origPos&quot;:null}" fill="#d3bb76"/><path d="M634.07782,209.84256l1.19278,-49.44063l5.168,0.12468l-1.19278,49.44064z" data-paper-data="{&quot;origPos&quot;:null}" fill="#d3bb76"/><path d="M600.60465,344.39927l1.55505,-64.45658l37.32452,0.90047l-1.55505,64.45658z" data-paper-data="{&quot;origPos&quot;:null}" fill="#b9a568"/><path d="M594.96047,340.1981l1.56371,-64.81548l47.94765,1.15677l-1.56371,64.81548z" data-paper-data="{&quot;origPos&quot;:null}" fill="#e7cd81"/><path d="M602.52113,330.45502l1.14291,-47.37342l5.168,0.12468l-1.1429,47.37343z" data-paper-data="{&quot;origPos&quot;:null}" fill="#b9a568"/><path d="M602.55436,329.07687l1.14291,-47.37343l5.168,0.12468l-1.14291,47.37343z" data-paper-data="{&quot;origPos&quot;:null}" fill="#d3bb76"/><path d="M603.74776,286.75503l0.12052,-4.99574l24.97872,0.60263l-0.12053,4.99575z" data-paper-data="{&quot;origPos&quot;:null}" fill="#d3bb76"/><path d="M622.72849,321.63471l0.94342,-39.10462l5.16802,0.12468l-0.94342,39.10462z" data-paper-data="{&quot;origPos&quot;:null}" fill="#d3bb76"/><path d="M612.73286,321.56591l0.65666,-27.21819l5.16802,0.12468l-0.65665,27.21819z" data-paper-data="{&quot;origPos&quot;:null}" fill="#d3bb76"/><path d="M612.90388,321.6217l0.13299,-5.51254l14.81497,0.35742l-0.133,5.51255z" data-paper-data="{&quot;origPos&quot;:null}" fill="#d3bb76"/><path d="M602.49907,331.36803l0.12052,-4.99574l33.93661,0.81874l-0.12052,4.99575z" data-paper-data="{&quot;origPos&quot;:null}" fill="#d3bb76"/><path d="M632.13024,332.03117l1.19278,-49.44063l5.168,0.12468l-1.19278,49.44063z" data-paper-data="{&quot;origPos&quot;:null}" fill="#d3bb76"/><path d="M599.88266,392.18742l0.96764,-40.10866l36.7503,0.88662l-0.96765,40.10866z" data-paper-data="{&quot;origPos&quot;:null}" fill="#b9a568"/><path d="M594.23529,388.11767l0.89767,-37.20819l47.94766,1.15677l-0.89766,37.20818z" data-paper-data="{&quot;origPos&quot;:null}" fill="#e7cd81"/><path d="M600.41158,382.17175l0.62341,-25.84007l5.16801,0.12468l-0.62341,25.84006z" data-paper-data="{&quot;origPos&quot;:null}" fill="#d3bb76"/><path d="M630.56526,382.61196l0.62341,-25.84006l5.16801,0.12468l-0.62341,25.84006z" data-paper-data="{&quot;origPos&quot;:null}" fill="#d3bb76"/><path d="M609.6061,382.1063l0.62341,-25.84006l5.168,0.12468l-0.6234,25.84006z" data-paper-data="{&quot;origPos&quot;:null}" fill="#d3bb76"/><path d="M621.66479,382.39723l0.62341,-25.84006l5.168,0.12468l-0.62341,25.84006z" data-paper-data="{&quot;origPos&quot;:null}" fill="#d3bb76"/><path d="M610.99889,381.92924l0.13854,-5.74223l12.92003,0.3117l-0.13854,5.74223z" data-paper-data="{&quot;origPos&quot;:null}" fill="#d3bb76"/><path d="M612.33815,362.13932l0.13854,-5.74224l12.92003,0.3117l-0.13854,5.74224z" data-paper-data="{&quot;origPos&quot;:null}" fill="#d3bb76"/><path d="M601.83021,269.99886l0.96765,-40.10866l36.75029,0.88662l-0.96764,40.10867z" data-paper-data="{&quot;origPos&quot;:null}" fill="#b9a568"/><path d="M596.18288,265.92911l0.89767,-37.20819l47.94766,1.15676l-0.89766,37.20819z" data-paper-data="{&quot;origPos&quot;:null}" fill="#e7cd81"/><path d="M602.35915,259.98317l0.62341,-25.84006l5.16801,0.12468l-0.6234,25.84006z" data-paper-data="{&quot;origPos&quot;:null}" fill="#d3bb76"/><path d="M632.51283,260.42332l0.6234,-25.84006l5.16801,0.12468l-0.6234,25.84006z" data-paper-data="{&quot;origPos&quot;:null}" fill="#d3bb76"/><path d="M611.55366,259.91765l0.6234,-25.84007l5.16801,0.12468l-0.62341,25.84006z" data-paper-data="{&quot;origPos&quot;:null}" fill="#d3bb76"/><path d="M623.61236,260.20858l0.6234,-25.84006l5.16801,0.12468l-0.62341,25.84006z" data-paper-data="{&quot;origPos&quot;:null}" fill="#d3bb76"/><path d="M612.94643,259.7406l0.13854,-5.74223l12.92003,0.3117l-0.13853,5.74223z" data-paper-data="{&quot;origPos&quot;:null}" fill="#d3bb76"/><path d="M614.28572,239.95068l0.13854,-5.74224l12.92003,0.31171l-0.13854,5.74223z" data-paper-data="{&quot;origPos&quot;:null}" fill="#d3bb76"/></g><g data-paper-data="{&quot;origPos&quot;:null,&quot;origRot&quot;:0,&quot;index&quot;:null}" stroke-width="0"><path d="M598.21557,437.29925l7.00233,-290.2461l36.97241,0.89198l-7.00234,290.24611z" data-paper-data="{&quot;origPos&quot;:null}" fill="#d3bb76"/><path d="M603.55193,222.23479l1.55505,-64.45658l37.32452,0.90047l-1.55505,64.45659z" data-paper-data="{&quot;origPos&quot;:null}" fill="#b9a568"/><path d="M597.90775,218.03362l1.5637,-64.81548l47.94766,1.15676l-1.56371,64.81548z" data-paper-data="{&quot;origPos&quot;:null}" fill="#e7cd81"/><path d="M605.46842,208.29051l1.14291,-47.37342l5.168,0.12468l-1.14291,47.37344z" data-paper-data="{&quot;origPos&quot;:null}" fill="#b9a568"/><path d="M605.50165,206.9124l1.14291,-47.37343l5.168,0.12469l-1.14291,47.37343z" data-paper-data="{&quot;origPos&quot;:null}" fill="#d3bb76"/><path d="M606.69506,164.59058l0.12052,-4.99575l24.97872,0.60262l-0.12052,4.99574z" data-paper-data="{&quot;origPos&quot;:null}" fill="#d3bb76"/><path d="M625.6758,199.47022l0.94342,-39.10462l5.16802,0.12468l-0.94342,39.10462z" data-paper-data="{&quot;origPos&quot;:null}" fill="#d3bb76"/><path d="M615.68015,199.40146l0.65666,-27.21819l5.16801,0.12468l-0.65665,27.21819z" data-paper-data="{&quot;origPos&quot;:null}" fill="#d3bb76"/><path d="M615.85117,199.45725l0.13299,-5.51254l14.81497,0.35742l-0.13299,5.51255z" data-paper-data="{&quot;origPos&quot;:null}" fill="#d3bb76"/><path d="M605.44638,209.20356l0.12052,-4.99574l33.93661,0.81874l-0.12053,4.99574z" data-paper-data="{&quot;origPos&quot;:null}" fill="#d3bb76"/><path d="M635.07755,209.8667l1.19278,-49.44064l5.16801,0.12468l-1.19278,49.44063z" data-paper-data="{&quot;origPos&quot;:null}" fill="#d3bb76"/><path d="M601.60437,344.42339l1.55505,-64.45658l37.32451,0.90047l-1.55505,64.45659z" data-paper-data="{&quot;origPos&quot;:null}" fill="#b9a568"/><path d="M595.96016,340.22222l1.56371,-64.81548l47.94766,1.15676l-1.56371,64.81548z" data-paper-data="{&quot;origPos&quot;:null}" fill="#e7cd81"/><path d="M603.52086,330.47914l1.1429,-47.37343l5.16801,0.12468l-1.14291,47.37344z" data-paper-data="{&quot;origPos&quot;:null}" fill="#b9a568"/><path d="M603.55409,329.10098l1.14291,-47.37343l5.168,0.12468l-1.14291,47.37343z" data-paper-data="{&quot;origPos&quot;:null}" fill="#d3bb76"/><path d="M604.74749,286.77912l0.12053,-4.99574l24.97872,0.60263l-0.12052,4.99575z" data-paper-data="{&quot;origPos&quot;:null}" fill="#d3bb76"/><path d="M623.72822,321.65882l0.94342,-39.10462l5.16801,0.12468l-0.94342,39.10462z" data-paper-data="{&quot;origPos&quot;:null}" fill="#d3bb76"/><path d="M613.73259,321.59l0.65665,-27.21819l5.16802,0.12468l-0.65666,27.21819z" data-paper-data="{&quot;origPos&quot;:null}" fill="#d3bb76"/><path d="M613.90359,321.64586l0.13299,-5.51254l14.81497,0.35742l-0.13299,5.51255z" data-paper-data="{&quot;origPos&quot;:null}" fill="#d3bb76"/><path d="M603.4988,331.39214l0.12053,-4.99575l33.9366,0.81875l-0.12053,4.99574z" data-paper-data="{&quot;origPos&quot;:null}" fill="#d3bb76"/><path d="M633.12997,332.0553l1.19278,-49.44063l5.16801,0.12467l-1.19278,49.44064z" data-paper-data="{&quot;origPos&quot;:null}" fill="#d3bb76"/><path d="M600.88235,392.21151l0.96764,-40.10865l36.7503,0.88661l-0.96764,40.10867z" data-paper-data="{&quot;origPos&quot;:null}" fill="#b9a568"/><path d="M595.23502,388.14183l0.89767,-37.20819l47.94765,1.15676l-0.89766,37.20818z" data-paper-data="{&quot;origPos&quot;:null}" fill="#e7cd81"/><path d="M601.41129,382.19589l0.62341,-25.84006l5.16801,0.12468l-0.62341,25.84006z" data-paper-data="{&quot;origPos&quot;:null}" fill="#d3bb76"/><path d="M631.56497,382.63607l0.62341,-25.84006l5.168,0.12468l-0.62341,25.84006z" data-paper-data="{&quot;origPos&quot;:null}" fill="#d3bb76"/><path d="M610.60579,382.13042l0.62341,-25.84006l5.168,0.12468l-0.6234,25.84006z" data-paper-data="{&quot;origPos&quot;:null}" fill="#d3bb76"/><path d="M622.6645,382.42135l0.62341,-25.84006l5.168,0.12468l-0.62341,25.84006z" data-paper-data="{&quot;origPos&quot;:null}" fill="#d3bb76"/><path d="M611.99859,381.95336l0.13853,-5.74223l12.92003,0.3117l-0.13853,5.74222z" data-paper-data="{&quot;origPos&quot;:null}" fill="#d3bb76"/><path d="M613.33788,362.16342l0.13853,-5.74224l12.92003,0.3117l-0.13854,5.74224z" data-paper-data="{&quot;origPos&quot;:null}" fill="#d3bb76"/><path d="M602.82994,270.02295l0.96764,-40.10866l36.7503,0.88662l-0.96764,40.10866z" data-paper-data="{&quot;origPos&quot;:null}" fill="#b9a568"/><path d="M597.18258,265.9532l0.89766,-37.20819l47.94766,1.15677l-0.89767,37.20818z" data-paper-data="{&quot;origPos&quot;:null}" fill="#e7cd81"/><path d="M603.35885,260.00726l0.6234,-25.84007l5.16802,0.12468l-0.62341,25.84006z" data-paper-data="{&quot;origPos&quot;:null}" fill="#d3bb76"/><path d="M633.51255,260.44746l0.62341,-25.84007l5.168,0.12468l-0.6234,25.84006z" data-paper-data="{&quot;origPos&quot;:null}" fill="#d3bb76"/><path d="M612.55337,259.94181l0.62341,-25.84006l5.168,0.12468l-0.6234,25.84006z" data-paper-data="{&quot;origPos&quot;:null}" fill="#d3bb76"/><path d="M624.61207,260.23272l0.62341,-25.84006l5.16801,0.12468l-0.6234,25.84006z" data-paper-data="{&quot;origPos&quot;:null}" fill="#d3bb76"/><path d="M613.94614,259.76469l0.13854,-5.74223l12.92003,0.31171l-0.13854,5.74223z" data-paper-data="{&quot;origPos&quot;:null}" fill="#d3bb76"/><path d="M615.28545,239.97477l0.13854,-5.74224l12.92003,0.3117l-0.13854,5.74224z" data-paper-data="{&quot;origPos&quot;:null}" fill="#d3bb76"/></g><g data-paper-data="{&quot;origPos&quot;:null}"><path d="M522.5505,265.90853l8.28566,-14.35289l22.20779,6.88753l-7.94537,21.95397l-16.06516,-1.37884z" data-paper-data="{&quot;origPos&quot;:null,&quot;origRot&quot;:0}" fill="#534c42" stroke-width="0"/><path d="M525.45636,264.34004l7.43586,-12.88079l19.93006,6.18112l-7.13047,19.70227l-14.41745,-1.23742z" data-paper-data="{&quot;origPos&quot;:null,&quot;origRot&quot;:0}" fill="url(#color-1)" stroke-width="NaN"/></g><g data-paper-data="{&quot;origPos&quot;:null,&quot;origRot&quot;:0}"><path d="M499.11823,216.94696l-3.2574,-18.38386l24.14474,-10.15653l9.06025,24.69257l-14.8544,10.4551z" data-paper-data="{&quot;origPos&quot;:null,&quot;origRot&quot;:0}" fill="#534c42" stroke-width="0"/><path d="M500.48747,213.48807l-2.92329,-16.49834l21.66835,-9.11482l8.13097,22.16l-13.33088,9.38278z" data-paper-data="{&quot;origPos&quot;:null,&quot;origRot&quot;:0}" fill="url(#color-2)" stroke-width="NaN"/></g><path d="M464.28161,134.60008v80h-298.55107v-80z" data-paper-data="{&quot;origPos&quot;:null,&quot;index&quot;:null}" fill="#847968" stroke-width="NaN"/><path d="M166.16971,454.00007v-252h304.4516v252z" data-paper-data="{&quot;origPos&quot;:null,&quot;index&quot;:null}" fill="#786e5f" stroke-width="0"/><g data-paper-data="{&quot;origPos&quot;:null,&quot;index&quot;:null}"><path d="M384.14143,269.41834l-16.06516,1.37884l-7.94537,-21.95397l22.20779,-6.88753l8.28566,14.35289z" data-paper-data="{&quot;origPos&quot;:null,&quot;origRot&quot;:0}" fill="#534c42" stroke-width="0"/><path d="M381.90049,266.50525l-14.41745,1.23742l-7.13047,-19.70227l19.93006,-6.18112l7.43586,12.88079z" data-paper-data="{&quot;origPos&quot;:null,&quot;origRot&quot;:0}" fill="url(#color-3)" stroke-width="NaN"/></g><g data-paper-data="{&quot;origPos&quot;:null,&quot;origRot&quot;:0,&quot;index&quot;:null}"><path d="M284.01161,294.98143l-17.12347,-15.90102l15.82765,-29.90595l29.01767,17.13017l-7.33761,22.86964z" data-paper-data="{&quot;origPos&quot;:null,&quot;origRot&quot;:0}" fill="#534c42" stroke-width="0"/><path d="M284.95629,289.73949l-15.36722,-14.27015l14.20428,-26.83867l26.04149,15.37322l-6.58502,20.52404z" data-paper-data="{&quot;origPos&quot;:null,&quot;origRot&quot;:0}" fill="url(#color-4)" stroke-width="NaN"/></g><g data-paper-data="{&quot;origPos&quot;:null,&quot;origRot&quot;:0}"><path d="M230.81555,344.32823l-5.37416,-16.75003l21.25293,-12.54637l11.59239,21.90352l-12.54146,11.64612z" data-paper-data="{&quot;origPos&quot;:null,&quot;origRot&quot;:0}" fill="#534c42" stroke-width="0"/><path d="M231.65492,340.92517l-4.82296,-15.03208l19.07314,-11.25955l10.40341,19.65701l-11.25516,10.45165z" data-paper-data="{&quot;origPos&quot;:null,&quot;origRot&quot;:0}" fill="url(#color-5)" stroke-width="NaN"/></g><path d="M166.04124,205.60006v-40h301.68152v40z" data-paper-data="{&quot;origPos&quot;:null,&quot;index&quot;:null}" fill="#7c7262" stroke-width="0"/><path d="M160.59985,143.6001v-9h311.3357v9z" data-paper-data="{&quot;origPos&quot;:null,&quot;index&quot;:null}" fill="#61584c" stroke-width="0"/><path d="M157.98646,138.6001v-19h311.33565v19z" data-paper-data="{&quot;origPos&quot;:null,&quot;index&quot;:null}" fill="#91b782" stroke-width="0"/><path d="M157.70459,138.6001v-12h311.3357v12z" data-paper-data="{&quot;origPos&quot;:null,&quot;index&quot;:null}" fill="#8aaf7c" stroke-width="0"/><g data-paper-data="{&quot;origPos&quot;:null,&quot;index&quot;:null}"><path d="M420.14143,175.41835l-16.06516,1.37884l-7.94537,-21.95397l22.20779,-6.88753l8.28566,14.35289z" data-paper-data="{&quot;origPos&quot;:null,&quot;origRot&quot;:0}" fill="#534c42" stroke-width="0"/><path d="M417.90049,172.50527l-14.41745,1.23742l-7.13047,-19.70227l19.93006,-6.18112l7.43586,12.88079z" data-paper-data="{&quot;origPos&quot;:null,&quot;origRot&quot;:0}" fill="url(#color-6)" stroke-width="NaN"/></g><g data-paper-data="{&quot;origPos&quot;:null,&quot;origRot&quot;:0,&quot;index&quot;:null}"><path d="M320.01161,200.98145l-17.12347,-15.90102l15.82765,-29.90595l29.01767,17.13017l-7.33761,22.86964z" data-paper-data="{&quot;origPos&quot;:null,&quot;origRot&quot;:0}" fill="#534c42" stroke-width="0"/><path d="M320.95629,195.73951l-15.36722,-14.27015l14.20428,-26.83867l26.04149,15.37322l-6.58502,20.52404z" data-paper-data="{&quot;origPos&quot;:null,&quot;origRot&quot;:0}" fill="url(#color-7)" stroke-width="NaN"/></g><g data-paper-data="{&quot;origPos&quot;:null,&quot;index&quot;:null}"><path d="M251.44063,210.05663l-20.27988,1.74058l-10.02985,-27.71363l28.03404,-8.69448l10.45941,18.11839z" data-paper-data="{&quot;origPos&quot;:null,&quot;origRot&quot;:0}" fill="#534c42" stroke-width="0"/><path d="M248.61177,206.37928l-18.19989,1.56206l-9.00116,-24.87119l25.15874,-7.80275l9.38667,16.26008z" data-paper-data="{&quot;origPos&quot;:null,&quot;origRot&quot;:0}" fill="url(#color-8)" stroke-width="NaN"/></g><g data-paper-data="{&quot;origPos&quot;:null,&quot;origRot&quot;:0}"><path d="M266.81555,250.32822l-5.37416,-16.75003l21.25293,-12.54637l11.59239,21.90352l-12.54146,11.64612z" data-paper-data="{&quot;origPos&quot;:null,&quot;origRot&quot;:0}" fill="#534c42" stroke-width="0"/><path d="M267.65492,246.92518l-4.82296,-15.03208l19.07314,-11.25955l10.40341,19.65701l-11.25516,10.45165z" data-paper-data="{&quot;origPos&quot;:null,&quot;origRot&quot;:0}" fill="url(#color-9)" stroke-width="NaN"/></g><g data-paper-data="{&quot;origPos&quot;:null,&quot;origRot&quot;:0,&quot;index&quot;:null}" stroke-width="0"><path d="M444.21557,390.29925l7.00233,-290.2461l36.97241,0.89198l-7.00234,290.24611z" data-paper-data="{&quot;origPos&quot;:null}" fill="#d3bb76"/><path d="M449.55193,175.23481l1.55505,-64.45658l37.32452,0.90047l-1.55505,64.45659z" data-paper-data="{&quot;origPos&quot;:null}" fill="#b9a568"/><path d="M443.90775,171.03362l1.5637,-64.81548l47.94766,1.15676l-1.56371,64.81548z" data-paper-data="{&quot;origPos&quot;:null}" fill="#e7cd81"/><path d="M451.46842,161.29053l1.14291,-47.37342l5.168,0.12468l-1.14291,47.37344z" data-paper-data="{&quot;origPos&quot;:null}" fill="#b9a568"/><path d="M451.50165,159.91242l1.14291,-47.37343l5.168,0.12469l-1.14291,47.37343z" data-paper-data="{&quot;origPos&quot;:null}" fill="#d3bb76"/><path d="M452.69506,117.5906l0.12052,-4.99575l24.97872,0.60262l-0.12052,4.99574z" data-paper-data="{&quot;origPos&quot;:null}" fill="#d3bb76"/><path d="M471.6758,152.47024l0.94342,-39.10462l5.16802,0.12468l-0.94342,39.10462z" data-paper-data="{&quot;origPos&quot;:null}" fill="#d3bb76"/><path d="M461.68015,152.40148l0.65666,-27.21819l5.16801,0.12468l-0.65665,27.21819z" data-paper-data="{&quot;origPos&quot;:null}" fill="#d3bb76"/><path d="M461.85117,152.45727l0.13299,-5.51254l14.81497,0.35742l-0.13299,5.51255z" data-paper-data="{&quot;origPos&quot;:null}" fill="#d3bb76"/><path d="M451.44638,162.20353l0.12052,-4.99574l33.93661,0.81874l-0.12053,4.99574z" data-paper-data="{&quot;origPos&quot;:null}" fill="#d3bb76"/><path d="M481.07755,162.86667l1.19278,-49.44064l5.16801,0.12468l-1.19278,49.44063z" data-paper-data="{&quot;origPos&quot;:null}" fill="#d3bb76"/><path d="M447.60437,297.42341l1.55505,-64.45658l37.32451,0.90047l-1.55505,64.45659z" data-paper-data="{&quot;origPos&quot;:null}" fill="#b9a568"/><path d="M441.96016,293.22222l1.56371,-64.81548l47.94766,1.15676l-1.56371,64.81548z" data-paper-data="{&quot;origPos&quot;:null}" fill="#e7cd81"/><path d="M449.52086,283.47916l1.1429,-47.37343l5.16801,0.12468l-1.14291,47.37344z" data-paper-data="{&quot;origPos&quot;:null}" fill="#b9a568"/><path d="M449.55409,282.10101l1.14291,-47.37343l5.168,0.12468l-1.14291,47.37343z" data-paper-data="{&quot;origPos&quot;:null}" fill="#d3bb76"/><path d="M450.74749,239.77914l0.12053,-4.99574l24.97872,0.60263l-0.12052,4.99575z" data-paper-data="{&quot;origPos&quot;:null}" fill="#d3bb76"/><path d="M469.72822,274.65882l0.94342,-39.10462l5.16801,0.12468l-0.94342,39.10462z" data-paper-data="{&quot;origPos&quot;:null}" fill="#d3bb76"/><path d="M459.73259,274.59002l0.65665,-27.21819l5.16802,0.12468l-0.65666,27.21819z" data-paper-data="{&quot;origPos&quot;:null}" fill="#d3bb76"/><path d="M459.90359,274.64588l0.13299,-5.51254l14.81497,0.35742l-0.13299,5.51255z" data-paper-data="{&quot;origPos&quot;:null}" fill="#d3bb76"/><path d="M449.4988,284.39216l0.12053,-4.99575l33.9366,0.81875l-0.12053,4.99574z" data-paper-data="{&quot;origPos&quot;:null}" fill="#d3bb76"/><path d="M479.12997,285.0553l1.19278,-49.44063l5.16801,0.12467l-1.19278,49.44064z" data-paper-data="{&quot;origPos&quot;:null}" fill="#d3bb76"/><path d="M446.88235,345.21153l0.96764,-40.10865l36.7503,0.88661l-0.96764,40.10867z" data-paper-data="{&quot;origPos&quot;:null}" fill="#b9a568"/><path d="M441.23502,341.14185l0.89767,-37.20819l47.94765,1.15676l-0.89766,37.20818z" data-paper-data="{&quot;origPos&quot;:null}" fill="#e7cd81"/><path d="M447.41129,335.19588l0.62341,-25.84006l5.16801,0.12468l-0.62341,25.84006z" data-paper-data="{&quot;origPos&quot;:null}" fill="#d3bb76"/><path d="M477.56497,335.63609l0.62341,-25.84006l5.168,0.12468l-0.62341,25.84006z" data-paper-data="{&quot;origPos&quot;:null}" fill="#d3bb76"/><path d="M456.60579,335.13043l0.62341,-25.84006l5.168,0.12468l-0.6234,25.84006z" data-paper-data="{&quot;origPos&quot;:null}" fill="#d3bb76"/><path d="M468.6645,335.42134l0.62341,-25.84006l5.168,0.12468l-0.62341,25.84006z" data-paper-data="{&quot;origPos&quot;:null}" fill="#d3bb76"/><path d="M457.99859,334.95338l0.13853,-5.74223l12.92003,0.3117l-0.13853,5.74222z" data-paper-data="{&quot;origPos&quot;:null}" fill="#d3bb76"/><path d="M459.33788,315.16344l0.13853,-5.74224l12.92003,0.3117l-0.13854,5.74224z" data-paper-data="{&quot;origPos&quot;:null}" fill="#d3bb76"/><path d="M448.82994,223.02295l0.96764,-40.10866l36.7503,0.88662l-0.96764,40.10866z" data-paper-data="{&quot;origPos&quot;:null}" fill="#b9a568"/><path d="M443.18258,218.9532l0.89766,-37.20819l47.94766,1.15677l-0.89767,37.20818z" data-paper-data="{&quot;origPos&quot;:null}" fill="#e7cd81"/><path d="M449.35885,213.00728l0.6234,-25.84007l5.16802,0.12468l-0.62341,25.84006z" data-paper-data="{&quot;origPos&quot;:null}" fill="#d3bb76"/><path d="M479.51255,213.44747l0.62341,-25.84007l5.168,0.12468l-0.6234,25.84006z" data-paper-data="{&quot;origPos&quot;:null}" fill="#d3bb76"/><path d="M458.55337,212.94183l0.62341,-25.84006l5.168,0.12468l-0.6234,25.84006z" data-paper-data="{&quot;origPos&quot;:null}" fill="#d3bb76"/><path d="M470.61207,213.23274l0.62341,-25.84006l5.16801,0.12468l-0.6234,25.84006z" data-paper-data="{&quot;origPos&quot;:null}" fill="#d3bb76"/><path d="M459.94614,212.76471l0.13854,-5.74223l12.92003,0.31171l-0.13854,5.74223z" data-paper-data="{&quot;origPos&quot;:null}" fill="#d3bb76"/><path d="M461.28545,192.97477l0.13854,-5.74224l12.92003,0.3117l-0.13854,5.74224z" data-paper-data="{&quot;origPos&quot;:null}" fill="#d3bb76"/></g><g data-paper-data="{&quot;origPos&quot;:null,&quot;origRot&quot;:0,&quot;index&quot;:null}" stroke-width="0"><path d="M440.21557,587.29923l7.00233,-290.2461l36.97241,0.89198l-7.00234,290.24611z" data-paper-data="{&quot;origPos&quot;:null}" fill="#d3bb76"/><path d="M445.55193,372.23481l1.55505,-64.45658l37.32452,0.90047l-1.55505,64.45659z" data-paper-data="{&quot;origPos&quot;:null}" fill="#b9a568"/><path d="M439.90775,368.03362l1.5637,-64.81548l47.94766,1.15676l-1.56371,64.81548z" data-paper-data="{&quot;origPos&quot;:null}" fill="#e7cd81"/><path d="M447.46842,358.29053l1.14291,-47.37342l5.168,0.12468l-1.14291,47.37344z" data-paper-data="{&quot;origPos&quot;:null}" fill="#b9a568"/><path d="M447.50165,356.91242l1.14291,-47.37343l5.168,0.12469l-1.14291,47.37343z" data-paper-data="{&quot;origPos&quot;:null}" fill="#d3bb76"/><path d="M448.69506,314.59058l0.12052,-4.99575l24.97872,0.60262l-0.12052,4.99574z" data-paper-data="{&quot;origPos&quot;:null}" fill="#d3bb76"/><path d="M467.6758,349.47024l0.94342,-39.10462l5.16802,0.12468l-0.94342,39.10462z" data-paper-data="{&quot;origPos&quot;:null}" fill="#d3bb76"/><path d="M457.68015,349.40148l0.65666,-27.21819l5.16801,0.12468l-0.65665,27.21819z" data-paper-data="{&quot;origPos&quot;:null}" fill="#d3bb76"/><path d="M457.85117,349.45727l0.13299,-5.51254l14.81497,0.35742l-0.13299,5.51255z" data-paper-data="{&quot;origPos&quot;:null}" fill="#d3bb76"/><path d="M447.44638,359.20356l0.12052,-4.99574l33.93661,0.81874l-0.12053,4.99574z" data-paper-data="{&quot;origPos&quot;:null}" fill="#d3bb76"/><path d="M477.07755,359.8667l1.19278,-49.44064l5.16801,0.12468l-1.19278,49.44063z" data-paper-data="{&quot;origPos&quot;:null}" fill="#d3bb76"/><path d="M443.60437,494.4234l1.55505,-64.45658l37.32451,0.90047l-1.55505,64.45659z" data-paper-data="{&quot;origPos&quot;:null}" fill="#b9a568"/><path d="M437.96016,490.22224l1.56371,-64.81548l47.94766,1.15676l-1.56371,64.81548z" data-paper-data="{&quot;origPos&quot;:null}" fill="#e7cd81"/><path d="M445.52086,480.47914l1.1429,-47.37343l5.16801,0.12468l-1.14291,47.37344z" data-paper-data="{&quot;origPos&quot;:null}" fill="#b9a568"/><path d="M445.55409,479.10101l1.14291,-47.37343l5.168,0.12468l-1.14291,47.37343z" data-paper-data="{&quot;origPos&quot;:null}" fill="#d3bb76"/><path d="M446.74749,436.77914l0.12053,-4.99574l24.97872,0.60263l-0.12052,4.99575z" data-paper-data="{&quot;origPos&quot;:null}" fill="#d3bb76"/><path d="M465.72822,471.65885l0.94342,-39.10462l5.16801,0.12468l-0.94342,39.10462z" data-paper-data="{&quot;origPos&quot;:null}" fill="#d3bb76"/><path d="M455.73259,471.59l0.65665,-27.21819l5.16802,0.12468l-0.65666,27.21819z" data-paper-data="{&quot;origPos&quot;:null}" fill="#d3bb76"/><path d="M455.90359,471.64588l0.13299,-5.51254l14.81497,0.35742l-0.13299,5.51255z" data-paper-data="{&quot;origPos&quot;:null}" fill="#d3bb76"/><path d="M445.4988,481.39217l0.12053,-4.99575l33.9366,0.81875l-0.12053,4.99574z" data-paper-data="{&quot;origPos&quot;:null}" fill="#d3bb76"/><path d="M475.12997,482.05533l1.19278,-49.44063l5.16801,0.12467l-1.19278,49.44064z" data-paper-data="{&quot;origPos&quot;:null}" fill="#d3bb76"/><path d="M442.88235,542.21152l0.96764,-40.10865l36.7503,0.88661l-0.96764,40.10867z" data-paper-data="{&quot;origPos&quot;:null}" fill="#b9a568"/><path d="M437.23502,538.14184l0.89767,-37.20819l47.94765,1.15676l-0.89766,37.20818z" data-paper-data="{&quot;origPos&quot;:null}" fill="#e7cd81"/><path d="M443.41129,532.19589l0.62341,-25.84006l5.16801,0.12468l-0.62341,25.84006z" data-paper-data="{&quot;origPos&quot;:null}" fill="#d3bb76"/><path d="M473.56497,532.63608l0.62341,-25.84006l5.168,0.12468l-0.62341,25.84006z" data-paper-data="{&quot;origPos&quot;:null}" fill="#d3bb76"/><path d="M452.60579,532.13042l0.62341,-25.84006l5.168,0.12468l-0.6234,25.84006z" data-paper-data="{&quot;origPos&quot;:null}" fill="#d3bb76"/><path d="M464.6645,532.42135l0.62341,-25.84006l5.168,0.12468l-0.62341,25.84006z" data-paper-data="{&quot;origPos&quot;:null}" fill="#d3bb76"/><path d="M453.99859,531.95336l0.13853,-5.74223l12.92003,0.3117l-0.13853,5.74222z" data-paper-data="{&quot;origPos&quot;:null}" fill="#d3bb76"/><path d="M455.33788,512.16342l0.13853,-5.74224l12.92003,0.3117l-0.13854,5.74224z" data-paper-data="{&quot;origPos&quot;:null}" fill="#d3bb76"/><path d="M444.82994,420.02295l0.96764,-40.10866l36.7503,0.88662l-0.96764,40.10866z" data-paper-data="{&quot;origPos&quot;:null}" fill="#b9a568"/><path d="M439.18258,415.9532l0.89766,-37.20819l47.94766,1.15677l-0.89767,37.20818z" data-paper-data="{&quot;origPos&quot;:null}" fill="#e7cd81"/><path d="M445.35885,410.00728l0.6234,-25.84007l5.16802,0.12468l-0.62341,25.84006z" data-paper-data="{&quot;origPos&quot;:null}" fill="#d3bb76"/><path d="M475.51255,410.44747l0.62341,-25.84007l5.168,0.12468l-0.6234,25.84006z" data-paper-data="{&quot;origPos&quot;:null}" fill="#d3bb76"/><path d="M454.55337,409.94183l0.62341,-25.84006l5.168,0.12468l-0.6234,25.84006z" data-paper-data="{&quot;origPos&quot;:null}" fill="#d3bb76"/><path d="M466.61207,410.23274l0.62341,-25.84006l5.16801,0.12468l-0.6234,25.84006z" data-paper-data="{&quot;origPos&quot;:null}" fill="#d3bb76"/><path d="M455.94614,409.76471l0.13854,-5.74223l12.92003,0.31171l-0.13854,5.74223z" data-paper-data="{&quot;origPos&quot;:null}" fill="#d3bb76"/><path d="M457.28545,389.97477l0.13854,-5.74224l12.92003,0.3117l-0.13854,5.74224z" data-paper-data="{&quot;origPos&quot;:null}" fill="#d3bb76"/></g><g data-paper-data="{&quot;origPos&quot;:null,&quot;index&quot;:null}"><path d="M169.44063,300.05663l-20.27988,1.74058l-10.02985,-27.71363l28.03404,-8.69448l10.45941,18.11839z" data-paper-data="{&quot;origPos&quot;:null,&quot;origRot&quot;:0}" fill="#534c42" stroke-width="0"/><path d="M166.61177,296.37926l-18.19989,1.56206l-9.00116,-24.87119l25.15874,-7.80275l9.38667,16.26008z" data-paper-data="{&quot;origPos&quot;:null,&quot;origRot&quot;:0}" fill="url(#color-10)" stroke-width="NaN"/></g></g></g></svg>