<svg version="1.1" xmlns="http://www.w3.org/2000/svg" xmlns:xlink="http://www.w3.org/1999/xlink" width="90.72434" height="90.83636"><g transform="translate(-194.13784,-134.08181)"><g data-paper-data="{&quot;isPaintingLayer&quot;:true}" fill="none" fill-rule="nonzero" stroke="none" stroke-width="none" stroke-linecap="butt" stroke-linejoin="miter" stroke-miterlimit="10" stroke-dasharray="" stroke-dashoffset="0" font-family="none" font-weight="none" font-size="none" text-anchor="none" style="mix-blend-mode: normal"><path d="M224.44056,166.11342l-18.42189,-15.60148l24.89067,7.49392z" data-paper-data="{&quot;origPos&quot;:null}" fill="#7e7e7e" stroke-width="0"/><path d="M217.46873,173.06159l-12.24579,-23.09996l18.37329,16.11285z" data-paper-data="{&quot;origPos&quot;:null}" fill="#a8a8a8" stroke-width="0"/><path d="M223.34953,166.10536l-18.37329,-16.11285l24.50078,9.12573z" data-paper-data="{&quot;origPos&quot;:null}" fill="#9e9e9e" stroke-width="0"/><path d="M254.56589,192.89582l18.51698,15.48851l-24.93605,-7.34153z" data-paper-data="{&quot;origPos&quot;:null}" fill="#9e9e9e" stroke-width="0"/><path d="M261.49505,185.90514l12.38687,23.02461l-18.4715,-16.00015z" data-paper-data="{&quot;origPos&quot;:null}" fill="#a8a8a8" stroke-width="0"/><path d="M255.65695,192.89722l18.4715,16.00016l-24.55614,-8.97569z" data-paper-data="{&quot;origPos&quot;:null}" fill="#9e9e9e" stroke-width="0"/><path d="M224.8749,193.36068l-17.11882,17.02111l9.59379,-24.15913z" data-paper-data="{&quot;origPos&quot;:null}" fill="#7e7e7e" stroke-width="0"/><path d="M231.20181,200.90082l-24.06203,10.22674l17.62417,-16.92897z" data-paper-data="{&quot;origPos&quot;:null}" fill="#a8a8a8" stroke-width="0"/><path d="M224.77364,194.44703l-17.62417,16.92897l11.18631,-23.63121z" data-paper-data="{&quot;origPos&quot;:null}" fill="#9e9e9e" stroke-width="0"/><path d="M254.13401,165.63454l17.01439,-17.12549l-9.44584,24.21736z" data-paper-data="{&quot;origPos&quot;:null}" fill="#7e7e7e" stroke-width="0"/><path d="M247.76109,158.13325l23.99902,-10.37374l-17.52029,17.03647z" data-paper-data="{&quot;origPos&quot;:null}" fill="#a8a8a8" stroke-width="0"/><path d="M254.22864,164.54759l17.52029,-17.03646l-11.04155,23.69919z" data-paper-data="{&quot;origPos&quot;:null}" fill="#9e9e9e" stroke-width="0"/><path d="M219.35919,180.08929l-24.1065,1.28392l23.2522,-11.62065z" data-paper-data="{&quot;origPos&quot;:null}" fill="#7e7e7e" stroke-width="0"/><path d="M219.05218,189.92743l-24.756,-8.40882l24.42192,-0.87849z" data-paper-data="{&quot;origPos&quot;:null}" fill="#a8a8a8" stroke-width="0"/><path d="M218.55977,180.83181l-24.42192,0.8785l24.08784,-10.16582z" data-paper-data="{&quot;origPos&quot;:null}" fill="#9e9e9e" stroke-width="0"/><path d="M259.65125,178.91328l24.0982,-1.43136l-23.18068,11.76267z" data-paper-data="{&quot;origPos&quot;:null}" fill="#7e7e7e" stroke-width="0"/><path d="M259.89806,169.07344l24.80696,8.25723l-24.41609,1.02787z" data-paper-data="{&quot;origPos&quot;:null}" fill="#a8a8a8" stroke-width="0"/><path d="M260.44611,178.16589l24.41608,-1.02787l-24.02519,10.31297z" data-paper-data="{&quot;origPos&quot;:null}" fill="#9e9e9e" stroke-width="0"/><path d="M239.24473,199.65098l0.26886,24.13918l-10.63237,-23.72039z" data-paper-data="{&quot;origPos&quot;:null}" fill="#9e9e9e" stroke-width="0"/><path d="M249.06124,200.37151l-9.44263,24.38041l0.14948,-24.43726z" data-paper-data="{&quot;origPos&quot;:null}" fill="#a8a8a8" stroke-width="0"/><path d="M239.95296,200.48092l-0.14948,24.43725l-9.14367,-24.4941z" data-paper-data="{&quot;origPos&quot;:null}" fill="#9e9e9e" stroke-width="0"/><path d="M239.76446,159.3451l-0.41651,-24.13708l10.77727,23.65491z" data-paper-data="{&quot;origPos&quot;:null}" fill="#7e7e7e" stroke-width="0"/><path d="M229.94372,158.68463l9.29332,-24.43771v24.43771z" data-paper-data="{&quot;origPos&quot;:null}" fill="#a8a8a8" stroke-width="0"/><path d="M239.05117,158.51952v-24.43771l9.29332,24.43771z" data-paper-data="{&quot;origPos&quot;:null}" fill="#9e9e9e" stroke-width="0"/><path d="M215.35215,179.54304c0,-13.29162 10.77499,-24.06661 24.06661,-24.06661c13.29162,0 24.06661,10.77499 24.06661,24.06661c0,13.29162 -10.77499,24.0666 -24.06661,24.0666c-13.29162,0 -24.06661,-10.77498 -24.06661,-24.0666z" data-paper-data="{&quot;origPos&quot;:null}" fill="#9e9e9e" stroke-width="0.5"/></g></g></svg>