<svg version="1.1" xmlns="http://www.w3.org/2000/svg" xmlns:xlink="http://www.w3.org/1999/xlink" width="511.92942" height="648.25656"><g transform="translate(-123.93405,-66.16499)"><g data-paper-data="{&quot;isPaintingLayer&quot;:true}" fill="none" fill-rule="nonzero" stroke="none" stroke-width="0" stroke-linecap="butt" stroke-linejoin="miter" stroke-miterlimit="10" stroke-dasharray="" stroke-dashoffset="0" font-family="none" font-weight="none" font-size="none" text-anchor="none" style="mix-blend-mode: normal"><path d="M382.79145,439.13467v-195h216v195z" data-paper-data="{&quot;origPos&quot;:null}" fill="#a1937c" stroke="none"/><path d="M376.97096,265.40513c0,0 -2.07429,-11.19051 -1.67116,-17.3616c0.66255,-10.14259 2.3478,-14.28587 2.3478,-24.44105c0,-7.19999 -3.35907,-16.17407 -6.06446,-23.2512c-3.61225,-9.44938 -0.02529,-22.7251 -0.02529,-22.7251h226.24228c0,0 0,14.86099 0,23.94875c0,24.78129 0,62.83647 0,62.83647z" data-paper-data="{&quot;origPos&quot;:null}" fill="#a1937c" stroke="#000000"/><path d="M368.55788,184.37138v-17.55579h230.24228v17.55579z" data-paper-data="{&quot;origPos&quot;:null}" fill="#706756" stroke="#000000"/><path d="M367.79147,180.72427v-16.55579c0,0 40.84462,0 66.98726,0c66.11233,0 169.40461,0 169.40461,0v16.55579z" data-paper-data="{&quot;origPos&quot;:null}" fill="#8b7f6b" stroke="#000000"/><path d="M349.95494,338.51368l-1.4362,-187.13916l37.26013,3.52423l1.15562,182.87686z" data-paper-data="{&quot;origPos&quot;:null,&quot;origRot&quot;:0}" fill="#d3bb76" stroke="none"/><path d="M348.31718,205.33015l-0.5611,-40.11639l36.75739,-0.51412l0.56109,40.1164z" data-paper-data="{&quot;origPos&quot;:null,&quot;origRot&quot;:0}" fill="#b9a568" stroke="none"/><path d="M348.46413,195.30168l-0.36148,-25.84504l5.16901,-0.0723l0.36149,25.84505z" data-paper-data="{&quot;origPos&quot;:null,&quot;origRot&quot;:0}" fill="#d3bb76" stroke="none"/><path d="M378.61271,194.59276l-0.36148,-25.84506l5.169,-0.0723l0.36148,25.84505z" data-paper-data="{&quot;origPos&quot;:null,&quot;origRot&quot;:0}" fill="#d3bb76" stroke="none"/><path d="M357.64948,194.88594l-0.36148,-25.84505l5.169,-0.0723l0.36148,25.84506z" data-paper-data="{&quot;origPos&quot;:null,&quot;origRot&quot;:0}" fill="#d3bb76" stroke="none"/><path d="M369.7105,194.71724l-0.36148,-25.84505l5.169,-0.0723l0.36148,25.84505z" data-paper-data="{&quot;origPos&quot;:null,&quot;origRot&quot;:0}" fill="#d3bb76" stroke="none"/><path d="M359.0345,194.65598l-0.08032,-5.74333l12.92253,-0.18075l0.08033,5.74334z" data-paper-data="{&quot;origPos&quot;:null,&quot;origRot&quot;:0}" fill="#d3bb76" stroke="none"/><path d="M359.61886,174.82935l-0.08033,-5.74334l12.92253,-0.18075l0.08032,5.74335z" data-paper-data="{&quot;origPos&quot;:null,&quot;origRot&quot;:0}" fill="#d3bb76" stroke="none"/><path d="M348.80307,281.34356l-0.9017,-64.46904l37.33173,-0.52215l0.9017,64.46904z" data-paper-data="{&quot;origPos&quot;:null,&quot;origRot&quot;:0}" fill="#b9a568" stroke="none"/><path d="M350.1869,267.33644l-0.66273,-47.38257l5.169,-0.07229l0.66273,47.38258z" data-paper-data="{&quot;origPos&quot;:null,&quot;origRot&quot;:0}" fill="#b9a568" stroke="none"/><path d="M350.16763,265.95806l-0.66273,-47.38257l5.169,-0.0723l0.66272,47.38258z" data-paper-data="{&quot;origPos&quot;:null,&quot;origRot&quot;:0}" fill="#d3bb76" stroke="none"/><path d="M349.7478,223.62144l-0.0699,-4.9967l24.98354,-0.34944l0.06989,4.99671z" data-paper-data="{&quot;origPos&quot;:null,&quot;origRot&quot;:0}" fill="#d3bb76" stroke="none"/><path d="M370.0436,257.75266l-0.54705,-39.11218l5.16901,-0.0723l0.54705,39.11218z" data-paper-data="{&quot;origPos&quot;:null,&quot;origRot&quot;:0}" fill="#d3bb76" stroke="none"/><path d="M360.05257,258.06478l-0.38076,-27.22345l5.16901,-0.0723l0.38077,27.22346z" data-paper-data="{&quot;origPos&quot;:null,&quot;origRot&quot;:0}" fill="#d3bb76" stroke="none"/><path d="M379.8346,267.78344l-0.69166,-49.45019l5.169,-0.0723l0.69164,49.45019z" data-paper-data="{&quot;origPos&quot;:null,&quot;origRot&quot;:0}" fill="#d3bb76" stroke="none"/><g data-paper-data="{&quot;origPos&quot;:null}" stroke="none"><path d="M586.24051,357.15033l-5.558,-290.27734l36.97639,-0.708l5.558,290.27735z" data-paper-data="{&quot;origPos&quot;:null}" fill="#d3bb76"/><path d="M582.2699,142.05631l-1.2343,-64.46352l37.32854,-0.71474l1.2343,64.46352z" data-paper-data="{&quot;origPos&quot;:null}" fill="#b9a568"/><path d="M576.44927,138.10321l-1.24117,-64.82246l47.95282,-0.91817l1.24117,64.82246z" data-paper-data="{&quot;origPos&quot;:null}" fill="#e7cd81"/><path d="M583.58147,128.04221l-0.90717,-47.37853l5.16856,-0.09896l0.90716,47.37854z" data-paper-data="{&quot;origPos&quot;:null}" fill="#b9a568"/><path d="M583.55503,126.66393l-0.90717,-47.37853l5.16856,-0.09896l0.90716,47.37854z" data-paper-data="{&quot;origPos&quot;:null}" fill="#d3bb76"/><path d="M582.91683,84.33013l-0.09567,-4.99629l24.98141,-0.47833l0.09567,4.99629z" data-paper-data="{&quot;origPos&quot;:null}" fill="#d3bb76"/><path d="M603.38839,118.35615l-0.74882,-39.10884l5.16857,-0.09896l0.74882,39.10884z" data-paper-data="{&quot;origPos&quot;:null}" fill="#d3bb76"/><path d="M593.39914,118.71977l-0.52121,-27.22112l5.16857,-0.09896l0.52121,27.22112z" data-paper-data="{&quot;origPos&quot;:null}" fill="#d3bb76"/><path d="M593.57242,118.76812l-0.10556,-5.51314l14.81656,-0.28369l0.10556,5.51314z" data-paper-data="{&quot;origPos&quot;:null}" fill="#d3bb76"/><path d="M583.5989,128.95533l-0.09567,-4.99629l33.94026,-0.64986l0.09567,4.99629z" data-paper-data="{&quot;origPos&quot;:null}" fill="#d3bb76"/><path d="M613.23104,128.33623l-0.94675,-49.44595l5.16856,-0.09896l0.94675,49.44595z" data-paper-data="{&quot;origPos&quot;:null}" fill="#d3bb76"/><path d="M585.60907,264.21483l-1.2343,-64.46352l37.32854,-0.71474l1.2343,64.46352z" data-paper-data="{&quot;origPos&quot;:null}" fill="#b9a568"/><path d="M579.78845,260.26162l-1.24117,-64.82246l47.95282,-0.91817l1.24117,64.82246z" data-paper-data="{&quot;origPos&quot;:null}" fill="#e7cd81"/><path d="M586.92063,250.20071l-0.90717,-47.37853l5.16856,-0.09896l0.90716,47.37854z" data-paper-data="{&quot;origPos&quot;:null}" fill="#b9a568"/><path d="M586.89424,248.8224l-0.90717,-47.37853l5.16856,-0.09896l0.90716,47.37854z" data-paper-data="{&quot;origPos&quot;:null}" fill="#d3bb76"/><path d="M586.256,206.48858l-0.09567,-4.99629l24.98141,-0.47833l0.09567,4.99629z" data-paper-data="{&quot;origPos&quot;:null}" fill="#d3bb76"/><path d="M606.72759,240.51465l-0.74882,-39.10884l5.16857,-0.09896l0.74882,39.10884z" data-paper-data="{&quot;origPos&quot;:null}" fill="#d3bb76"/><path d="M596.73831,240.87826l-0.52121,-27.22112l5.16857,-0.09896l0.52121,27.22112z" data-paper-data="{&quot;origPos&quot;:null}" fill="#d3bb76"/><path d="M596.91158,240.92667l-0.10556,-5.51314l14.81656,-0.28369l0.10556,5.51314z" data-paper-data="{&quot;origPos&quot;:null}" fill="#d3bb76"/><path d="M586.93809,251.11386l-0.09567,-4.99629l33.94026,-0.64986l0.09567,4.99629z" data-paper-data="{&quot;origPos&quot;:null}" fill="#d3bb76"/><path d="M616.57021,250.49477l-0.94675,-49.44595l5.16856,-0.09896l0.94675,49.44595z" data-paper-data="{&quot;origPos&quot;:null}" fill="#d3bb76"/><path d="M586.95467,311.98945l-0.76805,-40.11298l36.75426,-0.70374l0.76805,40.11298z" data-paper-data="{&quot;origPos&quot;:null}" fill="#b9a568"/><path d="M581.13659,308.16785l-0.71251,-37.21219l47.95282,-0.91817l0.71251,37.21219z" data-paper-data="{&quot;origPos&quot;:null}" fill="#e7cd81"/><path d="M587.04991,301.96036l-0.49482,-25.84285l5.16857,-0.09896l0.49482,25.84285z" data-paper-data="{&quot;origPos&quot;:null}" fill="#d3bb76"/><path d="M617.1944,301.09586l-0.49482,-25.84285l5.16856,-0.09896l0.49482,25.84285z" data-paper-data="{&quot;origPos&quot;:null}" fill="#d3bb76"/><path d="M596.23298,301.49724l-0.49482,-25.84285l5.16856,-0.09896l0.49482,25.84285z" data-paper-data="{&quot;origPos&quot;:null}" fill="#d3bb76"/><path d="M608.29297,301.2663l-0.49482,-25.84285l5.16856,-0.09896l0.49482,25.84285z" data-paper-data="{&quot;origPos&quot;:null}" fill="#d3bb76"/><path d="M597.6168,301.26008l-0.10996,-5.74285l12.92142,-0.24741l0.10996,5.74285z" data-paper-data="{&quot;origPos&quot;:null}" fill="#d3bb76"/><path d="M598.09885,281.43075l-0.10996,-5.74286l12.92142,-0.24741l0.10996,5.74286z" data-paper-data="{&quot;origPos&quot;:null}" fill="#d3bb76"/><path d="M583.61551,189.831l-0.76805,-40.11298l36.75426,-0.70374l0.76805,40.11298z" data-paper-data="{&quot;origPos&quot;:null}" fill="#b9a568"/><path d="M577.79743,186.00937l-0.71251,-37.21219l47.95282,-0.91817l0.71251,37.21219z" data-paper-data="{&quot;origPos&quot;:null}" fill="#e7cd81"/><path d="M583.71074,179.80185l-0.49482,-25.84285l5.16857,-0.09896l0.49482,25.84285z" data-paper-data="{&quot;origPos&quot;:null}" fill="#d3bb76"/><path d="M613.85525,178.93734l-0.49482,-25.84285l5.16856,-0.09896l0.49482,25.84285z" data-paper-data="{&quot;origPos&quot;:null}" fill="#d3bb76"/><path d="M592.89379,179.3387l-0.49482,-25.84285l5.16856,-0.09896l0.49482,25.84285z" data-paper-data="{&quot;origPos&quot;:null}" fill="#d3bb76"/><path d="M604.95377,179.10777l-0.49482,-25.84285l5.16856,-0.09896l0.49482,25.84285z" data-paper-data="{&quot;origPos&quot;:null}" fill="#d3bb76"/><path d="M594.27762,179.10156l-0.10996,-5.74285l12.92142,-0.24741l0.10996,5.74285z" data-paper-data="{&quot;origPos&quot;:null}" fill="#d3bb76"/><path d="M594.75969,159.27222l-0.10996,-5.74286l12.92142,-0.24741l0.10996,5.74286z" data-paper-data="{&quot;origPos&quot;:null}" fill="#d3bb76"/></g><g data-paper-data="{&quot;origPos&quot;:null}" stroke="none"><path d="M593.0146,606.46629l-5.558,-290.27734l36.97639,-0.708l5.558,290.27735z" data-paper-data="{&quot;origPos&quot;:null}" fill="#d3bb76"/><path d="M589.04396,391.37233l-1.2343,-64.46352l37.32854,-0.71474l1.2343,64.46352z" data-paper-data="{&quot;origPos&quot;:null}" fill="#b9a568"/><path d="M583.22335,387.41921l-1.24117,-64.82246l47.95282,-0.91817l1.24117,64.82246z" data-paper-data="{&quot;origPos&quot;:null}" fill="#e7cd81"/><path d="M590.35552,377.3582l-0.90717,-47.37853l5.16856,-0.09896l0.90716,47.37854z" data-paper-data="{&quot;origPos&quot;:null}" fill="#b9a568"/><path d="M590.32911,375.97995l-0.90717,-47.37853l5.16856,-0.09896l0.90716,47.37854z" data-paper-data="{&quot;origPos&quot;:null}" fill="#d3bb76"/><path d="M589.69089,333.64615l-0.09567,-4.99629l24.98141,-0.47833l0.09567,4.99629z" data-paper-data="{&quot;origPos&quot;:null}" fill="#d3bb76"/><path d="M610.16248,367.67214l-0.74882,-39.10884l5.16857,-0.09896l0.74882,39.10884z" data-paper-data="{&quot;origPos&quot;:null}" fill="#d3bb76"/><path d="M600.17323,368.03578l-0.52121,-27.22112l5.16857,-0.09896l0.52121,27.22112z" data-paper-data="{&quot;origPos&quot;:null}" fill="#d3bb76"/><path d="M600.34649,368.08414l-0.10556,-5.51314l14.81656,-0.28369l0.10556,5.51314z" data-paper-data="{&quot;origPos&quot;:null}" fill="#d3bb76"/><path d="M590.37298,378.27134l-0.09567,-4.99629l33.94026,-0.64986l0.09567,4.99629z" data-paper-data="{&quot;origPos&quot;:null}" fill="#d3bb76"/><path d="M620.0051,377.65223l-0.94675,-49.44595l5.16856,-0.09896l0.94675,49.44595z" data-paper-data="{&quot;origPos&quot;:null}" fill="#d3bb76"/><path d="M592.38316,513.53086l-1.2343,-64.46352l37.32854,-0.71474l1.2343,64.46352z" data-paper-data="{&quot;origPos&quot;:null}" fill="#b9a568"/><path d="M586.56254,509.57766l-1.24117,-64.82246l47.95282,-0.91817l1.24117,64.82246z" data-paper-data="{&quot;origPos&quot;:null}" fill="#e7cd81"/><path d="M593.69472,499.51673l-0.90717,-47.37853l5.16856,-0.09896l0.90716,47.37854z" data-paper-data="{&quot;origPos&quot;:null}" fill="#b9a568"/><path d="M593.66832,498.13841l-0.90717,-47.37853l5.16856,-0.09896l0.90716,47.37854z" data-paper-data="{&quot;origPos&quot;:null}" fill="#d3bb76"/><path d="M593.03005,455.80458l-0.09567,-4.99629l24.98141,-0.47833l0.09567,4.99629z" data-paper-data="{&quot;origPos&quot;:null}" fill="#d3bb76"/><path d="M613.50167,489.83068l-0.74882,-39.10884l5.16857,-0.09896l0.74882,39.10884z" data-paper-data="{&quot;origPos&quot;:null}" fill="#d3bb76"/><path d="M603.5124,490.19429l-0.52121,-27.22112l5.16857,-0.09896l0.52121,27.22112z" data-paper-data="{&quot;origPos&quot;:null}" fill="#d3bb76"/><path d="M603.68567,490.24265l-0.10556,-5.51314l14.81656,-0.28369l0.10556,5.51314z" data-paper-data="{&quot;origPos&quot;:null}" fill="#d3bb76"/><path d="M593.71215,500.42987l-0.09567,-4.99629l33.94026,-0.64986l0.09567,4.99629z" data-paper-data="{&quot;origPos&quot;:null}" fill="#d3bb76"/><path d="M623.34426,499.81078l-0.94675,-49.44595l5.16856,-0.09896l0.94675,49.44595z" data-paper-data="{&quot;origPos&quot;:null}" fill="#d3bb76"/><path d="M593.72876,561.30545l-0.76805,-40.11298l36.75426,-0.70374l0.76805,40.11298z" data-paper-data="{&quot;origPos&quot;:null}" fill="#b9a568"/><path d="M587.91066,557.48385l-0.71251,-37.21219l47.95282,-0.91817l0.71251,37.21219z" data-paper-data="{&quot;origPos&quot;:null}" fill="#e7cd81"/><path d="M593.824,551.27631l-0.49482,-25.84285l5.16857,-0.09896l0.49482,25.84285z" data-paper-data="{&quot;origPos&quot;:null}" fill="#d3bb76"/><path d="M623.96849,550.41185l-0.49482,-25.84285l5.16856,-0.09896l0.49482,25.84285z" data-paper-data="{&quot;origPos&quot;:null}" fill="#d3bb76"/><path d="M603.00704,550.81319l-0.49482,-25.84285l5.16856,-0.09896l0.49482,25.84285z" data-paper-data="{&quot;origPos&quot;:null}" fill="#d3bb76"/><path d="M615.06705,550.58233l-0.49482,-25.84285l5.16856,-0.09896l0.49482,25.84285z" data-paper-data="{&quot;origPos&quot;:null}" fill="#d3bb76"/><path d="M604.39086,550.57607l-0.10996,-5.74285l12.92142,-0.24741l0.10996,5.74285z" data-paper-data="{&quot;origPos&quot;:null}" fill="#d3bb76"/><path d="M604.87294,530.74673l-0.10996,-5.74286l12.92142,-0.24741l0.10996,5.74286z" data-paper-data="{&quot;origPos&quot;:null}" fill="#d3bb76"/><path d="M590.38959,439.14701l-0.76805,-40.11298l36.75426,-0.70374l0.76805,40.11298z" data-paper-data="{&quot;origPos&quot;:null}" fill="#b9a568"/><path d="M584.57148,435.3254l-0.71251,-37.21219l47.95282,-0.91817l0.71251,37.21219z" data-paper-data="{&quot;origPos&quot;:null}" fill="#e7cd81"/><path d="M590.4848,429.11788l-0.49482,-25.84285l5.16857,-0.09896l0.49482,25.84285z" data-paper-data="{&quot;origPos&quot;:null}" fill="#d3bb76"/><path d="M620.62929,428.25333l-0.49482,-25.84285l5.16856,-0.09896l0.49482,25.84285z" data-paper-data="{&quot;origPos&quot;:null}" fill="#d3bb76"/><path d="M599.66787,428.6547l-0.49482,-25.84285l5.16856,-0.09896l0.49482,25.84285z" data-paper-data="{&quot;origPos&quot;:null}" fill="#d3bb76"/><path d="M611.72786,428.42379l-0.49482,-25.84285l5.16856,-0.09896l0.49482,25.84285z" data-paper-data="{&quot;origPos&quot;:null}" fill="#d3bb76"/><path d="M601.05166,428.41754l-0.10996,-5.74285l12.92142,-0.24741l0.10996,5.74285z" data-paper-data="{&quot;origPos&quot;:null}" fill="#d3bb76"/><path d="M601.53374,408.58825l-0.10996,-5.74286l12.92142,-0.24741l0.10996,5.74286z" data-paper-data="{&quot;origPos&quot;:null}" fill="#d3bb76"/></g><path d="M133.1977,403.3871l-0.36149,-25.84506l5.169,-0.07229l0.36149,25.84505z" data-paper-data="{&quot;origPos&quot;:null,&quot;origRot&quot;:0}" fill="#d3bb76" stroke="none"/><path d="M124.29554,403.51165l-0.36148,-25.84506l5.169,-0.0723l0.36148,25.84505z" data-paper-data="{&quot;origPos&quot;:null,&quot;origRot&quot;:0}" fill="#d3bb76" stroke="none"/><g data-paper-data="{&quot;origPos&quot;:null}" stroke="none"><path d="M339.95498,597.51366l-1.4362,-187.13916l37.26013,3.52423l1.15562,182.87686z" data-paper-data="{&quot;origPos&quot;:null,&quot;origRot&quot;:0}" fill="#d3bb76"/><path d="M338.31722,464.33014l-0.5611,-40.11639l36.75739,-0.51412l0.56109,40.1164z" data-paper-data="{&quot;origPos&quot;:null,&quot;origRot&quot;:0}" fill="#b9a568"/><path d="M332.51886,460.4786l-0.52051,-37.21537l47.95692,-0.67076l0.52052,37.21536z" data-paper-data="{&quot;origPos&quot;:null,&quot;origRot&quot;:0}" fill="#e7cd81"/><path d="M338.46416,454.30165l-0.36148,-25.84504l5.16901,-0.0723l0.36149,25.84505z" data-paper-data="{&quot;origPos&quot;:null,&quot;origRot&quot;:0}" fill="#d3bb76"/><path d="M368.61274,453.59276l-0.36148,-25.84506l5.169,-0.0723l0.36148,25.84505z" data-paper-data="{&quot;origPos&quot;:null,&quot;origRot&quot;:0}" fill="#d3bb76"/><path d="M347.64954,453.88595l-0.36148,-25.84505l5.169,-0.0723l0.36148,25.84506z" data-paper-data="{&quot;origPos&quot;:null,&quot;origRot&quot;:0}" fill="#d3bb76"/><path d="M359.71054,453.71722l-0.36148,-25.84505l5.169,-0.0723l0.36148,25.84505z" data-paper-data="{&quot;origPos&quot;:null,&quot;origRot&quot;:0}" fill="#d3bb76"/><path d="M349.03454,453.65599l-0.08032,-5.74333l12.92253,-0.18075l0.08033,5.74334z" data-paper-data="{&quot;origPos&quot;:null,&quot;origRot&quot;:0}" fill="#d3bb76"/><path d="M349.61892,433.82932l-0.08033,-5.74334l12.92253,-0.18075l0.08032,5.74335z" data-paper-data="{&quot;origPos&quot;:null,&quot;origRot&quot;:0}" fill="#d3bb76"/><path d="M338.8031,540.34363l-0.9017,-64.46904l37.33173,-0.52215l0.9017,64.46904z" data-paper-data="{&quot;origPos&quot;:null,&quot;origRot&quot;:0}" fill="#b9a568"/><path d="M333.00292,536.36047l-0.90673,-64.828l47.95692,-0.67077l0.90673,64.828z" data-paper-data="{&quot;origPos&quot;:null,&quot;origRot&quot;:0}" fill="#e7cd81"/><path d="M340.18694,526.33647l-0.66273,-47.38257l5.169,-0.07229l0.66273,47.38258z" data-paper-data="{&quot;origPos&quot;:null,&quot;origRot&quot;:0}" fill="#b9a568"/><path d="M340.16768,524.95809l-0.66273,-47.38257l5.169,-0.0723l0.66272,47.38258z" data-paper-data="{&quot;origPos&quot;:null,&quot;origRot&quot;:0}" fill="#d3bb76"/><path d="M339.74786,482.62145l-0.0699,-4.9967l24.98354,-0.34944l0.06989,4.99671z" data-paper-data="{&quot;origPos&quot;:null,&quot;origRot&quot;:0}" fill="#d3bb76"/><path d="M360.04364,516.75267l-0.54705,-39.11218l5.16901,-0.0723l0.54705,39.11218z" data-paper-data="{&quot;origPos&quot;:null,&quot;origRot&quot;:0}" fill="#d3bb76"/><path d="M350.05262,517.06481l-0.38076,-27.22345l5.16901,-0.0723l0.38077,27.22346z" data-paper-data="{&quot;origPos&quot;:null,&quot;origRot&quot;:0}" fill="#d3bb76"/><path d="M350.22562,517.11407l-0.07712,-5.51362l14.81784,-0.20725l0.07712,5.51362z" data-paper-data="{&quot;origPos&quot;:null,&quot;origRot&quot;:0}" fill="#d3bb76"/><path d="M340.1997,527.2497l-0.06989,-4.99671l33.94316,-0.47476l0.06989,4.99671z" data-paper-data="{&quot;origPos&quot;:null,&quot;origRot&quot;:0}" fill="#d3bb76"/><path d="M369.83462,526.78347l-0.69166,-49.45019l5.169,-0.0723l0.69164,49.45019z" data-paper-data="{&quot;origPos&quot;:null,&quot;origRot&quot;:0}" fill="#d3bb76"/><path d="M339.90224,588.12461l-0.5611,-40.1164l36.7574,-0.51411l0.56109,40.1164z" data-paper-data="{&quot;origPos&quot;:null,&quot;origRot&quot;:0}" fill="#b9a568"/><path d="M334.10384,584.27298l-0.52052,-37.21536l47.95692,-0.67077l0.52051,37.21537z" data-paper-data="{&quot;origPos&quot;:null,&quot;origRot&quot;:0}" fill="#e7cd81"/><path d="M340.04922,578.09606l-0.36148,-25.84506l5.16901,-0.0723l0.36149,25.84505z" data-paper-data="{&quot;origPos&quot;:null,&quot;origRot&quot;:0}" fill="#d3bb76"/><path d="M370.19776,577.38708l-0.36149,-25.84506l5.169,-0.07229l0.36149,25.84505z" data-paper-data="{&quot;origPos&quot;:null,&quot;origRot&quot;:0}" fill="#d3bb76"/><path d="M349.23454,577.68031l-0.36149,-25.84505l5.16901,-0.0723l0.36148,25.84505z" data-paper-data="{&quot;origPos&quot;:null,&quot;origRot&quot;:0}" fill="#d3bb76"/><path d="M361.29555,577.51163l-0.36148,-25.84506l5.169,-0.0723l0.36148,25.84505z" data-paper-data="{&quot;origPos&quot;:null,&quot;origRot&quot;:0}" fill="#d3bb76"/><path d="M351.20395,557.62375l-0.08032,-5.74333l12.92252,-0.18076l0.08033,5.74335z" data-paper-data="{&quot;origPos&quot;:null,&quot;origRot&quot;:0}" fill="#d3bb76"/></g><path d="M226.88048,529.64595l-8.97232,-46.53004l5.076,-0.97879l8.97233,46.53005z" data-paper-data="{&quot;origPos&quot;:null,&quot;origRot&quot;:0}" fill="#b9a568" stroke="none"/><path d="M226.61947,528.29234l-8.97232,-46.53003l5.076,-0.9788l8.97231,46.53005z" data-paper-data="{&quot;origPos&quot;:null,&quot;origRot&quot;:0}" fill="#d3bb76" stroke="none"/><path d="M218.77227,486.68724l-0.94619,-4.90679l24.53403,-4.73086l0.94617,4.90681z" data-paper-data="{&quot;origPos&quot;:null,&quot;origRot&quot;:0}" fill="#d3bb76" stroke="none"/><path d="M244.74584,516.72444l-7.40625,-38.40846l5.07601,-0.9788l7.40624,38.40846z" data-paper-data="{&quot;origPos&quot;:null,&quot;origRot&quot;:0}" fill="#d3bb76" stroke="none"/><path d="M234.96484,518.78604l-5.155,-26.73363l5.076,-0.97881l5.15502,26.73365z" data-paper-data="{&quot;origPos&quot;:null,&quot;origRot&quot;:0}" fill="#d3bb76" stroke="none"/><path d="M235.1438,518.80414l-1.04406,-5.41442l14.55123,-2.80589l1.04406,5.41442z" data-paper-data="{&quot;origPos&quot;:null,&quot;origRot&quot;:0}" fill="#d3bb76" stroke="none"/><g data-paper-data="{&quot;origPos&quot;:null,&quot;origRot&quot;:0}" stroke="none"><g data-paper-data="{&quot;origPos&quot;:null}"><path d="M160.33837,464.12738l7.23637,-290.24036l36.97168,0.92179l-7.23637,290.24036z" data-paper-data="{&quot;origPos&quot;:null}" fill="#d3bb76"/><path d="M165.84814,249.06729l1.60702,-64.45531l37.32378,0.93057l-1.60702,64.45531z" data-paper-data="{&quot;origPos&quot;:null}" fill="#b9a568"/><path d="M160.20734,244.86159l1.61597,-64.81419l47.94671,1.19542l-1.61597,64.8142z" data-paper-data="{&quot;origPos&quot;:null}" fill="#e7cd81"/><path d="M167.77587,235.12459l1.18111,-47.37249l5.16791,0.12884l-1.18111,47.3725z" data-paper-data="{&quot;origPos&quot;:null}" fill="#b9a568"/><path d="M167.81019,233.74648l1.18111,-47.37249l5.1679,0.12885l-1.18111,47.3725z" data-paper-data="{&quot;origPos&quot;:null}" fill="#d3bb76"/><path d="M169.03774,191.42566l0.12455,-4.99565l24.97823,0.62277l-0.12455,4.99565z" data-paper-data="{&quot;origPos&quot;:null}" fill="#d3bb76"/><path d="M187.9903,226.32058l0.97496,-39.10385l5.16791,0.12885l-0.97495,39.10385z" data-paper-data="{&quot;origPos&quot;:null}" fill="#d3bb76"/><path d="M177.99476,226.24374l0.6786,-27.21765l5.16792,0.12885l-0.6786,27.21764z" data-paper-data="{&quot;origPos&quot;:null}" fill="#d3bb76"/><path d="M178.16573,226.29969l0.13744,-5.51244l14.81467,0.36936l-0.13744,5.51244z" data-paper-data="{&quot;origPos&quot;:null}" fill="#d3bb76"/><path d="M167.75304,236.0376l0.12455,-4.99565l33.93594,0.84611l-0.12455,4.99565z" data-paper-data="{&quot;origPos&quot;:null}" fill="#d3bb76"/><path d="M197.38372,236.72462l1.23264,-49.43965l5.1679,0.12885l-1.23264,49.43965z" data-paper-data="{&quot;origPos&quot;:null}" fill="#d3bb76"/><path d="M163.80203,371.25432l1.60702,-64.45531l37.32379,0.93057l-1.60702,64.45531z" data-paper-data="{&quot;origPos&quot;:null}" fill="#b9a568"/><path d="M158.16123,367.04852l1.61597,-64.81419l47.94671,1.19542l-1.61597,64.8142z" data-paper-data="{&quot;origPos&quot;:null}" fill="#e7cd81"/><path d="M165.72976,357.31159l1.18111,-47.37248l5.1679,0.12885l-1.18111,47.3725z" data-paper-data="{&quot;origPos&quot;:null}" fill="#b9a568"/><path d="M165.76412,355.93348l1.18111,-47.37249l5.1679,0.12885l-1.18111,47.3725z" data-paper-data="{&quot;origPos&quot;:null}" fill="#d3bb76"/><path d="M166.99165,313.61261l0.12455,-4.99566l24.97823,0.62277l-0.12455,4.99566z" data-paper-data="{&quot;origPos&quot;:null}" fill="#d3bb76"/><path d="M185.94426,348.5076l0.97495,-39.10385l5.16791,0.12885l-0.97495,39.10385z" data-paper-data="{&quot;origPos&quot;:null}" fill="#d3bb76"/><path d="M175.94865,348.43074l0.6786,-27.21765l5.16791,0.12885l-0.6786,27.21765z" data-paper-data="{&quot;origPos&quot;:null}" fill="#d3bb76"/><path d="M176.11962,348.48672l0.13744,-5.51244l14.81467,0.36937l-0.13744,5.51244z" data-paper-data="{&quot;origPos&quot;:null}" fill="#d3bb76"/><path d="M165.70693,358.22461l0.12455,-4.99565l33.93594,0.84611l-0.12455,4.99565z" data-paper-data="{&quot;origPos&quot;:null}" fill="#d3bb76"/><path d="M195.33761,358.91168l1.23264,-49.43965l5.16791,0.12885l-1.23265,49.43966z" data-paper-data="{&quot;origPos&quot;:null}" fill="#d3bb76"/><path d="M163.04152,419.04182l0.99998,-40.10787l36.74957,0.91625l-0.99998,40.10787z" data-paper-data="{&quot;origPos&quot;:null}" fill="#b9a568"/><path d="M157.39745,414.96761l0.92767,-37.20745l47.94671,1.19542l-0.92767,37.20745z" data-paper-data="{&quot;origPos&quot;:null}" fill="#e7cd81"/><path d="M163.57851,409.02665l0.64424,-25.83956l5.16791,0.12885l-0.64424,25.83956z" data-paper-data="{&quot;origPos&quot;:null}" fill="#d3bb76"/><path d="M193.73184,409.49112l0.64424,-25.83956l5.1679,0.12884l-0.64424,25.83956z" data-paper-data="{&quot;origPos&quot;:null}" fill="#d3bb76"/><path d="M172.77308,408.96857l0.64424,-25.83956l5.1679,0.12885l-0.64424,25.83956z" data-paper-data="{&quot;origPos&quot;:null}" fill="#d3bb76"/><path d="M184.83153,409.26922l0.64424,-25.83955l5.1679,0.12885l-0.64424,25.83955z" data-paper-data="{&quot;origPos&quot;:null}" fill="#d3bb76"/><path d="M174.166,408.79263l0.14317,-5.74211l12.91977,0.32212l-0.14317,5.74211z" data-paper-data="{&quot;origPos&quot;:null}" fill="#d3bb76"/><path d="M175.52119,389.00381l0.14316,-5.74213l12.91977,0.32212l-0.14316,5.74213z" data-paper-data="{&quot;origPos&quot;:null}" fill="#d3bb76"/><path d="M165.08758,296.85488l0.99998,-40.10787l36.74957,0.91625l-0.99998,40.10787z" data-paper-data="{&quot;origPos&quot;:null}" fill="#b9a568"/><path d="M159.44354,292.78065l0.92767,-37.20745l47.94671,1.19542l-0.92767,37.20745z" data-paper-data="{&quot;origPos&quot;:null}" fill="#e7cd81"/><path d="M165.62462,286.83968l0.64424,-25.83955l5.16792,0.12885l-0.64424,25.83956z" data-paper-data="{&quot;origPos&quot;:null}" fill="#d3bb76"/><path d="M195.7779,287.30407l0.64424,-25.83956l5.1679,0.12885l-0.64424,25.83955z" data-paper-data="{&quot;origPos&quot;:null}" fill="#d3bb76"/><path d="M174.81917,286.78155l0.64424,-25.83955l5.1679,0.12884l-0.64424,25.83956z" data-paper-data="{&quot;origPos&quot;:null}" fill="#d3bb76"/><path d="M186.87762,287.08217l0.64424,-25.83955l5.1679,0.12885l-0.64424,25.83955z" data-paper-data="{&quot;origPos&quot;:null}" fill="#d3bb76"/><path d="M176.21208,286.6056l0.14317,-5.74212l12.91977,0.32212l-0.14317,5.74211z" data-paper-data="{&quot;origPos&quot;:null}" fill="#d3bb76"/><path d="M177.5673,266.81676l0.14316,-5.74213l12.91977,0.32212l-0.14316,5.74213z" data-paper-data="{&quot;origPos&quot;:null}" fill="#d3bb76"/></g><g data-paper-data="{&quot;origPos&quot;:null}"><path d="M156.12156,713.49975l7.23637,-290.24035l36.97168,0.92179l-7.23636,290.24036z" data-paper-data="{&quot;origPos&quot;:null}" fill="#d3bb76"/><path d="M161.63133,498.43966l1.60702,-64.45531l37.32378,0.93057l-1.60702,64.45531z" data-paper-data="{&quot;origPos&quot;:null}" fill="#b9a568"/><path d="M155.99055,494.23395l1.61597,-64.8142l47.94671,1.19542l-1.61597,64.8142z" data-paper-data="{&quot;origPos&quot;:null}" fill="#e7cd81"/><path d="M163.55906,484.49694l1.18111,-47.37249l5.1679,0.12885l-1.18111,47.3725z" data-paper-data="{&quot;origPos&quot;:null}" fill="#b9a568"/><path d="M163.59337,483.11885l1.18111,-47.37249l5.1679,0.12885l-1.18111,47.3725z" data-paper-data="{&quot;origPos&quot;:null}" fill="#d3bb76"/><path d="M164.8209,440.79804l0.12455,-4.99565l24.97823,0.62277l-0.12455,4.99565z" data-paper-data="{&quot;origPos&quot;:null}" fill="#d3bb76"/><path d="M183.77353,475.69294l0.97495,-39.10386l5.16791,0.12885l-0.97495,39.10385z" data-paper-data="{&quot;origPos&quot;:null}" fill="#d3bb76"/><path d="M173.7779,475.61611l0.6786,-27.21765l5.16791,0.12885l-0.6786,27.21765z" data-paper-data="{&quot;origPos&quot;:null}" fill="#d3bb76"/><path d="M173.94892,475.67204l0.13744,-5.51244l14.81467,0.36936l-0.13744,5.51244z" data-paper-data="{&quot;origPos&quot;:null}" fill="#d3bb76"/><path d="M163.53623,485.40997l0.12455,-4.99565l33.93594,0.8461l-0.12455,4.99565z" data-paper-data="{&quot;origPos&quot;:null}" fill="#d3bb76"/><path d="M193.1669,486.09698l1.23264,-49.43965l5.16791,0.12885l-1.23265,49.43965z" data-paper-data="{&quot;origPos&quot;:null}" fill="#d3bb76"/><path d="M159.58522,620.62668l1.60702,-64.45531l37.32378,0.93057l-1.60702,64.45531z" data-paper-data="{&quot;origPos&quot;:null}" fill="#b9a568"/><path d="M153.94446,616.42085l1.61596,-64.8142l47.94671,1.19542l-1.61597,64.81419z" data-paper-data="{&quot;origPos&quot;:null}" fill="#e7cd81"/><path d="M161.51295,606.68396l1.18111,-47.37249l5.16791,0.12885l-1.18111,47.3725z" data-paper-data="{&quot;origPos&quot;:null}" fill="#b9a568"/><path d="M161.54733,605.30583l1.18111,-47.37249l5.16791,0.12885l-1.18111,47.3725z" data-paper-data="{&quot;origPos&quot;:null}" fill="#d3bb76"/><path d="M162.77479,562.98498l0.12455,-4.99565l24.97823,0.62276l-0.12455,4.99565z" data-paper-data="{&quot;origPos&quot;:null}" fill="#d3bb76"/><path d="M181.72742,597.87992l0.97495,-39.10385l5.16791,0.12885l-0.97495,39.10385z" data-paper-data="{&quot;origPos&quot;:null}" fill="#d3bb76"/><path d="M171.73184,597.8031l0.6786,-27.21765l5.16791,0.12885l-0.6786,27.21765z" data-paper-data="{&quot;origPos&quot;:null}" fill="#d3bb76"/><path d="M171.90281,597.85907l0.13744,-5.51244l14.81467,0.36937l-0.13744,5.51244z" data-paper-data="{&quot;origPos&quot;:null}" fill="#d3bb76"/><path d="M161.49012,607.59696l0.12456,-4.99565l33.93594,0.84611l-0.12455,4.99565z" data-paper-data="{&quot;origPos&quot;:null}" fill="#d3bb76"/><path d="M191.12075,608.28401l1.23265,-49.43965l5.1679,0.12885l-1.23264,49.43965z" data-paper-data="{&quot;origPos&quot;:null}" fill="#d3bb76"/><path d="M158.82468,668.41419l0.99998,-40.10787l36.74957,0.91625l-0.99998,40.10787z" data-paper-data="{&quot;origPos&quot;:null}" fill="#b9a568"/><path d="M153.18061,664.33994l0.92767,-37.20745l47.94671,1.19542l-0.92767,37.20745z" data-paper-data="{&quot;origPos&quot;:null}" fill="#e7cd81"/><path d="M159.3617,658.39902l0.64424,-25.83955l5.16791,0.12885l-0.64424,25.83955z" data-paper-data="{&quot;origPos&quot;:null}" fill="#d3bb76"/><path d="M189.51502,658.86349l0.64424,-25.83955l5.16791,0.12884l-0.64424,25.83956z" data-paper-data="{&quot;origPos&quot;:null}" fill="#d3bb76"/><path d="M168.55625,658.34093l0.64424,-25.83955l5.16791,0.12885l-0.64424,25.83955z" data-paper-data="{&quot;origPos&quot;:null}" fill="#d3bb76"/><path d="M180.61467,658.64154l0.64424,-25.83956l5.1679,0.12885l-0.64423,25.83956z" data-paper-data="{&quot;origPos&quot;:null}" fill="#d3bb76"/><path d="M169.94919,658.165l0.14317,-5.74212l12.91977,0.32213l-0.14317,5.74212z" data-paper-data="{&quot;origPos&quot;:null}" fill="#d3bb76"/><path d="M171.30442,638.37614l0.14316,-5.74212l12.91977,0.32212l-0.14316,5.74213z" data-paper-data="{&quot;origPos&quot;:null}" fill="#d3bb76"/><path d="M160.87079,546.22723l0.99998,-40.10787l36.74957,0.91625l-0.99998,40.10787z" data-paper-data="{&quot;origPos&quot;:null}" fill="#b9a568"/><path d="M155.2267,542.15298l0.92767,-37.20745l47.94671,1.19542l-0.92767,37.20745z" data-paper-data="{&quot;origPos&quot;:null}" fill="#e7cd81"/><path d="M161.40776,536.21201l0.64423,-25.83955l5.16792,0.12885l-0.64424,25.83955z" data-paper-data="{&quot;origPos&quot;:null}" fill="#d3bb76"/><path d="M191.56113,536.67644l0.64424,-25.83956l5.1679,0.12885l-0.64424,25.83956z" data-paper-data="{&quot;origPos&quot;:null}" fill="#d3bb76"/><path d="M170.60236,536.15388l0.64424,-25.83956l5.1679,0.12885l-0.64424,25.83955z" data-paper-data="{&quot;origPos&quot;:null}" fill="#d3bb76"/><path d="M182.66078,536.45454l0.64424,-25.83955l5.1679,0.12884l-0.64424,25.83955z" data-paper-data="{&quot;origPos&quot;:null}" fill="#d3bb76"/><path d="M171.99525,535.97795l0.14317,-5.74211l12.91977,0.32212l-0.14317,5.74211z" data-paper-data="{&quot;origPos&quot;:null}" fill="#d3bb76"/><path d="M173.35051,516.18914l0.14316,-5.74212l12.91977,0.32212l-0.14316,5.74213z" data-paper-data="{&quot;origPos&quot;:null}" fill="#d3bb76"/></g></g><g data-paper-data="{&quot;origPos&quot;:null,&quot;origRot&quot;:0}" stroke="none"><g data-paper-data="{&quot;origPos&quot;:null}"><path d="M207.33837,464.12738l7.23637,-290.24036l36.97168,0.92179l-7.23637,290.24036z" data-paper-data="{&quot;origPos&quot;:null}" fill="#d3bb76"/><path d="M212.84817,249.06729l1.60702,-64.45531l37.32378,0.93057l-1.60702,64.45531z" data-paper-data="{&quot;origPos&quot;:null}" fill="#b9a568"/><path d="M207.20734,244.86159l1.61597,-64.81419l47.94671,1.19542l-1.61597,64.8142z" data-paper-data="{&quot;origPos&quot;:null}" fill="#e7cd81"/><path d="M214.77587,235.12459l1.18111,-47.37249l5.16791,0.12884l-1.18111,47.3725z" data-paper-data="{&quot;origPos&quot;:null}" fill="#b9a568"/><path d="M214.81019,233.74648l1.18111,-47.37249l5.1679,0.12885l-1.18111,47.3725z" data-paper-data="{&quot;origPos&quot;:null}" fill="#d3bb76"/><path d="M216.03774,191.42566l0.12455,-4.99565l24.97823,0.62277l-0.12455,4.99565z" data-paper-data="{&quot;origPos&quot;:null}" fill="#d3bb76"/><path d="M234.9903,226.32058l0.97496,-39.10385l5.16791,0.12885l-0.97495,39.10385z" data-paper-data="{&quot;origPos&quot;:null}" fill="#d3bb76"/><path d="M224.99476,226.24374l0.6786,-27.21765l5.16792,0.12885l-0.6786,27.21764z" data-paper-data="{&quot;origPos&quot;:null}" fill="#d3bb76"/><path d="M225.16573,226.29969l0.13744,-5.51244l14.81467,0.36936l-0.13744,5.51244z" data-paper-data="{&quot;origPos&quot;:null}" fill="#d3bb76"/><path d="M214.75309,236.0376l0.12455,-4.99565l33.93594,0.84611l-0.12455,4.99565z" data-paper-data="{&quot;origPos&quot;:null}" fill="#d3bb76"/><path d="M244.38372,236.72462l1.23264,-49.43965l5.1679,0.12885l-1.23264,49.43965z" data-paper-data="{&quot;origPos&quot;:null}" fill="#d3bb76"/><path d="M210.80208,371.25432l1.60702,-64.45531l37.32379,0.93057l-1.60702,64.45531z" data-paper-data="{&quot;origPos&quot;:null}" fill="#b9a568"/><path d="M205.16123,367.04852l1.61597,-64.81419l47.94671,1.19542l-1.61597,64.8142z" data-paper-data="{&quot;origPos&quot;:null}" fill="#e7cd81"/><path d="M212.72979,357.31159l1.18111,-47.37248l5.1679,0.12885l-1.18111,47.3725z" data-paper-data="{&quot;origPos&quot;:null}" fill="#b9a568"/><path d="M212.76412,355.93348l1.18111,-47.37249l5.1679,0.12885l-1.18111,47.3725z" data-paper-data="{&quot;origPos&quot;:null}" fill="#d3bb76"/><path d="M213.99165,313.61261l0.12455,-4.99566l24.97823,0.62277l-0.12455,4.99566z" data-paper-data="{&quot;origPos&quot;:null}" fill="#d3bb76"/><path d="M232.94426,348.5076l0.97495,-39.10385l5.16791,0.12885l-0.97495,39.10385z" data-paper-data="{&quot;origPos&quot;:null}" fill="#d3bb76"/><path d="M222.94865,348.43074l0.6786,-27.21765l5.16791,0.12885l-0.6786,27.21765z" data-paper-data="{&quot;origPos&quot;:null}" fill="#d3bb76"/><path d="M223.11962,348.48672l0.13744,-5.51244l14.81467,0.36937l-0.13744,5.51244z" data-paper-data="{&quot;origPos&quot;:null}" fill="#d3bb76"/><path d="M212.70698,358.22461l0.12455,-4.99565l33.93594,0.84611l-0.12455,4.99565z" data-paper-data="{&quot;origPos&quot;:null}" fill="#d3bb76"/><path d="M242.33761,358.91168l1.23264,-49.43965l5.16791,0.12885l-1.23265,49.43966z" data-paper-data="{&quot;origPos&quot;:null}" fill="#d3bb76"/><path d="M210.04152,419.04182l0.99998,-40.10787l36.74957,0.91625l-0.99998,40.10787z" data-paper-data="{&quot;origPos&quot;:null}" fill="#b9a568"/><path d="M204.39745,414.96761l0.92767,-37.20745l47.94671,1.19542l-0.92767,37.20745z" data-paper-data="{&quot;origPos&quot;:null}" fill="#e7cd81"/><path d="M210.57851,409.02665l0.64424,-25.83956l5.16791,0.12885l-0.64424,25.83956z" data-paper-data="{&quot;origPos&quot;:null}" fill="#d3bb76"/><path d="M240.73184,409.49112l0.64424,-25.83956l5.1679,0.12884l-0.64424,25.83956z" data-paper-data="{&quot;origPos&quot;:null}" fill="#d3bb76"/><path d="M219.77308,408.96857l0.64424,-25.83956l5.1679,0.12885l-0.64424,25.83956z" data-paper-data="{&quot;origPos&quot;:null}" fill="#d3bb76"/><path d="M231.83153,409.26922l0.64424,-25.83955l5.1679,0.12885l-0.64424,25.83955z" data-paper-data="{&quot;origPos&quot;:null}" fill="#d3bb76"/><path d="M221.166,408.79263l0.14317,-5.74211l12.91977,0.32212l-0.14317,5.74211z" data-paper-data="{&quot;origPos&quot;:null}" fill="#d3bb76"/><path d="M222.52119,389.00381l0.14316,-5.74213l12.91977,0.32212l-0.14316,5.74213z" data-paper-data="{&quot;origPos&quot;:null}" fill="#d3bb76"/><path d="M212.08762,296.85488l0.99998,-40.10787l36.74957,0.91625l-0.99998,40.10787z" data-paper-data="{&quot;origPos&quot;:null}" fill="#b9a568"/><path d="M206.44356,292.78065l0.92767,-37.20745l47.94671,1.19542l-0.92767,37.20745z" data-paper-data="{&quot;origPos&quot;:null}" fill="#e7cd81"/><path d="M212.62462,286.83968l0.64424,-25.83955l5.16792,0.12885l-0.64424,25.83956z" data-paper-data="{&quot;origPos&quot;:null}" fill="#d3bb76"/><path d="M242.7779,287.30407l0.64424,-25.83956l5.1679,0.12885l-0.64424,25.83955z" data-paper-data="{&quot;origPos&quot;:null}" fill="#d3bb76"/><path d="M221.81917,286.78155l0.64424,-25.83955l5.1679,0.12884l-0.64424,25.83956z" data-paper-data="{&quot;origPos&quot;:null}" fill="#d3bb76"/><path d="M233.87762,287.08217l0.64424,-25.83955l5.1679,0.12885l-0.64424,25.83955z" data-paper-data="{&quot;origPos&quot;:null}" fill="#d3bb76"/><path d="M223.21208,286.6056l0.14317,-5.74212l12.91977,0.32212l-0.14317,5.74211z" data-paper-data="{&quot;origPos&quot;:null}" fill="#d3bb76"/><path d="M224.5673,266.81676l0.14316,-5.74213l12.91977,0.32212l-0.14316,5.74213z" data-paper-data="{&quot;origPos&quot;:null}" fill="#d3bb76"/></g><g data-paper-data="{&quot;origPos&quot;:null}"><path d="M203.12156,713.49975l7.23637,-290.24035l36.97168,0.92179l-7.23636,290.24036z" data-paper-data="{&quot;origPos&quot;:null}" fill="#d3bb76"/><path d="M208.63133,498.43966l1.60702,-64.45531l37.32378,0.93057l-1.60702,64.45531z" data-paper-data="{&quot;origPos&quot;:null}" fill="#b9a568"/><path d="M202.99055,494.23395l1.61597,-64.8142l47.94671,1.19542l-1.61597,64.8142z" data-paper-data="{&quot;origPos&quot;:null}" fill="#e7cd81"/><path d="M210.55906,484.49694l1.18111,-47.37249l5.1679,0.12885l-1.18111,47.3725z" data-paper-data="{&quot;origPos&quot;:null}" fill="#b9a568"/><path d="M210.59337,483.11885l1.18111,-47.37249l5.1679,0.12885l-1.18111,47.3725z" data-paper-data="{&quot;origPos&quot;:null}" fill="#d3bb76"/><path d="M211.82093,440.79804l0.12455,-4.99565l24.97823,0.62277l-0.12455,4.99565z" data-paper-data="{&quot;origPos&quot;:null}" fill="#d3bb76"/><path d="M230.77353,475.69294l0.97495,-39.10386l5.16791,0.12885l-0.97495,39.10385z" data-paper-data="{&quot;origPos&quot;:null}" fill="#d3bb76"/><path d="M220.7779,475.61611l0.6786,-27.21765l5.16791,0.12885l-0.6786,27.21765z" data-paper-data="{&quot;origPos&quot;:null}" fill="#d3bb76"/><path d="M220.94892,475.67204l0.13744,-5.51244l14.81467,0.36936l-0.13744,5.51244z" data-paper-data="{&quot;origPos&quot;:null}" fill="#d3bb76"/><path d="M210.53623,485.40997l0.12455,-4.99565l33.93594,0.8461l-0.12455,4.99565z" data-paper-data="{&quot;origPos&quot;:null}" fill="#d3bb76"/><path d="M240.1669,486.09698l1.23264,-49.43965l5.16791,0.12885l-1.23265,49.43965z" data-paper-data="{&quot;origPos&quot;:null}" fill="#d3bb76"/><path d="M206.58522,620.62668l1.60702,-64.45531l37.32378,0.93057l-1.60702,64.45531z" data-paper-data="{&quot;origPos&quot;:null}" fill="#b9a568"/><path d="M200.94446,616.42085l1.61596,-64.8142l47.94671,1.19542l-1.61597,64.81419z" data-paper-data="{&quot;origPos&quot;:null}" fill="#e7cd81"/><path d="M208.51295,606.68396l1.18111,-47.37249l5.16791,0.12885l-1.18111,47.3725z" data-paper-data="{&quot;origPos&quot;:null}" fill="#b9a568"/><path d="M208.54733,605.30583l1.18111,-47.37249l5.16791,0.12885l-1.18111,47.3725z" data-paper-data="{&quot;origPos&quot;:null}" fill="#d3bb76"/><path d="M209.77484,562.98498l0.12455,-4.99565l24.97823,0.62276l-0.12455,4.99565z" data-paper-data="{&quot;origPos&quot;:null}" fill="#d3bb76"/><path d="M228.72742,597.87992l0.97495,-39.10385l5.16791,0.12885l-0.97495,39.10385z" data-paper-data="{&quot;origPos&quot;:null}" fill="#d3bb76"/><path d="M218.73184,597.8031l0.6786,-27.21765l5.16791,0.12885l-0.6786,27.21765z" data-paper-data="{&quot;origPos&quot;:null}" fill="#d3bb76"/><path d="M218.90281,597.85907l0.13744,-5.51244l14.81467,0.36937l-0.13744,5.51244z" data-paper-data="{&quot;origPos&quot;:null}" fill="#d3bb76"/><path d="M208.49012,607.59696l0.12456,-4.99565l33.93594,0.84611l-0.12455,4.99565z" data-paper-data="{&quot;origPos&quot;:null}" fill="#d3bb76"/><path d="M238.12075,608.28401l1.23265,-49.43965l5.1679,0.12885l-1.23264,49.43965z" data-paper-data="{&quot;origPos&quot;:null}" fill="#d3bb76"/><path d="M205.82473,668.41419l0.99998,-40.10787l36.74957,0.91625l-0.99998,40.10787z" data-paper-data="{&quot;origPos&quot;:null}" fill="#b9a568"/><path d="M200.18064,664.33994l0.92767,-37.20745l47.94671,1.19542l-0.92767,37.20745z" data-paper-data="{&quot;origPos&quot;:null}" fill="#e7cd81"/><path d="M206.36171,658.39902l0.64424,-25.83955l5.16791,0.12885l-0.64424,25.83955z" data-paper-data="{&quot;origPos&quot;:null}" fill="#d3bb76"/><path d="M236.51502,658.86349l0.64424,-25.83955l5.16791,0.12884l-0.64424,25.83956z" data-paper-data="{&quot;origPos&quot;:null}" fill="#d3bb76"/><path d="M215.55625,658.34093l0.64424,-25.83955l5.16791,0.12885l-0.64424,25.83955z" data-paper-data="{&quot;origPos&quot;:null}" fill="#d3bb76"/><path d="M227.61467,658.64154l0.64424,-25.83956l5.1679,0.12885l-0.64423,25.83956z" data-paper-data="{&quot;origPos&quot;:null}" fill="#d3bb76"/><path d="M216.94919,658.165l0.14317,-5.74212l12.91977,0.32213l-0.14317,5.74212z" data-paper-data="{&quot;origPos&quot;:null}" fill="#d3bb76"/><path d="M218.30442,638.37614l0.14316,-5.74212l12.91977,0.32212l-0.14316,5.74213z" data-paper-data="{&quot;origPos&quot;:null}" fill="#d3bb76"/><path d="M207.87082,546.22723l0.99998,-40.10787l36.74957,0.91625l-0.99998,40.10787z" data-paper-data="{&quot;origPos&quot;:null}" fill="#b9a568"/><path d="M202.2267,542.15298l0.92767,-37.20745l47.94671,1.19542l-0.92767,37.20745z" data-paper-data="{&quot;origPos&quot;:null}" fill="#e7cd81"/><path d="M208.40781,536.21201l0.64423,-25.83955l5.16792,0.12885l-0.64424,25.83955z" data-paper-data="{&quot;origPos&quot;:null}" fill="#d3bb76"/><path d="M238.56113,536.67644l0.64424,-25.83956l5.1679,0.12885l-0.64424,25.83956z" data-paper-data="{&quot;origPos&quot;:null}" fill="#d3bb76"/><path d="M217.60236,536.15388l0.64424,-25.83956l5.1679,0.12885l-0.64424,25.83955z" data-paper-data="{&quot;origPos&quot;:null}" fill="#d3bb76"/><path d="M229.66078,536.45454l0.64424,-25.83955l5.1679,0.12884l-0.64424,25.83955z" data-paper-data="{&quot;origPos&quot;:null}" fill="#d3bb76"/><path d="M218.99525,535.97795l0.14317,-5.74211l12.91977,0.32212l-0.14317,5.74211z" data-paper-data="{&quot;origPos&quot;:null}" fill="#d3bb76"/><path d="M220.35051,516.18914l0.14316,-5.74212l12.91977,0.32212l-0.14316,5.74213z" data-paper-data="{&quot;origPos&quot;:null}" fill="#d3bb76"/></g></g><g data-paper-data="{&quot;origPos&quot;:null,&quot;origRot&quot;:0}" stroke="none"><g data-paper-data="{&quot;origPos&quot;:null}"><path d="M350.24054,435.15033l-5.558,-290.27734l36.97639,-0.708l5.558,290.27735z" data-paper-data="{&quot;origPos&quot;:null}" fill="#d3bb76"/><path d="M346.26991,220.05632l-1.2343,-64.46352l37.32854,-0.71474l1.2343,64.46352z" data-paper-data="{&quot;origPos&quot;:null}" fill="#b9a568"/><path d="M340.44929,216.10322l-1.24117,-64.82246l47.95282,-0.91817l1.24117,64.82246z" data-paper-data="{&quot;origPos&quot;:null}" fill="#e7cd81"/><path d="M347.58149,206.04222l-0.90717,-47.37853l5.16856,-0.09896l0.90716,47.37854z" data-paper-data="{&quot;origPos&quot;:null}" fill="#b9a568"/><path d="M347.55504,204.66394l-0.90717,-47.37853l5.16856,-0.09896l0.90716,47.37854z" data-paper-data="{&quot;origPos&quot;:null}" fill="#d3bb76"/><path d="M346.91683,162.33013l-0.09567,-4.99629l24.98141,-0.47833l0.09567,4.99629z" data-paper-data="{&quot;origPos&quot;:null}" fill="#d3bb76"/><path d="M367.38842,196.35616l-0.74882,-39.10884l5.16857,-0.09896l0.74882,39.10884z" data-paper-data="{&quot;origPos&quot;:null}" fill="#d3bb76"/><path d="M357.39915,196.71978l-0.52121,-27.22112l5.16857,-0.09896l0.52121,27.22112z" data-paper-data="{&quot;origPos&quot;:null}" fill="#d3bb76"/><path d="M357.57243,196.76813l-0.10556,-5.51314l14.81656,-0.28369l0.10556,5.51314z" data-paper-data="{&quot;origPos&quot;:null}" fill="#d3bb76"/><path d="M347.59892,206.95535l-0.09567,-4.99629l33.94026,-0.64986l0.09567,4.99629z" data-paper-data="{&quot;origPos&quot;:null}" fill="#d3bb76"/><path d="M377.23104,206.33625l-0.94675,-49.44595l5.16856,-0.09896l0.94675,49.44595z" data-paper-data="{&quot;origPos&quot;:null}" fill="#d3bb76"/><path d="M349.60909,342.21484l-1.2343,-64.46352l37.32854,-0.71474l1.2343,64.46352z" data-paper-data="{&quot;origPos&quot;:null}" fill="#b9a568"/><path d="M343.78846,338.26165l-1.24117,-64.82246l47.95282,-0.91817l1.24117,64.82246z" data-paper-data="{&quot;origPos&quot;:null}" fill="#e7cd81"/><path d="M350.92066,328.20072l-0.90717,-47.37853l5.16856,-0.09896l0.90716,47.37854z" data-paper-data="{&quot;origPos&quot;:null}" fill="#b9a568"/><path d="M350.89427,326.8224l-0.90717,-47.37853l5.16856,-0.09896l0.90716,47.37854z" data-paper-data="{&quot;origPos&quot;:null}" fill="#d3bb76"/><path d="M350.256,284.48859l-0.09567,-4.99629l24.98141,-0.47833l0.09567,4.99629z" data-paper-data="{&quot;origPos&quot;:null}" fill="#d3bb76"/><path d="M370.7276,318.51464l-0.74882,-39.10884l5.16857,-0.09896l0.74882,39.10884z" data-paper-data="{&quot;origPos&quot;:null}" fill="#d3bb76"/><path d="M360.73833,318.87827l-0.52121,-27.22112l5.16857,-0.09896l0.52121,27.22112z" data-paper-data="{&quot;origPos&quot;:null}" fill="#d3bb76"/><path d="M360.9116,318.92668l-0.10556,-5.51314l14.81656,-0.28369l0.10556,5.51314z" data-paper-data="{&quot;origPos&quot;:null}" fill="#d3bb76"/><path d="M350.93809,329.11386l-0.09567,-4.99629l33.94026,-0.64986l0.09567,4.99629z" data-paper-data="{&quot;origPos&quot;:null}" fill="#d3bb76"/><path d="M380.57021,328.49477l-0.94675,-49.44595l5.16856,-0.09896l0.94675,49.44595z" data-paper-data="{&quot;origPos&quot;:null}" fill="#d3bb76"/><path d="M350.9547,389.98945l-0.76805,-40.11298l36.75426,-0.70374l0.76805,40.11298z" data-paper-data="{&quot;origPos&quot;:null}" fill="#b9a568"/><path d="M345.1366,386.16786l-0.71251,-37.21219l47.95282,-0.91817l0.71251,37.21219z" data-paper-data="{&quot;origPos&quot;:null}" fill="#e7cd81"/><path d="M351.04992,379.96036l-0.49482,-25.84285l5.16857,-0.09896l0.49482,25.84285z" data-paper-data="{&quot;origPos&quot;:null}" fill="#d3bb76"/><path d="M381.19443,379.09589l-0.49482,-25.84285l5.16856,-0.09896l0.49482,25.84285z" data-paper-data="{&quot;origPos&quot;:null}" fill="#d3bb76"/><path d="M360.23299,379.49724l-0.49482,-25.84285l5.16856,-0.09896l0.49482,25.84285z" data-paper-data="{&quot;origPos&quot;:null}" fill="#d3bb76"/><path d="M372.29298,379.26632l-0.49482,-25.84285l5.16856,-0.09896l0.49482,25.84285z" data-paper-data="{&quot;origPos&quot;:null}" fill="#d3bb76"/><path d="M361.61681,379.26009l-0.10996,-5.74285l12.92142,-0.24741l0.10996,5.74285z" data-paper-data="{&quot;origPos&quot;:null}" fill="#d3bb76"/><path d="M362.09887,359.43078l-0.10996,-5.74286l12.92142,-0.24741l0.10996,5.74286z" data-paper-data="{&quot;origPos&quot;:null}" fill="#d3bb76"/><path d="M347.61553,267.831l-0.76805,-40.11298l36.75426,-0.70374l0.76805,40.11298z" data-paper-data="{&quot;origPos&quot;:null}" fill="#b9a568"/><path d="M341.79743,264.00937l-0.71251,-37.21219l47.95282,-0.91817l0.71251,37.21219z" data-paper-data="{&quot;origPos&quot;:null}" fill="#e7cd81"/><path d="M347.71075,257.80186l-0.49482,-25.84285l5.16857,-0.09896l0.49482,25.84285z" data-paper-data="{&quot;origPos&quot;:null}" fill="#d3bb76"/><path d="M377.85525,256.93735l-0.49482,-25.84285l5.16856,-0.09896l0.49482,25.84285z" data-paper-data="{&quot;origPos&quot;:null}" fill="#d3bb76"/><path d="M356.89381,257.3387l-0.49482,-25.84285l5.16856,-0.09896l0.49482,25.84285z" data-paper-data="{&quot;origPos&quot;:null}" fill="#d3bb76"/><path d="M368.9538,257.10776l-0.49482,-25.84285l5.16856,-0.09896l0.49482,25.84285z" data-paper-data="{&quot;origPos&quot;:null}" fill="#d3bb76"/><path d="M358.27762,257.10157l-0.10996,-5.74285l12.92142,-0.24741l0.10996,5.74285z" data-paper-data="{&quot;origPos&quot;:null}" fill="#d3bb76"/><path d="M358.75969,237.27223l-0.10996,-5.74286l12.92142,-0.24741l0.10996,5.74286z" data-paper-data="{&quot;origPos&quot;:null}" fill="#d3bb76"/></g><g data-paper-data="{&quot;origPos&quot;:null}"><path d="M357.0146,684.46633l-5.558,-290.27734l36.97639,-0.708l5.558,290.27735z" data-paper-data="{&quot;origPos&quot;:null}" fill="#d3bb76"/><path d="M353.04398,469.37233l-1.2343,-64.46352l37.32854,-0.71474l1.2343,64.46352z" data-paper-data="{&quot;origPos&quot;:null}" fill="#b9a568"/><path d="M347.22336,465.41921l-1.24117,-64.82246l47.95282,-0.91817l1.24117,64.82246z" data-paper-data="{&quot;origPos&quot;:null}" fill="#e7cd81"/><path d="M354.35555,455.35821l-0.90717,-47.37853l5.16856,-0.09896l0.90716,47.37854z" data-paper-data="{&quot;origPos&quot;:null}" fill="#b9a568"/><path d="M354.32911,453.97995l-0.90717,-47.37853l5.16856,-0.09896l0.90716,47.37854z" data-paper-data="{&quot;origPos&quot;:null}" fill="#d3bb76"/><path d="M353.6909,411.64615l-0.09567,-4.99629l24.98141,-0.47833l0.09567,4.99629z" data-paper-data="{&quot;origPos&quot;:null}" fill="#d3bb76"/><path d="M374.1625,445.67215l-0.74882,-39.10884l5.16857,-0.09896l0.74882,39.10884z" data-paper-data="{&quot;origPos&quot;:null}" fill="#d3bb76"/><path d="M364.17323,446.03578l-0.52121,-27.22112l5.16857,-0.09896l0.52121,27.22112z" data-paper-data="{&quot;origPos&quot;:null}" fill="#d3bb76"/><path d="M364.34649,446.08414l-0.10556,-5.51314l14.81656,-0.28369l0.10556,5.51314z" data-paper-data="{&quot;origPos&quot;:null}" fill="#d3bb76"/><path d="M354.37298,456.27135l-0.09567,-4.99629l33.94026,-0.64986l0.09567,4.99629z" data-paper-data="{&quot;origPos&quot;:null}" fill="#d3bb76"/><path d="M384.00512,455.65224l-0.94675,-49.44595l5.16856,-0.09896l0.94675,49.44595z" data-paper-data="{&quot;origPos&quot;:null}" fill="#d3bb76"/><path d="M356.38316,591.53086l-1.2343,-64.46352l37.32854,-0.71474l1.2343,64.46352z" data-paper-data="{&quot;origPos&quot;:null}" fill="#b9a568"/><path d="M350.56254,587.57764l-1.24117,-64.82246l47.95282,-0.91817l1.24117,64.82246z" data-paper-data="{&quot;origPos&quot;:null}" fill="#e7cd81"/><path d="M357.69473,577.51672l-0.90717,-47.37853l5.16856,-0.09896l0.90716,47.37854z" data-paper-data="{&quot;origPos&quot;:null}" fill="#b9a568"/><path d="M357.66833,576.13839l-0.90717,-47.37853l5.16856,-0.09896l0.90716,47.37854z" data-paper-data="{&quot;origPos&quot;:null}" fill="#d3bb76"/><path d="M357.03008,533.80459l-0.09567,-4.99629l24.98141,-0.47833l0.09567,4.99629z" data-paper-data="{&quot;origPos&quot;:null}" fill="#d3bb76"/><path d="M377.50167,567.83066l-0.74882,-39.10884l5.16857,-0.09896l0.74882,39.10884z" data-paper-data="{&quot;origPos&quot;:null}" fill="#d3bb76"/><path d="M367.5124,568.19427l-0.52121,-27.22112l5.16857,-0.09896l0.52121,27.22112z" data-paper-data="{&quot;origPos&quot;:null}" fill="#d3bb76"/><path d="M367.68567,568.24263l-0.10556,-5.51314l14.81656,-0.28369l0.10556,5.51314z" data-paper-data="{&quot;origPos&quot;:null}" fill="#d3bb76"/><path d="M357.71216,578.42986l-0.09567,-4.99629l33.94026,-0.64986l0.09567,4.99629z" data-paper-data="{&quot;origPos&quot;:null}" fill="#d3bb76"/><path d="M387.34429,577.81076l-0.94675,-49.44595l5.16856,-0.09896l0.94675,49.44595z" data-paper-data="{&quot;origPos&quot;:null}" fill="#d3bb76"/><path d="M357.72878,639.30545l-0.76805,-40.11298l36.75426,-0.70374l0.76805,40.11298z" data-paper-data="{&quot;origPos&quot;:null}" fill="#b9a568"/><path d="M351.91067,635.48385l-0.71251,-37.21219l47.95282,-0.91817l0.71251,37.21219z" data-paper-data="{&quot;origPos&quot;:null}" fill="#e7cd81"/><path d="M357.824,629.27631l-0.49482,-25.84285l5.16857,-0.09896l0.49482,25.84285z" data-paper-data="{&quot;origPos&quot;:null}" fill="#d3bb76"/><path d="M387.96849,628.41185l-0.49482,-25.84285l5.16856,-0.09896l0.49482,25.84285z" data-paper-data="{&quot;origPos&quot;:null}" fill="#d3bb76"/><path d="M367.00705,628.81319l-0.49482,-25.84285l5.16856,-0.09896l0.49482,25.84285z" data-paper-data="{&quot;origPos&quot;:null}" fill="#d3bb76"/><path d="M379.06705,628.58233l-0.49482,-25.84285l5.16856,-0.09896l0.49482,25.84285z" data-paper-data="{&quot;origPos&quot;:null}" fill="#d3bb76"/><path d="M368.39088,628.57607l-0.10996,-5.74285l12.92142,-0.24741l0.10996,5.74285z" data-paper-data="{&quot;origPos&quot;:null}" fill="#d3bb76"/><path d="M368.87295,608.74673l-0.10996,-5.74286l12.92142,-0.24741l0.10996,5.74286z" data-paper-data="{&quot;origPos&quot;:null}" fill="#d3bb76"/><path d="M354.3896,517.14699l-0.76805,-40.11298l36.75426,-0.70374l0.76805,40.11298z" data-paper-data="{&quot;origPos&quot;:null}" fill="#b9a568"/><path d="M348.57149,513.32539l-0.71251,-37.21219l47.95282,-0.91817l0.71251,37.21219z" data-paper-data="{&quot;origPos&quot;:null}" fill="#e7cd81"/><path d="M354.48481,507.11788l-0.49482,-25.84285l5.16857,-0.09896l0.49482,25.84285z" data-paper-data="{&quot;origPos&quot;:null}" fill="#d3bb76"/><path d="M384.62932,506.25334l-0.49482,-25.84285l5.16856,-0.09896l0.49482,25.84285z" data-paper-data="{&quot;origPos&quot;:null}" fill="#d3bb76"/><path d="M363.66788,506.6547l-0.49482,-25.84285l5.16856,-0.09896l0.49482,25.84285z" data-paper-data="{&quot;origPos&quot;:null}" fill="#d3bb76"/><path d="M375.72787,506.42379l-0.49482,-25.84285l5.16856,-0.09896l0.49482,25.84285z" data-paper-data="{&quot;origPos&quot;:null}" fill="#d3bb76"/><path d="M365.05169,506.41755l-0.10996,-5.74285l12.92142,-0.24741l0.10996,5.74285z" data-paper-data="{&quot;origPos&quot;:null}" fill="#d3bb76"/><path d="M365.53377,486.58825l-0.10996,-5.74286l12.92142,-0.24741l0.10996,5.74286z" data-paper-data="{&quot;origPos&quot;:null}" fill="#d3bb76"/></g></g><path d="M464.00001,629.80001v-444h64v444z" data-paper-data="{&quot;origPos&quot;:null}" fill="#9e907a" stroke="none"/></g></g></svg>