<svg version="1.1" xmlns="http://www.w3.org/2000/svg" xmlns:xlink="http://www.w3.org/1999/xlink" width="42.80761" height="42.95612"><defs><radialGradient cx="304.25442" cy="180.17569" r="21.47806" gradientUnits="userSpaceOnUse" id="color-1"><stop offset="0" stop-color="#ffe3bf"/><stop offset="1" stop-color="#ffe3bf" stop-opacity="0"/></radialGradient><linearGradient x1="285.61361" y1="176.08503" x2="300.11587" y2="199.86863" gradientUnits="userSpaceOnUse" id="color-2"><stop offset="0" stop-color="#706756"/><stop offset="1" stop-color="#706756" stop-opacity="0"/></linearGradient></defs><g transform="translate(-282.85063,-158.69762)"><g data-paper-data="{&quot;isPaintingLayer&quot;:true}" fill="none" fill-rule="nonzero" stroke="none" stroke-width="none" stroke-linecap="none" stroke-linejoin="miter" stroke-miterlimit="10" stroke-dasharray="" stroke-dashoffset="0" font-family="none" font-weight="none" font-size="none" text-anchor="none" style="mix-blend-mode: normal"><path d="M325.65824,180.17569c0,11.86201 -9.58281,21.47806 -21.40381,21.47806c-11.82099,0 -21.4038,-9.61605 -21.4038,-21.47806c0,-11.86201 9.58281,-21.47806 21.4038,-21.47806c11.82099,0 21.40381,9.61605 21.40381,21.47806z" data-paper-data="{&quot;origPos&quot;:null}" fill="url(#color-1)" stroke="none" stroke-width="0" stroke-linecap="butt"/><path d="M294.33218,188.74067l6.98123,-22.22862c0,0 13.22105,8.12142 14.55436,8.79954c0.44444,0.22604 7.78976,12.27829 7.78976,12.27829l-23.54165,12.27875z" data-paper-data="{&quot;origPos&quot;:null}" id="ID0.2113282661885023" fill="url(#color-2)" stroke="none" stroke-width="0.7621" stroke-linecap="round"/><path d="M302.0057,170.66391c3.90704,2.41564 6.22696,3.85 10.01128,6.18976c1.26145,0.77993 1.02101,3.52017 -0.3943,4.49415c-4.24081,2.91839 -7.48623,5.15178 -10.86657,7.47803c-1.35012,0.92909 -2.88722,-0.34395 -2.88722,-1.98287c0,-4.64776 0,-8.56613 0,-14.04891c0,-1.8295 2.52238,-3.12836 4.13683,-2.13017z" data-paper-data="{&quot;origPos&quot;:null}" id="ID0.8089321344159544" fill="#706756" stroke="#706756" stroke-width="8" stroke-linecap="round"/></g></g></svg>