<svg version="1.1" xmlns="http://www.w3.org/2000/svg" xmlns:xlink="http://www.w3.org/1999/xlink" width="603.56409" height="394.26566"><defs><linearGradient x1="577.42967" y1="247.81827" x2="597.92208" y2="267.38838" gradientUnits="userSpaceOnUse" id="color-1"><stop offset="0" stop-color="#8e8e8e"/><stop offset="1" stop-color="#818181"/></linearGradient><linearGradient x1="504.24815" y1="251.79594" x2="503.19694" y2="292.84807" gradientUnits="userSpaceOnUse" id="color-2"><stop offset="0" stop-color="#8e8e8e"/><stop offset="1" stop-color="#818181"/></linearGradient><linearGradient x1="393.29511" y1="248.00267" x2="419.16373" y2="272.70703" gradientUnits="userSpaceOnUse" id="color-3"><stop offset="0" stop-color="#8e8e8e"/><stop offset="1" stop-color="#818181"/></linearGradient><linearGradient x1="85.74518" y1="310.41828" x2="65.25277" y2="329.98839" gradientUnits="userSpaceOnUse" id="color-4"><stop offset="0" stop-color="#8e8e8e"/><stop offset="1" stop-color="#818181"/></linearGradient><linearGradient x1="158.9267" y1="314.39595" x2="159.97791" y2="355.44807" gradientUnits="userSpaceOnUse" id="color-5"><stop offset="0" stop-color="#8e8e8e"/><stop offset="1" stop-color="#818181"/></linearGradient><linearGradient x1="269.87974" y1="310.60267" x2="244.01112" y2="335.30704" gradientUnits="userSpaceOnUse" id="color-6"><stop offset="0" stop-color="#8e8e8e"/><stop offset="1" stop-color="#818181"/></linearGradient><linearGradient x1="455.17752" y1="317.75455" x2="455.94744" y2="347.82169" gradientUnits="userSpaceOnUse" id="color-7"><stop offset="0" stop-color="#8e8e8e"/><stop offset="1" stop-color="#818181"/></linearGradient></defs><g transform="translate(-29.80538,-204.33436)"><g data-paper-data="{&quot;isPaintingLayer&quot;:true}" fill="none" fill-rule="nonzero" stroke="none" stroke-width="none" stroke-linecap="butt" stroke-linejoin="miter" stroke-miterlimit="10" stroke-dasharray="" stroke-dashoffset="0" font-family="none" font-weight="none" font-size="none" text-anchor="none" style="mix-blend-mode: normal"><path d="M204.79488,369.20007v-80h175.5291v80z" data-paper-data="{&quot;origPos&quot;:null}" fill="#847968" stroke-width="NaN"/><path d="M197.90792,356.20003v-40h182.76923v40z" data-paper-data="{&quot;origPos&quot;:null}" fill="#7c7262" stroke-width="0"/><path d="M196.80538,598.60002v-252h185.76922v252z" data-paper-data="{&quot;origPos&quot;:null}" fill="#786e5f" stroke-width="0"/><path d="M201.31818,298.20005v-9h187.56411v9z" data-paper-data="{&quot;origPos&quot;:null}" fill="#61584c" stroke-width="0"/><path d="M201.80538,293.20005v-19h187.56409v19z" data-paper-data="{&quot;origPos&quot;:null}" fill="#91b782" stroke-width="0"/><path d="M200.90792,293.20005v-12h187.56411v12z" data-paper-data="{&quot;origPos&quot;:null}" fill="#8aaf7c" stroke-width="0"/><path d="M449.85087,306.60006v-80h175.5291v80z" data-paper-data="{&quot;origPos&quot;:null,&quot;index&quot;:null}" fill="#847968" stroke-width="NaN"/><path d="M449.4977,293.60002v-40h182.76923v40z" data-paper-data="{&quot;origPos&quot;:null,&quot;index&quot;:null}" fill="#7c7262" stroke-width="0"/><path d="M447.60025,536.00002v-252h185.76922v252z" data-paper-data="{&quot;origPos&quot;:null,&quot;index&quot;:null}" fill="#786e5f" stroke-width="0"/><path d="M441.29256,235.60005v-9h187.56411v9z" data-paper-data="{&quot;origPos&quot;:null,&quot;index&quot;:null}" fill="#61584c" stroke-width="0"/><path d="M440.80538,230.60005v-19h187.56409v19z" data-paper-data="{&quot;origPos&quot;:null,&quot;index&quot;:null}" fill="#91b782" stroke-width="0"/><path d="M441.70282,230.60005v-12h187.56411v12z" data-paper-data="{&quot;origPos&quot;:null,&quot;index&quot;:null}" fill="#8aaf7c" stroke-width="0"/><path d="M328.59612,306.60006v-80h131.77537v80z" data-paper-data="{&quot;origPos&quot;:null,&quot;index&quot;:null}" fill="#847968" stroke-width="NaN"/><path d="M328.33099,293.60002v-40h137.21077v40z" data-paper-data="{&quot;origPos&quot;:null,&quot;index&quot;:null}" fill="#7c7262" stroke-width="0"/><path d="M326.90651,536.00002v-252h139.46296v252z" data-paper-data="{&quot;origPos&quot;:null,&quot;index&quot;:null}" fill="#786e5f" stroke-width="0"/><path d="M322.17112,235.60005v-9h140.81044v9z" data-paper-data="{&quot;origPos&quot;:null,&quot;index&quot;:null}" fill="#61584c" stroke-width="0"/><path d="M321.80538,230.60005v-19h140.81043v19z" data-paper-data="{&quot;origPos&quot;:null,&quot;index&quot;:null}" fill="#91b782" stroke-width="0"/><path d="M322.47912,230.60005v-12h140.81044v12z" data-paper-data="{&quot;origPos&quot;:null,&quot;index&quot;:null}" fill="#8aaf7c" stroke-width="0"/><g data-paper-data="{&quot;origPos&quot;:null,&quot;index&quot;:null}"><path d="M598.14143,272.4183l-16.06516,1.37884l-7.94537,-21.95397l22.20779,-6.88753l8.28566,14.35289z" data-paper-data="{&quot;origPos&quot;:null,&quot;origRot&quot;:0}" fill="#534c42" stroke-width="0"/><path d="M595.90049,269.50522l-14.41745,1.23742l-7.13047,-19.70227l19.93006,-6.18112l7.43586,12.88079z" data-paper-data="{&quot;origPos&quot;:null,&quot;origRot&quot;:0}" fill="url(#color-1)" stroke-width="NaN"/></g><g data-paper-data="{&quot;origPos&quot;:null,&quot;origRot&quot;:0,&quot;index&quot;:null}"><path d="M498.01161,297.98141l-17.12347,-15.90102l15.82765,-29.90595l29.01767,17.13017l-7.33761,22.86964z" data-paper-data="{&quot;origPos&quot;:null,&quot;origRot&quot;:0}" fill="#534c42" stroke-width="0"/><path d="M498.95629,292.73946l-15.36722,-14.27015l14.20428,-26.83867l26.04149,15.37322l-6.58502,20.52404z" data-paper-data="{&quot;origPos&quot;:null,&quot;origRot&quot;:0}" fill="url(#color-2)" stroke-width="NaN"/></g><g data-paper-data="{&quot;origPos&quot;:null,&quot;index&quot;:null}"><path d="M419.44063,279.05657l-20.27988,1.74058l-10.02985,-27.71363l28.03404,-8.69448l10.45941,18.11839z" data-paper-data="{&quot;origPos&quot;:null,&quot;origRot&quot;:0}" fill="#534c42" stroke-width="0"/><path d="M416.61177,275.37924l-18.19989,1.56206l-9.00116,-24.87119l25.15874,-7.80275l9.38667,16.26008z" data-paper-data="{&quot;origPos&quot;:null,&quot;origRot&quot;:0}" fill="url(#color-3)" stroke-width="NaN"/></g><path d="M37.79488,369.20007v-80h175.5291v80z" data-paper-data="{&quot;origPos&quot;:null}" fill="#847968" stroke-width="NaN"/><path d="M30.90792,356.20003v-40h182.76923v40z" data-paper-data="{&quot;origPos&quot;:null}" fill="#7c7262" stroke-width="0"/><path d="M29.80538,598.60002v-252h185.76922v252z" data-paper-data="{&quot;origPos&quot;:null}" fill="#786e5f" stroke-width="0"/><path d="M34.31818,298.20005v-9h187.56411v9z" data-paper-data="{&quot;origPos&quot;:null}" fill="#61584c" stroke-width="0"/><path d="M34.80538,293.20005v-19h187.56409v19z" data-paper-data="{&quot;origPos&quot;:null}" fill="#91b782" stroke-width="0"/><path d="M33.90792,293.20005v-12h187.56411v12z" data-paper-data="{&quot;origPos&quot;:null}" fill="#8aaf7c" stroke-width="0"/><g data-paper-data="{&quot;origPos&quot;:null}"><path d="M58.5505,321.90853l8.28566,-14.35289l22.20779,6.88753l-7.94537,21.95397l-16.06516,-1.37884z" data-paper-data="{&quot;origPos&quot;:null,&quot;origRot&quot;:0}" fill="#534c42" stroke-width="0"/><path d="M61.45636,320.34004l7.43586,-12.88079l19.93006,6.18112l-7.13047,19.70227l-14.41745,-1.23742z" data-paper-data="{&quot;origPos&quot;:null,&quot;origRot&quot;:0}" fill="url(#color-4)" stroke-width="NaN"/></g><g data-paper-data="{&quot;origPos&quot;:null,&quot;origRot&quot;:0}"><path d="M144.779,354.77426l-7.33761,-22.86964l29.01767,-17.13017l15.82765,29.90595l-17.12347,15.90102z" data-paper-data="{&quot;origPos&quot;:null,&quot;origRot&quot;:0}" fill="#534c42" stroke-width="0"/><path d="M145.92503,350.12791l-6.58502,-20.52404l26.04149,-15.37322l14.20428,26.83867l-15.36722,14.27015z" data-paper-data="{&quot;origPos&quot;:null,&quot;origRot&quot;:0}" fill="url(#color-5)" stroke-width="NaN"/></g><g data-paper-data="{&quot;origPos&quot;:null}"><path d="M235.5505,325.10744l10.45941,-18.11839l28.03404,8.69448l-10.02985,27.71363l-20.27988,-1.74058z" data-paper-data="{&quot;origPos&quot;:null,&quot;origRot&quot;:0}" fill="#534c42" stroke-width="0"/><path d="M239.21872,323.12744l9.38667,-16.26008l25.15874,7.80275l-9.00116,24.87119l-18.19989,-1.56206z" data-paper-data="{&quot;origPos&quot;:null,&quot;origRot&quot;:0}" fill="url(#color-6)" stroke-width="NaN"/></g><g data-paper-data="{&quot;origPos&quot;:null,&quot;origRot&quot;:0}" stroke-width="0"><path d="M327.1701,495.82473l-10.63436,-290.13572l36.95835,-1.35464l10.63436,290.13573z" data-paper-data="{&quot;origPos&quot;:null}" fill="#d3bb76"/><path d="M319.43789,280.83312l-2.36163,-64.43207l37.31032,-1.36754l2.36163,64.43207z" data-paper-data="{&quot;origPos&quot;:null}" fill="#b9a568"/><path d="M313.54902,276.98237l-2.37478,-64.79083l47.92943,-1.75676l2.37478,64.79083z" data-paper-data="{&quot;origPos&quot;:null}" fill="#e7cd81"/><path d="M320.50413,266.79819l-1.73572,-47.35541l5.16604,-0.18935l1.73572,47.35542z" data-paper-data="{&quot;origPos&quot;:null}" fill="#b9a568"/><path d="M320.45362,265.42053l-1.73571,-47.35541l5.16604,-0.18935l1.73571,47.35542z" data-paper-data="{&quot;origPos&quot;:null}" fill="#d3bb76"/><path d="M319.07504,223.10439l-0.18304,-4.99384l24.96922,-0.9152l0.18304,4.99384z" data-paper-data="{&quot;origPos&quot;:null}" fill="#d3bb76"/><path d="M340.13865,256.76716l-1.43276,-39.08975l5.16605,-0.18935l1.43276,39.08975z" data-paper-data="{&quot;origPos&quot;:null}" fill="#d3bb76"/><path d="M330.15728,257.30539l-0.99725,-27.20784l5.16605,-0.18935l0.99725,27.20784z" data-paper-data="{&quot;origPos&quot;:null}" fill="#d3bb76"/><path d="M330.33136,257.35078l-0.20197,-5.51046l14.80933,-0.54281l0.20197,5.51046z" data-paper-data="{&quot;origPos&quot;:null}" fill="#d3bb76"/><path d="M320.53756,267.71083l-0.18303,-4.99384l33.92369,-1.24341l0.18303,4.99384z" data-paper-data="{&quot;origPos&quot;:null}" fill="#d3bb76"/><path d="M350.15434,266.57354l-1.81146,-49.42184l5.16604,-0.18935l1.81146,49.42184z" data-paper-data="{&quot;origPos&quot;:null}" fill="#d3bb76"/><path d="M324.91321,402.91449l-2.36163,-64.43207l37.31032,-1.36754l2.36163,64.43207z" data-paper-data="{&quot;origPos&quot;:null}" fill="#b9a568"/><path d="M319.02434,399.06379l-2.37478,-64.79083l47.92943,-1.75676l2.37478,64.79083z" data-paper-data="{&quot;origPos&quot;:null}" fill="#e7cd81"/><path d="M325.97946,388.8796l-1.73572,-47.35541l5.16604,-0.18935l1.73571,47.35542z" data-paper-data="{&quot;origPos&quot;:null}" fill="#b9a568"/><path d="M325.92896,387.50198l-1.73572,-47.35541l5.16604,-0.18935l1.73572,47.35542z" data-paper-data="{&quot;origPos&quot;:null}" fill="#d3bb76"/><path d="M324.55037,345.18577l-0.18303,-4.99384l24.96922,-0.9152l0.18303,4.99384z" data-paper-data="{&quot;origPos&quot;:null}" fill="#d3bb76"/><path d="M345.61398,378.84857l-1.43276,-39.08975l5.16605,-0.18935l1.43276,39.08975z" data-paper-data="{&quot;origPos&quot;:null}" fill="#d3bb76"/><path d="M335.6326,379.38686l-0.99725,-27.20784l5.16605,-0.18935l0.99725,27.20784z" data-paper-data="{&quot;origPos&quot;:null}" fill="#d3bb76"/><path d="M335.80669,379.4322l-0.20198,-5.51046l14.80933,-0.54281l0.20198,5.51046z" data-paper-data="{&quot;origPos&quot;:null}" fill="#d3bb76"/><path d="M326.01289,389.79227l-0.18303,-4.99384l33.92369,-1.24341l0.18303,4.99384z" data-paper-data="{&quot;origPos&quot;:null}" fill="#d3bb76"/><path d="M355.62966,388.655l-1.81146,-49.42184l5.16604,-0.18935l1.81146,49.42184z" data-paper-data="{&quot;origPos&quot;:null}" fill="#d3bb76"/><path d="M327.09425,450.6583l-1.46954,-40.09341l36.73632,-1.3465l1.46954,40.09341z" data-paper-data="{&quot;origPos&quot;:null}" fill="#b9a568"/><path d="M321.2102,446.93902l-1.36328,-37.19404l47.92943,-1.75676l1.36328,37.19404z" data-paper-data="{&quot;origPos&quot;:null}" fill="#e7cd81"/><path d="M327.01405,440.62904l-0.94676,-25.83024l5.16605,-0.18935l0.94676,25.83024z" data-paper-data="{&quot;origPos&quot;:null}" fill="#d3bb76"/><path d="M357.13881,439.23747l-0.94675,-25.83024l5.16604,-0.18935l0.94675,25.83024z" data-paper-data="{&quot;origPos&quot;:null}" fill="#d3bb76"/><path d="M336.18761,440.00539l-0.94676,-25.83024l5.16604,-0.18935l0.94676,25.83024z" data-paper-data="{&quot;origPos&quot;:null}" fill="#d3bb76"/><path d="M348.24173,439.56356l-0.94676,-25.83024l5.16604,-0.18935l0.94676,25.83024z" data-paper-data="{&quot;origPos&quot;:null}" fill="#d3bb76"/><path d="M337.56709,439.74409l-0.21039,-5.74005l12.91512,-0.47337l0.21039,5.74005z" data-paper-data="{&quot;origPos&quot;:null}" fill="#d3bb76"/><path d="M337.70224,419.90936l-0.21039,-5.74006l12.91512,-0.47337l0.21039,5.74006z" data-paper-data="{&quot;origPos&quot;:null}" fill="#d3bb76"/><path d="M321.61892,328.57692l-1.46954,-40.09341l36.73632,-1.3465l1.46954,40.09341z" data-paper-data="{&quot;origPos&quot;:null}" fill="#b9a568"/><path d="M315.73487,324.85754l-1.36328,-37.19404l47.92943,-1.75676l1.36328,37.19404z" data-paper-data="{&quot;origPos&quot;:null}" fill="#e7cd81"/><path d="M321.53874,318.5476l-0.94676,-25.83024l5.16605,-0.18935l0.94676,25.83024z" data-paper-data="{&quot;origPos&quot;:null}" fill="#d3bb76"/><path d="M351.66349,317.15599l-0.94675,-25.83024l5.16604,-0.18935l0.94675,25.83024z" data-paper-data="{&quot;origPos&quot;:null}" fill="#d3bb76"/><path d="M330.71229,317.92391l-0.94675,-25.83024l5.16604,-0.18935l0.94675,25.83024z" data-paper-data="{&quot;origPos&quot;:null}" fill="#d3bb76"/><path d="M342.76639,317.48213l-0.94675,-25.83024l5.16604,-0.18935l0.94675,25.83024z" data-paper-data="{&quot;origPos&quot;:null}" fill="#d3bb76"/><path d="M332.09174,317.66261l-0.21039,-5.74005l12.91512,-0.47337l0.21039,5.74005z" data-paper-data="{&quot;origPos&quot;:null}" fill="#d3bb76"/><path d="M332.22693,297.82791l-0.21039,-5.74006l12.91512,-0.47337l0.21039,5.74006z" data-paper-data="{&quot;origPos&quot;:null}" fill="#d3bb76"/></g><g data-paper-data="{&quot;origPos&quot;:null,&quot;origRot&quot;:0}"><path d="M444.81555,347.32817l-5.37416,-16.75003l21.25293,-12.54637l11.59239,21.90352l-12.54146,11.64612z" data-paper-data="{&quot;origPos&quot;:null,&quot;origRot&quot;:0}" fill="#534c42" stroke-width="0"/><path d="M445.65492,343.92512l-4.82296,-15.03208l19.07314,-11.25955l10.40341,19.65701l-11.25516,10.45165z" data-paper-data="{&quot;origPos&quot;:null,&quot;origRot&quot;:0}" fill="url(#color-7)" stroke-width="NaN"/></g></g></g></svg>