<svg version="1.1" xmlns="http://www.w3.org/2000/svg" xmlns:xlink="http://www.w3.org/1999/xlink" width="321.96508" height="339.0689"><defs><linearGradient x1="283.74515" y1="330.21826" x2="263.25274" y2="349.78837" gradientUnits="userSpaceOnUse" id="color-1"><stop offset="0" stop-color="#8e8e8e"/><stop offset="1" stop-color="#818181"/></linearGradient><linearGradient x1="278.05496" y1="252.6187" x2="303.742" y2="284.4063" gradientUnits="userSpaceOnUse" id="color-2"><stop offset="0" stop-color="#8e8e8e"/><stop offset="1" stop-color="#818181"/></linearGradient><linearGradient x1="371.24331" y1="291.32634" x2="367.75482" y2="323.05724" gradientUnits="userSpaceOnUse" id="color-3"><stop offset="0" stop-color="#8e8e8e"/><stop offset="1" stop-color="#818181"/></linearGradient><linearGradient x1="394.74515" y1="230.21826" x2="374.25274" y2="249.78837" gradientUnits="userSpaceOnUse" id="color-4"><stop offset="0" stop-color="#8e8e8e"/><stop offset="1" stop-color="#818181"/></linearGradient></defs><g transform="translate(-163.47954,-162.13109)"><g data-paper-data="{&quot;isPaintingLayer&quot;:true}" fill="none" fill-rule="nonzero" stroke="none" stroke-width="none" stroke-linecap="butt" stroke-linejoin="miter" stroke-miterlimit="10" stroke-dasharray="" stroke-dashoffset="0" font-family="none" font-weight="none" font-size="none" text-anchor="none" style="mix-blend-mode: normal"><path d="M203.1215,272.80003v-80h250.98131v80z" data-paper-data="{&quot;origPos&quot;:null}" fill="#847968" stroke-width="NaN"/><path d="M200.6729,258.80003v-40h253.42991v40z" data-paper-data="{&quot;origPos&quot;:null}" fill="#7c7262" stroke-width="0"/><path d="M199.4486,501.19999v-252h253.42991v252z" data-paper-data="{&quot;origPos&quot;:null}" fill="#786e5f" stroke-width="0"/><path d="M203.1215,200.80008v-9h255.8785v9z" data-paper-data="{&quot;origPos&quot;:null}" fill="#61584c" stroke-width="0"/><path d="M197,195.80008v-19h255.8785v19z" data-paper-data="{&quot;origPos&quot;:null}" fill="#91b782" stroke-width="0"/><path d="M198.2243,195.80008v-12h255.8785v12z" data-paper-data="{&quot;origPos&quot;:null}" fill="#8aaf7c" stroke-width="0"/><g data-paper-data="{&quot;origPos&quot;:null}"><path d="M256.55047,341.70852l8.28566,-14.35289l22.20779,6.88753l-7.94537,21.95397l-16.06516,-1.37884z" data-paper-data="{&quot;origPos&quot;:null,&quot;origRot&quot;:0}" fill="#534c42" stroke-width="0"/><path d="M259.45633,340.14009l7.43586,-12.88079l19.93006,6.18112l-7.13047,19.70227l-14.41745,-1.23742z" data-paper-data="{&quot;origPos&quot;:null,&quot;origRot&quot;:0}" fill="url(#color-1)" stroke-width="NaN"/></g><g data-paper-data="{&quot;origPos&quot;:null,&quot;origRot&quot;:0}" stroke-width="0"><path d="M195.3869,454.64005l-26.91969,-289.07985l36.82385,-3.42911l26.91969,289.07986z" data-paper-data="{&quot;origPos&quot;:null}" fill="#d3bb76"/><path d="M175.58696,240.42251l-5.97821,-64.19759l37.17454,-3.46177l5.97821,64.19759z" data-paper-data="{&quot;origPos&quot;:null}" fill="#b9a568"/><path d="M169.49103,236.90873l-6.01149,-64.55504l47.755,-4.44704l6.01149,64.55504z" data-paper-data="{&quot;origPos&quot;:null}" fill="#e7cd81"/><path d="M175.86293,226.34989l-4.39378,-47.18307l5.14724,-0.47932l4.39378,47.18308z" data-paper-data="{&quot;origPos&quot;:null}" fill="#b9a568"/><path d="M175.73509,224.97722l-4.39378,-47.18307l5.14724,-0.47932l4.39378,47.18308z" data-paper-data="{&quot;origPos&quot;:null}" fill="#d3bb76"/><path d="M171.98103,182.80538l-0.46334,-4.97567l24.87835,-2.31672l0.46334,4.97567z" data-paper-data="{&quot;origPos&quot;:null}" fill="#d3bb76"/><path d="M194.90281,215.23144l-3.62687,-38.94749l5.14725,-0.47932l3.62687,38.94749z" data-paper-data="{&quot;origPos&quot;:null}" fill="#d3bb76"/><path d="M184.96745,216.32966l-2.52443,-27.10882l5.14725,-0.47932l2.52443,27.10882z" data-paper-data="{&quot;origPos&quot;:null}" fill="#d3bb76"/><path d="M185.14381,216.36521l-0.51128,-5.4904l14.75544,-1.37406l0.51128,5.4904z" data-paper-data="{&quot;origPos&quot;:null}" fill="#d3bb76"/><path d="M175.94759,227.25919l-0.46334,-4.97567l33.80024,-3.14755l0.46334,4.97567z" data-paper-data="{&quot;origPos&quot;:null}" fill="#d3bb76"/><path d="M205.45367,224.45958l-4.58551,-49.24198l5.14724,-0.47932l4.58551,49.24198z" data-paper-data="{&quot;origPos&quot;:null}" fill="#d3bb76"/><path d="M187.91313,362.00336l-5.97821,-64.19759l37.17454,-3.46177l5.97821,64.19759z" data-paper-data="{&quot;origPos&quot;:null}" fill="#b9a568"/><path d="M181.81721,358.48963l-6.01149,-64.55504l47.755,-4.44704l6.01149,64.55504z" data-paper-data="{&quot;origPos&quot;:null}" fill="#e7cd81"/><path d="M188.18911,347.93075l-4.39378,-47.18307l5.14724,-0.47932l4.39378,47.18308z" data-paper-data="{&quot;origPos&quot;:null}" fill="#b9a568"/><path d="M188.06129,346.55814l-4.39378,-47.18307l5.14724,-0.47932l4.39378,47.18308z" data-paper-data="{&quot;origPos&quot;:null}" fill="#d3bb76"/><path d="M184.30721,304.38624l-0.46334,-4.97567l24.87835,-2.31672l0.46334,4.97567z" data-paper-data="{&quot;origPos&quot;:null}" fill="#d3bb76"/><path d="M207.22899,336.81233l-3.62687,-38.94749l5.14725,-0.47932l3.62687,38.94749z" data-paper-data="{&quot;origPos&quot;:null}" fill="#d3bb76"/><path d="M197.29362,337.9106l-2.52443,-27.10882l5.14725,-0.47932l2.52443,27.10882z" data-paper-data="{&quot;origPos&quot;:null}" fill="#d3bb76"/><path d="M197.46998,337.9461l-0.51128,-5.4904l14.75544,-1.37406l0.51128,5.4904z" data-paper-data="{&quot;origPos&quot;:null}" fill="#d3bb76"/><path d="M188.27377,348.84009l-0.46334,-4.97567l33.80024,-3.14755l0.46334,4.97567z" data-paper-data="{&quot;origPos&quot;:null}" fill="#d3bb76"/><path d="M217.77985,346.04051l-4.58551,-49.24198l5.14724,-0.47932l4.58551,49.24198z" data-paper-data="{&quot;origPos&quot;:null}" fill="#d3bb76"/><path d="M192.77335,409.54921l-3.71999,-39.9475l36.60263,-3.40851l3.71999,39.9475z" data-paper-data="{&quot;origPos&quot;:null}" fill="#b9a568"/><path d="M186.68962,406.16642l-3.45098,-37.05868l47.755,-4.44704l3.45098,37.05868z" data-paper-data="{&quot;origPos&quot;:null}" fill="#e7cd81"/><path d="M192.12976,399.5403l-2.39661,-25.73623l5.14725,-0.47932l2.39661,25.73623z" data-paper-data="{&quot;origPos&quot;:null}" fill="#d3bb76"/><path d="M222.12874,396.45828l-2.39661,-25.73623l5.14724,-0.47932l2.39661,25.73623z" data-paper-data="{&quot;origPos&quot;:null}" fill="#d3bb76"/><path d="M201.25379,398.40219l-2.39661,-25.73623l5.14724,-0.47932l2.39661,25.73623z" data-paper-data="{&quot;origPos&quot;:null}" fill="#d3bb76"/><path d="M213.26403,397.28376l-2.39661,-25.73623l5.14724,-0.47932l2.39661,25.73623z" data-paper-data="{&quot;origPos&quot;:null}" fill="#d3bb76"/><path d="M202.6164,398.0638l-0.53258,-5.71916l12.86812,-1.1983l0.53258,5.71916z" data-paper-data="{&quot;origPos&quot;:null}" fill="#d3bb76"/><path d="M201.63687,378.25281l-0.53258,-5.71917l12.86812,-1.1983l0.53258,5.71917z" data-paper-data="{&quot;origPos&quot;:null}" fill="#d3bb76"/><path d="M180.44718,287.96835l-3.71999,-39.9475l36.60263,-3.40851l3.71999,39.9475z" data-paper-data="{&quot;origPos&quot;:null}" fill="#b9a568"/><path d="M174.36344,284.58547l-3.45098,-37.05868l47.755,-4.44704l3.45098,37.05868z" data-paper-data="{&quot;origPos&quot;:null}" fill="#e7cd81"/><path d="M179.80359,277.9594l-2.39661,-25.73623l5.14725,-0.47932l2.39661,25.73623z" data-paper-data="{&quot;origPos&quot;:null}" fill="#d3bb76"/><path d="M209.80256,274.8773l-2.39661,-25.73623l5.14724,-0.47932l2.39661,25.73623z" data-paper-data="{&quot;origPos&quot;:null}" fill="#d3bb76"/><path d="M188.92761,276.82124l-2.39661,-25.73623l5.14724,-0.47932l2.39661,25.73623z" data-paper-data="{&quot;origPos&quot;:null}" fill="#d3bb76"/><path d="M200.93785,275.70286l-2.39661,-25.73623l5.14724,-0.47932l2.39661,25.73623z" data-paper-data="{&quot;origPos&quot;:null}" fill="#d3bb76"/><path d="M190.29021,276.48286l-0.53258,-5.71916l12.86812,-1.1983l0.53258,5.71916z" data-paper-data="{&quot;origPos&quot;:null}" fill="#d3bb76"/><path d="M189.3107,256.67188l-0.53258,-5.71917l12.86812,-1.1983l0.53258,5.71917z" data-paper-data="{&quot;origPos&quot;:null}" fill="#d3bb76"/></g><g data-paper-data="{&quot;origPos&quot;:null,&quot;origRot&quot;:0}"><path d="M291.32945,293.07696l-19.64286,-13.62024l12.54682,-31.0999l30.60898,14.03708l-3.89667,22.92723z" data-paper-data="{&quot;origPos&quot;:null,&quot;origRot&quot;:0}" fill="#534c42" stroke-width="0"/><path d="M289.42132,288.71325l-17.6282,-12.22331l11.25997,-27.91015l27.46958,12.59739l-3.49701,20.57572z" data-paper-data="{&quot;origPos&quot;:null,&quot;origRot&quot;:0}" fill="url(#color-2)" stroke-width="NaN"/></g><g data-paper-data="{&quot;origPos&quot;:null,&quot;origRot&quot;:0}"><path d="M356.11823,320.94692l-3.2574,-18.38386l24.14474,-10.15653l9.06025,24.69257l-14.8544,10.4551z" data-paper-data="{&quot;origPos&quot;:null,&quot;origRot&quot;:0}" fill="#534c42" stroke-width="0"/><path d="M357.48747,317.48803l-2.92329,-16.49834l21.66835,-9.11482l8.13097,22.16l-13.33088,9.38278z" data-paper-data="{&quot;origPos&quot;:null,&quot;origRot&quot;:0}" fill="url(#color-3)" stroke-width="NaN"/></g><g data-paper-data="{&quot;origPos&quot;:null,&quot;origRot&quot;:0,&quot;index&quot;:null}" stroke-width="0"><path d="M416.71341,459.21095l26.91969,-289.07986l36.82385,3.42911l-26.91969,289.07985z" data-paper-data="{&quot;origPos&quot;:null}" fill="#d3bb76"/><path d="M436.16266,244.96074l5.97821,-64.19759l37.17454,3.46177l-5.97821,64.19759z" data-paper-data="{&quot;origPos&quot;:null}" fill="#b9a568"/><path d="M431.67813,240.46169l6.01149,-64.55504l47.755,4.44704l-6.01149,64.55504z" data-paper-data="{&quot;origPos&quot;:null}" fill="#e7cd81"/><path d="M467.91399,233.87058l4.39378,-47.18308l5.14724,0.47932l-4.39378,47.18307z" data-paper-data="{&quot;origPos&quot;:null}" fill="#b9a568"/><path d="M468.04183,232.49791l4.39378,-47.18308l5.14724,0.47932l-4.39378,47.18307z" data-paper-data="{&quot;origPos&quot;:null}" fill="#d3bb76"/><path d="M452.06478,188.48866l0.46334,-4.97567l24.87835,2.31672l-0.46334,4.97567z" data-paper-data="{&quot;origPos&quot;:null}" fill="#d3bb76"/><path d="M448.8741,222.75212l3.62687,-38.94749l5.14725,0.47932l-3.62687,38.94749z" data-paper-data="{&quot;origPos&quot;:null}" fill="#d3bb76"/><path d="M458.80946,223.85034l2.52443,-27.10882l5.14725,0.47932l-2.52443,27.10882z" data-paper-data="{&quot;origPos&quot;:null}" fill="#d3bb76"/><path d="M449.02491,222.99115l0.51128,-5.4904l14.75544,1.37406l-0.51128,5.4904z" data-paper-data="{&quot;origPos&quot;:null}" fill="#d3bb76"/><path d="M439.17633,232.11164l0.46334,-4.97567l33.80024,3.14755l-0.46334,4.97567z" data-paper-data="{&quot;origPos&quot;:null}" fill="#d3bb76"/><path d="M438.32325,231.98026l4.58551,-49.24198l5.14724,0.47932l-4.58551,49.24198z" data-paper-data="{&quot;origPos&quot;:null}" fill="#d3bb76"/><path d="M423.83649,366.54159l5.97821,-64.19759l37.17454,3.46177l-5.97821,64.19759z" data-paper-data="{&quot;origPos&quot;:null}" fill="#b9a568"/><path d="M419.35195,362.04259l6.01149,-64.55504l47.755,4.44704l-6.01149,64.55504z" data-paper-data="{&quot;origPos&quot;:null}" fill="#e7cd81"/><path d="M455.58781,355.45144l4.39378,-47.18308l5.14724,0.47932l-4.39378,47.18307z" data-paper-data="{&quot;origPos&quot;:null}" fill="#b9a568"/><path d="M455.71563,354.07883l4.39378,-47.18308l5.14724,0.47932l-4.39378,47.18307z" data-paper-data="{&quot;origPos&quot;:null}" fill="#d3bb76"/><path d="M439.7386,310.06952l0.46334,-4.97567l24.87835,2.31672l-0.46334,4.97567z" data-paper-data="{&quot;origPos&quot;:null}" fill="#d3bb76"/><path d="M436.54792,344.33301l3.62687,-38.94749l5.14725,0.47932l-3.62687,38.94749z" data-paper-data="{&quot;origPos&quot;:null}" fill="#d3bb76"/><path d="M446.48329,345.43128l2.52443,-27.10882l5.14725,0.47932l-2.52443,27.10882z" data-paper-data="{&quot;origPos&quot;:null}" fill="#d3bb76"/><path d="M436.69874,344.57204l0.51128,-5.4904l14.75544,1.37406l-0.51128,5.4904z" data-paper-data="{&quot;origPos&quot;:null}" fill="#d3bb76"/><path d="M426.85015,353.69254l0.46334,-4.97567l33.80024,3.14755l-0.46334,4.97567z" data-paper-data="{&quot;origPos&quot;:null}" fill="#d3bb76"/><path d="M425.99707,353.56119l4.58551,-49.24198l5.14724,0.47932l-4.58551,49.24198z" data-paper-data="{&quot;origPos&quot;:null}" fill="#d3bb76"/><path d="M419.54818,414.1407l3.71999,-39.9475l36.60263,3.40851l-3.71999,39.9475z" data-paper-data="{&quot;origPos&quot;:null}" fill="#b9a568"/><path d="M414.47954,409.71938l3.45098,-37.05868l47.755,4.44704l-3.45098,37.05868z" data-paper-data="{&quot;origPos&quot;:null}" fill="#e7cd81"/><path d="M451.64715,407.06098l2.39661,-25.73623l5.14725,0.47932l-2.39661,25.73623z" data-paper-data="{&quot;origPos&quot;:null}" fill="#d3bb76"/><path d="M421.64818,403.97896l2.39661,-25.73623l5.14724,0.47932l-2.39661,25.73623z" data-paper-data="{&quot;origPos&quot;:null}" fill="#d3bb76"/><path d="M442.52313,405.92287l2.39661,-25.73623l5.14724,0.47932l-2.39661,25.73623z" data-paper-data="{&quot;origPos&quot;:null}" fill="#d3bb76"/><path d="M430.51289,404.80444l2.39661,-25.73623l5.14724,0.47932l-2.39661,25.73623z" data-paper-data="{&quot;origPos&quot;:null}" fill="#d3bb76"/><path d="M433.43964,404.8655l0.53258,-5.71916l12.86812,1.1983l-0.53258,5.71916z" data-paper-data="{&quot;origPos&quot;:null}" fill="#d3bb76"/><path d="M434.41917,385.05451l0.53258,-5.71917l12.86812,1.1983l-0.53258,5.71917z" data-paper-data="{&quot;origPos&quot;:null}" fill="#d3bb76"/><path d="M431.87435,292.55984l3.71999,-39.9475l36.60263,3.40851l-3.71999,39.9475z" data-paper-data="{&quot;origPos&quot;:null}" fill="#b9a568"/><path d="M426.80572,288.13843l3.45098,-37.05868l47.755,4.44704l-3.45098,37.05868z" data-paper-data="{&quot;origPos&quot;:null}" fill="#e7cd81"/><path d="M463.97332,285.48008l2.39661,-25.73623l5.14725,0.47932l-2.39661,25.73623z" data-paper-data="{&quot;origPos&quot;:null}" fill="#d3bb76"/><path d="M433.97436,282.39798l2.39661,-25.73623l5.14724,0.47932l-2.39661,25.73623z" data-paper-data="{&quot;origPos&quot;:null}" fill="#d3bb76"/><path d="M454.84931,284.34192l2.39661,-25.73623l5.14724,0.47932l-2.39661,25.73623z" data-paper-data="{&quot;origPos&quot;:null}" fill="#d3bb76"/><path d="M442.83907,283.22354l2.39661,-25.73623l5.14724,0.47932l-2.39661,25.73623z" data-paper-data="{&quot;origPos&quot;:null}" fill="#d3bb76"/><path d="M445.76583,283.28456l0.53258,-5.71916l12.86812,1.1983l-0.53258,5.71916z" data-paper-data="{&quot;origPos&quot;:null}" fill="#d3bb76"/><path d="M446.74534,263.47358l0.53258,-5.71917l12.86812,1.1983l-0.53258,5.71917z" data-paper-data="{&quot;origPos&quot;:null}" fill="#d3bb76"/></g><g data-paper-data="{&quot;origPos&quot;:null}"><path d="M367.55047,241.70851l8.28566,-14.35289l22.20779,6.88753l-7.94537,21.95397l-16.06516,-1.37884z" data-paper-data="{&quot;origPos&quot;:null,&quot;origRot&quot;:0}" fill="#534c42" stroke-width="0"/><path d="M370.45633,240.14009l7.43586,-12.88079l19.93006,6.18112l-7.13047,19.70227l-14.41745,-1.23742z" data-paper-data="{&quot;origPos&quot;:null,&quot;origRot&quot;:0}" fill="url(#color-4)" stroke-width="NaN"/></g></g></g></svg>