<svg version="1.1" xmlns="http://www.w3.org/2000/svg" xmlns:xlink="http://www.w3.org/1999/xlink" width="28.38243" height="34.43818"><g transform="translate(-226.90244,-155.96354)"><g data-paper-data="{&quot;isPaintingLayer&quot;:true}" fill="none" fill-rule="nonzero" stroke="#787878" stroke-width="4" stroke-linecap="butt" stroke-linejoin="miter" stroke-miterlimit="10" stroke-dasharray="" stroke-dashoffset="0" font-family="none" font-weight="none" font-size="none" text-anchor="none" style="mix-blend-mode: normal"><path d="M252.54158,161.66027c0,2.04165 -5.2918,3.69673 -11.81957,3.69673c-6.52777,0 -11.81957,-1.65508 -11.81957,-3.69673c0,-2.04165 5.2918,-3.69673 11.81957,-3.69673c6.52777,0 11.81957,1.65508 11.81957,3.69673z" data-paper-data="{&quot;origPos&quot;:null}"/><path d="M252.91323,169.10741c0,2.04165 -5.2918,3.69673 -11.81957,3.69673c-6.52777,0 -11.81956,-1.65508 -11.81956,-3.69673c0,-2.04165 5.2918,-3.69673 11.81956,-3.69673c6.52777,0 11.81957,1.65508 11.81957,3.69673z" data-paper-data="{&quot;origPos&quot;:null}"/><path d="M252.91323,177.25784c0,2.04165 -5.2918,3.69673 -11.81957,3.69673c-6.52777,0 -11.81956,-1.65508 -11.81956,-3.69673c0,-2.04165 5.2918,-3.69673 11.81956,-3.69673c6.52777,0 11.81957,1.65508 11.81957,3.69673z" data-paper-data="{&quot;origPos&quot;:null}"/><path d="M253.28487,184.70499c0,2.04165 -5.2918,3.69673 -11.81957,3.69673c-6.52777,0 -11.81956,-1.65508 -11.81956,-3.69673c0,-2.04165 5.2918,-3.69673 11.81956,-3.69673c6.52777,0 11.81957,1.65508 11.81957,3.69673z" data-paper-data="{&quot;origPos&quot;:null}"/></g></g></svg>