<svg version="1.1" xmlns="http://www.w3.org/2000/svg" xmlns:xlink="http://www.w3.org/1999/xlink" width="430.22189" height="275.53872"><defs><linearGradient x1="246.8453" y1="178.52776" x2="246.8453" y2="198.67699" gradientUnits="userSpaceOnUse" id="color-1"><stop offset="0" stop-color="#817666"/><stop offset="1" stop-color="#786f5f"/></linearGradient></defs><g transform="translate(-56.34877,2.33068)"><g data-paper-data="{&quot;isPaintingLayer&quot;:true}" fill="none" fill-rule="nonzero" stroke="none" stroke-width="none" stroke-linecap="none" stroke-linejoin="miter" stroke-miterlimit="10" stroke-dasharray="" stroke-dashoffset="0" font-family="none" font-weight="none" font-size="none" text-anchor="none" style="mix-blend-mode: normal"><path d="M211.31615,264.18985c0,0 2.17923,-7.03633 8.69496,-24.92449c5.50168,-15.10412 11.13277,-19.27965 11.13277,-19.27965c0,0 -5.18932,15.8568 -6.62802,31.10384c-1.76782,18.73515 2.34727,15.36771 2.34727,15.36771z" data-paper-data="{&quot;origPos&quot;:null,&quot;origRot&quot;:0}" fill="#8eb480" stroke="none" stroke-width="0" stroke-linecap="butt"/><path d="M209.35922,263.75185c0,0 2.92726,2.00444 1.66972,-9.14755c-1.02341,-9.07572 -4.71481,-18.5144 -4.71481,-18.5144c0,0 4.00565,2.48546 7.91924,11.47611c4.63493,10.64783 6.18512,14.83617 6.18512,14.83617z" data-paper-data="{&quot;origPos&quot;:null,&quot;origRot&quot;:0}" fill="#8eb480" stroke="none" stroke-width="0" stroke-linecap="butt"/><g data-paper-data="{&quot;origPos&quot;:null}" stroke="none" stroke-width="0.5" stroke-linecap="butt"><path d="M186.94332,59.18204c0,-5.03845 4.08446,-9.12292 9.12291,-9.12292c5.03845,0 9.12291,4.08446 9.12291,9.12292c0,5.03845 -4.08446,9.12292 -9.12291,9.12292c-5.03845,0 -9.12291,-4.08447 -9.12291,-9.12292z" data-paper-data="{&quot;origPos&quot;:null}" fill="#6c4343"/><path d="M196.06625,50.05915c5.03844,0 9.12291,4.08449 9.12291,9.12292c0,5.03843 -4.08448,9.12291 -9.12291,9.12291c-5.03843,0 -5.03843,-18.24584 0,-18.24584z" data-paper-data="{&quot;origPos&quot;:null}" fill="#6c4343"/><path d="M185.45048,58.18683c0,-5.03845 4.08446,-9.12292 9.12291,-9.12292c5.03845,0 9.12291,4.08446 9.12291,9.12292c0,5.03845 -4.08446,9.12292 -9.12291,9.12292c-5.03845,0 -9.12291,-4.08447 -9.12291,-9.12292z" data-paper-data="{&quot;origPos&quot;:null}" fill="#c76262"/><path d="M194.57341,49.06393c5.03844,0 9.12291,4.08449 9.12291,9.12292c0,5.03843 -4.08448,9.12291 -9.12291,9.12291c-5.03843,0 -5.03843,-18.24584 0,-18.24584z" data-paper-data="{&quot;origPos&quot;:null}" fill="#c76e6e"/></g><path d="M242.82708,255.63534l0.95829,-120.83513l12.96091,-1.81912l12.79329,11.24799l16.67645,-9.09237c0,0 -0.65612,87.31121 -0.81909,107.86174c-0.05432,6.85019 17.22429,12.97337 17.22429,12.97337c0,0 -16.21642,-0.08611 -26.00955,-0.14121c-13.5423,-0.07621 -33.7846,-0.19527 -33.7846,-0.19527z" data-paper-data="{&quot;origPos&quot;:null,&quot;origRot&quot;:0}" fill="#908472" stroke="none" stroke-width="0" stroke-linecap="butt"/><path d="M242.82708,255.63534l0.95829,-120.83513l12.96091,-1.81912l12.79329,11.24799l16.67645,-9.09237c0,0 -1.60381,35.36781 -0.49404,65.45846c0.69109,18.73833 -0.19382,25.85489 -0.32505,42.40328c-0.05432,6.85019 1.00787,12.88726 -8.78526,12.83215c-13.5423,-0.07621 -33.7846,-0.19527 -33.7846,-0.19527z" data-paper-data="{&quot;origPos&quot;:null,&quot;origRot&quot;:0}" fill="#887c6b" stroke="none" stroke-width="0" stroke-linecap="butt"/><path d="M242.82708,255.63534l0.95829,-120.83513l12.96091,-1.81912l12.79329,11.24799c0,0 16.02033,78.21884 15.85736,98.76937c-0.05432,6.85019 1.00787,12.88726 -8.78526,12.83215c-13.5423,-0.07621 -33.7846,-0.19527 -33.7846,-0.19527z" data-paper-data="{&quot;origPos&quot;:null,&quot;origRot&quot;:0}" fill="#847968" stroke="none" stroke-width="0" stroke-linecap="butt"/><path d="M242.82712,255.63534c0,0 0.12526,-15.7964 0.20545,-25.90692c0.24055,-30.33151 0.75283,-94.92821 0.75283,-94.92821l12.9609,-1.81912l12.79329,11.24799z" data-paper-data="{&quot;origPos&quot;:null,&quot;origRot&quot;:0}" fill="#817666" stroke="none" stroke-width="0" stroke-linecap="butt"/><path d="M285.76336,157.35979c0,0 -10.64939,-3.97577 -18.16014,-5.13126c-9.00652,-1.38561 -24.16334,-1.38003 -24.16334,-1.38003v-18.44871h42.3235v24.96001z" data-paper-data="{&quot;origPos&quot;:null,&quot;index&quot;:null}" fill="#5d554a" stroke="none" stroke-width="0" stroke-linecap="butt"/><path d="M285.76336,155.98595c0,0 -10.64939,-3.97577 -18.16014,-5.13126c-9.00652,-1.38561 -24.16334,-1.38003 -24.16334,-1.38003v-18.44871h42.3235v24.96001z" data-paper-data="{&quot;origPos&quot;:null,&quot;index&quot;:null}" fill="#6c6356" stroke="none" stroke-width="0" stroke-linecap="butt"/><g data-paper-data="{&quot;origPos&quot;:null,&quot;index&quot;:null}" stroke="none" stroke-width="0" stroke-linecap="butt"><path d="M258.10983,129.90024c0,0 -18.72086,-1.50366 -25.14641,-9.41203c-4.58599,-5.64429 -3.06926,-25.31495 -3.06926,-25.31495z" fill="#8eb480"/><path d="M229.65377,95.17327c0,0 18.72086,1.50366 25.14641,9.41203c4.58599,5.64427 3.06926,25.31493 3.06926,25.31493z" data-paper-data="{&quot;index&quot;:null,&quot;origPos&quot;:null}" fill="#9dc78d"/></g><g data-paper-data="{&quot;origPos&quot;:null,&quot;index&quot;:null,&quot;origRot&quot;:0}" fill="#9dc78d" stroke="none" stroke-width="0" stroke-linecap="butt"><path d="M218.60669,129.3347c0,0 -13.67571,-12.87271 -13.75014,-23.06214c-0.05313,-7.27229 13.42332,-21.68135 13.42332,-21.68135z"/><path d="M218.0922,84.44095c0,0 13.67571,12.87271 13.75014,23.06214c0.05313,7.27229 -13.42332,21.68135 -13.42332,21.68135z" data-paper-data="{&quot;index&quot;:null,&quot;origPos&quot;:null}"/></g><g data-paper-data="{&quot;origPos&quot;:null,&quot;origRot&quot;:0,&quot;index&quot;:null}" stroke="none" stroke-width="0" stroke-linecap="butt"><path d="M253.85029,134.79881c0,0 4.34458,-18.27174 13.14135,-23.41439c6.27834,-3.67037 25.48674,0.83214 25.48674,0.83214z" fill="#8eb480"/><path d="M292.51505,111.97904c0,0 -4.34458,18.27174 -13.14135,23.41439c-6.27833,3.67037 -25.48673,-0.83214 -25.48673,-0.83214z" data-paper-data="{&quot;index&quot;:null,&quot;origPos&quot;:null}" fill="#9dc78d"/></g><g data-paper-data="{&quot;origPos&quot;:null,&quot;index&quot;:null}" fill="#9dc78d" stroke="none" stroke-width="0" stroke-linecap="butt"><path d="M223.38286,102.22668c0,0 -1.51673,-19.67066 3.06926,-25.31495c6.42555,-7.90837 25.14641,-9.41203 25.14641,-9.41203z"/><path d="M251.35813,67.49963c0,0 1.51673,19.67066 -3.06926,25.31493c-6.42555,7.90837 -25.14641,9.41203 -25.14641,9.41203z" data-paper-data="{&quot;index&quot;:null,&quot;origPos&quot;:null}"/></g><g data-paper-data="{&quot;origPos&quot;:null,&quot;index&quot;:null,&quot;origRot&quot;:0}" fill="#9dc78d" stroke="none" stroke-width="0" stroke-linecap="butt"><path d="M203.08682,129.08702c0,0 -13.47644,-14.40906 -13.42332,-21.68135c0.07442,-10.18943 13.75014,-23.06214 13.75014,-23.06214z"/><path d="M203.22596,84.49374c0,0 13.47644,14.40906 13.42332,21.68135c-0.07442,10.18943 -13.75014,23.06214 -13.75014,23.06214z" data-paper-data="{&quot;index&quot;:null,&quot;origPos&quot;:null}"/></g><g data-paper-data="{&quot;origPos&quot;:null,&quot;origRot&quot;:0,&quot;index&quot;:null}" fill="#9dc78d" stroke="none" stroke-width="0" stroke-linecap="butt"><path d="M285.96705,85.1833c0,0 -19.2084,4.50251 -25.48674,0.83214c-8.79677,-5.14265 -13.14135,-23.41439 -13.14135,-23.41439z"/><path d="M247.3757,62.83864c0,0 19.2084,-4.50251 25.48673,-0.83214c8.79677,5.14265 13.14135,23.41439 13.14135,23.41439z" data-paper-data="{&quot;index&quot;:null,&quot;origPos&quot;:null}"/></g><g data-paper-data="{&quot;origPos&quot;:null,&quot;index&quot;:null}" stroke="none" stroke-width="0" stroke-linecap="butt"><path d="M262.05116,99.51415c0,0 1.51673,19.67066 -3.06926,25.31495c-6.42555,7.90837 -25.14641,9.41203 -25.14641,9.41203z" fill="#8eb480"/><path d="M234.07595,134.24106c0,0 -1.51673,-19.67066 3.06926,-25.31493c6.42555,-7.90837 25.14641,-9.41203 25.14641,-9.41203z" data-paper-data="{&quot;index&quot;:null,&quot;origPos&quot;:null}" fill="#9dc78d"/></g><g data-paper-data="{&quot;origPos&quot;:null,&quot;index&quot;:null,&quot;origRot&quot;:0}" fill="#9dc78d" stroke="none" stroke-width="0" stroke-linecap="butt"><path d="M273.66549,88.93209c0,0 13.47644,14.40906 13.42332,21.68135c-0.07442,10.18943 -13.75014,23.06214 -13.75014,23.06214z"/><path d="M273.52635,133.52526c0,0 -13.47644,-14.40906 -13.42332,-21.68135c0.07442,-10.18943 13.75014,-23.06214 13.75014,-23.06214z" data-paper-data="{&quot;index&quot;:null,&quot;origPos&quot;:null}"/></g><g data-paper-data="{&quot;origPos&quot;:null,&quot;index&quot;:null}" fill="#9dc78d" stroke="none" stroke-width="0" stroke-linecap="butt"><path d="M240.34684,71.84055c0,0 18.72086,1.50366 25.14641,9.41203c4.58599,5.64429 3.06926,25.31495 3.06926,25.31495z"/><path d="M268.80287,106.56754c0,0 -18.72086,-1.50366 -25.14641,-9.41203c-4.58599,-5.64427 -3.06926,-25.31493 -3.06926,-25.31493z" data-paper-data="{&quot;index&quot;:null,&quot;origPos&quot;:null}"/></g><g data-paper-data="{&quot;origPos&quot;:null,&quot;index&quot;:null,&quot;origRot&quot;:0}" fill="#9dc78d" stroke="none" stroke-width="0" stroke-linecap="butt"><path d="M279.84997,72.40606c0,0 13.67571,12.87271 13.75014,23.06214c0.05313,7.27229 -13.42332,21.68135 -13.42332,21.68135z"/><path d="M280.36447,117.29986c0,0 -13.67571,-12.87271 -13.75014,-23.06214c-0.05313,-7.27229 13.42332,-21.68135 13.42332,-21.68135z" data-paper-data="{&quot;index&quot;:null,&quot;origPos&quot;:null}"/></g><g data-paper-data="{&quot;origPos&quot;:null,&quot;origRot&quot;:0,&quot;index&quot;:null}" fill="#9dc78d" stroke="none" stroke-width="0" stroke-linecap="butt"><path d="M244.6064,66.94191c0,0 -4.34458,18.27174 -13.14135,23.41439c-6.27834,3.67037 -25.48674,-0.83214 -25.48674,-0.83214z"/><path d="M205.94161,89.7618c0,0 4.34458,-18.27174 13.14135,-23.41439c6.27833,-3.67037 25.48673,0.83214 25.48673,0.83214z" data-paper-data="{&quot;index&quot;:null,&quot;origPos&quot;:null}"/></g><g data-paper-data="{&quot;origPos&quot;:null,&quot;index&quot;:null,&quot;origRot&quot;:0}" fill="#9dc78d" stroke="none" stroke-width="0" stroke-linecap="butt"><path d="M208.51289,70.58263c0,0 -13.47644,-14.40906 -13.42332,-21.68135c0.07442,-10.18943 13.75014,-23.06214 13.75014,-23.06214z"/><path d="M208.65203,25.98946c0,0 13.47644,14.40906 13.42332,21.68135c-0.07442,10.18943 -13.75014,23.06214 -13.75014,23.06214z" data-paper-data="{&quot;index&quot;:null,&quot;origPos&quot;:null}"/></g><g data-paper-data="{&quot;origPos&quot;:null,&quot;index&quot;:null,&quot;origRot&quot;:0}" fill="#9dc78d" stroke="none" stroke-width="0" stroke-linecap="butt"><path d="M202.32842,87.10868c0,0 -13.67571,-12.87271 -13.75014,-23.06214c-0.05313,-7.27229 13.42332,-21.68135 13.42332,-21.68135z"/><path d="M201.81393,42.21496c0,0 13.67571,12.87271 13.75014,23.06214c0.05313,7.27229 -13.42332,21.68135 -13.42332,21.68135z" data-paper-data="{&quot;index&quot;:null,&quot;origPos&quot;:null}"/></g><g data-paper-data="{&quot;origPos&quot;:null,&quot;origRot&quot;:0,&quot;index&quot;:null}" fill="#9dc78d" stroke="none" stroke-width="0" stroke-linecap="butt"><path d="M237.57202,92.57285c0,0 4.34458,-18.27174 13.14135,-23.41439c6.27834,-3.67037 25.48674,0.83214 25.48674,0.83214z"/><path d="M276.23681,69.75294c0,0 -4.34458,18.27174 -13.14135,23.41439c-6.27833,3.67037 -25.48673,-0.83214 -25.48673,-0.83214z" data-paper-data="{&quot;index&quot;:null,&quot;origPos&quot;:null}"/></g><g data-paper-data="{&quot;origPos&quot;:null,&quot;index&quot;:null,&quot;origRot&quot;:0}" fill="#9dc78d" stroke="none" stroke-width="0" stroke-linecap="butt"><path d="M263.57169,21.49832c0,0 13.67571,12.87271 13.75014,23.06214c0.05313,7.27229 -13.42332,21.68135 -13.42332,21.68135z"/><path d="M264.08619,66.392c0,0 -13.67571,-12.87271 -13.75014,-23.06214c-0.05313,-7.27229 13.42332,-21.68135 13.42332,-21.68135z" data-paper-data="{&quot;index&quot;:null,&quot;origPos&quot;:null}"/></g><g data-paper-data="{&quot;origPos&quot;:null,&quot;index&quot;:null}" fill="#9dc78d" stroke="none" stroke-width="0" stroke-linecap="butt"><path d="M258.79553,48.60634c0,0 1.51673,19.67066 -3.06926,25.31495c-6.42555,7.90837 -25.14641,9.41203 -25.14641,9.41203z"/><path d="M230.82028,83.33326c0,0 -1.51673,-19.67066 3.06926,-25.31493c6.42555,-7.90837 25.14641,-9.41203 25.14641,-9.41203z" data-paper-data="{&quot;index&quot;:null,&quot;origPos&quot;:null}"/></g><g data-paper-data="{&quot;origPos&quot;:null,&quot;index&quot;:null,&quot;origRot&quot;:0}" fill="#9dc78d" stroke="none" stroke-width="0" stroke-linecap="butt"><path d="M270.40986,38.02424c0,0 13.47644,14.40906 13.42332,21.68135c-0.07442,10.18943 -13.75014,23.06214 -13.75014,23.06214z"/><path d="M270.27072,82.61751c0,0 -13.47644,-14.40906 -13.42332,-21.68135c0.07442,-10.18943 13.75014,-23.06214 13.75014,-23.06214z" data-paper-data="{&quot;index&quot;:null,&quot;origPos&quot;:null}"/></g><g data-paper-data="{&quot;origPos&quot;:null,&quot;origRot&quot;:0,&quot;index&quot;:null}" fill="#9dc78d" stroke="none" stroke-width="0" stroke-linecap="butt"><path d="M178.84785,69.99054c0,0 19.2084,-4.50251 25.48674,-0.83214c8.79677,5.14265 13.14135,23.41439 13.14135,23.41439z"/><path d="M217.43924,92.33525c0,0 -19.2084,4.50251 -25.48673,0.83214c-8.79677,-5.14265 -13.14135,-23.41439 -13.14135,-23.41439z" data-paper-data="{&quot;index&quot;:null,&quot;origPos&quot;:null}"/></g><g data-paper-data="{&quot;origPos&quot;:null,&quot;index&quot;:null,&quot;origRot&quot;:0}" fill="#9dc78d" stroke="none" stroke-width="0" stroke-linecap="butt"><path d="M234.88496,76.15896c0,0 -13.67571,-12.87271 -13.75014,-23.06214c-0.05313,-7.27229 13.42332,-21.68135 13.42332,-21.68135z"/><path d="M234.37046,31.2653c0,0 13.67571,12.87271 13.75014,23.06214c0.05313,7.27229 -13.42332,21.68135 -13.42332,21.68135z" data-paper-data="{&quot;index&quot;:null,&quot;origPos&quot;:null}"/></g><g data-paper-data="{&quot;origPos&quot;:null,&quot;index&quot;:null}" fill="#9dc78d" stroke="none" stroke-width="0" stroke-linecap="butt"><path d="M239.66113,49.05102c0,0 -1.51673,-19.67066 3.06926,-25.31495c6.42555,-7.90837 25.14641,-9.41203 25.14641,-9.41203z"/><path d="M267.63635,14.32405c0,0 1.51673,19.67066 -3.06926,25.31493c-6.42555,7.90837 -25.14641,9.41203 -25.14641,9.41203z" data-paper-data="{&quot;index&quot;:null,&quot;origPos&quot;:null}"/></g><g data-paper-data="{&quot;origPos&quot;:null,&quot;index&quot;:null,&quot;origRot&quot;:0}" fill="#9dc78d" stroke="none" stroke-width="0" stroke-linecap="butt"><path d="M228.04682,59.63307c0,0 -13.47644,-14.40906 -13.42332,-21.68135c0.07442,-10.18943 13.75014,-23.06214 13.75014,-23.06214z"/><path d="M228.18596,15.03981c0,0 13.47644,14.40906 13.42332,21.68135c-0.07442,10.18943 -13.75014,23.06214 -13.75014,23.06214z" data-paper-data="{&quot;index&quot;:null,&quot;origPos&quot;:null}"/></g><g data-paper-data="{&quot;origPos&quot;:null,&quot;origRot&quot;:0,&quot;index&quot;:null}" fill="#9dc78d" stroke="none" stroke-width="0" stroke-linecap="butt"><path d="M302.24532,32.00763c0,0 -19.2084,4.50251 -25.48674,0.83214c-8.79677,-5.14265 -13.14135,-23.41439 -13.14135,-23.41439z"/><path d="M263.65396,9.66301c0,0 19.2084,-4.50251 25.48673,-0.83214c8.79677,5.14265 13.14135,23.41439 13.14135,23.41439z" data-paper-data="{&quot;index&quot;:null,&quot;origPos&quot;:null}"/></g><g data-paper-data="{&quot;origPos&quot;:null,&quot;index&quot;:null,&quot;origRot&quot;:0}" stroke="none" stroke-width="0" stroke-linecap="butt"><path d="M289.94377,35.75642c0,0 13.47644,14.40906 13.42332,21.68135c-0.07442,10.18943 -13.75014,23.06214 -13.75014,23.06214z" fill="#8eb480"/><path d="M289.80463,80.3496c0,0 -13.47644,-14.40906 -13.42332,-21.68135c0.07442,-10.18943 13.75014,-23.06214 13.75014,-23.06214z" data-paper-data="{&quot;index&quot;:null,&quot;origPos&quot;:null}" fill="#9dc78d"/></g><g data-paper-data="{&quot;origPos&quot;:null,&quot;index&quot;:null}" fill="#9dc78d" stroke="none" stroke-width="0" stroke-linecap="butt"><path d="M256.6251,18.66488c0,0 18.72086,1.50366 25.14641,9.41203c4.58599,5.64429 3.06926,25.31495 3.06926,25.31495z"/><path d="M285.08115,53.39187c0,0 -18.72086,-1.50366 -25.14641,-9.41203c-4.58599,-5.64427 -3.06926,-25.31493 -3.06926,-25.31493z" data-paper-data="{&quot;index&quot;:null,&quot;origPos&quot;:null}"/></g><g data-paper-data="{&quot;origPos&quot;:null,&quot;index&quot;:null,&quot;origRot&quot;:0}" stroke="none" stroke-width="0" stroke-linecap="butt"><path d="M296.12825,19.23038c0,0 13.67571,12.87271 13.75014,23.06214c0.05313,7.27229 -13.42332,21.68135 -13.42332,21.68135z" fill="#8eb480"/><path d="M296.64275,64.12416c0,0 -13.67571,-12.87271 -13.75014,-23.06214c-0.05313,-7.27229 13.42332,-21.68135 13.42332,-21.68135z" data-paper-data="{&quot;index&quot;:null,&quot;origPos&quot;:null}" fill="#9dc78d"/></g><g data-paper-data="{&quot;origPos&quot;:null,&quot;origRot&quot;:0,&quot;index&quot;:null}" fill="#9dc78d" stroke="none" stroke-width="0" stroke-linecap="butt"><path d="M260.88464,13.76628c0,0 -4.34458,18.27174 -13.14135,23.41439c-6.27834,3.67037 -25.48674,-0.83214 -25.48674,-0.83214z"/><path d="M222.21988,36.58609c0,0 4.34458,-18.27174 13.14135,-23.41439c6.27833,-3.67037 25.48673,0.83214 25.48673,0.83214z" data-paper-data="{&quot;index&quot;:null,&quot;origPos&quot;:null}"/></g><g data-paper-data="{&quot;origPos&quot;:null,&quot;index&quot;:null}" stroke="none" stroke-width="0" stroke-linecap="butt"><path d="M302.20426,61.53151c0,0 1.51673,19.67066 -3.06926,25.31495c-6.42555,7.90837 -25.14641,9.41203 -25.14641,9.41203z" fill="#8eb480"/><path d="M274.22898,96.25849c0,0 -1.51673,-19.67066 3.06926,-25.31493c6.42555,-7.90837 25.14641,-9.41203 25.14641,-9.41203z" data-paper-data="{&quot;index&quot;:null,&quot;origPos&quot;:null}" fill="#9dc78d"/></g><g data-paper-data="{&quot;origPos&quot;:null,&quot;index&quot;:null,&quot;origRot&quot;:0}" stroke="none" stroke-width="0" stroke-linecap="butt"><path d="M313.81854,50.94945c0,0 13.47644,14.40906 13.42332,21.68135c-0.07442,10.18943 -13.75014,23.06214 -13.75014,23.06214z" fill="#8eb480"/><path d="M313.6794,95.54272c0,0 -13.47644,-14.40906 -13.42332,-21.68135c0.07442,-10.18943 13.75014,-23.06214 13.75014,-23.06214z" data-paper-data="{&quot;index&quot;:null,&quot;origPos&quot;:null}" fill="#9dc78d"/></g><g data-paper-data="{&quot;origPos&quot;:null,&quot;origRot&quot;:0,&quot;index&quot;:null}" fill="#9dc78d" stroke="none" stroke-width="0" stroke-linecap="butt"><path d="M239.62006,78.57484c0,0 19.2084,-4.50251 25.48674,-0.83214c8.79677,5.14265 13.14135,23.41439 13.14135,23.41439z"/><path d="M278.21142,100.91951c0,0 -19.2084,4.50251 -25.48673,0.83214c-8.79677,-5.14265 -13.14135,-23.41439 -13.14135,-23.41439z" data-paper-data="{&quot;index&quot;:null,&quot;origPos&quot;:null}"/></g><g data-paper-data="{&quot;origPos&quot;:null,&quot;index&quot;:null}" fill="#9dc78d" stroke="none" stroke-width="0" stroke-linecap="butt"><path d="M285.24028,91.91762c0,0 -18.72086,-1.50366 -25.14641,-9.41203c-4.58599,-5.64429 -3.06926,-25.31495 -3.06926,-25.31495z"/><path d="M256.78418,57.19066c0,0 18.72086,1.50366 25.14641,9.41203c4.58599,5.64427 3.06926,25.31493 3.06926,25.31493z" data-paper-data="{&quot;index&quot;:null,&quot;origPos&quot;:null}"/></g><g data-paper-data="{&quot;origPos&quot;:null,&quot;index&quot;:null,&quot;origRot&quot;:0}" fill="#9dc78d" stroke="none" stroke-width="0" stroke-linecap="butt"><path d="M245.73713,91.35208c0,0 -13.67571,-12.87271 -13.75014,-23.06214c-0.05313,-7.27229 13.42332,-21.68135 13.42332,-21.68135z"/><path d="M245.22263,46.45834c0,0 13.67571,12.87271 13.75014,23.06214c0.05313,7.27229 -13.42332,21.68135 -13.42332,21.68135z" data-paper-data="{&quot;index&quot;:null,&quot;origPos&quot;:null}"/></g><g data-paper-data="{&quot;origPos&quot;:null,&quot;origRot&quot;:0,&quot;index&quot;:null}" stroke="none" stroke-width="0" stroke-linecap="butt"><path d="M280.98074,96.81626c0,0 4.34458,-18.27174 13.14135,-23.41439c6.27834,-3.67037 25.48674,0.83214 25.48674,0.83214z" fill="#8eb480"/><path d="M319.64552,73.99636c0,0 -4.34458,18.27174 -13.14135,23.41439c-6.27833,3.67037 -25.48673,-0.83214 -25.48673,-0.83214z" data-paper-data="{&quot;index&quot;:null,&quot;origPos&quot;:null}" fill="#9dc78d"/></g><g data-paper-data="{&quot;origPos&quot;:null,&quot;index&quot;:null,&quot;origRot&quot;:0}" fill="#8db27e" stroke="none" stroke-width="0" stroke-linecap="butt"><path d="M317.07421,93.17551c0,0 13.47644,14.40906 13.42332,21.68135c-0.07442,10.18943 -13.75014,23.06214 -13.75014,23.06214z"/><path d="M316.93508,137.76872c0,0 -13.47644,-14.40906 -13.42332,-21.68135c0.07442,-10.18943 13.75014,-23.06214 13.75014,-23.06214z" data-paper-data="{&quot;index&quot;:null,&quot;origPos&quot;:null}"/></g><g data-paper-data="{&quot;origPos&quot;:null,&quot;index&quot;:null}" stroke="none" stroke-width="0" stroke-linecap="butt"><path d="M283.75555,76.08393c0,0 18.72086,1.50366 25.14641,9.41203c4.58599,5.64429 3.06926,25.31495 3.06926,25.31495z" fill="#8eb480"/><path d="M312.2116,110.81095c0,0 -18.72086,-1.50366 -25.14641,-9.41203c-4.58599,-5.64427 -3.06926,-25.31493 -3.06926,-25.31493z" data-paper-data="{&quot;index&quot;:null,&quot;origPos&quot;:null}" fill="#9dc78d"/></g><g data-paper-data="{&quot;origPos&quot;:null,&quot;index&quot;:null,&quot;origRot&quot;:0}" fill="#8db27e" stroke="none" stroke-width="0" stroke-linecap="butt"><path d="M323.2587,76.64952c0,0 13.67571,12.87271 13.75014,23.06214c0.05313,7.27229 -13.42332,21.68135 -13.42332,21.68135z"/><path d="M323.7732,121.54325c0,0 -13.67571,-12.87271 -13.75014,-23.06214c-0.05313,-7.27229 13.42332,-21.68135 13.42332,-21.68135z" data-paper-data="{&quot;index&quot;:null,&quot;origPos&quot;:null}"/></g><g data-paper-data="{&quot;origPos&quot;:null,&quot;origRot&quot;:0,&quot;index&quot;:null}" fill="#9dc78d" stroke="none" stroke-width="0" stroke-linecap="butt"><path d="M288.01509,71.18529c0,0 -4.34458,18.27174 -13.14135,23.41439c-6.27834,3.67037 -25.48674,-0.83214 -25.48674,-0.83214z"/><path d="M249.35032,94.0052c0,0 4.34458,-18.27174 13.14135,-23.41439c6.27833,-3.67037 25.48673,0.83214 25.48673,0.83214z" data-paper-data="{&quot;index&quot;:null,&quot;origPos&quot;:null}"/></g><g data-paper-data="{&quot;origPos&quot;:null,&quot;index&quot;:null,&quot;origRot&quot;:0}" stroke="none" stroke-width="0" stroke-linecap="butt"><path d="M262.01536,142.25977c0,0 -13.67571,-12.87271 -13.75014,-23.06214c-0.05313,-7.27229 13.42332,-21.68135 13.42332,-21.68135z" fill="#8eb480"/><path d="M261.50091,97.36614c0,0 13.67571,12.87271 13.75014,23.06214c0.05313,7.27229 -13.42332,21.68135 -13.42332,21.68135z" data-paper-data="{&quot;index&quot;:null,&quot;origPos&quot;:null}" fill="#9dc78d"/></g><g data-paper-data="{&quot;origPos&quot;:null,&quot;index&quot;:null}" fill="#9dc78d" stroke="none" stroke-width="0" stroke-linecap="butt"><path d="M266.79157,115.15185c0,0 -1.51673,-19.67066 3.06926,-25.31495c6.42555,-7.90837 25.14641,-9.41203 25.14641,-9.41203z"/><path d="M294.7668,80.42481c0,0 1.51673,19.67066 -3.06926,25.31493c-6.42555,7.90837 -25.14641,9.41203 -25.14641,9.41203z" data-paper-data="{&quot;index&quot;:null,&quot;origPos&quot;:null}"/></g><g data-paper-data="{&quot;origPos&quot;:null,&quot;index&quot;:null,&quot;origRot&quot;:0}" fill="#9dc78d" stroke="none" stroke-width="0" stroke-linecap="butt"><path d="M255.17727,125.73388c0,0 -13.47644,-14.40906 -13.42332,-21.68135c0.07442,-10.18943 13.75014,-23.06214 13.75014,-23.06214z"/><path d="M255.31642,81.14057c0,0 13.47644,14.40906 13.42332,21.68135c-0.07442,10.18943 -13.75014,23.06214 -13.75014,23.06214z" data-paper-data="{&quot;index&quot;:null,&quot;origPos&quot;:null}"/></g><g data-paper-data="{&quot;origPos&quot;:null,&quot;origRot&quot;:0,&quot;index&quot;:null}" stroke="none" stroke-width="0" stroke-linecap="butt"><path d="M329.37577,98.10847c0,0 -19.2084,4.50251 -25.48674,0.83214c-8.79677,-5.14265 -13.14135,-23.41439 -13.14135,-23.41439z" fill="#8eb480"/><path d="M290.78436,75.76382c0,0 19.2084,-4.50251 25.48673,-0.83214c8.79677,5.14265 13.14135,23.41439 13.14135,23.41439z" data-paper-data="{&quot;index&quot;:null,&quot;origPos&quot;:null}" fill="#9dc78d"/></g><g data-paper-data="{&quot;origPos&quot;:null,&quot;index&quot;:null,&quot;origRot&quot;:0}" stroke="none" stroke-width="0" stroke-linecap="butt"><path d="M290.70214,87.59917c0,0 13.67571,12.87271 13.75014,23.06214c0.05313,7.27229 -13.42332,21.68135 -13.42332,21.68135z" fill="#8eb480"/><path d="M291.21664,132.49285c0,0 -13.67571,-12.87271 -13.75014,-23.06214c-0.05313,-7.27229 13.42332,-21.68135 13.42332,-21.68135z" data-paper-data="{&quot;index&quot;:null,&quot;origPos&quot;:null}" fill="#9dc78d"/></g><g data-paper-data="{&quot;origPos&quot;:null,&quot;index&quot;:null}" stroke="none" stroke-width="0" stroke-linecap="butt"><path d="M285.92598,114.70719c0,0 1.51673,19.67066 -3.06926,25.31495c-6.42555,7.90837 -25.14641,9.41203 -25.14641,9.41203z" fill="#8eb480"/><path d="M257.95074,149.43411c0,0 -1.51673,-19.67066 3.06926,-25.31493c6.42555,-7.90837 25.14641,-9.41203 25.14641,-9.41203z" data-paper-data="{&quot;index&quot;:null,&quot;origPos&quot;:null}" fill="#9dc78d"/></g><g data-paper-data="{&quot;origPos&quot;:null,&quot;index&quot;:null,&quot;origRot&quot;:0}" fill="#8db27e" stroke="none" stroke-width="0" stroke-linecap="butt"><path d="M297.54031,104.12515c0,0 13.47644,14.40906 13.42332,21.68135c-0.07442,10.18943 -13.75014,23.06214 -13.75014,23.06214z"/><path d="M297.40117,148.71831c0,0 -13.47644,-14.40906 -13.42332,-21.68135c0.07442,-10.18943 13.75014,-23.06214 13.75014,-23.06214z" data-paper-data="{&quot;index&quot;:null,&quot;origPos&quot;:null}"/></g><g data-paper-data="{&quot;origPos&quot;:null,&quot;origRot&quot;:0,&quot;index&quot;:null}" fill="#9dc78d" stroke="none" stroke-width="0" stroke-linecap="butt"><path d="M223.34178,131.75046c0,0 19.2084,-4.50251 25.48674,-0.83214c8.79677,5.14265 13.14135,23.41439 13.14135,23.41439z"/><path d="M261.93314,154.09519c0,0 -19.2084,4.50251 -25.48673,0.83214c-8.79677,-5.14265 -13.14135,-23.41439 -13.14135,-23.41439z" data-paper-data="{&quot;index&quot;:null,&quot;origPos&quot;:null}"/></g><g data-paper-data="{&quot;origPos&quot;:null,&quot;index&quot;:null}" fill="#9dc78d" stroke="none" stroke-width="0" stroke-linecap="butt"><path d="M268.962,145.09322c0,0 -18.72086,-1.50366 -25.14641,-9.41203c-4.58599,-5.64429 -3.06926,-25.31495 -3.06926,-25.31495z"/><path d="M240.50594,110.36633c0,0 18.72086,1.50366 25.14641,9.41203c4.58599,5.64427 3.06926,25.31493 3.06926,25.31493z" data-paper-data="{&quot;index&quot;:null,&quot;origPos&quot;:null}"/></g><g data-paper-data="{&quot;origPos&quot;:null,&quot;index&quot;:null,&quot;origRot&quot;:0}" fill="#9dc78d" stroke="none" stroke-width="0" stroke-linecap="butt"><path d="M222.94756,146.69817c0,0 -13.67571,-12.87271 -13.75014,-23.06214c-0.05313,-7.27229 13.42332,-21.68135 13.42332,-21.68135z"/><path d="M222.43307,101.80446c0,0 13.67571,12.87271 13.75014,23.06214c0.05313,7.27229 -13.42332,21.68135 -13.42332,21.68135z" data-paper-data="{&quot;index&quot;:null,&quot;origPos&quot;:null}"/></g><g data-paper-data="{&quot;origPos&quot;:null,&quot;index&quot;:null,&quot;origRot&quot;:0}" stroke="none" stroke-width="0" stroke-linecap="butt"><path d="M292.26361,53.94887c0,0 -17.12131,-7.71962 -20.50868,-17.3298c-2.41762,-6.85889 5.63412,-24.87012 5.63412,-24.87012z" fill="#8eb480"/><path d="M277.16265,11.66797c0,0 17.12132,7.71963 20.5087,17.3298c2.41763,6.85889 -5.63412,24.87011 -5.63412,24.87011z" data-paper-data="{&quot;index&quot;:null,&quot;origPos&quot;:null}" fill="#9dc78d"/></g><g data-paper-data="{&quot;origPos&quot;:null,&quot;index&quot;:null,&quot;origRot&quot;:0}" fill="#9dc78d" stroke="none" stroke-width="0" stroke-linecap="butt"><path d="M255.25774,40.11463c0,0 -8.54253,-16.72594 -5.18159,-26.34539c2.39873,-6.86551 19.94006,-15.89529 19.94006,-15.89529z"/><path d="M269.89009,-2.33068c0,0 8.54255,16.72594 5.1816,26.34539c-2.39874,6.86549 -19.94008,15.89528 -19.94008,15.89528z" data-paper-data="{&quot;index&quot;:null,&quot;origPos&quot;:null}"/></g><g data-paper-data="{&quot;origPos&quot;:null,&quot;origRot&quot;:0,&quot;index&quot;:null}" stroke="none" stroke-width="0" stroke-linecap="butt"><path d="M286.6033,57.12716c0,0 10.24341,-15.74181 20.25811,-17.62207c7.14762,-1.34195 23.71821,9.36556 23.71821,9.36556z" fill="#8eb480"/><path d="M330.69417,48.65927c0,0 -10.24342,15.74181 -20.25813,17.62206c-7.14761,1.34197 -23.71818,-9.36556 -23.71818,-9.36556z" data-paper-data="{&quot;index&quot;:null,&quot;origPos&quot;:null}" fill="#9dc78d"/></g><g data-paper-data="{&quot;origPos&quot;:null,&quot;index&quot;:null,&quot;origRot&quot;:0}" stroke="none" stroke-width="0" stroke-linecap="butt"><path d="M321.39203,22.87463c0,0 -5.19542,19.03268 -11.41417,22.80314c-8.71324,5.28291 -26.84721,0.395 -26.84721,0.395z" fill="#8eb480"/><path d="M283.35704,46.15374c0,0 5.19542,-19.03268 11.41415,-22.80314c8.71324,-5.28289 26.84721,-0.395 26.84721,-0.395z" data-paper-data="{&quot;index&quot;:null,&quot;origPos&quot;:null}" fill="#9dc78d"/></g><g data-paper-data="{&quot;origPos&quot;:null,&quot;index&quot;:null,&quot;origRot&quot;:0}" stroke="none" stroke-width="0" stroke-linecap="butt"><path d="M327.20957,23.33267c0,0 7.83759,18.10545 5.33882,24.93518c-3.50112,9.56933 -20.71275,17.0854 -20.71275,17.0854z" fill="#8db27e"/><path d="M312.06296,65.27495c0,0 -7.83759,-18.10545 -5.33882,-24.93518c3.5011,-9.56933 20.71274,-17.0854 20.71274,-17.0854z" data-paper-data="{&quot;index&quot;:null,&quot;origPos&quot;:null}" fill="#9dc78d"/></g><g data-paper-data="{&quot;origPos&quot;:null,&quot;origRot&quot;:0,&quot;index&quot;:null}" fill="#9dc78d" stroke="none" stroke-width="0" stroke-linecap="butt"><path d="M256.72362,17.84913c0,0 19.60281,2.22833 24.2786,7.79844c6.55141,7.80443 4.48976,26.47208 4.48976,26.47208z"/><path d="M285.53738,51.88357c0,0 -19.60279,-2.22835 -24.2786,-7.79844c-6.5514,-7.80443 -4.48975,-26.47208 -4.48975,-26.47208z" data-paper-data="{&quot;index&quot;:null,&quot;origPos&quot;:null}"/></g><g data-paper-data="{&quot;origPos&quot;:null,&quot;index&quot;:null,&quot;origRot&quot;:0}" fill="#9dc78d" stroke="none" stroke-width="0" stroke-linecap="butt"><path d="M237.97369,78.77864c0,0 -8.54255,-16.72594 -5.1816,-26.34539c2.39874,-6.86551 19.94008,-15.89529 19.94008,-15.89529z"/><path d="M252.60604,36.33329c0,0 8.54255,16.72594 5.1816,26.34539c-2.39874,6.86551 -19.94008,15.89529 -19.94008,15.89529z" data-paper-data="{&quot;index&quot;:null,&quot;origPos&quot;:null}"/></g><g data-paper-data="{&quot;origPos&quot;:null,&quot;index&quot;:null,&quot;origRot&quot;:0}" fill="#9dc78d" stroke="none" stroke-width="0" stroke-linecap="butt"><path d="M251.59889,54.86188c0,0 5.19542,-19.03269 11.41417,-22.80315c8.71324,-5.28289 26.8472,-0.395 26.8472,-0.395z"/><path d="M289.63383,31.5828c0,0 -5.19542,19.03268 -11.41415,22.80313c-8.71324,5.28291 -26.8472,0.395 -26.8472,0.395z" data-paper-data="{&quot;index&quot;:null,&quot;origPos&quot;:null}"/></g><g data-paper-data="{&quot;origPos&quot;:null,&quot;index&quot;:null,&quot;origRot&quot;:0}" stroke="none" stroke-width="0" stroke-linecap="butt"><path d="M303.42179,59.27498c0,0 7.83759,18.10545 5.33882,24.93518c-3.5011,9.56935 -20.71274,17.0854 -20.71274,17.0854z" fill="#8eb480"/><path d="M288.27518,101.21733c0,0 -7.83759,-18.10546 -5.33882,-24.9352c3.5011,-9.56935 20.71275,-17.0854 20.71275,-17.0854z" data-paper-data="{&quot;index&quot;:null,&quot;origPos&quot;:null}" fill="#9dc78d"/></g><g data-paper-data="{&quot;origPos&quot;:null,&quot;index&quot;:null,&quot;origRot&quot;:0}" fill="#9dc78d" stroke="none" stroke-width="0" stroke-linecap="butt"><path d="M277.80395,31.96242c0,0 17.12131,7.71962 20.50868,17.3298c2.41762,6.85889 -5.63412,24.87012 -5.63412,24.87012z"/><path d="M292.90486,74.24327c0,0 -17.12131,-7.71961 -20.50868,-17.3298c-2.41763,-6.85889 5.63412,-24.87012 5.63412,-24.87012z" data-paper-data="{&quot;index&quot;:null,&quot;origPos&quot;:null}"/></g><g data-paper-data="{&quot;origPos&quot;:null,&quot;index&quot;:null,&quot;origRot&quot;:0}" fill="#9dc78d" stroke="none" stroke-width="0" stroke-linecap="butt"><path d="M314.80983,45.79659c0,0 8.54253,16.72594 5.18159,26.34539c-2.39874,6.86549 -19.94008,15.89528 -19.94008,15.89528z"/><path d="M300.17749,88.24191c0,0 -8.54255,-16.72594 -5.1816,-26.34539c2.39874,-6.86551 19.94008,-15.89529 19.94008,-15.89529z" data-paper-data="{&quot;index&quot;:null,&quot;origPos&quot;:null}"/></g><g data-paper-data="{&quot;origPos&quot;:null,&quot;index&quot;:null,&quot;origRot&quot;:0}" fill="#9dc78d" stroke="none" stroke-width="0" stroke-linecap="butt"><path d="M264.06791,82.18789c0,0 -7.83759,-18.10546 -5.33882,-24.9352c3.5011,-9.56933 20.71274,-17.0854 20.71274,-17.0854z"/><path d="M279.21452,40.24561c0,0 7.83758,18.10545 5.33881,24.93518c-3.5011,9.56933 -20.71274,17.0854 -20.71274,17.0854z" data-paper-data="{&quot;index&quot;:null,&quot;origPos&quot;:null}"/></g><g data-paper-data="{&quot;origPos&quot;:null,&quot;index&quot;:null,&quot;origRot&quot;:0}" fill="#9dc78d" stroke="none" stroke-width="0" stroke-linecap="butt"><path d="M289.68575,109.50056c0,0 -17.12131,-7.71962 -20.50868,-17.3298c-2.41762,-6.85889 5.63412,-24.87013 5.63412,-24.87013z"/><path d="M274.5848,67.21963c0,0 17.12131,7.71962 20.50868,17.3298c2.41763,6.85889 -5.63412,24.87012 -5.63412,24.87012z" data-paper-data="{&quot;index&quot;:null,&quot;origPos&quot;:null}"/></g><g data-paper-data="{&quot;origPos&quot;:null,&quot;index&quot;:null,&quot;origRot&quot;:0}" fill="#9dc78d" stroke="none" stroke-width="0" stroke-linecap="butt"><path d="M252.67988,95.66641c0,0 -8.54255,-16.72594 -5.1816,-26.34539c2.39874,-6.86551 19.94008,-15.89529 19.94008,-15.89529z"/><path d="M267.31224,53.22106c0,0 8.54255,16.72594 5.1816,26.34539c-2.39874,6.86551 -19.94008,15.89529 -19.94008,15.89529z" data-paper-data="{&quot;index&quot;:null,&quot;origPos&quot;:null}"/></g><g data-paper-data="{&quot;origPos&quot;:null,&quot;index&quot;:null,&quot;origRot&quot;:0}" fill="#8db27e" stroke="none" stroke-width="0" stroke-linecap="butt"><path d="M332.43935,49.08347c0,0 8.54255,16.72592 5.1816,26.34537c-2.39874,6.86549 -19.94008,15.89529 -19.94008,15.89529z"/><path d="M317.80701,91.52881c0,0 -8.54255,-16.72592 -5.1816,-26.34537c2.39873,-6.86549 19.94008,-15.89529 19.94008,-15.89529z" data-paper-data="{&quot;index&quot;:null,&quot;origPos&quot;:null}"/></g><g data-paper-data="{&quot;origPos&quot;:null,&quot;index&quot;:null,&quot;origRot&quot;:0}" stroke="none" stroke-width="0" stroke-linecap="butt"><path d="M318.81417,78.42629c0,0 -5.19542,19.03268 -11.41417,22.80314c-8.71324,5.28291 -26.8472,0.395 -26.8472,0.395z" fill="#8db27e"/><path d="M280.77921,101.7054c0,0 5.19542,-19.03268 11.41415,-22.80313c8.71324,-5.28289 26.8472,-0.395 26.8472,-0.395z" data-paper-data="{&quot;index&quot;:null,&quot;origPos&quot;:null}" fill="#9dc78d"/></g><g data-paper-data="{&quot;origPos&quot;:null,&quot;index&quot;:null,&quot;origRot&quot;:0}" fill="#8db27e" stroke="none" stroke-width="0" stroke-linecap="butt"><path d="M333.31345,72.37297c0,0 7.83759,18.10545 5.33882,24.93518c-3.50112,9.56933 -20.71275,17.0854 -20.71275,17.0854z"/><path d="M318.16687,114.31535c0,0 -7.83759,-18.10546 -5.33882,-24.9352c3.5011,-9.56935 20.71274,-17.0854 20.71274,-17.0854z" data-paper-data="{&quot;index&quot;:null,&quot;origPos&quot;:null}"/></g><g data-paper-data="{&quot;origPos&quot;:null,&quot;origRot&quot;:0,&quot;index&quot;:null}" fill="#9dc78d" stroke="none" stroke-width="0" stroke-linecap="butt"><path d="M254.14577,73.40073c0,0 19.60281,2.22833 24.27861,7.79844c6.55141,7.80443 4.48975,26.47208 4.48975,26.47208z"/><path d="M282.95957,107.43525c0,0 -19.60279,-2.22835 -24.2786,-7.79844c-6.55141,-7.80443 -4.48975,-26.47208 -4.48975,-26.47208z" data-paper-data="{&quot;index&quot;:null,&quot;origPos&quot;:null}"/></g><g data-paper-data="{&quot;origPos&quot;:null}" stroke="none" stroke-width="0.5" stroke-linecap="butt"><g data-paper-data="{&quot;origPos&quot;:null}" fill="#6c4343"><path d="M215.67161,139.49088c0,-6.47743 5.25098,-11.72841 11.72841,-11.72841c6.47743,0 11.72841,5.25098 11.72841,11.72841c0,6.47743 -5.25098,11.72843 -11.72841,11.72843c-6.47743,0 -11.72841,-5.25099 -11.72841,-11.72843z" data-paper-data="{&quot;origPos&quot;:null}"/><path d="M227.40004,127.76249c6.47742,0 11.72841,5.25101 11.72841,11.72843c0,6.47742 -5.25101,11.72841 -11.72841,11.72841c-6.47742,0 -6.47742,-23.45684 0,-23.45684z" data-paper-data="{&quot;origPos&quot;:null}"/></g><g data-paper-data="{&quot;origPos&quot;:null}"><path d="M213.7524,138.21142c0,-6.47743 5.25098,-11.72841 11.72841,-11.72841c6.47743,0 11.72841,5.25098 11.72841,11.72841c0,6.47743 -5.25098,11.72843 -11.72841,11.72843c-6.47743,0 -11.72841,-5.25099 -11.72841,-11.72843z" data-paper-data="{&quot;origPos&quot;:null}" fill="#c76e6e"/><path d="M225.48083,126.48303c6.47742,0 11.72841,5.25101 11.72841,11.72843c0,6.47742 -5.25101,11.72841 -11.72841,11.72841c-6.47742,0 -6.47742,-23.45684 0,-23.45684z" data-paper-data="{&quot;origPos&quot;:null}" fill="#c76262"/></g></g><g data-paper-data="{&quot;origPos&quot;:null}" stroke="none" stroke-width="0.5" stroke-linecap="butt"><g data-paper-data="{&quot;origPos&quot;:null}" fill="#6c4343"><path d="M184.44778,92.90279c0,-6.47743 5.25099,-11.72843 11.72843,-11.72843c6.47743,0 11.72841,5.25098 11.72841,11.72843c0,6.47743 -5.25098,11.72843 -11.72841,11.72843c-6.47743,0 -11.72843,-5.25099 -11.72843,-11.72843z" data-paper-data="{&quot;origPos&quot;:null}"/><path d="M196.1762,81.17436c6.47742,0 11.72841,5.25102 11.72841,11.72843c0,6.47741 -5.25101,11.72841 -11.72841,11.72841c-6.47742,0 -6.47742,-23.45684 0,-23.45684z" data-paper-data="{&quot;origPos&quot;:null}"/></g><g data-paper-data="{&quot;origPos&quot;:null}"><path d="M182.52859,91.62334c0,-6.47743 5.25098,-11.72843 11.72841,-11.72843c6.47743,0 11.72843,5.25098 11.72843,11.72843c0,6.47743 -5.25099,11.72843 -11.72843,11.72843c-6.47743,0 -11.72841,-5.25099 -11.72841,-11.72843z" data-paper-data="{&quot;origPos&quot;:null}" fill="#c76e6e"/><path d="M194.257,79.89491c6.47742,0 11.72843,5.25102 11.72843,11.72843c0,6.47741 -5.25101,11.72841 -11.72843,11.72841c-6.47742,0 -6.47742,-23.45684 0,-23.45684z" data-paper-data="{&quot;origPos&quot;:null}" fill="#c76262"/></g></g><g data-paper-data="{&quot;origPos&quot;:null,&quot;index&quot;:null,&quot;origRot&quot;:0}" fill="#8db27e" stroke="none" stroke-width="0" stroke-linecap="butt"><path d="M334.68728,79.24202c0,0 7.83759,18.10545 5.33882,24.93518c-3.50112,9.56933 -20.71275,17.0854 -20.71275,17.0854z"/><path d="M319.54067,121.18439c0,0 -7.83759,-18.10546 -5.33882,-24.9352c3.5011,-9.56935 20.71274,-17.0854 20.71274,-17.0854z" data-paper-data="{&quot;index&quot;:null,&quot;origPos&quot;:null}"/></g><g data-paper-data="{&quot;origPos&quot;:null,&quot;index&quot;:null,&quot;origRot&quot;:0}" fill="#9dc78d" stroke="none" stroke-width="0" stroke-linecap="butt"><path d="M251.70363,81.43077c0,0 -7.83759,-18.10546 -5.33882,-24.9352c3.5011,-9.56933 20.71274,-17.0854 20.71274,-17.0854z"/><path d="M266.85024,39.48849c0,0 7.83758,18.10545 5.33881,24.93518c-3.5011,9.56933 -20.71274,17.0854 -20.71274,17.0854z" data-paper-data="{&quot;index&quot;:null,&quot;origPos&quot;:null}"/></g><g data-paper-data="{&quot;origPos&quot;:null,&quot;origRot&quot;:0,&quot;index&quot;:null}" fill="#9dc78d" stroke="none" stroke-width="0" stroke-linecap="butt"><path d="M182.71691,78.85963c0,0 19.2084,-4.50251 25.48674,-0.83214c8.79677,5.14265 13.14135,23.41439 13.14135,23.41439z"/><path d="M221.30828,101.2043c0,0 -19.2084,4.50251 -25.48673,0.83214c-8.79677,-5.14265 -13.14135,-23.41439 -13.14135,-23.41439z" data-paper-data="{&quot;index&quot;:null,&quot;origPos&quot;:null}"/></g><g data-paper-data="{&quot;origPos&quot;:null,&quot;index&quot;:null,&quot;origRot&quot;:0}" fill="#9dc78d" stroke="none" stroke-width="0" stroke-linecap="butt"><path d="M235.31185,153.56717c0,0 -13.67571,-12.87271 -13.75014,-23.06214c-0.05313,-7.27229 13.42332,-21.68135 13.42332,-21.68135z"/><path d="M234.79736,108.67352c0,0 13.67571,12.87271 13.75014,23.06214c0.05313,7.27229 -13.42332,21.68135 -13.42332,21.68135z" data-paper-data="{&quot;index&quot;:null,&quot;origPos&quot;:null}"/></g><path d="M235.39688,195.92937c0,0 4.93508,-6.93686 6.92137,-11.37681c1.05187,-2.35125 0.86355,-6.02479 0.86355,-6.02479l16.02779,0.91588l-3.20555,19.23335z" data-paper-data="{&quot;origPos&quot;:null}" fill="url(#color-1)" stroke="none" stroke-width="NaN" stroke-linecap="butt"/><g data-paper-data="{&quot;origPos&quot;:null}" stroke-width="5" stroke-linecap="butt"><path d="M237.75355,201.05826c0,-6.28579 5.09564,-11.38143 11.38143,-11.38143c6.28579,0 11.38143,5.09564 11.38143,11.38143c0,6.28579 -5.09564,11.38143 -11.38143,11.38143c-6.28579,0 -11.38143,-5.09564 -11.38143,-11.38143z" data-paper-data="{&quot;origPos&quot;:null}" fill="#786f5f" stroke="#726c61"/><path d="M237.11414,201.05826c0,-6.63893 5.38192,-12.02084 12.02084,-12.02084c6.63893,0 12.02084,5.38192 12.02084,12.02084c0,6.63893 -5.38192,12.02084 -12.02084,12.02084c-6.63893,0 -12.02084,-5.38192 -12.02084,-12.02084z" data-paper-data="{&quot;origPos&quot;:null}" fill="#786f5f" stroke="#746d63"/><path d="M241.4621,201.05826c0,-4.23761 3.43525,-7.67288 7.67288,-7.67288c4.23761,0 7.67288,3.43525 7.67288,7.67288c0,4.23761 -3.43525,7.67288 -7.67288,7.67288c-4.23761,0 -7.67288,-3.43525 -7.67288,-7.67288z" data-paper-data="{&quot;origPos&quot;:null}" fill="#7d7364" stroke="none"/></g><g data-paper-data="{&quot;origPos&quot;:null}" stroke-linecap="butt"><path d="M269.70926,245.70707c0,-3.0531 2.47503,-5.52812 5.52812,-5.52812c3.0531,0 5.52812,2.47503 5.52812,5.52812c0,3.0531 -2.47503,5.52812 -5.52812,5.52812c-3.0531,0 -5.52812,-2.47503 -5.52812,-5.52812z" data-paper-data="{&quot;origPos&quot;:null}" fill="#786f5f" stroke="#726c61" stroke-width="5"/><path d="M269.39869,245.70707c0,-3.22462 2.61407,-5.83869 5.83869,-5.83869c3.22462,0 5.83869,2.61407 5.83869,5.83869c0,3.22462 -2.61407,5.83869 -5.83869,5.83869c-3.22462,0 -5.83869,-2.61407 -5.83869,-5.83869z" data-paper-data="{&quot;origPos&quot;:null}" fill="#786f5f" stroke="#746d63" stroke-width="1"/><path d="M271.51054,245.70707c0,-2.05827 1.66855,-3.72683 3.72683,-3.72683c2.05827,0 3.72683,1.66855 3.72683,3.72683c0,2.05827 -1.66855,3.72683 -3.72683,3.72683c-2.05827,0 -3.72683,-1.66855 -3.72683,-3.72683z" data-paper-data="{&quot;origPos&quot;:null}" fill="#7d7364" stroke="none" stroke-width="0.5"/></g><g data-paper-data="{&quot;origPos&quot;:null,&quot;index&quot;:null,&quot;origRot&quot;:0}" fill="#9dc78d" stroke="none" stroke-width="0" stroke-linecap="butt"><path d="M237.09959,60.91517c0,0 -7.83759,-18.10546 -5.33882,-24.9352c3.5011,-9.56935 20.71275,-17.0854 20.71275,-17.0854z"/><path d="M252.2462,18.97279c0,0 7.83759,18.10545 5.33882,24.93518c-3.5011,9.56935 -20.71274,17.0854 -20.71274,17.0854z" data-paper-data="{&quot;index&quot;:null,&quot;origPos&quot;:null}"/></g><g data-paper-data="{&quot;origPos&quot;:null,&quot;origRot&quot;:0,&quot;index&quot;:null}" fill="#9dc78d" stroke="none" stroke-width="0" stroke-linecap="butt"><path d="M316.26725,59.88735c0,0 -19.60281,-2.22835 -24.2786,-7.79845c-6.5514,-7.80443 -4.48975,-26.47208 -4.48975,-26.47208z"/><path d="M287.45349,25.85295c0,0 19.60281,2.22835 24.2786,7.79844c6.5514,7.80443 4.48975,26.47208 4.48975,26.47208z" data-paper-data="{&quot;index&quot;:null,&quot;origPos&quot;:null}"/></g><g data-paper-data="{&quot;origPos&quot;:null,&quot;origRot&quot;:0,&quot;index&quot;:null}" fill="#9dc78d" stroke="none" stroke-width="0" stroke-linecap="butt"><path d="M283.46421,28.78412c0,0 -10.24341,15.74181 -20.25811,17.62207c-7.14761,1.34197 -23.71819,-9.36556 -23.71819,-9.36556z"/><path d="M239.37336,37.252c0,0 10.24341,-15.74181 20.25811,-17.62206c7.14761,-1.34197 23.71819,9.36554 23.71819,9.36554z" data-paper-data="{&quot;index&quot;:null,&quot;origPos&quot;:null}"/></g><g data-paper-data="{&quot;origPos&quot;:null,&quot;index&quot;:null,&quot;origRot&quot;:0}" fill="#9dc78d" stroke="none" stroke-width="0" stroke-linecap="butt"><path d="M235.64334,128.00179c0,0 -13.47644,-14.40906 -13.42332,-21.68135c0.07442,-10.18943 13.75014,-23.06214 13.75014,-23.06214z"/><path d="M235.78248,83.40852c0,0 13.47644,14.40906 13.42332,21.68135c-0.07442,10.18943 -13.75014,23.06214 -13.75014,23.06214z" data-paper-data="{&quot;index&quot;:null,&quot;origPos&quot;:null}"/></g><g data-paper-data="{&quot;origPos&quot;:null,&quot;index&quot;:null}" fill="#9dc78d" stroke="none" stroke-width="0" stroke-linecap="butt"><path d="M241.83156,87.67421c0,0 -18.72086,-1.50366 -25.14641,-9.41203c-4.58599,-5.64429 -3.06926,-25.31495 -3.06926,-25.31495z"/><path d="M213.37549,52.94721c0,0 18.72086,1.50366 25.14641,9.41203c4.58599,5.64427 3.06926,25.31493 3.06926,25.31493z" data-paper-data="{&quot;index&quot;:null,&quot;origPos&quot;:null}"/></g><g data-paper-data="{&quot;origPos&quot;:null,&quot;origRot&quot;:0,&quot;index&quot;:null}" fill="#8db27e" stroke="none" stroke-width="0" stroke-linecap="butt"><path d="M264.70246,149.99186c0,0 4.34458,-18.27174 13.14135,-23.41439c6.27834,-3.67037 25.48674,0.83214 25.48674,0.83214z" data-paper-data="{&quot;origPos&quot;:null}"/><path d="M303.36726,127.17209c0,0 -4.34458,18.27174 -13.14135,23.41439c-6.27833,3.67037 -25.48673,-0.83214 -25.48673,-0.83214z" data-paper-data="{&quot;index&quot;:null,&quot;origPos&quot;:null}"/></g><g data-paper-data="{&quot;origPos&quot;:null}" stroke="none" stroke-width="0.5" stroke-linecap="butt"><g data-paper-data="{&quot;origPos&quot;:null}" fill="#6c4343"><path d="M307.21214,113.01468c0,-6.47743 5.25098,-11.72843 11.72841,-11.72843c6.47743,0 11.72841,5.25098 11.72841,11.72843c0,6.47743 -5.25098,11.72843 -11.72841,11.72843c-6.47743,0 -11.72841,-5.25099 -11.72841,-11.72843z" data-paper-data="{&quot;origPos&quot;:null}"/><path d="M318.94057,101.28631c6.47741,0 11.72841,5.25102 11.72841,11.72843c0,6.47741 -5.25101,11.72841 -11.72841,11.72841c-6.47741,0 -6.47741,-23.45684 0,-23.45684z" data-paper-data="{&quot;origPos&quot;:null}"/></g><g data-paper-data="{&quot;origPos&quot;:null}"><path d="M305.29296,111.73522c0,-6.47743 5.25098,-11.72843 11.72841,-11.72843c6.47743,0 11.72841,5.25098 11.72841,11.72843c0,6.47743 -5.25098,11.72843 -11.72841,11.72843c-6.47743,0 -11.72841,-5.25099 -11.72841,-11.72843z" data-paper-data="{&quot;origPos&quot;:null}" fill="#c76e6e"/><path d="M317.02138,100.00685c6.47741,0 11.72841,5.25102 11.72841,11.72843c0,6.47741 -5.25101,11.72841 -11.72841,11.72841c-6.47741,0 -6.47741,-23.45684 0,-23.45684z" data-paper-data="{&quot;origPos&quot;:null}" fill="#c76262"/></g></g><g data-paper-data="{&quot;origPos&quot;:null}" fill="#8eb480" stroke="none" stroke-width="0" stroke-linecap="butt"><path d="M287.59484,263.45728c0,0 4.1151,3.36743 2.34727,-15.36771c-1.4387,-15.24704 -6.62802,-31.10384 -6.62802,-31.10384c0,0 5.63109,4.17553 11.13277,19.27965c6.51573,17.88816 8.69495,24.92449 8.69495,24.92449z" data-paper-data="{&quot;origPos&quot;:null,&quot;origRot&quot;:0,&quot;index&quot;:null}"/><path d="M294.0395,259.40216c0,0 1.55019,-4.18834 6.18512,-14.83618c3.9136,-8.99065 7.91924,-11.47611 7.91924,-11.47611c0,0 -3.69139,9.43868 -4.71481,18.5144c-1.25753,11.152 1.66972,9.14756 1.66972,9.14756z" data-paper-data="{&quot;origPos&quot;:null,&quot;origRot&quot;:0,&quot;index&quot;:null}"/></g><g data-paper-data="{&quot;origPos&quot;:null,&quot;origRot&quot;:0,&quot;index&quot;:null}" fill="#8db27e" stroke="none" stroke-width="0" stroke-linecap="butt"><path d="M284.02545,112.67881c0,0 10.24341,-15.74181 20.25811,-17.62206c7.14762,-1.34197 23.71821,9.36554 23.71821,9.36554z"/><path d="M328.11635,104.21096c0,0 -10.24341,15.74181 -20.25811,17.62206c-7.14761,1.34197 -23.71819,-9.36556 -23.71819,-9.36556z" data-paper-data="{&quot;index&quot;:null,&quot;origPos&quot;:null}"/></g><path d="M205.00004,78.80002v-7h14v7z" data-paper-data="{&quot;origPos&quot;:null}" fill="#9dc78d" stroke="none" stroke-width="0" stroke-linecap="butt"/><path d="M231.00004,147.80002v-21h16v21z" data-paper-data="{&quot;origPos&quot;:null}" fill="#9dc78d" stroke="none" stroke-width="0" stroke-linecap="butt"/><g data-paper-data="{&quot;origPos&quot;:null}" stroke="none" stroke-width="0.5" stroke-linecap="butt"><path d="M215.94332,87.18206c0,-5.03845 4.08446,-9.12292 9.12291,-9.12292c5.03845,0 9.12291,4.08446 9.12291,9.12292c0,5.03845 -4.08446,9.12292 -9.12291,9.12292c-5.03845,0 -9.12291,-4.08447 -9.12291,-9.12292z" data-paper-data="{&quot;origPos&quot;:null}" fill="#6c4343"/><path d="M225.06625,78.05912c5.03844,0 9.12291,4.08449 9.12291,9.12292c0,5.03843 -4.08448,9.12291 -9.12291,9.12291c-5.03843,0 -5.03843,-18.24584 0,-18.24584z" data-paper-data="{&quot;origPos&quot;:null}" fill="#6c4343"/><path d="M214.45048,86.18684c0,-5.03845 4.08446,-9.12292 9.12291,-9.12292c5.03845,0 9.12291,4.08446 9.12291,9.12292c0,5.03845 -4.08446,9.12292 -9.12291,9.12292c-5.03845,0 -9.12291,-4.08447 -9.12291,-9.12292z" data-paper-data="{&quot;origPos&quot;:null}" fill="#c76e6e"/><path d="M223.57341,77.06392c5.03844,0 9.12291,4.08449 9.12291,9.12292c0,5.03843 -4.08448,9.12291 -9.12291,9.12291c-5.03843,0 -5.03843,-18.24584 0,-18.24584z" data-paper-data="{&quot;origPos&quot;:null}" fill="#c76262"/></g><g data-paper-data="{&quot;origPos&quot;:null}" stroke="none" stroke-width="0.5" stroke-linecap="butt"><path d="M288.94332,60.18205c0,-5.03845 4.08446,-9.12292 9.12291,-9.12292c5.03845,0 9.12291,4.08446 9.12291,9.12292c0,5.03845 -4.08446,9.12292 -9.12291,9.12292c-5.03845,0 -9.12291,-4.08447 -9.12291,-9.12292z" data-paper-data="{&quot;origPos&quot;:null}" fill="#6c4343"/><path d="M298.06624,51.05915c5.03844,0 9.12291,4.08449 9.12291,9.12292c0,5.03843 -4.08448,9.12291 -9.12291,9.12291c-5.03843,0 -5.03843,-18.24584 0,-18.24584z" data-paper-data="{&quot;origPos&quot;:null}" fill="#6c4343"/><path d="M287.45048,59.18683c0,-5.03845 4.08446,-9.12292 9.12291,-9.12292c5.03845,0 9.12291,4.08446 9.12291,9.12292c0,5.03845 -4.08446,9.12292 -9.12291,9.12292c-5.03845,0 -9.12291,-4.08447 -9.12291,-9.12292z" data-paper-data="{&quot;origPos&quot;:null}" fill="#c76e6e"/><path d="M296.5734,50.0639c5.03844,0 9.12291,4.08449 9.12291,9.12292c0,5.03843 -4.08448,9.12291 -9.12291,9.12291c-5.03843,0 -5.03843,-18.24584 0,-18.24584z" data-paper-data="{&quot;origPos&quot;:null}" fill="#c76262"/></g><g data-paper-data="{&quot;origPos&quot;:null}" stroke="none" stroke-width="0.5" stroke-linecap="butt"><path d="M263.94332,135.18196c0,-5.03845 4.08446,-9.12292 9.12291,-9.12292c5.03845,0 9.12291,4.08446 9.12291,9.12292c0,5.03845 -4.08446,9.12292 -9.12291,9.12292c-5.03845,0 -9.12291,-4.08447 -9.12291,-9.12292z" data-paper-data="{&quot;origPos&quot;:null}" fill="#6c4343"/><path d="M273.06624,126.05916c5.03844,0 9.12291,4.08449 9.12291,9.12292c0,5.03843 -4.08448,9.12291 -9.12291,9.12291c-5.03843,0 -5.03843,-18.24584 0,-18.24584z" data-paper-data="{&quot;origPos&quot;:null}" fill="#6c4343"/><path d="M262.45048,134.18679c0,-5.03845 4.08446,-9.12292 9.12291,-9.12292c5.03845,0 9.12291,4.08446 9.12291,9.12292c0,5.03845 -4.08446,9.12292 -9.12291,9.12292c-5.03845,0 -9.12291,-4.08447 -9.12291,-9.12292z" data-paper-data="{&quot;origPos&quot;:null}" fill="#c76e6e"/><path d="M271.5734,125.06393c5.03844,0 9.12291,4.08449 9.12291,9.12292c0,5.03843 -4.08448,9.12291 -9.12291,9.12291c-5.03843,0 -5.03843,-18.24584 0,-18.24584z" data-paper-data="{&quot;origPos&quot;:null}" fill="#c76262"/></g><g data-paper-data="{&quot;origPos&quot;:null}" fill="#6c4343" stroke="none" stroke-width="0.5" stroke-linecap="butt"><path d="M147.21215,258.01469c0,-6.47743 5.25098,-11.72843 11.72841,-11.72843c6.47743,0 11.72841,5.25098 11.72841,11.72843c0,6.47743 -5.25098,11.72843 -11.72841,11.72843c-6.47743,0 -11.72841,-5.25099 -11.72841,-11.72843z" data-paper-data="{&quot;origPos&quot;:null}"/><path d="M158.94061,246.28634c6.47741,0 11.72841,5.25102 11.72841,11.72843c0,6.47741 -5.25101,11.72841 -11.72841,11.72841c-6.47741,0 -6.47741,-23.45684 0,-23.45684z" data-paper-data="{&quot;origPos&quot;:null}"/></g><g data-paper-data="{&quot;origPos&quot;:null}" stroke="none" stroke-width="0.5" stroke-linecap="butt"><path d="M145.29298,256.73524c0,-6.47743 5.25098,-11.72843 11.72841,-11.72843c6.47743,0 11.72841,5.25098 11.72841,11.72843c0,6.47743 -5.25098,11.72843 -11.72841,11.72843c-6.47743,0 -11.72841,-5.25099 -11.72841,-11.72843z" data-paper-data="{&quot;origPos&quot;:null}" fill="#c76e6e"/><path d="M157.02139,245.00688c6.47741,0 11.72841,5.25102 11.72841,11.72843c0,6.47741 -5.25101,11.72841 -11.72841,11.72841c-6.47741,0 -6.47741,-23.45684 0,-23.45684z" data-paper-data="{&quot;origPos&quot;:null}" fill="#c76262"/></g><path d="M60.87151,253.3046c0,0 3.89727,-6.301 11.48589,-22.31975c6.4076,-13.52566 8.88833,-16.99405 8.88833,-16.99405c0,0 -2.87232,17.17818 -4.54792,30.83182c-2.05894,16.77722 2.28071,10.5124 2.28071,10.5124z" data-paper-data="{&quot;origPos&quot;:null,&quot;origRot&quot;:0}" fill="#9dc78d" stroke="none" stroke-width="0" stroke-linecap="butt"/><path d="M65.51968,261.11321c0,0 1.64433,8.81214 3.38693,-13.69046c1.41815,-18.31307 2.71122,-41.44109 2.71122,-41.44109c0,0 0.9606,4.88761 2.60721,23.57336c1.95009,22.12994 3.30351,30.93937 3.30351,30.93937z" data-paper-data="{&quot;origPos&quot;:null}" fill="#9dc78d" stroke="none" stroke-width="0" stroke-linecap="butt"/><path d="M62.02132,262.09101c0,0 3.44476,8.06294 0.40607,-14.24887c-2.47295,-18.15778 -6.07862,-40.94534 -6.07862,-40.94534c0,0 1.95769,4.45801 7.47889,22.08849c6.53886,20.8802 9.70112,29.02484 9.70112,29.02484z" data-paper-data="{&quot;origPos&quot;:null,&quot;origRot&quot;:0}" fill="#9dc78d" stroke="none" stroke-width="0" stroke-linecap="butt"/><path d="M94.87151,257.30458c0,0 3.89727,-6.301 11.48589,-22.31975c6.4076,-13.52566 8.88833,-16.99405 8.88833,-16.99405c0,0 -2.87232,17.17818 -4.54792,30.83182c-2.05894,16.77722 2.28071,10.5124 2.28071,10.5124z" data-paper-data="{&quot;origPos&quot;:null,&quot;origRot&quot;:0}" fill="#9dc78d" stroke="none" stroke-width="0" stroke-linecap="butt"/><path d="M99.51969,259.11321c0,0 1.64433,8.81214 3.38693,-13.69046c1.41815,-18.31307 2.71122,-41.44109 2.71122,-41.44109c0,0 0.9606,4.88761 2.60721,23.57336c1.95009,22.12994 3.30351,30.93937 3.30351,30.93937z" data-paper-data="{&quot;origPos&quot;:null}" fill="#9dc78d" stroke="none" stroke-width="0" stroke-linecap="butt"/><path d="M77.08156,260.7759c0,0 3.71997,2.54725 2.12188,-11.62472c-1.30056,-11.53343 -5.99159,-23.52812 -5.99159,-23.52812c0,0 5.09039,3.15854 10.06378,14.58386c5.89009,13.53127 7.86006,18.85383 7.86006,18.85383z" data-paper-data="{&quot;origPos&quot;:null,&quot;origRot&quot;:0}" fill="#9dc78d" stroke="none" stroke-width="0" stroke-linecap="butt"/><g data-paper-data="{&quot;origPos&quot;:null}" stroke="none" stroke-width="0" stroke-linecap="butt"><path d="M417.47643,226.56838c-0.473,-2.29331 -2.27857,-11.04761 -3.73697,-18.11864c-0.35475,-1.71998 1.23381,-3.82814 2.47601,-4.08435c3.72662,-0.76862 36.97182,-7.62544 36.97182,-7.62544l4.84796,23.50526c0,0 -33.16155,6.83957 -37.46151,7.72644c-1.43332,0.29562 -2.93964,-0.63885 -3.09731,-1.40328z" data-paper-data="{&quot;origPos&quot;:null}" fill="#36312b"/><path d="M445.22977,217.80214l6.05995,29.38158l-13.7114,2.82798l-6.05995,-29.38158z" data-paper-data="{&quot;origPos&quot;:null,&quot;index&quot;:null}" fill="#585146"/><path d="M444.62375,214.86399l1.71699,8.32478l-13.7114,2.82798l-1.71699,-8.32478z" data-paper-data="{&quot;origPos&quot;:null,&quot;index&quot;:null}" fill="#3d3831"/><path d="M417.47643,225.56838c-0.473,-2.29331 -2.27857,-11.04761 -3.73697,-18.11864c-0.35475,-1.71998 1.23381,-3.82814 2.47601,-4.08435c3.72662,-0.76862 36.97182,-7.62544 36.97182,-7.62544l17.60446,8.62166l-12.7565,14.8836c0,0 -33.16155,6.83957 -37.46151,7.72644c-1.43332,0.29562 -2.93964,-0.63885 -3.09731,-1.40328z" data-paper-data="{&quot;origPos&quot;:null}" fill="#817666"/><path d="M417.47643,225.56838c-0.473,-2.29331 -2.27857,-11.04761 -3.73697,-18.11864c-0.35475,-1.71998 1.23381,-3.82814 2.47601,-4.08435c3.72662,-0.76862 36.97182,-7.62544 36.97182,-7.62544l4.84796,23.50526c0,0 -33.16155,6.83957 -37.46151,7.72644c-1.43332,0.29562 -2.93964,-0.63885 -3.09731,-1.40328z" data-paper-data="{&quot;origPos&quot;:null}" fill="#776d5e"/><path d="M427.87321,217.80827l-6.27113,-15.55387l5.87632,-1.21199z" data-paper-data="{&quot;origPos&quot;:null}" fill="#585146"/><path d="M436.7535,218.7846l-6.1737,-18.38185l4.57047,-0.94266z" data-paper-data="{&quot;origPos&quot;:null}" fill="#585146"/><path d="M446.26424,210.44145l-5.56414,-12.12602l5.87632,-1.21199z" data-paper-data="{&quot;origPos&quot;:null}" fill="#585146"/><path d="M440.14002,203.02566l6.17371,18.38185l-4.57047,0.94266z" data-paper-data="{&quot;origPos&quot;:null,&quot;index&quot;:null}" fill="#585146"/></g><g data-paper-data="{&quot;origPos&quot;:null,&quot;index&quot;:null}" fill="#8eb480" stroke="none" stroke-width="0" stroke-linecap="butt"><path d="M336.31618,261.18985c0,0 2.17922,-7.03633 8.69495,-24.92449c5.50168,-15.10412 11.13277,-19.27965 11.13277,-19.27965c0,0 -5.18932,15.8568 -6.62802,31.10384c-1.76783,18.73514 2.34727,15.36771 2.34727,15.36771z" data-paper-data="{&quot;origPos&quot;:null,&quot;origRot&quot;:0,&quot;index&quot;:null}"/><path d="M334.3592,260.75185c0,0 2.92725,2.00444 1.66972,-9.14756c-1.02342,-9.07572 -4.71481,-18.5144 -4.71481,-18.5144c0,0 4.00564,2.48546 7.91924,11.47611c4.63493,10.64784 6.18512,14.83618 6.18512,14.83618z" data-paper-data="{&quot;origPos&quot;:null,&quot;origRot&quot;:0,&quot;index&quot;:null}"/></g><g data-paper-data="{&quot;origPos&quot;:null}" stroke="none" stroke-width="0.5" stroke-linecap="butt"><g data-paper-data="{&quot;origPos&quot;:null}" fill="#6c4343"><path d="M159.21215,250.01468c0,-6.47743 5.25098,-11.72843 11.72841,-11.72843c6.47743,0 11.72841,5.25098 11.72841,11.72843c0,6.47743 -5.25098,11.72843 -11.72841,11.72843c-6.47743,0 -11.72841,-5.25099 -11.72841,-11.72843z" data-paper-data="{&quot;origPos&quot;:null}"/><path d="M170.94061,238.28634c6.47741,0 11.72841,5.25102 11.72841,11.72843c0,6.47741 -5.25101,11.72841 -11.72841,11.72841c-6.47741,0 -6.47741,-23.45684 0,-23.45684z" data-paper-data="{&quot;origPos&quot;:null}"/></g><g data-paper-data="{&quot;origPos&quot;:null}"><path d="M157.29298,248.73525c0,-6.47743 5.25098,-11.72843 11.72841,-11.72843c6.47743,0 11.72841,5.25098 11.72841,11.72843c0,6.47743 -5.25098,11.72843 -11.72841,11.72843c-6.47743,0 -11.72841,-5.25099 -11.72841,-11.72843z" data-paper-data="{&quot;origPos&quot;:null}" fill="#c76e6e"/><path d="M169.02141,237.00688c6.47741,0 11.72841,5.25102 11.72841,11.72843c0,6.47741 -5.25101,11.72841 -11.72841,11.72841c-6.47741,0 -6.47741,-23.45684 0,-23.45684z" data-paper-data="{&quot;origPos&quot;:null}" fill="#c76262"/></g></g><g data-paper-data="{&quot;origPos&quot;:null}" fill="#9dc78d" stroke="none" stroke-width="0" stroke-linecap="butt"><g data-paper-data="{&quot;origPos&quot;:null,&quot;index&quot;:null,&quot;origRot&quot;:0}"><path d="M434.50845,245.92292c0,0 6.55459,6.16973 6.59026,11.05338c0.02546,3.48551 -6.43362,10.39159 -6.43362,10.39159z"/><path d="M434.75504,267.43985c0,0 -6.5546,-6.16973 -6.59026,-11.05339c-0.02546,-3.48551 6.43363,-10.39159 6.43363,-10.39159z" data-paper-data="{&quot;index&quot;:null,&quot;origPos&quot;:null}"/></g><g data-paper-data="{&quot;origPos&quot;:null,&quot;index&quot;:null,&quot;origRot&quot;:0}"><path d="M408.11946,265.28729c0,0 -6.45908,-6.90607 -6.43362,-10.39159c0.03567,-4.88366 6.59026,-11.05338 6.59026,-11.05338z"/><path d="M408.18615,243.91441c0,0 6.45909,6.90608 6.43363,10.39159c-0.03567,4.88366 -6.59026,11.05338 -6.59026,11.05338z" data-paper-data="{&quot;index&quot;:null,&quot;origPos&quot;:null}"/></g><g data-paper-data="{&quot;origPos&quot;:null,&quot;index&quot;:null,&quot;origRot&quot;:0}"><path d="M405.15533,273.20804c0,0 -6.55459,-6.16973 -6.59026,-11.05339c-0.02546,-3.48551 6.43362,-10.39159 6.43362,-10.39159z"/><path d="M404.90873,251.69106c0,0 6.55459,6.16972 6.59026,11.05338c0.02546,3.48552 -6.43362,10.39159 -6.43362,10.39159z" data-paper-data="{&quot;index&quot;:null,&quot;origPos&quot;:null}"/></g><g data-paper-data="{&quot;origPos&quot;:null,&quot;index&quot;:null,&quot;origRot&quot;:0}"><path d="M422.18195,248.59558c0,0 6.45909,6.90608 6.43363,10.39159c-0.03567,4.88366 -6.59026,11.05338 -6.59026,11.05338z"/><path d="M422.11524,269.96844c0,0 -6.45909,-6.90608 -6.43363,-10.39159c0.03567,-4.88366 6.59026,-11.05338 6.59026,-11.05338z" data-paper-data="{&quot;index&quot;:null,&quot;origPos&quot;:null}"/></g><g data-paper-data="{&quot;origPos&quot;:null,&quot;index&quot;:null}"><path d="M406.21275,240.40385c0,0 8.97267,0.72069 12.05235,4.51107c2.19801,2.70523 1.47106,12.13312 1.47106,12.13312z"/><path d="M419.85137,257.04796c0,0 -8.97267,-0.72069 -12.05235,-4.51106c-2.19801,-2.70522 -1.47106,-12.13312 -1.47106,-12.13312z" data-paper-data="{&quot;index&quot;:null,&quot;origPos&quot;:null}"/></g><g data-paper-data="{&quot;origPos&quot;:null,&quot;index&quot;:null,&quot;origRot&quot;:0}"><path d="M425.1461,240.6749c0,0 6.55459,6.16973 6.59026,11.05338c0.02546,3.48552 -6.43363,10.39159 -6.43363,10.39159z"/><path d="M425.39268,262.19183c0,0 -6.55459,-6.16972 -6.59026,-11.05338c-0.02546,-3.48551 6.43363,-10.39159 6.43363,-10.39159z" data-paper-data="{&quot;index&quot;:null,&quot;origPos&quot;:null}"/></g><g data-paper-data="{&quot;origPos&quot;:null,&quot;origRot&quot;:0,&quot;index&quot;:null}"><path d="M408.25431,238.056c0,0 -2.0823,8.75741 -6.29848,11.22222c-3.00913,1.75916 -12.21547,-0.39884 -12.21547,-0.39884z"/><path d="M389.72275,248.99325c0,0 2.0823,-8.75741 6.29847,-11.22222c3.00912,-1.75916 12.21546,0.39884 12.21546,0.39884z" data-paper-data="{&quot;index&quot;:null,&quot;origPos&quot;:null}"/></g><g data-paper-data="{&quot;origPos&quot;:null,&quot;index&quot;:null,&quot;origRot&quot;:0}"><path d="M395.79295,272.121c0,0 -6.55459,-6.16973 -6.59026,-11.05338c-0.02546,-3.48552 6.43363,-10.39159 6.43363,-10.39159z"/><path d="M395.54638,250.60404c0,0 6.55459,6.16973 6.59026,11.05339c0.02546,3.48551 -6.43363,10.39159 -6.43363,10.39159z" data-paper-data="{&quot;index&quot;:null,&quot;origPos&quot;:null}"/></g><g data-paper-data="{&quot;origPos&quot;:null,&quot;index&quot;:null}"><path d="M398.08213,259.12852c0,0 -0.72695,-9.42789 1.47105,-12.13313c3.07968,-3.79038 12.05235,-4.51106 12.05235,-4.51106z"/><path d="M411.49031,242.48438c0,0 0.72695,9.42789 -1.47106,12.13312c-3.07968,3.79037 -12.05235,4.51106 -12.05235,4.51106z" data-paper-data="{&quot;index&quot;:null,&quot;origPos&quot;:null}"/></g><g data-paper-data="{&quot;origPos&quot;:null,&quot;index&quot;:null,&quot;origRot&quot;:0}"><path d="M392.51556,264.20034c0,0 -6.45909,-6.90608 -6.43363,-10.3916c0.03567,-4.88366 6.59026,-11.05338 6.59026,-11.05338z"/><path d="M392.58222,242.82743c0,0 6.45909,6.90607 6.43363,10.39159c-0.03567,4.88366 -6.59026,11.05338 -6.59026,11.05338z" data-paper-data="{&quot;index&quot;:null,&quot;origPos&quot;:null}"/></g><g data-paper-data="{&quot;origPos&quot;:null,&quot;origRot&quot;:0,&quot;index&quot;:null}"><path d="M428.07791,250.95988c0,0 -9.20633,2.15799 -12.21546,0.39883c-4.21618,-2.46481 -6.29847,-11.22221 -6.29847,-11.22221z"/><path d="M409.58158,240.25039c0,0 9.20633,-2.15799 12.21546,-0.39883c4.21618,2.46481 6.29848,11.22222 6.29848,11.22222z" data-paper-data="{&quot;index&quot;:null,&quot;origPos&quot;:null}"/></g><g data-paper-data="{&quot;origPos&quot;:null,&quot;index&quot;:null,&quot;origRot&quot;:0}"><path d="M401.65364,239.16964c0,0 3.8591,8.63255 2.70037,11.91993c-1.62352,4.60603 -9.82955,8.30595 -9.82955,8.30595z"/><path d="M394.63295,259.35668c0,0 -3.85909,-8.63254 -2.70036,-11.91992c1.62352,-4.60603 9.82955,-8.30595 9.82955,-8.30595z" data-paper-data="{&quot;index&quot;:null,&quot;origPos&quot;:null}"/></g><g data-paper-data="{&quot;origPos&quot;:null,&quot;index&quot;:null,&quot;origRot&quot;:0}"><path d="M405.18733,232.51957c0,0 8.40734,4.32785 9.55702,7.61841c1.61086,4.61048 -2.48347,12.627 -2.48347,12.627z"/><path d="M412.32136,252.66689c0,0 -8.40733,-4.32785 -9.55701,-7.6184c-1.61086,-4.61048 2.48347,-12.627 2.48347,-12.627z" data-paper-data="{&quot;index&quot;:null,&quot;origPos&quot;:null}"/></g><g data-paper-data="{&quot;origPos&quot;:null,&quot;origRot&quot;:0,&quot;index&quot;:null}"><path d="M376.16008,256.96151c0,0 7.94207,-5.13197 11.36783,-4.48879c4.79992,0.90119 9.70945,8.44603 9.70945,8.44603z"/><path d="M397.18245,260.81746c0,0 -7.94207,5.13198 -11.36782,4.48879c-4.79992,-0.90118 -9.70945,-8.44602 -9.70945,-8.44602z" data-paper-data="{&quot;index&quot;:null,&quot;origPos&quot;:null}"/></g><g data-paper-data="{&quot;origPos&quot;:null,&quot;index&quot;:null,&quot;origRot&quot;:0}"><path d="M398.90178,255.62056c0,0 -8.69137,2.34271 -12.86752,-0.18932c-2.98057,-1.80713 -5.47066,-10.92925 -5.47066,-10.92925z"/><path d="M380.45509,244.54084c0,0 8.69137,-2.34271 12.86752,0.18932c2.98057,1.80713 5.47066,10.92924 5.47066,10.92924z" data-paper-data="{&quot;index&quot;:null,&quot;origPos&quot;:null}"/></g><g data-paper-data="{&quot;origPos&quot;:null,&quot;index&quot;:null,&quot;origRot&quot;:0}"><path d="M385.14382,264.86141c0,0 -8.24932,-3.60235 -9.92735,-8.18881c-1.19763,-3.2734 2.55883,-11.95111 2.55883,-11.95111z"/><path d="M377.66637,244.68406c0,0 8.24932,3.60235 9.92735,8.18881c1.19763,3.2734 -2.55882,11.9511 -2.55882,11.9511z" data-paper-data="{&quot;index&quot;:null,&quot;origPos&quot;:null}"/></g><g data-paper-data="{&quot;origPos&quot;:null,&quot;origRot&quot;:0,&quot;index&quot;:null}"><path d="M397.77002,258.51874c0,0 -0.98813,-8.94717 2.15188,-12.68772c2.24105,-2.66968 11.63642,-3.73769 11.63642,-3.73769z"/><path d="M411.53655,241.98022c0,0 0.98812,8.94717 -2.15188,12.68773c-2.24105,2.66968 -11.63641,3.73769 -11.63641,3.73769z" data-paper-data="{&quot;index&quot;:null,&quot;origPos&quot;:null}"/></g><g data-paper-data="{&quot;origPos&quot;:null,&quot;index&quot;:null,&quot;origRot&quot;:0}"><path d="M413.47136,251.05066c0,0 8.40734,4.32785 9.55702,7.61841c1.61086,4.61048 -2.48347,12.627 -2.48347,12.627z"/><path d="M420.60536,271.19791c0,0 -8.40733,-4.32785 -9.55701,-7.61841c-1.61086,-4.61048 2.48347,-12.627 2.48347,-12.627z" data-paper-data="{&quot;index&quot;:null,&quot;origPos&quot;:null}"/></g><g data-paper-data="{&quot;origPos&quot;:null,&quot;index&quot;:null,&quot;origRot&quot;:0}"><path d="M395.67636,248.71454c0,0 8.69137,-2.34271 12.86751,0.18932c2.98057,1.80713 5.47066,10.92926 5.47066,10.92926z"/><path d="M414.12305,259.79427c0,0 -8.69138,2.34271 -12.86752,-0.18931c-2.98057,-1.80713 -5.47065,-10.92924 -5.47065,-10.92924z" data-paper-data="{&quot;index&quot;:null,&quot;origPos&quot;:null}"/></g><g data-paper-data="{&quot;origPos&quot;:null,&quot;index&quot;:null,&quot;origRot&quot;:0}"><path d="M413.59535,242.59446c0,0 8.24932,3.60235 9.92735,8.18881c1.19763,3.2734 -2.55883,11.95112 -2.55883,11.95112z"/><path d="M421.07281,262.7718c0,0 -8.24932,-3.60234 -9.92735,-8.1888c-1.19763,-3.2734 2.55883,-11.95111 2.55883,-11.95111z" data-paper-data="{&quot;index&quot;:null,&quot;origPos&quot;:null}"/></g><g data-paper-data="{&quot;origPos&quot;:null,&quot;origRot&quot;:0,&quot;index&quot;:null}"><path d="M396.80812,245.81636c0,0 0.98812,8.94717 -2.15188,12.68772c-2.24105,2.66968 -11.63641,3.7377 -11.63641,3.7377z"/><path d="M383.04159,262.35488c0,0 -0.98813,-8.94716 2.15188,-12.68772c2.24105,-2.66968 11.63642,-3.73769 11.63642,-3.73769z" data-paper-data="{&quot;index&quot;:null,&quot;origPos&quot;:null}"/></g><g data-paper-data="{&quot;origPos&quot;:null,&quot;index&quot;:null,&quot;origRot&quot;:0}"><path d="M394.3256,269.08349c0,0 -3.85909,-8.63255 -2.70036,-11.91993c1.62352,-4.60603 9.82955,-8.30594 9.82955,-8.30594z"/><path d="M401.3463,248.89649c0,0 3.85909,8.63255 2.70036,11.91992c-1.62352,4.60604 -9.82955,8.30595 -9.82955,8.30595z" data-paper-data="{&quot;index&quot;:null,&quot;origPos&quot;:null}"/></g><g data-paper-data="{&quot;origPos&quot;:null,&quot;origRot&quot;:0,&quot;index&quot;:null}"><path d="M419.81913,251.29162c0,0 -7.94207,5.13198 -11.36782,4.48879c-4.79992,-0.90119 -9.70945,-8.44603 -9.70945,-8.44603z"/><path d="M398.79681,247.43568c0,0 7.94207,-5.13197 11.36782,-4.48878c4.79992,0.90119 9.70945,8.44603 9.70945,8.44603z" data-paper-data="{&quot;index&quot;:null,&quot;origPos&quot;:null}"/></g><g data-paper-data="{&quot;origPos&quot;:null,&quot;index&quot;:null,&quot;origRot&quot;:0}"><path d="M400.66976,252.79019c0,0 8.24932,3.60235 9.92735,8.18881c1.19763,3.2734 -2.55883,11.95111 -2.55883,11.95111z"/><path d="M408.14721,272.96759c0,0 -8.24932,-3.60235 -9.92735,-8.18881c-1.19763,-3.2734 2.55882,-11.95111 2.55882,-11.95111z" data-paper-data="{&quot;index&quot;:null,&quot;origPos&quot;:null}"/></g><g data-paper-data="{&quot;origPos&quot;:null,&quot;origRot&quot;:0,&quot;index&quot;:null}"><path d="M376.16008,256.96151c0,0 7.94207,-5.13197 11.36783,-4.48879c4.79992,0.90119 9.70945,8.44603 9.70945,8.44603z"/><path d="M397.18245,260.81746c0,0 -7.94207,5.13198 -11.36782,4.48879c-4.79992,-0.90118 -9.70945,-8.44602 -9.70945,-8.44602z" data-paper-data="{&quot;index&quot;:null,&quot;origPos&quot;:null}"/></g><g data-paper-data="{&quot;origPos&quot;:null,&quot;index&quot;:null,&quot;origRot&quot;:0}"><path d="M400.66976,252.79019c0,0 8.24932,3.60235 9.92735,8.18881c1.19763,3.2734 -2.55883,11.95111 -2.55883,11.95111z"/><path d="M408.14721,272.96759c0,0 -8.24932,-3.60235 -9.92735,-8.18881c-1.19763,-3.2734 2.55882,-11.95111 2.55882,-11.95111z" data-paper-data="{&quot;index&quot;:null,&quot;origPos&quot;:null}"/></g></g><path d="M72.52072,163.84636l-7.7017,-4.61287c-0.3749,-0.23907 -0.56235,-0.55963 -0.56235,-0.96169c0,-0.3586 0.18745,-0.67101 0.56235,-0.93725l7.7017,-4.62917c0.3749,-0.1956 0.73621,-0.19831 1.08394,-0.00815c0.34773,0.18473 0.5216,0.47813 0.5216,0.88019c0,0.41837 -0.17386,0.73078 -0.5216,0.93725l-7.0334,4.17277v-0.89649l7.0334,4.21352c0.34773,0.22276 0.5216,0.52975 0.5216,0.92094c0,0.2771 -0.08693,0.51073 -0.2608,0.7009c-0.17386,0.18473 -0.38576,0.30155 -0.6357,0.35045c-0.24993,0.0489 -0.48628,0.00543 -0.70905,-0.1304zM83.38784,163.84636c-0.22276,0.13583 -0.45911,0.1793 -0.70905,0.1304c-0.24993,-0.0489 -0.46183,-0.16572 -0.6357,-0.35045c-0.17386,-0.19017 -0.2608,-0.4238 -0.2608,-0.7009c0,-0.3912 0.17386,-0.69818 0.5216,-0.92094l7.0334,-4.21352v0.89649l-7.0334,-4.17277c-0.34773,-0.20646 -0.5216,-0.51888 -0.5216,-0.93725c0,-0.40206 0.17386,-0.69546 0.5216,-0.88019c0.34773,-0.19017 0.70905,-0.18745 1.08394,0.00815l7.7017,4.62917c0.3749,0.26623 0.56235,0.57865 0.56235,0.93725c0,0.40206 -0.18745,0.72263 -0.56235,0.96169zM104.54834,165.5334c-0.69546,0 -1.32301,-0.17658 -1.88264,-0.52975c-0.5542,-0.3586 -0.99158,-0.84216 -1.31214,-1.45069c-0.32057,-0.61396 -0.48085,-1.30399 -0.48085,-2.07008v-9.95108c0,-0.30426 0.0978,-0.5542 0.2934,-0.7498c0.1956,-0.1956 0.44553,-0.2934 0.74979,-0.2934c0.3097,0 0.55963,0.0978 0.7498,0.2934c0.1956,0.1956 0.2934,0.44553 0.2934,0.7498v9.95108c0,0.55963 0.15213,1.02689 0.4564,1.40179c0.3097,0.3749 0.68731,0.56235 1.13284,0.56235h0.70905c0.24993,0 0.46183,0.0978 0.6357,0.2934c0.17386,0.1956 0.2608,0.44553 0.2608,0.74979c0,0.30426 -0.11682,0.5542 -0.35045,0.7498c-0.2282,0.1956 -0.5216,0.2934 -0.8802,0.2934zM99.91917,156.33211c-0.2934,0 -0.53246,-0.0815 -0.71719,-0.2445c-0.1793,-0.16843 -0.26895,-0.37761 -0.26895,-0.62755c0,-0.28253 0.08965,-0.5053 0.26895,-0.66829c0.18473,-0.16843 0.4238,-0.25265 0.71719,-0.25265h4.81662c0.2934,0 0.52975,0.08422 0.70905,0.25265c0.1793,0.163 0.26895,0.38576 0.26895,0.66829c0,0.24993 -0.08965,0.45911 -0.26895,0.62755c-0.1793,0.163 -0.41565,0.2445 -0.70905,0.2445zM113.93348,165.6149c-1.12469,0 -2.11899,-0.24721 -2.98288,-0.74164c-0.8639,-0.49443 -1.54306,-1.17631 -2.03749,-2.04564c-0.489,-0.86933 -0.73349,-1.86634 -0.73349,-2.99103c0,-1.14099 0.24449,-2.14615 0.73349,-3.01548c0.49443,-0.86933 1.17359,-1.55121 2.03749,-2.04564c0.8639,-0.49443 1.85819,-0.74164 2.98288,-0.74164c1.11383,0 2.10268,0.24721 2.96658,0.74164c0.8639,0.49443 1.54034,1.17631 2.02934,2.04564c0.49443,0.86933 0.74164,1.87449 0.74164,3.01548c0,1.12469 -0.2445,2.1217 -0.7335,2.99103c-0.48356,0.86933 -1.15729,1.55121 -2.02118,2.04564c-0.85846,0.49443 -1.85275,0.74164 -2.98288,0.74164zM113.93348,163.74041c0.72263,0 1.36104,-0.16572 1.91524,-0.49715c0.55963,-0.33686 0.99429,-0.79598 1.30399,-1.37734c0.31513,-0.5868 0.4727,-1.26324 0.4727,-2.02934c0,-0.76609 -0.15757,-1.44254 -0.4727,-2.02934c-0.3097,-0.59223 -0.74436,-1.05406 -1.30399,-1.38549c-0.5542,-0.33686 -1.19261,-0.5053 -1.91524,-0.5053c-0.72263,0 -1.36376,0.16843 -1.92339,0.5053c-0.5542,0.33143 -0.99158,0.79326 -1.31214,1.38549c-0.31513,0.5868 -0.4727,1.26324 -0.4727,2.02934c0,0.76609 0.15757,1.44254 0.4727,2.02934c0.32057,0.58136 0.75795,1.04048 1.31214,1.37734c0.55963,0.33143 1.20076,0.49715 1.92339,0.49715zM143.93405,165.55785c-0.30426,0 -0.55691,-0.10052 -0.75795,-0.30155c-0.20103,-0.20646 -0.30155,-0.46183 -0.30155,-0.76609v-5.96576c0,-0.87476 -0.21733,-1.52404 -0.65199,-1.94783c-0.42923,-0.42923 -0.99158,-0.64385 -1.68704,-0.64385c-0.72263,0 -1.31758,0.25265 -1.78484,0.75795c-0.46183,0.49986 -0.69274,1.13828 -0.69274,1.91524h-1.73594c0,-0.90193 0.19288,-1.69791 0.57865,-2.38794c0.3912,-0.69003 0.93724,-1.22793 1.63814,-1.61369c0.70633,-0.3912 1.51046,-0.5868 2.41239,-0.5868c0.79326,0 1.49687,0.17386 2.11084,0.52159c0.61396,0.34773 1.08938,0.85846 1.42624,1.53219c0.3423,0.67373 0.51345,1.49144 0.51345,2.45313v5.96576c0,0.30426 -0.0978,0.55963 -0.2934,0.76609c-0.1956,0.20103 -0.45368,0.30155 -0.77424,0.30155zM130.0221,165.55785c-0.30426,0 -0.55963,-0.10052 -0.76609,-0.30155c-0.20103,-0.20646 -0.30155,-0.46183 -0.30155,-0.76609v-9.28279c0,-0.32057 0.10052,-0.57865 0.30155,-0.77425c0.20646,-0.1956 0.46183,-0.2934 0.76609,-0.2934c0.32057,0 0.57865,0.0978 0.77424,0.2934c0.1956,0.1956 0.2934,0.45368 0.2934,0.77425v9.28279c0,0.30426 -0.0978,0.55963 -0.2934,0.76609c-0.1956,0.20103 -0.45368,0.30155 -0.77424,0.30155zM136.9903,165.55785c-0.30426,0 -0.55963,-0.10052 -0.76609,-0.30155c-0.20103,-0.20646 -0.30155,-0.46183 -0.30155,-0.76609v-5.96576c0,-0.87476 -0.21461,-1.52404 -0.64384,-1.94783c-0.42923,-0.42923 -0.99158,-0.64385 -1.68704,-0.64385c-0.72263,0 -1.32029,0.25265 -1.79299,0.75795c-0.4727,0.49986 -0.70905,1.13828 -0.70905,1.91524h-1.32029c0,-0.90193 0.1793,-1.69791 0.5379,-2.38794c0.36403,-0.69003 0.86661,-1.22793 1.50774,-1.61369c0.64113,-0.3912 1.37191,-0.5868 2.19234,-0.5868c0.79326,0 1.49416,0.17386 2.10268,0.52159c0.61396,0.34773 1.09209,0.85846 1.43439,1.53219c0.3423,0.67373 0.51345,1.49144 0.51345,2.45313v5.96576c0,0.30426 -0.0978,0.55963 -0.2934,0.76609c-0.1956,0.20103 -0.45368,0.30155 -0.77424,0.30155zM153.69995,165.6149c-1.12469,0 -2.11899,-0.24721 -2.98288,-0.74164c-0.8639,-0.49443 -1.54306,-1.17631 -2.03749,-2.04564c-0.489,-0.86933 -0.7335,-1.86634 -0.7335,-2.99103c0,-1.14099 0.2445,-2.14615 0.7335,-3.01548c0.49443,-0.86933 1.17359,-1.55121 2.03749,-2.04564c0.8639,-0.49443 1.85819,-0.74164 2.98288,-0.74164c1.11383,0 2.10268,0.24721 2.96658,0.74164c0.8639,0.49443 1.54034,1.17631 2.02934,2.04564c0.49443,0.86933 0.74164,1.87449 0.74164,3.01548c0,1.12469 -0.24449,2.1217 -0.73349,2.99103c-0.48356,0.86933 -1.15729,1.55121 -2.02119,2.04564c-0.85846,0.49443 -1.85275,0.74164 -2.98288,0.74164zM153.69995,163.74041c0.72263,0 1.36104,-0.16572 1.91524,-0.49715c0.55963,-0.33686 0.99429,-0.79598 1.30399,-1.37734c0.31513,-0.5868 0.4727,-1.26324 0.4727,-2.02934c0,-0.76609 -0.15757,-1.44254 -0.4727,-2.02934c-0.3097,-0.59223 -0.74436,-1.05406 -1.30399,-1.38549c-0.5542,-0.33686 -1.19261,-0.5053 -1.91524,-0.5053c-0.72263,0 -1.36376,0.16843 -1.92339,0.5053c-0.5542,0.33143 -0.99158,0.79326 -1.31214,1.38549c-0.31513,0.5868 -0.47269,1.26324 -0.47269,2.02934c0,0.76609 0.15756,1.44254 0.47269,2.02934c0.32057,0.58136 0.75795,1.04048 1.31214,1.37734c0.55963,0.33143 1.20076,0.49715 1.92339,0.49715zM165.84499,165.50895c-0.42923,0 -0.76338,-0.2282 -1.00244,-0.6846l-4.42542,-9.32354c-0.10867,-0.23907 -0.11953,-0.4727 -0.0326,-0.7009c0.09237,-0.2282 0.27166,-0.40478 0.5379,-0.52975c0.23363,-0.12496 0.4727,-0.1467 0.71719,-0.0652c0.2445,0.0815 0.42923,0.24178 0.5542,0.48085l4.13202,8.90789h-1.00244l4.09127,-8.90789c0.12496,-0.23907 0.31513,-0.39935 0.57049,-0.48085c0.2608,-0.0815 0.5216,-0.05977 0.7824,0.0652c0.24993,0.10867 0.41565,0.28253 0.49715,0.5216c0.08693,0.23363 0.07335,0.46998 -0.04075,0.70905l-4.41727,9.32354c-0.2119,0.4564 -0.53246,0.6846 -0.96169,0.6846zM178.36068,165.6149c-1.15186,0 -2.17604,-0.24721 -3.07253,-0.74164c-0.89649,-0.49443 -1.60011,-1.17631 -2.11084,-2.04564c-0.5053,-0.86933 -0.75795,-1.86634 -0.75795,-2.99103c0,-1.14099 0.23907,-2.14615 0.7172,-3.01548c0.47813,-0.86933 1.14099,-1.55121 1.98859,-2.04564c0.85303,-0.49443 1.8283,-0.74164 2.92583,-0.74164c1.08666,0 2.01847,0.24178 2.79543,0.72535c0.77696,0.47813 1.36919,1.13827 1.77669,1.98044c0.41293,0.84216 0.61939,1.812 0.61939,2.90953c0,0.26623 -0.08965,0.48628 -0.26895,0.66015c-0.1793,0.17386 -0.4075,0.2608 -0.6846,0.2608h-8.41074v-1.67074h8.34554l-0.85575,0.5868c-0.0163,-0.69546 -0.15757,-1.31758 -0.4238,-1.86634c-0.2608,-0.5542 -0.63569,-0.98886 -1.12469,-1.30399c-0.48356,-0.32057 -1.07308,-0.48085 -1.76854,-0.48085c-0.79326,0 -1.47242,0.17386 -2.03749,0.52159c-0.55963,0.34773 -0.98615,0.82314 -1.27954,1.42624c-0.2934,0.6031 -0.4401,1.28769 -0.4401,2.05379c0,0.76609 0.17386,1.44798 0.5216,2.04564c0.34773,0.59766 0.82586,1.07036 1.43439,1.41809c0.61396,0.34773 1.31757,0.5216 2.11084,0.5216c0.43466,0 0.87748,-0.07878 1.32844,-0.23635c0.45096,-0.163 0.81499,-0.34773 1.09209,-0.5542c0.2119,-0.15213 0.43738,-0.23091 0.67645,-0.23635c0.2445,-0.01087 0.45911,0.05977 0.64384,0.2119c0.23363,0.2119 0.35588,0.44282 0.36675,0.69275c0.0163,0.24993 -0.09237,0.46455 -0.326,0.64384c-0.4727,0.3749 -1.06221,0.68188 -1.76854,0.92094c-0.7009,0.23363 -1.37191,0.35045 -2.01304,0.35045z" data-paper-data="{&quot;origPos&quot;:null}" fill="#817666" stroke="#7f7464" stroke-width="1.5" stroke-linecap="square"/><path d="M474.60441,100.01423c-0.32714,0 -0.6017,-0.10807 -0.8237,-0.32423c-0.21614,-0.21614 -0.32422,-0.49071 -0.32422,-0.8237v-10.22607c0.01752,-1.18004 0.29501,-2.24033 0.83246,-3.18086c0.53745,-0.94637 1.27059,-1.6912 2.19944,-2.23449c0.92884,-0.54913 1.97453,-0.8237 3.13704,-0.8237c1.18588,0 2.24033,0.27456 3.16333,0.8237c0.92884,0.54329 1.66491,1.28812 2.2082,2.23449c0.54913,0.94053 0.8237,2.00082 0.8237,3.18086c0,1.18004 -0.2512,2.23741 -0.75359,3.1721c-0.50239,0.93469 -1.18881,1.6766 -2.05924,2.22572c-0.86459,0.54329 -1.84016,0.81493 -2.92674,0.81493c-0.88211,0 -1.69412,-0.1811 -2.43603,-0.54329c-0.74191,-0.36803 -1.37282,-0.86751 -1.89274,-1.49842v6.05502c0,0.33298 -0.10515,0.60755 -0.31546,0.8237c-0.21031,0.21615 -0.48779,0.32423 -0.83246,0.32423zM479.62544,92.83758c0.76528,0 1.44585,-0.18402 2.04171,-0.55205c0.6017,-0.36803 1.07781,-0.86751 1.42832,-1.49842c0.35051,-0.63676 0.52576,-1.35238 0.52576,-2.14686c0,-0.80617 -0.17525,-1.52763 -0.52576,-2.16439c-0.35051,-0.63676 -0.82661,-1.13623 -1.42832,-1.49842c-0.59586,-0.36803 -1.27644,-0.55205 -2.04171,-0.55205c-0.74775,0 -1.4254,0.18402 -2.03295,0.55205c-0.6017,0.36219 -1.07489,0.86167 -1.41956,1.49842c-0.34466,0.63676 -0.517,1.35822 -0.517,2.16439c0,0.79449 0.17233,1.5101 0.517,2.14686c0.34466,0.63091 0.81785,1.13039 1.41956,1.49842c0.60755,0.36803 1.28519,0.55205 2.03295,0.55205z" data-paper-data="{&quot;origPos&quot;:null}" fill="#807565" stroke="#817666" stroke-width="1.5" stroke-linecap="butt"/><path d="M414.52742,94.853c-1.20925,0 -2.2783,-0.2658 -3.20714,-0.79741c-0.92884,-0.5316 -1.65907,-1.26475 -2.19068,-2.19944c-0.52576,-0.93469 -0.78864,-2.00666 -0.78864,-3.21591c0,-1.22678 0.26288,-2.30751 0.78864,-3.2422c0.5316,-0.93469 1.26183,-1.66783 2.19068,-2.19944c0.92884,-0.5316 1.99789,-0.79741 3.20714,-0.79741c1.19757,0 2.26078,0.2658 3.18962,0.79741c0.92884,0.5316 1.65615,1.26475 2.18191,2.19944c0.5316,0.93469 0.79741,2.01542 0.79741,3.2422c0,1.20925 -0.26288,2.28122 -0.78864,3.21591c-0.51992,0.93469 -1.2443,1.66783 -2.17315,2.19944c-0.92301,0.5316 -1.99205,0.79741 -3.20714,0.79741zM414.52742,92.83758c0.77696,0 1.46337,-0.17818 2.05924,-0.53453c0.6017,-0.36219 1.06905,-0.85582 1.40203,-1.4809c0.33883,-0.63091 0.50824,-1.35822 0.50824,-2.18191c0,-0.8237 -0.16941,-1.551 -0.50824,-2.18191c-0.33298,-0.63676 -0.80032,-1.13331 -1.40203,-1.48966c-0.59586,-0.36219 -1.28227,-0.54329 -2.05924,-0.54329c-0.77696,0 -1.46629,0.1811 -2.06799,0.54329c-0.59586,0.35635 -1.06613,0.8529 -1.41079,1.48966c-0.33883,0.63091 -0.50824,1.35822 -0.50824,2.18191c0,0.8237 0.16941,1.551 0.50824,2.18191c0.34466,0.62507 0.81493,1.11871 1.41079,1.4809c0.6017,0.35635 1.29104,0.53453 2.06799,0.53453z" data-paper-data="{&quot;origPos&quot;:null}" fill="#807565" stroke="#817666" stroke-width="1.5" stroke-linecap="butt"/><path d="M468.52067,94.79166c-0.32714,0 -0.59878,-0.10807 -0.81493,-0.32422c-0.21614,-0.22199 -0.32422,-0.49655 -0.32422,-0.8237v-6.41429c0,-0.94053 -0.23367,-1.63862 -0.70101,-2.09428c-0.4615,-0.4615 -1.06613,-0.69226 -1.81388,-0.69226c-0.77696,0 -1.41664,0.27164 -1.91903,0.81493c-0.49655,0.53745 -0.74483,1.22386 -0.74483,2.05924h-0.00001v6.32666c0,0.32714 -0.10515,0.6017 -0.31546,0.8237c-0.21031,0.21614 -0.48779,0.32422 -0.83245,0.32422l-0.00001,0c-0.32714,0 -0.6017,-0.10808 -0.82369,-0.32422c-0.21614,-0.22199 -0.32422,-0.49655 -0.32422,-0.8237v-6.41429c0,-0.94053 -0.23075,-1.63862 -0.69226,-2.09428c-0.4615,-0.4615 -1.06613,-0.69226 -1.81388,-0.69226c-0.77696,0 -1.41956,0.27164 -1.92779,0.81493c-0.50677,0.53589 -0.76088,1.21989 -0.76235,2.052v6.3339c0,0.32714 -0.10515,0.6017 -0.31546,0.8237c-0.21031,0.21614 -0.48779,0.32422 -0.83246,0.32422c-0.32714,0 -0.6017,-0.10807 -0.8237,-0.32422c-0.21614,-0.22199 -0.32422,-0.49655 -0.32422,-0.8237v-9.98071c0,-0.34466 0.10807,-0.62215 0.32422,-0.83246c0.22199,-0.21031 0.49655,-0.31546 0.8237,-0.31546c0.34466,0 0.62215,0.10515 0.83246,0.31546c0.20041,0.20041 0.30533,0.46183 0.31476,0.78425c0.23458,-0.2282 0.49477,-0.42827 0.78057,-0.60024c0.68933,-0.42061 1.47506,-0.63091 2.35717,-0.63091c0.8529,0 1.6065,0.18694 2.26078,0.56081c0.51138,0.28963 0.93511,0.68443 1.2712,1.1844c0.36477,-0.45192 0.81147,-0.82335 1.3401,-1.1143c0.75943,-0.42061 1.62402,-0.63091 2.59376,-0.63091c0.8529,0 1.60942,0.18694 2.26954,0.56081c0.66012,0.37387 1.17128,0.92301 1.53348,1.64739c0.36803,0.72438 0.55205,1.60358 0.55205,2.63757v6.41429c0,0.32714 -0.10515,0.6017 -0.31546,0.8237c-0.21031,0.21614 -0.48779,0.32422 -0.83246,0.32422zM462.20276,87.31708l0,-0.08763c0,-1.034 -0.18402,-1.91319 -0.55205,-2.63757c-0.08293,-0.16323 -0.17327,-0.31756 -0.27104,-0.46299c-0.15524,0.19233 -0.29564,0.39923 -0.42121,0.62072c-0.41476,0.74191 -0.62215,1.59773 -0.62215,2.56747zM454.70996,83.61483c-0.33123,0.3222 -0.6114,0.70046 -0.84053,1.13478c-0.38556,0.74191 -0.57834,1.59773 -0.57834,2.56747h1.41956c0,-0.00241 0,-0.00483 0.00001,-0.00724l0,-3.64681c0,-0.01622 -0.00023,-0.03229 -0.0007,-0.04821z" data-paper-data="{&quot;origPos&quot;:null}" fill="#807565" stroke="#817666" stroke-width="1.5" stroke-linecap="butt"/><path d="M442.27711,94.87928c-1.02815,0 -1.95116,-0.21907 -2.76901,-0.6572c-0.81201,-0.44397 -1.45461,-1.09242 -1.92779,-1.94532c-0.47318,-0.8529 -0.70978,-1.90151 -0.70978,-3.14581v-5.51174c0,-0.33298 0.10807,-0.60755 0.32422,-0.8237c0.21614,-0.21614 0.49071,-0.32422 0.8237,-0.32422c0.32714,0 0.59878,0.10807 0.81493,0.32422c0.21614,0.21614 0.32422,0.49071 0.32422,0.8237v5.51174c0,0.84122 0.15773,1.53639 0.47318,2.08552c0.31546,0.54329 0.74191,0.94637 1.27936,1.20925c0.53745,0.25704 1.14207,0.38556 1.81388,0.38556c0.6426,0 1.21509,-0.1256 1.71749,-0.3768c0.50239,-0.25704 0.90256,-0.6017 1.20049,-1.034c0.29793,-0.43229 0.4469,-0.91716 0.4469,-1.45461h0.00001v-6.32667c0,-0.34466 0.10807,-0.62215 0.32422,-0.83246c0.22199,-0.21031 0.49655,-0.31546 0.8237,-0.31546c0.34466,0 0.62215,0.10515 0.83246,0.31546c0.21031,0.21031 0.31546,0.48779 0.31546,0.83246v9.99824c0,0.33298 -0.10515,0.60755 -0.31546,0.8237c-0.21031,0.21614 -0.48779,0.32422 -0.83246,0.32422c-0.32714,0 -0.6017,-0.10807 -0.8237,-0.32422c-0.21614,-0.21614 -0.32422,-0.49071 -0.32422,-0.8237v-0.23026c-0.3284,0.32622 -0.7052,0.60743 -1.13039,0.84365c-0.7828,0.43229 -1.6766,0.64844 -2.68138,0.64844zM446.08888,89.94589l0,3.44131c0.28071,-0.27885 0.52607,-0.59057 0.73606,-0.93518c0.45566,-0.74775 0.68349,-1.58312 0.68349,-2.50613z" data-paper-data="{&quot;origPos&quot;:null}" fill="#807565" stroke="#817666" stroke-width="1.5" stroke-linecap="butt"/><path d="M404.43667,94.76537c-0.74775,0 -1.42248,-0.18986 -2.02418,-0.56958c-0.59586,-0.38556 -1.06613,-0.90548 -1.41079,-1.55976c-0.34466,-0.66012 -0.517,-1.40203 -0.517,-2.22572l0,-5.53803h-1.02523c-0.31546,0 -0.57249,-0.08763 -0.77112,-0.26288c-0.19278,-0.1811 -0.28917,-0.40601 -0.28917,-0.67473c0,-0.30377 0.09639,-0.54329 0.28917,-0.71854c0.19862,-0.1811 0.45566,-0.27164 0.77112,-0.27164h1.02523v-3.23343c0,-0.32714 0.10515,-0.59586 0.31546,-0.80617c0.21031,-0.21031 0.47903,-0.31546 0.80617,-0.31546c0.33298,0 0.6017,0.10515 0.80617,0.31546c0.21031,0.21031 0.31546,0.47903 0.31546,0.80617v3.23343h1.91027c0.31546,0 0.56958,0.09055 0.76236,0.27164c0.19278,0.17525 0.28917,0.41477 0.28917,0.71854c0,0.26872 -0.09639,0.49363 -0.28917,0.67473c-0.19278,0.17525 -0.4469,0.26288 -0.76236,0.26288l-1.91027,0v5.53803c0,0.6017 0.16357,1.1041 0.49071,1.50719c0.33298,0.40308 0.73899,0.60463 1.21802,0.60463h0.76236c0.26872,0 0.49655,0.10515 0.68349,0.31546c0.18694,0.21031 0.28041,0.47903 0.28041,0.80617c0,0.32714 -0.1256,0.59586 -0.3768,0.80617c-0.24535,0.21031 -0.56081,0.31546 -0.94637,0.31546zM402.72794,84.87229v-1.92779l-2.24325,0v1.92779z" data-paper-data="{&quot;origPos&quot;:null}" fill="#807565" stroke="#817666" stroke-width="1.5" stroke-linecap="butt"/><path d="M426.86003,99.80096c-0.04391,-0.03313 -0.08574,-0.07011 -0.12548,-0.11096c-0.21031,-0.21614 -0.31546,-0.49071 -0.31546,-0.8237c0,-0.33883 0.10515,-0.61339 0.31546,-0.8237c0.21031,-0.21031 0.47903,-0.31546 0.80617,-0.31546c0.59586,0 1.11871,-0.13144 1.56852,-0.39432c0.44982,-0.26288 0.80617,-0.61923 1.06905,-1.06905c0.26288,-0.44397 0.39432,-0.95805 0.39432,-1.54223v-11.08481c0,-0.34466 0.10807,-0.61923 0.32422,-0.8237c0.21614,-0.21031 0.48779,-0.31546 0.81493,-0.31546c0.34466,0 0.62215,0.10515 0.83246,0.31546c0.21031,0.20446 0.31546,0.47903 0.31546,0.8237v11.08481c0,1.034 -0.22783,1.94532 -0.68349,2.73396c-0.45566,0.79449 -1.08073,1.41956 -1.87522,1.87522c-0.51273,0.29407 -1.07776,0.49324 -1.69511,0.59753" data-paper-data="{&quot;origPos&quot;:null}" fill="#807565" stroke="#817666" stroke-width="1.5" stroke-linecap="butt"/><path d="M373.94042,95.79213c-0.7088,0 -1.29736,-0.23416 -1.76569,-0.70247c-0.46831,-0.48097 -0.70247,-1.07586 -0.70247,-1.78468c0,-0.25314 0.03164,-0.49363 0.09493,-0.72146c0.06329,-0.22783 0.14555,-0.42401 0.24682,-0.58856l7.29056,-10.93585c0.51895,-0.7088 1.19611,-1.06321 2.03149,-1.06321c0.41768,0 0.80373,0.0886 1.15814,0.2658c0.36706,0.1772 0.66451,0.443 0.89234,0.7974l7.29056,10.93585c0.25314,0.41768 0.37972,0.85436 0.37972,1.31002c0,0.6835 -0.24682,1.27205 -0.74045,1.76569c-0.48097,0.48097 -1.05688,0.72146 -1.72772,0.72146c-0.81006,0 -1.49356,-0.32909 -2.05048,-0.98726l-5.20212,-7.82217l-5.20212,7.82217c-0.48097,0.65818 -1.14548,0.98726 -1.99352,0.98726z" data-paper-data="{&quot;origPos&quot;:null}" fill="#807565" stroke="#817666" stroke-width="0" stroke-linecap="butt"/><path d="M431.69424,80.4997c-0.40893,0 -0.75943,-0.14604 -1.05153,-0.43814c-0.28625,-0.29209 -0.42937,-0.63968 -0.42937,-1.04276c0,-0.40308 0.14312,-0.75067 0.42937,-1.04276c0.29209,-0.29209 0.6426,-0.43814 1.05153,-0.43814c0.40308,0 0.75067,0.14604 1.04276,0.43814c0.29209,0.29209 0.43814,0.63968 0.43814,1.04276c0,0.40308 -0.14604,0.75067 -0.43814,1.04276c-0.29209,0.29209 -0.63968,0.43814 -1.04276,0.43814z" data-paper-data="{&quot;origPos&quot;:null}" fill="#807565" stroke="#817666" stroke-width="1.5" stroke-linecap="butt"/></g></g></svg>