<svg version="1.1" xmlns="http://www.w3.org/2000/svg" xmlns:xlink="http://www.w3.org/1999/xlink" width="257.98183" height="590.79463"><g transform="translate(-141.94489,132.06354)"><g data-paper-data="{&quot;isPaintingLayer&quot;:true}" fill="none" fill-rule="nonzero" stroke="none" stroke-width="0" stroke-linecap="butt" stroke-linejoin="miter" stroke-miterlimit="10" stroke-dasharray="" stroke-dashoffset="0" font-family="none" font-weight="none" font-size="none" text-anchor="none" style="mix-blend-mode: normal"><g data-paper-data="{&quot;origPos&quot;:null,&quot;origRot&quot;:0}"><path d="M184.73146,211.74614l-38.06502,-287.82441l36.66393,-4.84884l38.06502,287.82441z" data-paper-data="{&quot;origPos&quot;:null}" fill="#d3bb76"/><path d="M156.67238,-1.54682l-8.45332,-63.91879l37.01309,-4.89502l8.45332,63.91879z" data-paper-data="{&quot;origPos&quot;:null}" fill="#b9a568"/><path d="M150.44527,-4.82246l-8.50038,-64.27468l47.5476,-6.28821l8.50038,64.27469z" data-paper-data="{&quot;origPos&quot;:null}" fill="#e7cd81"/><path d="M156.40459,-15.6196l-6.2129,-46.97816l5.12489,-0.67778l6.2129,46.97817z" data-paper-data="{&quot;origPos&quot;:null}" fill="#b9a568"/><path d="M156.2238,-16.98623l-6.2129,-46.97816l5.12488,-0.67777l6.2129,46.97817z" data-paper-data="{&quot;origPos&quot;:null}" fill="#d3bb76"/><path d="M150.84373,-58.98161l-0.65518,-4.95406l24.77031,-3.27588l0.65518,4.95406z" data-paper-data="{&quot;origPos&quot;:null}" fill="#d3bb76"/><path d="M175.00078,-27.4651l-5.12846,-38.77835l5.12489,-0.67777l5.12847,38.77835z" data-paper-data="{&quot;origPos&quot;:null}" fill="#d3bb76"/><path d="M165.11528,-25.98392l-3.56959,-26.99109l5.1249,-0.67778l3.56959,26.99108z" data-paper-data="{&quot;origPos&quot;:null}" fill="#d3bb76"/><path d="M165.29288,-25.95528l-0.72296,-5.46656l14.69136,-1.94294l0.72296,5.46656z" data-paper-data="{&quot;origPos&quot;:null}" fill="#d3bb76"/><path d="M156.52431,-14.71419l-0.65518,-4.95406l33.65346,-4.45069l0.65518,4.95406z" data-paper-data="{&quot;origPos&quot;:null}" fill="#d3bb76"/><path d="M185.90024,-18.65134l-6.48401,-49.02812l5.12488,-0.67777l6.48401,49.02812z" data-paper-data="{&quot;origPos&quot;:null}" fill="#d3bb76"/><path d="M173.68532,119.4673l-8.45332,-63.91879l37.0131,-4.89501l8.45332,63.91879z" data-paper-data="{&quot;origPos&quot;:null}" fill="#b9a568"/><path d="M167.45817,116.19157l-8.50038,-64.27468l47.5476,-6.28821l8.50038,64.27469z" data-paper-data="{&quot;origPos&quot;:null}" fill="#e7cd81"/><path d="M173.41753,105.39448l-6.2129,-46.97815l5.12488,-0.67777l6.2129,46.97817z" data-paper-data="{&quot;origPos&quot;:null}" fill="#b9a568"/><path d="M173.23677,104.02785l-6.2129,-46.97816l5.12488,-0.67777l6.2129,46.97817z" data-paper-data="{&quot;origPos&quot;:null}" fill="#d3bb76"/><path d="M167.85664,62.03241l-0.65518,-4.95407l24.77031,-3.27588l0.65518,4.95407z" data-paper-data="{&quot;origPos&quot;:null}" fill="#d3bb76"/><path d="M192.01376,93.54901l-5.12847,-38.77835l5.12489,-0.67777l5.12847,38.77835z" data-paper-data="{&quot;origPos&quot;:null}" fill="#d3bb76"/><path d="M182.1282,95.03018l-3.56959,-26.99109l5.12489,-0.67777l3.56959,26.99109z" data-paper-data="{&quot;origPos&quot;:null}" fill="#d3bb76"/><path d="M182.30579,95.05884l-0.72296,-5.46656l14.69136,-1.94293l0.72296,5.46656z" data-paper-data="{&quot;origPos&quot;:null}" fill="#d3bb76"/><path d="M173.53722,106.29992l-0.65518,-4.95406l33.65346,-4.45069l0.65518,4.95406z" data-paper-data="{&quot;origPos&quot;:null}" fill="#d3bb76"/><path d="M202.91315,102.36279l-6.48401,-49.02812l5.12489,-0.67777l6.484,49.02813z" data-paper-data="{&quot;origPos&quot;:null}" fill="#d3bb76"/><path d="M180.37829,166.78989l-5.26015,-39.77402l36.44366,-4.81972l5.26015,39.77402z" data-paper-data="{&quot;origPos&quot;:null}" fill="#b9a568"/><path d="M174.16844,163.64464l-4.87976,-36.89773l47.5476,-6.28821l4.87976,36.89773z" data-paper-data="{&quot;origPos&quot;:null}" fill="#e7cd81"/><path d="M179.34857,156.81334l-3.38887,-25.62447l5.12489,-0.67777l3.38887,25.62447z" data-paper-data="{&quot;origPos&quot;:null}" fill="#d3bb76"/><path d="M209.20615,152.57491l-3.38887,-25.62447l5.12488,-0.67778l3.38887,25.62447z" data-paper-data="{&quot;origPos&quot;:null}" fill="#d3bb76"/><path d="M188.42184,155.32365l-3.38887,-25.62447l5.12488,-0.67777l3.38887,25.62447z" data-paper-data="{&quot;origPos&quot;:null}" fill="#d3bb76"/><path d="M200.37992,153.74219l-3.38886,-25.62446l5.12488,-0.67777l3.38886,25.62446z" data-paper-data="{&quot;origPos&quot;:null}" fill="#d3bb76"/><path d="M189.77036,154.93289l-0.75307,-5.69432l12.81223,-1.69443l0.75307,5.69432z" data-paper-data="{&quot;origPos&quot;:null}" fill="#d3bb76"/><path d="M188.02635,135.17452l-0.75308,-5.69433l12.81223,-1.69443l0.75308,5.69433z" data-paper-data="{&quot;origPos&quot;:null}" fill="#d3bb76"/><path d="M163.36538,45.77586l-5.26015,-39.77402l36.44366,-4.81972l5.26015,39.77402z" data-paper-data="{&quot;origPos&quot;:null}" fill="#b9a568"/><path d="M157.15554,42.63059l-4.87976,-36.89773l47.5476,-6.28821l4.87976,36.89773z" data-paper-data="{&quot;origPos&quot;:null}" fill="#e7cd81"/><path d="M162.33567,35.79928l-3.38886,-25.62446l5.1249,-0.67778l3.38887,25.62447z" data-paper-data="{&quot;origPos&quot;:null}" fill="#d3bb76"/><path d="M192.19319,31.56078l-3.38887,-25.62447l5.12488,-0.67777l3.38886,25.62446z" data-paper-data="{&quot;origPos&quot;:null}" fill="#d3bb76"/><path d="M171.40891,34.30955l-3.38886,-25.62446l5.12488,-0.67778l3.38887,25.62447z" data-paper-data="{&quot;origPos&quot;:null}" fill="#d3bb76"/><path d="M183.36699,32.72806l-3.38886,-25.62446l5.12488,-0.67777l3.38886,25.62446z" data-paper-data="{&quot;origPos&quot;:null}" fill="#d3bb76"/><path d="M172.75742,33.91875l-0.75307,-5.69433l12.81223,-1.69443l0.75307,5.69432z" data-paper-data="{&quot;origPos&quot;:null}" fill="#d3bb76"/><path d="M171.01344,14.16039l-0.75308,-5.69433l12.81223,-1.69443l0.75308,5.69433z" data-paper-data="{&quot;origPos&quot;:null}" fill="#d3bb76"/></g><g data-paper-data="{&quot;origPos&quot;:null,&quot;origRot&quot;:0}"><path d="M219.41286,458.73109l-38.06502,-287.8244l36.66393,-4.84884l38.06503,287.82441z" data-paper-data="{&quot;origPos&quot;:null}" fill="#d3bb76"/><path d="M191.35375,245.43812l-8.45332,-63.91879l37.01309,-4.89502l8.45332,63.91879z" data-paper-data="{&quot;origPos&quot;:null}" fill="#b9a568"/><path d="M185.12666,242.16247l-8.50038,-64.27469l47.5476,-6.28821l8.50038,64.27469z" data-paper-data="{&quot;origPos&quot;:null}" fill="#e7cd81"/><path d="M191.08598,231.36532l-6.2129,-46.97816l5.12488,-0.67777l6.2129,46.97817z" data-paper-data="{&quot;origPos&quot;:null}" fill="#b9a568"/><path d="M190.90518,229.99872l-6.2129,-46.97816l5.12488,-0.67777l6.2129,46.97817z" data-paper-data="{&quot;origPos&quot;:null}" fill="#d3bb76"/><path d="M185.5251,188.00333l-0.65518,-4.95406l24.77031,-3.27588l0.65518,4.95406z" data-paper-data="{&quot;origPos&quot;:null}" fill="#d3bb76"/><path d="M209.6822,219.51984l-5.12847,-38.77836l5.12489,-0.67777l5.12847,38.77835z" data-paper-data="{&quot;origPos&quot;:null}" fill="#d3bb76"/><path d="M199.79663,221.00104l-3.56959,-26.99109l5.12489,-0.67777l3.56959,26.99109z" data-paper-data="{&quot;origPos&quot;:null}" fill="#d3bb76"/><path d="M199.97426,221.02965l-0.72296,-5.46656l14.69136,-1.94294l0.72296,5.46656z" data-paper-data="{&quot;origPos&quot;:null}" fill="#d3bb76"/><path d="M191.20565,232.27076l-0.65518,-4.95406l33.65346,-4.4507l0.65518,4.95406z" data-paper-data="{&quot;origPos&quot;:null}" fill="#d3bb76"/><path d="M220.5816,228.33359l-6.48401,-49.02812l5.12489,-0.67777l6.484,49.02812z" data-paper-data="{&quot;origPos&quot;:null}" fill="#d3bb76"/><path d="M208.36666,366.45225l-8.45332,-63.91879l37.01309,-4.89502l8.45332,63.91879z" data-paper-data="{&quot;origPos&quot;:null}" fill="#b9a568"/><path d="M202.13958,363.17647l-8.50039,-64.27468l47.5476,-6.28821l8.50038,64.27468z" data-paper-data="{&quot;origPos&quot;:null}" fill="#e7cd81"/><path d="M208.09888,352.37943l-6.2129,-46.97816l5.12489,-0.67777l6.2129,46.97817z" data-paper-data="{&quot;origPos&quot;:null}" fill="#b9a568"/><path d="M207.91815,351.01277l-6.2129,-46.97816l5.12489,-0.67777l6.2129,46.97817z" data-paper-data="{&quot;origPos&quot;:null}" fill="#d3bb76"/><path d="M202.53803,309.01735l-0.65518,-4.95406l24.77031,-3.27589l0.65518,4.95406z" data-paper-data="{&quot;origPos&quot;:null}" fill="#d3bb76"/><path d="M226.69508,340.53391l-5.12847,-38.77835l5.12489,-0.67777l5.12847,38.77835z" data-paper-data="{&quot;origPos&quot;:null}" fill="#d3bb76"/><path d="M216.80956,342.01513l-3.56959,-26.99109l5.12489,-0.67777l3.56959,26.99109z" data-paper-data="{&quot;origPos&quot;:null}" fill="#d3bb76"/><path d="M216.98717,342.04377l-0.72296,-5.46656l14.69136,-1.94293l0.72296,5.46656z" data-paper-data="{&quot;origPos&quot;:null}" fill="#d3bb76"/><path d="M208.21855,353.28486l-0.65517,-4.95407l33.65346,-4.45069l0.65518,4.95406z" data-paper-data="{&quot;origPos&quot;:null}" fill="#d3bb76"/><path d="M237.59449,349.34772l-6.484,-49.02812l5.12488,-0.67777l6.48401,49.02812z" data-paper-data="{&quot;origPos&quot;:null}" fill="#d3bb76"/><path d="M215.05967,413.77483l-5.26015,-39.77402l36.44366,-4.81972l5.26015,39.77402z" data-paper-data="{&quot;origPos&quot;:null}" fill="#b9a568"/><path d="M208.84981,410.62955l-4.87976,-36.89773l47.5476,-6.28821l4.87976,36.89773z" data-paper-data="{&quot;origPos&quot;:null}" fill="#e7cd81"/><path d="M214.02996,403.79829l-3.38886,-25.62446l5.12489,-0.67777l3.38886,25.62446z" data-paper-data="{&quot;origPos&quot;:null}" fill="#d3bb76"/><path d="M243.88752,399.55986l-3.38886,-25.62446l5.12489,-0.67778l3.38887,25.62447z" data-paper-data="{&quot;origPos&quot;:null}" fill="#d3bb76"/><path d="M223.1032,402.3086l-3.38886,-25.62446l5.12489,-0.67777l3.38886,25.62446z" data-paper-data="{&quot;origPos&quot;:null}" fill="#d3bb76"/><path d="M235.06126,400.72711l-3.38887,-25.62447l5.12488,-0.67777l3.38888,25.62447z" data-paper-data="{&quot;origPos&quot;:null}" fill="#d3bb76"/><path d="M224.45173,401.91783l-0.75307,-5.69433l12.81223,-1.69442l0.75307,5.69433z" data-paper-data="{&quot;origPos&quot;:null}" fill="#d3bb76"/><path d="M222.70775,382.15944l-0.75308,-5.69432l12.81223,-1.69443l0.75308,5.69433z" data-paper-data="{&quot;origPos&quot;:null}" fill="#d3bb76"/><path d="M198.04676,292.76079l-5.26015,-39.77402l36.44366,-4.81972l5.26015,39.77402z" data-paper-data="{&quot;origPos&quot;:null}" fill="#b9a568"/><path d="M191.83688,289.61551l-4.87976,-36.89773l47.5476,-6.28821l4.87976,36.89773z" data-paper-data="{&quot;origPos&quot;:null}" fill="#e7cd81"/><path d="M197.01705,282.78419l-3.38887,-25.62446l5.1249,-0.67778l3.38886,25.62446z" data-paper-data="{&quot;origPos&quot;:null}" fill="#d3bb76"/><path d="M226.87459,278.54572l-3.38887,-25.62447l5.12488,-0.67777l3.38887,25.62447z" data-paper-data="{&quot;origPos&quot;:null}" fill="#d3bb76"/><path d="M206.09028,281.29446l-3.38887,-25.62447l5.12488,-0.67777l3.38886,25.62446z" data-paper-data="{&quot;origPos&quot;:null}" fill="#d3bb76"/><path d="M218.04834,279.71301l-3.38886,-25.62446l5.12488,-0.67778l3.38886,25.62446z" data-paper-data="{&quot;origPos&quot;:null}" fill="#d3bb76"/><path d="M207.43877,280.9037l-0.75307,-5.69432l12.81223,-1.69443l0.75307,5.69432z" data-paper-data="{&quot;origPos&quot;:null}" fill="#d3bb76"/><path d="M205.69483,261.14534l-0.75308,-5.69432l12.81223,-1.69443l0.75308,5.69433z" data-paper-data="{&quot;origPos&quot;:null}" fill="#d3bb76"/></g><g data-paper-data="{&quot;origPos&quot;:null,&quot;origRot&quot;:0}"><path d="M345.74884,159.56516l-12.20584,-290.07388l36.95047,-1.55482l12.20584,290.07388z" data-paper-data="{&quot;origPos&quot;:null}" fill="#d3bb76"/><path d="M336.85217,-55.38146l-2.71063,-64.41834l37.30236,-1.56963l2.71063,64.41834z" data-paper-data="{&quot;origPos&quot;:null}" fill="#b9a568"/><path d="M330.94251,-59.20018l-2.72571,-64.77701l47.9192,-2.01636l2.72571,64.77702z" data-paper-data="{&quot;origPos&quot;:null}" fill="#e7cd81"/><path d="M337.84236,-69.42191l-1.99221,-47.34531l5.16494,-0.21734l1.99221,47.34532z" data-paper-data="{&quot;origPos&quot;:null}" fill="#b9a568"/><path d="M337.78435,-70.79923l-1.99221,-47.34531l5.16493,-0.21733l1.99221,47.34532z" data-paper-data="{&quot;origPos&quot;:null}" fill="#d3bb76"/><path d="M336.17661,-113.10729l-0.21009,-4.99278l24.9639,-1.05043l0.21009,4.99278z" data-paper-data="{&quot;origPos&quot;:null}" fill="#d3bb76"/><path d="M357.42221,-79.55915l-1.64447,-39.08142l5.16494,-0.21733l1.64448,39.08142z" data-paper-data="{&quot;origPos&quot;:null}" fill="#d3bb76"/><path d="M347.44393,-78.96682l-1.14461,-27.20204l5.16495,-0.21734l1.14461,27.20203z" data-paper-data="{&quot;origPos&quot;:null}" fill="#d3bb76"/><path d="M347.61826,-78.92243l-0.23182,-5.50928l14.80618,-0.62302l0.23182,5.50928z" data-paper-data="{&quot;origPos&quot;:null}" fill="#d3bb76"/><path d="M337.88074,-68.50943l-0.21009,-4.99278l33.91647,-1.42714l0.21009,4.99278z" data-paper-data="{&quot;origPos&quot;:null}" fill="#d3bb76"/><path d="M367.49091,-69.80713l-2.07915,-49.4113l5.16493,-0.21733l2.07915,49.4113z" data-paper-data="{&quot;origPos&quot;:null}" fill="#d3bb76"/><path d="M342.98874,66.66853l-2.71063,-64.41834l37.30237,-1.56962l2.71063,64.41834z" data-paper-data="{&quot;origPos&quot;:null}" fill="#b9a568"/><path d="M337.07905,62.84971l-2.72571,-64.77701l47.9192,-2.01636l2.72571,64.77702z" data-paper-data="{&quot;origPos&quot;:null}" fill="#e7cd81"/><path d="M343.97893,52.62804l-1.99221,-47.3453l5.16493,-0.21733l1.99221,47.34532z" data-paper-data="{&quot;origPos&quot;:null}" fill="#b9a568"/><path d="M343.92095,51.25072l-1.99221,-47.34531l5.16493,-0.21733l1.99221,47.34532z" data-paper-data="{&quot;origPos&quot;:null}" fill="#d3bb76"/><path d="M342.31315,8.94259l-0.21009,-4.99279l24.9639,-1.05043l0.21009,4.99279z" data-paper-data="{&quot;origPos&quot;:null}" fill="#d3bb76"/><path d="M363.55882,42.49083l-1.64448,-39.08142l5.16494,-0.21733l1.64448,39.08142z" data-paper-data="{&quot;origPos&quot;:null}" fill="#d3bb76"/><path d="M353.58048,43.08315l-1.14461,-27.20204l5.16494,-0.21733l1.14461,27.20204z" data-paper-data="{&quot;origPos&quot;:null}" fill="#d3bb76"/><path d="M353.7548,43.12756l-0.23182,-5.50928l14.80618,-0.62301l0.23182,5.50928z" data-paper-data="{&quot;origPos&quot;:null}" fill="#d3bb76"/><path d="M344.01727,53.54055l-0.21009,-4.99278l33.91647,-1.42714l0.21009,4.99278z" data-paper-data="{&quot;origPos&quot;:null}" fill="#d3bb76"/><path d="M373.62745,52.24286l-2.07915,-49.4113l5.16494,-0.21733l2.07914,49.4113z" data-paper-data="{&quot;origPos&quot;:null}" fill="#d3bb76"/><path d="M345.42834,114.39977l-1.68671,-40.08487l36.72848,-1.54549l1.68671,40.08487z" data-paper-data="{&quot;origPos&quot;:null}" fill="#b9a568"/><path d="M339.52423,110.71246l-1.56474,-37.1861l47.9192,-2.01636l1.56474,37.1861z" data-paper-data="{&quot;origPos&quot;:null}" fill="#e7cd81"/><path d="M345.29379,104.37113l-1.08668,-25.82474l5.16494,-0.21733l1.08668,25.82474z" data-paper-data="{&quot;origPos&quot;:null}" fill="#d3bb76"/><path d="M375.4106,102.81637l-1.08668,-25.82474l5.16493,-0.21734l1.08668,25.82474z" data-paper-data="{&quot;origPos&quot;:null}" fill="#d3bb76"/><path d="M354.46385,103.69777l-1.08668,-25.82474l5.16493,-0.21733l1.08668,25.82474z" data-paper-data="{&quot;origPos&quot;:null}" fill="#d3bb76"/><path d="M366.51539,103.19067l-1.08667,-25.82473l5.16493,-0.21733l1.08667,25.82473z" data-paper-data="{&quot;origPos&quot;:null}" fill="#d3bb76"/><path d="M355.84188,103.42902l-0.24147,-5.73882l12.91236,-0.54333l0.24147,5.73882z" data-paper-data="{&quot;origPos&quot;:null}" fill="#d3bb76"/><path d="M355.86956,83.59384l-0.24148,-5.73883l12.91236,-0.54333l0.24148,5.73883z" data-paper-data="{&quot;origPos&quot;:null}" fill="#d3bb76"/><path d="M339.29179,-7.65012l-1.68671,-40.08487l36.72848,-1.54549l1.68671,40.08487z" data-paper-data="{&quot;origPos&quot;:null}" fill="#b9a568"/><path d="M333.38769,-11.33745l-1.56474,-37.1861l47.9192,-2.01636l1.56474,37.1861z" data-paper-data="{&quot;origPos&quot;:null}" fill="#e7cd81"/><path d="M339.15726,-17.6788l-1.08667,-25.82473l5.16495,-0.21734l1.08668,25.82474z" data-paper-data="{&quot;origPos&quot;:null}" fill="#d3bb76"/><path d="M369.27401,-19.23363l-1.08668,-25.82474l5.16493,-0.21733l1.08667,25.82473z" data-paper-data="{&quot;origPos&quot;:null}" fill="#d3bb76"/><path d="M348.32729,-18.3522l-1.08667,-25.82473l5.16493,-0.21734l1.08668,25.82474z" data-paper-data="{&quot;origPos&quot;:null}" fill="#d3bb76"/><path d="M360.37883,-18.85933l-1.08667,-25.82473l5.16493,-0.21733l1.08667,25.82473z" data-paper-data="{&quot;origPos&quot;:null}" fill="#d3bb76"/><path d="M349.70532,-18.62099l-0.24147,-5.73883l12.91236,-0.54333l0.24147,5.73882z" data-paper-data="{&quot;origPos&quot;:null}" fill="#d3bb76"/><path d="M349.73303,-38.45615l-0.24148,-5.73883l12.91236,-0.54333l0.24148,5.73883z" data-paper-data="{&quot;origPos&quot;:null}" fill="#d3bb76"/></g><g data-paper-data="{&quot;origPos&quot;:null,&quot;origRot&quot;:0}"><path d="M358.23217,408.66058l-12.20585,-290.07387l36.95047,-1.55482l12.20585,290.07388z" data-paper-data="{&quot;origPos&quot;:null}" fill="#d3bb76"/><path d="M349.33547,193.71395l-2.71063,-64.41834l37.30236,-1.56963l2.71063,64.41834z" data-paper-data="{&quot;origPos&quot;:null}" fill="#b9a568"/><path d="M343.42583,189.89522l-2.72571,-64.77702l47.9192,-2.01636l2.72571,64.77702z" data-paper-data="{&quot;origPos&quot;:null}" fill="#e7cd81"/><path d="M350.32568,179.67348l-1.99221,-47.34531l5.16493,-0.21733l1.99221,47.34532z" data-paper-data="{&quot;origPos&quot;:null}" fill="#b9a568"/><path d="M350.26766,178.2962l-1.99221,-47.34531l5.16493,-0.21733l1.99221,47.34532z" data-paper-data="{&quot;origPos&quot;:null}" fill="#d3bb76"/><path d="M348.6599,135.98812l-0.21009,-4.99278l24.9639,-1.05043l0.21009,4.99278z" data-paper-data="{&quot;origPos&quot;:null}" fill="#d3bb76"/><path d="M369.90556,169.53627l-1.64448,-39.08143l5.16494,-0.21733l1.64448,39.08142z" data-paper-data="{&quot;origPos&quot;:null}" fill="#d3bb76"/><path d="M359.9272,170.12862l-1.14461,-27.20204l5.16494,-0.21733l1.14461,27.20204z" data-paper-data="{&quot;origPos&quot;:null}" fill="#d3bb76"/><path d="M360.10157,170.17298l-0.23182,-5.50928l14.80618,-0.62302l0.23182,5.50928z" data-paper-data="{&quot;origPos&quot;:null}" fill="#d3bb76"/><path d="M350.364,180.58599l-0.21009,-4.99278l33.91648,-1.42715l0.21009,4.99278z" data-paper-data="{&quot;origPos&quot;:null}" fill="#d3bb76"/><path d="M379.9742,179.28827l-2.07915,-49.4113l5.16494,-0.21733l2.07914,49.41129z" data-paper-data="{&quot;origPos&quot;:null}" fill="#d3bb76"/><path d="M355.472,315.76395l-2.71063,-64.41834l37.30236,-1.56963l2.71063,64.41834z" data-paper-data="{&quot;origPos&quot;:null}" fill="#b9a568"/><path d="M349.56239,311.94509l-2.72572,-64.77701l47.9192,-2.01636l2.72571,64.77701z" data-paper-data="{&quot;origPos&quot;:null}" fill="#e7cd81"/><path d="M356.46221,301.72346l-1.99221,-47.34531l5.16494,-0.21733l1.99221,47.34532z" data-paper-data="{&quot;origPos&quot;:null}" fill="#b9a568"/><path d="M356.40426,300.34612l-1.99221,-47.34531l5.16494,-0.21733l1.99221,47.34532z" data-paper-data="{&quot;origPos&quot;:null}" fill="#d3bb76"/><path d="M354.79647,258.03801l-0.21009,-4.99278l24.9639,-1.05044l0.21009,4.99278z" data-paper-data="{&quot;origPos&quot;:null}" fill="#d3bb76"/><path d="M376.04207,291.5862l-1.64448,-39.08142l5.16494,-0.21733l1.64448,39.08142z" data-paper-data="{&quot;origPos&quot;:null}" fill="#d3bb76"/><path d="M366.06376,292.17857l-1.14461,-27.20204l5.16494,-0.21733l1.14461,27.20204z" data-paper-data="{&quot;origPos&quot;:null}" fill="#d3bb76"/><path d="M366.2381,292.22296l-0.23182,-5.50928l14.80618,-0.62301l0.23182,5.50928z" data-paper-data="{&quot;origPos&quot;:null}" fill="#d3bb76"/><path d="M356.50053,302.63596l-0.21008,-4.99279l33.91647,-1.42714l0.21009,4.99278z" data-paper-data="{&quot;origPos&quot;:null}" fill="#d3bb76"/><path d="M386.11071,301.33827l-2.07914,-49.41129l5.16493,-0.21733l2.07915,49.4113z" data-paper-data="{&quot;origPos&quot;:null}" fill="#d3bb76"/><path d="M357.91165,363.49519l-1.68671,-40.08487l36.72848,-1.54549l1.68671,40.08487z" data-paper-data="{&quot;origPos&quot;:null}" fill="#b9a568"/><path d="M352.00752,359.80785l-1.56474,-37.1861l47.9192,-2.01636l1.56474,37.1861z" data-paper-data="{&quot;origPos&quot;:null}" fill="#e7cd81"/><path d="M357.77711,353.46655l-1.08667,-25.82473l5.16494,-0.21733l1.08667,25.82473z" data-paper-data="{&quot;origPos&quot;:null}" fill="#d3bb76"/><path d="M387.89389,351.91179l-1.08667,-25.82473l5.16494,-0.21734l1.08668,25.82474z" data-paper-data="{&quot;origPos&quot;:null}" fill="#d3bb76"/><path d="M366.94714,352.79319l-1.08667,-25.82473l5.16494,-0.21733l1.08667,25.82473z" data-paper-data="{&quot;origPos&quot;:null}" fill="#d3bb76"/><path d="M378.99866,352.28606l-1.08668,-25.82474l5.16493,-0.21733l1.08669,25.82474z" data-paper-data="{&quot;origPos&quot;:null}" fill="#d3bb76"/><path d="M368.32518,352.52443l-0.24147,-5.73883l12.91236,-0.54332l0.24147,5.73883z" data-paper-data="{&quot;origPos&quot;:null}" fill="#d3bb76"/><path d="M368.35289,332.68924l-0.24148,-5.73882l12.91236,-0.54333l0.24148,5.73883z" data-paper-data="{&quot;origPos&quot;:null}" fill="#d3bb76"/><path d="M351.7751,241.44528l-1.68671,-40.08487l36.72848,-1.54549l1.68671,40.08487z" data-paper-data="{&quot;origPos&quot;:null}" fill="#b9a568"/><path d="M345.87096,237.75794l-1.56474,-37.1861l47.9192,-2.01636l1.56474,37.1861z" data-paper-data="{&quot;origPos&quot;:null}" fill="#e7cd81"/><path d="M351.64057,231.41659l-1.08668,-25.82473l5.16495,-0.21734l1.08667,25.82473z" data-paper-data="{&quot;origPos&quot;:null}" fill="#d3bb76"/><path d="M381.75734,229.86178l-1.08668,-25.82474l5.16493,-0.21733l1.08668,25.82474z" data-paper-data="{&quot;origPos&quot;:null}" fill="#d3bb76"/><path d="M360.81059,230.74319l-1.08668,-25.82474l5.16493,-0.21733l1.08667,25.82473z" data-paper-data="{&quot;origPos&quot;:null}" fill="#d3bb76"/><path d="M372.86211,230.23609l-1.08667,-25.82473l5.16493,-0.21734l1.08667,25.82473z" data-paper-data="{&quot;origPos&quot;:null}" fill="#d3bb76"/><path d="M362.18859,230.47443l-0.24147,-5.73882l12.91236,-0.54333l0.24147,5.73882z" data-paper-data="{&quot;origPos&quot;:null}" fill="#d3bb76"/><path d="M362.21634,210.63927l-0.24148,-5.73882l12.91236,-0.54333l0.24148,5.73883z" data-paper-data="{&quot;origPos&quot;:null}" fill="#d3bb76"/></g></g></g></svg>