<svg version="1.1" xmlns="http://www.w3.org/2000/svg" xmlns:xlink="http://www.w3.org/1999/xlink" width="328.14394" height="404.571"><defs><linearGradient x1="357.74518" y1="301.41827" x2="337.25277" y2="320.98838" gradientUnits="userSpaceOnUse" id="color-1"><stop offset="0" stop-color="#8e8e8e"/><stop offset="1" stop-color="#818181"/></linearGradient><linearGradient x1="272.24331" y1="255.32635" x2="268.75482" y2="287.05728" gradientUnits="userSpaceOnUse" id="color-2"><stop offset="0" stop-color="#8e8e8e"/><stop offset="1" stop-color="#818181"/></linearGradient></defs><g transform="translate(-184.17424,-194.02902)"><g data-paper-data="{&quot;isPaintingLayer&quot;:true}" fill="none" fill-rule="nonzero" stroke="none" stroke-width="none" stroke-linecap="butt" stroke-linejoin="miter" stroke-miterlimit="10" stroke-dasharray="" stroke-dashoffset="0" font-family="none" font-weight="none" font-size="none" text-anchor="none" style="mix-blend-mode: normal"><path d="M270.90792,370.20005v-80h241.41026v80z" data-paper-data="{&quot;origPos&quot;:null}" fill="#847968" stroke-width="NaN"/><path d="M300.90792,356.20001v-40h185.76923v40z" data-paper-data="{&quot;origPos&quot;:null}" fill="#7c7262" stroke-width="0"/><path d="M301.80538,598.60001v-252h185.76922v252z" data-paper-data="{&quot;origPos&quot;:null}" fill="#786e5f" stroke-width="0"/><path d="M297.31818,298.20005v-9h187.56411v9z" data-paper-data="{&quot;origPos&quot;:null}" fill="#61584c" stroke-width="0"/><path d="M301.80538,293.20005v-19h187.56409v19z" data-paper-data="{&quot;origPos&quot;:null}" fill="#91b782" stroke-width="0"/><path d="M300.90792,293.20005v-12h187.56411v12z" data-paper-data="{&quot;origPos&quot;:null}" fill="#8aaf7c" stroke-width="0"/><path d="M194.90792,298.00005v-80h241.41026v80z" data-paper-data="{&quot;origPos&quot;:null}" fill="#847968" stroke-width="NaN"/><path d="M224.90792,284.00001v-40h185.76923v40z" data-paper-data="{&quot;origPos&quot;:null}" fill="#7c7262" stroke-width="0"/><path d="M225.80538,526.40001v-252h185.76922v252z" data-paper-data="{&quot;origPos&quot;:null}" fill="#786e5f" stroke-width="0"/><path d="M221.31818,226.00006v-9h187.56411v9z" data-paper-data="{&quot;origPos&quot;:null}" fill="#61584c" stroke-width="0"/><path d="M225.80538,221.00006v-19h187.56409v19z" data-paper-data="{&quot;origPos&quot;:null}" fill="#91b782" stroke-width="0"/><path d="M224.90792,221.00006v-12h187.56411v12z" data-paper-data="{&quot;origPos&quot;:null}" fill="#8aaf7c" stroke-width="0"/><g data-paper-data="{&quot;origPos&quot;:null,&quot;origRot&quot;:0}" stroke-width="0"><path d="M200.1701,488.82473l-10.63436,-290.13572l36.95835,-1.35464l10.63436,290.13573z" data-paper-data="{&quot;origPos&quot;:null}" fill="#d3bb76"/><path d="M192.43789,273.83312l-2.36163,-64.43207l37.31032,-1.36754l2.36163,64.43207z" data-paper-data="{&quot;origPos&quot;:null}" fill="#b9a568"/><path d="M186.54902,269.98237l-2.37478,-64.79083l47.92943,-1.75676l2.37478,64.79083z" data-paper-data="{&quot;origPos&quot;:null}" fill="#e7cd81"/><path d="M193.50413,259.79819l-1.73572,-47.35541l5.16604,-0.18935l1.73572,47.35542z" data-paper-data="{&quot;origPos&quot;:null}" fill="#b9a568"/><path d="M193.45362,258.42053l-1.73571,-47.35541l5.16604,-0.18935l1.73571,47.35542z" data-paper-data="{&quot;origPos&quot;:null}" fill="#d3bb76"/><path d="M192.07504,216.10439l-0.18304,-4.99384l24.96922,-0.9152l0.18304,4.99384z" data-paper-data="{&quot;origPos&quot;:null}" fill="#d3bb76"/><path d="M213.13865,249.76716l-1.43276,-39.08975l5.16605,-0.18935l1.43276,39.08975z" data-paper-data="{&quot;origPos&quot;:null}" fill="#d3bb76"/><path d="M203.15728,250.3054l-0.99725,-27.20784l5.16605,-0.18935l0.99725,27.20784z" data-paper-data="{&quot;origPos&quot;:null}" fill="#d3bb76"/><path d="M203.33136,250.35079l-0.20197,-5.51046l14.80933,-0.54281l0.20197,5.51046z" data-paper-data="{&quot;origPos&quot;:null}" fill="#d3bb76"/><path d="M193.53756,260.71083l-0.18303,-4.99384l33.92369,-1.24341l0.18303,4.99384z" data-paper-data="{&quot;origPos&quot;:null}" fill="#d3bb76"/><path d="M223.15434,259.57354l-1.81146,-49.42184l5.16604,-0.18935l1.81146,49.42184z" data-paper-data="{&quot;origPos&quot;:null}" fill="#d3bb76"/><path d="M197.91321,395.91449l-2.36163,-64.43207l37.31032,-1.36754l2.36163,64.43207z" data-paper-data="{&quot;origPos&quot;:null}" fill="#b9a568"/><path d="M192.02434,392.06379l-2.37478,-64.79083l47.92943,-1.75676l2.37478,64.79083z" data-paper-data="{&quot;origPos&quot;:null}" fill="#e7cd81"/><path d="M198.97946,381.8796l-1.73572,-47.35541l5.16604,-0.18935l1.73571,47.35542z" data-paper-data="{&quot;origPos&quot;:null}" fill="#b9a568"/><path d="M198.92896,380.50198l-1.73572,-47.35541l5.16604,-0.18935l1.73572,47.35542z" data-paper-data="{&quot;origPos&quot;:null}" fill="#d3bb76"/><path d="M197.55037,338.18577l-0.18303,-4.99384l24.96922,-0.9152l0.18303,4.99384z" data-paper-data="{&quot;origPos&quot;:null}" fill="#d3bb76"/><path d="M218.61398,371.84857l-1.43276,-39.08975l5.16605,-0.18935l1.43276,39.08975z" data-paper-data="{&quot;origPos&quot;:null}" fill="#d3bb76"/><path d="M208.6326,372.38686l-0.99725,-27.20784l5.16605,-0.18935l0.99725,27.20784z" data-paper-data="{&quot;origPos&quot;:null}" fill="#d3bb76"/><path d="M208.80669,372.4322l-0.20198,-5.51046l14.80933,-0.54281l0.20198,5.51046z" data-paper-data="{&quot;origPos&quot;:null}" fill="#d3bb76"/><path d="M199.01289,382.79227l-0.18303,-4.99384l33.92369,-1.24341l0.18303,4.99384z" data-paper-data="{&quot;origPos&quot;:null}" fill="#d3bb76"/><path d="M228.62966,381.655l-1.81146,-49.42184l5.16604,-0.18935l1.81146,49.42184z" data-paper-data="{&quot;origPos&quot;:null}" fill="#d3bb76"/><path d="M200.09425,443.6583l-1.46954,-40.09341l36.73632,-1.3465l1.46954,40.09341z" data-paper-data="{&quot;origPos&quot;:null}" fill="#b9a568"/><path d="M194.2102,439.93902l-1.36328,-37.19404l47.92943,-1.75676l1.36328,37.19404z" data-paper-data="{&quot;origPos&quot;:null}" fill="#e7cd81"/><path d="M200.01405,433.62904l-0.94676,-25.83024l5.16605,-0.18935l0.94676,25.83024z" data-paper-data="{&quot;origPos&quot;:null}" fill="#d3bb76"/><path d="M230.13881,432.23747l-0.94675,-25.83024l5.16604,-0.18935l0.94675,25.83024z" data-paper-data="{&quot;origPos&quot;:null}" fill="#d3bb76"/><path d="M209.18761,433.00539l-0.94676,-25.83024l5.16604,-0.18935l0.94676,25.83024z" data-paper-data="{&quot;origPos&quot;:null}" fill="#d3bb76"/><path d="M221.24173,432.56356l-0.94676,-25.83024l5.16604,-0.18935l0.94676,25.83024z" data-paper-data="{&quot;origPos&quot;:null}" fill="#d3bb76"/><path d="M210.56709,432.74409l-0.21039,-5.74005l12.91512,-0.47337l0.21039,5.74005z" data-paper-data="{&quot;origPos&quot;:null}" fill="#d3bb76"/><path d="M210.70224,412.90936l-0.21039,-5.74006l12.91512,-0.47337l0.21039,5.74006z" data-paper-data="{&quot;origPos&quot;:null}" fill="#d3bb76"/><path d="M194.61892,321.57692l-1.46954,-40.09341l36.73632,-1.3465l1.46954,40.09341z" data-paper-data="{&quot;origPos&quot;:null}" fill="#b9a568"/><path d="M188.73487,317.85754l-1.36328,-37.19404l47.92943,-1.75676l1.36328,37.19404z" data-paper-data="{&quot;origPos&quot;:null}" fill="#e7cd81"/><path d="M194.53874,311.5476l-0.94676,-25.83024l5.16605,-0.18935l0.94676,25.83024z" data-paper-data="{&quot;origPos&quot;:null}" fill="#d3bb76"/><path d="M224.66349,310.15599l-0.94675,-25.83024l5.16604,-0.18935l0.94675,25.83024z" data-paper-data="{&quot;origPos&quot;:null}" fill="#d3bb76"/><path d="M203.71229,310.92391l-0.94675,-25.83024l5.16604,-0.18935l0.94675,25.83024z" data-paper-data="{&quot;origPos&quot;:null}" fill="#d3bb76"/><path d="M215.76639,310.48213l-0.94675,-25.83024l5.16604,-0.18935l0.94675,25.83024z" data-paper-data="{&quot;origPos&quot;:null}" fill="#d3bb76"/><path d="M205.09174,310.66261l-0.21039,-5.74005l12.91512,-0.47337l0.21039,5.74005z" data-paper-data="{&quot;origPos&quot;:null}" fill="#d3bb76"/><path d="M205.22693,290.82791l-0.21039,-5.74006l12.91512,-0.47337l0.21039,5.74006z" data-paper-data="{&quot;origPos&quot;:null}" fill="#d3bb76"/></g><g data-paper-data="{&quot;origPos&quot;:null,&quot;origRot&quot;:0,&quot;index&quot;:null}" stroke-width="0"><path d="M405.21584,484.27511l7.00234,-290.24609l36.97241,0.89198l-7.00234,290.2461z" data-paper-data="{&quot;origPos&quot;:null}" fill="#d3bb76"/><path d="M410.55222,269.21065l1.55505,-64.45659l37.32452,0.90048l-1.55505,64.45659z" data-paper-data="{&quot;origPos&quot;:null}" fill="#b9a568"/><path d="M404.90802,265.00951l1.56371,-64.81548l47.94766,1.15676l-1.56371,64.81548z" data-paper-data="{&quot;origPos&quot;:null}" fill="#e7cd81"/><path d="M412.46872,255.26642l1.14291,-47.37342l5.16801,0.12468l-1.14291,47.37344z" data-paper-data="{&quot;origPos&quot;:null}" fill="#b9a568"/><path d="M412.50193,253.8883l1.14291,-47.37342l5.168,0.12468l-1.14291,47.37343z" data-paper-data="{&quot;origPos&quot;:null}" fill="#d3bb76"/><path d="M413.69535,211.56646l0.12052,-4.99575l24.97872,0.60262l-0.12053,4.99575z" data-paper-data="{&quot;origPos&quot;:null}" fill="#d3bb76"/><path d="M432.67608,246.44613l0.94342,-39.10462l5.16801,0.12468l-0.94342,39.10462z" data-paper-data="{&quot;origPos&quot;:null}" fill="#d3bb76"/><path d="M422.68046,246.37731l0.65665,-27.21819l5.16802,0.12468l-0.65666,27.21819z" data-paper-data="{&quot;origPos&quot;:null}" fill="#d3bb76"/><path d="M422.85146,246.43315l0.133,-5.51254l14.81497,0.35743l-0.13299,5.51254z" data-paper-data="{&quot;origPos&quot;:null}" fill="#d3bb76"/><path d="M412.44667,256.1794l0.12052,-4.99574l33.9366,0.81874l-0.12053,4.99574z" data-paper-data="{&quot;origPos&quot;:null}" fill="#d3bb76"/><path d="M442.07782,256.84254l1.19278,-49.44063l5.168,0.12468l-1.19278,49.44064z" data-paper-data="{&quot;origPos&quot;:null}" fill="#d3bb76"/><path d="M408.60465,391.39927l1.55505,-64.45658l37.32452,0.90047l-1.55505,64.45658z" data-paper-data="{&quot;origPos&quot;:null}" fill="#b9a568"/><path d="M402.96047,387.1981l1.56371,-64.81548l47.94765,1.15677l-1.56371,64.81548z" data-paper-data="{&quot;origPos&quot;:null}" fill="#e7cd81"/><path d="M410.52113,377.45502l1.14291,-47.37342l5.168,0.12468l-1.1429,47.37343z" data-paper-data="{&quot;origPos&quot;:null}" fill="#b9a568"/><path d="M410.55436,376.07688l1.14291,-47.37343l5.168,0.12468l-1.14291,47.37343z" data-paper-data="{&quot;origPos&quot;:null}" fill="#d3bb76"/><path d="M411.74776,333.75503l0.12052,-4.99574l24.97872,0.60263l-0.12053,4.99575z" data-paper-data="{&quot;origPos&quot;:null}" fill="#d3bb76"/><path d="M430.72849,368.63471l0.94342,-39.10462l5.16802,0.12468l-0.94342,39.10462z" data-paper-data="{&quot;origPos&quot;:null}" fill="#d3bb76"/><path d="M420.73286,368.56591l0.65666,-27.21819l5.16802,0.12468l-0.65665,27.21819z" data-paper-data="{&quot;origPos&quot;:null}" fill="#d3bb76"/><path d="M420.90388,368.6217l0.13299,-5.51254l14.81497,0.35742l-0.133,5.51255z" data-paper-data="{&quot;origPos&quot;:null}" fill="#d3bb76"/><path d="M410.49907,378.36803l0.12052,-4.99574l33.93661,0.81874l-0.12052,4.99575z" data-paper-data="{&quot;origPos&quot;:null}" fill="#d3bb76"/><path d="M440.13024,379.03117l1.19278,-49.44063l5.168,0.12468l-1.19278,49.44063z" data-paper-data="{&quot;origPos&quot;:null}" fill="#d3bb76"/><path d="M407.88266,439.18742l0.96764,-40.10866l36.7503,0.88662l-0.96765,40.10866z" data-paper-data="{&quot;origPos&quot;:null}" fill="#b9a568"/><path d="M402.23529,435.11767l0.89767,-37.20819l47.94766,1.15677l-0.89766,37.20818z" data-paper-data="{&quot;origPos&quot;:null}" fill="#e7cd81"/><path d="M408.41158,429.17175l0.62341,-25.84007l5.16801,0.12468l-0.62341,25.84006z" data-paper-data="{&quot;origPos&quot;:null}" fill="#d3bb76"/><path d="M438.56526,429.61196l0.62341,-25.84006l5.16801,0.12468l-0.62341,25.84006z" data-paper-data="{&quot;origPos&quot;:null}" fill="#d3bb76"/><path d="M417.6061,429.1063l0.62341,-25.84006l5.168,0.12468l-0.6234,25.84006z" data-paper-data="{&quot;origPos&quot;:null}" fill="#d3bb76"/><path d="M429.66479,429.39721l0.62341,-25.84006l5.168,0.12468l-0.62341,25.84006z" data-paper-data="{&quot;origPos&quot;:null}" fill="#d3bb76"/><path d="M418.99889,428.92924l0.13854,-5.74223l12.92003,0.3117l-0.13854,5.74223z" data-paper-data="{&quot;origPos&quot;:null}" fill="#d3bb76"/><path d="M420.33815,409.13932l0.13854,-5.74224l12.92003,0.3117l-0.13854,5.74224z" data-paper-data="{&quot;origPos&quot;:null}" fill="#d3bb76"/><path d="M409.83021,316.99884l0.96765,-40.10866l36.75029,0.88662l-0.96764,40.10867z" data-paper-data="{&quot;origPos&quot;:null}" fill="#b9a568"/><path d="M404.18288,312.92909l0.89767,-37.20819l47.94766,1.15676l-0.89766,37.20819z" data-paper-data="{&quot;origPos&quot;:null}" fill="#e7cd81"/><path d="M410.35915,306.98317l0.62341,-25.84006l5.16801,0.12468l-0.6234,25.84006z" data-paper-data="{&quot;origPos&quot;:null}" fill="#d3bb76"/><path d="M440.51283,307.42331l0.6234,-25.84006l5.16801,0.12468l-0.6234,25.84006z" data-paper-data="{&quot;origPos&quot;:null}" fill="#d3bb76"/><path d="M419.55366,306.91765l0.6234,-25.84007l5.16801,0.12468l-0.62341,25.84006z" data-paper-data="{&quot;origPos&quot;:null}" fill="#d3bb76"/><path d="M431.61236,307.20858l0.6234,-25.84006l5.16801,0.12468l-0.62341,25.84006z" data-paper-data="{&quot;origPos&quot;:null}" fill="#d3bb76"/><path d="M420.94643,306.7406l0.13854,-5.74223l12.92003,0.3117l-0.13853,5.74223z" data-paper-data="{&quot;origPos&quot;:null}" fill="#d3bb76"/><path d="M422.28572,286.95068l0.13854,-5.74224l12.92003,0.31171l-0.13854,5.74223z" data-paper-data="{&quot;origPos&quot;:null}" fill="#d3bb76"/></g><g data-paper-data="{&quot;origPos&quot;:null,&quot;origRot&quot;:0,&quot;index&quot;:null}" stroke-width="0"><path d="M406.21557,484.29924l7.00233,-290.2461l36.97241,0.89198l-7.00234,290.24611z" data-paper-data="{&quot;origPos&quot;:null}" fill="#d3bb76"/><path d="M411.55193,269.23479l1.55505,-64.45658l37.32452,0.90047l-1.55505,64.45659z" data-paper-data="{&quot;origPos&quot;:null}" fill="#b9a568"/><path d="M405.90775,265.0336l1.5637,-64.81548l47.94766,1.15676l-1.56371,64.81548z" data-paper-data="{&quot;origPos&quot;:null}" fill="#e7cd81"/><path d="M413.46842,255.29051l1.14291,-47.37342l5.168,0.12468l-1.14291,47.37344z" data-paper-data="{&quot;origPos&quot;:null}" fill="#b9a568"/><path d="M413.50165,253.9124l1.14291,-47.37343l5.168,0.12469l-1.14291,47.37343z" data-paper-data="{&quot;origPos&quot;:null}" fill="#d3bb76"/><path d="M414.69506,211.59058l0.12052,-4.99575l24.97872,0.60262l-0.12052,4.99574z" data-paper-data="{&quot;origPos&quot;:null}" fill="#d3bb76"/><path d="M433.6758,246.47022l0.94342,-39.10462l5.16802,0.12468l-0.94342,39.10462z" data-paper-data="{&quot;origPos&quot;:null}" fill="#d3bb76"/><path d="M423.68015,246.40146l0.65666,-27.21819l5.16801,0.12468l-0.65665,27.21819z" data-paper-data="{&quot;origPos&quot;:null}" fill="#d3bb76"/><path d="M423.85117,246.45725l0.13299,-5.51254l14.81497,0.35742l-0.13299,5.51255z" data-paper-data="{&quot;origPos&quot;:null}" fill="#d3bb76"/><path d="M413.44638,256.20354l0.12052,-4.99574l33.93661,0.81874l-0.12053,4.99574z" data-paper-data="{&quot;origPos&quot;:null}" fill="#d3bb76"/><path d="M443.07755,256.86668l1.19278,-49.44064l5.16801,0.12468l-1.19278,49.44063z" data-paper-data="{&quot;origPos&quot;:null}" fill="#d3bb76"/><path d="M409.60437,391.42339l1.55505,-64.45658l37.32451,0.90047l-1.55505,64.45659z" data-paper-data="{&quot;origPos&quot;:null}" fill="#b9a568"/><path d="M403.96016,387.22222l1.56371,-64.81548l47.94766,1.15676l-1.56371,64.81548z" data-paper-data="{&quot;origPos&quot;:null}" fill="#e7cd81"/><path d="M411.52086,377.47914l1.1429,-47.37343l5.16801,0.12468l-1.14291,47.37344z" data-paper-data="{&quot;origPos&quot;:null}" fill="#b9a568"/><path d="M411.55409,376.101l1.14291,-47.37343l5.168,0.12468l-1.14291,47.37343z" data-paper-data="{&quot;origPos&quot;:null}" fill="#d3bb76"/><path d="M412.74749,333.77912l0.12053,-4.99574l24.97872,0.60263l-0.12052,4.99575z" data-paper-data="{&quot;origPos&quot;:null}" fill="#d3bb76"/><path d="M431.72822,368.65883l0.94342,-39.10462l5.16801,0.12468l-0.94342,39.10462z" data-paper-data="{&quot;origPos&quot;:null}" fill="#d3bb76"/><path d="M421.73259,368.59l0.65665,-27.21819l5.16802,0.12468l-0.65666,27.21819z" data-paper-data="{&quot;origPos&quot;:null}" fill="#d3bb76"/><path d="M421.90359,368.64586l0.13299,-5.51254l14.81497,0.35742l-0.13299,5.51255z" data-paper-data="{&quot;origPos&quot;:null}" fill="#d3bb76"/><path d="M411.4988,378.39215l0.12053,-4.99575l33.9366,0.81875l-0.12053,4.99574z" data-paper-data="{&quot;origPos&quot;:null}" fill="#d3bb76"/><path d="M441.12997,379.05531l1.19278,-49.44063l5.16801,0.12467l-1.19278,49.44064z" data-paper-data="{&quot;origPos&quot;:null}" fill="#d3bb76"/><path d="M408.88235,439.21151l0.96764,-40.10865l36.7503,0.88661l-0.96764,40.10867z" data-paper-data="{&quot;origPos&quot;:null}" fill="#b9a568"/><path d="M403.23502,435.14183l0.89767,-37.20819l47.94765,1.15676l-0.89766,37.20818z" data-paper-data="{&quot;origPos&quot;:null}" fill="#e7cd81"/><path d="M409.41129,429.19589l0.62341,-25.84006l5.16801,0.12468l-0.62341,25.84006z" data-paper-data="{&quot;origPos&quot;:null}" fill="#d3bb76"/><path d="M439.56497,429.63607l0.62341,-25.84006l5.168,0.12468l-0.62341,25.84006z" data-paper-data="{&quot;origPos&quot;:null}" fill="#d3bb76"/><path d="M418.60579,429.13042l0.62341,-25.84006l5.168,0.12468l-0.6234,25.84006z" data-paper-data="{&quot;origPos&quot;:null}" fill="#d3bb76"/><path d="M430.6645,429.42135l0.62341,-25.84006l5.168,0.12468l-0.62341,25.84006z" data-paper-data="{&quot;origPos&quot;:null}" fill="#d3bb76"/><path d="M419.99859,428.95336l0.13853,-5.74223l12.92003,0.3117l-0.13853,5.74222z" data-paper-data="{&quot;origPos&quot;:null}" fill="#d3bb76"/><path d="M421.33788,409.16342l0.13853,-5.74224l12.92003,0.3117l-0.13854,5.74224z" data-paper-data="{&quot;origPos&quot;:null}" fill="#d3bb76"/><path d="M410.82994,317.02293l0.96764,-40.10866l36.7503,0.88662l-0.96764,40.10866z" data-paper-data="{&quot;origPos&quot;:null}" fill="#b9a568"/><path d="M405.18258,312.95318l0.89766,-37.20819l47.94766,1.15677l-0.89767,37.20818z" data-paper-data="{&quot;origPos&quot;:null}" fill="#e7cd81"/><path d="M411.35885,307.00726l0.6234,-25.84007l5.16802,0.12468l-0.62341,25.84006z" data-paper-data="{&quot;origPos&quot;:null}" fill="#d3bb76"/><path d="M441.51255,307.44745l0.62341,-25.84007l5.168,0.12468l-0.6234,25.84006z" data-paper-data="{&quot;origPos&quot;:null}" fill="#d3bb76"/><path d="M420.55337,306.94181l0.62341,-25.84006l5.168,0.12468l-0.6234,25.84006z" data-paper-data="{&quot;origPos&quot;:null}" fill="#d3bb76"/><path d="M432.61207,307.23272l0.62341,-25.84006l5.16801,0.12468l-0.6234,25.84006z" data-paper-data="{&quot;origPos&quot;:null}" fill="#d3bb76"/><path d="M421.94614,306.76469l0.13854,-5.74223l12.92003,0.31171l-0.13854,5.74223z" data-paper-data="{&quot;origPos&quot;:null}" fill="#d3bb76"/><path d="M423.28545,286.97475l0.13854,-5.74224l12.92003,0.3117l-0.13854,5.74224z" data-paper-data="{&quot;origPos&quot;:null}" fill="#d3bb76"/></g><g data-paper-data="{&quot;origPos&quot;:null}"><path d="M330.5505,312.90854l8.28566,-14.35289l22.20779,6.88753l-7.94537,21.95397l-16.06516,-1.37884z" data-paper-data="{&quot;origPos&quot;:null,&quot;origRot&quot;:0}" fill="#534c42" stroke-width="0"/><path d="M333.45636,311.34005l7.43586,-12.88079l19.93006,6.18112l-7.13047,19.70227l-14.41745,-1.23742z" data-paper-data="{&quot;origPos&quot;:null,&quot;origRot&quot;:0}" fill="url(#color-1)" stroke-width="NaN"/></g><g data-paper-data="{&quot;origPos&quot;:null,&quot;origRot&quot;:0}"><path d="M257.11823,284.94696l-3.2574,-18.38386l24.14474,-10.15653l9.06025,24.69257l-14.8544,10.4551z" data-paper-data="{&quot;origPos&quot;:null,&quot;origRot&quot;:0}" fill="#534c42" stroke-width="0"/><path d="M258.48747,281.48807l-2.92329,-16.49834l21.66835,-9.11482l8.13097,22.16l-13.33088,9.38278z" data-paper-data="{&quot;origPos&quot;:null,&quot;origRot&quot;:0}" fill="url(#color-2)" stroke-width="NaN"/></g></g></g></svg>