<svg version="1.1" xmlns="http://www.w3.org/2000/svg" xmlns:xlink="http://www.w3.org/1999/xlink" width="48.06667" height="47.72577"><g transform="translate(-215.96668,-150.62878)"><g data-paper-data="{&quot;isPaintingLayer&quot;:true}" fill="none" fill-rule="nonzero" stroke="none" stroke-width="none" stroke-linecap="butt" stroke-linejoin="miter" stroke-miterlimit="10" stroke-dasharray="" stroke-dashoffset="0" font-family="none" font-weight="none" font-size="none" text-anchor="none" style="mix-blend-mode: normal"><path d="M215.96669,192.82877c0,-5.49385 0,-22.64155 0,-37.66666c0,-1.76919 2.66252,-4.53333 4.36667,-4.53333c15.54547,0 35.30629,0 39.83334,0c1.50902,0 3.86666,2.35765 3.86666,3.86667c0,15.09017 0,32.58742 0,38.66666c0,3.85975 -0.80072,5.02577 -4.86666,5.19244c0,0 -34.63963,0 -39.16667,0c-2.84235,0 -4.03333,-1.36115 -4.03333,-5.52577z" data-paper-data="{&quot;origPos&quot;:null}" fill="#cc7f6d" stroke="none" stroke-width="0"/><path d="M222.9551,173.80986c0,-9.41365 7.63127,-17.04492 17.04492,-17.04492c9.41365,0 17.04492,7.63127 17.04492,17.04492c0,9.41365 -7.63127,17.04492 -17.04492,17.04492c-9.41365,0 -17.04492,-7.63127 -17.04492,-17.04492z" data-paper-data="{&quot;origPos&quot;:null}" fill="#eaeaea" stroke="#dbdbdb" stroke-width="2.5"/><path d="M228.67444,174.32788c0,-5.99606 4.86078,-10.85684 10.85684,-10.85684c5.99606,0 10.85684,4.86078 10.85684,10.85684c0,5.99606 -4.86078,10.85685 -10.85684,10.85685c-5.99606,0 -10.85684,-4.86078 -10.85684,-10.85685z" data-paper-data="{&quot;origPos&quot;:null}" fill="#bbbbbb" stroke="none" stroke-width="0.5"/><path d="M229.76497,173.60086c0,-5.86222 4.75228,-10.6145 10.6145,-10.6145c5.86222,0 10.6145,4.75227 10.6145,10.6145c0,5.86222 -4.75228,10.61451 -10.6145,10.61451c-5.86222,0 -10.6145,-4.75228 -10.6145,-10.61451z" data-paper-data="{&quot;origPos&quot;:null}" fill="#cc7f6d" stroke="none" stroke-width="0.5"/><path d="M237.85915,175.85462c0,-3.01142 2.44124,-5.45265 5.45266,-5.45265c3.01142,0 5.45266,2.44124 5.45266,5.45265c0,3.01142 -2.44124,5.45266 -5.45266,5.45266c-3.01142,0 -5.45266,-2.44124 -5.45266,-5.45266z" data-paper-data="{&quot;origPos&quot;:null}" fill="#bd7464" stroke="none" stroke-width="0.5"/></g></g></svg>