<svg version="1.1" xmlns="http://www.w3.org/2000/svg" xmlns:xlink="http://www.w3.org/1999/xlink" width="701.58174" height="419.09669"><defs><linearGradient x1="130.44948" y1="190.56544" x2="134.15343" y2="210.37131" gradientUnits="userSpaceOnUse" id="color-1"><stop offset="0" stop-color="#817666"/><stop offset="1" stop-color="#786f5f"/></linearGradient></defs><g data-paper-data="{&quot;isPaintingLayer&quot;:true}" fill="none" fill-rule="nonzero" stroke="none" stroke-width="none" stroke-linecap="none" stroke-linejoin="miter" stroke-miterlimit="10" stroke-dasharray="" stroke-dashoffset="0" font-family="none" font-weight="none" font-size="none" text-anchor="none" style="mix-blend-mode: normal"><g data-paper-data="{&quot;origPos&quot;:null}" stroke-linecap="butt"><path d="M140.67411,267.09767l-21.27067,-118.95211l12.40564,-4.17067l14.64295,8.70457l14.72085,-12.00299c0,0 15.40512,85.94394 19.02265,106.17422c1.20585,6.74344 19.31561,9.58602 19.31561,9.58602c0,0 -15.9559,2.89636 -25.59227,4.64243c-13.32553,2.41451 -33.24477,6.01854 -33.24477,6.01854z" data-paper-data="{&quot;origPos&quot;:null,&quot;origRot&quot;:0}" fill="#908472" stroke="none" stroke-width="0"/><path d="M140.67411,267.09767l-21.27067,-118.95211l12.40564,-4.17067l14.64295,8.70457l14.72085,-12.00299c0,0 4.92504,35.05992 11.54734,64.43379c4.1239,18.29197 4.56228,25.44992 7.47531,41.74043c1.20585,6.74344 3.35971,12.48237 -6.27667,14.22843c-13.32553,2.41451 -33.24477,6.01854 -33.24477,6.01854z" data-paper-data="{&quot;origPos&quot;:null,&quot;origRot&quot;:0}" fill="#887c6b" stroke="none" stroke-width="0"/><path d="M140.67411,267.09767l-21.27067,-118.95211l12.40564,-4.17067l14.64295,8.70457c0,0 30.12597,73.94095 33.7435,94.17123c1.20585,6.74344 3.35971,12.48237 -6.27667,14.22843c-13.32553,2.41451 -33.24477,6.01854 -33.24477,6.01854z" data-paper-data="{&quot;origPos&quot;:null,&quot;origRot&quot;:0}" fill="#847968" stroke="none" stroke-width="0"/><path d="M140.67415,267.09767c0,0 -2.78066,-15.55024 -4.56041,-25.5032c-5.33927,-29.85884 -16.71026,-93.44891 -16.71026,-93.44891l12.40563,-4.17067l14.64295,8.70457z" data-paper-data="{&quot;origPos&quot;:null,&quot;origRot&quot;:0}" fill="#817666" stroke="none" stroke-width="0"/><path d="M122.39502,209.77503c0,0 3.57581,-7.72584 4.71207,-12.45526c0.60172,-2.50454 -0.25868,-6.08086 -0.25868,-6.08086l15.92302,-2.04605l0.38466,19.49485z" data-paper-data="{&quot;origPos&quot;:null}" fill="url(#color-1)" stroke="none" stroke-width="NaN"/><g data-paper-data="{&quot;origPos&quot;:null}"><path d="M125.65436,214.3833c-1.15549,-6.17867 2.9166,-12.12419 9.09528,-13.27968c6.17867,-1.15549 12.12419,2.9166 13.27968,9.09528c1.15549,6.17867 -2.9166,12.12419 -9.09528,13.27968c-6.17867,1.15549 -12.12419,-2.9166 -13.27968,-9.09528z" data-paper-data="{&quot;origPos&quot;:null}" fill="#786f5f" stroke="#726c61" stroke-width="5"/><path d="M125.02584,214.50084c-1.22041,-6.52579 3.08046,-12.80533 9.60625,-14.02573c6.52579,-1.22041 12.80533,3.08046 14.02573,9.60625c1.22041,6.52579 -3.08046,12.80533 -9.60625,14.02573c-6.52579,1.22041 -12.80533,-3.08046 -14.02573,-9.60625z" data-paper-data="{&quot;origPos&quot;:null}" fill="#786f5f" stroke="#746d63" stroke-width="5"/><path d="M129.29971,213.70157c-0.77898,-4.1654 1.96624,-8.17361 6.13165,-8.9526c4.1654,-0.77898 8.17361,1.96624 8.9526,6.13165c0.77898,4.1654 -1.96624,8.17361 -6.13165,8.9526c-4.1654,0.77898 -8.17361,-1.96624 -8.9526,-6.13165z" data-paper-data="{&quot;origPos&quot;:null}" fill="#7d7364" stroke="none" stroke-width="5"/><path d="M165.27311,252.39695c-0.56124,-3.00107 1.41664,-5.88889 4.4177,-6.45013c3.00107,-0.56124 5.88889,1.41664 6.45013,4.4177c0.56124,3.00107 -1.41664,5.88889 -4.4177,6.45013c-3.00107,0.56124 -5.88889,-1.41664 -6.45013,-4.4177z" data-paper-data="{&quot;origPos&quot;:null}" fill="#786f5f" stroke="#726c61" stroke-width="5"/><path d="M164.96783,252.45404c-0.59277,-3.16967 1.49622,-6.21973 4.66589,-6.81249c3.16967,-0.59277 6.21973,1.49622 6.81249,4.66589c0.59277,3.16967 -1.49622,6.21973 -4.66589,6.81249c-3.16967,0.59277 -6.21973,-1.49622 -6.81249,-4.66589z" data-paper-data="{&quot;origPos&quot;:null}" fill="#786f5f" stroke="#746d63" stroke-width="1"/><path d="M167.0437,252.06583c-0.37836,-2.02319 0.95503,-3.97004 2.97823,-4.34841c2.02319,-0.37836 3.97004,0.95503 4.34841,2.97823c0.37836,2.02319 -0.95503,3.97004 -2.97823,4.34841c-2.02319,0.37836 -3.97004,-0.95503 -4.34841,-2.97823z" data-paper-data="{&quot;origPos&quot;:null}" fill="#7d7364" stroke="none" stroke-width="0.5"/></g></g><g data-paper-data="{&quot;origPos&quot;:null,&quot;origRot&quot;:0,&quot;index&quot;:null}" stroke="none" stroke-width="0" stroke-linecap="butt"><path d="" fill="#36734b"/><path d="" data-paper-data="{&quot;origPos&quot;:null}" fill="#2f6442"/></g><path d="M292.23901,142.90332c0,0 1.05814,25.13922 1.25983,29.93086c0.06723,1.59721 -1.3656,4.21229 -2.34993,4.28885c-2.95297,0.2297 -12.48102,0.97084 -12.48102,0.97084" data-paper-data="{&quot;origPos&quot;:null,&quot;origRot&quot;:0}" fill="none" stroke="#7da17c" stroke-width="17.5" stroke-linecap="round"/><path d="M275.07625,229.99634l-2.65627,-74.18636" data-paper-data="{&quot;origPos&quot;:null,&quot;origRot&quot;:0}" fill="none" stroke="#739472" stroke-width="17.5" stroke-linecap="round"/><path d="M271.08986,198.78109c0,0 -7.26343,-0.06866 -11.91238,-0.1126c-1.70931,-0.01616 -4.40818,-2.51819 -4.42629,-4.10346c-0.05431,-4.7558 -0.34252,-29.99524 -0.34252,-29.99524" data-paper-data="{&quot;origPos&quot;:null,&quot;origRot&quot;:0}" fill="none" stroke="#739472" stroke-width="17.5" stroke-linecap="round"/><path d="M176.8197,326.51755c0,0 8.31179,-36.38326 24.40231,-45.20292c20.37612,-11.16871 48.05817,-2.74729 69.56197,-2.74729c36.54561,0 31.74903,47.95021 31.74903,47.95021z" data-paper-data="{&quot;origPos&quot;:null}" fill="#998c76" stroke="none" stroke-width="0" stroke-linecap="butt"/><path d="M206.23991,301.51755c0,0 8.31179,-36.38326 24.40231,-45.20292c20.37612,-11.16871 48.05817,-2.74729 69.56197,-2.74729c36.54561,0 31.74903,47.95021 31.74903,47.95021z" data-paper-data="{&quot;origPos&quot;:null}" fill="#998c76" stroke="none" stroke-width="0" stroke-linecap="butt"/><path d="M177.62935,310.91754c0,0 8.31179,-36.38326 24.40231,-45.20292c20.37612,-11.16871 48.05817,-2.74729 69.56197,-2.74729c36.54561,0 31.74903,47.95021 31.74903,47.95021z" data-paper-data="{&quot;origPos&quot;:null}" fill="#776d5b" stroke="none" stroke-width="0" stroke-linecap="butt"/><path d="M244.1982,294.98193c0,0 7.99651,-33.6153 18.33213,-38.16821c13.08842,-5.76554 28.89963,9.57834 41.72824,15.07171c21.80216,9.33595 14.9369,55.21126 14.9369,55.21126z" data-paper-data="{&quot;origPos&quot;:null,&quot;origRot&quot;:0}" fill="#776d5b" stroke="none" stroke-width="0" stroke-linecap="butt"/><path d="M172.22279,294.51755c0,0 8.31179,-36.38326 24.40231,-45.20292c20.37612,-11.16871 48.05817,-2.74729 69.56197,-2.74729c36.54561,0 31.74903,47.95021 31.74903,47.95021z" data-paper-data="{&quot;origPos&quot;:null}" fill="#998c76" stroke="none" stroke-width="0" stroke-linecap="butt"/><path d="M148.20914,291.91754c0,0 8.31179,-36.38326 24.40231,-45.20292c20.37612,-11.16871 48.05817,-2.74729 69.56197,-2.74729c36.54561,0 31.74903,47.95021 31.74903,47.95021z" data-paper-data="{&quot;origPos&quot;:null}" fill="#776d5b" stroke="none" stroke-width="0" stroke-linecap="butt"/><path d="M214.77799,275.98193c0,0 7.99651,-33.6153 18.33213,-38.16821c13.08842,-5.76554 28.89963,9.57834 41.72824,15.07171c21.80216,9.33595 14.9369,55.21126 14.9369,55.21126z" data-paper-data="{&quot;origPos&quot;:null,&quot;origRot&quot;:0}" fill="#776d5b" stroke="none" stroke-width="0" stroke-linecap="butt"/><path d="M242.09579,301.51755c0,0 8.31179,-36.38326 24.40231,-45.20292c20.37612,-11.16871 48.05817,-2.74729 69.56196,-2.74729c36.54561,0 31.74903,47.95021 31.74903,47.95021z" data-paper-data="{&quot;origPos&quot;:null}" fill="#998c76" stroke="none" stroke-width="0" stroke-linecap="butt"/><path d="M213.48522,310.91755c0,0 8.31179,-36.38326 24.40231,-45.20292c20.37612,-11.16871 48.05817,-2.74729 69.56196,-2.74729c36.54561,0 31.74904,47.95021 31.74904,47.95021z" data-paper-data="{&quot;origPos&quot;:null}" fill="#776d5b" stroke="none" stroke-width="0" stroke-linecap="butt"/><path d="M280.05408,294.98193c0,0 7.99651,-33.6153 18.33213,-38.16821c13.08842,-5.76554 28.89963,9.57834 41.72823,15.07171c21.80215,9.33595 14.9369,55.21126 14.9369,55.21126z" data-paper-data="{&quot;origPos&quot;:null,&quot;origRot&quot;:0}" fill="#776d5b" stroke="none" stroke-width="0" stroke-linecap="butt"/><path d="M201.643,269.51755c0,0 8.31179,-36.38326 24.40231,-45.20292c20.37612,-11.16871 48.05817,-2.74729 69.56197,-2.74729c36.54561,0 31.74903,47.95021 31.74903,47.95021z" data-paper-data="{&quot;origPos&quot;:null}" fill="#998c76" stroke="none" stroke-width="0" stroke-linecap="butt"/><path d="M173.03244,278.91754c0,0 8.31179,-36.38326 24.40231,-45.20292c20.37612,-11.16871 48.05817,-2.74729 69.56197,-2.74729c36.54561,0 31.74903,47.95021 31.74903,47.95021z" data-paper-data="{&quot;origPos&quot;:null}" fill="#776d5b" stroke="none" stroke-width="0" stroke-linecap="butt"/><path d="M239.60129,262.98193c0,0 7.99651,-33.6153 18.33213,-38.16821c13.08842,-5.76554 28.89963,9.57834 41.72824,15.07171c21.80216,9.33595 14.9369,55.21126 14.9369,55.21126z" data-paper-data="{&quot;origPos&quot;:null,&quot;origRot&quot;:0}" fill="#776d5b" stroke="none" stroke-width="0" stroke-linecap="butt"/><path d="M250.37022,293.51755c0,0 8.31179,-36.38326 24.40231,-45.20292c20.37612,-11.16871 48.05817,-2.74729 69.56196,-2.74729c36.54561,0 31.74903,47.95021 31.74903,47.95021z" data-paper-data="{&quot;origPos&quot;:null}" fill="#998c76" stroke="none" stroke-width="0" stroke-linecap="butt"/><path d="M226.35656,302.91755c0,0 8.31179,-36.38326 24.40231,-45.20292c20.37612,-11.16871 48.05817,-2.74729 69.56196,-2.74729c36.54561,0 31.74904,47.95021 31.74904,47.95021z" data-paper-data="{&quot;origPos&quot;:null}" fill="#776d5b" stroke="none" stroke-width="0" stroke-linecap="butt"/><g data-paper-data="{&quot;origPos&quot;:null}" stroke="none" stroke-width="0" stroke-linecap="butt"><path d="M325.47645,222.76838c-0.473,-2.29331 -2.27857,-11.04761 -3.73697,-18.11864c-0.35475,-1.71998 1.23381,-3.82814 2.47601,-4.08435c3.72662,-0.76862 36.97182,-7.62544 36.97182,-7.62544l4.84796,23.50526c0,0 -33.16155,6.83957 -37.46151,7.72644c-1.43332,0.29562 -2.93964,-0.63885 -3.09731,-1.40328z" data-paper-data="{&quot;origPos&quot;:null}" fill="#36312b"/><path d="M353.2298,214.00215l6.05995,29.38158l-13.7114,2.82798l-6.05995,-29.38158z" data-paper-data="{&quot;origPos&quot;:null,&quot;index&quot;:null}" fill="#585146"/><path d="M352.62381,211.064l1.71699,8.32478l-13.7114,2.82798l-1.71699,-8.32478z" data-paper-data="{&quot;origPos&quot;:null,&quot;index&quot;:null}" fill="#3d3831"/><path d="M325.47645,221.76838c-0.473,-2.29331 -2.27857,-11.04761 -3.73697,-18.11864c-0.35475,-1.71998 1.23381,-3.82814 2.47601,-4.08435c3.72662,-0.76862 36.97182,-7.62544 36.97182,-7.62544l17.60446,8.62166l-12.7565,14.8836c0,0 -33.16155,6.83957 -37.46151,7.72644c-1.43332,0.29562 -2.93964,-0.63885 -3.09731,-1.40328z" data-paper-data="{&quot;origPos&quot;:null}" fill="#817666"/><path d="M325.47645,221.76838c-0.473,-2.29331 -2.27857,-11.04761 -3.73697,-18.11864c-0.35475,-1.71998 1.23381,-3.82814 2.47601,-4.08435c3.72662,-0.76862 36.97182,-7.62544 36.97182,-7.62544l4.84796,23.50526c0,0 -33.16155,6.83957 -37.46151,7.72644c-1.43332,0.29562 -2.93964,-0.63885 -3.09731,-1.40328z" data-paper-data="{&quot;origPos&quot;:null}" fill="#776d5e"/><path d="M335.87327,214.00827l-6.27113,-15.55387l5.87632,-1.21199z" data-paper-data="{&quot;origPos&quot;:null}" fill="#585146"/><path d="M344.75353,214.98461l-6.1737,-18.38185l4.57047,-0.94266z" data-paper-data="{&quot;origPos&quot;:null}" fill="#585146"/><path d="M354.2643,206.64145l-5.56414,-12.12602l5.87632,-1.21199z" data-paper-data="{&quot;origPos&quot;:null}" fill="#585146"/><path d="M348.14006,199.22567l6.17371,18.38185l-4.57047,0.94266z" data-paper-data="{&quot;origPos&quot;:null,&quot;index&quot;:null}" fill="#585146"/></g><path d="M502.11056,418.51755c0,0 8.31179,-36.38326 24.40231,-45.20292c20.37612,-11.16871 48.05817,-2.74729 69.56197,-2.74729c36.54561,0 31.74903,47.95021 31.74903,47.95021z" data-paper-data="{&quot;origPos&quot;:null}" fill="#998c76" stroke="none" stroke-width="0" stroke-linecap="butt"/><path d="M531.53077,393.51755c0,0 8.31179,-36.38326 24.40231,-45.20292c20.37612,-11.16871 48.05817,-2.74729 69.56197,-2.74729c36.54561,0 31.74903,47.95021 31.74903,47.95021z" data-paper-data="{&quot;origPos&quot;:null}" fill="#998c76" stroke="none" stroke-width="0" stroke-linecap="butt"/><path d="M502.92021,402.91753c0,0 8.31179,-36.38326 24.40231,-45.20292c20.37612,-11.16871 48.05817,-2.74729 69.56197,-2.74729c36.54561,0 31.74903,47.95021 31.74903,47.95021z" data-paper-data="{&quot;origPos&quot;:null}" fill="#776d5b" stroke="none" stroke-width="0" stroke-linecap="butt"/><path d="M569.48906,386.98193c0,0 7.99651,-33.6153 18.33213,-38.16821c13.08842,-5.76554 28.89963,9.57834 41.72824,15.07171c21.80216,9.33595 14.9369,55.21126 14.9369,55.21126z" data-paper-data="{&quot;origPos&quot;:null,&quot;origRot&quot;:0}" fill="#776d5b" stroke="none" stroke-width="0" stroke-linecap="butt"/><path d="M497.51365,386.51755c0,0 8.31179,-36.38326 24.40231,-45.20292c20.37612,-11.16871 48.05817,-2.74729 69.56197,-2.74729c36.54561,0 31.74903,47.95021 31.74903,47.95021z" data-paper-data="{&quot;origPos&quot;:null}" fill="#998c76" stroke="none" stroke-width="0" stroke-linecap="butt"/><path d="M473.5,383.91753c0,0 8.31179,-36.38326 24.40231,-45.20292c20.37612,-11.16871 48.05817,-2.74729 69.56197,-2.74729c36.54561,0 31.74903,47.95021 31.74903,47.95021z" data-paper-data="{&quot;origPos&quot;:null}" fill="#776d5b" stroke="none" stroke-width="0" stroke-linecap="butt"/><path d="M540.06885,367.98193c0,0 7.99651,-33.6153 18.33213,-38.16821c13.08842,-5.76554 28.89963,9.57834 41.72824,15.07171c21.80216,9.33595 14.9369,55.21126 14.9369,55.21126z" data-paper-data="{&quot;origPos&quot;:null,&quot;origRot&quot;:0}" fill="#776d5b" stroke="none" stroke-width="0" stroke-linecap="butt"/><path d="M567.38665,393.51755c0,0 8.31179,-36.38326 24.40231,-45.20292c20.37612,-11.16871 48.05817,-2.74729 69.56196,-2.74729c36.54561,0 31.74903,47.95021 31.74903,47.95021z" data-paper-data="{&quot;origPos&quot;:null}" fill="#998c76" stroke="none" stroke-width="0" stroke-linecap="butt"/><path d="M538.77607,402.91754c0,0 8.31179,-36.38326 24.40231,-45.20292c20.37612,-11.16871 48.05817,-2.74729 69.56196,-2.74729c36.54561,0 31.74904,47.95021 31.74904,47.95021z" data-paper-data="{&quot;origPos&quot;:null}" fill="#776d5b" stroke="none" stroke-width="0" stroke-linecap="butt"/><path d="M605.34494,386.98193c0,0 7.99651,-33.6153 18.33213,-38.16821c13.08842,-5.76554 28.89963,9.57834 41.72823,15.07171c21.80215,9.33595 14.9369,55.21126 14.9369,55.21126z" data-paper-data="{&quot;origPos&quot;:null,&quot;origRot&quot;:0}" fill="#776d5b" stroke="none" stroke-width="0" stroke-linecap="butt"/><path d="M526.93385,361.51755c0,0 8.31179,-36.38326 24.40231,-45.20292c20.37612,-11.16871 48.05817,-2.74729 69.56197,-2.74729c36.54561,0 31.74903,47.95021 31.74903,47.95021z" data-paper-data="{&quot;origPos&quot;:null}" fill="#998c76" stroke="none" stroke-width="0" stroke-linecap="butt"/><path d="M498.3233,370.91754c0,0 8.31179,-36.38326 24.40231,-45.20292c20.37612,-11.16871 48.05817,-2.74729 69.56197,-2.74729c36.54561,0 31.74903,47.95021 31.74903,47.95021z" data-paper-data="{&quot;origPos&quot;:null}" fill="#776d5b" stroke="none" stroke-width="0" stroke-linecap="butt"/><path d="M564.89215,354.98192c0,0 7.99651,-33.6153 18.33213,-38.16821c13.08842,-5.76554 28.89963,9.57834 41.72824,15.07171c21.80216,9.33595 14.9369,55.21126 14.9369,55.21126z" data-paper-data="{&quot;origPos&quot;:null,&quot;origRot&quot;:0}" fill="#776d5b" stroke="none" stroke-width="0" stroke-linecap="butt"/><path d="M575.66108,385.51754c0,0 8.31179,-36.38326 24.40231,-45.20292c20.37612,-11.16871 48.05817,-2.74729 69.56196,-2.74729c36.54561,0 31.74903,47.95021 31.74903,47.95021z" data-paper-data="{&quot;origPos&quot;:null}" fill="#998c76" stroke="none" stroke-width="0" stroke-linecap="butt"/><path d="M551.64742,394.91755c0,0 8.31179,-36.38326 24.40231,-45.20292c20.37612,-11.16871 48.05817,-2.74729 69.56196,-2.74729c36.54561,0 31.74904,47.95021 31.74904,47.95021z" data-paper-data="{&quot;origPos&quot;:null}" fill="#776d5b" stroke="none" stroke-width="0" stroke-linecap="butt"/></g></svg>