<svg version="1.1" xmlns="http://www.w3.org/2000/svg" xmlns:xlink="http://www.w3.org/1999/xlink" width="748" height="2938.83506"><g transform="translate(-37,2364.40003)"><g data-paper-data="{&quot;isPaintingLayer&quot;:true}" fill="none" fill-rule="nonzero" stroke="none" stroke-width="0" stroke-linecap="butt" stroke-linejoin="miter" stroke-miterlimit="10" stroke-dasharray="" stroke-dashoffset="0" font-family="none" font-weight="none" font-size="none" text-anchor="none" style="mix-blend-mode: normal"><path d="M86.29995,413.33472v-280h232.55955c1.70776,24.08447 3.59076,48.00682 6.14051,71.95558c0.54458,5.11498 0.97654,21.04012 1.05025,22.3807c1.37557,25.01543 2.28512,50.08518 2.96083,75.1597c0.99869,37.05987 2.5396,73.59811 4.88297,110.50402z" data-paper-data="{&quot;origPos&quot;:null}" fill="#a1937c" stroke="none"/><path d="M59.46346,142.58202c0.26158,-11.35712 0.53657,-22.71225 0.53657,-34.08198c0,-5.55427 0.46978,-11.49713 -0.11628,-17.02057c-0.40914,-3.85601 -1.50393,-7.62042 -1.88372,-11.47943c-0.77139,-7.83811 0,-16.14254 0,-24c0,-0.39128 0,-0.78256 0,-1.17384h251.92245c0.24941,11.32226 0.65974,22.62663 1.08643,33.49075c0.42915,10.92672 2.98789,24.9478 4.06406,35.98265c0.58215,5.96925 1.16424,11.9185 1.76805,17.85355z" data-paper-data="{&quot;origPos&quot;:null}" fill="#a1937c" stroke="#000000"/><path d="M57.90313,61.57144c0.05474,-1.87376 0.09688,-3.73477 0.09688,-5.57136c0,-3.99481 0,-7.98962 0,-11.98443h251.7378c0.06839,5.84021 0.19216,11.71163 0.3513,17.55579z" data-paper-data="{&quot;origPos&quot;:null}" fill="#706756" stroke="#000000"/><path d="M201.69506,41.36853c33.32888,0 70.15665,0 108.01559,0c0.04829,5.49932 0.14855,11.03428 0.284,16.55579h-252.00864c0.00895,-0.64404 0.01404,-1.28562 0.01404,-1.92425c0,-4.87718 0,-9.75436 0,-14.63154c38.46281,0 99.02596,0 143.69501,0z" data-paper-data="{&quot;origPos&quot;:null}" fill="#8b7f6b" stroke="#000000"/><path d="M291.91013,317.53469v-215h20.40597c0.93274,7.45462 2.11144,15.14686 2.75687,21.76496c2.23338,22.90071 4.46592,45.50692 7.92703,68.147c0.54458,3.56222 0.97654,14.65294 1.05025,15.58656c1.37557,17.42146 2.28512,34.88075 2.96083,52.34336c0.74171,19.16851 1.78253,38.13665 3.22902,57.15812z" data-paper-data="{&quot;origPos&quot;:null}" fill="#a1937c" stroke="none"/><path d="M224,250.80004v-158h87.28253c0.80633,10.09968 2.85658,21.92396 3.79044,31.49958c2.23338,22.90071 4.46592,45.50692 7.92703,68.147c0.54458,3.56222 0.97654,14.65294 1.05025,15.58656c1.1241,14.23663 1.937,28.49853 2.56539,42.76686z" data-paper-data="{&quot;origPos&quot;:null}" fill="#a1937c" stroke="none"/><path d="M546,54.65416v20.09701c-0.61894,-0.00383 -1.23797,-0.0111 -1.8571,-0.02192c0.39984,-6.47326 1.07904,-13.2896 1.8571,-20.07509z" data-paper-data="{&quot;origPos&quot;:null}" fill="#a1937c" stroke="none"/><path d="" data-paper-data="{&quot;origPos&quot;:null}" fill="#a1937c" stroke="none"/><path d="" data-paper-data="{&quot;origPos&quot;:null}" fill="#a1937c" stroke="none"/><path d="" data-paper-data="{&quot;origPos&quot;:null}" fill="#a1937c" stroke="none"/><path d="" data-paper-data="{&quot;origPos&quot;:null}" fill="#a1937c" stroke="none"/><path d="" data-paper-data="{&quot;origPos&quot;:null}" fill="#a1937c" stroke="none"/><path d="" data-paper-data="{&quot;origPos&quot;:null}" fill="#a1937c" stroke="none"/><path d="" data-paper-data="{&quot;origPos&quot;:null}" fill="#a1937c" stroke="none"/><g data-paper-data="{&quot;origPos&quot;:null,&quot;origRot&quot;:0}" stroke="none"><path d="M308.94251,325.04285l-1.01261,-290.3288l36.98294,-0.12899l1.01262,290.3288z" data-paper-data="{&quot;origPos&quot;:null}" fill="#d3bb76"/><path d="M308.33998,109.91306l-0.22489,-64.47495l37.33514,-0.13023l0.22489,64.47495z" data-paper-data="{&quot;origPos&quot;:null}" fill="#b9a568"/><path d="M302.58194,105.86933l-0.22612,-64.83394l47.9613,-0.16727l0.22613,64.83395z" data-paper-data="{&quot;origPos&quot;:null}" fill="#e7cd81"/><path d="M309.87078,95.92122l-0.16528,-47.38691l5.16949,-0.01804l0.16527,47.38693z" data-paper-data="{&quot;origPos&quot;:null}" fill="#b9a568"/><path d="M309.86591,94.5427l-0.16527,-47.38692l5.16947,-0.01803l0.16527,47.38693z" data-paper-data="{&quot;origPos&quot;:null}" fill="#d3bb76"/><path d="M309.89061,52.20409l-0.01743,-4.99716l24.98584,-0.08714l0.01744,4.99717z" data-paper-data="{&quot;origPos&quot;:null}" fill="#d3bb76"/><path d="M329.82692,86.54645l-0.13641,-39.11576l5.16948,-0.01803l0.13642,39.11577z" data-paper-data="{&quot;origPos&quot;:null}" fill="#d3bb76"/><path d="M319.83323,86.75362l-0.09495,-27.22595l5.1695,-0.01804l0.09495,27.22594z" data-paper-data="{&quot;origPos&quot;:null}" fill="#d3bb76"/><path d="M320.00571,86.80468l-0.01924,-5.51412l14.8192,-0.05169l0.01923,5.51413z" data-paper-data="{&quot;origPos&quot;:null}" fill="#d3bb76"/><path d="M309.87394,96.8345l-0.01743,-4.99716l33.94627,-0.11839l0.01744,4.99717z" data-paper-data="{&quot;origPos&quot;:null}" fill="#d3bb76"/><path d="M339.51213,96.67941l-0.17248,-49.45472l5.16947,-0.01803l0.17248,49.45473z" data-paper-data="{&quot;origPos&quot;:null}" fill="#d3bb76"/><path d="M309.7662,232.1089l-0.22489,-64.47495l37.33515,-0.13021l0.22488,64.47495z" data-paper-data="{&quot;origPos&quot;:null}" fill="#b9a568"/><path d="M304.00814,228.06507l-0.22613,-64.83394l47.9613,-0.16727l0.22613,64.83395z" data-paper-data="{&quot;origPos&quot;:null}" fill="#e7cd81"/><path d="M311.297,218.11703l-0.16528,-47.38691l5.16947,-0.01803l0.16527,47.38693z" data-paper-data="{&quot;origPos&quot;:null}" fill="#b9a568"/><path d="M311.29216,216.73849l-0.16527,-47.38692l5.16947,-0.01803l0.16527,47.38693z" data-paper-data="{&quot;origPos&quot;:null}" fill="#d3bb76"/><path d="M311.3168,174.39983l-0.01743,-4.99717l24.98584,-0.08714l0.01743,4.99717z" data-paper-data="{&quot;origPos&quot;:null}" fill="#d3bb76"/><path d="M331.25318,208.74228l-0.13642,-39.11577l5.16947,-0.01803l0.13642,39.11577z" data-paper-data="{&quot;origPos&quot;:null}" fill="#d3bb76"/><path d="M321.25943,208.94944l-0.09495,-27.22595l5.16948,-0.01803l0.09495,27.22595z" data-paper-data="{&quot;origPos&quot;:null}" fill="#d3bb76"/><path d="M321.4319,209.00053l-0.01923,-5.51412l14.81919,-0.05167l0.01924,5.51412z" data-paper-data="{&quot;origPos&quot;:null}" fill="#d3bb76"/><path d="M311.30012,219.03032l-0.01743,-4.99716l33.94627,-0.11838l0.01744,4.99716z" data-paper-data="{&quot;origPos&quot;:null}" fill="#d3bb76"/><path d="M340.93832,218.87526l-0.17248,-49.45472l5.16948,-0.01803l0.17247,49.45473z" data-paper-data="{&quot;origPos&quot;:null}" fill="#d3bb76"/><path d="M310.36365,279.89869l-0.13994,-40.1201l36.76076,-0.12823l0.13994,40.1201z" data-paper-data="{&quot;origPos&quot;:null}" fill="#b9a568"/><path d="M304.60609,275.98645l-0.12982,-37.21878l47.96131,-0.16727l0.12981,37.21878z" data-paper-data="{&quot;origPos&quot;:null}" fill="#e7cd81"/><path d="M310.61586,269.87235l-0.09017,-25.84743l5.16947,-0.01803l0.09017,25.84743z" data-paper-data="{&quot;origPos&quot;:null}" fill="#d3bb76"/><path d="M340.77022,269.4799l-0.09017,-25.84743l5.16948,-0.01804l0.09016,25.84743z" data-paper-data="{&quot;origPos&quot;:null}" fill="#d3bb76"/><path d="M319.80506,269.55305l-0.09017,-25.84744l5.16947,-0.01803l0.09017,25.84743z" data-paper-data="{&quot;origPos&quot;:null}" fill="#d3bb76"/><path d="M331.8672,269.51096l-0.09016,-25.84742l5.16947,-0.01803l0.09015,25.84742z" data-paper-data="{&quot;origPos&quot;:null}" fill="#d3bb76"/><path d="M321.19243,269.33762l-0.02002,-5.74386l12.9237,-0.04507l0.02002,5.74386z" data-paper-data="{&quot;origPos&quot;:null}" fill="#d3bb76"/><path d="M321.98486,249.51825l-0.02003,-5.74387l12.9237,-0.04508l0.02003,5.74388z" data-paper-data="{&quot;origPos&quot;:null}" fill="#d3bb76"/><path d="M308.93745,157.70296l-0.13994,-40.12009l36.76076,-0.12823l0.13994,40.1201z" data-paper-data="{&quot;origPos&quot;:null}" fill="#b9a568"/><path d="M303.1799,153.79074l-0.12982,-37.21878l47.96131,-0.16727l0.12982,37.21878z" data-paper-data="{&quot;origPos&quot;:null}" fill="#e7cd81"/><path d="M309.18968,147.67656l-0.09016,-25.84742l5.1695,-0.01805l0.09016,25.84744z" data-paper-data="{&quot;origPos&quot;:null}" fill="#d3bb76"/><path d="M339.34398,147.28408l-0.09017,-25.84743l5.16947,-0.01803l0.09015,25.84742z" data-paper-data="{&quot;origPos&quot;:null}" fill="#d3bb76"/><path d="M318.37885,147.35721l-0.09015,-25.84742l5.16947,-0.01804l0.09017,25.84743z" data-paper-data="{&quot;origPos&quot;:null}" fill="#d3bb76"/><path d="M330.44099,147.31512l-0.09015,-25.84742l5.16947,-0.01803l0.09015,25.84742z" data-paper-data="{&quot;origPos&quot;:null}" fill="#d3bb76"/><path d="M319.76622,147.14174l-0.02002,-5.74388l12.92371,-0.04507l0.02002,5.74386z" data-paper-data="{&quot;origPos&quot;:null}" fill="#d3bb76"/><path d="M320.55868,127.32242l-0.02003,-5.74388l12.9237,-0.04507l0.02003,5.74388z" data-paper-data="{&quot;origPos&quot;:null}" fill="#d3bb76"/></g><g data-paper-data="{&quot;origPos&quot;:null,&quot;origRot&quot;:0}" stroke="none"><path d="M309.81237,574.43504l-1.01263,-290.32879l36.98294,-0.12899l1.01262,290.32881z" data-paper-data="{&quot;origPos&quot;:null}" fill="#d3bb76"/><path d="M309.20982,359.30522l-0.22489,-64.47495l37.33514,-0.13022l0.22488,64.47495z" data-paper-data="{&quot;origPos&quot;:null}" fill="#b9a568"/><path d="M303.4518,355.26147l-0.22612,-64.83395l47.9613,-0.16727l0.22613,64.83395z" data-paper-data="{&quot;origPos&quot;:null}" fill="#e7cd81"/><path d="M310.74064,345.31337l-0.16528,-47.38692l5.16947,-0.01803l0.16527,47.38692z" data-paper-data="{&quot;origPos&quot;:null}" fill="#b9a568"/><path d="M310.73576,343.93487l-0.16527,-47.38692l5.16947,-0.01803l0.16527,47.38693z" data-paper-data="{&quot;origPos&quot;:null}" fill="#d3bb76"/><path d="M310.76043,301.59623l-0.01743,-4.99716l24.98584,-0.08714l0.01743,4.99716z" data-paper-data="{&quot;origPos&quot;:null}" fill="#d3bb76"/><path d="M330.69681,335.93863l-0.13643,-39.11577l5.16947,-0.01803l0.13643,39.11577z" data-paper-data="{&quot;origPos&quot;:null}" fill="#d3bb76"/><path d="M320.70303,336.14579l-0.09495,-27.22595l5.16948,-0.01803l0.09495,27.22595z" data-paper-data="{&quot;origPos&quot;:null}" fill="#d3bb76"/><path d="M320.87556,336.19686l-0.01924,-5.51412l14.8192,-0.05169l0.01923,5.51413z" data-paper-data="{&quot;origPos&quot;:null}" fill="#d3bb76"/><path d="M310.74375,346.22669l-0.01743,-4.99716l33.94628,-0.1184l0.01743,4.99716z" data-paper-data="{&quot;origPos&quot;:null}" fill="#d3bb76"/><path d="M340.38197,346.07158l-0.17248,-49.45473l5.16948,-0.01803l0.17247,49.45471z" data-paper-data="{&quot;origPos&quot;:null}" fill="#d3bb76"/><path d="M310.63599,481.50107l-0.22489,-64.47495l37.33514,-0.13022l0.22489,64.47495z" data-paper-data="{&quot;origPos&quot;:null}" fill="#b9a568"/><path d="M304.87802,477.4572l-0.22613,-64.83394l47.9613,-0.16727l0.22613,64.83394z" data-paper-data="{&quot;origPos&quot;:null}" fill="#e7cd81"/><path d="M312.16681,467.5092l-0.16527,-47.38691l5.16948,-0.01803l0.16527,47.38692z" data-paper-data="{&quot;origPos&quot;:null}" fill="#b9a568"/><path d="M312.16202,466.13065l-0.16527,-47.38692l5.16948,-0.01803l0.16527,47.38693z" data-paper-data="{&quot;origPos&quot;:null}" fill="#d3bb76"/><path d="M312.18667,423.79201l-0.01743,-4.99716l24.98584,-0.08715l0.01743,4.99716z" data-paper-data="{&quot;origPos&quot;:null}" fill="#d3bb76"/><path d="M332.12297,458.13441l-0.13643,-39.11577l5.16948,-0.01803l0.13642,39.11577z" data-paper-data="{&quot;origPos&quot;:null}" fill="#d3bb76"/><path d="M322.12924,458.34161l-0.09495,-27.22595l5.16947,-0.01803l0.09495,27.22595z" data-paper-data="{&quot;origPos&quot;:null}" fill="#d3bb76"/><path d="M322.30174,458.39268l-0.01923,-5.51412l14.81919,-0.05167l0.01923,5.51412z" data-paper-data="{&quot;origPos&quot;:null}" fill="#d3bb76"/><path d="M312.16992,468.42249l-0.01743,-4.99718l33.94628,-0.11838l0.01743,4.99716z" data-paper-data="{&quot;origPos&quot;:null}" fill="#d3bb76"/><path d="M341.80813,468.26742l-0.17248,-49.45472l5.16947,-0.01803l0.17248,49.45473z" data-paper-data="{&quot;origPos&quot;:null}" fill="#d3bb76"/><path d="M311.2335,529.29087l-0.13994,-40.12009l36.76076,-0.12823l0.13994,40.12009z" data-paper-data="{&quot;origPos&quot;:null}" fill="#b9a568"/><path d="M305.47593,525.37865l-0.12982,-37.21878l47.96131,-0.16727l0.12982,37.21877z" data-paper-data="{&quot;origPos&quot;:null}" fill="#e7cd81"/><path d="M311.48572,519.26447l-0.09016,-25.84742l5.16948,-0.01803l0.09015,25.84742z" data-paper-data="{&quot;origPos&quot;:null}" fill="#d3bb76"/><path d="M341.64005,518.87209l-0.09015,-25.84742l5.16948,-0.01804l0.09017,25.84743z" data-paper-data="{&quot;origPos&quot;:null}" fill="#d3bb76"/><path d="M320.6749,518.94521l-0.09015,-25.84743l5.16947,-0.01803l0.09016,25.84742z" data-paper-data="{&quot;origPos&quot;:null}" fill="#d3bb76"/><path d="M332.737,518.90311l-0.09016,-25.84743l5.16946,-0.01803l0.09017,25.84743z" data-paper-data="{&quot;origPos&quot;:null}" fill="#d3bb76"/><path d="M322.06228,518.72975l-0.02002,-5.74388l12.9237,-0.04506l0.02002,5.74387z" data-paper-data="{&quot;origPos&quot;:null}" fill="#d3bb76"/><path d="M322.85474,498.91041l-0.02003,-5.74386l12.92371,-0.04508l0.02003,5.74388z" data-paper-data="{&quot;origPos&quot;:null}" fill="#d3bb76"/><path d="M309.80729,407.09513l-0.13994,-40.1201l36.76076,-0.12822l0.13994,40.12009z" data-paper-data="{&quot;origPos&quot;:null}" fill="#b9a568"/><path d="M304.04972,403.18289l-0.12982,-37.21878l47.96131,-0.16727l0.12981,37.21878z" data-paper-data="{&quot;origPos&quot;:null}" fill="#e7cd81"/><path d="M310.05953,397.06869l-0.09017,-25.84742l5.1695,-0.01804l0.09015,25.84742z" data-paper-data="{&quot;origPos&quot;:null}" fill="#d3bb76"/><path d="M340.21385,396.67624l-0.09016,-25.84743l5.16947,-0.01803l0.09016,25.84743z" data-paper-data="{&quot;origPos&quot;:null}" fill="#d3bb76"/><path d="M319.2487,396.74938l-0.09017,-25.84743l5.16947,-0.01803l0.09016,25.84742z" data-paper-data="{&quot;origPos&quot;:null}" fill="#d3bb76"/><path d="M331.3108,396.7073l-0.09015,-25.84742l5.16947,-0.01804l0.09015,25.84742z" data-paper-data="{&quot;origPos&quot;:null}" fill="#d3bb76"/><path d="M320.63604,396.53394l-0.02002,-5.74387l12.9237,-0.04507l0.02002,5.74387z" data-paper-data="{&quot;origPos&quot;:null}" fill="#d3bb76"/><path d="M321.42852,376.71459l-0.02003,-5.74386l12.9237,-0.04508l0.02003,5.74388z" data-paper-data="{&quot;origPos&quot;:null}" fill="#d3bb76"/></g><g data-paper-data="{&quot;origPos&quot;:null}" stroke="none"><path d="M556.14419,-322.19999h60v309.57669c-13.08948,1.21193 -26.18235,2.38615 -39.27922,3.51464c-7.05904,0.60824 -13.94088,1.2797 -20.72078,2.00432z" data-paper-data="{&quot;origPos&quot;:null}" fill="#a1937c"/><path d="M616.14419,66.60867c-19.97479,2.98587 -39.9451,6.9311 -60,7.9157v-31.26062c19.97165,-2.13046 39.98584,-3.89599 60,-5.59441z" data-paper-data="{&quot;origPos&quot;:null}" fill="#a1937c"/><path d="M556.14419,141.80004v-17.06672c20.03907,-0.94536 40.01306,-4.77386 60,-7.76339v24.8301z" data-paper-data="{&quot;origPos&quot;:null}" fill="#a1937c"/><g data-paper-data="{&quot;origPos&quot;:null,&quot;origRot&quot;:0}"><path d="M535.08669,-36.95717l-1.01261,-290.3288l36.98294,-0.12899l1.01261,290.3288z" data-paper-data="{&quot;origPos&quot;:null}" fill="#d3bb76"/><path d="M534.48416,-252.08696l-0.22489,-64.47495l37.33514,-0.13023l0.22489,64.47495z" data-paper-data="{&quot;origPos&quot;:null}" fill="#b9a568"/><path d="M528.72613,-256.13069l-0.22613,-64.83394l47.96131,-0.16727l0.22612,64.83395z" data-paper-data="{&quot;origPos&quot;:null}" fill="#e7cd81"/><path d="M536.01496,-266.07878l-0.16527,-47.38691l5.16949,-0.01804l0.16527,47.38693z" data-paper-data="{&quot;origPos&quot;:null}" fill="#b9a568"/><path d="M536.0101,-267.45733l-0.16527,-47.38692l5.16946,-0.01803l0.16527,47.38692z" data-paper-data="{&quot;origPos&quot;:null}" fill="#d3bb76"/><path d="M536.0348,-309.79591l-0.01743,-4.99716l24.98584,-0.08714l0.01743,4.99716z" data-paper-data="{&quot;origPos&quot;:null}" fill="#d3bb76"/><path d="M555.9711,-275.45357l-0.13641,-39.11576l5.16947,-0.01803l0.13643,39.11576z" data-paper-data="{&quot;origPos&quot;:null}" fill="#d3bb76"/><path d="M545.97741,-275.24638l-0.09495,-27.22595l5.16949,-0.01804l0.09495,27.22594z" data-paper-data="{&quot;origPos&quot;:null}" fill="#d3bb76"/><path d="M546.1499,-275.19533l-0.01923,-5.51412l14.81919,-0.05169l0.01924,5.51413z" data-paper-data="{&quot;origPos&quot;:null}" fill="#d3bb76"/><path d="M536.01813,-265.16552l-0.01744,-4.99716l33.94628,-0.11839l0.01743,4.99717z" data-paper-data="{&quot;origPos&quot;:null}" fill="#d3bb76"/><path d="M565.65631,-265.3206l-0.17248,-49.45472l5.16946,-0.01803l0.17249,49.45473z" data-paper-data="{&quot;origPos&quot;:null}" fill="#d3bb76"/><path d="M535.91039,-129.89112l-0.22489,-64.47495l37.33515,-0.13021l0.22489,64.47495z" data-paper-data="{&quot;origPos&quot;:null}" fill="#b9a568"/><path d="M530.15233,-133.93494l-0.22613,-64.83394l47.96131,-0.16727l0.22612,64.83395z" data-paper-data="{&quot;origPos&quot;:null}" fill="#e7cd81"/><path d="M537.44119,-143.88299l-0.16528,-47.3869l5.16947,-0.01803l0.16527,47.38693z" data-paper-data="{&quot;origPos&quot;:null}" fill="#b9a568"/><path d="M537.43634,-145.26151l-0.16527,-47.38692l5.16947,-0.01803l0.16527,47.38693z" data-paper-data="{&quot;origPos&quot;:null}" fill="#d3bb76"/><path d="M537.46099,-187.60018l-0.01744,-4.99717l24.98585,-0.08714l0.01743,4.99717z" data-paper-data="{&quot;origPos&quot;:null}" fill="#d3bb76"/><path d="M557.39736,-153.25773l-0.13643,-39.11576l5.16948,-0.01803l0.13642,39.11577z" data-paper-data="{&quot;origPos&quot;:null}" fill="#d3bb76"/><path d="M547.40361,-153.05059l-0.09495,-27.22595l5.16947,-0.01803l0.09495,27.22595z" data-paper-data="{&quot;origPos&quot;:null}" fill="#d3bb76"/><path d="M547.57609,-152.99948l-0.01923,-5.51412l14.81919,-0.05167l0.01923,5.51412z" data-paper-data="{&quot;origPos&quot;:null}" fill="#d3bb76"/><path d="M537.44431,-142.96968l-0.01743,-4.99717l33.94628,-0.11838l0.01743,4.99717z" data-paper-data="{&quot;origPos&quot;:null}" fill="#d3bb76"/><path d="M567.08251,-143.12475l-0.17248,-49.45472l5.16947,-0.01803l0.17248,49.45473z" data-paper-data="{&quot;origPos&quot;:null}" fill="#d3bb76"/><path d="M536.50783,-82.1013l-0.13994,-40.1201l36.76076,-0.12822l0.13994,40.1201z" data-paper-data="{&quot;origPos&quot;:null}" fill="#b9a568"/><path d="M530.75028,-86.01352l-0.12982,-37.21878l47.96131,-0.16728l0.12982,37.21878z" data-paper-data="{&quot;origPos&quot;:null}" fill="#e7cd81"/><path d="M536.76004,-92.12767l-0.09016,-25.84743l5.16947,-0.01804l0.09017,25.84744z" data-paper-data="{&quot;origPos&quot;:null}" fill="#d3bb76"/><path d="M566.91441,-92.52009l-0.09016,-25.84743l5.16947,-0.01804l0.09016,25.84743z" data-paper-data="{&quot;origPos&quot;:null}" fill="#d3bb76"/><path d="M545.94925,-92.44695l-0.09017,-25.84744l5.16947,-0.01803l0.09016,25.84743z" data-paper-data="{&quot;origPos&quot;:null}" fill="#d3bb76"/><path d="M558.01139,-92.48904l-0.09015,-25.84742l5.16946,-0.01803l0.09015,25.84742z" data-paper-data="{&quot;origPos&quot;:null}" fill="#d3bb76"/><path d="M547.33662,-92.66238l-0.02002,-5.74386l12.92371,-0.04507l0.02002,5.74386z" data-paper-data="{&quot;origPos&quot;:null}" fill="#d3bb76"/><path d="M548.12905,-112.48175l-0.02003,-5.74388l12.92371,-0.04507l0.02003,5.74387z" data-paper-data="{&quot;origPos&quot;:null}" fill="#d3bb76"/><path d="M535.08163,-204.29704l-0.13994,-40.12009l36.76076,-0.12823l0.13994,40.1201z" data-paper-data="{&quot;origPos&quot;:null}" fill="#b9a568"/><path d="M529.32409,-208.20927l-0.12982,-37.21878l47.96131,-0.16727l0.12982,37.21878z" data-paper-data="{&quot;origPos&quot;:null}" fill="#e7cd81"/><path d="M535.33386,-214.32345l-0.09015,-25.84742l5.16949,-0.01805l0.09017,25.84744z" data-paper-data="{&quot;origPos&quot;:null}" fill="#d3bb76"/><path d="M565.48817,-214.71594l-0.09016,-25.84743l5.16946,-0.01803l0.09015,25.84742z" data-paper-data="{&quot;origPos&quot;:null}" fill="#d3bb76"/><path d="M544.52304,-214.64278l-0.09016,-25.84742l5.16948,-0.01804l0.09016,25.84743z" data-paper-data="{&quot;origPos&quot;:null}" fill="#d3bb76"/><path d="M556.58518,-214.68487l-0.09016,-25.84742l5.16947,-0.01803l0.09015,25.84742z" data-paper-data="{&quot;origPos&quot;:null}" fill="#d3bb76"/><path d="M545.91041,-214.85825l-0.02002,-5.74387l12.9237,-0.04507l0.02002,5.74386z" data-paper-data="{&quot;origPos&quot;:null}" fill="#d3bb76"/><path d="M546.70287,-234.67759l-0.02003,-5.74388l12.92371,-0.04507l0.02003,5.74388z" data-paper-data="{&quot;origPos&quot;:null}" fill="#d3bb76"/></g><g data-paper-data="{&quot;origPos&quot;:null,&quot;origRot&quot;:0}"><path d="M534.94394,-77.89378l36.98294,-0.12899l0.24181,69.33028c-12.7029,1.15671 -24.87504,2.51518 -36.96939,4.01476z" data-paper-data="{&quot;origPos&quot;:null}" fill="#d3bb76"/><path d="M572.45414,73.14707c-10.92199,1.25657 -21.86197,1.94832 -32.83441,1.43834c-1.38263,-0.06426 -2.76419,-0.13888 -4.14474,-0.22333l-0.10023,-28.73671c12.30464,-1.49328 24.6311,-2.80819 36.96939,-4.01475z" data-paper-data="{&quot;origPos&quot;:null}" fill="#d3bb76"/><path d="M572.86981,192.32518c-6.44857,-1.31035 -12.82496,-2.93153 -18.74104,-5.70506c-6.38956,-2.9955 -12.41515,-6.67599 -18.29923,-10.60334l-0.17948,-51.45832c0.70841,0.04496 1.41702,0.08795 2.12583,0.12893c11.64262,0.67309 23.25537,-0.00416 34.85345,-1.3069z" data-paper-data="{&quot;origPos&quot;:null}" fill="#d3bb76"/><path d="M535.12911,-67.16975l37.33514,-0.13022l0.20426,58.56211c-12.83182,1.16181 -25.1172,2.52986 -37.32149,4.04183z" data-paper-data="{&quot;origPos&quot;:null}" fill="#b9a568"/><path d="M529.59599,-6.73855l-0.22613,-64.83395l47.96131,-0.16727l0.21823,62.57211c-0.22814,0.01969 -0.45629,0.03936 -0.68443,0.05902c-7.96723,0.68649 -15.70873,1.45353 -23.3327,2.28662z" data-paper-data="{&quot;origPos&quot;:null}" fill="#e7cd81"/><path d="M536.88482,-16.68667l-0.16527,-47.38691l5.16946,-0.01803l0.16527,47.38693z" data-paper-data="{&quot;origPos&quot;:null}" fill="#b9a568"/><path d="M536.87994,-18.06514l-0.16527,-47.38692l5.16947,-0.01803l0.16527,47.38693z" data-paper-data="{&quot;origPos&quot;:null}" fill="#d3bb76"/><path d="M536.90462,-60.40376l-0.01743,-4.99716l24.98584,-0.08714l0.01743,4.99716z" data-paper-data="{&quot;origPos&quot;:null}" fill="#d3bb76"/><path d="M556.841,-26.06139l-0.13643,-39.11577l5.16948,-0.01803l0.13643,39.11577z" data-paper-data="{&quot;origPos&quot;:null}" fill="#d3bb76"/><path d="M546.84722,-25.85422l-0.09495,-27.22595l5.16948,-0.01803l0.09495,27.22595z" data-paper-data="{&quot;origPos&quot;:null}" fill="#d3bb76"/><path d="M547.01974,-25.80316l-0.01923,-5.51412l14.8192,-0.05168l0.01923,5.51412z" data-paper-data="{&quot;origPos&quot;:null}" fill="#d3bb76"/><path d="M536.88793,-15.77334l-0.01743,-4.99716l33.94628,-0.11839l0.01743,4.99716z" data-paper-data="{&quot;origPos&quot;:null}" fill="#d3bb76"/><path d="M566.52615,-15.92843l-0.17249,-49.45473l5.16948,-0.01803l0.17247,49.45472z" data-paper-data="{&quot;origPos&quot;:null}" fill="#d3bb76"/><path d="M536.55529,55.02612l37.33514,-0.13023l0.06304,18.07519c-11.42012,1.36674 -22.85918,2.14766 -34.33375,1.61434c-0.99947,-0.04645 -1.99838,-0.09832 -2.99676,-0.1554z" data-paper-data="{&quot;origPos&quot;:null}" fill="#b9a568"/><path d="M530.79607,50.62325l47.96131,-0.16727l0.07637,21.89733c-13.04146,1.73529 -26.10458,2.84141 -39.21402,2.2321c-2.91857,-0.13565 -5.83238,-0.31745 -8.74197,-0.54045z" data-paper-data="{&quot;origPos&quot;:null}" fill="#e7cd81"/><path d="M538.14573,58.12227l5.16948,-0.01803l0.05793,16.60973c-1.25073,-0.02784 -2.50186,-0.07038 -3.75341,-0.12855c-0.4724,-0.02196 -0.94467,-0.04512 -1.41682,-0.06947z" data-paper-data="{&quot;origPos&quot;:null}" fill="#b9a568"/><path d="M538.14093,56.74371l5.16947,-0.01803l0.06274,17.98828c-1.25073,-0.02784 -2.50186,-0.07038 -3.75341,-0.12855c-0.47239,-0.02196 -0.94467,-0.04512 -1.41681,-0.06947z" data-paper-data="{&quot;origPos&quot;:null}" fill="#d3bb76"/><path d="M538.33085,61.79199l-0.01744,-4.99716l24.98585,-0.08715l0.01743,4.99716z" data-paper-data="{&quot;origPos&quot;:null}" fill="#d3bb76"/><path d="M558.13073,57.01862l5.16948,-0.01803l0.05946,17.04826c-1.72219,0.14085 -3.44493,0.2633 -5.16827,0.36486z" data-paper-data="{&quot;origPos&quot;:null}" fill="#d3bb76"/><path d="M548.17848,69.11564l5.16947,-0.01803l0.01933,5.54377c-1.72238,0.06035 -3.44541,0.09755 -5.16915,0.10912z" data-paper-data="{&quot;origPos&quot;:null}" fill="#d3bb76"/><path d="" data-paper-data="{&quot;origPos&quot;:null}" fill="#d3bb76"/><path d="" data-paper-data="{&quot;origPos&quot;:null}" fill="#d3bb76"/><path d="M567.77984,56.81269l5.16946,-0.01803l0.05681,16.28842c-1.72207,0.20111 -3.44457,0.38844 -5.16758,0.55949z" data-paper-data="{&quot;origPos&quot;:null}" fill="#d3bb76"/><path d="M537.37769,167.29083l-0.13994,-40.12009l36.76076,-0.12823l0.13994,40.12009z" data-paper-data="{&quot;origPos&quot;:null}" fill="#b9a568"/><path d="M531.62011,163.37864l-0.12982,-37.21878l47.96131,-0.16727l0.12982,37.21877z" data-paper-data="{&quot;origPos&quot;:null}" fill="#e7cd81"/><path d="M537.62991,157.26449l-0.09015,-25.84742l5.16947,-0.01803l0.09016,25.84742z" data-paper-data="{&quot;origPos&quot;:null}" fill="#d3bb76"/><path d="M567.78424,156.87209l-0.09015,-25.84742l5.16948,-0.01804l0.09016,25.84743z" data-paper-data="{&quot;origPos&quot;:null}" fill="#d3bb76"/><path d="M546.81908,156.9452l-0.09015,-25.84742l5.16948,-0.01803l0.09015,25.84742z" data-paper-data="{&quot;origPos&quot;:null}" fill="#d3bb76"/><path d="M558.88118,156.90311l-0.09016,-25.84743l5.16946,-0.01803l0.09018,25.84743z" data-paper-data="{&quot;origPos&quot;:null}" fill="#d3bb76"/><path d="M548.20646,156.72976l-0.02002,-5.74388l12.92371,-0.04507l0.02002,5.74388z" data-paper-data="{&quot;origPos&quot;:null}" fill="#d3bb76"/><path d="M548.99892,136.91037l-0.02003,-5.74386l12.92371,-0.04508l0.02003,5.74388z" data-paper-data="{&quot;origPos&quot;:null}" fill="#d3bb76"/><path d="M572.71223,44.9669l-32.78713,0.11436c10.91124,-1.28559 21.83867,-2.43782 32.7753,-3.50545z" data-paper-data="{&quot;origPos&quot;:null}" fill="#b9a568"/><path d="" data-paper-data="{&quot;origPos&quot;:null}" fill="#e7cd81"/><path d="" data-paper-data="{&quot;origPos&quot;:null}" fill="#d3bb76"/><path d="" data-paper-data="{&quot;origPos&quot;:null}" fill="#d3bb76"/><path d="" data-paper-data="{&quot;origPos&quot;:null}" fill="#d3bb76"/><path d="" data-paper-data="{&quot;origPos&quot;:null}" fill="#d3bb76"/><path d="" data-paper-data="{&quot;origPos&quot;:null}" fill="#d3bb76"/><path d="" data-paper-data="{&quot;origPos&quot;:null}" fill="#d3bb76"/></g></g><path d="M385,-165.19996v-315h400v315z" data-paper-data="{&quot;origPos&quot;:null}" fill="#a1937c" stroke="none"/><path d="M147.00001,507.80002v-444h64v444z" data-paper-data="{&quot;origPos&quot;:null}" fill="#9e907a" stroke="none"/><path d="M37,-562.25559v-1802.14443h241v1802.14444z" data-paper-data="{&quot;origPos&quot;:null}" fill="#a1937c" stroke="none"/></g></g></svg>