<svg version="1.1" xmlns="http://www.w3.org/2000/svg" xmlns:xlink="http://www.w3.org/1999/xlink" width="485.85459" height="622.51863"><g transform="translate(-127.99838,-69.17575)"><g data-paper-data="{&quot;isPaintingLayer&quot;:true}" fill="none" fill-rule="nonzero" stroke="none" stroke-width="0" stroke-linecap="butt" stroke-linejoin="miter" stroke-miterlimit="10" stroke-dasharray="" stroke-dashoffset="0" font-family="none" font-weight="none" font-size="none" text-anchor="none" style="mix-blend-mode: normal"><g data-paper-data="{&quot;origPos&quot;:null,&quot;index&quot;:null}" stroke="none"><g data-paper-data="{&quot;origPos&quot;:null}"><path d="M463.33113,442.29439v-290.33056h36.98317v290.33055z" data-paper-data="{&quot;origPos&quot;:null}" fill="#d3bb76"/><path d="M462.83113,227.16378v-64.47534h37.33538v64.47534z" data-paper-data="{&quot;origPos&quot;:null}" fill="#b9a568"/><path d="M457.94879,223.09998v-64.83434h47.96161v64.83434z" data-paper-data="{&quot;origPos&quot;:null}" fill="#e7cd81"/><path d="M493.41741,213.17737v-47.38722h5.16951v47.38721z" data-paper-data="{&quot;origPos&quot;:null}" fill="#b9a568"/><path d="M493.41745,211.79884v-47.38722h5.16951v47.38721z" data-paper-data="{&quot;origPos&quot;:null}" fill="#d3bb76"/><path d="M473.42864,169.46057v-4.9972h24.98599v4.9972z" data-paper-data="{&quot;origPos&quot;:null}" fill="#d3bb76"/><path d="M473.42864,203.87225v-39.116h5.16952v39.116z" data-paper-data="{&quot;origPos&quot;:null}" fill="#d3bb76"/><path d="M483.42306,204.04457v-27.22611h5.16952v27.22611z" data-paper-data="{&quot;origPos&quot;:null}" fill="#d3bb76"/><path d="M473.60099,204.09624v-5.51415h14.81928v5.51415z" data-paper-data="{&quot;origPos&quot;:null}" fill="#d3bb76"/><path d="M464.64049,214.09066v-4.9972h33.94648v4.9972z" data-paper-data="{&quot;origPos&quot;:null}" fill="#d3bb76"/><path d="M463.77891,214.03894v-49.45502h5.16951v49.45502z" data-paper-data="{&quot;origPos&quot;:null}" fill="#d3bb76"/><path d="M461.83113,349.36385v-64.47534h37.33538v64.47534z" data-paper-data="{&quot;origPos&quot;:null}" fill="#b9a568"/><path d="M456.94879,345.29994v-64.83434h47.96161v64.83434z" data-paper-data="{&quot;origPos&quot;:null}" fill="#e7cd81"/><path d="M492.41741,335.3774v-47.38722h5.16951v47.38721z" data-paper-data="{&quot;origPos&quot;:null}" fill="#b9a568"/><path d="M492.41741,333.99886v-47.38722h5.16951v47.38721z" data-paper-data="{&quot;origPos&quot;:null}" fill="#d3bb76"/><path d="M472.42864,291.66055v-4.9972h24.98599v4.9972z" data-paper-data="{&quot;origPos&quot;:null}" fill="#d3bb76"/><path d="M472.42864,326.0723v-39.116h5.16952v39.116z" data-paper-data="{&quot;origPos&quot;:null}" fill="#d3bb76"/><path d="M482.42306,326.2446v-27.22611h5.16952v27.22611z" data-paper-data="{&quot;origPos&quot;:null}" fill="#d3bb76"/><path d="M472.60099,326.29631v-5.51415h14.81928v5.51415z" data-paper-data="{&quot;origPos&quot;:null}" fill="#d3bb76"/><path d="M463.64049,336.29071v-4.9972h33.94648v4.9972z" data-paper-data="{&quot;origPos&quot;:null}" fill="#d3bb76"/><path d="M462.77891,336.23902v-49.45502h5.16951v49.45502z" data-paper-data="{&quot;origPos&quot;:null}" fill="#d3bb76"/><path d="M461.97475,397.15546v-40.12033h36.76099v40.12033z" data-paper-data="{&quot;origPos&quot;:null}" fill="#b9a568"/><path d="M456.518,393.22319v-37.21901h47.96161v37.21901z" data-paper-data="{&quot;origPos&quot;:null}" fill="#e7cd81"/><path d="M493.27903,387.13002v-25.84758h5.16952v25.84758z" data-paper-data="{&quot;origPos&quot;:null}" fill="#d3bb76"/><path d="M463.12348,386.84278v-25.84758h5.16951v25.84758z" data-paper-data="{&quot;origPos&quot;:null}" fill="#d3bb76"/><path d="M484.08879,386.84278v-25.84758h5.16951v25.84758z" data-paper-data="{&quot;origPos&quot;:null}" fill="#d3bb76"/><path d="M472.02659,386.84278v-25.84758h5.16951v25.84758z" data-paper-data="{&quot;origPos&quot;:null}" fill="#d3bb76"/><path d="M474.9464,386.63218v-5.7439h12.92379v5.7439z" data-paper-data="{&quot;origPos&quot;:null}" fill="#d3bb76"/><path d="M474.0848,366.81572v-5.74391h12.92379v5.74391z" data-paper-data="{&quot;origPos&quot;:null}" fill="#d3bb76"/><path d="M462.97475,274.95548v-40.12033h36.76099v40.12033z" data-paper-data="{&quot;origPos&quot;:null}" fill="#b9a568"/><path d="M457.518,271.02318v-37.21901h47.96161v37.21901z" data-paper-data="{&quot;origPos&quot;:null}" fill="#e7cd81"/><path d="M494.27903,264.93v-25.84758h5.16952v25.84758z" data-paper-data="{&quot;origPos&quot;:null}" fill="#d3bb76"/><path d="M464.12348,264.64271v-25.84758h5.16951v25.84758z" data-paper-data="{&quot;origPos&quot;:null}" fill="#d3bb76"/><path d="M485.08879,264.64271v-25.84758h5.16951v25.84758z" data-paper-data="{&quot;origPos&quot;:null}" fill="#d3bb76"/><path d="M473.02659,264.64271v-25.84758h5.16951v25.84758z" data-paper-data="{&quot;origPos&quot;:null}" fill="#d3bb76"/><path d="M475.94641,264.43211v-5.7439h12.92379v5.7439z" data-paper-data="{&quot;origPos&quot;:null}" fill="#d3bb76"/><path d="M475.0848,244.61565v-5.74391h12.92379v5.74391z" data-paper-data="{&quot;origPos&quot;:null}" fill="#d3bb76"/></g><g data-paper-data="{&quot;origPos&quot;:null}"><path d="M461.33113,691.69438v-290.33056h36.98317v290.33055z" data-paper-data="{&quot;origPos&quot;:null}" fill="#d3bb76"/><path d="M460.83113,476.56378v-64.47534h37.33538v64.47534z" data-paper-data="{&quot;origPos&quot;:null}" fill="#b9a568"/><path d="M455.94879,472.49997v-64.83434h47.96161v64.83434z" data-paper-data="{&quot;origPos&quot;:null}" fill="#e7cd81"/><path d="M491.41741,462.57736v-47.38722h5.16951v47.38721z" data-paper-data="{&quot;origPos&quot;:null}" fill="#b9a568"/><path d="M491.41745,461.19883v-47.38722h5.16951v47.38721z" data-paper-data="{&quot;origPos&quot;:null}" fill="#d3bb76"/><path d="M471.42864,418.86056v-4.9972h24.98599v4.9972z" data-paper-data="{&quot;origPos&quot;:null}" fill="#d3bb76"/><path d="M471.42864,453.27224v-39.116h5.16952v39.116z" data-paper-data="{&quot;origPos&quot;:null}" fill="#d3bb76"/><path d="M481.42306,453.44456v-27.22611h5.16952v27.22611z" data-paper-data="{&quot;origPos&quot;:null}" fill="#d3bb76"/><path d="M471.60099,453.49623v-5.51415h14.81928v5.51415z" data-paper-data="{&quot;origPos&quot;:null}" fill="#d3bb76"/><path d="M462.64049,463.49065v-4.9972h33.94648v4.9972z" data-paper-data="{&quot;origPos&quot;:null}" fill="#d3bb76"/><path d="M461.77891,463.43893v-49.45502h5.16951v49.45502z" data-paper-data="{&quot;origPos&quot;:null}" fill="#d3bb76"/><path d="M459.83113,598.76384v-64.47534h37.33538v64.47534z" data-paper-data="{&quot;origPos&quot;:null}" fill="#b9a568"/><path d="M454.94879,594.69994v-64.83434h47.96161v64.83434z" data-paper-data="{&quot;origPos&quot;:null}" fill="#e7cd81"/><path d="M490.41741,584.7774v-47.38722h5.16951v47.38721z" data-paper-data="{&quot;origPos&quot;:null}" fill="#b9a568"/><path d="M490.41741,583.39885v-47.38722h5.16951v47.38721z" data-paper-data="{&quot;origPos&quot;:null}" fill="#d3bb76"/><path d="M470.42864,541.06054v-4.9972h24.98599v4.9972z" data-paper-data="{&quot;origPos&quot;:null}" fill="#d3bb76"/><path d="M470.42864,575.47229v-39.116h5.16952v39.116z" data-paper-data="{&quot;origPos&quot;:null}" fill="#d3bb76"/><path d="M480.42306,575.6446v-27.22611h5.16952v27.22611z" data-paper-data="{&quot;origPos&quot;:null}" fill="#d3bb76"/><path d="M470.60099,575.6963v-5.51415h14.81928v5.51415z" data-paper-data="{&quot;origPos&quot;:null}" fill="#d3bb76"/><path d="M461.64049,585.6907v-4.9972h33.94648v4.9972z" data-paper-data="{&quot;origPos&quot;:null}" fill="#d3bb76"/><path d="M460.77891,585.63901v-49.45502h5.16951v49.45502z" data-paper-data="{&quot;origPos&quot;:null}" fill="#d3bb76"/><path d="M459.97475,646.55545v-40.12033h36.76099v40.12033z" data-paper-data="{&quot;origPos&quot;:null}" fill="#b9a568"/><path d="M454.518,642.62318v-37.21901h47.96161v37.21901z" data-paper-data="{&quot;origPos&quot;:null}" fill="#e7cd81"/><path d="M491.27903,636.53001v-25.84758h5.16952v25.84758z" data-paper-data="{&quot;origPos&quot;:null}" fill="#d3bb76"/><path d="M461.12348,636.24277v-25.84758h5.16951v25.84758z" data-paper-data="{&quot;origPos&quot;:null}" fill="#d3bb76"/><path d="M482.08879,636.24277v-25.84758h5.16951v25.84758z" data-paper-data="{&quot;origPos&quot;:null}" fill="#d3bb76"/><path d="M470.02659,636.24277v-25.84758h5.16951v25.84758z" data-paper-data="{&quot;origPos&quot;:null}" fill="#d3bb76"/><path d="M472.9464,636.03217v-5.7439h12.92379v5.7439z" data-paper-data="{&quot;origPos&quot;:null}" fill="#d3bb76"/><path d="M472.0848,616.21571v-5.74391h12.92379v5.74391z" data-paper-data="{&quot;origPos&quot;:null}" fill="#d3bb76"/><path d="M460.97475,524.35547v-40.12033h36.76099v40.12033z" data-paper-data="{&quot;origPos&quot;:null}" fill="#b9a568"/><path d="M455.518,520.42317v-37.21901h47.96161v37.21901z" data-paper-data="{&quot;origPos&quot;:null}" fill="#e7cd81"/><path d="M492.27903,514.32999v-25.84758h5.16952v25.84758z" data-paper-data="{&quot;origPos&quot;:null}" fill="#d3bb76"/><path d="M462.12348,514.0427v-25.84758h5.16951v25.84758z" data-paper-data="{&quot;origPos&quot;:null}" fill="#d3bb76"/><path d="M483.08879,514.0427v-25.84758h5.16951v25.84758z" data-paper-data="{&quot;origPos&quot;:null}" fill="#d3bb76"/><path d="M471.02659,514.0427v-25.84758h5.16951v25.84758z" data-paper-data="{&quot;origPos&quot;:null}" fill="#d3bb76"/><path d="M473.94641,513.8321v-5.7439h12.92379v5.7439z" data-paper-data="{&quot;origPos&quot;:null}" fill="#d3bb76"/><path d="M473.0848,494.01564v-5.74391h12.92379v5.74391z" data-paper-data="{&quot;origPos&quot;:null}" fill="#d3bb76"/></g></g><path d="M162.97096,201.40513c0,0 -2.07429,-11.19051 -1.67116,-17.3616c0.66255,-10.14259 2.3478,-14.28587 2.3478,-24.44105c0,-7.19999 -3.35907,-16.17407 -6.06446,-23.2512c-3.61225,-9.44938 -0.02529,-22.7251 -0.02529,-22.7251h226.24228c0,0 0,14.86099 0,23.94875c0,24.78129 0,62.83647 0,62.83647z" data-paper-data="{&quot;origPos&quot;:null}" fill="#a1937c" stroke="#000000"/><path d="M154.55789,120.37137v-17.55579h230.24228v17.55579z" data-paper-data="{&quot;origPos&quot;:null}" fill="#706756" stroke="#000000"/><path d="M153.79152,116.72426v-16.55579c0,0 40.84462,0 66.98726,0c66.11233,0 169.40461,0 169.40461,0v16.55579z" data-paper-data="{&quot;origPos&quot;:null}" fill="#8b7f6b" stroke="#000000"/><g data-paper-data="{&quot;origPos&quot;:null,&quot;origRot&quot;:0,&quot;index&quot;:null}" stroke="none"><path d="M365.23864,227.44537l-15.93254,-31.16335l248.61433,-127.10627l15.93254,31.16335z" data-paper-data="{&quot;origPos&quot;:null,&quot;origRot&quot;:0}" fill="#e7cd81"/><path d="M360.23131,217.65118l-10.92517,-21.36915l248.61433,-127.10627l10.92517,21.36915z" data-paper-data="{&quot;origPos&quot;:null,&quot;origRot&quot;:0}" fill="#d8c079"/><path d="M357.04481,211.41851l-7.73866,-15.13648l248.61433,-127.10627l7.73866,15.13648z" data-paper-data="{&quot;origPos&quot;:null,&quot;origRot&quot;:0}" fill="#d3bb76"/></g><path d="M168.79151,375.13467v-195h216v195z" data-paper-data="{&quot;origPos&quot;:null}" fill="#a1937c" stroke="none"/><path d="M135.95495,274.51365l-1.4362,-187.13916l37.26013,3.52423l1.15562,182.87686z" data-paper-data="{&quot;origPos&quot;:null,&quot;origRot&quot;:0}" fill="#d3bb76" stroke="none"/><path d="M242.00001,564.80001v-444h64v444z" data-paper-data="{&quot;origPos&quot;:null}" fill="#9e907a" stroke="none"/><path d="M134.31721,141.33011l-0.5611,-40.11639l36.75739,-0.51412l0.56109,40.1164z" data-paper-data="{&quot;origPos&quot;:null,&quot;origRot&quot;:0}" fill="#b9a568" stroke="none"/><path d="M128.51889,137.47859l-0.52051,-37.21537l47.95692,-0.67076l0.52052,37.21536z" data-paper-data="{&quot;origPos&quot;:null,&quot;origRot&quot;:0}" fill="#e7cd81" stroke="none"/><path d="M134.46414,131.30165l-0.36148,-25.84504l5.16901,-0.0723l0.36149,25.84505z" data-paper-data="{&quot;origPos&quot;:null,&quot;origRot&quot;:0}" fill="#d3bb76" stroke="none"/><path d="M164.61271,130.59274l-0.36148,-25.84506l5.169,-0.0723l0.36148,25.84505z" data-paper-data="{&quot;origPos&quot;:null,&quot;origRot&quot;:0}" fill="#d3bb76" stroke="none"/><path d="M143.6495,130.88592l-0.36148,-25.84505l5.169,-0.0723l0.36148,25.84506z" data-paper-data="{&quot;origPos&quot;:null,&quot;origRot&quot;:0}" fill="#d3bb76" stroke="none"/><path d="M155.71049,130.71722l-0.36148,-25.84505l5.169,-0.0723l0.36148,25.84505z" data-paper-data="{&quot;origPos&quot;:null,&quot;origRot&quot;:0}" fill="#d3bb76" stroke="none"/><path d="M145.03452,130.65596l-0.08032,-5.74333l12.92253,-0.18075l0.08033,5.74334z" data-paper-data="{&quot;origPos&quot;:null,&quot;origRot&quot;:0}" fill="#d3bb76" stroke="none"/><path d="M145.61888,110.82933l-0.08033,-5.74334l12.92253,-0.18075l0.08032,5.74335z" data-paper-data="{&quot;origPos&quot;:null,&quot;origRot&quot;:0}" fill="#d3bb76" stroke="none"/><path d="M134.80309,217.34353l-0.9017,-64.46904l37.33173,-0.52215l0.9017,64.46904z" data-paper-data="{&quot;origPos&quot;:null,&quot;origRot&quot;:0}" fill="#b9a568" stroke="none"/><path d="M129.00293,213.36046l-0.90673,-64.828l47.95692,-0.67077l0.90673,64.828z" data-paper-data="{&quot;origPos&quot;:null,&quot;origRot&quot;:0}" fill="#e7cd81" stroke="none"/><path d="M136.18692,203.33642l-0.66273,-47.38257l5.169,-0.07229l0.66273,47.38258z" data-paper-data="{&quot;origPos&quot;:null,&quot;origRot&quot;:0}" fill="#b9a568" stroke="none"/><path d="M136.16767,201.95804l-0.66273,-47.38257l5.169,-0.0723l0.66272,47.38258z" data-paper-data="{&quot;origPos&quot;:null,&quot;origRot&quot;:0}" fill="#d3bb76" stroke="none"/><path d="M135.74782,159.62142l-0.0699,-4.9967l24.98354,-0.34944l0.06989,4.99671z" data-paper-data="{&quot;origPos&quot;:null,&quot;origRot&quot;:0}" fill="#d3bb76" stroke="none"/><path d="M156.04361,193.75266l-0.54705,-39.11218l5.16901,-0.0723l0.54705,39.11218z" data-paper-data="{&quot;origPos&quot;:null,&quot;origRot&quot;:0}" fill="#d3bb76" stroke="none"/><path d="M146.05257,194.06476l-0.38076,-27.22345l5.16901,-0.0723l0.38077,27.22346z" data-paper-data="{&quot;origPos&quot;:null,&quot;origRot&quot;:0}" fill="#d3bb76" stroke="none"/><path d="M146.2256,194.11404l-0.07712,-5.51362l14.81784,-0.20725l0.07712,5.51362z" data-paper-data="{&quot;origPos&quot;:null,&quot;origRot&quot;:0}" fill="#d3bb76" stroke="none"/><path d="M136.19966,204.24965l-0.06989,-4.99671l33.94316,-0.47476l0.06989,4.99671z" data-paper-data="{&quot;origPos&quot;:null,&quot;origRot&quot;:0}" fill="#d3bb76" stroke="none"/><path d="M165.83461,203.78342l-0.69166,-49.45019l5.169,-0.0723l0.69164,49.45019z" data-paper-data="{&quot;origPos&quot;:null,&quot;origRot&quot;:0}" fill="#d3bb76" stroke="none"/><path d="M135.9022,265.1246l-0.5611,-40.1164l36.7574,-0.51411l0.56109,40.1164z" data-paper-data="{&quot;origPos&quot;:null,&quot;origRot&quot;:0}" fill="#b9a568" stroke="none"/><path d="M130.10386,261.27297l-0.52052,-37.21536l47.95692,-0.67077l0.52051,37.21537z" data-paper-data="{&quot;origPos&quot;:null,&quot;origRot&quot;:0}" fill="#e7cd81" stroke="none"/><path d="M136.04922,255.09599l-0.36148,-25.84506l5.16901,-0.0723l0.36149,25.84505z" data-paper-data="{&quot;origPos&quot;:null,&quot;origRot&quot;:0}" fill="#d3bb76" stroke="none"/><path d="M166.1977,254.38708l-0.36149,-25.84506l5.169,-0.07229l0.36149,25.84505z" data-paper-data="{&quot;origPos&quot;:null,&quot;origRot&quot;:0}" fill="#d3bb76" stroke="none"/><path d="M145.23451,254.6803l-0.36149,-25.84505l5.16901,-0.0723l0.36148,25.84505z" data-paper-data="{&quot;origPos&quot;:null,&quot;origRot&quot;:0}" fill="#d3bb76" stroke="none"/><path d="M157.29555,254.51162l-0.36148,-25.84506l5.169,-0.0723l0.36148,25.84505z" data-paper-data="{&quot;origPos&quot;:null,&quot;origRot&quot;:0}" fill="#d3bb76" stroke="none"/><path d="M147.20389,234.62371l-0.08032,-5.74333l12.92252,-0.18076l0.08033,5.74335z" data-paper-data="{&quot;origPos&quot;:null,&quot;origRot&quot;:0}" fill="#d3bb76" stroke="none"/><g data-paper-data="{&quot;origPos&quot;:null}" stroke="none"><path d="M371.95507,447.51368l-1.4362,-187.13916l37.26013,3.52423l1.15562,182.87686z" data-paper-data="{&quot;origPos&quot;:null,&quot;origRot&quot;:0}" fill="#d3bb76"/><path d="M370.31731,314.33014l-0.5611,-40.11639l36.75739,-0.51412l0.56109,40.1164z" data-paper-data="{&quot;origPos&quot;:null,&quot;origRot&quot;:0}" fill="#b9a568"/><path d="M364.5189,310.47862l-0.52051,-37.21537l47.95692,-0.67076l0.52052,37.21536z" data-paper-data="{&quot;origPos&quot;:null,&quot;origRot&quot;:0}" fill="#e7cd81"/><path d="M370.46419,304.30168l-0.36148,-25.84504l5.16901,-0.0723l0.36149,25.84505z" data-paper-data="{&quot;origPos&quot;:null,&quot;origRot&quot;:0}" fill="#d3bb76"/><path d="M400.61283,303.59277l-0.36148,-25.84506l5.169,-0.0723l0.36148,25.84505z" data-paper-data="{&quot;origPos&quot;:null,&quot;origRot&quot;:0}" fill="#d3bb76"/><path d="M379.64963,303.88595l-0.36148,-25.84505l5.169,-0.0723l0.36148,25.84506z" data-paper-data="{&quot;origPos&quot;:null,&quot;origRot&quot;:0}" fill="#d3bb76"/><path d="M391.71061,303.71725l-0.36148,-25.84505l5.169,-0.0723l0.36148,25.84505z" data-paper-data="{&quot;origPos&quot;:null,&quot;origRot&quot;:0}" fill="#d3bb76"/><path d="M381.03457,303.65599l-0.08032,-5.74333l12.92253,-0.18075l0.08033,5.74334z" data-paper-data="{&quot;origPos&quot;:null,&quot;origRot&quot;:0}" fill="#d3bb76"/><path d="M381.61901,283.82935l-0.08033,-5.74334l12.92253,-0.18075l0.08032,5.74335z" data-paper-data="{&quot;origPos&quot;:null,&quot;origRot&quot;:0}" fill="#d3bb76"/><path d="M370.80319,390.34358l-0.9017,-64.46904l37.33173,-0.52215l0.9017,64.46904z" data-paper-data="{&quot;origPos&quot;:null,&quot;origRot&quot;:0}" fill="#b9a568"/><path d="M365.00296,386.36049l-0.90673,-64.828l47.95692,-0.67077l0.90673,64.828z" data-paper-data="{&quot;origPos&quot;:null,&quot;origRot&quot;:0}" fill="#e7cd81"/><path d="M372.18697,376.33645l-0.66273,-47.38257l5.169,-0.07229l0.66273,47.38258z" data-paper-data="{&quot;origPos&quot;:null,&quot;origRot&quot;:0}" fill="#b9a568"/><path d="M372.16772,374.9581l-0.66273,-47.38257l5.169,-0.0723l0.66272,47.38258z" data-paper-data="{&quot;origPos&quot;:null,&quot;origRot&quot;:0}" fill="#d3bb76"/><path d="M371.74795,332.62143l-0.0699,-4.9967l24.98354,-0.34944l0.06989,4.99671z" data-paper-data="{&quot;origPos&quot;:null,&quot;origRot&quot;:0}" fill="#d3bb76"/><path d="M392.04373,366.75269l-0.54705,-39.11218l5.16901,-0.0723l0.54705,39.11218z" data-paper-data="{&quot;origPos&quot;:null,&quot;origRot&quot;:0}" fill="#d3bb76"/><path d="M382.05271,367.06479l-0.38076,-27.22345l5.16901,-0.0723l0.38077,27.22346z" data-paper-data="{&quot;origPos&quot;:null,&quot;origRot&quot;:0}" fill="#d3bb76"/><path d="M382.22565,367.11408l-0.07712,-5.51362l14.81784,-0.20725l0.07712,5.51362z" data-paper-data="{&quot;origPos&quot;:null,&quot;origRot&quot;:0}" fill="#d3bb76"/><path d="M372.19979,377.24968l-0.06989,-4.99671l33.94316,-0.47476l0.06989,4.99671z" data-paper-data="{&quot;origPos&quot;:null,&quot;origRot&quot;:0}" fill="#d3bb76"/><path d="M401.83471,376.78345l-0.69166,-49.45019l5.169,-0.0723l0.69164,49.45019z" data-paper-data="{&quot;origPos&quot;:null,&quot;origRot&quot;:0}" fill="#d3bb76"/><path d="M371.90232,438.12463l-0.5611,-40.1164l36.7574,-0.51411l0.56109,40.1164z" data-paper-data="{&quot;origPos&quot;:null,&quot;origRot&quot;:0}" fill="#b9a568"/><path d="M366.10396,434.27293l-0.52052,-37.21536l47.95692,-0.67077l0.52051,37.21537z" data-paper-data="{&quot;origPos&quot;:null,&quot;origRot&quot;:0}" fill="#e7cd81"/><path d="M372.04925,428.09604l-0.36148,-25.84506l5.16901,-0.0723l0.36149,25.84505z" data-paper-data="{&quot;origPos&quot;:null,&quot;origRot&quot;:0}" fill="#d3bb76"/><path d="M402.1978,427.3871l-0.36149,-25.84506l5.169,-0.07229l0.36149,25.84505z" data-paper-data="{&quot;origPos&quot;:null,&quot;origRot&quot;:0}" fill="#d3bb76"/><path d="M381.23461,427.68033l-0.36149,-25.84505l5.16901,-0.0723l0.36148,25.84505z" data-paper-data="{&quot;origPos&quot;:null,&quot;origRot&quot;:0}" fill="#d3bb76"/><path d="M393.29558,427.51165l-0.36148,-25.84506l5.169,-0.0723l0.36148,25.84505z" data-paper-data="{&quot;origPos&quot;:null,&quot;origRot&quot;:0}" fill="#d3bb76"/><path d="M383.20404,407.62375l-0.08032,-5.74333l12.92252,-0.18076l0.08033,5.74335z" data-paper-data="{&quot;origPos&quot;:null,&quot;origRot&quot;:0}" fill="#d3bb76"/></g><g data-paper-data="{&quot;origPos&quot;:null}" stroke="none"><path d="M136.95502,453.51368l-1.4362,-187.13916l37.26013,3.52423l1.15562,182.87686z" data-paper-data="{&quot;origPos&quot;:null,&quot;origRot&quot;:0}" fill="#d3bb76"/><path d="M135.31723,320.33014l-0.5611,-40.11639l36.75739,-0.51412l0.56109,40.1164z" data-paper-data="{&quot;origPos&quot;:null,&quot;origRot&quot;:0}" fill="#b9a568"/><path d="M129.51889,316.47862l-0.52051,-37.21537l47.95692,-0.67076l0.52052,37.21536z" data-paper-data="{&quot;origPos&quot;:null,&quot;origRot&quot;:0}" fill="#e7cd81"/><path d="M135.46416,310.30168l-0.36148,-25.84504l5.16901,-0.0723l0.36149,25.84505z" data-paper-data="{&quot;origPos&quot;:null,&quot;origRot&quot;:0}" fill="#d3bb76"/><path d="M165.61278,309.59277l-0.36148,-25.84506l5.169,-0.0723l0.36148,25.84505z" data-paper-data="{&quot;origPos&quot;:null,&quot;origRot&quot;:0}" fill="#d3bb76"/><path d="M144.64959,309.88595l-0.36148,-25.84505l5.169,-0.0723l0.36148,25.84506z" data-paper-data="{&quot;origPos&quot;:null,&quot;origRot&quot;:0}" fill="#d3bb76"/><path d="M156.71056,309.71725l-0.36148,-25.84505l5.169,-0.0723l0.36148,25.84505z" data-paper-data="{&quot;origPos&quot;:null,&quot;origRot&quot;:0}" fill="#d3bb76"/><path d="M146.03454,309.65599l-0.08032,-5.74333l12.92253,-0.18075l0.08033,5.74334z" data-paper-data="{&quot;origPos&quot;:null,&quot;origRot&quot;:0}" fill="#d3bb76"/><path d="M146.61897,289.82935l-0.08033,-5.74334l12.92253,-0.18075l0.08032,5.74335z" data-paper-data="{&quot;origPos&quot;:null,&quot;origRot&quot;:0}" fill="#d3bb76"/><path d="M135.80316,396.34358l-0.9017,-64.46904l37.33173,-0.52215l0.9017,64.46904z" data-paper-data="{&quot;origPos&quot;:null,&quot;origRot&quot;:0}" fill="#b9a568"/><path d="M130.00295,392.36049l-0.90673,-64.828l47.95692,-0.67077l0.90673,64.828z" data-paper-data="{&quot;origPos&quot;:null,&quot;origRot&quot;:0}" fill="#e7cd81"/><path d="M137.18694,382.33645l-0.66273,-47.38257l5.169,-0.07229l0.66273,47.38258z" data-paper-data="{&quot;origPos&quot;:null,&quot;origRot&quot;:0}" fill="#b9a568"/><path d="M137.16769,380.9581l-0.66273,-47.38257l5.169,-0.0723l0.66272,47.38258z" data-paper-data="{&quot;origPos&quot;:null,&quot;origRot&quot;:0}" fill="#d3bb76"/><path d="M136.74791,338.62143l-0.0699,-4.9967l24.98354,-0.34944l0.06989,4.99671z" data-paper-data="{&quot;origPos&quot;:null,&quot;origRot&quot;:0}" fill="#d3bb76"/><path d="M157.04366,372.75269l-0.54705,-39.11218l5.16901,-0.0723l0.54705,39.11218z" data-paper-data="{&quot;origPos&quot;:null,&quot;origRot&quot;:0}" fill="#d3bb76"/><path d="M147.05264,373.06479l-0.38076,-27.22345l5.16901,-0.0723l0.38077,27.22346z" data-paper-data="{&quot;origPos&quot;:null,&quot;origRot&quot;:0}" fill="#d3bb76"/><path d="M147.22562,373.11408l-0.07712,-5.51362l14.81784,-0.20725l0.07712,5.51362z" data-paper-data="{&quot;origPos&quot;:null,&quot;origRot&quot;:0}" fill="#d3bb76"/><path d="M137.19973,383.24968l-0.06989,-4.99671l33.94316,-0.47476l0.06989,4.99671z" data-paper-data="{&quot;origPos&quot;:null,&quot;origRot&quot;:0}" fill="#d3bb76"/><path d="M166.83468,382.78345l-0.69166,-49.45019l5.169,-0.0723l0.69164,49.45019z" data-paper-data="{&quot;origPos&quot;:null,&quot;origRot&quot;:0}" fill="#d3bb76"/><path d="M136.90227,444.12463l-0.5611,-40.1164l36.7574,-0.51411l0.56109,40.1164z" data-paper-data="{&quot;origPos&quot;:null,&quot;origRot&quot;:0}" fill="#b9a568"/><path d="M131.10393,440.27293l-0.52052,-37.21536l47.95692,-0.67077l0.52051,37.21537z" data-paper-data="{&quot;origPos&quot;:null,&quot;origRot&quot;:0}" fill="#e7cd81"/><path d="M137.04922,434.09604l-0.36148,-25.84506l5.16901,-0.0723l0.36149,25.84505z" data-paper-data="{&quot;origPos&quot;:null,&quot;origRot&quot;:0}" fill="#d3bb76"/><path d="M167.19777,433.3871l-0.36149,-25.84506l5.169,-0.07229l0.36149,25.84505z" data-paper-data="{&quot;origPos&quot;:null,&quot;origRot&quot;:0}" fill="#d3bb76"/><path d="M146.23456,433.68033l-0.36149,-25.84505l5.16901,-0.0723l0.36148,25.84505z" data-paper-data="{&quot;origPos&quot;:null,&quot;origRot&quot;:0}" fill="#d3bb76"/><path d="M158.29555,433.51165l-0.36148,-25.84506l5.169,-0.0723l0.36148,25.84505z" data-paper-data="{&quot;origPos&quot;:null,&quot;origRot&quot;:0}" fill="#d3bb76"/><path d="M148.20396,413.62375l-0.08032,-5.74333l12.92252,-0.18076l0.08033,5.74335z" data-paper-data="{&quot;origPos&quot;:null,&quot;origRot&quot;:0}" fill="#d3bb76"/></g><g data-paper-data="{&quot;origPos&quot;:null}" stroke="none"><path d="M370.95503,270.51365l-1.4362,-187.13916l37.26013,3.52423l1.15562,182.87686z" data-paper-data="{&quot;origPos&quot;:null,&quot;origRot&quot;:0}" fill="#d3bb76"/><path d="M369.31727,137.33013l-0.5611,-40.11639l36.75739,-0.51412l0.56109,40.1164z" data-paper-data="{&quot;origPos&quot;:null,&quot;origRot&quot;:0}" fill="#b9a568"/><path d="M363.5189,133.47859l-0.52051,-37.21537l47.95692,-0.67076l0.52052,37.21536z" data-paper-data="{&quot;origPos&quot;:null,&quot;origRot&quot;:0}" fill="#e7cd81"/><path d="M369.46419,127.30166l-0.36148,-25.84504l5.16901,-0.0723l0.36149,25.84505z" data-paper-data="{&quot;origPos&quot;:null,&quot;origRot&quot;:0}" fill="#d3bb76"/><path d="M399.61274,126.59275l-0.36148,-25.84506l5.169,-0.0723l0.36148,25.84505z" data-paper-data="{&quot;origPos&quot;:null,&quot;origRot&quot;:0}" fill="#d3bb76"/><path d="M378.64959,126.88592l-0.36148,-25.84505l5.169,-0.0723l0.36148,25.84506z" data-paper-data="{&quot;origPos&quot;:null,&quot;origRot&quot;:0}" fill="#d3bb76"/><path d="M390.71052,126.71722l-0.36148,-25.84505l5.169,-0.0723l0.36148,25.84505z" data-paper-data="{&quot;origPos&quot;:null,&quot;origRot&quot;:0}" fill="#d3bb76"/><path d="M380.03457,126.65597l-0.08032,-5.74333l12.92253,-0.18075l0.08033,5.74334z" data-paper-data="{&quot;origPos&quot;:null,&quot;origRot&quot;:0}" fill="#d3bb76"/><path d="M380.61897,106.82933l-0.08033,-5.74334l12.92253,-0.18075l0.08032,5.74335z" data-paper-data="{&quot;origPos&quot;:null,&quot;origRot&quot;:0}" fill="#d3bb76"/><path d="M369.8031,213.34355l-0.9017,-64.46904l37.33173,-0.52215l0.9017,64.46904z" data-paper-data="{&quot;origPos&quot;:null,&quot;origRot&quot;:0}" fill="#b9a568"/><path d="M364.00296,209.36046l-0.90673,-64.828l47.95692,-0.67077l0.90673,64.828z" data-paper-data="{&quot;origPos&quot;:null,&quot;origRot&quot;:0}" fill="#e7cd81"/><path d="M371.18697,199.33642l-0.66273,-47.38257l5.169,-0.07229l0.66273,47.38258z" data-paper-data="{&quot;origPos&quot;:null,&quot;origRot&quot;:0}" fill="#b9a568"/><path d="M371.16772,197.95805l-0.66273,-47.38257l5.169,-0.0723l0.66272,47.38258z" data-paper-data="{&quot;origPos&quot;:null,&quot;origRot&quot;:0}" fill="#d3bb76"/><path d="M370.7479,155.62142l-0.0699,-4.9967l24.98354,-0.34944l0.06989,4.99671z" data-paper-data="{&quot;origPos&quot;:null,&quot;origRot&quot;:0}" fill="#d3bb76"/><path d="M391.04369,189.75266l-0.54705,-39.11218l5.16901,-0.0723l0.54705,39.11218z" data-paper-data="{&quot;origPos&quot;:null,&quot;origRot&quot;:0}" fill="#d3bb76"/><path d="M381.05267,190.06476l-0.38076,-27.22345l5.16901,-0.0723l0.38077,27.22346z" data-paper-data="{&quot;origPos&quot;:null,&quot;origRot&quot;:0}" fill="#d3bb76"/><path d="M381.22564,190.11404l-0.07712,-5.51362l14.81784,-0.20725l0.07712,5.51362z" data-paper-data="{&quot;origPos&quot;:null,&quot;origRot&quot;:0}" fill="#d3bb76"/><path d="M371.19975,200.24965l-0.06989,-4.99671l33.94316,-0.47476l0.06989,4.99671z" data-paper-data="{&quot;origPos&quot;:null,&quot;origRot&quot;:0}" fill="#d3bb76"/><path d="M400.83462,199.78342l-0.69166,-49.45019l5.169,-0.0723l0.69164,49.45019z" data-paper-data="{&quot;origPos&quot;:null,&quot;origRot&quot;:0}" fill="#d3bb76"/><path d="M370.90223,261.1246l-0.5611,-40.1164l36.7574,-0.51411l0.56109,40.1164z" data-paper-data="{&quot;origPos&quot;:null,&quot;origRot&quot;:0}" fill="#b9a568"/><path d="M365.10387,257.2729l-0.52052,-37.21536l47.95692,-0.67077l0.52051,37.21537z" data-paper-data="{&quot;origPos&quot;:null,&quot;origRot&quot;:0}" fill="#e7cd81"/><path d="M371.04925,251.09599l-0.36148,-25.84506l5.16901,-0.0723l0.36149,25.84505z" data-paper-data="{&quot;origPos&quot;:null,&quot;origRot&quot;:0}" fill="#d3bb76"/><path d="M401.1978,250.38708l-0.36149,-25.84506l5.169,-0.07229l0.36149,25.84505z" data-paper-data="{&quot;origPos&quot;:null,&quot;origRot&quot;:0}" fill="#d3bb76"/><path d="M380.23452,250.6803l-0.36149,-25.84505l5.16901,-0.0723l0.36148,25.84505z" data-paper-data="{&quot;origPos&quot;:null,&quot;origRot&quot;:0}" fill="#d3bb76"/><path d="M392.29558,250.51162l-0.36148,-25.84506l5.169,-0.0723l0.36148,25.84505z" data-paper-data="{&quot;origPos&quot;:null,&quot;origRot&quot;:0}" fill="#d3bb76"/><path d="M382.204,230.62371l-0.08032,-5.74333l12.92252,-0.18076l0.08033,5.74335z" data-paper-data="{&quot;origPos&quot;:null,&quot;origRot&quot;:0}" fill="#d3bb76"/></g></g></g></svg>