<svg version="1.1" xmlns="http://www.w3.org/2000/svg" xmlns:xlink="http://www.w3.org/1999/xlink" width="405.52046" height="331.06891"><defs><linearGradient x1="436.74515" y1="205.21826" x2="416.25274" y2="224.78837" gradientUnits="userSpaceOnUse" id="color-1"><stop offset="0" stop-color="#8e8e8e"/><stop offset="1" stop-color="#818181"/></linearGradient><linearGradient x1="486.05496" y1="220.6187" x2="511.742" y2="252.4063" gradientUnits="userSpaceOnUse" id="color-2"><stop offset="0" stop-color="#8e8e8e"/><stop offset="1" stop-color="#818181"/></linearGradient><linearGradient x1="366.24331" y1="252.32634" x2="362.75482" y2="284.05724" gradientUnits="userSpaceOnUse" id="color-3"><stop offset="0" stop-color="#8e8e8e"/><stop offset="1" stop-color="#818181"/></linearGradient></defs><g transform="translate(-261.47954,-138.13109)"><g data-paper-data="{&quot;isPaintingLayer&quot;:true}" fill="none" fill-rule="nonzero" stroke="none" stroke-width="none" stroke-linecap="butt" stroke-linejoin="miter" stroke-miterlimit="10" stroke-dasharray="" stroke-dashoffset="0" font-family="none" font-weight="none" font-size="none" text-anchor="none" style="mix-blend-mode: normal"><path d="M301.73832,240.80003v-80h358.27103v80z" data-paper-data="{&quot;origPos&quot;:null}" fill="#847968" stroke-width="NaN"/><path d="M298.24299,226.80003v-40h361.76636v40z" data-paper-data="{&quot;origPos&quot;:null}" fill="#7c7262" stroke-width="0"/><path d="M296.49533,469.2v-252h361.76636v252z" data-paper-data="{&quot;origPos&quot;:null}" fill="#786e5f" stroke-width="0"/><path d="M301.73832,168.80009v-9h365.26168v9z" data-paper-data="{&quot;origPos&quot;:null}" fill="#61584c" stroke-width="0"/><path d="M293,163.80009v-19h365.26168v19z" data-paper-data="{&quot;origPos&quot;:null}" fill="#91b782" stroke-width="0"/><path d="M294.74767,163.80009v-12h365.26168v12z" data-paper-data="{&quot;origPos&quot;:null}" fill="#8aaf7c" stroke-width="0"/><g data-paper-data="{&quot;origPos&quot;:null}"><path d="M409.55047,216.70852l8.28566,-14.35289l22.20779,6.88753l-7.94537,21.95397l-16.06516,-1.37884z" data-paper-data="{&quot;origPos&quot;:null,&quot;origRot&quot;:0}" fill="#534c42" stroke-width="0"/><path d="M412.45633,215.14009l7.43586,-12.88079l19.93006,6.18112l-7.13047,19.70227l-14.41745,-1.23742z" data-paper-data="{&quot;origPos&quot;:null,&quot;origRot&quot;:0}" fill="url(#color-1)" stroke-width="NaN"/></g><g data-paper-data="{&quot;origPos&quot;:null,&quot;origRot&quot;:0}" stroke-width="0"><path d="M293.3869,430.64005l-26.91969,-289.07985l36.82385,-3.42911l26.91969,289.07986z" data-paper-data="{&quot;origPos&quot;:null}" fill="#d3bb76"/><path d="M273.58696,216.42251l-5.97821,-64.19759l37.17454,-3.46177l5.97821,64.19759z" data-paper-data="{&quot;origPos&quot;:null}" fill="#b9a568"/><path d="M267.49103,212.90873l-6.01149,-64.55504l47.755,-4.44704l6.01149,64.55504z" data-paper-data="{&quot;origPos&quot;:null}" fill="#e7cd81"/><path d="M273.86293,202.34989l-4.39378,-47.18307l5.14724,-0.47932l4.39378,47.18308z" data-paper-data="{&quot;origPos&quot;:null}" fill="#b9a568"/><path d="M273.73509,200.97722l-4.39378,-47.18307l5.14724,-0.47932l4.39378,47.18308z" data-paper-data="{&quot;origPos&quot;:null}" fill="#d3bb76"/><path d="M269.98103,158.80538l-0.46334,-4.97567l24.87835,-2.31672l0.46334,4.97567z" data-paper-data="{&quot;origPos&quot;:null}" fill="#d3bb76"/><path d="M292.90281,191.23144l-3.62687,-38.94749l5.14725,-0.47932l3.62687,38.94749z" data-paper-data="{&quot;origPos&quot;:null}" fill="#d3bb76"/><path d="M282.96745,192.32966l-2.52443,-27.10882l5.14725,-0.47932l2.52443,27.10882z" data-paper-data="{&quot;origPos&quot;:null}" fill="#d3bb76"/><path d="M283.14381,192.36521l-0.51128,-5.4904l14.75544,-1.37406l0.51128,5.4904z" data-paper-data="{&quot;origPos&quot;:null}" fill="#d3bb76"/><path d="M273.94759,203.25919l-0.46334,-4.97567l33.80024,-3.14755l0.46334,4.97567z" data-paper-data="{&quot;origPos&quot;:null}" fill="#d3bb76"/><path d="M303.45367,200.45958l-4.58551,-49.24198l5.14724,-0.47932l4.58551,49.24198z" data-paper-data="{&quot;origPos&quot;:null}" fill="#d3bb76"/><path d="M285.91313,338.00336l-5.97821,-64.19759l37.17454,-3.46177l5.97821,64.19759z" data-paper-data="{&quot;origPos&quot;:null}" fill="#b9a568"/><path d="M279.81721,334.48963l-6.01149,-64.55504l47.755,-4.44704l6.01149,64.55504z" data-paper-data="{&quot;origPos&quot;:null}" fill="#e7cd81"/><path d="M286.18911,323.93075l-4.39378,-47.18307l5.14724,-0.47932l4.39378,47.18308z" data-paper-data="{&quot;origPos&quot;:null}" fill="#b9a568"/><path d="M286.06129,322.55814l-4.39378,-47.18307l5.14724,-0.47932l4.39378,47.18308z" data-paper-data="{&quot;origPos&quot;:null}" fill="#d3bb76"/><path d="M282.30721,280.38624l-0.46334,-4.97567l24.87835,-2.31672l0.46334,4.97567z" data-paper-data="{&quot;origPos&quot;:null}" fill="#d3bb76"/><path d="M305.22899,312.81233l-3.62687,-38.94749l5.14725,-0.47932l3.62687,38.94749z" data-paper-data="{&quot;origPos&quot;:null}" fill="#d3bb76"/><path d="M295.29362,313.9106l-2.52443,-27.10882l5.14725,-0.47932l2.52443,27.10882z" data-paper-data="{&quot;origPos&quot;:null}" fill="#d3bb76"/><path d="M295.46998,313.9461l-0.51128,-5.4904l14.75544,-1.37406l0.51128,5.4904z" data-paper-data="{&quot;origPos&quot;:null}" fill="#d3bb76"/><path d="M286.27377,324.84009l-0.46334,-4.97567l33.80024,-3.14755l0.46334,4.97567z" data-paper-data="{&quot;origPos&quot;:null}" fill="#d3bb76"/><path d="M315.77985,322.04051l-4.58551,-49.24198l5.14724,-0.47932l4.58551,49.24198z" data-paper-data="{&quot;origPos&quot;:null}" fill="#d3bb76"/><path d="M290.77335,385.54921l-3.71999,-39.9475l36.60263,-3.40851l3.71999,39.9475z" data-paper-data="{&quot;origPos&quot;:null}" fill="#b9a568"/><path d="M284.68962,382.16642l-3.45098,-37.05868l47.755,-4.44704l3.45098,37.05868z" data-paper-data="{&quot;origPos&quot;:null}" fill="#e7cd81"/><path d="M290.12976,375.5403l-2.39661,-25.73623l5.14725,-0.47932l2.39661,25.73623z" data-paper-data="{&quot;origPos&quot;:null}" fill="#d3bb76"/><path d="M320.12874,372.45828l-2.39661,-25.73623l5.14724,-0.47932l2.39661,25.73623z" data-paper-data="{&quot;origPos&quot;:null}" fill="#d3bb76"/><path d="M299.25379,374.40219l-2.39661,-25.73623l5.14724,-0.47932l2.39661,25.73623z" data-paper-data="{&quot;origPos&quot;:null}" fill="#d3bb76"/><path d="M311.26403,373.28376l-2.39661,-25.73623l5.14724,-0.47932l2.39661,25.73623z" data-paper-data="{&quot;origPos&quot;:null}" fill="#d3bb76"/><path d="M300.6164,374.0638l-0.53258,-5.71916l12.86812,-1.1983l0.53258,5.71916z" data-paper-data="{&quot;origPos&quot;:null}" fill="#d3bb76"/><path d="M299.63687,354.25281l-0.53258,-5.71917l12.86812,-1.1983l0.53258,5.71917z" data-paper-data="{&quot;origPos&quot;:null}" fill="#d3bb76"/><path d="M278.44718,263.96835l-3.71999,-39.9475l36.60263,-3.40851l3.71999,39.9475z" data-paper-data="{&quot;origPos&quot;:null}" fill="#b9a568"/><path d="M272.36344,260.58547l-3.45098,-37.05868l47.755,-4.44704l3.45098,37.05868z" data-paper-data="{&quot;origPos&quot;:null}" fill="#e7cd81"/><path d="M277.80359,253.9594l-2.39661,-25.73623l5.14725,-0.47932l2.39661,25.73623z" data-paper-data="{&quot;origPos&quot;:null}" fill="#d3bb76"/><path d="M307.80256,250.8773l-2.39661,-25.73623l5.14724,-0.47932l2.39661,25.73623z" data-paper-data="{&quot;origPos&quot;:null}" fill="#d3bb76"/><path d="M286.92761,252.82124l-2.39661,-25.73623l5.14724,-0.47932l2.39661,25.73623z" data-paper-data="{&quot;origPos&quot;:null}" fill="#d3bb76"/><path d="M298.93785,251.70286l-2.39661,-25.73623l5.14724,-0.47932l2.39661,25.73623z" data-paper-data="{&quot;origPos&quot;:null}" fill="#d3bb76"/><path d="M288.29021,252.48286l-0.53258,-5.71916l12.86812,-1.1983l0.53258,5.71916z" data-paper-data="{&quot;origPos&quot;:null}" fill="#d3bb76"/><path d="M287.3107,232.67188l-0.53258,-5.71917l12.86812,-1.1983l0.53258,5.71917z" data-paper-data="{&quot;origPos&quot;:null}" fill="#d3bb76"/></g><g data-paper-data="{&quot;origPos&quot;:null,&quot;origRot&quot;:0}"><path d="M499.32945,261.07696l-19.64286,-13.62024l12.54682,-31.0999l30.60898,14.03708l-3.89667,22.92723z" data-paper-data="{&quot;origPos&quot;:null,&quot;origRot&quot;:0}" fill="#534c42" stroke-width="0"/><path d="M497.42132,256.71325l-17.6282,-12.22331l11.25997,-27.91015l27.46958,12.59739l-3.49701,20.57572z" data-paper-data="{&quot;origPos&quot;:null,&quot;origRot&quot;:0}" fill="url(#color-2)" stroke-width="NaN"/></g><g data-paper-data="{&quot;origPos&quot;:null,&quot;origRot&quot;:0}"><path d="M351.11823,281.94692l-3.2574,-18.38386l24.14474,-10.15653l9.06025,24.69257l-14.8544,10.4551z" data-paper-data="{&quot;origPos&quot;:null,&quot;origRot&quot;:0}" fill="#534c42" stroke-width="0"/><path d="M352.48747,278.48803l-2.92329,-16.49834l21.66835,-9.11482l8.13097,22.16l-13.33088,9.38278z" data-paper-data="{&quot;origPos&quot;:null,&quot;origRot&quot;:0}" fill="url(#color-3)" stroke-width="NaN"/></g></g></g></svg>