<svg version="1.1" xmlns="http://www.w3.org/2000/svg" xmlns:xlink="http://www.w3.org/1999/xlink" width="325.95453" height="340.31315"><defs><linearGradient x1="283.74515" y1="330.21826" x2="263.25274" y2="349.78837" gradientUnits="userSpaceOnUse" id="color-1"><stop offset="0" stop-color="#8e8e8e"/><stop offset="1" stop-color="#818181"/></linearGradient><linearGradient x1="278.05496" y1="252.6187" x2="303.742" y2="284.4063" gradientUnits="userSpaceOnUse" id="color-2"><stop offset="0" stop-color="#8e8e8e"/><stop offset="1" stop-color="#818181"/></linearGradient><linearGradient x1="371.24331" y1="291.32634" x2="367.75482" y2="323.05724" gradientUnits="userSpaceOnUse" id="color-3"><stop offset="0" stop-color="#8e8e8e"/><stop offset="1" stop-color="#818181"/></linearGradient><linearGradient x1="394.74515" y1="230.21826" x2="374.25274" y2="249.78837" gradientUnits="userSpaceOnUse" id="color-4"><stop offset="0" stop-color="#8e8e8e"/><stop offset="1" stop-color="#818181"/></linearGradient><linearGradient x1="167.05496" y1="465.8187" x2="192.742" y2="497.6063" gradientUnits="userSpaceOnUse" id="color-5"><stop offset="0" stop-color="#8e8e8e"/><stop offset="1" stop-color="#818181"/></linearGradient><linearGradient x1="191.74515" y1="454.41826" x2="171.25274" y2="473.98837" gradientUnits="userSpaceOnUse" id="color-6"><stop offset="0" stop-color="#8e8e8e"/><stop offset="1" stop-color="#818181"/></linearGradient></defs><g transform="translate(-160.68659,-165.96382)"><g data-paper-data="{&quot;isPaintingLayer&quot;:true}" fill="none" fill-rule="nonzero" stroke="none" stroke-width="none" stroke-linecap="butt" stroke-linejoin="miter" stroke-miterlimit="10" stroke-dasharray="" stroke-dashoffset="0" font-family="none" font-weight="none" font-size="none" text-anchor="none" style="mix-blend-mode: normal"><path d="M203.1215,272.80003v-80h250.98131v80z" data-paper-data="{&quot;origPos&quot;:null}" fill="#847968" stroke-width="NaN"/><path d="M200.6729,258.80003v-40h253.42991v40z" data-paper-data="{&quot;origPos&quot;:null}" fill="#7c7262" stroke-width="0"/><path d="M199.4486,501.19999v-252h253.42991v252z" data-paper-data="{&quot;origPos&quot;:null}" fill="#786e5f" stroke-width="0"/><path d="M203.1215,200.80008v-9h255.8785v9z" data-paper-data="{&quot;origPos&quot;:null}" fill="#61584c" stroke-width="0"/><path d="M197,195.80008v-19h255.8785v19z" data-paper-data="{&quot;origPos&quot;:null}" fill="#91b782" stroke-width="0"/><path d="M198.2243,195.80008v-12h255.8785v12z" data-paper-data="{&quot;origPos&quot;:null}" fill="#8aaf7c" stroke-width="0"/><g data-paper-data="{&quot;origPos&quot;:null}"><path d="M256.55047,341.70852l8.28566,-14.35289l22.20779,6.88753l-7.94537,21.95397l-16.06516,-1.37884z" data-paper-data="{&quot;origPos&quot;:null,&quot;origRot&quot;:0}" fill="#534c42" stroke-width="0"/><path d="M259.45633,340.14009l7.43586,-12.88079l19.93006,6.18112l-7.13047,19.70227l-14.41745,-1.23742z" data-paper-data="{&quot;origPos&quot;:null,&quot;origRot&quot;:0}" fill="url(#color-1)" stroke-width="NaN"/></g><g data-paper-data="{&quot;origPos&quot;:null,&quot;origRot&quot;:0}"><path d="M291.32945,293.07696l-19.64286,-13.62024l12.54682,-31.0999l30.60898,14.03708l-3.89667,22.92723z" data-paper-data="{&quot;origPos&quot;:null,&quot;origRot&quot;:0}" fill="#534c42" stroke-width="0"/><path d="M289.42132,288.71325l-17.6282,-12.22331l11.25997,-27.91015l27.46958,12.59739l-3.49701,20.57572z" data-paper-data="{&quot;origPos&quot;:null,&quot;origRot&quot;:0}" fill="url(#color-2)" stroke-width="NaN"/></g><g data-paper-data="{&quot;origPos&quot;:null,&quot;origRot&quot;:0}"><path d="M356.11823,320.94692l-3.2574,-18.38386l24.14474,-10.15653l9.06025,24.69257l-14.8544,10.4551z" data-paper-data="{&quot;origPos&quot;:null,&quot;origRot&quot;:0}" fill="#534c42" stroke-width="0"/><path d="M357.48747,317.48803l-2.92329,-16.49834l21.66835,-9.11482l8.13097,22.16l-13.33088,9.38278z" data-paper-data="{&quot;origPos&quot;:null,&quot;origRot&quot;:0}" fill="url(#color-3)" stroke-width="NaN"/></g><g data-paper-data="{&quot;origPos&quot;:null}"><path d="M367.55047,241.70851l8.28566,-14.35289l22.20779,6.88753l-7.94537,21.95397l-16.06516,-1.37884z" data-paper-data="{&quot;origPos&quot;:null,&quot;origRot&quot;:0}" fill="#534c42" stroke-width="0"/><path d="M370.45633,240.14009l7.43586,-12.88079l19.93006,6.18112l-7.13047,19.70227l-14.41745,-1.23742z" data-paper-data="{&quot;origPos&quot;:null,&quot;origRot&quot;:0}" fill="url(#color-4)" stroke-width="NaN"/></g><g data-paper-data="{&quot;origPos&quot;:null,&quot;origRot&quot;:0}"><path d="M180.32945,506.27696l-19.64286,-13.62024l12.54682,-31.0999l30.60898,14.03708l-3.89667,22.92723z" data-paper-data="{&quot;origPos&quot;:null,&quot;origRot&quot;:0}" fill="#534c42" stroke-width="0"/><path d="M178.42132,501.91325l-17.6282,-12.22331l11.25997,-27.91015l27.46958,12.59739l-3.49701,20.57572z" data-paper-data="{&quot;origPos&quot;:null,&quot;origRot&quot;:0}" fill="url(#color-5)" stroke-width="NaN"/></g><g data-paper-data="{&quot;origPos&quot;:null}"><path d="M164.55047,465.90851l8.28566,-14.35289l22.20779,6.88753l-7.94537,21.95397l-16.06516,-1.37884z" data-paper-data="{&quot;origPos&quot;:null,&quot;origRot&quot;:0}" fill="#534c42" stroke-width="0"/><path d="M167.45633,464.34009l7.43586,-12.88079l19.93006,6.18112l-7.13047,19.70227l-14.41745,-1.23742z" data-paper-data="{&quot;origPos&quot;:null,&quot;origRot&quot;:0}" fill="url(#color-6)" stroke-width="NaN"/></g><g data-paper-data="{&quot;origPos&quot;:null}" stroke-width="0"><path d="M169.84481,459.29437v-290.33055h36.98317v290.33056z" data-paper-data="{&quot;origPos&quot;:null}" fill="#d3bb76"/><path d="M169.9926,244.16378v-64.47534h37.33538v64.47534z" data-paper-data="{&quot;origPos&quot;:null}" fill="#b9a568"/><path d="M164.24872,240.09997v-64.83434h47.96161v64.83434z" data-paper-data="{&quot;origPos&quot;:null}" fill="#e7cd81"/><path d="M171.57221,230.17735v-47.38721h5.16951v47.38722z" data-paper-data="{&quot;origPos&quot;:null}" fill="#b9a568"/><path d="M171.57216,228.79882v-47.38721h5.16951v47.38722z" data-paper-data="{&quot;origPos&quot;:null}" fill="#d3bb76"/><path d="M171.74449,186.46056v-4.9972h24.98599v4.9972z" data-paper-data="{&quot;origPos&quot;:null}" fill="#d3bb76"/><path d="M191.56095,220.87224v-39.116h5.16952v39.116z" data-paper-data="{&quot;origPos&quot;:null}" fill="#d3bb76"/><path d="M181.56655,221.04456v-27.22611h5.16952v27.22611z" data-paper-data="{&quot;origPos&quot;:null}" fill="#d3bb76"/><path d="M181.73886,221.09623v-5.51415h14.81928v5.51415z" data-paper-data="{&quot;origPos&quot;:null}" fill="#d3bb76"/><path d="M171.57216,231.09065v-4.9972h33.94648v4.9972z" data-paper-data="{&quot;origPos&quot;:null}" fill="#d3bb76"/><path d="M201.21071,231.03893v-49.45502h5.16951v49.45502z" data-paper-data="{&quot;origPos&quot;:null}" fill="#d3bb76"/><path d="M170.9926,366.36384v-64.47534h37.33538v64.47534z" data-paper-data="{&quot;origPos&quot;:null}" fill="#b9a568"/><path d="M165.24872,362.29995v-64.83434h47.96161v64.83434z" data-paper-data="{&quot;origPos&quot;:null}" fill="#e7cd81"/><path d="M172.57221,352.3774v-47.38721h5.16951v47.38722z" data-paper-data="{&quot;origPos&quot;:null}" fill="#b9a568"/><path d="M172.57221,350.99884v-47.38721h5.16951v47.38722z" data-paper-data="{&quot;origPos&quot;:null}" fill="#d3bb76"/><path d="M172.74449,308.66054v-4.9972h24.98599v4.9972z" data-paper-data="{&quot;origPos&quot;:null}" fill="#d3bb76"/><path d="M192.56095,343.07229v-39.116h5.16952v39.116z" data-paper-data="{&quot;origPos&quot;:null}" fill="#d3bb76"/><path d="M182.56655,343.24461v-27.22611h5.16952v27.22611z" data-paper-data="{&quot;origPos&quot;:null}" fill="#d3bb76"/><path d="M182.73886,343.2963v-5.51415h14.81928v5.51415z" data-paper-data="{&quot;origPos&quot;:null}" fill="#d3bb76"/><path d="M172.57216,353.2907v-4.9972h33.94648v4.9972z" data-paper-data="{&quot;origPos&quot;:null}" fill="#d3bb76"/><path d="M202.21071,353.23901v-49.45502h5.16951v49.45502z" data-paper-data="{&quot;origPos&quot;:null}" fill="#d3bb76"/><path d="M171.42339,414.15545v-40.12033h36.76099v40.12033z" data-paper-data="{&quot;origPos&quot;:null}" fill="#b9a568"/><path d="M165.67951,410.22318v-37.21901h47.96161v37.21901z" data-paper-data="{&quot;origPos&quot;:null}" fill="#e7cd81"/><path d="M171.71058,404.13001v-25.84758h5.16952v25.84758z" data-paper-data="{&quot;origPos&quot;:null}" fill="#d3bb76"/><path d="M201.86611,403.84277v-25.84758h5.16951v25.84758z" data-paper-data="{&quot;origPos&quot;:null}" fill="#d3bb76"/><path d="M180.90083,403.84277v-25.84758h5.16951v25.84758z" data-paper-data="{&quot;origPos&quot;:null}" fill="#d3bb76"/><path d="M192.96303,403.84277v-25.84758h5.16951v25.84758z" data-paper-data="{&quot;origPos&quot;:null}" fill="#d3bb76"/><path d="M182.28894,403.63217v-5.7439h12.92379v5.7439z" data-paper-data="{&quot;origPos&quot;:null}" fill="#d3bb76"/><path d="M183.15052,383.81571v-5.74391h12.92379v5.74391z" data-paper-data="{&quot;origPos&quot;:null}" fill="#d3bb76"/><path d="M170.42339,291.95547v-40.12033h36.76099v40.12033z" data-paper-data="{&quot;origPos&quot;:null}" fill="#b9a568"/><path d="M164.67951,288.02317v-37.21901h47.96161v37.21901z" data-paper-data="{&quot;origPos&quot;:null}" fill="#e7cd81"/><path d="M170.71058,281.92999v-25.84758h5.16952v25.84758z" data-paper-data="{&quot;origPos&quot;:null}" fill="#d3bb76"/><path d="M200.86611,281.6427v-25.84758h5.16951v25.84758z" data-paper-data="{&quot;origPos&quot;:null}" fill="#d3bb76"/><path d="M179.90083,281.6427v-25.84758h5.16951v25.84758z" data-paper-data="{&quot;origPos&quot;:null}" fill="#d3bb76"/><path d="M191.96303,281.6427v-25.84758h5.16951v25.84758z" data-paper-data="{&quot;origPos&quot;:null}" fill="#d3bb76"/><path d="M181.28893,281.4321v-5.7439h12.92379v5.7439z" data-paper-data="{&quot;origPos&quot;:null}" fill="#d3bb76"/><path d="M182.15052,261.61564v-5.74391h12.92379v5.74391z" data-paper-data="{&quot;origPos&quot;:null}" fill="#d3bb76"/></g><g data-paper-data="{&quot;origPos&quot;:null}" stroke-width="0"><path d="M442.84481,456.29437v-290.33055h36.98317v290.33056z" data-paper-data="{&quot;origPos&quot;:null}" fill="#d3bb76"/><path d="M442.9926,241.16378v-64.47534h37.33538v64.47534z" data-paper-data="{&quot;origPos&quot;:null}" fill="#b9a568"/><path d="M437.24872,237.09997v-64.83434h47.96161v64.83434z" data-paper-data="{&quot;origPos&quot;:null}" fill="#e7cd81"/><path d="M444.57221,227.17735v-47.38721h5.16951v47.38722z" data-paper-data="{&quot;origPos&quot;:null}" fill="#b9a568"/><path d="M444.57216,225.79882v-47.38721h5.16951v47.38722z" data-paper-data="{&quot;origPos&quot;:null}" fill="#d3bb76"/><path d="M444.74449,183.46056v-4.9972h24.98599v4.9972z" data-paper-data="{&quot;origPos&quot;:null}" fill="#d3bb76"/><path d="M464.56095,217.87224v-39.116h5.16952v39.116z" data-paper-data="{&quot;origPos&quot;:null}" fill="#d3bb76"/><path d="M454.56655,218.04456v-27.22611h5.16952v27.22611z" data-paper-data="{&quot;origPos&quot;:null}" fill="#d3bb76"/><path d="M454.73886,218.09623v-5.51415h14.81928v5.51415z" data-paper-data="{&quot;origPos&quot;:null}" fill="#d3bb76"/><path d="M444.57216,228.09065v-4.9972h33.94648v4.9972z" data-paper-data="{&quot;origPos&quot;:null}" fill="#d3bb76"/><path d="M474.2107,228.03893v-49.45502h5.16951v49.45502z" data-paper-data="{&quot;origPos&quot;:null}" fill="#d3bb76"/><path d="M443.9926,363.36384v-64.47534h37.33538v64.47534z" data-paper-data="{&quot;origPos&quot;:null}" fill="#b9a568"/><path d="M438.24872,359.29995v-64.83434h47.96161v64.83434z" data-paper-data="{&quot;origPos&quot;:null}" fill="#e7cd81"/><path d="M445.57221,349.3774v-47.38721h5.16951v47.38722z" data-paper-data="{&quot;origPos&quot;:null}" fill="#b9a568"/><path d="M445.57221,347.99884v-47.38721h5.16951v47.38722z" data-paper-data="{&quot;origPos&quot;:null}" fill="#d3bb76"/><path d="M445.74449,305.66054v-4.9972h24.98599v4.9972z" data-paper-data="{&quot;origPos&quot;:null}" fill="#d3bb76"/><path d="M465.56095,340.07229v-39.116h5.16952v39.116z" data-paper-data="{&quot;origPos&quot;:null}" fill="#d3bb76"/><path d="M455.56655,340.24461v-27.22611h5.16952v27.22611z" data-paper-data="{&quot;origPos&quot;:null}" fill="#d3bb76"/><path d="M455.73886,340.2963v-5.51415h14.81928v5.51415z" data-paper-data="{&quot;origPos&quot;:null}" fill="#d3bb76"/><path d="M445.57216,350.2907v-4.9972h33.94648v4.9972z" data-paper-data="{&quot;origPos&quot;:null}" fill="#d3bb76"/><path d="M475.2107,350.23901v-49.45502h5.16951v49.45502z" data-paper-data="{&quot;origPos&quot;:null}" fill="#d3bb76"/><path d="M444.42339,411.15545v-40.12033h36.76099v40.12033z" data-paper-data="{&quot;origPos&quot;:null}" fill="#b9a568"/><path d="M438.67951,407.22318v-37.21901h47.96161v37.21901z" data-paper-data="{&quot;origPos&quot;:null}" fill="#e7cd81"/><path d="M444.71058,401.13001v-25.84758h5.16952v25.84758z" data-paper-data="{&quot;origPos&quot;:null}" fill="#d3bb76"/><path d="M474.86611,400.84277v-25.84758h5.16951v25.84758z" data-paper-data="{&quot;origPos&quot;:null}" fill="#d3bb76"/><path d="M453.90083,400.84277v-25.84758h5.16951v25.84758z" data-paper-data="{&quot;origPos&quot;:null}" fill="#d3bb76"/><path d="M465.96303,400.84277v-25.84758h5.16951v25.84758z" data-paper-data="{&quot;origPos&quot;:null}" fill="#d3bb76"/><path d="M455.28894,400.63217v-5.7439h12.92379v5.7439z" data-paper-data="{&quot;origPos&quot;:null}" fill="#d3bb76"/><path d="M456.15052,380.81571v-5.74391h12.92379v5.74391z" data-paper-data="{&quot;origPos&quot;:null}" fill="#d3bb76"/><path d="M443.42339,288.95547v-40.12033h36.76099v40.12033z" data-paper-data="{&quot;origPos&quot;:null}" fill="#b9a568"/><path d="M437.67951,285.02317v-37.21901h47.96161v37.21901z" data-paper-data="{&quot;origPos&quot;:null}" fill="#e7cd81"/><path d="M443.71058,278.92999v-25.84758h5.16952v25.84758z" data-paper-data="{&quot;origPos&quot;:null}" fill="#d3bb76"/><path d="M473.86611,278.6427v-25.84758h5.16951v25.84758z" data-paper-data="{&quot;origPos&quot;:null}" fill="#d3bb76"/><path d="M452.90083,278.6427v-25.84758h5.16951v25.84758z" data-paper-data="{&quot;origPos&quot;:null}" fill="#d3bb76"/><path d="M464.96303,278.6427v-25.84758h5.16951v25.84758z" data-paper-data="{&quot;origPos&quot;:null}" fill="#d3bb76"/><path d="M454.28893,278.4321v-5.7439h12.92379v5.7439z" data-paper-data="{&quot;origPos&quot;:null}" fill="#d3bb76"/><path d="M455.15052,258.61564v-5.74391h12.92379v5.74391z" data-paper-data="{&quot;origPos&quot;:null}" fill="#d3bb76"/></g></g></g></svg>