<svg version="1.1" xmlns="http://www.w3.org/2000/svg" xmlns:xlink="http://www.w3.org/1999/xlink" width="483.81251" height="526.78543"><defs><linearGradient x1="499.74519" y1="332.41827" x2="479.25278" y2="351.98838" gradientUnits="userSpaceOnUse" id="color-1"><stop offset="0" stop-color="#8e8e8e"/><stop offset="1" stop-color="#818181"/></linearGradient><linearGradient x1="414.24332" y1="286.32634" x2="410.75483" y2="318.05728" gradientUnits="userSpaceOnUse" id="color-2"><stop offset="0" stop-color="#8e8e8e"/><stop offset="1" stop-color="#818181"/></linearGradient></defs><g transform="translate(-113.6066,-132.82826)"><g data-paper-data="{&quot;isPaintingLayer&quot;:true}" fill="none" fill-rule="nonzero" stroke="none" stroke-width="none" stroke-linecap="butt" stroke-linejoin="miter" stroke-miterlimit="10" stroke-dasharray="" stroke-dashoffset="0" font-family="none" font-weight="none" font-size="none" text-anchor="none" style="mix-blend-mode: normal"><path d="M336.90793,329.00005v-80h241.41026v80z" data-paper-data="{&quot;origPos&quot;:null}" fill="#847968" stroke-width="NaN"/><path d="M372.90793,315.00001v-40h185.76923v40z" data-paper-data="{&quot;origPos&quot;:null}" fill="#7c7262" stroke-width="0"/><path d="M367.80539,557.40001v-252h185.76922v252z" data-paper-data="{&quot;origPos&quot;:null}" fill="#786e5f" stroke-width="0"/><path d="M363.31819,257.00005v-9h187.56411v9z" data-paper-data="{&quot;origPos&quot;:null}" fill="#61584c" stroke-width="0"/><path d="M367.80539,252.00006v-19h187.56409v19z" data-paper-data="{&quot;origPos&quot;:null}" fill="#91b782" stroke-width="0"/><path d="M366.90793,252.00006v-12h187.56411v12z" data-paper-data="{&quot;origPos&quot;:null}" fill="#8aaf7c" stroke-width="0"/><g data-paper-data="{&quot;origPos&quot;:null,&quot;origRot&quot;:0,&quot;index&quot;:null}" stroke-width="0"><path d="M547.21584,515.2751l7.00234,-290.24609l36.97241,0.89198l-7.00234,290.2461z" data-paper-data="{&quot;origPos&quot;:null}" fill="#d3bb76"/><path d="M552.55223,300.21064l1.55505,-64.45659l37.32452,0.90048l-1.55505,64.45659z" data-paper-data="{&quot;origPos&quot;:null}" fill="#b9a568"/><path d="M546.90802,296.0095l1.56371,-64.81548l47.94766,1.15676l-1.56371,64.81548z" data-paper-data="{&quot;origPos&quot;:null}" fill="#e7cd81"/><path d="M554.46872,286.26641l1.14291,-47.37342l5.16801,0.12468l-1.14291,47.37344z" data-paper-data="{&quot;origPos&quot;:null}" fill="#b9a568"/><path d="M554.50194,284.88829l1.14291,-47.37342l5.168,0.12468l-1.14291,47.37343z" data-paper-data="{&quot;origPos&quot;:null}" fill="#d3bb76"/><path d="M555.69535,242.56645l0.12052,-4.99575l24.97872,0.60262l-0.12053,4.99575z" data-paper-data="{&quot;origPos&quot;:null}" fill="#d3bb76"/><path d="M574.67608,277.44612l0.94342,-39.10462l5.16801,0.12468l-0.94342,39.10462z" data-paper-data="{&quot;origPos&quot;:null}" fill="#d3bb76"/><path d="M564.68047,277.3773l0.65665,-27.21819l5.16802,0.12468l-0.65666,27.21819z" data-paper-data="{&quot;origPos&quot;:null}" fill="#d3bb76"/><path d="M564.85146,277.43314l0.133,-5.51254l14.81497,0.35743l-0.13299,5.51254z" data-paper-data="{&quot;origPos&quot;:null}" fill="#d3bb76"/><path d="M554.44668,287.17939l0.12052,-4.99574l33.9366,0.81874l-0.12053,4.99574z" data-paper-data="{&quot;origPos&quot;:null}" fill="#d3bb76"/><path d="M584.07782,287.84253l1.19278,-49.44063l5.168,0.12468l-1.19278,49.44064z" data-paper-data="{&quot;origPos&quot;:null}" fill="#d3bb76"/><path d="M550.60466,422.39926l1.55505,-64.45658l37.32452,0.90047l-1.55505,64.45658z" data-paper-data="{&quot;origPos&quot;:null}" fill="#b9a568"/><path d="M544.96048,418.19809l1.56371,-64.81548l47.94765,1.15677l-1.56371,64.81548z" data-paper-data="{&quot;origPos&quot;:null}" fill="#e7cd81"/><path d="M552.52113,408.45501l1.14291,-47.37342l5.168,0.12468l-1.1429,47.37343z" data-paper-data="{&quot;origPos&quot;:null}" fill="#b9a568"/><path d="M552.55436,407.07687l1.14291,-47.37343l5.168,0.12468l-1.14291,47.37343z" data-paper-data="{&quot;origPos&quot;:null}" fill="#d3bb76"/><path d="M553.74776,364.75502l0.12052,-4.99574l24.97872,0.60263l-0.12053,4.99575z" data-paper-data="{&quot;origPos&quot;:null}" fill="#d3bb76"/><path d="M572.72849,399.6347l0.94342,-39.10462l5.16802,0.12468l-0.94342,39.10462z" data-paper-data="{&quot;origPos&quot;:null}" fill="#d3bb76"/><path d="M562.73286,399.5659l0.65666,-27.21819l5.16802,0.12468l-0.65665,27.21819z" data-paper-data="{&quot;origPos&quot;:null}" fill="#d3bb76"/><path d="M562.90388,399.62169l0.13299,-5.51254l14.81497,0.35742l-0.133,5.51255z" data-paper-data="{&quot;origPos&quot;:null}" fill="#d3bb76"/><path d="M552.49907,409.36802l0.12052,-4.99574l33.93661,0.81874l-0.12052,4.99575z" data-paper-data="{&quot;origPos&quot;:null}" fill="#d3bb76"/><path d="M582.13024,410.03116l1.19278,-49.44063l5.168,0.12468l-1.19278,49.44063z" data-paper-data="{&quot;origPos&quot;:null}" fill="#d3bb76"/><path d="M549.88267,470.18741l0.96764,-40.10866l36.7503,0.88662l-0.96765,40.10866z" data-paper-data="{&quot;origPos&quot;:null}" fill="#b9a568"/><path d="M544.23529,466.11766l0.89767,-37.20819l47.94766,1.15677l-0.89766,37.20818z" data-paper-data="{&quot;origPos&quot;:null}" fill="#e7cd81"/><path d="M550.41158,460.17174l0.62341,-25.84007l5.16801,0.12468l-0.62341,25.84006z" data-paper-data="{&quot;origPos&quot;:null}" fill="#d3bb76"/><path d="M580.56526,460.61195l0.62341,-25.84006l5.16801,0.12468l-0.62341,25.84006z" data-paper-data="{&quot;origPos&quot;:null}" fill="#d3bb76"/><path d="M559.6061,460.10629l0.62341,-25.84006l5.168,0.12468l-0.6234,25.84006z" data-paper-data="{&quot;origPos&quot;:null}" fill="#d3bb76"/><path d="M571.6648,460.3972l0.62341,-25.84006l5.168,0.12468l-0.62341,25.84006z" data-paper-data="{&quot;origPos&quot;:null}" fill="#d3bb76"/><path d="M560.99889,459.92923l0.13854,-5.74223l12.92003,0.3117l-0.13854,5.74223z" data-paper-data="{&quot;origPos&quot;:null}" fill="#d3bb76"/><path d="M562.33816,440.13931l0.13854,-5.74224l12.92003,0.3117l-0.13854,5.74224z" data-paper-data="{&quot;origPos&quot;:null}" fill="#d3bb76"/><path d="M551.83021,347.99883l0.96765,-40.10866l36.75029,0.88662l-0.96764,40.10867z" data-paper-data="{&quot;origPos&quot;:null}" fill="#b9a568"/><path d="M546.18289,343.92908l0.89767,-37.20819l47.94766,1.15676l-0.89766,37.20819z" data-paper-data="{&quot;origPos&quot;:null}" fill="#e7cd81"/><path d="M552.35916,337.98316l0.62341,-25.84006l5.16801,0.12468l-0.6234,25.84006z" data-paper-data="{&quot;origPos&quot;:null}" fill="#d3bb76"/><path d="M582.51284,338.4233l0.6234,-25.84006l5.16801,0.12468l-0.6234,25.84006z" data-paper-data="{&quot;origPos&quot;:null}" fill="#d3bb76"/><path d="M561.55367,337.91764l0.6234,-25.84007l5.16801,0.12468l-0.62341,25.84006z" data-paper-data="{&quot;origPos&quot;:null}" fill="#d3bb76"/><path d="M573.61236,338.20857l0.6234,-25.84006l5.16801,0.12468l-0.62341,25.84006z" data-paper-data="{&quot;origPos&quot;:null}" fill="#d3bb76"/><path d="M562.94643,337.74059l0.13854,-5.74223l12.92003,0.3117l-0.13853,5.74223z" data-paper-data="{&quot;origPos&quot;:null}" fill="#d3bb76"/><path d="M564.28572,317.95067l0.13854,-5.74224l12.92003,0.31171l-0.13854,5.74223z" data-paper-data="{&quot;origPos&quot;:null}" fill="#d3bb76"/></g><g data-paper-data="{&quot;origPos&quot;:null,&quot;origRot&quot;:0,&quot;index&quot;:null}" stroke-width="0"><path d="M548.21557,515.29923l7.00233,-290.2461l36.97241,0.89198l-7.00234,290.24611z" data-paper-data="{&quot;origPos&quot;:null}" fill="#d3bb76"/><path d="M553.55193,300.23479l1.55505,-64.45658l37.32452,0.90047l-1.55505,64.45659z" data-paper-data="{&quot;origPos&quot;:null}" fill="#b9a568"/><path d="M547.90775,296.0336l1.5637,-64.81548l47.94766,1.15676l-1.56371,64.81548z" data-paper-data="{&quot;origPos&quot;:null}" fill="#e7cd81"/><path d="M555.46843,286.2905l1.14291,-47.37342l5.168,0.12468l-1.14291,47.37344z" data-paper-data="{&quot;origPos&quot;:null}" fill="#b9a568"/><path d="M555.50166,284.91239l1.14291,-47.37343l5.168,0.12469l-1.14291,47.37343z" data-paper-data="{&quot;origPos&quot;:null}" fill="#d3bb76"/><path d="M556.69507,242.59057l0.12052,-4.99575l24.97872,0.60262l-0.12052,4.99574z" data-paper-data="{&quot;origPos&quot;:null}" fill="#d3bb76"/><path d="M575.67581,277.47021l0.94342,-39.10462l5.16802,0.12468l-0.94342,39.10462z" data-paper-data="{&quot;origPos&quot;:null}" fill="#d3bb76"/><path d="M565.68016,277.40145l0.65666,-27.21819l5.16801,0.12468l-0.65665,27.21819z" data-paper-data="{&quot;origPos&quot;:null}" fill="#d3bb76"/><path d="M565.85118,277.45724l0.13299,-5.51254l14.81497,0.35742l-0.13299,5.51255z" data-paper-data="{&quot;origPos&quot;:null}" fill="#d3bb76"/><path d="M555.44639,287.20354l0.12052,-4.99574l33.93661,0.81874l-0.12053,4.99574z" data-paper-data="{&quot;origPos&quot;:null}" fill="#d3bb76"/><path d="M585.07755,287.86668l1.19278,-49.44064l5.16801,0.12468l-1.19278,49.44063z" data-paper-data="{&quot;origPos&quot;:null}" fill="#d3bb76"/><path d="M551.60438,422.42338l1.55505,-64.45658l37.32451,0.90047l-1.55505,64.45659z" data-paper-data="{&quot;origPos&quot;:null}" fill="#b9a568"/><path d="M545.96016,418.22222l1.56371,-64.81548l47.94766,1.15676l-1.56371,64.81548z" data-paper-data="{&quot;origPos&quot;:null}" fill="#e7cd81"/><path d="M553.52086,408.47913l1.1429,-47.37343l5.16801,0.12468l-1.14291,47.37344z" data-paper-data="{&quot;origPos&quot;:null}" fill="#b9a568"/><path d="M553.55409,407.101l1.14291,-47.37343l5.168,0.12468l-1.14291,47.37343z" data-paper-data="{&quot;origPos&quot;:null}" fill="#d3bb76"/><path d="M554.74749,364.77911l0.12053,-4.99574l24.97872,0.60263l-0.12052,4.99575z" data-paper-data="{&quot;origPos&quot;:null}" fill="#d3bb76"/><path d="M573.72822,399.65883l0.94342,-39.10462l5.16801,0.12468l-0.94342,39.10462z" data-paper-data="{&quot;origPos&quot;:null}" fill="#d3bb76"/><path d="M563.73259,399.58999l0.65665,-27.21819l5.16802,0.12468l-0.65666,27.21819z" data-paper-data="{&quot;origPos&quot;:null}" fill="#d3bb76"/><path d="M563.9036,399.64586l0.13299,-5.51254l14.81497,0.35742l-0.13299,5.51255z" data-paper-data="{&quot;origPos&quot;:null}" fill="#d3bb76"/><path d="M553.4988,409.39215l0.12053,-4.99575l33.9366,0.81875l-0.12053,4.99574z" data-paper-data="{&quot;origPos&quot;:null}" fill="#d3bb76"/><path d="M583.12997,410.05531l1.19278,-49.44063l5.16801,0.12467l-1.19278,49.44064z" data-paper-data="{&quot;origPos&quot;:null}" fill="#d3bb76"/><path d="M550.88235,470.21151l0.96764,-40.10865l36.7503,0.88661l-0.96764,40.10867z" data-paper-data="{&quot;origPos&quot;:null}" fill="#b9a568"/><path d="M545.23502,466.14182l0.89767,-37.20819l47.94765,1.15676l-0.89766,37.20818z" data-paper-data="{&quot;origPos&quot;:null}" fill="#e7cd81"/><path d="M551.4113,460.19589l0.62341,-25.84006l5.16801,0.12468l-0.62341,25.84006z" data-paper-data="{&quot;origPos&quot;:null}" fill="#d3bb76"/><path d="M581.56498,460.63606l0.62341,-25.84006l5.168,0.12468l-0.62341,25.84006z" data-paper-data="{&quot;origPos&quot;:null}" fill="#d3bb76"/><path d="M560.60579,460.13042l0.62341,-25.84006l5.168,0.12468l-0.6234,25.84006z" data-paper-data="{&quot;origPos&quot;:null}" fill="#d3bb76"/><path d="M572.66451,460.42135l0.62341,-25.84006l5.168,0.12468l-0.62341,25.84006z" data-paper-data="{&quot;origPos&quot;:null}" fill="#d3bb76"/><path d="M561.9986,459.95336l0.13853,-5.74223l12.92003,0.3117l-0.13853,5.74222z" data-paper-data="{&quot;origPos&quot;:null}" fill="#d3bb76"/><path d="M563.33789,440.16342l0.13853,-5.74224l12.92003,0.3117l-0.13854,5.74224z" data-paper-data="{&quot;origPos&quot;:null}" fill="#d3bb76"/><path d="M552.82994,348.02293l0.96764,-40.10866l36.7503,0.88662l-0.96764,40.10866z" data-paper-data="{&quot;origPos&quot;:null}" fill="#b9a568"/><path d="M547.18259,343.95318l0.89766,-37.20819l47.94766,1.15677l-0.89767,37.20818z" data-paper-data="{&quot;origPos&quot;:null}" fill="#e7cd81"/><path d="M553.35885,338.00726l0.6234,-25.84007l5.16802,0.12468l-0.62341,25.84006z" data-paper-data="{&quot;origPos&quot;:null}" fill="#d3bb76"/><path d="M583.51256,338.44744l0.62341,-25.84007l5.168,0.12468l-0.6234,25.84006z" data-paper-data="{&quot;origPos&quot;:null}" fill="#d3bb76"/><path d="M562.55337,337.9418l0.62341,-25.84006l5.168,0.12468l-0.6234,25.84006z" data-paper-data="{&quot;origPos&quot;:null}" fill="#d3bb76"/><path d="M574.61208,338.23272l0.62341,-25.84006l5.16801,0.12468l-0.6234,25.84006z" data-paper-data="{&quot;origPos&quot;:null}" fill="#d3bb76"/><path d="M563.94615,337.76469l0.13854,-5.74223l12.92003,0.31171l-0.13854,5.74223z" data-paper-data="{&quot;origPos&quot;:null}" fill="#d3bb76"/><path d="M565.28545,317.97475l0.13854,-5.74224l12.92003,0.3117l-0.13854,5.74224z" data-paper-data="{&quot;origPos&quot;:null}" fill="#d3bb76"/></g><g data-paper-data="{&quot;origPos&quot;:null}"><path d="M472.55051,343.90854l8.28566,-14.35289l22.20779,6.88753l-7.94537,21.95397l-16.06516,-1.37884z" data-paper-data="{&quot;origPos&quot;:null,&quot;origRot&quot;:0}" fill="#534c42" stroke-width="0"/><path d="M475.45637,342.34005l7.43586,-12.88079l19.93006,6.18112l-7.13047,19.70227l-14.41745,-1.23742z" data-paper-data="{&quot;origPos&quot;:null,&quot;origRot&quot;:0}" fill="url(#color-1)" stroke-width="NaN"/></g><g data-paper-data="{&quot;origPos&quot;:null,&quot;origRot&quot;:0}"><path d="M399.11824,315.94696l-3.2574,-18.38386l24.14474,-10.15653l9.06025,24.69257l-14.8544,10.4551z" data-paper-data="{&quot;origPos&quot;:null,&quot;origRot&quot;:0}" fill="#534c42" stroke-width="0"/><path d="M400.48748,312.48807l-2.92329,-16.49834l21.66835,-9.11482l8.13097,22.16l-13.33088,9.38278z" data-paper-data="{&quot;origPos&quot;:null,&quot;origRot&quot;:0}" fill="url(#color-2)" stroke-width="NaN"/></g><g data-paper-data="{&quot;origPos&quot;:null,&quot;origRot&quot;:0}" stroke-width="0"><g data-paper-data="{&quot;origPos&quot;:null,&quot;origRot&quot;:0,&quot;index&quot;:null}"><path d="M122.59222,422.95265l10.9393,-290.12439l36.95691,1.39348l-10.93931,290.1244z" data-paper-data="{&quot;origPos&quot;:null}" fill="#d3bb76"/><path d="M130.84573,207.9804l2.42935,-64.42955l37.30887,1.40675l-2.42935,64.42956z" data-paper-data="{&quot;origPos&quot;:null}" fill="#b9a568"/><path d="M125.25908,203.70303l2.44288,-64.7883l47.92756,1.80714l-2.44289,64.7883z" data-paper-data="{&quot;origPos&quot;:null}" fill="#e7cd81"/><path d="M132.95121,194.06341l1.7855,-47.35355l5.16583,0.19478l-1.78549,47.35357z" data-paper-data="{&quot;origPos&quot;:null}" fill="#b9a568"/><path d="M133.00314,192.68587l1.7855,-47.35356l5.16583,0.19479l-1.7855,47.35356z" data-paper-data="{&quot;origPos&quot;:null}" fill="#d3bb76"/><path d="M134.77059,150.38413l0.18828,-4.99366l24.96825,0.94144l-0.18828,4.99365z" data-paper-data="{&quot;origPos&quot;:null}" fill="#d3bb76"/><path d="M153.27641,185.51807l1.47384,-39.08822l5.16585,0.19478l-1.47384,39.08822z" data-paper-data="{&quot;origPos&quot;:null}" fill="#d3bb76"/><path d="M143.2826,185.31371l1.02585,-27.20677l5.16584,0.19478l-1.02584,27.20678z" data-paper-data="{&quot;origPos&quot;:null}" fill="#d3bb76"/><path d="M143.45287,185.37182l0.20776,-5.51022l14.80876,0.55838l-0.20777,5.51023z" data-paper-data="{&quot;origPos&quot;:null}" fill="#d3bb76"/><path d="M132.91681,194.97603l0.18828,-4.99365l33.92238,1.27906l-0.18829,4.99365z" data-paper-data="{&quot;origPos&quot;:null}" fill="#d3bb76"/><path d="M162.53625,196.0411l1.8634,-49.41991l5.16584,0.19478l-1.8634,49.4199z" data-paper-data="{&quot;origPos&quot;:null}" fill="#d3bb76"/><path d="M127.2407,330.13134l2.42935,-64.42955l37.30886,1.40675l-2.42935,64.42956z" data-paper-data="{&quot;origPos&quot;:null}" fill="#b9a568"/><path d="M121.65401,325.85397l2.44289,-64.7883l47.92756,1.80714l-2.44289,64.7883z" data-paper-data="{&quot;origPos&quot;:null}" fill="#e7cd81"/><path d="M129.34617,316.21437l1.78549,-47.35356l5.16584,0.19478l-1.78549,47.35357z" data-paper-data="{&quot;origPos&quot;:null}" fill="#b9a568"/><path d="M129.3981,314.8368l1.7855,-47.35356l5.16583,0.19478l-1.7855,47.35356z" data-paper-data="{&quot;origPos&quot;:null}" fill="#d3bb76"/><path d="M131.16556,272.53501l0.18829,-4.99365l24.96825,0.94145l-0.18828,4.99366z" data-paper-data="{&quot;origPos&quot;:null}" fill="#d3bb76"/><path d="M149.67135,307.66899l1.47384,-39.08822l5.16584,0.19478l-1.47384,39.08822z" data-paper-data="{&quot;origPos&quot;:null}" fill="#d3bb76"/><path d="M139.67756,307.46459l1.02584,-27.20678l5.16585,0.19478l-1.02585,27.20677z" data-paper-data="{&quot;origPos&quot;:null}" fill="#d3bb76"/><path d="M139.84778,307.52276l0.20776,-5.51022l14.80876,0.55838l-0.20777,5.51023z" data-paper-data="{&quot;origPos&quot;:null}" fill="#d3bb76"/><path d="M129.31174,317.12699l0.18829,-4.99366l33.92237,1.27907l-0.18829,4.99365z" data-paper-data="{&quot;origPos&quot;:null}" fill="#d3bb76"/><path d="M158.93119,318.19206l1.8634,-49.4199l5.16584,0.19477l-1.8634,49.41991z" data-paper-data="{&quot;origPos&quot;:null}" fill="#d3bb76"/><path d="M125.87043,377.90526l1.51169,-40.09183l36.73489,1.38511l-1.51168,40.09185z" data-paper-data="{&quot;origPos&quot;:null}" fill="#b9a568"/><path d="M120.27883,373.75934l1.40237,-37.19259l47.92755,1.80714l-1.40236,37.19258z" data-paper-data="{&quot;origPos&quot;:null}" fill="#e7cd81"/><path d="M126.5352,367.89772l0.97391,-25.82923l5.16584,0.19478l-0.97391,25.82923z" data-paper-data="{&quot;origPos&quot;:null}" fill="#d3bb76"/><path d="M156.68013,368.74696l0.97391,-25.82923l5.16583,0.19478l-0.97391,25.82923z" data-paper-data="{&quot;origPos&quot;:null}" fill="#d3bb76"/><path d="M135.72974,367.957l0.97391,-25.82923l5.16583,0.19478l-0.9739,25.82923z" data-paper-data="{&quot;origPos&quot;:null}" fill="#d3bb76"/><path d="M147.78339,368.41149l0.97391,-25.82923l5.16583,0.19478l-0.97391,25.82923z" data-paper-data="{&quot;origPos&quot;:null}" fill="#d3bb76"/><path d="M137.12482,367.79886l0.21642,-5.73983l12.91461,0.48695l-0.21642,5.73982z" data-paper-data="{&quot;origPos&quot;:null}" fill="#d3bb76"/><path d="M138.73245,348.02892l0.21642,-5.73984l12.91461,0.48695l-0.21643,5.73983z" data-paper-data="{&quot;origPos&quot;:null}" fill="#d3bb76"/><path d="M129.47551,255.75435l1.51169,-40.09184l36.73489,1.38511l-1.51169,40.09184z" data-paper-data="{&quot;origPos&quot;:null}" fill="#b9a568"/><path d="M123.88388,251.60835l1.40236,-37.19259l47.92756,1.80715l-1.40237,37.19258z" data-paper-data="{&quot;origPos&quot;:null}" fill="#e7cd81"/><path d="M130.14022,245.74677l0.9739,-25.82924l5.16585,0.19478l-0.97391,25.82923z" data-paper-data="{&quot;origPos&quot;:null}" fill="#d3bb76"/><path d="M160.28519,246.59601l0.97391,-25.82924l5.16583,0.19478l-0.9739,25.82923z" data-paper-data="{&quot;origPos&quot;:null}" fill="#d3bb76"/><path d="M139.3348,245.80607l0.97391,-25.82923l5.16583,0.19478l-0.9739,25.82923z" data-paper-data="{&quot;origPos&quot;:null}" fill="#d3bb76"/><path d="M151.38843,246.26055l0.97391,-25.82923l5.16584,0.19478l-0.9739,25.82923z" data-paper-data="{&quot;origPos&quot;:null}" fill="#d3bb76"/><path d="M140.72985,245.64786l0.21643,-5.73982l12.91461,0.48696l-0.21643,5.73982z" data-paper-data="{&quot;origPos&quot;:null}" fill="#d3bb76"/><path d="M142.33752,225.87791l0.21643,-5.73983l12.91461,0.48695l-0.21643,5.73983z" data-paper-data="{&quot;origPos&quot;:null}" fill="#d3bb76"/></g><g data-paper-data="{&quot;origPos&quot;:null,&quot;origRot&quot;:0,&quot;index&quot;:null}"><path d="M115.91999,619.88025l10.9393,-290.12439l36.95691,1.39348l-10.93931,290.1244z" data-paper-data="{&quot;origPos&quot;:null}" fill="#d3bb76"/><path d="M124.17352,404.90801l2.42935,-64.42955l37.30887,1.40675l-2.42935,64.42956z" data-paper-data="{&quot;origPos&quot;:null}" fill="#b9a568"/><path d="M118.58685,400.63063l2.44288,-64.7883l47.92756,1.80714l-2.44289,64.7883z" data-paper-data="{&quot;origPos&quot;:null}" fill="#e7cd81"/><path d="M126.27901,390.991l1.7855,-47.35355l5.16583,0.19478l-1.78549,47.35357z" data-paper-data="{&quot;origPos&quot;:null}" fill="#b9a568"/><path d="M126.33093,389.61347l1.7855,-47.35356l5.16583,0.19479l-1.7855,47.35356z" data-paper-data="{&quot;origPos&quot;:null}" fill="#d3bb76"/><path d="M128.09839,347.31173l0.18828,-4.99366l24.96825,0.94144l-0.18828,4.99365z" data-paper-data="{&quot;origPos&quot;:null}" fill="#d3bb76"/><path d="M146.60419,382.44567l1.47384,-39.08822l5.16585,0.19478l-1.47384,39.08822z" data-paper-data="{&quot;origPos&quot;:null}" fill="#d3bb76"/><path d="M136.61039,382.24131l1.02585,-27.20677l5.16584,0.19478l-1.02584,27.20678z" data-paper-data="{&quot;origPos&quot;:null}" fill="#d3bb76"/><path d="M136.78062,382.29942l0.20776,-5.51022l14.80876,0.55838l-0.20777,5.51023z" data-paper-data="{&quot;origPos&quot;:null}" fill="#d3bb76"/><path d="M126.24459,391.90365l0.18828,-4.99365l33.92238,1.27906l-0.18829,4.99365z" data-paper-data="{&quot;origPos&quot;:null}" fill="#d3bb76"/><path d="M155.86403,392.96872l1.8634,-49.41991l5.16584,0.19478l-1.8634,49.4199z" data-paper-data="{&quot;origPos&quot;:null}" fill="#d3bb76"/><path d="M120.56848,527.05893l2.42935,-64.42955l37.30886,1.40675l-2.42935,64.42956z" data-paper-data="{&quot;origPos&quot;:null}" fill="#b9a568"/><path d="M114.98178,522.78158l2.44289,-64.7883l47.92756,1.80714l-2.44289,64.7883z" data-paper-data="{&quot;origPos&quot;:null}" fill="#e7cd81"/><path d="M122.67396,513.14196l1.78549,-47.35356l5.16584,0.19478l-1.78549,47.35357z" data-paper-data="{&quot;origPos&quot;:null}" fill="#b9a568"/><path d="M122.72588,511.76441l1.7855,-47.35356l5.16583,0.19478l-1.7855,47.35356z" data-paper-data="{&quot;origPos&quot;:null}" fill="#d3bb76"/><path d="M124.49333,469.46261l0.18829,-4.99365l24.96825,0.94145l-0.18828,4.99366z" data-paper-data="{&quot;origPos&quot;:null}" fill="#d3bb76"/><path d="M142.9991,504.59661l1.47384,-39.08822l5.16584,0.19478l-1.47384,39.08822z" data-paper-data="{&quot;origPos&quot;:null}" fill="#d3bb76"/><path d="M133.00535,504.39217l1.02584,-27.20678l5.16585,0.19478l-1.02585,27.20677z" data-paper-data="{&quot;origPos&quot;:null}" fill="#d3bb76"/><path d="M133.17557,504.45037l0.20776,-5.51022l14.80876,0.55838l-0.20777,5.51023z" data-paper-data="{&quot;origPos&quot;:null}" fill="#d3bb76"/><path d="M122.63951,514.0546l0.18829,-4.99366l33.92237,1.27907l-0.18829,4.99365z" data-paper-data="{&quot;origPos&quot;:null}" fill="#d3bb76"/><path d="M152.25895,515.11969l1.8634,-49.4199l5.16584,0.19477l-1.8634,49.41991z" data-paper-data="{&quot;origPos&quot;:null}" fill="#d3bb76"/><path d="M119.19821,574.83287l1.51169,-40.09183l36.73489,1.38511l-1.51168,40.09185z" data-paper-data="{&quot;origPos&quot;:null}" fill="#b9a568"/><path d="M113.60661,570.68693l1.40237,-37.19259l47.92755,1.80714l-1.40236,37.19258z" data-paper-data="{&quot;origPos&quot;:null}" fill="#e7cd81"/><path d="M119.86297,564.82533l0.97391,-25.82923l5.16584,0.19478l-0.97391,25.82923z" data-paper-data="{&quot;origPos&quot;:null}" fill="#d3bb76"/><path d="M150.00788,565.67456l0.97391,-25.82923l5.16583,0.19478l-0.97391,25.82923z" data-paper-data="{&quot;origPos&quot;:null}" fill="#d3bb76"/><path d="M129.05749,564.8846l0.97391,-25.82923l5.16583,0.19478l-0.9739,25.82923z" data-paper-data="{&quot;origPos&quot;:null}" fill="#d3bb76"/><path d="M141.11117,565.3391l0.97391,-25.82923l5.16583,0.19478l-0.97391,25.82923z" data-paper-data="{&quot;origPos&quot;:null}" fill="#d3bb76"/><path d="M130.45258,564.72646l0.21642,-5.73983l12.91461,0.48695l-0.21642,5.73982z" data-paper-data="{&quot;origPos&quot;:null}" fill="#d3bb76"/><path d="M132.06023,544.95651l0.21642,-5.73984l12.91461,0.48695l-0.21643,5.73983z" data-paper-data="{&quot;origPos&quot;:null}" fill="#d3bb76"/><path d="M122.80328,452.68196l1.51169,-40.09184l36.73489,1.38511l-1.51169,40.09184z" data-paper-data="{&quot;origPos&quot;:null}" fill="#b9a568"/><path d="M117.21165,448.53596l1.40236,-37.19259l47.92756,1.80715l-1.40237,37.19258z" data-paper-data="{&quot;origPos&quot;:null}" fill="#e7cd81"/><path d="M123.46801,442.67438l0.9739,-25.82924l5.16585,0.19478l-0.97391,25.82923z" data-paper-data="{&quot;origPos&quot;:null}" fill="#d3bb76"/><path d="M153.61298,443.52361l0.97391,-25.82924l5.16583,0.19478l-0.9739,25.82923z" data-paper-data="{&quot;origPos&quot;:null}" fill="#d3bb76"/><path d="M132.66258,442.73367l0.97391,-25.82923l5.16583,0.19478l-0.9739,25.82923z" data-paper-data="{&quot;origPos&quot;:null}" fill="#d3bb76"/><path d="M144.71623,443.18815l0.97391,-25.82923l5.16584,0.19478l-0.9739,25.82923z" data-paper-data="{&quot;origPos&quot;:null}" fill="#d3bb76"/><path d="M134.05763,442.57546l0.21643,-5.73982l12.91461,0.48696l-0.21643,5.73982z" data-paper-data="{&quot;origPos&quot;:null}" fill="#d3bb76"/><path d="M135.66529,422.80552l0.21643,-5.73983l12.91461,0.48695l-0.21643,5.73983z" data-paper-data="{&quot;origPos&quot;:null}" fill="#d3bb76"/></g></g><g data-paper-data="{&quot;origPos&quot;:null,&quot;origRot&quot;:0,&quot;index&quot;:null}" stroke-width="0"><g data-paper-data="{&quot;origPos&quot;:null,&quot;origRot&quot;:0,&quot;index&quot;:null}"><path d="M291.90925,462.59065l-4.98249,-290.28781l36.97773,-0.63469l4.98249,290.2878z" data-paper-data="{&quot;origPos&quot;:null}" fill="#d3bb76"/><path d="M287.71736,247.50032l-1.10649,-64.46585l37.32988,-0.64073l1.1065,64.46585z" data-paper-data="{&quot;origPos&quot;:null}" fill="#b9a568"/><path d="M282.76599,243.52086l-1.11266,-64.82479l47.95455,-0.82309l1.11265,64.82479z" data-paper-data="{&quot;origPos&quot;:null}" fill="#e7cd81"/><path d="M318.0591,232.99104l-0.81323,-47.38024l5.16874,-0.08872l0.81323,47.38022z" data-paper-data="{&quot;origPos&quot;:null}" fill="#b9a568"/><path d="M318.03545,231.61271l-0.81323,-47.38023l5.16874,-0.08873l0.81324,47.38023z" data-paper-data="{&quot;origPos&quot;:null}" fill="#d3bb76"/><path d="M297.32301,189.62368l-0.08575,-4.99646l24.9823,-0.42879l0.08576,4.99647z" data-paper-data="{&quot;origPos&quot;:null}" fill="#d3bb76"/><path d="M297.91355,224.03032l-0.6713,-39.11024l5.16876,-0.08872l0.67129,39.11024z" data-paper-data="{&quot;origPos&quot;:null}" fill="#d3bb76"/><path d="M307.90943,224.03113l-0.46723,-27.2221l5.16875,-0.08872l0.46725,27.2221z" data-paper-data="{&quot;origPos&quot;:null}" fill="#d3bb76"/><path d="M298.0897,224.25133l-0.09463,-5.51334l14.8171,-0.25432l0.09463,5.51333z" data-paper-data="{&quot;origPos&quot;:null}" fill="#d3bb76"/><path d="M289.30205,234.39802l-0.08577,-4.99646l33.94149,-0.58257l0.08575,4.99646z" data-paper-data="{&quot;origPos&quot;:null}" fill="#d3bb76"/><path d="M288.43969,234.36109l-0.84872,-49.44773l5.16875,-0.08872l0.84872,49.44775z" data-paper-data="{&quot;origPos&quot;:null}" fill="#d3bb76"/><path d="M288.81465,369.69951l-1.10649,-64.46585l37.32987,-0.64073l1.10649,64.46584z" data-paper-data="{&quot;origPos&quot;:null}" fill="#b9a568"/><path d="M283.86325,365.72006l-1.11265,-64.82479l47.95454,-0.82308l1.11266,64.82479z" data-paper-data="{&quot;origPos&quot;:null}" fill="#e7cd81"/><path d="M319.15636,355.19025l-0.81323,-47.38024l5.16876,-0.08872l0.81322,47.38023z" data-paper-data="{&quot;origPos&quot;:null}" fill="#b9a568"/><path d="M319.13272,353.81191l-0.81324,-47.38024l5.16874,-0.08872l0.81323,47.38023z" data-paper-data="{&quot;origPos&quot;:null}" fill="#d3bb76"/><path d="M298.42026,311.82284l-0.08576,-4.99647l24.98231,-0.4288l0.08577,4.99646z" data-paper-data="{&quot;origPos&quot;:null}" fill="#d3bb76"/><path d="M299.01086,346.22952l-0.6713,-39.11024l5.16875,-0.08872l0.6713,39.11024z" data-paper-data="{&quot;origPos&quot;:null}" fill="#d3bb76"/><path d="M309.00673,346.23026l-0.46725,-27.2221l5.16876,-0.08872l0.46723,27.2221z" data-paper-data="{&quot;origPos&quot;:null}" fill="#d3bb76"/><path d="M299.187,346.45054l-0.09463,-5.51334l14.8171,-0.25431l0.09463,5.51333z" data-paper-data="{&quot;origPos&quot;:null}" fill="#d3bb76"/><path d="M290.39932,356.59724l-0.08577,-4.99646l33.94148,-0.58258l0.08577,4.99647z" data-paper-data="{&quot;origPos&quot;:null}" fill="#d3bb76"/><path d="M289.53699,356.56032l-0.84872,-49.44774l5.16875,-0.08871l0.84872,49.44773z" data-paper-data="{&quot;origPos&quot;:null}" fill="#d3bb76"/><path d="M289.7784,417.48165l-0.68852,-40.11443l36.75558,-0.63087l0.68853,40.11441z" data-paper-data="{&quot;origPos&quot;:null}" fill="#b9a568"/><path d="M284.25495,413.64355l-0.63872,-37.21352l47.95454,-0.82308l0.63874,37.21353z" data-paper-data="{&quot;origPos&quot;:null}" fill="#e7cd81"/><path d="M320.906,406.9204l-0.44358,-25.84377l5.16875,-0.08871l0.44359,25.84376z" data-paper-data="{&quot;origPos&quot;:null}" fill="#d3bb76"/><path d="M290.74998,407.15076l-0.44359,-25.84377l5.16874,-0.08872l0.44358,25.84377z" data-paper-data="{&quot;origPos&quot;:null}" fill="#d3bb76"/><path d="M311.71218,406.79096l-0.44358,-25.84376l5.16874,-0.08872l0.44358,25.84377z" data-paper-data="{&quot;origPos&quot;:null}" fill="#d3bb76"/><path d="M299.65173,406.99796l-0.44358,-25.84377l5.16874,-0.08872l0.44358,25.84377z" data-paper-data="{&quot;origPos&quot;:null}" fill="#d3bb76"/><path d="M302.56751,406.73728l-0.09857,-5.74304l12.92189,-0.22179l0.09857,5.74306z" data-paper-data="{&quot;origPos&quot;:null}" fill="#d3bb76"/><path d="M301.36597,386.93852l-0.09858,-5.74306l12.92189,-0.22179l0.09857,5.74306z" data-paper-data="{&quot;origPos&quot;:null}" fill="#d3bb76"/><path d="M288.68111,295.28246l-0.68853,-40.11442l36.75558,-0.63088l0.68853,40.11442z" data-paper-data="{&quot;origPos&quot;:null}" fill="#b9a568"/><path d="M283.1577,291.44432l-0.63873,-37.21352l47.95455,-0.8231l0.63872,37.21354z" data-paper-data="{&quot;origPos&quot;:null}" fill="#e7cd81"/><path d="M319.80872,284.72118l-0.44359,-25.84376l5.16876,-0.08872l0.44358,25.84378z" data-paper-data="{&quot;origPos&quot;:null}" fill="#d3bb76"/><path d="M289.6527,284.95154l-0.44358,-25.84376l5.16874,-0.08872l0.44359,25.84378z" data-paper-data="{&quot;origPos&quot;:null}" fill="#d3bb76"/><path d="M310.6149,284.59176l-0.44358,-25.84376l5.16874,-0.08872l0.44358,25.84377z" data-paper-data="{&quot;origPos&quot;:null}" fill="#d3bb76"/><path d="M298.55445,284.79876l-0.44358,-25.84377l5.16876,-0.08872l0.44358,25.84377z" data-paper-data="{&quot;origPos&quot;:null}" fill="#d3bb76"/><path d="M301.47024,284.53804l-0.09858,-5.74306l12.92189,-0.2218l0.09858,5.74306z" data-paper-data="{&quot;origPos&quot;:null}" fill="#d3bb76"/><path d="M300.26867,264.73925l-0.09858,-5.74307l12.92189,-0.22178l0.09858,5.74306z" data-paper-data="{&quot;origPos&quot;:null}" fill="#d3bb76"/></g><g data-paper-data="{&quot;origPos&quot;:null,&quot;origRot&quot;:0,&quot;index&quot;:null}"><path d="M294.53833,659.61369l-4.98249,-290.28781l36.97773,-0.63469l4.98249,290.2878z" data-paper-data="{&quot;origPos&quot;:null}" fill="#d3bb76"/><path d="M290.34645,444.52338l-1.10649,-64.46585l37.32988,-0.64073l1.10649,64.46584z" data-paper-data="{&quot;origPos&quot;:null}" fill="#b9a568"/><path d="M285.39508,440.54392l-1.11266,-64.82479l47.95455,-0.82308l1.11264,64.82479z" data-paper-data="{&quot;origPos&quot;:null}" fill="#e7cd81"/><path d="M320.68818,430.01411l-0.81324,-47.38025l5.16874,-0.08872l0.81324,47.38022z" data-paper-data="{&quot;origPos&quot;:null}" fill="#b9a568"/><path d="M320.66454,428.63578l-0.81324,-47.38023l5.16875,-0.08873l0.81323,47.38023z" data-paper-data="{&quot;origPos&quot;:null}" fill="#d3bb76"/><path d="M299.95207,386.64673l-0.08575,-4.99646l24.98231,-0.4288l0.08575,4.99647z" data-paper-data="{&quot;origPos&quot;:null}" fill="#d3bb76"/><path d="M300.54264,421.05339l-0.67129,-39.11024l5.16876,-0.08872l0.67129,39.11024z" data-paper-data="{&quot;origPos&quot;:null}" fill="#d3bb76"/><path d="M310.53853,421.05419l-0.46723,-27.2221l5.16875,-0.08872l0.46724,27.2221z" data-paper-data="{&quot;origPos&quot;:null}" fill="#d3bb76"/><path d="M300.71879,421.27441l-0.09463,-5.51334l14.8171,-0.25432l0.09463,5.51334z" data-paper-data="{&quot;origPos&quot;:null}" fill="#d3bb76"/><path d="M291.93111,431.4211l-0.08577,-4.99646l33.94149,-0.58258l0.08575,4.99646z" data-paper-data="{&quot;origPos&quot;:null}" fill="#d3bb76"/><path d="M291.06879,431.38417l-0.84872,-49.44773l5.16875,-0.08872l0.84872,49.44774z" data-paper-data="{&quot;origPos&quot;:null}" fill="#d3bb76"/><path d="M291.44372,566.72257l-1.10649,-64.46586l37.32987,-0.64073l1.1065,64.46584z" data-paper-data="{&quot;origPos&quot;:null}" fill="#b9a568"/><path d="M286.49235,562.74313l-1.11265,-64.82479l47.95454,-0.82309l1.11266,64.8248z" data-paper-data="{&quot;origPos&quot;:null}" fill="#e7cd81"/><path d="M321.78545,552.2133l-0.81323,-47.38024l5.16875,-0.08872l0.81322,47.38023z" data-paper-data="{&quot;origPos&quot;:null}" fill="#b9a568"/><path d="M321.76178,550.83496l-0.81324,-47.38023l5.16874,-0.08872l0.81324,47.38023z" data-paper-data="{&quot;origPos&quot;:null}" fill="#d3bb76"/><path d="M301.04936,508.8459l-0.08576,-4.99647l24.98231,-0.4288l0.08577,4.99646z" data-paper-data="{&quot;origPos&quot;:null}" fill="#d3bb76"/><path d="M301.63993,543.25259l-0.67129,-39.11024l5.16875,-0.08872l0.6713,39.11024z" data-paper-data="{&quot;origPos&quot;:null}" fill="#d3bb76"/><path d="M311.63579,543.25332l-0.46724,-27.2221l5.16876,-0.08872l0.46723,27.2221z" data-paper-data="{&quot;origPos&quot;:null}" fill="#d3bb76"/><path d="M301.81606,543.47361l-0.09462,-5.51334l14.81709,-0.25432l0.09463,5.51334z" data-paper-data="{&quot;origPos&quot;:null}" fill="#d3bb76"/><path d="M293.02842,553.62031l-0.08577,-4.99646l33.94148,-0.58258l0.08577,4.99647z" data-paper-data="{&quot;origPos&quot;:null}" fill="#d3bb76"/><path d="M292.16607,553.5834l-0.84872,-49.44774l5.16875,-0.08871l0.84872,49.44774z" data-paper-data="{&quot;origPos&quot;:null}" fill="#d3bb76"/><path d="M292.40747,614.50471l-0.68852,-40.11443l36.75557,-0.63087l0.68852,40.11441z" data-paper-data="{&quot;origPos&quot;:null}" fill="#b9a568"/><path d="M286.88401,610.66661l-0.63872,-37.21352l47.95454,-0.82308l0.63874,37.21353z" data-paper-data="{&quot;origPos&quot;:null}" fill="#e7cd81"/><path d="M323.53508,603.94347l-0.44358,-25.84377l5.16875,-0.08872l0.44358,25.84377z" data-paper-data="{&quot;origPos&quot;:null}" fill="#d3bb76"/><path d="M293.37908,604.17382l-0.44359,-25.84376l5.16874,-0.08872l0.44359,25.84377z" data-paper-data="{&quot;origPos&quot;:null}" fill="#d3bb76"/><path d="M314.34127,603.81402l-0.44357,-25.84377l5.16874,-0.08872l0.44358,25.84376z" data-paper-data="{&quot;origPos&quot;:null}" fill="#d3bb76"/><path d="M302.28083,604.02104l-0.44359,-25.84377l5.16874,-0.08872l0.44358,25.84377z" data-paper-data="{&quot;origPos&quot;:null}" fill="#d3bb76"/><path d="M305.1966,603.76034l-0.09857,-5.74305l12.92189,-0.22178l0.09857,5.74306z" data-paper-data="{&quot;origPos&quot;:null}" fill="#d3bb76"/><path d="M303.99503,583.96157l-0.09858,-5.74307l12.92189,-0.22178l0.09857,5.74307z" data-paper-data="{&quot;origPos&quot;:null}" fill="#d3bb76"/><path d="M291.3102,492.30552l-0.68852,-40.11442l36.75558,-0.63087l0.68852,40.11442z" data-paper-data="{&quot;origPos&quot;:null}" fill="#b9a568"/><path d="M285.78677,488.46738l-0.63874,-37.21353l47.95455,-0.82309l0.63872,37.21353z" data-paper-data="{&quot;origPos&quot;:null}" fill="#e7cd81"/><path d="M322.43782,481.74425l-0.44358,-25.84377l5.16876,-0.08872l0.44358,25.84378z" data-paper-data="{&quot;origPos&quot;:null}" fill="#d3bb76"/><path d="M292.28178,481.97461l-0.44358,-25.84377l5.16874,-0.08872l0.44358,25.84378z" data-paper-data="{&quot;origPos&quot;:null}" fill="#d3bb76"/><path d="M313.24397,481.61483l-0.44358,-25.84377l5.16874,-0.08872l0.44359,25.84377z" data-paper-data="{&quot;origPos&quot;:null}" fill="#d3bb76"/><path d="M301.18352,481.82182l-0.44358,-25.84376l5.16876,-0.08872l0.44358,25.84377z" data-paper-data="{&quot;origPos&quot;:null}" fill="#d3bb76"/><path d="M304.09934,481.5611l-0.09858,-5.74306l12.92189,-0.22179l0.09858,5.74306z" data-paper-data="{&quot;origPos&quot;:null}" fill="#d3bb76"/><path d="M302.89777,461.76231l-0.09858,-5.74307l12.92189,-0.22178l0.09858,5.74307z" data-paper-data="{&quot;origPos&quot;:null}" fill="#d3bb76"/></g></g><g data-paper-data="{&quot;origPos&quot;:null,&quot;origRot&quot;:0,&quot;index&quot;:null}" stroke-width="0"><g data-paper-data="{&quot;origPos&quot;:null,&quot;origRot&quot;:0,&quot;index&quot;:null}"><path d="M334.90925,461.59065l-4.9825,-290.28781l36.97773,-0.63468l4.98249,290.28779z" data-paper-data="{&quot;origPos&quot;:null}" fill="#d3bb76"/><path d="M330.71736,246.50032l-1.10649,-64.46585l37.32988,-0.64073l1.1065,64.46585z" data-paper-data="{&quot;origPos&quot;:null}" fill="#b9a568"/><path d="M325.76599,242.52086l-1.11266,-64.82479l47.95455,-0.82309l1.11265,64.82479z" data-paper-data="{&quot;origPos&quot;:null}" fill="#e7cd81"/><path d="M361.0591,231.99104l-0.81323,-47.38024l5.16874,-0.08872l0.81323,47.38023z" data-paper-data="{&quot;origPos&quot;:null}" fill="#b9a568"/><path d="M361.03546,230.61272l-0.81323,-47.38023l5.16874,-0.08873l0.81324,47.38024z" data-paper-data="{&quot;origPos&quot;:null}" fill="#d3bb76"/><path d="M340.32301,188.62368l-0.08575,-4.99646l24.9823,-0.42879l0.08576,4.99647z" data-paper-data="{&quot;origPos&quot;:null}" fill="#d3bb76"/><path d="M340.91356,223.03033l-0.67129,-39.11024l5.16876,-0.08872l0.67128,39.11024z" data-paper-data="{&quot;origPos&quot;:null}" fill="#d3bb76"/><path d="M350.90944,223.03113l-0.46723,-27.2221l5.16875,-0.08872l0.46726,27.2221z" data-paper-data="{&quot;origPos&quot;:null}" fill="#d3bb76"/><path d="M341.08971,223.25133l-0.09463,-5.51333l14.8171,-0.25433l0.09463,5.51333z" data-paper-data="{&quot;origPos&quot;:null}" fill="#d3bb76"/><path d="M332.30205,233.39802l-0.08577,-4.99646l33.94149,-0.58257l0.08575,4.99646z" data-paper-data="{&quot;origPos&quot;:null}" fill="#d3bb76"/><path d="M331.43969,233.36109l-0.84872,-49.44773l5.16875,-0.08872l0.84872,49.44775z" data-paper-data="{&quot;origPos&quot;:null}" fill="#d3bb76"/><path d="M331.81465,368.69951l-1.10649,-64.46584l37.32987,-0.64073l1.10648,64.46584z" data-paper-data="{&quot;origPos&quot;:null}" fill="#b9a568"/><path d="M326.86328,364.72006l-1.11265,-64.82479l47.95454,-0.82308l1.11266,64.82479z" data-paper-data="{&quot;origPos&quot;:null}" fill="#e7cd81"/><path d="M362.15637,354.19026l-0.81323,-47.38024l5.16876,-0.08871l0.81322,47.38023z" data-paper-data="{&quot;origPos&quot;:null}" fill="#b9a568"/><path d="M362.13272,352.81191l-0.81324,-47.38024l5.16874,-0.08872l0.81323,47.38024z" data-paper-data="{&quot;origPos&quot;:null}" fill="#d3bb76"/><path d="M341.42027,310.82284l-0.08576,-4.99647l24.98231,-0.4288l0.08577,4.99646z" data-paper-data="{&quot;origPos&quot;:null}" fill="#d3bb76"/><path d="M342.01086,345.22952l-0.6713,-39.11023l5.16876,-0.08871l0.67129,39.11023z" data-paper-data="{&quot;origPos&quot;:null}" fill="#d3bb76"/><path d="M352.00673,345.23026l-0.46725,-27.22209l5.16876,-0.08872l0.46723,27.2221z" data-paper-data="{&quot;origPos&quot;:null}" fill="#d3bb76"/><path d="M342.187,345.45054l-0.09463,-5.51334l14.81711,-0.25431l0.09462,5.51333z" data-paper-data="{&quot;origPos&quot;:null}" fill="#d3bb76"/><path d="M333.39932,355.59724l-0.08577,-4.99646l33.94148,-0.58258l0.08577,4.99647z" data-paper-data="{&quot;origPos&quot;:null}" fill="#d3bb76"/><path d="M332.537,355.56032l-0.84872,-49.44774l5.16875,-0.08871l0.84872,49.44773z" data-paper-data="{&quot;origPos&quot;:null}" fill="#d3bb76"/><path d="M332.77841,416.48165l-0.68852,-40.11443l36.75558,-0.63087l0.68852,40.11442z" data-paper-data="{&quot;origPos&quot;:null}" fill="#b9a568"/><path d="M327.25495,412.64356l-0.63872,-37.21353l47.95454,-0.82308l0.63874,37.21353z" data-paper-data="{&quot;origPos&quot;:null}" fill="#e7cd81"/><path d="M363.90601,405.9204l-0.44359,-25.84377l5.16875,-0.08871l0.44359,25.84377z" data-paper-data="{&quot;origPos&quot;:null}" fill="#d3bb76"/><path d="M333.74998,406.15077l-0.44359,-25.84377l5.16874,-0.08871l0.44358,25.84377z" data-paper-data="{&quot;origPos&quot;:null}" fill="#d3bb76"/><path d="M354.71219,405.79096l-0.44358,-25.84377l5.16875,-0.08871l0.44358,25.84377z" data-paper-data="{&quot;origPos&quot;:null}" fill="#d3bb76"/><path d="M342.65175,405.99797l-0.44358,-25.84377l5.16874,-0.08872l0.44359,25.84377z" data-paper-data="{&quot;origPos&quot;:null}" fill="#d3bb76"/><path d="M345.56751,405.73729l-0.09857,-5.74304l12.92189,-0.22179l0.09857,5.74306z" data-paper-data="{&quot;origPos&quot;:null}" fill="#d3bb76"/><path d="M344.36597,385.93852l-0.09858,-5.74306l12.92189,-0.22179l0.09856,5.74305z" data-paper-data="{&quot;origPos&quot;:null}" fill="#d3bb76"/><path d="M331.68111,294.28247l-0.68853,-40.11443l36.75558,-0.63088l0.68853,40.11442z" data-paper-data="{&quot;origPos&quot;:null}" fill="#b9a568"/><path d="M326.1577,290.44432l-0.63873,-37.21353l47.95455,-0.8231l0.63872,37.21354z" data-paper-data="{&quot;origPos&quot;:null}" fill="#e7cd81"/><path d="M362.80873,283.72118l-0.44359,-25.84376l5.16876,-0.08872l0.44358,25.84378z" data-paper-data="{&quot;origPos&quot;:null}" fill="#d3bb76"/><path d="M332.65271,283.95154l-0.44358,-25.84377l5.16874,-0.08872l0.44359,25.84378z" data-paper-data="{&quot;origPos&quot;:null}" fill="#d3bb76"/><path d="M353.6149,283.59177l-0.44358,-25.84377l5.16874,-0.08871l0.44359,25.84377z" data-paper-data="{&quot;origPos&quot;:null}" fill="#d3bb76"/><path d="M341.55446,283.79877l-0.44358,-25.84377l5.16876,-0.08872l0.44358,25.84377z" data-paper-data="{&quot;origPos&quot;:null}" fill="#d3bb76"/><path d="M344.47025,283.53804l-0.09857,-5.74306l12.92189,-0.2218l0.09858,5.74306z" data-paper-data="{&quot;origPos&quot;:null}" fill="#d3bb76"/><path d="M343.26868,263.73926l-0.09857,-5.74307l12.92189,-0.22178l0.09858,5.74306z" data-paper-data="{&quot;origPos&quot;:null}" fill="#d3bb76"/></g><g data-paper-data="{&quot;origPos&quot;:null,&quot;origRot&quot;:0,&quot;index&quot;:null}"><path d="M337.53833,658.6137l-4.9825,-290.28781l36.97773,-0.63469l4.98249,290.2878z" data-paper-data="{&quot;origPos&quot;:null}" fill="#d3bb76"/><path d="M333.34645,443.52339l-1.10649,-64.46585l37.32988,-0.64072l1.10649,64.46584z" data-paper-data="{&quot;origPos&quot;:null}" fill="#b9a568"/><path d="M328.39508,439.54393l-1.11266,-64.82479l47.95455,-0.82308l1.11264,64.82479z" data-paper-data="{&quot;origPos&quot;:null}" fill="#e7cd81"/><path d="M363.68818,429.01411l-0.81324,-47.38025l5.16874,-0.08871l0.81324,47.38023z" data-paper-data="{&quot;origPos&quot;:null}" fill="#b9a568"/><path d="M363.66454,427.63578l-0.81324,-47.38024l5.16875,-0.08873l0.81323,47.38024z" data-paper-data="{&quot;origPos&quot;:null}" fill="#d3bb76"/><path d="M342.95209,385.64673l-0.08575,-4.99646l24.98231,-0.4288l0.08575,4.99647z" data-paper-data="{&quot;origPos&quot;:null}" fill="#d3bb76"/><path d="M343.54264,420.05339l-0.67128,-39.11023l5.16876,-0.08872l0.67129,39.11024z" data-paper-data="{&quot;origPos&quot;:null}" fill="#d3bb76"/><path d="M353.53853,420.0542l-0.46723,-27.2221l5.16875,-0.08871l0.46725,27.2221z" data-paper-data="{&quot;origPos&quot;:null}" fill="#d3bb76"/><path d="M343.71879,420.27441l-0.09463,-5.51334l14.8171,-0.25432l0.09463,5.51334z" data-paper-data="{&quot;origPos&quot;:null}" fill="#d3bb76"/><path d="M334.93111,430.42111l-0.08577,-4.99646l33.94149,-0.58258l0.08575,4.99646z" data-paper-data="{&quot;origPos&quot;:null}" fill="#d3bb76"/><path d="M334.06879,430.38417l-0.84872,-49.44773l5.16875,-0.08872l0.84872,49.44774z" data-paper-data="{&quot;origPos&quot;:null}" fill="#d3bb76"/><path d="M334.44372,565.72257l-1.10649,-64.46586l37.32987,-0.64072l1.1065,64.46583z" data-paper-data="{&quot;origPos&quot;:null}" fill="#b9a568"/><path d="M329.49235,561.74313l-1.11264,-64.82479l47.95454,-0.82309l1.11265,64.8248z" data-paper-data="{&quot;origPos&quot;:null}" fill="#e7cd81"/><path d="M364.78545,551.2133l-0.81323,-47.38024l5.16875,-0.08871l0.81322,47.38024z" data-paper-data="{&quot;origPos&quot;:null}" fill="#b9a568"/><path d="M364.76181,549.83497l-0.81324,-47.38024l5.16874,-0.08871l0.81324,47.38024z" data-paper-data="{&quot;origPos&quot;:null}" fill="#d3bb76"/><path d="M344.04936,507.8459l-0.08576,-4.99647l24.98231,-0.4288l0.08577,4.99646z" data-paper-data="{&quot;origPos&quot;:null}" fill="#d3bb76"/><path d="M344.63994,542.2526l-0.67129,-39.11024l5.16875,-0.08872l0.67129,39.11023z" data-paper-data="{&quot;origPos&quot;:null}" fill="#d3bb76"/><path d="M354.63581,542.25332l-0.46724,-27.2221l5.16876,-0.08872l0.46724,27.2221z" data-paper-data="{&quot;origPos&quot;:null}" fill="#d3bb76"/><path d="M344.81608,542.47361l-0.09462,-5.51333l14.81709,-0.25432l0.09463,5.51333z" data-paper-data="{&quot;origPos&quot;:null}" fill="#d3bb76"/><path d="M336.02842,552.62031l-0.08577,-4.99646l33.94148,-0.58258l0.08577,4.99646z" data-paper-data="{&quot;origPos&quot;:null}" fill="#d3bb76"/><path d="M335.16607,552.5834l-0.84872,-49.44774l5.16875,-0.08871l0.84872,49.44774z" data-paper-data="{&quot;origPos&quot;:null}" fill="#d3bb76"/><path d="M335.40747,613.50471l-0.68851,-40.11443l36.75558,-0.63086l0.68851,40.11441z" data-paper-data="{&quot;origPos&quot;:null}" fill="#b9a568"/><path d="M329.88401,609.66661l-0.63872,-37.21353l47.95454,-0.82308l0.63875,37.21353z" data-paper-data="{&quot;origPos&quot;:null}" fill="#e7cd81"/><path d="M366.53509,602.94347l-0.44358,-25.84378l5.16875,-0.08871l0.44358,25.84377z" data-paper-data="{&quot;origPos&quot;:null}" fill="#d3bb76"/><path d="M336.37909,603.17382l-0.4436,-25.84376l5.16875,-0.08871l0.44359,25.84377z" data-paper-data="{&quot;origPos&quot;:null}" fill="#d3bb76"/><path d="M357.34127,602.81402l-0.44357,-25.84377l5.16874,-0.08871l0.44358,25.84377z" data-paper-data="{&quot;origPos&quot;:null}" fill="#d3bb76"/><path d="M345.28084,603.02104l-0.4436,-25.84377l5.16875,-0.08871l0.44358,25.84377z" data-paper-data="{&quot;origPos&quot;:null}" fill="#d3bb76"/><path d="M348.1966,602.76034l-0.09857,-5.74305l12.92189,-0.22178l0.09857,5.74306z" data-paper-data="{&quot;origPos&quot;:null}" fill="#d3bb76"/><path d="M346.99505,582.96158l-0.09858,-5.74307l12.92189,-0.22178l0.09857,5.74307z" data-paper-data="{&quot;origPos&quot;:null}" fill="#d3bb76"/><path d="M334.3102,491.30552l-0.68852,-40.11442l36.75558,-0.63087l0.68851,40.11442z" data-paper-data="{&quot;origPos&quot;:null}" fill="#b9a568"/><path d="M328.78677,487.46739l-0.63874,-37.21353l47.95455,-0.82309l0.63872,37.21353z" data-paper-data="{&quot;origPos&quot;:null}" fill="#e7cd81"/><path d="M365.43782,480.74425l-0.44358,-25.84377l5.16876,-0.08872l0.44358,25.84378z" data-paper-data="{&quot;origPos&quot;:null}" fill="#d3bb76"/><path d="M335.28179,480.97461l-0.44358,-25.84377l5.16875,-0.08872l0.44358,25.84378z" data-paper-data="{&quot;origPos&quot;:null}" fill="#d3bb76"/><path d="M356.24398,480.61483l-0.44358,-25.84377l5.16874,-0.08871l0.44359,25.84377z" data-paper-data="{&quot;origPos&quot;:null}" fill="#d3bb76"/><path d="M344.18353,480.82182l-0.44358,-25.84377l5.16876,-0.08872l0.44358,25.84377z" data-paper-data="{&quot;origPos&quot;:null}" fill="#d3bb76"/><path d="M347.09934,480.56111l-0.09858,-5.74306l12.92189,-0.22179l0.09857,5.74306z" data-paper-data="{&quot;origPos&quot;:null}" fill="#d3bb76"/><path d="M345.89777,460.76231l-0.09858,-5.74307l12.92189,-0.22179l0.09857,5.74307z" data-paper-data="{&quot;origPos&quot;:null}" fill="#d3bb76"/></g></g></g></g></svg>