<svg version="1.1" xmlns="http://www.w3.org/2000/svg" xmlns:xlink="http://www.w3.org/1999/xlink" width="960" height="720"><defs><clipPath id="clip-1"><path d="M-253,-54.8h960v720h-960z" data-paper-data="{&quot;origPos&quot;:null}" id="p.0" fill="none" fill-rule="nonzero" stroke="none" stroke-width="1" stroke-linecap="square" stroke-linejoin="miter"/></clipPath></defs><g transform="translate(253,54.8)"><g clip-path="url(#clip-1)" data-paper-data="{&quot;isPaintingLayer&quot;:true}" fill="none" fill-rule="none" stroke="none" stroke-width="none" stroke-linecap="none" stroke-linejoin="none" stroke-miterlimit="10" stroke-dasharray="" stroke-dashoffset="0" font-family="none" font-weight="none" font-size="none" text-anchor="none" style="mix-blend-mode: normal"><path d="M-253,-54.8h960v720h-960z" data-paper-data="{&quot;origPos&quot;:null}" fill-opacity="0" fill="#000000" fill-rule="evenodd" stroke="none" stroke-width="1" stroke-linecap="square" stroke-linejoin="miter"/><path d="M-37.16273,48.51233h993.38586v695.4016h-993.38586z" data-paper-data="{&quot;origPos&quot;:null}" fill-opacity="0" fill="#000000" fill-rule="evenodd" stroke="none" stroke-width="1" stroke-linecap="square" stroke-linejoin="miter"/><path d="M-37.16273,48.51233h993.38586v695.4016h-993.38586z" data-paper-data="{&quot;origPos&quot;:null}" fill="none" fill-rule="evenodd" stroke="#000000" stroke-width="1" stroke-linecap="butt" stroke-linejoin="round"/><path d="M25.47789,62.2717c-0.58333,0 -1.07292,-0.19271 -1.46875,-0.57812c-0.38542,-0.38542 -0.57812,-0.875 -0.57812,-1.46875v-18.23437c0.03125,-2.10417 0.52604,-3.99479 1.48438,-5.67188c0.95833,-1.6875 2.26563,-3.01562 3.92188,-3.98437c1.65625,-0.97917 3.52083,-1.46875 5.59375,-1.46875c2.11458,0 3.99479,0.48958 5.64063,1.46875c1.65625,0.96875 2.96875,2.29688 3.9375,3.98438c0.97917,1.67708 1.46875,3.56771 1.46875,5.67188c0,2.10417 -0.44792,3.98958 -1.34375,5.65625c-0.89583,1.66667 -2.11979,2.98958 -3.67187,3.96875c-1.54167,0.96875 -3.28125,1.45313 -5.21875,1.45313c-1.57292,0 -3.02083,-0.32292 -4.34375,-0.96875c-1.32292,-0.65625 -2.44792,-1.54687 -3.375,-2.67187v10.79688c0,0.59375 -0.1875,1.08333 -0.5625,1.46875c-0.375,0.38542 -0.86979,0.57813 -1.48437,0.57813zM34.43102,49.47482c1.36458,0 2.57813,-0.32812 3.64063,-0.98437c1.07292,-0.65625 1.92188,-1.54687 2.54688,-2.67187c0.625,-1.13542 0.9375,-2.41146 0.9375,-3.82812c0,-1.4375 -0.3125,-2.72396 -0.9375,-3.85938c-0.625,-1.13542 -1.47396,-2.02604 -2.54687,-2.67187c-1.0625,-0.65625 -2.27604,-0.98437 -3.64062,-0.98437c-1.33333,0 -2.54167,0.32813 -3.625,0.98438c-1.07292,0.64583 -1.91667,1.53646 -2.53125,2.67188c-0.61458,1.13542 -0.92187,2.42188 -0.92187,3.85938c0,1.41667 0.30729,2.69271 0.92188,3.82813c0.61458,1.125 1.45833,2.01562 2.53125,2.67187c1.08333,0.65625 2.29167,0.98438 3.625,0.98438zM53.51975,39.22482c0,-1.59375 0.39063,-3.02083 1.17188,-4.28125c0.79167,-1.27083 1.85417,-2.28125 3.1875,-3.03125c1.33333,-0.75 2.79688,-1.125 4.39063,-1.125c1.60417,0 2.79688,0.26042 3.57813,0.78125c0.79167,0.52083 1.09375,1.14063 0.90625,1.85938c-0.07292,0.375 -0.22396,0.66667 -0.45312,0.875c-0.22917,0.19792 -0.48958,0.32292 -0.78125,0.375c-0.29167,0.05208 -0.61458,0.03646 -0.96875,-0.04687c-1.69792,-0.34375 -3.22917,-0.36979 -4.59375,-0.07812c-1.36458,0.29167 -2.44271,0.83854 -3.23437,1.64063c-0.78125,0.80208 -1.17187,1.8125 -1.17187,3.03125zM53.551,52.91232c-0.63542,0 -1.13021,-0.16667 -1.48437,-0.5c-0.34375,-0.33333 -0.51562,-0.83333 -0.51562,-1.5v-17.875c0,-0.64583 0.17188,-1.14062 0.51563,-1.48437c0.35417,-0.34375 0.84896,-0.51562 1.48438,-0.51562c0.66667,0 1.16667,0.16667 1.5,0.5c0.33333,0.33333 0.5,0.83333 0.5,1.5v17.875c0,0.63542 -0.16667,1.13021 -0.5,1.48438c-0.33333,0.34375 -0.83333,0.51563 -1.5,0.51563zM79.67224,53.06857c-2.20833,0 -4.17187,-0.47396 -5.89062,-1.42187c-1.71875,-0.94792 -3.06771,-2.25521 -4.04687,-3.92187c-0.96875,-1.66667 -1.45312,-3.57812 -1.45312,-5.73437c0,-2.1875 0.45833,-4.11458 1.375,-5.78125c0.91667,-1.66667 2.1875,-2.97396 3.8125,-3.92187c1.63542,-0.94792 3.50521,-1.42187 5.60938,-1.42187c2.08333,0 3.86979,0.46354 5.35938,1.39063c1.48958,0.91667 2.625,2.18229 3.40625,3.79688c0.79167,1.61458 1.1875,3.47396 1.1875,5.57813c0,0.51042 -0.17187,0.93229 -0.51562,1.26563c-0.34375,0.33333 -0.78125,0.5 -1.3125,0.5h-16.125v-3.20313h16l-1.64062,1.125c-0.03125,-1.33333 -0.30208,-2.52604 -0.8125,-3.57813c-0.5,-1.0625 -1.21875,-1.89583 -2.15625,-2.5c-0.92708,-0.61458 -2.05729,-0.92187 -3.39062,-0.92187c-1.52083,0 -2.82292,0.33333 -3.90625,1c-1.07292,0.66667 -1.89062,1.57813 -2.45312,2.73438c-0.5625,1.15625 -0.84375,2.46875 -0.84375,3.9375c0,1.46875 0.33333,2.77604 1,3.92188c0.66667,1.14583 1.58333,2.05208 2.75,2.71875c1.17708,0.66667 2.52604,1 4.04688,1c0.83333,0 1.68229,-0.15104 2.54688,-0.45312c0.86458,-0.3125 1.5625,-0.66667 2.09375,-1.0625c0.40625,-0.29167 0.83854,-0.44271 1.29688,-0.45312c0.46875,-0.02083 0.88021,0.11458 1.23438,0.40625c0.44792,0.40625 0.68229,0.84896 0.70313,1.32813c0.03125,0.47917 -0.17708,0.89063 -0.625,1.23438c-0.90625,0.71875 -2.03646,1.30729 -3.39062,1.76563c-1.34375,0.44792 -2.63021,0.67188 -3.85937,0.67188zM102.19971,53.06857c-1.86458,0 -3.59375,-0.28646 -5.1875,-0.85937c-1.58333,-0.57292 -2.8125,-1.29687 -3.6875,-2.17187c-0.40625,-0.42708 -0.57812,-0.91146 -0.51562,-1.45312c0.07292,-0.55208 0.33333,-1.00521 0.78125,-1.35937c0.54167,-0.41667 1.06771,-0.59375 1.57813,-0.53125c0.52083,0.0625 0.96875,0.29688 1.34375,0.70313c0.45833,0.5 1.1875,0.97396 2.1875,1.42188c1,0.4375 2.11458,0.65625 3.34375,0.65625c1.54167,0 2.71875,-0.25 3.53125,-0.75c0.8125,-0.51042 1.23438,-1.16667 1.26563,-1.96875c0.02083,-0.80208 -0.36458,-1.49479 -1.15625,-2.07812c-0.78125,-0.59375 -2.20833,-1.07812 -4.28125,-1.45312c-2.69792,-0.53125 -4.65625,-1.32812 -5.875,-2.39062c-1.20833,-1.07292 -1.8125,-2.38021 -1.8125,-3.92188c0,-1.36458 0.40104,-2.48958 1.20313,-3.375c0.80208,-0.89583 1.82813,-1.5625 3.07813,-2c1.25,-0.44792 2.55729,-0.67187 3.92188,-0.67187c1.76042,0 3.31771,0.28125 4.67188,0.84375c1.36458,0.5625 2.44792,1.33854 3.25,2.32813c0.375,0.42708 0.54688,0.875 0.51563,1.34375c-0.02083,0.45833 -0.24479,0.84896 -0.67187,1.17188c-0.42708,0.29167 -0.9375,0.38542 -1.53125,0.28125c-0.58333,-0.10417 -1.07292,-0.34375 -1.46875,-0.71875c-0.66667,-0.64583 -1.39062,-1.08854 -2.17187,-1.32812c-0.77083,-0.23958 -1.66146,-0.35937 -2.67187,-0.35937c-1.17708,0 -2.17187,0.20313 -2.98437,0.60938c-0.8125,0.39583 -1.21875,0.97917 -1.21875,1.75c0,0.47917 0.125,0.91667 0.375,1.3125c0.26042,0.38542 0.76042,0.73438 1.5,1.04688c0.75,0.30208 1.84375,0.59896 3.28125,0.89063c2,0.39583 3.57813,0.90104 4.73438,1.51563c1.16667,0.61458 2,1.32813 2.5,2.14063c0.51042,0.8125 0.76563,1.75 0.76563,2.8125c0,1.22917 -0.32812,2.33854 -0.98437,3.32813c-0.64583,0.98958 -1.60417,1.77604 -2.875,2.35938c-1.26042,0.58333 -2.83854,0.875 -4.73437,0.875zM123.91971,53.06857c-1.86458,0 -3.59375,-0.28646 -5.1875,-0.85937c-1.58333,-0.57292 -2.8125,-1.29687 -3.6875,-2.17187c-0.40625,-0.42708 -0.57812,-0.91146 -0.51562,-1.45312c0.07292,-0.55208 0.33333,-1.00521 0.78125,-1.35937c0.54167,-0.41667 1.06771,-0.59375 1.57813,-0.53125c0.52083,0.0625 0.96875,0.29688 1.34375,0.70313c0.45833,0.5 1.1875,0.97396 2.1875,1.42188c1,0.4375 2.11458,0.65625 3.34375,0.65625c1.54167,0 2.71875,-0.25 3.53125,-0.75c0.8125,-0.51042 1.23438,-1.16667 1.26563,-1.96875c0.02083,-0.80208 -0.36458,-1.49479 -1.15625,-2.07812c-0.78125,-0.59375 -2.20833,-1.07812 -4.28125,-1.45312c-2.69792,-0.53125 -4.65625,-1.32812 -5.875,-2.39062c-1.20833,-1.07292 -1.8125,-2.38021 -1.8125,-3.92188c0,-1.36458 0.40104,-2.48958 1.20313,-3.375c0.80208,-0.89583 1.82813,-1.5625 3.07813,-2c1.25,-0.44792 2.55729,-0.67187 3.92188,-0.67187c1.76042,0 3.31771,0.28125 4.67188,0.84375c1.36458,0.5625 2.44792,1.33854 3.25,2.32813c0.375,0.42708 0.54688,0.875 0.51563,1.34375c-0.02083,0.45833 -0.24479,0.84896 -0.67187,1.17188c-0.42708,0.29167 -0.9375,0.38542 -1.53125,0.28125c-0.58333,-0.10417 -1.07292,-0.34375 -1.46875,-0.71875c-0.66667,-0.64583 -1.39062,-1.08854 -2.17187,-1.32812c-0.77083,-0.23958 -1.66146,-0.35937 -2.67187,-0.35937c-1.17708,0 -2.17187,0.20313 -2.98437,0.60938c-0.8125,0.39583 -1.21875,0.97917 -1.21875,1.75c0,0.47917 0.125,0.91667 0.375,1.3125c0.26042,0.38542 0.76042,0.73438 1.5,1.04688c0.75,0.30208 1.84375,0.59896 3.28125,0.89063c2,0.39583 3.57813,0.90104 4.73438,1.51563c1.16667,0.61458 2,1.32813 2.5,2.14063c0.51042,0.8125 0.76563,1.75 0.76563,2.8125c0,1.22917 -0.32812,2.33854 -0.98437,3.32813c-0.64583,0.98958 -1.60417,1.77604 -2.875,2.35938c-1.26042,0.58333 -2.83854,0.875 -4.73437,0.875zM159.31281,53.06857c-2.07292,0 -3.94271,-0.48437 -5.60937,-1.45312c-1.66667,-0.97917 -2.98958,-2.30729 -3.96875,-3.98437c-0.96875,-1.67708 -1.45312,-3.56771 -1.45312,-5.67187c0,-2.11458 0.44271,-4.00521 1.32813,-5.67188c0.89583,-1.66667 2.11458,-2.98437 3.65625,-3.95312c1.55208,-0.97917 3.30208,-1.46875 5.25,-1.46875c1.57292,0 3.02604,0.32813 4.35938,0.98438c1.33333,0.65625 2.45313,1.54167 3.35938,2.65625v-10.79687c0,-0.61458 0.19271,-1.10417 0.57813,-1.46875c0.38542,-0.375 0.875,-0.5625 1.46875,-0.5625c0.61458,0 1.10417,0.1875 1.46875,0.5625c0.375,0.36458 0.5625,0.85417 0.5625,1.46875v18.24999c0,2.10417 -0.48958,3.99479 -1.46875,5.67187c-0.96875,1.67708 -2.28125,3.00521 -3.9375,3.98438c-1.64583,0.96875 -3.51042,1.45313 -5.59375,1.45313zM159.31281,49.47482c1.36458,0 2.57813,-0.32812 3.64063,-0.98437c1.07292,-0.65625 1.91146,-1.55729 2.51563,-2.70312c0.61458,-1.14583 0.92188,-2.42187 0.92188,-3.82812c0,-1.44792 -0.30729,-2.72917 -0.92187,-3.84375c-0.60417,-1.125 -1.44271,-2.01042 -2.51562,-2.65625c-1.0625,-0.65625 -2.27604,-0.98437 -3.64062,-0.98437c-1.33333,0 -2.54167,0.32813 -3.625,0.98438c-1.07292,0.64583 -1.92187,1.53125 -2.54687,2.65625c-0.625,1.11458 -0.9375,2.39583 -0.9375,3.84375c0,1.40625 0.3125,2.68229 0.9375,3.82813c0.625,1.14583 1.47396,2.04687 2.54688,2.70312c1.08333,0.65625 2.29167,0.98438 3.625,0.98438zM187.43277,53.06857c-2.15625,0 -4.0625,-0.47396 -5.71875,-1.42187c-1.65625,-0.94792 -2.95833,-2.25521 -3.90625,-3.92187c-0.9375,-1.66667 -1.40625,-3.57812 -1.40625,-5.73437c0,-2.1875 0.46875,-4.11458 1.40625,-5.78125c0.94792,-1.66667 2.25,-2.97396 3.90625,-3.92187c1.65625,-0.94792 3.5625,-1.42187 5.71875,-1.42187c2.13542,0 4.03125,0.47396 5.6875,1.42188c1.65625,0.94792 2.95313,2.25521 3.89063,3.92188c0.94792,1.66667 1.42188,3.59375 1.42188,5.78125c0,2.15625 -0.46875,4.06771 -1.40625,5.73437c-0.92708,1.66667 -2.21875,2.97396 -3.875,3.92188c-1.64583,0.94792 -3.55208,1.42188 -5.71875,1.42188zM187.43277,49.47482c1.38542,0 2.60938,-0.31771 3.67188,-0.95312c1.07292,-0.64583 1.90625,-1.52604 2.5,-2.64062c0.60417,-1.125 0.90625,-2.42187 0.90625,-3.89062c0,-1.46875 -0.30208,-2.76563 -0.90625,-3.89063c-0.59375,-1.13542 -1.42708,-2.02083 -2.5,-2.65625c-1.0625,-0.64583 -2.28646,-0.96875 -3.67187,-0.96875c-1.38542,0 -2.61458,0.32292 -3.6875,0.96875c-1.0625,0.63542 -1.90104,1.52083 -2.51562,2.65625c-0.60417,1.125 -0.90625,2.42188 -0.90625,3.89063c0,1.46875 0.30208,2.76563 0.90625,3.89063c0.61458,1.11458 1.45313,1.99479 2.51563,2.64062c1.07292,0.63542 2.30208,0.95313 3.6875,0.95313zM208.35776,52.91232c-0.42708,0 -0.82292,-0.125 -1.1875,-0.375c-0.35417,-0.26042 -0.59896,-0.57292 -0.73437,-0.9375l-5.92187,-17.76563c-0.20833,-0.82292 -0.20312,-1.49479 0.01563,-2.01562c0.22917,-0.52083 0.72917,-0.78125 1.5,-0.78125c0.51042,0 0.93229,0.14063 1.26563,0.42188c0.33333,0.27083 0.60938,0.73958 0.82813,1.40625l5.03125,15.76563h-1.39062l4.75,-16.07813c0.13542,-0.45833 0.35938,-0.82292 0.67188,-1.09375c0.32292,-0.28125 0.76563,-0.42187 1.32813,-0.42187c0.53125,0 0.96354,0.14063 1.29688,0.42188c0.33333,0.27083 0.55729,0.63542 0.67188,1.09375l3.875,15.125h-0.59375l4.71875,-14.8125c0.36458,-1.21875 1.05729,-1.82812 2.07813,-1.82812c0.73958,0 1.24479,0.26042 1.51563,0.78125c0.27083,0.52083 0.25521,1.19271 -0.04687,2.01563l-5.90625,17.76563c-0.11458,0.36458 -0.34375,0.67708 -0.6875,0.9375c-0.34375,0.25 -0.74479,0.375 -1.20312,0.375c-0.42708,0 -0.82812,-0.125 -1.20312,-0.375c-0.36458,-0.26042 -0.60417,-0.57292 -0.71875,-0.9375l-4.10937,-15.25h0.39063l-4.3125,15.25c-0.10417,0.36458 -0.33854,0.67708 -0.70312,0.9375c-0.36458,0.25 -0.77083,0.375 -1.21875,0.375zM250.91522,52.9592c-0.58333,0 -1.06771,-0.19271 -1.45312,-0.57812c-0.38542,-0.39583 -0.57812,-0.88542 -0.57812,-1.46875v-9.84375c0,-1.52083 -0.28125,-2.76042 -0.84375,-3.71875c-0.5625,-0.95833 -1.31771,-1.67187 -2.26562,-2.14062c-0.94792,-0.46875 -2.03125,-0.70312 -3.25,-0.70312c-1.125,0 -2.14062,0.22917 -3.04687,0.6875c-0.90625,0.44792 -1.625,1.05208 -2.15625,1.8125c-0.53125,0.76042 -0.79687,1.63542 -0.79687,2.625h-2.53125c0,-1.67708 0.40625,-3.17708 1.21875,-4.5c0.8125,-1.32292 1.92708,-2.36979 3.34375,-3.14062c1.41667,-0.77083 3.00521,-1.15625 4.76563,-1.15625c1.83333,0 3.47396,0.39583 4.92188,1.1875c1.45833,0.78125 2.60938,1.93229 3.45313,3.45313c0.84375,1.52083 1.26563,3.38542 1.26563,5.59375v9.84375c0,0.58333 -0.19792,1.07292 -0.59375,1.46875c-0.38542,0.38542 -0.86979,0.57813 -1.45312,0.57813zM234.47772,52.9592c-0.58333,0 -1.07292,-0.19271 -1.46875,-0.57812c-0.38542,-0.39583 -0.57812,-0.88542 -0.57812,-1.46875v-17.84375c0,-0.61458 0.19271,-1.10417 0.57813,-1.46875c0.39583,-0.375 0.88542,-0.5625 1.46875,-0.5625c0.61458,0 1.10938,0.1875 1.48438,0.5625c0.375,0.36458 0.5625,0.85417 0.5625,1.46875v17.84375c0,0.58333 -0.1875,1.07292 -0.5625,1.46875c-0.375,0.38542 -0.86979,0.57813 -1.48437,0.57813zM280.55582,53.06857c-1.94792,0 -3.69792,-0.48437 -5.25,-1.45312c-1.54167,-0.97917 -2.76042,-2.30208 -3.65625,-3.96875c-0.88542,-1.66667 -1.32812,-3.55208 -1.32812,-5.65625c0,-2.10417 0.48438,-3.99479 1.45313,-5.67188c0.97917,-1.6875 2.30208,-3.01562 3.96875,-3.98437c1.66667,-0.97917 3.53646,-1.46875 5.60938,-1.46875c2.08333,0 3.94792,0.48958 5.59375,1.46875c1.65625,0.96875 2.96875,2.29688 3.9375,3.98438c0.97917,1.67708 1.46875,3.56771 1.46875,5.67188h-1.5625c0,2.10417 -0.44792,3.98958 -1.34375,5.65625c-0.88542,1.66667 -2.10417,2.98958 -3.65625,3.96875c-1.54167,0.96875 -3.28646,1.45313 -5.23437,1.45313zM281.35269,49.47482c1.36458,0 2.57813,-0.32812 3.64063,-0.98437c1.07292,-0.65625 1.91146,-1.54687 2.51563,-2.67187c0.61458,-1.13542 0.92188,-2.41146 0.92188,-3.82812c0,-1.4375 -0.30729,-2.72396 -0.92187,-3.85938c-0.60417,-1.13542 -1.44271,-2.02604 -2.51562,-2.67187c-1.0625,-0.65625 -2.27604,-0.98437 -3.64062,-0.98437c-1.33333,0 -2.54167,0.32813 -3.625,0.98438c-1.07292,0.64583 -1.92187,1.53646 -2.54687,2.67188c-0.625,1.13542 -0.9375,2.42188 -0.9375,3.85938c0,1.41667 0.3125,2.69271 0.9375,3.82813c0.625,1.125 1.47396,2.01562 2.54688,2.67187c1.08333,0.65625 2.29167,0.98438 3.625,0.98438zM290.32144,52.9592c-0.59375,0 -1.08333,-0.19271 -1.46875,-0.57812c-0.38542,-0.39583 -0.57812,-0.88542 -0.57812,-1.46875v-6.125l0.76563,-4.23437l3.3125,1.4375v8.92187c0,0.58333 -0.19271,1.07292 -0.57812,1.46875c-0.38542,0.38542 -0.86979,0.57813 -1.45312,0.57813zM300.39954,39.22482c0,-1.59375 0.39063,-3.02083 1.17188,-4.28125c0.79167,-1.27083 1.85417,-2.28125 3.1875,-3.03125c1.33333,-0.75 2.79688,-1.125 4.39063,-1.125c1.60417,0 2.79688,0.26042 3.57813,0.78125c0.79167,0.52083 1.09375,1.14063 0.90625,1.85938c-0.07292,0.375 -0.22396,0.66667 -0.45312,0.875c-0.22917,0.19792 -0.48958,0.32292 -0.78125,0.375c-0.29167,0.05208 -0.61458,0.03646 -0.96875,-0.04687c-1.69792,-0.34375 -3.22917,-0.36979 -4.59375,-0.07812c-1.36458,0.29167 -2.44271,0.83854 -3.23437,1.64063c-0.78125,0.80208 -1.17187,1.8125 -1.17187,3.03125zM300.43079,52.91232c-0.63542,0 -1.13021,-0.16667 -1.48437,-0.5c-0.34375,-0.33333 -0.51562,-0.83333 -0.51562,-1.5v-17.875c0,-0.64583 0.17188,-1.14062 0.51563,-1.48437c0.35417,-0.34375 0.84896,-0.51562 1.48438,-0.51562c0.66667,0 1.16667,0.16667 1.5,0.5c0.33333,0.33333 0.5,0.83333 0.5,1.5v17.875c0,0.63542 -0.16667,1.13021 -0.5,1.48438c-0.33333,0.34375 -0.83333,0.51563 -1.5,0.51563zM319.83954,39.22482c0,-1.59375 0.39063,-3.02083 1.17188,-4.28125c0.79167,-1.27083 1.85417,-2.28125 3.1875,-3.03125c1.33333,-0.75 2.79688,-1.125 4.39063,-1.125c1.60417,0 2.79688,0.26042 3.57813,0.78125c0.79167,0.52083 1.09375,1.14063 0.90625,1.85938c-0.07292,0.375 -0.22396,0.66667 -0.45312,0.875c-0.22917,0.19792 -0.48958,0.32292 -0.78125,0.375c-0.29167,0.05208 -0.61458,0.03646 -0.96875,-0.04687c-1.69792,-0.34375 -3.22917,-0.36979 -4.59375,-0.07812c-1.36458,0.29167 -2.44271,0.83854 -3.23437,1.64063c-0.78125,0.80208 -1.17187,1.8125 -1.17187,3.03125zM319.87079,52.91232c-0.63542,0 -1.13021,-0.16667 -1.48437,-0.5c-0.34375,-0.33333 -0.51562,-0.83333 -0.51562,-1.5v-17.875c0,-0.64583 0.17188,-1.14062 0.51563,-1.48437c0.35417,-0.34375 0.84896,-0.51562 1.48438,-0.51562c0.66667,0 1.16667,0.16667 1.5,0.5c0.33333,0.33333 0.5,0.83333 0.5,1.5v17.875c0,0.63542 -0.16667,1.13021 -0.5,1.48438c-0.33333,0.34375 -0.83333,0.51563 -1.5,0.51563zM345.63263,53.06857c-2.15625,0 -4.0625,-0.47396 -5.71875,-1.42187c-1.65625,-0.94792 -2.95833,-2.25521 -3.90625,-3.92187c-0.9375,-1.66667 -1.40625,-3.57812 -1.40625,-5.73437c0,-2.1875 0.46875,-4.11458 1.40625,-5.78125c0.94792,-1.66667 2.25,-2.97396 3.90625,-3.92187c1.65625,-0.94792 3.5625,-1.42187 5.71875,-1.42187c2.13542,0 4.03125,0.47396 5.6875,1.42188c1.65625,0.94792 2.95313,2.25521 3.89063,3.92188c0.94792,1.66667 1.42188,3.59375 1.42188,5.78125c0,2.15625 -0.46875,4.06771 -1.40625,5.73437c-0.92708,1.66667 -2.21875,2.97396 -3.875,3.92188c-1.64583,0.94792 -3.55208,1.42188 -5.71875,1.42188zM345.63263,49.47482c1.38542,0 2.60938,-0.31771 3.67188,-0.95312c1.07292,-0.64583 1.90625,-1.52604 2.5,-2.64062c0.60417,-1.125 0.90625,-2.42187 0.90625,-3.89062c0,-1.46875 -0.30208,-2.76563 -0.90625,-3.89063c-0.59375,-1.13542 -1.42708,-2.02083 -2.5,-2.65625c-1.0625,-0.64583 -2.28646,-0.96875 -3.67187,-0.96875c-1.38542,0 -2.61458,0.32292 -3.6875,0.96875c-1.0625,0.63542 -1.90104,1.52083 -2.51562,2.65625c-0.60417,1.125 -0.90625,2.42188 -0.90625,3.89063c0,1.46875 0.30208,2.76563 0.90625,3.89063c0.61458,1.11458 1.45313,1.99479 2.51563,2.64062c1.07292,0.63542 2.30208,0.95313 3.6875,0.95313zM366.55762,52.91232c-0.42708,0 -0.82292,-0.125 -1.1875,-0.375c-0.35417,-0.26042 -0.59896,-0.57292 -0.73437,-0.9375l-5.92187,-17.76563c-0.20833,-0.82292 -0.20312,-1.49479 0.01563,-2.01562c0.22917,-0.52083 0.72917,-0.78125 1.5,-0.78125c0.51042,0 0.93229,0.14063 1.26563,0.42188c0.33333,0.27083 0.60938,0.73958 0.82813,1.40625l5.03125,15.76563h-1.39062l4.75,-16.07813c0.13542,-0.45833 0.35938,-0.82292 0.67188,-1.09375c0.32292,-0.28125 0.76563,-0.42187 1.32813,-0.42187c0.53125,0 0.96354,0.14063 1.29688,0.42188c0.33333,0.27083 0.55729,0.63542 0.67188,1.09375l3.875,15.125h-0.59375l4.71875,-14.8125c0.36458,-1.21875 1.05729,-1.82812 2.07813,-1.82812c0.73958,0 1.24479,0.26042 1.51563,0.78125c0.27083,0.52083 0.25521,1.19271 -0.04687,2.01563l-5.90625,17.76563c-0.11458,0.36458 -0.34375,0.67708 -0.6875,0.9375c-0.34375,0.25 -0.74479,0.375 -1.20312,0.375c-0.42708,0 -0.82812,-0.125 -1.20312,-0.375c-0.36458,-0.26042 -0.60417,-0.57292 -0.71875,-0.9375l-4.10937,-15.25h0.39063l-4.3125,15.25c-0.10417,0.36458 -0.33854,0.67708 -0.70312,0.9375c-0.36458,0.25 -0.77083,0.375 -1.21875,0.375zM410.31946,52.91232c-1.33333,0 -2.53646,-0.33854 -3.60937,-1.01562c-1.0625,-0.6875 -1.90104,-1.61458 -2.51562,-2.78125c-0.61458,-1.17708 -0.92187,-2.5 -0.92187,-3.96875v-19.07812c0,-0.58333 0.1875,-1.0625 0.5625,-1.4375c0.375,-0.375 0.85417,-0.5625 1.4375,-0.5625c0.59375,0 1.07292,0.1875 1.4375,0.5625c0.375,0.375 0.5625,0.85417 0.5625,1.4375v19.07812c0,1.07292 0.29167,1.96875 0.875,2.6875c0.59375,0.71875 1.31771,1.07813 2.17188,1.07813h1.35938c0.47917,0 0.88542,0.1875 1.21875,0.5625c0.33333,0.375 0.5,0.85417 0.5,1.4375c0,0.58333 -0.22396,1.0625 -0.67187,1.4375c-0.4375,0.375 -1,0.5625 -1.6875,0.5625zM401.44446,35.2717c-0.5625,0 -1.02083,-0.15625 -1.375,-0.46875c-0.34375,-0.32292 -0.51562,-0.72396 -0.51562,-1.20312c0,-0.54167 0.17188,-0.96875 0.51563,-1.28125c0.35417,-0.32292 0.8125,-0.48437 1.375,-0.48437h9.23438c0.5625,0 1.01563,0.16146 1.35938,0.48438c0.34375,0.3125 0.51563,0.73958 0.51563,1.28125c0,0.47917 -0.17187,0.88021 -0.51562,1.20313c-0.34375,0.3125 -0.79687,0.46875 -1.35937,0.46875zM428.31256,53.06857c-2.15625,0 -4.0625,-0.47396 -5.71875,-1.42187c-1.65625,-0.94792 -2.95833,-2.25521 -3.90625,-3.92187c-0.9375,-1.66667 -1.40625,-3.57812 -1.40625,-5.73437c0,-2.1875 0.46875,-4.11458 1.40625,-5.78125c0.94792,-1.66667 2.25,-2.97396 3.90625,-3.92187c1.65625,-0.94792 3.5625,-1.42187 5.71875,-1.42187c2.13542,0 4.03125,0.47396 5.6875,1.42188c1.65625,0.94792 2.95313,2.25521 3.89063,3.92188c0.94792,1.66667 1.42188,3.59375 1.42188,5.78125c0,2.15625 -0.46875,4.06771 -1.40625,5.73437c-0.92708,1.66667 -2.21875,2.97396 -3.875,3.92188c-1.64583,0.94792 -3.55208,1.42188 -5.71875,1.42188zM428.31256,49.47482c1.38542,0 2.60938,-0.31771 3.67188,-0.95312c1.07292,-0.64583 1.90625,-1.52604 2.5,-2.64062c0.60417,-1.125 0.90625,-2.42187 0.90625,-3.89062c0,-1.46875 -0.30208,-2.76563 -0.90625,-3.89063c-0.59375,-1.13542 -1.42708,-2.02083 -2.5,-2.65625c-1.0625,-0.64583 -2.28646,-0.96875 -3.67187,-0.96875c-1.38542,0 -2.61458,0.32292 -3.6875,0.96875c-1.0625,0.63542 -1.90104,1.52083 -2.51562,2.65625c-0.60417,1.125 -0.90625,2.42188 -0.90625,3.89063c0,1.46875 0.30208,2.76563 0.90625,3.89063c0.61458,1.11458 1.45313,1.99479 2.51563,2.64062c1.07292,0.63542 2.30208,0.95313 3.6875,0.95313zM465.07941,53.06857c-1.86458,0 -3.59375,-0.28646 -5.1875,-0.85937c-1.58333,-0.57292 -2.8125,-1.29687 -3.6875,-2.17187c-0.40625,-0.42708 -0.57812,-0.91146 -0.51562,-1.45312c0.07292,-0.55208 0.33333,-1.00521 0.78125,-1.35937c0.54167,-0.41667 1.06771,-0.59375 1.57813,-0.53125c0.52083,0.0625 0.96875,0.29688 1.34375,0.70313c0.45833,0.5 1.1875,0.97396 2.1875,1.42188c1,0.4375 2.11458,0.65625 3.34375,0.65625c1.54167,0 2.71875,-0.25 3.53125,-0.75c0.8125,-0.51042 1.23438,-1.16667 1.26563,-1.96875c0.02083,-0.80208 -0.36458,-1.49479 -1.15625,-2.07812c-0.78125,-0.59375 -2.20833,-1.07812 -4.28125,-1.45312c-2.69792,-0.53125 -4.65625,-1.32812 -5.875,-2.39062c-1.20833,-1.07292 -1.8125,-2.38021 -1.8125,-3.92188c0,-1.36458 0.40104,-2.48958 1.20313,-3.375c0.80208,-0.89583 1.82813,-1.5625 3.07813,-2c1.25,-0.44792 2.55729,-0.67187 3.92188,-0.67187c1.76042,0 3.31771,0.28125 4.67188,0.84375c1.36458,0.5625 2.44792,1.33854 3.25,2.32813c0.375,0.42708 0.54688,0.875 0.51563,1.34375c-0.02083,0.45833 -0.24479,0.84896 -0.67187,1.17188c-0.42708,0.29167 -0.9375,0.38542 -1.53125,0.28125c-0.58333,-0.10417 -1.07292,-0.34375 -1.46875,-0.71875c-0.66667,-0.64583 -1.39062,-1.08854 -2.17187,-1.32812c-0.77083,-0.23958 -1.66146,-0.35937 -2.67187,-0.35937c-1.17708,0 -2.17187,0.20313 -2.98437,0.60938c-0.8125,0.39583 -1.21875,0.97917 -1.21875,1.75c0,0.47917 0.125,0.91667 0.375,1.3125c0.26042,0.38542 0.76042,0.73438 1.5,1.04688c0.75,0.30208 1.84375,0.59896 3.28125,0.89063c2,0.39583 3.57813,0.90104 4.73438,1.51563c1.16667,0.61458 2,1.32813 2.5,2.14063c0.51042,0.8125 0.76563,1.75 0.76563,2.8125c0,1.22917 -0.32812,2.33854 -0.98437,3.32813c-0.64583,0.98958 -1.60417,1.77604 -2.875,2.35938c-1.26042,0.58333 -2.83854,0.875 -4.73437,0.875zM484.03375,52.91232c-1.16667,0 -2.20833,-0.31771 -3.125,-0.95312c-0.90625,-0.64583 -1.61458,-1.52083 -2.125,-2.625c-0.5,-1.10417 -0.75,-2.38021 -0.75,-3.82812v-21.82812c0,-0.59375 0.1875,-1.07292 0.5625,-1.4375c0.375,-0.375 0.85417,-0.5625 1.4375,-0.5625c0.59375,0 1.07292,0.1875 1.4375,0.5625c0.375,0.36458 0.5625,0.84375 0.5625,1.4375v21.82812c0,0.98958 0.1875,1.80729 0.5625,2.45312c0.375,0.63542 0.85417,0.95313 1.4375,0.95313h1c0.53125,0 0.96354,0.1875 1.29688,0.5625c0.33333,0.375 0.5,0.85417 0.5,1.4375c0,0.58333 -0.25521,1.0625 -0.76562,1.4375c-0.5,0.375 -1.15104,0.5625 -1.95312,0.5625zM493.28375,52.91232c-0.59375,0 -1.08333,-0.19271 -1.46875,-0.57812c-0.38542,-0.38542 -0.57812,-0.875 -0.57812,-1.46875v-17.79688c0,-0.61458 0.19271,-1.10417 0.57813,-1.46875c0.38542,-0.375 0.875,-0.5625 1.46875,-0.5625c0.60417,0 1.09375,0.1875 1.46875,0.5625c0.375,0.36458 0.5625,0.85417 0.5625,1.46875v17.79688c0,0.59375 -0.1875,1.08333 -0.5625,1.46875c-0.375,0.38542 -0.86458,0.57813 -1.46875,0.57813zM493.64313,27.47483c-0.72917,0 -1.35417,-0.26042 -1.875,-0.78125c-0.51042,-0.52083 -0.76562,-1.14062 -0.76562,-1.85937c0,-0.71875 0.25521,-1.33854 0.76563,-1.85937c0.52083,-0.52083 1.14583,-0.78125 1.875,-0.78125c0.71875,0 1.33854,0.26042 1.85938,0.78125c0.52083,0.52083 0.78125,1.14063 0.78125,1.85938c0,0.71875 -0.26042,1.33854 -0.78125,1.85938c-0.52083,0.52083 -1.14062,0.78125 -1.85937,0.78125zM512.83246,53.06857c-2.07292,0 -3.94271,-0.48437 -5.60937,-1.45312c-1.66667,-0.97917 -2.98958,-2.30729 -3.96875,-3.98437c-0.96875,-1.67708 -1.45312,-3.56771 -1.45312,-5.67187c0,-2.11458 0.44271,-4.00521 1.32813,-5.67188c0.89583,-1.66667 2.11458,-2.98437 3.65625,-3.95312c1.55208,-0.97917 3.30208,-1.46875 5.25,-1.46875c1.57292,0 3.02604,0.32813 4.35938,0.98438c1.33333,0.65625 2.45313,1.54167 3.35938,2.65625v-10.79687c0,-0.61458 0.19271,-1.10417 0.57813,-1.46875c0.38542,-0.375 0.875,-0.5625 1.46875,-0.5625c0.61458,0 1.10419,0.1875 1.46881,0.5625c0.375,0.36458 0.5625,0.85417 0.5625,1.46875v18.24999c0,2.10417 -0.4896,3.99479 -1.46881,5.67187c-0.96875,1.67708 -2.28125,3.00521 -3.9375,3.98438c-1.64583,0.96875 -3.51042,1.45313 -5.59375,1.45313zM512.83246,49.47482c1.36458,0 2.57813,-0.32812 3.64063,-0.98437c1.07292,-0.65625 1.91146,-1.55729 2.51563,-2.70312c0.61458,-1.14583 0.92188,-2.42187 0.92188,-3.82812c0,-1.44792 -0.30729,-2.72917 -0.92187,-3.84375c-0.60417,-1.125 -1.44271,-2.01042 -2.51562,-2.65625c-1.0625,-0.65625 -2.27604,-0.98437 -3.64062,-0.98437c-1.33333,0 -2.54167,0.32813 -3.625,0.98438c-1.07292,0.64583 -1.92187,1.53125 -2.54687,2.65625c-0.625,1.11458 -0.9375,2.39583 -0.9375,3.84375c0,1.40625 0.3125,2.68229 0.9375,3.82813c0.625,1.14583 1.47396,2.04687 2.54688,2.70312c1.08333,0.65625 2.29167,0.98438 3.625,0.98438zM541.31183,53.06857c-2.20833,0 -4.17187,-0.47396 -5.89062,-1.42187c-1.71875,-0.94792 -3.06771,-2.25521 -4.04687,-3.92187c-0.96875,-1.66667 -1.45312,-3.57812 -1.45312,-5.73437c0,-2.1875 0.45833,-4.11458 1.375,-5.78125c0.91667,-1.66667 2.1875,-2.97396 3.8125,-3.92187c1.63542,-0.94792 3.50521,-1.42187 5.60938,-1.42187c2.08333,0 3.86979,0.46354 5.35938,1.39063c1.48958,0.91667 2.625,2.18229 3.40625,3.79688c0.79167,1.61458 1.1875,3.47396 1.1875,5.57813c0,0.51042 -0.17187,0.93229 -0.51562,1.26563c-0.34375,0.33333 -0.78125,0.5 -1.3125,0.5h-16.125v-3.20313h16l-1.64062,1.125c-0.03125,-1.33333 -0.30208,-2.52604 -0.8125,-3.57813c-0.5,-1.0625 -1.21875,-1.89583 -2.15625,-2.5c-0.92708,-0.61458 -2.05729,-0.92187 -3.39062,-0.92187c-1.52083,0 -2.82292,0.33333 -3.90625,1c-1.07292,0.66667 -1.89062,1.57813 -2.45312,2.73438c-0.5625,1.15625 -0.84375,2.46875 -0.84375,3.9375c0,1.46875 0.33333,2.77604 1,3.92188c0.66667,1.14583 1.58333,2.05208 2.75,2.71875c1.17708,0.66667 2.52604,1 4.04688,1c0.83333,0 1.68229,-0.15104 2.54688,-0.45312c0.86458,-0.3125 1.5625,-0.66667 2.09375,-1.0625c0.40625,-0.29167 0.83854,-0.44271 1.29688,-0.45312c0.46875,-0.02083 0.88021,0.11458 1.23438,0.40625c0.44792,0.40625 0.68229,0.84896 0.70313,1.32813c0.03125,0.47917 -0.17708,0.89063 -0.625,1.23438c-0.90625,0.71875 -2.03646,1.30729 -3.39062,1.76563c-1.34375,0.44792 -2.63021,0.67188 -3.85937,0.67188zM577.51239,53.06857c-2.07292,0 -3.94271,-0.48437 -5.60937,-1.45312c-1.66667,-0.97917 -2.98958,-2.30729 -3.96875,-3.98437c-0.96875,-1.67708 -1.45312,-3.56771 -1.45312,-5.67187c0,-2.11458 0.44271,-4.00521 1.32813,-5.67188c0.89583,-1.66667 2.11458,-2.98437 3.65625,-3.95312c1.55208,-0.97917 3.30208,-1.46875 5.25,-1.46875c1.57292,0 3.02604,0.32813 4.35938,0.98438c1.33333,0.65625 2.45313,1.54167 3.35938,2.65625v-10.79687c0,-0.61458 0.19271,-1.10417 0.57813,-1.46875c0.38542,-0.375 0.875,-0.5625 1.46875,-0.5625c0.61458,0 1.10417,0.1875 1.46875,0.5625c0.375,0.36458 0.5625,0.85417 0.5625,1.46875v18.24999c0,2.10417 -0.48958,3.99479 -1.46875,5.67187c-0.96875,1.67708 -2.28125,3.00521 -3.9375,3.98438c-1.64583,0.96875 -3.51042,1.45313 -5.59375,1.45313zM577.51239,49.47482c1.36458,0 2.57813,-0.32812 3.64063,-0.98437c1.07292,-0.65625 1.91146,-1.55729 2.51563,-2.70312c0.61458,-1.14583 0.92188,-2.42187 0.92188,-3.82812c0,-1.44792 -0.30729,-2.72917 -0.92187,-3.84375c-0.60417,-1.125 -1.44271,-2.01042 -2.51562,-2.65625c-1.0625,-0.65625 -2.27604,-0.98437 -3.64062,-0.98437c-1.33333,0 -2.54167,0.32813 -3.625,0.98438c-1.07292,0.64583 -1.92187,1.53125 -2.54687,2.65625c-0.625,1.11458 -0.9375,2.39583 -0.9375,3.84375c0,1.40625 0.3125,2.68229 0.9375,3.82813c0.625,1.14583 1.47396,2.04687 2.54688,2.70312c1.08333,0.65625 2.29167,0.98438 3.625,0.98438zM605.63238,53.06857c-2.15625,0 -4.0625,-0.47396 -5.71875,-1.42187c-1.65625,-0.94792 -2.95833,-2.25521 -3.90625,-3.92187c-0.9375,-1.66667 -1.40625,-3.57812 -1.40625,-5.73437c0,-2.1875 0.46875,-4.11458 1.40625,-5.78125c0.94792,-1.66667 2.25,-2.97396 3.90625,-3.92187c1.65625,-0.94792 3.5625,-1.42187 5.71875,-1.42187c2.13542,0 4.03125,0.47396 5.6875,1.42188c1.65625,0.94792 2.95313,2.25521 3.89063,3.92188c0.94792,1.66667 1.42188,3.59375 1.42188,5.78125c0,2.15625 -0.46875,4.06771 -1.40625,5.73437c-0.92708,1.66667 -2.21875,2.97396 -3.875,3.92188c-1.64583,0.94792 -3.55208,1.42188 -5.71875,1.42188zM605.63238,49.47482c1.38542,0 2.60938,-0.31771 3.67188,-0.95312c1.07292,-0.64583 1.90625,-1.52604 2.5,-2.64062c0.60417,-1.125 0.90625,-2.42187 0.90625,-3.89062c0,-1.46875 -0.30208,-2.76563 -0.90625,-3.89063c-0.59375,-1.13542 -1.42708,-2.02083 -2.5,-2.65625c-1.0625,-0.64583 -2.28646,-0.96875 -3.67187,-0.96875c-1.38542,0 -2.61458,0.32292 -3.6875,0.96875c-1.0625,0.63542 -1.90104,1.52083 -2.51562,2.65625c-0.60417,1.125 -0.90625,2.42188 -0.90625,3.89063c0,1.46875 0.30208,2.76563 0.90625,3.89063c0.61458,1.11458 1.45313,1.99479 2.51563,2.64062c1.07292,0.63542 2.30208,0.95313 3.6875,0.95313zM626.55737,52.91232c-0.42708,0 -0.82292,-0.125 -1.1875,-0.375c-0.35417,-0.26042 -0.59896,-0.57292 -0.73437,-0.9375l-5.92187,-17.76563c-0.20833,-0.82292 -0.20312,-1.49479 0.01563,-2.01562c0.22917,-0.52083 0.72917,-0.78125 1.5,-0.78125c0.51042,0 0.93229,0.14063 1.26563,0.42188c0.33333,0.27083 0.60938,0.73958 0.82813,1.40625l5.03125,15.76563h-1.39062l4.75,-16.07813c0.13542,-0.45833 0.35938,-0.82292 0.67188,-1.09375c0.32292,-0.28125 0.76563,-0.42187 1.32813,-0.42187c0.53125,0 0.96354,0.14063 1.29688,0.42188c0.33333,0.27083 0.55729,0.63542 0.67188,1.09375l3.875,15.125h-0.59375l4.71875,-14.8125c0.36458,-1.21875 1.05729,-1.82812 2.07813,-1.82812c0.73958,0 1.24479,0.26042 1.51563,0.78125c0.27083,0.52083 0.25521,1.19271 -0.04687,2.01563l-5.90625,17.76563c-0.11458,0.36458 -0.34375,0.67708 -0.6875,0.9375c-0.34375,0.25 -0.74479,0.375 -1.20312,0.375c-0.42708,0 -0.82812,-0.125 -1.20312,-0.375c-0.36458,-0.26042 -0.60417,-0.57292 -0.71875,-0.9375l-4.10937,-15.25h0.39063l-4.3125,15.25c-0.10417,0.36458 -0.33854,0.67708 -0.70312,0.9375c-0.36458,0.25 -0.77083,0.375 -1.21875,0.375zM669.11487,52.9592c-0.58333,0 -1.06771,-0.19271 -1.45312,-0.57812c-0.38542,-0.39583 -0.57812,-0.88542 -0.57812,-1.46875v-9.84375c0,-1.52083 -0.28125,-2.76042 -0.84375,-3.71875c-0.5625,-0.95833 -1.31771,-1.67187 -2.26562,-2.14062c-0.94792,-0.46875 -2.03125,-0.70312 -3.25,-0.70312c-1.125,0 -2.14062,0.22917 -3.04687,0.6875c-0.90625,0.44792 -1.625,1.05208 -2.15625,1.8125c-0.53125,0.76042 -0.79687,1.63542 -0.79687,2.625h-2.53125c0,-1.67708 0.40625,-3.17708 1.21875,-4.5c0.8125,-1.32292 1.92708,-2.36979 3.34375,-3.14062c1.41667,-0.77083 3.00521,-1.15625 4.76563,-1.15625c1.83333,0 3.47396,0.39583 4.92188,1.1875c1.45833,0.78125 2.60938,1.93229 3.45313,3.45313c0.84375,1.52083 1.26563,3.38542 1.26563,5.59375v9.84375c0,0.58333 -0.19792,1.07292 -0.59375,1.46875c-0.38542,0.38542 -0.86979,0.57813 -1.45312,0.57813zM652.67737,52.9592c-0.58333,0 -1.07292,-0.19271 -1.46875,-0.57812c-0.38542,-0.39583 -0.57812,-0.88542 -0.57812,-1.46875v-17.84375c0,-0.61458 0.19271,-1.10417 0.57813,-1.46875c0.39583,-0.375 0.88542,-0.5625 1.46875,-0.5625c0.61458,0 1.10938,0.1875 1.48438,0.5625c0.375,0.36458 0.5625,0.85417 0.5625,1.46875v17.84375c0,0.58333 -0.1875,1.07292 -0.5625,1.46875c-0.375,0.38542 -0.86979,0.57813 -1.48437,0.57813zM697.59918,53.06857c-1.86458,0 -3.59375,-0.28646 -5.1875,-0.85937c-1.58333,-0.57292 -2.8125,-1.29687 -3.6875,-2.17187c-0.40625,-0.42708 -0.57812,-0.91146 -0.51562,-1.45312c0.07292,-0.55208 0.33333,-1.00521 0.78125,-1.35937c0.54167,-0.41667 1.06771,-0.59375 1.57813,-0.53125c0.52083,0.0625 0.96875,0.29688 1.34375,0.70313c0.45833,0.5 1.1875,0.97396 2.1875,1.42188c1,0.4375 2.11458,0.65625 3.34375,0.65625c1.54167,0 2.71875,-0.25 3.53125,-0.75c0.8125,-0.51042 1.23438,-1.16667 1.26563,-1.96875c0.02083,-0.80208 -0.36458,-1.49479 -1.15625,-2.07812c-0.78125,-0.59375 -2.20833,-1.07812 -4.28125,-1.45312c-2.69792,-0.53125 -4.65625,-1.32812 -5.875,-2.39062c-1.20833,-1.07292 -1.8125,-2.38021 -1.8125,-3.92188c0,-1.36458 0.40104,-2.48958 1.20313,-3.375c0.80208,-0.89583 1.82813,-1.5625 3.07813,-2c1.25,-0.44792 2.55729,-0.67187 3.92188,-0.67187c1.76042,0 3.31771,0.28125 4.67188,0.84375c1.36458,0.5625 2.44792,1.33854 3.25,2.32813c0.375,0.42708 0.54688,0.875 0.51563,1.34375c-0.02083,0.45833 -0.24479,0.84896 -0.67187,1.17188c-0.42708,0.29167 -0.9375,0.38542 -1.53125,0.28125c-0.58333,-0.10417 -1.07292,-0.34375 -1.46875,-0.71875c-0.66667,-0.64583 -1.39062,-1.08854 -2.17187,-1.32812c-0.77083,-0.23958 -1.66146,-0.35937 -2.67187,-0.35937c-1.17708,0 -2.17187,0.20313 -2.98437,0.60938c-0.8125,0.39583 -1.21875,0.97917 -1.21875,1.75c0,0.47917 0.125,0.91667 0.375,1.3125c0.26042,0.38542 0.76042,0.73438 1.5,1.04688c0.75,0.30208 1.84375,0.59896 3.28125,0.89063c2,0.39583 3.57813,0.90104 4.73438,1.51563c1.16667,0.61458 2,1.32813 2.5,2.14063c0.51042,0.8125 0.76563,1.75 0.76563,2.8125c0,1.22917 -0.32812,2.33854 -0.98437,3.32813c-0.64583,0.98958 -1.60417,1.77604 -2.875,2.35938c-1.26042,0.58333 -2.83854,0.875 -4.73437,0.875zM716.55353,52.91232c-1.16667,0 -2.20833,-0.31771 -3.125,-0.95312c-0.90625,-0.64583 -1.61458,-1.52083 -2.125,-2.625c-0.5,-1.10417 -0.75,-2.38021 -0.75,-3.82812v-21.82812c0,-0.59375 0.1875,-1.07292 0.5625,-1.4375c0.375,-0.375 0.85417,-0.5625 1.4375,-0.5625c0.59375,0 1.07292,0.1875 1.4375,0.5625c0.375,0.36458 0.5625,0.84375 0.5625,1.4375v21.82812c0,0.98958 0.1875,1.80729 0.5625,2.45312c0.375,0.63542 0.85417,0.95313 1.4375,0.95313h1c0.53125,0 0.96354,0.1875 1.29688,0.5625c0.33333,0.375 0.5,0.85417 0.5,1.4375c0,0.58333 -0.25521,1.0625 -0.76562,1.4375c-0.5,0.375 -1.15104,0.5625 -1.95312,0.5625zM732.07226,53.06857c-2.15625,0 -4.0625,-0.47396 -5.71875,-1.42187c-1.65625,-0.94792 -2.95833,-2.25521 -3.90625,-3.92187c-0.9375,-1.66667 -1.40625,-3.57812 -1.40625,-5.73437c0,-2.1875 0.46875,-4.11458 1.40625,-5.78125c0.94792,-1.66667 2.25,-2.97396 3.90625,-3.92187c1.65625,-0.94792 3.5625,-1.42187 5.71875,-1.42187c2.13542,0 4.03125,0.47396 5.6875,1.42188c1.65625,0.94792 2.95313,2.25521 3.89063,3.92188c0.94792,1.66667 1.42188,3.59375 1.42188,5.78125c0,2.15625 -0.46875,4.06771 -1.40625,5.73437c-0.92708,1.66667 -2.21875,2.97396 -3.875,3.92188c-1.64583,0.94792 -3.55208,1.42188 -5.71875,1.42188zM732.07226,49.47482c1.38542,0 2.60938,-0.31771 3.67188,-0.95312c1.07292,-0.64583 1.90625,-1.52604 2.5,-2.64062c0.60417,-1.125 0.90625,-2.42187 0.90625,-3.89062c0,-1.46875 -0.30208,-2.76563 -0.90625,-3.89063c-0.59375,-1.13542 -1.42708,-2.02083 -2.5,-2.65625c-1.0625,-0.64583 -2.28646,-0.96875 -3.67187,-0.96875c-1.38542,0 -2.61458,0.32292 -3.6875,0.96875c-1.0625,0.63542 -1.90104,1.52083 -2.51562,2.65625c-0.60417,1.125 -0.90625,2.42188 -0.90625,3.89063c0,1.46875 0.30208,2.76563 0.90625,3.89063c0.61458,1.11458 1.45313,1.99479 2.51563,2.64062c1.07292,0.63542 2.30208,0.95313 3.6875,0.95313zM751.19726,62.2717c-0.58333,0 -1.07292,-0.19271 -1.46875,-0.57812c-0.38542,-0.38542 -0.57812,-0.875 -0.57812,-1.46875v-18.23437c0.03125,-2.10417 0.52604,-3.99479 1.48438,-5.67188c0.95833,-1.6875 2.26563,-3.01562 3.92188,-3.98437c1.65625,-0.97917 3.52083,-1.46875 5.59375,-1.46875c2.11458,0 3.99479,0.48958 5.64063,1.46875c1.65625,0.96875 2.96875,2.29688 3.9375,3.98438c0.97917,1.67708 1.46875,3.56771 1.46875,5.67188c0,2.10417 -0.44792,3.98958 -1.34375,5.65625c-0.89583,1.66667 -2.11979,2.98958 -3.67187,3.96875c-1.54167,0.96875 -3.28125,1.45313 -5.21875,1.45313c-1.57292,0 -3.02083,-0.32292 -4.34375,-0.96875c-1.32292,-0.65625 -2.44792,-1.54687 -3.375,-2.67187v10.79688c0,0.59375 -0.1875,1.08333 -0.5625,1.46875c-0.375,0.38542 -0.86979,0.57813 -1.48437,0.57813zM760.15039,49.47482c1.36458,0 2.57813,-0.32812 3.64063,-0.98437c1.07292,-0.65625 1.92188,-1.54687 2.54688,-2.67187c0.625,-1.13542 0.9375,-2.41146 0.9375,-3.82812c0,-1.4375 -0.3125,-2.72396 -0.9375,-3.85938c-0.625,-1.13542 -1.47396,-2.02604 -2.54687,-2.67187c-1.0625,-0.65625 -2.27604,-0.98437 -3.64062,-0.98437c-1.33333,0 -2.54167,0.32813 -3.625,0.98438c-1.07292,0.64583 -1.91667,1.53646 -2.53125,2.67188c-0.61458,1.13542 -0.92187,2.42188 -0.92187,3.85938c0,1.41667 0.30729,2.69271 0.92188,3.82813c0.61458,1.125 1.45833,2.01562 2.53125,2.67187c1.08333,0.65625 2.29167,0.98438 3.625,0.98438zM787.55163,53.06857c-2.20833,0 -4.17187,-0.47396 -5.89062,-1.42187c-1.71875,-0.94792 -3.06771,-2.25521 -4.04687,-3.92187c-0.96875,-1.66667 -1.45312,-3.57812 -1.45312,-5.73437c0,-2.1875 0.45833,-4.11458 1.375,-5.78125c0.91667,-1.66667 2.1875,-2.97396 3.8125,-3.92187c1.63542,-0.94792 3.50521,-1.42187 5.60938,-1.42187c2.08333,0 3.86979,0.46354 5.35938,1.39063c1.48958,0.91667 2.625,2.18229 3.40625,3.79688c0.79167,1.61458 1.1875,3.47396 1.1875,5.57813c0,0.51042 -0.17187,0.93229 -0.51562,1.26563c-0.34375,0.33333 -0.78125,0.5 -1.3125,0.5h-16.125v-3.20313h16l-1.64062,1.125c-0.03125,-1.33333 -0.30208,-2.52604 -0.8125,-3.57813c-0.5,-1.0625 -1.21875,-1.89583 -2.15625,-2.5c-0.92708,-0.61458 -2.05729,-0.92187 -3.39062,-0.92187c-1.52083,0 -2.82292,0.33333 -3.90625,1c-1.07292,0.66667 -1.89062,1.57813 -2.45312,2.73438c-0.5625,1.15625 -0.84375,2.46875 -0.84375,3.9375c0,1.46875 0.33333,2.77604 1,3.92188c0.66667,1.14583 1.58333,2.05208 2.75,2.71875c1.17708,0.66667 2.52604,1 4.04688,1c0.83333,0 1.68229,-0.15104 2.54688,-0.45312c0.86458,-0.3125 1.5625,-0.66667 2.09375,-1.0625c0.40625,-0.29167 0.83854,-0.44271 1.29688,-0.45312c0.46875,-0.02083 0.88021,0.11458 1.23438,0.40625c0.44792,0.40625 0.68229,0.84896 0.70313,1.32813c0.03125,0.47917 -0.17708,0.89063 -0.625,1.23438c-0.90625,0.71875 -2.03646,1.30729 -3.39062,1.76563c-1.34375,0.44792 -2.63021,0.67188 -3.85937,0.67188zM810.0791,53.06857c-1.86458,0 -3.59375,-0.28646 -5.1875,-0.85937c-1.58333,-0.57292 -2.8125,-1.29687 -3.6875,-2.17187c-0.40625,-0.42708 -0.57812,-0.91146 -0.51562,-1.45312c0.07292,-0.55208 0.33333,-1.00521 0.78125,-1.35937c0.54167,-0.41667 1.06771,-0.59375 1.57813,-0.53125c0.52083,0.0625 0.96875,0.29688 1.34375,0.70313c0.45833,0.5 1.1875,0.97396 2.1875,1.42188c1,0.4375 2.11458,0.65625 3.34375,0.65625c1.54167,0 2.71875,-0.25 3.53125,-0.75c0.8125,-0.51042 1.23438,-1.16667 1.26563,-1.96875c0.02083,-0.80208 -0.36458,-1.49479 -1.15625,-2.07812c-0.78125,-0.59375 -2.20833,-1.07812 -4.28125,-1.45312c-2.69792,-0.53125 -4.65625,-1.32812 -5.875,-2.39062c-1.20833,-1.07292 -1.8125,-2.38021 -1.8125,-3.92188c0,-1.36458 0.40104,-2.48958 1.20313,-3.375c0.80208,-0.89583 1.82813,-1.5625 3.07813,-2c1.25,-0.44792 2.55729,-0.67187 3.92188,-0.67187c1.76042,0 3.31771,0.28125 4.67188,0.84375c1.36458,0.5625 2.44792,1.33854 3.25,2.32813c0.375,0.42708 0.54688,0.875 0.51563,1.34375c-0.02083,0.45833 -0.24479,0.84896 -0.67187,1.17188c-0.42708,0.29167 -0.9375,0.38542 -1.53125,0.28125c-0.58333,-0.10417 -1.07292,-0.34375 -1.46875,-0.71875c-0.66667,-0.64583 -1.39062,-1.08854 -2.17187,-1.32812c-0.77083,-0.23958 -1.66146,-0.35937 -2.67187,-0.35937c-1.17708,0 -2.17187,0.20313 -2.98437,0.60938c-0.8125,0.39583 -1.21875,0.97917 -1.21875,1.75c0,0.47917 0.125,0.91667 0.375,1.3125c0.26042,0.38542 0.76042,0.73438 1.5,1.04688c0.75,0.30208 1.84375,0.59896 3.28125,0.89063c2,0.39583 3.57813,0.90104 4.73438,1.51563c1.16667,0.61458 2,1.32813 2.5,2.14063c0.51042,0.8125 0.76563,1.75 0.76563,2.8125c0,1.22917 -0.32812,2.33854 -0.98437,3.32813c-0.64583,0.98958 -1.60417,1.77604 -2.875,2.35938c-1.26042,0.58333 -2.83854,0.875 -4.73437,0.875z" data-paper-data="{&quot;origPos&quot;:null}" fill="#000000" fill-rule="nonzero" stroke="none" stroke-width="1" stroke-linecap="square" stroke-linejoin="miter"/><path d="M271.5,359c0,-1.38071 1.11929,-2.5 2.5,-2.5c1.38071,0 2.5,1.11929 2.5,2.5c0,1.38071 -1.11929,2.5 -2.5,2.5c-1.38071,0 -2.5,-1.11929 -2.5,-2.5z" data-paper-data="{&quot;origPos&quot;:null}" fill="#9966ff" fill-rule="nonzero" stroke="none" stroke-width="0.5" stroke-linecap="butt" stroke-linejoin="miter"/></g></g></svg>