<svg version="1.1" xmlns="http://www.w3.org/2000/svg" xmlns:xlink="http://www.w3.org/1999/xlink" width="67.50251" height="67.50251" viewBox="0,0,67.50251,67.50251"><defs><radialGradient cx="240.00002" cy="180" r="33.75126" gradientUnits="userSpaceOnUse" id="color-1"><stop offset="0" stop-color="#2b4359"/><stop offset="1" stop-color="#2b4359" stop-opacity="0"/></radialGradient><linearGradient x1="239.76555" y1="174.36488" x2="239.76555" y2="177.86488" gradientUnits="userSpaceOnUse" id="color-2"><stop offset="0" stop-color="#bebebe"/><stop offset="1" stop-color="#ebebeb"/></linearGradient></defs><g transform="translate(-206.24877,-146.24875)"><g data-paper-data="{&quot;isPaintingLayer&quot;:true}" fill="none" fill-rule="nonzero" stroke="none" stroke-width="none" stroke-linecap="none" stroke-linejoin="miter" stroke-miterlimit="10" stroke-dasharray="" stroke-dashoffset="0" font-family="none" font-weight="none" font-size="none" text-anchor="none" style="mix-blend-mode: normal"><path d="M219.21899,153.40687c14.68699,-11.47704 35.89711,-8.87488 47.37417,5.8121c11.47704,14.68699 8.87488,35.89711 -5.8121,47.37417c-14.68699,11.47704 -35.89711,8.87488 -47.37417,-5.8121c-11.47704,-14.68699 -8.87488,-35.89711 5.8121,-47.37417z" data-paper-data="{&quot;origPos&quot;:null}" fill="url(#color-1)" stroke="none" stroke-width="0.5" stroke-linecap="butt"/><path d="M222.6054,157.7404c12.29364,-9.60678 30.04743,-7.42866 39.65422,4.86498c9.60678,12.29364 7.42866,30.04743 -4.86498,39.65422c-12.29364,9.60678 -30.04743,7.42866 -39.65422,-4.86498c-9.60678,-12.29364 -7.42866,-30.04743 4.86498,-39.65422z" data-paper-data="{&quot;origPos&quot;:null}" fill="#2b3a59" stroke="none" stroke-width="0.5" stroke-linecap="butt"/><path d="M227.07343,161.96934c9.24743,-7.22634 22.60207,-5.58792 29.82841,3.6595c7.22634,9.24743 5.58792,22.60206 -3.65951,29.8284c-9.24743,7.22634 -22.60205,5.58792 -29.82839,-3.6595c-7.22634,-9.24743 -5.58793,-22.60206 3.6595,-29.8284z" data-paper-data="{&quot;origPos&quot;:null}" fill="#24314a" stroke="none" stroke-width="0.5" stroke-linecap="butt"/><path d="M227.48,163.97833c8.84852,-6.91462 21.62707,-5.34688 28.54169,3.50164c6.91462,8.84852 5.34688,21.62706 -3.50165,28.54168c-8.84852,6.91462 -21.62707,5.34688 -28.54168,-3.50163c-6.91462,-8.84852 -5.34688,-21.62707 3.50164,-28.54169z" data-paper-data="{&quot;origPos&quot;:null}" fill="#3d5380" stroke="none" stroke-width="0.5" stroke-linecap="butt"/><path d="M221.62506,188.37169l30.71626,-24.57282c0,0 1.85192,1.34291 2.78508,2.39951c0.49999,0.56611 1.66355,2.48131 1.66355,2.48131l-31.45123,25.52704c0,0 -1.24256,-1.04873 -2.22544,-3.38921c-0.38704,-0.92165 -1.48823,-2.44581 -1.48823,-2.44581z" data-paper-data="{&quot;origPos&quot;:null}" fill="#425b89" stroke="none" stroke-width="0" stroke-linecap="butt"/><path d="M227.81762,196.39003l30.88237,-24.6574c0,0 1.01801,2.61919 1.08289,4.21255c0.27254,2.99461 0.49698,3.09279 0.49698,3.09279l-25.99437,20.66285c0,0 -3.20088,-1.18564 -4.25643,-1.92807c-2.34833,-1.65173 -2.21143,-1.38272 -2.21143,-1.38272z" data-paper-data="{&quot;origPos&quot;:null}" fill="#445e8e" stroke="none" stroke-width="0" stroke-linecap="butt"/><path d="M241.13666,175.10922l0.21316,18.33155" data-paper-data="{&quot;origPos&quot;:null}" fill="none" stroke="#3e4e6b" stroke-width="6.5" stroke-linecap="round"/><path d="M252.14831,173.83252l-22.80786,-0.21316" data-paper-data="{&quot;origPos&quot;:null}" fill="none" stroke="#3e4e6b" stroke-width="6.5" stroke-linecap="round"/><path d="M239.71938,174.26336l0.21316,18.33155" data-paper-data="{&quot;origPos&quot;:null}" fill="none" stroke="#ebebeb" stroke-width="6.5" stroke-linecap="round"/><path d="M236.51555,177.86488v-3.5h6.5v3.5z" data-paper-data="{&quot;origPos&quot;:null}" fill="url(#color-2)" stroke="none" stroke-width="0" stroke-linecap="butt"/><path d="M228.20888,172.34494l22.80786,0.21316" data-paper-data="{&quot;origPos&quot;:null}" fill="none" stroke="#e6e6e6" stroke-width="6.5" stroke-linecap="round"/></g></g></svg>