<svg version="1.1" xmlns="http://www.w3.org/2000/svg" xmlns:xlink="http://www.w3.org/1999/xlink" width="46.90018" height="47.9"><g transform="translate(-216.5499,-156.05)"><g data-paper-data="{&quot;isPaintingLayer&quot;:true}" fill="none" fill-rule="nonzero" stroke="none" stroke-width="none" stroke-linecap="butt" stroke-linejoin="none" stroke-miterlimit="10" stroke-dasharray="" stroke-dashoffset="0" font-family="none" font-weight="none" font-size="none" text-anchor="none" style="mix-blend-mode: normal"><path d="M231.2999,189.2v-18.4h17.40018v18.4z" data-paper-data="{&quot;zoomLevel&quot;:2.5,&quot;origPos&quot;:null}" fill="none" stroke="#583c3c" stroke-width="29.5" stroke-linejoin="round"/><path d="M225.42076,179.67181c0,-7.87064 6.38041,-14.25105 14.25105,-14.25105c7.87064,0 14.25105,6.38041 14.25105,14.25105c0,7.87064 -6.38041,14.25105 -14.25105,14.25105c-7.87064,0 -14.25105,-6.38041 -14.25105,-14.25105z" data-paper-data="{&quot;origPos&quot;:null}" fill="#ff7e7e" stroke="none" stroke-width="0.5" stroke-linejoin="miter"/><path d="M253.92285,179.67181c0,7.87064 -6.38041,14.25105 -14.25105,14.25105c-7.87064,0 14.25105,-22.12169 14.25105,-14.25105z" data-paper-data="{&quot;origPos&quot;:null}" fill="#ff8888" stroke="none" stroke-width="0.5" stroke-linejoin="miter"/><path d="M226.07717,180.32822c0,-7.87064 6.38041,-14.25105 14.25105,-14.25105c7.87064,0 14.25104,6.38041 14.25104,14.25105c0,7.87064 -6.38041,14.25104 -14.25104,14.25104c-7.87064,0 -14.25105,-6.38041 -14.25105,-14.25104z" data-paper-data="{&quot;origPos&quot;:null}" fill="none" stroke="#d16a6a" stroke-width="7.5" stroke-linejoin="miter"/><path d="M225.42076,179.67181c0,-7.87064 6.38041,-14.25104 14.25105,-14.25104c7.87064,0 14.25105,6.38041 14.25105,14.25104c0,7.87064 -6.38041,14.25105 -14.25105,14.25105c-7.87064,0 -14.25105,-6.38041 -14.25105,-14.25105z" data-paper-data="{&quot;origPos&quot;:null}" fill="none" stroke="#d17878" stroke-width="2.5" stroke-linejoin="miter"/><path d="M244.91109,187.791c-1.28609,0.7767 -5.06471,-3.23799 -5.06471,-3.23799c0,0 -4.40302,3.32171 -5.53986,2.33819c-1.13782,-0.98348 1.51409,-5.81924 1.51409,-5.81924c0,0 -4.51901,-3.1613 -3.93499,-4.54623c0.58403,-1.386 6.00182,-0.3581 6.00182,-0.3581c0,0 1.60891,-5.27453 3.10683,-5.14844c1.49996,0.12708 2.19697,5.59833 2.19697,5.59833c0,0 5.51362,-0.09987 5.85457,1.36477c0.34396,1.46366 -4.6441,3.81797 -4.6441,3.81797c0,0 1.79853,5.21403 0.50938,5.99074z" data-paper-data="{&quot;origPos&quot;:null}" id="Star" fill="#e47070" stroke="none" stroke-width="0" stroke-linejoin="miter"/></g></g></svg>