<svg version="1.1" xmlns="http://www.w3.org/2000/svg" xmlns:xlink="http://www.w3.org/1999/xlink" width="456.6654" height="370.9735"><defs><linearGradient x1="471.74518" y1="340.41826" x2="451.25277" y2="359.98837" gradientUnits="userSpaceOnUse" id="color-1"><stop offset="0" stop-color="#8e8e8e"/><stop offset="1" stop-color="#818181"/></linearGradient><linearGradient x1="386.24331" y1="294.32633" x2="382.75482" y2="326.05726" gradientUnits="userSpaceOnUse" id="color-2"><stop offset="0" stop-color="#8e8e8e"/><stop offset="1" stop-color="#818181"/></linearGradient></defs><g transform="translate(-112.75371,-194.4265)"><g data-paper-data="{&quot;isPaintingLayer&quot;:true}" fill="none" fill-rule="nonzero" stroke="none" stroke-width="none" stroke-linecap="butt" stroke-linejoin="miter" stroke-miterlimit="10" stroke-dasharray="" stroke-dashoffset="0" font-family="none" font-weight="none" font-size="none" text-anchor="none" style="mix-blend-mode: normal"><path d="M308.90792,337.00005v-80h241.41026v80z" data-paper-data="{&quot;origPos&quot;:null}" fill="#847968" stroke-width="NaN"/><path d="M338.90792,323.00001v-40h185.76923v40z" data-paper-data="{&quot;origPos&quot;:null}" fill="#7c7262" stroke-width="0"/><path d="M339.80538,565.40001v-252h185.76922v252z" data-paper-data="{&quot;origPos&quot;:null}" fill="#786e5f" stroke-width="0"/><path d="M335.31818,265.00005v-9h187.56411v9z" data-paper-data="{&quot;origPos&quot;:null}" fill="#61584c" stroke-width="0"/><path d="M339.80538,260.00005v-19h187.56409v19z" data-paper-data="{&quot;origPos&quot;:null}" fill="#91b782" stroke-width="0"/><path d="M338.90792,260.00005v-12h187.56411v12z" data-paper-data="{&quot;origPos&quot;:null}" fill="#8aaf7c" stroke-width="0"/><g data-paper-data="{&quot;origPos&quot;:null,&quot;origRot&quot;:0}" stroke-width="0"><path d="M116.86691,484.76728l1.96396,-290.32391l36.98232,0.25017l-1.96396,290.32392z" data-paper-data="{&quot;origPos&quot;:null}" fill="#d3bb76"/><path d="M118.46996,269.64261l0.43614,-64.47387l37.33452,0.25255l-0.43614,64.47387z" data-paper-data="{&quot;origPos&quot;:null}" fill="#b9a568"/><path d="M112.75371,265.53999l0.43858,-64.83285l47.96051,0.32444l-0.43858,64.83285z" data-paper-data="{&quot;origPos&quot;:null}" fill="#e7cd81"/><path d="M120.14414,255.66721l0.32055,-47.38612l5.16939,0.03497l-0.32055,47.38613z" data-paper-data="{&quot;origPos&quot;:null}" fill="#b9a568"/><path d="M120.15346,254.28865l0.32055,-47.38612l5.16939,0.03497l-0.32055,47.38613z" data-paper-data="{&quot;origPos&quot;:null}" fill="#d3bb76"/><path d="M120.61217,211.95252l0.03381,-4.99708l24.98541,0.16902l-0.03381,4.99708z" data-paper-data="{&quot;origPos&quot;:null}" fill="#d3bb76"/><path d="M140.1954,246.49749l0.2646,-39.1151l5.1694,0.03497l-0.2646,39.1151z" data-paper-data="{&quot;origPos&quot;:null}" fill="#d3bb76"/><path d="M130.20007,246.60216l0.18417,-27.22548l5.1694,0.03497l-0.18417,27.22548z" data-paper-data="{&quot;origPos&quot;:null}" fill="#d3bb76"/><path d="M130.37203,246.65507l0.0373,-5.51403l14.81894,0.10024l-0.0373,5.51403z" data-paper-data="{&quot;origPos&quot;:null}" fill="#d3bb76"/><path d="M120.13795,256.58043l0.03381,-4.99708l33.9457,0.22963l-0.03381,4.99708z" data-paper-data="{&quot;origPos&quot;:null}" fill="#d3bb76"/><path d="M149.77617,256.7292l0.33454,-49.45389l5.16939,0.03497l-0.33454,49.45389z" data-paper-data="{&quot;origPos&quot;:null}" fill="#d3bb76"/><path d="M118.6433,391.84659l0.43614,-64.47387l37.33452,0.25255l-0.43614,64.47387z" data-paper-data="{&quot;origPos&quot;:null}" fill="#b9a568"/><path d="M112.92706,387.74401l0.43858,-64.83285l47.96051,0.32444l-0.43858,64.83285z" data-paper-data="{&quot;origPos&quot;:null}" fill="#e7cd81"/><path d="M120.31749,377.87118l0.32055,-47.38612l5.16939,0.03497l-0.32055,47.38613z" data-paper-data="{&quot;origPos&quot;:null}" fill="#b9a568"/><path d="M120.32681,376.49267l0.32055,-47.38612l5.16939,0.03497l-0.32055,47.38613z" data-paper-data="{&quot;origPos&quot;:null}" fill="#d3bb76"/><path d="M120.78552,334.15648l0.03381,-4.99708l24.98541,0.16902l-0.03381,4.99708z" data-paper-data="{&quot;origPos&quot;:null}" fill="#d3bb76"/><path d="M140.36875,368.70147l0.2646,-39.1151l5.1694,0.03497l-0.2646,39.1151z" data-paper-data="{&quot;origPos&quot;:null}" fill="#d3bb76"/><path d="M130.3734,368.8062l0.18417,-27.22548l5.1694,0.03497l-0.18417,27.22548z" data-paper-data="{&quot;origPos&quot;:null}" fill="#d3bb76"/><path d="M130.54536,368.85906l0.0373,-5.51403l14.81894,0.10024l-0.0373,5.51403z" data-paper-data="{&quot;origPos&quot;:null}" fill="#d3bb76"/><path d="M120.3113,378.78444l0.03381,-4.99708l33.9457,0.22963l-0.03381,4.99708z" data-paper-data="{&quot;origPos&quot;:null}" fill="#d3bb76"/><path d="M149.94952,378.93325l0.33454,-49.45389l5.16939,0.03497l-0.33454,49.45389z" data-paper-data="{&quot;origPos&quot;:null}" fill="#d3bb76"/><path d="M118.75079,439.64005l0.27139,-40.11942l36.76015,0.24867l-0.27139,40.11942z" data-paper-data="{&quot;origPos&quot;:null}" fill="#b9a568"/><path d="M113.03366,435.66899l0.25177,-37.21816l47.96051,0.32444l-0.25177,37.21816z" data-paper-data="{&quot;origPos&quot;:null}" fill="#e7cd81"/><path d="M119.10582,429.61677l0.17485,-25.84699l5.1694,0.03497l-0.17485,25.84699z" data-paper-data="{&quot;origPos&quot;:null}" fill="#d3bb76"/><path d="M149.26259,429.53356l0.17485,-25.84699l5.16939,0.03497l-0.17485,25.84699z" data-paper-data="{&quot;origPos&quot;:null}" fill="#d3bb76"/><path d="M128.29781,429.39173l0.17485,-25.84699l5.16939,0.03497l-0.17485,25.84699z" data-paper-data="{&quot;origPos&quot;:null}" fill="#d3bb76"/><path d="M140.35973,429.47333l0.17485,-25.84699l5.16939,0.03497l-0.17485,25.84699z" data-paper-data="{&quot;origPos&quot;:null}" fill="#d3bb76"/><path d="M129.68731,429.19053l0.03886,-5.74377l12.9235,0.08743l-0.03886,5.74377z" data-paper-data="{&quot;origPos&quot;:null}" fill="#d3bb76"/><path d="M130.68293,409.38034l0.03886,-5.74378l12.9235,0.08743l-0.03886,5.74378z" data-paper-data="{&quot;origPos&quot;:null}" fill="#d3bb76"/><path d="M118.57745,317.43611l0.27139,-40.11942l36.76015,0.24867l-0.27139,40.11942z" data-paper-data="{&quot;origPos&quot;:null}" fill="#b9a568"/><path d="M112.86032,313.46493l0.25177,-37.21816l47.96051,0.32444l-0.25177,37.21816z" data-paper-data="{&quot;origPos&quot;:null}" fill="#e7cd81"/><path d="M118.93248,307.41274l0.17485,-25.84699l5.1694,0.03497l-0.17485,25.84699z" data-paper-data="{&quot;origPos&quot;:null}" fill="#d3bb76"/><path d="M149.08925,307.32948l0.17485,-25.84699l5.16939,0.03497l-0.17485,25.84699z" data-paper-data="{&quot;origPos&quot;:null}" fill="#d3bb76"/><path d="M128.12447,307.18768l0.17485,-25.84699l5.16939,0.03497l-0.17485,25.84699z" data-paper-data="{&quot;origPos&quot;:null}" fill="#d3bb76"/><path d="M140.18638,307.26932l0.17485,-25.84699l5.16939,0.03497l-0.17485,25.84699z" data-paper-data="{&quot;origPos&quot;:null}" fill="#d3bb76"/><path d="M129.51396,306.98645l0.03886,-5.74377l12.9235,0.08743l-0.03886,5.74377z" data-paper-data="{&quot;origPos&quot;:null}" fill="#d3bb76"/><path d="M130.50959,287.17632l0.03886,-5.74378l12.9235,0.08743l-0.03886,5.74378z" data-paper-data="{&quot;origPos&quot;:null}" fill="#d3bb76"/></g><g data-paper-data="{&quot;origPos&quot;:null,&quot;origRot&quot;:0}" stroke-width="0"><path d="M159.87854,484.75042l1.96396,-290.32391l36.98232,0.25017l-1.96396,290.32392z" data-paper-data="{&quot;origPos&quot;:null}" fill="#d3bb76"/><path d="M161.48159,269.62573l0.43614,-64.47387l37.33452,0.25255l-0.43614,64.47387z" data-paper-data="{&quot;origPos&quot;:null}" fill="#b9a568"/><path d="M155.76534,265.52311l0.43858,-64.83285l47.96051,0.32443l-0.43858,64.83285z" data-paper-data="{&quot;origPos&quot;:null}" fill="#e7cd81"/><path d="M163.15577,255.65034l0.32055,-47.38612l5.16939,0.03498l-0.32055,47.38613z" data-paper-data="{&quot;origPos&quot;:null}" fill="#b9a568"/><path d="M163.16508,254.27177l0.32055,-47.38612l5.16939,0.03497l-0.32056,47.38613z" data-paper-data="{&quot;origPos&quot;:null}" fill="#d3bb76"/><path d="M163.6238,211.93565l0.03381,-4.99708l24.98541,0.16902l-0.03381,4.99708z" data-paper-data="{&quot;origPos&quot;:null}" fill="#d3bb76"/><path d="M183.20702,246.48062l0.26461,-39.1151l5.1694,0.03498l-0.2646,39.1151z" data-paper-data="{&quot;origPos&quot;:null}" fill="#d3bb76"/><path d="M173.2117,246.58528l0.18417,-27.22548l5.1694,0.03497l-0.18417,27.22548z" data-paper-data="{&quot;origPos&quot;:null}" fill="#d3bb76"/><path d="M173.38365,246.6382l0.0373,-5.51403l14.81894,0.10024l-0.0373,5.51403z" data-paper-data="{&quot;origPos&quot;:null}" fill="#d3bb76"/><path d="M163.14957,256.56354l0.03381,-4.99708l33.9457,0.22963l-0.03381,4.99708z" data-paper-data="{&quot;origPos&quot;:null}" fill="#d3bb76"/><path d="M192.7878,256.71232l0.33454,-49.45389l5.16939,0.03498l-0.33454,49.45389z" data-paper-data="{&quot;origPos&quot;:null}" fill="#d3bb76"/><path d="M161.65493,391.82971l0.43614,-64.47387l37.33452,0.25255l-0.43614,64.47387z" data-paper-data="{&quot;origPos&quot;:null}" fill="#b9a568"/><path d="M155.93868,387.72714l0.43858,-64.83285l47.96051,0.32443l-0.43858,64.83285z" data-paper-data="{&quot;origPos&quot;:null}" fill="#e7cd81"/><path d="M163.32912,377.85431l0.32055,-47.38612l5.16939,0.03498l-0.32055,47.38613z" data-paper-data="{&quot;origPos&quot;:null}" fill="#b9a568"/><path d="M163.33844,376.4758l0.32055,-47.38612l5.16939,0.03497l-0.32055,47.38613z" data-paper-data="{&quot;origPos&quot;:null}" fill="#d3bb76"/><path d="M163.79714,334.13963l0.03381,-4.99708l24.98541,0.16902l-0.03381,4.99708z" data-paper-data="{&quot;origPos&quot;:null}" fill="#d3bb76"/><path d="M183.38037,368.68462l0.26461,-39.1151l5.1694,0.03497l-0.26461,39.1151z" data-paper-data="{&quot;origPos&quot;:null}" fill="#d3bb76"/><path d="M173.38502,368.78932l0.18417,-27.22548l5.1694,0.03498l-0.18417,27.22548z" data-paper-data="{&quot;origPos&quot;:null}" fill="#d3bb76"/><path d="M173.55699,368.84218l0.0373,-5.51403l14.81894,0.10025l-0.0373,5.51403z" data-paper-data="{&quot;origPos&quot;:null}" fill="#d3bb76"/><path d="M163.32291,378.76758l0.03381,-4.99708l33.9457,0.22963l-0.03381,4.99708z" data-paper-data="{&quot;origPos&quot;:null}" fill="#d3bb76"/><path d="M192.96114,378.91637l0.33454,-49.45389l5.16939,0.03498l-0.33454,49.45389z" data-paper-data="{&quot;origPos&quot;:null}" fill="#d3bb76"/><path d="M161.76242,439.6232l0.2714,-40.11942l36.76015,0.24867l-0.2714,40.11942z" data-paper-data="{&quot;origPos&quot;:null}" fill="#b9a568"/><path d="M156.04528,435.65213l0.25177,-37.21817l47.96051,0.32444l-0.25176,37.21817z" data-paper-data="{&quot;origPos&quot;:null}" fill="#e7cd81"/><path d="M162.11744,429.5999l0.17484,-25.84699l5.1694,0.03497l-0.17485,25.84699z" data-paper-data="{&quot;origPos&quot;:null}" fill="#d3bb76"/><path d="M192.2742,429.51668l0.17485,-25.84699l5.16939,0.03497l-0.17485,25.84699z" data-paper-data="{&quot;origPos&quot;:null}" fill="#d3bb76"/><path d="M171.30943,429.37486l0.17484,-25.84699l5.16939,0.03497l-0.17485,25.84699z" data-paper-data="{&quot;origPos&quot;:null}" fill="#d3bb76"/><path d="M183.37136,429.45645l0.17485,-25.84699l5.16939,0.03498l-0.17484,25.84699z" data-paper-data="{&quot;origPos&quot;:null}" fill="#d3bb76"/><path d="M172.69894,429.17367l0.03886,-5.74377l12.9235,0.08743l-0.03886,5.74377z" data-paper-data="{&quot;origPos&quot;:null}" fill="#d3bb76"/><path d="M173.69455,409.36348l0.03886,-5.74378l12.9235,0.08743l-0.03886,5.74378z" data-paper-data="{&quot;origPos&quot;:null}" fill="#d3bb76"/><path d="M161.58908,317.41924l0.27139,-40.11942l36.76015,0.24867l-0.2714,40.11942z" data-paper-data="{&quot;origPos&quot;:null}" fill="#b9a568"/><path d="M155.87194,313.44808l0.25176,-37.21816l47.96051,0.32443l-0.25177,37.21816z" data-paper-data="{&quot;origPos&quot;:null}" fill="#e7cd81"/><path d="M161.94412,307.39589l0.17484,-25.84699l5.1694,0.03497l-0.17485,25.84699z" data-paper-data="{&quot;origPos&quot;:null}" fill="#d3bb76"/><path d="M192.10088,307.31259l0.17485,-25.84699l5.16939,0.03497l-0.17485,25.84699z" data-paper-data="{&quot;origPos&quot;:null}" fill="#d3bb76"/><path d="M171.13608,307.1708l0.17485,-25.84699l5.16939,0.03498l-0.17485,25.84699z" data-paper-data="{&quot;origPos&quot;:null}" fill="#d3bb76"/><path d="M183.19801,307.25244l0.17485,-25.84699l5.16939,0.03497l-0.17485,25.84699z" data-paper-data="{&quot;origPos&quot;:null}" fill="#d3bb76"/><path d="M172.52558,306.96961l0.03886,-5.74377l12.9235,0.08743l-0.03886,5.74377z" data-paper-data="{&quot;origPos&quot;:null}" fill="#d3bb76"/><path d="M173.52121,287.15945l0.03886,-5.74378l12.9235,0.08743l-0.03886,5.74378z" data-paper-data="{&quot;origPos&quot;:null}" fill="#d3bb76"/></g><g data-paper-data="{&quot;origPos&quot;:null,&quot;origRot&quot;:0}" stroke-width="0"><path d="M314.1701,527.82472l-10.63436,-290.13572l36.95835,-1.35464l10.63436,290.13573z" data-paper-data="{&quot;origPos&quot;:null}" fill="#d3bb76"/><path d="M306.43789,312.8331l-2.36163,-64.43207l37.31032,-1.36754l2.36163,64.43207z" data-paper-data="{&quot;origPos&quot;:null}" fill="#b9a568"/><path d="M300.54902,308.98235l-2.37478,-64.79083l47.92943,-1.75676l2.37478,64.79083z" data-paper-data="{&quot;origPos&quot;:null}" fill="#e7cd81"/><path d="M307.50413,298.79819l-1.73572,-47.35541l5.16604,-0.18935l1.73572,47.35542z" data-paper-data="{&quot;origPos&quot;:null}" fill="#b9a568"/><path d="M307.45362,297.42053l-1.73571,-47.35541l5.16604,-0.18935l1.73571,47.35542z" data-paper-data="{&quot;origPos&quot;:null}" fill="#d3bb76"/><path d="M306.07504,255.10438l-0.18304,-4.99384l24.96922,-0.9152l0.18304,4.99384z" data-paper-data="{&quot;origPos&quot;:null}" fill="#d3bb76"/><path d="M327.13865,288.76715l-1.43276,-39.08975l5.16605,-0.18935l1.43276,39.08975z" data-paper-data="{&quot;origPos&quot;:null}" fill="#d3bb76"/><path d="M317.15728,289.30538l-0.99725,-27.20784l5.16605,-0.18935l0.99725,27.20784z" data-paper-data="{&quot;origPos&quot;:null}" fill="#d3bb76"/><path d="M317.33136,289.35078l-0.20197,-5.51046l14.80933,-0.54281l0.20197,5.51046z" data-paper-data="{&quot;origPos&quot;:null}" fill="#d3bb76"/><path d="M307.53756,299.71083l-0.18303,-4.99384l33.92369,-1.24341l0.18303,4.99384z" data-paper-data="{&quot;origPos&quot;:null}" fill="#d3bb76"/><path d="M337.15434,298.57353l-1.81146,-49.42184l5.16604,-0.18935l1.81146,49.42184z" data-paper-data="{&quot;origPos&quot;:null}" fill="#d3bb76"/><path d="M311.91321,434.91447l-2.36163,-64.43207l37.31032,-1.36754l2.36163,64.43207z" data-paper-data="{&quot;origPos&quot;:null}" fill="#b9a568"/><path d="M306.02434,431.06377l-2.37478,-64.79083l47.92943,-1.75676l2.37478,64.79083z" data-paper-data="{&quot;origPos&quot;:null}" fill="#e7cd81"/><path d="M312.97946,420.87958l-1.73572,-47.35541l5.16604,-0.18935l1.73571,47.35542z" data-paper-data="{&quot;origPos&quot;:null}" fill="#b9a568"/><path d="M312.92896,419.50197l-1.73572,-47.35541l5.16604,-0.18935l1.73572,47.35542z" data-paper-data="{&quot;origPos&quot;:null}" fill="#d3bb76"/><path d="M311.55037,377.18576l-0.18303,-4.99384l24.96922,-0.9152l0.18303,4.99384z" data-paper-data="{&quot;origPos&quot;:null}" fill="#d3bb76"/><path d="M332.61398,410.84855l-1.43276,-39.08975l5.16605,-0.18935l1.43276,39.08975z" data-paper-data="{&quot;origPos&quot;:null}" fill="#d3bb76"/><path d="M322.6326,411.38684l-0.99725,-27.20784l5.16605,-0.18935l0.99725,27.20784z" data-paper-data="{&quot;origPos&quot;:null}" fill="#d3bb76"/><path d="M322.80669,411.43218l-0.20198,-5.51046l14.80933,-0.54281l0.20198,5.51046z" data-paper-data="{&quot;origPos&quot;:null}" fill="#d3bb76"/><path d="M313.01289,421.79225l-0.18303,-4.99384l33.92369,-1.24341l0.18303,4.99384z" data-paper-data="{&quot;origPos&quot;:null}" fill="#d3bb76"/><path d="M342.62966,420.65498l-1.81146,-49.42184l5.16604,-0.18935l1.81146,49.42184z" data-paper-data="{&quot;origPos&quot;:null}" fill="#d3bb76"/><path d="M314.09425,482.65828l-1.46954,-40.09341l36.73632,-1.3465l1.46954,40.09341z" data-paper-data="{&quot;origPos&quot;:null}" fill="#b9a568"/><path d="M308.2102,478.939l-1.36328,-37.19404l47.92943,-1.75676l1.36328,37.19404z" data-paper-data="{&quot;origPos&quot;:null}" fill="#e7cd81"/><path d="M314.01405,472.62902l-0.94676,-25.83024l5.16605,-0.18935l0.94676,25.83024z" data-paper-data="{&quot;origPos&quot;:null}" fill="#d3bb76"/><path d="M344.13881,471.23745l-0.94675,-25.83024l5.16604,-0.18935l0.94675,25.83024z" data-paper-data="{&quot;origPos&quot;:null}" fill="#d3bb76"/><path d="M323.18761,472.00537l-0.94676,-25.83024l5.16604,-0.18935l0.94676,25.83024z" data-paper-data="{&quot;origPos&quot;:null}" fill="#d3bb76"/><path d="M335.24173,471.56354l-0.94676,-25.83024l5.16604,-0.18935l0.94676,25.83024z" data-paper-data="{&quot;origPos&quot;:null}" fill="#d3bb76"/><path d="M324.56709,471.74407l-0.21039,-5.74005l12.91512,-0.47337l0.21039,5.74005z" data-paper-data="{&quot;origPos&quot;:null}" fill="#d3bb76"/><path d="M324.70224,451.90934l-0.21039,-5.74006l12.91512,-0.47337l0.21039,5.74006z" data-paper-data="{&quot;origPos&quot;:null}" fill="#d3bb76"/><path d="M308.61892,360.57692l-1.46954,-40.09341l36.73632,-1.3465l1.46954,40.09341z" data-paper-data="{&quot;origPos&quot;:null}" fill="#b9a568"/><path d="M302.73487,356.85754l-1.36328,-37.19404l47.92943,-1.75676l1.36328,37.19404z" data-paper-data="{&quot;origPos&quot;:null}" fill="#e7cd81"/><path d="M308.53874,350.54761l-0.94676,-25.83024l5.16605,-0.18935l0.94676,25.83024z" data-paper-data="{&quot;origPos&quot;:null}" fill="#d3bb76"/><path d="M338.66349,349.15597l-0.94675,-25.83024l5.16604,-0.18935l0.94675,25.83024z" data-paper-data="{&quot;origPos&quot;:null}" fill="#d3bb76"/><path d="M317.71229,349.92392l-0.94675,-25.83024l5.16604,-0.18935l0.94675,25.83024z" data-paper-data="{&quot;origPos&quot;:null}" fill="#d3bb76"/><path d="M329.76639,349.48213l-0.94675,-25.83024l5.16604,-0.18935l0.94675,25.83024z" data-paper-data="{&quot;origPos&quot;:null}" fill="#d3bb76"/><path d="M319.09174,349.66261l-0.21039,-5.74005l12.91512,-0.47337l0.21039,5.74005z" data-paper-data="{&quot;origPos&quot;:null}" fill="#d3bb76"/><path d="M319.22693,329.82791l-0.21039,-5.74006l12.91512,-0.47337l0.21039,5.74006z" data-paper-data="{&quot;origPos&quot;:null}" fill="#d3bb76"/></g><g data-paper-data="{&quot;origPos&quot;:null,&quot;origRot&quot;:0,&quot;index&quot;:null}" stroke-width="0"><path d="M519.21584,523.2751l7.00234,-290.24609l36.97241,0.89198l-7.00234,290.2461z" data-paper-data="{&quot;origPos&quot;:null}" fill="#d3bb76"/><path d="M524.55222,308.21065l1.55505,-64.45659l37.32452,0.90048l-1.55505,64.45659z" data-paper-data="{&quot;origPos&quot;:null}" fill="#b9a568"/><path d="M518.90802,304.00949l1.56371,-64.81548l47.94766,1.15676l-1.56371,64.81548z" data-paper-data="{&quot;origPos&quot;:null}" fill="#e7cd81"/><path d="M526.46872,294.2664l1.14291,-47.37342l5.16801,0.12468l-1.14291,47.37344z" data-paper-data="{&quot;origPos&quot;:null}" fill="#b9a568"/><path d="M526.50193,292.88828l1.14291,-47.37342l5.168,0.12468l-1.14291,47.37343z" data-paper-data="{&quot;origPos&quot;:null}" fill="#d3bb76"/><path d="M527.69535,250.56644l0.12052,-4.99575l24.97872,0.60262l-0.12053,4.99575z" data-paper-data="{&quot;origPos&quot;:null}" fill="#d3bb76"/><path d="M546.67608,285.44611l0.94342,-39.10462l5.16801,0.12468l-0.94342,39.10462z" data-paper-data="{&quot;origPos&quot;:null}" fill="#d3bb76"/><path d="M536.68046,285.3773l0.65665,-27.21819l5.16802,0.12468l-0.65666,27.21819z" data-paper-data="{&quot;origPos&quot;:null}" fill="#d3bb76"/><path d="M536.85146,285.43313l0.133,-5.51254l14.81497,0.35743l-0.13299,5.51254z" data-paper-data="{&quot;origPos&quot;:null}" fill="#d3bb76"/><path d="M526.44667,295.1794l0.12052,-4.99574l33.9366,0.81874l-0.12053,4.99574z" data-paper-data="{&quot;origPos&quot;:null}" fill="#d3bb76"/><path d="M556.07782,295.84254l1.19278,-49.44063l5.168,0.12468l-1.19278,49.44064z" data-paper-data="{&quot;origPos&quot;:null}" fill="#d3bb76"/><path d="M522.60465,430.39925l1.55505,-64.45658l37.32452,0.90047l-1.55505,64.45658z" data-paper-data="{&quot;origPos&quot;:null}" fill="#b9a568"/><path d="M516.96047,426.19808l1.56371,-64.81548l47.94765,1.15677l-1.56371,64.81548z" data-paper-data="{&quot;origPos&quot;:null}" fill="#e7cd81"/><path d="M524.52113,416.455l1.14291,-47.37342l5.168,0.12468l-1.1429,47.37343z" data-paper-data="{&quot;origPos&quot;:null}" fill="#b9a568"/><path d="M524.55436,415.07686l1.14291,-47.37343l5.168,0.12468l-1.14291,47.37343z" data-paper-data="{&quot;origPos&quot;:null}" fill="#d3bb76"/><path d="M525.74776,372.75501l0.12052,-4.99574l24.97872,0.60263l-0.12053,4.99575z" data-paper-data="{&quot;origPos&quot;:null}" fill="#d3bb76"/><path d="M544.72849,407.63469l0.94342,-39.10462l5.16802,0.12468l-0.94342,39.10462z" data-paper-data="{&quot;origPos&quot;:null}" fill="#d3bb76"/><path d="M534.73286,407.56589l0.65666,-27.21819l5.16802,0.12468l-0.65665,27.21819z" data-paper-data="{&quot;origPos&quot;:null}" fill="#d3bb76"/><path d="M534.90388,407.62168l0.13299,-5.51254l14.81497,0.35742l-0.133,5.51255z" data-paper-data="{&quot;origPos&quot;:null}" fill="#d3bb76"/><path d="M524.49907,417.36801l0.12052,-4.99574l33.93661,0.81874l-0.12052,4.99575z" data-paper-data="{&quot;origPos&quot;:null}" fill="#d3bb76"/><path d="M554.13024,418.03115l1.19278,-49.44063l5.168,0.12468l-1.19278,49.44063z" data-paper-data="{&quot;origPos&quot;:null}" fill="#d3bb76"/><path d="M521.88266,478.1874l0.96764,-40.10866l36.7503,0.88662l-0.96765,40.10866z" data-paper-data="{&quot;origPos&quot;:null}" fill="#b9a568"/><path d="M516.23529,474.11765l0.89767,-37.20819l47.94766,1.15677l-0.89766,37.20818z" data-paper-data="{&quot;origPos&quot;:null}" fill="#e7cd81"/><path d="M522.41158,468.17173l0.62341,-25.84007l5.16801,0.12468l-0.62341,25.84006z" data-paper-data="{&quot;origPos&quot;:null}" fill="#d3bb76"/><path d="M552.56526,468.61194l0.62341,-25.84006l5.16801,0.12468l-0.62341,25.84006z" data-paper-data="{&quot;origPos&quot;:null}" fill="#d3bb76"/><path d="M531.6061,468.10628l0.62341,-25.84006l5.168,0.12468l-0.6234,25.84006z" data-paper-data="{&quot;origPos&quot;:null}" fill="#d3bb76"/><path d="M543.66479,468.39721l0.62341,-25.84006l5.168,0.12468l-0.62341,25.84006z" data-paper-data="{&quot;origPos&quot;:null}" fill="#d3bb76"/><path d="M532.99889,467.92922l0.13854,-5.74223l12.92003,0.3117l-0.13854,5.74223z" data-paper-data="{&quot;origPos&quot;:null}" fill="#d3bb76"/><path d="M534.33815,448.1393l0.13854,-5.74224l12.92003,0.3117l-0.13854,5.74224z" data-paper-data="{&quot;origPos&quot;:null}" fill="#d3bb76"/><path d="M523.83021,355.99884l0.96765,-40.10866l36.75029,0.88662l-0.96764,40.10867z" data-paper-data="{&quot;origPos&quot;:null}" fill="#b9a568"/><path d="M518.18288,351.92909l0.89767,-37.20819l47.94766,1.15676l-0.89766,37.20819z" data-paper-data="{&quot;origPos&quot;:null}" fill="#e7cd81"/><path d="M524.35915,345.98317l0.62341,-25.84006l5.16801,0.12468l-0.6234,25.84006z" data-paper-data="{&quot;origPos&quot;:null}" fill="#d3bb76"/><path d="M554.51283,346.4233l0.6234,-25.84006l5.16801,0.12468l-0.6234,25.84006z" data-paper-data="{&quot;origPos&quot;:null}" fill="#d3bb76"/><path d="M533.55366,345.91765l0.6234,-25.84007l5.16801,0.12468l-0.62341,25.84006z" data-paper-data="{&quot;origPos&quot;:null}" fill="#d3bb76"/><path d="M545.61236,346.20858l0.6234,-25.84006l5.16801,0.12468l-0.62341,25.84006z" data-paper-data="{&quot;origPos&quot;:null}" fill="#d3bb76"/><path d="M534.94643,345.7406l0.13854,-5.74223l12.92003,0.3117l-0.13853,5.74223z" data-paper-data="{&quot;origPos&quot;:null}" fill="#d3bb76"/><path d="M536.28572,325.95066l0.13854,-5.74224l12.92003,0.31171l-0.13854,5.74223z" data-paper-data="{&quot;origPos&quot;:null}" fill="#d3bb76"/></g><g data-paper-data="{&quot;origPos&quot;:null,&quot;origRot&quot;:0,&quot;index&quot;:null}" stroke-width="0"><path d="M520.21557,523.29923l7.00233,-290.2461l36.97241,0.89198l-7.00234,290.24611z" data-paper-data="{&quot;origPos&quot;:null}" fill="#d3bb76"/><path d="M525.55193,308.23477l1.55505,-64.45658l37.32452,0.90047l-1.55505,64.45659z" data-paper-data="{&quot;origPos&quot;:null}" fill="#b9a568"/><path d="M519.90775,304.0336l1.5637,-64.81548l47.94766,1.15676l-1.56371,64.81548z" data-paper-data="{&quot;origPos&quot;:null}" fill="#e7cd81"/><path d="M527.46842,294.29049l1.14291,-47.37342l5.168,0.12468l-1.14291,47.37344z" data-paper-data="{&quot;origPos&quot;:null}" fill="#b9a568"/><path d="M527.50165,292.91238l1.14291,-47.37343l5.168,0.12469l-1.14291,47.37343z" data-paper-data="{&quot;origPos&quot;:null}" fill="#d3bb76"/><path d="M528.69506,250.59056l0.12052,-4.99575l24.97872,0.60262l-0.12052,4.99574z" data-paper-data="{&quot;origPos&quot;:null}" fill="#d3bb76"/><path d="M547.6758,285.4702l0.94342,-39.10462l5.16802,0.12468l-0.94342,39.10462z" data-paper-data="{&quot;origPos&quot;:null}" fill="#d3bb76"/><path d="M537.68015,285.40144l0.65666,-27.21819l5.16801,0.12468l-0.65665,27.21819z" data-paper-data="{&quot;origPos&quot;:null}" fill="#d3bb76"/><path d="M537.85117,285.45723l0.13299,-5.51254l14.81497,0.35742l-0.13299,5.51255z" data-paper-data="{&quot;origPos&quot;:null}" fill="#d3bb76"/><path d="M527.44638,295.20354l0.12052,-4.99574l33.93661,0.81874l-0.12053,4.99574z" data-paper-data="{&quot;origPos&quot;:null}" fill="#d3bb76"/><path d="M557.07755,295.86668l1.19278,-49.44064l5.16801,0.12468l-1.19278,49.44063z" data-paper-data="{&quot;origPos&quot;:null}" fill="#d3bb76"/><path d="M523.60437,430.42337l1.55505,-64.45658l37.32451,0.90047l-1.55505,64.45659z" data-paper-data="{&quot;origPos&quot;:null}" fill="#b9a568"/><path d="M517.96016,426.2222l1.56371,-64.81548l47.94766,1.15676l-1.56371,64.81548z" data-paper-data="{&quot;origPos&quot;:null}" fill="#e7cd81"/><path d="M525.52086,416.47912l1.1429,-47.37343l5.16801,0.12468l-1.14291,47.37344z" data-paper-data="{&quot;origPos&quot;:null}" fill="#b9a568"/><path d="M525.55409,415.10098l1.14291,-47.37343l5.168,0.12468l-1.14291,47.37343z" data-paper-data="{&quot;origPos&quot;:null}" fill="#d3bb76"/><path d="M526.74749,372.7791l0.12053,-4.99574l24.97872,0.60263l-0.12052,4.99575z" data-paper-data="{&quot;origPos&quot;:null}" fill="#d3bb76"/><path d="M545.72822,407.65881l0.94342,-39.10462l5.16801,0.12468l-0.94342,39.10462z" data-paper-data="{&quot;origPos&quot;:null}" fill="#d3bb76"/><path d="M535.73259,407.58998l0.65665,-27.21819l5.16802,0.12468l-0.65666,27.21819z" data-paper-data="{&quot;origPos&quot;:null}" fill="#d3bb76"/><path d="M535.90359,407.64584l0.13299,-5.51254l14.81497,0.35742l-0.13299,5.51255z" data-paper-data="{&quot;origPos&quot;:null}" fill="#d3bb76"/><path d="M525.4988,417.39213l0.12053,-4.99575l33.9366,0.81875l-0.12053,4.99574z" data-paper-data="{&quot;origPos&quot;:null}" fill="#d3bb76"/><path d="M555.12997,418.05529l1.19278,-49.44063l5.16801,0.12467l-1.19278,49.44064z" data-paper-data="{&quot;origPos&quot;:null}" fill="#d3bb76"/><path d="M522.88235,478.21149l0.96764,-40.10865l36.7503,0.88661l-0.96764,40.10867z" data-paper-data="{&quot;origPos&quot;:null}" fill="#b9a568"/><path d="M517.23502,474.14181l0.89767,-37.20819l47.94765,1.15676l-0.89766,37.20818z" data-paper-data="{&quot;origPos&quot;:null}" fill="#e7cd81"/><path d="M523.41129,468.19587l0.62341,-25.84006l5.16801,0.12468l-0.62341,25.84006z" data-paper-data="{&quot;origPos&quot;:null}" fill="#d3bb76"/><path d="M553.56497,468.63605l0.62341,-25.84006l5.168,0.12468l-0.62341,25.84006z" data-paper-data="{&quot;origPos&quot;:null}" fill="#d3bb76"/><path d="M532.60579,468.1304l0.62341,-25.84006l5.168,0.12468l-0.6234,25.84006z" data-paper-data="{&quot;origPos&quot;:null}" fill="#d3bb76"/><path d="M544.6645,468.42133l0.62341,-25.84006l5.168,0.12468l-0.62341,25.84006z" data-paper-data="{&quot;origPos&quot;:null}" fill="#d3bb76"/><path d="M533.99859,467.95334l0.13853,-5.74223l12.92003,0.3117l-0.13853,5.74222z" data-paper-data="{&quot;origPos&quot;:null}" fill="#d3bb76"/><path d="M535.33788,448.1634l0.13853,-5.74224l12.92003,0.3117l-0.13854,5.74224z" data-paper-data="{&quot;origPos&quot;:null}" fill="#d3bb76"/><path d="M524.82994,356.02293l0.96764,-40.10866l36.7503,0.88662l-0.96764,40.10866z" data-paper-data="{&quot;origPos&quot;:null}" fill="#b9a568"/><path d="M519.18258,351.95318l0.89766,-37.20819l47.94766,1.15677l-0.89767,37.20818z" data-paper-data="{&quot;origPos&quot;:null}" fill="#e7cd81"/><path d="M525.35885,346.00726l0.6234,-25.84007l5.16802,0.12468l-0.62341,25.84006z" data-paper-data="{&quot;origPos&quot;:null}" fill="#d3bb76"/><path d="M555.51255,346.44744l0.62341,-25.84007l5.168,0.12468l-0.6234,25.84006z" data-paper-data="{&quot;origPos&quot;:null}" fill="#d3bb76"/><path d="M534.55337,345.94179l0.62341,-25.84006l5.168,0.12468l-0.6234,25.84006z" data-paper-data="{&quot;origPos&quot;:null}" fill="#d3bb76"/><path d="M546.61207,346.23272l0.62341,-25.84006l5.16801,0.12468l-0.6234,25.84006z" data-paper-data="{&quot;origPos&quot;:null}" fill="#d3bb76"/><path d="M535.94614,345.76469l0.13854,-5.74223l12.92003,0.31171l-0.13854,5.74223z" data-paper-data="{&quot;origPos&quot;:null}" fill="#d3bb76"/><path d="M537.28545,325.97475l0.13854,-5.74224l12.92003,0.3117l-0.13854,5.74224z" data-paper-data="{&quot;origPos&quot;:null}" fill="#d3bb76"/></g><g data-paper-data="{&quot;origPos&quot;:null}"><path d="M444.5505,351.90853l8.28566,-14.35289l22.20779,6.88753l-7.94537,21.95397l-16.06516,-1.37884z" data-paper-data="{&quot;origPos&quot;:null,&quot;origRot&quot;:0}" fill="#534c42" stroke-width="0"/><path d="M447.45636,350.34004l7.43586,-12.88079l19.93006,6.18112l-7.13047,19.70227l-14.41745,-1.23742z" data-paper-data="{&quot;origPos&quot;:null,&quot;origRot&quot;:0}" fill="url(#color-1)" stroke-width="NaN"/></g><g data-paper-data="{&quot;origPos&quot;:null,&quot;origRot&quot;:0}"><path d="M371.11823,323.94694l-3.2574,-18.38386l24.14474,-10.15653l9.06025,24.69257l-14.8544,10.4551z" data-paper-data="{&quot;origPos&quot;:null,&quot;origRot&quot;:0}" fill="#534c42" stroke-width="0"/><path d="M372.48747,320.48805l-2.92329,-16.49834l21.66835,-9.11482l8.13097,22.16l-13.33088,9.38278z" data-paper-data="{&quot;origPos&quot;:null,&quot;origRot&quot;:0}" fill="url(#color-2)" stroke-width="NaN"/></g></g></g></svg>