<svg version="1.1" xmlns="http://www.w3.org/2000/svg" xmlns:xlink="http://www.w3.org/1999/xlink" width="46.90018" height="47.9"><g transform="translate(-216.5499,-156.05)"><g data-paper-data="{&quot;isPaintingLayer&quot;:true}" fill="none" fill-rule="nonzero" stroke="none" stroke-width="none" stroke-linecap="butt" stroke-linejoin="none" stroke-miterlimit="10" stroke-dasharray="" stroke-dashoffset="0" font-family="none" font-weight="none" font-size="none" text-anchor="none" style="mix-blend-mode: normal"><path d="M231.2999,189.2v-18.4h17.40018v18.4z" data-paper-data="{&quot;zoomLevel&quot;:2.5,&quot;origPos&quot;:null}" fill="none" stroke="#000000" stroke-width="29.5" stroke-linejoin="round"/><path d="M222.9551,179.31821c0,-9.41365 7.63127,-17.04492 17.04492,-17.04492c9.41365,0 17.04492,7.63127 17.04492,17.04492c0,9.41365 -7.63127,17.04492 -17.04492,17.04492c-9.41365,0 -17.04492,-7.63127 -17.04492,-17.04492z" data-paper-data="{&quot;origPos&quot;:null}" fill="#eaeaea" stroke="#dbdbdb" stroke-width="2.5" stroke-linejoin="miter"/><g data-paper-data="{&quot;origPos&quot;:null}" stroke="none" stroke-width="0.5" stroke-linejoin="miter"><path d="M223.33385,179.66594c0,-5.99606 4.86078,-10.85684 10.85684,-10.85684c5.99606,0 10.85684,4.86078 10.85684,10.85684c0,5.99606 -4.86078,10.85685 -10.85684,10.85685c-5.99606,0 -10.85684,-4.86078 -10.85684,-10.85685z" data-paper-data="{&quot;origPos&quot;:null}" fill="#bbbbbb"/><path d="M224.42438,178.93891c0,-5.86222 4.75228,-10.6145 10.6145,-10.6145c5.86222,0 10.6145,4.75227 10.6145,10.6145c0,5.86222 -4.75228,10.61451 -10.6145,10.61451c-5.86222,0 -10.6145,-4.75228 -10.6145,-10.61451z" data-paper-data="{&quot;origPos&quot;:null}" fill="#000000"/><path d="M232.51856,181.19267c0,-3.01142 2.44124,-5.45265 5.45266,-5.45265c3.01142,0 5.45266,2.44124 5.45266,5.45265c0,3.01142 -2.44124,5.45266 -5.45266,5.45266c-3.01142,0 -5.45266,-2.44124 -5.45266,-5.45266z" data-paper-data="{&quot;origPos&quot;:null}" fill="#3b3b3b"/></g></g></g></svg>