<svg version="1.1" xmlns="http://www.w3.org/2000/svg" xmlns:xlink="http://www.w3.org/1999/xlink" width="1169.88182" height="243.79157" viewBox="0,0,1169.88182,243.79157"><g transform="translate(99.58652,47.30533)"><g data-paper-data="{&quot;isPaintingLayer&quot;:true}" fill="none" fill-rule="nonzero" stroke="none" stroke-width="none" stroke-linecap="none" stroke-linejoin="miter" stroke-miterlimit="10" stroke-dasharray="" stroke-dashoffset="0" font-family="none" font-weight="none" font-size="none" text-anchor="none" style="mix-blend-mode: normal"><path d="M379.58213,-38.55533c0,0 0.60857,25.15412 0.72457,29.9486c0.03866,1.59816 -1.44068,4.18721 -2.42623,4.24616c-2.9566,0.17688 -12.49638,0.74757 -12.49638,0.74757" data-paper-data="{&quot;origPos&quot;:null,&quot;origRot&quot;:0,&quot;index&quot;:null}" fill="none" stroke="#7da17c" stroke-width="17.5" stroke-linecap="round"/><path d="M359.53553,-26.00503l1.32966,74.22199" data-paper-data="{&quot;origPos&quot;:null,&quot;origRot&quot;:0,&quot;index&quot;:null}" fill="none" stroke="#739472" stroke-width="17.5" stroke-linecap="round"/><path d="M357.43747,16.93542c0,0 -7.26104,-0.19849 -11.90847,-0.32553c-1.70875,-0.04671 -4.36247,-2.59659 -4.35223,-4.18193c0.03071,-4.75601 0.19374,-29.99657 0.19374,-29.99657" data-paper-data="{&quot;origPos&quot;:null,&quot;origRot&quot;:0,&quot;index&quot;:null}" fill="none" stroke="#739472" stroke-width="17.5" stroke-linecap="round"/><path d="" fill="#36734b" stroke="none" stroke-width="0" stroke-linecap="butt"/><path d="" data-paper-data="{&quot;origPos&quot;:null}" fill="#2f6442" stroke="none" stroke-width="0" stroke-linecap="butt"/><path d="M370.8197,118.51755c0,0 8.31179,-36.38326 24.40231,-45.20292c20.37612,-11.16871 48.05817,-2.74729 69.56197,-2.74729c36.54561,0 31.74903,47.95021 31.74903,47.95021z" data-paper-data="{&quot;origPos&quot;:null,&quot;index&quot;:null}" fill="#998c76" stroke="none" stroke-width="0" stroke-linecap="butt"/><path d="M400.23991,93.51754c0,0 8.31179,-36.38326 24.40231,-45.20292c20.37612,-11.16871 48.05817,-2.74729 69.56197,-2.74729c36.54561,0 31.74903,47.95021 31.74903,47.95021z" data-paper-data="{&quot;origPos&quot;:null,&quot;index&quot;:null}" fill="#998c76" stroke="none" stroke-width="0" stroke-linecap="butt"/><path d="M371.62935,102.91753c0,0 8.31179,-36.38326 24.40231,-45.20292c20.37612,-11.16871 48.05817,-2.74729 69.56197,-2.74729c36.54561,0 31.74903,47.95021 31.74903,47.95021z" data-paper-data="{&quot;origPos&quot;:null,&quot;index&quot;:null}" fill="#776d5b" stroke="none" stroke-width="0" stroke-linecap="butt"/><path d="M438.1982,86.98192c0,0 7.99651,-33.6153 18.33213,-38.16821c13.08842,-5.76554 28.89963,9.57834 41.72824,15.07171c21.80216,9.33595 14.9369,55.21126 14.9369,55.21126z" data-paper-data="{&quot;origPos&quot;:null,&quot;origRot&quot;:0,&quot;index&quot;:null}" fill="#776d5b" stroke="none" stroke-width="0" stroke-linecap="butt"/><path d="M366.22279,86.51755c0,0 8.31179,-36.38326 24.40231,-45.20292c20.37612,-11.16871 48.05817,-2.74729 69.56197,-2.74729c36.54561,0 31.74903,47.95021 31.74903,47.95021z" data-paper-data="{&quot;origPos&quot;:null,&quot;index&quot;:null}" fill="#998c76" stroke="none" stroke-width="0" stroke-linecap="butt"/><path d="M342.20914,83.91753c0,0 8.31179,-36.38326 24.40231,-45.20292c20.37612,-11.16871 48.05817,-2.74729 69.56197,-2.74729c36.54561,0 31.74903,47.95021 31.74903,47.95021z" data-paper-data="{&quot;origPos&quot;:null,&quot;index&quot;:null}" fill="#776d5b" stroke="none" stroke-width="0" stroke-linecap="butt"/><path d="M408.77799,67.98192c0,0 7.99651,-33.6153 18.33213,-38.16821c13.08842,-5.76554 28.89963,9.57834 41.72824,15.07171c21.80216,9.33595 14.9369,55.21126 14.9369,55.21126z" data-paper-data="{&quot;origPos&quot;:null,&quot;origRot&quot;:0,&quot;index&quot;:null}" fill="#776d5b" stroke="none" stroke-width="0" stroke-linecap="butt"/><path d="M436.09579,93.51754c0,0 8.31179,-36.38326 24.40231,-45.20292c20.37612,-11.16871 48.05817,-2.74729 69.56196,-2.74729c36.54561,0 31.74903,47.95021 31.74903,47.95021z" data-paper-data="{&quot;origPos&quot;:null,&quot;index&quot;:null}" fill="#998c76" stroke="none" stroke-width="0" stroke-linecap="butt"/><path d="M407.48522,102.91754c0,0 8.31179,-36.38326 24.40231,-45.20292c20.37612,-11.16871 48.05817,-2.74729 69.56196,-2.74729c36.54561,0 31.74904,47.95021 31.74904,47.95021z" data-paper-data="{&quot;origPos&quot;:null,&quot;index&quot;:null}" fill="#776d5b" stroke="none" stroke-width="0" stroke-linecap="butt"/><path d="M474.05408,86.98192c0,0 7.99651,-33.6153 18.33213,-38.16821c13.08842,-5.76554 28.89963,9.57834 41.72823,15.07171c21.80215,9.33595 14.9369,55.21126 14.9369,55.21126z" data-paper-data="{&quot;origPos&quot;:null,&quot;origRot&quot;:0,&quot;index&quot;:null}" fill="#776d5b" stroke="none" stroke-width="0" stroke-linecap="butt"/><path d="M395.643,61.51754c0,0 8.31179,-36.38326 24.40231,-45.20292c20.37612,-11.16871 48.05817,-2.74729 69.56197,-2.74729c36.54561,0 31.74903,47.95021 31.74903,47.95021z" data-paper-data="{&quot;origPos&quot;:null,&quot;index&quot;:null}" fill="#998c76" stroke="none" stroke-width="0" stroke-linecap="butt"/><path d="M367.03244,70.91753c0,0 8.31179,-36.38326 24.40231,-45.20292c20.37612,-11.16871 48.05817,-2.74729 69.56197,-2.74729c36.54561,0 31.74903,47.95021 31.74903,47.95021z" data-paper-data="{&quot;origPos&quot;:null,&quot;index&quot;:null}" fill="#776d5b" stroke="none" stroke-width="0" stroke-linecap="butt"/><path d="M433.60129,54.98192c0,0 7.99651,-33.6153 18.33213,-38.16821c13.08842,-5.76554 28.89963,9.57834 41.72824,15.07171c21.80216,9.33595 14.9369,55.21126 14.9369,55.21126z" data-paper-data="{&quot;origPos&quot;:null,&quot;origRot&quot;:0,&quot;index&quot;:null}" fill="#776d5b" stroke="none" stroke-width="0" stroke-linecap="butt"/><path d="M444.37022,85.51754c0,0 8.31179,-36.38326 24.40231,-45.20292c20.37612,-11.16871 48.05817,-2.74729 69.56196,-2.74729c36.54561,0 31.74903,47.95021 31.74903,47.95021z" data-paper-data="{&quot;origPos&quot;:null,&quot;index&quot;:null}" fill="#998c76" stroke="none" stroke-width="0" stroke-linecap="butt"/><path d="M420.35656,94.91754c0,0 8.31179,-36.38326 24.40231,-45.20292c20.37612,-11.16871 48.05817,-2.74729 69.56196,-2.74729c36.54561,0 31.74904,47.95021 31.74904,47.95021z" data-paper-data="{&quot;origPos&quot;:null,&quot;index&quot;:null}" fill="#776d5b" stroke="none" stroke-width="0" stroke-linecap="butt"/><g data-paper-data="{&quot;origPos&quot;:null}" stroke="none" stroke-width="0" stroke-linecap="butt"><path d="M92.47645,90.76838c-0.473,-2.29331 -2.27857,-11.04761 -3.73697,-18.11864c-0.35475,-1.71998 1.23381,-3.82814 2.47601,-4.08435c3.72662,-0.76862 36.97182,-7.62544 36.97182,-7.62544l4.84796,23.50526c0,0 -33.16155,6.83957 -37.46151,7.72644c-1.43332,0.29562 -2.93964,-0.63885 -3.09731,-1.40328z" data-paper-data="{&quot;origPos&quot;:null}" fill="#36312b"/><path d="M120.2298,82.00215l6.05995,29.38158l-13.7114,2.82798l-6.05995,-29.38158z" data-paper-data="{&quot;origPos&quot;:null,&quot;index&quot;:null}" fill="#585146"/><path d="M119.62381,79.064l1.71699,8.32478l-13.7114,2.82798l-1.71699,-8.32478z" data-paper-data="{&quot;origPos&quot;:null,&quot;index&quot;:null}" fill="#3d3831"/><path d="M92.47645,89.76838c-0.473,-2.29331 -2.27857,-11.04761 -3.73697,-18.11864c-0.35475,-1.71998 1.23381,-3.82814 2.47601,-4.08435c3.72662,-0.76862 36.97182,-7.62544 36.97182,-7.62544l17.60446,8.62166l-12.7565,14.8836c0,0 -33.16155,6.83957 -37.46151,7.72644c-1.43332,0.29562 -2.93964,-0.63885 -3.09731,-1.40328z" data-paper-data="{&quot;origPos&quot;:null}" fill="#817666"/><path d="M92.47645,89.76838c-0.473,-2.29331 -2.27857,-11.04761 -3.73697,-18.11864c-0.35475,-1.71998 1.23381,-3.82814 2.47601,-4.08435c3.72662,-0.76862 36.97182,-7.62544 36.97182,-7.62544l4.84796,23.50526c0,0 -33.16155,6.83957 -37.46151,7.72644c-1.43332,0.29562 -2.93964,-0.63885 -3.09731,-1.40328z" data-paper-data="{&quot;origPos&quot;:null}" fill="#776d5e"/><path d="M102.87327,82.00826l-6.27113,-15.55387l5.87632,-1.21199z" data-paper-data="{&quot;origPos&quot;:null}" fill="#585146"/><path d="M111.75353,82.98461l-6.1737,-18.38185l4.57047,-0.94266z" data-paper-data="{&quot;origPos&quot;:null}" fill="#585146"/><path d="M121.2643,74.64145l-5.56414,-12.12602l5.87632,-1.21199z" data-paper-data="{&quot;origPos&quot;:null}" fill="#585146"/><path d="M115.14006,67.22567l6.17371,18.38185l-4.57047,0.94266z" data-paper-data="{&quot;origPos&quot;:null,&quot;index&quot;:null}" fill="#585146"/></g><path d="M-75.91647,94.387c0,0 -9.53978,-0.57069 -12.49638,-0.74757c-0.98555,-0.05895 -2.46489,-2.648 -2.42623,-4.24616c0.116,-4.79448 0.72457,-29.9486 0.72457,-29.9486" data-paper-data="{&quot;origPos&quot;:null,&quot;origRot&quot;:0,&quot;index&quot;:null}" fill="none" stroke="#7da17c" stroke-width="17.5" stroke-linecap="round"/><path d="M-70.06791,71.99496l-1.32966,74.22199" data-paper-data="{&quot;origPos&quot;:null,&quot;origRot&quot;:0,&quot;index&quot;:null}" fill="none" stroke="#739472" stroke-width="17.5" stroke-linecap="round"/><path d="M-51.90289,80.43139c0,0 0.16303,25.24056 0.19374,29.99657c0.01024,1.58534 -2.64348,4.13522 -4.35223,4.18193c-4.64743,0.12704 -11.90847,0.32553 -11.90847,0.32553" data-paper-data="{&quot;origPos&quot;:null,&quot;origRot&quot;:0,&quot;index&quot;:null}" fill="none" stroke="#739472" stroke-width="17.5" stroke-linecap="round"/><path d="M774.58213,-35.55533c0,0 0.60857,25.15412 0.72457,29.9486c0.03866,1.59816 -1.44068,4.18721 -2.42623,4.24616c-2.9566,0.17688 -12.49638,0.74757 -12.49638,0.74757" data-paper-data="{&quot;origPos&quot;:null,&quot;origRot&quot;:0,&quot;index&quot;:null}" fill="none" stroke="#7da17c" stroke-width="17.5" stroke-linecap="round"/><path d="M754.53553,-23.00503l1.32966,74.22199" data-paper-data="{&quot;origPos&quot;:null,&quot;origRot&quot;:0,&quot;index&quot;:null}" fill="none" stroke="#739472" stroke-width="17.5" stroke-linecap="round"/><path d="M752.43747,19.93542c0,0 -7.26104,-0.19849 -11.90847,-0.32553c-1.70875,-0.04671 -4.36247,-2.59659 -4.35223,-4.18193c0.03071,-4.75601 0.19374,-29.99657 0.19374,-29.99657" data-paper-data="{&quot;origPos&quot;:null,&quot;origRot&quot;:0,&quot;index&quot;:null}" fill="none" stroke="#739472" stroke-width="17.5" stroke-linecap="round"/><path d="M837.97692,-11.33195c-0.81065,0 -1.54213,-0.20583 -2.19445,-0.61748c-0.64598,-0.41799 -1.15581,-0.98164 -1.52946,-1.69096c-0.37366,-0.71565 -0.56049,-1.51997 -0.56049,-2.41295v-11.59924c0,-0.35466 0.114,-0.64598 0.34199,-0.87398c0.228,-0.228 0.51932,-0.34199 0.87398,-0.34199c0.36099,0 0.65232,0.114 0.87398,0.34199c0.228,0.228 0.34199,0.51932 0.34199,0.87398v11.59925c0,0.65232 0.17733,1.19697 0.53199,1.63396c0.36099,0.43699 0.80115,0.65549 1.32047,0.65549h0.82648c0.29133,0 0.53833,0.114 0.74099,0.34199c0.20266,0.228 0.30399,0.51932 0.30399,0.87398c0,0.35466 -0.13616,0.64599 -0.40849,0.87398c-0.26599,0.228 -0.60799,0.34199 -1.02598,0.34199zM832.58104,-22.05721c-0.34199,0 -0.62065,-0.09499 -0.83598,-0.28499c-0.209,-0.19633 -0.31349,-0.44016 -0.31349,-0.73148c0,-0.32933 0.1045,-0.58898 0.3135,-0.77898c0.21533,-0.19633 0.49399,-0.29449 0.83598,-0.29449h5.61438c0.34199,0 0.61749,0.09817 0.82648,0.2945c0.209,0.19 0.3135,0.44966 0.3135,0.77898c0,0.29133 -0.10449,0.53515 -0.31349,0.73149c-0.209,0.19 -0.48449,0.28499 -0.82648,0.28499zM844.0811,-19.65376c0,-0.96898 0.2375,-1.83662 0.71249,-2.60294c0.48132,-0.77265 1.12731,-1.38697 1.93796,-1.84296c0.81065,-0.45599 1.70046,-0.68399 2.66944,-0.68399c0.97532,0 1.70047,0.15833 2.17546,0.47499c0.48132,0.31666 0.66499,0.69349 0.55099,1.13048c-0.04434,0.228 -0.13616,0.40532 -0.27549,0.53199c-0.13933,0.12033 -0.29766,0.19633 -0.47499,0.228c-0.17733,0.03166 -0.37366,0.02217 -0.58899,-0.0285c-1.03232,-0.209 -1.9633,-0.22483 -2.79295,-0.0475c-0.82965,0.17733 -1.48513,0.50982 -1.96645,0.99748c-0.47499,0.48765 -0.71248,1.10198 -0.71248,1.84296zM844.1001,-11.33195c-0.38633,0 -0.68716,-0.10133 -0.90248,-0.30399c-0.209,-0.20266 -0.31349,-0.50665 -0.31349,-0.91198v-10.86776c0,-0.39266 0.1045,-0.69348 0.3135,-0.90248c0.21533,-0.209 0.51616,-0.31349 0.90248,-0.31349c0.40533,0 0.70932,0.10134 0.91198,0.304c0.20266,0.20266 0.30399,0.50665 0.30399,0.91198v10.86776c0,0.38633 -0.10133,0.68715 -0.30399,0.90248c-0.20266,0.209 -0.50665,0.31349 -0.91198,0.31349zM860.29875,-11.20845c-1.11464,0 -2.11529,-0.23749 -3.00193,-0.71248c-0.88032,-0.48132 -1.57697,-1.18431 -2.08995,-2.10896c-0.51299,-0.92464 -0.76948,-2.06145 -0.76948,-3.41042v-5.97536c0,-0.36099 0.11716,-0.65865 0.35149,-0.89298c0.23433,-0.23433 0.53199,-0.35149 0.89298,-0.35149c0.35466,0 0.64916,0.11716 0.88348,0.35149c0.23433,0.23433 0.35149,0.53199 0.35149,0.89298v5.97537c0,0.91198 0.171,1.66563 0.51299,2.26095c0.34199,0.58899 0.80431,1.02598 1.38697,1.31097c0.58265,0.27866 1.23814,0.41799 1.96646,0.41799c0.69665,0 1.31731,-0.13616 1.86196,-0.40849c0.54465,-0.27866 0.97848,-0.65232 1.30147,-1.12098c0.32299,-0.46866 0.48449,-0.99431 0.48449,-1.57697h1.53897c0,1.00064 -0.247,1.90629 -0.74099,2.71694c-0.49399,0.81065 -1.16847,1.45347 -2.02345,1.92846c-0.84865,0.46866 -1.81763,0.70299 -2.90694,0.70299zM865.67564,-11.33195c-0.35466,0 -0.65232,-0.11716 -0.89298,-0.35149c-0.23433,-0.23433 -0.35149,-0.53199 -0.35149,-0.89298v-10.83926c0,-0.37366 0.11716,-0.67448 0.35149,-0.90248c0.24066,-0.228 0.53832,-0.34199 0.89298,-0.34199c0.37366,0 0.67448,0.114 0.90248,0.34199c0.228,0.228 0.34199,0.52882 0.34199,0.90248v10.83926c0,0.36099 -0.114,0.65865 -0.34199,0.89298c-0.228,0.23433 -0.52882,0.35149 -0.90248,0.35149zM876.13413,-11.23695c-1.13364,0 -2.18496,-0.17417 -3.15393,-0.52249c-0.96264,-0.34833 -1.70996,-0.78848 -2.24195,-1.32047c-0.24699,-0.25966 -0.35149,-0.55416 -0.31349,-0.88348c0.04434,-0.33566 0.20266,-0.61115 0.47499,-0.82648c0.32933,-0.25333 0.64916,-0.36099 0.95948,-0.32299c0.31666,0.038 0.58898,0.1805 0.81698,0.42749c0.27866,0.304 0.72198,0.59215 1.32997,0.86448c0.60799,0.26599 1.28564,0.39899 2.03296,0.39899c0.93731,0 1.65296,-0.152 2.14695,-0.45599c0.49399,-0.31033 0.75049,-0.70932 0.76949,-1.19697c0.01266,-0.48765 -0.22166,-0.90881 -0.70299,-1.26347c-0.47499,-0.36099 -1.34264,-0.65548 -2.60294,-0.88348c-1.6403,-0.32299 -2.83094,-0.80748 -3.57192,-1.45347c-0.73465,-0.65232 -1.10198,-1.44714 -1.10198,-2.38445c0,-0.82965 0.24383,-1.51363 0.73149,-2.05195c0.48765,-0.54465 1.11148,-0.94998 1.87146,-1.21597c0.75998,-0.27233 1.5548,-0.40849 2.38445,-0.40849c1.07031,0 2.01712,0.17099 2.84044,0.51299c0.82965,0.34199 1.4883,0.81382 1.97596,1.41547c0.228,0.25966 0.3325,0.53199 0.3135,0.81698c-0.01266,0.27866 -0.14883,0.51615 -0.40849,0.71249c-0.25966,0.17733 -0.56998,0.23433 -0.93098,0.171c-0.35466,-0.06333 -0.65232,-0.209 -0.89298,-0.43699c-0.40533,-0.39266 -0.84548,-0.66182 -1.32047,-0.80748c-0.46866,-0.14566 -1.01014,-0.21849 -1.62446,-0.21849c-0.71565,0 -1.32047,0.1235 -1.81446,0.3705c-0.49399,0.24066 -0.74098,0.59532 -0.74098,1.06398c0,0.29133 0.076,0.55732 0.228,0.79798c0.15833,0.23433 0.46233,0.44649 0.91198,0.63649c0.45599,0.18366 1.12097,0.36416 1.99495,0.54149c1.21597,0.24066 2.17546,0.54782 2.87844,0.92148c0.70932,0.37366 1.21597,0.80749 1.51996,1.30147c0.31033,0.49399 0.46549,1.06398 0.46549,1.70996c0,0.74732 -0.19949,1.4218 -0.59848,2.02346c-0.39266,0.60165 -0.97532,1.07981 -1.74796,1.43447c-0.76632,0.35466 -1.72579,0.53199 -2.87843,0.53199zM889.3396,-11.33195c-0.81065,0 -1.54213,-0.20583 -2.19445,-0.61748c-0.64598,-0.41799 -1.15581,-0.98164 -1.52947,-1.69096c-0.37366,-0.71565 -0.56048,-1.51997 -0.56048,-2.41295v-11.59924c0,-0.35466 0.114,-0.64598 0.34199,-0.87398c0.228,-0.228 0.51932,-0.34199 0.87398,-0.34199c0.36099,0 0.65232,0.114 0.87398,0.34199c0.228,0.228 0.34199,0.51932 0.34199,0.87398v11.59925c0,0.65232 0.17733,1.19697 0.53199,1.63396c0.36099,0.43699 0.80115,0.65549 1.32047,0.65549h0.82648c0.29133,0 0.53832,0.114 0.74098,0.34199c0.20266,0.228 0.304,0.51932 0.304,0.87398c0,0.35466 -0.13616,0.64599 -0.40849,0.87398c-0.26599,0.228 -0.60799,0.34199 -1.02598,0.34199zM883.94372,-22.05721c-0.34199,0 -0.62065,-0.09499 -0.83598,-0.28499c-0.209,-0.19633 -0.31349,-0.44016 -0.31349,-0.73148c0,-0.32933 0.1045,-0.58898 0.3135,-0.77898c0.21533,-0.19633 0.49399,-0.29449 0.83598,-0.29449h5.61438c0.34199,0 0.61749,0.09817 0.82648,0.2945c0.209,0.19 0.3135,0.44966 0.3135,0.77898c0,0.29133 -0.1045,0.53515 -0.31349,0.73149c-0.209,0.19 -0.48448,0.28499 -0.82648,0.28499zM902.80685,-11.33195c-0.304,0 -0.57948,-0.114 -0.82648,-0.34199c-0.24066,-0.228 -0.36099,-0.52882 -0.36099,-0.90248v-11.98874c0,-1.16531 0.23116,-2.17545 0.69349,-3.03043c0.46233,-0.86132 1.10514,-1.52946 1.92846,-2.00445c0.82965,-0.48132 1.78913,-0.72198 2.87844,-0.72198c0.35466,0 0.64915,0.1045 0.88348,0.3135c0.23433,0.209 0.35149,0.47499 0.35149,0.79798c0,0.31033 -0.11716,0.57632 -0.35149,0.79798c-0.23433,0.21533 -0.52882,0.32299 -0.88348,0.32299c-0.60165,0 -1.13047,0.13933 -1.58646,0.41799c-0.45599,0.27233 -0.81065,0.65232 -1.06398,1.13998c-0.24699,0.48765 -0.37049,1.06397 -0.37049,1.72896v12.22624c0,0.37366 -0.114,0.67449 -0.34199,0.90248c-0.228,0.228 -0.54465,0.34199 -0.94998,0.34199zM900.5744,-22.05721c-0.34199,0 -0.61748,-0.09499 -0.82648,-0.28499c-0.209,-0.19633 -0.31349,-0.44016 -0.31349,-0.73148c0,-0.32933 0.1045,-0.58898 0.3135,-0.77898c0.209,-0.19633 0.48449,-0.29449 0.82648,-0.29449h6.00387c0.34199,0 0.61749,0.09817 0.82648,0.2945c0.21533,0.19 0.32299,0.44966 0.32299,0.77898c0,0.29133 -0.10766,0.53515 -0.32299,0.73149c-0.209,0.19 -0.48449,0.28499 -0.82648,0.28499zM915.35912,-11.23695c-1.18431,0 -2.24828,-0.29449 -3.19193,-0.88348c-0.93731,-0.59532 -1.6783,-1.39963 -2.22295,-2.41295c-0.53832,-1.01331 -0.80748,-2.15962 -0.80748,-3.43893c0,-1.27931 0.2945,-2.42878 0.88348,-3.44842c0.59532,-1.02598 1.39963,-1.83346 2.41295,-2.42244c1.01331,-0.59532 2.15012,-0.89298 3.41043,-0.89298c1.26664,0 2.40029,0.29766 3.40093,0.89298c1.00698,0.58899 1.80496,1.39647 2.39395,2.42245c0.59532,1.01964 0.89298,2.16912 0.89298,3.44843h-0.94998c0,1.27931 -0.27233,2.42561 -0.81698,3.43893c-0.53832,1.01331 -1.2793,1.81763 -2.22295,2.41295c-0.93731,0.58899 -1.99812,0.88348 -3.18243,0.88348zM915.84361,-13.4219c0.82965,0 1.56747,-0.1995 2.21346,-0.59849c0.65232,-0.39899 1.16214,-0.94047 1.52947,-1.62446c0.37366,-0.69032 0.56049,-1.46613 0.56049,-2.32745c0,-0.87398 -0.18683,-1.65613 -0.56049,-2.34644c-0.36733,-0.69032 -0.87715,-1.23181 -1.52946,-1.62446c-0.64598,-0.39899 -1.3838,-0.59848 -2.21345,-0.59848c-0.81065,0 -1.5453,0.1995 -2.20395,0.59849c-0.65232,0.39266 -1.16847,0.93415 -1.54846,1.62447c-0.37999,0.69032 -0.56999,1.47247 -0.56999,2.34645c0,0.86132 0.19,1.63713 0.56999,2.32745c0.37999,0.68399 0.89615,1.22548 1.54847,1.62447c0.65865,0.39899 1.39331,0.59849 2.20395,0.59849zM921.29649,-11.30344c-0.36099,0 -0.65865,-0.11716 -0.89298,-0.35149c-0.23433,-0.24066 -0.35149,-0.53832 -0.35149,-0.89298v-3.72392l0.4655,-2.57444l2.01395,0.87398v5.42438c0,0.35466 -0.11716,0.65232 -0.35149,0.89298c-0.23433,0.23433 -0.52882,0.35149 -0.88348,0.35149zM929.3903,-11.33195c-0.70932,0 -1.34264,-0.19316 -1.89996,-0.57948c-0.55099,-0.39266 -0.98164,-0.92465 -1.29197,-1.59597c-0.304,-0.67132 -0.45599,-1.44714 -0.45599,-2.32745v-13.27121c0,-0.36099 0.11399,-0.65232 0.34199,-0.87398c0.228,-0.228 0.51933,-0.34199 0.87398,-0.34199c0.36099,0 0.65232,0.114 0.87398,0.34199c0.228,0.22166 0.34199,0.51299 0.34199,0.87398v13.27121c0,0.60165 0.114,1.09881 0.34199,1.49147c0.228,0.38633 0.51932,0.57949 0.87398,0.57949h0.60799c0.32299,0 0.58582,0.114 0.78849,0.34199c0.20266,0.228 0.30399,0.51932 0.30399,0.87398c0,0.35466 -0.15516,0.64598 -0.46548,0.87398c-0.304,0.228 -0.69982,0.34199 -1.18747,0.34199zM936.68612,-11.33195c-0.70932,0 -1.34264,-0.19316 -1.89996,-0.57948c-0.55099,-0.39266 -0.98164,-0.92465 -1.29197,-1.59597c-0.304,-0.67132 -0.45599,-1.44714 -0.45599,-2.32745v-13.27121c0,-0.36099 0.11399,-0.65232 0.34199,-0.87398c0.228,-0.228 0.51933,-0.34199 0.87398,-0.34199c0.36099,0 0.65232,0.114 0.87398,0.34199c0.228,0.22166 0.34199,0.51299 0.34199,0.87398v13.27121c0,0.60165 0.114,1.09881 0.34199,1.49147c0.228,0.38633 0.51932,0.57949 0.87398,0.57949h0.60799c0.32299,0 0.58582,0.114 0.78849,0.34199c0.20266,0.228 0.30399,0.51932 0.30399,0.87398c0,0.35466 -0.15516,0.64598 -0.46548,0.87398c-0.304,0.228 -0.69982,0.34199 -1.18747,0.34199zM948.4096,-11.33195c-0.45599,0 -0.85181,-0.16466 -1.18747,-0.49399c-0.32933,-0.33566 -0.49399,-0.73148 -0.49399,-1.18747c0,-0.44966 0.1615,-0.84548 0.48449,-1.18747c0.32933,-0.34199 0.72832,-0.51299 1.19697,-0.51299c0.46866,0 0.86448,0.16783 1.18748,0.50349c0.32933,0.32933 0.49399,0.72832 0.49399,1.19697c0,0.47499 -0.16783,0.87398 -0.50349,1.19697c-0.32933,0.32299 -0.72198,0.48449 -1.17797,0.48449zM954.05248,-11.33195c-0.45599,0 -0.85498,-0.16466 -1.19697,-0.49399c-0.33566,-0.33566 -0.50349,-0.73148 -0.50349,-1.18747c0,-0.44966 0.16466,-0.84548 0.49399,-1.18747c0.33566,-0.34199 0.73782,-0.51299 1.20648,-0.51299c0.46866,0 0.86765,0.16783 1.19697,0.50349c0.33566,0.32933 0.50349,0.72832 0.50349,1.19697c0,0.45599 -0.17099,0.85181 -0.51299,1.18748c-0.33566,0.32933 -0.73148,0.49399 -1.18747,0.49399zM959.69536,-11.33195c-0.45599,0 -0.85181,-0.16466 -1.18747,-0.49399c-0.32933,-0.33566 -0.49399,-0.73148 -0.49399,-1.18747c0,-0.44966 0.1615,-0.84548 0.48449,-1.18747c0.32933,-0.34199 0.72832,-0.51299 1.19697,-0.51299c0.46866,0 0.86764,0.17099 1.19697,0.51299c0.33566,0.34199 0.50349,0.73782 0.50349,1.18748c0,0.45599 -0.16783,0.85181 -0.50349,1.18748c-0.32933,0.32933 -0.72832,0.49399 -1.19697,0.49399z" data-paper-data="{&quot;origPos&quot;:null}" fill="#776d5b" stroke="#776d5b" stroke-width="2" stroke-linecap="square"/><path d="M440.5,51c0,-1.38071 1.11929,-2.5 2.5,-2.5c1.38071,0 2.5,1.11929 2.5,2.5c0,1.38071 -1.11929,2.5 -2.5,2.5c-1.38071,0 -2.5,-1.11929 -2.5,-2.5z" data-paper-data="{&quot;origPos&quot;:null}" fill="#776d5b" stroke="none" stroke-width="0.5" stroke-linecap="butt"/><path d="M1002.80912,195.70801c-1.4462,0.06837 -2.73976,-0.18907 -3.88067,-0.77232c-1.14091,-0.58326 -2.05567,-1.41877 -2.74429,-2.50655c-0.68163,-1.08811 -1.05663,-2.35527 -1.125,-3.80147c-0.06936,-1.46716 0.18393,-2.77453 0.75986,-3.92209c0.58293,-1.1479 1.41478,-2.06599 2.49558,-2.75427c1.0808,-0.68829 2.3443,-1.06661 3.7905,-1.13498c1.43223,-0.06771 2.7188,0.19006 3.85971,0.77332c1.14091,0.58326 2.05218,1.41894 2.73381,2.50705c0.68862,1.08778 1.06761,2.36525 1.13697,3.83242c0.06837,1.4462 -0.18541,2.74309 -0.76135,3.89066c-0.56895,1.14724 -1.39382,2.065 -2.47462,2.75329c-1.07381,0.68796 -2.33731,1.06629 -3.7905,1.13499zM1002.69517,193.29767c0.92921,-0.04393 1.74005,-0.29583 2.43252,-0.75569c0.69913,-0.46718 1.23014,-1.08396 1.59303,-1.85034c0.36955,-0.7737 0.53103,-1.65309 0.48446,-2.63819c-0.04657,-0.9851 -0.2903,-1.84533 -0.73119,-2.58072c-0.43423,-0.7427 -1.02122,-1.31013 -1.76098,-1.70229c-0.7331,-0.39947 -1.56425,-0.57724 -2.49345,-0.53332c-0.92921,0.04393 -1.74337,0.29949 -2.4425,0.76667c-0.69247,0.45987 -1.22681,1.0803 -1.60301,1.86132c-0.36955,0.7737 -0.53103,1.6531 -0.48446,2.63819c0.04657,0.9851 0.2903,1.84534 0.73119,2.58072c0.44754,0.72807 1.03787,1.29184 1.77097,1.69131c0.73976,0.39216 1.57423,0.56627 2.50344,0.52234zM1020.43751,194.90613c-1.22962,0.05813 -2.34588,-0.15167 -3.34875,-0.62942c-0.99623,-0.48507 -1.8014,-1.22423 -2.41553,-2.21751c-0.61413,-0.99327 -0.95638,-2.23397 -1.02673,-3.72209l-0.31163,-6.59175c-0.01883,-0.39823 0.0949,-0.7327 0.34118,-1.00343c0.24629,-0.27072 0.56855,-0.41549 0.96678,-0.43432c0.39124,-0.0185 0.72223,0.0954 0.99295,0.34168c0.27072,0.24628 0.4155,0.56853 0.43432,0.96676l0.31163,6.59176c0.04756,1.00605 0.2755,1.82853 0.68382,2.46742c0.40799,0.63191 0.94079,1.08986 1.59841,1.37387c0.65729,0.27702 1.38766,0.39654 2.19111,0.35855c0.76851,-0.03633 1.44609,-0.21891 2.03272,-0.54773c0.5863,-0.33581 1.0454,-0.77064 1.37727,-1.30448c0.33187,-0.53384 0.48261,-1.12215 0.45223,-1.7649l1.69772,-0.08026c0.05219,1.10386 -0.17306,2.11582 -0.67572,3.03585c-0.50267,0.92003 -1.2132,1.66434 -2.13161,2.23292c-0.91175,0.56126 -1.96846,0.87029 -3.17014,0.9271zM1026.3626,194.48947c-0.39124,0.0185 -0.72572,-0.09523 -1.00343,-0.34118c-0.27072,-0.24628 -0.41549,-0.56853 -0.43432,-0.96676l-0.56529,-11.95738c-0.01949,-0.4122 0.09408,-0.75017 0.34069,-1.0139c0.25359,-0.26406 0.57602,-0.40535 0.96726,-0.42384c0.4122,-0.01949 0.75001,0.09058 1.01341,0.3302c0.2634,0.23962 0.40485,0.56554 0.42434,0.97774l0.56529,11.95738c0.01883,0.39823 -0.09141,0.73254 -0.3307,1.00293c-0.23929,0.27039 -0.56504,0.41533 -0.97724,0.43482zM1039.21486,193.98691c-1.43223,0.06771 -2.72263,-0.19688 -3.87118,-0.79378c-1.14889,-0.60389 -2.06764,-1.44971 -2.75625,-2.5375c-0.68163,-1.08811 -1.05581,-2.3378 -1.12252,-3.74908c-0.06837,-1.4462 0.18175,-2.74642 0.75038,-3.90064c0.57528,-1.16154 1.39283,-2.08596 2.45267,-2.77325c1.05984,-0.6873 2.29539,-1.0643 3.70666,-1.13102c1.06194,-0.0502 2.03915,0.10666 2.93163,0.47059c0.89247,0.36393 1.70702,0.9311 2.44366,1.70152c0.26506,0.27455 0.36992,0.56719 0.31459,0.8779c-0.05566,0.30372 -0.23873,0.57846 -0.54921,0.8242c-0.24293,0.19354 -0.51958,0.26614 -0.82996,0.21779c-0.30339,-0.04868 -0.58679,-0.19282 -0.85019,-0.43245c-0.92423,-0.88759 -2.03958,-1.30049 -3.34605,-1.23873c-0.90825,0.04294 -1.70178,0.29052 -2.38061,0.74273c-0.67883,0.45222 -1.19604,1.06485 -1.55161,1.83788c-0.3559,0.76605 -0.50974,1.65909 -0.46152,2.67912c0.04558,0.96414 0.28532,1.81406 0.71923,2.54978c0.44056,0.7284 1.02755,1.29583 1.76098,1.70229c0.74042,0.40613 1.58221,0.5869 2.52539,0.54231c0.62878,-0.02973 1.17709,-0.13267 1.6449,-0.30883c0.46781,-0.17616 0.88975,-0.43418 1.2658,-0.77406c0.27554,-0.2441 0.56287,-0.38722 0.86197,-0.42936c0.30608,-0.04248 0.57903,0.02864 0.81883,0.21336c0.31929,0.23698 0.50384,0.51185 0.55364,0.82459c0.04979,0.31274 -0.04511,0.60082 -0.28474,0.86422c-1.22904,1.25546 -2.81118,1.92894 -4.74644,2.02043zM1061.07798,192.87979c-0.39124,0.0185 -0.72223,-0.0954 -0.99294,-0.34167c-0.27105,-0.25326 -0.41582,-0.57552 -0.43432,-0.96676l-0.31213,-6.60223c-0.04822,-1.02003 -0.27616,-1.8425 -0.68382,-2.46742c-0.40766,-0.62492 -0.9368,-1.07955 -1.58743,-1.36388c-0.65064,-0.28434 -1.38466,-0.40718 -2.20208,-0.36853c-0.75454,0.03567 -1.42845,0.22158 -2.02175,0.55772c-0.59362,0.32916 -1.05653,0.75716 -1.38873,1.28402c-0.3322,0.52686 -0.48261,1.12215 -0.45123,1.78586l-1.69772,0.08026c-0.05318,-1.12482 0.17173,-2.14376 0.67473,-3.05681c0.503,-0.91305 1.21736,-1.65053 2.14308,-2.21245c0.92572,-0.56192 1.97894,-0.87079 3.15966,-0.92661c1.22962,-0.05813 2.34255,0.15533 3.33877,0.6404c1.00288,0.47775 1.81139,1.21326 2.42552,2.20653c0.61413,0.99327 0.95621,2.23048 1.02623,3.71162l0.31213,6.60223c0.0185,0.39124 -0.09873,0.72589 -0.35166,1.00392c-0.24628,0.27072 -0.56504,0.41533 -0.95628,0.43383zM1050.05329,193.40099c-0.39124,0.0185 -0.72572,-0.09523 -1.00343,-0.34118c-0.27105,-0.25326 -0.41582,-0.57552 -0.43432,-0.96676l-0.56579,-11.96786c-0.01949,-0.4122 0.09424,-0.74668 0.34118,-1.00343c0.25359,-0.26406 0.57602,-0.40535 0.96726,-0.42384c0.4122,-0.01949 0.75001,0.09058 1.01341,0.3302c0.26307,0.23263 0.40435,0.55506 0.42384,0.96726l0.56579,11.96786c0.0185,0.39124 -0.09174,0.72556 -0.3307,1.00293c-0.23929,0.27039 -0.56504,0.41533 -0.97724,0.43482zM1049.79963,188.03537c-0.39124,0.0185 -0.72572,-0.09523 -1.00343,-0.34118c-0.27105,-0.25326 -0.41582,-0.57552 -0.43432,-0.96676l-0.60889,-12.87959c-0.01949,-0.4122 0.09424,-0.74668 0.34118,-1.00343c0.25359,-0.26406 0.57602,-0.40535 0.96726,-0.42384c0.4122,-0.01949 0.75001,0.09058 1.01341,0.3302c0.26307,0.23263 0.40435,0.55506 0.42384,0.96726l0.60889,12.8796c0.0185,0.39124 -0.09174,0.72556 -0.3307,1.00293c-0.23929,0.27039 -0.56504,0.41533 -0.97724,0.43482zM1067.5537,187.56364c-0.39823,0.01883 -0.73303,-0.10188 -1.00442,-0.36214c-0.27171,-0.26724 -0.41599,-0.57901 -0.43283,-0.93532l-0.62524,-13.22543c-0.01883,-0.39823 0.09474,-0.7362 0.34069,-1.0139c0.24595,-0.27771 0.56804,-0.42597 0.96627,-0.4448c0.39124,-0.0185 0.72239,0.09889 0.99345,0.35215c0.27105,0.25326 0.41599,0.57902 0.43482,0.97725l0.62524,13.22543c0.01784,0.37727 -0.1067,0.70526 -0.37361,0.98395c-0.25992,0.27837 -0.56804,0.42597 -0.92435,0.44282zM1067.78854,192.53103c-0.50303,0.02378 -0.9481,-0.13373 -1.33523,-0.47253c-0.38014,-0.33914 -0.5826,-0.7707 -0.60737,-1.29468c-0.02444,-0.517 0.1364,-0.96573 0.48252,-1.34621c0.35278,-0.38779 0.78069,-0.59357 1.28371,-0.61735c0.517,-0.02444 0.96241,0.14006 1.33623,0.4935c0.37349,0.34645 0.57245,0.77818 0.5969,1.29518c0.02477,0.52399 -0.13956,0.97289 -0.493,1.3467c-0.34645,0.37349 -0.7677,0.57196 -1.26374,0.59541z" data-paper-data="{&quot;origPos&quot;:null,&quot;origRot&quot;:0}" fill="#776d5b" stroke="#776d5b" stroke-width="1.5" stroke-linecap="square"/></g></g></svg>