<svg version="1.1" xmlns="http://www.w3.org/2000/svg" xmlns:xlink="http://www.w3.org/1999/xlink" width="42.80761" height="42.95612"><defs><radialGradient cx="181.25442" cy="180.17568" r="21.47806" gradientUnits="userSpaceOnUse" id="color-1"><stop offset="0" stop-color="#ffe3bf"/><stop offset="1" stop-color="#ffe3bf" stop-opacity="0"/></radialGradient><linearGradient x1="199.37609" y1="176.08504" x2="184.87383" y2="199.86863" gradientUnits="userSpaceOnUse" id="color-2"><stop offset="0" stop-color="#706756"/><stop offset="1" stop-color="#706756" stop-opacity="0"/></linearGradient></defs><g transform="translate(-159.85062,-158.69762)"><g data-paper-data="{&quot;isPaintingLayer&quot;:true}" fill="none" fill-rule="nonzero" stroke="none" stroke-width="none" stroke-linecap="none" stroke-linejoin="miter" stroke-miterlimit="10" stroke-dasharray="" stroke-dashoffset="0" font-family="none" font-weight="none" font-size="none" text-anchor="none" style="mix-blend-mode: normal"><path d="M202.65823,180.17568c0,11.86201 -9.58281,21.47806 -21.40381,21.47806c-11.82099,0 -21.4038,-9.61605 -21.4038,-21.47806c0,-11.86201 9.58281,-21.47806 21.4038,-21.47806c11.82099,0 21.40381,9.61605 21.40381,21.47806z" data-paper-data="{&quot;origPos&quot;:null}" fill="url(#color-1)" stroke="none" stroke-width="0" stroke-linecap="butt"/><path d="M184.87383,199.86863l-23.54165,-12.27875c0,0 7.34533,-12.05225 7.78976,-12.27829c1.33331,-0.67812 14.55436,-8.79954 14.55436,-8.79954l6.98123,22.22862z" data-paper-data="{&quot;origPos&quot;:null,&quot;index&quot;:null}" id="ID0.2113282661885023" fill="url(#color-2)" stroke="none" stroke-width="0.7621" stroke-linecap="round"/><path d="M182.98398,170.6639c1.61446,-0.9982 4.13683,0.30067 4.13683,2.13017c0,5.48278 0,9.40116 0,14.04891c0,1.63891 -1.5371,2.91196 -2.88722,1.98287c-3.38034,-2.32624 -6.62576,-4.55964 -10.86658,-7.47803c-1.41531,-0.97397 -1.65575,-3.71421 -0.3943,-4.49415c3.78432,-2.33976 6.10424,-3.77412 10.01128,-6.18976z" data-paper-data="{&quot;origPos&quot;:null,&quot;index&quot;:null}" id="ID0.8089321344159544" fill="#706756" stroke="#706756" stroke-width="8" stroke-linecap="round"/></g></g></svg>