<svg version="1.1" xmlns="http://www.w3.org/2000/svg" xmlns:xlink="http://www.w3.org/1999/xlink" width="414.10281" height="250.23465"><g transform="translate(-354.20914,20.13796)"><g data-paper-data="{&quot;isPaintingLayer&quot;:true}" fill="none" fill-rule="nonzero" stroke="none" stroke-width="none" stroke-linecap="none" stroke-linejoin="miter" stroke-miterlimit="10" stroke-dasharray="" stroke-dashoffset="0" font-family="none" font-weight="none" font-size="none" text-anchor="none" style="mix-blend-mode: normal"><path d="" fill="#36734b" stroke="none" stroke-width="0" stroke-linecap="butt"/><path d="" data-paper-data="{&quot;origPos&quot;:null}" fill="#2f6442" stroke="none" stroke-width="0" stroke-linecap="butt"/><path d="M424.54169,87.68901c0,0 -9.55541,0.16467 -12.51686,0.2157c-0.98716,0.01702 -2.66124,-2.45059 -2.7456,-4.04699c-0.25307,-4.7892 -1.58083,-29.91562 -1.58083,-29.91562" data-paper-data="{&quot;origPos&quot;:null,&quot;origRot&quot;:0,&quot;index&quot;:null}" fill="none" stroke="#7da17c" stroke-width="17.5" stroke-linecap="round"/><path d="M433.03329,139.01794l-4.38246,-74.10443" data-paper-data="{&quot;origPos&quot;:null,&quot;origRot&quot;:0,&quot;index&quot;:null}" fill="none" stroke="#739472" stroke-width="17.5" stroke-linecap="round"/><path d="M447.41087,71.92794c0,0 2.10372,25.15327 2.50011,29.89283c0.13213,1.57986 -2.31762,4.32627 -4.01772,4.50426c-4.62389,0.48408 -11.84816,1.24041 -11.84816,1.24041" data-paper-data="{&quot;origPos&quot;:null,&quot;origRot&quot;:0,&quot;index&quot;:null}" fill="none" stroke="#739472" stroke-width="17.5" stroke-linecap="round"/><path d="M382.8197,229.51755c0,0 8.31179,-36.38326 24.40231,-45.20292c20.37612,-11.16871 48.05817,-2.74729 69.56197,-2.74729c36.54561,0 31.74903,47.95021 31.74903,47.95021z" data-paper-data="{&quot;origPos&quot;:null}" fill="#998c76" stroke="none" stroke-width="0" stroke-linecap="butt"/><path d="M412.23991,204.51755c0,0 8.31179,-36.38326 24.40231,-45.20292c20.37612,-11.16871 48.05817,-2.74729 69.56197,-2.74729c36.54561,0 31.74903,47.95021 31.74903,47.95021z" data-paper-data="{&quot;origPos&quot;:null}" fill="#998c76" stroke="none" stroke-width="0" stroke-linecap="butt"/><path d="M383.62935,213.91754c0,0 8.31179,-36.38326 24.40231,-45.20292c20.37612,-11.16871 48.05817,-2.74729 69.56197,-2.74729c36.54561,0 31.74903,47.95021 31.74903,47.95021z" data-paper-data="{&quot;origPos&quot;:null}" fill="#776d5b" stroke="none" stroke-width="0" stroke-linecap="butt"/><path d="M450.1982,197.98193c0,0 7.99651,-33.6153 18.33213,-38.16821c13.08842,-5.76554 28.89963,9.57834 41.72824,15.07171c21.80216,9.33595 14.9369,55.21126 14.9369,55.21126z" data-paper-data="{&quot;origPos&quot;:null,&quot;origRot&quot;:0}" fill="#776d5b" stroke="none" stroke-width="0" stroke-linecap="butt"/><path d="M378.22279,197.51755c0,0 8.31179,-36.38326 24.40231,-45.20292c20.37612,-11.16871 48.05817,-2.74729 69.56197,-2.74729c36.54561,0 31.74903,47.95021 31.74903,47.95021z" data-paper-data="{&quot;origPos&quot;:null}" fill="#998c76" stroke="none" stroke-width="0" stroke-linecap="butt"/><path d="M354.20914,194.91754c0,0 8.31179,-36.38326 24.40231,-45.20292c20.37612,-11.16871 48.05817,-2.74729 69.56197,-2.74729c36.54561,0 31.74903,47.95021 31.74903,47.95021z" data-paper-data="{&quot;origPos&quot;:null}" fill="#776d5b" stroke="none" stroke-width="0" stroke-linecap="butt"/><path d="M420.77799,178.98193c0,0 7.99651,-33.6153 18.33213,-38.16821c13.08842,-5.76554 28.89963,9.57834 41.72824,15.07171c21.80216,9.33595 14.9369,55.21126 14.9369,55.21126z" data-paper-data="{&quot;origPos&quot;:null,&quot;origRot&quot;:0}" fill="#776d5b" stroke="none" stroke-width="0" stroke-linecap="butt"/><path d="M448.09579,204.51755c0,0 8.31179,-36.38326 24.40231,-45.20292c20.37612,-11.16871 48.05817,-2.74729 69.56196,-2.74729c36.54561,0 31.74903,47.95021 31.74903,47.95021z" data-paper-data="{&quot;origPos&quot;:null}" fill="#998c76" stroke="none" stroke-width="0" stroke-linecap="butt"/><path d="M419.48522,213.91755c0,0 8.31179,-36.38326 24.40231,-45.20292c20.37612,-11.16871 48.05817,-2.74729 69.56196,-2.74729c36.54561,0 31.74904,47.95021 31.74904,47.95021z" data-paper-data="{&quot;origPos&quot;:null}" fill="#776d5b" stroke="none" stroke-width="0" stroke-linecap="butt"/><path d="M486.05408,197.98193c0,0 7.99651,-33.6153 18.33213,-38.16821c13.08842,-5.76554 28.89963,9.57834 41.72823,15.07171c21.80215,9.33595 14.9369,55.21126 14.9369,55.21126z" data-paper-data="{&quot;origPos&quot;:null,&quot;origRot&quot;:0}" fill="#776d5b" stroke="none" stroke-width="0" stroke-linecap="butt"/><path d="M407.643,172.51755c0,0 8.31179,-36.38326 24.40231,-45.20292c20.37612,-11.16871 48.05817,-2.74729 69.56197,-2.74729c36.54561,0 31.74903,47.95021 31.74903,47.95021z" data-paper-data="{&quot;origPos&quot;:null}" fill="#998c76" stroke="none" stroke-width="0" stroke-linecap="butt"/><path d="M379.03244,181.91754c0,0 8.31179,-36.38326 24.40231,-45.20292c20.37612,-11.16871 48.05817,-2.74729 69.56197,-2.74729c36.54561,0 31.74903,47.95021 31.74903,47.95021z" data-paper-data="{&quot;origPos&quot;:null}" fill="#776d5b" stroke="none" stroke-width="0" stroke-linecap="butt"/><path d="M445.60129,165.98193c0,0 7.99651,-33.6153 18.33213,-38.16821c13.08842,-5.76554 28.89963,9.57834 41.72824,15.07171c21.80216,9.33595 14.9369,55.21126 14.9369,55.21126z" data-paper-data="{&quot;origPos&quot;:null,&quot;origRot&quot;:0}" fill="#776d5b" stroke="none" stroke-width="0" stroke-linecap="butt"/><path d="M456.37022,196.51755c0,0 8.31179,-36.38326 24.40231,-45.20292c20.37612,-11.16871 48.05817,-2.74729 69.56196,-2.74729c36.54561,0 31.74903,47.95021 31.74903,47.95021z" data-paper-data="{&quot;origPos&quot;:null}" fill="#998c76" stroke="none" stroke-width="0" stroke-linecap="butt"/><path d="M432.35656,205.91755c0,0 8.31179,-36.38326 24.40231,-45.20292c20.37612,-11.16871 48.05817,-2.74729 69.56196,-2.74729c36.54561,0 31.74904,47.95021 31.74904,47.95021z" data-paper-data="{&quot;origPos&quot;:null}" fill="#776d5b" stroke="none" stroke-width="0" stroke-linecap="butt"/><path d="M680.54621,-0.95715c-1.2171,0 -2.31188,-0.2844 -3.28433,-0.85319c-0.97245,-0.57491 -1.74002,-1.35471 -2.3027,-2.3394c-0.56268,-0.98469 -0.85319,-2.09476 -0.87154,-3.33021v-10.71537c0,-0.36085 0.11315,-0.64831 0.33944,-0.86237c0.23241,-0.22018 0.51986,-0.33027 0.86237,-0.33027c0.36085,0 0.65136,0.11009 0.87154,0.33027c0.22018,0.21406 0.33027,0.50152 0.33027,0.86237v6.33932c0.54433,-0.65442 1.20487,-1.17429 1.98161,-1.5596c0.77674,-0.38531 1.62688,-0.57797 2.55041,-0.57797c1.13759,0 2.15898,0.28745 3.06416,0.86237c0.9113,0.5688 1.62994,1.34248 2.15592,2.32106c0.52598,0.97857 0.78897,2.08864 0.78897,3.33021c0,1.23545 -0.28745,2.34552 -0.86237,3.33021c-0.5688,0.98469 -1.33942,1.76449 -2.31188,2.3394c-0.96634,0.5688 -2.07029,0.85319 -3.31186,0.85319zM680.54621,-3.0672c0.80121,0 1.51373,-0.19266 2.13757,-0.57797c0.62995,-0.38531 1.12841,-0.91436 1.49538,-1.58712c0.36696,-0.67277 0.55045,-1.42199 0.55045,-2.24766c0,-0.85014 -0.18348,-1.60242 -0.55045,-2.25683c-0.36696,-0.66054 -0.86542,-1.18041 -1.49538,-1.5596c-0.62384,-0.38531 -1.33637,-0.57797 -2.13757,-0.57797c-0.78286,0 -1.49233,0.19266 -2.1284,0.57797c-0.62995,0.3792 -1.12536,0.89906 -1.48621,1.5596c-0.36085,0.65442 -0.54128,1.4067 -0.54128,2.25683c0,0.82567 0.18042,1.57489 0.54128,2.24766c0.36085,0.67277 0.85625,1.20181 1.48621,1.58712c0.63607,0.38531 1.34554,0.57797 2.1284,0.57797zM696.42366,-0.95715c-1.26603,0 -2.38527,-0.27828 -3.35773,-0.83485c-0.97245,-0.55656 -1.73697,-1.32413 -2.29353,-2.3027c-0.55045,-0.97857 -0.82567,-2.10088 -0.82567,-3.3669c0,-1.28438 0.27523,-2.41585 0.82567,-3.39442c0.55656,-0.97857 1.32107,-1.74614 2.29353,-2.3027c0.97245,-0.55656 2.0917,-0.83485 3.35773,-0.83485c1.2538,0 2.36692,0.27828 3.33938,0.83485c0.97245,0.55656 1.73391,1.32413 2.28436,2.3027c0.55656,0.97857 0.83485,2.11005 0.83485,3.39442c0,1.26603 -0.27523,2.38833 -0.82567,3.3669c-0.54433,0.97857 -1.30273,1.74614 -2.27518,2.3027c-0.96634,0.55656 -2.08558,0.83485 -3.35773,0.83485zM696.42366,-3.0672c0.81344,0 1.53208,-0.18654 2.15592,-0.55962c0.62995,-0.3792 1.11924,-0.896 1.46786,-1.55043c0.35474,-0.66054 0.5321,-1.42199 0.5321,-2.28436c0,-0.86237 -0.17736,-1.62382 -0.5321,-2.28436c-0.34862,-0.66665 -0.8379,-1.18652 -1.46786,-1.5596c-0.62384,-0.3792 -1.34248,-0.5688 -2.15592,-0.5688c-0.81344,0 -1.53514,0.1896 -2.16509,0.5688c-0.62384,0.37308 -1.11619,0.89295 -1.47703,1.5596c-0.35474,0.66054 -0.5321,1.42199 -0.5321,2.28436c0,0.86237 0.17736,1.62382 0.5321,2.28436c0.36085,0.65442 0.85319,1.17123 1.47703,1.55043c0.62995,0.37308 1.35165,0.55962 2.16509,0.55962zM711.85452,-0.92963c-1.07643,0 -2.04277,-0.22935 -2.89902,-0.68806c-0.85014,-0.46482 -1.52291,-1.14371 -2.01831,-2.03665c-0.4954,-0.89295 -0.7431,-1.99078 -0.7431,-3.29351v-5.77053c0,-0.34862 0.11315,-0.63607 0.33944,-0.86237c0.22629,-0.22629 0.51375,-0.33944 0.86237,-0.33944c0.3425,0 0.6269,0.11315 0.85319,0.33944c0.22629,0.22629 0.33944,0.51375 0.33944,0.86237v5.77053c0,0.88072 0.16514,1.60853 0.4954,2.18344c0.33027,0.5688 0.77674,0.99081 1.33942,1.26603c0.56268,0.26911 1.19569,0.40366 1.89904,0.40366c0.67277,0 1.27214,-0.1315 1.79813,-0.39449c0.52598,-0.26911 0.94493,-0.62995 1.25686,-1.08255c0.31192,-0.45259 0.46788,-0.96023 0.46788,-1.52291h1.48621c0,0.96634 -0.23853,1.84094 -0.71558,2.6238c-0.47705,0.78286 -1.12841,1.40364 -1.95409,1.86235c-0.81955,0.45259 -1.75532,0.67888 -2.80728,0.67888zM717.04707,-1.04889c-0.3425,0 -0.62995,-0.11315 -0.86237,-0.33944c-0.22629,-0.22629 -0.33944,-0.51375 -0.33944,-0.86237v-10.46768c0,-0.36085 0.11315,-0.65136 0.33944,-0.87154c0.23241,-0.22018 0.51986,-0.33027 0.86237,-0.33027c0.36085,0 0.65136,0.11009 0.87154,0.33027c0.22018,0.22018 0.33027,0.51069 0.33027,0.87154v10.46768c0,0.34862 -0.11009,0.63607 -0.33027,0.86237c-0.22018,0.22629 -0.51069,0.33944 -0.87154,0.33944zM733.32121,-1.02137c-0.3425,0 -0.6269,-0.11315 -0.85319,-0.33944c-0.22629,-0.23241 -0.33944,-0.51986 -0.33944,-0.86237v-5.7797c0,-0.89295 -0.16514,-1.62076 -0.4954,-2.18344c-0.33027,-0.56268 -0.77369,-0.98163 -1.33025,-1.25686c-0.55656,-0.27523 -1.19264,-0.41283 -1.90822,-0.41283c-0.66054,0 -1.25686,0.13455 -1.78896,0.40366c-0.5321,0.26299 -0.95411,0.61773 -1.26603,1.0642c-0.31192,0.44647 -0.46788,0.96023 -0.46788,1.54125h-1.48621c0,-0.98469 0.23853,-1.86541 0.71558,-2.64214c0.47705,-0.77674 1.13147,-1.39141 1.96326,-1.844c0.83179,-0.45259 1.76449,-0.67888 2.79811,-0.67888c1.07643,0 2.03971,0.23241 2.88985,0.69724c0.85625,0.45871 1.53208,1.13453 2.02748,2.02748c0.4954,0.89295 0.7431,1.98773 0.7431,3.28433v5.7797c0,0.3425 -0.11621,0.62995 -0.34862,0.86237c-0.22629,0.22629 -0.51069,0.33944 -0.85319,0.33944zM723.67004,-1.02137c-0.3425,0 -0.62995,-0.11315 -0.86237,-0.33944c-0.22629,-0.23241 -0.33944,-0.51986 -0.33944,-0.86237v-10.47685c0,-0.36085 0.11315,-0.64831 0.33944,-0.86237c0.23241,-0.22018 0.51986,-0.33027 0.86237,-0.33027c0.36085,0 0.65136,0.11009 0.87154,0.33027c0.22018,0.21406 0.33027,0.50152 0.33027,0.86237v10.47685c0,0.3425 -0.11009,0.62995 -0.33027,0.86237c-0.22018,0.22629 -0.51069,0.33944 -0.87154,0.33944zM744.31106,-0.95715c-1.2538,0 -2.36998,-0.2844 -3.34856,-0.85319c-0.97857,-0.57491 -1.74614,-1.35165 -2.3027,-2.33023c-0.55045,-0.97857 -0.82567,-2.08558 -0.82567,-3.32103c0,-1.26603 0.27217,-2.39139 0.8165,-3.37608c0.55045,-0.99081 1.30273,-1.76449 2.25683,-2.32106c0.95411,-0.55656 2.04889,-0.83485 3.28433,-0.83485c0.92964,0 1.77672,0.17736 2.54123,0.5321c0.76451,0.35474 1.45257,0.88378 2.06418,1.58712c0.22018,0.25076 0.29969,0.51069 0.23853,0.7798c-0.06116,0.26299 -0.23241,0.4954 -0.51375,0.69724c-0.22018,0.15902 -0.46482,0.211 -0.73393,0.15596c-0.26299,-0.05505 -0.50458,-0.19266 -0.72476,-0.41283c-0.77063,-0.81344 -1.72779,-1.22016 -2.8715,-1.22016c-0.79509,0 -1.49844,0.18348 -2.11005,0.55045c-0.61161,0.36696 -1.08866,0.88072 -1.43116,1.54125c-0.3425,0.65442 -0.51375,1.4281 -0.51375,2.32106c0,0.84402 0.17431,1.5963 0.52292,2.25683c0.35474,0.65442 0.84402,1.17429 1.46786,1.5596c0.62995,0.38531 1.35777,0.57797 2.18344,0.57797c0.55045,0 1.03362,-0.06727 1.44951,-0.20183c0.41589,-0.13455 0.79509,-0.3425 1.13759,-0.62384c0.25076,-0.20183 0.50764,-0.31498 0.77063,-0.33944c0.26911,-0.02446 0.50458,0.04893 0.7064,0.22018c0.26911,0.22018 0.41895,0.46788 0.44953,0.7431c0.03058,0.27523 -0.06422,0.52292 -0.2844,0.7431c-1.12536,1.04585 -2.53511,1.56878 -4.22927,1.56878zM754.90312,4.58402c-0.1529,0 -0.33944,-0.04587 -0.55962,-0.13761c-0.69112,-0.31192 -0.88072,-0.80427 -0.5688,-1.47703l7.16499,-16.18315c0.31192,-0.66054 0.80427,-0.85014 1.47703,-0.5688c0.70946,0.29969 0.90518,0.79509 0.58714,1.48621l-7.18334,16.15563c-0.1896,0.48317 -0.4954,0.72476 -0.91741,0.72476zM757.67371,-1.56264c-0.29357,0.12232 -0.57185,0.13455 -0.83485,0.0367c-0.25687,-0.10397 -0.46177,-0.3058 -0.61467,-0.60549l-5.38521,-10.2108c-0.1529,-0.29969 -0.17125,-0.58714 -0.05505,-0.86237c0.11621,-0.27523 0.32415,-0.474 0.62384,-0.59632c0.29357,-0.12844 0.57491,-0.14067 0.84402,-0.0367c0.26911,0.10397 0.474,0.30275 0.61467,0.59632l5.13751,10.21997c0.15902,0.29969 0.21712,0.58714 0.17431,0.86237c-0.0367,0.26911 -0.20489,0.46788 -0.50458,0.59632zM765.9473,-5.39742c-0.34862,0 -0.63607,-0.11927 -0.86237,-0.35779c-0.22629,-0.24464 -0.33944,-0.52292 -0.33944,-0.83485v-11.57774c0,-0.34862 0.11315,-0.63913 0.33944,-0.87154c0.22629,-0.23241 0.51375,-0.34862 0.86237,-0.34862c0.3425,0 0.6269,0.11621 0.85319,0.34862c0.22629,0.23241 0.33944,0.52292 0.33944,0.87154v11.57774c0,0.33027 -0.12232,0.61161 -0.36696,0.84402c-0.23853,0.23241 -0.51375,0.34862 -0.82567,0.34862zM765.9473,-1.04889c-0.44036,0 -0.82261,-0.15596 -1.14677,-0.46788c-0.31804,-0.31192 -0.47705,-0.69724 -0.47705,-1.15594c0,-0.45259 0.15902,-0.8379 0.47705,-1.15594c0.32415,-0.32415 0.7064,-0.48623 1.14677,-0.48623c0.45259,0 0.83485,0.16208 1.14677,0.48623c0.31192,0.31804 0.46788,0.70335 0.46788,1.15594c0,0.45871 -0.16208,0.84402 -0.48623,1.15594c-0.31804,0.31192 -0.69418,0.46788 -1.12841,0.46788z" data-paper-data="{&quot;origPos&quot;:null}" fill="#776d5b" stroke="#776d5b" stroke-width="1.5" stroke-linecap="square"/></g></g></svg>