<svg version="1.1" xmlns="http://www.w3.org/2000/svg" xmlns:xlink="http://www.w3.org/1999/xlink" width="606.75803" height="619.90897"><defs><linearGradient x1="283.74515" y1="287.21826" x2="263.25274" y2="306.78837" gradientUnits="userSpaceOnUse" id="color-1"><stop offset="0" stop-color="#8e8e8e"/><stop offset="1" stop-color="#818181"/></linearGradient><linearGradient x1="278.05496" y1="209.6187" x2="303.742" y2="241.4063" gradientUnits="userSpaceOnUse" id="color-2"><stop offset="0" stop-color="#8e8e8e"/><stop offset="1" stop-color="#818181"/></linearGradient><linearGradient x1="371.24331" y1="248.32634" x2="367.75482" y2="280.05724" gradientUnits="userSpaceOnUse" id="color-3"><stop offset="0" stop-color="#8e8e8e"/><stop offset="1" stop-color="#818181"/></linearGradient><linearGradient x1="394.74515" y1="187.21826" x2="374.25274" y2="206.78837" gradientUnits="userSpaceOnUse" id="color-4"><stop offset="0" stop-color="#8e8e8e"/><stop offset="1" stop-color="#818181"/></linearGradient><linearGradient x1="167.05496" y1="465.8187" x2="192.742" y2="497.6063" gradientUnits="userSpaceOnUse" id="color-5"><stop offset="0" stop-color="#8e8e8e"/><stop offset="1" stop-color="#818181"/></linearGradient><linearGradient x1="191.74515" y1="454.41826" x2="171.25274" y2="473.98837" gradientUnits="userSpaceOnUse" id="color-6"><stop offset="0" stop-color="#8e8e8e"/><stop offset="1" stop-color="#818181"/></linearGradient><linearGradient x1="510.74515" y1="82.21826" x2="490.25274" y2="101.78837" gradientUnits="userSpaceOnUse" id="color-7"><stop offset="0" stop-color="#8e8e8e"/><stop offset="1" stop-color="#818181"/></linearGradient><linearGradient x1="560.05496" y1="97.6187" x2="585.742" y2="129.4063" gradientUnits="userSpaceOnUse" id="color-8"><stop offset="0" stop-color="#8e8e8e"/><stop offset="1" stop-color="#818181"/></linearGradient><linearGradient x1="436.24331" y1="88.32634" x2="432.75482" y2="120.05724" gradientUnits="userSpaceOnUse" id="color-9"><stop offset="0" stop-color="#8e8e8e"/><stop offset="1" stop-color="#818181"/></linearGradient><linearGradient x1="676.74515" y1="75.21826" x2="656.25274" y2="94.78837" gradientUnits="userSpaceOnUse" id="color-10"><stop offset="0" stop-color="#8e8e8e"/><stop offset="1" stop-color="#818181"/></linearGradient></defs><g transform="translate(-160.68659,59.06893)"><g data-paper-data="{&quot;isPaintingLayer&quot;:true}" fill="none" fill-rule="nonzero" stroke="none" stroke-width="none" stroke-linecap="butt" stroke-linejoin="miter" stroke-miterlimit="10" stroke-dasharray="" stroke-dashoffset="0" font-family="none" font-weight="none" font-size="none" text-anchor="none" style="mix-blend-mode: normal"><path d="M203.1215,229.80003v-80h250.98131v80z" data-paper-data="{&quot;origPos&quot;:null}" fill="#847968" stroke-width="NaN"/><path d="M200.6729,215.80003v-40h253.42991v40z" data-paper-data="{&quot;origPos&quot;:null}" fill="#7c7262" stroke-width="0"/><path d="M199.4486,458.19999v-252h253.42991v252z" data-paper-data="{&quot;origPos&quot;:null}" fill="#786e5f" stroke-width="0"/><path d="M203.1215,157.80008v-9h255.8785v9z" data-paper-data="{&quot;origPos&quot;:null}" fill="#61584c" stroke-width="0"/><path d="M197,152.80008v-19h255.8785v19z" data-paper-data="{&quot;origPos&quot;:null}" fill="#91b782" stroke-width="0"/><path d="M198.2243,152.80008v-12h255.8785v12z" data-paper-data="{&quot;origPos&quot;:null}" fill="#8aaf7c" stroke-width="0"/><g data-paper-data="{&quot;origPos&quot;:null}"><path d="M256.55047,298.70851l8.28566,-14.35289l22.20779,6.88753l-7.94537,21.95397l-16.06516,-1.37884z" data-paper-data="{&quot;origPos&quot;:null,&quot;origRot&quot;:0}" fill="#534c42" stroke-width="0"/><path d="M259.45633,297.14009l7.43586,-12.88079l19.93006,6.18112l-7.13047,19.70227l-14.41745,-1.23742z" data-paper-data="{&quot;origPos&quot;:null,&quot;origRot&quot;:0}" fill="url(#color-1)" stroke-width="NaN"/></g><g data-paper-data="{&quot;origPos&quot;:null,&quot;origRot&quot;:0}"><path d="M291.32945,250.07696l-19.64286,-13.62024l12.54682,-31.0999l30.60898,14.03708l-3.89667,22.92723z" data-paper-data="{&quot;origPos&quot;:null,&quot;origRot&quot;:0}" fill="#534c42" stroke-width="0"/><path d="M289.42132,245.71325l-17.6282,-12.22331l11.25997,-27.91015l27.46958,12.59739l-3.49701,20.57572z" data-paper-data="{&quot;origPos&quot;:null,&quot;origRot&quot;:0}" fill="url(#color-2)" stroke-width="NaN"/></g><path d="M360.73832,41.80003v-80h358.27103v80z" data-paper-data="{&quot;origPos&quot;:null}" fill="#847968" stroke-width="NaN"/><path d="M357.24299,27.80003v-40h361.76636v40z" data-paper-data="{&quot;origPos&quot;:null}" fill="#7c7262" stroke-width="0"/><path d="M372.49533,422.39999v-396h361.76636v396z" data-paper-data="{&quot;origPos&quot;:null}" fill="#786e5f" stroke-width="0"/><path d="M360.73832,-30.19992v-9h365.26168v9z" data-paper-data="{&quot;origPos&quot;:null}" fill="#61584c" stroke-width="0"/><path d="M352,-35.19992v-19h365.26168v19z" data-paper-data="{&quot;origPos&quot;:null}" fill="#91b782" stroke-width="0"/><path d="M353.74767,-35.19992v-12h365.26168v12z" data-paper-data="{&quot;origPos&quot;:null}" fill="#8aaf7c" stroke-width="0"/><path d="" data-paper-data="{&quot;origPos&quot;:null}" fill="#d3bb76" stroke-width="0"/><g data-paper-data="{&quot;origPos&quot;:null}" stroke-width="0"><path d="M332.46721,-55.63982l36.82385,-3.42911l7.66395,82.3001c-12.36047,0.06187 -24.69846,0.24437 -37.07078,0.77745z" data-paper-data="{&quot;origPos&quot;:null}" fill="#d3bb76"/><path d="M339.58696,19.22249l-5.97821,-64.19759l37.17454,-3.46177l5.97821,64.19759z" data-paper-data="{&quot;origPos&quot;:null}" fill="#b9a568"/><path d="M333.49103,15.70871l-6.01149,-64.55504l47.755,-4.44704l6.01149,64.55504z" data-paper-data="{&quot;origPos&quot;:null}" fill="#e7cd81"/><path d="M339.86293,5.14987l-4.39378,-47.18307l5.14724,-0.47932l4.39378,47.18308z" data-paper-data="{&quot;origPos&quot;:null}" fill="#b9a568"/><path d="M339.73509,3.7772l-4.39378,-47.18307l5.14724,-0.47932l4.39378,47.18308z" data-paper-data="{&quot;origPos&quot;:null}" fill="#d3bb76"/><path d="M335.98103,-38.39464l-0.46334,-4.97567l24.87835,-2.31672l0.46334,4.97567z" data-paper-data="{&quot;origPos&quot;:null}" fill="#d3bb76"/><path d="M358.90281,-5.96858l-3.62687,-38.94749l5.14725,-0.47932l3.62687,38.94749z" data-paper-data="{&quot;origPos&quot;:null}" fill="#d3bb76"/><path d="M348.96745,-4.87036l-2.52443,-27.10882l5.14725,-0.47932l2.52443,27.10882z" data-paper-data="{&quot;origPos&quot;:null}" fill="#d3bb76"/><path d="M349.14381,-4.83481l-0.51128,-5.4904l14.75544,-1.37406l0.51128,5.4904z" data-paper-data="{&quot;origPos&quot;:null}" fill="#d3bb76"/><path d="M339.94759,6.05917l-0.46334,-4.97567l33.80024,-3.14755l0.46334,4.97567z" data-paper-data="{&quot;origPos&quot;:null}" fill="#d3bb76"/><path d="M369.45367,3.25956l-4.58551,-49.24198l5.14724,-0.47932l4.58551,49.24198z" data-paper-data="{&quot;origPos&quot;:null}" fill="#d3bb76"/><path d="M382.66746,21.87973l0.12388,1.33031c-5.15709,0.01234 -10.30872,0.03936 -15.459,0.09773z" data-paper-data="{&quot;origPos&quot;:null}" fill="#e7cd81"/></g><g data-paper-data="{&quot;origPos&quot;:null,&quot;origRot&quot;:0}"><path d="M356.11823,277.94692l-3.2574,-18.38386l24.14474,-10.15653l9.06025,24.69257l-14.8544,10.4551z" data-paper-data="{&quot;origPos&quot;:null,&quot;origRot&quot;:0}" fill="#534c42" stroke-width="0"/><path d="M357.48747,274.48803l-2.92329,-16.49834l21.66835,-9.11482l8.13097,22.16l-13.33088,9.38278z" data-paper-data="{&quot;origPos&quot;:null,&quot;origRot&quot;:0}" fill="url(#color-3)" stroke-width="NaN"/></g><g data-paper-data="{&quot;origPos&quot;:null}"><path d="M367.55047,198.70851l8.28566,-14.35289l22.20779,6.88753l-7.94537,21.95397l-16.06516,-1.37884z" data-paper-data="{&quot;origPos&quot;:null,&quot;origRot&quot;:0}" fill="#534c42" stroke-width="0"/><path d="M370.45633,197.14009l7.43586,-12.88079l19.93006,6.18112l-7.13047,19.70227l-14.41745,-1.23742z" data-paper-data="{&quot;origPos&quot;:null,&quot;origRot&quot;:0}" fill="url(#color-4)" stroke-width="NaN"/></g><g data-paper-data="{&quot;origPos&quot;:null,&quot;origRot&quot;:0}"><path d="M180.32945,506.27696l-19.64286,-13.62024l12.54682,-31.0999l30.60898,14.03708l-3.89667,22.92723z" data-paper-data="{&quot;origPos&quot;:null,&quot;origRot&quot;:0}" fill="#534c42" stroke-width="0"/><path d="M178.42132,501.91325l-17.6282,-12.22331l11.25997,-27.91015l27.46958,12.59739l-3.49701,20.57572z" data-paper-data="{&quot;origPos&quot;:null,&quot;origRot&quot;:0}" fill="url(#color-5)" stroke-width="NaN"/></g><g data-paper-data="{&quot;origPos&quot;:null}"><path d="M164.55047,465.90851l8.28566,-14.35289l22.20779,6.88753l-7.94537,21.95397l-16.06516,-1.37884z" data-paper-data="{&quot;origPos&quot;:null,&quot;origRot&quot;:0}" fill="#534c42" stroke-width="0"/><path d="M167.45633,464.34009l7.43586,-12.88079l19.93006,6.18112l-7.13047,19.70227l-14.41745,-1.23742z" data-paper-data="{&quot;origPos&quot;:null,&quot;origRot&quot;:0}" fill="url(#color-6)" stroke-width="NaN"/></g><g data-paper-data="{&quot;origPos&quot;:null}" stroke-width="0"><path d="M169.84481,416.29437v-290.33055h36.98317v290.33056z" data-paper-data="{&quot;origPos&quot;:null}" fill="#d3bb76"/><path d="M169.9926,201.16378v-64.47534h37.33538v64.47534z" data-paper-data="{&quot;origPos&quot;:null}" fill="#b9a568"/><path d="M164.24872,197.09997v-64.83434h47.96161v64.83434z" data-paper-data="{&quot;origPos&quot;:null}" fill="#e7cd81"/><path d="M171.57221,187.17735v-47.38721h5.16951v47.38722z" data-paper-data="{&quot;origPos&quot;:null}" fill="#b9a568"/><path d="M171.57216,185.79882v-47.38721h5.16951v47.38722z" data-paper-data="{&quot;origPos&quot;:null}" fill="#d3bb76"/><path d="M171.74449,143.46056v-4.9972h24.98599v4.9972z" data-paper-data="{&quot;origPos&quot;:null}" fill="#d3bb76"/><path d="M191.56095,177.87224v-39.116h5.16952v39.116z" data-paper-data="{&quot;origPos&quot;:null}" fill="#d3bb76"/><path d="M181.56655,178.04456v-27.22611h5.16952v27.22611z" data-paper-data="{&quot;origPos&quot;:null}" fill="#d3bb76"/><path d="M181.73886,178.09623v-5.51415h14.81928v5.51415z" data-paper-data="{&quot;origPos&quot;:null}" fill="#d3bb76"/><path d="M171.57216,188.09065v-4.9972h33.94648v4.9972z" data-paper-data="{&quot;origPos&quot;:null}" fill="#d3bb76"/><path d="M201.21071,188.03893v-49.45502h5.16951v49.45502z" data-paper-data="{&quot;origPos&quot;:null}" fill="#d3bb76"/><path d="M170.9926,323.36384v-64.47534h37.33538v64.47534z" data-paper-data="{&quot;origPos&quot;:null}" fill="#b9a568"/><path d="M165.24872,319.29994v-64.83434h47.96161v64.83434z" data-paper-data="{&quot;origPos&quot;:null}" fill="#e7cd81"/><path d="M172.57221,309.37739v-47.38721h5.16951v47.38722z" data-paper-data="{&quot;origPos&quot;:null}" fill="#b9a568"/><path d="M172.57221,307.99884v-47.38721h5.16951v47.38722z" data-paper-data="{&quot;origPos&quot;:null}" fill="#d3bb76"/><path d="M172.74449,265.66054v-4.9972h24.98599v4.9972z" data-paper-data="{&quot;origPos&quot;:null}" fill="#d3bb76"/><path d="M192.56095,300.07229v-39.116h5.16952v39.116z" data-paper-data="{&quot;origPos&quot;:null}" fill="#d3bb76"/><path d="M182.56655,300.2446v-27.22611h5.16952v27.22611z" data-paper-data="{&quot;origPos&quot;:null}" fill="#d3bb76"/><path d="M182.73886,300.2963v-5.51415h14.81928v5.51415z" data-paper-data="{&quot;origPos&quot;:null}" fill="#d3bb76"/><path d="M172.57216,310.2907v-4.9972h33.94648v4.9972z" data-paper-data="{&quot;origPos&quot;:null}" fill="#d3bb76"/><path d="M202.21071,310.23901v-49.45502h5.16951v49.45502z" data-paper-data="{&quot;origPos&quot;:null}" fill="#d3bb76"/><path d="M171.42339,371.15545v-40.12033h36.76099v40.12033z" data-paper-data="{&quot;origPos&quot;:null}" fill="#b9a568"/><path d="M165.67951,367.22318v-37.21901h47.96161v37.21901z" data-paper-data="{&quot;origPos&quot;:null}" fill="#e7cd81"/><path d="M171.71058,361.13001v-25.84758h5.16952v25.84758z" data-paper-data="{&quot;origPos&quot;:null}" fill="#d3bb76"/><path d="M201.86611,360.84277v-25.84758h5.16951v25.84758z" data-paper-data="{&quot;origPos&quot;:null}" fill="#d3bb76"/><path d="M180.90083,360.84277v-25.84758h5.16951v25.84758z" data-paper-data="{&quot;origPos&quot;:null}" fill="#d3bb76"/><path d="M192.96303,360.84277v-25.84758h5.16951v25.84758z" data-paper-data="{&quot;origPos&quot;:null}" fill="#d3bb76"/><path d="M182.28894,360.63217v-5.7439h12.92379v5.7439z" data-paper-data="{&quot;origPos&quot;:null}" fill="#d3bb76"/><path d="M183.15052,340.81571v-5.74391h12.92379v5.74391z" data-paper-data="{&quot;origPos&quot;:null}" fill="#d3bb76"/><path d="M170.42339,248.95547v-40.12033h36.76099v40.12033z" data-paper-data="{&quot;origPos&quot;:null}" fill="#b9a568"/><path d="M164.67951,245.02317v-37.21901h47.96161v37.21901z" data-paper-data="{&quot;origPos&quot;:null}" fill="#e7cd81"/><path d="M170.71058,238.92999v-25.84758h5.16952v25.84758z" data-paper-data="{&quot;origPos&quot;:null}" fill="#d3bb76"/><path d="M200.86611,238.6427v-25.84758h5.16951v25.84758z" data-paper-data="{&quot;origPos&quot;:null}" fill="#d3bb76"/><path d="M179.90083,238.6427v-25.84758h5.16951v25.84758z" data-paper-data="{&quot;origPos&quot;:null}" fill="#d3bb76"/><path d="M191.96303,238.6427v-25.84758h5.16951v25.84758z" data-paper-data="{&quot;origPos&quot;:null}" fill="#d3bb76"/><path d="M181.28893,238.4321v-5.7439h12.92379v5.7439z" data-paper-data="{&quot;origPos&quot;:null}" fill="#d3bb76"/><path d="M182.15052,218.61564v-5.74391h12.92379v5.74391z" data-paper-data="{&quot;origPos&quot;:null}" fill="#d3bb76"/></g><g data-paper-data="{&quot;origPos&quot;:null}"><path d="M483.55047,93.70852l8.28566,-14.35289l22.20779,6.88753l-7.94537,21.95397l-16.06516,-1.37884z" data-paper-data="{&quot;origPos&quot;:null,&quot;origRot&quot;:0}" fill="#534c42" stroke-width="0"/><path d="M486.45633,92.14009l7.43586,-12.88079l19.93006,6.18112l-7.13047,19.70227l-14.41745,-1.23742z" data-paper-data="{&quot;origPos&quot;:null,&quot;origRot&quot;:0}" fill="url(#color-7)" stroke-width="NaN"/></g><g data-paper-data="{&quot;origPos&quot;:null,&quot;origRot&quot;:0}" stroke-width="0"><path d="M367.3869,307.64005l-26.91969,-289.07985l36.82385,-3.42911l26.91969,289.07986z" data-paper-data="{&quot;origPos&quot;:null}" fill="#d3bb76"/><path d="M347.58696,93.42251l-5.97821,-64.19759l37.17454,-3.46177l5.97821,64.19759z" data-paper-data="{&quot;origPos&quot;:null}" fill="#b9a568"/><path d="M341.49103,89.90873l-6.01149,-64.55504l47.755,-4.44704l6.01149,64.55504z" data-paper-data="{&quot;origPos&quot;:null}" fill="#e7cd81"/><path d="M347.86293,79.34989l-4.39378,-47.18307l5.14724,-0.47932l4.39378,47.18308z" data-paper-data="{&quot;origPos&quot;:null}" fill="#b9a568"/><path d="M347.73509,77.97722l-4.39378,-47.18307l5.14724,-0.47932l4.39378,47.18308z" data-paper-data="{&quot;origPos&quot;:null}" fill="#d3bb76"/><path d="M343.98103,35.80538l-0.46334,-4.97567l24.87835,-2.31672l0.46334,4.97567z" data-paper-data="{&quot;origPos&quot;:null}" fill="#d3bb76"/><path d="M366.90281,68.23144l-3.62687,-38.94749l5.14725,-0.47932l3.62687,38.94749z" data-paper-data="{&quot;origPos&quot;:null}" fill="#d3bb76"/><path d="M356.96745,69.32966l-2.52443,-27.10882l5.14725,-0.47932l2.52443,27.10882z" data-paper-data="{&quot;origPos&quot;:null}" fill="#d3bb76"/><path d="M357.14381,69.36521l-0.51128,-5.4904l14.75544,-1.37406l0.51128,5.4904z" data-paper-data="{&quot;origPos&quot;:null}" fill="#d3bb76"/><path d="M347.94759,80.25919l-0.46334,-4.97567l33.80024,-3.14755l0.46334,4.97567z" data-paper-data="{&quot;origPos&quot;:null}" fill="#d3bb76"/><path d="M377.45367,77.45958l-4.58551,-49.24198l5.14724,-0.47932l4.58551,49.24198z" data-paper-data="{&quot;origPos&quot;:null}" fill="#d3bb76"/><path d="M359.91313,215.00336l-5.97821,-64.19759l37.17454,-3.46177l5.97821,64.19759z" data-paper-data="{&quot;origPos&quot;:null}" fill="#b9a568"/><path d="M353.81721,211.48963l-6.01149,-64.55504l47.755,-4.44704l6.01149,64.55504z" data-paper-data="{&quot;origPos&quot;:null}" fill="#e7cd81"/><path d="M360.18911,200.93075l-4.39378,-47.18307l5.14724,-0.47932l4.39378,47.18308z" data-paper-data="{&quot;origPos&quot;:null}" fill="#b9a568"/><path d="M360.06129,199.55814l-4.39378,-47.18307l5.14724,-0.47932l4.39378,47.18308z" data-paper-data="{&quot;origPos&quot;:null}" fill="#d3bb76"/><path d="M356.30721,157.38624l-0.46334,-4.97567l24.87835,-2.31672l0.46334,4.97567z" data-paper-data="{&quot;origPos&quot;:null}" fill="#d3bb76"/><path d="M379.22899,189.81233l-3.62687,-38.94749l5.14725,-0.47932l3.62687,38.94749z" data-paper-data="{&quot;origPos&quot;:null}" fill="#d3bb76"/><path d="M369.29362,190.9106l-2.52443,-27.10882l5.14725,-0.47932l2.52443,27.10882z" data-paper-data="{&quot;origPos&quot;:null}" fill="#d3bb76"/><path d="M369.46998,190.9461l-0.51128,-5.4904l14.75544,-1.37406l0.51128,5.4904z" data-paper-data="{&quot;origPos&quot;:null}" fill="#d3bb76"/><path d="M360.27377,201.84009l-0.46334,-4.97567l33.80024,-3.14755l0.46334,4.97567z" data-paper-data="{&quot;origPos&quot;:null}" fill="#d3bb76"/><path d="M389.77985,199.04051l-4.58551,-49.24198l5.14724,-0.47932l4.58551,49.24198z" data-paper-data="{&quot;origPos&quot;:null}" fill="#d3bb76"/><path d="M364.77335,262.54921l-3.71999,-39.9475l36.60263,-3.40851l3.71999,39.9475z" data-paper-data="{&quot;origPos&quot;:null}" fill="#b9a568"/><path d="M358.68962,259.16642l-3.45098,-37.05868l47.755,-4.44704l3.45098,37.05868z" data-paper-data="{&quot;origPos&quot;:null}" fill="#e7cd81"/><path d="M364.12976,252.5403l-2.39661,-25.73623l5.14725,-0.47932l2.39661,25.73623z" data-paper-data="{&quot;origPos&quot;:null}" fill="#d3bb76"/><path d="M394.12874,249.45828l-2.39661,-25.73623l5.14724,-0.47932l2.39661,25.73623z" data-paper-data="{&quot;origPos&quot;:null}" fill="#d3bb76"/><path d="M373.25379,251.40219l-2.39661,-25.73623l5.14724,-0.47932l2.39661,25.73623z" data-paper-data="{&quot;origPos&quot;:null}" fill="#d3bb76"/><path d="M385.26403,250.28376l-2.39661,-25.73623l5.14724,-0.47932l2.39661,25.73623z" data-paper-data="{&quot;origPos&quot;:null}" fill="#d3bb76"/><path d="M374.6164,251.0638l-0.53258,-5.71916l12.86812,-1.1983l0.53258,5.71916z" data-paper-data="{&quot;origPos&quot;:null}" fill="#d3bb76"/><path d="M373.63687,231.25281l-0.53258,-5.71917l12.86812,-1.1983l0.53258,5.71917z" data-paper-data="{&quot;origPos&quot;:null}" fill="#d3bb76"/><path d="M352.44718,140.96835l-3.71999,-39.9475l36.60263,-3.40851l3.71999,39.9475z" data-paper-data="{&quot;origPos&quot;:null}" fill="#b9a568"/><path d="M346.36344,137.58547l-3.45098,-37.05868l47.755,-4.44704l3.45098,37.05868z" data-paper-data="{&quot;origPos&quot;:null}" fill="#e7cd81"/><path d="M351.80359,130.9594l-2.39661,-25.73623l5.14725,-0.47932l2.39661,25.73623z" data-paper-data="{&quot;origPos&quot;:null}" fill="#d3bb76"/><path d="M381.80256,127.8773l-2.39661,-25.73623l5.14724,-0.47932l2.39661,25.73623z" data-paper-data="{&quot;origPos&quot;:null}" fill="#d3bb76"/><path d="M360.92761,129.82124l-2.39661,-25.73623l5.14724,-0.47932l2.39661,25.73623z" data-paper-data="{&quot;origPos&quot;:null}" fill="#d3bb76"/><path d="M372.93785,128.70286l-2.39661,-25.73623l5.14724,-0.47932l2.39661,25.73623z" data-paper-data="{&quot;origPos&quot;:null}" fill="#d3bb76"/><path d="M362.29021,129.48286l-0.53258,-5.71916l12.86812,-1.1983l0.53258,5.71916z" data-paper-data="{&quot;origPos&quot;:null}" fill="#d3bb76"/><path d="M361.3107,109.67188l-0.53258,-5.71917l12.86812,-1.1983l0.53258,5.71917z" data-paper-data="{&quot;origPos&quot;:null}" fill="#d3bb76"/></g><g data-paper-data="{&quot;origPos&quot;:null,&quot;origRot&quot;:0}"><path d="M573.32945,138.07696l-19.64286,-13.62024l12.54682,-31.0999l30.60898,14.03708l-3.89667,22.92723z" data-paper-data="{&quot;origPos&quot;:null,&quot;origRot&quot;:0}" fill="#534c42" stroke-width="0"/><path d="M571.42132,133.71325l-17.6282,-12.22331l11.25997,-27.91015l27.46958,12.59739l-3.49701,20.57572z" data-paper-data="{&quot;origPos&quot;:null,&quot;origRot&quot;:0}" fill="url(#color-8)" stroke-width="NaN"/></g><g data-paper-data="{&quot;origPos&quot;:null,&quot;origRot&quot;:0}"><path d="M421.11823,117.94692l-3.2574,-18.38386l24.14474,-10.15653l9.06025,24.69257l-14.8544,10.4551z" data-paper-data="{&quot;origPos&quot;:null,&quot;origRot&quot;:0}" fill="#534c42" stroke-width="0"/><path d="M422.48747,114.48803l-2.92329,-16.49834l21.66835,-9.11482l8.13097,22.16l-13.33088,9.38278z" data-paper-data="{&quot;origPos&quot;:null,&quot;origRot&quot;:0}" fill="url(#color-9)" stroke-width="NaN"/></g><g data-paper-data="{&quot;origPos&quot;:null,&quot;origRot&quot;:0,&quot;index&quot;:null}" stroke-width="0"><path d="M698.71341,304.21095l26.91969,-289.07986l36.82385,3.42911l-26.91969,289.07985z" data-paper-data="{&quot;origPos&quot;:null}" fill="#d3bb76"/><path d="M718.16266,89.96074l5.97821,-64.19759l37.17454,3.46177l-5.97821,64.19759z" data-paper-data="{&quot;origPos&quot;:null}" fill="#b9a568"/><path d="M713.67813,85.46169l6.01149,-64.55504l47.755,4.44704l-6.01149,64.55504z" data-paper-data="{&quot;origPos&quot;:null}" fill="#e7cd81"/><path d="M749.91399,78.87058l4.39378,-47.18308l5.14724,0.47932l-4.39378,47.18307z" data-paper-data="{&quot;origPos&quot;:null}" fill="#b9a568"/><path d="M750.04183,77.49791l4.39378,-47.18308l5.14724,0.47932l-4.39378,47.18307z" data-paper-data="{&quot;origPos&quot;:null}" fill="#d3bb76"/><path d="M734.06478,33.48866l0.46334,-4.97567l24.87835,2.31672l-0.46334,4.97567z" data-paper-data="{&quot;origPos&quot;:null}" fill="#d3bb76"/><path d="M730.8741,67.75212l3.62687,-38.94749l5.14725,0.47932l-3.62687,38.94749z" data-paper-data="{&quot;origPos&quot;:null}" fill="#d3bb76"/><path d="M740.80946,68.85034l2.52443,-27.10882l5.14725,0.47932l-2.52443,27.10882z" data-paper-data="{&quot;origPos&quot;:null}" fill="#d3bb76"/><path d="M731.02491,67.99115l0.51128,-5.4904l14.75544,1.37406l-0.51128,5.4904z" data-paper-data="{&quot;origPos&quot;:null}" fill="#d3bb76"/><path d="M721.17633,77.11164l0.46334,-4.97567l33.80024,3.14755l-0.46334,4.97567z" data-paper-data="{&quot;origPos&quot;:null}" fill="#d3bb76"/><path d="M720.32325,76.98026l4.58551,-49.24198l5.14724,0.47932l-4.58551,49.24198z" data-paper-data="{&quot;origPos&quot;:null}" fill="#d3bb76"/><path d="M705.83649,211.54159l5.97821,-64.19759l37.17454,3.46177l-5.97821,64.19759z" data-paper-data="{&quot;origPos&quot;:null}" fill="#b9a568"/><path d="M701.35195,207.04259l6.01149,-64.55504l47.755,4.44704l-6.01149,64.55504z" data-paper-data="{&quot;origPos&quot;:null}" fill="#e7cd81"/><path d="M737.58781,200.45144l4.39378,-47.18308l5.14724,0.47932l-4.39378,47.18307z" data-paper-data="{&quot;origPos&quot;:null}" fill="#b9a568"/><path d="M737.71563,199.07883l4.39378,-47.18308l5.14724,0.47932l-4.39378,47.18307z" data-paper-data="{&quot;origPos&quot;:null}" fill="#d3bb76"/><path d="M721.7386,155.06952l0.46334,-4.97567l24.87835,2.31672l-0.46334,4.97567z" data-paper-data="{&quot;origPos&quot;:null}" fill="#d3bb76"/><path d="M718.54792,189.33301l3.62687,-38.94749l5.14725,0.47932l-3.62687,38.94749z" data-paper-data="{&quot;origPos&quot;:null}" fill="#d3bb76"/><path d="M728.48329,190.43128l2.52443,-27.10882l5.14725,0.47932l-2.52443,27.10882z" data-paper-data="{&quot;origPos&quot;:null}" fill="#d3bb76"/><path d="M718.69874,189.57204l0.51128,-5.4904l14.75544,1.37406l-0.51128,5.4904z" data-paper-data="{&quot;origPos&quot;:null}" fill="#d3bb76"/><path d="M708.85015,198.69254l0.46334,-4.97567l33.80024,3.14755l-0.46334,4.97567z" data-paper-data="{&quot;origPos&quot;:null}" fill="#d3bb76"/><path d="M707.99707,198.56119l4.58551,-49.24198l5.14724,0.47932l-4.58551,49.24198z" data-paper-data="{&quot;origPos&quot;:null}" fill="#d3bb76"/><path d="M701.54818,259.1407l3.71999,-39.9475l36.60263,3.40851l-3.71999,39.9475z" data-paper-data="{&quot;origPos&quot;:null}" fill="#b9a568"/><path d="M696.47954,254.71938l3.45098,-37.05868l47.755,4.44704l-3.45098,37.05868z" data-paper-data="{&quot;origPos&quot;:null}" fill="#e7cd81"/><path d="M733.64715,252.06098l2.39661,-25.73623l5.14725,0.47932l-2.39661,25.73623z" data-paper-data="{&quot;origPos&quot;:null}" fill="#d3bb76"/><path d="M703.64818,248.97896l2.39661,-25.73623l5.14724,0.47932l-2.39661,25.73623z" data-paper-data="{&quot;origPos&quot;:null}" fill="#d3bb76"/><path d="M724.52313,250.92287l2.39661,-25.73623l5.14724,0.47932l-2.39661,25.73623z" data-paper-data="{&quot;origPos&quot;:null}" fill="#d3bb76"/><path d="M712.51289,249.80444l2.39661,-25.73623l5.14724,0.47932l-2.39661,25.73623z" data-paper-data="{&quot;origPos&quot;:null}" fill="#d3bb76"/><path d="M715.43964,249.8655l0.53258,-5.71916l12.86812,1.1983l-0.53258,5.71916z" data-paper-data="{&quot;origPos&quot;:null}" fill="#d3bb76"/><path d="M716.41917,230.05451l0.53258,-5.71917l12.86812,1.1983l-0.53258,5.71917z" data-paper-data="{&quot;origPos&quot;:null}" fill="#d3bb76"/><path d="M713.87435,137.55984l3.71999,-39.9475l36.60263,3.40851l-3.71999,39.9475z" data-paper-data="{&quot;origPos&quot;:null}" fill="#b9a568"/><path d="M708.80572,133.13843l3.45098,-37.05868l47.755,4.44704l-3.45098,37.05868z" data-paper-data="{&quot;origPos&quot;:null}" fill="#e7cd81"/><path d="M745.97332,130.48008l2.39661,-25.73623l5.14725,0.47932l-2.39661,25.73623z" data-paper-data="{&quot;origPos&quot;:null}" fill="#d3bb76"/><path d="M715.97436,127.39798l2.39661,-25.73623l5.14724,0.47932l-2.39661,25.73623z" data-paper-data="{&quot;origPos&quot;:null}" fill="#d3bb76"/><path d="M736.84931,129.34192l2.39661,-25.73623l5.14724,0.47932l-2.39661,25.73623z" data-paper-data="{&quot;origPos&quot;:null}" fill="#d3bb76"/><path d="M724.83907,128.22354l2.39661,-25.73623l5.14724,0.47932l-2.39661,25.73623z" data-paper-data="{&quot;origPos&quot;:null}" fill="#d3bb76"/><path d="M727.76583,128.28456l0.53258,-5.71916l12.86812,1.1983l-0.53258,5.71916z" data-paper-data="{&quot;origPos&quot;:null}" fill="#d3bb76"/><path d="M728.74534,108.47358l0.53258,-5.71917l12.86812,1.1983l-0.53258,5.71917z" data-paper-data="{&quot;origPos&quot;:null}" fill="#d3bb76"/></g><g data-paper-data="{&quot;origPos&quot;:null}"><path d="M649.55047,86.70851l8.28566,-14.35289l22.20779,6.88753l-7.94537,21.95397l-16.06516,-1.37884z" data-paper-data="{&quot;origPos&quot;:null,&quot;origRot&quot;:0}" fill="#534c42" stroke-width="0"/><path d="M652.45633,85.14009l7.43586,-12.88079l19.93006,6.18112l-7.13047,19.70227l-14.41745,-1.23742z" data-paper-data="{&quot;origPos&quot;:null,&quot;origRot&quot;:0}" fill="url(#color-10)" stroke-width="NaN"/></g><g data-paper-data="{&quot;origPos&quot;:null,&quot;origRot&quot;:0}" stroke-width="0"><path d="M391.3869,560.84005l-26.91969,-289.07985l36.82385,-3.42911l26.91969,289.07986z" data-paper-data="{&quot;origPos&quot;:null}" fill="#d3bb76"/><path d="M371.58696,346.62251l-5.97821,-64.19759l37.17454,-3.46177l5.97821,64.19759z" data-paper-data="{&quot;origPos&quot;:null}" fill="#b9a568"/><path d="M365.49103,343.10873l-6.01149,-64.55504l47.755,-4.44704l6.01149,64.55504z" data-paper-data="{&quot;origPos&quot;:null}" fill="#e7cd81"/><path d="M371.86293,332.54989l-4.39378,-47.18307l5.14724,-0.47932l4.39378,47.18308z" data-paper-data="{&quot;origPos&quot;:null}" fill="#b9a568"/><path d="M371.73509,331.17722l-4.39378,-47.18307l5.14724,-0.47932l4.39378,47.18308z" data-paper-data="{&quot;origPos&quot;:null}" fill="#d3bb76"/><path d="M367.98103,289.00538l-0.46334,-4.97567l24.87835,-2.31672l0.46334,4.97567z" data-paper-data="{&quot;origPos&quot;:null}" fill="#d3bb76"/><path d="M390.90281,321.43144l-3.62687,-38.94749l5.14725,-0.47932l3.62687,38.94749z" data-paper-data="{&quot;origPos&quot;:null}" fill="#d3bb76"/><path d="M380.96745,322.52966l-2.52443,-27.10882l5.14725,-0.47932l2.52443,27.10882z" data-paper-data="{&quot;origPos&quot;:null}" fill="#d3bb76"/><path d="M381.14381,322.56521l-0.51128,-5.4904l14.75544,-1.37406l0.51128,5.4904z" data-paper-data="{&quot;origPos&quot;:null}" fill="#d3bb76"/><path d="M371.94759,333.45919l-0.46334,-4.97567l33.80024,-3.14755l0.46334,4.97567z" data-paper-data="{&quot;origPos&quot;:null}" fill="#d3bb76"/><path d="M401.45367,330.65958l-4.58551,-49.24198l5.14724,-0.47932l4.58551,49.24198z" data-paper-data="{&quot;origPos&quot;:null}" fill="#d3bb76"/><path d="M383.91313,468.20336l-5.97821,-64.19759l37.17454,-3.46177l5.97821,64.19759z" data-paper-data="{&quot;origPos&quot;:null}" fill="#b9a568"/><path d="M377.81721,464.68963l-6.01149,-64.55504l47.755,-4.44704l6.01149,64.55504z" data-paper-data="{&quot;origPos&quot;:null}" fill="#e7cd81"/><path d="M384.18911,454.13075l-4.39378,-47.18307l5.14724,-0.47932l4.39378,47.18308z" data-paper-data="{&quot;origPos&quot;:null}" fill="#b9a568"/><path d="M384.06129,452.75814l-4.39378,-47.18307l5.14724,-0.47932l4.39378,47.18308z" data-paper-data="{&quot;origPos&quot;:null}" fill="#d3bb76"/><path d="M380.30721,410.58624l-0.46334,-4.97567l24.87835,-2.31672l0.46334,4.97567z" data-paper-data="{&quot;origPos&quot;:null}" fill="#d3bb76"/><path d="M403.22899,443.01233l-3.62687,-38.94749l5.14725,-0.47932l3.62687,38.94749z" data-paper-data="{&quot;origPos&quot;:null}" fill="#d3bb76"/><path d="M393.29362,444.1106l-2.52443,-27.10882l5.14725,-0.47932l2.52443,27.10882z" data-paper-data="{&quot;origPos&quot;:null}" fill="#d3bb76"/><path d="M393.46998,444.1461l-0.51128,-5.4904l14.75544,-1.37406l0.51128,5.4904z" data-paper-data="{&quot;origPos&quot;:null}" fill="#d3bb76"/><path d="M384.27377,455.04009l-0.46334,-4.97567l33.80024,-3.14755l0.46334,4.97567z" data-paper-data="{&quot;origPos&quot;:null}" fill="#d3bb76"/><path d="M413.77985,452.24051l-4.58551,-49.24198l5.14724,-0.47932l4.58551,49.24198z" data-paper-data="{&quot;origPos&quot;:null}" fill="#d3bb76"/><path d="M388.77335,515.7492l-3.71999,-39.9475l36.60263,-3.40851l3.71999,39.9475z" data-paper-data="{&quot;origPos&quot;:null}" fill="#b9a568"/><path d="M382.68962,512.36641l-3.45098,-37.05868l47.755,-4.44704l3.45098,37.05868z" data-paper-data="{&quot;origPos&quot;:null}" fill="#e7cd81"/><path d="M388.12976,505.7403l-2.39661,-25.73623l5.14725,-0.47932l2.39661,25.73623z" data-paper-data="{&quot;origPos&quot;:null}" fill="#d3bb76"/><path d="M418.12874,502.65828l-2.39661,-25.73623l5.14724,-0.47932l2.39661,25.73623z" data-paper-data="{&quot;origPos&quot;:null}" fill="#d3bb76"/><path d="M397.25379,504.60219l-2.39661,-25.73623l5.14724,-0.47932l2.39661,25.73623z" data-paper-data="{&quot;origPos&quot;:null}" fill="#d3bb76"/><path d="M409.26403,503.48376l-2.39661,-25.73623l5.14724,-0.47932l2.39661,25.73623z" data-paper-data="{&quot;origPos&quot;:null}" fill="#d3bb76"/><path d="M398.6164,504.2638l-0.53258,-5.71916l12.86812,-1.1983l0.53258,5.71916z" data-paper-data="{&quot;origPos&quot;:null}" fill="#d3bb76"/><path d="M397.63687,484.45281l-0.53258,-5.71917l12.86812,-1.1983l0.53258,5.71917z" data-paper-data="{&quot;origPos&quot;:null}" fill="#d3bb76"/><path d="M376.44718,394.16835l-3.71999,-39.9475l36.60263,-3.40851l3.71999,39.9475z" data-paper-data="{&quot;origPos&quot;:null}" fill="#b9a568"/><path d="M370.36344,390.78547l-3.45098,-37.05868l47.755,-4.44704l3.45098,37.05868z" data-paper-data="{&quot;origPos&quot;:null}" fill="#e7cd81"/><path d="M375.80359,384.1594l-2.39661,-25.73623l5.14725,-0.47932l2.39661,25.73623z" data-paper-data="{&quot;origPos&quot;:null}" fill="#d3bb76"/><path d="M405.80256,381.0773l-2.39661,-25.73623l5.14724,-0.47932l2.39661,25.73623z" data-paper-data="{&quot;origPos&quot;:null}" fill="#d3bb76"/><path d="M384.92761,383.02124l-2.39661,-25.73623l5.14724,-0.47932l2.39661,25.73623z" data-paper-data="{&quot;origPos&quot;:null}" fill="#d3bb76"/><path d="M396.93785,381.90286l-2.39661,-25.73623l5.14724,-0.47932l2.39661,25.73623z" data-paper-data="{&quot;origPos&quot;:null}" fill="#d3bb76"/><path d="M386.29021,382.68286l-0.53258,-5.71916l12.86812,-1.1983l0.53258,5.71916z" data-paper-data="{&quot;origPos&quot;:null}" fill="#d3bb76"/><path d="M385.3107,362.87188l-0.53258,-5.71917l12.86812,-1.1983l0.53258,5.71917z" data-paper-data="{&quot;origPos&quot;:null}" fill="#d3bb76"/></g></g></g></svg>