<svg version="1.1" xmlns="http://www.w3.org/2000/svg" xmlns:xlink="http://www.w3.org/1999/xlink" width="249.90151" height="314.61452"><g transform="translate(-238.01302,-130.5784)"><g data-paper-data="{&quot;isPaintingLayer&quot;:true}" fill="none" fill-rule="nonzero" stroke="none" stroke-width="0" stroke-linecap="butt" stroke-linejoin="miter" stroke-miterlimit="10" stroke-dasharray="" stroke-dashoffset="0" font-family="none" font-weight="none" font-size="none" text-anchor="none" style="mix-blend-mode: normal"><g data-paper-data="{&quot;origPos&quot;:null,&quot;origRot&quot;:0}"><path d="M248.17955,422.46656l-4.67258,-290.29295l36.97838,-0.59521l4.67258,290.29296z" data-paper-data="{&quot;origPos&quot;:null}" fill="#d3bb76"/><path d="M244.865,207.36145l-1.03767,-64.46699l37.33054,-0.60088l1.03767,64.46699z" data-paper-data="{&quot;origPos&quot;:null}" fill="#b9a568"/><path d="M239.05646,203.39056l-1.04344,-64.82594l47.9554,-0.77189l1.04344,64.82594z" data-paper-data="{&quot;origPos&quot;:null}" fill="#e7cd81"/><path d="M246.21931,193.35143l-0.76265,-47.38107l5.16884,-0.0832l0.76265,47.38108z" data-paper-data="{&quot;origPos&quot;:null}" fill="#b9a568"/><path d="M246.19711,191.97301l-0.76265,-47.38107l5.16884,-0.0832l0.76265,47.38108z" data-paper-data="{&quot;origPos&quot;:null}" fill="#d3bb76"/><path d="M245.688,149.63746l-0.08042,-4.99655l24.98275,-0.40212l0.08042,4.99655z" data-paper-data="{&quot;origPos&quot;:null}" fill="#d3bb76"/><path d="M266.05573,183.72578l-0.62954,-39.11093l5.16885,-0.0832l0.62954,39.11093z" data-paper-data="{&quot;origPos&quot;:null}" fill="#d3bb76"/><path d="M256.06541,184.05888l-0.43818,-27.22258l5.16885,-0.0832l0.43818,27.22258z" data-paper-data="{&quot;origPos&quot;:null}" fill="#d3bb76"/><path d="M256.23853,184.10785l-0.08875,-5.51344l14.81736,-0.23851l0.08875,5.51344z" data-paper-data="{&quot;origPos&quot;:null}" fill="#d3bb76"/><path d="M246.23399,194.26455l-0.08042,-4.99655l33.94208,-0.54634l0.08042,4.99655z" data-paper-data="{&quot;origPos&quot;:null}" fill="#d3bb76"/><path d="M275.86787,193.73582l-0.79593,-49.44862l5.16884,-0.0832l0.79593,49.44862z" data-paper-data="{&quot;origPos&quot;:null}" fill="#d3bb76"/><path d="M247.83154,329.52954l-1.03767,-64.46699l37.33054,-0.60088l1.03767,64.46699z" data-paper-data="{&quot;origPos&quot;:null}" fill="#b9a568"/><path d="M242.02303,325.55868l-1.04344,-64.82594l47.9554,-0.77189l1.04344,64.82594z" data-paper-data="{&quot;origPos&quot;:null}" fill="#e7cd81"/><path d="M249.18586,315.51952l-0.76265,-47.38107l5.16884,-0.0832l0.76265,47.38108z" data-paper-data="{&quot;origPos&quot;:null}" fill="#b9a568"/><path d="M249.16368,314.14115l-0.76265,-47.38107l5.16884,-0.0832l0.76265,47.38108z" data-paper-data="{&quot;origPos&quot;:null}" fill="#d3bb76"/><path d="M248.65457,271.80555l-0.08042,-4.99655l24.98275,-0.40212l0.08042,4.99655z" data-paper-data="{&quot;origPos&quot;:null}" fill="#d3bb76"/><path d="M269.02227,305.8939l-0.62954,-39.11093l5.16885,-0.0832l0.62954,39.11093z" data-paper-data="{&quot;origPos&quot;:null}" fill="#d3bb76"/><path d="M259.03193,306.22706l-0.43818,-27.22258l5.16885,-0.0832l0.43818,27.22258z" data-paper-data="{&quot;origPos&quot;:null}" fill="#d3bb76"/><path d="M259.20507,306.27597l-0.08875,-5.51344l14.81736,-0.23851l0.08875,5.51344z" data-paper-data="{&quot;origPos&quot;:null}" fill="#d3bb76"/><path d="M249.20054,316.43267l-0.08042,-4.99655l33.94208,-0.54634l0.08042,4.99655z" data-paper-data="{&quot;origPos&quot;:null}" fill="#d3bb76"/><path d="M278.83441,315.904l-0.79593,-49.44862l5.16884,-0.0832l0.79593,49.44862z" data-paper-data="{&quot;origPos&quot;:null}" fill="#d3bb76"/><path d="M249.03145,377.30808l-0.6457,-40.11514l36.75623,-0.59163l0.6457,40.11514z" data-paper-data="{&quot;origPos&quot;:null}" fill="#b9a568"/><path d="M243.22504,373.46872l-0.599,-37.21419l47.9554,-0.77189l0.599,37.21419z" data-paper-data="{&quot;origPos&quot;:null}" fill="#e7cd81"/><path d="M249.15728,367.27929l-0.41599,-25.84423l5.16885,-0.0832l0.41599,25.84423z" data-paper-data="{&quot;origPos&quot;:null}" fill="#d3bb76"/><path d="M279.30427,366.50679l-0.41599,-25.84423l5.16884,-0.0832l0.41599,25.84423z" data-paper-data="{&quot;origPos&quot;:null}" fill="#d3bb76"/><path d="M258.34171,366.8442l-0.41599,-25.84423l5.16884,-0.0832l0.41599,25.84423z" data-paper-data="{&quot;origPos&quot;:null}" fill="#d3bb76"/><path d="M270.40236,366.65007l-0.41599,-25.84423l5.16884,-0.0832l0.41599,25.84423z" data-paper-data="{&quot;origPos&quot;:null}" fill="#d3bb76"/><path d="M259.72625,366.61129l-0.09244,-5.74316l12.92212,-0.20799l0.09244,5.74316z" data-paper-data="{&quot;origPos&quot;:null}" fill="#d3bb76"/><path d="M260.26881,346.78352l-0.09244,-5.74317l12.92212,-0.20799l0.09244,5.74317z" data-paper-data="{&quot;origPos&quot;:null}" fill="#d3bb76"/><path d="M246.06489,255.14l-0.6457,-40.11514l36.75623,-0.59163l0.6457,40.11514z" data-paper-data="{&quot;origPos&quot;:null}" fill="#b9a568"/><path d="M240.25848,251.30055l-0.599,-37.21419l47.9554,-0.77189l0.599,37.21419z" data-paper-data="{&quot;origPos&quot;:null}" fill="#e7cd81"/><path d="M246.19073,245.11116l-0.41599,-25.84423l5.16885,-0.0832l0.41599,25.84423z" data-paper-data="{&quot;origPos&quot;:null}" fill="#d3bb76"/><path d="M276.33772,244.3386l-0.41599,-25.84423l5.16884,-0.0832l0.41599,25.84423z" data-paper-data="{&quot;origPos&quot;:null}" fill="#d3bb76"/><path d="M255.37516,244.67604l-0.41599,-25.84423l5.16884,-0.0832l0.41599,25.84423z" data-paper-data="{&quot;origPos&quot;:null}" fill="#d3bb76"/><path d="M267.4358,244.48195l-0.41599,-25.84423l5.16884,-0.0832l0.41599,25.84423z" data-paper-data="{&quot;origPos&quot;:null}" fill="#d3bb76"/><path d="M256.75969,244.44313l-0.09244,-5.74316l12.92212,-0.20799l0.09244,5.74316z" data-paper-data="{&quot;origPos&quot;:null}" fill="#d3bb76"/><path d="M257.30226,224.61537l-0.09244,-5.74317l12.92212,-0.20799l0.09244,5.74317z" data-paper-data="{&quot;origPos&quot;:null}" fill="#d3bb76"/></g><g data-paper-data="{&quot;origPos&quot;:null,&quot;origRot&quot;:0}"><path d="M291.17954,421.46656l-4.67258,-290.29295l36.97838,-0.59521l4.67258,290.29296z" data-paper-data="{&quot;origPos&quot;:null}" fill="#d3bb76"/><path d="M287.86501,206.36145l-1.03767,-64.46699l37.33054,-0.60088l1.03767,64.46699z" data-paper-data="{&quot;origPos&quot;:null}" fill="#b9a568"/><path d="M282.05647,202.39056l-1.04344,-64.82594l47.9554,-0.7719l1.04344,64.82594z" data-paper-data="{&quot;origPos&quot;:null}" fill="#e7cd81"/><path d="M289.2193,192.35143l-0.76265,-47.38107l5.16884,-0.08319l0.76265,47.38108z" data-paper-data="{&quot;origPos&quot;:null}" fill="#b9a568"/><path d="M289.1971,190.97301l-0.76265,-47.38107l5.16884,-0.0832l0.76264,47.38108z" data-paper-data="{&quot;origPos&quot;:null}" fill="#d3bb76"/><path d="M288.688,148.63747l-0.08042,-4.99655l24.98275,-0.40212l0.08042,4.99655z" data-paper-data="{&quot;origPos&quot;:null}" fill="#d3bb76"/><path d="M309.05573,182.72578l-0.62953,-39.11093l5.16885,-0.08319l0.62954,39.11093z" data-paper-data="{&quot;origPos&quot;:null}" fill="#d3bb76"/><path d="M299.06541,183.05888l-0.43818,-27.22258l5.16885,-0.0832l0.43818,27.22258z" data-paper-data="{&quot;origPos&quot;:null}" fill="#d3bb76"/><path d="M299.23853,183.10785l-0.08875,-5.51344l14.81736,-0.23851l0.08875,5.51344z" data-paper-data="{&quot;origPos&quot;:null}" fill="#d3bb76"/><path d="M289.23398,193.26455l-0.08042,-4.99655l33.94208,-0.54634l0.08042,4.99655z" data-paper-data="{&quot;origPos&quot;:null}" fill="#d3bb76"/><path d="M318.86787,192.73582l-0.79593,-49.44862l5.16884,-0.08319l0.79593,49.44862z" data-paper-data="{&quot;origPos&quot;:null}" fill="#d3bb76"/><path d="M290.83155,328.52954l-1.03767,-64.46699l37.33054,-0.60088l1.03767,64.46699z" data-paper-data="{&quot;origPos&quot;:null}" fill="#b9a568"/><path d="M285.02302,324.5587l-1.04344,-64.82594l47.9554,-0.7719l1.04344,64.82594z" data-paper-data="{&quot;origPos&quot;:null}" fill="#e7cd81"/><path d="M292.18586,314.51952l-0.76265,-47.38107l5.16884,-0.08319l0.76265,47.38108z" data-paper-data="{&quot;origPos&quot;:null}" fill="#b9a568"/><path d="M292.16366,313.14115l-0.76265,-47.38107l5.16884,-0.0832l0.76265,47.38108z" data-paper-data="{&quot;origPos&quot;:null}" fill="#d3bb76"/><path d="M291.65457,270.80555l-0.08042,-4.99655l24.98275,-0.40212l0.08042,4.99655z" data-paper-data="{&quot;origPos&quot;:null}" fill="#d3bb76"/><path d="M312.02227,304.8939l-0.62953,-39.11093l5.16885,-0.0832l0.62953,39.11093z" data-paper-data="{&quot;origPos&quot;:null}" fill="#d3bb76"/><path d="M302.03193,305.22706l-0.43818,-27.22258l5.16885,-0.08319l0.43818,27.22258z" data-paper-data="{&quot;origPos&quot;:null}" fill="#d3bb76"/><path d="M302.20507,305.27596l-0.08875,-5.51344l14.81736,-0.2385l0.08875,5.51344z" data-paper-data="{&quot;origPos&quot;:null}" fill="#d3bb76"/><path d="M292.20054,315.43269l-0.08042,-4.99655l33.94208,-0.54634l0.08042,4.99655z" data-paper-data="{&quot;origPos&quot;:null}" fill="#d3bb76"/><path d="M321.83441,314.904l-0.79593,-49.44862l5.16884,-0.08319l0.79593,49.44862z" data-paper-data="{&quot;origPos&quot;:null}" fill="#d3bb76"/><path d="M292.03144,376.30808l-0.64569,-40.11514l36.75623,-0.59163l0.64569,40.11514z" data-paper-data="{&quot;origPos&quot;:null}" fill="#b9a568"/><path d="M286.22504,372.46873l-0.599,-37.2142l47.9554,-0.77189l0.59901,37.2142z" data-paper-data="{&quot;origPos&quot;:null}" fill="#e7cd81"/><path d="M292.15727,366.27929l-0.416,-25.84423l5.16885,-0.0832l0.41599,25.84423z" data-paper-data="{&quot;origPos&quot;:null}" fill="#d3bb76"/><path d="M322.30424,365.50679l-0.41599,-25.84423l5.16884,-0.0832l0.41599,25.84423z" data-paper-data="{&quot;origPos&quot;:null}" fill="#d3bb76"/><path d="M301.34171,365.8442l-0.416,-25.84423l5.16884,-0.0832l0.41599,25.84423z" data-paper-data="{&quot;origPos&quot;:null}" fill="#d3bb76"/><path d="M313.40236,365.65007l-0.41599,-25.84423l5.16884,-0.08319l0.416,25.84423z" data-paper-data="{&quot;origPos&quot;:null}" fill="#d3bb76"/><path d="M302.72625,365.6113l-0.09244,-5.74316l12.92212,-0.20799l0.09244,5.74316z" data-paper-data="{&quot;origPos&quot;:null}" fill="#d3bb76"/><path d="M303.26881,345.78353l-0.09244,-5.74317l12.92212,-0.20799l0.09244,5.74317z" data-paper-data="{&quot;origPos&quot;:null}" fill="#d3bb76"/><path d="M289.06489,254.14l-0.6457,-40.11514l36.75623,-0.59163l0.64569,40.11514z" data-paper-data="{&quot;origPos&quot;:null}" fill="#b9a568"/><path d="M283.25847,250.30057l-0.59901,-37.21419l47.9554,-0.7719l0.599,37.21419z" data-paper-data="{&quot;origPos&quot;:null}" fill="#e7cd81"/><path d="M289.19073,244.11116l-0.416,-25.84423l5.16885,-0.0832l0.41599,25.84423z" data-paper-data="{&quot;origPos&quot;:null}" fill="#d3bb76"/><path d="M319.33772,243.3386l-0.41599,-25.84423l5.16884,-0.0832l0.41599,25.84423z" data-paper-data="{&quot;origPos&quot;:null}" fill="#d3bb76"/><path d="M298.37514,243.67604l-0.41599,-25.84423l5.16884,-0.08319l0.41599,25.84423z" data-paper-data="{&quot;origPos&quot;:null}" fill="#d3bb76"/><path d="M310.4358,243.48195l-0.41599,-25.84423l5.16884,-0.0832l0.41599,25.84423z" data-paper-data="{&quot;origPos&quot;:null}" fill="#d3bb76"/><path d="M299.75969,243.44314l-0.09244,-5.74316l12.92212,-0.20799l0.09244,5.74316z" data-paper-data="{&quot;origPos&quot;:null}" fill="#d3bb76"/><path d="M300.30226,223.61537l-0.09244,-5.74317l12.92212,-0.20799l0.09244,5.74317z" data-paper-data="{&quot;origPos&quot;:null}" fill="#d3bb76"/></g><g data-paper-data="{&quot;origPos&quot;:null,&quot;origRot&quot;:0}"><path d="M448.00042,445.19293l-22.20977,-289.4798l36.8748,-2.82915l22.20977,289.47981z" data-paper-data="{&quot;origPos&quot;:null}" fill="#d3bb76"/><path d="M431.69067,230.68143l-4.93225,-64.28641l37.22597,-2.85609l4.93225,64.28641z" data-paper-data="{&quot;origPos&quot;:null}" fill="#b9a568"/><path d="M425.65275,227.06888l-4.95971,-64.64435l47.82107,-3.66898l4.95971,64.64435z" data-paper-data="{&quot;origPos&quot;:null}" fill="#e7cd81"/><path d="M432.19571,216.61517l-3.62504,-47.24835l5.15436,-0.39546l3.62504,47.24836z" data-paper-data="{&quot;origPos&quot;:null}" fill="#b9a568"/><path d="M432.09023,215.24061l-3.62503,-47.24835l5.15436,-0.39546l3.62503,47.24836z" data-paper-data="{&quot;origPos&quot;:null}" fill="#d3bb76"/><path d="M429.02325,173.01323l-0.38228,-4.98255l24.91277,-1.91138l0.38228,4.98255z" data-paper-data="{&quot;origPos&quot;:null}" fill="#d3bb76"/><path d="M451.41407,205.80817l-2.99231,-39.00138l5.15437,-0.39546l2.99231,39.00138z" data-paper-data="{&quot;origPos&quot;:null}" fill="#d3bb76"/><path d="M441.46215,206.7445l-2.08275,-27.14633l5.15437,-0.39546l2.08275,27.14633z" data-paper-data="{&quot;origPos&quot;:null}" fill="#d3bb76"/><path d="M441.63791,206.78292l-0.42182,-5.498l14.77585,-1.13365l0.42182,5.498z" data-paper-data="{&quot;origPos&quot;:null}" fill="#d3bb76"/><path d="M432.26555,217.52574l-0.38227,-4.98255l33.847,-2.59685l0.38227,4.98255z" data-paper-data="{&quot;origPos&quot;:null}" fill="#d3bb76"/><path d="M461.8133,215.20686l-3.78322,-49.31011l5.15436,-0.39546l3.78322,49.31011z" data-paper-data="{&quot;origPos&quot;:null}" fill="#d3bb76"/><path d="M442.03581,352.44686l-4.93225,-64.28641l37.22597,-2.85609l4.93225,64.28641z" data-paper-data="{&quot;origPos&quot;:null}" fill="#b9a568"/><path d="M435.9979,348.83435l-4.95971,-64.64435l47.82107,-3.66898l4.95971,64.64435z" data-paper-data="{&quot;origPos&quot;:null}" fill="#e7cd81"/><path d="M442.54086,338.38059l-3.62504,-47.24835l5.15436,-0.39546l3.62503,47.24836z" data-paper-data="{&quot;origPos&quot;:null}" fill="#b9a568"/><path d="M442.4354,337.00609l-3.62504,-47.24835l5.15436,-0.39546l3.62504,47.24836z" data-paper-data="{&quot;origPos&quot;:null}" fill="#d3bb76"/><path d="M439.3684,294.77867l-0.38227,-4.98255l24.91277,-1.91138l0.38227,4.98255z" data-paper-data="{&quot;origPos&quot;:null}" fill="#d3bb76"/><path d="M461.75923,327.57363l-2.99231,-39.00138l5.15437,-0.39546l2.99231,39.00138z" data-paper-data="{&quot;origPos&quot;:null}" fill="#d3bb76"/><path d="M451.8073,328.51l-2.08275,-27.14633l5.15437,-0.39546l2.08275,27.14633z" data-paper-data="{&quot;origPos&quot;:null}" fill="#d3bb76"/><path d="M451.98306,328.54836l-0.42183,-5.498l14.77585,-1.13365l0.42183,5.498z" data-paper-data="{&quot;origPos&quot;:null}" fill="#d3bb76"/><path d="M442.6107,339.2912l-0.38227,-4.98255l33.847,-2.59685l0.38227,4.98255z" data-paper-data="{&quot;origPos&quot;:null}" fill="#d3bb76"/><path d="M472.15845,336.97236l-3.78322,-49.31011l5.15436,-0.39546l3.78322,49.31011z" data-paper-data="{&quot;origPos&quot;:null}" fill="#d3bb76"/><path d="M446.12132,400.06552l-3.06913,-40.00277l36.65327,-2.81215l3.06913,40.00277z" data-paper-data="{&quot;origPos&quot;:null}" fill="#b9a568"/><path d="M440.09347,396.58413l-2.84719,-37.10995l47.82107,-3.66898l2.84719,37.10995z" data-paper-data="{&quot;origPos&quot;:null}" fill="#e7cd81"/><path d="M445.64076,390.04746l-1.9773,-25.77184l5.15437,-0.39546l1.9773,25.77184z" data-paper-data="{&quot;origPos&quot;:null}" fill="#d3bb76"/><path d="M475.68594,387.45425l-1.97729,-25.77184l5.15436,-0.39546l1.97729,25.77184z" data-paper-data="{&quot;origPos&quot;:null}" fill="#d3bb76"/><path d="M454.78211,389.05804l-1.9773,-25.77184l5.15436,-0.39546l1.9773,25.77184z" data-paper-data="{&quot;origPos&quot;:null}" fill="#d3bb76"/><path d="M466.80897,388.1353l-1.9773,-25.77184l5.15436,-0.39546l1.9773,25.77184z" data-paper-data="{&quot;origPos&quot;:null}" fill="#d3bb76"/><path d="M456.15005,388.74188l-0.4394,-5.72707l12.88592,-0.98864l0.4394,5.72707z" data-paper-data="{&quot;origPos&quot;:null}" fill="#d3bb76"/><path d="M455.49318,368.91757l-0.4394,-5.72708l12.88592,-0.98864l0.4394,5.72708z" data-paper-data="{&quot;origPos&quot;:null}" fill="#d3bb76"/><path d="M435.77617,278.30011l-3.06913,-40.00277l36.65327,-2.81215l3.06913,40.00277z" data-paper-data="{&quot;origPos&quot;:null}" fill="#b9a568"/><path d="M429.7483,274.81863l-2.84719,-37.10995l47.82107,-3.66898l2.84719,37.10995z" data-paper-data="{&quot;origPos&quot;:null}" fill="#e7cd81"/><path d="M435.29562,268.282l-1.9773,-25.77184l5.15437,-0.39546l1.9773,25.77184z" data-paper-data="{&quot;origPos&quot;:null}" fill="#d3bb76"/><path d="M465.34079,265.68871l-1.97729,-25.77184l5.15436,-0.39546l1.97729,25.77184z" data-paper-data="{&quot;origPos&quot;:null}" fill="#d3bb76"/><path d="M444.43696,267.29254l-1.97729,-25.77184l5.15436,-0.39546l1.97729,25.77184z" data-paper-data="{&quot;origPos&quot;:null}" fill="#d3bb76"/><path d="M456.46381,266.36983l-1.97729,-25.77184l5.15436,-0.39546l1.97729,25.77184z" data-paper-data="{&quot;origPos&quot;:null}" fill="#d3bb76"/><path d="M445.80488,266.97637l-0.4394,-5.72707l12.88592,-0.98864l0.4394,5.72707z" data-paper-data="{&quot;origPos&quot;:null}" fill="#d3bb76"/><path d="M445.14804,247.15209l-0.4394,-5.72708l12.88592,-0.98864l0.4394,5.72708z" data-paper-data="{&quot;origPos&quot;:null}" fill="#d3bb76"/></g></g></g></svg>