<svg version="1.1" xmlns="http://www.w3.org/2000/svg" xmlns:xlink="http://www.w3.org/1999/xlink" width="351.2544" height="505.71365"><g transform="translate(-79.9984,278.19999)"><g data-paper-data="{&quot;isPaintingLayer&quot;:true}" fill="none" fill-rule="nonzero" stroke="none" stroke-width="0" stroke-linecap="butt" stroke-linejoin="miter" stroke-miterlimit="10" stroke-dasharray="" stroke-dashoffset="0" font-family="none" font-weight="none" font-size="none" text-anchor="none" style="mix-blend-mode: normal"><path d="M391.58667,-254.1757l0.03595,-4.99707l24.98534,0.17977l-0.03595,4.99707z" data-paper-data="{&quot;origPos&quot;:null}" fill="#d3bb76"/><g data-paper-data="{&quot;origPos&quot;:null}"><path d="M88.95499,51.51366l-1.4362,-182.13916l37.26013,-1.47577l1.15562,182.87686z" data-paper-data="{&quot;origPos&quot;:null,&quot;origRot&quot;:0}" fill="#d3bb76"/><path d="M117.99999,63.8v-18h24v18z" data-paper-data="{&quot;origPos&quot;:null}" fill="#a1937c"/><path d="M123.99999,137.8v-219.8h67v219.8z" data-paper-data="{&quot;origPos&quot;:null}" fill="#a1937c"/><path d="M98,224.8v-104h307v104z" data-paper-data="{&quot;origPos&quot;:null}" fill="#a1937c"/><path d="M136.99999,141.8c0,0 -11.04937,9.83836 -11.65401,8.42442c-1.81394,-4.24182 -4.51654,-65.29323 -3.34599,-100.42441c0.07798,-2.34028 15,10.34158 15,8c0,-98.34624 0,-336 0,-336h276v420z" data-paper-data="{&quot;origPos&quot;:null}" fill="#a1937c"/><path d="M388.72415,12.63737l2.08875,-290.32305l36.98221,0.26607l-2.08875,290.32305z" data-paper-data="{&quot;origPos&quot;:null}" fill="#d3bb76"/><path d="M386.92988,227.07736l2.08874,-255.35509l36.98221,0.23402l-2.08874,255.3551z" data-paper-data="{&quot;origPos&quot;:null}" fill="#d3bb76"/><path d="M388.12535,46.92132l0.46385,-64.47368l37.3344,0.2686l-0.46385,64.47368z" data-paper-data="{&quot;origPos&quot;:null}" fill="#b9a568"/><path d="M380.91088,42.8163l0.46645,-64.83266l47.96036,0.34506l-0.46645,64.83266z" data-paper-data="{&quot;origPos&quot;:null}" fill="#e7cd81"/><path d="M388.30556,32.94662l0.34093,-47.38598l5.16937,0.03719l-0.34093,47.38599z" data-paper-data="{&quot;origPos&quot;:null}" fill="#b9a568"/><path d="M388.31542,31.56816l0.34093,-47.38598l5.16937,0.03719l-0.34093,47.38599z" data-paper-data="{&quot;origPos&quot;:null}" fill="#d3bb76"/><path d="M408.36072,23.78558l0.28142,-39.115l5.16938,0.03719l-0.28142,39.11499z" data-paper-data="{&quot;origPos&quot;:null}" fill="#d3bb76"/><path d="M398.36531,23.886l0.19588,-27.22541l5.16938,0.03719l-0.19588,27.22541z" data-paper-data="{&quot;origPos&quot;:null}" fill="#d3bb76"/><path d="M398.53728,23.93889l0.03967,-5.51401l14.8189,0.10662l-0.03967,5.51401z" data-paper-data="{&quot;origPos&quot;:null}" fill="#d3bb76"/><path d="M388.29889,33.85991l0.03595,-4.99707l33.94561,0.24422l-0.03595,4.99707z" data-paper-data="{&quot;origPos&quot;:null}" fill="#d3bb76"/><path d="M417.93709,34.02142l0.3558,-49.45374l5.16938,0.03719l-0.35581,49.45373z" data-paper-data="{&quot;origPos&quot;:null}" fill="#d3bb76"/><path d="M387.24616,169.12543l0.46385,-64.47368l37.3344,0.2686l-0.46385,64.47368z" data-paper-data="{&quot;origPos&quot;:null}" fill="#b9a568"/><path d="M381.0317,165.02029l0.46643,-64.83265l47.96036,0.34506l-0.46644,64.83265z" data-paper-data="{&quot;origPos&quot;:null}" fill="#e7cd81"/><path d="M388.42637,155.15071l0.34093,-47.38598l5.16938,0.03719l-0.34093,47.38599z" data-paper-data="{&quot;origPos&quot;:null}" fill="#b9a568"/><path d="M388.43628,153.77219l0.34093,-47.38598l5.16938,0.03719l-0.34093,47.38599z" data-paper-data="{&quot;origPos&quot;:null}" fill="#d3bb76"/><path d="M388.91318,111.43623l0.03595,-4.99707l24.98534,0.17976l-0.03595,4.99707z" data-paper-data="{&quot;origPos&quot;:null}" fill="#d3bb76"/><path d="M408.48153,145.98962l0.28142,-39.11499l5.16938,0.03719l-0.28142,39.11499z" data-paper-data="{&quot;origPos&quot;:null}" fill="#d3bb76"/><path d="M398.48613,146.09006l0.19588,-27.22541l5.16938,0.03719l-0.19588,27.22541z" data-paper-data="{&quot;origPos&quot;:null}" fill="#d3bb76"/><path d="M398.65809,146.14298l0.03967,-5.51401l14.8189,0.10663l-0.03967,5.51401z" data-paper-data="{&quot;origPos&quot;:null}" fill="#d3bb76"/><path d="M388.41971,156.06399l0.03596,-4.99708l33.9456,0.24423l-0.03595,4.99707z" data-paper-data="{&quot;origPos&quot;:null}" fill="#d3bb76"/><path d="M418.05785,156.22553l0.35581,-49.45373l5.16937,0.03719l-0.3558,49.45374z" data-paper-data="{&quot;origPos&quot;:null}" fill="#d3bb76"/><path d="M386.83312,216.9189l0.28864,-40.1193l36.76003,0.26446l-0.28864,40.1193z" data-paper-data="{&quot;origPos&quot;:null}" fill="#b9a568"/><path d="M381.1177,212.94538l0.26776,-37.21804l47.96036,0.34506l-0.26776,37.21804z" data-paper-data="{&quot;origPos&quot;:null}" fill="#e7cd81"/><path d="M387.19245,206.8958l0.18595,-25.84691l5.16938,0.03719l-0.18595,25.84691z" data-paper-data="{&quot;origPos&quot;:null}" fill="#d3bb76"/><path d="M417.34924,206.82552l0.18595,-25.84691l5.16938,0.03718l-0.18594,25.84692z" data-paper-data="{&quot;origPos&quot;:null}" fill="#d3bb76"/><path d="M396.3845,206.67468l0.18595,-25.84691l5.16938,0.03719l-0.18595,25.84691z" data-paper-data="{&quot;origPos&quot;:null}" fill="#d3bb76"/><path d="M408.44637,206.76144l0.18594,-25.84692l5.16937,0.03719l-0.18593,25.84692z" data-paper-data="{&quot;origPos&quot;:null}" fill="#d3bb76"/><path d="M397.77413,206.47408l0.04133,-5.74376l12.92345,0.09299l-0.04133,5.74376z" data-paper-data="{&quot;origPos&quot;:null}" fill="#d3bb76"/><path d="M398.77823,186.66431l0.04132,-5.74375l12.92345,0.09298l-0.04132,5.74376z" data-paper-data="{&quot;origPos&quot;:null}" fill="#d3bb76"/><path d="M387.7123,94.71488l0.28864,-40.1193l36.76003,0.26446l-0.28864,40.1193z" data-paper-data="{&quot;origPos&quot;:null}" fill="#b9a568"/><path d="M380.99684,90.74136l0.26776,-37.21804l47.96036,0.34506l-0.26776,37.21804z" data-paper-data="{&quot;origPos&quot;:null}" fill="#e7cd81"/><path d="M387.07163,84.69173l0.18594,-25.84691l5.16939,0.03718l-0.18595,25.84691z" data-paper-data="{&quot;origPos&quot;:null}" fill="#d3bb76"/><path d="M417.22842,84.62139l0.18594,-25.84692l5.16937,0.03719l-0.18594,25.84692z" data-paper-data="{&quot;origPos&quot;:null}" fill="#d3bb76"/><path d="M396.26368,84.47057l0.18594,-25.84692l5.16937,0.03719l-0.18595,25.84691z" data-paper-data="{&quot;origPos&quot;:null}" fill="#d3bb76"/><path d="M408.32555,84.55735l0.18595,-25.84691l5.16937,0.03718l-0.18595,25.84691z" data-paper-data="{&quot;origPos&quot;:null}" fill="#d3bb76"/><path d="M397.65327,84.26997l0.04133,-5.74375l12.92345,0.09298l-0.04133,5.74375z" data-paper-data="{&quot;origPos&quot;:null}" fill="#d3bb76"/><path d="M398.65741,64.46022l0.04132,-5.74375l12.92345,0.09298l-0.04132,5.74376z" data-paper-data="{&quot;origPos&quot;:null}" fill="#d3bb76"/><path d="M88.95499,227.51366l-1.4362,-186.10701l37.26013,-1.50792l1.15562,186.86078z" data-paper-data="{&quot;origPos&quot;:null,&quot;origRot&quot;:0}" fill="#d3bb76"/><path d="M88.31723,90.33014l-0.5611,-40.11639l36.75739,-0.51412l0.56109,40.1164z" data-paper-data="{&quot;origPos&quot;:null,&quot;origRot&quot;:0}" fill="#b9a568"/><path d="M81.51891,86.47861l-0.52051,-37.21537l47.95692,-0.67076l0.52052,37.21536z" data-paper-data="{&quot;origPos&quot;:null,&quot;origRot&quot;:0}" fill="#e7cd81"/><path d="M87.46417,80.30167l-0.36148,-25.84504l5.16901,-0.0723l0.36149,25.84505z" data-paper-data="{&quot;origPos&quot;:null,&quot;origRot&quot;:0}" fill="#d3bb76"/><path d="M117.61273,79.59277l-0.36148,-25.84506l5.169,-0.0723l0.36148,25.84505z" data-paper-data="{&quot;origPos&quot;:null,&quot;origRot&quot;:0}" fill="#d3bb76"/><path d="M96.64952,79.88593l-0.36148,-25.84505l5.169,-0.0723l0.36148,25.84506z" data-paper-data="{&quot;origPos&quot;:null,&quot;origRot&quot;:0}" fill="#d3bb76"/><path d="M108.71055,79.71724l-0.36148,-25.84505l5.169,-0.0723l0.36148,25.84505z" data-paper-data="{&quot;origPos&quot;:null,&quot;origRot&quot;:0}" fill="#d3bb76"/><path d="M98.03455,79.65598l-0.08032,-5.74333l12.92253,-0.18075l0.08033,5.74334z" data-paper-data="{&quot;origPos&quot;:null,&quot;origRot&quot;:0}" fill="#d3bb76"/><path d="M98.6189,59.82934l-0.08033,-5.74334l12.92253,-0.18075l0.08032,5.74335z" data-paper-data="{&quot;origPos&quot;:null,&quot;origRot&quot;:0}" fill="#d3bb76"/><path d="M88.80313,166.34354l-0.9017,-64.46904l37.33173,-0.52215l0.9017,64.46904z" data-paper-data="{&quot;origPos&quot;:null,&quot;origRot&quot;:0}" fill="#b9a568"/><path d="M82.00298,162.36048l-0.90673,-64.828l47.95692,-0.67077l0.90673,64.828z" data-paper-data="{&quot;origPos&quot;:null,&quot;origRot&quot;:0}" fill="#e7cd81"/><path d="M89.18695,152.33644l-0.66273,-47.38257l5.169,-0.07229l0.66273,47.38258z" data-paper-data="{&quot;origPos&quot;:null,&quot;origRot&quot;:0}" fill="#b9a568"/><path d="M89.16769,150.95808l-0.66273,-47.38257l5.169,-0.0723l0.66272,47.38258z" data-paper-data="{&quot;origPos&quot;:null,&quot;origRot&quot;:0}" fill="#d3bb76"/><path d="M88.74785,108.62143l-0.0699,-4.9967l24.98354,-0.34944l0.06989,4.99671z" data-paper-data="{&quot;origPos&quot;:null,&quot;origRot&quot;:0}" fill="#d3bb76"/><path d="M109.04365,142.75268l-0.54705,-39.11218l5.16901,-0.0723l0.54705,39.11218z" data-paper-data="{&quot;origPos&quot;:null,&quot;origRot&quot;:0}" fill="#d3bb76"/><path d="M99.05261,143.06478l-0.38076,-27.22345l5.16901,-0.0723l0.38077,27.22346z" data-paper-data="{&quot;origPos&quot;:null,&quot;origRot&quot;:0}" fill="#d3bb76"/><path d="M99.22563,143.11404l-0.07712,-5.51362l14.81784,-0.20725l0.07712,5.51362z" data-paper-data="{&quot;origPos&quot;:null,&quot;origRot&quot;:0}" fill="#d3bb76"/><path d="M89.19971,153.24967l-0.06989,-4.99671l33.94316,-0.47476l0.06989,4.99671z" data-paper-data="{&quot;origPos&quot;:null,&quot;origRot&quot;:0}" fill="#d3bb76"/><path d="M118.83464,152.78344l-0.69166,-49.45019l5.169,-0.0723l0.69164,49.45019z" data-paper-data="{&quot;origPos&quot;:null,&quot;origRot&quot;:0}" fill="#d3bb76"/><path d="M88.90225,214.12461l-0.5611,-40.1164l36.7574,-0.51411l0.56109,40.1164z" data-paper-data="{&quot;origPos&quot;:null,&quot;origRot&quot;:0}" fill="#b9a568"/><path d="M83.10391,210.27299l-0.52052,-37.21536l47.95692,-0.67077l0.52051,37.21537z" data-paper-data="{&quot;origPos&quot;:null,&quot;origRot&quot;:0}" fill="#e7cd81"/><path d="M89.04923,204.09602l-0.36148,-25.84506l5.16901,-0.0723l0.36149,25.84505z" data-paper-data="{&quot;origPos&quot;:null,&quot;origRot&quot;:0}" fill="#d3bb76"/><path d="M98.23455,203.68031l-0.36149,-25.84505l5.16901,-0.0723l0.36148,25.84505z" data-paper-data="{&quot;origPos&quot;:null,&quot;origRot&quot;:0}" fill="#d3bb76"/><path d="M110.29557,203.51164l-0.36148,-25.84506l5.169,-0.0723l0.36148,25.84505z" data-paper-data="{&quot;origPos&quot;:null,&quot;origRot&quot;:0}" fill="#d3bb76"/><path d="M100.20396,183.62374l-0.08032,-5.74333l12.92252,-0.18076l0.08033,5.74335z" data-paper-data="{&quot;origPos&quot;:null,&quot;origRot&quot;:0}" fill="#d3bb76"/><path d="M120.04922,203.09602l-0.36148,-25.84506l5.16901,-0.0723l0.36149,25.84505z" data-paper-data="{&quot;origPos&quot;:null,&quot;origRot&quot;:0}" fill="#d3bb76"/><path d="M98,203.8v-5h13v5z" data-paper-data="{&quot;origPos&quot;:null}" fill="#d3bb76"/><path d="M375.31722,-200.46988l-0.5611,-40.11639l36.75739,-0.51412l0.56109,40.1164z" data-paper-data="{&quot;origPos&quot;:null,&quot;origRot&quot;:0}" fill="#b9a568"/><path d="M369.5189,-204.32141l-0.52051,-37.21537l47.95692,-0.67076l0.52052,37.21536z" data-paper-data="{&quot;origPos&quot;:null,&quot;origRot&quot;:0}" fill="#e7cd81"/><path d="M375.46419,-210.49835l-0.36148,-25.84504l5.16901,-0.0723l0.36149,25.84505z" data-paper-data="{&quot;origPos&quot;:null,&quot;origRot&quot;:0}" fill="#d3bb76"/><path d="M405.61274,-211.20726l-0.36148,-25.84506l5.169,-0.0723l0.36148,25.84505z" data-paper-data="{&quot;origPos&quot;:null,&quot;origRot&quot;:0}" fill="#d3bb76"/><path d="M384.64953,-210.91409l-0.36148,-25.84505l5.169,-0.0723l0.36148,25.84506z" data-paper-data="{&quot;origPos&quot;:null,&quot;origRot&quot;:0}" fill="#d3bb76"/><path d="M396.71055,-211.08278l-0.36148,-25.84505l5.169,-0.0723l0.36148,25.84505z" data-paper-data="{&quot;origPos&quot;:null,&quot;origRot&quot;:0}" fill="#d3bb76"/><path d="M386.03457,-211.14404l-0.08032,-5.74333l12.92253,-0.18075l0.08033,5.74334z" data-paper-data="{&quot;origPos&quot;:null,&quot;origRot&quot;:0}" fill="#d3bb76"/><path d="M386.61891,-230.97068l-0.08033,-5.74334l12.92253,-0.18075l0.08032,5.74335z" data-paper-data="{&quot;origPos&quot;:null,&quot;origRot&quot;:0}" fill="#d3bb76"/><path d="M375.80313,-124.45647l-0.9017,-64.46904l37.33173,-0.52215l0.9017,64.46904z" data-paper-data="{&quot;origPos&quot;:null,&quot;origRot&quot;:0}" fill="#b9a568"/><path d="M370.00296,-128.43954l-0.90673,-64.828l47.95692,-0.67077l0.90673,64.828z" data-paper-data="{&quot;origPos&quot;:null,&quot;origRot&quot;:0}" fill="#e7cd81"/><path d="M377.18695,-138.46359l-0.66273,-47.38257l5.169,-0.07229l0.66273,47.38258z" data-paper-data="{&quot;origPos&quot;:null,&quot;origRot&quot;:0}" fill="#b9a568"/><path d="M377.16768,-139.84196l-0.66273,-47.38257l5.169,-0.0723l0.66272,47.38258z" data-paper-data="{&quot;origPos&quot;:null,&quot;origRot&quot;:0}" fill="#d3bb76"/><path d="M376.74787,-182.17858l-0.0699,-4.9967l24.98354,-0.34944l0.06989,4.99671z" data-paper-data="{&quot;origPos&quot;:null,&quot;origRot&quot;:0}" fill="#d3bb76"/><path d="M397.04367,-148.04734l-0.54705,-39.11218l5.16901,-0.0723l0.54705,39.11218z" data-paper-data="{&quot;origPos&quot;:null,&quot;origRot&quot;:0}" fill="#d3bb76"/><path d="M387.05263,-147.73525l-0.38076,-27.22345l5.16901,-0.0723l0.38077,27.22346z" data-paper-data="{&quot;origPos&quot;:null,&quot;origRot&quot;:0}" fill="#d3bb76"/><path d="M387.22563,-147.68598l-0.07712,-5.51362l14.81784,-0.20725l0.07712,5.51362z" data-paper-data="{&quot;origPos&quot;:null,&quot;origRot&quot;:0}" fill="#d3bb76"/><path d="M377.1997,-137.55036l-0.06989,-4.99671l33.94316,-0.47476l0.06989,4.99671z" data-paper-data="{&quot;origPos&quot;:null,&quot;origRot&quot;:0}" fill="#d3bb76"/><path d="M406.83465,-138.01659l-0.69166,-49.45019l5.169,-0.0723l0.69164,49.45019z" data-paper-data="{&quot;origPos&quot;:null,&quot;origRot&quot;:0}" fill="#d3bb76"/><path d="M388.41971,-196.4866l0.46385,-64.47368l37.3344,0.2686l-0.46385,64.47368z" data-paper-data="{&quot;origPos&quot;:null}" fill="#b9a568"/><path d="M382.70519,-200.59162l0.46644,-64.83265l47.96036,0.34506l-0.46645,64.83266z" data-paper-data="{&quot;origPos&quot;:null}" fill="#e7cd81"/><path d="M390.09987,-210.46129l0.34093,-47.38598l5.16938,0.03718l-0.34093,47.38599z" data-paper-data="{&quot;origPos&quot;:null}" fill="#b9a568"/><path d="M390.10973,-211.83979l0.34093,-47.38598l5.16937,0.03719l-0.34093,47.38599z" data-paper-data="{&quot;origPos&quot;:null}" fill="#d3bb76"/><path d="M410.15503,-219.62236l0.28143,-39.11499l5.16938,0.03719l-0.28142,39.11499z" data-paper-data="{&quot;origPos&quot;:null}" fill="#d3bb76"/><path d="M400.15966,-219.52196l0.19588,-27.22541l5.16939,0.03718l-0.19588,27.2254z" data-paper-data="{&quot;origPos&quot;:null}" fill="#d3bb76"/><path d="M400.33163,-219.46904l0.03967,-5.51401l14.8189,0.10662l-0.03967,5.51401z" data-paper-data="{&quot;origPos&quot;:null}" fill="#d3bb76"/><path d="M390.09329,-209.54802l0.03595,-4.99707l33.9456,0.24423l-0.03595,4.99707z" data-paper-data="{&quot;origPos&quot;:null}" fill="#d3bb76"/><path d="M419.73144,-209.3865l0.3558,-49.45374l5.16937,0.03719l-0.3558,49.45374z" data-paper-data="{&quot;origPos&quot;:null}" fill="#d3bb76"/><path d="M388.54052,-74.2825l0.46385,-64.47368l37.33441,0.26861l-0.46385,64.47368z" data-paper-data="{&quot;origPos&quot;:null}" fill="#b9a568"/><path d="M382.826,-78.38761l0.46644,-64.83265l47.96036,0.34506l-0.46645,64.83266z" data-paper-data="{&quot;origPos&quot;:null}" fill="#e7cd81"/><path d="M390.22072,-88.25722l0.34093,-47.38597l5.16937,0.03719l-0.34093,47.38599z" data-paper-data="{&quot;origPos&quot;:null}" fill="#b9a568"/><path d="M390.23058,-89.63573l0.34093,-47.38598l5.16937,0.03719l-0.34093,47.38599z" data-paper-data="{&quot;origPos&quot;:null}" fill="#d3bb76"/><path d="M390.70749,-131.97171l0.03595,-4.99708l24.98534,0.17977l-0.03595,4.99708z" data-paper-data="{&quot;origPos&quot;:null}" fill="#d3bb76"/><path d="M410.27588,-97.41826l0.28142,-39.11499l5.16938,0.03719l-0.28142,39.11499z" data-paper-data="{&quot;origPos&quot;:null}" fill="#d3bb76"/><path d="M400.28048,-97.31787l0.19588,-27.22541l5.16938,0.03719l-0.19588,27.22541z" data-paper-data="{&quot;origPos&quot;:null}" fill="#d3bb76"/><path d="M400.45244,-97.26494l0.03967,-5.51401l14.8189,0.10663l-0.03967,5.51401z" data-paper-data="{&quot;origPos&quot;:null}" fill="#d3bb76"/><path d="M390.2141,-87.34393l0.03595,-4.99707l33.9456,0.24423l-0.03595,4.99707z" data-paper-data="{&quot;origPos&quot;:null}" fill="#d3bb76"/><path d="M419.85225,-87.18239l0.3558,-49.45374l5.16938,0.03719l-0.35581,49.45374z" data-paper-data="{&quot;origPos&quot;:null}" fill="#d3bb76"/><path d="M389.12747,-26.48903l0.28864,-40.1193l36.76003,0.26446l-0.28864,40.1193z" data-paper-data="{&quot;origPos&quot;:null}" fill="#b9a568"/><path d="M382.91201,-30.46252l0.26776,-37.21804l47.96036,0.34506l-0.26776,37.21804z" data-paper-data="{&quot;origPos&quot;:null}" fill="#e7cd81"/><path d="M388.98675,-36.51214l0.18594,-25.84692l5.16938,0.03719l-0.18594,25.84692z" data-paper-data="{&quot;origPos&quot;:null}" fill="#d3bb76"/><path d="M419.14359,-36.58242l0.18594,-25.84692l5.16937,0.03718l-0.18594,25.84692z" data-paper-data="{&quot;origPos&quot;:null}" fill="#d3bb76"/><path d="M398.17885,-36.73326l0.18594,-25.84692l5.16937,0.03719l-0.18594,25.84692z" data-paper-data="{&quot;origPos&quot;:null}" fill="#d3bb76"/><path d="M410.24076,-36.64647l0.18595,-25.84691l5.16937,0.03719l-0.18595,25.84691z" data-paper-data="{&quot;origPos&quot;:null}" fill="#d3bb76"/><path d="M399.56844,-36.93384l0.04133,-5.74375l12.92345,0.09298l-0.04133,5.74375z" data-paper-data="{&quot;origPos&quot;:null}" fill="#d3bb76"/><path d="M400.57253,-56.74361l0.04132,-5.74376l12.92345,0.09298l-0.04132,5.74376z" data-paper-data="{&quot;origPos&quot;:null}" fill="#d3bb76"/><path d="M388.50662,-148.69304l0.28864,-40.1193l36.76003,0.26446l-0.28864,40.1193z" data-paper-data="{&quot;origPos&quot;:null}" fill="#b9a568"/><path d="M382.79119,-152.66654l0.26776,-37.21804l47.96036,0.34506l-0.26776,37.21804z" data-paper-data="{&quot;origPos&quot;:null}" fill="#e7cd81"/><path d="M388.86595,-158.71618l0.18595,-25.84691l5.16939,0.03718l-0.18594,25.84692z" data-paper-data="{&quot;origPos&quot;:null}" fill="#d3bb76"/><path d="M419.02273,-158.78654l0.18594,-25.84692l5.16937,0.03719l-0.18595,25.84691z" data-paper-data="{&quot;origPos&quot;:null}" fill="#d3bb76"/><path d="M398.05803,-158.93734l0.18595,-25.84691l5.16937,0.03718l-0.18594,25.84692z" data-paper-data="{&quot;origPos&quot;:null}" fill="#d3bb76"/><path d="M410.1199,-158.85058l0.18595,-25.84691l5.16937,0.03719l-0.18595,25.84691z" data-paper-data="{&quot;origPos&quot;:null}" fill="#d3bb76"/><path d="M399.44762,-159.13797l0.04133,-5.74376l12.92345,0.09298l-0.04133,5.74375z" data-paper-data="{&quot;origPos&quot;:null}" fill="#d3bb76"/><path d="M400.45172,-178.94771l0.04132,-5.74376l12.92345,0.09298l-0.04132,5.74376z" data-paper-data="{&quot;origPos&quot;:null}" fill="#d3bb76"/><path d="M388.79236,-11.76778l0.03595,-4.99707l24.98534,0.17977l-0.03595,4.99707z" data-paper-data="{&quot;origPos&quot;:null}" fill="#d3bb76"/><path d="M86.31723,-81.66986l-0.5611,-40.11639l36.75739,-0.51412l0.56109,40.1164z" data-paper-data="{&quot;origPos&quot;:null,&quot;origRot&quot;:0}" fill="#b9a568"/><path d="M80.51891,-85.52139l-0.52051,-37.21537l47.95692,-0.67076l0.52052,37.21536z" data-paper-data="{&quot;origPos&quot;:null,&quot;origRot&quot;:0}" fill="#e7cd81"/><path d="M86.46417,-91.69833l-0.36148,-25.84504l5.16901,-0.0723l0.36149,25.84505z" data-paper-data="{&quot;origPos&quot;:null,&quot;origRot&quot;:0}" fill="#d3bb76"/><path d="M116.61273,-92.40723l-0.36148,-25.84506l5.169,-0.0723l0.36148,25.84505z" data-paper-data="{&quot;origPos&quot;:null,&quot;origRot&quot;:0}" fill="#d3bb76"/><path d="M95.64952,-92.11407l-0.36148,-25.84505l5.169,-0.0723l0.36148,25.84506z" data-paper-data="{&quot;origPos&quot;:null,&quot;origRot&quot;:0}" fill="#d3bb76"/><path d="M107.71055,-92.28276l-0.36148,-25.84505l5.169,-0.0723l0.36148,25.84505z" data-paper-data="{&quot;origPos&quot;:null,&quot;origRot&quot;:0}" fill="#d3bb76"/><path d="M97.03455,-92.34402l-0.08032,-5.74333l12.92253,-0.18075l0.08033,5.74334z" data-paper-data="{&quot;origPos&quot;:null,&quot;origRot&quot;:0}" fill="#d3bb76"/><path d="M97.6189,-112.17066l-0.08033,-5.74334l12.92253,-0.18075l0.08032,5.74335z" data-paper-data="{&quot;origPos&quot;:null,&quot;origRot&quot;:0}" fill="#d3bb76"/><path d="M86.80313,-5.65646l-0.9017,-64.46904l37.33173,-0.52215l0.9017,64.46904z" data-paper-data="{&quot;origPos&quot;:null,&quot;origRot&quot;:0}" fill="#b9a568"/><path d="M81.00298,-9.63952l-0.90673,-64.828l47.95692,-0.67077l0.90673,64.828z" data-paper-data="{&quot;origPos&quot;:null,&quot;origRot&quot;:0}" fill="#e7cd81"/><path d="M88.18695,-19.66356l-0.66273,-47.38257l5.169,-0.07229l0.66273,47.38258z" data-paper-data="{&quot;origPos&quot;:null,&quot;origRot&quot;:0}" fill="#b9a568"/><path d="M88.16769,-21.04192l-0.66273,-47.38257l5.169,-0.0723l0.66272,47.38258z" data-paper-data="{&quot;origPos&quot;:null,&quot;origRot&quot;:0}" fill="#d3bb76"/><path d="M87.74785,-63.37857l-0.0699,-4.9967l24.98354,-0.34944l0.06989,4.99671z" data-paper-data="{&quot;origPos&quot;:null,&quot;origRot&quot;:0}" fill="#d3bb76"/><path d="M108.04365,-29.24732l-0.54705,-39.11218l5.16901,-0.0723l0.54705,39.11218z" data-paper-data="{&quot;origPos&quot;:null,&quot;origRot&quot;:0}" fill="#d3bb76"/><path d="M98.05261,-28.93522l-0.38076,-27.22345l5.16901,-0.0723l0.38077,27.22346z" data-paper-data="{&quot;origPos&quot;:null,&quot;origRot&quot;:0}" fill="#d3bb76"/><path d="M98.22563,-28.88596l-0.07712,-5.51362l14.81784,-0.20725l0.07712,5.51362z" data-paper-data="{&quot;origPos&quot;:null,&quot;origRot&quot;:0}" fill="#d3bb76"/><path d="M88.19971,-18.75033l-0.06989,-4.99671l33.94316,-0.47476l0.06989,4.99671z" data-paper-data="{&quot;origPos&quot;:null,&quot;origRot&quot;:0}" fill="#d3bb76"/><path d="M117.83464,-19.21656l-0.69166,-49.45019l5.169,-0.0723l0.69164,49.45019z" data-paper-data="{&quot;origPos&quot;:null,&quot;origRot&quot;:0}" fill="#d3bb76"/><path d="M87.90225,42.12461l-0.5611,-40.1164l36.7574,-0.51411l0.56109,40.1164z" data-paper-data="{&quot;origPos&quot;:null,&quot;origRot&quot;:0}" fill="#b9a568"/><path d="M82.10391,38.27299l-0.52052,-37.21536l47.95692,-0.67077l0.52051,37.21537z" data-paper-data="{&quot;origPos&quot;:null,&quot;origRot&quot;:0}" fill="#e7cd81"/><path d="M88.04923,32.09602l-0.36148,-25.84506l5.16901,-0.0723l0.36149,25.84505z" data-paper-data="{&quot;origPos&quot;:null,&quot;origRot&quot;:0}" fill="#d3bb76"/><path d="M97.23455,31.68031l-0.36149,-25.84505l5.16901,-0.0723l0.36148,25.84505z" data-paper-data="{&quot;origPos&quot;:null,&quot;origRot&quot;:0}" fill="#d3bb76"/><path d="M109.29557,31.51164l-0.36148,-25.84506l5.169,-0.0723l0.36148,25.84505z" data-paper-data="{&quot;origPos&quot;:null,&quot;origRot&quot;:0}" fill="#d3bb76"/><path d="M99.20396,11.62374l-0.08032,-5.74333l12.92252,-0.18076l0.08033,5.74335z" data-paper-data="{&quot;origPos&quot;:null,&quot;origRot&quot;:0}" fill="#d3bb76"/><g data-paper-data="{&quot;origPos&quot;:null}" fill="#d3bb76"><path d="M118.61272,32.59277l-0.36148,-25.84506l5.169,-0.0723l0.36148,25.84505z" data-paper-data="{&quot;origPos&quot;:null,&quot;origRot&quot;:0}"/><path d="M97.64951,32.88593l-0.36148,-25.84505l5.169,-0.0723l0.36148,25.84506z" data-paper-data="{&quot;origPos&quot;:null,&quot;origRot&quot;:0}"/><path d="M109.71055,32.71724l-0.36148,-25.84505l5.169,-0.0723l0.36148,25.84505z" data-paper-data="{&quot;origPos&quot;:null,&quot;origRot&quot;:0}"/><path d="M99.03454,32.65598l-0.08032,-5.74333l12.92253,-0.18075l0.08033,5.74334z" data-paper-data="{&quot;origPos&quot;:null,&quot;origRot&quot;:0}"/></g><path d="M170.00001,223.8v-276h64v276z" data-paper-data="{&quot;origPos&quot;:null}" fill="#9e907a"/><path d="M296,223.80001v-276h64v276z" data-paper-data="{&quot;origPos&quot;:null}" fill="#9e907a"/></g></g></g></svg>