<svg version="1.1" xmlns="http://www.w3.org/2000/svg" xmlns:xlink="http://www.w3.org/1999/xlink" width="387.06649" height="311.40375" viewBox="0,0,387.06649,311.40375"><g transform="translate(-89.15501,-31.43424)"><g data-paper-data="{&quot;isPaintingLayer&quot;:true}" fill="#ffffff" fill-rule="nonzero" stroke="none" stroke-width="0" stroke-linecap="butt" stroke-linejoin="miter" stroke-miterlimit="10" stroke-dasharray="" stroke-dashoffset="0" style="mix-blend-mode: normal"><path d="M318.60364,76.07931c13.32643,12.43267 14.05097,33.31455 1.6183,46.64098c-12.43267,13.32643 -33.31455,14.05097 -46.64098,1.6183c-13.32643,-12.43267 -14.05097,-33.31455 -1.6183,-46.64098c12.43267,-13.32643 33.31455,-14.05097 46.64098,-1.6183z"/><path d="M250.54812,102.8505c14.33601,13.37454 15.11544,35.83838 1.7409,50.17439c-13.37454,14.33601 -35.83838,15.11544 -50.17439,1.7409c-14.33601,-13.37454 -15.11544,-35.83838 -1.7409,-50.17439c13.37454,-14.33601 35.83838,-15.11544 50.17439,-1.7409z"/><path d="M292.67271,62.82839c14.94176,13.93966 15.75412,37.35267 1.81446,52.29443c-13.93966,14.94176 -37.35267,15.75412 -52.29443,1.81446c-14.94176,-13.93966 -15.75412,-37.35267 -1.81446,-52.29443c13.93966,-14.94176 37.35267,-15.75412 52.29443,-1.81446z"/><path d="M235.09042,65.18009c16.35517,15.25827 17.24437,40.88604 1.9861,57.2412c-15.25827,16.35517 -40.88604,17.24437 -57.2412,1.9861c-16.35517,-15.25827 -17.24437,-40.88604 -1.9861,-57.2412c15.25827,-16.35517 40.88604,-17.24437 57.2412,-1.9861z"/><path d="M279.87193,142.51615c20.5954,19.21412 21.71514,51.48612 2.50102,72.08152c-19.21412,20.5954 -51.48612,21.71514 -72.08152,2.50102c-20.5954,-19.21412 -21.71514,-51.48612 -2.50102,-72.08152c19.21412,-20.5954 51.48612,-21.71514 72.08152,-2.50102z"/><path d="M305.11191,115.46171c14.53793,13.56291 15.32833,36.34314 1.76542,50.88107c-13.56291,14.53793 -36.34314,15.32833 -50.88107,1.76542c-14.53793,-13.56291 -15.32833,-36.34314 -1.76542,-50.88107c13.56291,-14.53793 36.34314,-15.32833 50.88107,-1.76542z"/><path d="M205.88665,130.93258c15.74942,14.69315 16.6057,39.37174 1.91254,55.12116c-14.69315,15.74942 -39.37174,16.6057 -55.12116,1.91254c-15.74942,-14.69315 -16.6057,-39.37174 -1.91254,-55.12116c14.69315,-15.74942 39.37174,-16.6057 55.12116,-1.91254z"/><path d="M216.30169,176.20704c13.12452,12.2443 13.83808,32.80978 1.59378,45.9343c-12.2443,13.12452 -32.80978,13.83808 -45.9343,1.59378c-13.12452,-12.2443 -13.83808,-32.80978 -1.59378,-45.9343c12.2443,-13.12452 32.80978,-13.83808 45.9343,-1.59378z"/><path d="M240.11038,179.27238c18.98007,17.70714 20.01199,47.44799 2.30486,66.42806c-17.70714,18.98007 -47.44799,20.01199 -66.42806,2.30486c-18.98007,-17.70714 -20.01199,-47.44799 -2.30486,-66.42806c17.70714,-18.98007 47.44799,-20.01199 66.42806,-2.30486z"/><path d="M196.58598,168.7545c17.36475,16.20014 18.30884,43.40986 2.1087,60.77461c-16.20014,17.36475 -43.40986,18.30884 -60.77461,2.1087c-17.36475,-16.20014 -18.30884,-43.40986 -2.1087,-60.77461c16.20014,-17.36475 43.40986,-18.30884 60.77461,-2.1087z"/><path d="M149.71297,224.86084c14.53793,13.56291 15.32833,36.34314 1.76542,50.88107c-13.56291,14.53793 -36.34314,15.32833 -50.88107,1.76542c-14.53793,-13.56291 -15.32833,-36.34314 -1.76542,-50.88107c13.56291,-14.53793 36.34314,-15.32833 50.88107,-1.76542z"/><path d="M214.58934,259.4015c15.74942,14.69315 16.6057,39.37174 1.91254,55.12116c-14.69315,15.74942 -39.37174,16.6057 -55.12116,1.91254c-15.74942,-14.69315 -16.6057,-39.37174 -1.91254,-55.12116c14.69315,-15.74942 39.37174,-16.6057 55.12116,-1.91254z"/><path d="M201.20923,251.02159c17.97049,16.76526 18.94752,44.92416 2.18226,62.89466c-16.76526,17.97049 -44.92416,18.94752 -62.89466,2.18226c-17.97049,-16.76526 -18.94752,-44.92416 -2.18226,-62.89466c16.76526,-17.97049 44.92416,-18.94752 62.89466,-2.18226z"/><path d="M160.8431,260.66847c-4.94294,-17.5423 5.27086,-35.7702 22.81317,-40.71314c17.5423,-4.94294 35.7702,5.27086 40.71314,22.81317c4.94294,17.5423 -5.27086,35.7702 -22.81317,40.71314c-17.5423,4.94294 -35.7702,-5.27086 -40.71314,-22.81317z"/><path d="M232.91257,273.08788c-5.31741,-18.87127 5.67017,-38.48006 24.54144,-43.79746c18.87127,-5.31741 38.48006,5.67017 43.79746,24.54144c5.31741,18.87127 -5.67017,38.48006 -24.54144,43.79746c-18.87127,5.31741 -38.48006,-5.67017 -43.79746,-24.54144z"/><path d="M176.13718,285.44933c-5.54208,-19.66864 5.90976,-40.10598 25.5784,-45.64806c19.66864,-5.54208 40.10598,5.90976 45.64806,25.5784c5.54208,19.66864 -5.90976,40.10598 -25.5784,45.64806c-19.66864,5.54208 -40.10598,-5.90976 -45.64806,-25.5784z"/><path d="M226.58456,313.3117c-6.06634,-21.52919 6.46879,-43.89979 27.99798,-49.96612c21.52919,-6.06634 43.89979,6.46879 49.96612,27.99798c6.06634,21.52919 -6.46879,43.89979 -27.99798,49.96612c-21.52919,6.06634 -43.89979,-6.46879 -49.96612,-27.99798z"/><path d="M228.42148,223.96476c-7.63909,-27.11083 8.14588,-55.28121 35.25671,-62.9203c27.11083,-7.63909 55.28121,8.14588 62.9203,35.25671c7.63909,27.11083 -8.14588,55.28121 -35.25671,62.9203c-27.11083,7.63909 -55.28121,-8.14588 -62.9203,-35.25671z"/><path d="M192.80825,233.9996c-5.3923,-19.13706 5.75003,-39.02203 24.88709,-44.41433c19.13706,-5.3923 39.02203,5.75003 44.41433,24.88709c5.3923,19.13706 -5.75003,39.02203 -24.88709,44.41433c-19.13706,5.3923 -39.02203,-5.75003 -44.41433,-24.88709z"/><path d="M285.66243,272.2501c-5.84166,-20.73181 6.2292,-42.27387 26.96101,-48.11552c20.73181,-5.84166 42.27387,6.2292 48.11552,26.96101c5.84166,20.73181 -6.2292,42.27387 -26.96101,48.11552c-20.73181,5.84166 -42.27387,-6.2292 -48.11552,-26.96101z"/><path d="M300.24629,228.14159c-4.86805,-17.27651 5.191,-35.22822 22.46751,-40.09627c17.27651,-4.86805 35.22822,5.191 40.09627,22.46751c4.86805,17.27651 -5.191,35.22822 -22.46751,40.09627c-17.27651,4.86805 -35.22822,-5.191 -40.09627,-22.46751z"/><path d="M281.48239,213.16941c-7.03995,-24.9845 7.50698,-50.94543 32.49148,-57.98538c24.9845,-7.03995 50.94543,7.50698 57.98538,32.49148c7.03995,24.9845 -7.50698,50.94543 -32.49148,57.98538c-24.9845,7.03995 -50.94543,-7.50698 -57.98538,-32.49148z"/><path d="M313.23508,244.74103c-6.4408,-22.85815 6.86809,-46.60965 29.72625,-53.05045c22.85815,-6.4408 46.60965,6.86809 53.05045,29.72625c6.4408,22.85815 -6.86809,46.60965 -29.72625,53.05045c-22.85815,6.4408 -46.60965,-6.86809 -53.05045,-29.72625z"/><path d="M382.41417,221.0925c-5.3923,-19.13706 5.75003,-39.02203 24.88709,-44.41433c19.13706,-5.3923 39.02203,5.75003 44.41433,24.88709c5.3923,19.13706 -5.75003,39.02203 -24.88709,44.41433c-19.13706,5.3923 -39.02203,-5.75003 -44.41433,-24.88709z"/><path d="M344.87027,157.90662c-5.84166,-20.73181 6.2292,-42.27387 26.96101,-48.11552c20.73181,-5.84166 42.27387,6.2292 48.11552,26.96101c5.84166,20.73181 -6.2292,42.27387 -26.96101,48.11552c-20.73181,5.84166 -42.27387,-6.2292 -48.11552,-26.96101z"/><path d="M351.96161,172.01204c-6.66548,-23.65553 7.10768,-48.23557 30.76321,-54.90105c23.65553,-6.66548 48.23557,7.10768 54.90105,30.76321c6.66548,23.65553 -7.10768,48.23557 -30.76321,54.90105c-23.65553,6.66548 -48.23557,-7.10768 -54.90105,-30.76321z"/><path d="M207.30724,45.1378c10.65847,-14.78384 31.28355,-18.12811 46.06739,-7.46964c14.78384,10.65847 18.12811,31.28355 7.46964,46.06739c-10.65847,14.78384 -31.28355,18.12811 -46.06739,7.46964c-14.78384,-10.65847 -18.12811,-31.28355 -7.46964,-46.06739z"/><path d="M242.42261,109.28732c11.46594,-15.90383 33.65351,-19.50146 49.55734,-8.03552c15.90383,11.46594 19.50146,33.65351 8.03552,49.55734c-11.46594,15.90383 -33.65351,19.50146 -49.55734,8.03552c-15.90383,-11.46594 -19.50146,-33.65351 -8.03552,-49.55734z"/><path d="M197.42177,72.52899c11.95041,-16.57582 35.07549,-20.32546 51.65132,-8.37505c16.57582,11.95041 20.32546,35.07549 8.37505,51.65132c-11.95041,16.57582 -35.07549,20.32546 -51.65132,8.37505c-16.57582,-11.95041 -20.32546,-35.07549 -8.37505,-51.65132z"/><path d="M206.99464,129.35865c13.08085,-18.1438 38.39345,-22.24814 56.53725,-9.16728c18.1438,13.08085 22.24814,38.39345 9.16728,56.53725c-13.08085,18.1438 -38.39345,22.24814 -56.53725,9.16728c-18.1438,-13.08085 -22.24814,-38.39345 -9.16728,-56.53725z"/><path d="M278.08662,75.20904c16.47219,-22.84775 48.3473,-28.01617 71.19506,-11.54398c22.84775,16.47219 28.01617,48.3473 11.54398,71.19506c-16.47219,22.84775 -48.3473,28.01617 -71.19506,11.54398c-22.84775,-16.47219 -28.01617,-48.3473 -11.54398,-71.19506z"/><path d="M248.07343,53.57091c11.62743,-16.12783 34.12751,-19.77612 50.25534,-8.1487c16.12783,11.62743 19.77612,34.12751 8.1487,50.25534c-11.62743,16.12783 -34.12751,19.77612 -50.25534,8.1487c-16.12783,-11.62743 -19.77612,-34.12751 -8.1487,-50.25534z"/><path d="M275.89714,150.06361c12.59638,-17.47181 36.97147,-21.42413 54.44328,-8.82775c17.47181,12.59638 21.42413,36.97147 8.82775,54.44328c-12.59638,17.47181 -36.97147,21.42413 -54.44328,8.82775c-17.47181,-12.59638 -21.42413,-36.97147 -8.82775,-54.44328z"/><path d="M319.50284,134.03885c10.49698,-14.55985 30.80956,-17.85344 45.3694,-7.35646c14.55985,10.49698 17.85344,30.80956 7.35646,45.3694c-10.49698,14.55985 -30.80956,17.85344 -45.3694,7.35646c-14.55985,-10.49698 -17.85344,-30.80956 -7.35646,-45.3694z"/><path d="M319.55038,110.03369c15.18025,-21.05578 44.55536,-25.81883 65.61113,-10.63857c21.05578,15.18025 25.81883,44.55536 10.63857,65.61113c-15.18025,21.05578 -44.55536,25.81883 -65.61113,10.63857c-21.05578,-15.18025 -25.81883,-44.55536 -10.63857,-65.61113z"/><path d="M314.58829,154.53513c13.88832,-19.26379 40.76341,-23.62148 60.02721,-9.73316c19.26379,13.88832 23.62148,40.76341 9.73316,60.02721c-13.88832,19.26379 -40.76341,23.62148 -60.02721,9.73316c-19.26379,-13.88832 -23.62148,-40.76341 -9.73316,-60.02721z"/><path d="M376.14275,193.98191c11.62743,-16.12783 34.12751,-19.77612 50.25534,-8.1487c16.12783,11.62743 19.77612,34.12751 8.1487,50.25534c-11.62743,16.12783 -34.12751,19.77612 -50.25534,8.1487c-16.12783,-11.62743 -19.77612,-34.12751 -8.1487,-50.25534z"/><path d="M402.2524,125.27757c12.59638,-17.47181 36.97147,-21.42413 54.44328,-8.82775c17.47181,12.59638 21.42413,36.97147 8.82775,54.44328c-12.59638,17.47181 -36.97147,21.42413 -54.44328,8.82775c-17.47181,-12.59638 -21.42413,-36.97147 -8.82775,-54.44328z"/><path d="M395.62128,139.60511c14.37279,-19.93579 42.18539,-24.44548 62.12118,-10.07269c19.93579,14.37279 24.44548,42.18539 10.07269,62.12118c-14.37279,19.93579 -42.18539,24.44548 -62.12118,10.07269c-19.93579,-14.37279 -24.44548,-42.18539 -10.07269,-62.12118z"/></g></g></svg>