<svg version="1.1" xmlns="http://www.w3.org/2000/svg" xmlns:xlink="http://www.w3.org/1999/xlink" width="412" height="299" viewBox="0,0,412,299"><g transform="translate(-2.125,23)"><g data-paper-data="{&quot;isPaintingLayer&quot;:true}" fill="#ffffff" fill-rule="nonzero" stroke="none" stroke-width="0" stroke-linecap="butt" stroke-linejoin="miter" stroke-miterlimit="10" stroke-dasharray="" stroke-dashoffset="0" style="mix-blend-mode: normal"><path d="M99.125,167c0,-18.22539 14.77461,-33 33,-33c18.22539,0 33,14.77461 33,33c0,18.22539 -14.77461,33 -33,33c-18.22539,0 -33,-14.77461 -33,-33z"/><path d="M165.125,198.5c0,-19.60611 15.89389,-35.5 35.5,-35.5c19.60611,0 35.5,15.89389 35.5,35.5c0,19.60611 -15.89389,35.5 -35.5,35.5c-19.60611,0 -35.5,-15.89389 -35.5,-35.5z"/><path d="M107.125,195c0,-20.43454 16.56547,-37 37,-37c20.43453,0 37,16.56546 37,37c0,20.43454 -16.56547,37 -37,37c-20.43453,0 -37,-16.56546 -37,-37z"/><path d="M148.125,235.5c0,-22.36753 18.13247,-40.5 40.5,-40.5c22.36753,0 40.5,18.13247 40.5,40.5c0,22.36753 -18.13247,40.5 -40.5,40.5c-22.36753,0 -40.5,-18.13247 -40.5,-40.5z"/><path d="M174.125,150c0,-28.16652 22.83348,-51 51,-51c28.16652,0 51,22.83348 51,51c0,28.16652 -22.83348,51 -51,51c-28.16652,0 -51,-22.83348 -51,-51z"/><path d="M137.125,150c0,-19.88225 16.11775,-36 36,-36c19.88225,0 36,16.11775 36,36c0,19.88225 -16.11775,36 -36,36c-19.88225,0 -36,-16.11775 -36,-36z"/><path d="M216.125,212c0,-21.53911 17.46089,-39 39,-39c21.53911,0 39,17.46089 39,39c0,21.53911 -17.46089,39 -39,39c-21.53911,0 -39,-17.46089 -39,-39z"/><path d="M242.125,173.5c0,-17.94925 14.55075,-32.5 32.5,-32.5c17.94925,0 32.5,14.55075 32.5,32.5c0,17.94925 -14.55075,32.5 -32.5,32.5c-17.94925,0 -32.5,-14.55075 -32.5,-32.5z"/><path d="M228.125,154c0,-25.95738 21.04262,-47 47,-47c25.95738,0 47,21.04262 47,47c0,25.95738 -21.04262,47 -47,47c-25.95738,0 -47,-21.04262 -47,-47z"/><path d="M250.125,193c0,-23.74824 19.25176,-43 43,-43c23.74824,0 43,19.25176 43,43c0,23.74824 -19.25176,43 -43,43c-23.74824,0 -43,-19.25176 -43,-43z"/><path d="M323.125,189c0,-19.88225 16.11775,-36 36,-36c19.88225,0 36,16.11775 36,36c0,19.88225 -16.11775,36 -36,36c-19.88225,0 -36,-16.11775 -36,-36z"/><path d="M304.125,118c0,-21.53911 17.46089,-39 39,-39c21.53911,0 39,17.46089 39,39c0,21.53911 -17.46089,39 -39,39c-21.53911,0 -39,-17.46089 -39,-39z"/><path d="M307.125,133.5c0,-24.57667 19.92333,-44.5 44.5,-44.5c24.57667,0 44.5,19.92333 44.5,44.5c0,24.57667 -19.92333,44.5 -44.5,44.5c-24.57667,0 -44.5,-19.92333 -44.5,-44.5z"/><path d="M2.125,122c0,-18.22539 14.77461,-33 33,-33c18.22539,0 33,14.77461 33,33c0,18.22539 -14.77461,33 -33,33c-18.22539,0 -33,-14.77461 -33,-33z"/><path d="M68.125,153.5c0,-19.60611 15.89389,-35.5 35.5,-35.5c19.60611,0 35.5,15.89389 35.5,35.5c0,19.60611 -15.89389,35.5 -35.5,35.5c-19.60611,0 -35.5,-15.89389 -35.5,-35.5z"/><path d="M10.125,150c0,-20.43454 16.56547,-37 37,-37c20.43453,0 37,16.56546 37,37c0,20.43454 -16.56547,37 -37,37c-20.43453,0 -37,-16.56546 -37,-37z"/><path d="M51.125,190.5c0,-22.36753 18.13247,-40.5 40.5,-40.5c22.36753,0 40.5,18.13247 40.5,40.5c0,22.36753 -18.13247,40.5 -40.5,40.5c-22.36753,0 -40.5,-18.13247 -40.5,-40.5z"/><path d="M77.125,105c0,-28.16652 22.83348,-51 51,-51c28.16652,0 51,22.83348 51,51c0,28.16652 -22.83348,51 -51,51c-28.16652,0 -51,-22.83348 -51,-51z"/><path d="M40.125,105c0,-19.88225 16.11775,-36 36,-36c19.88225,0 36,16.11775 36,36c0,19.88225 -16.11775,36 -36,36c-19.88225,0 -36,-16.11775 -36,-36z"/><path d="M119.125,167c0,-21.53911 17.46089,-39 39,-39c21.53911,0 39,17.46089 39,39c0,21.53911 -17.46089,39 -39,39c-21.53911,0 -39,-17.46089 -39,-39z"/><path d="M145.125,128.5c0,-17.94925 14.55075,-32.5 32.5,-32.5c17.94925,0 32.5,14.55075 32.5,32.5c0,17.94925 -14.55075,32.5 -32.5,32.5c-17.94925,0 -32.5,-14.55075 -32.5,-32.5z"/><path d="M131.125,109c0,-25.95738 21.04262,-47 47,-47c25.95738,0 47,21.04262 47,47c0,25.95738 -21.04262,47 -47,47c-25.95738,0 -47,-21.04262 -47,-47z"/><path d="M153.125,148c0,-23.74824 19.25176,-43 43,-43c23.74824,0 43,19.25176 43,43c0,23.74824 -19.25176,43 -43,43c-23.74824,0 -43,-19.25176 -43,-43z"/><path d="M226.125,144c0,-19.88225 16.11775,-36 36,-36c19.88225,0 36,16.11775 36,36c0,19.88225 -16.11775,36 -36,36c-19.88225,0 -36,-16.11775 -36,-36z"/><path d="M207.125,73c0,-21.53911 17.46089,-39 39,-39c21.53911,0 39,17.46089 39,39c0,21.53911 -17.46089,39 -39,39c-21.53911,0 -39,-17.46089 -39,-39z"/><path d="M210.125,88.5c0,-24.57667 19.92333,-44.5 44.5,-44.5c24.57667,0 44.5,19.92333 44.5,44.5c0,24.57667 -19.92333,44.5 -44.5,44.5c-24.57667,0 -44.5,-19.92333 -44.5,-44.5z"/><path d="M117.125,65c0,-18.22539 14.77461,-33 33,-33c18.22539,0 33,14.77461 33,33c0,18.22539 -14.77461,33 -33,33c-18.22539,0 -33,-14.77461 -33,-33z"/><path d="M183.125,96.5c0,-19.60611 15.89389,-35.5 35.5,-35.5c19.60611,0 35.5,15.89389 35.5,35.5c0,19.60611 -15.89389,35.5 -35.5,35.5c-19.60611,0 -35.5,-15.89389 -35.5,-35.5z"/><path d="M125.125,93c0,-20.43454 16.56547,-37 37,-37c20.43453,0 37,16.56546 37,37c0,20.43454 -16.56547,37 -37,37c-20.43453,0 -37,-16.56546 -37,-37z"/><path d="M166.125,133.5c0,-22.36753 18.13247,-40.5 40.5,-40.5c22.36753,0 40.5,18.13247 40.5,40.5c0,22.36753 -18.13247,40.5 -40.5,40.5c-22.36753,0 -40.5,-18.13247 -40.5,-40.5z"/><path d="M192.125,48c0,-28.16652 22.83348,-51 51,-51c28.16652,0 51,22.83348 51,51c0,28.16652 -22.83348,51 -51,51c-28.16652,0 -51,-22.83348 -51,-51z"/><path d="M155.125,48c0,-19.88225 16.11775,-36 36,-36c19.88225,0 36,16.11775 36,36c0,19.88225 -16.11775,36 -36,36c-19.88225,0 -36,-16.11775 -36,-36z"/><path d="M234.125,110c0,-21.53911 17.46089,-39 39,-39c21.53911,0 39,17.46089 39,39c0,21.53911 -17.46089,39 -39,39c-21.53911,0 -39,-17.46089 -39,-39z"/><path d="M260.125,71.5c0,-17.94925 14.55075,-32.5 32.5,-32.5c17.94925,0 32.5,14.55075 32.5,32.5c0,17.94925 -14.55075,32.5 -32.5,32.5c-17.94925,0 -32.5,-14.55075 -32.5,-32.5z"/><path d="M246.125,52c0,-25.95738 21.04262,-47 47,-47c25.95738,0 47,21.04262 47,47c0,25.95738 -21.04262,47 -47,47c-25.95738,0 -47,-21.04262 -47,-47z"/><path d="M268.125,91c0,-23.74824 19.25176,-43 43,-43c23.74824,0 43,19.25176 43,43c0,23.74824 -19.25176,43 -43,43c-23.74824,0 -43,-19.25176 -43,-43z"/><path d="M341.125,87c0,-19.88225 16.11775,-36 36,-36c19.88225,0 36,16.11775 36,36c0,19.88225 -16.11775,36 -36,36c-19.88225,0 -36,-16.11775 -36,-36z"/><path d="M322.125,16c0,-21.53911 17.46089,-39 39,-39c21.53911,0 39,17.46089 39,39c0,21.53911 -17.46089,39 -39,39c-21.53911,0 -39,-17.46089 -39,-39z"/><path d="M325.125,31.5c0,-24.57667 19.92333,-44.5 44.5,-44.5c24.57667,0 44.5,19.92333 44.5,44.5c0,24.57667 -19.92333,44.5 -44.5,44.5c-24.57667,0 -44.5,-19.92333 -44.5,-44.5z"/></g></g></svg>