<svg version="1.1" xmlns="http://www.w3.org/2000/svg" xmlns:xlink="http://www.w3.org/1999/xlink" width="389" height="321" viewBox="0,0,389,321"><g transform="translate(-61.125,-2)"><g data-paper-data="{&quot;isPaintingLayer&quot;:true}" fill="#ffffff" fill-rule="nonzero" stroke="none" stroke-width="0" stroke-linecap="butt" stroke-linejoin="miter" stroke-miterlimit="10" stroke-dasharray="" stroke-dashoffset="0" style="mix-blend-mode: normal"><path d="M61.125,167c0,-18.22539 14.77461,-33 33,-33c18.22539,0 33,14.77461 33,33c0,18.22539 -14.77461,33 -33,33c-18.22539,0 -33,-14.77461 -33,-33z"/><path d="M127.125,198.5c0,-19.60611 15.89389,-35.5 35.5,-35.5c19.60611,0 35.5,15.89389 35.5,35.5c0,19.60611 -15.89389,35.5 -35.5,35.5c-19.60611,0 -35.5,-15.89389 -35.5,-35.5z"/><path d="M69.125,195c0,-20.43454 16.56547,-37 37,-37c20.43453,0 37,16.56546 37,37c0,20.43454 -16.56547,37 -37,37c-20.43453,0 -37,-16.56546 -37,-37z"/><path d="M110.125,235.5c0,-22.36753 18.13247,-40.5 40.5,-40.5c22.36753,0 40.5,18.13247 40.5,40.5c0,22.36753 -18.13247,40.5 -40.5,40.5c-22.36753,0 -40.5,-18.13247 -40.5,-40.5z"/><path d="M136.125,150c0,-28.16652 22.83348,-51 51,-51c28.16652,0 51,22.83348 51,51c0,28.16652 -22.83348,51 -51,51c-28.16652,0 -51,-22.83348 -51,-51z"/><path d="M99.125,150c0,-19.88225 16.11775,-36 36,-36c19.88225,0 36,16.11775 36,36c0,19.88225 -16.11775,36 -36,36c-19.88225,0 -36,-16.11775 -36,-36z"/><path d="M178.125,212c0,-21.53911 17.46089,-39 39,-39c21.53911,0 39,17.46089 39,39c0,21.53911 -17.46089,39 -39,39c-21.53911,0 -39,-17.46089 -39,-39z"/><path d="M204.125,173.5c0,-17.94925 14.55075,-32.5 32.5,-32.5c17.94925,0 32.5,14.55075 32.5,32.5c0,17.94925 -14.55075,32.5 -32.5,32.5c-17.94925,0 -32.5,-14.55075 -32.5,-32.5z"/><path d="M190.125,154c0,-25.95738 21.04262,-47 47,-47c25.95738,0 47,21.04262 47,47c0,25.95738 -21.04262,47 -47,47c-25.95738,0 -47,-21.04262 -47,-47z"/><path d="M212.125,193c0,-23.74824 19.25176,-43 43,-43c23.74824,0 43,19.25176 43,43c0,23.74824 -19.25176,43 -43,43c-23.74824,0 -43,-19.25176 -43,-43z"/><path d="M285.125,189c0,-19.88225 16.11775,-36 36,-36c19.88225,0 36,16.11775 36,36c0,19.88225 -16.11775,36 -36,36c-19.88225,0 -36,-16.11775 -36,-36z"/><path d="M266.125,118c0,-21.53911 17.46089,-39 39,-39c21.53911,0 39,17.46089 39,39c0,21.53911 -17.46089,39 -39,39c-21.53911,0 -39,-17.46089 -39,-39z"/><path d="M269.125,133.5c0,-24.57667 19.92333,-44.5 44.5,-44.5c24.57667,0 44.5,19.92333 44.5,44.5c0,24.57667 -19.92333,44.5 -44.5,44.5c-24.57667,0 -44.5,-19.92333 -44.5,-44.5z"/><path d="M146.125,214c0,-18.22539 14.77461,-33 33,-33c18.22539,0 33,14.77461 33,33c0,18.22539 -14.77461,33 -33,33c-18.22539,0 -33,-14.77461 -33,-33z"/><path d="M212.125,245.5c0,-19.60611 15.89389,-35.5 35.5,-35.5c19.60611,0 35.5,15.89389 35.5,35.5c0,19.60611 -15.89389,35.5 -35.5,35.5c-19.60611,0 -35.5,-15.89389 -35.5,-35.5z"/><path d="M154.125,242c0,-20.43454 16.56547,-37 37,-37c20.43453,0 37,16.56546 37,37c0,20.43453 -16.56547,37 -37,37c-20.43453,0 -37,-16.56547 -37,-37z"/><path d="M195.125,282.5c0,-22.36753 18.13247,-40.5 40.5,-40.5c22.36753,0 40.5,18.13247 40.5,40.5c0,22.36753 -18.13247,40.5 -40.5,40.5c-22.36753,0 -40.5,-18.13247 -40.5,-40.5z"/><path d="M221.125,197c0,-28.16652 22.83348,-51 51,-51c28.16652,0 51,22.83348 51,51c0,28.16652 -22.83348,51 -51,51c-28.16652,0 -51,-22.83348 -51,-51z"/><path d="M184.125,197c0,-19.88225 16.11775,-36 36,-36c19.88225,0 36,16.11775 36,36c0,19.88225 -16.11775,36 -36,36c-19.88225,0 -36,-16.11775 -36,-36z"/><path d="M263.125,259c0,-21.53911 17.46089,-39 39,-39c21.53911,0 39,17.46089 39,39c0,21.53911 -17.46089,39 -39,39c-21.53911,0 -39,-17.46089 -39,-39z"/><path d="M289.125,220.5c0,-17.94925 14.55075,-32.5 32.5,-32.5c17.94925,0 32.5,14.55075 32.5,32.5c0,17.94925 -14.55075,32.5 -32.5,32.5c-17.94925,0 -32.5,-14.55075 -32.5,-32.5z"/><path d="M275.125,201c0,-25.95738 21.04262,-47 47,-47c25.95738,0 47,21.04262 47,47c0,25.95738 -21.04262,47 -47,47c-25.95738,0 -47,-21.04262 -47,-47z"/><path d="M297.125,240c0,-23.74824 19.25176,-43 43,-43c23.74824,0 43,19.25176 43,43c0,23.74824 -19.25176,43 -43,43c-23.74824,0 -43,-19.25176 -43,-43z"/><path d="M370.125,236c0,-19.88225 16.11775,-36 36,-36c19.88225,0 36,16.11775 36,36c0,19.88225 -16.11775,36 -36,36c-19.88225,0 -36,-16.11775 -36,-36z"/><path d="M351.125,165c0,-21.53911 17.46089,-39 39,-39c21.53911,0 39,17.46089 39,39c0,21.53911 -17.46089,39 -39,39c-21.53911,0 -39,-17.46089 -39,-39z"/><path d="M354.125,180.5c0,-24.57667 19.92333,-44.5 44.5,-44.5c24.57667,0 44.5,19.92333 44.5,44.5c0,24.57667 -19.92333,44.5 -44.5,44.5c-24.57667,0 -44.5,-19.92333 -44.5,-44.5z"/><path d="M153.125,90c0,-18.22539 14.77461,-33 33,-33c18.22539,0 33,14.77461 33,33c0,18.22539 -14.77461,33 -33,33c-18.22539,0 -33,-14.77461 -33,-33z"/><path d="M219.125,121.5c0,-19.60611 15.89389,-35.5 35.5,-35.5c19.60611,0 35.5,15.89389 35.5,35.5c0,19.60611 -15.89389,35.5 -35.5,35.5c-19.60611,0 -35.5,-15.89389 -35.5,-35.5z"/><path d="M161.125,118c0,-20.43454 16.56547,-37 37,-37c20.43453,0 37,16.56546 37,37c0,20.43454 -16.56547,37 -37,37c-20.43453,0 -37,-16.56546 -37,-37z"/><path d="M202.125,158.5c0,-22.36753 18.13247,-40.5 40.5,-40.5c22.36753,0 40.5,18.13247 40.5,40.5c0,22.36753 -18.13247,40.5 -40.5,40.5c-22.36753,0 -40.5,-18.13247 -40.5,-40.5z"/><path d="M228.125,73c0,-28.16652 22.83348,-51 51,-51c28.16652,0 51,22.83348 51,51c0,28.16652 -22.83348,51 -51,51c-28.16652,0 -51,-22.83348 -51,-51z"/><path d="M191.125,73c0,-19.88225 16.11775,-36 36,-36c19.88225,0 36,16.11775 36,36c0,19.88225 -16.11775,36 -36,36c-19.88225,0 -36,-16.11775 -36,-36z"/><path d="M270.125,135c0,-21.53911 17.46089,-39 39,-39c21.53911,0 39,17.46089 39,39c0,21.53911 -17.46089,39 -39,39c-21.53911,0 -39,-17.46089 -39,-39z"/><path d="M296.125,96.5c0,-17.94925 14.55075,-32.5 32.5,-32.5c17.94925,0 32.5,14.55075 32.5,32.5c0,17.94925 -14.55075,32.5 -32.5,32.5c-17.94925,0 -32.5,-14.55075 -32.5,-32.5z"/><path d="M282.125,77c0,-25.95738 21.04262,-47 47,-47c25.95738,0 47,21.04262 47,47c0,25.95738 -21.04262,47 -47,47c-25.95738,0 -47,-21.04262 -47,-47z"/><path d="M304.125,116c0,-23.74824 19.25176,-43 43,-43c23.74824,0 43,19.25176 43,43c0,23.74824 -19.25176,43 -43,43c-23.74824,0 -43,-19.25176 -43,-43z"/><path d="M377.125,112c0,-19.88225 16.11775,-36 36,-36c19.88225,0 36,16.11775 36,36c0,19.88225 -16.11775,36 -36,36c-19.88225,0 -36,-16.11775 -36,-36z"/><path d="M358.125,41c0,-21.53911 17.46089,-39 39,-39c21.53911,0 39,17.46089 39,39c0,21.53911 -17.46089,39 -39,39c-21.53911,0 -39,-17.46089 -39,-39z"/><path d="M361.125,56.5c0,-24.57667 19.92333,-44.5 44.5,-44.5c24.57667,0 44.5,19.92333 44.5,44.5c0,24.57667 -19.92333,44.5 -44.5,44.5c-24.57667,0 -44.5,-19.92333 -44.5,-44.5z"/></g></g></svg>