<svg version="1.1" xmlns="http://www.w3.org/2000/svg" xmlns:xlink="http://www.w3.org/1999/xlink" width="549" height="319" viewBox="0,0,549,319"><g transform="translate(55.875,-26)"><g data-paper-data="{&quot;isPaintingLayer&quot;:true}" fill="#ffffff" fill-rule="nonzero" stroke="none" stroke-width="0" stroke-linecap="butt" stroke-linejoin="miter" stroke-miterlimit="10" stroke-dasharray="" stroke-dashoffset="0" style="mix-blend-mode: normal"><path d="M-55.875,163c0,-18.2254 14.7746,-33 33,-33c18.2254,0 33,14.7746 33,33c0,18.2254 -14.7746,33 -33,33c-18.2254,0 -33,-14.7746 -33,-33z"/><path d="M10.125,194.5c0,-19.60611 15.89389,-35.5 35.5,-35.5c19.60611,0 35.5,15.89389 35.5,35.5c0,19.60611 -15.89389,35.5 -35.5,35.5c-19.60611,0 -35.5,-15.89389 -35.5,-35.5z"/><path d="M-47.875,191c0,-20.43454 16.56546,-37 37,-37c20.43454,0 37,16.56546 37,37c0,20.43454 -16.56546,37 -37,37c-20.43454,0 -37,-16.56546 -37,-37z"/><path d="M-6.875,231.5c0,-22.36753 18.13247,-40.5 40.5,-40.5c22.36753,0 40.5,18.13247 40.5,40.5c0,22.36753 -18.13247,40.5 -40.5,40.5c-22.36753,0 -40.5,-18.13247 -40.5,-40.5z"/><path d="M19.125,146c0,-28.16652 22.83348,-51 51,-51c28.16652,0 51,22.83348 51,51c0,28.16652 -22.83348,51 -51,51c-28.16652,0 -51,-22.83348 -51,-51z"/><path d="M-17.875,146c0,-19.88225 16.11775,-36 36,-36c19.88225,0 36,16.11775 36,36c0,19.88225 -16.11775,36 -36,36c-19.88225,0 -36,-16.11775 -36,-36z"/><path d="M61.125,208c0,-21.53911 17.46089,-39 39,-39c21.53911,0 39,17.46089 39,39c0,21.53911 -17.46089,39 -39,39c-21.53911,0 -39,-17.46089 -39,-39z"/><path d="M87.125,169.5c0,-17.94925 14.55075,-32.5 32.5,-32.5c17.94925,0 32.5,14.55075 32.5,32.5c0,17.94925 -14.55075,32.5 -32.5,32.5c-17.94925,0 -32.5,-14.55075 -32.5,-32.5z"/><path d="M73.125,150c0,-25.95738 21.04262,-47 47,-47c25.95738,0 47,21.04262 47,47c0,25.95738 -21.04262,47 -47,47c-25.95738,0 -47,-21.04262 -47,-47z"/><path d="M95.125,189c0,-23.74824 19.25176,-43 43,-43c23.74824,0 43,19.25176 43,43c0,23.74824 -19.25176,43 -43,43c-23.74824,0 -43,-19.25176 -43,-43z"/><path d="M168.125,185c0,-19.88225 16.11775,-36 36,-36c19.88225,0 36,16.11775 36,36c0,19.88225 -16.11775,36 -36,36c-19.88225,0 -36,-16.11775 -36,-36z"/><path d="M149.125,114c0,-21.53911 17.46089,-39 39,-39c21.53911,0 39,17.46089 39,39c0,21.53911 -17.46089,39 -39,39c-21.53911,0 -39,-17.46089 -39,-39z"/><path d="M152.125,129.5c0,-24.57667 19.92333,-44.5 44.5,-44.5c24.57667,0 44.5,19.92333 44.5,44.5c0,24.57667 -19.92333,44.5 -44.5,44.5c-24.57667,0 -44.5,-19.92333 -44.5,-44.5z"/><path d="M185.125,114c0,-18.22539 14.77461,-33 33,-33c18.22539,0 33,14.77461 33,33c0,18.22539 -14.77461,33 -33,33c-18.22539,0 -33,-14.77461 -33,-33z"/><path d="M251.125,145.5c0,-19.60611 15.89389,-35.5 35.5,-35.5c19.60611,0 35.5,15.89389 35.5,35.5c0,19.60611 -15.89389,35.5 -35.5,35.5c-19.60611,0 -35.5,-15.89389 -35.5,-35.5z"/><path d="M193.125,142c0,-20.43454 16.56547,-37 37,-37c20.43453,0 37,16.56546 37,37c0,20.43454 -16.56547,37 -37,37c-20.43453,0 -37,-16.56546 -37,-37z"/><path d="M234.125,182.5c0,-22.36753 18.13247,-40.5 40.5,-40.5c22.36753,0 40.5,18.13247 40.5,40.5c0,22.36753 -18.13247,40.5 -40.5,40.5c-22.36753,0 -40.5,-18.13247 -40.5,-40.5z"/><path d="M260.125,97c0,-28.16652 22.83348,-51 51,-51c28.16652,0 51,22.83348 51,51c0,28.16652 -22.83348,51 -51,51c-28.16652,0 -51,-22.83348 -51,-51z"/><path d="M223.125,97c0,-19.88225 16.11775,-36 36,-36c19.88225,0 36,16.11775 36,36c0,19.88225 -16.11775,36 -36,36c-19.88225,0 -36,-16.11775 -36,-36z"/><path d="M302.125,159c0,-21.53911 17.46089,-39 39,-39c21.53911,0 39,17.46089 39,39c0,21.53911 -17.46089,39 -39,39c-21.53911,0 -39,-17.46089 -39,-39z"/><path d="M328.125,120.5c0,-17.94925 14.55075,-32.5 32.5,-32.5c17.94925,0 32.5,14.55075 32.5,32.5c0,17.94925 -14.55075,32.5 -32.5,32.5c-17.94925,0 -32.5,-14.55075 -32.5,-32.5z"/><path d="M314.125,101c0,-25.95738 21.04262,-47 47,-47c25.95738,0 47,21.04262 47,47c0,25.95738 -21.04262,47 -47,47c-25.95738,0 -47,-21.04262 -47,-47z"/><path d="M336.125,140c0,-23.74824 19.25176,-43 43,-43c23.74824,0 43,19.25176 43,43c0,23.74824 -19.25176,43 -43,43c-23.74824,0 -43,-19.25176 -43,-43z"/><path d="M409.125,136c0,-19.88225 16.11775,-36 36,-36c19.88225,0 36,16.11775 36,36c0,19.88225 -16.11775,36 -36,36c-19.88225,0 -36,-16.11775 -36,-36z"/><path d="M390.125,65c0,-21.53911 17.46089,-39 39,-39c21.53911,0 39,17.46089 39,39c0,21.53911 -17.46089,39 -39,39c-21.53911,0 -39,-17.46089 -39,-39z"/><path d="M393.125,80.5c0,-24.57667 19.92333,-44.5 44.5,-44.5c24.57667,0 44.5,19.92333 44.5,44.5c0,24.57667 -19.92333,44.5 -44.5,44.5c-24.57667,0 -44.5,-19.92333 -44.5,-44.5z"/><path d="M196.125,201c0,-18.22539 14.77461,-33 33,-33c18.22539,0 33,14.77461 33,33c0,18.22539 -14.77461,33 -33,33c-18.22539,0 -33,-14.77461 -33,-33z"/><path d="M262.125,232.5c0,-19.60611 15.89389,-35.5 35.5,-35.5c19.60611,0 35.5,15.89389 35.5,35.5c0,19.60611 -15.89389,35.5 -35.5,35.5c-19.60611,0 -35.5,-15.89389 -35.5,-35.5z"/><path d="M204.125,229c0,-20.43454 16.56547,-37 37,-37c20.43453,0 37,16.56546 37,37c0,20.43453 -16.56547,37 -37,37c-20.43453,0 -37,-16.56547 -37,-37z"/><path d="M245.125,269.5c0,-22.36753 18.13247,-40.5 40.5,-40.5c22.36753,0 40.5,18.13247 40.5,40.5c0,22.36753 -18.13247,40.5 -40.5,40.5c-22.36753,0 -40.5,-18.13247 -40.5,-40.5z"/><path d="M271.125,184c0,-28.16652 22.83348,-51 51,-51c28.16652,0 51,22.83348 51,51c0,28.16652 -22.83348,51 -51,51c-28.16652,0 -51,-22.83348 -51,-51z"/><path d="M234.125,184c0,-19.88225 16.11775,-36 36,-36c19.88225,0 36,16.11775 36,36c0,19.88225 -16.11775,36 -36,36c-19.88225,0 -36,-16.11775 -36,-36z"/><path d="M313.125,246c0,-21.53911 17.46089,-39 39,-39c21.53911,0 39,17.46089 39,39c0,21.53911 -17.46089,39 -39,39c-21.53911,0 -39,-17.46089 -39,-39z"/><path d="M339.125,207.5c0,-17.94925 14.55075,-32.5 32.5,-32.5c17.94925,0 32.5,14.55075 32.5,32.5c0,17.94925 -14.55075,32.5 -32.5,32.5c-17.94925,0 -32.5,-14.55075 -32.5,-32.5z"/><path d="M325.125,188c0,-25.95738 21.04262,-47 47,-47c25.95738,0 47,21.04262 47,47c0,25.95738 -21.04262,47 -47,47c-25.95738,0 -47,-21.04262 -47,-47z"/><path d="M347.125,227c0,-23.74824 19.25176,-43 43,-43c23.74824,0 43,19.25176 43,43c0,23.74824 -19.25176,43 -43,43c-23.74824,0 -43,-19.25176 -43,-43z"/><path d="M420.125,223c0,-19.88225 16.11775,-36 36,-36c19.88225,0 36,16.11775 36,36c0,19.88225 -16.11775,36 -36,36c-19.88225,0 -36,-16.11775 -36,-36z"/><path d="M401.125,152c0,-21.53911 17.46089,-39 39,-39c21.53911,0 39,17.46089 39,39c0,21.53911 -17.46089,39 -39,39c-21.53911,0 -39,-17.46089 -39,-39z"/><path d="M404.125,167.5c0,-24.57667 19.92333,-44.5 44.5,-44.5c24.57667,0 44.5,19.92333 44.5,44.5c0,24.57667 -19.92333,44.5 -44.5,44.5c-24.57667,0 -44.5,-19.92333 -44.5,-44.5z"/><path d="M109.125,195c0,-18.22539 14.77461,-33 33,-33c18.22539,0 33,14.77461 33,33c0,18.22539 -14.77461,33 -33,33c-18.22539,0 -33,-14.77461 -33,-33z"/><path d="M175.125,226.5c0,-19.60611 15.89389,-35.5 35.5,-35.5c19.60611,0 35.5,15.89389 35.5,35.5c0,19.60611 -15.89389,35.5 -35.5,35.5c-19.60611,0 -35.5,-15.89389 -35.5,-35.5z"/><path d="M117.125,223c0,-20.43454 16.56547,-37 37,-37c20.43453,0 37,16.56546 37,37c0,20.43454 -16.56547,37 -37,37c-20.43453,0 -37,-16.56546 -37,-37z"/><path d="M158.125,263.5c0,-22.36753 18.13247,-40.5 40.5,-40.5c22.36753,0 40.5,18.13247 40.5,40.5c0,22.36753 -18.13247,40.5 -40.5,40.5c-22.36753,0 -40.5,-18.13247 -40.5,-40.5z"/><path d="M184.125,178c0,-28.16652 22.83348,-51 51,-51c28.16652,0 51,22.83348 51,51c0,28.16652 -22.83348,51 -51,51c-28.16652,0 -51,-22.83348 -51,-51z"/><path d="M147.125,178c0,-19.88225 16.11775,-36 36,-36c19.88225,0 36,16.11775 36,36c0,19.88225 -16.11775,36 -36,36c-19.88225,0 -36,-16.11775 -36,-36z"/><path d="M226.125,240c0,-21.53911 17.46089,-39 39,-39c21.53911,0 39,17.46089 39,39c0,21.53911 -17.46089,39 -39,39c-21.53911,0 -39,-17.46089 -39,-39z"/><path d="M252.125,201.5c0,-17.94925 14.55075,-32.5 32.5,-32.5c17.94925,0 32.5,14.55075 32.5,32.5c0,17.94925 -14.55075,32.5 -32.5,32.5c-17.94925,0 -32.5,-14.55075 -32.5,-32.5z"/><path d="M238.125,182c0,-25.95738 21.04262,-47 47,-47c25.95738,0 47,21.04262 47,47c0,25.95738 -21.04262,47 -47,47c-25.95738,0 -47,-21.04262 -47,-47z"/><path d="M260.125,221c0,-23.74824 19.25176,-43 43,-43c23.74824,0 43,19.25176 43,43c0,23.74824 -19.25176,43 -43,43c-23.74824,0 -43,-19.25176 -43,-43z"/><path d="M333.125,217c0,-19.88225 16.11775,-36 36,-36c19.88225,0 36,16.11775 36,36c0,19.88225 -16.11775,36 -36,36c-19.88225,0 -36,-16.11775 -36,-36z"/><path d="M314.125,146c0,-21.53911 17.46089,-39 39,-39c21.53911,0 39,17.46089 39,39c0,21.53911 -17.46089,39 -39,39c-21.53911,0 -39,-17.46089 -39,-39z"/><path d="M317.125,161.5c0,-24.57667 19.92333,-44.5 44.5,-44.5c24.57667,0 44.5,19.92333 44.5,44.5c0,24.57667 -19.92333,44.5 -44.5,44.5c-24.57667,0 -44.5,-19.92333 -44.5,-44.5z"/><path d="M6.125,236c0,-18.22539 14.77461,-33 33,-33c18.22539,0 33,14.77461 33,33c0,18.22539 -14.77461,33 -33,33c-18.22539,0 -33,-14.77461 -33,-33z"/><path d="M72.125,267.5c0,-19.60611 15.89389,-35.5 35.5,-35.5c19.60611,0 35.5,15.89389 35.5,35.5c0,19.60611 -15.89389,35.5 -35.5,35.5c-19.60611,0 -35.5,-15.89389 -35.5,-35.5z"/><path d="M14.125,264c0,-20.43454 16.56547,-37 37,-37c20.43453,0 37,16.56546 37,37c0,20.43453 -16.56547,37 -37,37c-20.43453,0 -37,-16.56547 -37,-37z"/><path d="M55.125,304.5c0,-22.36753 18.13247,-40.5 40.5,-40.5c22.36753,0 40.5,18.13247 40.5,40.5c0,22.36753 -18.13247,40.5 -40.5,40.5c-22.36753,0 -40.5,-18.13247 -40.5,-40.5z"/><path d="M81.125,219c0,-28.16652 22.83348,-51 51,-51c28.16652,0 51,22.83348 51,51c0,28.16652 -22.83348,51 -51,51c-28.16652,0 -51,-22.83348 -51,-51z"/><path d="M44.125,219c0,-19.88225 16.11775,-36 36,-36c19.88225,0 36,16.11775 36,36c0,19.88225 -16.11775,36 -36,36c-19.88225,0 -36,-16.11775 -36,-36z"/><path d="M123.125,281c0,-21.53911 17.46089,-39 39,-39c21.53911,0 39,17.46089 39,39c0,21.53911 -17.46089,39 -39,39c-21.53911,0 -39,-17.46089 -39,-39z"/><path d="M149.125,242.5c0,-17.94925 14.55075,-32.5 32.5,-32.5c17.94925,0 32.5,14.55075 32.5,32.5c0,17.94925 -14.55075,32.5 -32.5,32.5c-17.94925,0 -32.5,-14.55075 -32.5,-32.5z"/><path d="M135.125,223c0,-25.95738 21.04262,-47 47,-47c25.95738,0 47,21.04262 47,47c0,25.95738 -21.04262,47 -47,47c-25.95738,0 -47,-21.04262 -47,-47z"/><path d="M157.125,262c0,-23.74824 19.25176,-43 43,-43c23.74824,0 43,19.25176 43,43c0,23.74824 -19.25176,43 -43,43c-23.74824,0 -43,-19.25176 -43,-43z"/><path d="M230.125,258c0,-19.88225 16.11775,-36 36,-36c19.88225,0 36,16.11775 36,36c0,19.88225 -16.11775,36 -36,36c-19.88225,0 -36,-16.11775 -36,-36z"/><path d="M211.125,187c0,-21.53911 17.46089,-39 39,-39c21.53911,0 39,17.46089 39,39c0,21.53911 -17.46089,39 -39,39c-21.53911,0 -39,-17.46089 -39,-39z"/><path d="M214.125,202.5c0,-24.57667 19.92333,-44.5 44.5,-44.5c24.57667,0 44.5,19.92333 44.5,44.5c0,24.57667 -19.92333,44.5 -44.5,44.5c-24.57667,0 -44.5,-19.92333 -44.5,-44.5z"/></g></g></svg>