<svg version="1.1" xmlns="http://www.w3.org/2000/svg" xmlns:xlink="http://www.w3.org/1999/xlink" width="416" height="284" viewBox="0,0,416,284"><g transform="translate(-35.125,-47)"><g data-paper-data="{&quot;isPaintingLayer&quot;:true}" fill="#ffffff" fill-rule="nonzero" stroke="none" stroke-width="0" stroke-linecap="butt" stroke-linejoin="miter" stroke-miterlimit="10" stroke-dasharray="" stroke-dashoffset="0" style="mix-blend-mode: normal"><path d="M61.125,167c0,-18.22539 14.77461,-33 33,-33c18.22539,0 33,14.77461 33,33c0,18.22539 -14.77461,33 -33,33c-18.22539,0 -33,-14.77461 -33,-33z"/><path d="M127.125,198.5c0,-19.60611 15.89389,-35.5 35.5,-35.5c19.60611,0 35.5,15.89389 35.5,35.5c0,19.60611 -15.89389,35.5 -35.5,35.5c-19.60611,0 -35.5,-15.89389 -35.5,-35.5z"/><path d="M69.125,195c0,-20.43454 16.56547,-37 37,-37c20.43453,0 37,16.56546 37,37c0,20.43454 -16.56547,37 -37,37c-20.43453,0 -37,-16.56546 -37,-37z"/><path d="M110.125,235.5c0,-22.36753 18.13247,-40.5 40.5,-40.5c22.36753,0 40.5,18.13247 40.5,40.5c0,22.36753 -18.13247,40.5 -40.5,40.5c-22.36753,0 -40.5,-18.13247 -40.5,-40.5z"/><path d="M136.125,150c0,-28.16652 22.83348,-51 51,-51c28.16652,0 51,22.83348 51,51c0,28.16652 -22.83348,51 -51,51c-28.16652,0 -51,-22.83348 -51,-51z"/><path d="M99.125,150c0,-19.88225 16.11775,-36 36,-36c19.88225,0 36,16.11775 36,36c0,19.88225 -16.11775,36 -36,36c-19.88225,0 -36,-16.11775 -36,-36z"/><path d="M178.125,212c0,-21.53911 17.46089,-39 39,-39c21.53911,0 39,17.46089 39,39c0,21.53911 -17.46089,39 -39,39c-21.53911,0 -39,-17.46089 -39,-39z"/><path d="M204.125,173.5c0,-17.94925 14.55075,-32.5 32.5,-32.5c17.94925,0 32.5,14.55075 32.5,32.5c0,17.94925 -14.55075,32.5 -32.5,32.5c-17.94925,0 -32.5,-14.55075 -32.5,-32.5z"/><path d="M190.125,154c0,-25.95738 21.04262,-47 47,-47c25.95738,0 47,21.04262 47,47c0,25.95738 -21.04262,47 -47,47c-25.95738,0 -47,-21.04262 -47,-47z"/><path d="M212.125,193c0,-23.74824 19.25176,-43 43,-43c23.74824,0 43,19.25176 43,43c0,23.74824 -19.25176,43 -43,43c-23.74824,0 -43,-19.25176 -43,-43z"/><path d="M285.125,189c0,-19.88225 16.11775,-36 36,-36c19.88225,0 36,16.11775 36,36c0,19.88225 -16.11775,36 -36,36c-19.88225,0 -36,-16.11775 -36,-36z"/><path d="M266.125,118c0,-21.53911 17.46089,-39 39,-39c21.53911,0 39,17.46089 39,39c0,21.53911 -17.46089,39 -39,39c-21.53911,0 -39,-17.46089 -39,-39z"/><path d="M269.125,133.5c0,-24.57667 19.92333,-44.5 44.5,-44.5c24.57667,0 44.5,19.92333 44.5,44.5c0,24.57667 -19.92333,44.5 -44.5,44.5c-24.57667,0 -44.5,-19.92333 -44.5,-44.5z"/><path d="M66.125,172c0,-18.22539 14.77461,-33 33,-33c18.22539,0 33,14.77461 33,33c0,18.22539 -14.77461,33 -33,33c-18.22539,0 -33,-14.77461 -33,-33z"/><path d="M132.125,203.5c0,-19.60611 15.89389,-35.5 35.5,-35.5c19.60611,0 35.5,15.89389 35.5,35.5c0,19.60611 -15.89389,35.5 -35.5,35.5c-19.60611,0 -35.5,-15.89389 -35.5,-35.5z"/><path d="M74.125,200c0,-20.43454 16.56547,-37 37,-37c20.43453,0 37,16.56546 37,37c0,20.43454 -16.56547,37 -37,37c-20.43453,0 -37,-16.56546 -37,-37z"/><path d="M115.125,240.5c0,-22.36753 18.13247,-40.5 40.5,-40.5c22.36753,0 40.5,18.13247 40.5,40.5c0,22.36753 -18.13247,40.5 -40.5,40.5c-22.36753,0 -40.5,-18.13247 -40.5,-40.5z"/><path d="M141.125,155c0,-28.16652 22.83348,-51 51,-51c28.16652,0 51,22.83348 51,51c0,28.16652 -22.83348,51 -51,51c-28.16652,0 -51,-22.83348 -51,-51z"/><path d="M104.125,155c0,-19.88225 16.11775,-36 36,-36c19.88225,0 36,16.11775 36,36c0,19.88225 -16.11775,36 -36,36c-19.88225,0 -36,-16.11775 -36,-36z"/><path d="M183.125,217c0,-21.53911 17.46089,-39 39,-39c21.53911,0 39,17.46089 39,39c0,21.53911 -17.46089,39 -39,39c-21.53911,0 -39,-17.46089 -39,-39z"/><path d="M209.125,178.5c0,-17.94925 14.55075,-32.5 32.5,-32.5c17.94925,0 32.5,14.55075 32.5,32.5c0,17.94925 -14.55075,32.5 -32.5,32.5c-17.94925,0 -32.5,-14.55075 -32.5,-32.5z"/><path d="M195.125,159c0,-25.95738 21.04262,-47 47,-47c25.95738,0 47,21.04262 47,47c0,25.95738 -21.04262,47 -47,47c-25.95738,0 -47,-21.04262 -47,-47z"/><path d="M217.125,198c0,-23.74824 19.25176,-43 43,-43c23.74824,0 43,19.25176 43,43c0,23.74824 -19.25176,43 -43,43c-23.74824,0 -43,-19.25176 -43,-43z"/><path d="M290.125,194c0,-19.88225 16.11775,-36 36,-36c19.88225,0 36,16.11775 36,36c0,19.88225 -16.11775,36 -36,36c-19.88225,0 -36,-16.11775 -36,-36z"/><path d="M271.125,123c0,-21.53911 17.46089,-39 39,-39c21.53911,0 39,17.46089 39,39c0,21.53911 -17.46089,39 -39,39c-21.53911,0 -39,-17.46089 -39,-39z"/><path d="M274.125,138.5c0,-24.57667 19.92333,-44.5 44.5,-44.5c24.57667,0 44.5,19.92333 44.5,44.5c0,24.57667 -19.92333,44.5 -44.5,44.5c-24.57667,0 -44.5,-19.92333 -44.5,-44.5z"/><path d="M71.125,177c0,-18.22539 14.77461,-33 33,-33c18.22539,0 33,14.77461 33,33c0,18.22539 -14.77461,33 -33,33c-18.22539,0 -33,-14.77461 -33,-33z"/><path d="M137.125,208.5c0,-19.60611 15.89389,-35.5 35.5,-35.5c19.60611,0 35.5,15.89389 35.5,35.5c0,19.60611 -15.89389,35.5 -35.5,35.5c-19.60611,0 -35.5,-15.89389 -35.5,-35.5z"/><path d="M79.125,205c0,-20.43454 16.56547,-37 37,-37c20.43453,0 37,16.56546 37,37c0,20.43454 -16.56547,37 -37,37c-20.43453,0 -37,-16.56546 -37,-37z"/><path d="M120.125,245.5c0,-22.36753 18.13247,-40.5 40.5,-40.5c22.36753,0 40.5,18.13247 40.5,40.5c0,22.36753 -18.13247,40.5 -40.5,40.5c-22.36753,0 -40.5,-18.13247 -40.5,-40.5z"/><path d="M146.125,160c0,-28.16652 22.83348,-51 51,-51c28.16652,0 51,22.83348 51,51c0,28.16652 -22.83348,51 -51,51c-28.16652,0 -51,-22.83348 -51,-51z"/><path d="M109.125,160c0,-19.88225 16.11775,-36 36,-36c19.88225,0 36,16.11775 36,36c0,19.88225 -16.11775,36 -36,36c-19.88225,0 -36,-16.11775 -36,-36z"/><path d="M188.125,222c0,-21.53911 17.46089,-39 39,-39c21.53911,0 39,17.46089 39,39c0,21.53911 -17.46089,39 -39,39c-21.53911,0 -39,-17.46089 -39,-39z"/><path d="M214.125,183.5c0,-17.94925 14.55075,-32.5 32.5,-32.5c17.94925,0 32.5,14.55075 32.5,32.5c0,17.94925 -14.55075,32.5 -32.5,32.5c-17.94925,0 -32.5,-14.55075 -32.5,-32.5z"/><path d="M200.125,164c0,-25.95738 21.04262,-47 47,-47c25.95738,0 47,21.04262 47,47c0,25.95738 -21.04262,47 -47,47c-25.95738,0 -47,-21.04262 -47,-47z"/><path d="M222.125,203c0,-23.74824 19.25176,-43 43,-43c23.74824,0 43,19.25176 43,43c0,23.74824 -19.25176,43 -43,43c-23.74824,0 -43,-19.25176 -43,-43z"/><path d="M295.125,199c0,-19.88225 16.11775,-36 36,-36c19.88225,0 36,16.11775 36,36c0,19.88225 -16.11775,36 -36,36c-19.88225,0 -36,-16.11775 -36,-36z"/><path d="M276.125,128c0,-21.53911 17.46089,-39 39,-39c21.53911,0 39,17.46089 39,39c0,21.53911 -17.46089,39 -39,39c-21.53911,0 -39,-17.46089 -39,-39z"/><path d="M279.125,143.5c0,-24.57667 19.92333,-44.5 44.5,-44.5c24.57667,0 44.5,19.92333 44.5,44.5c0,24.57667 -19.92333,44.5 -44.5,44.5c-24.57667,0 -44.5,-19.92333 -44.5,-44.5z"/><path d="M76.125,182c0,-18.22539 14.77461,-33 33,-33c18.22539,0 33,14.77461 33,33c0,18.22539 -14.77461,33 -33,33c-18.22539,0 -33,-14.77461 -33,-33z"/><path d="M142.125,213.5c0,-19.60611 15.89389,-35.5 35.5,-35.5c19.60611,0 35.5,15.89389 35.5,35.5c0,19.60611 -15.89389,35.5 -35.5,35.5c-19.60611,0 -35.5,-15.89389 -35.5,-35.5z"/><path d="M84.125,210c0,-20.43454 16.56547,-37 37,-37c20.43453,0 37,16.56546 37,37c0,20.43454 -16.56547,37 -37,37c-20.43453,0 -37,-16.56546 -37,-37z"/><path d="M125.125,250.5c0,-22.36753 18.13247,-40.5 40.5,-40.5c22.36753,0 40.5,18.13247 40.5,40.5c0,22.36753 -18.13247,40.5 -40.5,40.5c-22.36753,0 -40.5,-18.13247 -40.5,-40.5z"/><path d="M151.125,165c0,-28.16652 22.83348,-51 51,-51c28.16652,0 51,22.83348 51,51c0,28.16652 -22.83348,51 -51,51c-28.16652,0 -51,-22.83348 -51,-51z"/><path d="M114.125,165c0,-19.88225 16.11775,-36 36,-36c19.88225,0 36,16.11775 36,36c0,19.88225 -16.11775,36 -36,36c-19.88225,0 -36,-16.11775 -36,-36z"/><path d="M193.125,227c0,-21.53911 17.46089,-39 39,-39c21.53911,0 39,17.46089 39,39c0,21.53911 -17.46089,39 -39,39c-21.53911,0 -39,-17.46089 -39,-39z"/><path d="M219.125,188.5c0,-17.94925 14.55075,-32.5 32.5,-32.5c17.94925,0 32.5,14.55075 32.5,32.5c0,17.94925 -14.55075,32.5 -32.5,32.5c-17.94925,0 -32.5,-14.55075 -32.5,-32.5z"/><path d="M205.125,169c0,-25.95738 21.04262,-47 47,-47c25.95738,0 47,21.04262 47,47c0,25.95738 -21.04262,47 -47,47c-25.95738,0 -47,-21.04262 -47,-47z"/><path d="M227.125,208c0,-23.74824 19.25176,-43 43,-43c23.74824,0 43,19.25176 43,43c0,23.74824 -19.25176,43 -43,43c-23.74824,0 -43,-19.25176 -43,-43z"/><path d="M300.125,204c0,-19.88225 16.11775,-36 36,-36c19.88225,0 36,16.11775 36,36c0,19.88225 -16.11775,36 -36,36c-19.88225,0 -36,-16.11775 -36,-36z"/><path d="M281.125,133c0,-21.53911 17.46089,-39 39,-39c21.53911,0 39,17.46089 39,39c0,21.53911 -17.46089,39 -39,39c-21.53911,0 -39,-17.46089 -39,-39z"/><path d="M284.125,148.5c0,-24.57667 19.92333,-44.5 44.5,-44.5c24.57667,0 44.5,19.92333 44.5,44.5c0,24.57667 -19.92333,44.5 -44.5,44.5c-24.57667,0 -44.5,-19.92333 -44.5,-44.5z"/><path d="M81.125,187c0,-18.22539 14.77461,-33 33,-33c18.22539,0 33,14.77461 33,33c0,18.22539 -14.77461,33 -33,33c-18.22539,0 -33,-14.77461 -33,-33z"/><path d="M147.125,218.5c0,-19.60611 15.89389,-35.5 35.5,-35.5c19.60611,0 35.5,15.89389 35.5,35.5c0,19.60611 -15.89389,35.5 -35.5,35.5c-19.60611,0 -35.5,-15.89389 -35.5,-35.5z"/><path d="M89.125,215c0,-20.43454 16.56547,-37 37,-37c20.43453,0 37,16.56546 37,37c0,20.43454 -16.56547,37 -37,37c-20.43453,0 -37,-16.56546 -37,-37z"/><path d="M130.125,255.5c0,-22.36753 18.13247,-40.5 40.5,-40.5c22.36753,0 40.5,18.13247 40.5,40.5c0,22.36753 -18.13247,40.5 -40.5,40.5c-22.36753,0 -40.5,-18.13247 -40.5,-40.5z"/><path d="M156.125,170c0,-28.16652 22.83348,-51 51,-51c28.16652,0 51,22.83348 51,51c0,28.16652 -22.83348,51 -51,51c-28.16652,0 -51,-22.83348 -51,-51z"/><path d="M119.125,170c0,-19.88225 16.11775,-36 36,-36c19.88225,0 36,16.11775 36,36c0,19.88225 -16.11775,36 -36,36c-19.88225,0 -36,-16.11775 -36,-36z"/><path d="M198.125,232c0,-21.53911 17.46089,-39 39,-39c21.53911,0 39,17.46089 39,39c0,21.53911 -17.46089,39 -39,39c-21.53911,0 -39,-17.46089 -39,-39z"/><path d="M224.125,193.5c0,-17.94925 14.55075,-32.5 32.5,-32.5c17.94925,0 32.5,14.55075 32.5,32.5c0,17.94925 -14.55075,32.5 -32.5,32.5c-17.94925,0 -32.5,-14.55075 -32.5,-32.5z"/><path d="M210.125,174c0,-25.95738 21.04262,-47 47,-47c25.95738,0 47,21.04262 47,47c0,25.95738 -21.04262,47 -47,47c-25.95738,0 -47,-21.04262 -47,-47z"/><path d="M232.125,213c0,-23.74824 19.25176,-43 43,-43c23.74824,0 43,19.25176 43,43c0,23.74824 -19.25176,43 -43,43c-23.74824,0 -43,-19.25176 -43,-43z"/><path d="M305.125,209c0,-19.88225 16.11775,-36 36,-36c19.88225,0 36,16.11775 36,36c0,19.88225 -16.11775,36 -36,36c-19.88225,0 -36,-16.11775 -36,-36z"/><path d="M286.125,138c0,-21.53911 17.46089,-39 39,-39c21.53911,0 39,17.46089 39,39c0,21.53911 -17.46089,39 -39,39c-21.53911,0 -39,-17.46089 -39,-39z"/><path d="M289.125,153.5c0,-24.57667 19.92333,-44.5 44.5,-44.5c24.57667,0 44.5,19.92333 44.5,44.5c0,24.57667 -19.92333,44.5 -44.5,44.5c-24.57667,0 -44.5,-19.92333 -44.5,-44.5z"/><path d="M86.125,192c0,-18.22539 14.77461,-33 33,-33c18.22539,0 33,14.77461 33,33c0,18.22539 -14.77461,33 -33,33c-18.22539,0 -33,-14.77461 -33,-33z"/><path d="M152.125,223.5c0,-19.60611 15.89389,-35.5 35.5,-35.5c19.60611,0 35.5,15.89389 35.5,35.5c0,19.60611 -15.89389,35.5 -35.5,35.5c-19.60611,0 -35.5,-15.89389 -35.5,-35.5z"/><path d="M94.125,220c0,-20.43454 16.56547,-37 37,-37c20.43453,0 37,16.56546 37,37c0,20.43454 -16.56547,37 -37,37c-20.43453,0 -37,-16.56546 -37,-37z"/><path d="M135.125,260.5c0,-22.36753 18.13247,-40.5 40.5,-40.5c22.36753,0 40.5,18.13247 40.5,40.5c0,22.36753 -18.13247,40.5 -40.5,40.5c-22.36753,0 -40.5,-18.13247 -40.5,-40.5z"/><path d="M161.125,175c0,-28.16652 22.83348,-51 51,-51c28.16652,0 51,22.83348 51,51c0,28.16652 -22.83348,51 -51,51c-28.16652,0 -51,-22.83348 -51,-51z"/><path d="M124.125,175c0,-19.88225 16.11775,-36 36,-36c19.88225,0 36,16.11775 36,36c0,19.88225 -16.11775,36 -36,36c-19.88225,0 -36,-16.11775 -36,-36z"/><path d="M203.125,237c0,-21.53911 17.46089,-39 39,-39c21.53911,0 39,17.46089 39,39c0,21.53911 -17.46089,39 -39,39c-21.53911,0 -39,-17.46089 -39,-39z"/><path d="M229.125,198.5c0,-17.94925 14.55075,-32.5 32.5,-32.5c17.94925,0 32.5,14.55075 32.5,32.5c0,17.94925 -14.55075,32.5 -32.5,32.5c-17.94925,0 -32.5,-14.55075 -32.5,-32.5z"/><path d="M215.125,179c0,-25.95738 21.04262,-47 47,-47c25.95738,0 47,21.04262 47,47c0,25.95738 -21.04262,47 -47,47c-25.95738,0 -47,-21.04262 -47,-47z"/><path d="M237.125,218c0,-23.74824 19.25176,-43 43,-43c23.74824,0 43,19.25176 43,43c0,23.74824 -19.25176,43 -43,43c-23.74824,0 -43,-19.25176 -43,-43z"/><path d="M310.125,214c0,-19.88225 16.11775,-36 36,-36c19.88225,0 36,16.11775 36,36c0,19.88225 -16.11775,36 -36,36c-19.88225,0 -36,-16.11775 -36,-36z"/><path d="M291.125,143c0,-21.53911 17.46089,-39 39,-39c21.53911,0 39,17.46089 39,39c0,21.53911 -17.46089,39 -39,39c-21.53911,0 -39,-17.46089 -39,-39z"/><path d="M294.125,158.5c0,-24.57667 19.92333,-44.5 44.5,-44.5c24.57667,0 44.5,19.92333 44.5,44.5c0,24.57667 -19.92333,44.5 -44.5,44.5c-24.57667,0 -44.5,-19.92333 -44.5,-44.5z"/><path d="M91.125,197c0,-18.22539 14.77461,-33 33,-33c18.22539,0 33,14.77461 33,33c0,18.22539 -14.77461,33 -33,33c-18.22539,0 -33,-14.77461 -33,-33z"/><path d="M157.125,228.5c0,-19.60611 15.89389,-35.5 35.5,-35.5c19.60611,0 35.5,15.89389 35.5,35.5c0,19.60611 -15.89389,35.5 -35.5,35.5c-19.60611,0 -35.5,-15.89389 -35.5,-35.5z"/><path d="M99.125,225c0,-20.43454 16.56547,-37 37,-37c20.43453,0 37,16.56546 37,37c0,20.43454 -16.56547,37 -37,37c-20.43453,0 -37,-16.56546 -37,-37z"/><path d="M140.125,265.5c0,-22.36753 18.13247,-40.5 40.5,-40.5c22.36753,0 40.5,18.13247 40.5,40.5c0,22.36753 -18.13247,40.5 -40.5,40.5c-22.36753,0 -40.5,-18.13247 -40.5,-40.5z"/><path d="M166.125,180c0,-28.16652 22.83348,-51 51,-51c28.16652,0 51,22.83348 51,51c0,28.16652 -22.83348,51 -51,51c-28.16652,0 -51,-22.83348 -51,-51z"/><path d="M129.125,180c0,-19.88225 16.11775,-36 36,-36c19.88225,0 36,16.11775 36,36c0,19.88225 -16.11775,36 -36,36c-19.88225,0 -36,-16.11775 -36,-36z"/><path d="M208.125,242c0,-21.53911 17.46089,-39 39,-39c21.53911,0 39,17.46089 39,39c0,21.53911 -17.46089,39 -39,39c-21.53911,0 -39,-17.46089 -39,-39z"/><path d="M234.125,203.5c0,-17.94925 14.55075,-32.5 32.5,-32.5c17.94925,0 32.5,14.55075 32.5,32.5c0,17.94925 -14.55075,32.5 -32.5,32.5c-17.94925,0 -32.5,-14.55075 -32.5,-32.5z"/><path d="M220.125,184c0,-25.95738 21.04262,-47 47,-47c25.95738,0 47,21.04262 47,47c0,25.95738 -21.04262,47 -47,47c-25.95738,0 -47,-21.04262 -47,-47z"/><path d="M242.125,223c0,-23.74824 19.25176,-43 43,-43c23.74824,0 43,19.25176 43,43c0,23.74824 -19.25176,43 -43,43c-23.74824,0 -43,-19.25176 -43,-43z"/><path d="M315.125,219c0,-19.88225 16.11775,-36 36,-36c19.88225,0 36,16.11775 36,36c0,19.88225 -16.11775,36 -36,36c-19.88225,0 -36,-16.11775 -36,-36z"/><path d="M296.125,148c0,-21.53911 17.46089,-39 39,-39c21.53911,0 39,17.46089 39,39c0,21.53911 -17.46089,39 -39,39c-21.53911,0 -39,-17.46089 -39,-39z"/><path d="M299.125,163.5c0,-24.57667 19.92333,-44.5 44.5,-44.5c24.57667,0 44.5,19.92333 44.5,44.5c0,24.57667 -19.92333,44.5 -44.5,44.5c-24.57667,0 -44.5,-19.92333 -44.5,-44.5z"/><path d="M96.125,202c0,-18.22539 14.77461,-33 33,-33c18.22539,0 33,14.77461 33,33c0,18.22539 -14.77461,33 -33,33c-18.22539,0 -33,-14.77461 -33,-33z"/><path d="M162.125,233.5c0,-19.60611 15.89389,-35.5 35.5,-35.5c19.60611,0 35.5,15.89389 35.5,35.5c0,19.60611 -15.89389,35.5 -35.5,35.5c-19.60611,0 -35.5,-15.89389 -35.5,-35.5z"/><path d="M104.125,230c0,-20.43454 16.56547,-37 37,-37c20.43453,0 37,16.56546 37,37c0,20.43454 -16.56547,37 -37,37c-20.43453,0 -37,-16.56546 -37,-37z"/><path d="M145.125,270.5c0,-22.36753 18.13247,-40.5 40.5,-40.5c22.36753,0 40.5,18.13247 40.5,40.5c0,22.36753 -18.13247,40.5 -40.5,40.5c-22.36753,0 -40.5,-18.13247 -40.5,-40.5z"/><path d="M171.125,185c0,-28.16652 22.83348,-51 51,-51c28.16652,0 51,22.83348 51,51c0,28.16652 -22.83348,51 -51,51c-28.16652,0 -51,-22.83348 -51,-51z"/><path d="M134.125,185c0,-19.88225 16.11775,-36 36,-36c19.88225,0 36,16.11775 36,36c0,19.88225 -16.11775,36 -36,36c-19.88225,0 -36,-16.11775 -36,-36z"/><path d="M213.125,247c0,-21.53911 17.46089,-39 39,-39c21.53911,0 39,17.46089 39,39c0,21.53911 -17.46089,39 -39,39c-21.53911,0 -39,-17.46089 -39,-39z"/><path d="M239.125,208.5c0,-17.94925 14.55075,-32.5 32.5,-32.5c17.94925,0 32.5,14.55075 32.5,32.5c0,17.94925 -14.55075,32.5 -32.5,32.5c-17.94925,0 -32.5,-14.55075 -32.5,-32.5z"/><path d="M225.125,189c0,-25.95738 21.04262,-47 47,-47c25.95738,0 47,21.04262 47,47c0,25.95738 -21.04262,47 -47,47c-25.95738,0 -47,-21.04262 -47,-47z"/><path d="M247.125,228c0,-23.74824 19.25176,-43 43,-43c23.74824,0 43,19.25176 43,43c0,23.74824 -19.25176,43 -43,43c-23.74824,0 -43,-19.25176 -43,-43z"/><path d="M320.125,224c0,-19.88225 16.11775,-36 36,-36c19.88225,0 36,16.11775 36,36c0,19.88225 -16.11775,36 -36,36c-19.88225,0 -36,-16.11775 -36,-36z"/><path d="M301.125,153c0,-21.53911 17.46089,-39 39,-39c21.53911,0 39,17.46089 39,39c0,21.53911 -17.46089,39 -39,39c-21.53911,0 -39,-17.46089 -39,-39z"/><path d="M304.125,168.5c0,-24.57667 19.92333,-44.5 44.5,-44.5c24.57667,0 44.5,19.92333 44.5,44.5c0,24.57667 -19.92333,44.5 -44.5,44.5c-24.57667,0 -44.5,-19.92333 -44.5,-44.5z"/><path d="M101.125,207c0,-18.22539 14.77461,-33 33,-33c18.22539,0 33,14.77461 33,33c0,18.22539 -14.77461,33 -33,33c-18.22539,0 -33,-14.77461 -33,-33z"/><path d="M167.125,238.5c0,-19.60611 15.89389,-35.5 35.5,-35.5c19.60611,0 35.5,15.89389 35.5,35.5c0,19.60611 -15.89389,35.5 -35.5,35.5c-19.60611,0 -35.5,-15.89389 -35.5,-35.5z"/><path d="M109.125,235c0,-20.43454 16.56547,-37 37,-37c20.43453,0 37,16.56546 37,37c0,20.43454 -16.56547,37 -37,37c-20.43453,0 -37,-16.56546 -37,-37z"/><path d="M150.125,275.5c0,-22.36753 18.13247,-40.5 40.5,-40.5c22.36753,0 40.5,18.13247 40.5,40.5c0,22.36753 -18.13247,40.5 -40.5,40.5c-22.36753,0 -40.5,-18.13247 -40.5,-40.5z"/><path d="M176.125,190c0,-28.16652 22.83348,-51 51,-51c28.16652,0 51,22.83348 51,51c0,28.16652 -22.83348,51 -51,51c-28.16652,0 -51,-22.83348 -51,-51z"/><path d="M139.125,190c0,-19.88225 16.11775,-36 36,-36c19.88225,0 36,16.11775 36,36c0,19.88225 -16.11775,36 -36,36c-19.88225,0 -36,-16.11775 -36,-36z"/><path d="M218.125,252c0,-21.53911 17.46089,-39 39,-39c21.53911,0 39,17.46089 39,39c0,21.53911 -17.46089,39 -39,39c-21.53911,0 -39,-17.46089 -39,-39z"/><path d="M244.125,213.5c0,-17.94925 14.55075,-32.5 32.5,-32.5c17.94925,0 32.5,14.55075 32.5,32.5c0,17.94925 -14.55075,32.5 -32.5,32.5c-17.94925,0 -32.5,-14.55075 -32.5,-32.5z"/><path d="M230.125,194c0,-25.95738 21.04262,-47 47,-47c25.95738,0 47,21.04262 47,47c0,25.95738 -21.04262,47 -47,47c-25.95738,0 -47,-21.04262 -47,-47z"/><path d="M252.125,233c0,-23.74824 19.25176,-43 43,-43c23.74824,0 43,19.25176 43,43c0,23.74824 -19.25176,43 -43,43c-23.74824,0 -43,-19.25176 -43,-43z"/><path d="M325.125,229c0,-19.88225 16.11775,-36 36,-36c19.88225,0 36,16.11775 36,36c0,19.88225 -16.11775,36 -36,36c-19.88225,0 -36,-16.11775 -36,-36z"/><path d="M306.125,158c0,-21.53911 17.46089,-39 39,-39c21.53911,0 39,17.46089 39,39c0,21.53911 -17.46089,39 -39,39c-21.53911,0 -39,-17.46089 -39,-39z"/><path d="M309.125,173.5c0,-24.57667 19.92333,-44.5 44.5,-44.5c24.57667,0 44.5,19.92333 44.5,44.5c0,24.57667 -19.92333,44.5 -44.5,44.5c-24.57667,0 -44.5,-19.92333 -44.5,-44.5z"/><path d="M106.125,212c0,-18.22539 14.77461,-33 33,-33c18.22539,0 33,14.77461 33,33c0,18.22539 -14.77461,33 -33,33c-18.22539,0 -33,-14.77461 -33,-33z"/><path d="M172.125,243.5c0,-19.60611 15.89389,-35.5 35.5,-35.5c19.60611,0 35.5,15.89389 35.5,35.5c0,19.60611 -15.89389,35.5 -35.5,35.5c-19.60611,0 -35.5,-15.89389 -35.5,-35.5z"/><path d="M114.125,240c0,-20.43454 16.56547,-37 37,-37c20.43453,0 37,16.56546 37,37c0,20.43453 -16.56547,37 -37,37c-20.43453,0 -37,-16.56547 -37,-37z"/><path d="M155.125,280.5c0,-22.36753 18.13247,-40.5 40.5,-40.5c22.36753,0 40.5,18.13247 40.5,40.5c0,22.36753 -18.13247,40.5 -40.5,40.5c-22.36753,0 -40.5,-18.13247 -40.5,-40.5z"/><path d="M181.125,195c0,-28.16652 22.83348,-51 51,-51c28.16652,0 51,22.83348 51,51c0,28.16652 -22.83348,51 -51,51c-28.16652,0 -51,-22.83348 -51,-51z"/><path d="M144.125,195c0,-19.88225 16.11775,-36 36,-36c19.88225,0 36,16.11775 36,36c0,19.88225 -16.11775,36 -36,36c-19.88225,0 -36,-16.11775 -36,-36z"/><path d="M223.125,257c0,-21.53911 17.46089,-39 39,-39c21.53911,0 39,17.46089 39,39c0,21.53911 -17.46089,39 -39,39c-21.53911,0 -39,-17.46089 -39,-39z"/><path d="M249.125,218.5c0,-17.94925 14.55075,-32.5 32.5,-32.5c17.94925,0 32.5,14.55075 32.5,32.5c0,17.94925 -14.55075,32.5 -32.5,32.5c-17.94925,0 -32.5,-14.55075 -32.5,-32.5z"/><path d="M235.125,199c0,-25.95738 21.04262,-47 47,-47c25.95738,0 47,21.04262 47,47c0,25.95738 -21.04262,47 -47,47c-25.95738,0 -47,-21.04262 -47,-47z"/><path d="M257.125,238c0,-23.74824 19.25176,-43 43,-43c23.74824,0 43,19.25176 43,43c0,23.74824 -19.25176,43 -43,43c-23.74824,0 -43,-19.25176 -43,-43z"/><path d="M330.125,234c0,-19.88225 16.11775,-36 36,-36c19.88225,0 36,16.11775 36,36c0,19.88225 -16.11775,36 -36,36c-19.88225,0 -36,-16.11775 -36,-36z"/><path d="M311.125,163c0,-21.53911 17.46089,-39 39,-39c21.53911,0 39,17.46089 39,39c0,21.53911 -17.46089,39 -39,39c-21.53911,0 -39,-17.46089 -39,-39z"/><path d="M314.125,178.5c0,-24.57667 19.92333,-44.5 44.5,-44.5c24.57667,0 44.5,19.92333 44.5,44.5c0,24.57667 -19.92333,44.5 -44.5,44.5c-24.57667,0 -44.5,-19.92333 -44.5,-44.5z"/><path d="M111.125,217c0,-18.22539 14.77461,-33 33,-33c18.22539,0 33,14.77461 33,33c0,18.22539 -14.77461,33 -33,33c-18.22539,0 -33,-14.77461 -33,-33z"/><path d="M177.125,248.5c0,-19.60611 15.89389,-35.5 35.5,-35.5c19.60611,0 35.5,15.89389 35.5,35.5c0,19.60611 -15.89389,35.5 -35.5,35.5c-19.60611,0 -35.5,-15.89389 -35.5,-35.5z"/><path d="M119.125,245c0,-20.43454 16.56547,-37 37,-37c20.43453,0 37,16.56546 37,37c0,20.43453 -16.56547,37 -37,37c-20.43453,0 -37,-16.56547 -37,-37z"/><path d="M160.125,285.5c0,-22.36753 18.13247,-40.5 40.5,-40.5c22.36753,0 40.5,18.13247 40.5,40.5c0,22.36753 -18.13247,40.5 -40.5,40.5c-22.36753,0 -40.5,-18.13247 -40.5,-40.5z"/><path d="M186.125,200c0,-28.16652 22.83348,-51 51,-51c28.16652,0 51,22.83348 51,51c0,28.16652 -22.83348,51 -51,51c-28.16652,0 -51,-22.83348 -51,-51z"/><path d="M149.125,200c0,-19.88225 16.11775,-36 36,-36c19.88225,0 36,16.11775 36,36c0,19.88225 -16.11775,36 -36,36c-19.88225,0 -36,-16.11775 -36,-36z"/><path d="M228.125,262c0,-21.53911 17.46089,-39 39,-39c21.53911,0 39,17.46089 39,39c0,21.53911 -17.46089,39 -39,39c-21.53911,0 -39,-17.46089 -39,-39z"/><path d="M254.125,223.5c0,-17.94925 14.55075,-32.5 32.5,-32.5c17.94925,0 32.5,14.55075 32.5,32.5c0,17.94925 -14.55075,32.5 -32.5,32.5c-17.94925,0 -32.5,-14.55075 -32.5,-32.5z"/><path d="M240.125,204c0,-25.95738 21.04262,-47 47,-47c25.95738,0 47,21.04262 47,47c0,25.95738 -21.04262,47 -47,47c-25.95738,0 -47,-21.04262 -47,-47z"/><path d="M262.125,243c0,-23.74824 19.25176,-43 43,-43c23.74824,0 43,19.25176 43,43c0,23.74824 -19.25176,43 -43,43c-23.74824,0 -43,-19.25176 -43,-43z"/><path d="M335.125,239c0,-19.88225 16.11775,-36 36,-36c19.88225,0 36,16.11775 36,36c0,19.88225 -16.11775,36 -36,36c-19.88225,0 -36,-16.11775 -36,-36z"/><path d="M316.125,168c0,-21.53911 17.46089,-39 39,-39c21.53911,0 39,17.46089 39,39c0,21.53911 -17.46089,39 -39,39c-21.53911,0 -39,-17.46089 -39,-39z"/><path d="M319.125,183.5c0,-24.57667 19.92333,-44.5 44.5,-44.5c24.57667,0 44.5,19.92333 44.5,44.5c0,24.57667 -19.92333,44.5 -44.5,44.5c-24.57667,0 -44.5,-19.92333 -44.5,-44.5z"/><path d="M116.125,222c0,-18.22539 14.77461,-33 33,-33c18.22539,0 33,14.77461 33,33c0,18.22539 -14.77461,33 -33,33c-18.22539,0 -33,-14.77461 -33,-33z"/><path d="M182.125,253.5c0,-19.60611 15.89389,-35.5 35.5,-35.5c19.60611,0 35.5,15.89389 35.5,35.5c0,19.60611 -15.89389,35.5 -35.5,35.5c-19.60611,0 -35.5,-15.89389 -35.5,-35.5z"/><path d="M124.125,250c0,-20.43454 16.56547,-37 37,-37c20.43453,0 37,16.56546 37,37c0,20.43453 -16.56547,37 -37,37c-20.43453,0 -37,-16.56547 -37,-37z"/><path d="M165.125,290.5c0,-22.36753 18.13247,-40.5 40.5,-40.5c22.36753,0 40.5,18.13247 40.5,40.5c0,22.36753 -18.13247,40.5 -40.5,40.5c-22.36753,0 -40.5,-18.13247 -40.5,-40.5z"/><path d="M191.125,205c0,-28.16652 22.83348,-51 51,-51c28.16652,0 51,22.83348 51,51c0,28.16652 -22.83348,51 -51,51c-28.16652,0 -51,-22.83348 -51,-51z"/><path d="M154.125,205c0,-19.88225 16.11775,-36 36,-36c19.88225,0 36,16.11775 36,36c0,19.88225 -16.11775,36 -36,36c-19.88225,0 -36,-16.11775 -36,-36z"/><path d="M233.125,267c0,-21.53911 17.46089,-39 39,-39c21.53911,0 39,17.46089 39,39c0,21.53911 -17.46089,39 -39,39c-21.53911,0 -39,-17.46089 -39,-39z"/><path d="M259.125,228.5c0,-17.94925 14.55075,-32.5 32.5,-32.5c17.94925,0 32.5,14.55075 32.5,32.5c0,17.94925 -14.55075,32.5 -32.5,32.5c-17.94925,0 -32.5,-14.55075 -32.5,-32.5z"/><path d="M245.125,209c0,-25.95738 21.04262,-47 47,-47c25.95738,0 47,21.04262 47,47c0,25.95738 -21.04262,47 -47,47c-25.95738,0 -47,-21.04262 -47,-47z"/><path d="M267.125,248c0,-23.74824 19.25176,-43 43,-43c23.74824,0 43,19.25176 43,43c0,23.74824 -19.25176,43 -43,43c-23.74824,0 -43,-19.25176 -43,-43z"/><path d="M340.125,244c0,-19.88225 16.11775,-36 36,-36c19.88225,0 36,16.11775 36,36c0,19.88225 -16.11775,36 -36,36c-19.88225,0 -36,-16.11775 -36,-36z"/><path d="M321.125,173c0,-21.53911 17.46089,-39 39,-39c21.53911,0 39,17.46089 39,39c0,21.53911 -17.46089,39 -39,39c-21.53911,0 -39,-17.46089 -39,-39z"/><path d="M324.125,188.5c0,-24.57667 19.92333,-44.5 44.5,-44.5c24.57667,0 44.5,19.92333 44.5,44.5c0,24.57667 -19.92333,44.5 -44.5,44.5c-24.57667,0 -44.5,-19.92333 -44.5,-44.5z"/><path d="M35.125,207c0,-18.22539 14.77461,-33 33,-33c18.22539,0 33,14.77461 33,33c0,18.22539 -14.77461,33 -33,33c-18.22539,0 -33,-14.77461 -33,-33z"/><path d="M101.125,238.5c0,-19.60611 15.89389,-35.5 35.5,-35.5c19.60611,0 35.5,15.89389 35.5,35.5c0,19.60611 -15.89389,35.5 -35.5,35.5c-19.60611,0 -35.5,-15.89389 -35.5,-35.5z"/><path d="M43.125,235c0,-20.43454 16.56547,-37 37,-37c20.43453,0 37,16.56546 37,37c0,20.43453 -16.56547,37 -37,37c-20.43453,0 -37,-16.56547 -37,-37z"/><path d="M84.125,275.5c0,-22.36753 18.13247,-40.5 40.5,-40.5c22.36753,0 40.5,18.13247 40.5,40.5c0,22.36753 -18.13247,40.5 -40.5,40.5c-22.36753,0 -40.5,-18.13247 -40.5,-40.5z"/><path d="M110.125,190c0,-28.16652 22.83348,-51 51,-51c28.16652,0 51,22.83348 51,51c0,28.16652 -22.83348,51 -51,51c-28.16652,0 -51,-22.83348 -51,-51z"/><path d="M73.125,190c0,-19.88225 16.11775,-36 36,-36c19.88225,0 36,16.11775 36,36c0,19.88225 -16.11775,36 -36,36c-19.88225,0 -36,-16.11775 -36,-36z"/><path d="M152.125,252c0,-21.53911 17.46089,-39 39,-39c21.53911,0 39,17.46089 39,39c0,21.53911 -17.46089,39 -39,39c-21.53911,0 -39,-17.46089 -39,-39z"/><path d="M178.125,213.5c0,-17.94925 14.55075,-32.5 32.5,-32.5c17.94925,0 32.5,14.55075 32.5,32.5c0,17.94925 -14.55075,32.5 -32.5,32.5c-17.94925,0 -32.5,-14.55075 -32.5,-32.5z"/><path d="M164.125,194c0,-25.95738 21.04262,-47 47,-47c25.95738,0 47,21.04262 47,47c0,25.95738 -21.04262,47 -47,47c-25.95738,0 -47,-21.04262 -47,-47z"/><path d="M186.125,233c0,-23.74824 19.25176,-43 43,-43c23.74824,0 43,19.25176 43,43c0,23.74824 -19.25176,43 -43,43c-23.74824,0 -43,-19.25176 -43,-43z"/><path d="M259.125,229c0,-19.88225 16.11775,-36 36,-36c19.88225,0 36,16.11775 36,36c0,19.88225 -16.11775,36 -36,36c-19.88225,0 -36,-16.11775 -36,-36z"/><path d="M240.125,158c0,-21.53911 17.46089,-39 39,-39c21.53911,0 39,17.46089 39,39c0,21.53911 -17.46089,39 -39,39c-21.53911,0 -39,-17.46089 -39,-39z"/><path d="M243.125,173.5c0,-24.57667 19.92333,-44.5 44.5,-44.5c24.57667,0 44.5,19.92333 44.5,44.5c0,24.57667 -19.92333,44.5 -44.5,44.5c-24.57667,0 -44.5,-19.92333 -44.5,-44.5z"/><path d="M154.125,135c0,-18.22539 14.77461,-33 33,-33c18.22539,0 33,14.77461 33,33c0,18.22539 -14.77461,33 -33,33c-18.22539,0 -33,-14.77461 -33,-33z"/><path d="M220.125,166.5c0,-19.60611 15.89389,-35.5 35.5,-35.5c19.60611,0 35.5,15.89389 35.5,35.5c0,19.60611 -15.89389,35.5 -35.5,35.5c-19.60611,0 -35.5,-15.89389 -35.5,-35.5z"/><path d="M162.125,163c0,-20.43454 16.56547,-37 37,-37c20.43453,0 37,16.56546 37,37c0,20.43453 -16.56547,37 -37,37c-20.43453,0 -37,-16.56547 -37,-37z"/><path d="M203.125,203.5c0,-22.36753 18.13247,-40.5 40.5,-40.5c22.36753,0 40.5,18.13247 40.5,40.5c0,22.36753 -18.13247,40.5 -40.5,40.5c-22.36753,0 -40.5,-18.13247 -40.5,-40.5z"/><path d="M229.125,118c0,-28.16652 22.83348,-51 51,-51c28.16652,0 51,22.83348 51,51c0,28.16652 -22.83348,51 -51,51c-28.16652,0 -51,-22.83348 -51,-51z"/><path d="M192.125,118c0,-19.88225 16.11775,-36 36,-36c19.88225,0 36,16.11775 36,36c0,19.88225 -16.11775,36 -36,36c-19.88225,0 -36,-16.11775 -36,-36z"/><path d="M271.125,180c0,-21.53911 17.46089,-39 39,-39c21.53911,0 39,17.46089 39,39c0,21.53911 -17.46089,39 -39,39c-21.53911,0 -39,-17.46089 -39,-39z"/><path d="M297.125,141.5c0,-17.94925 14.55075,-32.5 32.5,-32.5c17.94925,0 32.5,14.55075 32.5,32.5c0,17.94925 -14.55075,32.5 -32.5,32.5c-17.94925,0 -32.5,-14.55075 -32.5,-32.5z"/><path d="M283.125,122c0,-25.95738 21.04262,-47 47,-47c25.95738,0 47,21.04262 47,47c0,25.95738 -21.04262,47 -47,47c-25.95738,0 -47,-21.04262 -47,-47z"/><path d="M305.125,161c0,-23.74824 19.25176,-43 43,-43c23.74824,0 43,19.25176 43,43c0,23.74824 -19.25176,43 -43,43c-23.74824,0 -43,-19.25176 -43,-43z"/><path d="M378.125,157c0,-19.88225 16.11775,-36 36,-36c19.88225,0 36,16.11775 36,36c0,19.88225 -16.11775,36 -36,36c-19.88225,0 -36,-16.11775 -36,-36z"/><path d="M359.125,86c0,-21.53911 17.46089,-39 39,-39c21.53911,0 39,17.46089 39,39c0,21.53911 -17.46089,39 -39,39c-21.53911,0 -39,-17.46089 -39,-39z"/><path d="M362.125,101.5c0,-24.57667 19.92333,-44.5 44.5,-44.5c24.57667,0 44.5,19.92333 44.5,44.5c0,24.57667 -19.92333,44.5 -44.5,44.5c-24.57667,0 -44.5,-19.92333 -44.5,-44.5z"/></g></g></svg>