<svg version="1.1" xmlns="http://www.w3.org/2000/svg" xmlns:xlink="http://www.w3.org/1999/xlink" width="467" height="334" viewBox="0,0,467,334"><g transform="translate(63.875,-34)"><g data-paper-data="{&quot;isPaintingLayer&quot;:true}" fill="#ffffff" fill-rule="nonzero" stroke="none" stroke-width="0" stroke-linecap="butt" stroke-linejoin="miter" stroke-miterlimit="10" stroke-dasharray="" stroke-dashoffset="0" style="mix-blend-mode: normal"><path d="M-63.875,122c0,-18.22539 14.77461,-33 33,-33c18.22539,0 33,14.77461 33,33c0,18.22539 -14.77461,33 -33,33c-18.22539,0 -33,-14.77461 -33,-33z"/><path d="M2.125,153.5c0,-19.60611 15.89389,-35.5 35.5,-35.5c19.60611,0 35.5,15.89389 35.5,35.5c0,19.60611 -15.89389,35.5 -35.5,35.5c-19.60611,0 -35.5,-15.89389 -35.5,-35.5z"/><path d="M-55.875,150c0,-20.43454 16.56547,-37 37,-37c20.43453,0 37,16.56546 37,37c0,20.43454 -16.56547,37 -37,37c-20.43453,0 -37,-16.56546 -37,-37z"/><path d="M-14.875,190.5c0,-22.36753 18.13247,-40.5 40.5,-40.5c22.36753,0 40.5,18.13247 40.5,40.5c0,22.36753 -18.13247,40.5 -40.5,40.5c-22.36753,0 -40.5,-18.13247 -40.5,-40.5z"/><path d="M11.125,105c0,-28.16652 22.83348,-51 51,-51c28.16652,0 51,22.83348 51,51c0,28.16652 -22.83348,51 -51,51c-28.16652,0 -51,-22.83348 -51,-51z"/><path d="M-25.875,105c0,-19.88225 16.11775,-36 36,-36c19.88225,0 36,16.11775 36,36c0,19.88225 -16.11775,36 -36,36c-19.88225,0 -36,-16.11775 -36,-36z"/><path d="M53.125,167c0,-21.53911 17.46089,-39 39,-39c21.53911,0 39,17.46089 39,39c0,21.53911 -17.46089,39 -39,39c-21.53911,0 -39,-17.46089 -39,-39z"/><path d="M79.125,128.5c0,-17.94925 14.55075,-32.5 32.5,-32.5c17.94925,0 32.5,14.55075 32.5,32.5c0,17.94925 -14.55075,32.5 -32.5,32.5c-17.94925,0 -32.5,-14.55075 -32.5,-32.5z"/><path d="M65.125,109c0,-25.95738 21.04262,-47 47,-47c25.95738,0 47,21.04262 47,47c0,25.95738 -21.04262,47 -47,47c-25.95738,0 -47,-21.04262 -47,-47z"/><path d="M87.125,148c0,-23.74824 19.25176,-43 43,-43c23.74824,0 43,19.25176 43,43c0,23.74824 -19.25176,43 -43,43c-23.74824,0 -43,-19.25176 -43,-43z"/><path d="M160.125,144c0,-19.88225 16.11775,-36 36,-36c19.88225,0 36,16.11775 36,36c0,19.88225 -16.11775,36 -36,36c-19.88225,0 -36,-16.11775 -36,-36z"/><path d="M141.125,73c0,-21.53911 17.46089,-39 39,-39c21.53911,0 39,17.46089 39,39c0,21.53911 -17.46089,39 -39,39c-21.53911,0 -39,-17.46089 -39,-39z"/><path d="M144.125,88.5c0,-24.57667 19.92333,-44.5 44.5,-44.5c24.57667,0 44.5,19.92333 44.5,44.5c0,24.57667 -19.92333,44.5 -44.5,44.5c-24.57667,0 -44.5,-19.92333 -44.5,-44.5z"/><path d="M25.125,202c0,-18.22539 14.77461,-33 33,-33c18.22539,0 33,14.77461 33,33c0,18.22539 -14.77461,33 -33,33c-18.22539,0 -33,-14.77461 -33,-33z"/><path d="M91.125,233.5c0,-19.60611 15.89389,-35.5 35.5,-35.5c19.60611,0 35.5,15.89389 35.5,35.5c0,19.60611 -15.89389,35.5 -35.5,35.5c-19.60611,0 -35.5,-15.89389 -35.5,-35.5z"/><path d="M33.125,230c0,-20.43454 16.56547,-37 37,-37c20.43453,0 37,16.56546 37,37c0,20.43454 -16.56547,37 -37,37c-20.43453,0 -37,-16.56546 -37,-37z"/><path d="M74.125,270.5c0,-22.36753 18.13247,-40.5 40.5,-40.5c22.36753,0 40.5,18.13247 40.5,40.5c0,22.36753 -18.13247,40.5 -40.5,40.5c-22.36753,0 -40.5,-18.13247 -40.5,-40.5z"/><path d="M100.125,185c0,-28.16652 22.83348,-51 51,-51c28.16652,0 51,22.83348 51,51c0,28.16652 -22.83348,51 -51,51c-28.16652,0 -51,-22.83348 -51,-51z"/><path d="M63.125,185c0,-19.88225 16.11775,-36 36,-36c19.88225,0 36,16.11775 36,36c0,19.88225 -16.11775,36 -36,36c-19.88225,0 -36,-16.11775 -36,-36z"/><path d="M142.125,247c0,-21.53911 17.46089,-39 39,-39c21.53911,0 39,17.46089 39,39c0,21.53911 -17.46089,39 -39,39c-21.53911,0 -39,-17.46089 -39,-39z"/><path d="M168.125,208.5c0,-17.94925 14.55075,-32.5 32.5,-32.5c17.94925,0 32.5,14.55075 32.5,32.5c0,17.94925 -14.55075,32.5 -32.5,32.5c-17.94925,0 -32.5,-14.55075 -32.5,-32.5z"/><path d="M154.125,189c0,-25.95738 21.04262,-47 47,-47c25.95738,0 47,21.04262 47,47c0,25.95738 -21.04262,47 -47,47c-25.95738,0 -47,-21.04262 -47,-47z"/><path d="M176.125,228c0,-23.74824 19.25176,-43 43,-43c23.74824,0 43,19.25176 43,43c0,23.74824 -19.25176,43 -43,43c-23.74824,0 -43,-19.25176 -43,-43z"/><path d="M249.125,224c0,-19.88225 16.11775,-36 36,-36c19.88225,0 36,16.11775 36,36c0,19.88225 -16.11775,36 -36,36c-19.88225,0 -36,-16.11775 -36,-36z"/><path d="M230.125,153c0,-21.53911 17.46089,-39 39,-39c21.53911,0 39,17.46089 39,39c0,21.53911 -17.46089,39 -39,39c-21.53911,0 -39,-17.46089 -39,-39z"/><path d="M233.125,168.5c0,-24.57667 19.92333,-44.5 44.5,-44.5c24.57667,0 44.5,19.92333 44.5,44.5c0,24.57667 -19.92333,44.5 -44.5,44.5c-24.57667,0 -44.5,-19.92333 -44.5,-44.5z"/><path d="M106.125,259c0,-18.22539 14.77461,-33 33,-33c18.22539,0 33,14.77461 33,33c0,18.22539 -14.77461,33 -33,33c-18.22539,0 -33,-14.77461 -33,-33z"/><path d="M172.125,290.5c0,-19.60611 15.89389,-35.5 35.5,-35.5c19.60611,0 35.5,15.89389 35.5,35.5c0,19.60611 -15.89389,35.5 -35.5,35.5c-19.60611,0 -35.5,-15.89389 -35.5,-35.5z"/><path d="M114.125,287c0,-20.43453 16.56547,-37 37,-37c20.43453,0 37,16.56547 37,37c0,20.43453 -16.56547,37 -37,37c-20.43453,0 -37,-16.56547 -37,-37z"/><path d="M155.125,327.5c0,-22.36753 18.13247,-40.5 40.5,-40.5c22.36753,0 40.5,18.13247 40.5,40.5c0,22.36753 -18.13247,40.5 -40.5,40.5c-22.36753,0 -40.5,-18.13247 -40.5,-40.5z"/><path d="M181.125,242c0,-28.16652 22.83348,-51 51,-51c28.16652,0 51,22.83348 51,51c0,28.16652 -22.83348,51 -51,51c-28.16652,0 -51,-22.83348 -51,-51z"/><path d="M144.125,242c0,-19.88225 16.11775,-36 36,-36c19.88225,0 36,16.11775 36,36c0,19.88225 -16.11775,36 -36,36c-19.88225,0 -36,-16.11775 -36,-36z"/><path d="M223.125,304c0,-21.53911 17.46089,-39 39,-39c21.53911,0 39,17.46089 39,39c0,21.53911 -17.46089,39 -39,39c-21.53911,0 -39,-17.46089 -39,-39z"/><path d="M249.125,265.5c0,-17.94925 14.55075,-32.5 32.5,-32.5c17.94925,0 32.5,14.55075 32.5,32.5c0,17.94925 -14.55075,32.5 -32.5,32.5c-17.94925,0 -32.5,-14.55075 -32.5,-32.5z"/><path d="M235.125,246c0,-25.95738 21.04262,-47 47,-47c25.95738,0 47,21.04262 47,47c0,25.95738 -21.04262,47 -47,47c-25.95738,0 -47,-21.04262 -47,-47z"/><path d="M257.125,285c0,-23.74824 19.25176,-43 43,-43c23.74824,0 43,19.25176 43,43c0,23.74824 -19.25176,43 -43,43c-23.74824,0 -43,-19.25176 -43,-43z"/><path d="M330.125,281c0,-19.88225 16.11775,-36 36,-36c19.88225,0 36,16.11775 36,36c0,19.88225 -16.11775,36 -36,36c-19.88225,0 -36,-16.11775 -36,-36z"/><path d="M311.125,210c0,-21.53911 17.46089,-39 39,-39c21.53911,0 39,17.46089 39,39c0,21.53911 -17.46089,39 -39,39c-21.53911,0 -39,-17.46089 -39,-39z"/><path d="M314.125,225.5c0,-24.57667 19.92333,-44.5 44.5,-44.5c24.57667,0 44.5,19.92333 44.5,44.5c0,24.57667 -19.92333,44.5 -44.5,44.5c-24.57667,0 -44.5,-19.92333 -44.5,-44.5z"/></g></g></svg>