<svg xmlns="http://www.w3.org/2000/svg" xmlns:xlink="http://www.w3.org/1999/xlink" version="1.1" width="116.555379986763" height="153.33806431293488" viewBox="0.17059195041656494 -0.33835989236831665 116.555379986763 153.33806431293488">
  <defs>
    <linearGradient id="grad_1" x2="1">
      <stop offset="0" stop-color="#999900" stop-opacity="1"/>
      <stop offset="1" stop-color="#FFFFFF" stop-opacity="1"/>
    </linearGradient>
  <linearGradient id="grad_1-.276281476020813,0,0,1.276281476020813,-0.85,0.3" x2="60.8767" x1="56.7957" y1="66.4029" y2="66.4029" gradientUnits="userSpaceOnUse">
      <stop offset="0" stop-color="#999900" stop-opacity="1"/>
      <stop offset="1" stop-color="#FFFFFF" stop-opacity="1"/>
    </linearGradient></defs>
  <!-- Exported by Scratch - http://scratch.mit.edu/ -->
  <g id="ID0.07190670305863023">
    <g id="ID0.07051806431263685">
      <g id="ID0.1405035639181733">
        <g id="Bottom">
          <g id="Bottom_1_">
            <path id="ID0.8444251050241292" fill="#20891D" d="M 65.4043 146.1892 C 34.4813 146.1866 6.4771 125.9231 2.6496 123.0387 C 40.5513 107.6531 62.1804 43.6617 65.2473 34.0168 C 78.1263 99.5985 106.4355 125.9014 109.5535 128.6275 C 97.0357 140.28 82.1861 146.1892 65.4094 146.1892 C 65.4094 146.1892 65.4056 146.1892 65.4043 146.1892 Z " stroke-width="1.276281476020813"/>
            <path id="ID0.994631611276418" d="M 65.1746 35.2905 C 72.2554 70.5542 83.7419 93.9842 92.2254 107.5281 C 100.3259 120.4593 107.1158 126.911 109.0723 128.6365 C 96.6707 140.0732 81.9819 145.8701 65.403 145.8701 C 35.584 145.8701 8.4694 126.948 3.289 123.1191 C 24.377 114.2783 40.1824 90.5395 49.7852 72.0206 C 58.1193 55.9497 63.3278 40.9662 65.1746 35.2905 M 65.3188 32.7124 C 65.3188 32.7124 43.4906 106.6717 2.0101 122.9506 C 2.0101 122.9506 31.7807 146.5083 65.4056 146.5083 C 80.2743 146.5083 95.8947 141.9047 110.0333 128.6161 C 110.0321 128.6161 78.8959 103.444 65.3188 32.7124 L 65.3188 32.7124 Z " stroke-width="1.276281476020813"/>
          </g>
          <path id="Snow_10_" fill="#FFFFFF" stroke="#000000" stroke-width="0.6381407380104065" d="M 113.8303 124.5549 C 112.0613 123.4382 106.1764 122.2946 105.015 124.6992 C 104.7955 125.1535 105.0354 125.6079 105.3583 125.9218 C 106.7048 127.2351 102.6743 128.1119 102.0055 129.0002 C 101.5614 129.5899 101.3482 130.3339 101.1938 131.0436 C 100.5889 133.8118 99.5461 134.6273 96.723 134.9554 C 94.1385 135.2553 91.0844 137.1697 90.1042 139.7759 C 87.9945 139.4134 85.8797 139.3764 85.0667 139.5053 C 83.7943 139.7069 82.6992 140.3527 81.6463 141.0483 C 81.0847 141.5116 80.5321 141.9928 79.9935 142.4867 C 78.1901 144.1012 77.2827 143.4031 75.5929 143.4643 C 74.0499 143.5205 72.5706 143.8778 71.2688 144.5785 C 71.0506 144.4407 70.8183 144.3182 70.5733 144.2173 C 66.8261 142.6603 62.9117 145.5281 58.9897 144.1459 C 57.194 143.5141 55.4442 142.4803 53.4507 142.7585 C 52.6811 142.8683 51.3193 143.2614 50.0545 143.3635 C 48.9773 142.3578 48.4617 141.0879 47.4675 139.7695 C 45.5352 137.2118 41.5621 137.342 38.9942 138.6221 C 37.7294 139.2513 35.7538 137.7593 34.3218 137.9572 C 34.2311 137.9712 34.1214 137.9559 34.0244 137.9584 C 33.5139 137.67 32.9612 137.4403 32.4597 137.2361 C 31.2153 136.7307 29.9735 136.007 28.6551 136.0083 C 27.9914 135.619 27.3839 135.2298 26.8976 134.8979 C 26.3705 134.538 25.8243 133.5731 25.1964 132.7818 C 27.2537 133.2222 29.5561 133.0448 31.0724 131.5056 C 31.1642 131.4124 31.0826 131.2235 30.9447 131.2924 C 28.2505 132.6491 24.7994 131.1776 22.2979 129.9115 C 21.6751 129.5962 21.0561 129.3474 20.4371 129.1253 C 19.4212 128.648 18.3389 128.3008 17.3166 128.0724 C 16.6963 127.7801 15.9293 127.6627 15.3141 127.5567 C 14.4794 127.4138 13.7953 127.0386 13.0934 126.6799 C 12.3416 125.7865 11.775 124.7196 10.828 123.9423 C 9.5045 122.8575 8.6085 121.9845 8.6877 120.416 C 8.7821 120.3866 8.8753 120.3624 8.9672 120.3458 C 9.5594 120.2475 10.0928 119.9833 10.4272 119.4843 C 11.2006 118.3356 6.4708 116.9955 3.8301 117.9859 C 1.8213 118.7389 1.0134 120.7529 0.8219 122.638 C 0.6701 124.1274 1.8544 125.9984 3.1575 126.6493 C 5.3961 127.7661 7.7381 128.1885 9.1752 130.4105 C 10.0686 131.7902 10.8101 132.6427 12.3927 133.2821 C 13.2823 133.6408 14.3326 133.5961 15.2809 133.5527 C 21.3101 133.2745 21.6151 136.5686 24.0796 140.3323 C 25.2551 142.1281 25.4797 142.0617 27.5753 142.9934 C 28.3858 143.3533 31.4067 146.4304 32.7213 146.8299 C 36.3791 147.9364 39.3414 145.7629 42.8856 146.4508 C 44.5473 147.2077 45.5339 149.4692 47.2007 150.2886 C 49.6065 151.4717 51.6384 150.7327 54.1067 150.1214 C 57.0945 149.3799 60.6719 152.0703 63.7796 152.3243 C 66.2594 152.5272 68.7329 151.8942 70.8311 150.5975 C 71.2395 150.3473 71.5688 150.0576 71.8406 149.7487 C 72.7978 150.078 73.6938 150.6664 74.8118 151.1845 C 77.1423 152.263 79.146 151.4245 81.2136 150.124 C 82.398 149.3799 83.3565 148.1993 84.4018 147.2791 C 86.4668 145.454 89.0449 146.1879 91.4915 146.3372 C 93.2362 146.4419 94.6771 145.5204 95.2859 143.934 C 95.5182 143.3265 95.4773 142.8045 95.2719 142.3412 C 95.4237 142.0693 95.5756 141.8064 95.7377 141.5703 C 97.5641 138.9246 101.0419 139.8627 103.7106 138.9246 C 105.6723 138.2328 106.5504 135.7288 107.5254 134.1258 C 108.8821 131.8948 112.0524 132.45 114.1902 131.5426 C 117.3477 130.1974 116.0969 125.9869 113.8303 124.5549 Z "/>
          <path id="Snow_9_" fill="#FFFFFF" stroke="#000000" stroke-width="0.6381407380104065" d="M 93.0103 124.3022 C 93.1315 124.0036 92.7652 123.7279 92.5113 123.9308 C 90.2893 125.6768 88.5752 127.9039 85.4534 127.7903 C 83.0502 127.7022 80.9111 125.7138 78.416 126.477 C 77.5022 126.7565 76.7862 127.1458 75.9821 127.6423 C 74.2247 128.7258 73.2241 128.089 71.5305 127.3985 C 69.9402 126.7501 67.8382 127.9384 66.6768 128.8841 C 66.5402 128.9951 66.6717 129.2236 66.8363 129.1495 C 67.7616 128.7348 68.6474 128.685 69.5114 128.8254 C 71.108 129.6792 72.7851 131.138 74.5731 131.3448 C 75.0696 131.4022 75.6261 131.2222 76.0804 131.0244 C 77.6873 130.3173 79.1384 129.6384 80.9788 129.8196 C 83.89 130.1055 86.8063 131.0857 88.8764 129.1036 C 90.7309 128.1336 92.2037 126.3315 93.0103 124.3022 Z "/>
          <path id="Snow_8_" fill="#FFFFFF" stroke="#000000" stroke-width="0.6381407380104065" d="M 57.91 120.5972 C 52.9504 121.4536 48.551 116.9585 43.5199 116.4135 C 40.4084 116.074 37.6873 114.8833 34.9816 113.3977 C 33.4118 112.5349 23.8346 113.3773 24.9475 109.5612 C 25.2002 108.6959 24.7828 107.7323 23.7988 107.6225 C 18.3899 107.0278 21.2131 114.7123 23.8882 116.4608 C 27.2384 118.6496 33.9453 117.3248 36.9752 120.319 C 41.2954 124.5894 43.4255 120.7963 48.8829 121.2277 C 52.2701 122.5563 54.293 123.3948 58.1346 121.3693 C 58.5277 121.1639 58.3835 120.5168 57.91 120.5972 Z "/>
          <path id="Snow_7_" fill="#FFFFFF" stroke="#000000" stroke-width="0.6381407380104065" d="M 97.1978 107.6302 C 96.261 107.0367 95.2859 107.1975 94.5444 108.0079 C 94.4206 108.1432 94.2981 108.2811 94.1704 108.4176 C 93.8284 108.7941 93.8514 109.3263 94.0581 109.7577 C 93.3026 109.9122 92.5585 110.1138 91.9484 110.3576 C 89.8068 111.2076 88.579 113.1565 85.9486 113.0697 C 83.4994 112.9905 81.3629 113.2279 78.9125 112.743 C 78.3548 112.6306 77.8225 112.6306 77.3031 112.6881 C 76.2936 112.3128 75.3325 111.944 74.5731 111.69 C 71.3097 110.5975 68.5108 113.7155 64.9985 112.6064 C 62.5327 111.8279 60.8148 112.2095 58.5456 113.2356 C 58.335 113.33 58.4346 113.6338 58.6553 113.6134 C 66.59 112.8425 61.518 115.7294 66.396 115.8367 C 69.8228 115.9132 72.9676 114.0243 76.3765 116.2412 C 77.4256 116.9228 78.5194 117.3503 79.6438 117.6158 C 81.7407 120.6227 87.1853 118.7389 90.1093 118.4479 C 94.2496 118.0319 97.5551 116.7939 98.5417 112.4111 C 99.5985 110.8234 99.5449 109.1158 97.1978 107.6302 Z "/>
          <g id="Lights_4_">
            <path id="String_3_" d="M 97.8206 114.5106 C 97.1021 114.5642 97.2986 115.621 97.9916 115.6018 C 101.8498 115.501 100.1141 120.6521 99.3138 122.4759 C 98.2137 124.9761 95.924 126.7514 93.7556 128.2715 C 89.2491 131.4341 83.7394 133.046 78.3139 133.5872 C 67.611 134.6554 56.5916 130.5841 48.4323 123.793 C 41.8135 118.2871 38.993 108.7367 30.9345 105.0189 C 24.7394 102.1613 20.2916 106.0603 19.5833 112.1482 C 19.5616 112.332 19.8219 112.392 19.8934 112.2273 C 22.1869 106.9167 23.892 103.2359 30.6231 105.7923 C 35.8265 107.7693 38.6611 113.3441 41.6617 117.6439 C 47.5798 126.126 56.866 131.6243 66.8389 133.8897 C 76.5999 136.104 87.133 134.4525 95.3676 128.662 C 98.6017 126.3877 101.1045 123.1076 101.569 119.1052 C 101.8804 116.425 100.6348 114.3051 97.8206 114.5106 Z " stroke-width="1.276281476020813"/>
            <g id="Light_17_">
              <path id="Base_8_" fill="#B7B7B7" stroke="#000000" stroke-width="0.6381407380104065" d="M 18.0045 110.7392 C 17.6599 110.572 17.5795 110.0398 17.8169 109.5459 L 17.8169 109.5459 C 18.0556 109.0532 18.5265 108.7852 18.8698 108.9549 L 20.5813 109.7833 C 20.9246 109.9504 21.0076 110.4839 20.7702 110.9766 L 20.7702 110.9766 C 20.5303 111.4692 20.0593 111.7347 19.7173 111.5688 L 18.0045 110.7392 Z "/>
              <path id="Light_18_" fill="#CC99FF" stroke="#000000" stroke-width="0.6381407380104065" d="M 16.1769 110.9817 C 14.6441 109.893 13.4558 108.6652 13.9395 107.6672 C 14.422 106.6717 16.1182 106.8453 17.9267 107.3736 C 19.7607 107.9046 20.321 109.5318 19.8398 110.5286 C 19.3586 111.5254 17.7339 112.0908 16.1769 110.9817 Z "/>
              <path id="Highlight_10_" fill="#FFFFFF" d="M 17.9088 108.4917 C 16.9631 107.948 16.3862 108.045 16.4998 107.8088 C 16.6172 107.5689 16.8801 107.5408 17.8922 107.948 C 18.9196 108.3615 19.4327 108.9345 19.3178 109.1732 C 19.2029 109.4119 18.8724 109.0405 17.9088 108.4917 Z " stroke-width="1.276281476020813"/>
            </g>
            <g id="Light_19_">
              <path id="Base_9_" fill="#B7B7B7" stroke="#000000" stroke-width="0.6381407380104065" d="M 39.4294 110.2682 C 39.746 110.0551 40.2475 110.2504 40.5564 110.7035 L 40.5564 110.7035 C 40.864 111.1553 40.8602 111.6964 40.5424 111.9108 L 38.97 112.9791 C 38.6547 113.1922 38.1506 112.9995 37.8417 112.5464 L 37.8417 112.5464 C 37.5367 112.0946 37.5405 111.5509 37.8558 111.339 L 39.4294 110.2682 Z "/>
              <path id="Light_20_" fill="#00FFFF" stroke="#000000" stroke-width="0.6381407380104065" d="M 40.1327 108.5631 C 41.8416 107.7808 43.4995 107.3634 44.1211 108.2811 C 44.7439 109.1962 43.7471 110.5784 42.3853 111.8815 C 41.0095 113.205 39.321 112.8782 38.6969 111.9644 C 38.074 111.0493 38.3944 109.3595 40.1327 108.5631 Z "/>
              <path id="Highlight_11_" fill="#FFFFFF" d="M 41.4255 111.3097 C 42.3687 110.7609 42.5716 110.2121 42.721 110.4291 C 42.869 110.6511 42.7631 110.8911 41.9042 111.5649 C 41.0312 112.2478 40.2807 112.4073 40.1301 112.1903 C 39.9808 111.9708 40.4683 111.8674 41.4255 111.3097 Z " stroke-width="1.276281476020813"/>
            </g>
            <g id="Light_21_">
              <path id="Base_10_" fill="#B7B7B7" stroke="#000000" stroke-width="0.6381407380104065" d="M 53.4366 130.4667 C 53.1878 130.7551 52.653 130.699 52.2357 130.3416 L 52.2357 130.3416 C 51.8209 129.9842 51.6843 129.461 51.9344 129.1725 L 53.175 127.7303 C 53.4239 127.4419 53.9625 127.4993 54.3785 127.8541 L 54.3785 127.8541 C 54.7908 128.2128 54.9273 128.7373 54.6785 129.0245 L 53.4366 130.4667 Z "/>
              <path id="Light_22_" fill="#CC0000" stroke="#000000" stroke-width="0.6381407380104065" d="M 53.2018 132.2969 C 51.7558 133.4953 50.2638 134.3325 49.4253 133.6076 C 48.5842 132.8852 49.1879 131.2924 50.163 129.6792 C 51.147 128.043 52.8649 127.9167 53.7034 128.639 C 54.5419 129.3614 54.6733 131.0767 53.2018 132.2969 Z "/>
              <path id="Highlight_12_" fill="#FFFFFF" d="M 51.2376 129.983 C 50.4706 130.7564 50.4157 131.3396 50.2153 131.1699 C 50.0149 130.9951 50.0558 130.7347 50.7092 129.8617 C 51.3729 128.9734 52.0582 128.625 52.2586 128.7973 C 52.4616 128.9683 52.0174 129.1929 51.2376 129.983 Z " stroke-width="1.276281476020813"/>
            </g>
            <g id="Light_23_">
              <path id="Base_11_" fill="#B7B7B7" stroke="#000000" stroke-width="0.6381407380104065" d="M 75.5661 132.8839 C 75.621 132.5087 76.1098 132.2726 76.6509 132.3556 L 76.6509 132.3556 C 77.1921 132.4398 77.5852 132.8138 77.5226 133.1903 L 77.2316 135.0702 C 77.1716 135.448 76.6828 135.6816 76.1417 135.5999 L 76.1417 135.5999 C 75.6031 135.5131 75.21 135.1404 75.27 134.7639 L 75.5661 132.8839 Z "/>
              <path id="Light_24_" fill="#002699" stroke="#000000" stroke-width="0.6381407380104065" d="M 74.7978 131.2056 C 75.3951 129.4214 76.2195 127.9256 77.3159 128.0979 C 78.4096 128.2689 78.7389 129.9408 78.7632 131.8259 C 78.7887 133.734 77.3963 134.746 76.3025 134.5763 C 75.2087 134.4053 74.1928 133.018 74.7978 131.2056 Z "/>
              <path id="Highlight_13_" fill="#FFFFFF" d="M 77.686 132.136 C 77.931 131.0742 77.6694 130.5496 77.9298 130.5892 C 78.1901 130.63 78.2922 130.8751 78.2003 131.9612 C 78.1033 133.0639 77.7051 133.7212 77.4448 133.6829 C 77.1831 133.6433 77.4422 133.2171 77.686 132.136 Z " stroke-width="1.276281476020813"/>
            </g>
            <g id="Light_25_">
              <path id="Base_12_" fill="#B7B7B7" stroke="#000000" stroke-width="0.6381407380104065" d="M 102.1957 117.7651 C 102.4726 117.5073 102.9985 117.6235 103.3763 118.0229 L 103.3763 118.0229 C 103.7489 118.4262 103.8229 118.961 103.5434 119.2201 L 102.1497 120.5142 C 101.8677 120.7733 101.3406 120.6559 100.9654 120.2577 L 100.9654 120.2577 C 100.5978 119.8544 100.5174 119.3184 100.7994 119.0605 L 102.1957 117.7651 Z "/>
              <path id="Light_26_" fill="#0074FF" stroke="#000000" stroke-width="0.6381407380104065" d="M 102.6309 115.9745 C 104.2058 114.942 105.7795 114.2796 106.5325 115.0939 C 107.2868 115.9069 106.507 117.4218 105.3609 118.9176 C 104.2007 120.4325 102.4765 120.3649 101.7235 119.5545 C 100.9705 118.7427 101.033 117.021 102.6309 115.9745 Z "/>
              <path id="Highlight_14_" fill="#FFFFFF" d="M 104.322 118.4926 C 105.1745 117.8085 105.2907 117.2367 105.4719 117.4282 C 105.6519 117.6235 105.5817 117.8787 104.8325 118.6738 C 104.0744 119.4817 103.3558 119.751 103.1759 119.5583 C 102.9959 119.363 103.4618 119.1907 104.322 118.4926 Z " stroke-width="1.276281476020813"/>
            </g>
          </g>
        </g>
        <g id="Middle">
          <g id="Middle_1_">
            <path id="ID0.028397698886692524" fill="#20891D" d="M 77.2125 102.1383 C 50.2702 102.1371 27.3673 86.8 23.9813 84.4235 C 50.5152 71.1272 65.546 30.5887 68.0858 23.2412 C 80.1071 84.0407 93.2758 97.1876 96.1946 99.4313 C 90.1553 101.2271 83.7726 102.1383 77.2138 102.1383 C 77.215 102.1383 77.2138 102.1383 77.2125 102.1383 Z " stroke-width="1.276281476020813"/>
            <path id="ID0.5585026354528964" d="M 68.0003 24.446 C 79.3975 81.4447 91.8208 96.062 95.5309 99.2935 C 89.6907 100.9693 83.5352 101.8193 77.2112 101.8193 C 51.3231 101.8193 29.1669 87.5989 24.6016 84.4657 C 49.8286 71.4463 64.5722 34.027 68.0003 24.446 M 68.1675 21.9993 C 68.1675 21.9993 52.9631 69.9799 23.3636 84.3738 C 23.3636 84.3738 47.7061 102.4574 77.2125 102.4574 C 83.6067 102.4574 90.2395 101.6087 96.9234 99.5436 C 96.9234 99.5436 81.6782 91.1125 68.1675 21.9993 L 68.1675 21.9993 Z " stroke-width="1.276281476020813"/>
          </g>
          <path id="Snow_3_" fill="#FFFFFF" stroke="#000000" stroke-width="0.6381407380104065" d="M 88.237 84.0662 C 88.2344 83.4689 87.8962 82.7593 87.3308 82.4887 C 87.1381 82.3981 86.9441 82.3049 86.7501 82.2169 C 86.1618 81.9361 85.4445 82.0318 85.0961 82.6444 C 84.1299 84.3342 82.25 83.6782 80.4657 84.0126 C 79.6489 84.167 78.767 84.5039 78.1569 85.0974 C 76.5092 86.7055 75.1436 85.2378 73.3122 85.2608 C 70.0398 85.3055 68.1215 87.641 64.6922 86.6328 C 62.2927 85.9244 60.4243 86.4567 58.6783 88.1094 C 58.4869 88.292 58.6349 88.6072 58.8851 88.6097 C 61.3534 88.657 62.9641 89.2173 65.269 89.9907 C 66.3411 90.348 67.588 90.8177 68.7495 90.5037 C 70.5873 89.9983 72.1788 88.791 74.2477 89.5759 C 75.8622 90.1898 76.97 90.2727 78.61 89.7252 C 79.7587 89.3423 80.4262 87.9818 81.7254 87.8886 C 82.8013 87.807 83.844 87.7355 84.9136 87.5785 C 86.8459 87.2939 88.2498 86.0291 88.237 84.0662 Z "/>
          <path id="Snow_2_" fill="#FFFFFF" stroke="#000000" stroke-width="0.6381407380104065" d="M 72.3294 78.0843 C 69.7271 80.8487 67.0226 76.8463 64.502 76.6599 C 62.4 76.5068 60.7587 77.4219 58.9425 77.0556 C 58.8634 76.993 58.7817 76.9343 58.6834 76.8807 C 58.2367 76.6421 57.8066 76.4915 57.3829 76.4008 C 57.2476 76.314 57.1098 76.2222 56.9681 76.1175 C 55.2655 74.8144 52.5509 76.5489 50.8126 76.7442 C 50.551 76.7735 50.2804 76.7607 50.0264 76.7607 C 48.6314 76.2515 47.3015 75.3492 46.1529 74.6077 C 46.0214 74.5221 45.8517 74.6625 45.8925 74.8055 C 46.4962 76.9879 47.904 78.6637 49.8209 79.8174 C 50.8522 80.4339 52.0366 80.6024 53.2107 80.4875 C 53.9765 80.4109 55.0677 79.8366 55.9917 79.7345 C 57.3663 80.5768 58.6222 82.0943 60.5685 81.1805 C 62.3081 80.3586 63.9455 78.9062 65.948 79.4014 C 67.015 79.6694 67.9492 79.9502 69.0379 80.0765 C 70.5452 80.2514 71.7487 79.3567 72.5081 78.2234 C 72.5809 78.1174 72.4188 77.9911 72.3294 78.0843 Z "/>
          <path id="Snow_1_" fill="#FFFFFF" stroke="#000000" stroke-width="0.6381407380104065" d="M 97.462 95.0971 C 95.9853 93.4443 93.8641 94.0875 91.9867 93.7493 C 91.4022 93.6472 88.6212 95.822 88.0545 97.2349 C 87.4763 98.6643 81.6897 98.4728 81.2047 98.5801 C 78.0816 99.259 77.1665 99.6024 73.8112 98.6349 C 73.667 98.5928 73.5304 98.5724 73.3875 98.5392 C 73.2343 98.3439 69.8905 98.1308 68.2913 98.3669 C 64.9563 98.857 65.7055 97.933 62.9705 97.6599 C 59.0778 97.2642 55.7939 97.5284 51.9268 95.8041 C 50.6109 95.2196 48.8586 94.4896 47.3934 94.4845 C 47.1471 94.4845 46.9148 94.4692 46.6813 94.4577 C 44.8549 93.9267 42.6916 93.1814 40.7746 92.2242 C 39.3082 91.1393 37.9502 89.7992 36.2706 88.4974 C 36.2706 88.4949 36.2694 88.4949 36.2694 88.4949 C 34.9931 85.9576 28.5772 83.3846 28.3641 83.16 C 28.3283 83.123 28.4955 81.2469 27.3979 81.2558 C 25.0994 81.2724 19.8806 81.2635 20.917 85.0693 C 21.2501 86.2856 22.885 86.6672 23.9086 86.957 C 26.091 87.5721 28.1216 90.5637 30.6601 90.2102 C 31.3148 90.1145 31.8917 90.251 32.4176 90.5471 C 32.6626 90.7296 32.9076 90.9109 33.1514 91.0921 C 33.7015 91.6039 38.873 102.0822 42.9673 100.945 C 47.0271 99.8117 49.8401 99.8729 51.8668 101.5525 C 54.2739 103.5435 56.8634 106.5785 59.6215 106.7546 C 62.4063 106.9371 64.8364 105.7872 66.4496 108.7469 C 67.2434 110.2006 68.6856 110.4929 70.1317 110.5733 C 71.2701 110.6371 72.3562 109.454 73.0977 108.7571 C 74.1328 107.782 79.7063 108.1241 79.8965 108.0118 C 80.9979 108.0564 82.2946 107.9161 82.9009 106.8848 C 82.9979 106.7189 83.0795 106.5172 83.1612 106.3181 C 84.7374 105.3035 88.3429 104.1944 88.4067 104.1791 C 90.0149 104.0476 91.6893 103.7924 93.0345 103.1849 C 93.7135 103.0994 94.3797 102.922 95.1379 102.6271 C 96.6094 102.0579 98.0146 101.2258 98.6464 99.7185 C 99.3202 98.1155 98.5481 96.3108 97.462 95.0971 Z "/>
          <g id="Lights_3_">
            <path id="String_2_" d="M 90.2599 86.4924 C 88.8688 85.151 86.2409 86.5332 85.0986 87.4802 C 77.7192 93.5834 69.7041 96.2598 60.095 94.7793 C 55.7327 94.1054 51.3142 92.325 47.4356 90.2676 C 43.4867 88.172 40.938 84.8651 38.1519 81.5123 C 36.7926 79.871 34.0933 77.0275 31.6212 77.672 C 29.6046 78.1966 28.9422 79.3235 29.2639 81.3043 C 29.2996 81.5226 29.6455 81.4651 29.6416 81.2533 C 30.5057 77.8941 33.667 77.9745 35.5151 79.9578 C 36.0103 80.3867 36.4774 80.8423 36.9152 81.3273 C 37.8264 82.2781 38.6113 83.3642 39.4192 84.398 C 40.9087 86.3061 42.5614 87.9703 44.4771 89.4444 C 48.7284 92.7117 54.6363 94.7282 59.8321 95.7467 C 65.024 96.7677 70.5171 96.3887 75.5125 94.6721 C 77.5481 93.9765 79.4307 92.8968 81.2251 91.7251 C 82.0598 91.1815 82.8702 90.5752 83.6539 89.9613 C 84.1899 89.5427 84.7196 89.1215 85.2428 88.6901 C 85.6232 88.3966 86.0035 88.1069 86.3838 87.8146 C 88.3723 86.2844 90.773 86.9697 89.4099 90.6914 C 89.0474 91.0143 89.6128 91.5822 89.937 91.2248 C 90.958 90.0915 92.0684 88.2345 90.2599 86.4924 Z " stroke-width="1.276281476020813"/>
            <g id="Light_11_">
              <path id="Base_5_" fill="#B7B7B7" stroke="#000000" stroke-width="0.6381407380104065" d="M 92.7065 86.9442 C 93.0818 86.8791 93.4595 87.2671 93.554 87.807 L 93.554 87.807 C 93.6459 88.3456 93.4174 88.8344 93.0422 88.8982 L 91.1686 89.2198 C 90.7921 89.2849 90.4118 88.902 90.3186 88.3609 L 90.3186 88.3609 C 90.228 87.8223 90.4552 87.3322 90.8304 87.2684 L 92.7065 86.9442 Z "/>
              <path id="Light_12_" fill="#FFF533" stroke="#000000" stroke-width="0.6381407380104065" d="M 94.0492 85.6832 C 95.9304 85.6781 97.6113 85.9819 97.7989 87.0744 C 97.9878 88.1669 96.506 89.0143 94.7307 89.6372 C 92.9286 90.2689 91.5273 89.2747 91.3384 88.1847 C 91.1482 87.0948 92.1386 85.6883 94.0492 85.6832 Z "/>
              <path id="Highlight_7_" fill="#FFFFFF" d="M 94.0939 88.717 C 95.1787 88.6085 95.5909 88.1911 95.6369 88.4515 C 95.6815 88.7118 95.4837 88.8892 94.4231 89.1458 C 93.3472 89.4074 92.5955 89.2415 92.5496 88.9837 C 92.5049 88.7208 92.9899 88.8293 94.0939 88.717 Z " stroke-width="1.276281476020813"/>
            </g>
            <g id="Light_15_">
              <path id="Base_7_" fill="#B7B7B7" stroke="#000000" stroke-width="0.6381407380104065" d="M 44.8536 92.1182 C 44.5499 92.348 44.0381 92.1757 43.7075 91.7405 L 43.7075 91.7405 C 43.3795 91.3027 43.3566 90.7616 43.6641 90.5305 L 45.1829 89.3896 C 45.4867 89.1573 45.9997 89.3296 46.3316 89.7673 L 46.3316 89.7673 C 46.6583 90.2025 46.68 90.7437 46.375 90.9721 L 44.8536 92.1182 Z "/>
              <path id="Light_16_" fill="#FFFF00" stroke="#000000" stroke-width="0.6381407380104065" d="M 44.2346 93.854 C 42.5653 94.7193 40.9291 95.2171 40.2641 94.33 C 39.5979 93.4469 40.527 92.0174 41.8237 90.6492 C 43.1358 89.2606 44.8383 89.507 45.5045 90.3889 C 46.1708 91.2708 45.9308 92.9759 44.2346 93.854 Z "/>
              <path id="Highlight_9_" fill="#FFFFFF" d="M 42.8103 91.1751 C 41.8952 91.7673 41.7191 92.3276 41.5583 92.117 C 41.4 91.9038 41.4945 91.6575 42.3202 90.9441 C 43.1575 90.2191 43.9015 90.0213 44.0611 90.2332 C 44.2206 90.445 43.7394 90.5714 42.8103 91.1751 Z " stroke-width="1.276281476020813"/>
            </g>
            <g id="Light_13_">
              <path id="Base_6_" fill="#B7B7B7" stroke="#000000" stroke-width="0.6381407380104065" d="M 74.0473 95.8003 C 74.2362 96.1334 74.009 96.621 73.5368 96.8928 L 73.5368 96.8928 C 73.0633 97.1698 72.5209 97.1264 72.3307 96.7958 L 71.3786 95.152 C 71.1872 94.8189 71.4156 94.3288 71.8904 94.0556 L 71.8904 94.0556 C 72.3652 93.7825 72.9038 93.8259 73.0926 94.1565 L 74.0473 95.8003 Z "/>
              <path id="Light_14_" fill="#FF6D00" stroke="#000000" stroke-width="0.6381407380104065" d="M 75.6975 96.6261 C 76.3574 98.3873 76.6547 100.0708 75.6963 100.6259 C 74.7365 101.1786 73.4283 100.0848 72.2248 98.6375 C 71.0046 97.1685 71.4513 95.508 72.4086 94.9503 C 73.3645 94.3964 75.0262 94.8354 75.6975 96.6261 Z "/>
              <path id="Highlight_1_" fill="#FFFFFF" d="M 74.4161 96.7818 C 73.8086 95.8756 73.2483 95.7046 73.4589 95.5425 C 73.6682 95.3804 73.9158 95.4723 74.6408 96.2891 C 75.3746 97.1162 75.5801 97.859 75.3708 98.021 C 75.1602 98.1831 75.03 97.7032 74.4161 96.7818 Z " stroke-width="1.276281476020813"/>
            </g>
          </g>
        </g>
        <g id="Top">
          <g id="Top_1_">
            <path id="ID0.8162294235080481" fill="#20891D" d="M 79.5391 66.6526 C 59.2156 66.6513 42.2475 55.429 39.4767 53.4954 C 54.4577 44.55 65.4171 30.0999 72.0576 10.5383 C 72.3766 9.6015 72.8285 7.5837 73.1628 5.9935 C 77.1487 53.8796 85.3654 63.9762 87.9486 65.9953 C 85.2097 66.4318 82.3865 66.6526 79.5442 66.6526 C 79.5442 66.6526 79.5417 66.6526 79.5391 66.6526 Z " stroke-width="1.276281476020813"/>
            <path id="ID0.5223679905757308" d="M 73.0237 8.1147 C 76.8245 51.3219 84.1797 62.8123 87.2466 65.7809 C 84.7285 66.1485 82.1428 66.3335 79.5404 66.3335 C 60.132 66.3335 43.7867 56.0416 40.0663 53.5133 C 54.8954 44.5091 65.7579 30.0897 72.3613 10.6404 C 72.5528 10.0763 72.7914 9.128 73.0237 8.1147 M 73.2994 3.7204 C 73.2994 3.7204 72.3116 8.8039 71.7564 10.435 C 67.8382 21.9789 59.3484 41.4575 38.8921 53.4712 C 38.8921 53.4712 57.0434 66.9717 79.5391 66.9717 C 82.5716 66.9717 85.6793 66.7279 88.8343 66.1714 C 88.8356 66.1702 77.9029 62.3477 73.2994 3.7204 L 73.2994 3.7204 Z " stroke-width="1.276281476020813"/>
          </g>
          <path id="Snow_6_" fill="#FFFFFF" stroke="#000000" stroke-width="0.6381407380104065" d="M 91.2503 66.9296 C 90.5011 62.4957 84.6966 58.9643 80.6138 57.8003 C 78.6381 57.2362 75.2036 58.8341 76.5297 61.2884 C 77.1206 62.3911 76.2323 61.5143 75.099 61.4364 C 74.1634 61.3739 73.533 61.49 72.7302 61.6636 C 71.2625 61.3867 69.8011 61.0548 68.3423 60.7319 C 66.895 59.1289 65.1121 57.6548 62.7777 57.8909 C 60.506 58.1232 57.8934 58.635 55.7135 57.6637 C 53.5196 56.6848 51.9881 54.5751 49.8835 53.6486 C 47.8044 52.7309 45.3233 50.5051 43.1485 50.1516 C 39.8225 49.6091 33.339 49.9805 36.7378 55.4149 C 38.0434 57.5042 42.2972 56.8852 44.0598 58.8264 C 44.4746 59.2808 45.1931 59.6547 45.7943 59.7849 C 48.2243 60.312 49.9958 60.8225 51.9664 62.4996 C 53.8872 64.1307 56.5763 63.6648 59.0025 64.0426 C 59.7466 64.3119 61.4632 64.9054 61.5665 64.9768 C 62.5352 65.6405 64.1255 65.763 65.2205 65.8919 C 67.1184 66.1127 68.3321 67.5434 70.2848 67.4656 C 72.2197 67.389 75.515 66.9551 76.9279 67.1823 C 79.0274 67.5192 80.1632 68.1867 82.2972 67.897 C 85.5007 67.463 87.2224 70.2211 90.4871 68.3896 C 90.944 68.1344 91.3435 67.4669 91.2503 66.9296 Z "/>
          <path id="Snow_5_" fill="#FFFFFF" stroke="#000000" stroke-width="0.6381407380104065" d="M 78.8895 45.072 C 77.4116 44.9418 75.9222 45.4689 74.7352 46.3265 C 74.3255 46.6239 72.7034 45.4497 72.3345 45.234 C 71.6377 44.8282 70.706 44.8831 69.9402 44.9418 C 67.7731 45.1179 66.5147 46.0049 64.2059 45.3412 C 62.6922 44.9073 61.5104 45.1115 60.4281 46.2155 C 60.3668 46.278 60.4102 46.3648 60.4817 46.3891 C 62.6373 47.1063 64.6794 48.7719 66.8988 49.054 C 67.6825 49.1548 68.4176 48.9531 69.1591 48.7272 C 71.057 48.1465 71.7985 49.6372 73.3696 49.9614 C 75.293 51.0641 78.4722 50.9837 80.2015 50.3468 C 83.4548 49.1497 81.6769 45.3157 78.8895 45.072 Z "/>
          <path id="Snow_4_" fill="#FFFFFF" stroke="#000000" stroke-width="0.6381407380104065" d="M 68.3194 35.593 C 68.4253 35.4705 68.387 35.3186 68.2581 35.2331 C 67.454 34.6958 66.7061 34.7213 65.9978 33.9479 C 65.3916 33.2829 64.7598 32.5236 63.8434 32.2862 C 62.8339 32.0245 61.9941 32.3104 61.0816 32.7405 C 60.8939 32.8401 60.7242 32.9626 60.571 33.1119 C 60.4932 33.1745 60.4409 33.2242 60.4077 33.2651 C 60.1141 33.2281 59.8231 33.2115 59.5245 33.3059 C 57.4148 33.9658 57.9559 37.1667 60.0376 37.4334 C 60.908 37.5444 61.6253 37.39 62.4038 36.9918 C 62.7126 36.8323 63.0151 36.651 63.3355 36.5209 C 63.7375 36.3575 64.1931 36.4864 64.6169 36.3077 C 64.7496 36.2528 64.8747 36.1724 64.9908 36.0793 C 66.0973 36.6306 67.4642 36.6153 68.3194 35.593 Z "/>
          <g id="Lights_2_">
            <path id="String_1_" d="M 84.001 54.9363 C 83.2212 52.8088 81.2915 52.9453 79.446 53.5043 C 76.5335 54.3875 73.9235 56.011 71.4577 58.1857 C 68.6027 60.7064 66.2531 64.0298 62.7982 65.204 C 58.1997 66.7662 53.1086 64.3144 48.4642 64.3706 C 45.8504 64.4038 41.3413 64.9054 42.4096 69.2103 C 42.4772 69.4885 42.8027 69.3417 42.7656 69.0648 C 41.8148 61.7887 56.7473 66.9921 60.178 66.5237 C 63.4886 66.0719 66.0374 64.7356 68.5989 62.1575 C 70.549 60.1984 72.4813 58.2878 74.6637 56.7499 C 75.8469 55.9165 77.0976 55.3983 78.3611 54.847 C 78.9827 54.5917 79.6132 54.4041 80.2539 54.2829 C 81.3681 53.9217 84.9455 55.0193 82.6265 56.2509 C 82.3406 56.3568 82.4159 56.8597 82.6941 56.8469 C 83.4382 56.8125 84.4681 56.2113 84.001 54.9363 Z " stroke-width="1.276281476020813"/>
            <g id="Light_4_">
              <path id="Base" fill="#B7B7B7" stroke="#000000" stroke-width="0.6381407380104065" d="M 60.1448 68.433 C 59.9916 68.7712 59.527 68.8376 59.1084 68.5836 L 59.1084 68.5836 C 58.6873 68.3309 58.4716 67.851 58.6247 67.5141 L 59.3879 65.8281 C 59.5411 65.4912 60.0044 65.4235 60.4243 65.6775 L 60.4243 65.6775 C 60.8442 65.9315 61.0611 66.4101 60.908 66.7483 L 60.1448 68.433 Z "/>
              <path id="Light_1_" fill="url(#grad_1-.276281476020813,0,0,1.276281476020813,-0.85,0.3)" stroke="#000000" stroke-width="0.6381407380104065" d="M 60.3043 70.267 C 59.3203 71.7654 58.2291 72.9153 57.3791 72.401 C 56.5291 71.8892 56.7243 70.1956 57.2272 68.4075 C 57.7377 66.5901 59.1595 66.0783 60.0082 66.5913 C 60.8582 67.1057 61.3036 68.7457 60.3043 70.267 Z "/>
              <path id="Highlight_2_" fill="#FFFFFF" d="M 58.1959 68.4585 C 57.7007 69.3877 57.7709 69.9697 57.568 69.8471 C 57.365 69.7246 57.3484 69.4604 57.7275 68.4611 C 58.1117 67.4464 58.6209 66.9512 58.8238 67.0738 C 59.0255 67.1963 58.6962 67.5154 58.1959 68.4585 Z " stroke-width="1.276281476020813"/>
            </g>
            <g id="Light_5_">
              <path id="Base_2_" fill="#B7B7B7" stroke="#000000" stroke-width="0.6381407380104065" d="M 40.2948 67.3163 C 39.977 67.2103 39.8289 66.6973 39.9604 66.1714 L 39.9604 66.1714 C 40.0931 65.6456 40.4568 65.3061 40.7746 65.4133 L 42.3547 65.9455 C 42.6712 66.0527 42.8205 66.5645 42.6865 67.0904 L 42.6865 67.0904 C 42.5551 67.6162 42.1913 67.957 41.8748 67.8497 L 40.2948 67.3163 Z "/>
              <path id="Light_6_" fill="#FF00BF" stroke="#000000" stroke-width="0.6381407380104065" d="M 38.7683 67.86 C 37.3032 67.0419 36.1111 66.0323 36.3804 64.9654 C 36.6471 63.9035 38.1225 63.7899 39.7409 64.0081 C 41.3822 64.2277 42.0969 65.7375 41.8276 66.8006 C 41.5608 67.8638 40.2565 68.6921 38.7683 67.86 Z "/>
              <path id="Highlight_4_" fill="#FFFFFF" d="M 39.8889 65.1147 C 39.0032 64.7382 38.5233 64.9309 38.5871 64.6756 C 38.6509 64.4217 38.8704 64.3515 39.7945 64.5825 C 40.73 64.8186 41.2532 65.2972 41.1882 65.5512 C 41.1243 65.8051 40.7887 65.4963 39.8889 65.1147 Z " stroke-width="1.276281476020813"/>
            </g>
            <g id="Light_3_">
              <path id="Base_1_" fill="#B7B7B7" stroke="#000000" stroke-width="0.6381407380104065" d="M 77.797 57.4532 C 77.9897 57.7582 77.8417 58.2713 77.4601 58.5967 L 77.4601 58.5967 C 77.081 58.9234 76.6139 58.94 76.4174 58.6324 L 75.4372 57.1035 C 75.2406 56.7984 75.3912 56.2854 75.7716 55.9599 L 75.7716 55.9599 C 76.1519 55.6345 76.619 55.6179 76.8181 55.9242 L 77.797 57.4532 Z "/>
              <path id="Light_2_" fill="#FFF533" stroke="#000000" stroke-width="0.6381407380104065" d="M 79.2954 58.0862 C 80.0356 59.7632 80.453 61.4007 79.6834 62.0593 C 78.9125 62.7191 77.6822 61.7759 76.5054 60.4728 C 75.3121 59.1493 75.5354 57.4493 76.3038 56.7908 C 77.0759 56.1322 78.5475 56.3849 79.2954 58.0862 Z "/>
              <path id="Highlight_3_" fill="#FFFFFF" d="M 76.9662 59.4901 C 77.4741 60.409 77.9578 60.5903 77.774 60.7485 C 77.5877 60.9055 77.3771 60.8085 76.7632 59.9789 C 76.143 59.1353 75.9783 58.3887 76.1608 58.2317 C 76.3446 58.076 76.4493 58.5571 76.9662 59.4901 Z " stroke-width="1.276281476020813"/>
            </g>
          </g>
          <g id="Lights">
            <path id="String" d="M 77.7817 33.1221 C 73.51 31.8765 70.2759 36.5604 66.9997 38.2375 C 63.7081 39.9247 60.1065 41.312 56.2304 40.6879 C 54.5623 40.4199 52.8891 40.1481 51.3193 40.7683 C 49.2083 41.6043 48.9301 44.6623 51.4967 44.6393 C 51.9204 44.6342 51.4724 44.0037 51.0462 43.9195 C 49.6614 42.9023 51.7098 41.1921 53.3652 41.3784 C 54.0263 41.3835 54.6887 41.4448 55.3472 41.5622 C 56.2113 41.6834 57.0625 41.8468 57.9317 41.9234 C 60.5889 42.1531 63.2882 41.021 65.5996 40.0255 C 68.1687 38.9177 70.1534 37.4092 72.3039 35.7283 C 73.5508 34.7532 77.0581 32.2172 78.3241 34.8783 C 78.9342 36.1559 77.94 38.1149 77.409 39.2151 C 77.1806 39.6912 77.9412 40.0932 78.1799 39.6184 C 78.9469 38.106 80.661 33.9606 77.7817 33.1221 Z " stroke-width="1.276281476020813"/>
            <g id="Light_7_">
              <path id="Base_3_" fill="#B7B7B7" stroke="#000000" stroke-width="0.6381407380104065" d="M 59.6011 42.4262 C 59.2501 42.5743 58.7945 42.2833 58.58 41.7804 L 58.58 41.7804 C 58.3669 41.275 58.4805 40.7466 58.8315 40.5986 L 60.5851 39.8622 C 60.9361 39.7141 61.393 40.0038 61.6061 40.5067 L 61.6061 40.5067 C 61.818 41.0121 59.6866 41.8557 59.3343 42.0025 L 59.6011 42.4262 Z "/>
              <path id="Light_8_" fill="#00FFFF" stroke="#000000" stroke-width="0.6381407380104065" d="M 58.5749 43.959 C 56.7448 44.3904 55.0396 44.4747 54.6095 43.4524 C 54.1794 42.4313 55.4327 41.2712 57.0204 40.2616 C 58.6324 39.2368 60.2239 39.889 60.6527 40.9087 C 61.0828 41.9297 60.4345 43.5225 58.5749 43.959 Z "/>
              <path id="Highlight_5_" fill="#FFFFFF" d="M 57.8487 41.0121 C 56.8162 41.3644 56.5086 41.8634 56.4053 41.6196 C 56.3032 41.3758 56.455 41.1602 57.4276 40.6675 C 58.418 40.1698 59.1876 40.1608 59.2897 40.4046 C 59.3943 40.6509 58.8966 40.6535 57.8487 41.0121 Z " stroke-width="1.276281476020813"/>
            </g>
            <g id="Light_9_">
              <path id="Base_4_" fill="#B7B7B7" stroke="#000000" stroke-width="0.6381407380104065" d="M 77.7766 33.9645 C 78.1237 34.1189 78.2246 34.6498 78.0025 35.1501 L 78.0025 35.1501 C 77.7791 35.6517 77.3184 35.9299 76.9674 35.7742 L 75.233 35.0008 C 74.8858 34.8426 74.7824 34.3116 75.0071 33.8113 L 75.0071 33.8113 C 75.2279 33.3136 75.6912 33.0328 76.0421 33.1898 L 77.7766 33.9645 Z "/>
              <path id="Light_10_" fill="#CC0099" stroke="#000000" stroke-width="0.6381407380104065" d="M 79.5966 33.6671 C 81.1638 34.7073 82.3891 35.8968 81.936 36.9089 C 81.4842 37.9209 79.7829 37.7997 77.9604 37.3288 C 76.111 36.8527 75.4984 35.2459 75.9502 34.2338 C 76.4008 33.223 78.0076 32.6078 79.5966 33.6671 Z "/>
              <path id="Highlight_6_" fill="#FFFFFF" d="M 77.9412 36.2095 C 78.9048 36.7225 79.4792 36.6077 79.3732 36.8489 C 79.2622 37.0901 79.0018 37.1245 77.977 36.7506 C 76.9368 36.3677 76.4046 35.8125 76.5144 35.57 C 76.6228 35.3301 76.9649 35.69 77.9412 36.2095 Z " stroke-width="1.276281476020813"/>
            </g>
          </g>
          <g id="Star_2_">
            <path id="Star" fill="#FF0000" stroke="#000000" stroke-width="0.6381407380104065" d="M 78.2552 21.5233 C 76.6279 22.506 71.847 17.4264 71.847 17.4264 C 71.847 17.4264 66.276 21.6292 64.8377 20.3848 C 63.398 19.1405 66.7534 13.022 66.7534 13.022 C 66.7534 13.022 61.0356 9.0221 61.7746 7.2698 C 62.5135 5.5162 69.3685 6.8167 69.3685 6.8167 C 69.3685 6.8167 71.4041 0.143 73.2994 0.3026 C 75.1972 0.4634 76.0791 7.3859 76.0791 7.3859 C 76.0791 7.3859 83.0553 7.2596 83.4867 9.1127 C 83.9219 10.9646 77.6107 13.9434 77.6107 13.9434 C 77.6107 13.9434 79.8863 20.5405 78.2552 21.5233 Z "/>
            <path id="Star_1_" fill="#FFFFFF" d="M 75.0862 16.6823 C 74.2668 17.1763 71.8636 14.6224 71.8636 14.6224 C 71.8636 14.6224 69.0647 16.7347 68.3423 16.1093 C 67.6199 15.4839 69.3046 12.4106 69.3046 12.4106 C 69.3046 12.4106 66.433 10.3992 66.8031 9.5199 C 67.1745 8.6392 70.6179 9.2927 70.6179 9.2927 C 70.6179 9.2927 71.6415 5.9386 72.5949 6.0203 C 73.547 6.1007 73.9886 9.5786 73.9886 9.5786 C 73.9886 9.5786 77.4958 9.516 77.7128 10.4464 C 77.9323 11.3781 74.762 12.8739 74.762 12.8739 C 74.762 12.8739 75.903 16.1884 75.0862 16.6823 Z " stroke-width="1.276281476020813"/>
          </g>
        </g>
      </g>
    </g>
  </g>
</svg>