<svg xmlns="http://www.w3.org/2000/svg" xmlns:xlink="http://www.w3.org/1999/xlink" version="1.1" width="116.55536472613335" height="153.33804905230522" viewBox="0.1373764285707466 -0.29225784448146896 116.55536472613335 153.33804905230522">
  <!-- Exported by Scratch - http://scratch.mit.edu/ -->
  <g id="ID0.07190670305863023">
    <g id="ID0.07051806431263685">
      <g id="ID0.1405035639181733">
        <g id="Bottom">
          <g id="Bottom_1_">
            <path id="ID0.8444251050241292" fill="#20891D" d="M 65.3711 146.2353 C 34.4481 146.2328 6.4439 125.9692 2.6163 123.0848 C 40.518 107.6993 62.1472 43.7078 65.2141 34.0629 C 78.093 99.6447 106.4022 125.9475 109.5202 128.6737 C 97.0024 140.3261 82.1529 146.2353 65.3762 146.2353 C 65.3762 146.2353 65.3724 146.2353 65.3711 146.2353 Z " stroke-width="1.276281474180223"/>
            <path id="ID0.994631611276418" d="M 65.1413 35.3367 C 72.2222 70.6003 83.7087 94.0303 92.1921 107.5742 C 100.2927 120.5055 107.0825 126.9571 109.039 128.6826 C 96.6374 140.1194 81.9487 145.9162 65.3698 145.9162 C 35.5508 145.9162 8.4362 126.9941 3.2557 123.1652 C 24.3437 114.3244 40.1492 90.5856 49.7519 72.0668 C 58.0861 55.9958 63.2946 41.0123 65.1413 35.3367 M 65.2856 32.7586 C 65.2856 32.7586 43.4573 106.7178 1.9769 122.9968 C 1.9769 122.9968 31.7474 146.5544 65.3724 146.5544 C 80.241 146.5544 95.8614 141.9508 110.0001 128.6622 C 109.9988 128.6622 78.8626 103.4901 65.2856 32.7586 L 65.2856 32.7586 Z " stroke-width="1.276281474180223"/>
          </g>
          <path id="Snow_10_" fill="#FFFFFF" stroke="#000000" stroke-width="0.6381407370901115" d="M 113.797 124.6011 C 112.0281 123.4843 106.1432 122.3408 104.9817 124.7453 C 104.7622 125.1996 105.0022 125.654 105.3251 125.968 C 106.6715 127.2813 102.641 128.1581 101.9723 129.0463 C 101.5281 129.636 101.315 130.3801 101.1606 131.0897 C 100.5556 133.8579 99.5129 134.6735 96.6897 135.0015 C 94.1053 135.3014 91.0511 137.2158 90.0709 139.822 C 87.9613 139.4595 85.8465 139.4225 85.0335 139.5514 C 83.761 139.7531 82.666 140.3989 81.613 141.0944 C 81.0515 141.5577 80.4988 142.0389 79.9602 142.5328 C 78.1569 144.1473 77.2494 143.4492 75.5596 143.5104 C 74.0166 143.5666 72.5374 143.924 71.2356 144.6246 C 71.0173 144.4868 70.7851 144.3643 70.54 144.2635 C 66.7929 142.7064 62.8785 145.5742 58.9565 144.192 C 57.1608 143.5602 55.411 142.5264 53.4174 142.8047 C 52.6478 142.9144 51.286 143.3075 50.0212 143.4096 C 48.9441 142.4039 48.4284 141.134 47.4342 139.8156 C 45.5019 137.2579 41.5289 137.3881 38.961 138.6682 C 37.6962 139.2974 35.7205 137.8055 34.2885 138.0033 C 34.1979 138.0173 34.0881 138.002 33.9911 138.0046 C 33.4806 137.7161 32.928 137.4864 32.4264 137.2822 C 31.182 136.7768 29.9402 136.0531 28.6218 136.0544 C 27.9582 135.6651 27.3506 135.2759 26.8644 134.944 C 26.3373 134.5841 25.791 133.6193 25.1631 132.828 C 27.2205 133.2683 29.5229 133.0909 31.0391 131.5517 C 31.131 131.4585 31.0493 131.2696 30.9115 131.3386 C 28.2172 132.6952 24.7662 131.2237 22.2647 129.9576 C 21.6418 129.6424 21.0228 129.3935 20.4038 129.1714 C 19.3879 128.6941 18.3056 128.3469 17.2833 128.1185 C 16.6631 127.8262 15.896 127.7088 15.2809 127.6029 C 14.4462 127.4599 13.7621 127.0847 13.0601 126.7261 C 12.3084 125.8327 11.7417 124.7657 10.7947 123.9884 C 9.4712 122.9036 8.5753 122.0306 8.6544 120.4621 C 8.7488 120.4327 8.842 120.4085 8.9339 120.3919 C 9.5261 120.2936 10.0596 120.0294 10.394 119.5304 C 11.1674 118.3817 6.4375 117.0416 3.7969 118.032 C 1.788 118.785 0.9801 120.799 0.7887 122.6841 C 0.6368 124.1735 1.8212 126.0445 3.1243 126.6954 C 5.3629 127.8122 7.7048 128.2346 9.1419 130.4566 C 10.0353 131.8363 10.7769 132.6889 12.3594 133.3283 C 13.249 133.6869 14.2994 133.6422 15.2477 133.5988 C 21.2768 133.3206 21.5819 136.6147 24.0464 140.3785 C 25.2218 142.1742 25.4464 142.1078 27.5421 143.0395 C 28.3525 143.3994 31.3735 146.4765 32.6881 146.876 C 36.3459 147.9825 39.3081 145.809 42.8524 146.4969 C 44.5141 147.2538 45.5006 149.5154 47.1675 150.3347 C 49.5733 151.5178 51.6051 150.7789 54.0734 150.1675 C 57.0612 149.426 60.6386 152.1164 63.7464 152.3704 C 66.2262 152.5733 68.6996 151.9403 70.7978 150.6436 C 71.2062 150.3934 71.5355 150.1037 71.8074 149.7949 C 72.7646 150.1241 73.6605 150.7125 74.7785 151.2307 C 77.109 152.3091 79.1128 151.4706 81.1804 150.1701 C 82.3648 149.426 83.3232 148.2455 84.3685 147.3253 C 86.4335 145.5002 89.0116 146.234 91.4583 146.3834 C 93.2029 146.488 94.6439 145.5665 95.2527 143.9801 C 95.4849 143.3726 95.4441 142.8506 95.2386 142.3873 C 95.3905 142.1155 95.5424 141.8526 95.7045 141.6164 C 97.5308 138.9707 101.0087 139.9088 103.6774 138.9707 C 105.639 138.279 106.5171 135.7749 107.4922 134.1719 C 108.8489 131.941 112.0192 132.4961 114.1569 131.5887 C 117.3145 130.2435 116.0637 126.033 113.797 124.6011 Z "/>
          <path id="Snow_9_" fill="#FFFFFF" stroke="#000000" stroke-width="0.6381407370901115" d="M 92.977 124.3484 C 93.0983 124.0497 92.732 123.774 92.478 123.977 C 90.256 125.7229 88.542 127.95 85.4202 127.8364 C 83.0169 127.7484 80.8779 125.7599 78.3828 126.5231 C 77.4689 126.8026 76.753 127.1919 75.9489 127.6884 C 74.1915 128.7719 73.1909 128.1351 71.4972 127.4446 C 69.907 126.7963 67.8049 127.9845 66.6435 128.9302 C 66.507 129.0412 66.6384 129.2697 66.8031 129.1957 C 67.7284 128.7809 68.6141 128.7311 69.4781 128.8715 C 71.0748 129.7253 72.7518 131.1841 74.5399 131.3909 C 75.0364 131.4483 75.5928 131.2684 76.0472 131.0705 C 77.654 130.3635 79.1051 129.6845 80.9455 129.8657 C 83.8567 130.1516 86.773 131.1318 88.8432 129.1497 C 90.6976 128.1798 92.1704 126.3776 92.977 124.3484 Z "/>
          <path id="Snow_8_" fill="#FFFFFF" stroke="#000000" stroke-width="0.6381407370901115" d="M 57.8767 120.6433 C 52.9171 121.4997 48.5178 117.0046 43.4867 116.4597 C 40.3751 116.1202 37.6541 114.9294 34.9484 113.4438 C 33.3785 112.581 23.8013 113.4234 24.9142 109.6073 C 25.1669 108.742 24.7496 107.7784 23.7656 107.6686 C 18.3567 107.0739 21.1798 114.7584 23.8549 116.5069 C 27.2052 118.6957 33.912 117.3709 36.9419 120.3651 C 41.2621 124.6355 43.3922 120.8424 48.8496 121.2738 C 52.2369 122.6024 54.2598 123.4409 58.1014 121.4155 C 58.4945 121.21 58.3502 120.5629 57.8767 120.6433 Z "/>
          <path id="Snow_7_" fill="#FFFFFF" stroke="#000000" stroke-width="0.6381407370901115" d="M 97.1645 107.6763 C 96.2277 107.0828 95.2527 107.2436 94.5111 108.0541 C 94.3873 108.1894 94.2648 108.3272 94.1372 108.4638 C 93.7951 108.8403 93.8181 109.3725 94.0249 109.8039 C 93.2693 109.9583 92.5252 110.1599 91.9152 110.4037 C 89.7736 111.2537 88.5458 113.2026 85.9154 113.1158 C 83.4662 113.0367 81.3297 113.2741 78.8792 112.7891 C 78.3215 112.6768 77.7893 112.6768 77.2698 112.7342 C 76.2603 112.359 75.2993 111.9901 74.5399 111.7361 C 71.2764 110.6436 68.4775 113.7616 64.9652 112.6525 C 62.4994 111.874 60.7816 112.2556 58.5123 113.2817 C 58.3018 113.3762 58.4013 113.6799 58.6221 113.6595 C 66.5567 112.8886 61.4848 115.7756 66.3627 115.8828 C 69.7896 115.9594 72.9343 114.0705 76.3433 116.2874 C 77.3924 116.9689 78.4861 117.3965 79.6105 117.6619 C 81.7075 120.6688 87.1521 118.785 90.0761 118.4941 C 94.2163 118.078 97.5219 116.84 98.5084 112.4572 C 99.5652 110.8695 99.5116 109.1619 97.1645 107.6763 Z "/>
          <g id="Lights_4_">
            <path id="String_3_" d="M 97.7873 114.5567 C 97.0688 114.6103 97.2653 115.6671 97.9584 115.6479 C 101.8166 115.5471 100.0808 120.6982 99.2806 122.522 C 98.1804 125.0222 95.8908 126.7975 93.7224 128.3176 C 89.2158 131.4802 83.7061 133.0922 78.2807 133.6333 C 67.5778 134.7016 56.5584 130.6302 48.3991 123.8391 C 41.7803 118.3332 38.9597 108.7828 30.9013 105.065 C 24.7062 102.2074 20.2584 106.1065 19.55 112.1943 C 19.5283 112.3781 19.7887 112.4381 19.8602 112.2735 C 22.1536 106.9629 23.8587 103.2821 30.5899 105.8384 C 35.7933 107.8154 38.6279 113.3902 41.6284 117.69 C 47.5465 126.1722 56.8328 131.6704 66.8056 133.9358 C 76.5666 136.1501 87.0998 134.4986 95.3343 128.7081 C 98.5684 126.4338 101.0712 123.1538 101.5358 119.1513 C 101.8472 116.4711 100.6015 114.3512 97.7873 114.5567 Z " stroke-width="1.276281474180223"/>
            <g id="Light_17_">
              <path id="Base_8_" fill="#B7B7B7" stroke="#000000" stroke-width="0.6381407370901115" d="M 17.9713 110.7853 C 17.6267 110.6181 17.5463 110.0859 17.7836 109.592 L 17.7836 109.592 C 18.0223 109.0993 18.4933 108.8313 18.8366 109.0011 L 20.5481 109.8294 C 20.8914 109.9966 20.9743 110.5301 20.737 111.0227 L 20.737 111.0227 C 20.497 111.5153 20.0261 111.7808 19.684 111.6149 L 17.9713 110.7853 Z "/>
              <path id="Light_18_" fill="#EA0000" stroke="#000000" stroke-width="0.6381407370901115" d="M 16.1436 111.0278 C 14.6108 109.9391 13.4226 108.7114 13.9063 107.7133 C 14.3887 106.7178 16.0849 106.8914 17.8934 107.4198 C 19.7274 107.9507 20.2877 109.578 19.8065 110.5747 C 19.3254 111.5715 17.7007 112.1369 16.1436 111.0278 Z "/>
              <path id="Highlight_10_" fill="#FFFFFF" d="M 17.8755 108.5378 C 16.9298 107.9941 16.3529 108.0911 16.4665 107.855 C 16.5839 107.615 16.8469 107.587 17.8589 107.9941 C 18.8864 108.4076 19.3994 108.9807 19.2845 109.2193 C 19.1697 109.458 18.8391 109.0866 17.8755 108.5378 Z " stroke-width="1.276281474180223"/>
            </g>
            <g id="Light_19_">
              <path id="Base_9_" fill="#B7B7B7" stroke="#000000" stroke-width="0.6381407370901115" d="M 39.3962 110.3144 C 39.7127 110.1012 40.2143 110.2965 40.5231 110.7496 L 40.5231 110.7496 C 40.8307 111.2014 40.8269 111.7425 40.5091 111.9569 L 38.9367 113.0252 C 38.6215 113.2383 38.1174 113.0456 37.8085 112.5925 L 37.8085 112.5925 C 37.5035 112.1407 37.5073 111.597 37.8225 111.3852 L 39.3962 110.3144 Z "/>
              <path id="Light_20_" fill="#FFF533" stroke="#000000" stroke-width="0.6381407370901115" d="M 40.0994 108.6093 C 41.8084 107.8269 43.4663 107.4095 44.0878 108.3272 C 44.7106 109.2423 43.7139 110.6245 42.3521 111.9276 C 40.9762 113.2511 39.2877 112.9244 38.6636 112.0105 C 38.0408 111.0954 38.3611 109.4057 40.0994 108.6093 Z "/>
              <path id="Highlight_11_" fill="#FFFFFF" d="M 41.3923 111.3558 C 42.3355 110.807 42.5384 110.2582 42.6877 110.4752 C 42.8358 110.6973 42.7298 110.9372 41.8709 111.6111 C 40.9979 112.2939 40.2475 112.4534 40.0969 112.2364 C 39.9475 112.0169 40.4351 111.9135 41.3923 111.3558 Z " stroke-width="1.276281474180223"/>
            </g>
            <g id="Light_21_">
              <path id="Base_10_" fill="#B7B7B7" stroke="#000000" stroke-width="0.6381407370901115" d="M 53.4034 130.5128 C 53.1545 130.8012 52.6197 130.7451 52.2024 130.3877 L 52.2024 130.3877 C 51.7876 130.0304 51.651 129.5071 51.9012 129.2186 L 53.1417 127.7764 C 53.3906 127.488 53.9292 127.5454 54.3453 127.9002 L 54.3453 127.9002 C 54.7575 128.2589 54.8941 128.7834 54.6452 129.0706 L 53.4034 130.5128 Z "/>
              <path id="Light_22_" fill="#FF6D00" stroke="#000000" stroke-width="0.6381407370901115" d="M 53.1685 132.343 C 51.7225 133.5414 50.2305 134.3787 49.392 133.6537 C 48.551 132.9313 49.1546 131.3386 50.1297 129.7253 C 51.1137 128.0891 52.8316 127.9628 53.6701 128.6852 C 54.5086 129.4075 54.6401 131.1229 53.1685 132.343 Z "/>
              <path id="Highlight_12_" fill="#FFFFFF" d="M 51.2043 130.0291 C 50.4373 130.8025 50.3824 131.3858 50.182 131.216 C 49.9817 131.0412 50.0225 130.7808 50.676 129.9078 C 51.3396 129.0195 52.025 128.6711 52.2254 128.8434 C 52.4283 129.0144 51.9842 129.2391 51.2043 130.0291 Z " stroke-width="1.276281474180223"/>
            </g>
            <g id="Light_23_">
              <path id="Base_11_" fill="#B7B7B7" stroke="#000000" stroke-width="0.6381407370901115" d="M 75.5328 132.9301 C 75.5877 132.5548 76.0765 132.3187 76.6177 132.4017 L 76.6177 132.4017 C 77.1588 132.4859 77.5519 132.8599 77.4894 133.2364 L 77.1984 135.1163 C 77.1384 135.4941 76.6496 135.7277 76.1084 135.646 L 76.1084 135.646 C 75.5698 135.5592 75.1767 135.1865 75.2367 134.81 L 75.5328 132.9301 Z "/>
              <path id="Light_24_" fill="#EA0000" stroke="#000000" stroke-width="0.6381407370901115" d="M 74.7645 131.2518 C 75.3618 129.4675 76.1863 127.9717 77.2826 128.144 C 78.3764 128.315 78.7057 129.987 78.7299 131.872 C 78.7554 133.7801 77.363 134.7922 76.2692 134.6224 C 75.1755 134.4514 74.1595 133.0641 74.7645 131.2518 Z "/>
              <path id="Highlight_13_" fill="#FFFFFF" d="M 77.6527 132.1822 C 77.8978 131.1203 77.6361 130.5958 77.8965 130.6353 C 78.1569 130.6762 78.259 130.9212 78.1671 132.0073 C 78.0701 133.11 77.6719 133.7673 77.4115 133.729 C 77.1499 133.6895 77.409 133.2632 77.6527 132.1822 Z " stroke-width="1.276281474180223"/>
            </g>
            <g id="Light_25_">
              <path id="Base_12_" fill="#B7B7B7" stroke="#000000" stroke-width="0.6381407370901115" d="M 102.1624 117.8112 C 102.4394 117.5534 102.9652 117.6696 103.343 118.0691 L 103.343 118.0691 C 103.7157 118.4724 103.7897 119.0071 103.5102 119.2662 L 102.1165 120.5604 C 101.8344 120.8194 101.3073 120.702 100.9321 120.3038 L 100.9321 120.3038 C 100.5645 119.9005 100.4841 119.3645 100.7662 119.1067 L 102.1624 117.8112 Z "/>
              <path id="Light_26_" fill="#0074FF" stroke="#000000" stroke-width="0.6381407370901115" d="M 102.5977 116.0206 C 104.1726 114.9881 105.7462 114.3257 106.4992 115.14 C 107.2535 115.953 106.4737 117.4679 105.3276 118.9637 C 104.1675 120.4787 102.4432 120.411 101.6902 119.6006 C 100.9372 118.7889 100.9997 117.0672 102.5977 116.0206 Z "/>
              <path id="Highlight_14_" fill="#FFFFFF" d="M 104.2887 118.5387 C 105.1413 117.8546 105.2574 117.2829 105.4387 117.4743 C 105.6186 117.6696 105.5484 117.9248 104.7992 118.72 C 104.0411 119.5278 103.3226 119.7971 103.1426 119.6044 C 102.9627 119.4091 103.4285 119.2368 104.2887 118.5387 Z " stroke-width="1.276281474180223"/>
            </g>
          </g>
        </g>
        <g id="Middle">
          <g id="Middle_1_">
            <path id="ID0.028397698886692524" fill="#20891D" d="M 77.1792 102.1845 C 50.2369 102.1832 27.3341 86.8461 23.9481 84.4697 C 50.482 71.1734 65.5127 30.6348 68.0525 23.2873 C 80.0738 84.0868 93.2425 97.2338 96.1614 99.4775 C 90.122 101.2732 83.7393 102.1845 77.1805 102.1845 C 77.1818 102.1845 77.1805 102.1845 77.1792 102.1845 Z " stroke-width="1.276281474180223"/>
            <path id="ID0.5585026354528964" d="M 67.967 24.4921 C 79.3642 81.4908 91.7875 96.1081 95.4977 99.3396 C 89.6574 101.0154 83.5019 101.8654 77.178 101.8654 C 51.2899 101.8654 29.1336 87.6451 24.5684 84.5118 C 49.7953 71.4924 64.5389 34.0731 67.967 24.4921 M 68.1342 22.0455 C 68.1342 22.0455 52.9299 70.026 23.3304 84.4199 C 23.3304 84.4199 47.6729 102.5035 77.1792 102.5035 C 83.5734 102.5035 90.2062 101.6548 96.8901 99.5898 C 96.8901 99.5898 81.6449 91.1587 68.1342 22.0455 L 68.1342 22.0455 Z " stroke-width="1.276281474180223"/>
          </g>
          <path id="Snow_3_" fill="#FFFFFF" stroke="#000000" stroke-width="0.6381407370901115" d="M 88.2037 84.1123 C 88.2012 83.515 87.863 82.8054 87.2976 82.5348 C 87.1049 82.4442 86.9109 82.351 86.7169 82.263 C 86.1285 81.9822 85.4112 82.0779 85.0628 82.6905 C 84.0967 84.3803 82.2167 83.7243 80.4325 84.0587 C 79.6157 84.2131 78.7337 84.5501 78.1237 85.1435 C 76.476 86.7517 75.1104 85.2839 73.2789 85.3069 C 70.0065 85.3516 68.0883 87.6872 64.6589 86.6789 C 62.2595 85.9706 60.391 86.5028 58.6451 88.1556 C 58.4536 88.3381 58.6017 88.6533 58.8518 88.6559 C 61.3202 88.7031 62.9308 89.2634 65.2358 90.0368 C 66.3079 90.3942 67.5548 90.8638 68.7162 90.5499 C 70.5541 90.0445 72.1456 88.8371 74.2144 89.622 C 75.8289 90.2359 76.9367 90.3189 78.5768 89.7713 C 79.7254 89.3885 80.3929 88.0279 81.6922 87.9348 C 82.7681 87.8531 83.8108 87.7816 84.8803 87.6246 C 86.8126 87.34 88.2165 86.0752 88.2037 84.1123 Z "/>
          <path id="Snow_2_" fill="#FFFFFF" stroke="#000000" stroke-width="0.6381407370901115" d="M 72.2962 78.1304 C 69.6938 80.8948 66.9894 76.8924 64.4687 76.706 C 62.3667 76.5529 60.7254 77.468 58.9093 77.1017 C 58.8301 77.0392 58.7484 76.9804 58.6502 76.9268 C 58.2035 76.6882 57.7734 76.5376 57.3496 76.447 C 57.2144 76.3602 57.0765 76.2683 56.9349 76.1636 C 55.2323 74.8605 52.5176 76.595 50.7793 76.7903 C 50.5177 76.8196 50.2471 76.8069 49.9932 76.8069 C 48.5982 76.2976 47.2683 75.3953 46.1196 74.6538 C 45.9882 74.5683 45.8184 74.7087 45.8593 74.8516 C 46.463 77.034 47.8707 78.7098 49.7877 79.8636 C 50.8189 80.48 52.0033 80.6485 53.1775 80.5336 C 53.9432 80.457 55.0345 79.8827 55.9585 79.7806 C 57.3331 80.623 58.5889 82.1405 60.5352 81.2266 C 62.2748 80.4047 63.9123 78.9523 65.9148 79.4475 C 66.9817 79.7155 67.916 79.9963 69.0046 80.1227 C 70.5119 80.2975 71.7155 79.4028 72.4749 78.2695 C 72.5476 78.1636 72.3855 78.0372 72.2962 78.1304 Z "/>
          <path id="Snow_1_" fill="#FFFFFF" stroke="#000000" stroke-width="0.6381407370901115" d="M 97.4287 95.1432 C 95.9521 93.4904 93.8309 94.1337 91.9535 93.7955 C 91.3689 93.6934 88.5879 95.8681 88.0212 97.281 C 87.4431 98.7104 81.6564 98.519 81.1714 98.6262 C 78.0484 99.3052 77.1333 99.6485 73.7779 98.6811 C 73.6337 98.6389 73.4972 98.6185 73.3542 98.5853 C 73.2011 98.3901 69.8572 98.1769 68.258 98.413 C 64.9231 98.9031 65.6723 97.9791 62.9372 97.706 C 59.0445 97.3103 55.7607 97.5745 51.8935 95.8503 C 50.5777 95.2657 48.8254 94.5357 47.3602 94.5306 C 47.1139 94.5306 46.8816 94.5153 46.648 94.5038 C 44.8217 93.9729 42.6584 93.2275 40.7414 92.2703 C 39.2749 91.1855 37.917 89.8454 36.2374 88.5436 C 36.2374 88.541 36.2361 88.541 36.2361 88.541 C 34.9598 86.0038 28.544 83.4308 28.3308 83.2061 C 28.2951 83.1691 28.4623 81.293 27.3647 81.3019 C 25.0661 81.3185 19.8474 81.3096 20.8837 85.1155 C 21.2168 86.3318 22.8518 86.7134 23.8753 87.0031 C 26.0578 87.6183 28.0883 90.6099 30.6269 90.2563 C 31.2816 90.1606 31.8585 90.2972 32.3843 90.5933 C 32.6293 90.7758 32.8744 90.957 33.1182 91.1382 C 33.6682 91.65 38.8397 102.1283 42.934 100.9911 C 46.9939 99.8578 49.8068 99.9191 51.8336 101.5986 C 54.2406 103.5896 56.8302 106.6246 59.5882 106.8008 C 62.3731 106.9833 64.8031 105.8333 66.4163 108.793 C 67.2102 110.2467 68.6524 110.539 70.0984 110.6194 C 71.2369 110.6832 72.323 109.5001 73.0645 108.8032 C 74.0996 107.8282 79.6731 108.1702 79.8633 108.0579 C 80.9647 108.1026 82.2614 107.9622 82.8676 106.9309 C 82.9646 106.765 83.0463 106.5634 83.128 106.3643 C 84.7042 105.3496 88.3097 104.2405 88.3735 104.2252 C 89.9816 104.0938 91.6561 103.8385 93.0013 103.231 C 93.6803 103.1455 94.3465 102.9681 95.1046 102.6733 C 96.5762 102.104 97.9813 101.2719 98.6131 99.7646 C 99.287 98.1616 98.5148 96.357 97.4287 95.1432 Z "/>
          <g id="Lights_3_">
            <path id="String_2_" d="M 90.2267 86.5385 C 88.8355 85.1971 86.2076 86.5794 85.0654 87.5264 C 77.6859 93.6295 69.6709 96.3059 60.0617 94.8254 C 55.6994 94.1515 51.2809 92.3711 47.4023 90.3138 C 43.4535 88.2181 40.9048 84.9113 38.1186 81.5585 C 36.7594 79.9172 34.0601 77.0736 31.5879 77.7181 C 29.5714 78.2427 28.909 79.3696 29.2306 81.3504 C 29.2663 81.5687 29.6122 81.5112 29.6084 81.2994 C 30.4724 77.9402 33.6338 78.0206 35.4818 80.004 C 35.977 80.4328 36.4442 80.8884 36.8819 81.3734 C 37.7932 82.3242 38.5781 83.4104 39.386 84.4441 C 40.8754 86.3522 42.5282 88.0165 44.4439 89.4906 C 48.6952 92.7578 54.6031 94.7744 59.7988 95.7928 C 64.9907 96.8139 70.4839 96.4348 75.4792 94.7182 C 77.5149 94.0226 79.3974 92.9429 81.1919 91.7713 C 82.0265 91.2276 82.837 90.6213 83.6206 90.0075 C 84.1567 89.5888 84.6863 89.1677 85.2096 88.7363 C 85.5899 88.4427 85.9703 88.153 86.3506 87.8607 C 88.339 86.3305 90.7397 87.0158 89.3767 90.7375 C 89.0142 91.0604 89.5796 91.6283 89.9038 91.271 C 90.9248 90.1376 92.0351 88.2806 90.2267 86.5385 Z " stroke-width="1.276281474180223"/>
            <g id="Light_11_">
              <path id="Base_5_" fill="#B7B7B7" stroke="#000000" stroke-width="0.6381407370901115" d="M 92.6733 86.9903 C 93.0485 86.9252 93.4263 87.3132 93.5207 87.8531 L 93.5207 87.8531 C 93.6126 88.3917 93.3842 88.8805 93.0089 88.9443 L 91.1354 89.2659 C 90.7589 89.331 90.3785 88.9481 90.2854 88.407 L 90.2854 88.407 C 90.1947 87.8684 90.4219 87.3783 90.7972 87.3145 L 92.6733 86.9903 Z "/>
              <path id="Light_12_" fill="#FFF533" stroke="#000000" stroke-width="0.6381407370901115" d="M 94.0159 85.7294 C 95.8972 85.7243 97.578 86.028 97.7657 87.1205 C 97.9545 88.213 96.4728 89.0605 94.6975 89.6833 C 92.8954 90.315 91.494 89.3208 91.3051 88.2309 C 91.1149 87.1409 92.1053 85.7345 94.0159 85.7294 Z "/>
              <path id="Highlight_7_" fill="#FFFFFF" d="M 94.0606 88.7631 C 95.1454 88.6546 95.5577 88.2372 95.6036 88.4976 C 95.6483 88.758 95.4505 88.9354 94.3899 89.1919 C 93.314 89.4535 92.5623 89.2876 92.5163 89.0298 C 92.4716 88.7669 92.9566 88.8754 94.0606 88.7631 Z " stroke-width="1.276281474180223"/>
            </g>
            <g id="Light_15_">
              <path id="Base_7_" fill="#B7B7B7" stroke="#000000" stroke-width="0.6381407370901115" d="M 44.8204 92.1644 C 44.5166 92.3941 44.0048 92.2218 43.6743 91.7866 L 43.6743 91.7866 C 43.3463 91.3488 43.3233 90.8077 43.6309 90.5767 L 45.1497 89.4357 C 45.4534 89.2034 45.9665 89.3757 46.2983 89.8135 L 46.2983 89.8135 C 46.6251 90.2487 46.6467 90.7898 46.3417 91.0183 L 44.8204 92.1644 Z "/>
              <path id="Light_16_" fill="#0074FF" stroke="#000000" stroke-width="0.6381407370901115" d="M 44.2014 93.9001 C 42.532 94.7654 40.8958 95.2632 40.2309 94.3762 C 39.5647 93.493 40.4938 92.0635 41.7905 90.6954 C 43.1025 89.3068 44.8051 89.5531 45.4713 90.435 C 46.1375 91.3169 45.8976 93.022 44.2014 93.9001 Z "/>
              <path id="Highlight_9_" fill="#FFFFFF" d="M 42.7771 91.2212 C 41.862 91.8134 41.6858 92.3737 41.525 92.1631 C 41.3668 91.95 41.4612 91.7036 42.287 90.9902 C 43.1242 90.2653 43.8683 90.0674 44.0278 90.2793 C 44.1874 90.4912 43.7062 90.6175 42.7771 91.2212 Z " stroke-width="1.276281474180223"/>
            </g>
            <g id="Light_13_">
              <path id="Base_6_" fill="#B7B7B7" stroke="#000000" stroke-width="0.6381407370901115" d="M 74.0141 95.8464 C 74.2029 96.1795 73.9758 96.6671 73.5035 96.9389 L 73.5035 96.9389 C 73.03 97.2159 72.4876 97.1725 72.2975 96.8419 L 71.3453 95.1981 C 71.1539 94.865 71.3824 94.3749 71.8571 94.1018 L 71.8571 94.1018 C 72.3319 93.8286 72.8705 93.872 73.0594 94.2026 L 74.0141 95.8464 Z "/>
              <path id="Light_14_" fill="#FF6D00" stroke="#000000" stroke-width="0.6381407370901115" d="M 75.6643 96.6722 C 76.3241 98.4335 76.6215 100.1169 75.663 100.6721 C 74.7032 101.2247 73.3951 100.1309 72.1915 98.6836 C 70.9714 97.2146 71.4181 95.5542 72.3753 94.9964 C 73.3312 94.4425 74.993 94.8816 75.6643 96.6722 Z "/>
              <path id="Highlight_1_" fill="#FFFFFF" d="M 74.3829 96.8279 C 73.7754 95.9217 73.2151 95.7507 73.4257 95.5886 C 73.635 95.4265 73.8826 95.5184 74.6075 96.3353 C 75.3414 97.1623 75.5469 97.9051 75.3376 98.0672 C 75.127 98.2293 74.9968 97.7494 74.3829 96.8279 Z " stroke-width="1.276281474180223"/>
            </g>
          </g>
        </g>
        <g id="Top">
          <g id="Top_1_">
            <path id="ID0.8162294235080481" fill="#20891D" d="M 79.5059 66.6987 C 59.1824 66.6974 42.2142 55.4751 39.4434 53.5415 C 54.4244 44.5961 65.3838 30.146 72.0243 10.5845 C 72.3434 9.6477 72.7952 7.6299 73.1296 6.0396 C 77.1154 53.9257 85.3321 64.0224 87.9153 66.0414 C 85.1764 66.4779 82.3533 66.6987 79.511 66.6987 C 79.511 66.6987 79.5084 66.6987 79.5059 66.6987 Z " stroke-width="1.276281474180223"/>
            <path id="ID0.5223679905757308" d="M 72.9905 8.1608 C 76.7912 51.368 84.1465 62.8584 87.2134 65.827 C 84.6953 66.1946 82.1095 66.3797 79.5072 66.3797 C 60.0988 66.3797 43.7534 56.0877 40.0331 53.5594 C 54.8622 44.5552 65.7246 30.1358 72.3281 10.6866 C 72.5195 10.1224 72.7582 9.1742 72.9905 8.1608 M 73.2662 3.7666 C 73.2662 3.7666 72.2783 8.85 71.7231 10.4811 C 67.8049 22.025 59.3151 41.5036 38.8589 53.5173 C 38.8589 53.5173 57.0102 67.0178 79.5059 67.0178 C 82.5383 67.0178 85.6461 66.774 88.801 66.2176 C 88.8023 66.2163 77.8697 62.3938 73.2662 3.7666 L 73.2662 3.7666 Z " stroke-width="1.276281474180223"/>
          </g>
          <path id="Snow_6_" fill="#FFFFFF" stroke="#000000" stroke-width="0.6381407370901115" d="M 91.2171 66.9757 C 90.4679 62.5419 84.6633 59.0104 80.5805 57.8464 C 78.6048 57.2823 75.1704 58.8802 76.4964 61.3345 C 77.0873 62.4372 76.199 61.5604 75.0657 61.4826 C 74.1302 61.42 73.4997 61.5362 72.6969 61.7097 C 71.2292 61.4328 69.7679 61.101 68.3091 60.7781 C 66.8618 59.175 65.0788 57.7009 62.7445 57.9371 C 60.4727 58.1693 57.8602 58.6811 55.6803 57.7099 C 53.4863 56.731 51.9548 54.6213 49.8502 53.6947 C 47.7712 52.777 45.2901 50.5512 43.1153 50.1977 C 39.7893 49.6553 33.3058 50.0267 36.7045 55.4611 C 38.0102 57.5503 42.264 56.9313 44.0265 58.8726 C 44.4413 59.3269 45.1599 59.7009 45.761 59.8311 C 48.191 60.3582 49.9625 60.8687 51.9331 62.5457 C 53.8539 64.1768 56.543 63.7109 58.9692 64.0887 C 59.7133 64.358 61.4299 64.9515 61.5333 65.023 C 62.502 65.6866 64.0922 65.8092 65.1873 65.9381 C 67.0851 66.1589 68.2989 67.5896 70.2516 67.5117 C 72.1864 67.4351 75.4818 67.0012 76.8946 67.2284 C 78.9941 67.5653 80.13 68.2328 82.2639 67.9431 C 85.4674 67.5092 87.1891 70.2672 90.4538 68.4357 C 90.9107 68.1805 91.3102 67.513 91.2171 66.9757 Z "/>
          <path id="Snow_5_" fill="#FFFFFF" stroke="#000000" stroke-width="0.6381407370901115" d="M 78.8563 45.1181 C 77.3783 44.9879 75.8889 45.515 74.702 46.3727 C 74.2923 46.67 72.6701 45.4959 72.3013 45.2802 C 71.6044 44.8743 70.6727 44.9292 69.907 44.9879 C 67.7399 45.164 66.4814 46.051 64.1726 45.3874 C 62.659 44.9534 61.4771 45.1576 60.3949 46.2616 C 60.3336 46.3242 60.377 46.411 60.4485 46.4352 C 62.6041 47.1525 64.6461 48.818 66.8656 49.1001 C 67.6492 49.2009 68.3844 48.9993 69.1259 48.7733 C 71.0237 48.1926 71.7652 49.6833 73.3363 50.0075 C 75.2597 51.1102 78.4389 51.0298 80.1683 50.393 C 83.4215 49.1958 81.6437 45.3618 78.8563 45.1181 Z "/>
          <path id="Snow_4_" fill="#FFFFFF" stroke="#000000" stroke-width="0.6381407370901115" d="M 68.2861 35.6391 C 68.392 35.5166 68.3537 35.3647 68.2248 35.2792 C 67.4208 34.7419 66.6729 34.7674 65.9645 33.994 C 65.3583 33.3291 64.7266 32.5697 63.8102 32.3323 C 62.8006 32.0707 61.9608 32.3565 61.0483 32.7866 C 60.8607 32.8862 60.6909 33.0087 60.5378 33.158 C 60.4599 33.2206 60.4076 33.2704 60.3744 33.3112 C 60.0809 33.2742 59.7899 33.2576 59.4912 33.352 C 57.3816 34.0119 57.9227 37.2128 60.0043 37.4795 C 60.8747 37.5906 61.592 37.4361 62.3705 37.0379 C 62.6794 36.8784 62.9819 36.6972 63.3022 36.567 C 63.7043 36.4036 64.1599 36.5325 64.5836 36.3539 C 64.7163 36.299 64.8414 36.2186 64.9576 36.1254 C 66.0641 36.6768 67.431 36.6614 68.2861 35.6391 Z "/>
          <g id="Lights_2_">
            <path id="String_1_" d="M 83.9678 54.9825 C 83.188 52.8549 81.2582 52.9915 79.4127 53.5505 C 76.5002 54.4337 73.8903 56.0571 71.4245 58.2319 C 68.5694 60.7525 66.2198 64.076 62.7649 65.2501 C 58.1665 66.8123 53.0754 64.3606 48.431 64.4167 C 45.8172 64.4499 41.3081 64.9515 42.3763 69.2564 C 42.444 69.5346 42.7694 69.3878 42.7324 69.1109 C 41.7816 61.8348 56.7141 67.0382 60.1447 66.5698 C 63.4554 66.118 66.0041 64.7817 68.5656 62.2037 C 70.5158 60.2446 72.4481 58.334 74.6305 56.7961 C 75.8136 55.9626 77.0644 55.4445 78.3279 54.8931 C 78.9494 54.6379 79.5799 54.4502 80.2206 54.329 C 81.3348 53.9678 84.9122 55.0654 82.5932 56.297 C 82.3073 56.403 82.3826 56.9058 82.6609 56.8931 C 83.4049 56.8586 84.4349 56.2575 83.9678 54.9825 Z " stroke-width="1.276281474180223"/>
            <g id="Light_4_">
              <path id="Base" fill="#B7B7B7" stroke="#000000" stroke-width="0.6381407370901115" d="M 60.1115 68.4791 C 59.9584 68.8173 59.4938 68.8837 59.0752 68.6297 L 59.0752 68.6297 C 58.654 68.377 58.4383 67.8972 58.5915 67.5602 L 59.3547 65.8742 C 59.5078 65.5373 59.9711 65.4697 60.391 65.7236 L 60.391 65.7236 C 60.8109 65.9776 61.0279 66.4562 60.8747 66.7944 L 60.1115 68.4791 Z "/>
              <path id="Light_1_" fill="#EA0000" stroke="#000000" stroke-width="0.6381407370901115" d="M 60.2711 70.3132 C 59.287 71.8115 58.1958 72.9614 57.3458 72.4471 C 56.4958 71.9353 56.6911 70.2417 57.1939 68.4536 C 57.7045 66.6362 59.1262 66.1244 59.975 66.6375 C 60.825 67.1518 61.2704 68.7918 60.2711 70.3132 Z "/>
              <path id="Highlight_2_" fill="#FFFFFF" d="M 58.1626 68.5047 C 57.6674 69.4338 57.7376 70.0158 57.5347 69.8933 C 57.3318 69.7707 57.3152 69.5065 57.6942 68.5072 C 58.0784 67.4926 58.5876 66.9974 58.7906 67.1199 C 58.9922 67.2424 58.6629 67.5615 58.1626 68.5047 Z " stroke-width="1.276281474180223"/>
            </g>
            <g id="Light_5_">
              <path id="Base_2_" fill="#B7B7B7" stroke="#000000" stroke-width="0.6381407370901115" d="M 40.2615 67.3624 C 39.9437 67.2565 39.7957 66.7434 39.9271 66.2176 L 39.9271 66.2176 C 40.0599 65.6917 40.4236 65.3522 40.7414 65.4595 L 42.3214 65.9917 C 42.6379 66.0989 42.7873 66.6107 42.6533 67.1365 L 42.6533 67.1365 C 42.5218 67.6623 42.1581 68.0031 41.8415 67.8959 L 40.2615 67.3624 Z "/>
              <path id="Light_6_" fill="#FF6D00" stroke="#000000" stroke-width="0.6381407370901115" d="M 38.7351 67.9061 C 37.2699 67.088 36.0779 66.0784 36.3472 65.0115 C 36.6139 63.9496 38.0893 63.836 39.7076 64.0543 C 41.3489 64.2738 42.0636 65.7836 41.7943 66.8468 C 41.5276 67.9099 40.2232 68.7382 38.7351 67.9061 Z "/>
              <path id="Highlight_4_" fill="#FFFFFF" d="M 39.8557 65.1608 C 38.9699 64.7843 38.49 64.977 38.5538 64.7218 C 38.6177 64.4678 38.8372 64.3976 39.7612 64.6286 C 40.6967 64.8647 41.22 65.3433 41.1549 65.5973 C 41.0911 65.8513 40.7554 65.5424 39.8557 65.1608 Z " stroke-width="1.276281474180223"/>
            </g>
            <g id="Light_3_">
              <path id="Base_1_" fill="#B7B7B7" stroke="#000000" stroke-width="0.6381407370901115" d="M 77.7638 57.4993 C 77.9565 57.8043 77.8084 58.3174 77.4268 58.6428 L 77.4268 58.6428 C 77.0478 58.9696 76.5807 58.9862 76.3841 58.6786 L 75.4039 57.1496 C 75.2074 56.8446 75.358 56.3315 75.7383 56.006 L 75.7383 56.006 C 76.1186 55.6806 76.5858 55.664 76.7849 55.9703 L 77.7638 57.4993 Z "/>
              <path id="Light_2_" fill="#FFF533" stroke="#000000" stroke-width="0.6381407370901115" d="M 79.2621 58.1323 C 80.0024 59.8094 80.4197 61.4468 79.6501 62.1054 C 78.8792 62.7652 77.6489 61.8221 76.4722 60.519 C 75.2788 59.1955 75.5022 57.4955 76.2705 56.8369 C 77.0427 56.1783 78.5142 56.431 79.2621 58.1323 Z "/>
              <path id="Highlight_3_" fill="#FFFFFF" d="M 76.9329 59.5362 C 77.4409 60.4552 77.9246 60.6364 77.7408 60.7946 C 77.5545 60.9516 77.3439 60.8546 76.73 60.025 C 76.1097 59.1814 75.9451 58.4348 76.1276 58.2778 C 76.3114 58.1221 76.416 58.6033 76.9329 59.5362 Z " stroke-width="1.276281474180223"/>
            </g>
          </g>
          <g id="Lights">
            <path id="String" d="M 77.7485 33.1683 C 73.4767 31.9226 70.2426 36.6066 66.9664 38.2836 C 63.6749 39.9708 60.0732 41.3582 56.1972 40.7341 C 54.5291 40.466 52.8559 40.1942 51.286 40.8145 C 49.1751 41.6504 48.8968 44.7084 51.4634 44.6854 C 51.8872 44.6803 51.4392 44.0498 51.0129 43.9656 C 49.6281 42.9484 51.6766 41.2382 53.3319 41.4245 C 53.993 41.4296 54.6554 41.4909 55.314 41.6083 C 56.178 41.7296 57.0293 41.8929 57.8984 41.9695 C 60.5557 42.1992 63.255 41.0672 65.5663 40.0717 C 68.1355 38.9638 70.1201 37.4553 72.2707 35.7744 C 73.5176 34.7993 77.0248 32.2634 78.2909 34.9244 C 78.9009 36.202 77.9067 38.1611 77.3758 39.2612 C 77.1473 39.7373 77.908 40.1393 78.1467 39.6645 C 78.9137 38.1521 80.6277 34.0068 77.7485 33.1683 Z " stroke-width="1.276281474180223"/>
            <g id="Light_7_">
              <path id="Base_3_" fill="#B7B7B7" stroke="#000000" stroke-width="0.6381407370901115" d="M 59.5678 42.4723 C 59.2168 42.6204 58.7612 42.3294 58.5468 41.8265 L 58.5468 41.8265 C 58.3337 41.3211 58.4472 40.7928 58.7982 40.6447 L 60.5518 39.9083 C 60.9028 39.7602 61.3597 40.05 61.5729 40.5528 L 61.5729 40.5528 C 61.7847 41.0582 59.6533 41.9018 59.3011 42.0486 L 59.5678 42.4723 Z "/>
              <path id="Light_8_" fill="#EA0000" stroke="#000000" stroke-width="0.6381407370901115" d="M 58.5417 44.0052 C 56.7115 44.4365 55.0064 44.5208 54.5763 43.4985 C 54.1462 42.4775 55.3995 41.3173 56.9872 40.3078 C 58.5991 39.2829 60.1906 39.9351 60.6195 40.9548 C 61.0496 41.9759 60.4012 43.5687 58.5417 44.0052 Z "/>
              <path id="Highlight_5_" fill="#FFFFFF" d="M 57.8155 41.0582 C 56.783 41.4105 56.4754 41.9095 56.372 41.6657 C 56.2699 41.422 56.4218 41.2063 57.3943 40.7136 C 58.3847 40.2159 59.1543 40.2069 59.2564 40.4507 C 59.3611 40.697 58.8633 40.6996 57.8155 41.0582 Z " stroke-width="1.276281474180223"/>
            </g>
            <g id="Light_9_">
              <path id="Base_4_" fill="#B7B7B7" stroke="#000000" stroke-width="0.6381407370901115" d="M 77.7433 34.0106 C 78.0905 34.165 78.1913 34.696 77.9692 35.1963 L 77.9692 35.1963 C 77.7459 35.6978 77.2852 35.9761 76.9342 35.8204 L 75.1997 35.0469 C 74.8526 34.8887 74.7492 34.3577 74.9738 33.8574 L 74.9738 33.8574 C 75.1946 33.3597 75.6579 33.0789 76.0089 33.2359 L 77.7433 34.0106 Z "/>
              <path id="Light_10_" fill="#0074FF" stroke="#000000" stroke-width="0.6381407370901115" d="M 79.5633 33.7132 C 81.1306 34.7534 82.3558 35.9429 81.9027 36.955 C 81.4509 37.9671 79.7497 37.8458 77.9271 37.3749 C 76.0778 36.8988 75.4652 35.292 75.917 34.2799 C 76.3675 33.2691 77.9744 32.6539 79.5633 33.7132 Z "/>
              <path id="Highlight_6_" fill="#FFFFFF" d="M 77.908 36.2556 C 78.8716 36.7686 79.4459 36.6538 79.34 36.895 C 79.2289 37.1362 78.9686 37.1707 77.9437 36.7967 C 76.9036 36.4138 76.3713 35.8587 76.4811 35.6162 C 76.5896 35.3762 76.9316 35.7361 77.908 36.2556 Z " stroke-width="1.276281474180223"/>
            </g>
          </g>
          <g id="Star_2_">
            <path id="Star" fill="#FFF533" stroke="#000000" stroke-width="0.6381407370901115" d="M 78.222 21.5694 C 76.5947 22.5521 71.8137 17.4725 71.8137 17.4725 C 71.8137 17.4725 66.2428 21.6753 64.8044 20.431 C 63.3648 19.1866 66.7201 13.0681 66.7201 13.0681 C 66.7201 13.0681 61.0024 9.0682 61.7413 7.3159 C 62.4803 5.5623 69.3352 6.8628 69.3352 6.8628 C 69.3352 6.8628 71.3709 0.1891 73.2662 0.3487 C 75.164 0.5095 76.0459 7.432 76.0459 7.432 C 76.0459 7.432 83.022 7.3057 83.4534 9.1588 C 83.8886 11.0107 77.5774 13.9896 77.5774 13.9896 C 77.5774 13.9896 79.853 20.5867 78.222 21.5694 Z "/>
            <path id="Star_1_" fill="#FFFFFF" d="M 75.0529 16.7285 C 74.2336 17.2224 71.8303 14.6686 71.8303 14.6686 C 71.8303 14.6686 69.0314 16.7808 68.3091 16.1554 C 67.5867 15.53 69.2714 12.4568 69.2714 12.4568 C 69.2714 12.4568 66.3998 10.4453 66.7699 9.566 C 67.1413 8.6853 70.5847 9.3388 70.5847 9.3388 C 70.5847 9.3388 71.6083 5.9847 72.5616 6.0664 C 73.5137 6.1468 73.9553 9.6247 73.9553 9.6247 C 73.9553 9.6247 77.4626 9.5622 77.6795 10.4926 C 77.8991 11.4242 74.7288 12.9201 74.7288 12.9201 C 74.7288 12.9201 75.8698 16.2346 75.0529 16.7285 Z " stroke-width="1.276281474180223"/>
          </g>
        </g>
      </g>
    </g>
  </g>
</svg>