<svg version="1.1" xmlns="http://www.w3.org/2000/svg" xmlns:xlink="http://www.w3.org/1999/xlink" width="669.83287" height="464.25016" viewBox="0,0,669.83287,464.25016"><g transform="translate(86.81644,57.10631)"><g data-paper-data="{&quot;isPaintingLayer&quot;:true}" fill-rule="nonzero" stroke="none" stroke-width="0" stroke-linecap="butt" stroke-linejoin="miter" stroke-miterlimit="10" stroke-dasharray="" stroke-dashoffset="0" style="mix-blend-mode: normal"><path d="M-27.94064,407.14385v-218.13001h554.97681v218.13001z" fill="#28a200"/><path d="M-86.81644,189.01384v-234.53802h669.83287v234.53802z" fill="#00fff5"/><path d="M-69.44325,3.69985c0,-15.99158 12.96373,-28.95531 28.95531,-28.95531c15.99158,0 28.95531,12.96373 28.95531,28.95531c0,15.99158 -12.96373,28.95531 -28.95531,28.95531c-15.99158,0 -28.95531,-12.96373 -28.95531,-28.95531z" fill="#ffffff"/><path d="M-46.10489,6.76949c0,-15.99157 12.96373,-28.95531 28.95531,-28.95531c15.99158,0 28.95531,12.96374 28.95531,28.95532c0,15.99157 -12.96373,28.95531 -28.95531,28.95531c-15.99158,0 -28.95531,-12.96373 -28.95531,-28.95531z" fill="#ffffff"/><path d="M-61.37361,37.82927c0,-15.99157 12.96374,-28.95531 28.95531,-28.95531c15.99158,0 28.95531,12.96374 28.95531,28.95532c0,15.99157 -12.96373,28.95531 -28.95531,28.95531c-15.99158,0 -28.95531,-12.96373 -28.95531,-28.95531z" fill="#ffffff"/><path d="M-23.55759,28.35162c0,-15.99157 12.96374,-28.95531 28.95531,-28.95531c15.99158,0 28.95531,12.96374 28.95531,28.95532c0,15.99157 -12.96373,28.95531 -28.95531,28.95531c-15.99157,0 -28.95531,-12.96374 -28.95531,-28.95531z" fill="#ffffff"/><path d="M-7.94064,-1.39476c0,-15.99157 12.96374,-28.95531 28.95531,-28.95531c15.99158,0 28.95531,12.96374 28.95531,28.95532c0,15.99157 -12.96373,28.95531 -28.95531,28.95531c-15.99157,0 -28.95531,-12.96373 -28.95531,-28.95531z" fill="#ffffff"/><path d="M17.32808,24.83914c0,-15.99157 12.96374,-28.95531 28.95531,-28.95531c15.99157,0 28.95531,12.96374 28.95531,28.95532c0,15.99157 -12.96373,28.95531 -28.95531,28.95531c-15.99157,0 -28.95531,-12.96373 -28.95531,-28.95531z" fill="#ffffff"/><path d="M17.50219,-7.80277c0,-15.99157 12.96374,-28.95531 28.95531,-28.95531c15.99157,0 28.95531,12.96374 28.95531,28.95532c0,15.99157 -12.96373,28.95531 -28.95531,28.95531c-15.99157,0 -28.95531,-12.96373 -28.95531,-28.95531z" fill="#ffffff"/><path d="M559.85218,3.69985c0,33.58231 -26.14353,60.80615 -58.39321,60.80615c-32.24968,0 -58.39321,-27.22384 -58.39321,-60.80615c0,-33.58231 26.14353,-60.80615 58.39321,-60.80615c32.24968,0 58.39321,27.22384 58.39321,60.80615z" fill="#f7ff00"/><path d="M142.18415,34.83914c0,-15.99157 12.96374,-28.95531 28.95531,-28.95531c15.99158,0 28.95531,12.96374 28.95531,28.95532c0,15.99157 -12.96373,28.95531 -28.95531,28.95531c-15.99157,0 -28.95531,-12.96374 -28.95531,-28.95531z" fill="#ffffff"/><path d="M163.59216,69.75963c0,-15.99157 12.96373,-28.95531 28.95531,-28.95531c15.99158,0 28.95531,12.96374 28.95531,28.95532c0,15.99158 -12.96373,28.95531 -28.95531,28.95531c-15.99158,0 -28.95531,-12.96373 -28.95531,-28.95531z" fill="#ffffff"/><path d="M185.96535,24.57042c0,-15.99157 12.96374,-28.95531 28.95531,-28.95531c15.99157,0 28.95531,12.96374 28.95531,28.95532c0,15.99158 -12.96373,28.95531 -28.95531,28.95531c-15.99157,0 -28.95531,-12.96373 -28.95531,-28.95531z" fill="#ffffff"/><path d="M204.47782,55.6302c0,-15.99157 12.96373,-28.95531 28.95531,-28.95531c15.99158,0 28.95531,12.96374 28.95531,28.95531c0,15.99158 -12.96373,28.95531 -28.95531,28.95531c-15.99158,0 -28.95531,-12.96373 -28.95531,-28.95531z" fill="#ffffff"/><path d="M223.95548,4.64993c0,-15.99157 12.96373,-28.95531 28.95531,-28.95531c15.99157,0 28.95531,12.96374 28.95531,28.95531c0,15.99158 -12.96374,28.95531 -28.95531,28.95531c-15.99158,0 -28.95531,-12.96374 -28.95531,-28.95531z" fill="#ffffff"/><path d="M244.39831,43.43113c0,-15.99157 12.96373,-28.95531 28.95531,-28.95531c15.99157,0 28.95531,12.96374 28.95531,28.95531c0,15.99158 -12.96374,28.95531 -28.95531,28.95531c-15.99158,0 -28.95531,-12.96373 -28.95531,-28.95531z" fill="#ffffff"/><path d="M163.49756,8.85887c0,-15.99157 12.96373,-28.95531 28.95531,-28.95531c15.99157,0 28.95531,12.96374 28.95531,28.95531c0,15.99157 -12.96374,28.95531 -28.95531,28.95531c-15.99158,0 -28.95531,-12.96373 -28.95531,-28.95531z" fill="#ffffff"/><path d="M350.91602,32.19723c0,-15.99157 12.96373,-28.95531 28.95531,-28.95531c15.99158,0 28.95531,12.96374 28.95531,28.95531c0,15.99157 -12.96373,28.95531 -28.95531,28.95531c-15.99158,0 -28.95531,-12.96373 -28.95531,-28.95531z" fill="#ffffff"/><path d="M382.94098,-3.3402c0,-15.99157 12.96374,-28.95531 28.95531,-28.95531c15.99158,0 28.95531,12.96374 28.95531,28.95531c0,15.99158 -12.96373,28.95531 -28.95531,28.95531c-15.99157,0 -28.95531,-12.96373 -28.95531,-28.95531z" fill="#ffffff"/><path d="M389.87133,41.23206c0,-15.99157 12.96373,-28.95531 28.95531,-28.95531c15.99158,0 28.95531,12.96374 28.95531,28.95531c0,15.99158 -12.96373,28.95531 -28.95531,28.95531c-15.99158,0 -28.95531,-12.96373 -28.95531,-28.95531z" fill="#ffffff"/><path d="M325.37858,-0.09644c0,-15.99157 12.96373,-28.95531 28.95531,-28.95531c15.99158,0 28.95531,12.96374 28.95531,28.95531c0,15.99158 -12.96373,28.95531 -28.95531,28.95531c-15.99158,0 -28.95531,-12.96373 -28.95531,-28.95531z" fill="#ffffff"/><path d="M313.97057,42.54546c0,-15.99157 12.96373,-28.95531 28.95531,-28.95531c15.99158,0 28.95531,12.96374 28.95531,28.95531c0,15.99158 -12.96373,28.95531 -28.95531,28.95531c-15.99158,0 -28.95531,-12.96373 -28.95531,-28.95531z" fill="#ffffff"/></g></g></svg>