<svg version="1.1" xmlns="http://www.w3.org/2000/svg" xmlns:xlink="http://www.w3.org/1999/xlink" width="90.72434" height="90.83636"><g transform="translate(-194.76293,-134.3417)"><g data-paper-data="{&quot;isPaintingLayer&quot;:true}" fill="none" fill-rule="nonzero" stroke="none" stroke-width="none" stroke-linecap="butt" stroke-linejoin="miter" stroke-miterlimit="10" stroke-dasharray="" stroke-dashoffset="0" font-family="none" font-weight="none" font-size="none" text-anchor="none" style="mix-blend-mode: normal"><g data-paper-data="{&quot;origPos&quot;:null}"><g data-paper-data="{&quot;origPos&quot;:null,&quot;origRot&quot;:0}" stroke-width="0"><path d="M225.06564,166.37331l-18.42189,-15.60148l24.89067,7.49392z" data-paper-data="{&quot;origPos&quot;:null}" fill="#7e7e7e"/><path d="M218.09381,173.32148l-12.24579,-23.09996l18.37329,16.11285z" data-paper-data="{&quot;origPos&quot;:null}" fill="#a8a092"/><path d="M223.97461,166.36525l-18.37329,-16.11285l24.50078,9.12573z" data-paper-data="{&quot;origPos&quot;:null}" fill="#a1998c"/></g><g data-paper-data="{&quot;origPos&quot;:null}" stroke-width="0"><path d="M255.19097,193.15571l18.51698,15.48851l-24.93605,-7.34153z" data-paper-data="{&quot;origPos&quot;:null}" fill="#7e7e7e"/><path d="M262.12015,186.16503l12.38687,23.02461l-18.4715,-16.00015z" data-paper-data="{&quot;origPos&quot;:null}" fill="#a8a092"/><path d="M256.28203,193.15711l18.4715,16.00016l-24.55614,-8.97569z" data-paper-data="{&quot;origPos&quot;:null}" fill="#a1998c"/></g><g data-paper-data="{&quot;origPos&quot;:null,&quot;origRot&quot;:0}" stroke-width="0"><path d="M225.49998,193.62057l-17.11882,17.02111l9.59379,-24.15913z" data-paper-data="{&quot;origPos&quot;:null}" fill="#7e7e7e"/><path d="M231.82689,201.16071l-24.06203,10.22674l17.62417,-16.92897z" data-paper-data="{&quot;origPos&quot;:null}" fill="#a8a092"/><path d="M225.39872,194.70692l-17.62417,16.92897l11.18631,-23.63121z" data-paper-data="{&quot;origPos&quot;:null}" fill="#a1998c"/></g><g data-paper-data="{&quot;origPos&quot;:null}" stroke-width="0"><path d="M254.75909,165.89443l17.01439,-17.12549l-9.44584,24.21736z" data-paper-data="{&quot;origPos&quot;:null}" fill="#7e7e7e"/><path d="M248.38617,158.39314l23.99902,-10.37374l-17.52029,17.03647z" data-paper-data="{&quot;origPos&quot;:null}" fill="#a8a092"/><path d="M254.85372,164.80748l17.52029,-17.03646l-11.04155,23.69919z" data-paper-data="{&quot;origPos&quot;:null}" fill="#a1998c"/></g><g data-paper-data="{&quot;origPos&quot;:null,&quot;origRot&quot;:0}" stroke-width="0"><path d="M219.98427,180.34918l-24.1065,1.28392l23.2522,-11.62065z" data-paper-data="{&quot;origPos&quot;:null}" fill="#7e7e7e"/><path d="M219.67726,190.18732l-24.756,-8.40882l24.42192,-0.87849z" data-paper-data="{&quot;origPos&quot;:null}" fill="#a8a092"/><path d="M219.18485,181.0917l-24.42192,0.8785l24.08784,-10.16582z" data-paper-data="{&quot;origPos&quot;:null}" fill="#a1998c"/></g><g data-paper-data="{&quot;origPos&quot;:null}" stroke-width="0"><path d="M260.27633,179.17317l24.0982,-1.43136l-23.18068,11.76267z" data-paper-data="{&quot;origPos&quot;:null}" fill="#7e7e7e"/><path d="M260.52315,169.33333l24.80696,8.25723l-24.41609,1.02787z" data-paper-data="{&quot;origPos&quot;:null}" fill="#a8a092"/><path d="M261.07119,178.42578l24.41608,-1.02787l-24.02519,10.31297z" data-paper-data="{&quot;origPos&quot;:null}" fill="#a1998c"/></g><g data-paper-data="{&quot;origPos&quot;:null,&quot;origRot&quot;:0}" stroke-width="0"><path d="M239.86981,199.91087l0.26886,24.13918l-10.63237,-23.72039z" data-paper-data="{&quot;origPos&quot;:null}" fill="#7e7e7e"/><path d="M249.68632,200.6314l-9.44263,24.38041l0.14948,-24.43726z" data-paper-data="{&quot;origPos&quot;:null}" fill="#a8a092"/><path d="M240.57804,200.74081l-0.14948,24.43725l-9.14367,-24.4941z" data-paper-data="{&quot;origPos&quot;:null}" fill="#a1998c"/></g><g data-paper-data="{&quot;origPos&quot;:null}" stroke-width="0"><path d="M240.38954,159.60499l-0.41651,-24.13708l10.77727,23.65491z" data-paper-data="{&quot;origPos&quot;:null}" fill="#7e7e7e"/><path d="M230.5688,158.94452l9.29332,-24.43771v24.43771z" data-paper-data="{&quot;origPos&quot;:null}" fill="#a8a092"/><path d="M239.67625,158.77941v-24.43771l9.29332,24.43771z" data-paper-data="{&quot;origPos&quot;:null}" fill="#a1998c"/></g><path d="M215.97723,179.80293c0,-13.29162 10.77499,-24.06661 24.06661,-24.06661c13.29162,0 24.06661,10.77499 24.06661,24.06661c0,13.29162 -10.77499,24.0666 -24.06661,24.0666c-13.29162,0 -24.06661,-10.77498 -24.06661,-24.0666z" data-paper-data="{&quot;origPos&quot;:null}" fill="#a1998c" stroke-width="0.5"/></g></g></g></svg>