<svg version="1.1" xmlns="http://www.w3.org/2000/svg" xmlns:xlink="http://www.w3.org/1999/xlink" width="41.40018" height="42.4"><g transform="translate(-213.2022,-160.16)"><g data-paper-data="{&quot;isPaintingLayer&quot;:true}" fill="none" fill-rule="nonzero" stroke="none" stroke-width="none" stroke-linecap="butt" stroke-linejoin="none" stroke-miterlimit="10" stroke-dasharray="" stroke-dashoffset="0" font-family="none" font-weight="none" font-size="none" text-anchor="none" style="mix-blend-mode: normal"><path d="M225.2022,190.56v-18.4h17.40018v18.4z" data-paper-data="{&quot;zoomLevel&quot;:2.5,&quot;origPos&quot;:null}" fill="none" stroke="#3a3a3a" stroke-width="24" stroke-linejoin="round"/><path d="M220.77729,181.585c0,-7.1797 5.8203,-13 13,-13c7.1797,0 13,5.8203 13,13c0,7.1797 -5.8203,13 -13,13c-7.1797,0 -13,-5.8203 -13,-13z" data-paper-data="{&quot;origPos&quot;:null}" fill="#d8d8d8" stroke="none" stroke-width="0" stroke-linejoin="miter"/><path d="M221.27729,182.21c0,-7.1797 5.8203,-13 13,-13c7.1797,0 13,5.8203 13,13c0,7.1797 -5.8203,13 -13,13c-7.1797,0 -13,-5.8203 -13,-13z" data-paper-data="{&quot;origPos&quot;:null}" fill="none" stroke="#353535" stroke-width="2" stroke-linejoin="miter"/><path d="M220.77729,181.585c0,-7.1797 5.8203,-13 13,-13c7.1797,0 13,5.8203 13,13c0,7.1797 -5.8203,13 -13,13c-7.1797,0 -13,-5.8203 -13,-13z" data-paper-data="{&quot;origPos&quot;:null}" fill="none" stroke="#000000" stroke-width="2" stroke-linejoin="miter"/><path d="M228.90229,181.71c0,-2.76142 2.23858,-5 5,-5c2.76142,0 5,2.23858 5,5c0,2.76142 -2.23858,5 -5,5c-2.76142,0 -5,-2.23858 -5,-5z" data-paper-data="{&quot;origPos&quot;:null}" fill="#0f0f0f" stroke="#000000" stroke-width="1" stroke-linejoin="miter"/></g></g></svg>