<svg version="1.1" xmlns="http://www.w3.org/2000/svg" xmlns:xlink="http://www.w3.org/1999/xlink" width="421.805" height="505.68052"><g transform="translate(-17.34106,-79.52834)"><g data-paper-data="{&quot;isPaintingLayer&quot;:true}" fill="none" fill-rule="nonzero" stroke="none" stroke-width="0" stroke-linecap="butt" stroke-linejoin="miter" stroke-miterlimit="10" stroke-dasharray="" stroke-dashoffset="0" font-family="none" font-weight="none" font-size="none" text-anchor="none" style="mix-blend-mode: normal"><g data-paper-data="{&quot;origPos&quot;:null,&quot;origRot&quot;:0}"><path d="M84.75009,248.68962l-7.40875,-135.92881l36.92836,-2.01275l7.40875,135.92881z" data-paper-data="{&quot;origPos&quot;:null,&quot;origRot&quot;:0}" fill="#d3bb76"/><path d="M81.28638,191.61292l-3.50899,-64.37979l37.28005,-2.03194l3.50899,64.37978z" data-paper-data="{&quot;origPos&quot;:null,&quot;origRot&quot;:0}" fill="#b9a568"/><path d="M75.32986,187.86772l-3.52853,-64.73825l47.89053,-2.61025l3.52853,64.73826z" data-paper-data="{&quot;origPos&quot;:null,&quot;origRot&quot;:0}" fill="#e7cd81"/><path d="M82.10246,177.56127l-2.579,-47.31698l5.16185,-0.28135l2.579,47.31699z" data-paper-data="{&quot;origPos&quot;:null,&quot;origRot&quot;:0}" fill="#b9a568"/><path d="M82.02741,176.18473l-2.579,-47.31697l5.16185,-0.28135l2.57899,47.31699z" data-paper-data="{&quot;origPos&quot;:null,&quot;origRot&quot;:0}" fill="#d3bb76"/><path d="M79.89526,133.89981l-0.27197,-4.98978l24.94895,-1.35983l0.27197,4.98979z" data-paper-data="{&quot;origPos&quot;:null,&quot;origRot&quot;:0}" fill="#d3bb76"/><path d="M101.55518,167.18208l-2.12885,-39.05803l5.16186,-0.28135l2.12884,39.05803z" data-paper-data="{&quot;origPos&quot;:null,&quot;origRot&quot;:0}" fill="#d3bb76"/><path d="M91.58497,167.89804l-1.48174,-27.18576l5.16185,-0.28135l1.48175,27.18577z" data-paper-data="{&quot;origPos&quot;:null,&quot;origRot&quot;:0}" fill="#d3bb76"/><path d="M91.75982,167.94027l-0.3001,-5.50597l14.79733,-0.80652l0.30009,5.50599z" data-paper-data="{&quot;origPos&quot;:null,&quot;origRot&quot;:0}" fill="#d3bb76"/><path d="M82.15214,178.47314l-0.27197,-4.98978l33.89617,-1.8475l0.27197,4.98979z" data-paper-data="{&quot;origPos&quot;:null,&quot;origRot&quot;:0}" fill="#d3bb76"/><path d="M111.74393,176.80853l-2.69154,-49.38173l5.16185,-0.28135l2.69153,49.38173z" data-paper-data="{&quot;origPos&quot;:null,&quot;origRot&quot;:0}" fill="#d3bb76"/><path d="M84.31755,239.31033l-2.18352,-40.06085l36.70651,-2.00067l2.1835,40.06086z" data-paper-data="{&quot;origPos&quot;:null,&quot;origRot&quot;:0}" fill="#b9a568"/><path d="M78.36813,235.69642l-2.02559,-37.16384l47.89053,-2.61025l2.02559,37.16385z" data-paper-data="{&quot;origPos&quot;:null,&quot;origRot&quot;:0}" fill="#e7cd81"/><path d="M84.05871,229.28406l-1.40672,-25.80927l5.16186,-0.28135l1.40672,25.80928z" data-paper-data="{&quot;origPos&quot;:null,&quot;origRot&quot;:0}" fill="#d3bb76"/><path d="M114.1539,227.35607l-1.40672,-25.80927l5.16185,-0.28135l1.40672,25.80927z" data-paper-data="{&quot;origPos&quot;:null,&quot;origRot&quot;:0}" fill="#d3bb76"/><path d="M93.21971,228.49707l-1.40672,-25.80927l5.16185,-0.28135l1.40672,25.80928z" data-paper-data="{&quot;origPos&quot;:null,&quot;origRot&quot;:0}" fill="#d3bb76"/><path d="M105.26403,227.84062l-1.40672,-25.80927l5.16185,-0.28135l1.40672,25.80927z" data-paper-data="{&quot;origPos&quot;:null,&quot;origRot&quot;:0}" fill="#d3bb76"/><path d="M94.59431,228.21127l-0.31259,-5.73538l12.90465,-0.70337l0.31259,5.73538z" data-paper-data="{&quot;origPos&quot;:null,&quot;origRot&quot;:0}" fill="#d3bb76"/><path d="M94.37614,208.37726l-0.31259,-5.73537l12.90463,-0.70337l0.3126,5.73539z" data-paper-data="{&quot;origPos&quot;:null,&quot;origRot&quot;:0}" fill="#d3bb76"/><path d="M91.34178,372.31853l-6.74012,-130.97371l37.32955,0.96028l6.33893,128.00066z" data-paper-data="{&quot;origPos&quot;:null,&quot;origRot&quot;:0}" fill="#d3bb76"/><path d="M87.87806,315.24182l-3.50898,-64.37978l37.28005,-2.03193l3.50898,64.37979z" data-paper-data="{&quot;origPos&quot;:null,&quot;origRot&quot;:0}" fill="#b9a568"/><path d="M81.92153,311.49665l-3.52852,-64.73825l47.89052,-2.61025l3.52853,64.73825z" data-paper-data="{&quot;origPos&quot;:null,&quot;origRot&quot;:0}" fill="#e7cd81"/><path d="M78.55187,305.78448l-2.579,-47.31698l5.16185,-0.28135l2.57899,47.31699z" data-paper-data="{&quot;origPos&quot;:null,&quot;origRot&quot;:0}" fill="#d3bb76"/><path d="M86.48696,257.52874l-0.27196,-4.98978l24.94895,-1.35984l0.27197,4.98979z" data-paper-data="{&quot;origPos&quot;:null,&quot;origRot&quot;:0}" fill="#d3bb76"/><path d="M108.14687,290.811l-2.12885,-39.05803l5.16185,-0.28135l2.12885,39.05803z" data-paper-data="{&quot;origPos&quot;:null,&quot;origRot&quot;:0}" fill="#d3bb76"/><path d="M98.17666,291.52696l-1.48174,-27.18575l5.16185,-0.28135l1.48175,27.18577z" data-paper-data="{&quot;origPos&quot;:null,&quot;origRot&quot;:0}" fill="#d3bb76"/><path d="M98.3515,291.56922l-0.30009,-5.50598l14.79733,-0.80652l0.30009,5.50598z" data-paper-data="{&quot;origPos&quot;:null,&quot;origRot&quot;:0}" fill="#d3bb76"/><path d="M88.74383,302.1021l-0.27197,-4.98979l33.89617,-1.8475l0.27197,4.98979z" data-paper-data="{&quot;origPos&quot;:null,&quot;origRot&quot;:0}" fill="#d3bb76"/><path d="M118.33565,300.43745l-2.69154,-49.38173l5.16185,-0.28135l2.69153,49.38173z" data-paper-data="{&quot;origPos&quot;:null,&quot;origRot&quot;:0}" fill="#d3bb76"/><path d="M85.12941,361.77803l-1.40672,-25.80927l5.16185,-0.28135l1.40672,25.80927z" data-paper-data="{&quot;origPos&quot;:null,&quot;origRot&quot;:0}" fill="#d3bb76"/></g><path d="M109.04195,565.15766l-4.89399,-25.38004l5.07601,-0.9788l4.894,25.38003z" data-paper-data="{&quot;origPos&quot;:null,&quot;origRot&quot;:0}" fill="#d3bb76"/><path d="M118.01156,563.13556l-4.894,-25.38004l5.07601,-0.9788l4.89399,25.38003z" data-paper-data="{&quot;origPos&quot;:null,&quot;origRot&quot;:0}" fill="#d3bb76"/><path d="M18.4286,545.04473l-1.08754,-5.63999l12.69001,-2.44701l1.08756,5.64001z" data-paper-data="{&quot;origPos&quot;:null,&quot;origRot&quot;:0}" fill="#d3bb76"/><g data-paper-data="{&quot;origPos&quot;:null,&quot;origRot&quot;:0}"><path d="M91.56474,371.50476l-7.40875,-135.92881l36.92836,-2.01275l7.40875,135.92881z" data-paper-data="{&quot;origPos&quot;:null,&quot;origRot&quot;:0}" fill="#d3bb76"/><path d="M88.10102,314.42805l-3.50898,-64.37979l37.28005,-2.03193l3.50898,64.37978z" data-paper-data="{&quot;origPos&quot;:null,&quot;origRot&quot;:0}" fill="#b9a568"/><path d="M82.14451,310.68288l-3.52853,-64.73825l47.89053,-2.61025l3.52853,64.73825z" data-paper-data="{&quot;origPos&quot;:null,&quot;origRot&quot;:0}" fill="#e7cd81"/><path d="M88.91711,300.37641l-2.579,-47.31698l5.16185,-0.28135l2.579,47.31699z" data-paper-data="{&quot;origPos&quot;:null,&quot;origRot&quot;:0}" fill="#b9a568"/><path d="M88.84206,298.99987l-2.579,-47.31698l5.16185,-0.28135l2.57899,47.31699z" data-paper-data="{&quot;origPos&quot;:null,&quot;origRot&quot;:0}" fill="#d3bb76"/><path d="M86.70991,256.71497l-0.27197,-4.98978l24.94896,-1.35983l0.27197,4.98979z" data-paper-data="{&quot;origPos&quot;:null,&quot;origRot&quot;:0}" fill="#d3bb76"/><path d="M108.36983,289.99723l-2.12884,-39.05803l5.16186,-0.28135l2.12884,39.05803z" data-paper-data="{&quot;origPos&quot;:null,&quot;origRot&quot;:0}" fill="#d3bb76"/><path d="M98.39962,290.71319l-1.48174,-27.18576l5.16186,-0.28135l1.48175,27.18577z" data-paper-data="{&quot;origPos&quot;:null,&quot;origRot&quot;:0}" fill="#d3bb76"/><path d="M98.57447,290.75545l-0.3001,-5.50597l14.79733,-0.80652l0.3001,5.50598z" data-paper-data="{&quot;origPos&quot;:null,&quot;origRot&quot;:0}" fill="#d3bb76"/><path d="M88.96679,301.28831l-0.27197,-4.98978l33.89617,-1.8475l0.27197,4.98979z" data-paper-data="{&quot;origPos&quot;:null,&quot;origRot&quot;:0}" fill="#d3bb76"/><path d="M118.55858,299.62367l-2.69154,-49.38173l5.16185,-0.28135l2.69153,49.38173z" data-paper-data="{&quot;origPos&quot;:null,&quot;origRot&quot;:0}" fill="#d3bb76"/><path d="M91.13219,362.12548l-2.18351,-40.06086l36.70651,-2.00067l2.1835,40.06086z" data-paper-data="{&quot;origPos&quot;:null,&quot;origRot&quot;:0}" fill="#b9a568"/><path d="M85.18279,358.51158l-2.02559,-37.16385l47.89053,-2.61025l2.02559,37.16385z" data-paper-data="{&quot;origPos&quot;:null,&quot;origRot&quot;:0}" fill="#e7cd81"/><path d="M90.87336,352.09919l-1.40671,-25.80926l5.16186,-0.28135l1.40672,25.80927z" data-paper-data="{&quot;origPos&quot;:null,&quot;origRot&quot;:0}" fill="#d3bb76"/><path d="M120.96855,350.17124l-1.40672,-25.80927l5.16185,-0.28135l1.40672,25.80927z" data-paper-data="{&quot;origPos&quot;:null,&quot;origRot&quot;:0}" fill="#d3bb76"/><path d="M100.03436,351.31221l-1.40672,-25.80927l5.16185,-0.28135l1.40672,25.80927z" data-paper-data="{&quot;origPos&quot;:null,&quot;origRot&quot;:0}" fill="#d3bb76"/><path d="M112.07869,350.65579l-1.40672,-25.80927l5.16185,-0.28135l1.40672,25.80927z" data-paper-data="{&quot;origPos&quot;:null,&quot;origRot&quot;:0}" fill="#d3bb76"/><path d="M101.40896,351.02642l-0.31259,-5.73538l12.90465,-0.70337l0.31259,5.73538z" data-paper-data="{&quot;origPos&quot;:null,&quot;origRot&quot;:0}" fill="#d3bb76"/><path d="M101.19076,331.19241l-0.31259,-5.73538l12.90464,-0.70338l0.31259,5.73539z" data-paper-data="{&quot;origPos&quot;:null,&quot;origRot&quot;:0}" fill="#d3bb76"/><path d="M98.15642,495.13365l-6.74012,-130.97372l37.32954,0.96029l6.33893,128.00066z" data-paper-data="{&quot;origPos&quot;:null,&quot;origRot&quot;:0}" fill="#d3bb76"/><path d="M94.6927,438.05697l-3.50898,-64.37979l37.28005,-2.03193l3.50898,64.37979z" data-paper-data="{&quot;origPos&quot;:null,&quot;origRot&quot;:0}" fill="#b9a568"/><path d="M88.73618,434.3118l-3.52853,-64.73825l47.89053,-2.61025l3.52853,64.73825z" data-paper-data="{&quot;origPos&quot;:null,&quot;origRot&quot;:0}" fill="#e7cd81"/><path d="M85.36652,428.59964l-2.579,-47.31698l5.16185,-0.28135l2.57899,47.31699z" data-paper-data="{&quot;origPos&quot;:null,&quot;origRot&quot;:0}" fill="#d3bb76"/><path d="M93.30161,380.34391l-0.27197,-4.98978l24.94896,-1.35983l0.27197,4.98979z" data-paper-data="{&quot;origPos&quot;:null,&quot;origRot&quot;:0}" fill="#d3bb76"/><path d="M114.9615,413.62616l-2.12884,-39.05803l5.16186,-0.28135l2.12884,39.05803z" data-paper-data="{&quot;origPos&quot;:null,&quot;origRot&quot;:0}" fill="#d3bb76"/><path d="M104.99131,414.34213l-1.48174,-27.18576l5.16186,-0.28135l1.48175,27.18577z" data-paper-data="{&quot;origPos&quot;:null,&quot;origRot&quot;:0}" fill="#d3bb76"/><path d="M105.16614,414.38439l-0.3001,-5.50598l14.79733,-0.80652l0.3001,5.50598z" data-paper-data="{&quot;origPos&quot;:null,&quot;origRot&quot;:0}" fill="#d3bb76"/><path d="M95.55848,424.91728l-0.27197,-4.98979l33.89617,-1.8475l0.27197,4.98979z" data-paper-data="{&quot;origPos&quot;:null,&quot;origRot&quot;:0}" fill="#d3bb76"/><path d="M125.1503,423.25263l-2.69154,-49.38173l5.16185,-0.28135l2.69153,49.38173z" data-paper-data="{&quot;origPos&quot;:null,&quot;origRot&quot;:0}" fill="#d3bb76"/><path d="M91.94407,484.59318l-1.40672,-25.80927l5.16185,-0.28135l1.40672,25.80927z" data-paper-data="{&quot;origPos&quot;:null,&quot;origRot&quot;:0}" fill="#d3bb76"/></g><g data-paper-data="{&quot;origPos&quot;:null,&quot;origRot&quot;:0}"><path d="M244.99938,215.6124l3.55822,-136.08406l36.97054,0.96669l-3.55822,136.08406z" data-paper-data="{&quot;origPos&quot;:null,&quot;origRot&quot;:0}" fill="#d3bb76"/><path d="M246.14186,158.44212l1.68527,-64.45332l37.32263,0.97587l-1.68528,64.45331z" data-paper-data="{&quot;origPos&quot;:null,&quot;origRot&quot;:0}" fill="#b9a568"/><path d="M240.50618,154.22955l1.69466,-64.81219l47.94523,1.25364l-1.69467,64.81219z" data-paper-data="{&quot;origPos&quot;:null,&quot;origRot&quot;:0}" fill="#e7cd81"/><path d="M248.08651,144.50178l1.23861,-47.37102l5.16775,0.13512l-1.23862,47.37103z" data-paper-data="{&quot;origPos&quot;:null,&quot;origRot&quot;:0}" fill="#b9a568"/><path d="M248.12252,143.12366l1.23861,-47.37101l5.16775,0.13512l-1.23863,47.37103z" data-paper-data="{&quot;origPos&quot;:null,&quot;origRot&quot;:0}" fill="#d3bb76"/><path d="M249.40143,100.80434l0.13061,-4.99548l24.97744,0.65309l-0.13061,4.99549z" data-paper-data="{&quot;origPos&quot;:null,&quot;origRot&quot;:0}" fill="#d3bb76"/><path d="M268.31166,135.72232l1.02242,-39.10264l5.16776,0.13512l-1.02243,39.10264z" data-paper-data="{&quot;origPos&quot;:null,&quot;origRot&quot;:0}" fill="#d3bb76"/><path d="M258.31618,135.6333l0.71165,-27.2168l5.16775,0.13511l-0.71164,27.21682z" data-paper-data="{&quot;origPos&quot;:null,&quot;origRot&quot;:0}" fill="#d3bb76"/><path d="M258.48707,135.68947l0.14413,-5.51226l14.81422,0.38735l-0.14414,5.51228z" data-paper-data="{&quot;origPos&quot;:null,&quot;origRot&quot;:0}" fill="#d3bb76"/><path d="M248.06262,145.41469l0.13061,-4.99548l33.93488,0.8873l-0.13061,4.99549z" data-paper-data="{&quot;origPos&quot;:null,&quot;origRot&quot;:0}" fill="#d3bb76"/><path d="M277.69237,146.13776l1.29266,-49.43813l5.16775,0.13512l-1.29267,49.43813z" data-paper-data="{&quot;origPos&quot;:null,&quot;origRot&quot;:0}" fill="#d3bb76"/><path d="M245.32333,206.22873l1.04866,-40.10661l36.74843,0.96087l-1.04868,40.10662z" data-paper-data="{&quot;origPos&quot;:null,&quot;origRot&quot;:0}" fill="#b9a568"/><path d="M239.68415,202.1476l0.97285,-37.20628l47.94523,1.25363l-0.97285,37.20629z" data-paper-data="{&quot;origPos&quot;:null,&quot;origRot&quot;:0}" fill="#e7cd81"/><path d="M245.87248,196.21417l0.67562,-25.83875l5.16776,0.13512l-0.67562,25.83876z" data-paper-data="{&quot;origPos&quot;:null,&quot;origRot&quot;:0}" fill="#d3bb76"/><path d="M276.0252,196.71525l0.67562,-25.83875l5.16775,0.13512l-0.67562,25.83875z" data-paper-data="{&quot;origPos&quot;:null,&quot;origRot&quot;:0}" fill="#d3bb76"/><path d="M255.06711,196.16724l0.67562,-25.83875l5.16775,0.13512l-0.67562,25.83876z" data-paper-data="{&quot;origPos&quot;:null,&quot;origRot&quot;:0}" fill="#d3bb76"/><path d="M267.12519,196.48255l0.67562,-25.83875l5.16775,0.13512l-0.67562,25.83875z" data-paper-data="{&quot;origPos&quot;:null,&quot;origRot&quot;:0}" fill="#d3bb76"/><path d="M256.46025,195.99303l0.15015,-5.74193l12.91938,0.3378l-0.15015,5.74193z" data-paper-data="{&quot;origPos&quot;:null,&quot;origRot&quot;:0}" fill="#d3bb76"/><path d="M257.83952,176.20584l0.15015,-5.74192l12.91936,0.33779l-0.15014,5.74195z" data-paper-data="{&quot;origPos&quot;:null,&quot;origRot&quot;:0}" fill="#d3bb76"/><path d="M241.61696,339.3707l3.82577,-131.09121l37.13107,3.96237l-3.9863,128.09552z" data-paper-data="{&quot;origPos&quot;:null,&quot;origRot&quot;:0}" fill="#d3bb76"/><path d="M242.75943,282.20041l1.68529,-64.45331l37.32263,0.97589l-1.68529,64.45332z" data-paper-data="{&quot;origPos&quot;:null,&quot;origRot&quot;:0}" fill="#b9a568"/><path d="M237.12374,277.98787l1.69466,-64.81219l47.94522,1.25364l-1.69465,64.81218z" data-paper-data="{&quot;origPos&quot;:null,&quot;origRot&quot;:0}" fill="#e7cd81"/><path d="M234.22487,272.02296l1.23862,-47.37102l5.16775,0.13511l-1.23862,47.37103z" data-paper-data="{&quot;origPos&quot;:null,&quot;origRot&quot;:0}" fill="#d3bb76"/><path d="M246.01902,224.56266l0.13062,-4.99548l24.97744,0.65308l-0.13061,4.99549z" data-paper-data="{&quot;origPos&quot;:null,&quot;origRot&quot;:0}" fill="#d3bb76"/><path d="M264.92924,259.48063l1.02242,-39.10263l5.16775,0.13511l-1.02242,39.10264z" data-paper-data="{&quot;origPos&quot;:null,&quot;origRot&quot;:0}" fill="#d3bb76"/><path d="M254.93376,259.39161l0.71165,-27.21679l5.16775,0.13511l-0.71164,27.21682z" data-paper-data="{&quot;origPos&quot;:null,&quot;origRot&quot;:0}" fill="#d3bb76"/><path d="M255.10463,259.44781l0.14414,-5.51227l14.81422,0.38735l-0.14414,5.51227z" data-paper-data="{&quot;origPos&quot;:null,&quot;origRot&quot;:0}" fill="#d3bb76"/><path d="M244.6802,269.17304l0.13061,-4.99549l33.93488,0.8873l-0.13061,4.99549z" data-paper-data="{&quot;origPos&quot;:null,&quot;origRot&quot;:0}" fill="#d3bb76"/><path d="M274.30998,269.89607l1.29266,-49.43813l5.16775,0.13512l-1.29267,49.43813z" data-paper-data="{&quot;origPos&quot;:null,&quot;origRot&quot;:0}" fill="#d3bb76"/><path d="M236.27332,328.3643l0.67562,-25.83875l5.16775,0.13512l-0.67562,25.83875z" data-paper-data="{&quot;origPos&quot;:null,&quot;origRot&quot;:0}" fill="#d3bb76"/></g><path d="M243.73521,533.00887l-2.83489,-25.69165l5.13833,-0.56698l2.8349,25.69164z" data-paper-data="{&quot;origPos&quot;:null,&quot;origRot&quot;:0}" fill="#d3bb76"/><path d="M252.83849,531.71543l-2.8349,-25.69165l5.13833,-0.56698l2.83489,25.69164z" data-paper-data="{&quot;origPos&quot;:null,&quot;origRot&quot;:0}" fill="#d3bb76"/><g data-paper-data="{&quot;origPos&quot;:null,&quot;origRot&quot;:0}"><path d="M241.90471,338.57753l3.55821,-136.08406l36.97054,0.96669l-3.55822,136.08406z" data-paper-data="{&quot;origPos&quot;:null,&quot;origRot&quot;:0}" fill="#d3bb76"/><path d="M243.04718,281.40723l1.68528,-64.45332l37.32263,0.97588l-1.68528,64.45331z" data-paper-data="{&quot;origPos&quot;:null,&quot;origRot&quot;:0}" fill="#b9a568"/><path d="M237.41151,277.19469l1.69465,-64.81218l47.94523,1.25363l-1.69466,64.81219z" data-paper-data="{&quot;origPos&quot;:null,&quot;origRot&quot;:0}" fill="#e7cd81"/><path d="M244.99184,267.4669l1.23862,-47.37102l5.16775,0.13511l-1.23862,47.37103z" data-paper-data="{&quot;origPos&quot;:null,&quot;origRot&quot;:0}" fill="#b9a568"/><path d="M245.02785,266.08878l1.23862,-47.37102l5.16775,0.13512l-1.23863,47.37103z" data-paper-data="{&quot;origPos&quot;:null,&quot;origRot&quot;:0}" fill="#d3bb76"/><path d="M246.30676,223.76948l0.13061,-4.99548l24.97745,0.65309l-0.13061,4.99549z" data-paper-data="{&quot;origPos&quot;:null,&quot;origRot&quot;:0}" fill="#d3bb76"/><path d="M265.217,258.68744l1.02243,-39.10263l5.16776,0.13512l-1.02243,39.10263z" data-paper-data="{&quot;origPos&quot;:null,&quot;origRot&quot;:0}" fill="#d3bb76"/><path d="M255.22151,258.59843l0.71165,-27.2168l5.16776,0.13512l-0.71164,27.21682z" data-paper-data="{&quot;origPos&quot;:null,&quot;origRot&quot;:0}" fill="#d3bb76"/><path d="M255.3924,258.65463l0.14413,-5.51226l14.81422,0.38736l-0.14413,5.51226z" data-paper-data="{&quot;origPos&quot;:null,&quot;origRot&quot;:0}" fill="#d3bb76"/><path d="M244.96795,268.37984l0.13061,-4.99548l33.93488,0.8873l-0.13061,4.99549z" data-paper-data="{&quot;origPos&quot;:null,&quot;origRot&quot;:0}" fill="#d3bb76"/><path d="M274.5977,269.10288l1.29265,-49.43813l5.16775,0.13512l-1.29266,49.43812z" data-paper-data="{&quot;origPos&quot;:null,&quot;origRot&quot;:0}" fill="#d3bb76"/><path d="M242.22863,329.19386l1.04867,-40.10662l36.74843,0.96087l-1.04868,40.10662z" data-paper-data="{&quot;origPos&quot;:null,&quot;origRot&quot;:0}" fill="#b9a568"/><path d="M236.58948,325.11274l0.97285,-37.2063l47.94523,1.25364l-0.97285,37.20629z" data-paper-data="{&quot;origPos&quot;:null,&quot;origRot&quot;:0}" fill="#e7cd81"/><path d="M242.77781,319.17928l0.67562,-25.83874l5.16776,0.13512l-0.67562,25.83875z" data-paper-data="{&quot;origPos&quot;:null,&quot;origRot&quot;:0}" fill="#d3bb76"/><path d="M272.93053,319.6804l0.67562,-25.83875l5.16775,0.13512l-0.67562,25.83875z" data-paper-data="{&quot;origPos&quot;:null,&quot;origRot&quot;:0}" fill="#d3bb76"/><path d="M251.97243,319.13237l0.67562,-25.83875l5.16775,0.13512l-0.67562,25.83875z" data-paper-data="{&quot;origPos&quot;:null,&quot;origRot&quot;:0}" fill="#d3bb76"/><path d="M264.03051,319.4477l0.67562,-25.83875l5.16775,0.13511l-0.67562,25.83875z" data-paper-data="{&quot;origPos&quot;:null,&quot;origRot&quot;:0}" fill="#d3bb76"/><path d="M253.36558,318.95816l0.15015,-5.74193l12.91938,0.33779l-0.15015,5.74193z" data-paper-data="{&quot;origPos&quot;:null,&quot;origRot&quot;:0}" fill="#d3bb76"/><path d="M254.74482,299.17097l0.15015,-5.74193l12.91938,0.33778l-0.15015,5.74194z" data-paper-data="{&quot;origPos&quot;:null,&quot;origRot&quot;:0}" fill="#d3bb76"/><path d="M238.52227,462.33581l3.82577,-131.09122l37.13106,3.96238l-3.9863,128.09551z" data-paper-data="{&quot;origPos&quot;:null,&quot;origRot&quot;:0}" fill="#d3bb76"/><path d="M239.66475,405.16554l1.68528,-64.45332l37.32263,0.97588l-1.68528,64.45332z" data-paper-data="{&quot;origPos&quot;:null,&quot;origRot&quot;:0}" fill="#b9a568"/><path d="M234.02906,400.953l1.69466,-64.81219l47.94523,1.25363l-1.69466,64.81219z" data-paper-data="{&quot;origPos&quot;:null,&quot;origRot&quot;:0}" fill="#e7cd81"/><path d="M231.1302,394.9881l1.23861,-47.37102l5.16775,0.13512l-1.23862,47.37103z" data-paper-data="{&quot;origPos&quot;:null,&quot;origRot&quot;:0}" fill="#d3bb76"/><path d="M242.92435,347.52781l0.13061,-4.99548l24.97745,0.65309l-0.13061,4.99549z" data-paper-data="{&quot;origPos&quot;:null,&quot;origRot&quot;:0}" fill="#d3bb76"/><path d="M261.83455,382.44577l1.02243,-39.10264l5.16776,0.13512l-1.02243,39.10263z" data-paper-data="{&quot;origPos&quot;:null,&quot;origRot&quot;:0}" fill="#d3bb76"/><path d="M251.83909,382.35676l0.71165,-27.2168l5.16776,0.13512l-0.71164,27.21682z" data-paper-data="{&quot;origPos&quot;:null,&quot;origRot&quot;:0}" fill="#d3bb76"/><path d="M252.00995,382.41296l0.14413,-5.51226l14.81422,0.38735l-0.14413,5.51227z" data-paper-data="{&quot;origPos&quot;:null,&quot;origRot&quot;:0}" fill="#d3bb76"/><path d="M241.58552,392.1382l0.13061,-4.99549l33.93488,0.8873l-0.13061,4.99549z" data-paper-data="{&quot;origPos&quot;:null,&quot;origRot&quot;:0}" fill="#d3bb76"/><path d="M271.21531,392.86123l1.29266,-49.43812l5.16775,0.13511l-1.29267,49.43813z" data-paper-data="{&quot;origPos&quot;:null,&quot;origRot&quot;:0}" fill="#d3bb76"/><path d="M233.17865,451.32943l0.67562,-25.83875l5.16775,0.13512l-0.67562,25.83875z" data-paper-data="{&quot;origPos&quot;:null,&quot;origRot&quot;:0}" fill="#d3bb76"/></g><g data-paper-data="{&quot;origPos&quot;:null,&quot;origRot&quot;:0}"><path d="M393.99938,266.8124l3.55822,-136.08406l36.97054,0.96669l-3.55822,136.08406z" data-paper-data="{&quot;origPos&quot;:null,&quot;origRot&quot;:0}" fill="#d3bb76"/><path d="M395.14187,209.64212l1.68527,-64.45332l37.32263,0.97588l-1.68527,64.45331z" data-paper-data="{&quot;origPos&quot;:null,&quot;origRot&quot;:0}" fill="#b9a568"/><path d="M389.50618,205.42955l1.69466,-64.81218l47.94522,1.25363l-1.69466,64.8122z" data-paper-data="{&quot;origPos&quot;:null,&quot;origRot&quot;:0}" fill="#e7cd81"/><path d="M397.08651,195.70177l1.23862,-47.37102l5.16775,0.13512l-1.23862,47.37103z" data-paper-data="{&quot;origPos&quot;:null,&quot;origRot&quot;:0}" fill="#b9a568"/><path d="M397.12252,194.32366l1.23861,-47.37101l5.16775,0.13511l-1.23863,47.37104z" data-paper-data="{&quot;origPos&quot;:null,&quot;origRot&quot;:0}" fill="#d3bb76"/><path d="M398.40143,152.00434l0.13061,-4.99548l24.97744,0.65309l-0.13061,4.99549z" data-paper-data="{&quot;origPos&quot;:null,&quot;origRot&quot;:0}" fill="#d3bb76"/><path d="M417.31167,186.92231l1.02242,-39.10264l5.16775,0.13512l-1.02243,39.10264z" data-paper-data="{&quot;origPos&quot;:null,&quot;origRot&quot;:0}" fill="#d3bb76"/><path d="M407.31618,186.8333l0.71165,-27.21681l5.16775,0.13511l-0.71164,27.21683z" data-paper-data="{&quot;origPos&quot;:null,&quot;origRot&quot;:0}" fill="#d3bb76"/><path d="M407.48707,186.88947l0.14413,-5.51226l14.81423,0.38735l-0.14414,5.51228z" data-paper-data="{&quot;origPos&quot;:null,&quot;origRot&quot;:0}" fill="#d3bb76"/><path d="M397.06262,196.61468l0.1306,-4.99548l33.93489,0.8873l-0.13061,4.9955z" data-paper-data="{&quot;origPos&quot;:null,&quot;origRot&quot;:0}" fill="#d3bb76"/><path d="M426.69237,197.33776l1.29266,-49.43813l5.16775,0.13511l-1.29267,49.43813z" data-paper-data="{&quot;origPos&quot;:null,&quot;origRot&quot;:0}" fill="#d3bb76"/><path d="M394.32333,257.42873l1.04866,-40.10661l36.74843,0.96087l-1.04868,40.10662z" data-paper-data="{&quot;origPos&quot;:null,&quot;origRot&quot;:0}" fill="#b9a568"/><path d="M388.68416,253.3476l0.97285,-37.20628l47.94522,1.25363l-0.97285,37.2063z" data-paper-data="{&quot;origPos&quot;:null,&quot;origRot&quot;:0}" fill="#e7cd81"/><path d="M394.87248,247.41417l0.67562,-25.83875l5.16776,0.13512l-0.67562,25.83875z" data-paper-data="{&quot;origPos&quot;:null,&quot;origRot&quot;:0}" fill="#d3bb76"/><path d="M425.0252,247.91525l0.67562,-25.83875l5.16774,0.13512l-0.67562,25.83875z" data-paper-data="{&quot;origPos&quot;:null,&quot;origRot&quot;:0}" fill="#d3bb76"/><path d="M404.06711,247.36723l0.67562,-25.83875l5.16775,0.13512l-0.67563,25.83876z" data-paper-data="{&quot;origPos&quot;:null,&quot;origRot&quot;:0}" fill="#d3bb76"/><path d="M416.12519,247.68255l0.67562,-25.83875l5.16774,0.13512l-0.67562,25.83874z" data-paper-data="{&quot;origPos&quot;:null,&quot;origRot&quot;:0}" fill="#d3bb76"/><path d="M405.46025,247.19303l0.15015,-5.74194l12.91938,0.3378l-0.15014,5.74193z" data-paper-data="{&quot;origPos&quot;:null,&quot;origRot&quot;:0}" fill="#d3bb76"/><path d="M406.83952,227.40584l0.15015,-5.74193l12.91936,0.33779l-0.15013,5.74195z" data-paper-data="{&quot;origPos&quot;:null,&quot;origRot&quot;:0}" fill="#d3bb76"/><path d="M390.61695,390.5707l3.82577,-131.0912l37.13108,3.96237l-3.98631,128.09552z" data-paper-data="{&quot;origPos&quot;:null,&quot;origRot&quot;:0}" fill="#d3bb76"/><path d="M391.75943,333.40041l1.68528,-64.45332l37.32263,0.97589l-1.68529,64.45332z" data-paper-data="{&quot;origPos&quot;:null,&quot;origRot&quot;:0}" fill="#b9a568"/><path d="M386.12374,329.18787l1.69466,-64.81218l47.94522,1.25363l-1.69466,64.81219z" data-paper-data="{&quot;origPos&quot;:null,&quot;origRot&quot;:0}" fill="#e7cd81"/><path d="M383.22487,323.22296l1.23862,-47.37102l5.16775,0.13511l-1.23863,47.37103z" data-paper-data="{&quot;origPos&quot;:null,&quot;origRot&quot;:0}" fill="#d3bb76"/><path d="M395.01902,275.76266l0.13062,-4.99548l24.97744,0.65308l-0.13061,4.99549z" data-paper-data="{&quot;origPos&quot;:null,&quot;origRot&quot;:0}" fill="#d3bb76"/><path d="M413.92925,310.68062l1.02242,-39.10263l5.16774,0.13511l-1.02241,39.10264z" data-paper-data="{&quot;origPos&quot;:null,&quot;origRot&quot;:0}" fill="#d3bb76"/><path d="M403.93376,310.59161l0.71164,-27.21679l5.16775,0.13511l-0.71164,27.21682z" data-paper-data="{&quot;origPos&quot;:null,&quot;origRot&quot;:0}" fill="#d3bb76"/><path d="M404.10463,310.64781l0.14415,-5.51227l14.81422,0.38735l-0.14414,5.51227z" data-paper-data="{&quot;origPos&quot;:null,&quot;origRot&quot;:0}" fill="#d3bb76"/><path d="M393.6802,320.37303l0.13061,-4.99549l33.93487,0.8873l-0.13061,4.9955z" data-paper-data="{&quot;origPos&quot;:null,&quot;origRot&quot;:0}" fill="#d3bb76"/><path d="M423.30998,321.09607l1.29266,-49.43813l5.16774,0.13512l-1.29267,49.43812z" data-paper-data="{&quot;origPos&quot;:null,&quot;origRot&quot;:0}" fill="#d3bb76"/><path d="M385.27332,379.5643l0.67562,-25.83875l5.16774,0.13511l-0.67562,25.83875z" data-paper-data="{&quot;origPos&quot;:null,&quot;origRot&quot;:0}" fill="#d3bb76"/></g><path d="M402.73521,585.20886l-2.83489,-25.69165l5.13833,-0.56698l2.8349,25.69164z" data-paper-data="{&quot;origPos&quot;:null,&quot;origRot&quot;:0}" fill="#d3bb76"/><path d="M411.83849,583.91542l-2.8349,-25.69165l5.13833,-0.56698l2.83489,25.69164z" data-paper-data="{&quot;origPos&quot;:null,&quot;origRot&quot;:0}" fill="#d3bb76"/><g data-paper-data="{&quot;origPos&quot;:null,&quot;origRot&quot;:0}"><path d="M390.90471,389.77753l3.55821,-136.08406l36.97054,0.96668l-3.55822,136.08406z" data-paper-data="{&quot;origPos&quot;:null,&quot;origRot&quot;:0}" fill="#d3bb76"/><path d="M392.04719,332.60723l1.68528,-64.45332l37.32263,0.97588l-1.68529,64.45331z" data-paper-data="{&quot;origPos&quot;:null,&quot;origRot&quot;:0}" fill="#b9a568"/><path d="M386.41151,328.39469l1.69465,-64.81218l47.94523,1.25363l-1.69466,64.81219z" data-paper-data="{&quot;origPos&quot;:null,&quot;origRot&quot;:0}" fill="#e7cd81"/><path d="M393.99184,318.66689l1.23861,-47.37102l5.16774,0.13512l-1.23861,47.37103z" data-paper-data="{&quot;origPos&quot;:null,&quot;origRot&quot;:0}" fill="#b9a568"/><path d="M394.02785,317.28878l1.23862,-47.37102l5.16774,0.13512l-1.23863,47.37103z" data-paper-data="{&quot;origPos&quot;:null,&quot;origRot&quot;:0}" fill="#d3bb76"/><path d="M395.30676,274.96948l0.13061,-4.99548l24.97745,0.65309l-0.13061,4.99549z" data-paper-data="{&quot;origPos&quot;:null,&quot;origRot&quot;:0}" fill="#d3bb76"/><path d="M414.217,309.88744l1.02243,-39.10264l5.16775,0.13511l-1.02242,39.10264z" data-paper-data="{&quot;origPos&quot;:null,&quot;origRot&quot;:0}" fill="#d3bb76"/><path d="M404.22151,309.79843l0.71165,-27.21681l5.16776,0.13512l-0.71164,27.21682z" data-paper-data="{&quot;origPos&quot;:null,&quot;origRot&quot;:0}" fill="#d3bb76"/><path d="M404.3924,309.85463l0.14413,-5.51226l14.81423,0.38736l-0.14413,5.51226z" data-paper-data="{&quot;origPos&quot;:null,&quot;origRot&quot;:0}" fill="#d3bb76"/><path d="M393.96795,319.57983l0.13061,-4.99548l33.93487,0.8873l-0.13061,4.99549z" data-paper-data="{&quot;origPos&quot;:null,&quot;origRot&quot;:0}" fill="#d3bb76"/><path d="M423.59771,320.30287l1.29265,-49.43812l5.16775,0.13511l-1.29266,49.43813z" data-paper-data="{&quot;origPos&quot;:null,&quot;origRot&quot;:0}" fill="#d3bb76"/><path d="M391.22864,380.39386l1.04867,-40.10662l36.74843,0.96087l-1.04868,40.10662z" data-paper-data="{&quot;origPos&quot;:null,&quot;origRot&quot;:0}" fill="#b9a568"/><path d="M385.58948,376.31274l0.97285,-37.2063l47.94523,1.25363l-0.97285,37.2063z" data-paper-data="{&quot;origPos&quot;:null,&quot;origRot&quot;:0}" fill="#e7cd81"/><path d="M391.77781,370.37928l0.67562,-25.83874l5.16775,0.13511l-0.67562,25.83875z" data-paper-data="{&quot;origPos&quot;:null,&quot;origRot&quot;:0}" fill="#d3bb76"/><path d="M421.93053,370.8804l0.67562,-25.83875l5.16774,0.13512l-0.67562,25.83875z" data-paper-data="{&quot;origPos&quot;:null,&quot;origRot&quot;:0}" fill="#d3bb76"/><path d="M400.97244,370.33237l0.67562,-25.83875l5.16775,0.13512l-0.67562,25.83874z" data-paper-data="{&quot;origPos&quot;:null,&quot;origRot&quot;:0}" fill="#d3bb76"/><path d="M413.03051,370.6477l0.67562,-25.83875l5.16775,0.13511l-0.67562,25.83875z" data-paper-data="{&quot;origPos&quot;:null,&quot;origRot&quot;:0}" fill="#d3bb76"/><path d="M402.36558,370.15816l0.15015,-5.74193l12.91939,0.33779l-0.15015,5.74194z" data-paper-data="{&quot;origPos&quot;:null,&quot;origRot&quot;:0}" fill="#d3bb76"/><path d="M403.74482,350.37097l0.15015,-5.74194l12.91938,0.33778l-0.15015,5.74194z" data-paper-data="{&quot;origPos&quot;:null,&quot;origRot&quot;:0}" fill="#d3bb76"/><path d="M387.52228,513.53581l3.82577,-131.09122l37.13106,3.96238l-3.9863,128.09552z" data-paper-data="{&quot;origPos&quot;:null,&quot;origRot&quot;:0}" fill="#d3bb76"/><path d="M388.66475,456.36554l1.68528,-64.45332l37.32263,0.97588l-1.68529,64.45331z" data-paper-data="{&quot;origPos&quot;:null,&quot;origRot&quot;:0}" fill="#b9a568"/><path d="M383.02907,452.153l1.69465,-64.81219l47.94523,1.25364l-1.69466,64.81219z" data-paper-data="{&quot;origPos&quot;:null,&quot;origRot&quot;:0}" fill="#e7cd81"/><path d="M380.1302,446.1881l1.23862,-47.37102l5.16774,0.13512l-1.23863,47.37103z" data-paper-data="{&quot;origPos&quot;:null,&quot;origRot&quot;:0}" fill="#d3bb76"/><path d="M391.92435,398.72781l0.13061,-4.99548l24.97745,0.65309l-0.13061,4.99548z" data-paper-data="{&quot;origPos&quot;:null,&quot;origRot&quot;:0}" fill="#d3bb76"/><path d="M410.83456,433.64576l1.02242,-39.10264l5.16775,0.13512l-1.02242,39.10263z" data-paper-data="{&quot;origPos&quot;:null,&quot;origRot&quot;:0}" fill="#d3bb76"/><path d="M400.83909,433.55676l0.71165,-27.21681l5.16776,0.13512l-0.71165,27.21682z" data-paper-data="{&quot;origPos&quot;:null,&quot;origRot&quot;:0}" fill="#d3bb76"/><path d="M401.00995,433.61296l0.14413,-5.51227l14.81422,0.38735l-0.14413,5.51227z" data-paper-data="{&quot;origPos&quot;:null,&quot;origRot&quot;:0}" fill="#d3bb76"/><path d="M390.58552,443.3382l0.13061,-4.9955l33.93488,0.88731l-0.13061,4.99548z" data-paper-data="{&quot;origPos&quot;:null,&quot;origRot&quot;:0}" fill="#d3bb76"/><path d="M420.21531,444.06123l1.29266,-49.43812l5.16775,0.13511l-1.29267,49.43813z" data-paper-data="{&quot;origPos&quot;:null,&quot;origRot&quot;:0}" fill="#d3bb76"/><path d="M382.17864,502.52942l0.67562,-25.83875l5.16775,0.13511l-0.67562,25.83875z" data-paper-data="{&quot;origPos&quot;:null,&quot;origRot&quot;:0}" fill="#d3bb76"/></g></g></g></svg>