<svg version="1.1" xmlns="http://www.w3.org/2000/svg" xmlns:xlink="http://www.w3.org/1999/xlink" width="385.08041" height="336.20173"><g transform="translate(-67.79191,-173.97718)"><g data-paper-data="{&quot;isPaintingLayer&quot;:true}" fill="none" fill-rule="nonzero" stroke="none" stroke-width="0" stroke-linecap="butt" stroke-linejoin="miter" stroke-miterlimit="10" stroke-dasharray="" stroke-dashoffset="0" font-family="none" font-weight="none" font-size="none" text-anchor="none" style="mix-blend-mode: normal"><path d="M402.97601,312.39216l-9.67609,-135.78625l36.88963,-2.62873l9.67609,135.78624z" data-paper-data="{&quot;origPos&quot;:null,&quot;origRot&quot;:0}" fill="#d3bb76"/><path d="M398.5603,255.38129l-4.58286,-64.31226l37.24095,-2.65378l4.58286,64.31225z" data-paper-data="{&quot;origPos&quot;:null,&quot;origRot&quot;:0}" fill="#b9a568"/><path d="M392.54211,251.736l-4.60839,-64.67036l47.8403,-3.40908l4.60838,64.67035z" data-paper-data="{&quot;origPos&quot;:null,&quot;origRot&quot;:0}" fill="#e7cd81"/><path d="M399.14177,241.31795l-3.36826,-47.26735l5.15643,-0.36745l3.36826,47.26736z" data-paper-data="{&quot;origPos&quot;:null,&quot;origRot&quot;:0}" fill="#b9a568"/><path d="M399.04378,239.94291l-3.36826,-47.26735l5.15643,-0.36745l3.36825,47.26736z" data-paper-data="{&quot;origPos&quot;:null,&quot;origRot&quot;:0}" fill="#d3bb76"/><path d="M396.20628,197.69943l-0.3552,-4.98455l24.92279,-1.77599l0.35521,4.98456z" data-paper-data="{&quot;origPos&quot;:null,&quot;origRot&quot;:0}" fill="#d3bb76"/><path d="M418.41858,230.61558l-2.78034,-39.01706l5.15644,-0.36745l2.78034,39.01707z" data-paper-data="{&quot;origPos&quot;:null,&quot;origRot&quot;:0}" fill="#d3bb76"/><path d="M408.4617,231.49787l-1.93521,-27.15724l5.15644,-0.36745l1.93522,27.15725z" data-paper-data="{&quot;origPos&quot;:null,&quot;origRot&quot;:0}" fill="#d3bb76"/><path d="M408.63724,231.53718l-0.39194,-5.5002l14.7818,-1.05334l0.39194,5.50021z" data-paper-data="{&quot;origPos&quot;:null,&quot;origRot&quot;:0}" fill="#d3bb76"/><path d="M399.20666,242.22893l-0.3552,-4.98455l33.86061,-2.4129l0.35521,4.98456z" data-paper-data="{&quot;origPos&quot;:null,&quot;origRot&quot;:0}" fill="#d3bb76"/><path d="M428.76657,240.07069l-3.51524,-49.32993l5.15643,-0.36745l3.51523,49.32994z" data-paper-data="{&quot;origPos&quot;:null,&quot;origRot&quot;:0}" fill="#d3bb76"/><path d="M402.387,303.02145l-2.85173,-40.01884l36.66801,-2.61295l2.85172,40.01884z" data-paper-data="{&quot;origPos&quot;:null,&quot;origRot&quot;:0}" fill="#b9a568"/><path d="M396.37815,299.50732l-2.6455,-37.12487l47.8403,-3.40909l2.6455,37.12487z" data-paper-data="{&quot;origPos&quot;:null,&quot;origRot&quot;:0}" fill="#e7cd81"/><path d="M401.96089,293.00086l-1.83723,-25.78219l5.15644,-0.36745l1.83723,25.7822z" data-paper-data="{&quot;origPos&quot;:null,&quot;origRot&quot;:0}" fill="#d3bb76"/><path d="M432.01972,290.57097l-1.83722,-25.78221l5.15643,-0.36744l1.83722,25.78221z" data-paper-data="{&quot;origPos&quot;:null,&quot;origRot&quot;:0}" fill="#d3bb76"/><path d="M411.10749,292.06113l-1.83722,-25.78221l5.15643,-0.36745l1.83723,25.78221z" data-paper-data="{&quot;origPos&quot;:null,&quot;origRot&quot;:0}" fill="#d3bb76"/><path d="M423.13916,291.20376l-1.83722,-25.78221l5.15643,-0.36745l1.83723,25.7822z" data-paper-data="{&quot;origPos&quot;:null,&quot;origRot&quot;:0}" fill="#d3bb76"/><path d="M412.47712,291.75243l-0.40826,-5.72937l12.89111,-0.91862l0.40827,5.72937z" data-paper-data="{&quot;origPos&quot;:null,&quot;origRot&quot;:0}" fill="#d3bb76"/><path d="M411.92798,271.92483l-0.40827,-5.72937l12.8911,-0.91863l0.40826,5.72938z" data-paper-data="{&quot;origPos&quot;:null,&quot;origRot&quot;:0}" fill="#d3bb76"/><path d="M411.62989,435.89389l-8.92485,-130.843l37.34037,0.3372l8.47411,127.87706z" data-paper-data="{&quot;origPos&quot;:null,&quot;origRot&quot;:0}" fill="#d3bb76"/><path d="M407.21418,378.88299l-4.58286,-64.31226l37.24095,-2.65378l4.58286,64.31226z" data-paper-data="{&quot;origPos&quot;:null,&quot;origRot&quot;:0}" fill="#b9a568"/><path d="M401.19599,375.23772l-4.60839,-64.67035l47.8403,-3.40909l4.60839,64.67035z" data-paper-data="{&quot;origPos&quot;:null,&quot;origRot&quot;:0}" fill="#e7cd81"/><path d="M407.79564,364.81967l-3.36826,-47.26735l5.15643,-0.36744l3.36826,47.26736z" data-paper-data="{&quot;origPos&quot;:null,&quot;origRot&quot;:0}" fill="#b9a568"/><path d="M407.69766,363.44459l-3.36826,-47.26735l5.15643,-0.36745l3.36825,47.26736z" data-paper-data="{&quot;origPos&quot;:null,&quot;origRot&quot;:0}" fill="#d3bb76"/><path d="M404.86015,321.20114l-0.3552,-4.98455l24.92279,-1.77599l0.35521,4.98456z" data-paper-data="{&quot;origPos&quot;:null,&quot;origRot&quot;:0}" fill="#d3bb76"/><path d="M427.07245,354.11729l-2.78034,-39.01706l5.15644,-0.36745l2.78034,39.01706z" data-paper-data="{&quot;origPos&quot;:null,&quot;origRot&quot;:0}" fill="#d3bb76"/><path d="M417.11558,354.99957l-1.93521,-27.15724l5.15644,-0.36745l1.93522,27.15725z" data-paper-data="{&quot;origPos&quot;:null,&quot;origRot&quot;:0}" fill="#d3bb76"/><path d="M417.29112,355.03888l-0.39194,-5.50021l14.7818,-1.05334l0.39195,5.50021z" data-paper-data="{&quot;origPos&quot;:null,&quot;origRot&quot;:0}" fill="#d3bb76"/><path d="M407.86054,365.73064l-0.35521,-4.98456l33.86062,-2.4129l0.3552,4.98456z" data-paper-data="{&quot;origPos&quot;:null,&quot;origRot&quot;:0}" fill="#d3bb76"/><path d="M437.42045,363.57239l-3.51524,-49.32993l5.15643,-0.36744l3.51523,49.32993z" data-paper-data="{&quot;origPos&quot;:null,&quot;origRot&quot;:0}" fill="#d3bb76"/><path d="M411.04088,426.52316l-2.85173,-40.01885l36.66801,-2.61295l2.85172,40.01884z" data-paper-data="{&quot;origPos&quot;:null,&quot;origRot&quot;:0}" fill="#b9a568"/><path d="M405.03203,423.00905l-2.6455,-37.12487l47.8403,-3.40909l2.6455,37.12487z" data-paper-data="{&quot;origPos&quot;:null,&quot;origRot&quot;:0}" fill="#e7cd81"/><path d="M410.61477,416.5026l-1.83722,-25.78221l5.15644,-0.36745l1.83723,25.7822z" data-paper-data="{&quot;origPos&quot;:null,&quot;origRot&quot;:0}" fill="#d3bb76"/><path d="M440.67359,414.07268l-1.83723,-25.78221l5.15643,-0.36744l1.83723,25.7822z" data-paper-data="{&quot;origPos&quot;:null,&quot;origRot&quot;:0}" fill="#d3bb76"/><path d="M419.76137,415.56287l-1.83723,-25.7822l5.15643,-0.36745l1.83722,25.78221z" data-paper-data="{&quot;origPos&quot;:null,&quot;origRot&quot;:0}" fill="#d3bb76"/><path d="M431.79305,414.70551l-1.83723,-25.78221l5.15643,-0.36744l1.83723,25.7822z" data-paper-data="{&quot;origPos&quot;:null,&quot;origRot&quot;:0}" fill="#d3bb76"/><path d="M421.131,415.25414l-0.40827,-5.72937l12.89111,-0.91862l0.40827,5.72937z" data-paper-data="{&quot;origPos&quot;:null,&quot;origRot&quot;:0}" fill="#d3bb76"/><path d="M420.58185,395.42655l-0.40826,-5.72937l12.89109,-0.91863l0.40827,5.72938z" data-paper-data="{&quot;origPos&quot;:null,&quot;origRot&quot;:0}" fill="#d3bb76"/><path d="M82.5785,386.38455l-1.90384,-136.11726l36.97955,-0.51721l1.90384,136.11725z" data-paper-data="{&quot;origPos&quot;:null,&quot;origRot&quot;:0}" fill="#d3bb76"/><path d="M81.4266,329.21447l-0.90171,-64.46903l37.33173,-0.52215l0.9017,64.46902z" data-paper-data="{&quot;origPos&quot;:null,&quot;origRot&quot;:0}" fill="#b9a568"/><path d="M75.62647,325.2314l-0.90673,-64.82801l47.95693,-0.67076l0.90672,64.828z" data-paper-data="{&quot;origPos&quot;:null,&quot;origRot&quot;:0}" fill="#e7cd81"/><path d="M82.81046,315.20733l-0.66273,-47.38257l5.169,-0.0723l0.66273,47.38258z" data-paper-data="{&quot;origPos&quot;:null,&quot;origRot&quot;:0}" fill="#b9a568"/><path d="M82.79118,313.82893l-0.66273,-47.38257l5.169,-0.0723l0.66272,47.38259z" data-paper-data="{&quot;origPos&quot;:null,&quot;origRot&quot;:0}" fill="#d3bb76"/><path d="M82.37135,271.49234l-0.06989,-4.99671l24.98354,-0.34944l0.06989,4.99671z" data-paper-data="{&quot;origPos&quot;:null,&quot;origRot&quot;:0}" fill="#d3bb76"/><path d="M102.66714,305.62358l-0.54704,-39.11218l5.16901,-0.0723l0.54704,39.11218z" data-paper-data="{&quot;origPos&quot;:null,&quot;origRot&quot;:0}" fill="#d3bb76"/><path d="M92.67612,305.93565l-0.38076,-27.22345l5.16901,-0.0723l0.38077,27.22346z" data-paper-data="{&quot;origPos&quot;:null,&quot;origRot&quot;:0}" fill="#d3bb76"/><path d="M92.84914,305.98491l-0.07711,-5.51361l14.81784,-0.20724l0.07711,5.51362z" data-paper-data="{&quot;origPos&quot;:null,&quot;origRot&quot;:0}" fill="#d3bb76"/><path d="M82.82318,316.1205l-0.06989,-4.9967l33.94315,-0.47476l0.06989,4.99671z" data-paper-data="{&quot;origPos&quot;:null,&quot;origRot&quot;:0}" fill="#d3bb76"/><path d="M112.45813,315.65432l-0.69166,-49.45019l5.16901,-0.0723l0.69165,49.45019z" data-paper-data="{&quot;origPos&quot;:null,&quot;origRot&quot;:0}" fill="#d3bb76"/><path d="M82.52572,376.99545l-0.5611,-40.11639l36.75739,-0.51412l0.56109,40.1164z" data-paper-data="{&quot;origPos&quot;:null,&quot;origRot&quot;:0}" fill="#b9a568"/><path d="M76.72741,373.14386l-0.52051,-37.21537l47.95692,-0.67076l0.52052,37.21536z" data-paper-data="{&quot;origPos&quot;:null,&quot;origRot&quot;:0}" fill="#e7cd81"/><path d="M82.6727,366.96693l-0.36148,-25.84504l5.16901,-0.0723l0.36149,25.84505z" data-paper-data="{&quot;origPos&quot;:null,&quot;origRot&quot;:0}" fill="#d3bb76"/><path d="M112.82127,366.25802l-0.36148,-25.84506l5.169,-0.0723l0.36148,25.84505z" data-paper-data="{&quot;origPos&quot;:null,&quot;origRot&quot;:0}" fill="#d3bb76"/><path d="M91.85807,366.55122l-0.36148,-25.84505l5.169,-0.0723l0.36148,25.84506z" data-paper-data="{&quot;origPos&quot;:null,&quot;origRot&quot;:0}" fill="#d3bb76"/><path d="M103.91907,366.38252l-0.36148,-25.84505l5.169,-0.0723l0.36148,25.84505z" data-paper-data="{&quot;origPos&quot;:null,&quot;origRot&quot;:0}" fill="#d3bb76"/><path d="M93.24308,366.32122l-0.08032,-5.74333l12.92253,-0.18075l0.08033,5.74334z" data-paper-data="{&quot;origPos&quot;:null,&quot;origRot&quot;:0}" fill="#d3bb76"/><path d="M93.82745,346.49464l-0.08033,-5.74334l12.92253,-0.18075l0.08032,5.74335z" data-paper-data="{&quot;origPos&quot;:null,&quot;origRot&quot;:0}" fill="#d3bb76"/><path d="M84.16351,510.17892l-1.4362,-131.13916l37.26013,2.46963l1.15562,128.15232z" data-paper-data="{&quot;origPos&quot;:null,&quot;origRot&quot;:0}" fill="#d3bb76"/><path d="M83.01162,453.00885l-0.9017,-64.46904l37.33173,-0.52215l0.9017,64.46904z" data-paper-data="{&quot;origPos&quot;:null,&quot;origRot&quot;:0}" fill="#b9a568"/><path d="M77.21147,449.02575l-0.90673,-64.828l47.95692,-0.67077l0.90673,64.828z" data-paper-data="{&quot;origPos&quot;:null,&quot;origRot&quot;:0}" fill="#e7cd81"/><path d="M84.39548,439.0017l-0.66273,-47.38257l5.169,-0.07229l0.66273,47.38258z" data-paper-data="{&quot;origPos&quot;:null,&quot;origRot&quot;:0}" fill="#b9a568"/><path d="M84.3762,437.62331l-0.66273,-47.38257l5.169,-0.0723l0.66272,47.38258z" data-paper-data="{&quot;origPos&quot;:null,&quot;origRot&quot;:0}" fill="#d3bb76"/><path d="M83.95639,395.28672l-0.0699,-4.9967l24.98354,-0.34944l0.06989,4.99671z" data-paper-data="{&quot;origPos&quot;:null,&quot;origRot&quot;:0}" fill="#d3bb76"/><path d="M104.25216,429.41796l-0.54705,-39.11218l5.16901,-0.0723l0.54705,39.11218z" data-paper-data="{&quot;origPos&quot;:null,&quot;origRot&quot;:0}" fill="#d3bb76"/><path d="M94.26114,429.73004l-0.38076,-27.22345l5.16901,-0.0723l0.38077,27.22346z" data-paper-data="{&quot;origPos&quot;:null,&quot;origRot&quot;:0}" fill="#d3bb76"/><path d="M84.43415,430.7793l-0.07712,-5.51362l14.81784,-0.20725l0.07712,5.51362z" data-paper-data="{&quot;origPos&quot;:null,&quot;origRot&quot;:0}" fill="#d3bb76"/><path d="M74.4082,440.91492l-0.06989,-4.99671l33.94316,-0.47476l0.06989,4.99671z" data-paper-data="{&quot;origPos&quot;:null,&quot;origRot&quot;:0}" fill="#d3bb76"/><path d="M114.04315,439.4487l-0.69166,-49.45019l5.169,-0.0723l0.69164,49.45019z" data-paper-data="{&quot;origPos&quot;:null,&quot;origRot&quot;:0}" fill="#d3bb76"/><path d="M74.11074,501.78983l-0.5611,-40.1164l36.7574,-0.51411l0.56109,40.1164z" data-paper-data="{&quot;origPos&quot;:null,&quot;origRot&quot;:0}" fill="#b9a568"/><path d="M68.31243,497.9382l-0.52052,-37.21536l47.95692,-0.67077l0.52051,37.21537z" data-paper-data="{&quot;origPos&quot;:null,&quot;origRot&quot;:0}" fill="#e7cd81"/><path d="M74.25775,491.76128l-0.36148,-25.84506l5.16901,-0.0723l0.36149,25.84505z" data-paper-data="{&quot;origPos&quot;:null,&quot;origRot&quot;:0}" fill="#d3bb76"/><path d="M104.40629,491.05236l-0.36149,-25.84506l5.169,-0.07229l0.36149,25.84505z" data-paper-data="{&quot;origPos&quot;:null,&quot;origRot&quot;:0}" fill="#d3bb76"/><path d="M83.44307,491.34558l-0.36149,-25.84505l5.16901,-0.0723l0.36148,25.84505z" data-paper-data="{&quot;origPos&quot;:null,&quot;origRot&quot;:0}" fill="#d3bb76"/><path d="M95.50409,491.1769l-0.36148,-25.84506l5.169,-0.0723l0.36148,25.84505z" data-paper-data="{&quot;origPos&quot;:null,&quot;origRot&quot;:0}" fill="#d3bb76"/><path d="M85.41247,471.28899l-0.08032,-5.74333l12.92252,-0.18076l0.08033,5.74335z" data-paper-data="{&quot;origPos&quot;:null,&quot;origRot&quot;:0}" fill="#d3bb76"/><g data-paper-data="{&quot;origPos&quot;:null}"><path d="M213.8436,352.65379l17.93074,-134.94451l36.66095,4.87133l-17.93074,134.94451z" data-paper-data="{&quot;origPos&quot;:null,&quot;origRot&quot;:0}" fill="#d3bb76"/><path d="M221.0261,295.92498l8.49252,-63.91359l37.01009,4.91771l-8.49252,63.91358z" data-paper-data="{&quot;origPos&quot;:null,&quot;origRot&quot;:0}" fill="#b9a568"/><path d="M215.86755,291.14l8.5398,-64.26946l47.54374,6.31737l-8.5398,64.26946z" data-paper-data="{&quot;origPos&quot;:null,&quot;origRot&quot;:0}" fill="#e7cd81"/><path d="M224.4342,282.26848l6.24171,-46.97434l5.12447,0.68091l-6.24171,46.97435z" data-paper-data="{&quot;origPos&quot;:null,&quot;origRot&quot;:0}" fill="#b9a568"/><path d="M224.61576,280.90193l6.24171,-46.97434l5.12447,0.68091l-6.24172,46.97435z" data-paper-data="{&quot;origPos&quot;:null,&quot;origRot&quot;:0}" fill="#d3bb76"/><path d="M230.36326,238.95521l0.65821,-4.95365l24.76829,3.29108l-0.65821,4.95366z" data-paper-data="{&quot;origPos&quot;:null,&quot;origRot&quot;:0}" fill="#d3bb76"/><path d="M245.47445,275.67732l5.15225,-38.7752l5.12448,0.68091l-5.15225,38.7752z" data-paper-data="{&quot;origPos&quot;:null,&quot;origRot&quot;:0}" fill="#d3bb76"/><path d="M235.54443,274.53166l3.58615,-26.98889l5.12448,0.68091l-3.58615,26.98891z" data-paper-data="{&quot;origPos&quot;:null,&quot;origRot&quot;:0}" fill="#d3bb76"/><path d="M235.70842,274.60561l0.72631,-5.4661l14.69017,1.95196l-0.72631,5.46611z" data-paper-data="{&quot;origPos&quot;:null,&quot;origRot&quot;:0}" fill="#d3bb76"/><path d="M224.31388,283.17377l0.65821,-4.95365l33.65071,4.47133l-0.65821,4.95366z" data-paper-data="{&quot;origPos&quot;:null,&quot;origRot&quot;:0}" fill="#d3bb76"/><path d="M253.70099,287.02646l6.51407,-49.02414l5.12447,0.68091l-6.51408,49.02414z" data-paper-data="{&quot;origPos&quot;:null,&quot;origRot&quot;:0}" fill="#d3bb76"/><path d="M215.15815,343.35703l5.28453,-39.77077l36.4407,4.84206l-5.28454,39.77077z" data-paper-data="{&quot;origPos&quot;:null,&quot;origRot&quot;:0}" fill="#b9a568"/><path d="M209.98226,338.70238l4.90239,-36.89473l47.54374,6.31737l-4.90239,36.89473z" data-paper-data="{&quot;origPos&quot;:null,&quot;origRot&quot;:0}" fill="#e7cd81"/><path d="M216.7634,333.4567l3.40458,-25.62237l5.12448,0.68091l-3.40458,25.62238z" data-paper-data="{&quot;origPos&quot;:null,&quot;origRot&quot;:0}" fill="#d3bb76"/><path d="M246.69401,337.144l3.40458,-25.62238l5.12447,0.68091l-3.40458,25.62238z" data-paper-data="{&quot;origPos&quot;:null,&quot;origRot&quot;:0}" fill="#d3bb76"/><path d="M225.91141,334.38248l3.40458,-25.62238l5.12447,0.68091l-3.40458,25.62238z" data-paper-data="{&quot;origPos&quot;:null,&quot;origRot&quot;:0}" fill="#d3bb76"/><path d="M237.86851,335.97131l3.40458,-25.62238l5.12447,0.68091l-3.40458,25.62238z" data-paper-data="{&quot;origPos&quot;:null,&quot;origRot&quot;:0}" fill="#d3bb76"/><path d="M227.31516,334.35658l0.75658,-5.69385l12.8112,1.70228l-0.75658,5.69385z" data-paper-data="{&quot;origPos&quot;:null,&quot;origRot&quot;:0}" fill="#d3bb76"/><path d="M230.77942,314.82623l0.75658,-5.69385l12.81119,1.70227l-0.75658,5.69386z" data-paper-data="{&quot;origPos&quot;:null,&quot;origRot&quot;:0}" fill="#d3bb76"/><path d="M197.39126,475.36026l17.66874,-129.95137l36.50375,7.8672l-17.51154,126.95549z" data-paper-data="{&quot;origPos&quot;:null,&quot;origRot&quot;:0}" fill="#d3bb76"/><path d="M204.57375,418.63146l8.49252,-63.91359l37.01009,4.91771l-8.49252,63.91359z" data-paper-data="{&quot;origPos&quot;:null,&quot;origRot&quot;:0}" fill="#b9a568"/><path d="M199.41519,413.8465l8.5398,-64.26946l47.54374,6.31737l-8.5398,64.26946z" data-paper-data="{&quot;origPos&quot;:null,&quot;origRot&quot;:0}" fill="#e7cd81"/><path d="M197.16344,407.60845l6.24171,-46.97434l5.12447,0.68091l-6.24172,46.97435z" data-paper-data="{&quot;origPos&quot;:null,&quot;origRot&quot;:0}" fill="#d3bb76"/><path d="M213.91094,361.66171l0.65821,-4.95365l24.76829,3.29108l-0.65821,4.95366z" data-paper-data="{&quot;origPos&quot;:null,&quot;origRot&quot;:0}" fill="#d3bb76"/><path d="M229.0221,398.3838l5.15225,-38.7752l5.12448,0.68091l-5.15225,38.7752z" data-paper-data="{&quot;origPos&quot;:null,&quot;origRot&quot;:0}" fill="#d3bb76"/><path d="M219.0921,397.23818l3.58615,-26.98889l5.12448,0.68091l-3.58615,26.98891z" data-paper-data="{&quot;origPos&quot;:null,&quot;origRot&quot;:0}" fill="#d3bb76"/><path d="M219.25607,397.31211l0.72631,-5.46611l14.69017,1.95196l-0.72631,5.46611z" data-paper-data="{&quot;origPos&quot;:null,&quot;origRot&quot;:0}" fill="#d3bb76"/><path d="M207.86154,405.88031l0.65821,-4.95366l33.65071,4.47133l-0.65821,4.95366z" data-paper-data="{&quot;origPos&quot;:null,&quot;origRot&quot;:0}" fill="#d3bb76"/><path d="M237.24867,409.73297l6.51407,-49.02414l5.12447,0.68091l-6.51408,49.02414z" data-paper-data="{&quot;origPos&quot;:null,&quot;origRot&quot;:0}" fill="#d3bb76"/><path d="M193.24164,463.85045l3.40458,-25.62238l5.12447,0.68091l-3.40458,25.62238z" data-paper-data="{&quot;origPos&quot;:null,&quot;origRot&quot;:0}" fill="#d3bb76"/></g><g data-paper-data="{&quot;origPos&quot;:null}"><path d="M258.0936,358.65379l17.93074,-134.94451l36.66095,4.87133l-17.93074,134.94451z" data-paper-data="{&quot;origPos&quot;:null,&quot;origRot&quot;:0}" fill="#d3bb76"/><path d="M265.2761,301.92498l8.49252,-63.91359l37.01009,4.91771l-8.49252,63.91358z" data-paper-data="{&quot;origPos&quot;:null,&quot;origRot&quot;:0}" fill="#b9a568"/><path d="M260.11755,297.14l8.5398,-64.26946l47.54374,6.31737l-8.5398,64.26946z" data-paper-data="{&quot;origPos&quot;:null,&quot;origRot&quot;:0}" fill="#e7cd81"/><path d="M268.6842,288.26848l6.24171,-46.97434l5.12447,0.68091l-6.24171,46.97435z" data-paper-data="{&quot;origPos&quot;:null,&quot;origRot&quot;:0}" fill="#b9a568"/><path d="M268.86576,286.90193l6.24171,-46.97434l5.12447,0.68091l-6.24172,46.97435z" data-paper-data="{&quot;origPos&quot;:null,&quot;origRot&quot;:0}" fill="#d3bb76"/><path d="M274.61325,244.95521l0.65821,-4.95365l24.76829,3.29108l-0.65821,4.95366z" data-paper-data="{&quot;origPos&quot;:null,&quot;origRot&quot;:0}" fill="#d3bb76"/><path d="M289.72445,281.67732l5.15225,-38.7752l5.12448,0.68091l-5.15225,38.7752z" data-paper-data="{&quot;origPos&quot;:null,&quot;origRot&quot;:0}" fill="#d3bb76"/><path d="M279.79443,280.53166l3.58615,-26.98889l5.12448,0.68091l-3.58615,26.98891z" data-paper-data="{&quot;origPos&quot;:null,&quot;origRot&quot;:0}" fill="#d3bb76"/><path d="M279.95842,280.60561l0.72631,-5.4661l14.69017,1.95196l-0.72631,5.46611z" data-paper-data="{&quot;origPos&quot;:null,&quot;origRot&quot;:0}" fill="#d3bb76"/><path d="M268.56388,289.17377l0.65821,-4.95365l33.65071,4.47133l-0.65821,4.95366z" data-paper-data="{&quot;origPos&quot;:null,&quot;origRot&quot;:0}" fill="#d3bb76"/><path d="M297.95099,293.02646l6.51407,-49.02414l5.12447,0.68091l-6.51408,49.02414z" data-paper-data="{&quot;origPos&quot;:null,&quot;origRot&quot;:0}" fill="#d3bb76"/><path d="M259.40815,349.35703l5.28453,-39.77077l36.4407,4.84206l-5.28454,39.77077z" data-paper-data="{&quot;origPos&quot;:null,&quot;origRot&quot;:0}" fill="#b9a568"/><path d="M254.23226,344.70238l4.90239,-36.89473l47.54374,6.31737l-4.90239,36.89473z" data-paper-data="{&quot;origPos&quot;:null,&quot;origRot&quot;:0}" fill="#e7cd81"/><path d="M261.0134,339.4567l3.40458,-25.62237l5.12448,0.68091l-3.40458,25.62238z" data-paper-data="{&quot;origPos&quot;:null,&quot;origRot&quot;:0}" fill="#d3bb76"/><path d="M290.94401,343.144l3.40458,-25.62238l5.12447,0.68091l-3.40458,25.62238z" data-paper-data="{&quot;origPos&quot;:null,&quot;origRot&quot;:0}" fill="#d3bb76"/><path d="M270.16141,340.38249l3.40458,-25.62238l5.12447,0.68091l-3.40458,25.62238z" data-paper-data="{&quot;origPos&quot;:null,&quot;origRot&quot;:0}" fill="#d3bb76"/><path d="M282.11851,341.97131l3.40458,-25.62238l5.12447,0.68091l-3.40458,25.62238z" data-paper-data="{&quot;origPos&quot;:null,&quot;origRot&quot;:0}" fill="#d3bb76"/><path d="M271.56516,340.35658l0.75658,-5.69385l12.8112,1.70228l-0.75658,5.69385z" data-paper-data="{&quot;origPos&quot;:null,&quot;origRot&quot;:0}" fill="#d3bb76"/><path d="M275.02941,320.82623l0.75658,-5.69385l12.81119,1.70227l-0.75658,5.69386z" data-paper-data="{&quot;origPos&quot;:null,&quot;origRot&quot;:0}" fill="#d3bb76"/><path d="M241.64126,481.36026l17.66874,-129.95137l36.50375,7.8672l-17.51154,126.95549z" data-paper-data="{&quot;origPos&quot;:null,&quot;origRot&quot;:0}" fill="#d3bb76"/><path d="M248.82375,424.63146l8.49252,-63.91359l37.01009,4.91771l-8.49252,63.91359z" data-paper-data="{&quot;origPos&quot;:null,&quot;origRot&quot;:0}" fill="#b9a568"/><path d="M243.66519,419.8465l8.5398,-64.26946l47.54374,6.31737l-8.5398,64.26946z" data-paper-data="{&quot;origPos&quot;:null,&quot;origRot&quot;:0}" fill="#e7cd81"/><path d="M241.41344,413.60845l6.24171,-46.97434l5.12447,0.68091l-6.24172,46.97435z" data-paper-data="{&quot;origPos&quot;:null,&quot;origRot&quot;:0}" fill="#d3bb76"/><path d="M258.16094,367.66171l0.65821,-4.95365l24.76829,3.29108l-0.65821,4.95366z" data-paper-data="{&quot;origPos&quot;:null,&quot;origRot&quot;:0}" fill="#d3bb76"/><path d="M273.2721,404.3838l5.15225,-38.7752l5.12448,0.68091l-5.15225,38.7752z" data-paper-data="{&quot;origPos&quot;:null,&quot;origRot&quot;:0}" fill="#d3bb76"/><path d="M263.34209,403.23818l3.58615,-26.98889l5.12448,0.68091l-3.58615,26.98891z" data-paper-data="{&quot;origPos&quot;:null,&quot;origRot&quot;:0}" fill="#d3bb76"/><path d="M263.50607,403.31211l0.72631,-5.46611l14.69017,1.95196l-0.72631,5.46611z" data-paper-data="{&quot;origPos&quot;:null,&quot;origRot&quot;:0}" fill="#d3bb76"/><path d="M252.11154,411.88031l0.65821,-4.95366l33.65071,4.47133l-0.65821,4.95366z" data-paper-data="{&quot;origPos&quot;:null,&quot;origRot&quot;:0}" fill="#d3bb76"/><path d="M281.49866,415.73297l6.51407,-49.02414l5.12447,0.68091l-6.51408,49.02414z" data-paper-data="{&quot;origPos&quot;:null,&quot;origRot&quot;:0}" fill="#d3bb76"/><path d="M237.49164,469.85045l3.40458,-25.62238l5.12447,0.68091l-3.40458,25.62238z" data-paper-data="{&quot;origPos&quot;:null,&quot;origRot&quot;:0}" fill="#d3bb76"/></g></g></g></svg>