<svg version="1.1" xmlns="http://www.w3.org/2000/svg" xmlns:xlink="http://www.w3.org/1999/xlink" width="29.85634" height="33.35658" viewBox="0,0,29.85634,33.35658"><defs><linearGradient x1="285.6136" y1="176.08503" x2="300.11586" y2="199.86863" gradientUnits="userSpaceOnUse" id="color-1"><stop offset="0" stop-color="#706756"/><stop offset="1" stop-color="#706756" stop-opacity="0"/></linearGradient></defs><g transform="translate(-293.80118,-166.51205)"><g data-paper-data="{&quot;isPaintingLayer&quot;:true}" fill="none" fill-rule="nonzero" stroke="none" stroke-width="none" stroke-linecap="round" stroke-linejoin="miter" stroke-miterlimit="10" stroke-dasharray="" stroke-dashoffset="0" font-family="none" font-weight="none" font-size="none" text-anchor="none" style="mix-blend-mode: normal"><path d="M294.33217,188.74067l6.98123,-22.22862c0,0 13.22105,8.12142 14.55436,8.79954c0.44444,0.22604 7.78976,12.27829 7.78976,12.27829l-23.54165,12.27875z" data-paper-data="{&quot;origPos&quot;:null}" id="ID0.2113282661885023" fill="url(#color-1)" stroke="none" stroke-width="0.7621"/><path d="M302.00569,170.66391c3.90704,2.41564 6.22696,3.85 10.01128,6.18976c1.26145,0.77993 1.02101,3.52017 -0.3943,4.49415c-4.24081,2.91839 -7.48623,5.15178 -10.86657,7.47803c-1.35012,0.92909 -2.88722,-0.34395 -2.88722,-1.98287c0,-4.64776 0,-8.56613 0,-14.04891c0,-1.8295 2.52238,-3.12836 4.13683,-2.13017z" data-paper-data="{&quot;origPos&quot;:null}" id="ID0.8089321344159544" fill="#706756" stroke="#706756" stroke-width="8"/></g></g></svg>