<svg version="1.1" xmlns="http://www.w3.org/2000/svg" xmlns:xlink="http://www.w3.org/1999/xlink" width="516.12145" height="504.76014"><g transform="translate(-73.14788,-156.23986)"><g data-paper-data="{&quot;isPaintingLayer&quot;:true}" fill="none" fill-rule="nonzero" stroke="none" stroke-width="0" stroke-linecap="butt" stroke-linejoin="miter" stroke-miterlimit="10" stroke-dasharray="" stroke-dashoffset="0" font-family="none" font-weight="none" font-size="none" text-anchor="none" style="mix-blend-mode: normal"><path d="M213.31245,558.00002v-195h335.69955v195z" data-paper-data="{&quot;origPos&quot;:null}" fill="#a1937c" stroke="none"/><path d="M204.26644,384.27049c0,0 -3.22379,-11.19051 -2.59726,-17.3616c1.02971,-10.14259 3.64887,-14.28587 3.64887,-24.44105c0,-7.19999 -5.22055,-16.17407 -9.42517,-23.2512c-5.61403,-9.44938 -0.0393,-22.7251 -0.0393,-22.7251h351.61774c0,0 0,14.86099 0,23.94875c0,24.78129 0,62.83647 0,62.83647z" data-paper-data="{&quot;origPos&quot;:null}" fill="#a1937c" stroke="#000000"/><path d="M191.19114,303.23674v-17.55579h357.8344v17.55579z" data-paper-data="{&quot;origPos&quot;:null}" fill="#706756" stroke="#000000"/><path d="M190.00003,299.58963v-16.55579c0,0 63.47926,0 104.10923,0c102.74944,0 263.28264,0 263.28264,0v16.55579z" data-paper-data="{&quot;origPos&quot;:null}" fill="#8b7f6b" stroke="#000000"/><path d="M316.02565,563.51132l-13.94446,-46.53004l7.88894,-0.97879l13.94448,46.53005z" data-paper-data="{&quot;origPos&quot;:null,&quot;origRot&quot;:0}" fill="#b9a568" stroke="none"/><path d="M315.62,562.15772l-13.94446,-46.53003l7.88894,-0.9788l13.94445,46.53005z" data-paper-data="{&quot;origPos&quot;:null,&quot;origRot&quot;:0}" fill="#d3bb76" stroke="none"/><path d="M303.42422,520.55259l-1.47053,-4.90679l38.12992,-4.73086l1.4705,4.90681z" data-paper-data="{&quot;origPos&quot;:null,&quot;origRot&quot;:0}" fill="#d3bb76" stroke="none"/><path d="M343.79138,550.5898l-11.51053,-38.40846l7.88895,-0.9788l11.51052,38.40846z" data-paper-data="{&quot;origPos&quot;:null,&quot;origRot&quot;:0}" fill="#d3bb76" stroke="none"/><path d="M238.17909,661v-215h271.9788v215z" data-paper-data="{&quot;origPos&quot;:null}" fill="#a1937c" stroke="none"/><path d="M178.16349,346.37902l-1.4362,-187.13916l37.26013,3.52423l1.15562,182.87686z" data-paper-data="{&quot;origPos&quot;:null,&quot;origRot&quot;:0}" fill="#d3bb76" stroke="none"/><path d="M176.52573,214.1955l-0.5611,-40.11639l36.75739,-0.51412l0.56109,40.1164z" data-paper-data="{&quot;origPos&quot;:null,&quot;origRot&quot;:0}" fill="#b9a568" stroke="none"/><path d="M170.72742,209.34396l-0.52051,-37.21537l47.95692,-0.67076l0.52052,37.21536z" data-paper-data="{&quot;origPos&quot;:null,&quot;origRot&quot;:0}" fill="#e7cd81" stroke="none"/><path d="M176.67269,203.16703l-0.36148,-25.84504l5.16901,-0.0723l0.36149,25.84505z" data-paper-data="{&quot;origPos&quot;:null,&quot;origRot&quot;:0}" fill="#d3bb76" stroke="none"/><path d="M206.82125,202.45812l-0.36148,-25.84506l5.169,-0.0723l0.36148,25.84505z" data-paper-data="{&quot;origPos&quot;:null,&quot;origRot&quot;:0}" fill="#d3bb76" stroke="none"/><path d="M185.85805,202.75129l-0.36148,-25.84505l5.169,-0.0723l0.36148,25.84506z" data-paper-data="{&quot;origPos&quot;:null,&quot;origRot&quot;:0}" fill="#d3bb76" stroke="none"/><path d="M197.91906,202.58259l-0.36148,-25.84505l5.169,-0.0723l0.36148,25.84505z" data-paper-data="{&quot;origPos&quot;:null,&quot;origRot&quot;:0}" fill="#d3bb76" stroke="none"/><path d="M187.24307,202.52134l-0.08032,-5.74333l12.92253,-0.18075l0.08033,5.74334z" data-paper-data="{&quot;origPos&quot;:null,&quot;origRot&quot;:0}" fill="#d3bb76" stroke="none"/><path d="M187.82743,182.6947l-0.08033,-5.74334l12.92253,-0.18075l0.08032,5.74335z" data-paper-data="{&quot;origPos&quot;:null,&quot;origRot&quot;:0}" fill="#d3bb76" stroke="none"/><path d="M177.01162,289.20892l-0.9017,-64.46904l37.33173,-0.52215l0.9017,64.46904z" data-paper-data="{&quot;origPos&quot;:null,&quot;origRot&quot;:0}" fill="#b9a568" stroke="none"/><path d="M171.21148,285.22583l-0.90673,-64.828l47.95692,-0.67077l0.90673,64.828z" data-paper-data="{&quot;origPos&quot;:null,&quot;origRot&quot;:0}" fill="#e7cd81" stroke="none"/><path d="M178.39547,275.20178l-0.66273,-47.38257l5.169,-0.07229l0.66273,47.38258z" data-paper-data="{&quot;origPos&quot;:null,&quot;origRot&quot;:0}" fill="#b9a568" stroke="none"/><path d="M178.37619,273.82341l-0.66273,-47.38257l5.169,-0.0723l0.66272,47.38258z" data-paper-data="{&quot;origPos&quot;:null,&quot;origRot&quot;:0}" fill="#d3bb76" stroke="none"/><path d="M177.95637,231.48679l-0.0699,-4.9967l24.98354,-0.34944l0.06989,4.99671z" data-paper-data="{&quot;origPos&quot;:null,&quot;origRot&quot;:0}" fill="#d3bb76" stroke="none"/><path d="M198.25215,265.61804l-0.54705,-39.11218l5.16901,-0.0723l0.54705,39.11218z" data-paper-data="{&quot;origPos&quot;:null,&quot;origRot&quot;:0}" fill="#d3bb76" stroke="none"/><path d="M188.26113,265.93012l-0.38076,-27.22345l5.16901,-0.0723l0.38077,27.22346z" data-paper-data="{&quot;origPos&quot;:null,&quot;origRot&quot;:0}" fill="#d3bb76" stroke="none"/><path d="M188.43414,265.97939l-0.07712,-5.51362l14.81784,-0.20725l0.07712,5.51362z" data-paper-data="{&quot;origPos&quot;:null,&quot;origRot&quot;:0}" fill="#d3bb76" stroke="none"/><path d="M178.40821,276.11501l-0.06989,-4.99671l33.94316,-0.47476l0.06989,4.99671z" data-paper-data="{&quot;origPos&quot;:null,&quot;origRot&quot;:0}" fill="#d3bb76" stroke="none"/><path d="M208.04314,275.64878l-0.69166,-49.45019l5.169,-0.0723l0.69164,49.45019z" data-paper-data="{&quot;origPos&quot;:null,&quot;origRot&quot;:0}" fill="#d3bb76" stroke="none"/><path d="M178.11075,336.98996l-0.5611,-40.1164l36.7574,-0.51411l0.56109,40.1164z" data-paper-data="{&quot;origPos&quot;:null,&quot;origRot&quot;:0}" fill="#b9a568" stroke="none"/><path d="M172.31242,333.13833l-0.52052,-37.21536l47.95692,-0.67077l0.52051,37.21537z" data-paper-data="{&quot;origPos&quot;:null,&quot;origRot&quot;:0}" fill="#e7cd81" stroke="none"/><path d="M178.25773,326.96135l-0.36148,-25.84506l5.16901,-0.0723l0.36149,25.84505z" data-paper-data="{&quot;origPos&quot;:null,&quot;origRot&quot;:0}" fill="#d3bb76" stroke="none"/><path d="M208.40627,326.25244l-0.36149,-25.84506l5.169,-0.07229l0.36149,25.84505z" data-paper-data="{&quot;origPos&quot;:null,&quot;origRot&quot;:0}" fill="#d3bb76" stroke="none"/><path d="M187.44306,326.54567l-0.36149,-25.84505l5.16901,-0.0723l0.36148,25.84505z" data-paper-data="{&quot;origPos&quot;:null,&quot;origRot&quot;:0}" fill="#d3bb76" stroke="none"/><path d="M199.50408,326.37699l-0.36148,-25.84506l5.169,-0.0723l0.36148,25.84505z" data-paper-data="{&quot;origPos&quot;:null,&quot;origRot&quot;:0}" fill="#d3bb76" stroke="none"/><path d="M189.41246,306.48907l-0.08032,-5.74333l12.92252,-0.18076l0.08033,5.74335z" data-paper-data="{&quot;origPos&quot;:null,&quot;origRot&quot;:0}" fill="#d3bb76" stroke="none"/><g data-paper-data="{&quot;origPos&quot;:null}" stroke="none"><path d="M545.16349,343.37902l-1.4362,-187.13916l37.26013,3.52423l1.15562,182.87686z" data-paper-data="{&quot;origPos&quot;:null,&quot;origRot&quot;:0}" fill="#d3bb76"/><path d="M543.52573,210.1955l-0.5611,-40.11639l36.75739,-0.51412l0.56109,40.1164z" data-paper-data="{&quot;origPos&quot;:null,&quot;origRot&quot;:0}" fill="#b9a568"/><path d="M537.72742,206.34396l-0.52051,-37.21537l47.95692,-0.67076l0.52052,37.21536z" data-paper-data="{&quot;origPos&quot;:null,&quot;origRot&quot;:0}" fill="#e7cd81"/><path d="M543.67269,200.16703l-0.36148,-25.84504l5.16901,-0.0723l0.36149,25.84505z" data-paper-data="{&quot;origPos&quot;:null,&quot;origRot&quot;:0}" fill="#d3bb76"/><path d="M573.82125,199.45812l-0.36148,-25.84506l5.169,-0.0723l0.36148,25.84505z" data-paper-data="{&quot;origPos&quot;:null,&quot;origRot&quot;:0}" fill="#d3bb76"/><path d="M552.85805,199.75129l-0.36148,-25.84505l5.169,-0.0723l0.36148,25.84506z" data-paper-data="{&quot;origPos&quot;:null,&quot;origRot&quot;:0}" fill="#d3bb76"/><path d="M564.91906,199.58259l-0.36148,-25.84505l5.169,-0.0723l0.36148,25.84505z" data-paper-data="{&quot;origPos&quot;:null,&quot;origRot&quot;:0}" fill="#d3bb76"/><path d="M554.24307,199.52134l-0.08032,-5.74333l12.92253,-0.18075l0.08033,5.74334z" data-paper-data="{&quot;origPos&quot;:null,&quot;origRot&quot;:0}" fill="#d3bb76"/><path d="M554.82743,179.6947l-0.08033,-5.74334l12.92253,-0.18075l0.08032,5.74335z" data-paper-data="{&quot;origPos&quot;:null,&quot;origRot&quot;:0}" fill="#d3bb76"/><path d="M544.01162,286.20892l-0.9017,-64.46904l37.33173,-0.52215l0.9017,64.46904z" data-paper-data="{&quot;origPos&quot;:null,&quot;origRot&quot;:0}" fill="#b9a568"/><path d="M538.21148,282.22583l-0.90673,-64.828l47.95692,-0.67077l0.90673,64.828z" data-paper-data="{&quot;origPos&quot;:null,&quot;origRot&quot;:0}" fill="#e7cd81"/><path d="M545.39547,272.20178l-0.66273,-47.38257l5.169,-0.07229l0.66273,47.38258z" data-paper-data="{&quot;origPos&quot;:null,&quot;origRot&quot;:0}" fill="#b9a568"/><path d="M545.37619,270.82341l-0.66273,-47.38257l5.169,-0.0723l0.66272,47.38258z" data-paper-data="{&quot;origPos&quot;:null,&quot;origRot&quot;:0}" fill="#d3bb76"/><path d="M544.95637,228.48679l-0.0699,-4.9967l24.98354,-0.34944l0.06989,4.99671z" data-paper-data="{&quot;origPos&quot;:null,&quot;origRot&quot;:0}" fill="#d3bb76"/><path d="M565.25215,262.61804l-0.54705,-39.11218l5.16901,-0.0723l0.54705,39.11218z" data-paper-data="{&quot;origPos&quot;:null,&quot;origRot&quot;:0}" fill="#d3bb76"/><path d="M555.26113,262.93012l-0.38076,-27.22345l5.16901,-0.0723l0.38077,27.22346z" data-paper-data="{&quot;origPos&quot;:null,&quot;origRot&quot;:0}" fill="#d3bb76"/><path d="M555.43414,262.97939l-0.07712,-5.51362l14.81784,-0.20725l0.07712,5.51362z" data-paper-data="{&quot;origPos&quot;:null,&quot;origRot&quot;:0}" fill="#d3bb76"/><path d="M545.40821,273.11501l-0.06989,-4.99671l33.94316,-0.47476l0.06989,4.99671z" data-paper-data="{&quot;origPos&quot;:null,&quot;origRot&quot;:0}" fill="#d3bb76"/><path d="M575.04314,272.64878l-0.69166,-49.45019l5.169,-0.0723l0.69164,49.45019z" data-paper-data="{&quot;origPos&quot;:null,&quot;origRot&quot;:0}" fill="#d3bb76"/><path d="M545.11075,333.98996l-0.5611,-40.1164l36.7574,-0.51411l0.56109,40.1164z" data-paper-data="{&quot;origPos&quot;:null,&quot;origRot&quot;:0}" fill="#b9a568"/><path d="M539.31242,330.13827l-0.52052,-37.21536l47.95692,-0.67077l0.52051,37.21537z" data-paper-data="{&quot;origPos&quot;:null,&quot;origRot&quot;:0}" fill="#e7cd81"/><path d="M545.25773,323.96135l-0.36148,-25.84506l5.16901,-0.0723l0.36149,25.84505z" data-paper-data="{&quot;origPos&quot;:null,&quot;origRot&quot;:0}" fill="#d3bb76"/><path d="M575.40627,323.25244l-0.36149,-25.84506l5.169,-0.07229l0.36149,25.84505z" data-paper-data="{&quot;origPos&quot;:null,&quot;origRot&quot;:0}" fill="#d3bb76"/><path d="M554.44306,323.54567l-0.36149,-25.84505l5.16901,-0.0723l0.36148,25.84505z" data-paper-data="{&quot;origPos&quot;:null,&quot;origRot&quot;:0}" fill="#d3bb76"/><path d="M566.50408,323.37699l-0.36148,-25.84506l5.169,-0.0723l0.36148,25.84505z" data-paper-data="{&quot;origPos&quot;:null,&quot;origRot&quot;:0}" fill="#d3bb76"/><path d="M556.41246,303.48907l-0.08032,-5.74333l12.92252,-0.18076l0.08033,5.74335z" data-paper-data="{&quot;origPos&quot;:null,&quot;origRot&quot;:0}" fill="#d3bb76"/></g><g data-paper-data="{&quot;origPos&quot;:null}" stroke="none"><path d="M181.16349,521.77898l-1.4362,-187.13916l37.26013,3.52423l1.15562,182.87686z" data-paper-data="{&quot;origPos&quot;:null,&quot;origRot&quot;:0}" fill="#d3bb76"/><path d="M179.52573,388.59551l-0.5611,-40.11639l36.75739,-0.51412l0.56109,40.1164z" data-paper-data="{&quot;origPos&quot;:null,&quot;origRot&quot;:0}" fill="#b9a568"/><path d="M173.72742,384.74395l-0.52051,-37.21537l47.95692,-0.67076l0.52052,37.21536z" data-paper-data="{&quot;origPos&quot;:null,&quot;origRot&quot;:0}" fill="#e7cd81"/><path d="M179.67269,378.56699l-0.36148,-25.84504l5.16901,-0.0723l0.36149,25.84505z" data-paper-data="{&quot;origPos&quot;:null,&quot;origRot&quot;:0}" fill="#d3bb76"/><path d="M209.82125,377.85811l-0.36148,-25.84506l5.169,-0.0723l0.36148,25.84505z" data-paper-data="{&quot;origPos&quot;:null,&quot;origRot&quot;:0}" fill="#d3bb76"/><path d="M188.85805,378.15129l-0.36148,-25.84505l5.169,-0.0723l0.36148,25.84506z" data-paper-data="{&quot;origPos&quot;:null,&quot;origRot&quot;:0}" fill="#d3bb76"/><path d="M200.91906,377.9826l-0.36148,-25.84505l5.169,-0.0723l0.36148,25.84505z" data-paper-data="{&quot;origPos&quot;:null,&quot;origRot&quot;:0}" fill="#d3bb76"/><path d="M190.24307,377.92131l-0.08032,-5.74333l12.92253,-0.18075l0.08033,5.74334z" data-paper-data="{&quot;origPos&quot;:null,&quot;origRot&quot;:0}" fill="#d3bb76"/><path d="M190.82743,358.09467l-0.08033,-5.74334l12.92253,-0.18075l0.08032,5.74335z" data-paper-data="{&quot;origPos&quot;:null,&quot;origRot&quot;:0}" fill="#d3bb76"/><path d="M180.01162,464.60897l-0.9017,-64.46904l37.33173,-0.52215l0.9017,64.46904z" data-paper-data="{&quot;origPos&quot;:null,&quot;origRot&quot;:0}" fill="#b9a568"/><path d="M174.21148,460.62582l-0.90673,-64.828l47.95692,-0.67077l0.90673,64.828z" data-paper-data="{&quot;origPos&quot;:null,&quot;origRot&quot;:0}" fill="#e7cd81"/><path d="M181.39547,450.60181l-0.66273,-47.38257l5.169,-0.07229l0.66273,47.38258z" data-paper-data="{&quot;origPos&quot;:null,&quot;origRot&quot;:0}" fill="#b9a568"/><path d="M181.37619,449.22343l-0.66273,-47.38257l5.169,-0.0723l0.66272,47.38258z" data-paper-data="{&quot;origPos&quot;:null,&quot;origRot&quot;:0}" fill="#d3bb76"/><path d="M180.95637,406.8868l-0.0699,-4.9967l24.98354,-0.34944l0.06989,4.99671z" data-paper-data="{&quot;origPos&quot;:null,&quot;origRot&quot;:0}" fill="#d3bb76"/><path d="M201.25215,441.01805l-0.54705,-39.11218l5.16901,-0.0723l0.54705,39.11218z" data-paper-data="{&quot;origPos&quot;:null,&quot;origRot&quot;:0}" fill="#d3bb76"/><path d="M191.26113,441.33015l-0.38076,-27.22345l5.16901,-0.0723l0.38077,27.22346z" data-paper-data="{&quot;origPos&quot;:null,&quot;origRot&quot;:0}" fill="#d3bb76"/><path d="M191.43414,441.37941l-0.07712,-5.51362l14.81784,-0.20725l0.07712,5.51362z" data-paper-data="{&quot;origPos&quot;:null,&quot;origRot&quot;:0}" fill="#d3bb76"/><path d="M181.40821,451.51503l-0.06989,-4.99671l33.94316,-0.47476l0.06989,4.99671z" data-paper-data="{&quot;origPos&quot;:null,&quot;origRot&quot;:0}" fill="#d3bb76"/><path d="M211.04314,451.04881l-0.69166,-49.45019l5.169,-0.0723l0.69164,49.45019z" data-paper-data="{&quot;origPos&quot;:null,&quot;origRot&quot;:0}" fill="#d3bb76"/><path d="M181.11075,512.38993l-0.5611,-40.1164l36.7574,-0.51411l0.56109,40.1164z" data-paper-data="{&quot;origPos&quot;:null,&quot;origRot&quot;:0}" fill="#b9a568"/><path d="M175.31242,508.53832l-0.52052,-37.21536l47.95692,-0.67077l0.52051,37.21537z" data-paper-data="{&quot;origPos&quot;:null,&quot;origRot&quot;:0}" fill="#e7cd81"/><path d="M181.25773,502.36138l-0.36148,-25.84506l5.16901,-0.0723l0.36149,25.84505z" data-paper-data="{&quot;origPos&quot;:null,&quot;origRot&quot;:0}" fill="#d3bb76"/><path d="M211.40627,501.65242l-0.36149,-25.84506l5.169,-0.07229l0.36149,25.84505z" data-paper-data="{&quot;origPos&quot;:null,&quot;origRot&quot;:0}" fill="#d3bb76"/><path d="M190.44306,501.94566l-0.36149,-25.84505l5.16901,-0.0723l0.36148,25.84505z" data-paper-data="{&quot;origPos&quot;:null,&quot;origRot&quot;:0}" fill="#d3bb76"/><path d="M202.50408,501.77697l-0.36148,-25.84506l5.169,-0.0723l0.36148,25.84505z" data-paper-data="{&quot;origPos&quot;:null,&quot;origRot&quot;:0}" fill="#d3bb76"/><path d="M192.41246,481.88909l-0.08032,-5.74333l12.92252,-0.18076l0.08033,5.74335z" data-paper-data="{&quot;origPos&quot;:null,&quot;origRot&quot;:0}" fill="#d3bb76"/></g><g data-paper-data="{&quot;origPos&quot;:null}" stroke="none"><path d="M547.16349,521.37901l-1.4362,-187.13916l37.26013,3.52423l1.15562,182.87686z" data-paper-data="{&quot;origPos&quot;:null,&quot;origRot&quot;:0}" fill="#d3bb76"/><path d="M545.52573,388.19549l-0.5611,-40.11639l36.75739,-0.51412l0.56109,40.1164z" data-paper-data="{&quot;origPos&quot;:null,&quot;origRot&quot;:0}" fill="#b9a568"/><path d="M539.72742,384.34395l-0.52051,-37.21537l47.95692,-0.67076l0.52052,37.21536z" data-paper-data="{&quot;origPos&quot;:null,&quot;origRot&quot;:0}" fill="#e7cd81"/><path d="M545.67269,378.167l-0.36148,-25.84504l5.16901,-0.0723l0.36149,25.84505z" data-paper-data="{&quot;origPos&quot;:null,&quot;origRot&quot;:0}" fill="#d3bb76"/><path d="M575.82125,377.45811l-0.36148,-25.84506l5.169,-0.0723l0.36148,25.84505z" data-paper-data="{&quot;origPos&quot;:null,&quot;origRot&quot;:0}" fill="#d3bb76"/><path d="M554.85805,377.7513l-0.36148,-25.84505l5.169,-0.0723l0.36148,25.84506z" data-paper-data="{&quot;origPos&quot;:null,&quot;origRot&quot;:0}" fill="#d3bb76"/><path d="M566.91906,377.58257l-0.36148,-25.84505l5.169,-0.0723l0.36148,25.84505z" data-paper-data="{&quot;origPos&quot;:null,&quot;origRot&quot;:0}" fill="#d3bb76"/><path d="M556.24307,377.52134l-0.08032,-5.74333l12.92253,-0.18075l0.08033,5.74334z" data-paper-data="{&quot;origPos&quot;:null,&quot;origRot&quot;:0}" fill="#d3bb76"/><path d="M556.82743,357.69467l-0.08033,-5.74334l12.92253,-0.18075l0.08032,5.74335z" data-paper-data="{&quot;origPos&quot;:null,&quot;origRot&quot;:0}" fill="#d3bb76"/><path d="M546.01162,464.20898l-0.9017,-64.46904l37.33173,-0.52215l0.9017,64.46904z" data-paper-data="{&quot;origPos&quot;:null,&quot;origRot&quot;:0}" fill="#b9a568"/><path d="M540.21148,460.22583l-0.90673,-64.828l47.95692,-0.67077l0.90673,64.828z" data-paper-data="{&quot;origPos&quot;:null,&quot;origRot&quot;:0}" fill="#e7cd81"/><path d="M547.39547,450.20182l-0.66273,-47.38257l5.169,-0.07229l0.66273,47.38258z" data-paper-data="{&quot;origPos&quot;:null,&quot;origRot&quot;:0}" fill="#b9a568"/><path d="M547.37619,448.82344l-0.66273,-47.38257l5.169,-0.0723l0.66272,47.38258z" data-paper-data="{&quot;origPos&quot;:null,&quot;origRot&quot;:0}" fill="#d3bb76"/><path d="M546.95637,406.48681l-0.0699,-4.9967l24.98354,-0.34944l0.06989,4.99671z" data-paper-data="{&quot;origPos&quot;:null,&quot;origRot&quot;:0}" fill="#d3bb76"/><path d="M567.25215,440.61803l-0.54705,-39.11218l5.16901,-0.0723l0.54705,39.11218z" data-paper-data="{&quot;origPos&quot;:null,&quot;origRot&quot;:0}" fill="#d3bb76"/><path d="M557.26113,440.93016l-0.38076,-27.22345l5.16901,-0.0723l0.38077,27.22346z" data-paper-data="{&quot;origPos&quot;:null,&quot;origRot&quot;:0}" fill="#d3bb76"/><path d="M557.43414,440.97942l-0.07712,-5.51362l14.81784,-0.20725l0.07712,5.51362z" data-paper-data="{&quot;origPos&quot;:null,&quot;origRot&quot;:0}" fill="#d3bb76"/><path d="M547.40821,451.11504l-0.06989,-4.99671l33.94316,-0.47476l0.06989,4.99671z" data-paper-data="{&quot;origPos&quot;:null,&quot;origRot&quot;:0}" fill="#d3bb76"/><path d="M577.04314,450.64882l-0.69166,-49.45019l5.169,-0.0723l0.69164,49.45019z" data-paper-data="{&quot;origPos&quot;:null,&quot;origRot&quot;:0}" fill="#d3bb76"/><path d="M547.11075,511.98996l-0.5611,-40.1164l36.7574,-0.51411l0.56109,40.1164z" data-paper-data="{&quot;origPos&quot;:null,&quot;origRot&quot;:0}" fill="#b9a568"/><path d="M541.31242,508.13833l-0.52052,-37.21536l47.95692,-0.67077l0.52051,37.21537z" data-paper-data="{&quot;origPos&quot;:null,&quot;origRot&quot;:0}" fill="#e7cd81"/><path d="M547.25773,501.9614l-0.36148,-25.84506l5.16901,-0.0723l0.36149,25.84505z" data-paper-data="{&quot;origPos&quot;:null,&quot;origRot&quot;:0}" fill="#d3bb76"/><path d="M577.40627,501.25246l-0.36149,-25.84506l5.169,-0.07229l0.36149,25.84505z" data-paper-data="{&quot;origPos&quot;:null,&quot;origRot&quot;:0}" fill="#d3bb76"/><path d="M556.44306,501.54569l-0.36149,-25.84505l5.16901,-0.0723l0.36148,25.84505z" data-paper-data="{&quot;origPos&quot;:null,&quot;origRot&quot;:0}" fill="#d3bb76"/><path d="M568.50408,501.37701l-0.36148,-25.84506l5.169,-0.0723l0.36148,25.84505z" data-paper-data="{&quot;origPos&quot;:null,&quot;origRot&quot;:0}" fill="#d3bb76"/><path d="M558.41246,481.4891l-0.08032,-5.74333l12.92252,-0.18076l0.08033,5.74335z" data-paper-data="{&quot;origPos&quot;:null,&quot;origRot&quot;:0}" fill="#d3bb76"/></g><path d="M158.17339,426.6514l-5.155,-26.73363l5.076,-0.97881l5.15502,26.73365z" data-paper-data="{&quot;origPos&quot;:null,&quot;origRot&quot;:0}" fill="#d3bb76" stroke="none"/><path d="M158.35236,426.6695l-1.04406,-5.41442l14.55123,-2.80589l1.04406,5.41442z" data-paper-data="{&quot;origPos&quot;:null,&quot;origRot&quot;:0}" fill="#d3bb76" stroke="none"/><path d="M78.04187,571.49092l-4.89399,-25.38004l5.07601,-0.9788l4.894,25.38003z" data-paper-data="{&quot;origPos&quot;:null,&quot;origRot&quot;:0}" fill="#d3bb76" stroke="none"/><path d="M87.0115,569.46883l-4.894,-25.38004l5.07601,-0.9788l4.89399,25.38003z" data-paper-data="{&quot;origPos&quot;:null,&quot;origRot&quot;:0}" fill="#d3bb76" stroke="none"/><path d="M85.42856,549.37801l-1.08754,-5.63999l12.69001,-2.44701l1.08756,5.64001z" data-paper-data="{&quot;origPos&quot;:null,&quot;origRot&quot;:0}" fill="#d3bb76" stroke="none"/></g></g></svg>