<svg version="1.1" xmlns="http://www.w3.org/2000/svg" xmlns:xlink="http://www.w3.org/1999/xlink" width="300.08174" height="89.57403" viewBox="0,0,300.08174,89.57403"><g transform="translate(-268.56485,-348.48007)"><g data-paper-data="{&quot;isPaintingLayer&quot;:true}" fill="none" fill-rule="nonzero" stroke="none" stroke-width="0" stroke-linecap="butt" stroke-linejoin="miter" stroke-miterlimit="10" stroke-dasharray="" stroke-dashoffset="0" font-family="none" font-weight="none" font-size="none" text-anchor="none" style="mix-blend-mode: normal"><path d="M299.68421,412.47496c0,0 9.04063,-36.38326 26.5421,-45.20292c22.16286,-11.16871 52.27229,-2.74729 75.66171,-2.74729c39.75022,0 34.53303,47.95021 34.53303,47.95021z" data-paper-data="{&quot;origPos&quot;:null}" fill="#998c76"/><path d="M268.56485,421.87495c0,0 9.04063,-36.38326 26.5421,-45.20292c22.16286,-11.16871 52.27229,-2.74729 75.66171,-2.74729c39.75022,0 34.53303,47.95021 34.53303,47.95021z" data-paper-data="{&quot;origPos&quot;:null}" fill="#776d5b"/><path d="M340.97098,405.93934c0,0 8.69771,-33.6153 19.93963,-38.16821c14.23612,-5.76554 31.43378,9.57834 45.3873,15.07171c23.71394,9.33595 16.24669,55.21126 16.24669,55.21126z" data-paper-data="{&quot;origPos&quot;:null,&quot;origRot&quot;:0}" fill="#776d5b"/><path d="M431.68422,399.47496c0,0 9.04063,-36.38326 26.5421,-45.20292c22.16286,-11.16871 52.27229,-2.74729 75.6617,-2.74729c39.75022,0 34.53303,47.95021 34.53303,47.95021z" data-paper-data="{&quot;origPos&quot;:null}" fill="#998c76"/><path d="M400.56485,408.87496c0,0 9.04063,-36.38326 26.5421,-45.20292c22.16286,-11.16871 52.27229,-2.74729 75.6617,-2.74729c39.75022,0 34.53304,47.95021 34.53304,47.95021z" data-paper-data="{&quot;origPos&quot;:null}" fill="#776d5b"/><path d="M472.97099,392.93934c0,0 8.69771,-33.6153 19.93963,-38.16821c14.23612,-5.76554 31.43378,9.57834 45.38729,15.07171c23.71393,9.33595 16.24669,55.21126 16.24669,55.21126z" data-paper-data="{&quot;origPos&quot;:null,&quot;origRot&quot;:0}" fill="#776d5b"/></g></g></svg>