<svg version="1.1" xmlns="http://www.w3.org/2000/svg" xmlns:xlink="http://www.w3.org/1999/xlink" width="228.08174" height="192.94337"><g transform="translate(-1.56485,-56.71072)"><g data-paper-data="{&quot;isPaintingLayer&quot;:true}" fill="none" fill-rule="nonzero" stroke="none" stroke-width="none" stroke-linecap="none" stroke-linejoin="miter" stroke-miterlimit="10" stroke-dasharray="" stroke-dashoffset="0" font-family="none" font-weight="none" font-size="none" text-anchor="none" style="mix-blend-mode: normal"><path d="M145.59472,65.46072c0,0 1.05814,25.13922 1.25983,29.93086c0.06723,1.59721 -1.3656,4.21229 -2.34993,4.28885c-2.95297,0.2297 -12.48102,0.97084 -12.48102,0.97084" data-paper-data="{&quot;origPos&quot;:null,&quot;origRot&quot;:0}" fill="none" stroke="#7da17c" stroke-width="17.5" stroke-linecap="round"/><path d="M128.43196,152.55374l-2.65627,-74.18636" data-paper-data="{&quot;origPos&quot;:null,&quot;origRot&quot;:0}" fill="none" stroke="#739472" stroke-width="17.5" stroke-linecap="round"/><path d="M124.44557,121.33849c0,0 -7.26343,-0.06866 -11.91238,-0.1126c-1.70931,-0.01616 -4.40818,-2.51819 -4.42629,-4.10346c-0.05431,-4.7558 -0.34252,-29.99524 -0.34252,-29.99524" data-paper-data="{&quot;origPos&quot;:null,&quot;origRot&quot;:0}" fill="none" stroke="#739472" stroke-width="17.5" stroke-linecap="round"/><path d="M30.17541,249.07495c0,0 8.31179,-36.38326 24.40231,-45.20292c20.37612,-11.16871 48.05817,-2.74729 69.56197,-2.74729c36.54561,0 31.74903,47.95021 31.74903,47.95021z" data-paper-data="{&quot;origPos&quot;:null}" fill="#998c76" stroke="none" stroke-width="0" stroke-linecap="butt"/><path d="M59.59562,224.07495c0,0 8.31179,-36.38326 24.40231,-45.20292c20.37612,-11.16871 48.05817,-2.74729 69.56197,-2.74729c36.54561,0 31.74903,47.95021 31.74903,47.95021z" data-paper-data="{&quot;origPos&quot;:null}" fill="#998c76" stroke="none" stroke-width="0" stroke-linecap="butt"/><path d="M30.98506,233.47494c0,0 8.31179,-36.38326 24.40231,-45.20292c20.37612,-11.16871 48.05817,-2.74729 69.56197,-2.74729c36.54561,0 31.74903,47.95021 31.74903,47.95021z" data-paper-data="{&quot;origPos&quot;:null}" fill="#776d5b" stroke="none" stroke-width="0" stroke-linecap="butt"/><path d="M97.55391,217.53933c0,0 7.99651,-33.6153 18.33213,-38.16821c13.08842,-5.76554 28.89963,9.57834 41.72824,15.07171c21.80216,9.33595 14.9369,55.21126 14.9369,55.21126z" data-paper-data="{&quot;origPos&quot;:null,&quot;origRot&quot;:0}" fill="#776d5b" stroke="none" stroke-width="0" stroke-linecap="butt"/><path d="M25.5785,217.07495c0,0 8.31179,-36.38326 24.40231,-45.20292c20.37612,-11.16871 48.05817,-2.74729 69.56197,-2.74729c36.54561,0 31.74903,47.95021 31.74903,47.95021z" data-paper-data="{&quot;origPos&quot;:null}" fill="#998c76" stroke="none" stroke-width="0" stroke-linecap="butt"/><path d="M1.56485,214.47494c0,0 8.31179,-36.38326 24.40231,-45.20292c20.37612,-11.16871 48.05817,-2.74729 69.56197,-2.74729c36.54561,0 31.74903,47.95021 31.74903,47.95021z" data-paper-data="{&quot;origPos&quot;:null}" fill="#776d5b" stroke="none" stroke-width="0" stroke-linecap="butt"/><path d="M68.1337,198.53933c0,0 7.99651,-33.6153 18.33213,-38.16821c13.08842,-5.76554 28.89963,9.57834 41.72824,15.07171c21.80216,9.33595 14.9369,55.21126 14.9369,55.21126z" data-paper-data="{&quot;origPos&quot;:null,&quot;origRot&quot;:0}" fill="#776d5b" stroke="none" stroke-width="0" stroke-linecap="butt"/><path d="M95.4515,224.07495c0,0 8.31179,-36.38326 24.40231,-45.20292c20.37612,-11.16871 48.05817,-2.74729 69.56196,-2.74729c36.54561,0 31.74903,47.95021 31.74903,47.95021z" data-paper-data="{&quot;origPos&quot;:null}" fill="#998c76" stroke="none" stroke-width="0" stroke-linecap="butt"/><path d="M66.84093,233.47495c0,0 8.31179,-36.38326 24.40231,-45.20292c20.37612,-11.16871 48.05817,-2.74729 69.56196,-2.74729c36.54561,0 31.74904,47.95021 31.74904,47.95021z" data-paper-data="{&quot;origPos&quot;:null}" fill="#776d5b" stroke="none" stroke-width="0" stroke-linecap="butt"/><path d="M133.40979,217.53933c0,0 7.99651,-33.6153 18.33213,-38.16821c13.08842,-5.76554 28.89963,9.57834 41.72823,15.07171c21.80215,9.33595 14.9369,55.21126 14.9369,55.21126z" data-paper-data="{&quot;origPos&quot;:null,&quot;origRot&quot;:0}" fill="#776d5b" stroke="none" stroke-width="0" stroke-linecap="butt"/><path d="M54.99871,192.07495c0,0 8.31179,-36.38326 24.40231,-45.20292c20.37612,-11.16871 48.05817,-2.74729 69.56197,-2.74729c36.54561,0 31.74903,47.95021 31.74903,47.95021z" data-paper-data="{&quot;origPos&quot;:null}" fill="#998c76" stroke="none" stroke-width="0" stroke-linecap="butt"/><path d="M26.38815,201.47494c0,0 8.31179,-36.38326 24.40231,-45.20292c20.37612,-11.16871 48.05817,-2.74729 69.56197,-2.74729c36.54561,0 31.74903,47.95021 31.74903,47.95021z" data-paper-data="{&quot;origPos&quot;:null}" fill="#776d5b" stroke="none" stroke-width="0" stroke-linecap="butt"/><path d="M92.957,185.53933c0,0 7.99651,-33.6153 18.33213,-38.16821c13.08842,-5.76554 28.89963,9.57834 41.72824,15.07171c21.80216,9.33595 14.9369,55.21126 14.9369,55.21126z" data-paper-data="{&quot;origPos&quot;:null,&quot;origRot&quot;:0}" fill="#776d5b" stroke="none" stroke-width="0" stroke-linecap="butt"/><path d="M103.72593,216.07495c0,0 8.31179,-36.38326 24.40231,-45.20292c20.37612,-11.16871 48.05817,-2.74729 69.56196,-2.74729c36.54561,0 31.74903,47.95021 31.74903,47.95021z" data-paper-data="{&quot;origPos&quot;:null}" fill="#998c76" stroke="none" stroke-width="0" stroke-linecap="butt"/><path d="M79.71227,225.47495c0,0 8.31179,-36.38326 24.40231,-45.20292c20.37612,-11.16871 48.05817,-2.74729 69.56196,-2.74729c36.54561,0 31.74904,47.95021 31.74904,47.95021z" data-paper-data="{&quot;origPos&quot;:null}" fill="#776d5b" stroke="none" stroke-width="0" stroke-linecap="butt"/></g></g></svg>