<svg version="1.1" xmlns="http://www.w3.org/2000/svg" xmlns:xlink="http://www.w3.org/1999/xlink" width="273.63221" height="333.74337"><g transform="translate(-192.01438,-94.71072)"><g data-paper-data="{&quot;isPaintingLayer&quot;:true}" fill="none" fill-rule="nonzero" stroke="none" stroke-width="none" stroke-linecap="none" stroke-linejoin="miter" stroke-miterlimit="10" stroke-dasharray="" stroke-dashoffset="0" font-family="none" font-weight="none" font-size="none" text-anchor="none" style="mix-blend-mode: normal"><path d="M248.68421,427.87495c0,0 9.04063,-36.38326 26.5421,-45.20292c22.16286,-11.16871 52.27229,-2.74729 75.66171,-2.74729c39.75022,0 34.53303,47.95021 34.53303,47.95021z" data-paper-data="{&quot;origPos&quot;:null}" fill="#998c76" stroke="none" stroke-width="0" stroke-linecap="butt"/><path d="M280.68421,402.87495c0,0 9.04063,-36.38326 26.5421,-45.20292c22.16286,-11.16871 52.27229,-2.74729 75.66171,-2.74729c39.75022,0 34.53303,47.95021 34.53303,47.95021z" data-paper-data="{&quot;origPos&quot;:null}" fill="#998c76" stroke="none" stroke-width="0" stroke-linecap="butt"/><path d="M249.56485,412.27494c0,0 9.04063,-36.38326 26.5421,-45.20292c22.16286,-11.16871 52.27229,-2.74729 75.66171,-2.74729c39.75022,0 34.53303,47.95021 34.53303,47.95021z" data-paper-data="{&quot;origPos&quot;:null}" fill="#776d5b" stroke="none" stroke-width="0" stroke-linecap="butt"/><path d="M321.97098,396.33933c0,0 8.69771,-33.6153 19.93963,-38.16821c14.23612,-5.76554 31.43378,9.57834 45.3873,15.07171c23.71394,9.33595 16.24669,55.21126 16.24669,55.21126z" data-paper-data="{&quot;origPos&quot;:null,&quot;origRot&quot;:0}" fill="#776d5b" stroke="none" stroke-width="0" stroke-linecap="butt"/><path d="M243.68421,395.87495c0,0 9.04063,-36.38326 26.5421,-45.20292c22.16286,-11.16871 52.27229,-2.74729 75.66171,-2.74729c39.75022,0 34.53303,47.95021 34.53303,47.95021z" data-paper-data="{&quot;origPos&quot;:null}" fill="#998c76" stroke="none" stroke-width="0" stroke-linecap="butt"/><path d="M217.56485,393.27494c0,0 9.04063,-36.38326 26.5421,-45.20292c22.16286,-11.16871 52.27229,-2.74729 75.66171,-2.74729c39.75022,0 34.53303,47.95021 34.53303,47.95021z" data-paper-data="{&quot;origPos&quot;:null}" fill="#776d5b" stroke="none" stroke-width="0" stroke-linecap="butt"/><path d="M289.97098,377.33933c0,0 8.69771,-33.6153 19.93963,-38.16821c14.23612,-5.76554 31.43378,9.57834 45.3873,15.07171c23.71394,9.33595 16.24669,55.21126 16.24669,55.21126z" data-paper-data="{&quot;origPos&quot;:null,&quot;origRot&quot;:0}" fill="#776d5b" stroke="none" stroke-width="0" stroke-linecap="butt"/><path d="M319.68422,402.87495c0,0 9.04063,-36.38326 26.5421,-45.20292c22.16286,-11.16871 52.27229,-2.74729 75.6617,-2.74729c39.75022,0 34.53303,47.95021 34.53303,47.95021z" data-paper-data="{&quot;origPos&quot;:null}" fill="#998c76" stroke="none" stroke-width="0" stroke-linecap="butt"/><path d="M288.56485,412.27495c0,0 9.04063,-36.38326 26.5421,-45.20292c22.16286,-11.16871 52.27229,-2.74729 75.6617,-2.74729c39.75022,0 34.53304,47.95021 34.53304,47.95021z" data-paper-data="{&quot;origPos&quot;:null}" fill="#776d5b" stroke="none" stroke-width="0" stroke-linecap="butt"/><path d="M360.97099,396.33933c0,0 8.69771,-33.6153 19.93963,-38.16821c14.23612,-5.76554 31.43378,9.57834 45.38729,15.07171c23.71393,9.33595 16.24669,55.21126 16.24669,55.21126z" data-paper-data="{&quot;origPos&quot;:null,&quot;origRot&quot;:0}" fill="#776d5b" stroke="none" stroke-width="0" stroke-linecap="butt"/><path d="M275.68421,370.87495c0,0 9.04063,-36.38326 26.5421,-45.20292c22.16286,-11.16871 52.27229,-2.74729 75.66171,-2.74729c39.75022,0 34.53303,47.95021 34.53303,47.95021z" data-paper-data="{&quot;origPos&quot;:null}" fill="#998c76" stroke="none" stroke-width="0" stroke-linecap="butt"/><path d="M244.56485,380.27494c0,0 9.04063,-36.38326 26.5421,-45.20292c22.16286,-11.16871 52.27229,-2.74729 75.66171,-2.74729c39.75022,0 34.53303,47.95021 34.53303,47.95021z" data-paper-data="{&quot;origPos&quot;:null}" fill="#776d5b" stroke="none" stroke-width="0" stroke-linecap="butt"/><path d="M316.97098,364.33933c0,0 8.69771,-33.6153 19.93963,-38.16821c14.23612,-5.76554 31.43378,9.57834 45.3873,15.07171c23.71394,9.33595 16.24669,55.21126 16.24669,55.21126z" data-paper-data="{&quot;origPos&quot;:null,&quot;origRot&quot;:0}" fill="#776d5b" stroke="none" stroke-width="0" stroke-linecap="butt"/><path d="M328.68422,394.87495c0,0 9.04063,-36.38326 26.5421,-45.20292c22.16286,-11.16871 52.27229,-2.74729 75.6617,-2.74729c39.75022,0 34.53303,47.95021 34.53303,47.95021z" data-paper-data="{&quot;origPos&quot;:null}" fill="#998c76" stroke="none" stroke-width="0" stroke-linecap="butt"/><path d="M302.56485,404.27495c0,0 9.04063,-36.38326 26.5421,-45.20292c22.16286,-11.16871 52.27229,-2.74729 75.6617,-2.74729c39.75022,0 34.53304,47.95021 34.53304,47.95021z" data-paper-data="{&quot;origPos&quot;:null}" fill="#776d5b" stroke="none" stroke-width="0" stroke-linecap="butt"/><path d="M238.59472,103.46072c0,0 1.05814,25.13922 1.25983,29.93086c0.06723,1.59721 -1.3656,4.21229 -2.34993,4.28885c-2.95297,0.2297 -12.48102,0.97084 -12.48102,0.97084" data-paper-data="{&quot;origPos&quot;:null,&quot;origRot&quot;:0}" fill="none" stroke="#7da17c" stroke-width="17.5" stroke-linecap="round"/><path d="M221.43196,190.55374l-2.65627,-74.18636" data-paper-data="{&quot;origPos&quot;:null,&quot;origRot&quot;:0}" fill="none" stroke="#739472" stroke-width="17.5" stroke-linecap="round"/><path d="M217.44557,159.33849c0,0 -7.26343,-0.06866 -11.91238,-0.1126c-1.70931,-0.01616 -4.40818,-2.51819 -4.42629,-4.10346c-0.05431,-4.7558 -0.34252,-29.99524 -0.34252,-29.99524" data-paper-data="{&quot;origPos&quot;:null,&quot;origRot&quot;:0}" fill="none" stroke="#739472" stroke-width="17.5" stroke-linecap="round"/></g></g></svg>