<svg version="1.1" xmlns="http://www.w3.org/2000/svg" xmlns:xlink="http://www.w3.org/1999/xlink" width="570.50266" height="303.07238"><g transform="translate(102.66665,-230.88339)"><g data-paper-data="{&quot;isPaintingLayer&quot;:true}" fill="none" fill-rule="nonzero" stroke="none" stroke-width="0" stroke-linecap="butt" stroke-linejoin="miter" stroke-miterlimit="10" stroke-dasharray="" stroke-dashoffset="0" font-family="none" font-weight="none" font-size="none" text-anchor="none" style="mix-blend-mode: normal"><path d="M101.00002,446.80004v-105h196v105z" data-paper-data="{&quot;origPos&quot;:null}" fill="#9e8f7a" stroke="none"/><path d="M270.92947,521.21395v-290.33055h36.98317v290.33056z" data-paper-data="{&quot;origPos&quot;:null}" fill="#d3bb76" stroke="none"/><path d="M100.00002,343.40003v-84h175v84z" data-paper-data="{&quot;origPos&quot;:null}" fill="#a1937c" stroke="none"/><path d="M100.00002,264.50003v-17h174.68095v17z" data-paper-data="{&quot;origPos&quot;:null}" fill="#706756" stroke="#000000"/><path d="M100.00002,260.00003v-17c0,0 30.18199,0 49.5,0c48.85348,0 125.18095,0 125.18095,0v17z" data-paper-data="{&quot;origPos&quot;:null}" fill="#8b7f6b" stroke="#000000"/><path d="M271.07725,306.08337v-64.47534h37.33538v64.47534z" data-paper-data="{&quot;origPos&quot;:null}" fill="#b9a568" stroke="none"/><path d="M265.33338,302.01955v-64.83434h47.96161v64.83434z" data-paper-data="{&quot;origPos&quot;:null}" fill="#e7cd81" stroke="none"/><path d="M272.65686,292.09695v-47.38721h5.16951v47.38722z" data-paper-data="{&quot;origPos&quot;:null}" fill="#b9a568" stroke="none"/><path d="M272.65684,290.7184v-47.38721h5.16951v47.38722z" data-paper-data="{&quot;origPos&quot;:null}" fill="#d3bb76" stroke="none"/><path d="M272.82916,248.38009v-4.9972h24.98599v4.9972z" data-paper-data="{&quot;origPos&quot;:null}" fill="#d3bb76" stroke="none"/><path d="M292.64563,282.79183v-39.116h5.16952v39.116z" data-paper-data="{&quot;origPos&quot;:null}" fill="#d3bb76" stroke="none"/><path d="M282.65123,282.96414v-27.22611h5.16952v27.22611z" data-paper-data="{&quot;origPos&quot;:null}" fill="#d3bb76" stroke="none"/><path d="M282.82354,283.01583v-5.51415h14.81928v5.51415z" data-paper-data="{&quot;origPos&quot;:null}" fill="#d3bb76" stroke="none"/><path d="M272.65684,293.01023v-4.9972h33.94648v4.9972z" data-paper-data="{&quot;origPos&quot;:null}" fill="#d3bb76" stroke="none"/><path d="M302.29539,292.95854v-49.45502h5.16951v49.45502z" data-paper-data="{&quot;origPos&quot;:null}" fill="#d3bb76" stroke="none"/><path d="M-74.66664,343.73337v-84h175v84z" data-paper-data="{&quot;origPos&quot;:null}" fill="#a1937c" stroke="none"/><path d="M-99.66664,264.50003v-17h203.68095v17z" data-paper-data="{&quot;origPos&quot;:null}" fill="#706756" stroke="#000000"/><path d="M-102.66664,260.00003v-17c0,0 37.78446,0 61.96845,0c61.15908,0 156.7125,0 156.7125,0v17z" data-paper-data="{&quot;origPos&quot;:null}" fill="#8b7f6b" stroke="#000000"/><path d="M272.07725,428.28337v-64.47534h37.33538v64.47534z" data-paper-data="{&quot;origPos&quot;:null}" fill="#b9a568" stroke="none"/><path d="M266.33338,424.21955v-64.83434h47.96161v64.83434z" data-paper-data="{&quot;origPos&quot;:null}" fill="#e7cd81" stroke="none"/><path d="M273.65686,414.29695v-47.38721h5.16951v47.38722z" data-paper-data="{&quot;origPos&quot;:null}" fill="#b9a568" stroke="none"/><path d="M273.65686,412.91841v-47.38721h5.16951v47.38722z" data-paper-data="{&quot;origPos&quot;:null}" fill="#d3bb76" stroke="none"/><path d="M273.82917,370.58009v-4.9972h24.98599v4.9972z" data-paper-data="{&quot;origPos&quot;:null}" fill="#d3bb76" stroke="none"/><path d="M293.64563,404.99183v-39.116h5.16952v39.116z" data-paper-data="{&quot;origPos&quot;:null}" fill="#d3bb76" stroke="none"/><path d="M283.65123,405.16414v-27.22611h5.16952v27.22611z" data-paper-data="{&quot;origPos&quot;:null}" fill="#d3bb76" stroke="none"/><path d="M283.82354,405.21583v-5.51415h14.81928v5.51415z" data-paper-data="{&quot;origPos&quot;:null}" fill="#d3bb76" stroke="none"/><path d="M273.65684,415.21023v-4.9972h33.94648v4.9972z" data-paper-data="{&quot;origPos&quot;:null}" fill="#d3bb76" stroke="none"/><path d="M303.29539,415.15854v-49.45502h5.16951v49.45502z" data-paper-data="{&quot;origPos&quot;:null}" fill="#d3bb76" stroke="none"/><path d="M272.50804,476.07504v-40.12033h36.76099v40.12033z" data-paper-data="{&quot;origPos&quot;:null}" fill="#b9a568" stroke="none"/><path d="M266.76417,472.14271v-37.21901h47.96161v37.21901z" data-paper-data="{&quot;origPos&quot;:null}" fill="#e7cd81" stroke="none"/><path d="M272.79526,466.04954v-25.84758h5.16952v25.84758z" data-paper-data="{&quot;origPos&quot;:null}" fill="#d3bb76" stroke="none"/><path d="M302.95077,465.76233v-25.84758h5.16951v25.84758z" data-paper-data="{&quot;origPos&quot;:null}" fill="#d3bb76" stroke="none"/><path d="M281.98551,465.76233v-25.84758h5.16951v25.84758z" data-paper-data="{&quot;origPos&quot;:null}" fill="#d3bb76" stroke="none"/><path d="M294.04771,465.76233v-25.84758h5.16951v25.84758z" data-paper-data="{&quot;origPos&quot;:null}" fill="#d3bb76" stroke="none"/><path d="M283.37363,465.55173v-5.7439h12.92379v5.7439z" data-paper-data="{&quot;origPos&quot;:null}" fill="#d3bb76" stroke="none"/><path d="M284.23521,445.73526v-5.74391h12.92379v5.74391z" data-paper-data="{&quot;origPos&quot;:null}" fill="#d3bb76" stroke="none"/><g data-paper-data="{&quot;origPos&quot;:null}" stroke="none"><path d="M416.06829,407.61216l10.8351,-135.69868l36.86584,2.94362l-10.8351,135.69868z" data-paper-data="{&quot;origPos&quot;:null,&quot;origRot&quot;:0}" fill="#d3bb76"/><path d="M420.26835,350.58495l5.13182,-64.27079l37.21693,2.97165l-5.13182,64.27078z" data-paper-data="{&quot;origPos&quot;:null,&quot;origRot&quot;:0}" fill="#b9a568"/><path d="M414.86618,346.07685l5.16039,-64.62865l47.80945,3.81743l-5.16039,64.62865z" data-paper-data="{&quot;origPos&quot;:null,&quot;origRot&quot;:0}" fill="#e7cd81"/><path d="M422.95619,336.76863l3.77171,-47.23687l5.15311,0.41146l-3.77171,47.23688z" data-paper-data="{&quot;origPos&quot;:null,&quot;origRot&quot;:0}" fill="#b9a568"/><path d="M423.0659,335.39446l3.77171,-47.23687l5.15311,0.41146l-3.77172,47.23688z" data-paper-data="{&quot;origPos&quot;:null,&quot;origRot&quot;:0}" fill="#d3bb76"/><path d="M426.60753,293.20417l0.39774,-4.98134l24.90672,1.98872l-0.39774,4.98135z" data-paper-data="{&quot;origPos&quot;:null,&quot;origRot&quot;:0}" fill="#d3bb76"/><path d="M443.62217,329.08401l3.11338,-38.9919l5.15312,0.41146l-3.11338,38.9919z" data-paper-data="{&quot;origPos&quot;:null,&quot;origRot&quot;:0}" fill="#d3bb76"/><path d="M433.64576,328.46028l2.16703,-27.13973l5.15312,0.41146l-2.16702,27.13974z" data-paper-data="{&quot;origPos&quot;:null,&quot;origRot&quot;:0}" fill="#d3bb76"/><path d="M433.81341,328.52552l0.43889,-5.49665l14.77227,1.17952l-0.43889,5.49666z" data-paper-data="{&quot;origPos&quot;:null,&quot;origRot&quot;:0}" fill="#d3bb76"/><path d="M422.88348,337.679l0.39774,-4.98134l33.83878,2.70191l-0.39774,4.98135z" data-paper-data="{&quot;origPos&quot;:null,&quot;origRot&quot;:0}" fill="#d3bb76"/><path d="M452.43211,339.98652l3.93629,-49.29812l5.15311,0.41146l-3.9363,49.29812z" data-paper-data="{&quot;origPos&quot;:null,&quot;origRot&quot;:0}" fill="#d3bb76"/><path d="M416.89388,398.25929l3.19331,-39.99304l36.64436,2.92593l-3.19332,39.99304z" data-paper-data="{&quot;origPos&quot;:null,&quot;origRot&quot;:0}" fill="#b9a568"/><path d="M411.48122,393.88226l2.96239,-37.10093l47.80945,3.81743l-2.96239,37.10093z" data-paper-data="{&quot;origPos&quot;:null,&quot;origRot&quot;:0}" fill="#e7cd81"/><path d="M417.97816,388.28845l2.0573,-25.76557l5.15312,0.41146l-2.0573,25.76558z" data-paper-data="{&quot;origPos&quot;:null,&quot;origRot&quot;:0}" fill="#d3bb76"/><path d="M448.06086,390.40234l2.0573,-25.76558l5.15311,0.41146l-2.0573,25.76558z" data-paper-data="{&quot;origPos&quot;:null,&quot;origRot&quot;:0}" fill="#d3bb76"/><path d="M427.16212,388.73364l2.0573,-25.76558l5.15311,0.41146l-2.0573,25.76558z" data-paper-data="{&quot;origPos&quot;:null,&quot;origRot&quot;:0}" fill="#d3bb76"/><path d="M439.18604,389.69371l2.0573,-25.76558l5.15311,0.41146l-2.0573,25.76558z" data-paper-data="{&quot;origPos&quot;:null,&quot;origRot&quot;:0}" fill="#d3bb76"/><path d="M428.56259,388.63419l0.45718,-5.72568l12.88279,1.02865l-0.45718,5.72568z" data-paper-data="{&quot;origPos&quot;:null,&quot;origRot&quot;:0}" fill="#d3bb76"/><path d="M430.9987,368.94917l0.45718,-5.72568l12.88279,1.02864l-0.45718,5.72569z" data-paper-data="{&quot;origPos&quot;:null,&quot;origRot&quot;:0}" fill="#d3bb76"/><path d="M406.06829,531.01215l10.8351,-130.69867l36.86584,5.94362l-10.8351,127.69868z" data-paper-data="{&quot;origPos&quot;:null,&quot;origRot&quot;:0}" fill="#d3bb76"/><path d="M410.26835,473.98495l5.13182,-64.27079l37.21693,2.97165l-5.13182,64.27079z" data-paper-data="{&quot;origPos&quot;:null,&quot;origRot&quot;:0}" fill="#b9a568"/><path d="M404.86618,469.47684l5.16039,-64.62865l47.80945,3.81743l-5.16039,64.62865z" data-paper-data="{&quot;origPos&quot;:null,&quot;origRot&quot;:0}" fill="#e7cd81"/><path d="M412.95619,460.16863l3.77171,-47.23687l5.15311,0.41146l-3.77171,47.23688z" data-paper-data="{&quot;origPos&quot;:null,&quot;origRot&quot;:0}" fill="#b9a568"/><path d="M413.0659,458.79446l3.77171,-47.23687l5.15311,0.41146l-3.77172,47.23688z" data-paper-data="{&quot;origPos&quot;:null,&quot;origRot&quot;:0}" fill="#d3bb76"/><path d="M416.60753,416.60418l0.39774,-4.98134l24.90672,1.98872l-0.39774,4.98135z" data-paper-data="{&quot;origPos&quot;:null,&quot;origRot&quot;:0}" fill="#d3bb76"/><path d="M433.62217,452.484l3.11338,-38.9919l5.15312,0.41146l-3.11338,38.9919z" data-paper-data="{&quot;origPos&quot;:null,&quot;origRot&quot;:0}" fill="#d3bb76"/><path d="M423.64576,451.86028l2.16703,-27.13973l5.15312,0.41146l-2.16702,27.13974z" data-paper-data="{&quot;origPos&quot;:null,&quot;origRot&quot;:0}" fill="#d3bb76"/><path d="M423.81341,451.92552l0.43889,-5.49666l14.77227,1.17952l-0.43889,5.49666z" data-paper-data="{&quot;origPos&quot;:null,&quot;origRot&quot;:0}" fill="#d3bb76"/><path d="M412.88348,461.07901l0.39774,-4.98135l33.83878,2.70191l-0.39774,4.98135z" data-paper-data="{&quot;origPos&quot;:null,&quot;origRot&quot;:0}" fill="#d3bb76"/><path d="M442.43211,463.38652l3.93629,-49.29812l5.15311,0.41146l-3.9363,49.29812z" data-paper-data="{&quot;origPos&quot;:null,&quot;origRot&quot;:0}" fill="#d3bb76"/><path d="M406.89388,521.65928l3.19331,-39.99304l36.64436,2.92593l-3.19332,39.99304z" data-paper-data="{&quot;origPos&quot;:null,&quot;origRot&quot;:0}" fill="#b9a568"/><path d="M401.48122,517.28225l2.96239,-37.10093l47.80945,3.81743l-2.96239,37.10093z" data-paper-data="{&quot;origPos&quot;:null,&quot;origRot&quot;:0}" fill="#e7cd81"/><path d="M407.97816,511.68845l2.0573,-25.76558l5.15312,0.41146l-2.0573,25.76558z" data-paper-data="{&quot;origPos&quot;:null,&quot;origRot&quot;:0}" fill="#d3bb76"/><path d="M438.06086,513.80233l2.0573,-25.76558l5.15311,0.41146l-2.0573,25.76558z" data-paper-data="{&quot;origPos&quot;:null,&quot;origRot&quot;:0}" fill="#d3bb76"/><path d="M417.16212,512.13362l2.0573,-25.76558l5.15311,0.41146l-2.0573,25.76558z" data-paper-data="{&quot;origPos&quot;:null,&quot;origRot&quot;:0}" fill="#d3bb76"/><path d="M429.18604,513.09371l2.0573,-25.76558l5.15311,0.41146l-2.0573,25.76558z" data-paper-data="{&quot;origPos&quot;:null,&quot;origRot&quot;:0}" fill="#d3bb76"/><path d="M418.56259,512.03419l0.45718,-5.72568l12.88279,1.02865l-0.45718,5.72568z" data-paper-data="{&quot;origPos&quot;:null,&quot;origRot&quot;:0}" fill="#d3bb76"/><path d="M420.9987,492.34916l0.45718,-5.72568l12.88279,1.02864l-0.45718,5.72569z" data-paper-data="{&quot;origPos&quot;:null,&quot;origRot&quot;:0}" fill="#d3bb76"/></g><path d="M-29.99998,342.80001v-5h184v5z" fill="#9e8f7a" stroke="none"/><path d="M-92.99999,374.00001v-71c0,0 64.63958,1 126.2069,1c81.26887,0 239.7931,-1 239.7931,-1v71z" data-paper-data="{&quot;origPos&quot;:null}" fill="#9e8f7a" stroke="none"/><path d="M271.50804,353.87504v-40.12033h36.76099v40.12033z" data-paper-data="{&quot;origPos&quot;:null}" fill="#b9a568" stroke="none"/><path d="M265.76417,349.94271v-37.21901h47.96161v37.21901z" data-paper-data="{&quot;origPos&quot;:null}" fill="#e7cd81" stroke="none"/><path d="M271.79526,343.84954v-25.84758h5.16952v25.84758z" data-paper-data="{&quot;origPos&quot;:null}" fill="#d3bb76" stroke="none"/><path d="M301.95077,343.56231v-25.84758h5.16951v25.84758z" data-paper-data="{&quot;origPos&quot;:null}" fill="#d3bb76" stroke="none"/><path d="M280.98551,343.56231v-25.84758h5.16951v25.84758z" data-paper-data="{&quot;origPos&quot;:null}" fill="#d3bb76" stroke="none"/><path d="M293.04771,343.56231v-25.84758h5.16951v25.84758z" data-paper-data="{&quot;origPos&quot;:null}" fill="#d3bb76" stroke="none"/><path d="M282.37361,343.35171v-5.7439h12.92379v5.7439z" data-paper-data="{&quot;origPos&quot;:null}" fill="#d3bb76" stroke="none"/><path d="M283.23521,323.53525v-5.74391h12.92379v5.74391z" data-paper-data="{&quot;origPos&quot;:null}" fill="#d3bb76" stroke="none"/></g></g></svg>