<svg version="1.1" xmlns="http://www.w3.org/2000/svg" xmlns:xlink="http://www.w3.org/1999/xlink" width="376.30817" height="150.56424" viewBox="0,0,376.30817,150.56424"><g transform="translate(31.66157,109.28928)"><g data-paper-data="{&quot;isPaintingLayer&quot;:true}" fill="none" fill-rule="nonzero" stroke="none" stroke-width="none" stroke-linecap="none" stroke-linejoin="miter" stroke-miterlimit="10" stroke-dasharray="" stroke-dashoffset="0" font-family="none" font-weight="none" font-size="none" text-anchor="none" style="mix-blend-mode: normal"><path d="M165.22439,-100.53928c0,0 1.15093,25.13922 1.3703,29.93086c0.07312,1.59721 -1.48535,4.21229 -2.55599,4.28885c-3.21191,0.2297 -13.57545,0.97084 -13.57545,0.97084" data-paper-data="{&quot;origPos&quot;:null,&quot;origRot&quot;:0}" fill="none" stroke="#7da17c" stroke-width="17.5" stroke-linecap="round"/><path d="M146.55666,-13.44626l-2.88919,-74.18636" data-paper-data="{&quot;origPos&quot;:null,&quot;origRot&quot;:0}" fill="none" stroke="#739472" stroke-width="17.5" stroke-linecap="round"/><path d="M142.22072,-44.66151c0,0 -7.90034,-0.06866 -12.95695,-0.1126c-1.8592,-0.01616 -4.79472,-2.51819 -4.81442,-4.10346c-0.05907,-4.7558 -0.37256,-29.99524 -0.37256,-29.99524" data-paper-data="{&quot;origPos&quot;:null,&quot;origRot&quot;:0}" fill="none" stroke="#739472" stroke-width="17.5" stroke-linecap="round"/><path d="M96.56485,36.27494c0,0 9.04063,-36.38326 26.5421,-45.20292c22.16286,-11.16871 52.27229,-2.74729 75.66171,-2.74729c39.75022,0 34.53303,47.95021 34.53303,47.95021z" data-paper-data="{&quot;origPos&quot;:null}" fill="#776d5b" stroke="none" stroke-width="0" stroke-linecap="butt"/><path d="M154.68421,13.87495c0,0 9.04063,-36.38326 26.5421,-45.20292c22.16286,-11.16871 52.27229,-2.74729 75.66171,-2.74729c39.75022,0 34.53303,47.95021 34.53303,47.95021z" data-paper-data="{&quot;origPos&quot;:null}" fill="#998c76" stroke="none" stroke-width="0" stroke-linecap="butt"/><path d="M159.68421,33.38104c0,0 9.04063,-30.55386 26.5421,-37.96041c22.16286,-9.37924 52.27229,-2.30711 75.66171,-2.30711c39.75022,0 34.53303,40.26753 34.53303,40.26753z" data-paper-data="{&quot;origPos&quot;:null}" fill="#998c76" stroke="none" stroke-width="0" stroke-linecap="butt"/><path d="M122.68421,27.50259c0,0 9.04063,-30.55386 26.5421,-37.96041c22.16286,-9.37924 52.27229,-2.30711 75.66171,-2.30711c39.75022,0 34.53303,40.26753 34.53303,40.26753z" data-paper-data="{&quot;origPos&quot;:null}" fill="#998c76" stroke="none" stroke-width="0" stroke-linecap="butt"/><path d="M168.97098,11.93679c0,0 8.69771,-28.22938 19.93963,-32.05282c14.23612,-4.84177 31.43378,8.04368 45.3873,12.65689c23.71394,7.84012 16.24669,46.36519 16.24669,46.36519z" data-paper-data="{&quot;origPos&quot;:null,&quot;origRot&quot;:0}" fill="#776d5b" stroke="none" stroke-width="0" stroke-linecap="butt"/><path d="M195.68422,33.38104c0,0 9.04063,-30.55386 26.5421,-37.96041c22.16286,-9.37924 52.27229,-2.30711 75.6617,-2.30711c39.75022,0 34.53303,40.26753 34.53303,40.26753z" data-paper-data="{&quot;origPos&quot;:null}" fill="#998c76" stroke="none" stroke-width="0" stroke-linecap="butt"/><path d="M167.56485,41.27495c0,0 9.04063,-30.55386 26.5421,-37.96041c22.16286,-9.37924 52.27229,-2.30711 75.6617,-2.30711c39.75022,0 34.53304,40.26753 34.53304,40.26753z" data-paper-data="{&quot;origPos&quot;:null}" fill="#776d5b" stroke="none" stroke-width="0" stroke-linecap="butt"/><path d="M123.56485,14.40205c0,0 9.04063,-30.55386 26.5421,-37.96041c22.16286,-9.37924 52.27229,-2.30711 75.66171,-2.30711c39.75022,0 34.53303,40.26753 34.53303,40.26753z" data-paper-data="{&quot;origPos&quot;:null}" fill="#776d5b" stroke="none" stroke-width="0" stroke-linecap="butt"/><path d="M195.97098,1.01968c0,0 8.69771,-28.22938 19.93963,-32.05282c14.23612,-4.84177 31.43378,8.04368 45.3873,12.65689c23.71394,7.84012 16.24669,46.36519 16.24669,46.36519z" data-paper-data="{&quot;origPos&quot;:null,&quot;origRot&quot;:0}" fill="#776d5b" stroke="none" stroke-width="0" stroke-linecap="butt"/><path d="M207.68422,26.66282c0,0 9.04063,-30.55386 26.5421,-37.96041c22.16286,-9.37924 52.27229,-2.30711 75.6617,-2.30711c39.75022,0 34.53303,40.26753 34.53303,40.26753z" data-paper-data="{&quot;origPos&quot;:null}" fill="#998c76" stroke="none" stroke-width="0" stroke-linecap="butt"/><path d="M181.56485,34.55673c0,0 9.04063,-30.55386 26.5421,-37.96041c22.16286,-9.37924 52.27229,-2.30711 75.6617,-2.30711c39.75022,0 34.53304,40.26753 34.53304,40.26753z" data-paper-data="{&quot;origPos&quot;:null}" fill="#776d5b" stroke="none" stroke-width="0" stroke-linecap="butt"/><path d="M-6.78929,-39.94874c0,0 -10.36354,-0.74114 -13.57545,-0.97084c-1.07064,-0.07656 -2.62911,-2.69164 -2.55599,-4.28885c0.21937,-4.79164 1.3703,-29.93086 1.3703,-29.93086" data-paper-data="{&quot;origPos&quot;:null,&quot;origRot&quot;:0,&quot;index&quot;:null}" fill="none" stroke="#7da17c" stroke-width="17.5" stroke-linecap="round"/><path d="M-2.8827,11.95373l2.88919,-74.18636" data-paper-data="{&quot;origPos&quot;:null,&quot;origRot&quot;:0,&quot;index&quot;:null}" fill="none" stroke="#739472" stroke-width="17.5" stroke-linecap="round"/><path d="M22.59717,-53.47282c0,0 -0.31349,25.23944 -0.37256,29.99524c-0.0197,1.58527 -2.95522,4.0873 -4.81442,4.10346c-5.05661,0.04394 -12.95695,0.1126 -12.95695,0.1126" data-paper-data="{&quot;origPos&quot;:null,&quot;origRot&quot;:0,&quot;index&quot;:null}" fill="none" stroke="#739472" stroke-width="17.5" stroke-linecap="round"/></g></g></svg>