<svg version="1.1" xmlns="http://www.w3.org/2000/svg" xmlns:xlink="http://www.w3.org/1999/xlink" width="911.86667" height="492"><g transform="translate(-240.13333,176.19999)"><g data-paper-data="{&quot;isPaintingLayer&quot;:true}" fill="none" fill-rule="nonzero" stroke="none" stroke-width="none" stroke-linecap="butt" stroke-linejoin="miter" stroke-miterlimit="10" stroke-dasharray="" stroke-dashoffset="0" font-family="none" font-weight="none" font-size="none" text-anchor="none" style="mix-blend-mode: normal"><path d="M482.00002,302.80001v-139h633.51926v139z" data-paper-data="{&quot;origPos&quot;:null}" fill="#254d70" stroke-width="0"/><path d="M498.01595,291.80001v-139h653.98406v139z" data-paper-data="{&quot;origPos&quot;:null}" fill="#224768" stroke-width="0"/><path d="M482.00002,302.80001v-139h633.51926v139z" data-paper-data="{&quot;origPos&quot;:null}" fill="#264e72" stroke-width="0"/><path d="M482.00002,315.80001v-139h633.51926v139z" data-paper-data="{&quot;origPos&quot;:null}" fill="#2d5e89" stroke-width="0"/><path d="M240.13334,304.30075v-250.50074h339.66667v250.50074z" data-paper-data="{&quot;origPos&quot;:null}" fill="#2d5e89" stroke-width="NaN"/><path d="M440.77196,299.14808l0.09989,-29.99984l14.99992,0.04995l-0.09988,29.99983z" data-paper-data="{&quot;origPos&quot;:null,&quot;origRot&quot;:0}" fill="#999999" stroke-width="0"/><path d="M360.56719,267.80002v-423h176.65951v423z" data-paper-data="{&quot;origPos&quot;:null}" fill="#2d5e89" stroke-width="0"/><path d="M428.32539,277.46873l0.07991,-23.99987l40.66645,0.1354l-0.07991,23.99987z" data-paper-data="{&quot;origPos&quot;:null,&quot;origRot&quot;:0}" fill="#575757" stroke-width="0"/><path d="M428.33204,275.46873l0.07991,-23.99987l40.66645,0.1354l-0.07991,23.99987z" data-paper-data="{&quot;origPos&quot;:null,&quot;origRot&quot;:0}" fill="#8b8b8b" stroke-width="0"/><path d="M436.02904,266.36843l0.01955,-5.87156l15.59003,0.05191l-0.01954,5.87157z" data-paper-data="{&quot;origPos&quot;:null,&quot;origRot&quot;:0}" fill="#e9e9e9" stroke-width="0"/><path d="M449.97776,272.89387l0.06,-18.01965l13.33523,8.34567z" data-paper-data="{&quot;origPos&quot;:null,&quot;origRot&quot;:0}" fill="#e9e9e9" stroke-width="0"/><path d="M362.94411,74.30075v-250.50074h240.0406v250.50074z" data-paper-data="{&quot;origPos&quot;:null}" fill="#214564" stroke-width="NaN"/><path d="M364.2594,86.30076v-250.50074h240.0406v250.50074z" data-paper-data="{&quot;origPos&quot;:null}" fill="#275277" stroke-width="NaN"/><path d="M361.29999,107.30075v-250.50074h240.0406v250.50074z" data-paper-data="{&quot;origPos&quot;:null}" fill="#2d5e89" stroke-width="NaN"/></g></g></svg>