<svg version="1.1" xmlns="http://www.w3.org/2000/svg" xmlns:xlink="http://www.w3.org/1999/xlink" width="291.77069" height="440.38797"><g transform="translate(-218.56485,-31.06612)"><g data-paper-data="{&quot;isPaintingLayer&quot;:true}" fill="none" fill-rule="nonzero" stroke="none" stroke-width="none" stroke-linecap="none" stroke-linejoin="miter" stroke-miterlimit="10" stroke-dasharray="" stroke-dashoffset="0" font-family="none" font-weight="none" font-size="none" text-anchor="none" style="mix-blend-mode: normal"><g data-paper-data="{&quot;origPos&quot;:null}" fill="none" stroke-width="17.5" stroke-linecap="round"><path d="M500.22439,166.46072c0,0 1.15093,25.13922 1.3703,29.93086c0.07312,1.59721 -1.48535,4.21229 -2.55599,4.28885c-3.21191,0.2297 -13.57545,0.97084 -13.57545,0.97084" data-paper-data="{&quot;origPos&quot;:null,&quot;origRot&quot;:0}" stroke="#7da17c"/><path d="M478.66747,179.36738l2.88919,74.18636" data-paper-data="{&quot;origPos&quot;:null,&quot;origRot&quot;:0}" stroke="#739472"/><path d="M477.22072,222.33849c0,0 -7.90034,-0.06866 -12.95695,-0.1126c-1.8592,-0.01616 -4.79472,-2.51819 -4.81442,-4.10346c-0.05907,-4.7558 -0.37256,-29.99524 -0.37256,-29.99524" data-paper-data="{&quot;origPos&quot;:null,&quot;origRot&quot;:0}" stroke="#739472"/></g><path d="M249.68421,426.87495c0,0 9.04063,-36.38326 26.5421,-45.20292c22.16286,-11.16871 52.27229,-2.74729 75.66171,-2.74729c39.75022,0 34.53303,47.95021 34.53303,47.95021z" data-paper-data="{&quot;origPos&quot;:null}" fill="#998c76" stroke="none" stroke-width="0" stroke-linecap="butt"/><path d="M218.56485,436.27494c0,0 9.04063,-36.38326 26.5421,-45.20292c22.16286,-11.16871 52.27229,-2.74729 75.66171,-2.74729c39.75022,0 34.53303,47.95021 34.53303,47.95021z" data-paper-data="{&quot;origPos&quot;:null}" fill="#776d5b" stroke="none" stroke-width="0" stroke-linecap="butt"/><path d="M290.97098,420.33933c0,0 8.69771,-33.6153 19.93963,-38.16821c14.23612,-5.76554 31.43378,9.57834 45.3873,15.07171c23.71394,9.33595 16.24669,55.21126 16.24669,55.21126z" data-paper-data="{&quot;origPos&quot;:null,&quot;origRot&quot;:0}" fill="#776d5b" stroke="none" stroke-width="0" stroke-linecap="butt"/><path d="M320.68422,445.87495c0,0 9.04063,-36.38326 26.5421,-45.20292c22.16286,-11.16871 52.27229,-2.74729 75.6617,-2.74729c39.75022,0 34.53303,47.95021 34.53303,47.95021z" data-paper-data="{&quot;origPos&quot;:null}" fill="#998c76" stroke="none" stroke-width="0" stroke-linecap="butt"/><path d="M289.56485,455.27495c0,0 9.04063,-36.38326 26.5421,-45.20292c22.16286,-11.16871 52.27229,-2.74729 75.6617,-2.74729c39.75022,0 34.53304,47.95021 34.53304,47.95021z" data-paper-data="{&quot;origPos&quot;:null}" fill="#776d5b" stroke="none" stroke-width="0" stroke-linecap="butt"/><path d="M361.97099,439.33933c0,0 8.69771,-33.6153 19.93963,-38.16821c14.23612,-5.76554 31.43378,9.57834 45.38729,15.07171c23.71393,9.33595 16.24669,55.21126 16.24669,55.21126z" data-paper-data="{&quot;origPos&quot;:null,&quot;origRot&quot;:0}" fill="#776d5b" stroke="none" stroke-width="0" stroke-linecap="butt"/><path d="M281.68421,401.87495c0,0 9.04063,-36.38326 26.5421,-45.20292c22.16286,-11.16871 52.27229,-2.74729 75.66171,-2.74729c39.75022,0 34.53303,47.95021 34.53303,47.95021z" data-paper-data="{&quot;origPos&quot;:null}" fill="#998c76" stroke="none" stroke-width="0" stroke-linecap="butt"/><path d="M250.56485,411.27494c0,0 9.04063,-36.38326 26.5421,-45.20292c22.16286,-11.16871 52.27229,-2.74729 75.66171,-2.74729c39.75022,0 34.53303,47.95021 34.53303,47.95021z" data-paper-data="{&quot;origPos&quot;:null}" fill="#776d5b" stroke="none" stroke-width="0" stroke-linecap="butt"/><path d="M322.97098,395.33933c0,0 8.69771,-33.6153 19.93963,-38.16821c14.23612,-5.76554 31.43378,9.57834 45.3873,15.07171c23.71394,9.33595 16.24669,55.21126 16.24669,55.21126z" data-paper-data="{&quot;origPos&quot;:null,&quot;origRot&quot;:0}" fill="#776d5b" stroke="none" stroke-width="0" stroke-linecap="butt"/><path d="M329.68422,437.87495c0,0 9.04063,-36.38326 26.5421,-45.20292c22.16286,-11.16871 52.27229,-2.74729 75.6617,-2.74729c39.75022,0 34.53303,47.95021 34.53303,47.95021z" data-paper-data="{&quot;origPos&quot;:null}" fill="#998c76" stroke="none" stroke-width="0" stroke-linecap="butt"/><path d="M303.56485,447.27495c0,0 9.04063,-36.38326 26.5421,-45.20292c22.16286,-11.16871 52.27229,-2.74729 75.6617,-2.74729c39.75022,0 34.53304,47.95021 34.53304,47.95021z" data-paper-data="{&quot;origPos&quot;:null}" fill="#776d5b" stroke="none" stroke-width="0" stroke-linecap="butt"/><path d="M350.68421,396.87495c0,0 9.04063,-36.38326 26.5421,-45.20292c22.16286,-11.16871 52.27229,-2.74729 75.66171,-2.74729c39.75022,0 34.53303,47.95021 34.53303,47.95021z" data-paper-data="{&quot;origPos&quot;:null}" fill="#998c76" stroke="none" stroke-width="0" stroke-linecap="butt"/><path d="M420.84013,49.6894c-1.25002,0 -2.35549,-0.29492 -3.31644,-0.88477c-0.95704,-0.59376 -1.71096,-1.41018 -2.26175,-2.44925c-0.55079,-1.04298 -0.82619,-2.24027 -0.82619,-3.59184c0,-1.3633 0.29493,-2.56644 0.88478,-3.60942c0.59376,-1.04298 1.40627,-1.85941 2.43753,-2.44926c1.03517,-0.59376 2.22854,-0.89064 3.58013,-0.89064c1.33205,0 2.5137,0.29688 3.54497,0.89064c1.03517,0.58985 1.84768,1.40628 2.43753,2.44926c0.59376,1.04298 0.89064,2.24612 0.89064,3.60942v5.40241c0,1.31643 -0.29297,2.51174 -0.87892,3.58598c-0.58204,1.07424 -1.39456,1.92776 -2.43754,2.56058c-1.03908,0.63282 -2.24221,0.94923 -3.60942,0.94923c-1.18361,0 -2.29104,-0.23437 -3.32231,-0.70313c-1.03127,-0.46485 -1.90627,-1.1465 -2.62503,-2.04495c-0.21485,-0.28126 -0.29493,-0.57228 -0.24024,-0.87306c0.0586,-0.30078 0.22266,-0.54297 0.49219,-0.72657c0.30079,-0.19922 0.61329,-0.26563 0.93751,-0.19922c0.32423,0.06641 0.58595,0.23242 0.78517,0.49805c0.44923,0.56641 1.01564,1.00783 1.69924,1.32424c0.6836,0.31641 1.459,0.47462 2.3262,0.47462c0.80079,0 1.53713,-0.19141 2.20901,-0.57423c0.67579,-0.38282 1.2129,-0.94923 1.61135,-1.69924c0.40235,-0.75001 0.60352,-1.66603 0.60352,-2.74808v-1.23488c-0.48375,0.85086 -1.10875,1.53397 -1.87502,2.04934c-0.88283,0.58985 -1.89846,0.88477 -3.04692,0.88477zM421.33818,47.43937c0.8672,0 1.63284,-0.19922 2.2969,-0.59766c0.66798,-0.40235 1.18947,-0.95313 1.56448,-1.65236c0.375,-0.69923 0.5625,-1.50783 0.5625,-2.42581c0,-0.91407 -0.1875,-1.72464 -0.5625,-2.43168c-0.375,-0.71095 -0.8965,-1.26563 -1.56448,-1.66408c-0.66407,-0.40235 -1.4297,-0.60352 -2.2969,-0.60352c-0.8672,0 -1.63479,0.20117 -2.30277,0.60352c-0.66407,0.39845 -1.18751,0.95313 -1.57033,1.66408c-0.38282,0.70704 -0.57423,1.5176 -0.57423,2.43168c0,0.91798 0.19141,1.72658 0.57423,2.42581c0.38282,0.69923 0.90626,1.25001 1.57033,1.65236c0.66798,0.39845 1.43556,0.59766 2.30277,0.59766z" data-paper-data="{&quot;origPos&quot;:null}" fill="#776d5b" stroke="#776d5b" stroke-width="1" stroke-linecap="butt"/><path d="M310.17427,52.6894c-1.3008,0 -2.47269,-0.30274 -3.51567,-0.90821c-1.03907,-0.60939 -1.8633,-1.43947 -2.47268,-2.49027c-0.60939,-1.0508 -0.91408,-2.2344 -0.91408,-3.55083c0,-1.31643 0.2793,-2.49417 0.8379,-3.53325c0.5586,-1.04298 1.32033,-1.86916 2.28519,-2.47855c0.96877,-0.60939 2.06253,-0.91408 3.2813,-0.91408c0.98048,0 1.88675,0.20509 2.71879,0.61525c0.83595,0.40626 1.53712,0.96094 2.10354,1.66408v-6.75008c0,-0.38282 0.1211,-0.69141 0.36329,-0.9258c0.24219,-0.23438 0.54493,-0.35157 0.90821,-0.35157c0.38673,0 0.69533,0.11718 0.92579,0.35157c0.23438,0.23438 0.35157,0.54297 0.35157,0.9258v11.39663c0,1.31643 -0.30469,2.50003 -0.91407,3.55083c-0.60548,1.0508 -1.4258,1.88088 -2.46097,2.49027c-1.03127,0.60547 -2.19729,0.90821 -3.4981,0.90821zM310.17427,50.43937c0.84767,0 1.6055,-0.20312 2.27347,-0.60938c0.66798,-0.41016 1.19337,-0.97267 1.57619,-1.68753c0.38282,-0.71876 0.57423,-1.51955 0.57423,-2.40237c0,-0.89845 -0.19141,-1.69729 -0.57423,-2.39652c-0.38282,-0.70314 -0.90821,-1.25783 -1.57619,-1.66408c-0.66798,-0.41016 -1.42581,-0.61524 -2.27347,-0.61524c-0.83204,0 -1.58595,0.20508 -2.26174,0.61524c-0.67579,0.40626 -1.209,0.96095 -1.59963,1.66409c-0.39063,0.69923 -0.58595,1.49807 -0.58595,2.39652c0,0.88282 0.19532,1.68361 0.58595,2.40237c0.39063,0.71486 0.92384,1.27737 1.59963,1.68753c0.67579,0.40626 1.4297,0.60938 2.26174,0.60938z" data-paper-data="{&quot;origPos&quot;:null}" fill="#776d5b" stroke="#776d5b" stroke-width="1" stroke-linecap="butt"/><path d="M397.1416,49.6894c-1.35158,0 -2.54495,-0.29492 -3.58012,-0.88477c-1.03127,-0.59376 -1.84378,-1.41018 -2.43754,-2.44925c-0.58985,-1.04298 -0.88477,-2.24027 -0.88477,-3.59184c0,-1.3633 0.29492,-2.56644 0.88477,-3.60942c0.59376,-1.04298 1.40627,-1.85941 2.43754,-2.44926c1.03517,-0.59376 2.22854,-0.89064 3.58012,-0.89064c1.33205,0 2.51371,0.29688 3.54497,0.89064c1.03517,0.58985 1.84768,1.40628 2.43753,2.44926c0.59376,1.04298 0.89064,2.24612 0.89064,3.60942c0,1.35158 -0.29298,2.54886 -0.87892,3.59184c-0.58204,1.03907 -1.39064,1.85549 -2.42581,2.44925c-1.03127,0.58985 -2.22074,0.88477 -3.56841,0.88477zM397.1416,47.43937c0.8672,0 1.63284,-0.19922 2.29691,-0.59766c0.66798,-0.40235 1.18947,-0.95313 1.56447,-1.65236c0.375,-0.69923 0.56251,-1.50783 0.56251,-2.42581c0,-0.91407 -0.18751,-1.72464 -0.56251,-2.43168c-0.375,-0.71095 -0.8965,-1.26563 -1.56447,-1.66408c-0.66407,-0.40235 -1.42971,-0.60352 -2.29691,-0.60352c-0.8672,0 -1.63478,0.20117 -2.30276,0.60352c-0.66407,0.39845 -1.18752,0.95313 -1.57033,1.66408c-0.38282,0.70704 -0.57423,1.5176 -0.57423,2.43168c0,0.91798 0.19141,1.72658 0.57423,2.42581c0.38282,0.69923 0.90627,1.25001 1.57034,1.65236c0.66798,0.39845 1.43556,0.59766 2.30276,0.59766z" data-paper-data="{&quot;origPos&quot;:null}" fill="#776d5b" stroke="#776d5b" stroke-width="1" stroke-linecap="butt"/><path d="M286.55273,52.6894c-1.35158,0 -2.54495,-0.29492 -3.58012,-0.88477c-1.03126,-0.59376 -1.84377,-1.41018 -2.43753,-2.44925c-0.58985,-1.04298 -0.88477,-2.24027 -0.88477,-3.59184c0,-1.3633 0.29492,-2.56644 0.88477,-3.60942c0.59376,-1.04298 1.40627,-1.85941 2.43753,-2.44926c1.03517,-0.59376 2.22854,-0.89064 3.58012,-0.89064c1.33205,0 2.5137,0.29688 3.54497,0.89064c1.03517,0.58985 1.84768,1.40628 2.43753,2.44926c0.59376,1.04298 0.89064,2.24612 0.89064,3.60942c0,1.35158 -0.29297,2.54886 -0.87892,3.59184c-0.58204,1.03907 -1.39065,1.85549 -2.42581,2.44925c-1.03127,0.58985 -2.22073,0.88477 -3.5684,0.88477zM286.55273,50.43937c0.8672,0 1.63283,-0.19922 2.2969,-0.59766c0.66798,-0.40235 1.18947,-0.95313 1.56448,-1.65236c0.375,-0.69923 0.5625,-1.50783 0.5625,-2.42581c0,-0.91407 -0.1875,-1.72464 -0.5625,-2.43168c-0.375,-0.71095 -0.8965,-1.26563 -1.56448,-1.66408c-0.66407,-0.40235 -1.4297,-0.60352 -2.2969,-0.60352c-0.8672,0 -1.63478,0.20117 -2.30276,0.60352c-0.66407,0.39845 -1.18751,0.95313 -1.57033,1.66408c-0.38282,0.70704 -0.57423,1.5176 -0.57423,2.43168c0,0.91798 0.19141,1.72658 0.57423,2.42581c0.38282,0.69923 0.90626,1.25001 1.57034,1.65236c0.66798,0.39845 1.43556,0.59766 2.30276,0.59766z" data-paper-data="{&quot;origPos&quot;:null}" fill="#776d5b" stroke="#776d5b" stroke-width="1" stroke-linecap="butt"/><path d="M437.22646,49.63407c-0.95423,-0.11062 -1.8195,-0.3871 -2.59579,-0.82944c-1.03127,-0.59376 -1.84377,-1.41018 -2.43753,-2.44925c-0.58985,-1.04298 -0.88478,-2.24027 -0.88478,-3.59184c0,-1.3633 0.29493,-2.56644 0.88478,-3.60942c0.59376,-1.04298 1.40627,-1.85941 2.43753,-2.44926c1.03517,-0.59376 2.22854,-0.89064 3.58012,-0.89064c1.33205,0 2.5137,0.29688 3.54497,0.89064c1.03517,0.58985 1.84768,1.40628 2.43753,2.44926c0.59376,1.04298 0.89064,2.24612 0.89064,3.60942c0,1.35158 -0.29298,2.54886 -0.87892,3.59184c-0.30383,0.54241 -0.6694,1.02414 -1.0967,1.4452M438.21079,47.43937c0.8672,0 1.63284,-0.19922 2.29691,-0.59766c0.66798,-0.40235 1.18946,-0.95313 1.56447,-1.65236c0.375,-0.69923 0.56251,-1.50783 0.56251,-2.42581c0,-0.91407 -0.18751,-1.72464 -0.56251,-2.43168c-0.375,-0.71095 -0.89649,-1.26563 -1.56447,-1.66408c-0.66407,-0.40235 -1.42971,-0.60352 -2.29691,-0.60352c-0.8672,0 -1.63479,0.20117 -2.30276,0.60352c-0.66407,0.39845 -1.18751,0.95313 -1.57033,1.66408c-0.38282,0.70704 -0.57423,1.5176 -0.57423,2.43168c0,0.91798 0.19141,1.72658 0.57423,2.42581c0.38282,0.69923 0.90626,1.25001 1.57033,1.65236c0.66798,0.39845 1.43556,0.59766 2.30276,0.59766z" data-paper-data="{&quot;origPos&quot;:null}" fill="#776d5b" stroke="#776d5b" stroke-width="1" stroke-linecap="butt"/><path d="M274.82983,52.61323c-0.36719,0 -0.67188,-0.11914 -0.91407,-0.35742c-0.24219,-0.24219 -0.36329,-0.54689 -0.36329,-0.91408v-6.15242c0,-0.94923 -0.17579,-1.72268 -0.52735,-2.32034c-0.34766,-0.60157 -0.81836,-1.04689 -1.41212,-1.33595c-0.58985,-0.29297 -1.26759,-0.43946 -2.03323,-0.43946c-0.69923,0 -1.33205,0.14258 -1.89847,0.42774c-0.56642,0.28126 -1.01759,0.66016 -1.35353,1.13674c-0.33203,0.47266 -0.49805,1.01759 -0.49805,1.63479v7.04892c0,0.36719 -0.11719,0.67189 -0.35156,0.91408c-0.23047,0.23828 -0.53711,0.35742 -0.91994,0.35742c-0.36719,0 -0.67189,-0.11914 -0.91407,-0.35742c-0.24219,-0.24219 -0.36328,-0.54689 -0.36328,-0.91408v-5.00397v-6.14657c0,-0.38282 0.12109,-0.69141 0.36328,-0.92579c0.24219,-0.23438 0.54689,-0.35157 0.91407,-0.35157c0.38282,0 0.68947,0.11719 0.91994,0.35157c0.23438,0.23438 0.35156,0.54297 0.35156,0.92579v4.10162h-1.57619c0,-1.0508 0.25391,-1.98831 0.76173,-2.81254c0.23301,-0.37532 0.5045,-0.90516 0.81446,-1.21001v6.0675c0,0.36719 -0.11719,0.67188 -0.35156,0.91407c-0.23047,0.24219 -0.53711,0.36329 -0.91994,0.36329c-0.36719,0 -0.67189,-0.1211 -0.91407,-0.36329c-0.24219,-0.24219 -0.36328,-0.54688 -0.36328,-0.91407v-11.99429c0,-0.38282 0.12109,-0.69141 0.36328,-0.9258c0.24219,-0.23438 0.54689,-0.35157 0.91407,-0.35157c0.38282,0 0.68947,0.11718 0.91994,0.35157c0.23438,0.23438 0.35156,0.54297 0.35156,0.9258v6.11657c0.37074,-0.36463 0.79653,-0.67885 1.27736,-0.94267c0.88282,-0.48438 1.87308,-0.72657 2.97074,-0.72657c1.15236,0 2.18167,0.24609 3.08793,0.73829c0.91017,0.4922 1.62697,1.2129 2.15042,2.16213c0.52345,0.94923 0.78517,2.11527 0.78517,3.49809v6.15242c0,0.36719 -0.1211,0.67189 -0.36329,0.91408c-0.23828,0.23828 -0.54103,0.35742 -0.90822,0.35742z" data-paper-data="{&quot;origPos&quot;:null}" fill="#776d5b" stroke="#776d5b" stroke-width="1" stroke-linecap="butt"/><path d="M385.8934,49.58979c-0.83204,0 -1.58205,-0.2129 -2.25003,-0.63868c-0.66798,-0.42578 -1.19338,-1.00392 -1.57619,-1.7344c-0.38282,-0.73439 -0.57423,-1.56056 -0.57423,-2.47854v-6.17h-1.14845c-0.35156,0 -0.63673,-0.09962 -0.85548,-0.29884c-0.21485,-0.20312 -0.32227,-0.45313 -0.32227,-0.75001c0,-0.33594 0.10742,-0.60353 0.32227,-0.80275c0.21875,-0.19922 0.50392,-0.29883 0.85548,-0.29883h1.14845v-3.5977c0,-0.36719 0.11719,-0.66797 0.35157,-0.90235c0.23438,-0.23438 0.53321,-0.35157 0.8965,-0.35157c0.36719,0 0.66798,0.11718 0.90236,0.35157c0.23438,0.23438 0.35156,0.53516 0.35156,0.90236v3.5977h2.12113c0.35156,0 0.63477,0.09961 0.84962,0.29883c0.21875,0.19922 0.32813,0.46681 0.32813,0.80275c0,0.29688 -0.10937,0.54688 -0.32812,0.75001c-0.21485,0.19922 -0.49806,0.29884 -0.84962,0.29884h-2.12113v6.17c0,0.66797 0.18165,1.22657 0.54493,1.6758c0.36719,0.44922 0.81837,0.67384 1.35353,0.67384h0.84962c0.30079,0 0.55469,0.11718 0.76173,0.35156c0.20704,0.23438 0.31055,0.53516 0.31055,0.90236c0,0.36719 -0.13673,0.66797 -0.41017,0.90236c-0.27344,0.23047 -0.62696,0.34571 -1.06056,0.34571z" data-paper-data="{&quot;origPos&quot;:null}" fill="#776d5b" stroke="#776d5b" stroke-width="1" stroke-linecap="butt"/><path d="M300.47804,52.58979c-0.73439,0 -1.38478,-0.19922 -1.9512,-0.59766c-0.56642,-0.40235 -1.00783,-0.94923 -1.32424,-1.64064c-0.31641,-0.69141 -0.47461,-1.48635 -0.47461,-2.3848v-13.64666c0,-0.36719 0.11524,-0.66797 0.34571,-0.90235c0.23438,-0.23438 0.53517,-0.35157 0.90236,-0.35157c0.36719,0 0.66603,0.11718 0.8965,0.35157c0.23438,0.23438 0.35156,0.53516 0.35156,0.90236v13.64666c0,0.6172 0.11719,1.12501 0.35156,1.52345c0.23438,0.39845 0.53517,0.59767 0.90236,0.59767h0.6211c0.33203,0 0.60157,0.11718 0.80861,0.35156c0.21094,0.23438 0.31641,0.53516 0.31641,0.90236c0,0.36719 -0.15821,0.66797 -0.47461,0.90236c-0.31641,0.23047 -0.72462,0.34571 -1.22463,0.34571z" data-paper-data="{&quot;origPos&quot;:null}" fill="#776d5b" stroke="#776d5b" stroke-width="1" stroke-linecap="butt"/><path d="M327.96617,48.52748c-0.69114,0 -1.26709,-0.23039 -1.72784,-0.69115c-0.46076,-0.46075 -0.69114,-1.04041 -0.69114,-1.73897c0,-0.25268 0.02973,-0.49048 0.08918,-0.71343c0.06688,-0.22295 0.14864,-0.41247 0.24525,-0.56853l7.1343,-10.70144c0.50535,-0.69857 1.17048,-1.04785 1.99538,-1.04785c0.40873,0 0.78774,0.08918 1.13702,0.26754c0.34928,0.17092 0.6354,0.43104 0.85835,0.78032l7.13431,10.70145c0.25268,0.40874 0.379,0.83606 0.379,1.28196c0,0.66884 -0.2378,1.24106 -0.71343,1.71669c-0.47562,0.47563 -1.04786,0.71343 -1.71669,0.71343c-0.78774,0 -1.45288,-0.31956 -1.99538,-0.95867l-5.08318,-7.64709l-5.09434,7.64709c-0.47563,0.63911 -1.12588,0.95867 -1.95078,0.95867z" data-paper-data="{&quot;origPos&quot;:null}" fill="#776d5b" stroke="none" stroke-width="1" stroke-linecap="butt"/><path d="M228.94729,82.01071c-0.80736,0 -1.53513,-0.20658 -2.18329,-0.61974c-0.64816,-0.41316 -1.15798,-0.97414 -1.52944,-1.68295c-0.37146,-0.7126 -0.55719,-1.51428 -0.55719,-2.40503v-11.56463c0,-0.3563 0.11371,-0.64816 0.34114,-0.87559c0.22743,-0.22743 0.51739,-0.34114 0.86991,-0.34114c0.3563,0 0.64816,0.11371 0.87559,0.34114c0.22743,0.22743 0.34114,0.51929 0.34114,0.87559v11.56463c0,0.64816 0.17626,1.1902 0.52877,1.6261c0.3563,0.4359 0.7941,0.65385 1.31339,0.65385h0.82442c0.29186,0 0.53824,0.11371 0.73914,0.34114c0.20089,0.22743 0.30134,0.51929 0.30134,0.87559c0,0.3563 -0.13267,0.64816 -0.398,0.87559c-0.26533,0.22364 -0.60837,0.33545 -1.0291,0.33545zM223.56297,71.31599c-0.34114,0 -0.61784,-0.09666 -0.83011,-0.28997c-0.20847,-0.1971 -0.31271,-0.43969 -0.31271,-0.72776c0,-0.32598 0.10424,-0.58562 0.31271,-0.77894c0.21227,-0.19331 0.48897,-0.28997 0.83011,-0.28997h5.60037c0.34114,0 0.61595,0.09666 0.82442,0.28997c0.21227,0.19331 0.3184,0.45296 0.3184,0.77894c0,0.28807 -0.10613,0.53066 -0.3184,0.72776c-0.20847,0.19331 -0.48328,0.28997 -0.82442,0.28997zM245.05287,82.03345c-0.3563,0 -0.65195,-0.11561 -0.88696,-0.34683c-0.23501,-0.23501 -0.35251,-0.53066 -0.35251,-0.88696v-5.96994c0,-0.92108 -0.17057,-1.67158 -0.51171,-2.25152c-0.33735,-0.58373 -0.7941,-1.01584 -1.37024,-1.29633c-0.57236,-0.28428 -1.23,-0.42642 -1.97292,-0.42642c-0.67849,0 -1.29254,0.13835 -1.84215,0.41505c-0.54961,0.27291 -0.98741,0.64058 -1.31339,1.10302c-0.32219,0.45864 -0.48328,0.98741 -0.48328,1.5863h-1.52944c0,-1.01963 0.24638,-1.92933 0.73914,-2.72912c0.49655,-0.79978 1.17314,-1.43468 2.02978,-1.9047c0.85664,-0.47001 1.81751,-0.70502 2.88263,-0.70502c1.11818,0 2.11696,0.2388 2.99634,0.71639c0.88317,0.4776 1.57872,1.17693 2.08664,2.09801c0.50792,0.92108 0.76188,2.05252 0.76188,3.39434v5.96994c0,0.3563 -0.1175,0.65195 -0.35251,0.88696c-0.23122,0.23122 -0.52498,0.34683 -0.88128,0.34683zM235.08591,82.03345c-0.3563,0 -0.65195,-0.11561 -0.88696,-0.34683c-0.23501,-0.23501 -0.35251,-0.53066 -0.35251,-0.88696v-10.81981c0,-0.37146 0.1175,-0.67091 0.35251,-0.89833c0.23501,-0.22743 0.53066,-0.34114 0.88696,-0.34114c0.37146,0 0.66901,0.11371 0.89265,0.34114c0.22743,0.22743 0.34114,0.52687 0.34114,0.89833v10.81981c0,0.3563 -0.11371,0.65195 -0.34114,0.88696c-0.22364,0.23122 -0.52118,0.34683 -0.89265,0.34683zM235.08591,77.18359c-0.3563,0 -0.65195,-0.1175 -0.88696,-0.35251c-0.23501,-0.23501 -0.35251,-0.53066 -0.35251,-0.88696v-11.63854c0,-0.37146 0.1175,-0.67091 0.35251,-0.89833c0.23501,-0.22743 0.53066,-0.34114 0.88696,-0.34114c0.37146,0 0.66901,0.11371 0.89265,0.34114c0.22743,0.22743 0.34114,0.52687 0.34114,0.89833v11.63854c0,0.3563 -0.11371,0.65195 -0.34114,0.88696c-0.22364,0.23501 -0.52118,0.35251 -0.89265,0.35251zM251.60094,73.71534c0,-0.97035 0.2388,-1.83836 0.71639,-2.60403c0.4776,-0.76946 1.12007,-1.37972 1.92744,-1.83078c0.80736,-0.45485 1.69622,-0.68228 2.66657,-0.68228c0.97035,0 1.69433,0.1573 2.17192,0.47191c0.4776,0.31461 0.65954,0.68986 0.54582,1.12576c-0.04928,0.22743 -0.14214,0.40179 -0.2786,0.52308c-0.13646,0.12129 -0.29376,0.199 -0.47191,0.23311c-0.17815,0.03032 -0.37336,0.02085 -0.58562,-0.02843c-1.03479,-0.20847 -1.96534,-0.22364 -2.79166,-0.04549c-0.82252,0.17815 -1.47259,0.50981 -1.95018,0.99499c-0.47381,0.48518 -0.71071,1.09923 -0.71071,1.84215zM251.62369,82.01071c-0.38662,0 -0.68607,-0.10045 -0.89833,-0.30134c-0.20847,-0.20468 -0.31271,-0.50792 -0.31271,-0.90971v-10.84255c0,-0.39041 0.10424,-0.68986 0.31271,-0.89833c0.21227,-0.21227 0.51171,-0.3184 0.89833,-0.3184c0.40558,0 0.70881,0.10234 0.90971,0.30703c0.20468,0.20089 0.30703,0.50413 0.30703,0.90971v10.84255c0,0.38662 -0.10234,0.68607 -0.30703,0.89833c-0.20089,0.20847 -0.50413,0.31271 -0.90971,0.31271zM267.24566,82.10737c-1.31149,0 -2.46947,-0.28618 -3.47394,-0.85853c-1.00068,-0.57615 -1.78909,-1.36835 -2.36523,-2.3766c-0.57236,-1.01205 -0.85853,-2.17382 -0.85853,-3.48531c0,-1.32286 0.28618,-2.49032 0.85853,-3.50236c0.57615,-1.01205 1.36456,-1.80425 2.36523,-2.3766c1.00447,-0.57615 2.16245,-0.86422 3.47394,-0.86422c1.29254,0 2.43915,0.28807 3.43982,0.86422c1.00447,0.57236 1.79288,1.36456 2.36523,2.3766c0.57615,1.01205 0.86422,2.1795 0.86422,3.50236c0,1.31149 -0.28428,2.47326 -0.85285,3.48531c-0.56478,1.00826 -1.3494,1.80046 -2.35386,2.3766c-1.00068,0.57236 -2.15486,0.85853 -3.46257,0.85853zM267.24566,79.92407c0.84148,0 1.5844,-0.19331 2.22878,-0.57994c0.64816,-0.39041 1.15419,-0.92487 1.51807,-1.60336c0.36388,-0.67849 0.54582,-1.46311 0.54582,-2.35386c0,-0.88696 -0.18194,-1.67348 -0.54582,-2.35955c-0.36388,-0.68986 -0.86991,-1.2281 -1.51807,-1.61473c-0.64438,-0.39041 -1.3873,-0.58562 -2.22878,-0.58562c-0.84148,0 -1.5863,0.19521 -2.23446,0.58562c-0.64438,0.38662 -1.15229,0.92487 -1.52376,1.61473c-0.37146,0.68607 -0.55719,1.47259 -0.55719,2.35955c0,0.89075 0.18573,1.67537 0.55719,2.35386c0.37146,0.67849 0.87938,1.21294 1.52376,1.60336c0.64816,0.38662 1.39299,0.57994 2.23446,0.57994zM283.18003,82.13011c-1.11439,0 -2.11317,-0.2369 -2.99634,-0.71071c-0.87938,-0.4776 -1.57493,-1.17693 -2.08664,-2.09801c-0.50792,-0.92487 -0.76188,-2.05821 -0.76188,-3.40002v-5.96425c0,-0.3563 0.1175,-0.65195 0.35251,-0.88696c0.23501,-0.23501 0.53066,-0.35251 0.88696,-0.35251c0.35251,0 0.64627,0.1175 0.88128,0.35251c0.23501,0.23501 0.35251,0.53066 0.35251,0.88696v5.96425c0,0.90592 0.16867,1.65453 0.50602,2.24583c0.34114,0.59131 0.80168,1.0291 1.38161,1.31339c0.58373,0.28049 1.23947,0.42074 1.96724,0.42074c0.69744,0 1.31718,-0.13646 1.85921,-0.40937c0.54203,-0.2767 0.97414,-0.65006 1.29633,-1.12007c0.32219,-0.47001 0.48328,-0.99499 0.48328,-1.57493h1.52944c0,1.00068 -0.24638,1.90659 -0.73914,2.71774c-0.49276,0.80736 -1.16366,1.44605 -2.01272,1.91607c-0.84906,0.46622 -1.81562,0.69934 -2.89969,0.69934zM288.5416,82.01071c-0.3563,0 -0.65195,-0.1175 -0.88696,-0.35251c-0.23501,-0.23501 -0.35251,-0.53066 -0.35251,-0.88696v-10.81412c0,-0.37146 0.1175,-0.67091 0.35251,-0.89833c0.23501,-0.22743 0.53066,-0.34114 0.88696,-0.34114c0.37146,0 0.66901,0.11371 0.89265,0.34114c0.22743,0.22743 0.34114,0.52687 0.34114,0.89833v10.81412c0,0.3563 -0.11371,0.65195 -0.34114,0.88696c-0.22364,0.23501 -0.52118,0.35251 -0.89265,0.35251zM299.67648,82.10737c-1.21294,0 -2.28563,-0.28618 -3.21808,-0.85853c-0.92866,-0.57615 -1.66021,-1.36835 -2.19466,-2.3766c-0.53445,-1.01205 -0.80168,-2.17382 -0.80168,-3.48531c0,-1.32286 0.28618,-2.49032 0.85853,-3.50236c0.57615,-1.01205 1.36456,-1.80425 2.36523,-2.3766c1.00447,-0.57615 2.16245,-0.86422 3.47394,-0.86422c1.29254,0 2.43915,0.28807 3.43982,0.86422c1.00447,0.57236 1.79288,1.36456 2.36523,2.3766c0.57615,1.01205 0.86422,2.1795 0.86422,3.50236h-1.43279c0,1.31149 -0.24638,2.47326 -0.73914,3.48531c-0.49276,1.00826 -1.16746,1.80046 -2.02409,2.3766c-0.85664,0.57236 -1.84215,0.85853 -2.95654,0.85853zM300.10859,87.51443c-1.1485,0 -2.22309,-0.22743 -3.22377,-0.68228c-1.00068,-0.45106 -1.84973,-1.11249 -2.54717,-1.98429c-0.20847,-0.27291 -0.28618,-0.5553 -0.23311,-0.84716c0.05686,-0.29186 0.21605,-0.52687 0.4776,-0.70502c0.29186,-0.19331 0.5951,-0.25775 0.90971,-0.19331c0.31461,0.06444 0.56857,0.22553 0.76188,0.48328c0.4359,0.54961 0.98551,0.97793 1.64884,1.28496c0.66333,0.30703 1.41573,0.46054 2.25721,0.46054c0.77704,0 1.49154,-0.18573 2.14349,-0.55719c0.65575,-0.37146 1.17693,-0.92108 1.56356,-1.64884c0.39041,-0.72776 0.58562,-1.61662 0.58562,-2.66657v-3.44551l0.80168,-2.13212l1.57493,0.50602v5.24218c0,1.27738 -0.28428,2.43725 -0.85285,3.47962c-0.56478,1.04237 -1.35319,1.87058 -2.36523,2.48463c-1.00826,0.61405 -2.17571,0.92108 -3.50236,0.92108zM300.15977,79.92407c0.84148,0 1.5844,-0.19331 2.22878,-0.57994c0.64816,-0.39041 1.15419,-0.92487 1.51807,-1.60336c0.36388,-0.67849 0.54582,-1.46311 0.54582,-2.35386c0,-0.88696 -0.18194,-1.67348 -0.54582,-2.35955c-0.36388,-0.68986 -0.86991,-1.2281 -1.51807,-1.61473c-0.64438,-0.39041 -1.3873,-0.58562 -2.22878,-0.58562c-0.84148,0 -1.5863,0.19521 -2.23446,0.58562c-0.64438,0.38662 -1.15229,0.92487 -1.52376,1.61473c-0.37146,0.68607 -0.55719,1.47259 -0.55719,2.35955c0,0.89075 0.18573,1.67537 0.55719,2.35386c0.37146,0.67849 0.87938,1.21294 1.52376,1.60336c0.64816,0.38662 1.39299,0.57994 2.23446,0.57994zM321.72292,82.03345c-0.3563,0 -0.65195,-0.11561 -0.88696,-0.34683c-0.23501,-0.23501 -0.35251,-0.53066 -0.35251,-0.88696v-5.96994c0,-0.92108 -0.17057,-1.67158 -0.51171,-2.25152c-0.33735,-0.58373 -0.7941,-1.01584 -1.37024,-1.29633c-0.57236,-0.28428 -1.23,-0.42642 -1.97292,-0.42642c-0.67849,0 -1.29254,0.13835 -1.84215,0.41505c-0.54961,0.27291 -0.98741,0.64058 -1.31339,1.10302c-0.32219,0.45864 -0.48328,0.98741 -0.48328,1.5863h-1.52943c0,-1.01963 0.24638,-1.92933 0.73914,-2.72912c0.49654,-0.79978 1.17313,-1.43468 2.02977,-1.9047c0.85664,-0.47001 1.81751,-0.70502 2.88263,-0.70502c1.11818,0 2.11696,0.2388 2.99634,0.71639c0.88317,0.4776 1.57872,1.17693 2.08664,2.09801c0.50792,0.92108 0.76188,2.05252 0.76188,3.39434v5.96994c0,0.3563 -0.1175,0.65195 -0.35251,0.88696c-0.23122,0.23122 -0.52498,0.34683 -0.88128,0.34683zM311.75597,82.03345c-0.3563,0 -0.65195,-0.11561 -0.88696,-0.34683c-0.23501,-0.23501 -0.35251,-0.53066 -0.35251,-0.88696v-10.81981c0,-0.37146 0.1175,-0.67091 0.35251,-0.89833c0.23501,-0.22743 0.53066,-0.34114 0.88696,-0.34114c0.37146,0 0.66901,0.11371 0.89264,0.34114c0.22743,0.22743 0.34114,0.52687 0.34114,0.89833v10.81981c0,0.3563 -0.11371,0.65195 -0.34114,0.88696c-0.22363,0.23122 -0.52117,0.34683 -0.89264,0.34683zM311.75597,77.18359c-0.3563,0 -0.65195,-0.1175 -0.88696,-0.35251c-0.23501,-0.23501 -0.35251,-0.53066 -0.35251,-0.88696v-11.63854c0,-0.37146 0.1175,-0.67091 0.35251,-0.89833c0.23501,-0.22743 0.53066,-0.34114 0.88696,-0.34114c0.37146,0 0.66901,0.11371 0.89264,0.34114c0.22743,0.22743 0.34114,0.52687 0.34114,0.89833v11.63854c0,0.3563 -0.11371,0.65195 -0.34114,0.88696c-0.22363,0.23501 -0.52117,0.35251 -0.89264,0.35251zM339.01656,82.01071c-0.80736,0 -1.53513,-0.20658 -2.18329,-0.61974c-0.64816,-0.41316 -1.15798,-0.97414 -1.52944,-1.68295c-0.37146,-0.7126 -0.55719,-1.51428 -0.55719,-2.40503v-11.56463c0,-0.3563 0.11371,-0.64816 0.34114,-0.87559c0.22743,-0.22743 0.51739,-0.34114 0.86991,-0.34114c0.3563,0 0.64816,0.11371 0.87559,0.34114c0.22743,0.22743 0.34114,0.51929 0.34114,0.87559v11.56463c0,0.64816 0.17626,1.1902 0.52877,1.6261c0.3563,0.4359 0.7941,0.65385 1.31339,0.65385h0.82442c0.29186,0 0.53824,0.11371 0.73914,0.34114c0.20089,0.22743 0.30134,0.51929 0.30134,0.87559c0,0.3563 -0.13267,0.64816 -0.398,0.87559c-0.26533,0.22364 -0.60837,0.33545 -1.0291,0.33545zM333.63224,71.31599c-0.34114,0 -0.61784,-0.09666 -0.83011,-0.28997c-0.20847,-0.1971 -0.31271,-0.43969 -0.31271,-0.72776c0,-0.32598 0.10424,-0.58562 0.31271,-0.77894c0.21227,-0.19331 0.48897,-0.28997 0.83011,-0.28997h5.60037c0.34114,0 0.61595,0.09666 0.82442,0.28997c0.21227,0.19331 0.3184,0.45296 0.3184,0.77894c0,0.28807 -0.10613,0.53066 -0.3184,0.72776c-0.20847,0.19331 -0.48328,0.28997 -0.82442,0.28997zM355.12214,82.03345c-0.3563,0 -0.65195,-0.11561 -0.88696,-0.34683c-0.23501,-0.23501 -0.35251,-0.53066 -0.35251,-0.88696v-5.96994c0,-0.92108 -0.17057,-1.67158 -0.51171,-2.25152c-0.33735,-0.58373 -0.7941,-1.01584 -1.37024,-1.29633c-0.57236,-0.28428 -1.23,-0.42642 -1.97292,-0.42642c-0.67849,0 -1.29254,0.13835 -1.84215,0.41505c-0.54961,0.27291 -0.98741,0.64058 -1.31339,1.10302c-0.32219,0.45864 -0.48328,0.98741 -0.48328,1.5863h-1.52944c0,-1.01963 0.24638,-1.92933 0.73914,-2.72912c0.49655,-0.79978 1.17314,-1.43468 2.02978,-1.9047c0.85664,-0.47001 1.81751,-0.70502 2.88263,-0.70502c1.11818,0 2.11696,0.2388 2.99634,0.71639c0.88317,0.4776 1.57872,1.17693 2.08664,2.09801c0.50792,0.92108 0.76188,2.05252 0.76188,3.39434v5.96994c0,0.3563 -0.1175,0.65195 -0.35251,0.88696c-0.23122,0.23122 -0.52498,0.34683 -0.88128,0.34683zM345.15518,82.03345c-0.3563,0 -0.65195,-0.11561 -0.88696,-0.34683c-0.23501,-0.23501 -0.35251,-0.53066 -0.35251,-0.88696v-10.81981c0,-0.37146 0.1175,-0.67091 0.35251,-0.89833c0.23501,-0.22743 0.53066,-0.34114 0.88696,-0.34114c0.37146,0 0.66901,0.11371 0.89265,0.34114c0.22743,0.22743 0.34114,0.52687 0.34114,0.89833v10.81981c0,0.3563 -0.11371,0.65195 -0.34114,0.88696c-0.22364,0.23122 -0.52118,0.34683 -0.89265,0.34683zM345.15518,77.18359c-0.3563,0 -0.65195,-0.1175 -0.88696,-0.35251c-0.23501,-0.23501 -0.35251,-0.53066 -0.35251,-0.88696v-11.63854c0,-0.37146 0.1175,-0.67091 0.35251,-0.89833c0.23501,-0.22743 0.53066,-0.34114 0.88696,-0.34114c0.37146,0 0.66901,0.11371 0.89265,0.34114c0.22743,0.22743 0.34114,0.52687 0.34114,0.89833v11.63854c0,0.3563 -0.11371,0.65195 -0.34114,0.88696c-0.22364,0.23501 -0.52118,0.35251 -0.89265,0.35251zM361.96018,82.01071c-0.3563,0 -0.65195,-0.1175 -0.88696,-0.35251c-0.23122,-0.23501 -0.34683,-0.53066 -0.34683,-0.88696v-10.79138c0,-0.37146 0.11561,-0.67091 0.34683,-0.89833c0.23501,-0.22743 0.53066,-0.34114 0.88696,-0.34114c0.37146,0 0.67091,0.11371 0.89833,0.34114c0.22743,0.22743 0.34114,0.52687 0.34114,0.89833v10.79138c0,0.3563 -0.11371,0.65195 -0.34114,0.88696c-0.22743,0.23501 -0.52687,0.35251 -0.89833,0.35251zM361.81804,66.58552c-0.43969,0 -0.81684,-0.1573 -1.13145,-0.47191c-0.31461,-0.3184 -0.47191,-0.69555 -0.47191,-1.13145c0,-0.4359 0.1573,-0.81115 0.47191,-1.12576c0.31461,-0.31461 0.69175,-0.47191 1.13145,-0.47191c0.4359,0 0.81115,0.1573 1.12576,0.47191c0.31461,0.31461 0.47191,0.68986 0.47191,1.12576c0,0.4359 -0.1573,0.81305 -0.47191,1.13145c-0.31461,0.31461 -0.68986,0.47191 -1.12576,0.47191zM372.63407,82.10737c-1.13334,0 -2.1814,-0.17247 -3.14417,-0.51739c-0.95898,-0.34872 -1.7057,-0.79031 -2.24015,-1.32476c-0.24259,-0.25775 -0.34493,-0.55151 -0.30703,-0.88128c0.0417,-0.33356 0.20089,-0.60647 0.4776,-0.81873c0.32219,-0.25775 0.64058,-0.36578 0.95519,-0.32408c0.31461,0.0379 0.58562,0.17815 0.81305,0.42074c0.2767,0.30703 0.71829,0.5951 1.32476,0.86422c0.60647,0.26533 1.28117,0.398 2.02409,0.398c0.93624,0 1.65074,-0.15351 2.14349,-0.46054c0.49276,-0.30703 0.74861,-0.70313 0.76756,-1.1883c0.01516,-0.48518 -0.21605,-0.90592 -0.69365,-1.26222c-0.4776,-0.3563 -1.3456,-0.64627 -2.60403,-0.86991c-1.63368,-0.32598 -2.82009,-0.81115 -3.55922,-1.45553c-0.73535,-0.64816 -1.10302,-1.44037 -1.10302,-2.3766c0,-0.82632 0.24259,-1.51049 0.72776,-2.05252c0.48518,-0.54203 1.10681,-0.94571 1.8649,-1.21104c0.76188,-0.26912 1.55597,-0.40368 2.38229,-0.40368c1.0689,0 2.01462,0.17057 2.83714,0.51171c0.82632,0.34114 1.48206,0.80926 1.96724,1.40436c0.22364,0.26154 0.32787,0.53445 0.31271,0.81873c-0.01516,0.28049 -0.15162,0.51739 -0.40937,0.71071c-0.26154,0.17815 -0.57046,0.23501 -0.92676,0.17057c-0.35251,-0.06444 -0.65006,-0.21037 -0.89265,-0.4378c-0.40558,-0.38662 -0.84337,-0.65195 -1.31339,-0.79599c-0.46622,-0.14783 -1.00826,-0.22174 -1.6261,-0.22174c-0.70881,0 -1.3096,0.12129 -1.80235,0.36388c-0.49276,0.24259 -0.73914,0.59889 -0.73914,1.0689c0,0.29186 0.07581,0.5553 0.22743,0.79031c0.15541,0.23122 0.45864,0.43969 0.90971,0.62542c0.45485,0.18573 1.11818,0.36767 1.98998,0.54582c1.21294,0.24259 2.17003,0.55151 2.87126,0.92676c0.70502,0.37146 1.21104,0.80357 1.51807,1.29633c0.30703,0.49276 0.46054,1.06132 0.46054,1.7057c0,0.74672 -0.199,1.41952 -0.59699,2.01841c-0.39421,0.5951 -0.97604,1.0708 -1.7455,1.4271c-0.76567,0.3563 -1.72275,0.53445 -2.87126,0.53445zM392.91128,82.01071c-0.80736,0 -1.53513,-0.20658 -2.18329,-0.61974c-0.64816,-0.41316 -1.15798,-0.97414 -1.52944,-1.68295c-0.37146,-0.7126 -0.55719,-1.51428 -0.55719,-2.40503v-11.56463c0,-0.3563 0.11371,-0.64816 0.34114,-0.87559c0.22743,-0.22743 0.51739,-0.34114 0.86991,-0.34114c0.3563,0 0.64816,0.11371 0.87559,0.34114c0.22743,0.22743 0.34114,0.51929 0.34114,0.87559v11.56463c0,0.64816 0.17626,1.1902 0.52877,1.6261c0.3563,0.4359 0.7941,0.65385 1.31339,0.65385h0.82442c0.29186,0 0.53824,0.11371 0.73914,0.34114c0.20089,0.22743 0.30134,0.51929 0.30134,0.87559c0,0.3563 -0.13267,0.64816 -0.398,0.87559c-0.26533,0.22364 -0.60837,0.33545 -1.0291,0.33545zM387.52696,71.31599c-0.34114,0 -0.61784,-0.09666 -0.83011,-0.28997c-0.20847,-0.1971 -0.31271,-0.43969 -0.31271,-0.72776c0,-0.32598 0.10424,-0.58562 0.31271,-0.77894c0.21227,-0.19331 0.48897,-0.28997 0.83011,-0.28997h5.60037c0.34114,0 0.61595,0.09666 0.82442,0.28997c0.21227,0.19331 0.3184,0.45296 0.3184,0.77894c0,0.28807 -0.10613,0.53066 -0.3184,0.72776c-0.20847,0.19331 -0.48328,0.28997 -0.82442,0.28997zM400.18703,87.83282c-0.16299,0 -0.3563,-0.04928 -0.57994,-0.14783c-0.7126,-0.32219 -0.90781,-0.832 -0.58562,-1.52944l7.39704,-16.71015c0.32598,-0.67849 0.83579,-0.8718 1.52944,-0.57994c0.72776,0.30703 0.93055,0.81684 0.60837,1.52944l-7.42547,16.6874c-0.19331,0.50034 -0.50792,0.75051 -0.94382,0.75051zM403.04692,81.47626c-0.30703,0.12887 -0.5932,0.14214 -0.85853,0.0398c-0.26533,-0.10613 -0.47949,-0.31271 -0.64248,-0.61974l-5.55489,-10.55258c-0.16299,-0.30703 -0.18384,-0.60078 -0.06254,-0.88128c0.12129,-0.28428 0.33545,-0.49086 0.64248,-0.61974c0.30703,-0.13267 0.59699,-0.14593 0.86991,-0.0398c0.2767,0.10613 0.48897,0.31271 0.63679,0.61974l5.3104,10.55258c0.16299,0.30703 0.22364,0.60268 0.18194,0.88696c-0.0417,0.28049 -0.21605,0.48518 -0.52308,0.61405zM412.12338,87.685c-0.3563,0 -0.65195,-0.1175 -0.88696,-0.35251c-0.23501,-0.23122 -0.35251,-0.52498 -0.35251,-0.88128v-11.06429c0.01516,-1.27738 0.31271,-2.42399 0.89265,-3.43982c0.58373,-1.01963 1.37593,-1.8251 2.3766,-2.4164c1.00447,-0.59131 2.13781,-0.88696 3.40002,-0.88696c1.27738,0 2.4164,0.29565 3.41708,0.88696c1.00447,0.59131 1.80235,1.39678 2.39366,2.4164c0.59131,1.01584 0.88696,2.16245 0.88696,3.43982c0,1.27738 -0.27102,2.42209 -0.81305,3.43414c-0.54203,1.01205 -1.28306,1.81372 -2.22309,2.40503c-0.93624,0.58752 -1.99567,0.88128 -3.17828,0.88128c-0.9514,0 -1.82889,-0.1971 -2.63246,-0.59131c-0.79978,-0.398 -1.48206,-0.93624 -2.04684,-1.61473v6.54988c0,0.3563 -0.11371,0.65006 -0.34114,0.88128c-0.22364,0.23501 -0.52118,0.35251 -0.89265,0.35251zM417.55318,79.92407c0.82632,0 1.56166,-0.1971 2.20603,-0.59131c0.64816,-0.398 1.16177,-0.94003 1.54081,-1.6261c0.37904,-0.68986 0.56857,-1.46311 0.56857,-2.31975c0,-0.8718 -0.18952,-1.65074 -0.56857,-2.33681c-0.37904,-0.68986 -0.89265,-1.23189 -1.54081,-1.6261c-0.64438,-0.398 -1.37972,-0.59699 -2.20603,-0.59699c-0.80736,0 -1.53892,0.199 -2.19466,0.59699c-0.65575,0.39421 -1.16935,0.93624 -1.54081,1.6261c-0.37146,0.68607 -0.55719,1.465 -0.55719,2.33681c0,0.85664 0.18573,1.62989 0.55719,2.31975c0.37146,0.68607 0.88507,1.2281 1.54081,1.6261c0.65575,0.39421 1.3873,0.59131 2.19466,0.59131zM434.16669,82.10737c-1.34182,0 -2.53391,-0.28618 -3.57628,-0.85853c-1.04237,-0.57615 -1.85921,-1.36835 -2.45052,-2.3766c-0.59131,-1.01205 -0.88696,-2.17382 -0.88696,-3.48531c0,-1.32286 0.2786,-2.49032 0.83579,-3.50236c0.56098,-1.01205 1.33423,-1.80425 2.31975,-2.3766c0.98551,-0.57615 2.11696,-0.86422 3.39434,-0.86422c1.26222,0 2.34628,0.28049 3.2522,0.84148c0.90592,0.55719 1.59767,1.32476 2.07526,2.30269c0.4776,0.97793 0.71639,2.10559 0.71639,3.38297c0,0.30703 -0.10613,0.56288 -0.3184,0.76756c-0.20847,0.20089 -0.4757,0.30134 -0.80168,0.30134h-9.77364v-1.94449h9.70542l-0.99499,0.68228c-0.01895,-0.80736 -0.18194,-1.52944 -0.48897,-2.16624c-0.30703,-0.64058 -0.74293,-1.14661 -1.3077,-1.51807c-0.56478,-0.37525 -1.25274,-0.56288 -2.06389,-0.56288c-0.92108,0 -1.70949,0.20279 -2.36523,0.60837c-0.65195,0.40558 -1.1485,0.96088 -1.48964,1.6659c-0.34114,0.70123 -0.51171,1.49533 -0.51171,2.38229c0,0.89075 0.20279,1.68485 0.60837,2.38229c0.40558,0.69365 0.96277,1.24326 1.67158,1.64884c0.7126,0.40179 1.52944,0.60268 2.45052,0.60268c0.50413,0 1.01773,-0.09287 1.54081,-0.2786c0.52687,-0.18573 0.9514,-0.39989 1.27359,-0.64248c0.24259,-0.17815 0.50413,-0.27102 0.78462,-0.2786c0.28428,-0.00758 0.53256,0.0777 0.74482,0.25585c0.27291,0.24259 0.41695,0.50981 0.43211,0.80168c0.01895,0.28807 -0.10992,0.53824 -0.38662,0.75051c-0.54961,0.4359 -1.23189,0.7922 -2.04684,1.0689c-0.81494,0.27291 -1.59577,0.40937 -2.34249,0.40937zM456.11975,82.10737c-1.31149,0 -2.46947,-0.28618 -3.47394,-0.85853c-1.00068,-0.57615 -1.78909,-1.36835 -2.36523,-2.3766c-0.57236,-1.01205 -0.85853,-2.17382 -0.85853,-3.48531c0,-1.32286 0.28618,-2.49032 0.85853,-3.50236c0.57615,-1.01205 1.36456,-1.80425 2.36523,-2.3766c1.00447,-0.57615 2.16245,-0.86422 3.47394,-0.86422c1.29254,0 2.43915,0.28807 3.43982,0.86422c1.00447,0.57236 1.79288,1.36456 2.36523,2.3766c0.57615,1.01205 0.86422,2.1795 0.86422,3.50236c0,1.31149 -0.28428,2.47326 -0.85285,3.48531c-0.56478,1.00826 -1.3494,1.80046 -2.35386,2.3766c-1.00068,0.57236 -2.15486,0.85853 -3.46257,0.85853zM456.11975,79.92407c0.84148,0 1.5844,-0.19331 2.22878,-0.57994c0.64816,-0.39041 1.15419,-0.92487 1.51807,-1.60336c0.36388,-0.67849 0.54582,-1.46311 0.54582,-2.35386c0,-0.88696 -0.18194,-1.67348 -0.54582,-2.35955c-0.36388,-0.68986 -0.86991,-1.2281 -1.51807,-1.61473c-0.64438,-0.39041 -1.3873,-0.58562 -2.22878,-0.58562c-0.84148,0 -1.5863,0.19521 -2.23446,0.58562c-0.64438,0.38662 -1.15229,0.92487 -1.52376,1.61473c-0.37146,0.68607 -0.55719,1.47259 -0.55719,2.35955c0,0.89075 0.18573,1.67537 0.55719,2.35386c0.37146,0.67849 0.87938,1.21294 1.52376,1.60336c0.64816,0.38662 1.39299,0.57994 2.23446,0.57994zM467.90927,82.01071c-0.30703,0 -0.58183,-0.11182 -0.82442,-0.33545c-0.24259,-0.22743 -0.36388,-0.52877 -0.36388,-0.90402v-11.95694c0,-1.16366 0.22932,-2.17382 0.68796,-3.03046c0.46243,-0.85664 1.10491,-1.52376 1.92744,-2.00135c0.82632,-0.4776 1.78151,-0.71639 2.86557,-0.71639c0.3563,0 0.65006,0.10613 0.88128,0.3184c0.23501,0.20847 0.35251,0.47381 0.35251,0.79599c0,0.31082 -0.1175,0.57615 -0.35251,0.79599c-0.23122,0.21605 -0.52498,0.32408 -0.88128,0.32408c-0.59889,0 -1.12576,0.13835 -1.58061,0.41505c-0.45106,0.27291 -0.80168,0.65195 -1.05185,1.13713c-0.25017,0.48518 -0.37525,1.05943 -0.37525,1.72275v12.19573c0,0.37525 -0.11371,0.67659 -0.34114,0.90402c-0.22743,0.22364 -0.54203,0.33545 -0.94382,0.33545zM465.67481,71.31599c-0.33735,0 -0.61216,-0.09666 -0.82442,-0.28997c-0.20847,-0.1971 -0.31271,-0.43969 -0.31271,-0.72776c0,-0.32598 0.10424,-0.58562 0.31271,-0.77894c0.21227,-0.19331 0.48707,-0.28997 0.82442,-0.28997h5.99268c0.33735,0 0.61026,0.09666 0.81873,0.28997c0.21227,0.19331 0.3184,0.45296 0.3184,0.77894c0,0.28807 -0.10613,0.53066 -0.3184,0.72776c-0.20847,0.19331 -0.48139,0.28997 -0.81873,0.28997z" data-paper-data="{&quot;origPos&quot;:null}" fill="#776d5b" stroke="#776d5b" stroke-width="1" stroke-linecap="square"/><path d="M299.41876,120.00725c-0.36096,0 -0.66049,-0.11904 -0.89857,-0.35712c-0.23808,-0.23424 -0.35712,-0.53185 -0.35712,-0.89281v-11.20912c0.01536,-1.2941 0.3168,-2.45571 0.90433,-3.48485c0.59137,-1.03298 1.39394,-1.84899 2.40771,-2.44803c1.01761,-0.59905 2.16579,-0.89857 3.44453,-0.89857c1.2941,0 2.44803,0.29952 3.46181,0.89857c1.01761,0.59905 1.82595,1.41506 2.42499,2.44803c0.59905,1.02913 0.89857,2.19075 0.89857,3.48485c0,1.2941 -0.27456,2.45379 -0.82369,3.47909c-0.54913,1.02529 -1.29986,1.83747 -2.25219,2.43651c-0.94849,0.59521 -2.02179,0.89281 -3.21988,0.89281c-0.96385,0 -1.85283,-0.19968 -2.66692,-0.59905c-0.81025,-0.40321 -1.50146,-0.94849 -2.07363,-1.63586v6.63561c0,0.36096 -0.1152,0.65857 -0.3456,0.89281c-0.22656,0.23808 -0.52801,0.35712 -0.90433,0.35712zM304.91963,112.14474c0.83713,0 1.5821,-0.19968 2.23491,-0.59905c0.65665,-0.40321 1.17698,-0.95233 1.56098,-1.64738c0.384,-0.69889 0.57601,-1.48226 0.57601,-2.35011c0,-0.88321 -0.192,-1.67234 -0.57601,-2.36739c-0.384,-0.69889 -0.90433,-1.24802 -1.56098,-1.64738c-0.65281,-0.40321 -1.39778,-0.60481 -2.23491,-0.60481c-0.81793,0 -1.55906,0.2016 -2.22339,0.60481c-0.66433,0.39937 -1.18466,0.94849 -1.56098,1.64738c-0.37633,0.69505 -0.56449,1.48418 -0.56449,2.36739c0,0.86785 0.18816,1.65122 0.56449,2.35011c0.37633,0.69505 0.89665,1.24418 1.56098,1.64738c0.66433,0.39937 1.40546,0.59905 2.22339,0.59905zM318.6344,114.25869c-0.72193,0 -1.3613,-0.19584 -1.91811,-0.58753c-0.55681,-0.39552 -0.99073,-0.93313 -1.30178,-1.61282c-0.31104,-0.67969 -0.46657,-1.46114 -0.46657,-2.34435v-13.41523c0,-0.36096 0.11328,-0.65665 0.33984,-0.88705c0.2304,-0.2304 0.52609,-0.3456 0.88705,-0.3456c0.36096,0 0.65473,0.1152 0.88129,0.3456c0.2304,0.2304 0.3456,0.52609 0.3456,0.88705v13.41523c0,0.60673 0.1152,1.10594 0.3456,1.49762c0.2304,0.39169 0.52609,0.58753 0.88705,0.58753h0.61057c0.3264,0 0.59137,0.1152 0.79489,0.3456c0.20736,0.2304 0.31104,0.52609 0.31104,0.88705c0,0.36096 -0.15552,0.65665 -0.46657,0.88705c-0.31104,0.22656 -0.71233,0.33984 -1.20386,0.33984zM327.67659,114.35661c-1.1981,0 -2.27331,-0.2976 -3.22564,-0.89281c-0.94849,-0.59905 -1.6973,-1.41122 -2.24643,-2.43651c-0.54913,-1.02529 -0.82369,-2.18499 -0.82369,-3.47909c0,-1.2941 0.29952,-2.45571 0.89857,-3.48485c0.59905,-1.03298 1.4093,-1.84899 2.43075,-2.44803c1.02529,-0.59905 2.17731,-0.89857 3.45605,-0.89857c1.27874,0 2.42499,0.29952 3.43877,0.89857c1.01761,0.59905 1.82402,1.41506 2.41923,2.44803c0.59905,1.02913 0.89857,2.19075 0.89857,3.48485h-0.95617c0,1.2941 -0.27456,2.45379 -0.82369,3.47909c-0.54913,1.02529 -1.29986,1.83747 -2.25219,2.43651c-0.94849,0.59521 -2.01987,0.89281 -3.21412,0.89281zM328.16619,112.14474c0.83329,0 1.57826,-0.19968 2.23491,-0.59905c0.65665,-0.40321 1.17314,-0.95233 1.54946,-1.64738c0.37633,-0.69889 0.56449,-1.48226 0.56449,-2.35011c0,-0.88321 -0.18816,-1.67234 -0.56449,-2.36739c-0.37633,-0.69889 -0.89281,-1.24802 -1.54946,-1.64738c-0.65665,-0.40321 -1.40162,-0.60481 -2.23491,-0.60481c-0.81793,0 -1.55906,0.2016 -2.22339,0.60481c-0.66433,0.39937 -1.1885,0.94849 -1.5725,1.64738c-0.384,0.69505 -0.57601,1.48418 -0.57601,2.36739c0,0.86785 0.192,1.65122 0.57601,2.35011c0.384,0.69505 0.90817,1.24418 1.5725,1.64738c0.66433,0.39937 1.40546,0.59905 2.22339,0.59905zM333.66707,114.28173c-0.35712,0 -0.65473,-0.11712 -0.89281,-0.35136c-0.23808,-0.23808 -0.35712,-0.53761 -0.35712,-0.89857v-3.76133l0.46657,-2.60356l2.03907,0.88129v5.4836c0,0.36096 -0.11904,0.66049 -0.35712,0.89857c-0.23808,0.23424 -0.53761,0.35136 -0.89857,0.35136zM343.5488,114.25869c-0.81793,0 -1.55522,-0.20928 -2.21187,-0.62785c-0.65665,-0.41857 -1.17314,-0.98689 -1.54946,-1.70498c-0.37633,-0.72193 -0.56449,-1.5341 -0.56449,-2.43651v-11.716c0,-0.36096 0.1152,-0.65665 0.3456,-0.88705c0.2304,-0.2304 0.52417,-0.3456 0.88129,-0.3456c0.36096,0 0.65665,0.1152 0.88705,0.3456c0.2304,0.2304 0.3456,0.52609 0.3456,0.88705v11.716c0,0.65665 0.17856,1.20578 0.53569,1.64738c0.36096,0.44161 0.80449,0.66241 1.33058,0.66241h0.83521c0.29568,0 0.54529,0.1152 0.74881,0.3456c0.20352,0.2304 0.30528,0.52609 0.30528,0.88705c0,0.36096 -0.1344,0.65665 -0.40321,0.88705c-0.2688,0.22656 -0.61633,0.33984 -1.04257,0.33984zM338.09401,103.42398c-0.3456,0 -0.62593,-0.09792 -0.84097,-0.29376c-0.2112,-0.19968 -0.3168,-0.44545 -0.3168,-0.73729c0,-0.33025 0.1056,-0.59329 0.3168,-0.78913c0.21504,-0.19584 0.49537,-0.29376 0.84097,-0.29376h5.67368c0.3456,0 0.62401,0.09792 0.83521,0.29376c0.21504,0.19584 0.32256,0.45889 0.32256,0.78913c0,0.29184 -0.10752,0.53761 -0.32256,0.73729c-0.2112,0.19584 -0.48961,0.29376 -0.83521,0.29376zM349.96362,114.25869c-0.31104,0 -0.58945,-0.11328 -0.83521,-0.33984c-0.24576,-0.2304 -0.36865,-0.53569 -0.36865,-0.91585v-12.11345c0,-1.1789 0.23232,-2.20227 0.69697,-3.07012c0.46849,-0.86785 1.11938,-1.5437 1.95267,-2.02755c0.83713,-0.48385 1.80483,-0.72577 2.90308,-0.72577c0.36096,0 0.65857,0.10752 0.89281,0.32256c0.23808,0.2112 0.35712,0.48001 0.35712,0.80641c0,0.31488 -0.11904,0.58369 -0.35712,0.80641c-0.23424,0.21888 -0.53185,0.32832 -0.89281,0.32832c-0.60673,0 -1.1405,0.14016 -1.6013,0.42049c-0.45697,0.27648 -0.81217,0.66049 -1.06561,1.15202c-0.25344,0.49153 -0.38017,1.0733 -0.38017,1.7453v12.35537c0,0.38017 -0.1152,0.68545 -0.3456,0.91585c-0.2304,0.22656 -0.54913,0.33984 -0.95617,0.33984zM347.69991,103.42398c-0.34177,0 -0.62017,-0.09792 -0.83521,-0.29376c-0.2112,-0.19968 -0.3168,-0.44545 -0.3168,-0.73729c0,-0.33025 0.1056,-0.59329 0.3168,-0.78913c0.21504,-0.19584 0.49345,-0.29376 0.83521,-0.29376h6.07112c0.34177,0 0.61825,0.09792 0.82945,0.29376c0.21504,0.19584 0.32256,0.45889 0.32256,0.78913c0,0.29184 -0.10752,0.53761 -0.32256,0.73729c-0.2112,0.19584 -0.48769,0.29376 -0.82945,0.29376zM363.13284,114.35661c-1.32866,0 -2.5018,-0.28992 -3.51941,-0.86977c-1.01377,-0.58369 -1.8125,-1.38626 -2.39619,-2.40771c-0.57985,-1.02529 -0.86977,-2.20227 -0.86977,-3.53093c0,-1.34018 0.28992,-2.52292 0.86977,-3.54821c0.58369,-1.02529 1.38242,-1.82787 2.39619,-2.40771c1.01761,-0.58369 2.19075,-0.87553 3.51941,-0.87553c1.30946,0 2.47107,0.29184 3.48485,0.87553c1.01761,0.57985 1.81635,1.38242 2.39619,2.40771c0.58369,1.02529 0.87553,2.20803 0.87553,3.54821c0,1.32866 -0.288,2.50563 -0.86401,3.53093c-0.57217,1.02145 -1.36706,1.82402 -2.38467,2.40771c-1.01377,0.57985 -2.18307,0.86977 -3.50789,0.86977zM363.13284,112.14474c0.85249,0 1.60514,-0.19584 2.25795,-0.58753c0.65665,-0.39552 1.1693,-0.93697 1.53794,-1.62434c0.36865,-0.68737 0.55297,-1.48226 0.55297,-2.38467c0,-0.89857 -0.18432,-1.69538 -0.55297,-2.39043c-0.36865,-0.69889 -0.88129,-1.24418 -1.53794,-1.63586c-0.65281,-0.39552 -1.40546,-0.59329 -2.25795,-0.59329c-0.85249,0 -1.60706,0.19776 -2.26371,0.59329c-0.65281,0.39169 -1.16738,0.93697 -1.5437,1.63586c-0.37633,0.69505 -0.56449,1.49186 -0.56449,2.39043c0,0.90241 0.18816,1.6973 0.56449,2.38467c0.37633,0.68737 0.89089,1.22882 1.5437,1.62434c0.65665,0.39169 1.41122,0.58753 2.26371,0.58753zM374.829,105.85473c0,-0.98305 0.24192,-1.86243 0.72577,-2.63812c0.48385,-0.77953 1.13474,-1.39778 1.95267,-1.85475c0.81793,-0.46081 1.71842,-0.69121 2.70148,-0.69121c0.98305,0 1.7165,0.15936 2.20035,0.47809c0.48385,0.31873 0.66817,0.69889 0.55297,1.1405c-0.04992,0.2304 -0.144,0.40705 -0.28224,0.52993c-0.13824,0.12288 -0.2976,0.2016 -0.47809,0.23616c-0.18048,0.03072 -0.37824,0.02112 -0.59329,-0.0288c-1.04833,-0.2112 -1.99107,-0.22656 -2.8282,-0.04608c-0.83329,0.18048 -1.49186,0.51649 -1.97571,1.00801c-0.48001,0.49153 -0.72001,1.11362 -0.72001,1.86627zM374.85204,114.25869c-0.39169,0 -0.69505,-0.10176 -0.91009,-0.30528c-0.2112,-0.20736 -0.3168,-0.51457 -0.3168,-0.92161v-10.98447c0,-0.39552 0.1056,-0.69889 0.3168,-0.91009c0.21504,-0.21504 0.51841,-0.32256 0.91009,-0.32256c0.41089,0 0.71809,0.10368 0.92161,0.31104c0.20736,0.20352 0.31104,0.51073 0.31104,0.92161v10.98447c0,0.39169 -0.10368,0.69505 -0.31104,0.91009c-0.20352,0.2112 -0.51073,0.3168 -0.92161,0.3168zM403.21051,114.28173c-0.36096,0 -0.66049,-0.11712 -0.89857,-0.35136c-0.23808,-0.23808 -0.35712,-0.53761 -0.35712,-0.89857v-7.0273c0,-1.03298 -0.25344,-1.79907 -0.76033,-2.29827c-0.50689,-0.49921 -1.1693,-0.74881 -1.98723,-0.74881c-0.85249,0 -1.5533,0.29568 -2.10243,0.88705c-0.54913,0.58753 -0.82369,1.34018 -0.82369,2.25795h-2.03907c0,-1.06754 0.22848,-2.00643 0.68545,-2.81668c0.46081,-0.81025 1.10401,-1.44386 1.92963,-1.90083c0.82945,-0.46081 1.77603,-0.69121 2.83972,-0.69121c0.93313,0 1.75875,0.20544 2.47683,0.61633c0.72193,0.40705 1.28258,1.00801 1.68194,1.80291c0.40321,0.79489 0.60481,1.75875 0.60481,2.89156v7.0273c0,0.36096 -0.1152,0.66049 -0.3456,0.89857c-0.22656,0.23424 -0.52801,0.35136 -0.90433,0.35136zM386.8231,114.28173c-0.36096,0 -0.66049,-0.11712 -0.89857,-0.35136c-0.23808,-0.23808 -0.35712,-0.53761 -0.35712,-0.89857v-10.93839c0,-0.37633 0.11904,-0.67777 0.35712,-0.90433c0.23808,-0.2304 0.53761,-0.3456 0.89857,-0.3456c0.37633,0 0.67776,0.1152 0.90432,0.3456c0.2304,0.22656 0.3456,0.52801 0.3456,0.90433v10.93839c0,0.36096 -0.1152,0.66049 -0.3456,0.89857c-0.22656,0.23424 -0.52799,0.35136 -0.90432,0.35136zM395.02544,114.28173c-0.35712,0 -0.65473,-0.11712 -0.89281,-0.35136c-0.23808,-0.23808 -0.35712,-0.53761 -0.35712,-0.89857v-7.0273c0,-1.03298 -0.25536,-1.79907 -0.76609,-2.29827c-0.50689,-0.49921 -1.1693,-0.74881 -1.98723,-0.74881c-0.85249,0 -1.55714,0.29568 -2.11395,0.88705c-0.55681,0.58753 -0.83521,1.34018 -0.83521,2.25795h-1.54945c0,-1.06754 0.21312,-2.00643 0.63937,-2.81668c0.42624,-0.81025 1.01568,-1.44386 1.76833,-1.90083c0.75649,-0.46081 1.61666,-0.69121 2.58052,-0.69121c0.93313,0 1.76066,0.20544 2.48259,0.61633c0.72193,0.40705 1.28258,1.00801 1.68194,1.80291c0.40321,0.79489 0.60481,1.75875 0.60481,2.89156v7.0273c0,0.36096 -0.1152,0.66049 -0.3456,0.89857c-0.2304,0.23424 -0.53377,0.35136 -0.91009,0.35136z" data-paper-data="{&quot;origPos&quot;:null}" fill="#776d5b" stroke="#776d5b" stroke-width="1" stroke-linecap="square"/><path d="M344,54.80001l8,-21" data-paper-data="{&quot;origPos&quot;:null}" fill="none" stroke="#776d5b" stroke-width="1.5" stroke-linecap="round"/><path d="M371.29148,34.86145c0.76322,-0.03904 1.41226,0.18285 1.94711,0.66564c0.53484,0.48279 0.82199,1.1099 0.86145,1.88133c0.01427,0.27903 -0.00512,0.54332 -0.05818,0.79288c-0.06127,0.24998 -0.14084,0.46388 -0.23871,0.64168l-7.27402,12.22068c-0.5186,0.79997 -1.23338,1.22327 -2.14433,1.26986c-0.45137,0.02309 -0.87494,-0.05398 -1.27073,-0.23121c-0.39537,-0.16903 -0.72603,-0.44012 -0.99196,-0.81324l-8.48294,-11.41474c-0.30212,-0.4371 -0.46576,-0.90185 -0.49095,-1.39426c-0.03778,-0.7386 0.19251,-1.38395 0.69088,-1.93605c0.49837,-0.5521 1.11686,-0.84704 1.85546,-0.88481c0.86991,-0.0445 1.62247,0.27083 2.25767,0.94597l6.04534,8.15763l5.19379,-8.7325c0.48914,-0.73264 1.18917,-1.12227 2.10013,-1.16887z" data-paper-data="{&quot;origPos&quot;:null,&quot;origRot&quot;:0}" fill="#776d5b" stroke="none" stroke-width="1" stroke-linecap="butt"/></g></g></svg>