<svg version="1.1" xmlns="http://www.w3.org/2000/svg" xmlns:xlink="http://www.w3.org/1999/xlink" width="399.63575" height="433.88433"><g transform="translate(-17.34106,-151.32453)"><g data-paper-data="{&quot;isPaintingLayer&quot;:true}" fill="none" fill-rule="nonzero" stroke="none" stroke-width="0" stroke-linecap="butt" stroke-linejoin="miter" stroke-miterlimit="10" stroke-dasharray="" stroke-dashoffset="0" font-family="none" font-weight="none" font-size="none" text-anchor="none" style="mix-blend-mode: normal"><path d="M109.04195,565.15766l-4.89399,-25.38004l5.07601,-0.9788l4.894,25.38003z" data-paper-data="{&quot;origPos&quot;:null,&quot;origRot&quot;:0}" fill="#d3bb76"/><path d="M118.01156,563.13556l-4.894,-25.38004l5.07601,-0.9788l4.89399,25.38003z" data-paper-data="{&quot;origPos&quot;:null,&quot;origRot&quot;:0}" fill="#d3bb76"/><path d="M18.4286,545.04473l-1.08754,-5.63999l12.69001,-2.44701l1.08756,5.64001z" data-paper-data="{&quot;origPos&quot;:null,&quot;origRot&quot;:0}" fill="#d3bb76"/><path d="M243.73521,533.00887l-2.83489,-25.69165l5.13833,-0.56698l2.8349,25.69164z" data-paper-data="{&quot;origPos&quot;:null,&quot;origRot&quot;:0}" fill="#d3bb76"/><path d="M252.83849,531.71543l-2.8349,-25.69165l5.13833,-0.56698l2.83489,25.69164z" data-paper-data="{&quot;origPos&quot;:null,&quot;origRot&quot;:0}" fill="#d3bb76"/><g data-paper-data="{&quot;origPos&quot;:null,&quot;origRot&quot;:0}"><path d="M47.63485,289.22409l-7.21595,-135.93919l36.93118,-1.96037l7.21595,135.93919z" data-paper-data="{&quot;origPos&quot;:null,&quot;origRot&quot;:0}" fill="#d3bb76"/><path d="M44.2521,232.14254l-3.41768,-64.3847l37.2829,-1.97906l3.41768,64.38469z" data-paper-data="{&quot;origPos&quot;:null,&quot;origRot&quot;:0}" fill="#b9a568"/><path d="M38.3009,228.3889l-3.43671,-64.74318l47.89418,-2.54233l3.43671,64.7432z" data-paper-data="{&quot;origPos&quot;:null,&quot;origRot&quot;:0}" fill="#e7cd81"/><path d="M45.0881,218.09206l-2.51188,-47.32059l5.16225,-0.27403l2.51188,47.3206z" data-paper-data="{&quot;origPos&quot;:null,&quot;origRot&quot;:0}" fill="#b9a568"/><path d="M45.015,216.71542l-2.51189,-47.32058l5.16225,-0.27404l2.51187,47.32061z" data-paper-data="{&quot;origPos&quot;:null,&quot;origRot&quot;:0}" fill="#d3bb76"/><path d="M42.94283,174.42752l-0.2649,-4.99016l24.95085,-1.32445l0.2649,4.99017z" data-paper-data="{&quot;origPos&quot;:null,&quot;origRot&quot;:0}" fill="#d3bb76"/><path d="M64.55552,207.74048l-2.07345,-39.06101l5.16225,-0.27403l2.07344,39.06101z" data-paper-data="{&quot;origPos&quot;:null,&quot;origRot&quot;:0}" fill="#d3bb76"/><path d="M54.5843,208.4423l-1.44318,-27.18784l5.16225,-0.27404l1.44319,27.18785z" data-paper-data="{&quot;origPos&quot;:null,&quot;origRot&quot;:0}" fill="#d3bb76"/><path d="M54.75911,208.48477l-0.29229,-5.50639l14.79846,-0.78554l0.29228,5.50641z" data-paper-data="{&quot;origPos&quot;:null,&quot;origRot&quot;:0}" fill="#d3bb76"/><path d="M45.13648,219.004l-0.26491,-4.99016l33.89876,-1.79942l0.2649,4.99018z" data-paper-data="{&quot;origPos&quot;:null,&quot;origRot&quot;:0}" fill="#d3bb76"/><path d="M74.73061,217.38137l-2.6215,-49.3855l5.16225,-0.27404l2.62149,49.3855z" data-paper-data="{&quot;origPos&quot;:null,&quot;origRot&quot;:0}" fill="#d3bb76"/><path d="M47.21561,279.8442l-2.1267,-40.06391l36.70931,-1.94861l2.12668,40.06392z" data-paper-data="{&quot;origPos&quot;:null,&quot;origRot&quot;:0}" fill="#b9a568"/><path d="M41.27134,276.22186l-1.97288,-37.16667l47.89418,-2.54233l1.97288,37.16669z" data-paper-data="{&quot;origPos&quot;:null,&quot;origRot&quot;:0}" fill="#e7cd81"/><path d="M46.97099,269.81758l-1.37011,-25.81124l5.16226,-0.27403l1.37011,25.81124z" data-paper-data="{&quot;origPos&quot;:null,&quot;origRot&quot;:0}" fill="#d3bb76"/><path d="M77.06888,267.93228l-1.37011,-25.81124l5.16224,-0.27402l1.37011,25.81124z" data-paper-data="{&quot;origPos&quot;:null,&quot;origRot&quot;:0}" fill="#d3bb76"/><path d="M56.1331,269.04357l-1.37011,-25.81124l5.16225,-0.27403l1.3701,25.81125z" data-paper-data="{&quot;origPos&quot;:null,&quot;origRot&quot;:0}" fill="#d3bb76"/><path d="M68.17835,268.40422l-1.37011,-25.81124l5.16224,-0.27402l1.37011,25.81123z" data-paper-data="{&quot;origPos&quot;:null,&quot;origRot&quot;:0}" fill="#d3bb76"/><path d="M57.5081,268.75973l-0.30446,-5.73583l12.90563,-0.68506l0.30447,5.73582z" data-paper-data="{&quot;origPos&quot;:null,&quot;origRot&quot;:0}" fill="#d3bb76"/><path d="M57.31806,248.92544l-0.30446,-5.73582l12.9056,-0.68507l0.30448,5.73584z" data-paper-data="{&quot;origPos&quot;:null,&quot;origRot&quot;:0}" fill="#d3bb76"/><path d="M54.05118,412.86223l-6.55434,-130.98313l37.32815,1.01322l6.15738,128.00953z" data-paper-data="{&quot;origPos&quot;:null,&quot;origRot&quot;:0}" fill="#d3bb76"/><path d="M50.66843,355.78067l-3.41767,-64.3847l37.2829,-1.97905l3.41766,64.3847z" data-paper-data="{&quot;origPos&quot;:null,&quot;origRot&quot;:0}" fill="#b9a568"/><path d="M44.71722,352.02706l-3.43671,-64.74318l47.89418,-2.54233l3.43671,64.74319z" data-paper-data="{&quot;origPos&quot;:null,&quot;origRot&quot;:0}" fill="#e7cd81"/><path d="M41.35566,346.31011l-2.51188,-47.32059l5.16225,-0.27404l2.51187,47.3206z" data-paper-data="{&quot;origPos&quot;:null,&quot;origRot&quot;:0}" fill="#d3bb76"/><path d="M49.35918,298.06567l-0.26489,-4.99016l24.95085,-1.32446l0.2649,4.99017z" data-paper-data="{&quot;origPos&quot;:null,&quot;origRot&quot;:0}" fill="#d3bb76"/><path d="M70.97187,331.37862l-2.07345,-39.061l5.16224,-0.27403l2.07346,39.06101z" data-paper-data="{&quot;origPos&quot;:null,&quot;origRot&quot;:0}" fill="#d3bb76"/><path d="M61.00065,332.08044l-1.44319,-27.18782l5.16225,-0.27404l1.44319,27.18784z" data-paper-data="{&quot;origPos&quot;:null,&quot;origRot&quot;:0}" fill="#d3bb76"/><path d="M61.17542,332.12295l-0.29227,-5.5064l14.79845,-0.78553l0.29228,5.5064z" data-paper-data="{&quot;origPos&quot;:null,&quot;origRot&quot;:0}" fill="#d3bb76"/><path d="M51.55283,342.64218l-0.2649,-4.99017l33.89874,-1.79942l0.2649,4.99018z" data-paper-data="{&quot;origPos&quot;:null,&quot;origRot&quot;:0}" fill="#d3bb76"/><path d="M81.14698,341.01951l-2.6215,-49.3855l5.16224,-0.27402l2.62149,49.38549z" data-paper-data="{&quot;origPos&quot;:null,&quot;origRot&quot;:0}" fill="#d3bb76"/><path d="M47.85378,402.31294l-1.37011,-25.81124l5.16224,-0.27403l1.37011,25.81124z" data-paper-data="{&quot;origPos&quot;:null,&quot;origRot&quot;:0}" fill="#d3bb76"/></g><path d="M402.7352,585.20886l-2.83489,-25.69165l5.13833,-0.56698l2.8349,25.69164z" data-paper-data="{&quot;origPos&quot;:null,&quot;origRot&quot;:0}" fill="#d3bb76"/><path d="M411.83849,583.91542l-2.8349,-25.69165l5.13833,-0.56698l2.83489,25.69164z" data-paper-data="{&quot;origPos&quot;:null,&quot;origRot&quot;:0}" fill="#d3bb76"/><g data-paper-data="{&quot;origPos&quot;:null,&quot;origRot&quot;:0}"><path d="M54.27531,412.04878l-7.21596,-135.93919l36.93118,-1.96038l7.21595,135.93919z" data-paper-data="{&quot;origPos&quot;:null,&quot;origRot&quot;:0}" fill="#d3bb76"/><path d="M50.89255,354.96721l-3.41767,-64.3847l37.2829,-1.97906l3.41766,64.38469z" data-paper-data="{&quot;origPos&quot;:null,&quot;origRot&quot;:0}" fill="#b9a568"/><path d="M44.94135,351.2136l-3.43672,-64.74318l47.89419,-2.54233l3.43671,64.74319z" data-paper-data="{&quot;origPos&quot;:null,&quot;origRot&quot;:0}" fill="#e7cd81"/><path d="M51.72856,340.91674l-2.51189,-47.32059l5.16224,-0.27402l2.51189,47.3206z" data-paper-data="{&quot;origPos&quot;:null,&quot;origRot&quot;:0}" fill="#b9a568"/><path d="M51.65545,339.5401l-2.51188,-47.32059l5.16224,-0.27402l2.51187,47.3206z" data-paper-data="{&quot;origPos&quot;:null,&quot;origRot&quot;:0}" fill="#d3bb76"/><path d="M49.58328,297.25222l-0.2649,-4.99016l24.95086,-1.32445l0.2649,4.99017z" data-paper-data="{&quot;origPos&quot;:null,&quot;origRot&quot;:0}" fill="#d3bb76"/><path d="M71.19598,330.56517l-2.07344,-39.06101l5.16225,-0.27404l2.07345,39.06101z" data-paper-data="{&quot;origPos&quot;:null,&quot;origRot&quot;:0}" fill="#d3bb76"/><path d="M61.22477,331.26699l-1.44318,-27.18784l5.16226,-0.27403l1.44319,27.18784z" data-paper-data="{&quot;origPos&quot;:null,&quot;origRot&quot;:0}" fill="#d3bb76"/><path d="M61.39956,331.3095l-0.29229,-5.50639l14.79846,-0.78553l0.29229,5.50639z" data-paper-data="{&quot;origPos&quot;:null,&quot;origRot&quot;:0}" fill="#d3bb76"/><path d="M51.77695,341.82871l-0.2649,-4.99016l33.89874,-1.79942l0.2649,4.99017z" data-paper-data="{&quot;origPos&quot;:null,&quot;origRot&quot;:0}" fill="#d3bb76"/><path d="M81.37107,340.20604l-2.62151,-49.38549l5.16225,-0.27404l2.6215,49.3855z" data-paper-data="{&quot;origPos&quot;:null,&quot;origRot&quot;:0}" fill="#d3bb76"/><path d="M53.85605,402.66889l-2.12669,-40.06392l36.70931,-1.94861l2.12668,40.06392z" data-paper-data="{&quot;origPos&quot;:null,&quot;origRot&quot;:0}" fill="#b9a568"/><path d="M47.91178,399.04656l-1.97288,-37.16669l47.89419,-2.54233l1.97288,37.16669z" data-paper-data="{&quot;origPos&quot;:null,&quot;origRot&quot;:0}" fill="#e7cd81"/><path d="M53.61143,392.64225l-1.37011,-25.81123l5.16225,-0.27404l1.37011,25.81124z" data-paper-data="{&quot;origPos&quot;:null,&quot;origRot&quot;:0}" fill="#d3bb76"/><path d="M83.70934,390.75699l-1.37011,-25.81124l5.16224,-0.27402l1.37011,25.81124z" data-paper-data="{&quot;origPos&quot;:null,&quot;origRot&quot;:0}" fill="#d3bb76"/><path d="M62.77356,391.86827l-1.37011,-25.81124l5.16225,-0.27403l1.37011,25.81123z" data-paper-data="{&quot;origPos&quot;:null,&quot;origRot&quot;:0}" fill="#d3bb76"/><path d="M74.81879,391.22893l-1.37011,-25.81124l5.16225,-0.27404l1.37011,25.81124z" data-paper-data="{&quot;origPos&quot;:null,&quot;origRot&quot;:0}" fill="#d3bb76"/><path d="M64.14856,391.58442l-0.30446,-5.73582l12.90563,-0.68508l0.30446,5.73583z" data-paper-data="{&quot;origPos&quot;:null,&quot;origRot&quot;:0}" fill="#d3bb76"/><path d="M63.95849,371.75013l-0.30446,-5.73583l12.90562,-0.68508l0.30446,5.73583z" data-paper-data="{&quot;origPos&quot;:null,&quot;origRot&quot;:0}" fill="#d3bb76"/><path d="M60.69163,535.6869l-6.55435,-130.98315l37.32813,1.01324l6.15739,128.00953z" data-paper-data="{&quot;origPos&quot;:null,&quot;origRot&quot;:0}" fill="#d3bb76"/><path d="M57.30887,478.60536l-3.41767,-64.3847l37.2829,-1.97906l3.41766,64.38469z" data-paper-data="{&quot;origPos&quot;:null,&quot;origRot&quot;:0}" fill="#b9a568"/><path d="M51.35766,474.85175l-3.43672,-64.74319l47.89419,-2.54232l3.43671,64.74319z" data-paper-data="{&quot;origPos&quot;:null,&quot;origRot&quot;:0}" fill="#e7cd81"/><path d="M47.9961,469.13481l-2.51188,-47.32059l5.16224,-0.27402l2.51187,47.3206z" data-paper-data="{&quot;origPos&quot;:null,&quot;origRot&quot;:0}" fill="#d3bb76"/><path d="M55.99964,420.89038l-0.2649,-4.99016l24.95086,-1.32445l0.2649,4.99016z" data-paper-data="{&quot;origPos&quot;:null,&quot;origRot&quot;:0}" fill="#d3bb76"/><path d="M77.6123,454.20332l-2.07345,-39.06101l5.16225,-0.27403l2.07345,39.061z" data-paper-data="{&quot;origPos&quot;:null,&quot;origRot&quot;:0}" fill="#d3bb76"/><path d="M67.6411,454.90515l-1.44318,-27.18784l5.16226,-0.27403l1.44318,27.18785z" data-paper-data="{&quot;origPos&quot;:null,&quot;origRot&quot;:0}" fill="#d3bb76"/><path d="M67.81588,454.94766l-0.29229,-5.5064l14.79845,-0.78553l0.29229,5.5064z" data-paper-data="{&quot;origPos&quot;:null,&quot;origRot&quot;:0}" fill="#d3bb76"/><path d="M58.19328,465.46691l-0.2649,-4.99018l33.89875,-1.79941l0.2649,4.99016z" data-paper-data="{&quot;origPos&quot;:null,&quot;origRot&quot;:0}" fill="#d3bb76"/><path d="M87.78743,463.84423l-2.6215,-49.38549l5.16225,-0.27404l2.62149,49.3855z" data-paper-data="{&quot;origPos&quot;:null,&quot;origRot&quot;:0}" fill="#d3bb76"/><path d="M54.49423,525.13762l-1.37011,-25.81124l5.16225,-0.27404l1.37011,25.81124z" data-paper-data="{&quot;origPos&quot;:null,&quot;origRot&quot;:0}" fill="#d3bb76"/></g></g></g></svg>