<svg version="1.1" xmlns="http://www.w3.org/2000/svg" xmlns:xlink="http://www.w3.org/1999/xlink" width="159.68545" height="544.79092"><g transform="translate(-147.14788,62.5)"><g data-paper-data="{&quot;isPaintingLayer&quot;:true}" fill="none" fill-rule="nonzero" stroke="none" stroke-width="none" stroke-linecap="none" stroke-linejoin="miter" stroke-miterlimit="10" stroke-dasharray="" stroke-dashoffset="0" font-family="none" font-weight="none" font-size="none" text-anchor="none" style="mix-blend-mode: normal"><path d="M295.83333,-39.63999l0.66667,236.63999" data-paper-data="{&quot;origPos&quot;:null}" fill="none" stroke="#cecece" stroke-width="15" stroke-linecap="round"/><path d="M292.5,-39.64002l0.66667,236.63999" data-paper-data="{&quot;origPos&quot;:null}" fill="none" stroke="#e7e7e7" stroke-width="15" stroke-linecap="round"/><path d="M278.33333,-47c0,-7.1797 5.8203,-13 13,-13c7.1797,0 13,5.8203 13,13c0,7.1797 -5.8203,13 -13,13c-7.1797,0 -13,-5.8203 -13,-13z" data-paper-data="{&quot;origPos&quot;:null}" fill="#ff7e7e" stroke="#ff9b9b" stroke-width="5" stroke-linecap="butt"/><path d="M254.08901,432.31132l-8.97232,-46.53004l5.076,-0.97879l8.97233,46.53005z" data-paper-data="{&quot;origPos&quot;:null,&quot;origRot&quot;:0}" fill="#b9a568" stroke="none" stroke-width="0" stroke-linecap="butt"/><path d="M253.828,430.95772l-8.97232,-46.53003l5.076,-0.9788l8.97231,46.53005z" data-paper-data="{&quot;origPos&quot;:null,&quot;origRot&quot;:0}" fill="#d3bb76" stroke="none" stroke-width="0" stroke-linecap="butt"/><path d="M245.98084,389.35259l-0.94619,-4.90679l24.53403,-4.73086l0.94617,4.90681z" data-paper-data="{&quot;origPos&quot;:null,&quot;origRot&quot;:0}" fill="#d3bb76" stroke="none" stroke-width="0" stroke-linecap="butt"/><path d="M271.95438,419.3898l-7.40625,-38.40846l5.07601,-0.9788l7.40624,38.40846z" data-paper-data="{&quot;origPos&quot;:null,&quot;origRot&quot;:0}" fill="#d3bb76" stroke="none" stroke-width="0" stroke-linecap="butt"/><path d="M262.17339,421.4514l-5.155,-26.73363l5.076,-0.97881l5.15502,26.73365z" data-paper-data="{&quot;origPos&quot;:null,&quot;origRot&quot;:0}" fill="#d3bb76" stroke="none" stroke-width="0" stroke-linecap="butt"/><path d="M262.35236,421.4695l-1.04406,-5.41442l14.55123,-2.80589l1.04406,5.41442z" data-paper-data="{&quot;origPos&quot;:null,&quot;origRot&quot;:0}" fill="#d3bb76" stroke="none" stroke-width="0" stroke-linecap="butt"/><path d="M152.04187,482.29092l-4.89399,-25.38004l5.07601,-0.9788l4.894,25.38003z" data-paper-data="{&quot;origPos&quot;:null,&quot;origRot&quot;:0}" fill="#d3bb76" stroke="none" stroke-width="0" stroke-linecap="butt"/><path d="M161.0115,480.26883l-4.894,-25.38004l5.07601,-0.9788l4.89399,25.38003z" data-paper-data="{&quot;origPos&quot;:null,&quot;origRot&quot;:0}" fill="#d3bb76" stroke="none" stroke-width="0" stroke-linecap="butt"/><path d="M159.42856,460.17801l-1.08754,-5.63999l12.69001,-2.44701l1.08756,5.64001z" data-paper-data="{&quot;origPos&quot;:null,&quot;origRot&quot;:0}" fill="#d3bb76" stroke="none" stroke-width="0" stroke-linecap="butt"/></g></g></svg>