<svg version="1.1" xmlns="http://www.w3.org/2000/svg" xmlns:xlink="http://www.w3.org/1999/xlink" width="1037.15803" height="743.35761"><g transform="translate(171.72644,178.19995)"><g data-paper-data="{&quot;isPaintingLayer&quot;:true}" fill="none" fill-rule="nonzero" stroke="none" stroke-width="0" stroke-linecap="butt" stroke-linejoin="miter" stroke-miterlimit="10" stroke-dasharray="" stroke-dashoffset="0" font-family="none" font-weight="none" font-size="none" text-anchor="none" style="mix-blend-mode: normal"><g data-paper-data="{&quot;origPos&quot;:null}" stroke="none"><path d="M-160.33642,30.17902l-1.4362,-187.13916l37.26013,3.52423l1.15562,182.87686z" data-paper-data="{&quot;origPos&quot;:null,&quot;origRot&quot;:0}" fill="#d3bb76"/><path d="M-161.97421,-103.00447l-0.5611,-40.11639l36.75739,-0.51412l0.56109,40.1164z" data-paper-data="{&quot;origPos&quot;:null,&quot;origRot&quot;:0}" fill="#b9a568"/><path d="M-167.77247,-106.85607l-0.52051,-37.21537l47.95692,-0.67076l0.52052,37.21536z" data-paper-data="{&quot;origPos&quot;:null,&quot;origRot&quot;:0}" fill="#e7cd81"/><path d="M-161.82724,-113.033l-0.36148,-25.84504l5.16901,-0.0723l0.36149,25.84505z" data-paper-data="{&quot;origPos&quot;:null,&quot;origRot&quot;:0}" fill="#d3bb76"/><path d="M-131.67869,-113.7419l-0.36148,-25.84506l5.169,-0.0723l0.36148,25.84505z" data-paper-data="{&quot;origPos&quot;:null,&quot;origRot&quot;:0}" fill="#d3bb76"/><path d="M-152.64189,-113.4487l-0.36148,-25.84505l5.169,-0.0723l0.36148,25.84506z" data-paper-data="{&quot;origPos&quot;:null,&quot;origRot&quot;:0}" fill="#d3bb76"/><path d="M-140.58086,-113.61744l-0.36148,-25.84505l5.169,-0.0723l0.36148,25.84505z" data-paper-data="{&quot;origPos&quot;:null,&quot;origRot&quot;:0}" fill="#d3bb76"/><path d="M-151.2569,-113.67869l-0.08032,-5.74333l12.92253,-0.18075l0.08033,5.74334z" data-paper-data="{&quot;origPos&quot;:null,&quot;origRot&quot;:0}" fill="#d3bb76"/><path d="M-150.67252,-133.50528l-0.08033,-5.74334l12.92253,-0.18075l0.08032,5.74335z" data-paper-data="{&quot;origPos&quot;:null,&quot;origRot&quot;:0}" fill="#d3bb76"/><path d="M-161.48833,-26.99106l-0.9017,-64.46904l37.33173,-0.52215l0.9017,64.46904z" data-paper-data="{&quot;origPos&quot;:null,&quot;origRot&quot;:0}" fill="#b9a568"/><path d="M-167.28842,-30.97419l-0.90673,-64.828l47.95692,-0.67077l0.90673,64.828z" data-paper-data="{&quot;origPos&quot;:null,&quot;origRot&quot;:0}" fill="#e7cd81"/><path d="M-160.10446,-40.99821l-0.66273,-47.38257l5.169,-0.07229l0.66273,47.38258z" data-paper-data="{&quot;origPos&quot;:null,&quot;origRot&quot;:0}" fill="#b9a568"/><path d="M-160.12375,-42.37663l-0.66273,-47.38257l5.169,-0.0723l0.66272,47.38258z" data-paper-data="{&quot;origPos&quot;:null,&quot;origRot&quot;:0}" fill="#d3bb76"/><path d="M-160.54358,-84.71321l-0.0699,-4.9967l24.98354,-0.34944l0.06989,4.99671z" data-paper-data="{&quot;origPos&quot;:null,&quot;origRot&quot;:0}" fill="#d3bb76"/><path d="M-140.24773,-50.58198l-0.54705,-39.11218l5.16901,-0.0723l0.54705,39.11218z" data-paper-data="{&quot;origPos&quot;:null,&quot;origRot&quot;:0}" fill="#d3bb76"/><path d="M-150.2388,-50.26987l-0.38076,-27.22345l5.16901,-0.0723l0.38077,27.22346z" data-paper-data="{&quot;origPos&quot;:null,&quot;origRot&quot;:0}" fill="#d3bb76"/><path d="M-150.06582,-50.22063l-0.07712,-5.51362l14.81784,-0.20725l0.07712,5.51362z" data-paper-data="{&quot;origPos&quot;:null,&quot;origRot&quot;:0}" fill="#d3bb76"/><path d="M-160.09171,-40.08501l-0.06989,-4.99671l33.94316,-0.47476l0.06989,4.99671z" data-paper-data="{&quot;origPos&quot;:null,&quot;origRot&quot;:0}" fill="#d3bb76"/><path d="M-130.45679,-40.55121l-0.69166,-49.45019l5.169,-0.0723l0.69164,49.45019z" data-paper-data="{&quot;origPos&quot;:null,&quot;origRot&quot;:0}" fill="#d3bb76"/><path d="M-160.38915,20.78991l-0.5611,-40.1164l36.7574,-0.51411l0.56109,40.1164z" data-paper-data="{&quot;origPos&quot;:null,&quot;origRot&quot;:0}" fill="#b9a568"/><path d="M-166.18749,16.9383l-0.52052,-37.21536l47.95692,-0.67077l0.52051,37.21537z" data-paper-data="{&quot;origPos&quot;:null,&quot;origRot&quot;:0}" fill="#e7cd81"/><path d="M-160.2422,10.76136l-0.36148,-25.84506l5.16901,-0.0723l0.36149,25.84505z" data-paper-data="{&quot;origPos&quot;:null,&quot;origRot&quot;:0}" fill="#d3bb76"/><path d="M-130.09364,10.05246l-0.36149,-25.84506l5.169,-0.07229l0.36149,25.84505z" data-paper-data="{&quot;origPos&quot;:null,&quot;origRot&quot;:0}" fill="#d3bb76"/><path d="M-151.05686,10.34564l-0.36149,-25.84505l5.16901,-0.0723l0.36148,25.84505z" data-paper-data="{&quot;origPos&quot;:null,&quot;origRot&quot;:0}" fill="#d3bb76"/><path d="M-138.99585,10.177l-0.36148,-25.84506l5.169,-0.0723l0.36148,25.84505z" data-paper-data="{&quot;origPos&quot;:null,&quot;origRot&quot;:0}" fill="#d3bb76"/><path d="M-149.08748,-9.71096l-0.08032,-5.74333l12.92252,-0.18076l0.08033,5.74335z" data-paper-data="{&quot;origPos&quot;:null,&quot;origRot&quot;:0}" fill="#d3bb76"/></g><g data-paper-data="{&quot;origPos&quot;:null}" stroke="none"><path d="M-83.33641,32.179l-1.4362,-187.13916l37.26013,3.52423l1.15562,182.87686z" data-paper-data="{&quot;origPos&quot;:null,&quot;origRot&quot;:0}" fill="#d3bb76"/><path d="M-84.97418,-101.00447l-0.5611,-40.11639l36.75739,-0.51412l0.56109,40.1164z" data-paper-data="{&quot;origPos&quot;:null,&quot;origRot&quot;:0}" fill="#b9a568"/><path d="M-90.77247,-104.85607l-0.52051,-37.21537l47.95692,-0.67076l0.52052,37.21536z" data-paper-data="{&quot;origPos&quot;:null,&quot;origRot&quot;:0}" fill="#e7cd81"/><path d="M-84.82724,-111.033l-0.36148,-25.84504l5.16901,-0.0723l0.36149,25.84505z" data-paper-data="{&quot;origPos&quot;:null,&quot;origRot&quot;:0}" fill="#d3bb76"/><path d="M-54.67863,-111.7419l-0.36148,-25.84506l5.169,-0.0723l0.36148,25.84505z" data-paper-data="{&quot;origPos&quot;:null,&quot;origRot&quot;:0}" fill="#d3bb76"/><path d="M-75.64189,-111.4487l-0.36148,-25.84505l5.169,-0.0723l0.36148,25.84506z" data-paper-data="{&quot;origPos&quot;:null,&quot;origRot&quot;:0}" fill="#d3bb76"/><path d="M-63.58082,-111.61744l-0.36148,-25.84505l5.169,-0.0723l0.36148,25.84505z" data-paper-data="{&quot;origPos&quot;:null,&quot;origRot&quot;:0}" fill="#d3bb76"/><path d="M-74.25686,-111.67869l-0.08032,-5.74333l12.92253,-0.18075l0.08033,5.74334z" data-paper-data="{&quot;origPos&quot;:null,&quot;origRot&quot;:0}" fill="#d3bb76"/><path d="M-73.67252,-131.50529l-0.08033,-5.74334l12.92253,-0.18075l0.08032,5.74335z" data-paper-data="{&quot;origPos&quot;:null,&quot;origRot&quot;:0}" fill="#d3bb76"/><path d="M-84.48832,-24.99106l-0.9017,-64.46904l37.33173,-0.52215l0.9017,64.46904z" data-paper-data="{&quot;origPos&quot;:null,&quot;origRot&quot;:0}" fill="#b9a568"/><path d="M-90.28841,-28.97419l-0.90673,-64.828l47.95692,-0.67077l0.90673,64.828z" data-paper-data="{&quot;origPos&quot;:null,&quot;origRot&quot;:0}" fill="#e7cd81"/><path d="M-83.10445,-38.99822l-0.66273,-47.38257l5.169,-0.07229l0.66273,47.38258z" data-paper-data="{&quot;origPos&quot;:null,&quot;origRot&quot;:0}" fill="#b9a568"/><path d="M-83.12372,-40.37663l-0.66273,-47.38257l5.169,-0.0723l0.66272,47.38258z" data-paper-data="{&quot;origPos&quot;:null,&quot;origRot&quot;:0}" fill="#d3bb76"/><path d="M-83.54357,-82.71322l-0.0699,-4.9967l24.98354,-0.34944l0.06989,4.99671z" data-paper-data="{&quot;origPos&quot;:null,&quot;origRot&quot;:0}" fill="#d3bb76"/><path d="M-63.24775,-48.58197l-0.54705,-39.11218l5.16901,-0.0723l0.54705,39.11218z" data-paper-data="{&quot;origPos&quot;:null,&quot;origRot&quot;:0}" fill="#d3bb76"/><path d="M-73.23879,-48.26987l-0.38076,-27.22345l5.16901,-0.0723l0.38077,27.22346z" data-paper-data="{&quot;origPos&quot;:null,&quot;origRot&quot;:0}" fill="#d3bb76"/><path d="M-73.06578,-48.22063l-0.07712,-5.51362l14.81784,-0.20725l0.07712,5.51362z" data-paper-data="{&quot;origPos&quot;:null,&quot;origRot&quot;:0}" fill="#d3bb76"/><path d="M-83.09171,-38.08501l-0.06989,-4.99671l33.94316,-0.47476l0.06989,4.99671z" data-paper-data="{&quot;origPos&quot;:null,&quot;origRot&quot;:0}" fill="#d3bb76"/><path d="M-53.4568,-38.55121l-0.69166,-49.45019l5.169,-0.0723l0.69164,49.45019z" data-paper-data="{&quot;origPos&quot;:null,&quot;origRot&quot;:0}" fill="#d3bb76"/><path d="M-83.38915,22.78991l-0.5611,-40.1164l36.7574,-0.51411l0.56109,40.1164z" data-paper-data="{&quot;origPos&quot;:null,&quot;origRot&quot;:0}" fill="#b9a568"/><path d="M-89.1875,18.93828l-0.52052,-37.21536l47.95692,-0.67077l0.52051,37.21537z" data-paper-data="{&quot;origPos&quot;:null,&quot;origRot&quot;:0}" fill="#e7cd81"/><path d="M-83.24221,12.76137l-0.36148,-25.84506l5.16901,-0.0723l0.36149,25.84505z" data-paper-data="{&quot;origPos&quot;:null,&quot;origRot&quot;:0}" fill="#d3bb76"/><path d="M-53.09364,12.05246l-0.36149,-25.84506l5.169,-0.07229l0.36149,25.84505z" data-paper-data="{&quot;origPos&quot;:null,&quot;origRot&quot;:0}" fill="#d3bb76"/><path d="M-74.05686,12.34564l-0.36149,-25.84505l5.16901,-0.0723l0.36148,25.84505z" data-paper-data="{&quot;origPos&quot;:null,&quot;origRot&quot;:0}" fill="#d3bb76"/><path d="M-61.99582,12.177l-0.36148,-25.84506l5.169,-0.0723l0.36148,25.84505z" data-paper-data="{&quot;origPos&quot;:null,&quot;origRot&quot;:0}" fill="#d3bb76"/><path d="M-72.08746,-7.71095l-0.08032,-5.74333l12.92252,-0.18076l0.08033,5.74335z" data-paper-data="{&quot;origPos&quot;:null,&quot;origRot&quot;:0}" fill="#d3bb76"/></g><g data-paper-data="{&quot;origPos&quot;:null}" stroke="none"><path d="M-4.33641,32.179l-1.4362,-187.13916l37.26013,3.52423l1.15562,182.87686z" data-paper-data="{&quot;origPos&quot;:null,&quot;origRot&quot;:0}" fill="#d3bb76"/><path d="M-5.97415,-101.00447l-0.5611,-40.11639l36.75739,-0.51412l0.56109,40.1164z" data-paper-data="{&quot;origPos&quot;:null,&quot;origRot&quot;:0}" fill="#b9a568"/><path d="M-11.77246,-104.85607l-0.52051,-37.21537l47.95692,-0.67076l0.52052,37.21536z" data-paper-data="{&quot;origPos&quot;:null,&quot;origRot&quot;:0}" fill="#e7cd81"/><path d="M-5.82719,-111.033l-0.36148,-25.84504l5.16901,-0.0723l0.36149,25.84505z" data-paper-data="{&quot;origPos&quot;:null,&quot;origRot&quot;:0}" fill="#d3bb76"/><path d="M24.32137,-111.7419l-0.36148,-25.84506l5.169,-0.0723l0.36148,25.84505z" data-paper-data="{&quot;origPos&quot;:null,&quot;origRot&quot;:0}" fill="#d3bb76"/><path d="M3.35816,-111.4487l-0.36148,-25.84505l5.169,-0.0723l0.36148,25.84506z" data-paper-data="{&quot;origPos&quot;:null,&quot;origRot&quot;:0}" fill="#d3bb76"/><path d="M15.41917,-111.61744l-0.36148,-25.84505l5.169,-0.0723l0.36148,25.84505z" data-paper-data="{&quot;origPos&quot;:null,&quot;origRot&quot;:0}" fill="#d3bb76"/><path d="M4.74319,-111.67869l-0.08032,-5.74333l12.92253,-0.18075l0.08033,5.74334z" data-paper-data="{&quot;origPos&quot;:null,&quot;origRot&quot;:0}" fill="#d3bb76"/><path d="M5.32752,-131.50529l-0.08033,-5.74334l12.92253,-0.18075l0.08032,5.74335z" data-paper-data="{&quot;origPos&quot;:null,&quot;origRot&quot;:0}" fill="#d3bb76"/><path d="M-5.48827,-24.99106l-0.9017,-64.46904l37.33173,-0.52215l0.9017,64.46904z" data-paper-data="{&quot;origPos&quot;:null,&quot;origRot&quot;:0}" fill="#b9a568"/><path d="M-11.2884,-28.97419l-0.90673,-64.828l47.95692,-0.67077l0.90673,64.828z" data-paper-data="{&quot;origPos&quot;:null,&quot;origRot&quot;:0}" fill="#e7cd81"/><path d="M-4.10442,-38.99821l-0.66273,-47.38257l5.169,-0.07229l0.66273,47.38258z" data-paper-data="{&quot;origPos&quot;:null,&quot;origRot&quot;:0}" fill="#b9a568"/><path d="M-4.12371,-40.37663l-0.66273,-47.38257l5.169,-0.0723l0.66272,47.38258z" data-paper-data="{&quot;origPos&quot;:null,&quot;origRot&quot;:0}" fill="#d3bb76"/><path d="M-4.54352,-82.71322l-0.0699,-4.9967l24.98354,-0.34944l0.06989,4.99671z" data-paper-data="{&quot;origPos&quot;:null,&quot;origRot&quot;:0}" fill="#d3bb76"/><path d="M15.75226,-48.58197l-0.54705,-39.11218l5.16901,-0.0723l0.54705,39.11218z" data-paper-data="{&quot;origPos&quot;:null,&quot;origRot&quot;:0}" fill="#d3bb76"/><path d="M5.76124,-48.26987l-0.38076,-27.22345l5.16901,-0.0723l0.38077,27.22346z" data-paper-data="{&quot;origPos&quot;:null,&quot;origRot&quot;:0}" fill="#d3bb76"/><path d="M5.93426,-48.22063l-0.07712,-5.51362l14.81784,-0.20725l0.07712,5.51362z" data-paper-data="{&quot;origPos&quot;:null,&quot;origRot&quot;:0}" fill="#d3bb76"/><path d="M-4.09167,-38.08501l-0.06989,-4.99671l33.94316,-0.47476l0.06989,4.99671z" data-paper-data="{&quot;origPos&quot;:null,&quot;origRot&quot;:0}" fill="#d3bb76"/><path d="M25.54326,-38.55121l-0.69166,-49.45019l5.169,-0.0723l0.69164,49.45019z" data-paper-data="{&quot;origPos&quot;:null,&quot;origRot&quot;:0}" fill="#d3bb76"/><path d="M-4.38914,22.78991l-0.5611,-40.1164l36.7574,-0.51411l0.56109,40.1164z" data-paper-data="{&quot;origPos&quot;:null,&quot;origRot&quot;:0}" fill="#b9a568"/><path d="M-10.18751,18.9383l-0.52052,-37.21536l47.95692,-0.67077l0.52051,37.21537z" data-paper-data="{&quot;origPos&quot;:null,&quot;origRot&quot;:0}" fill="#e7cd81"/><path d="M-4.24215,12.76136l-0.36148,-25.84506l5.16901,-0.0723l0.36149,25.84505z" data-paper-data="{&quot;origPos&quot;:null,&quot;origRot&quot;:0}" fill="#d3bb76"/><path d="M25.90639,12.05246l-0.36149,-25.84506l5.169,-0.07229l0.36149,25.84505z" data-paper-data="{&quot;origPos&quot;:null,&quot;origRot&quot;:0}" fill="#d3bb76"/><path d="M4.94317,12.34563l-0.36149,-25.84505l5.16901,-0.0723l0.36148,25.84505z" data-paper-data="{&quot;origPos&quot;:null,&quot;origRot&quot;:0}" fill="#d3bb76"/><path d="M17.0042,12.177l-0.36148,-25.84506l5.169,-0.0723l0.36148,25.84505z" data-paper-data="{&quot;origPos&quot;:null,&quot;origRot&quot;:0}" fill="#d3bb76"/><path d="M6.91258,-7.71095l-0.08032,-5.74333l12.92252,-0.18076l0.08033,5.74335z" data-paper-data="{&quot;origPos&quot;:null,&quot;origRot&quot;:0}" fill="#d3bb76"/></g><g data-paper-data="{&quot;origPos&quot;:null}" stroke="none"><path d="M70.66359,29.17899l-1.4362,-187.13916l37.26013,3.52423l1.15562,182.87686z" data-paper-data="{&quot;origPos&quot;:null,&quot;origRot&quot;:0}" fill="#d3bb76"/><path d="M69.02583,-104.00447l-0.5611,-40.11639l36.75739,-0.51412l0.56109,40.1164z" data-paper-data="{&quot;origPos&quot;:null,&quot;origRot&quot;:0}" fill="#b9a568"/><path d="M63.22752,-107.85607l-0.52051,-37.21537l47.95692,-0.67076l0.52052,37.21536z" data-paper-data="{&quot;origPos&quot;:null,&quot;origRot&quot;:0}" fill="#e7cd81"/><path d="M69.1728,-114.033l-0.36148,-25.84504l5.16901,-0.0723l0.36149,25.84505z" data-paper-data="{&quot;origPos&quot;:null,&quot;origRot&quot;:0}" fill="#d3bb76"/><path d="M99.32137,-114.7419l-0.36148,-25.84506l5.169,-0.0723l0.36148,25.84505z" data-paper-data="{&quot;origPos&quot;:null,&quot;origRot&quot;:0}" fill="#d3bb76"/><path d="M78.35816,-114.4487l-0.36148,-25.84505l5.169,-0.0723l0.36148,25.84506z" data-paper-data="{&quot;origPos&quot;:null,&quot;origRot&quot;:0}" fill="#d3bb76"/><path d="M90.41917,-114.61744l-0.36148,-25.84505l5.169,-0.0723l0.36148,25.84505z" data-paper-data="{&quot;origPos&quot;:null,&quot;origRot&quot;:0}" fill="#d3bb76"/><path d="M79.74318,-114.67869l-0.08032,-5.74333l12.92253,-0.18075l0.08033,5.74334z" data-paper-data="{&quot;origPos&quot;:null,&quot;origRot&quot;:0}" fill="#d3bb76"/><path d="M80.32754,-134.50528l-0.08033,-5.74334l12.92253,-0.18075l0.08032,5.74335z" data-paper-data="{&quot;origPos&quot;:null,&quot;origRot&quot;:0}" fill="#d3bb76"/><path d="M69.51173,-27.99106l-0.9017,-64.46904l37.33173,-0.52215l0.9017,64.46904z" data-paper-data="{&quot;origPos&quot;:null,&quot;origRot&quot;:0}" fill="#b9a568"/><path d="M63.71158,-31.97419l-0.90673,-64.828l47.95692,-0.67077l0.90673,64.828z" data-paper-data="{&quot;origPos&quot;:null,&quot;origRot&quot;:0}" fill="#e7cd81"/><path d="M70.89558,-41.99821l-0.66273,-47.38257l5.169,-0.07229l0.66273,47.38258z" data-paper-data="{&quot;origPos&quot;:null,&quot;origRot&quot;:0}" fill="#b9a568"/><path d="M70.87631,-43.37662l-0.66273,-47.38257l5.169,-0.0723l0.66272,47.38258z" data-paper-data="{&quot;origPos&quot;:null,&quot;origRot&quot;:0}" fill="#d3bb76"/><path d="M70.45648,-85.71321l-0.0699,-4.9967l24.98354,-0.34944l0.06989,4.99671z" data-paper-data="{&quot;origPos&quot;:null,&quot;origRot&quot;:0}" fill="#d3bb76"/><path d="M90.75225,-51.58198l-0.54705,-39.11218l5.16901,-0.0723l0.54705,39.11218z" data-paper-data="{&quot;origPos&quot;:null,&quot;origRot&quot;:0}" fill="#d3bb76"/><path d="M80.76122,-51.26987l-0.38076,-27.22345l5.16901,-0.0723l0.38077,27.22346z" data-paper-data="{&quot;origPos&quot;:null,&quot;origRot&quot;:0}" fill="#d3bb76"/><path d="M80.93426,-51.22063l-0.07712,-5.51362l14.81784,-0.20725l0.07712,5.51362z" data-paper-data="{&quot;origPos&quot;:null,&quot;origRot&quot;:0}" fill="#d3bb76"/><path d="M70.90831,-41.08501l-0.06989,-4.99671l33.94316,-0.47476l0.06989,4.99671z" data-paper-data="{&quot;origPos&quot;:null,&quot;origRot&quot;:0}" fill="#d3bb76"/><path d="M100.54323,-41.55121l-0.69166,-49.45019l5.169,-0.0723l0.69164,49.45019z" data-paper-data="{&quot;origPos&quot;:null,&quot;origRot&quot;:0}" fill="#d3bb76"/><path d="M70.61085,19.78991l-0.5611,-40.1164l36.7574,-0.51411l0.56109,40.1164z" data-paper-data="{&quot;origPos&quot;:null,&quot;origRot&quot;:0}" fill="#b9a568"/><path d="M64.8125,15.9383l-0.52052,-37.21536l47.95692,-0.67077l0.52051,37.21537z" data-paper-data="{&quot;origPos&quot;:null,&quot;origRot&quot;:0}" fill="#e7cd81"/><path d="M70.75782,9.76137l-0.36148,-25.84506l5.16901,-0.0723l0.36149,25.84505z" data-paper-data="{&quot;origPos&quot;:null,&quot;origRot&quot;:0}" fill="#d3bb76"/><path d="M100.90637,9.05245l-0.36149,-25.84506l5.169,-0.07229l0.36149,25.84505z" data-paper-data="{&quot;origPos&quot;:null,&quot;origRot&quot;:0}" fill="#d3bb76"/><path d="M79.94316,9.34564l-0.36149,-25.84505l5.16901,-0.0723l0.36148,25.84505z" data-paper-data="{&quot;origPos&quot;:null,&quot;origRot&quot;:0}" fill="#d3bb76"/><path d="M92.00419,9.177l-0.36148,-25.84506l5.169,-0.0723l0.36148,25.84505z" data-paper-data="{&quot;origPos&quot;:null,&quot;origRot&quot;:0}" fill="#d3bb76"/><path d="M81.91258,-10.71096l-0.08032,-5.74333l12.92252,-0.18076l0.08033,5.74335z" data-paper-data="{&quot;origPos&quot;:null,&quot;origRot&quot;:0}" fill="#d3bb76"/></g><g data-paper-data="{&quot;origPos&quot;:null}" stroke="none"><path d="M-171.04599,-143.19995v-35h279.22229v35z" data-paper-data="{&quot;origPos&quot;:null}" fill="#e7cd81"/><path d="M-171.04599,-154.19995v-24h279.22229v24z" data-paper-data="{&quot;origPos&quot;:null}" fill="#d8c079"/><path d="M-171.04599,-161.19994v-17h279.22229v17z" data-paper-data="{&quot;origPos&quot;:null}" fill="#d3bb76"/><path d="M10.62781,-168.88819v-6.62785h98.13646v6.62785z" data-paper-data="{&quot;origPos&quot;:null}" fill="#e7cd81"/><path d="M-50.4521,-168.88819v-6.62785h65.72673v6.62785z" data-paper-data="{&quot;origPos&quot;:null}" fill="#e7cd81"/><path d="M-112.0639,-168.80724v-6.62785h63.14233v6.62785z" data-paper-data="{&quot;origPos&quot;:null}" fill="#e7cd81"/></g><path d="M-171.72643,-166.80724v-6.62785h53.20909v6.62785z" data-paper-data="{&quot;origPos&quot;:null}" fill="#e7cd81" stroke="none"/><path d="M109.04195,565.15766l-4.89399,-25.38004l5.07601,-0.9788l4.894,25.38003z" data-paper-data="{&quot;origPos&quot;:null,&quot;origRot&quot;:0}" fill="#d3bb76" stroke="none"/><path d="M118.01157,563.13555l-4.894,-25.38004l5.07601,-0.9788l4.89399,25.38003z" data-paper-data="{&quot;origPos&quot;:null,&quot;origRot&quot;:0}" fill="#d3bb76" stroke="none"/><path d="M18.42859,545.04473l-1.08754,-5.63999l12.69001,-2.44701l1.08756,5.64001z" data-paper-data="{&quot;origPos&quot;:null,&quot;origRot&quot;:0}" fill="#d3bb76" stroke="none"/><path d="M-30.68743,415.88521l-3.18446,-77.4995l436.99238,-0.69295l3.18446,77.4995z" data-paper-data="{&quot;origPos&quot;:null,&quot;origRot&quot;:0,&quot;index&quot;:null}" fill="#a1937c" stroke="none"/><path d="M-31.53518,383.44119c0,0 -0.62147,-34.13344 -1.02616,-56.3609c-0.14841,-8.15123 -0.3911,-21.48073 -0.3911,-21.48073l457.71367,-1.63803c0,0 7.47363,11.88163 0.31995,20.38337c-5.35773,6.36739 -12.00696,14.44097 -11.88938,20.89897c0.16584,9.10864 3.64295,12.81274 5.149,21.90529c0.91636,5.53221 -3.09742,15.58451 -3.09742,15.58451z" data-paper-data="{&quot;origPos&quot;:null,&quot;origRot&quot;:0,&quot;index&quot;:null}" fill="#a1937c" stroke="#000000"/><path d="M-34.86549,311.65684l-0.2867,-15.7466l465.80612,-1.66699l0.2867,15.7466z" data-paper-data="{&quot;origPos&quot;:null,&quot;origRot&quot;:0,&quot;index&quot;:null}" fill="#706756" stroke="#000000"/><path d="M-45.81585,308.42447l-0.27037,-14.84965c0,0 208.97194,-0.74786 342.72465,-1.22652c52.88951,-0.18927 135.52279,-0.485 135.52279,-0.485l0.27037,14.84965z" data-paper-data="{&quot;origPos&quot;:null,&quot;origRot&quot;:0,&quot;index&quot;:null}" fill="#8b7f6b" stroke="#000000"/><path d="M378.00013,318.58896v87.83563h-371v-87.83563z" data-paper-data="{&quot;origPos&quot;:null,&quot;index&quot;:null}" fill="#a1937c" stroke="none"/><path d="M78.72515,150.21589v-5.51415h4.65293v5.51415z" data-paper-data="{&quot;origPos&quot;:null,&quot;index&quot;:null}" fill="#d3bb76" stroke="none"/><path d="M48.78234,127.07681c0,0 0,-38.05518 0,-62.83647c0,-9.08776 0,-23.94875 0,-23.94875h71.03521c0,0 1.12623,13.27572 -0.00794,22.7251c-0.84943,7.07713 -10.37498,35.54966 -10.16695,45.69225c0.12658,6.17109 -60.86032,18.36787 -60.86032,18.36787z" data-paper-data="{&quot;origPos&quot;:null,&quot;index&quot;:null}" fill="#a1937c" stroke="#000000"/><path d="M104.63883,195.00014c-10.04893,0 -41.67871,-0.77709 -54.91243,-0.44231c-12.7439,0.32239 -74.7263,0.44231 -74.7263,0.44231v-111c0,0 62.01252,1.56338 93.80379,1.56338c24.08429,0 35.37041,-1.56338 35.37041,-1.56338c0,0 6.91198,14.24256 7.35446,22.77866c0.76359,14.73067 7.641,35.88978 7.2097,43.66468c-0.51341,9.25495 -11.15881,44.55666 -14.09963,44.55666z" data-paper-data="{&quot;origPos&quot;:null,&quot;index&quot;:null}" fill="#a1937c" stroke="none"/><path d="M47.8404,47.03678v-17.55579h71.03522v17.55579z" data-paper-data="{&quot;origPos&quot;:null,&quot;index&quot;:null}" fill="#706756" stroke="#000000"/><path d="M-20.60692,128.07681c0,0 0,-38.05518 0,-62.83647c0,-9.08776 0,-23.94875 0,-23.94875h71.03521c0,0 1.12623,13.27572 -0.00794,22.7251c-0.84943,7.07713 -1.90411,16.05121 -1.90411,23.2512c0,10.15518 0.52913,14.29846 0.73716,24.44105c0.12658,6.17109 -0.52471,17.3616 -0.52471,17.3616z" data-paper-data="{&quot;origPos&quot;:null,&quot;index&quot;:null}" fill="#a1937c" stroke="#000000"/><path d="M-25.03705,48.03678v-17.55579h140.03522v17.55579z" data-paper-data="{&quot;origPos&quot;:null,&quot;index&quot;:null}" fill="#706756" stroke="#000000"/><path d="M-88.6111,43.38967v-16.55579c0,0 68.69871,0 112.66938,0c17.38723,0 44.55259,0 44.55259,0v16.55579z" data-paper-data="{&quot;origPos&quot;:null,&quot;index&quot;:null}" fill="#8b7f6b" stroke="#000000"/><path d="M46.77814,43.38967v-16.55579c0,0 32.43155,0 53.18941,0c8.20822,0 21.03256,0 21.03256,0v16.55579z" data-paper-data="{&quot;origPos&quot;:null,&quot;index&quot;:null}" fill="#8b7f6b" stroke="#000000"/><path d="M41.24958,89.80006v-26h16.01291v26z" data-paper-data="{&quot;index&quot;:null,&quot;origPos&quot;:null}" fill="#a1937c" stroke="none"/><path d="M402.31257,414.13521l-3.18446,-77.4995l436.99238,-0.69295l3.18446,77.4995z" data-paper-data="{&quot;origPos&quot;:null,&quot;origRot&quot;:0,&quot;index&quot;:null}" fill="#a1937c" stroke="none"/><path d="M401.46483,381.69119c0,0 -0.62147,-34.13344 -1.02616,-56.3609c-0.14841,-8.15123 -0.3911,-21.48073 -0.3911,-21.48073l457.71367,-1.63803c0,0 7.47363,11.88163 0.31995,20.38337c-5.35773,6.36739 -12.00696,14.44097 -11.88938,20.89897c0.16584,9.10864 3.64295,12.81274 5.149,21.90529c0.91636,5.53221 -3.09742,15.58451 -3.09742,15.58451z" data-paper-data="{&quot;origPos&quot;:null,&quot;origRot&quot;:0,&quot;index&quot;:null}" fill="#a1937c" stroke="#000000"/><path d="M398.13452,309.90684l-0.2867,-15.7466l465.80612,-1.66699l0.2867,15.7466z" data-paper-data="{&quot;origPos&quot;:null,&quot;origRot&quot;:0,&quot;index&quot;:null}" fill="#706756" stroke="#000000"/><path d="M387.18415,306.67447l-0.27037,-14.84965c0,0 208.97194,-0.74786 342.72465,-1.22652c52.88951,-0.18927 135.52279,-0.485 135.52279,-0.485l0.27037,14.84965z" data-paper-data="{&quot;origPos&quot;:null,&quot;origRot&quot;:0,&quot;index&quot;:null}" fill="#8b7f6b" stroke="#000000"/><path d="M811.00013,316.83896v87.83563h-371v-87.83563z" data-paper-data="{&quot;origPos&quot;:null,&quot;index&quot;:null}" fill="#a1937c" stroke="none"/><path d="M402.32362,151.21589v-5.51415h14.81928v5.51415z" data-paper-data="{&quot;origPos&quot;:null}" fill="#d3bb76" stroke="none"/><path d="M292.35619,87.26788c0,-7.19999 -3.35907,-16.17407 -6.06446,-23.2512c-3.61225,-9.44938 -0.02529,-22.7251 -0.02529,-22.7251h226.24228c0,0 0,14.86099 0,23.94875c0,24.78129 0,62.83647 0,62.83647c0,0 -220.15253,-30.65374 -220.15253,-40.80892z" data-paper-data="{&quot;origPos&quot;:null}" fill="#a1937c" stroke="#000000"/><path d="M289.26647,48.03677v-17.55579h226.24228v17.55579z" data-paper-data="{&quot;origPos&quot;:null}" fill="#706756" stroke="#000000"/><path d="M292.37381,169.44347c-1.86582,-17.2946 0.20206,-27.17689 0.94988,-44.5606c0.72015,-16.7403 -0.82527,-42.88274 -0.82527,-42.88274c0,0 52.09296,1.56338 98.93133,1.56338c61.82666,0 182.42666,-1.56338 182.42666,-1.56338v111c0,0 -120.54143,-0.11992 -145.32536,-0.44231c-25.73651,-0.33478 -98.91773,0.44231 -118.46058,0.44231c-5.7192,0 -16.6982,-14.30171 -17.69666,-23.55666z" data-paper-data="{&quot;origPos&quot;:null}" fill="#a1937c" stroke="none"/><path d="M470.33878,127.0705c0,0 -0.9851,-11.19051 -0.79365,-17.3616c0.31465,-10.14259 1.11499,-14.28587 1.11499,-24.44105c0,-7.19999 -1.59525,-16.17407 -2.88005,-23.2512c-1.71548,-9.44938 -0.01201,-22.7251 -0.01201,-22.7251h107.44379c0,0 0,14.86099 0,23.94875c0,24.78129 0,62.83647 0,62.83647z" data-paper-data="{&quot;origPos&quot;:null}" fill="#a1937c" stroke="#000000"/><path d="M463.39353,48.03677v-17.55579h107.44379v17.55579z" data-paper-data="{&quot;origPos&quot;:null}" fill="#706756" stroke="#000000"/><path d="M455.05654,44.0563v-16.55579c0,0 22.43342,0 36.79195,0c36.3114,0 93.04346,0 93.04346,0v16.55579z" data-paper-data="{&quot;origPos&quot;:null}" fill="#8b7f6b" stroke="#000000"/><path d="M283.50007,44.38966v-16.55579c0,0 42.22689,0 69.25425,0c68.34971,0 175.13762,0 175.13762,0v16.55579z" data-paper-data="{&quot;origPos&quot;:null}" fill="#8b7f6b" stroke="#000000"/><path d="M485.50006,90.80005v-26h51v26z" data-paper-data="{&quot;origPos&quot;:null}" fill="#a1937c" stroke="none"/><path d="M308.00001,195.80001v-80h285v80z" data-paper-data="{&quot;origPos&quot;:null}" fill="#a1937c" stroke="none"/><g data-paper-data="{&quot;origPos&quot;:null}" stroke="none"><path d="M101.42427,143.75721l-1.24021,-88.6702l24.08941,-0.33692l1.24021,88.6702z" data-paper-data="{&quot;origPos&quot;:null,&quot;origRot&quot;:0}" fill="#d3bb76"/><path d="M100.67389,106.51518l-0.5874,-41.99675l24.31883,-0.34014l0.58739,41.99674z" data-paper-data="{&quot;origPos&quot;:null,&quot;origRot&quot;:0}" fill="#b9a568"/><path d="M96.89554,103.92051l-0.59067,-42.23059l31.24035,-0.43695l0.59066,42.23059z" data-paper-data="{&quot;origPos&quot;:null,&quot;origRot&quot;:0}" fill="#e7cd81"/><path d="M101.57538,97.39058l-0.43172,-30.8662l3.36722,-0.0471l0.43172,30.8662z" data-paper-data="{&quot;origPos&quot;:null,&quot;origRot&quot;:0}" fill="#b9a568"/><path d="M101.56282,96.49266l-0.43172,-30.8662l3.36722,-0.0471l0.43171,30.86621z" data-paper-data="{&quot;origPos&quot;:null,&quot;origRot&quot;:0}" fill="#d3bb76"/><path d="M101.28933,68.91354l-0.04553,-3.25498l16.27491,-0.22763l0.04553,3.25498z" data-paper-data="{&quot;origPos&quot;:null,&quot;origRot&quot;:0}" fill="#d3bb76"/><path d="M114.51052,91.14749l-0.35636,-25.47866l3.36722,-0.0471l0.35636,25.47866z" data-paper-data="{&quot;origPos&quot;:null,&quot;origRot&quot;:0}" fill="#d3bb76"/><path d="M108.00211,91.35078l-0.24804,-17.73404l3.36722,-0.0471l0.24804,17.73405z" data-paper-data="{&quot;origPos&quot;:null,&quot;origRot&quot;:0}" fill="#d3bb76"/><path d="M108.11482,91.38287l-0.05023,-3.5917l9.65271,-0.135l0.05023,3.59171z" data-paper-data="{&quot;origPos&quot;:null,&quot;origRot&quot;:0}" fill="#d3bb76"/><path d="M101.58366,97.98544l-0.04553,-3.25498l22.11142,-0.30927l0.04553,3.25498z" data-paper-data="{&quot;origPos&quot;:null,&quot;origRot&quot;:0}" fill="#d3bb76"/><path d="M120.88861,97.68176l-0.45056,-32.2131l3.36722,-0.0471l0.45056,32.2131z" data-paper-data="{&quot;origPos&quot;:null,&quot;origRot&quot;:0}" fill="#d3bb76"/><path d="M101.38989,137.64091l-0.36551,-26.13282l23.94469,-0.33491l0.36551,26.13283z" data-paper-data="{&quot;origPos&quot;:null,&quot;origRot&quot;:0}" fill="#b9a568"/><path d="M97.61272,135.13189l-0.33907,-24.24303l31.24034,-0.43695l0.33908,24.24302z" data-paper-data="{&quot;origPos&quot;:null,&quot;origRot&quot;:0}" fill="#e7cd81"/><path d="M101.48564,131.10808l-0.23548,-16.83611l3.36722,-0.0471l0.23548,16.83611z" data-paper-data="{&quot;origPos&quot;:null,&quot;origRot&quot;:0}" fill="#d3bb76"/><path d="M121.12517,130.64628l-0.23548,-16.83612l3.36722,-0.0471l0.23548,16.83611z" data-paper-data="{&quot;origPos&quot;:null,&quot;origRot&quot;:0}" fill="#d3bb76"/><path d="M107.46922,130.83728l-0.23548,-16.83611l3.36722,-0.0471l0.23548,16.83612z" data-paper-data="{&quot;origPos&quot;:null,&quot;origRot&quot;:0}" fill="#d3bb76"/><path d="M115.32605,130.72739l-0.23548,-16.83611l3.36722,-0.0471l0.23548,16.83611z" data-paper-data="{&quot;origPos&quot;:null,&quot;origRot&quot;:0}" fill="#d3bb76"/><path d="M108.37145,130.68745l-0.05232,-3.74135l8.41806,-0.11775l0.05233,3.74136z" data-paper-data="{&quot;origPos&quot;:null,&quot;origRot&quot;:0}" fill="#d3bb76"/><path d="M108.75212,117.77192l-0.05233,-3.74136l8.41806,-0.11775l0.05232,3.74136z" data-paper-data="{&quot;origPos&quot;:null,&quot;origRot&quot;:0}" fill="#d3bb76"/><path d="M102.79012,189.39997l-0.93558,-50.42734l24.27218,0.94965l0.7528,49.2788z" data-paper-data="{&quot;origPos&quot;:null,&quot;origRot&quot;:0}" fill="#d3bb76"/><path d="M101.70642,187.15795l-0.58739,-41.99675l24.31883,-0.34014l0.58739,41.99675z" data-paper-data="{&quot;origPos&quot;:null,&quot;origRot&quot;:0}" fill="#b9a568"/><path d="M97.92805,184.56326l-0.59067,-42.23059l31.24034,-0.43696l0.59067,42.23059z" data-paper-data="{&quot;origPos&quot;:null,&quot;origRot&quot;:0}" fill="#e7cd81"/><path d="M102.6079,178.03334l-0.43172,-30.8662l3.36722,-0.04709l0.43172,30.8662z" data-paper-data="{&quot;origPos&quot;:null,&quot;origRot&quot;:0}" fill="#b9a568"/><path d="M102.59534,177.13543l-0.43172,-30.8662l3.36722,-0.0471l0.43171,30.8662z" data-paper-data="{&quot;origPos&quot;:null,&quot;origRot&quot;:0}" fill="#d3bb76"/><path d="M102.32186,149.55631l-0.04553,-3.25498l16.27491,-0.22763l0.04553,3.25498z" data-paper-data="{&quot;origPos&quot;:null,&quot;origRot&quot;:0}" fill="#d3bb76"/><path d="M115.54304,171.79025l-0.35636,-25.47866l3.36722,-0.0471l0.35636,25.47866z" data-paper-data="{&quot;origPos&quot;:null,&quot;origRot&quot;:0}" fill="#d3bb76"/><path d="M109.03464,171.99355l-0.24804,-17.73404l3.36722,-0.0471l0.24804,17.73405z" data-paper-data="{&quot;origPos&quot;:null,&quot;origRot&quot;:0}" fill="#d3bb76"/><path d="M102.63309,172.67707l-0.05024,-3.59171l9.65271,-0.13501l0.05024,3.59171z" data-paper-data="{&quot;origPos&quot;:null,&quot;origRot&quot;:0}" fill="#d3bb76"/><path d="M103.10193,179.27966l-0.04553,-3.25498l22.11143,-0.30927l0.04553,3.25498z" data-paper-data="{&quot;origPos&quot;:null,&quot;origRot&quot;:0}" fill="#d3bb76"/><path d="M121.92113,178.32453l-0.45056,-32.2131l3.36722,-0.0471l0.45055,32.2131z" data-paper-data="{&quot;origPos&quot;:null,&quot;origRot&quot;:0}" fill="#d3bb76"/></g><g data-paper-data="{&quot;origPos&quot;:null}" stroke="none"><path d="M277.42427,145.75721l-1.24021,-88.6702l24.08941,-0.33693l1.24021,88.6702z" data-paper-data="{&quot;origPos&quot;:null,&quot;origRot&quot;:0}" fill="#d3bb76"/><path d="M276.6739,108.51519l-0.5874,-41.99674l24.31882,-0.34014l0.58739,41.99674z" data-paper-data="{&quot;origPos&quot;:null,&quot;origRot&quot;:0}" fill="#b9a568"/><path d="M272.89554,105.92051l-0.59067,-42.23059l31.24035,-0.43695l0.59066,42.23058z" data-paper-data="{&quot;origPos&quot;:null,&quot;origRot&quot;:0}" fill="#e7cd81"/><path d="M277.57538,99.39058l-0.43172,-30.8662l3.36722,-0.0471l0.43172,30.86621z" data-paper-data="{&quot;origPos&quot;:null,&quot;origRot&quot;:0}" fill="#b9a568"/><path d="M277.56282,98.49266l-0.43172,-30.8662l3.36722,-0.04709l0.43171,30.86621z" data-paper-data="{&quot;origPos&quot;:null,&quot;origRot&quot;:0}" fill="#d3bb76"/><path d="M277.28933,70.91354l-0.04553,-3.25498l16.2749,-0.22763l0.04553,3.25498z" data-paper-data="{&quot;origPos&quot;:null,&quot;origRot&quot;:0}" fill="#d3bb76"/><path d="M290.51051,93.14749l-0.35636,-25.47866l3.36723,-0.0471l0.35636,25.47866z" data-paper-data="{&quot;origPos&quot;:null,&quot;origRot&quot;:0}" fill="#d3bb76"/><path d="M284.00212,93.35078l-0.24804,-17.73404l3.36722,-0.04709l0.24804,17.73404z" data-paper-data="{&quot;origPos&quot;:null,&quot;origRot&quot;:0}" fill="#d3bb76"/><path d="M284.11483,93.38287l-0.05023,-3.5917l9.65271,-0.135l0.05023,3.59171z" data-paper-data="{&quot;origPos&quot;:null,&quot;origRot&quot;:0}" fill="#d3bb76"/><path d="M277.58366,99.98545l-0.04552,-3.25498l22.11142,-0.30927l0.04552,3.25499z" data-paper-data="{&quot;origPos&quot;:null,&quot;origRot&quot;:0}" fill="#d3bb76"/><path d="M296.88861,99.68176l-0.45056,-32.21309l3.36722,-0.04709l0.45056,32.21309z" data-paper-data="{&quot;origPos&quot;:null,&quot;origRot&quot;:0}" fill="#d3bb76"/><path d="M277.38989,139.64092l-0.36551,-26.13283l23.94469,-0.33491l0.36551,26.13283z" data-paper-data="{&quot;origPos&quot;:null,&quot;origRot&quot;:0}" fill="#b9a568"/><path d="M273.61272,137.13189l-0.33907,-24.24303l31.24035,-0.43695l0.33908,24.24302z" data-paper-data="{&quot;origPos&quot;:null,&quot;origRot&quot;:0}" fill="#e7cd81"/><path d="M277.48564,133.10808l-0.23548,-16.83611l3.36722,-0.04709l0.23548,16.83611z" data-paper-data="{&quot;origPos&quot;:null,&quot;origRot&quot;:0}" fill="#d3bb76"/><path d="M297.12517,132.64629l-0.23548,-16.83613l3.36721,-0.04709l0.23548,16.83611z" data-paper-data="{&quot;origPos&quot;:null,&quot;origRot&quot;:0}" fill="#d3bb76"/><path d="M283.46921,132.83728l-0.23547,-16.83611l3.36721,-0.04709l0.23547,16.83612z" data-paper-data="{&quot;origPos&quot;:null,&quot;origRot&quot;:0}" fill="#d3bb76"/><path d="M291.32606,132.72739l-0.23548,-16.83611l3.36722,-0.04709l0.23547,16.83611z" data-paper-data="{&quot;origPos&quot;:null,&quot;origRot&quot;:0}" fill="#d3bb76"/><path d="M284.37145,132.68746l-0.05232,-3.74135l8.41806,-0.11774l0.05233,3.74135z" data-paper-data="{&quot;origPos&quot;:null,&quot;origRot&quot;:0}" fill="#d3bb76"/><path d="M284.75212,119.77192l-0.05233,-3.74135l8.41806,-0.11774l0.05232,3.74136z" data-paper-data="{&quot;origPos&quot;:null,&quot;origRot&quot;:0}" fill="#d3bb76"/><path d="M278.79012,191.39997l-0.93558,-50.42734l24.27218,0.94965l0.7528,49.2788z" data-paper-data="{&quot;origPos&quot;:null,&quot;origRot&quot;:0}" fill="#d3bb76"/><path d="M277.70642,189.15795l-0.58739,-41.99675l24.31883,-0.34014l0.58739,41.99675z" data-paper-data="{&quot;origPos&quot;:null,&quot;origRot&quot;:0}" fill="#b9a568"/><path d="M273.92805,186.56326l-0.59067,-42.23059l31.24035,-0.43696l0.59067,42.23059z" data-paper-data="{&quot;origPos&quot;:null,&quot;origRot&quot;:0}" fill="#e7cd81"/><path d="M278.6079,180.03335l-0.43172,-30.8662l3.36722,-0.04709l0.43172,30.8662z" data-paper-data="{&quot;origPos&quot;:null,&quot;origRot&quot;:0}" fill="#b9a568"/><path d="M278.59534,179.13543l-0.43172,-30.8662l3.36722,-0.0471l0.43171,30.86621z" data-paper-data="{&quot;origPos&quot;:null,&quot;origRot&quot;:0}" fill="#d3bb76"/><path d="M278.32187,151.55631l-0.04554,-3.25498l16.27491,-0.22764l0.04552,3.25499z" data-paper-data="{&quot;origPos&quot;:null,&quot;origRot&quot;:0}" fill="#d3bb76"/><path d="M291.54304,173.79026l-0.35636,-25.47866l3.36723,-0.0471l0.35636,25.47866z" data-paper-data="{&quot;origPos&quot;:null,&quot;origRot&quot;:0}" fill="#d3bb76"/><path d="M285.03463,173.99355l-0.24803,-17.73404l3.36722,-0.0471l0.24804,17.73405z" data-paper-data="{&quot;origPos&quot;:null,&quot;origRot&quot;:0}" fill="#d3bb76"/><path d="M278.63309,174.67707l-0.05024,-3.59171l9.65271,-0.13501l0.05024,3.59171z" data-paper-data="{&quot;origPos&quot;:null,&quot;origRot&quot;:0}" fill="#d3bb76"/><path d="M279.10193,181.27967l-0.04552,-3.25499l22.11143,-0.30927l0.04553,3.25498z" data-paper-data="{&quot;origPos&quot;:null,&quot;origRot&quot;:0}" fill="#d3bb76"/><path d="M297.92113,180.32453l-0.45056,-32.2131l3.36721,-0.0471l0.45056,32.2131z" data-paper-data="{&quot;origPos&quot;:null,&quot;origRot&quot;:0}" fill="#d3bb76"/></g></g></g></svg>