<svg version="1.1" xmlns="http://www.w3.org/2000/svg" xmlns:xlink="http://www.w3.org/1999/xlink" width="566.044" height="400.01956"><g transform="translate(-212.32679,-41.4554)"><g data-paper-data="{&quot;isPaintingLayer&quot;:true}" fill="none" fill-rule="nonzero" stroke="none" stroke-width="none" stroke-linecap="none" stroke-linejoin="miter" stroke-miterlimit="10" stroke-dasharray="" stroke-dashoffset="0" font-family="none" font-weight="none" font-size="none" text-anchor="none" style="mix-blend-mode: normal"><path d="M262.22439,167.06073c0,0 1.15093,25.13922 1.3703,29.93086c0.07312,1.59721 -1.48535,4.21229 -2.55599,4.28885c-3.21191,0.2297 -13.57545,0.97084 -13.57545,0.97084" data-paper-data="{&quot;origPos&quot;:null,&quot;origRot&quot;:0}" fill="none" stroke="#7da17c" stroke-width="17.5" stroke-linecap="round"/><path d="M240.66747,179.96739l2.88919,74.18636" data-paper-data="{&quot;origPos&quot;:null,&quot;origRot&quot;:0}" fill="none" stroke="#739472" stroke-width="17.5" stroke-linecap="round"/><path d="M239.22072,222.9385c0,0 -7.90034,-0.06866 -12.95695,-0.1126c-1.8592,-0.01616 -4.79472,-2.51819 -4.81442,-4.10346c-0.05907,-4.7558 -0.37256,-29.99524 -0.37256,-29.99524" data-paper-data="{&quot;origPos&quot;:null,&quot;origRot&quot;:0}" fill="none" stroke="#739472" stroke-width="17.5" stroke-linecap="round"/><path d="M287,380.47496c0,0 11.33007,-36.38326 33.26359,-45.20292c27.77536,-11.16871 65.50967,-2.74729 94.8222,-2.74729c49.81652,0 43.27814,47.95021 43.27814,47.95021z" data-paper-data="{&quot;origPos&quot;:null}" fill="#998c76" stroke="none" stroke-width="0" stroke-linecap="butt"/><path d="M245,399.47496c0,0 13.50833,-36.38326 39.6587,-45.20292c17.90129,-6.03752 24.44415,-7.02135 43.3344,-6.76453c25.48078,0.34642 44.23475,4.01724 69.71789,4.01724c59.39402,0 51.5986,47.95021 51.5986,47.95021z" data-paper-data="{&quot;origPos&quot;:null}" fill="#8b7f6b" stroke="none" stroke-width="0" stroke-linecap="butt"/><path d="M297,425.47496c0,0 11.33007,-36.38326 33.26359,-45.20292c27.77536,-11.16871 65.50967,-2.74729 94.8222,-2.74729c49.81652,0 43.27814,47.95021 43.27814,47.95021z" data-paper-data="{&quot;origPos&quot;:null}" fill="#776d5b" stroke="none" stroke-width="0" stroke-linecap="butt"/><path d="M374.74219,379.93934c0,0 10.90031,-33.6153 24.98912,-38.16821c17.84126,-5.76554 39.39404,9.57834 56.88113,15.07171c29.71923,9.33595 20.36098,55.21126 20.36098,55.21126z" data-paper-data="{&quot;origPos&quot;:null,&quot;origRot&quot;:0}" fill="#776d5b" stroke="none" stroke-width="0" stroke-linecap="butt"/><path d="M454,356.47496c0,0 11.33007,-36.38326 33.26359,-45.20292c27.77536,-11.16871 65.50967,-2.74729 94.8222,-2.74729c49.81652,0 43.27814,47.95021 43.27814,47.95021z" data-paper-data="{&quot;origPos&quot;:null}" fill="#998c76" stroke="none" stroke-width="0" stroke-linecap="butt"/><path d="M412,375.47496c0,0 13.50833,-36.38326 39.6587,-45.20292c17.90129,-6.03752 24.44415,-7.02135 43.3344,-6.76453c25.48078,0.34642 44.23475,4.01724 69.71789,4.01724c59.39402,0 51.5986,47.95021 51.5986,47.95021z" data-paper-data="{&quot;origPos&quot;:null}" fill="#8b7f6b" stroke="none" stroke-width="0" stroke-linecap="butt"/><path d="M464,401.47496c0,0 11.33007,-36.38326 33.26359,-45.20292c27.77536,-11.16871 65.50967,-2.74729 94.8222,-2.74729c49.81652,0 43.27814,47.95021 43.27814,47.95021z" data-paper-data="{&quot;origPos&quot;:null}" fill="#776d5b" stroke="none" stroke-width="0" stroke-linecap="butt"/><path d="M541.74219,355.93934c0,0 10.90031,-33.6153 24.98912,-38.16821c17.84126,-5.76554 39.39404,9.57834 56.88113,15.07171c29.71923,9.33595 20.36098,55.21126 20.36098,55.21126z" data-paper-data="{&quot;origPos&quot;:null,&quot;origRot&quot;:0}" fill="#776d5b" stroke="none" stroke-width="0" stroke-linecap="butt"/><path d="M420,396.47496c0,0 11.33007,-36.38326 33.26359,-45.20292c27.77536,-11.16871 65.50967,-2.74729 94.8222,-2.74729c49.81652,0 43.27814,47.95021 43.27814,47.95021z" data-paper-data="{&quot;origPos&quot;:null}" fill="#998c76" stroke="none" stroke-width="0" stroke-linecap="butt"/><path d="M378,415.47496c0,0 13.50833,-36.38326 39.6587,-45.20292c17.90129,-6.03752 24.44415,-7.02135 43.3344,-6.76453c25.48078,0.34642 44.23475,4.01724 69.71789,4.01724c59.39402,0 51.5986,47.95021 51.5986,47.95021z" data-paper-data="{&quot;origPos&quot;:null}" fill="#8b7f6b" stroke="none" stroke-width="0" stroke-linecap="butt"/><path d="M430,441.47496c0,0 11.33007,-36.38326 33.26359,-45.20292c27.77536,-11.16871 65.50967,-2.74729 94.8222,-2.74729c49.81652,0 43.27814,47.95021 43.27814,47.95021z" data-paper-data="{&quot;origPos&quot;:null}" fill="#776d5b" stroke="none" stroke-width="0" stroke-linecap="butt"/><path d="M507.74219,395.93934c0,0 10.90031,-33.6153 24.98912,-38.16821c17.84126,-5.76554 39.39404,9.57834 56.88113,15.07171c29.71923,9.33595 20.36098,55.21126 20.36098,55.21126z" data-paper-data="{&quot;origPos&quot;:null,&quot;origRot&quot;:0}" fill="#776d5b" stroke="none" stroke-width="0" stroke-linecap="butt"/><path d="M587,372.47496c0,0 11.33007,-36.38326 33.26359,-45.20292c27.77536,-11.16871 65.50967,-2.74729 94.8222,-2.74729c49.81652,0 43.27814,47.95021 43.27814,47.95021z" data-paper-data="{&quot;origPos&quot;:null}" fill="#998c76" stroke="none" stroke-width="0" stroke-linecap="butt"/><path d="M545,391.47496c0,0 13.50833,-36.38326 39.6587,-45.20292c17.90129,-6.03752 24.44415,-7.02135 43.3344,-6.76453c25.48078,0.34642 44.23475,4.01724 69.71789,4.01724c59.39402,0 51.5986,47.95021 51.5986,47.95021z" data-paper-data="{&quot;origPos&quot;:null}" fill="#8b7f6b" stroke="none" stroke-width="0" stroke-linecap="butt"/><path d="M597,417.47496c0,0 11.33007,-36.38326 33.26359,-45.20292c27.77536,-11.16871 65.50967,-2.74729 94.8222,-2.74729c49.81652,0 43.27814,47.95021 43.27814,47.95021z" data-paper-data="{&quot;origPos&quot;:null}" fill="#776d5b" stroke="none" stroke-width="0" stroke-linecap="butt"/><path d="M674.74219,371.93934c0,0 10.90031,-33.6153 24.98912,-38.16821c17.84126,-5.76554 39.39404,9.57834 56.88113,15.07171c29.71923,9.33595 20.36098,55.21126 20.36098,55.21126z" data-paper-data="{&quot;origPos&quot;:null,&quot;origRot&quot;:0}" fill="#776d5b" stroke="none" stroke-width="0" stroke-linecap="butt"/><path d="M422.06611,61.98508c-0.36611,0 -0.67514,-0.12597 -0.92708,-0.37792c-0.25195,-0.25195 -0.37792,-0.56294 -0.37792,-0.93299v-17.05358c0,-0.38579 0.12597,-0.70072 0.37792,-0.9448c0.25195,-0.24407 0.56097,-0.36611 0.92708,-0.36611h4.56455c1.44081,0 2.75369,0.24014 3.93862,0.72041c1.18493,0.47633 2.21437,1.15541 3.0883,2.03722c0.87394,0.88181 1.54514,1.91912 2.0136,3.11192c0.4724,1.19281 0.7086,2.51158 0.7086,3.95634c0,1.44475 -0.2362,2.76747 -0.7086,3.96814c-0.46846,1.20068 -1.13966,2.24192 -2.0136,3.12373c-0.87394,0.88181 -1.90337,1.56285 -3.0883,2.04312c-1.18493,0.47633 -2.49781,0.7145 -3.93862,0.7145zM423.37701,59.67033h3.25364c1.40932,0 2.65527,-0.3228 3.73785,-0.96842c1.08258,-0.64955 1.93486,-1.5412 2.55686,-2.67495c0.62199,-1.13376 0.93299,-2.43088 0.93299,-3.89138c0,-1.47624 -0.31099,-2.77731 -0.93299,-3.90319c-0.62199,-1.12588 -1.47428,-2.00769 -2.55686,-2.64543c-1.08258,-0.63774 -2.32853,-0.95661 -3.73785,-0.95661h-3.25364zM446.47896,62.08547c-1.36208,0 -2.56473,-0.29722 -3.60794,-0.89165c-1.03928,-0.59837 -1.8581,-1.42113 -2.45647,-2.46828c-0.59443,-1.05109 -0.89165,-2.25767 -0.89165,-3.61975c0,-1.37389 0.29722,-2.58638 0.89165,-3.63747c0.59837,-1.05109 1.41719,-1.87385 2.45647,-2.46828c1.04321,-0.59837 2.24586,-0.89756 3.60794,-0.89756c1.3424,0 2.53324,0.29918 3.57251,0.89756c1.04321,0.59443 1.86204,1.41719 2.45647,2.46828c0.59837,1.05109 0.89756,2.26358 0.89756,3.63747c0,1.36208 -0.29525,2.56867 -0.88575,3.61975c-0.58656,1.04715 -1.40145,1.86991 -2.44466,2.46828c-1.03928,0.59443 -2.23799,0.89165 -3.59613,0.89165zM446.47896,59.81796c0.87394,0 1.64552,-0.20077 2.31475,-0.60231c0.67317,-0.40547 1.19871,-0.96054 1.57663,-1.6652c0.37792,-0.70466 0.56688,-1.51955 0.56688,-2.44466c0,-0.92118 -0.18896,-1.73803 -0.56688,-2.45057c-0.37792,-0.71647 -0.90346,-1.27548 -1.57663,-1.67701c-0.66923,-0.40547 -1.44081,-0.60821 -2.31475,-0.60821c-0.87394,0 -1.64749,0.20274 -2.32066,0.60821c-0.66923,0.40154 -1.19674,0.96054 -1.58253,1.67701c-0.38579,0.71253 -0.57869,1.52939 -0.57869,2.45057c0,0.92511 0.1929,1.74 0.57869,2.44466c0.38579,0.70466 0.9133,1.25973 1.58253,1.6652c0.67317,0.40154 1.44672,0.60231 2.32066,0.60231zM468.87391,62.0087c-0.37004,0 -0.6771,-0.12007 -0.92118,-0.3602c-0.24407,-0.24407 -0.36611,-0.55113 -0.36611,-0.92118v-6.20023c0,-0.95661 -0.17715,-1.73606 -0.53145,-2.33837c-0.35036,-0.60624 -0.82473,-1.05502 -1.4231,-1.34633c-0.59443,-0.29525 -1.27744,-0.44287 -2.04903,-0.44287c-0.70466,0 -1.3424,0.14369 -1.91321,0.43106c-0.57081,0.28344 -1.0255,0.66529 -1.36405,1.14557c-0.33461,0.47633 -0.50192,1.0255 -0.50192,1.64749h-1.58844c0,-1.05896 0.25588,-2.00376 0.76765,-2.83439c0.5157,-0.83063 1.21839,-1.49002 2.10808,-1.97817c0.88968,-0.48814 1.88762,-0.73222 2.99382,-0.73222c1.16131,0 2.19862,0.24801 3.11192,0.74403c0.91724,0.49602 1.63961,1.22233 2.16713,2.17894c0.52751,0.95661 0.79127,2.1317 0.79127,3.52527v6.20023c0,0.37004 -0.12204,0.6771 -0.36611,0.92118c-0.24014,0.24014 -0.54523,0.3602 -0.91527,0.3602zM458.52248,62.0087c-0.37004,0 -0.6771,-0.12007 -0.92118,-0.3602c-0.24407,-0.24407 -0.36611,-0.55113 -0.36611,-0.92118v-11.23717c0,-0.38579 0.12204,-0.69679 0.36611,-0.93299c0.24407,-0.2362 0.55113,-0.3543 0.92118,-0.3543c0.38579,0 0.69482,0.1181 0.92708,0.3543c0.2362,0.2362 0.3543,0.54719 0.3543,0.93299v11.23717c0,0.37004 -0.1181,0.6771 -0.3543,0.92118c-0.23226,0.24014 -0.54129,0.3602 -0.92708,0.3602zM472.90356,49.33662c-0.26769,0 -0.47437,-0.12204 -0.62002,-0.36611c-0.14172,-0.24407 -0.15353,-0.49995 -0.03543,-0.76765c0.30312,-0.68891 0.48814,-1.25186 0.55507,-1.68882c0.06692,-0.43697 0.07086,-0.81489 0.01181,-1.13376c-0.05905,-0.31887 -0.13188,-0.62396 -0.21848,-0.91527c-0.08267,-0.29525 -0.124,-0.6279 -0.124,-0.99794c0,-0.43697 0.15156,-0.79717 0.45468,-1.08061c0.30312,-0.28737 0.66529,-0.43106 1.08652,-0.43106c0.51964,0 0.92118,0.21848 1.20462,0.65545c0.28737,0.43697 0.43106,0.9822 0.43106,1.63568c0,0.43697 -0.09251,0.94086 -0.27753,1.51167c-0.18502,0.57081 -0.41728,1.12982 -0.69679,1.67701c-0.27556,0.54719 -0.57278,1.00188 -0.89165,1.36405c-0.31887,0.35823 -0.61215,0.53735 -0.87984,0.53735zM484.16441,61.98508c-0.83851,0 -1.59434,-0.21455 -2.26751,-0.64364c-0.67317,-0.42909 -1.20265,-1.01172 -1.58844,-1.74787c-0.38579,-0.74009 -0.57869,-1.57269 -0.57869,-2.49781v-12.01072c0,-0.37004 0.1181,-0.67317 0.3543,-0.90937c0.2362,-0.2362 0.53735,-0.3543 0.90346,-0.3543c0.37004,0 0.67317,0.1181 0.90937,0.3543c0.2362,0.2362 0.3543,0.53932 0.3543,0.90937v12.01072c0,0.67317 0.18305,1.23611 0.54916,1.68882c0.37004,0.45271 0.82473,0.67907 1.36405,0.67907h0.85622c0.30312,0 0.559,0.1181 0.76765,0.3543c0.20864,0.2362 0.31296,0.53932 0.31296,0.90937c0,0.37004 -0.13778,0.67317 -0.41335,0.90937c-0.27556,0.23226 -0.63183,0.34839 -1.0688,0.34839zM478.57239,50.87782c-0.3543,0 -0.64167,-0.10038 -0.86213,-0.30115c-0.21652,-0.20471 -0.32477,-0.45665 -0.32477,-0.75584c0,-0.33855 0.10826,-0.60821 0.32477,-0.80898c0.22045,-0.20077 0.50783,-0.30115 0.86213,-0.30115h5.8164c0.3543,0 0.63971,0.10038 0.85622,0.30115c0.22045,0.20077 0.33068,0.47043 0.33068,0.80898c0,0.29918 -0.11023,0.55113 -0.33068,0.75584c-0.21652,0.20077 -0.50192,0.30115 -0.85622,0.30115zM498.12146,61.98508c-0.31887,0 -0.60428,-0.11613 -0.85622,-0.34839c-0.25195,-0.2362 -0.37792,-0.54916 -0.37792,-0.93889v-12.41817c0,-1.20855 0.23817,-2.25767 0.7145,-3.14735c0.48027,-0.88968 1.14753,-1.58253 2.00179,-2.07855c0.85819,-0.49602 1.85023,-0.74403 2.97611,-0.74403c0.37004,0 0.67514,0.11023 0.91527,0.33068c0.24407,0.21652 0.36611,0.49208 0.36611,0.8267c0,0.3228 -0.12204,0.59837 -0.36611,0.8267c-0.24014,0.22439 -0.54523,0.33658 -0.91527,0.33658c-0.62199,0 -1.16919,0.14369 -1.64158,0.43106c-0.46846,0.28344 -0.8326,0.6771 -1.09242,1.181c-0.25982,0.50389 -0.38973,1.10029 -0.38973,1.78921v12.66618c0,0.38973 -0.1181,0.70269 -0.3543,0.93889c-0.2362,0.23226 -0.56294,0.34839 -0.98023,0.34839zM495.8008,50.87782c-0.35036,0 -0.63577,-0.10038 -0.85622,-0.30115c-0.21652,-0.20471 -0.32477,-0.45665 -0.32477,-0.75584c0,-0.33855 0.10826,-0.60821 0.32477,-0.80898c0.22045,-0.20077 0.50586,-0.30115 0.85622,-0.30115h6.22385c0.35036,0 0.6338,0.10038 0.85032,0.30115c0.22045,0.20077 0.33068,0.47043 0.33068,0.80898c0,0.29918 -0.11023,0.55113 -0.33068,0.75584c-0.21652,0.20077 -0.49995,0.30115 -0.85032,0.30115zM511.12003,62.08547c-1.22824,0 -2.3305,-0.30509 -3.30679,-0.91527c-0.97235,-0.61412 -1.74,-1.44672 -2.30294,-2.49781c-0.56294,-1.05109 -0.84441,-2.23996 -0.84441,-3.56661c0,-1.32665 0.30706,-2.51749 0.92118,-3.57251c0.61412,-1.05896 1.44475,-1.8955 2.4919,-2.50962c1.05109,-0.61412 2.23208,-0.92118 3.54299,-0.92118c1.31091,0 2.486,0.30706 3.52527,0.92118c1.04321,0.61412 1.86991,1.45066 2.48009,2.50962c0.61412,1.05502 0.92118,2.24586 0.92118,3.57251h-0.98023c0,1.32665 -0.28147,2.51552 -0.84441,3.56661c-0.56294,1.05109 -1.33256,1.88369 -2.30885,2.49781c-0.97235,0.61018 -2.07068,0.91527 -3.29498,0.91527zM511.62195,59.81796c0.85425,0 1.61796,-0.20471 2.29113,-0.61412c0.67317,-0.41335 1.20265,-0.97629 1.58844,-1.68882c0.38579,-0.71647 0.57869,-1.51955 0.57869,-2.40923c0,-0.90543 -0.1929,-1.71441 -0.57869,-2.42695c-0.38579,-0.71647 -0.91527,-1.27941 -1.58844,-1.68882c-0.67317,-0.41335 -1.43688,-0.62002 -2.29113,-0.62002c-0.83851,0 -1.59828,0.20667 -2.27932,0.62002c-0.68104,0.40941 -1.21839,0.97235 -1.61206,1.68882c-0.39366,0.71253 -0.5905,1.52152 -0.5905,2.42695c0,0.88968 0.19683,1.69276 0.5905,2.40923c0.39366,0.71253 0.93102,1.27548 1.61206,1.68882c0.68104,0.40941 1.44081,0.61412 2.27932,0.61412zM517.26121,62.0087c-0.36611,0 -0.6712,-0.12007 -0.91527,-0.3602c-0.24407,-0.24407 -0.36611,-0.55113 -0.36611,-0.92118v-3.85595l0.4783,-2.66905l2.09036,0.90346v5.62154c0,0.37004 -0.12204,0.6771 -0.36611,0.92118c-0.24407,0.24014 -0.55113,0.3602 -0.92118,0.3602zM525.65546,61.98508c-0.74009,0 -1.39554,-0.20077 -1.96636,-0.60231c-0.57081,-0.40547 -1.01566,-0.95661 -1.33452,-1.65339c-0.31887,-0.69679 -0.4783,-1.4979 -0.4783,-2.40333v-13.75269c0,-0.37004 0.11613,-0.67317 0.34839,-0.90937c0.2362,-0.2362 0.53932,-0.3543 0.90937,-0.3543c0.37004,0 0.6712,0.1181 0.90346,0.3543c0.2362,0.2362 0.3543,0.53932 0.3543,0.90937v13.75269c0,0.62199 0.1181,1.13376 0.3543,1.53529c0.2362,0.40154 0.53932,0.60231 0.90937,0.60231h0.62593c0.33461,0 0.60624,0.1181 0.81489,0.3543c0.21258,0.2362 0.31887,0.53932 0.31887,0.90937c0,0.37004 -0.15943,0.67317 -0.4783,0.90937c-0.31887,0.23226 -0.73025,0.34839 -1.23414,0.34839zM533.21266,61.98508c-0.74009,0 -1.39554,-0.20077 -1.96636,-0.60231c-0.57081,-0.40547 -1.01566,-0.95661 -1.33452,-1.65339c-0.31887,-0.69679 -0.4783,-1.4979 -0.4783,-2.40333v-13.75269c0,-0.37004 0.11613,-0.67317 0.34839,-0.90937c0.2362,-0.2362 0.53932,-0.3543 0.90937,-0.3543c0.37004,0 0.6712,0.1181 0.90346,0.3543c0.2362,0.2362 0.3543,0.53932 0.3543,0.90937v13.75269c0,0.62199 0.1181,1.13376 0.3543,1.53529c0.2362,0.40154 0.53932,0.60231 0.90937,0.60231h0.62593c0.33461,0 0.60624,0.1181 0.81489,0.3543c0.21258,0.2362 0.31887,0.53932 0.31887,0.90937c0,0.37004 -0.15943,0.67317 -0.4783,0.90937c-0.31887,0.23226 -0.73025,0.34839 -1.23414,0.34839z" data-paper-data="{&quot;origPos&quot;:null}" fill="#998c76" stroke="#998c76" stroke-width="1" stroke-linecap="square"/></g></g></svg>