<svg version="1.1" xmlns="http://www.w3.org/2000/svg" xmlns:xlink="http://www.w3.org/1999/xlink" width="45.68425" height="45.68425"><g transform="translate(-219.65698,-153.95389)"><g data-paper-data="{&quot;isPaintingLayer&quot;:true}" fill="none" fill-rule="nonzero" stroke="none" stroke-width="none" stroke-linecap="none" stroke-linejoin="miter" stroke-miterlimit="10" stroke-dasharray="" stroke-dashoffset="0" font-family="none" font-weight="none" font-size="none" text-anchor="none" style="mix-blend-mode: normal"><path d="M222.52759,175.91663c0,-10.54429 8.54784,-19.09213 19.09213,-19.09213c10.54429,0 19.09213,8.54783 19.09213,19.09213c0,10.54429 -8.54784,19.09213 -19.09213,19.09213c-10.54429,0 -19.09213,-8.54783 -19.09213,-19.09213z" data-paper-data="{&quot;origPos&quot;:null}" fill="#e3e3e3" stroke="none" stroke-width="0.5" stroke-linecap="butt"/><path d="M260.71182,175.91663c0,10.54429 -8.54784,19.09213 -19.09213,19.09213c-10.54429,0 19.09213,-29.63643 19.09213,-19.09213z" data-paper-data="{&quot;origPos&quot;:null}" fill="#e0e0e0" stroke="none" stroke-width="0.5" stroke-linecap="butt"/><path d="M223.40699,176.79602c0,-10.5443 8.54784,-19.09213 19.09213,-19.09213c10.54429,0 19.09212,8.54784 19.09212,19.09213c0,10.5443 -8.54783,19.09212 -19.09212,19.09212c-10.54429,0 -19.09213,-8.54783 -19.09213,-19.09212z" data-paper-data="{&quot;origPos&quot;:null}" fill="none" stroke="#bababa" stroke-width="7.5" stroke-linecap="butt"/><path d="M222.52759,175.91663c0,-10.5443 8.54784,-19.09212 19.09213,-19.09212c10.54429,0 19.09213,8.54783 19.09213,19.09212c0,10.5443 -8.54784,19.09213 -19.09213,19.09213c-10.54429,0 -19.09213,-8.54783 -19.09213,-19.09213z" data-paper-data="{&quot;origPos&quot;:null}" fill="none" stroke="#d1d1d1" stroke-width="2.5" stroke-linecap="butt"/><path d="M250.41684,169.98719c0,0 -8.58916,11.79579 -9.4548,12.9846c-0.28854,0.39627 -1.07509,0.61416 -1.28997,0.35735c-0.64465,-0.77043 -5.02221,-6.00215 -5.02221,-6.00215" data-paper-data="{&quot;origPos&quot;:null}" fill="none" stroke="#d1d1d1" stroke-width="6.5" stroke-linecap="round"/><path d="M250.41685,169.98719c0,0 -8.58917,11.7958 -9.45481,12.98461c-0.28855,0.39627 -1.07509,0.61416 -1.28997,0.35735c-0.64465,-0.77043 -5.02221,-6.00214 -5.02221,-6.00214" data-paper-data="{&quot;origPos&quot;:null}" fill="none" stroke="#bababa" stroke-width="5" stroke-linecap="round"/></g></g></svg>