<svg version="1.1" xmlns="http://www.w3.org/2000/svg" xmlns:xlink="http://www.w3.org/1999/xlink" width="425.77069" height="270.15923"><g transform="translate(-96.56485,84.70514)"><g data-paper-data="{&quot;isPaintingLayer&quot;:true}" fill="none" fill-rule="nonzero" stroke="none" stroke-width="none" stroke-linecap="none" stroke-linejoin="miter" stroke-miterlimit="10" stroke-dasharray="" stroke-dashoffset="0" font-family="none" font-weight="none" font-size="none" text-anchor="none" style="mix-blend-mode: normal"><path d="M165.22439,13.46072c0,0 1.15093,25.13922 1.3703,29.93086c0.07312,1.59721 -1.48535,4.21229 -2.55599,4.28885c-3.21191,0.2297 -13.57545,0.97084 -13.57545,0.97084" data-paper-data="{&quot;origPos&quot;:null,&quot;origRot&quot;:0}" fill="none" stroke="#7da17c" stroke-width="17.5" stroke-linecap="round"/><path d="M146.55666,100.55374l-2.88919,-74.18636" data-paper-data="{&quot;origPos&quot;:null,&quot;origRot&quot;:0}" fill="none" stroke="#739472" stroke-width="17.5" stroke-linecap="round"/><path d="M142.22072,69.33849c0,0 -7.90034,-0.06866 -12.95695,-0.1126c-1.8592,-0.01616 -4.79472,-2.51819 -4.81442,-4.10346c-0.05907,-4.7558 -0.37256,-29.99524 -0.37256,-29.99524" data-paper-data="{&quot;origPos&quot;:null,&quot;origRot&quot;:0}" fill="none" stroke="#739472" stroke-width="17.5" stroke-linecap="round"/><path d="M127.68421,184.87495c0,0 9.04063,-36.38326 26.5421,-45.20292c22.16286,-11.16871 52.27229,-2.74729 75.66171,-2.74729c39.75022,0 34.53303,47.95021 34.53303,47.95021z" data-paper-data="{&quot;origPos&quot;:null}" fill="#998c76" stroke="none" stroke-width="0" stroke-linecap="butt"/><path d="M159.68421,159.87495c0,0 9.04063,-36.38326 26.5421,-45.20292c22.16286,-11.16871 52.27229,-2.74729 75.66171,-2.74729c39.75022,0 34.53303,47.95021 34.53303,47.95021z" data-paper-data="{&quot;origPos&quot;:null}" fill="#998c76" stroke="none" stroke-width="0" stroke-linecap="butt"/><path d="M128.56485,169.27494c0,0 9.04063,-36.38326 26.5421,-45.20292c22.16286,-11.16871 52.27229,-2.74729 75.66171,-2.74729c39.75022,0 34.53303,47.95021 34.53303,47.95021z" data-paper-data="{&quot;origPos&quot;:null}" fill="#776d5b" stroke="none" stroke-width="0" stroke-linecap="butt"/><path d="M200.97098,153.33933c0,0 8.69771,-33.6153 19.93963,-38.16821c14.23612,-5.76554 31.43378,9.57834 45.3873,15.07171c23.71394,9.33595 16.24669,55.21126 16.24669,55.21126z" data-paper-data="{&quot;origPos&quot;:null,&quot;origRot&quot;:0}" fill="#776d5b" stroke="none" stroke-width="0" stroke-linecap="butt"/><path d="M122.68421,152.87495c0,0 9.04063,-36.38326 26.5421,-45.20292c22.16286,-11.16871 52.27229,-2.74729 75.66171,-2.74729c39.75022,0 34.53303,47.95021 34.53303,47.95021z" data-paper-data="{&quot;origPos&quot;:null}" fill="#998c76" stroke="none" stroke-width="0" stroke-linecap="butt"/><path d="M96.56485,150.27494c0,0 9.04063,-36.38326 26.5421,-45.20292c22.16286,-11.16871 52.27229,-2.74729 75.66171,-2.74729c39.75022,0 34.53303,47.95021 34.53303,47.95021z" data-paper-data="{&quot;origPos&quot;:null}" fill="#776d5b" stroke="none" stroke-width="0" stroke-linecap="butt"/><path d="M168.97098,134.33933c0,0 8.69771,-33.6153 19.93963,-38.16821c14.23612,-5.76554 31.43378,9.57834 45.3873,15.07171c23.71394,9.33595 16.24669,55.21126 16.24669,55.21126z" data-paper-data="{&quot;origPos&quot;:null,&quot;origRot&quot;:0}" fill="#776d5b" stroke="none" stroke-width="0" stroke-linecap="butt"/><path d="M198.68422,159.87495c0,0 9.04063,-36.38326 26.5421,-45.20292c22.16286,-11.16871 52.27229,-2.74729 75.6617,-2.74729c39.75022,0 34.53303,47.95021 34.53303,47.95021z" data-paper-data="{&quot;origPos&quot;:null}" fill="#998c76" stroke="none" stroke-width="0" stroke-linecap="butt"/><path d="M167.56485,169.27495c0,0 9.04063,-36.38326 26.5421,-45.20292c22.16286,-11.16871 52.27229,-2.74729 75.6617,-2.74729c39.75022,0 34.53304,47.95021 34.53304,47.95021z" data-paper-data="{&quot;origPos&quot;:null}" fill="#776d5b" stroke="none" stroke-width="0" stroke-linecap="butt"/><path d="M239.97099,153.33933c0,0 8.69771,-33.6153 19.93963,-38.16821c14.23612,-5.76554 31.43378,9.57834 45.38729,15.07171c23.71393,9.33595 16.24669,55.21126 16.24669,55.21126z" data-paper-data="{&quot;origPos&quot;:null,&quot;origRot&quot;:0}" fill="#776d5b" stroke="none" stroke-width="0" stroke-linecap="butt"/><path d="M154.68421,127.87495c0,0 9.04063,-36.38326 26.5421,-45.20292c22.16286,-11.16871 52.27229,-2.74729 75.66171,-2.74729c39.75022,0 34.53303,47.95021 34.53303,47.95021z" data-paper-data="{&quot;origPos&quot;:null}" fill="#998c76" stroke="none" stroke-width="0" stroke-linecap="butt"/><path d="M123.56485,137.27494c0,0 9.04063,-36.38326 26.5421,-45.20292c22.16286,-11.16871 52.27229,-2.74729 75.66171,-2.74729c39.75022,0 34.53303,47.95021 34.53303,47.95021z" data-paper-data="{&quot;origPos&quot;:null}" fill="#776d5b" stroke="none" stroke-width="0" stroke-linecap="butt"/><path d="M195.97098,121.33933c0,0 8.69771,-33.6153 19.93963,-38.16821c14.23612,-5.76554 31.43378,9.57834 45.3873,15.07171c23.71394,9.33595 16.24669,55.21126 16.24669,55.21126z" data-paper-data="{&quot;origPos&quot;:null,&quot;origRot&quot;:0}" fill="#776d5b" stroke="none" stroke-width="0" stroke-linecap="butt"/><path d="M207.68422,151.87495c0,0 9.04063,-36.38326 26.5421,-45.20292c22.16286,-11.16871 52.27229,-2.74729 75.6617,-2.74729c39.75022,0 34.53303,47.95021 34.53303,47.95021z" data-paper-data="{&quot;origPos&quot;:null}" fill="#998c76" stroke="none" stroke-width="0" stroke-linecap="butt"/><path d="M181.56485,161.27495c0,0 9.04063,-36.38326 26.5421,-45.20292c22.16286,-11.16871 52.27229,-2.74729 75.6617,-2.74729c39.75022,0 34.53304,47.95021 34.53304,47.95021z" data-paper-data="{&quot;origPos&quot;:null}" fill="#776d5b" stroke="none" stroke-width="0" stroke-linecap="butt"/><path d="M512.22439,-21.53928c0,0 1.15093,25.13922 1.3703,29.93086c0.07312,1.59721 -1.48535,4.21229 -2.55599,4.28885c-3.21191,0.2297 -13.57545,0.97084 -13.57545,0.97084" data-paper-data="{&quot;origPos&quot;:null,&quot;origRot&quot;:0}" fill="none" stroke="#7da17c" stroke-width="17.5" stroke-linecap="round"/><path d="M493.55666,65.55374l-2.88919,-74.18636" data-paper-data="{&quot;origPos&quot;:null,&quot;origRot&quot;:0}" fill="none" stroke="#739472" stroke-width="17.5" stroke-linecap="round"/><path d="M489.22072,34.33849c0,0 -7.90034,-0.06866 -12.95695,-0.1126c-1.8592,-0.01616 -4.79472,-2.51819 -4.81442,-4.10346c-0.05907,-4.7558 -0.37256,-29.99524 -0.37256,-29.99524" data-paper-data="{&quot;origPos&quot;:null,&quot;origRot&quot;:0}" fill="none" stroke="#739472" stroke-width="17.5" stroke-linecap="round"/><path d="M238.25438,-64.4027c-0.29768,0 -0.56301,-0.0906 -0.79598,-0.2718c-0.23297,-0.1812 -0.39799,-0.43035 -0.49506,-0.74745l-4.99915,-16.59912c-0.16178,-0.55007 -0.14884,-0.98365 0.03883,-1.30075c0.19414,-0.32357 0.50477,-0.48535 0.93188,-0.48535c0.28474,0 0.54036,0.07766 0.76686,0.23297c0.23297,0.15531 0.40123,0.39799 0.50477,0.72803l4.34877,15.16247h-0.5533l4.02844,-15.00715c0.06471,-0.25238 0.21356,-0.45947 0.44653,-0.62125c0.23297,-0.16826 0.4983,-0.25238 0.79598,-0.25238c0.26533,0 0.51771,0.07119 0.75715,0.21356c0.23944,0.14237 0.39475,0.35269 0.46594,0.63096l4.04785,15.03628h-0.49506l4.36819,-15.27895c0.16826,-0.56301 0.59213,-0.84452 1.27163,-0.84452c0.45947,0 0.75392,0.17796 0.88334,0.53389c0.1359,0.35593 0.13914,0.77333 0.00971,1.25221l-4.99915,16.57c-0.11649,0.3171 -0.28798,0.57272 -0.51448,0.76686c-0.22003,0.18767 -0.47888,0.28151 -0.77657,0.28151c-0.31063,0 -0.57919,-0.09707 -0.80569,-0.29121c-0.2265,-0.20061 -0.38828,-0.44329 -0.48535,-0.72803l-3.99932,-15.45368h0.59213l-4.04785,15.42456c-0.11649,0.3171 -0.28798,0.57272 -0.51448,0.76686c-0.22003,0.18767 -0.47888,0.28151 -0.77657,0.28151zM260.12132,-64.30563c-1.21015,0 -2.29734,-0.30092 -3.26158,-0.90276c-0.95776,-0.60831 -1.71492,-1.43018 -2.27146,-2.4656c-0.55007,-1.03542 -0.8251,-2.20675 -0.8251,-3.51397c0,-1.30722 0.30092,-2.48178 0.90276,-3.52367c0.60831,-1.04837 1.43018,-1.87347 2.4656,-2.47531c1.03542,-0.60831 2.19704,-0.91247 3.48484,-0.91247c1.29428,0 2.45266,0.30416 3.47514,0.91247c1.02895,0.60184 1.84435,1.42694 2.44619,2.47531c0.60831,1.04189 0.91247,2.21645 0.91247,3.52367h-0.97071c0,1.30722 -0.27827,2.47854 -0.83481,3.51397c-0.55007,1.03542 -1.30722,1.85729 -2.27146,2.4656c-0.95776,0.60184 -2.04172,0.90276 -3.25187,0.90276zM260.61638,-66.53826c0.84775,0 1.60167,-0.20385 2.26175,-0.61155c0.66655,-0.4077 1.1875,-0.961 1.56284,-1.65991c0.38181,-0.70538 0.57272,-1.49813 0.57272,-2.37824c0,-0.89305 -0.1909,-1.69227 -0.57272,-2.39765c-0.37534,-0.70538 -0.89629,-1.25868 -1.56284,-1.65991c-0.66008,-0.4077 -1.414,-0.61155 -2.26175,-0.61155c-0.82834,0 -1.57902,0.20385 -2.25204,0.61155c-0.66655,0.40123 -1.19397,0.95453 -1.58225,1.65991c-0.38828,0.70538 -0.58243,1.5046 -0.58243,2.39765c0,0.88011 0.19414,1.67286 0.58243,2.37824c0.38828,0.69891 0.9157,1.25221 1.58225,1.65991c0.67303,0.4077 1.4237,0.61155 2.25204,0.61155zM266.18825,-64.37358c-0.36887,0 -0.67303,-0.11972 -0.91247,-0.35916c-0.23944,-0.24591 -0.35916,-0.55007 -0.35916,-0.91247v-3.80518l0.47565,-2.63062l2.0579,0.89305v5.54275c0,0.3624 -0.11972,0.66655 -0.35916,0.91247c-0.23944,0.23944 -0.54036,0.35916 -0.90276,0.35916zM276.17682,-64.4027c-0.82834,0 -1.57578,-0.21032 -2.24234,-0.63096c-0.66008,-0.42711 -1.18103,-1.00307 -1.56284,-1.72786c-0.38181,-0.73127 -0.57272,-1.55313 -0.57272,-2.4656v-11.85235c0,-0.3624 0.11649,-0.66008 0.34946,-0.89305c0.23297,-0.23297 0.53065,-0.34946 0.89305,-0.34946c0.36887,0 0.66655,0.11649 0.89305,0.34946c0.23297,0.23297 0.34946,0.53065 0.34946,0.89305v11.85235c0,0.66655 0.1812,1.22309 0.5436,1.66962c0.36887,0.44653 0.81863,0.66979 1.34928,0.66979h0.84452c0.29768,0 0.55007,0.11649 0.75715,0.34946c0.20709,0.23297 0.31063,0.53065 0.31063,0.89305c0,0.3624 -0.13914,0.66008 -0.4174,0.89305c-0.2718,0.23297 -0.62125,0.34946 -1.04837,0.34946zM270.6632,-75.362c-0.34946,0 -0.6342,-0.09707 -0.85422,-0.29121c-0.21356,-0.20061 -0.32033,-0.44976 -0.32033,-0.74745c0,-0.33651 0.10678,-0.60184 0.32033,-0.79598c0.22003,-0.20061 0.50477,-0.30092 0.85422,-0.30092h5.73689c0.34946,0 0.63096,0.10031 0.84452,0.30092c0.21356,0.19414 0.32033,0.45947 0.32033,0.79598c0,0.29768 -0.10678,0.54683 -0.32033,0.74745c-0.21356,0.19414 -0.49506,0.29121 -0.84452,0.29121zM287.57836,-64.30563c-1.37194,0 -2.59179,-0.29445 -3.65957,-0.88334c-1.06778,-0.5889 -1.90583,-1.40106 -2.51414,-2.43648c-0.60184,-1.03542 -0.90276,-2.22292 -0.90276,-3.5625c0,-1.35899 0.28474,-2.5562 0.85422,-3.59162c0.56948,-1.03542 1.35899,-1.84758 2.36853,-2.43648c1.01601,-0.5889 2.17762,-0.88334 3.48484,-0.88334c1.29428,0 2.40412,0.28798 3.32953,0.86393c0.92541,0.56948 1.63079,1.35576 2.11614,2.35882c0.49182,1.00307 0.73774,2.15821 0.73774,3.46543c0,0.3171 -0.10678,0.57919 -0.32033,0.78627c-0.21356,0.20709 -0.48535,0.31063 -0.8154,0.31063h-10.01771v-1.98995h9.94006l-1.01924,0.69891c-0.01941,-0.82834 -0.18767,-1.56931 -0.50477,-2.22292c-0.31063,-0.66008 -0.75715,-1.17779 -1.33958,-1.55313c-0.57595,-0.38181 -1.2781,-0.57272 -2.10644,-0.57272c-0.94482,0 -1.75375,0.20709 -2.42677,0.62125c-0.66655,0.41417 -1.17456,0.98042 -1.52401,1.69874c-0.34946,0.71832 -0.52418,1.53372 -0.52418,2.44619c0,0.91247 0.20709,1.72462 0.62125,2.43648c0.41417,0.71185 0.98365,1.27486 1.70845,1.68903c0.73127,0.41417 1.56931,0.62125 2.51414,0.62125c0.51771,0 1.04513,-0.09383 1.58225,-0.28151c0.53713,-0.19414 0.97071,-0.41417 1.30075,-0.66008c0.25238,-0.1812 0.52095,-0.27504 0.80569,-0.28151c0.29121,-0.01294 0.54683,0.07119 0.76686,0.25238c0.27827,0.25238 0.42388,0.52742 0.43682,0.8251c0.01941,0.29768 -0.11001,0.5533 -0.38828,0.76686c-0.56301,0.44653 -1.26516,0.81216 -2.10644,1.0969c-0.83481,0.27827 -1.63403,0.4174 -2.39765,0.4174zM297.84611,-72.90611c0,-0.99012 0.24268,-1.8767 0.72803,-2.65974c0.49182,-0.78951 1.15191,-1.41723 1.98025,-1.88317c0.82834,-0.46594 1.73757,-0.69891 2.72769,-0.69891c0.99659,0 1.73757,0.16178 2.22292,0.48535c0.49182,0.32357 0.6795,0.70862 0.56301,1.15514c-0.0453,0.23297 -0.13914,0.41417 -0.28151,0.5436c-0.14237,0.12296 -0.30416,0.20061 -0.48535,0.23297c-0.1812,0.03236 -0.38181,0.02265 -0.60184,-0.02912c-1.05484,-0.21356 -2.00613,-0.22973 -2.85388,-0.04854c-0.84775,0.1812 -1.51754,0.52095 -2.00937,1.01924c-0.48535,0.4983 -0.72803,1.12602 -0.72803,1.88317zM297.86553,-64.4027c-0.39475,0 -0.70215,-0.10354 -0.92217,-0.31063c-0.21356,-0.20709 -0.32033,-0.51771 -0.32033,-0.93188v-11.10491c0,-0.40123 0.10678,-0.70862 0.32033,-0.92217c0.22003,-0.21356 0.52742,-0.32033 0.92217,-0.32033c0.41417,0 0.72479,0.10354 0.93188,0.31063c0.20709,0.20709 0.31063,0.51771 0.31063,0.93188v11.10491c0,0.39475 -0.10354,0.70215 -0.31063,0.92217c-0.20709,0.21356 -0.51771,0.32033 -0.93188,0.32033zM313.27222,-69.00386c-0.3624,0 -0.66332,-0.11972 -0.90276,-0.35916c-0.23944,-0.23944 -0.35916,-0.54036 -0.35916,-0.90276c0,-0.64714 0.16502,-1.35576 0.49506,-2.12585c0.33004,-0.7701 0.84452,-1.45283 1.54343,-2.0482c0.45947,-0.40123 0.88334,-0.79598 1.27163,-1.18426c0.39475,-0.38828 0.71185,-0.83481 0.95129,-1.33958c0.23944,-0.50477 0.35916,-1.12279 0.35916,-1.85405c0,-0.53065 -0.12619,-1.02571 -0.37858,-1.48518c-0.24591,-0.46594 -0.5986,-0.84452 -1.05807,-1.13573c-0.453,-0.29121 -1.00954,-0.43682 -1.66962,-0.43682c-0.80892,0 -1.47871,0.14884 -2.00937,0.44653c-0.53065,0.29768 -0.92541,0.71185 -1.18426,1.24251c-0.25885,0.53065 -0.38828,1.15191 -0.38828,1.86376c0,0.36887 -0.11649,0.67303 -0.34946,0.91247c-0.2265,0.23944 -0.53065,0.35916 -0.91247,0.35916c-0.3624,0 -0.66655,-0.11972 -0.91247,-0.35916c-0.23944,-0.23944 -0.35916,-0.5436 -0.35916,-0.91247c0,-1.15838 0.25238,-2.17439 0.75715,-3.04802c0.50477,-0.88011 1.21662,-1.57255 2.13556,-2.07732c0.92541,-0.50477 1.99966,-0.75715 3.22275,-0.75715c1.07425,0 2.02878,0.2265 2.86359,0.6795c0.84128,0.453 1.5046,1.08396 1.98995,1.89288c0.49182,0.80245 0.73774,1.74081 0.73774,2.81505c0,0.93188 -0.14884,1.73757 -0.44653,2.41706c-0.29768,0.67303 -0.70538,1.28134 -1.22309,1.82493c-0.51124,0.53713 -1.0969,1.07102 -1.75698,1.60167c-0.43358,0.34946 -0.7345,0.80245 -0.90276,1.35899c-0.16178,0.55007 -0.24268,0.99983 -0.24268,1.34928c0,0.3624 -0.11649,0.66332 -0.34946,0.90276c-0.23297,0.23944 -0.54036,0.35916 -0.92217,0.35916zM313.27222,-64.4027c-0.45947,0 -0.86069,-0.16826 -1.20368,-0.50477c-0.33651,-0.34298 -0.50477,-0.74745 -0.50477,-1.21339c0,-0.47888 0.16826,-0.88658 0.50477,-1.22309c0.34298,-0.34298 0.74421,-0.51448 1.20368,-0.51448c0.48535,0 0.89629,0.17149 1.2328,0.51448c0.34298,0.33651 0.51448,0.74421 0.51448,1.22309c0,0.46594 -0.17149,0.8704 -0.51448,1.21339c-0.33651,0.33651 -0.74745,0.50477 -1.2328,0.50477zM335.56356,-64.4027c-0.3624,0 -0.66979,-0.12296 -0.92217,-0.36887c-0.24591,-0.25238 -0.36887,-0.55977 -0.36887,-0.92217v-18.11342h2.58208v18.11342c0,0.3624 -0.12296,0.66979 -0.36887,0.92217c-0.24591,0.24591 -0.5533,0.36887 -0.92217,0.36887zM328.9045,-81.42893c-0.34298,0 -0.62772,-0.11001 -0.85422,-0.33004c-0.2265,-0.2265 -0.33975,-0.51124 -0.33975,-0.85422c0,-0.34946 0.11325,-0.6342 0.33975,-0.85422c0.2265,-0.2265 0.51124,-0.33975 0.85422,-0.33975h13.29871c0.34946,0 0.6342,0.11325 0.85422,0.33975c0.2265,0.22003 0.33975,0.50477 0.33975,0.85422c0,0.34298 -0.11325,0.62772 -0.33975,0.85422c-0.22003,0.22003 -0.50477,0.33004 -0.85422,0.33004zM347.27573,-64.4027c-0.36887,0 -0.67303,-0.11972 -0.91247,-0.35916c-0.23944,-0.23944 -0.35916,-0.5436 -0.35916,-0.91247v-11.05637c0,-0.38181 0.11972,-0.68597 0.35916,-0.91247c0.23944,-0.23297 0.5436,-0.34946 0.91247,-0.34946c0.37534,0 0.6795,0.11649 0.91247,0.34946c0.23297,0.2265 0.34946,0.53065 0.34946,0.91247v11.05637c0,0.36887 -0.11649,0.67303 -0.34946,0.91247c-0.23297,0.23944 -0.53713,0.35916 -0.91247,0.35916zM347.49899,-80.20584c-0.453,0 -0.84128,-0.16178 -1.16485,-0.48535c-0.3171,-0.32357 -0.47565,-0.70862 -0.47565,-1.15514c0,-0.44653 0.15855,-0.83157 0.47565,-1.15514c0.32357,-0.32357 0.71185,-0.48535 1.16485,-0.48535c0.44653,0 0.83157,0.16178 1.15514,0.48535c0.32357,0.32357 0.48535,0.70862 0.48535,1.15514c0,0.44653 -0.16178,0.83157 -0.48535,1.15514c-0.32357,0.32357 -0.70862,0.48535 -1.15514,0.48535zM371.09807,-64.37358c-0.3624,0 -0.66332,-0.11972 -0.90276,-0.35916c-0.23944,-0.24591 -0.35916,-0.55007 -0.35916,-0.91247v-7.10559c0,-1.04189 -0.25885,-1.81523 -0.77657,-2.31999c-0.51124,-0.51124 -1.18103,-0.76686 -2.00937,-0.76686c-0.86069,0 -1.56931,0.30092 -2.12585,0.90276c-0.55007,0.59537 -0.8251,1.35576 -0.8251,2.28117h-2.06761c0,-1.07425 0.22973,-2.02231 0.6892,-2.84418c0.46594,-0.82187 1.11631,-1.46253 1.95112,-1.922c0.84128,-0.46594 1.79905,-0.69891 2.8733,-0.69891c0.94482,0 1.78287,0.20709 2.51414,0.62125c0.73127,0.41417 1.29751,1.02248 1.69874,1.82493c0.4077,0.80245 0.61155,1.7764 0.61155,2.92183v7.10559c0,0.3624 -0.11649,0.66655 -0.34946,0.91247c-0.23297,0.23944 -0.54036,0.35916 -0.92217,0.35916zM354.52807,-64.37358c-0.3624,0 -0.66655,-0.11972 -0.91247,-0.35916c-0.23944,-0.24591 -0.35916,-0.55007 -0.35916,-0.91247v-11.05637c0,-0.38181 0.11972,-0.6892 0.35916,-0.92217c0.24591,-0.23297 0.55007,-0.34946 0.91247,-0.34946c0.38181,0 0.6892,0.11649 0.92217,0.34946c0.23297,0.23297 0.34946,0.54036 0.34946,0.92217v11.05637c0,0.3624 -0.11649,0.66655 -0.34946,0.91247c-0.23297,0.23944 -0.54036,0.35916 -0.92217,0.35916zM362.82763,-64.37358c-0.3624,0 -0.66655,-0.11972 -0.91247,-0.35916c-0.23944,-0.24591 -0.35916,-0.55007 -0.35916,-0.91247v-7.10559c0,-1.04189 -0.25562,-1.81523 -0.76686,-2.31999c-0.51124,-0.51124 -1.18103,-0.76686 -2.00937,-0.76686c-0.86069,0 -1.57255,0.30092 -2.13556,0.90276c-0.56301,0.59537 -0.84452,1.35576 -0.84452,2.28117h-1.57255c0,-1.07425 0.21356,-2.02231 0.64067,-2.84418c0.43358,-0.82187 1.03219,-1.46253 1.79581,-1.922c0.76362,-0.46594 1.63403,-0.69891 2.61121,-0.69891c0.94482,0 1.77963,0.20709 2.50443,0.62125c0.73127,0.41417 1.30075,1.02248 1.70845,1.82493c0.4077,0.80245 0.61155,1.7764 0.61155,2.92183v7.10559c0,0.3624 -0.11649,0.66655 -0.34946,0.91247c-0.23297,0.23944 -0.54036,0.35916 -0.92217,0.35916zM382.95311,-64.30563c-1.37194,0 -2.59179,-0.29445 -3.65957,-0.88334c-1.06778,-0.5889 -1.90583,-1.40106 -2.51414,-2.43648c-0.60184,-1.03542 -0.90276,-2.22292 -0.90276,-3.5625c0,-1.35899 0.28474,-2.5562 0.85422,-3.59162c0.56948,-1.03542 1.35899,-1.84758 2.36853,-2.43648c1.01601,-0.5889 2.17762,-0.88334 3.48484,-0.88334c1.29428,0 2.40411,0.28798 3.32951,0.86393c0.92541,0.56948 1.63079,1.35576 2.11614,2.35882c0.49182,1.00307 0.73774,2.15821 0.73774,3.46543c0,0.3171 -0.10678,0.57919 -0.32033,0.78627c-0.21356,0.20709 -0.48535,0.31063 -0.8154,0.31063h-10.01769v-1.98995h9.94004l-1.01924,0.69891c-0.01941,-0.82834 -0.18767,-1.56931 -0.50477,-2.22292c-0.31063,-0.66008 -0.75715,-1.17779 -1.33956,-1.55313c-0.57595,-0.38181 -1.2781,-0.57272 -2.10644,-0.57272c-0.94482,0 -1.75375,0.20709 -2.42677,0.62125c-0.66655,0.41417 -1.17456,0.98042 -1.52401,1.69874c-0.34946,0.71832 -0.52418,1.53372 -0.52418,2.44619c0,0.91247 0.20709,1.72462 0.62125,2.43648c0.41417,0.71185 0.98365,1.27486 1.70845,1.68903c0.73127,0.41417 1.56931,0.62125 2.51414,0.62125c0.51771,0 1.04513,-0.09383 1.58225,-0.28151c0.53711,-0.19414 0.97069,-0.41417 1.30073,-0.66008c0.25238,-0.1812 0.52095,-0.27504 0.80569,-0.28151c0.29121,-0.01294 0.54683,0.07119 0.76686,0.25238c0.27827,0.25238 0.42388,0.52742 0.43682,0.8251c0.01941,0.29768 -0.11001,0.5533 -0.38828,0.76686c-0.56301,0.44653 -1.26516,0.81216 -2.10644,1.0969c-0.8348,0.27827 -1.63401,0.4174 -2.39763,0.4174zM404.22947,-64.4027c-0.82834,0 -1.57578,-0.21032 -2.24234,-0.63096c-0.66008,-0.42711 -1.18103,-1.00307 -1.56284,-1.72786c-0.38181,-0.73127 -0.57272,-1.55313 -0.57272,-2.4656v-11.85235c0,-0.3624 0.11649,-0.66008 0.34946,-0.89305c0.23297,-0.23297 0.53065,-0.34946 0.89305,-0.34946c0.36887,0 0.66655,0.11649 0.89305,0.34946c0.23297,0.23297 0.34946,0.53065 0.34946,0.89305v11.85235c0,0.66655 0.1812,1.22309 0.5436,1.66962c0.36887,0.44653 0.81863,0.66979 1.34928,0.66979h0.84452c0.29768,0 0.55007,0.11649 0.75715,0.34946c0.20709,0.23297 0.31063,0.53065 0.31063,0.89305c0,0.3624 -0.13914,0.66008 -0.4174,0.89305c-0.2718,0.23297 -0.62125,0.34946 -1.04837,0.34946zM398.71585,-75.362c-0.34946,0 -0.6342,-0.09707 -0.85422,-0.29121c-0.21356,-0.20061 -0.32033,-0.44976 -0.32033,-0.74745c0,-0.33651 0.10678,-0.60184 0.32033,-0.79598c0.22003,-0.20061 0.50477,-0.30092 0.85422,-0.30092h5.73689c0.34946,0 0.63096,0.10031 0.84452,0.30092c0.21356,0.19414 0.32033,0.45947 0.32033,0.79598c0,0.29768 -0.10678,0.54683 -0.32033,0.74745c-0.21356,0.19414 -0.49506,0.29121 -0.84452,0.29121zM415.40775,-64.30563c-1.33958,0 -2.52384,-0.29445 -3.55279,-0.88334c-1.02895,-0.5889 -1.83788,-1.40106 -2.42677,-2.43648c-0.58243,-1.03542 -0.87364,-2.22292 -0.87364,-3.5625c0,-1.35899 0.29121,-2.5562 0.87364,-3.59162c0.5889,-1.03542 1.39782,-1.84758 2.42677,-2.43648c1.02895,-0.5889 2.21322,-0.88334 3.55279,-0.88334c1.32663,0 2.50443,0.29445 3.53338,0.88334c1.02895,0.5889 1.83464,1.40106 2.41706,2.43648c0.5889,1.03542 0.88334,2.23263 0.88334,3.59162c0,1.33958 -0.29121,2.52708 -0.87364,3.5625c-0.57595,1.03542 -1.37841,1.84758 -2.40736,2.43648c-1.02248,0.5889 -2.20675,0.88334 -3.55279,0.88334zM415.40775,-66.53826c0.86069,0 1.62108,-0.19738 2.28117,-0.59213c0.66655,-0.40123 1.18426,-0.94806 1.55313,-1.6405c0.37534,-0.69891 0.56301,-1.5046 0.56301,-2.41706c0,-0.91247 -0.18767,-1.71815 -0.56301,-2.41706c-0.36887,-0.70538 -0.88658,-1.25545 -1.55313,-1.6502c-0.66008,-0.40123 -1.42047,-0.60184 -2.28117,-0.60184c-0.86069,0 -1.62432,0.20061 -2.29087,0.60184c-0.66008,0.39475 -1.18103,0.94482 -1.56284,1.6502c-0.37534,0.69891 -0.56301,1.5046 -0.56301,2.41706c0,0.91247 0.18767,1.71815 0.56301,2.41706c0.38181,0.69244 0.90276,1.23927 1.56284,1.6405c0.66655,0.39475 1.43018,0.59213 2.29087,0.59213zM438.24928,-64.30563c-1.15838,0 -2.23263,-0.17796 -3.22275,-0.53389c-0.98365,-0.35593 -1.74728,-0.80569 -2.29087,-1.34928c-0.25238,-0.26533 -0.35916,-0.56625 -0.32033,-0.90276c0.0453,-0.34298 0.20709,-0.62449 0.48535,-0.84452c0.33651,-0.25885 0.66332,-0.36887 0.98042,-0.33004c0.32357,0.03883 0.60184,0.18443 0.83481,0.43682c0.28474,0.31063 0.73774,0.60508 1.35899,0.88334c0.62125,0.2718 1.31369,0.4077 2.07732,0.4077c0.95776,0 1.68903,-0.15531 2.1938,-0.46594c0.50477,-0.3171 0.76686,-0.72479 0.78627,-1.22309c0.01294,-0.4983 -0.2265,-0.92864 -0.71832,-1.29104c-0.48535,-0.36887 -1.37194,-0.66979 -2.65974,-0.90276c-1.67609,-0.33004 -2.89271,-0.8251 -3.64986,-1.48518c-0.75068,-0.66655 -1.12602,-1.47871 -1.12602,-2.43648c0,-0.84775 0.24915,-1.54666 0.74745,-2.09673c0.4983,-0.55654 1.13573,-0.97071 1.9123,-1.24251c0.77657,-0.27827 1.58873,-0.4174 2.43648,-0.4174c1.09366,0 2.06114,0.17473 2.90242,0.52418c0.84775,0.34946 1.52078,0.83157 2.01907,1.44636c0.23297,0.26533 0.33975,0.5436 0.32033,0.83481c-0.01294,0.28474 -0.15208,0.52742 -0.4174,0.72803c-0.26533,0.1812 -0.58243,0.23944 -0.95129,0.17473c-0.3624,-0.06471 -0.66655,-0.21356 -0.91247,-0.44653c-0.41417,-0.40123 -0.86393,-0.67626 -1.34928,-0.8251c-0.47888,-0.14884 -1.03219,-0.22326 -1.65991,-0.22326c-0.73127,0 -1.34928,0.12619 -1.85405,0.37858c-0.50477,0.24591 -0.75715,0.60831 -0.75715,1.08719c0,0.29768 0.07766,0.56948 0.23297,0.8154c0.16178,0.23944 0.47241,0.45623 0.93188,0.65037c0.46594,0.18767 1.14544,0.37211 2.03849,0.5533c1.24251,0.24591 2.22292,0.55977 2.94125,0.94159c0.72479,0.38181 1.24251,0.8251 1.55313,1.32987c0.3171,0.50477 0.47565,1.08719 0.47565,1.74728c0,0.76362 -0.20385,1.45283 -0.61155,2.06761c-0.40123,0.61478 -0.99659,1.10337 -1.7861,1.46577c-0.78304,0.3624 -1.76345,0.5436 -2.94125,0.5436zM449.92766,-64.4027c-0.26533,0 -0.51124,-0.07766 -0.73774,-0.23297c-0.22003,-0.16178 -0.37211,-0.35593 -0.45623,-0.58243l-3.67899,-11.03696c-0.12943,-0.51124 -0.12619,-0.92864 0.00971,-1.25221c0.14237,-0.32357 0.453,-0.48535 0.93188,-0.48535c0.3171,0 0.57919,0.08736 0.78627,0.26209c0.20709,0.16826 0.37858,0.45947 0.51448,0.87364l3.12568,9.79445h-0.86393l2.95095,-9.98859c0.08413,-0.28474 0.22326,-0.51124 0.4174,-0.6795c0.20061,-0.17473 0.47565,-0.26209 0.8251,-0.26209c0.33004,0 0.5986,0.08736 0.80569,0.26209c0.20709,0.16826 0.34622,0.39475 0.4174,0.6795l2.40736,9.39646h-0.36887l2.93154,-9.20232c0.2265,-0.75715 0.65685,-1.13573 1.29104,-1.13573c0.45947,0 0.77333,0.16178 0.94159,0.48535c0.16826,0.32357 0.15855,0.74098 -0.02912,1.25221l-3.66928,11.03696c-0.07119,0.2265 -0.21356,0.42064 -0.42711,0.58243c-0.21356,0.15531 -0.4627,0.23297 -0.74745,0.23297c-0.26533,0 -0.51448,-0.07766 -0.74745,-0.23297c-0.2265,-0.16178 -0.37534,-0.35593 -0.44653,-0.58243l-2.55296,-9.47412h0.24268l-2.67916,9.47412c-0.06471,0.2265 -0.21032,0.42064 -0.43682,0.58243c-0.2265,0.15531 -0.47888,0.23297 -0.75715,0.23297zM466.40719,-64.4027c-0.36887,0 -0.67303,-0.11972 -0.91247,-0.35916c-0.23944,-0.23944 -0.35916,-0.5436 -0.35916,-0.91247v-11.05637c0,-0.38181 0.11972,-0.68597 0.35916,-0.91247c0.23944,-0.23297 0.5436,-0.34946 0.91247,-0.34946c0.37534,0 0.6795,0.11649 0.91247,0.34946c0.23297,0.2265 0.34946,0.53065 0.34946,0.91247v11.05637c0,0.36887 -0.11649,0.67303 -0.34946,0.91247c-0.23297,0.23944 -0.53713,0.35916 -0.91247,0.35916zM466.63045,-80.20584c-0.453,0 -0.84128,-0.16178 -1.16485,-0.48535c-0.3171,-0.32357 -0.47565,-0.70862 -0.47565,-1.15514c0,-0.44653 0.15855,-0.83157 0.47565,-1.15514c0.32357,-0.32357 0.71185,-0.48535 1.16485,-0.48535c0.44653,0 0.83157,0.16178 1.15514,0.48535c0.32357,0.32357 0.48535,0.70862 0.48535,1.15514c0,0.44653 -0.16178,0.83157 -0.48535,1.15514c-0.32357,0.32357 -0.70862,0.48535 -1.15514,0.48535zM490.22953,-64.37358c-0.3624,0 -0.66332,-0.11972 -0.90276,-0.35916c-0.23944,-0.24591 -0.35916,-0.55007 -0.35916,-0.91247v-7.10559c0,-1.04189 -0.25885,-1.81523 -0.77657,-2.31999c-0.51124,-0.51124 -1.18103,-0.76686 -2.00937,-0.76686c-0.86069,0 -1.56931,0.30092 -2.12585,0.90276c-0.55007,0.59537 -0.8251,1.35576 -0.8251,2.28117h-2.06761c0,-1.07425 0.22973,-2.02231 0.6892,-2.84418c0.46594,-0.82187 1.11631,-1.46253 1.95112,-1.922c0.84128,-0.46594 1.79905,-0.69891 2.8733,-0.69891c0.94482,0 1.78287,0.20709 2.51414,0.62125c0.73127,0.41417 1.29751,1.02248 1.69874,1.82493c0.4077,0.80245 0.61155,1.7764 0.61155,2.92183v7.10559c0,0.3624 -0.11649,0.66655 -0.34946,0.91247c-0.23297,0.23944 -0.54036,0.35916 -0.92217,0.35916zM473.65954,-64.37358c-0.3624,0 -0.66655,-0.11972 -0.91247,-0.35916c-0.23944,-0.24591 -0.35916,-0.55007 -0.35916,-0.91247v-11.05637c0,-0.38181 0.11972,-0.6892 0.35916,-0.92217c0.24591,-0.23297 0.55007,-0.34946 0.91247,-0.34946c0.38181,0 0.6892,0.11649 0.92217,0.34946c0.23297,0.23297 0.34946,0.54036 0.34946,0.92217v11.05637c0,0.3624 -0.11649,0.66655 -0.34946,0.91247c-0.23297,0.23944 -0.54036,0.35916 -0.92217,0.35916zM481.9591,-64.37358c-0.3624,0 -0.66655,-0.11972 -0.91247,-0.35916c-0.23944,-0.24591 -0.35916,-0.55007 -0.35916,-0.91247v-7.10559c0,-1.04189 -0.25562,-1.81523 -0.76686,-2.31999c-0.51124,-0.51124 -1.18103,-0.76686 -2.00937,-0.76686c-0.86069,0 -1.57255,0.30092 -2.13556,0.90276c-0.56301,0.59537 -0.84452,1.35576 -0.84452,2.28117h-1.57255c0,-1.07425 0.21356,-2.02231 0.64067,-2.84418c0.43358,-0.82187 1.03219,-1.46253 1.79581,-1.922c0.76362,-0.46594 1.63403,-0.69891 2.61121,-0.69891c0.94482,0 1.77963,0.20709 2.50443,0.62125c0.73127,0.41417 1.30075,1.02248 1.70845,1.82493c0.4077,0.80245 0.61155,1.7764 0.61155,2.92183v7.10559c0,0.3624 -0.11649,0.66655 -0.34946,0.91247c-0.23297,0.23944 -0.54036,0.35916 -0.92217,0.35916zM496.42534,-69.00386c-0.36887,0 -0.67303,-0.12619 -0.91247,-0.37858c-0.23944,-0.25885 -0.35916,-0.5533 -0.35916,-0.88334v-12.25034c0,-0.36887 0.11972,-0.67626 0.35916,-0.92217c0.23944,-0.24591 0.5436,-0.36887 0.91247,-0.36887c0.3624,0 0.66332,0.12296 0.90276,0.36887c0.23944,0.24591 0.35916,0.5533 0.35916,0.92217v12.25034c0,0.34946 -0.12943,0.64714 -0.38828,0.89305c-0.25238,0.24591 -0.5436,0.36887 -0.87364,0.36887zM496.42534,-64.4027c-0.46594,0 -0.8704,-0.16502 -1.21339,-0.49506c-0.33651,-0.33004 -0.50477,-0.73774 -0.50477,-1.22309c0,-0.47888 0.16826,-0.88658 0.50477,-1.22309c0.34298,-0.34298 0.74745,-0.51448 1.21339,-0.51448c0.47888,0 0.88334,0.17149 1.21339,0.51448c0.33004,0.33651 0.49506,0.74421 0.49506,1.22309c0,0.48535 -0.17149,0.89305 -0.51448,1.22309c-0.33651,0.33004 -0.7345,0.49506 -1.19397,0.49506z" data-paper-data="{&quot;origPos&quot;:null}" fill="#776d5b" stroke="#776d5b" stroke-width="1" stroke-linecap="square"/><path d="M288,124.8c0,3.31371 -2.46243,6 -5.5,6c-3.03757,0 -5.5,-2.68629 -5.5,-6c0,-3.31371 2.46243,-6 5.5,-6c3.03757,0 5.5,2.68629 5.5,6z" data-paper-data="{&quot;origPos&quot;:null}" fill="#776d5b" stroke="#776d5b" stroke-width="1" stroke-linecap="butt"/></g></g></svg>