<svg version="1.1" xmlns="http://www.w3.org/2000/svg" xmlns:xlink="http://www.w3.org/1999/xlink" width="864.22048" height="469.16796"><g transform="translate(135.48294,59.84252)"><g data-paper-data="{&quot;isPaintingLayer&quot;:true}" fill="none" fill-rule="none" stroke="none" stroke-width="none" stroke-linecap="none" stroke-linejoin="miter" stroke-miterlimit="10" stroke-dasharray="" stroke-dashoffset="0" font-family="none" font-weight="none" font-size="none" text-anchor="none" style="mix-blend-mode: normal"><g data-paper-data="{&quot;origPos&quot;:null}" fill="none" fill-rule="nonzero" stroke-width="14.5" stroke-linecap="round"><path d="M42.19264,14.06073c0,0 0.92628,20.2322 1.10282,24.08854c0.05885,1.28544 -1.19542,3.39007 -2.05707,3.45169c-2.58497,0.18486 -10.92561,0.78134 -10.92561,0.78134" data-paper-data="{&quot;origPos&quot;:null,&quot;origRot&quot;:0}" stroke="#7da17c"/><path d="M27.16874,84.15375l-2.32524,-59.70566" data-paper-data="{&quot;origPos&quot;:null,&quot;origRot&quot;:0}" stroke="#739472"/><path d="M23.67914,59.03152c0,0 -6.35824,-0.05526 -10.42784,-0.09063c-1.4963,-0.01301 -3.85883,-2.02666 -3.87468,-3.30249c-0.04754,-3.8275 -0.29984,-24.14037 -0.29984,-24.14037" data-paper-data="{&quot;origPos&quot;:null,&quot;origRot&quot;:0}" stroke="#739472"/></g><g data-paper-data="{&quot;origPos&quot;:null}" fill="none" fill-rule="nonzero" stroke-width="17.5" stroke-linecap="round"><path d="M255.22439,190.06073c0,0 1.15093,25.13922 1.3703,29.93086c0.07312,1.59721 -1.48535,4.21229 -2.55599,4.28885c-3.21191,0.2297 -13.57545,0.97084 -13.57545,0.97084" data-paper-data="{&quot;origPos&quot;:null,&quot;origRot&quot;:0}" stroke="#7da17c"/><path d="M233.66747,202.96739l2.88919,74.18636" data-paper-data="{&quot;origPos&quot;:null,&quot;origRot&quot;:0}" stroke="#739472"/><path d="M232.22072,245.9385c0,0 -7.90034,-0.06866 -12.95695,-0.1126c-1.8592,-0.01616 -4.79472,-2.51819 -4.81442,-4.10346c-0.05907,-4.7558 -0.37256,-29.99524 -0.37256,-29.99524" data-paper-data="{&quot;origPos&quot;:null,&quot;origRot&quot;:0}" stroke="#739472"/></g><path d="M251,280.87497c0,0 11.33007,-36.38326 33.26359,-45.20292c27.77536,-11.16871 65.50967,-2.74729 94.8222,-2.74729c49.81652,0 43.27814,47.95021 43.27814,47.95021z" data-paper-data="{&quot;origPos&quot;:null}" fill="#998c76" fill-rule="nonzero" stroke="none" stroke-width="0" stroke-linecap="butt"/><path d="M209,299.87497c0,0 13.50833,-36.38326 39.6587,-45.20292c17.90129,-6.03752 24.44415,-7.02135 43.3344,-6.76453c25.48078,0.34642 44.23475,4.01724 69.71789,4.01724c59.39402,0 51.5986,47.95021 51.5986,47.95021z" data-paper-data="{&quot;origPos&quot;:null}" fill="#8b7f6b" fill-rule="nonzero" stroke="none" stroke-width="0" stroke-linecap="butt"/><path d="M261,325.87497c0,0 11.33007,-36.38326 33.26359,-45.20292c27.77536,-11.16871 65.50967,-2.74729 94.8222,-2.74729c49.81652,0 43.27814,47.95021 43.27814,47.95021z" data-paper-data="{&quot;origPos&quot;:null}" fill="#776d5b" fill-rule="nonzero" stroke="none" stroke-width="0" stroke-linecap="butt"/><path d="M340.74219,268.33935c0,0 10.90031,-33.6153 24.98912,-38.16821c17.84126,-5.76554 39.39404,9.57834 56.88113,15.07171c29.71923,9.33595 20.36098,55.21126 20.36098,55.21126z" data-paper-data="{&quot;origPos&quot;:null,&quot;origRot&quot;:0}" fill="#776d5b" fill-rule="nonzero" stroke="none" stroke-width="0" stroke-linecap="butt"/><path d="M-53,288.87497c0,0 11.33007,-36.38326 33.26359,-45.20292c11.3774,-4.57495 17.48793,-16.25243 29.74295,-16.68817c25.02943,-0.88996 40.034,13.94088 65.07925,13.94088c49.81652,0 43.27814,47.95021 43.27814,47.95021z" data-paper-data="{&quot;origPos&quot;:null}" fill="#998c76" fill-rule="nonzero" stroke="none" stroke-width="0" stroke-linecap="butt"/><path d="M-95,307.87497c0,0 13.50833,-36.38326 39.6587,-45.20292c17.90128,-6.03751 24.44414,-7.02135 43.3344,-6.76453c25.48079,0.34643 44.23475,4.01724 69.71789,4.01724c59.39402,0 51.5986,47.95021 51.5986,47.95021z" data-paper-data="{&quot;origPos&quot;:null}" fill="#8b7f6b" fill-rule="nonzero" stroke="none" stroke-width="0" stroke-linecap="butt"/><path d="M-43,333.87497c0,0 11.33007,-36.38326 33.26359,-45.20292c27.77536,-11.16871 65.50967,-2.74729 94.8222,-2.74729c49.81652,0 43.27814,47.95021 43.27814,47.95021z" data-paper-data="{&quot;origPos&quot;:null}" fill="#776d5b" fill-rule="nonzero" stroke="none" stroke-width="0" stroke-linecap="butt"/><path d="M36.74219,287.33935c0,0 10.90031,-33.6153 24.98912,-38.16821c17.84126,-5.76553 39.39405,9.57834 56.88113,15.07171c29.71923,9.33596 20.36098,55.21126 20.36098,55.21126z" data-paper-data="{&quot;origPos&quot;:null,&quot;origRot&quot;:0}" fill="#776d5b" fill-rule="nonzero" stroke="none" stroke-width="0" stroke-linecap="butt"/><path d="M-36,112.85619c0,0 7.85057,-25.20984 23.04823,-31.32095c7.88336,-3.16997 12.11733,-11.26125 20.60879,-11.56318c16.2351,-0.57726 26.383,8.39132 41.8495,9.53934c0.17469,6.91156 -0.28023,13.97049 -0.28023,20.82071c0,4.23185 -0.20488,8.36023 0.51057,12.52408z" data-paper-data="{&quot;origPos&quot;:null}" fill="#998c76" fill-rule="nonzero" stroke="none" stroke-width="0" stroke-linecap="butt"/><path d="M75,128.8c-0.0697,-0.71794 -0.10655,-1.45701 -0.12215,-2.20703c0.0671,0.72036 0.12831,1.44039 0.18256,2.16c-0.03046,0.07484 -0.05419,0.11111 -0.06041,0.04703z" data-paper-data="{&quot;origPos&quot;:null}" fill="#998c76" fill-rule="nonzero" stroke="none" stroke-width="0" stroke-linecap="butt"/><path d="M75,128.8c-0.0697,-0.71794 -0.10655,-1.45701 -0.12215,-2.20703c0.0671,0.72036 0.12831,1.44039 0.18256,2.16c-0.03046,0.07484 -0.05419,0.11111 -0.06041,0.04703z" data-paper-data="{&quot;origPos&quot;:null}" fill="#8b7f6b" fill-rule="nonzero" stroke="none" stroke-width="0" stroke-linecap="butt"/><path d="M14.28084,148.1286h714.4567v261.19684h-714.4567z" data-paper-data="{&quot;origPos&quot;:null}" fill-opacity="0" fill="#000000" fill-rule="evenodd" stroke="none" stroke-width="1" stroke-linecap="square"/><path d="M245.24333,60.32492l-11.1038,-6.64535c-0.54085,-0.34332 -0.81127,-0.80656 -0.81127,-1.38974c0,-0.51733 0.27043,-0.96882 0.81127,-1.35446l11.1038,-6.68062c0.54555,-0.27748 1.06758,-0.27983 1.5661,-0.00706c0.50322,0.26807 0.75483,0.69369 0.75483,1.27686c0,0.60199 -0.25161,1.05348 -0.75483,1.35446l-10.13733,6.0175v-1.29803l10.13733,6.08099c0.50322,0.31981 0.75483,0.76188 0.75483,1.32625c0,0.39975 -0.12698,0.73602 -0.38094,1.0088c-0.24926,0.26807 -0.55496,0.43738 -0.91709,0.50792c-0.35743,0.07055 -0.69839,0.0047 -1.0229,-0.19753zM260.92866,60.32492c-0.32451,0.20223 -0.66783,0.26807 -1.02996,0.19753c-0.35743,-0.07055 -0.66313,-0.23985 -0.91709,-0.50792c-0.24926,-0.27277 -0.37389,-0.60904 -0.37389,-1.0088c0,-0.56436 0.25161,-1.00644 0.75483,-1.32625l10.13733,-6.08099v1.29803l-10.13733,-6.0175c-0.50322,-0.301 -0.75483,-0.75248 -0.75483,-1.35446c0,-0.58317 0.24926,-1.0088 0.74778,-1.27686c0.50322,-0.27277 1.02761,-0.27043 1.57316,0.00706l11.1038,6.68062c0.54085,0.38564 0.81127,0.83713 0.81127,1.35446c0,0.58317 -0.27043,1.04642 -0.81127,1.38974zM291.44257,62.76578c-1.00174,0 -1.90472,-0.25632 -2.70894,-0.76894c-0.80422,-0.51262 -1.43677,-1.20867 -1.89766,-2.08813c-0.4609,-0.88416 -0.69134,-1.87885 -0.69134,-2.98406v-14.34888c0,-0.44208 0.14109,-0.80422 0.42328,-1.08639c0.28218,-0.28218 0.64196,-0.42328 1.07935,-0.42328c0.44208,0 0.80422,0.14109 1.08639,0.42328c0.28218,0.28218 0.42328,0.64431 0.42328,1.08639v14.34888c0,0.80422 0.21869,1.47674 0.65607,2.01759c0.44208,0.54085 0.98528,0.81127 1.62959,0.81127h1.0229c0.36213,0 0.66783,0.14109 0.91709,0.42328c0.24926,0.28218 0.37389,0.64431 0.37389,1.08639c0,0.44208 -0.1646,0.80422 -0.49381,1.08639c-0.32921,0.27748 -0.75483,0.41622 -1.27686,0.41622zM284.76194,49.49624c-0.42328,0 -0.76659,-0.11993 -1.02996,-0.35979c-0.25866,-0.24456 -0.388,-0.54555 -0.388,-0.90298c0,-0.40446 0.12934,-0.72662 0.388,-0.96647c0.26337,-0.23985 0.60669,-0.35979 1.02996,-0.35979h6.9487c0.42328,0 0.76424,0.11993 1.0229,0.35979c0.26337,0.23985 0.39505,0.56201 0.39505,0.96647c0,0.35743 -0.13168,0.65843 -0.39505,0.90298c-0.25866,0.23985 -0.59964,0.35979 -1.0229,0.35979zM304.98489,62.88571c-1.62724,0 -3.06401,-0.35507 -4.31031,-1.06523c-1.24159,-0.71486 -2.21982,-1.69778 -2.93468,-2.94879c-0.71015,-1.25571 -1.06523,-2.69718 -1.06523,-4.32442c0,-1.64135 0.35507,-3.08988 1.06523,-4.34558c0.71486,-1.25571 1.69308,-2.23864 2.93468,-2.94879c1.24629,-0.71486 2.68307,-1.07229 4.31031,-1.07229c1.60372,0 3.02639,0.35743 4.26798,1.07229c1.24629,0.71015 2.22453,1.69308 2.93468,2.94879c0.71486,1.25571 1.07229,2.70423 1.07229,4.34558c0,1.62724 -0.35273,3.06871 -1.05818,4.32442c-0.70075,1.251 -1.67427,2.23393 -2.92056,2.94879c-1.24159,0.71015 -2.67366,1.06523 -4.29619,1.06523zM304.98489,60.17678c1.04407,0 1.96585,-0.23985 2.76537,-0.71956c0.80422,-0.48441 1.43206,-1.14754 1.88355,-1.98938c0.45149,-0.84184 0.67724,-1.81536 0.67724,-2.92056c0,-1.1005 -0.22575,-2.07638 -0.67724,-2.92762c-0.45149,-0.85595 -1.07935,-1.52378 -1.88355,-2.00348c-0.79952,-0.48441 -1.7213,-0.72662 -2.76537,-0.72662c-1.04407,0 -1.96821,0.24221 -2.77243,0.72662c-0.79952,0.47971 -1.42971,1.14754 -1.89061,2.00348c-0.4609,0.85124 -0.69134,1.82712 -0.69134,2.92762c0,1.1052 0.23045,2.07872 0.69134,2.92056c0.4609,0.84184 1.0911,1.50497 1.89061,1.98938c0.80422,0.47971 1.72836,0.71956 2.77243,0.71956zM348.26075,62.794c-0.44208,0 -0.80892,-0.14345 -1.1005,-0.43032c-0.29158,-0.29158 -0.43738,-0.65843 -0.43738,-1.1005v-8.6065c0,-1.26511 -0.3104,-2.20336 -0.9312,-2.81475c-0.6208,-0.61139 -1.43206,-0.91709 -2.43381,-0.91709c-1.04407,0 -1.90236,0.36213 -2.5749,1.08639c-0.67253,0.71956 -1.0088,1.64135 -1.0088,2.76537h-2.4973c0,-1.30744 0.27983,-2.45732 0.83949,-3.44965c0.56436,-0.99233 1.35212,-1.76833 2.36326,-2.32799c1.01585,-0.56436 2.17515,-0.84654 3.47789,-0.84654c1.14283,0 2.15396,0.25161 3.03342,0.75483c0.88416,0.49852 1.5708,1.23454 2.05992,2.20806c0.49381,0.97352 0.74073,2.15398 0.74073,3.54137v8.6065c0,0.44208 -0.14109,0.80892 -0.42328,1.1005c-0.27748,0.28688 -0.64666,0.43032 -1.10756,0.43032zM328.19066,62.794c-0.44208,0 -0.80892,-0.14345 -1.1005,-0.43032c-0.29158,-0.29158 -0.43738,-0.65843 -0.43738,-1.1005v-13.39652c0,-0.4609 0.14579,-0.83008 0.43738,-1.10756c0.29158,-0.28218 0.65843,-0.42328 1.1005,-0.42328c0.4609,0 0.83008,0.14109 1.10756,0.42328c0.28218,0.27748 0.42328,0.64666 0.42328,1.10756v13.39652c0,0.44208 -0.14109,0.80892 -0.42328,1.1005c-0.27748,0.28688 -0.64666,0.43032 -1.10756,0.43032zM338.23628,62.794c-0.43738,0 -0.80186,-0.14345 -1.09345,-0.43032c-0.29158,-0.29158 -0.43738,-0.65843 -0.43738,-1.1005v-8.6065c0,-1.26511 -0.31275,-2.20336 -0.93825,-2.81475c-0.6208,-0.61139 -1.43206,-0.91709 -2.43381,-0.91709c-1.04407,0 -1.90707,0.36213 -2.589,1.08639c-0.68194,0.71956 -1.0229,1.64135 -1.0229,2.76537h-1.89766c0,-1.30744 0.26102,-2.45732 0.78305,-3.44965c0.52203,-0.99233 1.24395,-1.76833 2.16574,-2.32799c0.9265,-0.56436 1.97997,-0.84654 3.16042,-0.84654c1.14284,0 2.15633,0.25161 3.0405,0.75483c0.88416,0.49852 1.5708,1.23454 2.05992,2.20806c0.49381,0.97352 0.74073,2.15398 0.74073,3.54137v8.6065c0,0.44208 -0.14109,0.80892 -0.42328,1.1005c-0.28218,0.28688 -0.65371,0.43032 -1.11461,0.43032zM362.34516,62.88571c-1.62724,0 -3.06401,-0.35507 -4.31031,-1.06523c-1.24159,-0.71486 -2.21982,-1.69778 -2.93468,-2.94879c-0.71015,-1.25571 -1.06523,-2.69718 -1.06523,-4.32442c0,-1.64135 0.35507,-3.08988 1.06523,-4.34558c0.71486,-1.25571 1.69308,-2.23864 2.93468,-2.94879c1.24629,-0.71486 2.68307,-1.07229 4.31031,-1.07229c1.60372,0 3.02639,0.35743 4.26798,1.07229c1.24629,0.71015 2.22453,1.69308 2.93468,2.94879c0.71486,1.25571 1.07229,2.70423 1.07229,4.34558c0,1.62724 -0.35273,3.06871 -1.05818,4.32442c-0.70075,1.251 -1.67427,2.23393 -2.92056,2.94879c-1.24159,0.71015 -2.67366,1.06523 -4.29619,1.06523zM362.34516,60.17678c1.04407,0 1.96585,-0.23985 2.76537,-0.71956c0.80422,-0.48441 1.43206,-1.14754 1.88355,-1.98938c0.45149,-0.84184 0.67724,-1.81536 0.67724,-2.92056c0,-1.1005 -0.22575,-2.07638 -0.67724,-2.92762c-0.45149,-0.85595 -1.07935,-1.52378 -1.88355,-2.00348c-0.79952,-0.48441 -1.7213,-0.72662 -2.76537,-0.72662c-1.04407,0 -1.96821,0.24221 -2.77243,0.72662c-0.79952,0.47971 -1.42971,1.14754 -1.89061,2.00348c-0.4609,0.85124 -0.69134,1.82712 -0.69134,2.92762c0,1.1052 0.23045,2.07872 0.69134,2.92056c0.4609,0.84184 1.0911,1.50497 1.89061,1.98938c0.80422,0.47971 1.72836,0.71956 2.77243,0.71956zM379.85838,62.73757c-0.6208,0 -1.10286,-0.33156 -1.44618,-0.99469l-6.37728,-13.45295c-0.1599,-0.33862 -0.17636,-0.67253 -0.04938,-1.00174c0.13168,-0.33392 0.388,-0.59258 0.76894,-0.776c0.34332,-0.17871 0.68899,-0.20694 1.03701,-0.08466c0.35273,0.11757 0.6208,0.34802 0.80422,0.69134l5.95401,12.84627h-1.43912l5.89757,-12.84627c0.17871,-0.34332 0.45384,-0.57377 0.82537,-0.69134c0.37154,-0.12228 0.74778,-0.09406 1.12872,0.08466c0.36213,0.1599 0.60199,0.41151 0.71956,0.75483c0.12228,0.34332 0.10347,0.68429 -0.05643,1.0229l-6.38433,13.45295c-0.301,0.66313 -0.76188,0.99469 -1.38269,0.99469zM397.91396,62.88571c-1.66487,0 -3.14396,-0.35507 -4.43729,-1.06523c-1.29333,-0.71486 -2.30683,-1.69778 -3.0405,-2.94879c-0.73367,-1.25571 -1.1005,-2.69718 -1.1005,-4.32442c0,-1.64135 0.34567,-3.08988 1.03701,-4.34558c0.69605,-1.25571 1.65546,-2.23864 2.87824,-2.94879c1.22278,-0.71486 2.62663,-1.07229 4.21155,-1.07229c1.5661,0 2.91116,0.34802 4.03518,1.04407c1.12402,0.69134 1.98232,1.6437 2.5749,2.85707c0.59258,1.21337 0.88886,2.61252 0.88886,4.19744c0,0.38094 -0.13168,0.69839 -0.39505,0.95235c-0.25866,0.24926 -0.59022,0.37389 -0.99469,0.37389h-12.12671v-2.41264h12.04205l-1.23454,0.84654c-0.02351,-1.00174 -0.22575,-1.89766 -0.60669,-2.68777c-0.38094,-0.79481 -0.92179,-1.42266 -1.62254,-1.88355c-0.70075,-0.4656 -1.55435,-0.69839 -2.56079,-0.69839c-1.14284,0 -2.12106,0.25161 -2.93468,0.75483c-0.80892,0.50322 -1.42501,1.19221 -1.84828,2.06697c-0.42328,0.87005 -0.6349,1.85534 -0.6349,2.95584c0,1.1052 0.25161,2.09049 0.75483,2.95584c0.50322,0.86065 1.19456,1.54259 2.07402,2.04581c0.88416,0.49852 1.89766,0.74778 3.0405,0.74778c0.6255,0 1.26276,-0.11522 1.91178,-0.34567c0.65371,-0.23045 1.18046,-0.49617 1.58021,-0.79716c0.301,-0.22104 0.6255,-0.33626 0.97352,-0.34567c0.35273,-0.00941 0.66077,0.09641 0.92414,0.31745c0.33862,0.301 0.51733,0.63256 0.53614,0.99469c0.02351,0.35743 -0.13639,0.66783 -0.47971,0.9312c-0.68194,0.54085 -1.52848,0.98293 -2.53962,1.32625c-1.01114,0.33862 -1.97997,0.50792 -2.90646,0.50792z" data-paper-data="{&quot;origPos&quot;:null}" fill="#9a8d76" fill-rule="nonzero" stroke="#998c76" stroke-width="1" stroke-linecap="square"/><path d="M377.89466,102.89193c-0.42806,0 -0.78327,-0.14117 -1.06561,-0.42351c-0.28234,-0.27779 -0.42351,-0.63071 -0.42351,-1.05877v-13.29275c0.01822,-1.53465 0.37569,-2.9122 1.07244,-4.13264c0.7013,-1.22499 1.65305,-2.19269 2.85528,-2.90309c1.20678,-0.7104 2.56838,-1.06561 4.08482,-1.06561c1.53465,0 2.90309,0.3552 4.10531,1.06561c1.20678,0.7104 2.16537,1.6781 2.87577,2.90309c0.7104,1.22044 1.06561,2.59798 1.06561,4.13264c0,1.53465 -0.3256,2.90992 -0.97681,4.12581c-0.6512,1.21588 -1.54148,2.17903 -2.67084,2.88943c-1.12481,0.70585 -2.39761,1.05877 -3.81842,1.05877c-1.14302,0 -2.19724,-0.2368 -3.16266,-0.7104c-0.96087,-0.47816 -1.78056,-1.12481 -2.45909,-1.93995v7.86909c0,0.42806 -0.13662,0.78099 -0.40985,1.05877c-0.26868,0.28234 -0.62616,0.42351 -1.07244,0.42351zM384.41807,93.56788c0.99274,0 1.87619,-0.2368 2.65035,-0.7104c0.77871,-0.47816 1.39576,-1.12936 1.85115,-1.95361c0.45539,-0.8288 0.68308,-1.75779 0.68308,-2.78697c0,-1.04739 -0.22769,-1.98321 -0.68308,-2.80746c-0.45539,-0.8288 -1.07244,-1.48001 -1.85115,-1.95361c-0.77416,-0.47816 -1.65761,-0.71723 -2.65035,-0.71723c-0.96997,0 -1.84887,0.23908 -2.63669,0.71723c-0.78782,0.4736 -1.40487,1.12481 -1.85115,1.95361c-0.44628,0.82425 -0.66942,1.76007 -0.66942,2.80746c0,1.02917 0.22314,1.95816 0.66942,2.78697c0.44628,0.82425 1.06333,1.47545 1.85115,1.95361c0.78782,0.4736 1.66672,0.7104 2.63669,0.7104z" data-paper-data="{&quot;origPos&quot;:null}" fill="#998c76" fill-rule="nonzero" stroke="#998c76" stroke-width="1" stroke-linecap="butt"/><path d="M299.8543,96.19091c-1.57564,0 -2.96685,-0.34382 -4.17362,-1.03145c-1.20222,-0.69219 -2.14943,-1.64395 -2.84161,-2.85528c-0.68763,-1.21588 -1.03145,-2.61164 -1.03145,-4.18728c0,-1.5893 0.34382,-2.99189 1.03145,-4.20778c0.69219,-1.21588 1.63939,-2.16764 2.84161,-2.85528c1.20678,-0.69219 2.59798,-1.03828 4.17362,-1.03828c1.55287,0 2.93042,0.34609 4.13264,1.03828c1.20678,0.68763 2.15398,1.63939 2.84161,2.85528c0.69219,1.21588 1.03828,2.61848 1.03828,4.20778c0,1.57564 -0.34154,2.9714 -1.02462,4.18728c-0.67853,1.21133 -1.62118,2.16309 -2.82795,2.85528c-1.20222,0.68763 -2.58887,1.03145 -4.15996,1.03145zM299.8543,93.56788c1.01096,0 1.90352,-0.23225 2.67768,-0.69674c0.77871,-0.46905 1.38665,-1.11114 1.82382,-1.92629c0.43717,-0.81514 0.65576,-1.75779 0.65576,-2.82795c0,-1.06561 -0.21859,-2.01053 -0.65576,-2.83478c-0.43717,-0.8288 -1.04511,-1.47545 -1.82382,-1.93995c-0.77416,-0.46905 -1.66672,-0.70357 -2.67768,-0.70357c-1.01096,0 -1.90579,0.23452 -2.68451,0.70357c-0.77416,0.46449 -1.38438,1.11114 -1.83066,1.93995c-0.44628,0.82425 -0.66942,1.76918 -0.66942,2.83478c0,1.07016 0.22314,2.01281 0.66942,2.82795c0.44628,0.81514 1.0565,1.45724 1.83066,1.92629c0.77871,0.46449 1.67355,0.69674 2.68451,0.69674z" data-paper-data="{&quot;origPos&quot;:null}" fill="#998c76" fill-rule="nonzero" stroke="#998c76" stroke-width="1" stroke-linecap="butt"/><path d="M369.99475,96.10211c-0.42806,0 -0.78327,-0.13889 -1.06561,-0.41668c-0.28234,-0.28234 -0.42351,-0.63754 -0.42351,-1.06561v-8.33358c0,-1.22499 -0.30056,-2.13349 -0.90167,-2.72549c-0.60111,-0.592 -1.38665,-0.888 -2.35663,-0.888c-1.01096,0 -1.84204,0.35065 -2.49324,1.05194c-0.6512,0.69674 -0.97681,1.5893 -0.97681,2.67768v8.21746c0,0.42806 -0.13662,0.78327 -0.40985,1.06561c-0.27323,0.27779 -0.63299,0.41668 -1.07927,0.41668c-0.42351,0 -0.77643,-0.13889 -1.05877,-0.41668c-0.28234,-0.28234 -0.42351,-0.63754 -0.42351,-1.06561v-8.33358c0,-1.22499 -0.30283,-2.13349 -0.9085,-2.72549c-0.60111,-0.592 -1.38665,-0.888 -2.35663,-0.888c-1.01096,0 -1.84659,0.35065 -2.50691,1.05194c-0.66031,0.69674 -0.99047,1.5893 -0.99047,2.67768v8.21746c0,0.42806 -0.13662,0.78327 -0.40985,1.06561c-0.26868,0.27779 -0.62616,0.41668 -1.07244,0.41668c-0.42806,0 -0.78327,-0.13889 -1.06561,-0.41668c-0.28234,-0.28234 -0.42351,-0.63754 -0.42351,-1.06561v-12.9717c0,-0.44628 0.14117,-0.80376 0.42351,-1.07244c0.28234,-0.27323 0.63754,-0.40985 1.06561,-0.40985c0.44628,0 0.80376,0.13662 1.07244,0.40985c0.26289,0.25852 0.39931,0.59922 0.40926,1.02215c0.3056,-0.29995 0.64506,-0.56325 1.01838,-0.7899c0.89711,-0.54646 1.91718,-0.8197 3.0602,-0.8197c1.10659,0 2.08795,0.24363 2.94408,0.7309c0.66567,0.37532 1.2157,0.88967 1.6501,1.54305c0.47461,-0.58837 1.0562,-1.07311 1.74481,-1.45425c0.98364,-0.54646 2.10616,-0.8197 3.36759,-0.8197c1.10659,0 2.08567,0.24363 2.93725,0.7309c0.85613,0.48271 1.52099,1.19539 1.99459,2.13804c0.47816,0.94265 0.71723,2.08567 0.71723,3.42906v8.33358c0,0.42806 -0.13662,0.78327 -0.40985,1.06561c-0.26868,0.27779 -0.62616,0.41668 -1.07244,0.41668z" data-paper-data="{&quot;origPos&quot;:null}" fill="#998c76" fill-rule="nonzero" stroke="#998c76" stroke-width="1" stroke-linecap="butt"/><path d="M335.89936,96.21823c-1.33884,0 -2.53878,-0.28462 -3.59983,-0.85385c-1.0565,-0.57379 -1.89213,-1.41398 -2.50691,-2.52057c-0.61022,-1.11114 -0.91533,-2.47275 -0.91533,-4.08482v-7.16551c0,-0.42806 0.14117,-0.78327 0.42351,-1.06561c0.28234,-0.28234 0.63754,-0.42351 1.06561,-0.42351c0.42351,0 0.77643,0.14117 1.05877,0.42351c0.28234,0.28234 0.42351,0.63754 0.42351,1.06561v7.16551c0,1.08837 0.20265,1.98776 0.60794,2.69817c0.40985,0.7104 0.96314,1.23638 1.65989,1.57792c0.7013,0.33699 1.48912,0.50548 2.36346,0.50548c0.83791,0 1.58247,-0.16394 2.23367,-0.49182c0.6512,-0.33243 1.17034,-0.78099 1.55742,-1.34567c0.38708,-0.56468 0.58062,-1.19539 0.58062,-1.89213v-8.21746c0,-0.44628 0.14117,-0.80603 0.42351,-1.07927c0.28234,-0.27323 0.63754,-0.40985 1.06561,-0.40985c0.44628,0 0.80376,0.13662 1.07244,0.40985c0.27323,0.27323 0.40985,0.63299 0.40985,1.07927v12.99219c0,0.42806 -0.13662,0.78327 -0.40985,1.06561c-0.26868,0.28234 -0.62616,0.42351 -1.07244,0.42351c-0.42806,0 -0.78327,-0.14117 -1.06561,-0.42351c-0.28234,-0.28234 -0.42351,-0.63754 -0.42351,-1.06561v-0.30301c-0.4268,0.42454 -0.91634,0.78966 -1.46862,1.09538c-1.02007,0.56013 -2.1813,0.84019 -3.48371,0.84019z" data-paper-data="{&quot;origPos&quot;:null}" fill="#998c76" fill-rule="nonzero" stroke="#998c76" stroke-width="1" stroke-linecap="butt"/><path d="M286.7414,96.07478c-0.96997,0 -1.84432,-0.24819 -2.62303,-0.74456c-0.77871,-0.49637 -1.39121,-1.17034 -1.83749,-2.02192c-0.44628,-0.85613 -0.66942,-1.81927 -0.66942,-2.88943v-7.19284h-1.33884c-0.40985,0 -0.74228,-0.11612 -0.9973,-0.34837c-0.25046,-0.2368 -0.37569,-0.52825 -0.37569,-0.87434c0,-0.39163 0.12523,-0.70357 0.37569,-0.93582c0.25502,-0.23225 0.58745,-0.34837 0.9973,-0.34837h1.33884v-4.19411c0,-0.42806 0.13662,-0.77871 0.40985,-1.05194c0.27323,-0.27323 0.6216,-0.40985 1.04511,-0.40985c0.42806,0 0.77871,0.13662 1.05194,0.40985c0.27323,0.27323 0.40985,0.62388 0.40985,1.05194v4.19411h2.47275c0.40985,0 0.74,0.11612 0.99047,0.34837c0.25502,0.23225 0.38253,0.54419 0.38253,0.93582c0,0.34609 -0.12751,0.63754 -0.38253,0.87434c-0.25046,0.23225 -0.58062,0.34837 -0.99047,0.34837h-2.47275v7.19284c0,0.77871 0.21175,1.42992 0.63526,1.95361c0.42806,0.5237 0.95404,0.78554 1.57792,0.78554h0.99047c0.35065,0 0.64665,0.13662 0.888,0.40985c0.24136,0.27323 0.36203,0.62388 0.36203,1.05194c0,0.42806 -0.15939,0.77871 -0.47816,1.05194c-0.31877,0.26868 -0.7309,0.40302 -1.23638,0.40302z" data-paper-data="{&quot;origPos&quot;:null}" fill="#998c76" fill-rule="nonzero" stroke="#998c76" stroke-width="1" stroke-linecap="butt"/><path d="M318.56082,102.69601c-0.56508,0.13061 -1.16632,0.19591 -1.80373,0.19591c-0.42806,0 -0.77871,-0.14117 -1.05194,-0.42351c-0.27323,-0.27779 -0.40985,-0.63071 -0.40985,-1.05877c0,-0.44628 0.13662,-0.80603 0.40985,-1.07927c0.27323,-0.27323 0.62388,-0.40985 1.05194,-0.40985c0.77416,0 1.45268,-0.17077 2.03558,-0.51231c0.5829,-0.33699 1.04511,-0.79693 1.38665,-1.37982c0.34154,-0.5829 0.51231,-1.25459 0.51231,-2.01509v-14.39251c0,-0.44628 0.13889,-0.80603 0.41668,-1.07927c0.28234,-0.27323 0.63754,-0.40985 1.06561,-0.40985c0.44628,0 0.80603,0.13662 1.07927,0.40985c0.27323,0.27323 0.40985,0.63299 0.40985,1.07927v14.39251c0,1.34339 -0.296,2.52967 -0.888,3.55885c-0.0911,0.15838 -0.18743,0.31158 -0.28899,0.4596" data-paper-data="{&quot;origPos&quot;:null}" fill="#998c76" fill-rule="nonzero" stroke="#998c76" stroke-width="1" stroke-linecap="butt"/><path d="M251.97463,93.53835c-0.72929,0 -1.33703,-0.24309 -1.82322,-0.72929c-0.4862,-0.4862 -0.72929,-1.09785 -0.72929,-1.83498c0,-0.26662 0.03137,-0.51756 0.0941,-0.75282c0.07058,-0.23526 0.15683,-0.43522 0.25878,-0.5999l7.52814,-11.29222c0.53324,-0.73713 1.23509,-1.1057 2.10553,-1.1057c0.4313,0 0.83123,0.0941 1.1998,0.2823c0.36857,0.18037 0.67047,0.45482 0.90573,0.82339l7.52814,11.29222c0.26662,0.4313 0.39993,0.8822 0.39993,1.35271c0,0.70576 -0.25094,1.30959 -0.75282,1.81146c-0.50187,0.50187 -1.1057,0.75282 -1.81146,0.75282c-0.83123,0 -1.53308,-0.3372 -2.10553,-1.01159l-5.3638,-8.06923l-5.37557,8.06923c-0.50187,0.67439 -1.18803,1.01159 -2.05848,1.01159z" data-paper-data="{&quot;origPos&quot;:null}" fill="#998c76" fill-rule="nonzero" stroke="#998c76" stroke-width="0" stroke-linecap="butt"/><path d="M321.02592,76.56559c-0.52825,0 -0.98136,-0.18899 -1.35933,-0.56696c-0.37797,-0.38253 -0.56696,-0.83564 -0.56696,-1.35933c0,-0.5237 0.18899,-0.97453 0.56696,-1.3525c0.37797,-0.37797 0.83108,-0.56696 1.35933,-0.56696c0.5237,0 0.97453,0.18899 1.3525,0.56696c0.37797,0.37797 0.56696,0.8288 0.56696,1.3525c0,0.5237 -0.18899,0.97681 -0.56696,1.35933c-0.37797,0.37797 -0.8288,0.56696 -1.3525,0.56696z" data-paper-data="{&quot;origPos&quot;:null}" fill="#998c76" fill-rule="nonzero" stroke="#998c76" stroke-width="1" stroke-linecap="butt"/><path d="M-135.48294,-59.84252h714.45667v261.19687h-714.45667z" data-paper-data="{&quot;origPos&quot;:null}" fill-opacity="0" fill="#000000" fill-rule="evenodd" stroke="none" stroke-width="1" stroke-linecap="square"/></g></g></svg>