<svg version="1.1" xmlns="http://www.w3.org/2000/svg" xmlns:xlink="http://www.w3.org/1999/xlink" width="960" height="720"><defs><clipPath id="clip-1"><path d="M-240,-180h960v720h-960z" id="clip-1" fill="none" stroke="none" stroke-width="1" stroke-linecap="butt"/></clipPath></defs><g transform="translate(240,180)"><g clip-path="url(#clip-1)" data-paper-data="{&quot;isPaintingLayer&quot;:true}" fill="none" fill-rule="nonzero" stroke="none" stroke-width="none" stroke-linecap="none" stroke-linejoin="miter" stroke-miterlimit="10" stroke-dasharray="" stroke-dashoffset="0" font-family="none" font-weight="none" font-size="none" text-anchor="none" style="mix-blend-mode: normal"><path d="M127.00356,186.1145c-0.63923,0 -1.16966,-0.21762 -1.59129,-0.65284c-0.42163,-0.43522 -0.63243,-0.97245 -0.63243,-1.61168v-29.4592c0,-0.63923 0.21762,-1.17646 0.65284,-1.61168c0.43522,-0.43522 0.95886,-0.65284 1.57089,-0.65284c0.63923,0 1.17646,0.21762 1.61169,0.65284c0.43522,0.43522 0.65284,0.97245 0.65284,1.61169v27.19469h15.74966c0.63923,0 1.17646,0.21762 1.61169,0.65284c0.43522,0.43522 0.65284,0.97245 0.65284,1.61169c0,0.63923 -0.21762,1.17646 -0.65284,1.61169c-0.43522,0.43522 -0.97245,0.65284 -1.61168,0.65284zM163.46816,186.29811c-2.40733,0 -4.54944,-0.51682 -6.42634,-1.55048c-1.8633,-1.03366 -3.32537,-2.45494 -4.38623,-4.26383c-1.06086,-1.82249 -1.59129,-3.90341 -1.59129,-6.24274c0,-2.38013 0.49643,-4.47464 1.48929,-6.28354c1.00645,-1.82249 2.39373,-3.24377 4.16183,-4.26383c1.78169,-1.03366 3.81501,-1.55048 6.09994,-1.55048c2.27132,0 4.21623,0.50323 5.83472,1.50968c1.61848,0.99286 2.85616,2.36653 3.713,4.12102c0.85685,1.7545 1.28528,3.77421 1.28528,6.05914c0,0.55763 -0.19041,1.02006 -0.57123,1.38728c-0.36722,0.35361 -0.84324,0.53043 -1.42808,0.53043h-17.52455v-3.46819h17.40215l-1.7953,1.20367c-0.0272,-1.44168 -0.31962,-2.73375 -0.87724,-3.87621c-0.54403,-1.15607 -1.32607,-2.06731 -2.34612,-2.73375c-1.00645,-0.66644 -2.23732,-0.99965 -3.69259,-0.99965c-1.64569,0 -3.06017,0.36722 -4.24343,1.10166c-1.16966,0.72083 -2.06051,1.71369 -2.67254,2.97856c-0.61203,1.25126 -0.91804,2.67934 -0.91804,4.28423c0,1.59129 0.36042,3.01256 1.08127,4.26384c0.73444,1.23767 1.74089,2.22373 3.01936,2.95817c1.27847,0.72083 2.74055,1.08127 4.38625,1.08127c0.89765,0 1.81571,-0.16321 2.75416,-0.48963c0.95206,-0.34002 1.7205,-0.72764 2.30533,-1.16286c0.43522,-0.31281 0.90445,-0.47602 1.40768,-0.48963c0.50323,-0.0272 0.94525,0.12241 1.32608,0.44882c0.48963,0.43522 0.74805,0.91806 0.77524,1.44849c0.0272,0.51682 -0.20401,0.95886 -0.69364,1.32608c-0.97925,0.78885 -2.20332,1.43488 -3.6722,1.93811c-1.46888,0.48963 -2.86976,0.73444 -4.20263,0.73444zM186.49944,186.07369c-0.91125,0 -1.61168,-0.48282 -2.10131,-1.44847l-9.2213,-19.44225c-0.23121,-0.48963 -0.25162,-0.97245 -0.0612,-1.44847c0.19041,-0.48963 0.55763,-0.86365 1.10166,-1.12205c0.48963,-0.25842 0.98606,-0.29922 1.48929,-0.12241c0.51682,0.17681 0.90445,0.51003 1.16287,0.99966l8.62968,18.58542h-2.10131l8.52766,-18.5854c0.27201,-0.48963 0.67324,-0.82285 1.20367,-0.99965c0.53043,-0.17681 1.07446,-0.13601 1.63209,0.12241c0.51682,0.23121 0.86365,0.59843 1.04046,1.10166c0.17681,0.48963 0.1496,0.97925 -0.0816,1.46888l-9.2213,19.44226c-0.43522,0.96565 -1.10166,1.44849 -1.99931,1.44849zM212.59684,186.29811c-2.40733,0 -4.54944,-0.51682 -6.42634,-1.55048c-1.8633,-1.03366 -3.32537,-2.45494 -4.38623,-4.26383c-1.06086,-1.82249 -1.59129,-3.90341 -1.59129,-6.24274c0,-2.38013 0.49643,-4.47464 1.48929,-6.28354c1.00645,-1.82249 2.39373,-3.24377 4.16183,-4.26383c1.78169,-1.03366 3.81501,-1.55048 6.09994,-1.55048c2.27132,0 4.21623,0.50323 5.83472,1.50968c1.61848,0.99286 2.85616,2.36653 3.713,4.12102c0.85685,1.7545 1.28528,3.77421 1.28528,6.05914c0,0.55763 -0.19041,1.02006 -0.57123,1.38728c-0.36722,0.35361 -0.84324,0.53043 -1.42808,0.53043h-17.52455v-3.46819h17.40215l-1.7953,1.20367c-0.0272,-1.44168 -0.31962,-2.73375 -0.87724,-3.87621c-0.54403,-1.15607 -1.32607,-2.06731 -2.34612,-2.73375c-1.00645,-0.66644 -2.23732,-0.99965 -3.69259,-0.99965c-1.64569,0 -3.06017,0.36722 -4.24343,1.10166c-1.16966,0.72083 -2.06051,1.71369 -2.67254,2.97856c-0.61203,1.25126 -0.91804,2.67934 -0.91804,4.28423c0,1.59129 0.36042,3.01256 1.08127,4.26384c0.73444,1.23767 1.74089,2.22373 3.01936,2.95817c1.27847,0.72083 2.74055,1.08127 4.38625,1.08127c0.89765,0 1.81571,-0.16321 2.75416,-0.48963c0.95206,-0.34002 1.7205,-0.72764 2.30533,-1.16286c0.43522,-0.31281 0.90445,-0.47602 1.40768,-0.48963c0.50323,-0.0272 0.94525,0.12241 1.32608,0.44882c0.48963,0.43522 0.74805,0.91806 0.77524,1.44849c0.0272,0.51682 -0.20401,0.95886 -0.69364,1.32608c-0.97925,0.78885 -2.20332,1.43488 -3.6722,1.93811c-1.46888,0.48963 -2.86976,0.73444 -4.20263,0.73444zM234.09124,186.1145c-1.27847,0 -2.41413,-0.34681 -3.40698,-1.04045c-0.97925,-0.69364 -1.74769,-1.63889 -2.30532,-2.83575c-0.54403,-1.21046 -0.81604,-2.60454 -0.81604,-4.18222v-23.74689c0,-0.63923 0.20401,-1.16286 0.61203,-1.57088c0.40802,-0.40802 0.93165,-0.61203 1.57089,-0.61203c0.63923,0 1.16287,0.20401 1.57089,0.61203c0.40802,0.40802 0.61203,0.93165 0.61203,1.57089v23.74689c0,1.07446 0.19721,1.96531 0.59164,2.67255c0.40802,0.69364 0.93165,1.04046 1.57089,1.04046h1.10166c0.57123,0 1.04046,0.20401 1.40768,0.61203c0.36722,0.39442 0.55084,0.91125 0.55084,1.55048c0,0.63923 -0.27881,1.16287 -0.83644,1.57089c-0.54403,0.40802 -1.25126,0.61203 -2.12172,0.61203zM265.03699,186.29811c-2.32573,0 -4.39303,-0.53043 -6.20194,-1.59129c-1.8089,-1.06086 -3.23018,-2.49574 -4.26383,-4.30463c-1.03366,-1.82249 -1.55048,-3.87621 -1.55048,-6.16114c0,-2.35292 0.51003,-4.44064 1.53009,-6.26313c1.02006,-1.8361 2.41413,-3.26418 4.18223,-4.28423c1.7681,-1.03366 3.79461,-1.55048 6.07953,-1.55048c1.71369,0 3.27778,0.32642 4.69226,0.97925c1.42808,0.65284 2.70655,1.63209 3.83541,2.93776c0.40802,0.46243 0.55084,0.93845 0.42843,1.42808c-0.1088,0.48963 -0.42163,0.92485 -0.93845,1.30567c-0.40802,0.28562 -0.86365,0.38083 -1.36687,0.28562c-0.48963,-0.1088 -0.93165,-0.36042 -1.32607,-0.75483c-1.42808,-1.50968 -3.20297,-2.26452 -5.32468,-2.26452c-1.46888,0 -2.77455,0.34002 -3.91701,1.02006c-1.12886,0.68003 -2.01291,1.63209 -2.65214,2.85616c-0.63923,1.21046 -0.95885,2.64534 -0.95885,4.30464c0,1.56409 0.32642,2.95817 0.97925,4.18223c0.65284,1.21046 1.55729,2.17612 2.71335,2.89696c1.16966,0.70724 2.52294,1.06086 4.05983,1.06086c1.02006,0 1.9109,-0.12241 2.67255,-0.36722c0.77524,-0.25842 1.48248,-0.64603 2.12172,-1.16286c0.46243,-0.38083 0.93845,-0.59163 1.42808,-0.63243c0.48963,-0.0408 0.92485,0.09521 1.30567,0.40802c0.48963,0.40802 0.76164,0.87045 0.81604,1.38728c0.068,0.50323 -0.102,0.95886 -0.51002,1.36688c-2.09452,1.9449 -4.70586,2.91737 -7.83403,2.91737zM286.04872,186.1145c-1.27847,0 -2.41413,-0.34681 -3.40698,-1.04045c-0.97925,-0.69364 -1.74769,-1.63889 -2.30532,-2.83575c-0.54403,-1.21046 -0.81604,-2.60454 -0.81604,-4.18222v-23.74689c0,-0.63923 0.20401,-1.16286 0.61203,-1.57088c0.40802,-0.40802 0.93165,-0.61203 1.57089,-0.61203c0.63923,0 1.16287,0.20401 1.57089,0.61203c0.40802,0.40802 0.61203,0.93165 0.61203,1.57089v23.74689c0,1.07446 0.19721,1.96531 0.59164,2.67255c0.40802,0.69364 0.93165,1.04046 1.57089,1.04046h1.10166c0.57123,0 1.04046,0.20401 1.40768,0.61203c0.36722,0.39442 0.55084,0.91125 0.55084,1.55048c0,0.63923 -0.27881,1.16287 -0.83644,1.57089c-0.54403,0.40802 -1.25126,0.61203 -2.12172,0.61203zM303.32639,186.29811c-2.40733,0 -4.54944,-0.51682 -6.42634,-1.55048c-1.8633,-1.03366 -3.32537,-2.45494 -4.38623,-4.26383c-1.06086,-1.82249 -1.59129,-3.90341 -1.59129,-6.24274c0,-2.38013 0.49643,-4.47464 1.48929,-6.28354c1.00645,-1.82249 2.39373,-3.24377 4.16183,-4.26383c1.78169,-1.03366 3.81501,-1.55048 6.09994,-1.55048c2.27132,0 4.21623,0.50323 5.83474,1.50968c1.61848,0.99286 2.85616,2.36653 3.713,4.12102c0.85685,1.7545 1.28528,3.77421 1.28528,6.05914c0,0.55763 -0.19041,1.02006 -0.57123,1.38728c-0.36722,0.35361 -0.84324,0.53043 -1.42808,0.53043h-17.52457v-3.46819h17.40217l-1.7953,1.20367c-0.0272,-1.44168 -0.31962,-2.73375 -0.87724,-3.87621c-0.54403,-1.15607 -1.32608,-2.06731 -2.34615,-2.73375c-1.00645,-0.66644 -2.23732,-0.99965 -3.69259,-0.99965c-1.64569,0 -3.06017,0.36722 -4.24343,1.10166c-1.16966,0.72083 -2.06051,1.71369 -2.67254,2.97856c-0.61203,1.25126 -0.91804,2.67934 -0.91804,4.28423c0,1.59129 0.36042,3.01256 1.08127,4.26384c0.73444,1.23767 1.74089,2.22373 3.01936,2.95817c1.27847,0.72083 2.74055,1.08127 4.38625,1.08127c0.89765,0 1.81571,-0.16321 2.75416,-0.48963c0.95207,-0.34002 1.72051,-0.72764 2.30534,-1.16286c0.43522,-0.31281 0.90445,-0.47602 1.40768,-0.48963c0.50323,-0.0272 0.94525,0.12241 1.32608,0.44882c0.48963,0.43522 0.74805,0.91806 0.77524,1.44849c0.0272,0.51682 -0.20401,0.95886 -0.69364,1.32608c-0.97925,0.78885 -2.20332,1.43488 -3.6722,1.93811c-1.46889,0.48963 -2.86977,0.73444 -4.20265,0.73444zM328.21416,186.29811c-2.10811,0 -4.00542,-0.53043 -5.6919,-1.59129c-1.6865,-1.06086 -3.01936,-2.49574 -3.99862,-4.30463c-0.96565,-1.82249 -1.44847,-3.87621 -1.44847,-6.16114c0,-2.29853 0.53043,-4.35903 1.59129,-6.18153c1.06086,-1.8361 2.49574,-3.27778 4.30464,-4.32504c1.82249,-1.06086 3.86261,-1.59129 6.12033,-1.59129c2.25773,0 4.28423,0.53043 6.07953,1.59129c1.8089,1.04725 3.24378,2.48894 4.30464,4.32504c1.06086,1.82249 1.59129,3.88301 1.59129,6.18154h-1.71369c0,2.28492 -0.48963,4.33864 -1.46888,6.16114c-0.96565,1.8089 -2.29173,3.24378 -3.97821,4.30464c-1.67289,1.06086 -3.57019,1.59129 -5.6919,1.59129zM329.09142,182.3811c1.48248,0 2.80175,-0.35361 3.95782,-1.06086c1.15607,-0.72083 2.06731,-1.69329 2.73375,-2.91735c0.66644,-1.23767 0.99966,-2.62495 0.99966,-4.16183c0,-1.56409 -0.33322,-2.96496 -0.99965,-4.20263c-0.66644,-1.23767 -1.57768,-2.21012 -2.73375,-2.91735c-1.15607,-0.70724 -2.47533,-1.06086 -3.95782,-1.06086c-1.45527,0 -2.76775,0.35361 -3.93741,1.06086c-1.16966,0.70724 -2.10131,1.67969 -2.79495,2.91737c-0.68003,1.23767 -1.02006,2.63854 -1.02006,4.20263c0,1.53688 0.34002,2.92415 1.02006,4.16183c0.69364,1.22407 1.62529,2.19652 2.79496,2.91737c1.16966,0.70724 2.48213,1.06086 3.93742,1.06086zM338.84315,186.1553c-0.63923,0 -1.16966,-0.21081 -1.59129,-0.63243c-0.42163,-0.42163 -0.63243,-0.95206 -0.63243,-1.59129v-6.65076l0.81604,-4.61065l3.6314,1.57089v9.69053c0,0.63923 -0.21081,1.16966 -0.63243,1.59129c-0.42163,0.42163 -0.95206,0.63244 -1.59129,0.63244zM349.79391,171.24209c0,-1.74089 0.42843,-3.29818 1.28528,-4.67185c0.85685,-1.38728 2.01291,-2.48894 3.46819,-3.30498c1.45527,-0.81604 3.05336,-1.22407 4.79427,-1.22407c1.74089,0 3.03297,0.28562 3.87621,0.85685c0.85685,0.57123 1.19007,1.24447 0.99966,2.01972c-0.09521,0.40802 -0.26521,0.72083 -0.51002,0.93845c-0.24481,0.21762 -0.53043,0.36042 -0.85685,0.42843c-0.31281,0.05441 -0.65964,0.034 -1.04045,-0.0612c-1.8497,-0.38083 -3.51579,-0.40802 -4.99827,-0.0816c-1.48248,0.31281 -2.65214,0.90445 -3.50899,1.7749c-0.85685,0.87045 -1.28526,1.97891 -1.28526,3.32539zM349.85512,186.1145c-0.70724,0 -1.25126,-0.17681 -1.63209,-0.53043c-0.36722,-0.36722 -0.55082,-0.91804 -0.55082,-1.65248v-19.44225c0,-0.69364 0.18362,-1.23087 0.55084,-1.61168c0.38083,-0.38083 0.92485,-0.57123 1.63209,-0.57123c0.72083,0 1.25807,0.18362 1.61169,0.55084c0.36722,0.36722 0.55084,0.91125 0.55084,1.63209v19.44226c0,0.70724 -0.1836,1.25126 -0.55082,1.63209c-0.35361,0.36722 -0.89085,0.55084 -1.61168,0.55084zM370.08557,178.05606c-0.63923,0 -1.16966,-0.22441 -1.59129,-0.67323c-0.42163,-0.44882 -0.63243,-0.95885 -0.63243,-1.53008v-21.46197c0,-0.63923 0.21081,-1.17646 0.63244,-1.61168c0.42163,-0.43522 0.95206,-0.65284 1.59129,-0.65284c0.63923,0 1.16966,0.21762 1.59129,0.65284c0.42163,0.43522 0.63244,0.97245 0.63244,1.61169v21.46197c0,0.59843 -0.23121,1.11526 -0.69364,1.55048c-0.44882,0.43522 -0.95885,0.65284 -1.53008,0.65284zM370.08557,186.1145c-0.81604,0 -1.52329,-0.28562 -2.12172,-0.85685c-0.58484,-0.58484 -0.87724,-1.29887 -0.87724,-2.14211c0,-0.84324 0.29242,-1.55729 0.87725,-2.14211c0.59843,-0.59843 1.30567,-0.89765 2.12172,-0.89765c0.84324,0 1.55048,0.29922 2.12172,0.89765c0.58484,0.58484 0.87725,1.29887 0.87725,2.14212c0,0.84324 -0.29922,1.55729 -0.89765,2.14212c-0.58484,0.57123 -1.28526,0.85685 -2.10131,0.85685z" data-paper-data="{&quot;origPos&quot;:null}" fill="#817764" stroke="#817764" stroke-width="2" stroke-linecap="square"/></g></g></svg>