<svg version="1.1" xmlns="http://www.w3.org/2000/svg" xmlns:xlink="http://www.w3.org/1999/xlink" width="960" height="720"><defs><clipPath id="clip-1"><path d="M-240,-180h960v720h-960z" id="clip-1" fill="none" stroke="none" stroke-width="1" stroke-linecap="butt"/></clipPath></defs><g transform="translate(240,180)"><g clip-path="url(#clip-1)" data-paper-data="{&quot;isPaintingLayer&quot;:true}" fill="none" fill-rule="nonzero" stroke="none" stroke-width="none" stroke-linecap="none" stroke-linejoin="miter" stroke-miterlimit="10" stroke-dasharray="" stroke-dashoffset="0" font-family="none" font-weight="none" font-size="none" text-anchor="none" style="mix-blend-mode: normal"><path d="M63.39081,162.17725c0,0.3888 -0.00498,0.80252 -0.01496,1.24117c-0.00998,0.43865 -0.06978,0.87232 -0.17944,1.30098c-0.06978,0.32899 -0.21434,0.65798 -0.43367,0.98695c-0.20935,0.32899 -0.44862,0.62806 -0.71778,0.89722c-0.26916,0.2592 -0.59317,0.50345 -0.97199,0.73274c-0.37884,0.21931 -0.7826,0.32899 -1.21126,0.32899c-0.9371,0 -1.51033,-0.29409 -1.71969,-0.88227c-0.19937,-0.59815 -0.31403,-1.0368 -0.34395,-1.31594c-0.01994,-0.27914 0.05482,-0.47353 0.22431,-0.58319c0.16949,-0.11963 0.2542,0.01993 0.2542,0.41871c0,-0.46856 -0.00497,-0.56326 -0.01495,-0.28412c-0.00998,0.26916 -0.18444,0.40375 -0.52339,0.40375c-0.78757,0 -1.23119,-0.30405 -1.33089,-0.91218c-0.0997,-0.61809 -0.17944,-1.09663 -0.23927,-1.43557c-0.0598,-0.33895 -0.12461,-0.66296 -0.19439,-0.97199c-0.06978,-0.31901 -0.13957,-0.55828 -0.20936,-0.71778c-0.17944,-0.3888 -0.3888,-0.83742 -0.62807,-1.34585c-0.23927,-0.50843 -0.35888,-1.10159 -0.35888,-1.77949c0,-0.5483 0.08972,-1.00191 0.26916,-1.36081c0.18942,-0.35888 0.35888,-0.648 0.50843,-0.86731c0.15951,-0.21931 0.26418,-0.37384 0.31403,-0.46356c0.0598,-0.08972 0.08972,-0.15951 0.08972,-0.20936c0,-0.07976 -0.05483,-0.17944 -0.16448,-0.29907c-0.0997,-0.12959 -0.28909,-0.25921 -0.56824,-0.3888c-0.26916,-0.13957 -0.57821,-0.24424 -0.92714,-0.31403c-0.34892,-0.06978 -0.64302,-0.10468 -0.88227,-0.10468c-0.44862,0 -0.9072,0.0598 -1.37574,0.17944c-0.45858,0.10966 -0.9371,0.25423 -1.43557,0.43367c-0.49845,0.16949 -1.01188,0.36388 -1.54024,0.58319c-0.52836,0.20936 -1.00688,0.07476 -1.43557,-0.40375c0.57822,-0.10966 0.88727,0.02991 0.92714,0.41871c0.04985,0.37884 0.07477,0.7477 0.07477,1.10658c0,0.7477 -0.03489,1.47046 -0.10468,2.16831c-0.0598,0.69785 -0.08972,1.38074 -0.08972,2.04868c0,0.71778 0.03987,1.44552 0.11963,2.18324c0.07977,0.72774 0.16449,1.46548 0.25423,2.21316c0.08972,0.7477 0.17944,1.51531 0.26916,2.30288c0.08972,0.77759 0.13459,1.56516 0.13459,2.36271c0,1.05673 -0.17944,2.09353 -0.53834,3.11039c-0.30905,-0.01993 -0.31404,-0.02991 -0.01496,-0.02991c0,0.03987 0.02492,0.11963 0.07477,0.23927c0.04985,0.10966 0.14455,0.28909 0.28412,0.53834c0.14955,0.23927 0.29409,0.53835 0.43366,0.89723c0.14955,0.35888 0.22431,0.75766 0.22431,1.1963c0,0.39878 -0.03987,0.71281 -0.11963,0.9421c-0.07976,0.21931 -0.11963,0.36885 -0.11963,0.44862c0,0.20936 0.04487,0.46856 0.13459,0.7776c0.08972,0.30905 0.13459,0.69285 0.13459,1.15145c0,0.72774 -0.21434,1.20128 -0.64302,1.42061c-0.41871,0.20936 -0.73274,0.31403 -0.94209,0.31403c-0.19938,0 -0.33397,-0.18942 -0.40376,-0.56824c-0.0598,-0.37884 0.2941,-0.56824 1.06173,-0.56824c0,0.10966 0.06481,0.30905 0.1944,0.59815c0.13957,0.27914 0.20935,0.67292 0.20935,1.18135c0,0.46856 -0.0598,0.82246 -0.17944,1.06173c-0.10966,0.23927 -0.16449,0.39378 -0.16449,0.46356c-0.27914,0 -0.2592,0.04487 0.0598,0.13459c0.31901,0.08972 0.56824,0.39377 0.7477,0.91218c0.12959,0.42866 0.22431,0.85238 0.28411,1.27107c0.06978,0.41871 0.16449,0.7477 0.28412,0.98695c0.12959,0.23927 0.31901,0.43864 0.56824,0.59815c0.2592,0.14955 0.70781,0.22431 1.34585,0.22431h0.91219c0.29907,0 0.66793,0.02992 1.10658,0.08972c0.43865,0.04985 0.88727,0.15453 1.34585,0.31403c0.46856,0.14955 0.92714,0.42866 1.37574,0.83741c0.45858,0.40873 0.68787,0.97699 0.68787,1.70473c0,0.49845 -0.06481,0.9072 -0.1944,1.22621c-0.11964,0.30905 -0.17944,0.54332 -0.17944,0.70283c0,0 0.13957,0.59317 0.41871,1.7795c-1.1963,0 -1.79945,-0.00998 -1.80941,-0.02992c0,-0.01993 -0.0997,0.34395 -0.29907,1.09163c-1.12652,-0.21931 -1.88417,-0.33895 -2.27299,-0.35888c-0.37884,-0.02991 -0.76263,-0.04487 -1.15145,-0.04487c-0.98694,0 -1.98387,0.07476 -2.99075,0.22432c-0.99692,0.14955 -2.02374,0.31403 -3.08049,0.49347c-1.04677,0.17944 -2.11349,0.34893 -3.20011,0.50843c-1.08665,0.15951 -2.18824,0.23927 -3.30478,0.23927c-0.37884,0 -0.85736,-0.00998 -1.43557,-0.02991c-0.56824,-0.01993 -1.15643,-0.10966 -1.76456,-0.26916c-0.60813,-0.15951 -1.20627,-0.46356 -1.79445,-0.91219c-0.57822,-0.44863 -0.86731,-1.13649 -0.86731,-2.06363c0,-0.75765 0.0947,-1.37575 0.28412,-1.85428c0.18942,-0.48849 0.46856,-0.85736 0.83742,-1.10658c0.37884,-0.2592 0.7128,-0.39878 1.0019,-0.41871c0.28909,-0.02991 0.51341,0.18444 0.67292,0.64302c0.13957,0.21931 -0.15951,0.32899 -0.89722,0.32899c0.66793,0 0.91218,0.10468 0.73274,0.31403c-0.16949,0.19937 -0.97699,0.10468 -2.42252,-0.28412c1.63495,-1.40565 2.74153,-2.18825 3.31974,-2.34776c0.57822,-0.16949 1.12154,-0.27913 1.62996,-0.32898c0.50843,-0.04985 0.96701,-0.08972 1.37574,-0.11963c0.41871,-0.03987 0.78259,-0.11963 1.09163,-0.23927c0.13957,0.32899 0.1944,0.3539 0.16449,0.07476c-0.02992,-0.28909 0.01994,-0.57822 0.14955,-0.86732c0.12959,-0.28909 0.22929,-0.56824 0.29907,-0.83742c0.06979,-0.26916 0.10468,-0.43864 0.10468,-0.50843h0.50843c-0.47851,-0.93709 -0.76263,-1.89415 -0.85238,-2.87114c-0.07976,-0.98694 -0.11963,-1.99882 -0.11963,-3.03562c0,-0.21931 0.04487,-0.47354 0.13459,-0.76263c0.08972,-0.28909 0.18942,-0.5533 0.29907,-0.79255c0.08972,-0.22929 0.27915,-0.29907 0.56824,-0.20935c-0.25921,0.13957 -0.46356,0.07976 -0.61311,-0.17944c-0.11963,-0.24922 -0.24425,-0.50843 -0.37384,-0.77759c-0.11963,-0.27914 -0.17944,-0.56824 -0.17944,-0.86732c0,-0.40873 0.04985,-0.7427 0.14955,-1.0019c0.0997,-0.26916 0.15951,-0.47354 0.17944,-0.61311c0.10966,-0.78757 0.16449,-1.60005 0.16449,-2.43747c0,-0.30905 -0.02492,-0.61809 -0.07476,-0.92714c-0.03987,-0.31901 -0.0947,-0.63802 -0.16449,-0.95705c-0.28909,-1.37574 -0.43366,-2.78142 -0.43366,-4.21697c0,-1.63494 0.0997,-3.23002 0.29907,-4.78522c0.20935,-1.56516 0.31403,-3.10541 0.31403,-4.62072c0,-0.28909 -0.01993,-0.45858 -0.0598,-0.50843c-0.02992,-0.0598 -0.14955,-0.12461 -0.35888,-0.19439c-0.66794,-0.18942 -1.36081,-0.33895 -2.07857,-0.44863c-0.71778,-0.11963 -1.4306,-0.17944 -2.1384,-0.17944c-0.48849,0 -0.99194,0.05483 -1.51033,0.16449c-0.51841,0.10966 -0.97199,0.27416 -1.3608,0.49347c-0.37884,0.21931 -0.67292,0.47852 -0.88227,0.77759c-0.20935,0.28909 -0.31404,0.63803 -0.31404,1.04678c0,0.29907 0.01994,0.61808 0.05981,0.95705c0.03987,0.32899 0.0598,0.69785 0.0598,1.10658c0,0.55828 -0.06978,0.95705 -0.20935,1.1963c-0.12959,0.23927 -0.1944,0.35888 -0.1944,0.35888c0,0.0598 0.08474,0.22431 0.25423,0.49347c0.16949,0.26916 0.25423,0.68289 0.25423,1.24117c0,0.36886 -0.06481,0.72774 -0.1944,1.07667c-0.12959,0.33895 -0.25921,0.64302 -0.3888,0.91218c-0.12959,0.26916 -0.24424,0.51342 -0.34395,0.73275c-0.0997,0.21931 -0.17446,0.41372 -0.22431,0.58319c-0.15951,0.44863 -0.40874,0.90721 -0.7477,1.37575c-0.32899,0.45858 -0.89225,0.68787 -1.68977,0.68787c-0.59815,0 -1.16638,-0.20936 -1.70473,-0.62807c-0.53835,-0.41871 -0.80751,-0.99194 -0.80751,-1.71969c0,-0.5483 0.15452,-0.85238 0.46356,-0.91218c0.30905,-0.06978 0.26916,-0.10468 -0.11963,-0.10468c0,-0.04985 -0.02492,-0.13459 -0.07477,-0.25423c-0.03987,-0.11963 -0.11466,-0.2891 -0.22431,-0.50843c-0.10965,-0.21931 -0.22929,-0.48849 -0.35888,-0.80751c-0.11963,-0.32899 -0.17944,-0.68788 -0.17944,-1.07667c0,-0.44863 0.04487,-0.8075 0.13459,-1.07666c0.0997,-0.26916 0.14952,-0.47354 0.14952,-0.61311c0,-0.47851 -0.0997,-1.01686 -0.29907,-1.61501c-0.19938,-0.60813 -0.29907,-1.296 -0.29907,-2.06363c0,-0.62807 0.06978,-1.37076 0.20935,-2.22812c0.13957,-0.85736 0.3888,-1.69975 0.7477,-2.52719c0.35888,-0.83742 0.87728,-1.59507 1.5552,-2.27299c0.67792,-0.67792 1.57014,-1.01686 2.67674,-1.01686c0.61809,0 1.18135,0.0598 1.68978,0.17944c0.50843,0.10966 0.98197,0.16449 1.42061,0.16449c0.51841,0 1.07667,-0.04985 1.67482,-0.14955c0.60813,-0.10966 1.25613,-0.16448 1.944,-0.16448c0.56824,0 1.03182,0.06978 1.39069,0.20935c0.36886,0.13957 0.6829,0.20936 0.9421,0.20936c0,0.03987 0.08474,-0.00498 0.25423,-0.13459c0.16949,-0.13957 0.49845,-0.20935 0.98694,-0.20935c0.44863,0 0.79255,0.0598 1.03182,0.17944c0.23927,0.10966 0.38382,0.16449 0.43366,0.16449c0.08972,0 0.22929,-0.02992 0.41871,-0.08972c0.19938,-0.06978 0.47354,-0.10468 0.82247,-0.10468c0.43864,0 0.8075,0.04487 1.10658,0.13459c0.29908,0.07976 0.50345,0.11963 0.61311,0.11963l3.72349,-0.47851c0.58819,-0.03987 1.17139,-0.07977 1.7496,-0.11964c0.57822,-0.03987 1.17138,-0.0598 1.7795,-0.0598c1.06671,0 2.11846,0.08474 3.15526,0.25423c1.03679,0.15951 2.40756,0.43366 4.11229,0.82246l-1.27107,1.04678c1.24615,-0.56824 2.07857,-0.46356 2.49728,0.31403c0.41871,0.77759 0.68289,1.57514 0.79255,2.39261c0.10966,0.80751 0.15453,1.58509 0.13459,2.33279c-0.01994,0.73772 -0.00998,1.34084 0.02991,1.8094c0.0598,0.76763 0.13459,1.56018 0.22431,2.37767c0.0997,0.81748 0.14955,1.64493 0.14955,2.48235zM95.78106,188.19689c0,0.7477 -0.11963,1.39069 -0.35888,1.92904c-0.23927,0.53834 -0.53834,1.00688 -0.89722,1.40565c-0.34893,0.39878 -0.72276,0.7477 -1.12154,1.04678c-0.3888,0.28909 -0.75765,0.57324 -1.10658,0.85238c-0.35888,0.30905 -0.68788,0.54332 -0.98695,0.70282c-0.28909,0.15951 -0.56326,0.2891 -0.82246,0.3888c-0.24922,0.0997 -0.48849,0.18942 -0.71778,0.26916c-0.21931,0.06978 -0.45361,0.16448 -0.70283,0.28412c-0.36886,0.18942 -0.69785,0.37384 -0.98694,0.5533c-0.27914,0.16949 -0.58319,0.33895 -0.91218,0.50843c-0.32899,0.16949 -0.70283,0.31403 -1.12154,0.43366c-0.40873,0.11963 -0.89224,0.20936 -1.45052,0.26916c-0.80751,0.10966 -1.6499,0.23926 -2.52719,0.3888c-0.86731,0.14955 -1.7496,0.22431 -2.64683,0.22431c-0.34892,0 -0.64302,-0.04985 -0.88227,-0.14955c-0.22929,-0.0997 -0.44362,-0.17944 -0.64302,-0.23926c-0.19937,-0.0598 -0.40873,-0.11964 -0.62806,-0.17944c-0.21931,-0.0598 -0.46856,-0.08972 -0.7477,-0.08972c-0.61808,0 -1.12154,-0.0997 -1.51034,-0.29907c-0.37884,-0.18942 -0.69285,-0.38382 -0.94209,-0.58319c-0.24922,-0.20936 -0.45858,-0.38879 -0.62807,-0.53834c-0.15951,-0.15951 -0.33397,-0.27914 -0.52338,-0.35891c-1.38572,-0.63802 -2.56209,-1.3907 -3.5291,-2.25803c-0.96701,-0.87729 -1.78947,-1.84928 -2.46739,-2.91599c-0.67792,-1.06671 -1.24117,-2.2032 -1.68977,-3.40946c-0.43864,-1.21624 -0.80253,-2.46739 -1.09162,-3.75341c-0.25921,-0.96701 -0.3888,-1.944 -0.3888,-2.93095c0,-1.36579 0.22929,-2.46239 0.68787,-3.28985c-0.12959,-0.35888 -0.1944,-0.88227 -0.1944,-1.57014c0,-0.51841 0.12461,-1.21126 0.37384,-2.07857c0.2592,-0.87729 0.58319,-1.73963 0.97198,-2.587c0.39878,-0.84738 0.85736,-1.65988 1.37575,-2.43747c0.51841,-0.77759 1.1016,-1.296 1.7496,-1.5552c0.20935,-0.06978 0.34395,-0.00998 0.40376,0.17944c0.0598,0.18942 -0.0997,0.2542 -0.47852,0.1944c0,-0.65795 0.20438,-1.15643 0.61311,-1.49538c0.40873,-0.34893 0.79753,-0.58819 1.16641,-0.71778c0.36886,-0.13957 0.68787,-0.24923 0.95705,-0.32899c0.26916,-0.08972 0.46356,-0.1595 0.58319,-0.20935c0.78757,-0.3888 1.5502,-0.71778 2.28792,-0.98694c0.73772,-0.27914 1.48042,-0.51341 2.22812,-0.70283c0.7477,-0.18942 1.52031,-0.32899 2.31784,-0.41871c0.80751,-0.08972 1.65988,-0.13459 2.55711,-0.13459c0.57821,0 1.13649,0.07976 1.67482,0.23927c0.53834,0.14955 1.03181,0.33895 1.48042,0.56824c0.45858,0.21931 0.89225,0.45361 1.30098,0.70283c0.41871,0.24922 2.11846,1.30097 5.09926,3.15525l-4.63568,-1.31593c0.56824,-0.81748 0.99194,-1.15643 1.27107,-1.01686c0.27914,0.13957 0.67791,0.23927 1.1963,0.29907c0.42866,0.53834 0.85736,0.95206 1.28602,1.24118c0.42866,0.28909 0.89225,0.63304 1.3907,1.03181c0.50843,0.3888 0.98197,0.86732 1.42061,1.43557c0.44863,0.55828 0.67291,1.25113 0.67291,2.07857c0,0.13957 -0.00998,0.26916 -0.02991,0.3888c-0.00998,0.11963 -0.43864,0.11963 -1.28602,0l-0.20936,-1.88418c0.96701,0.7477 1.51034,1.25113 1.62997,1.51034c0.12959,0.24922 0.23426,0.4885 0.31403,0.71779c0.08972,0.21931 0.15453,0.43366 0.1944,0.64302c0.04985,0.20936 -0.07477,0.3539 -0.37384,0.43366c0.2592,-0.16949 0.52836,-0.16949 0.80751,0c0.28909,0.16949 0.7477,0.78757 1.37574,1.85428c-0.58819,0.36886 -0.80253,0.57324 -0.64302,0.61311c0,0.16949 0.06978,0.42867 0.20935,0.77759c0.14955,0.33895 0.22431,0.77261 0.22431,1.30098c0,0.46856 -0.01993,0.89723 -0.0598,1.28602c-0.03987,0.37884 -0.05981,0.75267 -0.05981,1.12153c0,0.76763 -0.23426,1.31096 -0.70282,1.62997c-0.45858,0.31901 -0.83742,0.5483 -1.13649,0.68787c-0.29907,0.12959 -0.56326,0.11963 -0.79255,-0.02992c-0.22929,-0.15951 -0.09969,-0.23927 0.3888,-0.23927c0,1.0966 -0.32399,1.62997 -0.97199,1.60006c-0.648,-0.03987 -1.02184,-0.0598 -1.12154,-0.0598c-1.02684,0 -1.99384,-0.11466 -2.90103,-0.34395c-0.89722,-0.22929 -1.73963,-0.34395 -2.5272,-0.34395c-0.91716,0 -1.85427,0.06979 -2.81131,0.20936c-0.94708,0.12959 -1.93902,0.1944 -2.97582,0.1944c-0.7477,0 -1.48042,-0.01993 -2.19821,-0.0598c-0.71778,-0.03987 -1.43059,-0.05981 -2.13839,-0.05981c-0.12959,0 -0.43367,0.0349 -0.91219,0.10468c-0.46856,0.0598 -0.97199,0.14455 -1.51033,0.2542c-0.53834,0.0997 -1.02184,0.21434 -1.45052,0.34395c-0.42866,0.12959 -0.82744,-0.05483 -1.1963,-0.5533c0.62807,0.03987 0.94209,0.10966 0.94209,0.20936c0,0.7477 0.23927,1.56018 0.71778,2.43747c0.47851,0.87729 1.13649,1.69477 1.97389,2.45243c0.83742,0.75765 1.75956,1.38572 2.76646,1.88417c1.01686,0.48849 2.01876,0.73274 3.00571,0.73274c0.70781,0 1.44055,0.02992 2.19821,0.08973c0.76763,0.04985 1.35581,0.15452 1.76456,0.31403c0.13957,-0.06978 0.41373,-0.2592 0.82246,-0.56824c0.41871,-0.31901 0.83242,-0.66296 1.24117,-1.03182c0.41871,-0.37884 0.83242,-0.77262 1.24117,-1.18135c0.40873,-0.40873 0.83242,-0.82246 1.27106,-1.24117c0.2592,-0.24922 0.61809,-0.42867 1.07667,-0.53834c0.46856,-0.10966 0.9022,-0.18941 1.30097,-0.23926c0.40873,-0.04985 0.79753,-0.0947 1.16641,-0.13459c0.37884,-0.03987 0.648,-0.05981 0.80751,-0.05981c0.62807,0 1.44553,0.17945 2.45243,0.53835c0.2592,1.0368 0.3888,1.83932 0.3888,2.40756zM88.4836,175.54596c0,-0.15951 -0.04487,-0.36389 -0.13459,-0.61311c-0.08972,-0.2592 -0.16949,-0.57324 -0.23927,-0.94209c-0.12959,-0.66794 -0.1944,-1.26609 -0.1944,-1.79445c0,-0.53834 0.34395,-1.12652 1.03182,-1.76456l0.04487,-0.01495c0.84738,0.37884 1.12651,0.77759 0.83742,1.1963c-0.28909,0.40873 -0.73772,0.61311 -1.34584,0.61311c-0.46856,0 -0.90721,-0.10966 -1.31594,-0.32899c-0.39878,-0.21931 -0.66794,-0.40874 -0.80751,-0.56824c-0.61809,-0.27914 -1.23617,-0.56824 -1.85428,-0.86731c-0.61809,-0.30905 -1.22123,-0.57324 -1.80941,-0.79255c-0.57822,-0.21931 -1.18635,-0.3888 -1.82436,-0.50843c-0.62807,-0.11963 -1.37076,-0.17944 -2.22812,-0.17944c-0.01993,0 -0.05483,-0.1595 -0.10468,-0.47851c-0.04985,-0.31901 -0.08971,-0.54333 -0.11963,-0.67292l1.76456,1.1963l-1.7795,0.44862c-0.56824,0.10966 -1.0019,0.20437 -1.30098,0.28412c-0.28909,0.06978 -0.53335,0.16449 -0.73274,0.28412c-0.19937,0.10966 -0.42368,0.27417 -0.67291,0.49348c-0.24923,0.20936 -0.5882,0.49347 -1.01686,0.85237c-0.31901,0.28909 -0.64302,0.49846 -0.97199,0.62807c-0.32899,0.12959 -0.6131,0.22929 -0.85237,0.29907c-0.23927,0.06978 -0.40376,0.12461 -0.49348,0.16448c-0.08972,0.02991 -0.07976,-0.02491 0.02991,-0.16448c-0.11963,0.45858 -0.30905,0.9072 -0.56824,1.34585c-0.24922,0.43865 -0.37383,0.80751 -0.37383,1.10658c-0.16949,0 -0.18444,0.00998 -0.04487,0.02991c0.14955,0.00998 0.37384,0.07977 0.67291,0.20936c0.30906,0.11963 0.6829,0.23427 1.12154,0.34395c0.43864,0.10966 0.87231,0.1944 1.30097,0.2542c0.43864,0.0598 0.84738,0.10468 1.22621,0.13459c0.37884,0.02991 0.66794,0.04487 0.86732,0.04487c0.69785,0 1.43059,-0.07476 2.1982,-0.22431c0.76763,-0.15951 1.5901,-0.23927 2.46739,-0.23927c0.84738,0 1.67482,0.0349 2.48232,0.10468c0.81748,0.06978 1.61003,0.10468 2.37767,0.10468c0.18942,0 0.46356,-0.00998 0.82246,-0.02991c0.36886,-0.01993 0.70283,-0.05981 1.0019,-0.11963c0.29907,-0.06978 0.5533,-0.0598 0.76266,0.02992c0.21931,0.08972 0.14455,0.13459 -0.22431,0.13459zM138.89993,193.23632c0,0.22929 -0.03489,0.53335 -0.10468,0.91219c-0.06978,0.37884 -0.17944,0.75765 -0.32899,1.13649c-0.13957,0.37884 -0.35888,0.80253 -0.65795,1.27107c-0.28909,0.46856 -0.77261,0.70282 -1.45052,0.70282c-0.39878,0 -0.71281,-0.04487 -0.9421,-0.13459c-0.21931,-0.08972 -0.35888,-0.13459 -0.4187,-0.13459c-0.648,0 -1.32592,0.06481 -2.03372,0.1944c-0.7078,0.13957 -1.46548,0.20935 -2.27299,0.20935c-0.47852,0 -0.91219,-0.0598 -1.30098,-0.17944c-0.37884,-0.10966 -0.72276,-0.21931 -1.03182,-0.32899c-0.29907,-0.10966 -0.58319,-0.20935 -0.85237,-0.29907c-0.26916,-0.08972 -0.51841,-0.14455 -0.7477,-0.16449c-0.87729,-0.06978 -1.5502,-0.4187 -2.01876,-1.04677c-0.45858,-0.63802 -0.68787,-1.34085 -0.68787,-2.10849c0,-0.85736 0.19938,-1.54024 0.59815,-2.04867c0.39878,-0.51841 0.77261,-0.97699 1.12154,-1.37575c0.34892,-0.39878 0.63803,-0.82246 0.86732,-1.27107c0.22929,-0.45858 0.34394,-1.09162 0.34394,-1.89912c0,-2.00381 -0.08972,-4.00762 -0.26917,-6.01144c-0.17944,-2.00381 -0.26916,-4.0425 -0.26916,-6.11611v-0.92714c0,-0.39878 -0.01496,-0.7776 -0.04487,-1.1365c-0.02991,-0.36886 -0.08972,-0.64302 -0.17944,-0.82246c-0.07976,-0.18942 -0.17447,-0.32399 -0.28412,-0.40375c-0.10965,-0.07976 -0.17446,-0.11963 -0.1944,-0.11963c-0.22929,0.12959 -0.52837,0.34395 -0.89723,0.64302c-0.36886,0.28909 -0.67791,0.60313 -0.92713,0.94209c-0.06978,0.0997 -0.17446,0.3539 -0.31403,0.76263c-0.13957,0.39878 -0.27914,0.89225 -0.41871,1.48042c-0.13957,0.58819 -0.27416,1.23119 -0.40375,1.92904c-0.12959,0.68787 -0.24923,1.34585 -0.35891,1.97392c-0.0997,0.62807 -0.17944,1.1963 -0.23927,1.70473c-0.04985,0.49845 -0.07476,0.85735 -0.07476,1.07666c0,0.72774 0.05483,1.49538 0.16448,2.30289c0.11964,0.79753 0.17944,1.61999 0.17944,2.46738c0,0.49845 -0.03987,0.94209 -0.11963,1.33089c-0.06978,0.37884 -0.10468,0.73274 -0.10468,1.06173c0,0.11963 0,0.19938 0,0.23927c0,0.03987 -0.0997,0.00497 -0.29907,-0.10468c0.12959,-0.06978 0.37384,0.00499 0.73274,0.22432c0.35888,0.20936 0.71281,0.46356 1.06173,0.76263c0.34892,0.29907 0.67791,0.66296 0.98694,1.09162c0.31901,0.41871 0.47852,0.91716 0.47852,1.49537c0,1.00688 -0.3539,1.81939 -1.06173,2.43748c-0.7078,0.60813 -1.52031,0.91218 -2.43748,0.91218c-0.22929,0 -0.40874,-0.00997 -0.53834,-0.02991c-0.11964,-0.02991 -0.20935,-0.04487 -0.26916,-0.04487c-0.04985,0 -0.1296,0.01993 -0.23927,0.0598c-0.0997,0.03987 -0.25921,0.10965 -0.47852,0.20935c-0.21931,0.0997 -0.48351,0.19938 -0.79255,0.29908c-0.30905,0.0997 -0.65795,0.14952 -1.04677,0.14952c-0.75765,0 -1.44055,-0.08473 -2.04868,-0.2542c-0.59815,-0.15951 -1.16141,-0.23927 -1.68977,-0.23927c-0.5483,0 -0.99195,-0.16949 -1.3309,-0.50843c-0.33895,-0.34893 -0.57821,-0.68787 -0.71778,-1.01686c-0.13957,-0.32899 -0.23928,-0.648 -0.29908,-0.95705c-0.05981,-0.31901 -0.08972,-0.59317 -0.08972,-0.82246c0,-0.68787 0.14955,-1.21624 0.44862,-1.5851c0.29907,-0.36886 0.59317,-0.648 0.88227,-0.83742c0.29907,-0.19937 0.56326,-0.35888 0.79255,-0.47851c0.22929,-0.12959 0.40376,-0.26419 0.52339,-0.40376c0.11963,-0.14955 0.23427,-0.38381 0.34395,-0.70282c0.10965,-0.32899 0.16448,-0.80253 0.16448,-1.42062c0,-0.17944 -0.03489,-0.37884 -0.10468,-0.59815c-0.0598,-0.22929 -0.13957,-0.49348 -0.23926,-0.79255c-0.0997,-0.30905 -0.1944,-0.64302 -0.28412,-1.0019c-0.07977,-0.35888 -0.11964,-0.7427 -0.11964,-1.15145c0,-0.63802 0.0598,-1.22621 0.17944,-1.76456c0.12959,-0.5483 0.1944,-1.04178 0.1944,-1.48042c0,-0.21931 -0.07476,-0.50345 -0.22431,-0.85237c-0.13957,-0.35888 -0.20935,-0.81249 -0.20935,-1.36081c0,-0.56824 0.08972,-0.94707 0.26916,-1.13649c0.17944,-0.19937 0.24425,-0.29908 0.1944,-0.29908c0.04985,0 0.03987,-0.09469 -0.02992,-0.28411c-0.0598,-0.18942 -0.11463,-0.44363 -0.16448,-0.76266c-0.04985,-0.31901 -0.0997,-0.66296 -0.14955,-1.03182c-0.03987,-0.36886 -0.0598,-0.72277 -0.0598,-1.06173c0,-0.46856 0.04487,-0.88726 0.13459,-1.25612c0.08972,-0.37884 0.13459,-0.7078 0.13459,-0.98694c0,0 -0.00997,-0.00998 -0.02991,-0.02992c-0.00998,-0.02991 -0.04985,-0.06978 -0.11963,-0.11963c-0.05981,-0.0598 -0.13459,-0.10468 -0.22431,-0.13459c-0.07976,-0.02991 -0.14955,-0.04487 -0.20936,-0.04487c-0.17944,0 -0.37384,0.04487 -0.58319,0.13459c-0.20935,0.07976 -0.42369,0.19938 -0.64302,0.35888c-0.21931,0.15951 -0.45361,0.3539 -0.70283,0.58319c-0.24922,0.22929 -0.46856,0.34395 -0.65795,0.34395c0.12959,0.00998 0.15951,0.14955 0.08972,0.41871c-0.06978,0.2592 -0.1944,0.53334 -0.37384,0.82246c-0.23927,0.33895 -0.49845,0.57822 -0.77759,0.71778c-0.27914,0.13957 -0.49347,0.24425 -0.64302,0.31404c-0.13957,0.0598 -0.2941,-0.00498 -0.46356,-0.1944c-0.16949,-0.19937 0,-0.29907 0.50843,-0.29907c-0.50843,0 -0.72276,-0.03987 -0.64302,-0.11963c0.07976,-0.07976 0.34893,-0.19439 0.80751,-0.34395c0.44862,0.98694 0.67291,1.77452 0.67291,2.36271c0,0.44863 -0.04487,0.87231 -0.13459,1.27107c-0.08972,0.3888 -0.18441,0.7427 -0.28412,1.06173c-0.08972,0.30905 -0.16449,0.60813 -0.22431,0.89723c-0.04985,0.27914 -0.07477,0.53834 -0.07477,0.77759l0.02992,3.12535c-0.18942,0.04985 -0.27416,0.01495 -0.2542,-0.10468c0.01993,-0.12959 0.0648,-0.17446 0.13459,-0.13459c0.07977,0.03987 0.23427,0.18942 0.46356,0.44862c0.22929,0.24922 0.39878,0.66296 0.50843,1.24117c0.06978,0.44863 0.12959,0.9022 0.17944,1.3608c0.0598,0.45858 0.08972,0.92216 0.08972,1.3907c0,0.52836 -0.04487,1.00689 -0.13459,1.43557c-0.07976,0.41871 -0.11963,0.80253 -0.11963,1.15145c0,0.20936 -0.00498,0.31403 -0.01496,0.31403c0,-0.00998 0.01495,-0.00998 0.04487,0c0.02992,0.00998 0.15453,0.02992 0.37384,0.05981c0.22929,0.02991 0.53834,0.12461 0.92714,0.28412c0.3888,0.15951 0.72276,0.45858 1.0019,0.89723c0.27914,0.42866 0.4187,1.0019 0.4187,1.71969c0,0.73772 -0.21434,1.35083 -0.64302,1.83932c-0.41871,0.47851 -0.95706,0.80751 -1.61501,0.98695c-1.3558,0.35888 -2.77144,0.648 -4.24688,0.86731c-1.46548,0.21931 -2.90603,0.32899 -4.32164,0.32899c-0.44863,0 -0.89722,-0.02491 -1.34585,-0.07476c-0.44863,-0.03987 -0.86731,-0.21433 -1.25613,-0.52338c-0.37884,-0.30905 -0.63802,-0.70283 -0.77759,-1.18134c-0.13957,-0.47851 -0.20935,-1.05175 -0.20935,-1.71969c0,-0.83742 0.26418,-1.52031 0.79255,-2.04867c0.52836,-0.53834 1.01686,-0.98695 1.46548,-1.34585c0.45858,-0.35888 0.80253,-0.648 1.03182,-0.86731c0.23927,-0.21931 0.35888,-0.3539 0.35888,-0.40376c0,-0.15951 -0.00498,-0.31403 -0.01496,-0.46356c-0.00998,-0.15951 -0.01495,-0.31901 -0.01495,-0.47851c0,-0.30905 0.03987,-0.62309 0.11963,-0.9421c0.08972,-0.31901 0.18444,-0.54332 0.28412,-0.67291c0,-0.07976 -0.04487,-0.32399 -0.13459,-0.73274c-0.07976,-0.40873 -0.17446,-0.83242 -0.28412,-1.27107c-0.0997,-0.44863 -0.19937,-0.92216 -0.29907,-1.42061c-0.0997,-0.49845 -0.14955,-1.03182 -0.14955,-1.60005c0,-1.05673 0.08474,-2.04867 0.25423,-2.97581c0.17944,-0.93709 0.26916,-1.85428 0.26916,-2.75151c0,-0.50843 -0.01496,-1.01188 -0.04488,-1.51033c-0.02991,-0.50843 -0.0648,-1.02184 -0.10467,-1.54025c-0.0598,-0.56824 -0.11963,-0.99194 -0.17944,-1.27107c-0.0598,-0.27914 -0.12959,-0.47851 -0.20936,-0.59815c-0.07976,-0.11963 -0.2293,-0.24425 -0.44863,-0.37384c-0.20936,-0.13957 -0.58819,-0.33397 -1.13649,-0.58319c-0.47851,-0.23927 -0.9371,-0.58819 -1.37575,-1.04677c-0.42866,-0.45858 -0.64302,-1.05673 -0.64302,-1.79445c0,-0.83742 0.20437,-1.43558 0.6131,-1.79446c0.40873,-0.35888 0.7826,-0.59815 1.12154,-0.71778c0.34893,-0.12959 0.60812,-0.14455 0.77759,-0.04487c0.17944,0.08972 0.13459,0.07477 -0.13459,-0.04487c0.21931,-0.49845 0.48351,-0.81748 0.79255,-0.95705c0.30905,-0.14955 0.66794,-0.22432 1.07667,-0.22432c0.7078,0 1.36081,0.10468 1.95896,0.31404c0.59815,0.20936 1.14148,0.41373 1.62997,0.6131c0.48849,0.18942 0.91716,0.35888 1.28602,0.50843c0.36886,0.14955 0.67291,0.22432 0.91218,0.22432c0.19937,0 0.49347,-0.10966 0.88227,-0.32899c0.3888,-0.22929 0.88727,-0.51841 1.49537,-0.86732c0.61809,-0.34893 1.33587,-0.68289 2.15335,-1.0019c0.81749,-0.31901 1.76954,-0.47852 2.85618,-0.47852c0.53835,0 1.05176,0.10966 1.54025,0.32899c0.49845,0.21931 0.95705,0.47852 1.37574,0.7776c0.41871,0.28909 0.80253,0.60313 1.15145,0.94209c0.35888,0.32899 0.32899,0.69785 -0.08972,1.10658c-0.05981,-0.7477 0.2891,-1.32092 1.04677,-1.71969c0.75765,-0.39878 1.53026,-0.72276 2.31784,-0.97199c0.79753,-0.24922 1.60503,-0.42867 2.42252,-0.53834c0.81748,-0.11963 1.60005,-0.17944 2.34775,-0.17944c0.78757,0 1.48042,0.19937 2.07857,0.59815c0.59815,0.39878 1.09162,0.88727 1.48042,1.46548c0.39878,0.57822 0.72777,1.18634 0.98695,1.82436c0.25921,0.63802 0.49347,1.26111 0.70282,1.86923c0.20936,0.59815 0.38382,1.17636 0.52339,1.73465c0.14955,0.55828 0.27914,0.99692 0.3888,1.31594c0.04985,0.12959 0.0947,0.28909 0.13459,0.47851c0.04985,0.18942 0.07477,0.39878 0.07477,0.62807c0,0.42866 -0.05483,0.81249 -0.16449,1.15145c-0.10965,0.33895 -0.20935,0.63802 -0.29907,0.89722c-0.08972,0.2592 -0.16449,0.4885 -0.22431,0.68787c-0.05981,0.18942 -0.08972,0.36886 -0.08972,0.53834c0,0.11963 0.05483,0.31403 0.16448,0.58319c0.10965,0.26916 0.16448,0.63305 0.16448,1.09163c0,0.48849 -0.06481,0.87729 -0.1944,1.16638c-0.11963,0.27914 -0.17944,0.48352 -0.17944,0.61311c0,0.22929 0.07977,0.53334 0.23927,0.91218c0.15951,0.36886 0.23927,0.85238 0.23927,1.45052c0,0.44863 -0.05981,0.85736 -0.17944,1.22621c-0.11963,0.35888 -0.23926,0.6829 -0.35888,0.97199c-0.10966,0.28909 -0.19938,0.53834 -0.26916,0.7477c-0.06978,0.19937 -0.10468,0.37884 -0.10468,0.53834c0,0.01993 0,0.02991 0,0.02991c0,-0.00998 0.00497,0 0.01495,0.02992l1.22621,3.08049c0.10965,0.2592 0.33894,0.5483 0.68787,0.86732c0.35888,0.31901 0.7776,0.67291 1.25613,1.06173c0.47851,0.3888 0.96203,0.86233 1.45052,1.42061c0.4885,0.55828 0.73274,1.24117 0.73274,2.04867zM175.71333,179.53863c0,0.98694 -0.0997,1.92406 -0.29907,2.81131c-0.18942,0.87729 -0.34395,1.72967 -0.46356,2.5571c-0.02992,0.2592 -0.04985,0.51841 -0.05981,0.77759c-0.00998,0.24922 -0.04985,0.52339 -0.11963,0.82246c-0.0598,0.29907 -0.16949,0.6131 -0.32899,0.94209c-0.14955,0.31901 -0.36887,0.64302 -0.65798,0.97199c-0.13957,0.15951 -0.24922,0.3539 -0.32898,0.58319c-0.06978,0.22929 -0.15951,0.51841 -0.26917,0.86731c-0.17944,0.52836 -0.39377,0.9371 -0.64302,1.22621c-0.24923,0.27914 -0.49347,0.50345 -0.73274,0.67292c-0.22929,0.15951 -0.42369,0.28412 -0.58319,0.37384c-0.14955,0.08972 -0.28411,0.20438 -0.40375,0.34395c-0.14955,-0.13957 -0.17944,-0.17944 -0.08972,-0.11963c0.08972,0.0598 0.11964,0.19938 0.08972,0.41871c-0.02992,0.20936 -0.14455,0.47851 -0.34395,0.80751c-0.19937,0.32899 -0.53834,0.58819 -1.01686,0.77759c-0.10965,0.03987 -0.20935,0.11963 -0.29907,0.23927c-0.08972,0.10966 -0.26917,0.2941 -0.53834,0.5533c-0.30905,0.30905 -0.6829,0.59317 -1.12154,0.85238c-0.42866,0.2592 -0.87728,0.48351 -1.34584,0.67291c-0.45858,0.19937 -0.9371,0.35888 -1.43557,0.47852c-0.49845,0.12959 -0.96204,0.1944 -1.3907,0.1944c-0.4885,0 -0.92714,-0.04487 -1.31594,-0.13459c-0.37884,-0.07976 -0.71779,-0.11963 -1.01686,-0.11963c0,-0.0598 0.02492,-0.08972 0.07477,-0.08972c0.04985,0.00998 0.04487,0.04488 -0.01495,0.10468c-0.0598,0.06978 -0.20935,0.19937 -0.44862,0.38879c-0.23927,0.18942 -0.60813,0.28412 -1.10658,0.28412c-0.51841,0 -1.16641,-0.1595 -1.944,-0.47851c-0.77759,-0.31901 -1.54523,-0.648 -2.30288,-0.98695c-0.7477,-0.33895 -1.43059,-0.62806 -2.04867,-0.86731c-0.61809,-0.24922 -1.03182,-0.37384 -1.24118,-0.37384c0,-0.16949 0.00998,-0.20438 0.02992,-0.10468c0.02991,0.0997 0,0.27416 -0.08972,0.52338c-0.07976,0.23927 -0.13957,0.53834 -0.17944,0.89722c-0.03987,0.35888 -0.0648,0.70781 -0.07476,1.04678c-0.00998,0.33895 -0.00998,0.62806 0,0.86731c0.00998,0.24922 0.01495,0.37384 0.01495,0.37384c0,0.648 -0.17944,1.11656 -0.53834,1.40565c-0.35888,0.28909 -0.75268,0.43367 -1.18134,0.43367c-0.13957,0 -0.26916,-0.00998 -0.3888,-0.02991c-0.11963,-0.00998 -0.12461,-0.40376 -0.01496,-1.18134c0.78757,0 1.21624,0.0997 1.28602,0.29907c0.06978,0.20936 0.16448,0.46855 0.28412,0.77759c0.12959,0.31901 0.26418,0.648 0.40375,0.98694c0.13957,0.34893 0.24923,0.69288 0.32899,1.03182c0.11964,0.5483 0.20438,0.87231 0.2542,0.97199c0.05981,0.0997 0.0997,0.15452 0.11963,0.16448c0.01994,0.00998 0.17944,0.00998 0.47852,0c0.30906,-0.00998 0.79753,0.01993 1.46548,0.08972c0.32899,0.04985 0.68787,0.11963 1.07667,0.20936c0.39878,0.0997 0.78757,0.26418 1.16641,0.49347c0.3888,0.23927 0.73274,0.56824 1.03182,0.98694c0.29907,0.41871 0.44862,0.93212 0.44862,1.54025c0,1.1365 -0.34892,1.95895 -1.04678,2.46738c-0.69785,0.50843 -1.50035,0.76263 -2.40755,0.76263c-0.92714,0 -1.80941,-0.06481 -2.64683,-0.1944c-0.83742,-0.11963 -1.65988,-0.17944 -2.46738,-0.17944c-0.86731,0 -1.75458,0.04985 -2.66179,0.14955c-0.89722,0.0997 -1.81439,0.14955 -2.7515,0.14955c-0.31901,0 -0.72276,-0.04985 -1.21126,-0.14955c-0.48849,-0.08972 -0.97699,-0.23427 -1.46548,-0.43367c-0.48849,-0.18942 -0.99692,-0.47354 -1.52529,-0.85238c-0.52836,-0.37884 -0.79255,-0.92714 -0.79255,-1.64492c0,-0.60813 0.20936,-1.08664 0.62807,-1.43557c0.42866,-0.34893 0.82744,-0.60813 1.1963,-0.77759c0.37884,-0.15951 0.75765,-0.28412 1.1365,-0.37384c0.37884,-0.08972 0.70283,-0.13459 0.97199,-0.13459c0.21931,0 0.44862,-0.04487 0.68787,-0.13459c0.24922,-0.07976 0.52338,-0.18444 0.82246,-0.31403c0.30905,-0.11963 0.65798,-0.2542 1.04678,-0.40376c0.39877,-0.13957 0.67791,0.00998 0.83742,0.44863c-0.32899,-0.47851 -0.47354,-1.08664 -0.43367,-1.82436c0.04985,-0.73772 0.07477,-1.4904 0.07477,-2.25803c0,-0.5483 -0.00498,-1.10161 -0.01496,-1.65989c-0.00998,-0.55828 -0.01496,-1.12651 -0.01496,-1.70473c0,-1.15643 0.07977,-2.27299 0.23927,-3.34966c0.15951,-1.08665 0.23927,-2.15833 0.23927,-3.21506c0,-0.648 -0.02991,-1.30596 -0.08972,-1.97392c-0.04985,-0.67792 0.17944,-1.33089 0.68787,-1.95896c-0.55828,0.15951 -0.89225,-0.04985 -1.0019,-0.62807c-0.0997,-0.58819 -0.18941,-1.17138 -0.26916,-1.7496c-0.06978,-0.58819 -0.12959,-1.14645 -0.17944,-1.67482c-0.03987,-0.53834 -0.05981,-0.90721 -0.05981,-1.10658c0,-0.40873 0.0598,-0.75766 0.17944,-1.04677c0.11963,-0.28909 0.22929,-0.51841 0.32899,-0.68787c0.10966,-0.17944 0.32399,-0.21934 0.64302,-0.11963c0.31901,0.08972 0.16448,0.13459 -0.46356,0.13459c0.78757,0 0.97199,0.02491 0.5533,0.07476c-0.41871,0.03987 -0.67291,-0.04986 -0.76263,-0.26917c-0.07977,-0.21931 -0.16448,-0.48351 -0.2542,-0.79254c-0.08972,-0.31901 -0.13459,-0.65298 -0.13459,-1.00191c0,-0.76763 0.07976,-1.48042 0.23927,-2.1384c0.15951,-0.66794 0.23927,-1.28602 0.23927,-1.85428c0,-0.52836 -0.19938,-0.99693 -0.59815,-1.40566c-0.27914,-0.28909 -0.47852,-0.48351 -0.59816,-0.58319c-0.11964,-0.10966 -0.20936,-0.17446 -0.26916,-0.19439c-0.05981,-0.02991 -0.1944,-0.05483 -0.40375,-0.07476c-0.19938,-0.02991 -0.51342,-0.07977 -0.9421,-0.14955c-0.27914,-0.01993 -0.65298,-0.0947 -1.12153,-0.22431c-0.46856,-0.13957 -0.9371,-0.30405 -1.40566,-0.49347c-0.46856,-0.19937 -0.96701,-0.49348 -1.49537,-0.88227c-0.51841,-0.39878 -0.77759,-0.95205 -0.77759,-1.65988c0,-0.77759 0.27914,-1.38075 0.83742,-1.80941c0.55828,-0.43865 1.11156,-0.75766 1.65988,-0.95705c0.55828,-0.19937 1.1016,-0.33895 1.62997,-0.41871c0.52836,-0.07976 0.96203,-0.11963 1.30098,-0.11963c0.37884,0 0.79753,0.03987 1.25613,0.11963c0.45858,0.07976 0.5832,0.42369 0.37384,1.03182c-0.20935,-0.61809 -0.0648,-0.97699 0.43367,-1.07667c0.50843,-0.10966 0.96701,-0.16449 1.37574,-0.16449c1.11656,0 1.99385,0.18444 2.63187,0.5533c0.648,0.35888 1.14645,0.73772 1.49538,1.13649c0.34893,0.3888 0.50345,0.72774 0.46356,1.01686c-0.02991,0.28909 -0.04487,0.24425 -0.04487,-0.13459c0,0 0.02991,-0.00998 0.08972,-0.02991c0.06978,-0.02991 0.16448,-0.07477 0.28412,-0.13459c0.48849,-0.23927 1.18634,-0.51341 2.09352,-0.82246c0.90721,-0.31901 1.86424,-0.62309 2.87114,-0.91218c1.00688,-0.28909 1.98387,-0.52836 2.93094,-0.71778c0.95706,-0.19937 1.70971,-0.29908 2.25803,-0.29908c0.34892,0 0.76763,0.06979 1.25613,0.20936c0.49845,0.12959 1.01686,0.28909 1.5552,0.47851c0.5483,0.17944 1.12154,0.39378 1.71969,0.64302c0.59815,0.24922 1.15145,0.50843 1.65988,0.77759c0.50843,0.26916 0.98197,0.5533 1.42061,0.85237c0.44862,0.29907 0.79255,0.62309 1.03182,0.97199c0.18942,0.30905 0.35888,0.54332 0.50843,0.70283c0.15951,0.15951 0.47353,0.31901 0.94209,0.47852c0.42866,0.53834 0.66794,0.97699 0.71779,1.31593c0.0598,0.33895 0.08972,0.648 0.08972,0.92714v0.58319c0,0.16949 0.01994,0.28909 0.0598,0.35888c0.04985,0.06978 0.13958,0.16449 0.26917,0.28412c0.12959,0.10966 0.33397,0.29907 0.6131,0.56824c0.28909,0.26916 0.43367,0.71778 0.43367,1.34585c0,0.43865 -0.17446,0.67291 -0.52339,0.70282c-0.33894,0.02991 -0.24923,0.04487 0.26916,0.04487c0,0.11963 0.04985,0.29907 0.14955,0.53834c0.10965,0.23927 0.2542,0.56326 0.43366,0.97199c0.17944,0.39878 0.3539,0.86234 0.52339,1.3907c0.17944,0.51841 0.26917,1.11156 0.26917,1.7795zM158.81553,166.25965c0.63802,0 0.93709,-0.01496 0.89722,-0.04487c-0.02992,-0.03987 -0.04487,0.25921 -0.04487,0.89723c0,-0.60813 0.13957,-0.8424 0.41871,-0.70283c0.27914,0.13957 -0.01993,0.23427 -0.89722,0.28412c-0.87729,-0.91716 -0.86732,-1.37574 0.02991,-1.37574c0.40873,0 1.20628,0.58819 2.3926,1.76455l-2.27299,-0.38879c-0.03987,-0.85736 0.01495,-1.14147 0.16448,-0.85238c0.15951,0.27914 -0.06978,0.41871 -0.68787,0.41871zM169.40282,180.49567c0,-0.49845 -0.06978,-0.99692 -0.20935,-1.49537c-0.13957,-0.50843 -0.32399,-1.00688 -0.5533,-1.49538c-0.21931,-0.49845 -0.47851,-0.99692 -0.77759,-1.49538c-0.29907,-0.49845 -0.59815,-0.98695 -0.89723,-1.46548c-0.18942,-0.27914 -0.30406,-0.55828 -0.34395,-0.83742c-0.02992,-0.28909 -0.04487,-0.50345 -0.04487,-0.64302c0,-0.13957 0.04985,-0.23426 0.14955,-0.28412c0.0997,-0.0598 0.06979,-0.00998 -0.08972,0.14955c0.0997,-0.07976 0.13459,-0.08972 0.10467,-0.02992c-0.02992,0.04985 -0.14455,0.05981 -0.34395,0.02992c-0.18942,-0.03987 -0.4536,-0.14454 -0.79254,-0.31403c-0.32899,-0.17944 -0.63305,-0.53335 -0.91219,-1.06173c0.04985,-0.02991 -0.05482,-0.10966 -0.31403,-0.23927c-0.24923,-0.13957 -0.55331,-0.29907 -0.91219,-0.47851c-0.34892,-0.18942 -0.66794,-0.33397 -0.95705,-0.43367c-0.27914,-0.0997 -0.44862,-0.14955 -0.50843,-0.14955c-0.22929,0 -0.5483,0.08972 -0.95706,0.26916c-0.39878,0.17944 -0.9022,0.26916 -1.51033,0.26916c-0.46856,0 -0.87232,-0.07476 -1.21126,-0.22432c-0.33894,-0.14955 -0.62306,-0.27914 -0.85237,-0.38879c-0.21931,-0.11963 -0.39378,-0.20936 -0.52339,-0.26916c-0.12959,-0.0598 -0.21931,-0.08972 -0.26916,-0.08972v-1.18134c0.8075,0.03987 1.21126,0.16448 1.21126,0.37384c0,0.45858 -0.10468,0.83742 -0.31403,1.1365c-0.20935,0.29907 -0.43367,0.52338 -0.67292,0.67291c-0.23927,0.14955 -0.42867,0.2592 -0.56824,0.32899c-0.13957,0.0598 -0.18941,0.06979 -0.14952,0.02992c0.06978,-0.07976 0.08972,0.12959 0.0598,0.62807c-0.01993,0.49845 -0.55327,0.7477 -1.60005,0.7477c-0.32899,0 -0.41373,-0.40873 -0.2542,-1.22622c0.81748,0.48849 1.07666,0.84738 0.77759,1.07667c-0.29907,0.21931 -0.52338,0.35888 -0.67291,0.41871c-0.13957,0.0598 -0.29907,-0.03987 -0.47851,-0.29907c-0.16949,-0.26916 0.00497,-0.00998 0.52338,0.77759c-0.71778,-0.22929 -1.07667,-0.22929 -1.07667,0c0.00998,0.21931 -0.04986,0.51341 -0.17944,0.88227c-0.12959,0.36886 -0.2542,0.81248 -0.37383,1.33089c-0.11964,0.51841 -0.21931,1.03181 -0.29908,1.54024c-0.07976,0.49845 -0.13957,0.95206 -0.17944,1.36081c-0.02991,0.40873 -0.04487,0.7078 -0.04487,0.89722c0,0.69785 0.04487,1.41563 0.13459,2.15335c0.08972,0.73772 0.13459,1.50536 0.13459,2.30288c0,0.57822 -0.01496,1.15643 -0.04487,1.73465c-0.02991,0.57822 -0.05483,0.97199 -0.07476,1.18134c0.27914,0.29907 0.648,0.71779 1.10658,1.25613c0.45858,0.53834 0.91716,1.0019 1.37574,1.39069c0.45858,0.37884 0.9421,0.68787 1.45053,0.92714c0.50843,0.23927 1.09162,0.36886 1.7496,0.38879c0.41871,0 0.82246,0.04985 1.21125,0.14955c0.3888,0.08972 0.7477,0.17944 1.07667,0.26916c0.32899,0.07976 0.62807,0.14955 0.89722,0.20936c0.26916,0.0598 0.51841,0.08972 0.7477,0.08972c0.15951,0 0.3539,-0.04487 0.58319,-0.13459c0.23927,-0.08972 0.50345,-0.22431 0.79255,-0.40375c0.28909,-0.17944 0.56326,-0.36886 0.82246,-0.56824c0.26916,-0.19937 0.47354,-0.37884 0.61311,-0.53834c0.32899,-0.36886 0.61808,-0.59317 0.86731,-0.67291c0.24923,-0.08972 0.38382,-0.13957 0.40376,-0.14955c0.07976,0.10966 0.0947,0.12959 0.04487,0.05981c-0.04985,-0.06978 -0.05483,-0.18942 -0.01496,-0.35888c0.03987,-0.17944 0.1296,-0.42369 0.26917,-0.73274c0.13957,-0.31901 0.43864,-0.59815 0.89722,-0.83742c0.28909,-0.14955 0.46856,-0.15452 0.53834,-0.01495c0.06978,0.13957 -0.04487,0.20935 -0.34395,0.20935v-0.58319c0,-0.59815 0.12959,-1.01686 0.38879,-1.25613c0.26916,-0.23927 0.44363,-0.3888 0.52339,-0.44862c0.07976,-0.0598 0.11466,-0.07976 0.10468,-0.05981c-0.00998,0.00998 -0.01495,-0.03987 -0.01495,-0.14955c0,-0.19937 -0.01994,-0.42867 -0.05981,-0.68787c-0.03987,-0.2592 -0.0598,-0.55828 -0.0598,-0.89722c0,-0.43865 0.06481,-0.82246 0.1944,-1.15146c0.12959,-0.33895 0.2542,-0.6131 0.37383,-0.82246c0.12959,-0.21931 0.21434,-0.37883 0.2542,-0.47851c0.04985,-0.0997 0.07477,-0.16449 0.07477,-0.1944zM212.61723,193.08678c0,1.12651 -0.3539,1.99882 -1.06173,2.61691c-0.70781,0.60813 -1.47046,1.04178 -2.28793,1.30098c-0.81749,0.26916 -1.62996,0.43367 -2.43747,0.49347c-0.79752,0.06978 -1.47544,0.10468 -2.03372,0.10468c-0.8075,0 -1.47544,-0.07476 -2.00381,-0.22431c-0.51841,-0.14955 -0.96701,-0.29907 -1.34585,-0.44863c-0.36886,-0.14955 -0.64302,-0.26916 -0.82246,-0.35888c-0.16949,-0.07976 -0.28412,-0.11963 -0.34395,-0.11963c-0.19937,0 -0.47353,0.0598 -0.82246,0.17944c-0.33894,0.12959 -0.76266,0.1944 -1.27107,0.1944c-0.47852,0 -0.87231,-0.08474 -1.18134,-0.25423c-0.30905,-0.16949 -0.53834,-0.33397 -0.68787,-0.49347c-0.13957,-0.14955 -0.13459,-0.33895 0.01495,-0.56824c0.15951,-0.22929 0.23927,-0.06978 0.23927,0.47851c0,-0.59815 0.0997,-0.77759 0.29907,-0.53834c0.19937,0.22929 0.21934,0.45361 0.05981,0.67292c-0.15951,0.21931 -0.43367,0.43865 -0.82246,0.65798c-0.37884,0.21931 -0.86731,0.32899 -1.46548,0.32899c-0.53834,0 -1.01686,-0.04985 -1.43557,-0.14955c-0.40873,-0.08972 -0.7826,-0.13459 -1.12154,-0.13459c-0.27914,0 -0.63305,0.07476 -1.06173,0.22431c-0.41871,0.15951 -0.89225,0.23927 -1.42061,0.23927c-0.60813,0 -0.87231,-0.22929 -0.79255,-0.68787c0.08972,-0.44863 0.13459,-0.33397 0.13459,0.34395c-0.16949,0 -0.44862,0.08474 -0.83742,0.2542c-0.37884,0.16949 -0.85736,0.2542 -1.43557,0.2542c-0.32899,0 -0.59318,-0.02991 -0.79255,-0.08972c-0.19937,-0.04985 -0.34394,-0.07476 -0.43366,-0.07476c-0.14955,0 -0.40376,0.08474 -0.76266,0.2542c-0.34892,0.16949 -0.88227,0.2542 -1.60006,0.2542c-0.22929,0 -0.67791,-0.02991 -1.34584,-0.08972c-0.66793,-0.0598 -1.35581,-0.14455 -2.06363,-0.25423c-0.69785,-0.10966 -1.48542,-0.29409 -2.36271,-0.5533c-0.86731,-0.24922 -1.30097,-0.79753 -1.30097,-1.64492c0,-0.68787 0.0947,-1.30098 0.28412,-1.83932c0.19937,-0.53834 0.29908,-0.98197 0.29908,-1.3309h1.25613c-0.99692,0.83742 -1.58509,0.60813 -1.76456,-0.68787c0.26916,-0.59815 0.53834,-0.96701 0.8075,-1.10658c0.26916,-0.13957 0.43865,-0.21934 0.50843,-0.23927c0.06978,-0.01993 0.18444,0.10966 0.34395,0.3888c0.16949,0.26916 -0.06481,0.40376 -0.70283,0.40376v-1.60006c1.76456,0.18942 3.03065,0.2941 3.79828,0.31403c0.77759,0.01993 1.60006,0.02991 2.46738,0.02991c0.78757,0 1.63992,-0.02491 2.5571,-0.07476c0.92714,-0.04985 1.73962,-0.17944 2.43747,-0.3888c0.69785,-0.20936 1.22124,-0.46855 1.57014,-0.77759c0.34892,-0.30905 0.52339,-0.72276 0.52339,-1.24117v-0.22431v-0.46356c-0.0997,-2.26301 -0.20935,-4.50609 -0.32899,-6.72923c-0.10965,-2.22314 -0.16449,-4.48615 -0.16449,-6.78903c0,-0.53834 -0.04985,-1.09162 -0.14955,-1.65988c-0.08972,-0.56824 -0.13459,-1.17637 -0.13459,-1.82437c0,-0.87729 0.15951,-1.76953 0.47852,-2.67674c0.32899,-0.90721 1.01685,-1.40067 2.06363,-1.48042c-0.01994,0.12959 -0.08474,0.33895 -0.19439,0.62807c-0.10965,0.27914 -0.18445,0.41871 -0.22432,0.41871c-0.02992,-0.00998 -0.14455,-0.02991 -0.34395,-0.0598c-0.18942,-0.03987 -0.38382,-0.11466 -0.58319,-0.22432c-0.49845,-0.24922 -0.78757,-0.60313 -0.86731,-1.06173c-0.07976,-0.45858 -0.13957,-0.82744 -0.17944,-1.10658c-0.02992,-0.27914 0,-0.51341 0.08972,-0.70283c0.08972,-0.19937 -0.05483,-0.36886 -0.43367,-0.50843c0.0997,-0.99692 0.21931,-1.77452 0.35888,-2.3328c0.13957,-0.55828 0.20935,-1.08665 0.20935,-1.5851c0,-0.24922 -0.02491,-0.42368 -0.07476,-0.52338c-0.04985,-0.10966 -0.12959,-0.21931 -0.23927,-0.32899c-0.0997,-0.11963 -0.25921,-0.30905 -0.47852,-0.56824c-0.21931,-0.26916 -0.32898,-0.66794 -0.32898,-1.1963c0,-0.46856 0.40375,-0.58819 1.21125,-0.35888l-0.0598,1.18134c0.04985,-0.36886 0.13459,-0.48351 0.2542,-0.34395c0.11964,0.13957 0.1296,0.27417 0.02992,0.40376c-0.08972,0.11963 -0.25921,0.30406 -0.50843,0.5533c-0.24923,0.24922 -0.648,0.37383 -1.1963,0.37383c-0.28909,0 -0.45858,-0.1595 -0.50843,-0.47851c-0.21931,0.36886 -0.5483,0.5533 -0.98694,0.5533c-0.84738,0 -1.62996,-0.0997 -2.34775,-0.29908c-0.71779,-0.19937 -1.38074,-0.29907 -1.98885,-0.29907c-0.34893,0 -0.7128,0.01496 -1.09162,0.04487c-0.36886,0.02991 -0.76266,0.04487 -1.18135,0.04487c-0.63802,0 -1.31095,-0.07976 -2.01876,-0.23926c-0.70781,-0.16949 -1.49039,-0.67292 -2.34775,-1.51034v-0.92714c0,-1.54523 0.5134,-2.70664 1.54024,-3.48424c1.02684,-0.77759 2.21814,-1.16638 3.57397,-1.16638c0.83742,0 1.61003,0.0947 2.31784,0.28412c0.70781,0.17944 1.37077,0.26916 1.98885,0.26916c0.30905,0 0.65795,-0.0349 1.04677,-0.10468c0.3888,-0.06978 0.80751,-0.15452 1.25613,-0.2542c0.45858,-0.10966 0.94707,-0.20935 1.46548,-0.29907c0.51841,-0.0997 1.04678,-0.14955 1.5851,-0.14955c0.9072,0 1.71471,0.17446 2.42251,0.52338c0.70781,0.33895 1.65988,0.77262 2.85618,1.30098l-0.13459,1.12153c-0.20935,-0.04985 -0.25423,-0.07476 -0.13459,-0.07476c0.11964,0 0.23926,0.07976 0.35888,0.23927c0.12959,0.15951 0.27914,0.37883 0.44863,0.65795c0.17944,0.27914 0.26916,0.63803 0.26916,1.07667c0,0.30905 -0.02992,0.5533 -0.08972,0.73274c-0.04985,0.17944 -0.07476,0.29409 -0.07476,0.34395c0,0.27914 0.08972,0.62807 0.26916,1.04678c0.17944,0.41871 0.26917,0.95205 0.26917,1.60005c0,0.59815 -0.0598,1.1365 -0.17944,1.61501c-0.10965,0.47851 -0.16448,0.91716 -0.16448,1.31593c0,0.50843 0.06978,1.06174 0.20935,1.65989c0.14955,0.59815 0.22431,1.25113 0.22431,1.95896c0,0.63802 -0.07976,1.1963 -0.23927,1.67482c-0.14955,0.47851 -0.22431,0.88727 -0.22431,1.22621c0,0.23927 0.03489,0.49347 0.10468,0.76263c0.06978,0.2592 0.16448,0.5533 0.28412,0.88227c0.12959,0.32899 0.24923,0.70282 0.35888,1.12153c0.11964,0.41871 0.17944,0.8773 0.17944,1.37575v0.61311c0,0.40873 -0.03987,0.8424 -0.11964,1.30098c-0.06978,0.45858 -0.26418,0.7128 -0.58319,0.76263c0.20935,0.01993 0.37884,0.28412 0.50843,0.79255c0.12959,0.49845 0.1944,1.01188 0.1944,1.54025c0,0.2592 -0.01994,0.54332 -0.05981,0.85238c-0.03987,0.30905 -0.11466,0.63305 -0.22431,0.97199c-0.0997,0.32899 -0.24923,0.64302 -0.44862,0.94209c-0.18942,0.29907 -0.51841,0.26916 -0.98695,-0.08972c0.78757,0.49845 1.22123,1.18135 1.30098,2.04868c0.08972,0.86731 0.15951,1.71471 0.20936,2.54215c0.00998,0.20936 0.04487,0.50345 0.10468,0.88227c0.0598,0.36886 0.11964,0.74769 0.17944,1.13649c0.06978,0.37884 0.12959,0.7477 0.17944,1.10658c0.0598,0.34893 0.08972,0.62309 0.08972,0.82247c0,0.50843 -0.06481,0.93212 -0.1944,1.27106c-0.11964,0.32899 -0.17944,0.58819 -0.17944,0.77759c0,0.0997 -0.07476,0.22431 -0.22431,0.37384c-0.14955,0.13957 -0.22431,0.01496 -0.22431,-0.37384c0,0.01993 0.03489,0.00498 0.10468,-0.04487c0.06978,-0.0598 0.22431,-0.16448 0.46356,-0.31403c0.23927,-0.15951 0.55827,-0.31902 0.95705,-0.47852c0.39878,-0.16949 0.92216,-0.2542 1.57014,-0.2542c0.66793,0 1.24117,0.07476 1.71969,0.22432c0.47852,0.13957 0.92216,0.20935 1.33089,0.20935c0.31901,0 0.65298,-0.02992 1.00191,-0.08972c0.35888,-0.0598 0.72276,-0.13459 1.09162,-0.22431c0.37884,-0.0997 0.79255,-0.1944 1.24117,-0.28412c0.44862,-0.0997 0.92714,-0.14952 1.43557,-0.14952c1.14645,0 2.14338,0.35888 2.99075,1.07666c0.84738,0.7078 1.27107,1.73465 1.27107,3.08049zM193.17728,154.31156c-0.47852,0.58819 -0.67292,0.78258 -0.58319,0.58319c0.0997,-0.20936 0.14955,-0.0947 0.14955,0.34395c0,-0.66794 0.01495,-0.97699 0.04487,-0.92713c0.03987,0.03987 0.18444,0.00497 0.43367,-0.10468l-0.41871,0.26916c-0.0598,0.02991 -0.08972,-0.29907 -0.08972,-0.98694c0,0.47851 -0.06979,0.61808 -0.20936,0.41871c-0.12959,-0.20936 0.0947,-0.07476 0.67292,0.40376zM193.98478,162.95486c0.22929,0 0.40375,-0.03987 0.52338,-0.11963c0.12959,-0.08972 0.1944,0.12959 0.1944,0.65798c0,-0.50843 0,-0.71281 0,-0.61311c0.00998,0.0997 -0.08475,-0.07976 -0.28412,-0.53834l0.35891,0.98694c-0.04985,-0.08972 -0.07477,-0.39378 -0.07477,-0.91219c0,0.52836 -0.06978,0.75268 -0.20935,0.67291c-0.12959,-0.08972 -0.29907,-0.13459 -0.50843,-0.13459zM244.76625,188.19689c0,0.7477 -0.11963,1.39069 -0.35888,1.92904c-0.23927,0.53834 -0.53834,1.00688 -0.89722,1.40565c-0.34893,0.39878 -0.72276,0.7477 -1.12154,1.04678c-0.3888,0.28909 -0.75765,0.57324 -1.10658,0.85238c-0.35888,0.30905 -0.68787,0.54332 -0.98694,0.70282c-0.28909,0.15951 -0.56325,0.2891 -0.82246,0.3888c-0.24923,0.0997 -0.4885,0.18942 -0.71779,0.26916c-0.21931,0.06978 -0.45361,0.16448 -0.70283,0.28412c-0.36886,0.18942 -0.69785,0.37384 -0.98694,0.5533c-0.27914,0.16949 -0.58319,0.33895 -0.91218,0.50843c-0.32899,0.16949 -0.70283,0.31403 -1.12154,0.43366c-0.40873,0.11963 -0.89225,0.20936 -1.45053,0.26916c-0.8075,0.10966 -1.6499,0.23926 -2.52719,0.3888c-0.86731,0.14955 -1.7496,0.22431 -2.64683,0.22431c-0.34893,0 -0.64302,-0.04985 -0.88227,-0.14955c-0.22929,-0.0997 -0.44363,-0.17944 -0.64302,-0.23926c-0.19937,-0.0598 -0.40874,-0.11964 -0.62807,-0.17944c-0.21931,-0.0598 -0.46856,-0.08972 -0.7477,-0.08972c-0.61809,0 -1.12154,-0.0997 -1.51034,-0.29907c-0.37884,-0.18942 -0.69285,-0.38382 -0.94209,-0.58319c-0.24923,-0.20936 -0.45858,-0.38879 -0.62807,-0.53834c-0.15951,-0.15951 -0.33397,-0.27914 -0.52339,-0.35891c-1.38572,-0.63802 -2.56209,-1.3907 -3.5291,-2.25803c-0.96701,-0.87729 -1.78947,-1.84928 -2.46738,-2.91599c-0.67791,-1.06671 -1.24117,-2.2032 -1.68977,-3.40946c-0.43864,-1.21624 -0.80253,-2.46739 -1.09163,-3.75341c-0.25921,-0.96701 -0.3888,-1.944 -0.3888,-2.93095c0,-1.36579 0.22929,-2.46239 0.68787,-3.28985c-0.12959,-0.35888 -0.19439,-0.88227 -0.19439,-1.57014c0,-0.51841 0.12461,-1.21126 0.37383,-2.07857c0.25921,-0.87729 0.58319,-1.73963 0.97199,-2.587c0.39878,-0.84738 0.85736,-1.65988 1.37574,-2.43747c0.51841,-0.77759 1.1016,-1.296 1.7496,-1.5552c0.20935,-0.06978 0.34395,-0.00998 0.40375,0.17944c0.0598,0.18942 -0.0997,0.2542 -0.47852,0.1944c0,-0.65795 0.20438,-1.15643 0.61311,-1.49538c0.40873,-0.34893 0.79752,-0.58819 1.16638,-0.71778c0.36886,-0.13957 0.68788,-0.24923 0.95706,-0.32899c0.26916,-0.08972 0.46355,-0.1595 0.58319,-0.20935c0.78757,-0.3888 1.5502,-0.71778 2.28792,-0.98694c0.73772,-0.27914 1.48042,-0.51341 2.22812,-0.70283c0.7477,-0.18942 1.52031,-0.32899 2.31784,-0.41871c0.8075,-0.08972 1.65988,-0.13459 2.5571,-0.13459c0.57821,0 1.13649,0.07976 1.67482,0.23927c0.53834,0.14955 1.03182,0.33895 1.48042,0.56824c0.45858,0.21931 0.89224,0.45361 1.30097,0.70283c0.41871,0.24922 2.11846,1.30097 5.09926,3.15525l-4.63568,-1.31593c0.56823,-0.81748 0.99195,-1.15643 1.27107,-1.01686c0.27914,0.13957 0.67791,0.23927 1.1963,0.29907c0.42866,0.53834 0.85736,0.95206 1.28602,1.24118c0.42866,0.28909 0.89225,0.63304 1.3907,1.03181c0.50843,0.3888 0.98196,0.86732 1.42061,1.43557c0.44862,0.55828 0.67292,1.25113 0.67292,2.07857c0,0.13957 -0.00998,0.26916 -0.02992,0.3888c-0.00998,0.11963 -0.43864,0.11963 -1.28602,0l-0.20935,-1.88418c0.96701,0.7477 1.51033,1.25113 1.62996,1.51034c0.12959,0.24922 0.23427,0.4885 0.31404,0.71779c0.08972,0.21931 0.15452,0.43366 0.19439,0.64302c0.04985,0.20936 -0.07476,0.3539 -0.37384,0.43366c0.25921,-0.16949 0.52837,-0.16949 0.80751,0c0.28909,0.16949 0.74769,0.78757 1.37574,1.85428c-0.5882,0.36886 -0.80253,0.57324 -0.64302,0.61311c0,0.16949 0.06979,0.42867 0.20936,0.77759c0.14955,0.33895 0.22431,0.77261 0.22431,1.30098c0,0.46856 -0.01994,0.89723 -0.0598,1.28602c-0.03987,0.37884 -0.05981,0.75267 -0.05981,1.12153c0,0.76763 -0.23426,1.31096 -0.70282,1.62997c-0.45858,0.31901 -0.83742,0.5483 -1.1365,0.68787c-0.29907,0.12959 -0.56326,0.11963 -0.79255,-0.02992c-0.22929,-0.15951 -0.0997,-0.23927 0.3888,-0.23927c0,1.0966 -0.32399,1.62997 -0.97199,1.60006c-0.648,-0.03987 -1.02184,-0.0598 -1.12154,-0.0598c-1.02684,0 -1.99385,-0.11466 -2.90103,-0.34395c-0.89722,-0.22929 -1.73962,-0.34395 -2.52719,-0.34395c-0.91716,0 -1.85428,0.06979 -2.81131,0.20936c-0.94708,0.12959 -1.93902,0.1944 -2.97581,0.1944c-0.7477,0 -1.48042,-0.01993 -2.19821,-0.0598c-0.71779,-0.03987 -1.43059,-0.05981 -2.1384,-0.05981c-0.12959,0 -0.43367,0.0349 -0.91219,0.10468c-0.46856,0.0598 -0.97198,0.14455 -1.51033,0.2542c-0.53834,0.0997 -1.02185,0.21434 -1.45053,0.34395c-0.42866,0.12959 -0.82744,-0.05483 -1.1963,-0.5533c0.62807,0.03987 0.94209,0.10966 0.94209,0.20936c0,0.7477 0.23927,1.56018 0.71778,2.43747c0.47852,0.87729 1.1365,1.69477 1.97392,2.45243c0.83742,0.75765 1.75956,1.38572 2.76646,1.88417c1.01686,0.48849 2.01877,0.73274 3.00571,0.73274c0.70781,0 1.44055,0.02992 2.19821,0.08973c0.76763,0.04985 1.3558,0.15452 1.76455,0.31403c0.13957,-0.06978 0.41373,-0.2592 0.82246,-0.56824c0.41871,-0.31901 0.83242,-0.66296 1.24117,-1.03182c0.41871,-0.37884 0.83242,-0.77262 1.24117,-1.18135c0.40873,-0.40873 0.83242,-0.82246 1.27107,-1.24117c0.25921,-0.24922 0.61809,-0.42867 1.07667,-0.53834c0.46856,-0.10966 0.9022,-0.18941 1.30098,-0.23926c0.40873,-0.04985 0.79753,-0.0947 1.16641,-0.13459c0.37884,-0.03987 0.648,-0.05981 0.8075,-0.05981c0.62807,0 1.44553,0.17945 2.45243,0.53835c0.25921,1.0368 0.3888,1.83932 0.3888,2.40756zM237.4688,175.54596c0,-0.15951 -0.04487,-0.36389 -0.13459,-0.61311c-0.08972,-0.2592 -0.16948,-0.57324 -0.23927,-0.94209c-0.12959,-0.66794 -0.1944,-1.26609 -0.1944,-1.79445c0,-0.53834 0.34395,-1.12652 1.03182,-1.76456l0.04487,-0.01495c0.84738,0.37884 1.12651,0.77759 0.83742,1.1963c-0.28909,0.40873 -0.73772,0.61311 -1.34584,0.61311c-0.46856,0 -0.9072,-0.10966 -1.31594,-0.32899c-0.39878,-0.21931 -0.66794,-0.40874 -0.80751,-0.56824c-0.61809,-0.27914 -1.23617,-0.56824 -1.85427,-0.86731c-0.61809,-0.30905 -1.22123,-0.57324 -1.80941,-0.79255c-0.57821,-0.21931 -1.18635,-0.3888 -1.82437,-0.50843c-0.62807,-0.11963 -1.37076,-0.17944 -2.22811,-0.17944c-0.01994,0 -0.05483,-0.1595 -0.10468,-0.47851c-0.04985,-0.31901 -0.08972,-0.54333 -0.11964,-0.67292l1.76456,1.1963l-1.77949,0.44862c-0.56823,0.10966 -1.00191,0.20437 -1.30098,0.28412c-0.28909,0.06978 -0.53334,0.16449 -0.73274,0.28412c-0.19937,0.10966 -0.42369,0.27417 -0.67292,0.49348c-0.24923,0.20936 -0.5882,0.49347 -1.01686,0.85237c-0.31901,0.28909 -0.64301,0.49846 -0.97198,0.62807c-0.32899,0.12959 -0.61311,0.22929 -0.85238,0.29907c-0.23927,0.06978 -0.40375,0.12461 -0.49347,0.16448c-0.08972,0.02991 -0.07976,-0.02491 0.02992,-0.16448c-0.11964,0.45858 -0.30905,0.9072 -0.56824,1.34585c-0.24923,0.43865 -0.37384,0.80751 -0.37384,1.10658c-0.16949,0 -0.18444,0.00998 -0.04487,0.02991c0.14955,0.00998 0.37384,0.07977 0.67292,0.20936c0.30905,0.11963 0.6829,0.23427 1.12154,0.34395c0.43864,0.10966 0.87231,0.1944 1.30097,0.2542c0.43864,0.0598 0.84738,0.10468 1.22621,0.13459c0.37884,0.02991 0.66794,0.04487 0.86731,0.04487c0.69785,0 1.43059,-0.07476 2.19821,-0.22431c0.76763,-0.15951 1.59009,-0.23927 2.46738,-0.23927c0.84738,0 1.67482,0.0349 2.48235,0.10468c0.81749,0.06978 1.61003,0.10468 2.37764,0.10468c0.18942,0 0.46356,-0.00998 0.82246,-0.02991c0.36886,-0.01993 0.70283,-0.05981 1.00191,-0.11963c0.29907,-0.06978 0.5533,-0.0598 0.76263,0.02992c0.21931,0.08972 0.14455,0.13459 -0.22431,0.13459zM283.57842,161.05571l-1.944,0.35891c-0.61809,0 -1.02184,-0.0947 -1.21125,-0.28412c-0.18942,-0.18942 -0.17944,-0.63803 0.02991,-1.34585l0.85238,0.08972c-0.12959,-0.07976 -0.10468,-0.14455 0.07476,-0.1944c0.17944,-0.0598 0.32899,-0.02992 0.44863,0.08972c0.11963,0.11963 0.28412,0.31901 0.49347,0.59815c0.21931,0.26916 0.32899,0.6131 0.32899,1.03181c0,0.99692 -0.29908,1.52031 -0.89723,1.57014c-0.58819,0.04985 -0.9072,0.07977 -0.95706,0.08973c-0.06978,-0.20936 -0.0997,-0.21433 -0.08972,-0.01496c0.00998,0.19937 -0.11463,0.47852 -0.37384,0.83742c-0.25921,0.35888 -0.63802,0.70781 -1.13649,1.04678c-0.48849,0.32899 -1.15643,0.49347 -2.00381,0.49347c-0.91716,0 -1.82934,-0.20438 -2.73655,-0.61311c-1.06671,-0.49845 -1.8443,-1.12153 -2.3328,-1.86923c-0.48849,-0.7477 -0.8075,-1.4904 -0.95706,-2.22812c-0.14955,-0.7477 -0.23426,-1.42061 -0.2542,-2.01876c-0.01994,-0.60813 -0.06978,-1.06671 -0.14955,-1.37575c-0.06978,-0.31901 -0.16948,-0.52836 -0.29907,-0.62806c-0.11964,-0.10966 -0.42369,-0.16449 -0.91219,-0.16449c-0.65795,0 -1.34585,0.07476 -2.06363,0.22431c-0.70781,0.14955 -1.34085,0.3888 -1.89913,0.71779c-0.55828,0.31901 -0.99693,0.70282 -1.31594,1.15145c-0.31901,0.43865 -0.47851,0.96203 -0.47851,1.57014c0,0.90721 0.02491,1.53027 0.07476,1.86924c0.0598,0.33895 0.10966,0.52836 0.14955,0.56823c0.03987,0.02991 0.23427,0.05483 0.58319,0.07477c0.35888,0.01993 0.96203,0.02991 1.8094,0.02991c0.47852,0 0.9371,0.17944 1.37574,0.53834c0.44862,0.34893 0.8424,0.7128 1.18134,1.09162c0.34892,0.36886 0.67791,0.78757 0.98694,1.25613c0.31901,0.46856 0.47852,0.94209 0.47852,1.42061c0,0.95705 -0.33895,1.65488 -1.01686,2.09353c-0.66793,0.42866 -1.34084,0.71778 -2.01876,0.86731c-0.67792,0.14955 -1.33089,0.23427 -1.95896,0.25423c-0.61809,0.01993 -1.10659,0.02991 -1.46548,0.02991c-0.07976,0 -0.12461,0.00498 -0.13459,0.01496c0,0 -0.01495,0.02491 -0.04487,0.07476c-0.01994,0.04985 -0.03988,0.17447 -0.05981,0.37384c-0.01993,0.18942 -0.02991,0.40873 -0.02991,0.65798c0,1.33587 0.07476,2.69667 0.22431,4.08239c0.15951,1.38572 0.23927,2.80633 0.23927,4.26184c0,0.97699 -0.10966,1.72967 -0.32899,2.25803c-0.20935,0.51841 -0.31403,0.85736 -0.31403,1.01686c0,0.0598 0.04487,0.20437 0.13459,0.43366c0.08972,0.22929 0.13459,0.54332 0.13459,0.9421c0,0.57822 -0.06979,1.08167 -0.20936,1.51034c-0.12959,0.42866 -0.1944,0.8075 -0.1944,1.13649c0,0.16949 0.02992,0.32399 0.08972,0.46355c0.06978,0.12959 0.17944,0.30406 0.32899,0.52339c0.1595,0.21931 0.33397,0.48351 0.52339,0.79255c0.19938,0.30905 0.04985,0.59317 -0.44863,0.85238c0.11964,-0.55828 0.46856,-0.91218 1.04678,-1.06173c0.5882,-0.15951 1.22622,-0.23927 1.91408,-0.23927c0.40873,0 0.96203,0.02491 1.65988,0.07476c0.70781,0.03987 1.43059,0.14955 2.16831,0.32899c0.7477,0.17944 1.48542,0.50844 2.21316,0.98695c0.73772,0.46856 1.10658,1.20128 1.10658,2.1982c0,0.5483 -0.07476,1.08665 -0.22431,1.61501c-0.14955,0.52836 -0.3888,1.02184 -0.71778,1.48042c-0.31901,0.45858 -0.72276,0.84738 -1.21126,1.16641c-0.47852,0.31901 -1.03181,0.52338 -1.65988,0.61311c-0.44862,0.06978 -0.95706,0.22431 -1.52529,0.46356c-0.56823,0.23927 -1.22124,0.35888 -1.95896,0.35888c-0.52836,0 -0.99195,-0.07976 -1.3907,-0.23927c-0.3888,-0.14955 -0.75267,-0.2891 -1.09162,-0.41871c-0.33895,-0.12959 -0.648,-0.24424 -0.92714,-0.34395c-0.26916,-0.0997 -0.52836,-0.14955 -0.77759,-0.14955c-0.92714,0 -1.82934,0.00498 -2.70664,0.01496c-0.87729,0.00998 -1.76953,0.0598 -2.67674,0.14955c-0.44863,0.02991 -0.90221,0.10468 -1.36081,0.22432c-0.45858,0.12959 -0.95205,0.26418 -1.48042,0.40375c-0.51841,0.13957 -1.06671,0.26418 -1.64493,0.37384c-0.56823,0.11963 -1.16141,0.17944 -1.77949,0.17944c-0.33894,0 -0.7128,-0.05483 -1.12154,-0.16448c-0.39878,-0.10966 -0.78259,-0.24923 -1.15145,-0.41871c-0.36886,-0.15951 -0.72277,-0.33397 -1.06173,-0.52338c-0.33894,-0.18942 -0.78259,-0.52836 -1.33089,-1.01686l-0.04487,-2.01876c0,-0.99692 0.22929,-1.7845 0.68787,-2.36271c0.46856,-0.57822 1.02184,-0.98694 1.65988,-1.22621c0.63802,-0.24922 1.296,-0.39377 1.97389,-0.43366c0.67791,-0.04985 1.33089,-0.08475 1.95896,-0.10468c0.62807,-0.01993 1.20128,-0.04985 1.71969,-0.08972c0.51841,-0.04985 0.91716,-0.13459 1.1963,-0.2542c0.28909,-0.12959 0.50345,-0.29907 0.64302,-0.50843c0.14955,-0.21931 0.22431,-0.56824 0.22431,-1.04677c0,-0.23927 -0.01994,-0.48352 -0.0598,-0.73274c-0.03987,-0.24922 -0.25423,-1.06671 -0.64302,-2.45243l1.73464,1.18134c-0.65795,-0.43865 -0.96203,-0.77759 -0.91218,-1.01686c0.04985,-0.24922 0.08475,-0.55828 0.10468,-0.92714c0.01994,-0.37884 0.02991,-0.75268 0.02991,-1.12154c0,-0.37884 0,-0.68289 0,-0.91218c0,-0.56824 -0.00997,-1.15145 -0.02991,-1.7496c-0.01993,-0.60813 -0.0997,-1.13149 -0.23927,-1.57014c-0.02991,-0.11963 -0.08474,-0.27416 -0.16449,-0.46356c-0.06978,-0.18942 -0.10468,-0.45361 -0.10468,-0.79255c0,-0.63802 0.08474,-1.18634 0.25423,-1.64492c0.16948,-0.46856 0.2542,-0.86233 0.2542,-1.18134c0,-0.04985 0.00498,-0.04985 0.01495,0c0.01994,0.03987 0.01496,0.03987 -0.01495,0c-0.02991,-0.03987 -0.0947,-0.14455 -0.1944,-0.31403c-0.08972,-0.17944 -0.17944,-0.56824 -0.26916,-1.16638c0.2592,-0.41871 0.41373,-0.69785 0.46356,-0.83742c0.05981,-0.14955 0.08972,-0.28412 0.08972,-0.40376c0,-0.00998 -0.01495,-0.03489 -0.04487,-0.07476c-0.01994,-0.04985 -0.08972,-0.14455 -0.20936,-0.28412c-0.11963,-0.14955 -0.27914,-0.36887 -0.47852,-0.65798c-0.19937,-0.29907 0.03987,-0.58319 0.71779,-0.85237c-0.0997,0.67792 -0.3888,1.01188 -0.86731,1.0019c-0.47852,-0.00998 -1.00688,-0.03987 -1.58509,-0.08972c-0.56823,-0.04985 -1.15643,-0.12959 -1.76456,-0.23927c-0.59815,-0.11963 -1.17636,-0.2891 -1.73464,-0.50843c-0.55828,-0.22929 -1.07667,-0.57821 -1.5552,-1.04677c-0.46856,-0.47851 -0.70283,-1.10659 -0.70283,-1.88417c0,-0.62807 0.19937,-1.16141 0.59815,-1.60006c0.40873,-0.43865 0.83742,-0.78259 1.28602,-1.03181c0.45858,-0.24922 0.93212,-0.43865 1.42061,-0.56824c0.4885,-0.13957 0.92714,-0.20936 1.31594,-0.20936c0.32899,0 0.64302,0.01496 0.94209,0.04487c0.29907,0.01993 0.57821,0.02991 0.83742,0.02991c0.26916,0 0.5533,-0.01495 0.85238,-0.04487c0.30905,-0.02991 0.46356,-0.04487 0.46356,-0.04487c0.27914,0.3888 0.33397,0.4536 0.16449,0.19439c-0.15951,-0.26916 -0.21434,-0.54332 -0.16449,-0.82246c0.0598,-0.27914 0.10468,-0.5483 0.13459,-0.80751c0.03987,-0.26916 0.0598,-0.42369 0.0598,-0.46356c0,-0.40873 -0.03489,-0.83242 -0.10468,-1.27107c-0.06978,-0.43865 -0.10468,-0.92714 -0.10468,-1.46548c0,-0.80751 0.10468,-1.58509 0.31403,-2.33279c0.21931,-0.75765 0.65798,-1.46549 1.31593,-2.12344c0.56824,-0.57822 1.12651,-1.15145 1.67482,-1.71968c0.55828,-0.57822 1.15145,-1.10658 1.77949,-1.5851c0.63802,-0.48849 1.34585,-0.91219 2.12344,-1.27107c0.77759,-0.35888 1.68479,-0.60813 2.72159,-0.7477c0.60813,-0.07976 1.24118,-0.17447 1.89913,-0.28412c0.66793,-0.10966 1.35581,-0.16449 2.06364,-0.16449c0.42866,0 0.96203,0.05483 1.60005,0.16449c0.648,0.0997 1.3309,0.24424 2.04868,0.43366c0.71778,0.17944 1.44553,0.40376 2.18324,0.67292c0.73772,0.26916 1.43557,0.59317 2.09352,0.97199c0.65795,0.37884 1.24117,0.84738 1.7496,1.40566c0.50843,0.55828 0.54332,1.00688 0.10468,1.34585c0.66793,-0.41871 1.24117,-0.2891 1.71968,0.3888c0.47852,0.66794 0.79255,1.35082 0.9421,2.04867c0.14955,0.69785 0.24425,1.35581 0.28412,1.97392c0.04985,0.60813 0.12461,1.06671 0.22432,1.37574zM312.32616,181.06392c0,0.43865 -0.06481,0.84738 -0.1944,1.22621c-0.12959,0.36886 -0.26916,0.67791 -0.41871,0.92713c-0.14955,0.23927 -0.43864,0.30406 -0.86731,0.1944c-0.42867,-0.11963 -0.23428,-0.17944 0.58319,-0.17944c-0.10966,0 -0.06978,0.10966 0.11963,0.32899c0.18942,0.20936 0.28412,0.56824 0.28412,1.07667c0,0.7078 -0.22431,1.15643 -0.67292,1.34585c-0.43864,0.18942 -0.79753,0.28412 -1.07667,0.28412c-0.32899,0 -0.43367,-0.39378 -0.31403,-1.18135c0.79753,0.17944 1.22124,0.46356 1.27107,0.85238c0.04985,0.37884 0.07476,0.79753 0.07476,1.25613c0,0.85736 -0.13459,1.49538 -0.40375,1.91409c-0.26916,0.41871 -0.52837,0.66794 -0.77759,0.7477c-0.23927,0.07976 -0.39877,0.00497 -0.47851,-0.22432c-0.07977,-0.22929 0.11963,-0.30405 0.59815,-0.22431c0,0.52836 -0.19938,1.01188 -0.59815,1.45052c-0.3888,0.43865 -0.79753,0.82744 -1.22622,1.16641c-0.41871,0.33895 -0.88726,0.648 -1.40565,0.92714c-0.51841,0.27914 -1.0019,0.41871 -1.45053,0.41871c-0.26916,0 -0.30905,-0.41373 -0.11963,-1.24117c0.81749,0.01993 1.23617,0.12461 1.25613,0.31403c0.01994,0.18942 0.02991,0.39378 0.02991,0.61311c0,0.78757 -0.20935,1.296 -0.62806,1.52529c-0.40873,0.21931 -0.73274,0.38382 -0.97199,0.49347c-0.19938,0.07976 -0.43865,0.24425 -0.71779,0.49347c-0.27914,0.23927 -0.61311,0.51341 -1.0019,0.82246c-0.37884,0.31901 -0.81749,0.62807 -1.31593,0.92714c-0.49845,0.29907 -1.06173,0.44862 -1.68978,0.44862c-0.5882,0 -1.02184,-0.08474 -1.30097,-0.25423c-0.27914,-0.16949 -0.48352,-0.2542 -0.61311,-0.2542c-0.1595,0 -0.29907,0.02491 -0.41871,0.07476c-0.11963,0.04985 -0.27416,0.12959 -0.46356,0.23927c-0.17944,0.10966 -0.42867,0.23427 -0.7477,0.37384c-0.31901,0.14955 -0.70781,0.22432 -1.16641,0.22432c-0.75765,0 -1.44054,-0.15951 -2.04867,-0.47852c-0.59815,-0.31901 -1.11656,-0.5483 -1.55521,-0.68787c-0.22929,-0.07976 -0.49347,-0.14455 -0.79255,-0.1944c-0.2891,-0.03987 -0.62309,-0.0997 -1.00191,-0.17944c-0.37884,-0.07976 -0.77759,-0.21934 -1.1963,-0.41871c-0.40873,-0.19937 -0.78259,-0.49845 -1.12153,-0.89722c-0.34893,-0.42866 -0.77262,-0.79255 -1.27107,-1.09162c-0.49845,-0.30905 -1.05175,-0.61809 -1.65988,-0.92714c-0.59815,-0.30905 -1.22622,-0.66295 -1.88418,-1.06173c-0.648,-0.39878 -1.22621,-0.95206 -1.73464,-1.65988c-0.30906,-0.41871 -0.66793,-0.88726 -1.07667,-1.40565c-0.39878,-0.52836 -0.78757,-1.09663 -1.16641,-1.70474c-0.36886,-0.61809 -0.69285,-1.27106 -0.97199,-1.95895c-0.26916,-0.69785 -0.40375,-1.41063 -0.40375,-2.1384c0,-0.50843 0.04487,-0.98197 0.13459,-1.42062c0.08972,-0.44863 0.17944,-0.87231 0.26916,-1.27107c0.0997,-0.40873 0.18444,-0.78259 0.2542,-1.12153c0.07977,-0.34893 0.11963,-0.68787 0.11963,-1.01686v-0.34395c0.59815,0 0.75267,0.04985 0.46356,0.14955c-0.28909,0.0997 -0.4536,0.12959 -0.49347,0.08972c-0.02992,-0.04985 0.07476,-0.24425 0.31403,-0.58319c0.24923,-0.33895 0.37384,-0.0947 0.37384,0.73274c-0.01993,-0.85736 -0.03987,-1.28602 -0.0598,-1.28602c-0.84738,-0.33895 -1.22124,-0.72277 -1.12154,-1.15145c0.10966,-0.42866 0.2293,-0.85238 0.35891,-1.27107c0.13957,-0.42866 0.28412,-0.85736 0.43366,-1.28602c0.15951,-0.43865 0.37384,-0.80751 0.64302,-1.10659c0.14955,-0.10966 0.30905,-0.10468 0.47852,0.01496c0.17944,0.11963 0.05981,0.17944 -0.35888,0.17944c0,-0.11963 -0.01495,-0.26917 -0.04487,-0.44863c-0.01994,-0.17944 -0.02991,-0.39378 -0.02991,-0.64302c0,-0.67792 0.17446,-1.15145 0.52338,-1.42061c0.35888,-0.27914 0.63304,-0.41871 0.82247,-0.41871c0.19937,0 0.29409,0.10468 0.28411,0.31403c0,0.19937 -0.16948,0.20438 -0.50843,0.01496c0.18942,-0.36886 0.37884,-0.73275 0.56824,-1.09163c0.19938,-0.35888 0.42866,-0.70282 0.68787,-1.03182c0.25921,-0.33895 0.55828,-0.65298 0.89722,-0.94209c0.33895,-0.28909 0.7477,-0.55828 1.22622,-0.80751c0.23927,-0.13957 0.50345,-0.33397 0.79255,-0.58319c0.29907,-0.24922 0.63304,-0.52339 1.0019,-0.82246c0.36886,-0.29907 0.79255,-0.57324 1.27106,-0.82246c0.47852,-0.2592 1.02184,-0.3888 1.62997,-0.3888c0.40873,0 0.85735,-0.08972 1.34584,-0.26916c0.4885,-0.18942 1.04678,-0.34395 1.67482,-0.46356c0.86731,-0.12959 1.73962,-0.2542 2.61691,-0.37384c0.87729,-0.11963 1.7845,-0.17944 2.72159,-0.17944c0.57822,0 1.24117,0.08474 1.98885,0.2542c0.75765,0.16949 1.52031,0.3888 2.28792,0.65798c0.76763,0.26916 1.50038,0.57821 2.1982,0.92714c0.70781,0.34893 1.44553,0.8424 2.21316,1.48042v0.70282c0,0.43865 -0.04985,0.80751 -0.14952,1.10658c-0.0997,0.29907 -0.14955,0.52338 -0.14955,0.67292c0,0.03987 -0.20935,0.07477 -0.62806,0.10468c-0.41871,0.01993 -0.62807,-0.3888 -0.62807,-1.22622c0.21931,0 0.4885,-0.04487 0.80751,-0.13459c0.32899,-0.0997 1.12651,-0.14955 2.3926,-0.14955c-0.16948,0.80751 -0.17944,1.17636 -0.02991,1.10658c0.15951,-0.06978 0.37884,-0.04985 0.65798,0.05981c0.49845,0.23927 0.89723,0.58819 1.1963,1.04677c0.29907,0.44863 0.5483,0.89225 0.74769,1.3309c0.20935,0.42866 0.39378,0.82744 0.5533,1.1963c0.15951,0.35888 0.30406,0.63803 0.43367,0.83742c0.20935,0.31901 0.39877,0.68787 0.56824,1.10658c0.16948,0.40873 0.30406,0.82744 0.40375,1.25612c0.10966,0.42866 0.18942,0.85238 0.23927,1.27107c0.04985,0.41871 0.07476,0.80751 0.07476,1.16641c0,0.648 -0.11963,1.18134 -0.35888,1.60005c-0.23927,0.41871 -0.46356,0.75268 -0.67292,1.0019c-0.19938,0.23927 -0.36886,0.37884 -0.50843,0.41871c-0.12959,0.03987 -0.11466,0.0598 0.04487,0.0598c-0.21931,0 -0.30906,-0.01495 -0.26917,-0.04487c0.04985,-0.03987 -0.17944,0.18942 -0.68787,0.68787c-0.23927,-0.79753 -0.2542,-1.01685 -0.04487,-0.65795c0.20935,0.34893 -0.0648,0.52338 -0.82246,0.52338v-0.04487c0.46856,0 0.51838,-0.02491 0.14952,-0.07476c-0.36886,-0.04985 -0.5533,-0.3539 -0.5533,-0.91218c0,-0.21931 0.0947,-0.5483 0.28412,-0.98694c0.18942,-0.44863 0.60313,-0.67291 1.24117,-0.67291c0.5483,0 0.95705,0.16948 1.22621,0.50843c0.27914,0.33895 0.4885,0.61809 0.62807,0.83742c0.13957,0.21931 0.04487,0.48849 -0.28412,0.80751c-0.32899,0.30905 -0.52339,0.47852 -0.58319,0.50843l0.08972,-0.02991c0.87729,-0.0598 1.32091,-0.0349 1.33089,0.07476c0.01994,0.10966 0.02991,0.23927 0.02991,0.3888zM306.58388,181.30319c0.43864,0 0.60313,0.0997 0.49347,0.29907c-0.10966,0.18942 -0.30406,0.27915 -0.58319,0.26917c-0.26916,-0.01993 -0.69285,-0.06979 -1.27107,-0.14955c-0.57821,-0.07976 -1.03679,-0.57323 -1.37574,-1.48042v-0.5533c0,-0.37884 -0.05483,-0.84737 -0.16449,-1.40565c-0.0997,-0.55828 -0.23427,-1.14147 -0.40375,-1.7496c-0.15951,-0.60813 -0.32899,-1.21126 -0.50843,-1.80941c-0.17944,-0.59815 -0.34892,-1.13149 -0.50843,-1.60005c-0.15951,-0.46856 -0.11466,-0.86233 0.13459,-1.18134c0.24923,-0.32899 0.37384,-0.49348 0.37384,-0.49348c0.04985,0.69785 -0.02492,1.04678 -0.22431,1.04678c-0.5882,0 -1.06173,-0.0947 -1.42061,-0.28412c-0.34893,-0.19937 -0.66296,-0.36886 -0.9421,-0.50843c-0.26916,-0.14955 -0.5882,-0.27914 -0.95706,-0.3888c-0.36886,-0.11963 -0.87232,-0.17944 -1.51034,-0.17944c-0.91716,0 -1.78947,-0.05483 -2.61691,-0.16449c-0.82744,-0.11963 -1.63995,-0.17944 -2.43748,-0.17944c-0.94708,0 -1.8443,0.22431 -2.69167,0.67292c-0.84738,0.43865 -1.60503,1.03181 -2.27298,1.77949c-0.66793,0.73772 -1.19132,1.57515 -1.57014,2.51224c-0.36886,0.92714 -0.55331,1.85427 -0.55331,2.78142c0,0.44863 0.00998,0.96701 0.02992,1.5552c0.01993,0.57822 0.0648,1.14148 0.13459,1.68977c0.07977,0.53834 0.18445,0.99195 0.31404,1.36081c0.12959,0.36886 0.42867,0.7427 0.89722,1.12153l-0.83742,1.31594c-0.0997,-0.07976 -0.10966,-0.2592 -0.02991,-0.53834c0.07977,-0.28909 0.20936,-0.43367 0.3888,-0.43367c0.17944,0 0.44863,0.05483 0.8075,0.16449c0.36886,0.0997 0.67291,0.42369 0.91218,0.97199c0.20935,0.58819 0.47354,1.03182 0.79255,1.33089c0.31901,0.29907 0.70282,0.57822 1.15145,0.83742c0.45858,0.24922 0.97699,0.53834 1.55521,0.86731c0.57821,0.31901 0.84239,0.92714 0.79255,1.82437c-0.02992,-0.57822 0.05981,-0.87231 0.26916,-0.88227c0.21931,-0.00998 0.41871,-0.01496 0.59815,-0.01496c0.73772,0 1.42061,0.04985 2.04868,0.14955c0.63802,0.08972 1.24615,0.13459 1.82437,0.13459c0.41871,0 0.81249,-0.11963 1.18134,-0.35888c0.37884,-0.23927 0.71779,-0.55828 1.01686,-0.95705c0.25921,-0.37884 0.50345,-0.7078 0.73274,-0.98694c0.23927,-0.27914 0.48351,-0.54332 0.73274,-0.79255c0.2592,-0.24922 0.53335,-0.48352 0.82247,-0.70283c0.28909,-0.22929 0.62306,-0.47851 1.0019,-0.7477c0.12959,-0.07976 0.26418,-0.16948 0.40375,-0.26916c0.14955,-0.10966 0.2891,-0.21934 0.41871,-0.32899c0.12959,-0.11963 0.31403,-0.13957 0.5533,-0.05981c0.23927,0.06978 0.12461,0.10468 -0.34395,0.10468c0,-0.06978 -0.02491,-0.1944 -0.07476,-0.37384c-0.04985,-0.18942 -0.07477,-0.43865 -0.07477,-0.7477c0,-0.30905 0.03987,-0.65795 0.11963,-1.04677c0.08972,-0.3888 0.22929,-0.77759 0.41871,-1.16641c0.19938,-0.3888 0.48849,-0.75765 0.86731,-1.10658c0.3888,-0.34893 0.89723,-0.52338 1.52529,-0.52338c0.41871,0 0.8075,0.08474 1.16638,0.2542c0.36886,0.15951 0.37384,0.57821 0.01496,1.25613c-0.7477,-0.0598 -1.12154,-0.10468 -1.12154,-0.13459zM350.98467,171.95705c0,0.648 -0.11963,1.18135 -0.35891,1.60006c-0.23927,0.41871 -0.46356,0.76763 -0.67292,1.04677c-0.20935,0.26916 -0.38381,0.49846 -0.52338,0.68788c-0.12959,0.18942 -0.31403,0.92216 -0.5533,2.1982c-1.06671,-0.47851 -1.65488,-0.72276 -1.76456,-0.73274c-0.0997,-0.00998 -0.23427,-0.01495 -0.40375,-0.01495c-0.43864,0 -0.90221,0.03489 -1.3907,0.10467c-0.48849,0.06978 -1.0019,0.10468 -1.54025,0.10468c-0.90721,0 -1.63992,-0.26418 -2.1982,-0.79255c-0.55828,-0.52836 -0.97199,-1.10658 -1.24117,-1.73465c-0.26916,-0.63802 -0.4536,-1.28104 -0.5533,-1.92904c-0.0997,-0.65795 -0.14955,-1.25113 -0.14955,-1.77949c0,-0.7078 0.41871,-1.24118 1.25613,-1.60006c-0.06978,0.57822 -0.10468,0.92714 -0.10468,1.04678c0,-0.35888 -0.00997,-0.36388 -0.02991,-0.01495c-0.01994,0.33895 -0.35891,0.50843 -1.01686,0.50843c-0.53835,0 -0.84737,-0.15453 -0.92714,-0.46356c-0.06978,-0.30905 -0.10468,-0.2891 -0.10468,0.0598c-0.12959,0 -0.36886,0.07476 -0.71778,0.22431c-0.33895,0.13957 -0.68787,0.33895 -1.04677,0.59815c-0.35888,0.24922 -0.62807,0.47354 -0.80751,0.67292c-0.16948,0.19937 -0.2542,0.70283 -0.2542,1.51034c-1.06671,0.0997 -1.7446,0.22431 -2.03372,0.37384c-0.2891,0.13957 -0.58819,0.31403 -0.89722,0.52338c-0.07977,0.04985 -0.18444,0.18942 -0.31403,0.41871c-0.11963,0.22929 -0.2542,0.53334 -0.40375,0.91218c-0.13957,0.36886 -0.29907,0.79255 -0.47852,1.27107c-0.16948,0.46856 -0.40375,0.89225 -0.70283,1.27107c-0.30906,0.40873 -0.55828,0.78259 -0.7477,1.12154c-0.18942,0.33895 -0.28412,0.68289 -0.28412,1.03182c0,0.59815 0.11466,1.27106 0.34395,2.01876c0.22929,0.7477 0.34394,1.57017 0.34394,2.46739c0,0.55828 -0.03489,1.08664 -0.10468,1.58509c-0.06978,0.49845 -0.10468,0.95705 -0.10468,1.37574c0,0.33895 0.03987,0.58319 0.11963,0.73275c0.08972,0.14955 0.21931,0.27415 0.3888,0.37383c0.17944,0.0997 0.44363,0.17447 0.79255,0.22432c0.34892,0.03987 0.73274,0.0598 1.15145,0.0598c0.48849,0 0.97699,-0.01496 1.46548,-0.04487c0.48849,-0.02991 1.15145,-0.04487 1.98885,-0.04487c0.5882,0.66794 0.90221,1.17636 0.9421,1.52529c0.04985,0.33895 0.04985,0.63802 0,0.89722c-0.04985,0.2592 -0.0947,0.44862 -0.13459,0.56824c-0.03987,0.10966 -0.0598,0.1944 -0.0598,0.25423c-0.32899,0 -0.68289,0.01495 -1.06173,0.04487c-0.05981,-0.69785 -0.0997,-1.04177 -0.11963,-1.03181c-0.00998,0.00998 0.11466,-0.3888 0.37384,-1.1963c1.12651,0.30905 1.86423,0.59815 2.21316,0.86731c0.34892,0.26916 0.52338,0.69785 0.52338,1.28602c0,0.34893 -0.06978,0.648 -0.20935,0.89722c-0.12959,0.24922 -0.23926,0.42368 -0.32898,0.52338c-0.07977,0.0997 -0.17944,0.12462 -0.29907,0.07477c-0.11963,-0.0598 -0.04487,-0.08972 0.22431,-0.08972c-0.10966,0 -0.26418,0.03489 -0.46356,0.10468c-0.18942,0.0598 0.08474,0.17446 0.82246,0.34395c-0.5483,0.93709 -1.03182,1.47047 -1.45053,1.60006c-0.40873,0.12959 -0.77759,0.1944 -1.10658,0.1944c-0.51841,0 -0.95206,-0.07476 -1.30098,-0.22432c-0.33895,-0.15951 -0.6131,-0.31403 -0.82246,-0.46356c-0.20935,-0.15951 -0.31403,-0.30405 -0.31403,-0.43366c0.00998,-0.13957 0.01495,-0.0947 0.01495,0.13459c0,-0.18942 -0.03987,-0.22431 -0.11963,-0.10468c-0.07977,0.10966 -0.16449,0.18444 -0.25423,0.22431c-0.07977,0.02991 -0.24424,-0.07977 -0.49347,-0.32899c-0.23927,-0.2592 -0.00998,-0.38879 0.68787,-0.38879c-0.46856,0 -0.52836,0.01994 -0.17944,0.05981c0.34892,0.02991 0.52338,0.29907 0.52338,0.8075c0,0.58819 -0.17944,1.01686 -0.53835,1.28602c-0.35888,0.26916 -0.67291,0.42866 -0.94209,0.47851c-0.2592,0.0598 -0.48849,0.0997 -0.68787,0.11963c-0.19938,0.01993 -0.37384,0.02991 -0.52339,0.02991c-0.90721,0 -1.75956,-0.08972 -2.5571,-0.26916c-0.79753,-0.17944 -1.5552,-0.26916 -2.27298,-0.26916c-0.17944,0 -0.45858,0.07976 -0.83742,0.23927c-0.36886,0.16949 -0.85735,0.25423 -1.46548,0.25423c-0.52836,0 -0.9421,-0.11466 -1.24117,-0.34395c-0.2891,-0.22929 -0.47852,-0.41373 -0.56824,-0.5533c-0.08972,-0.13957 -0.06978,-0.2592 0.05981,-0.35888c0.12959,-0.10966 0.1944,0 0.1944,0.32899c-0.29907,0 -0.61809,0.03489 -0.95706,0.10468c-0.32899,0.07976 -0.69285,0.16448 -1.09162,0.2542c-0.3888,0.08972 -0.80253,0.17446 -1.24118,0.2542c-0.42867,0.08972 -0.87728,0.13459 -1.34584,0.13459c-0.2891,0 -0.62309,-0.03489 -1.00191,-0.10468c-0.37884,-0.0598 -0.76763,-0.18444 -1.16638,-0.37384c-0.39877,-0.17944 -0.7826,-0.4536 -1.15146,-0.82246c-0.36886,-0.37884 -0.5533,-0.88227 -0.5533,-1.51034c0,-0.44863 0.14455,-0.87729 0.43367,-1.28602c0.29907,-0.41871 0.59815,-0.77759 0.89722,-1.07667c0.29907,-0.30905 0.64302,-0.60813 1.03181,-0.89723c0.39877,-0.29907 0.80751,-0.44862 1.22622,-0.44862c0.35888,0 0.69785,0.00998 1.01686,0.02992c0.32899,0.01993 0.65298,0.02991 0.97199,0.02991c0.42867,0 0.86233,-0.06978 1.30097,-0.20935c0.44863,-0.13957 0.83742,-0.32399 1.16641,-0.5533c0.33895,-0.23927 0.59815,-0.51341 0.77759,-0.82246c0.17944,-0.31901 0.26917,-0.67291 0.26917,-1.06173c0,-0.19937 -0.01994,-0.42867 -0.05981,-0.68787c-0.03987,-0.2592 -0.0598,-0.55828 -0.0598,-0.89723c0,-0.63802 0.0598,-1.22621 0.17944,-1.76456c0.12959,-0.53834 0.1944,-1.03181 0.1944,-1.48042c0,-0.63802 -0.07976,-1.33587 -0.23927,-2.09353c-0.14955,-0.75765 -0.22431,-1.56516 -0.22431,-2.42251c0,-0.69785 0.01495,-1.38572 0.04487,-2.06364c0.02991,-0.67792 0.04487,-1.35082 0.04487,-2.01876c0,-0.29907 -0.00998,-0.72774 -0.02992,-1.28602c-0.01994,-0.55828 -0.07976,-1.08664 -0.17944,-1.58509c-0.08972,-0.50843 -0.14952,-0.89225 -0.17944,-1.15145c-0.02991,-0.2592 -0.04487,-0.2941 -0.04487,-0.10468c-0.35888,0 -0.76763,0.05483 -1.22621,0.16449c-0.44863,0.0997 -0.96204,0.14955 -1.54025,0.14955c-0.40873,0 -0.88727,-0.02992 -1.43557,-0.08972c-0.5483,-0.06978 -1.11156,-0.20438 -1.68977,-0.40376c-0.56824,-0.19937 -1.11156,-0.53834 -1.62997,-1.01686c-0.50843,-0.48849 -0.76263,-1.1614 -0.76263,-2.01876c0,-0.7078 0.11463,-1.32092 0.34394,-1.83933c0.23927,-0.51841 0.56326,-0.92216 0.97199,-1.21126c0.41871,-0.28909 0.85237,-0.47851 1.30098,-0.56824c0.44863,-0.08972 0.9072,-0.13459 1.37574,-0.13459c0.35888,0 0.71281,0.01496 1.06173,0.04487c0.35888,0.01993 0.68787,0.02992 0.98695,0.02992c0.61809,0 1.25113,-0.03489 1.89912,-0.10468c0.65798,-0.07976 1.34585,-0.11963 2.06364,-0.11963c0.49845,0 1.00688,0.02491 1.52529,0.07476c0.52836,0.03987 1.05673,0.14955 1.58509,0.32899c0.72774,0.21931 1.2312,0.59317 1.51034,1.12154c0.27914,0.51841 0.48849,0.93709 0.62806,1.25613c0.14955,0.31901 0.24424,0.51341 0.28412,0.58319c0.04985,0.0598 0.08474,0.08972 0.10468,0.08972c0,0.17944 0.00497,0.21434 0.01495,0.10468c0.01994,-0.11963 0.10468,-0.24923 0.25423,-0.3888c0.15951,-0.13957 0.37384,-0.30405 0.64302,-0.49347c0.26916,-0.19937 0.62806,-0.33895 1.07667,-0.41871c0.27914,-0.03987 0.56824,-0.14955 0.86731,-0.32899c0.30906,-0.17944 0.65798,-0.3888 1.04678,-0.62807c0.39877,-0.23927 0.84738,-0.47851 1.34585,-0.71778c0.49845,-0.23927 1.07169,-0.35888 1.71969,-0.35888c0.19938,0 0.47353,-0.02492 0.82246,-0.07477c0.34892,-0.0598 0.69785,-0.13956 1.04678,-0.23926c0.34892,-0.0997 0.65298,-0.20936 0.91218,-0.32899c0.2592,-0.11963 0.57821,-0.36886 0.95706,-0.7477c1.05673,0.07976 2.00878,0.24922 2.85618,0.50843c0.84738,0.24922 1.66486,0.59317 2.45243,1.03182c0.78757,0.43865 1.52031,0.99194 2.19821,1.65988c0.67792,0.66794 1.07169,1.47046 1.18134,2.40755c0.03987,0.24922 0.12959,0.51841 0.26916,0.80751c0.13957,0.28909 0.29907,0.61311 0.47851,0.97199c0.17944,0.35888 0.35891,0.76763 0.53835,1.22621c0.18942,0.45858 0.28412,0.96701 0.28412,1.52529zM392.23396,193.23632c0,0.22929 -0.03489,0.53335 -0.10468,0.91219c-0.06978,0.37884 -0.17944,0.75765 -0.32899,1.13649c-0.13957,0.37884 -0.35888,0.80253 -0.65795,1.27107c-0.2891,0.46856 -0.77261,0.70282 -1.45053,0.70282c-0.39877,0 -0.7128,-0.04487 -0.94209,-0.13459c-0.21931,-0.08972 -0.35891,-0.13459 -0.41871,-0.13459c-0.648,0 -1.32592,0.06481 -2.03372,0.1944c-0.70781,0.13957 -1.46548,0.20935 -2.27299,0.20935c-0.47852,0 -0.91218,-0.0598 -1.30097,-0.17944c-0.37884,-0.10966 -0.72276,-0.21931 -1.03182,-0.32899c-0.29907,-0.10966 -0.58319,-0.20935 -0.85237,-0.29907c-0.26916,-0.08972 -0.51841,-0.14455 -0.7477,-0.16449c-0.87729,-0.06978 -1.5502,-0.4187 -2.01876,-1.04677c-0.45858,-0.63802 -0.68787,-1.34085 -0.68787,-2.10849c0,-0.85736 0.19938,-1.54024 0.59815,-2.04867c0.39877,-0.51841 0.77261,-0.97699 1.12153,-1.37575c0.34892,-0.39878 0.63803,-0.82246 0.86732,-1.27107c0.22929,-0.45858 0.34394,-1.09162 0.34394,-1.89912c0,-2.00381 -0.08972,-4.00762 -0.26916,-6.01144c-0.17944,-2.00381 -0.26917,-4.0425 -0.26917,-6.11611v-0.92714c0,-0.39878 -0.01496,-0.7776 -0.04487,-1.1365c-0.02991,-0.36886 -0.08972,-0.64302 -0.17944,-0.82246c-0.07977,-0.18942 -0.17446,-0.32399 -0.28412,-0.40375c-0.10966,-0.07976 -0.17446,-0.11963 -0.1944,-0.11963c-0.22929,0.12959 -0.52836,0.34395 -0.89722,0.64302c-0.36886,0.28909 -0.67792,0.60313 -0.92714,0.94209c-0.06978,0.0997 -0.17446,0.3539 -0.31403,0.76263c-0.13957,0.39878 -0.27914,0.89225 -0.41871,1.48042c-0.13957,0.58819 -0.27416,1.23119 -0.40375,1.92904c-0.12959,0.68787 -0.24923,1.34585 -0.35888,1.97392c-0.0997,0.62807 -0.17944,1.1963 -0.23927,1.70473c-0.04985,0.49845 -0.07477,0.85735 -0.07477,1.07666c0,0.72774 0.05483,1.49538 0.16448,2.30289c0.11963,0.79753 0.17944,1.61999 0.17944,2.46738c0,0.49845 -0.03987,0.94209 -0.11963,1.33089c-0.06978,0.37884 -0.10468,0.73274 -0.10468,1.06173c0,0.11963 0,0.19938 0,0.23927c0,0.03987 -0.0997,0.00497 -0.29907,-0.10468c0.12959,-0.06978 0.37384,0.00499 0.73274,0.22432c0.35888,0.20936 0.71281,0.46356 1.06173,0.76263c0.34892,0.29907 0.67791,0.66296 0.98694,1.09162c0.31901,0.41871 0.47852,0.91716 0.47852,1.49537c0,1.00688 -0.3539,1.81939 -1.06173,2.43748c-0.70781,0.60813 -1.52031,0.91218 -2.43748,0.91218c-0.22929,0 -0.40873,-0.00997 -0.53834,-0.02991c-0.11963,-0.02991 -0.20936,-0.04487 -0.26917,-0.04487c-0.04985,0 -0.12959,0.01993 -0.23926,0.0598c-0.0997,0.03987 -0.25921,0.10965 -0.47852,0.20935c-0.21931,0.0997 -0.48351,0.19938 -0.79255,0.29908c-0.30906,0.0997 -0.65798,0.14952 -1.04678,0.14952c-0.75765,0 -1.44054,-0.08473 -2.04868,-0.2542c-0.59815,-0.15951 -1.16141,-0.23927 -1.68977,-0.23927c-0.5483,0 -0.99194,-0.16949 -1.33089,-0.50843c-0.33895,-0.34893 -0.57822,-0.68787 -0.71779,-1.01686c-0.13957,-0.32899 -0.23927,-0.648 -0.29907,-0.95705c-0.05981,-0.31901 -0.08972,-0.59317 -0.08972,-0.82246c0,-0.68787 0.14955,-1.21624 0.44862,-1.5851c0.29907,-0.36886 0.59317,-0.648 0.88227,-0.83742c0.29907,-0.19937 0.56326,-0.35888 0.79255,-0.47851c0.22929,-0.12959 0.40375,-0.26419 0.52338,-0.40376c0.11963,-0.14955 0.23427,-0.38381 0.34395,-0.70282c0.10966,-0.32899 0.16448,-0.80253 0.16448,-1.42062c0,-0.17944 -0.03489,-0.37884 -0.10468,-0.59815c-0.05981,-0.22929 -0.13957,-0.49348 -0.23926,-0.79255c-0.0997,-0.30905 -0.1944,-0.64302 -0.28412,-1.0019c-0.07977,-0.35888 -0.11963,-0.7427 -0.11963,-1.15145c0,-0.63802 0.0598,-1.22621 0.17944,-1.76456c0.12959,-0.5483 0.1944,-1.04178 0.1944,-1.48042c0,-0.21931 -0.07476,-0.50345 -0.22431,-0.85237c-0.13957,-0.35888 -0.20935,-0.81249 -0.20935,-1.36081c0,-0.56824 0.08972,-0.94707 0.26916,-1.13649c0.17944,-0.19937 0.24425,-0.29908 0.1944,-0.29908c0.04985,0 0.03987,-0.09469 -0.02991,-0.28411c-0.05981,-0.18942 -0.11466,-0.44363 -0.16449,-0.76266c-0.04985,-0.31901 -0.0997,-0.66296 -0.14955,-1.03182c-0.03987,-0.36886 -0.05981,-0.72277 -0.05981,-1.06173c0,-0.46856 0.04487,-0.88726 0.13459,-1.25612c0.08972,-0.37884 0.1346,-0.7078 0.1346,-0.98694c0,0 -0.00998,-0.00998 -0.02992,-0.02992c-0.00998,-0.02991 -0.04985,-0.06978 -0.11963,-0.11963c-0.05981,-0.0598 -0.13459,-0.10468 -0.22431,-0.13459c-0.07977,-0.02991 -0.14955,-0.04487 -0.20935,-0.04487c-0.17944,0 -0.37384,0.04487 -0.58319,0.13459c-0.20935,0.07976 -0.42369,0.19938 -0.64302,0.35888c-0.21931,0.15951 -0.4536,0.3539 -0.70283,0.58319c-0.24923,0.22929 -0.46856,0.34395 -0.65798,0.34395c0.12959,0.00998 0.15951,0.14955 0.08972,0.41871c-0.06978,0.2592 -0.1944,0.53334 -0.37384,0.82246c-0.23927,0.33895 -0.49845,0.57822 -0.77759,0.71778c-0.27914,0.13957 -0.49347,0.24425 -0.64302,0.31404c-0.13957,0.0598 -0.2941,-0.00498 -0.46356,-0.1944c-0.16948,-0.19937 0,-0.29907 0.50843,-0.29907c-0.50843,0 -0.72276,-0.03987 -0.64302,-0.11963c0.07977,-0.07976 0.34892,-0.19439 0.8075,-0.34395c0.44863,0.98694 0.67292,1.77452 0.67292,2.36271c0,0.44863 -0.04488,0.87231 -0.1346,1.27107c-0.08972,0.3888 -0.18441,0.7427 -0.28411,1.06173c-0.08972,0.30905 -0.16449,0.60813 -0.22432,0.89723c-0.04985,0.27914 -0.07476,0.53834 -0.07476,0.77759l0.02991,3.12535c-0.18942,0.04985 -0.27416,0.01495 -0.25423,-0.10468c0.01994,-0.12959 0.06481,-0.17446 0.1346,-0.13459c0.07977,0.03987 0.23426,0.18942 0.46355,0.44862c0.22929,0.24922 0.39877,0.66296 0.50843,1.24117c0.06978,0.44863 0.1296,0.9022 0.17944,1.3608c0.05981,0.45858 0.08972,0.92216 0.08972,1.3907c0,0.52836 -0.04487,1.00689 -0.13459,1.43557c-0.07977,0.41871 -0.11963,0.80253 -0.11963,1.15145c0,0.20936 -0.00498,0.31403 -0.01496,0.31403c0,-0.00998 0.01496,-0.00998 0.04487,0c0.02991,0.00998 0.15453,0.02992 0.37384,0.05981c0.22929,0.02991 0.53834,0.12461 0.92714,0.28412c0.3888,0.15951 0.72276,0.45858 1.0019,0.89723c0.27914,0.42866 0.41871,1.0019 0.41871,1.71969c0,0.73772 -0.21434,1.35083 -0.64303,1.83932c-0.41871,0.47851 -0.95705,0.80751 -1.61501,0.98695c-1.3558,0.35888 -2.77144,0.648 -4.24688,0.86731c-1.46548,0.21931 -2.90602,0.32899 -4.32164,0.32899c-0.44863,0 -0.89722,-0.02491 -1.34585,-0.07476c-0.44863,-0.03987 -0.86732,-0.21433 -1.25613,-0.52338c-0.37884,-0.30905 -0.63802,-0.70283 -0.77759,-1.18134c-0.13957,-0.47851 -0.20935,-1.05175 -0.20935,-1.71969c0,-0.83742 0.26418,-1.52031 0.79255,-2.04867c0.52836,-0.53834 1.01685,-0.98695 1.46548,-1.34585c0.45858,-0.35888 0.80253,-0.648 1.03182,-0.86731c0.23927,-0.21931 0.35888,-0.3539 0.35888,-0.40376c0,-0.15951 -0.00497,-0.31403 -0.01495,-0.46356c-0.00998,-0.15951 -0.01496,-0.31901 -0.01496,-0.47851c0,-0.30905 0.03987,-0.62309 0.11963,-0.9421c0.08972,-0.31901 0.18444,-0.54332 0.28412,-0.67291c0,-0.07976 -0.04487,-0.32399 -0.13459,-0.73274c-0.07977,-0.40873 -0.17446,-0.83242 -0.28412,-1.27107c-0.0997,-0.44863 -0.19938,-0.92216 -0.29907,-1.42061c-0.0997,-0.49845 -0.14955,-1.03182 -0.14955,-1.60005c0,-1.05673 0.08474,-2.04867 0.2542,-2.97581c0.17944,-0.93709 0.26917,-1.85428 0.26917,-2.75151c0,-0.50843 -0.01495,-1.01188 -0.04487,-1.51033c-0.02991,-0.50843 -0.06481,-1.02184 -0.10468,-1.54025c-0.05981,-0.56824 -0.11963,-0.99194 -0.17944,-1.27107c-0.05981,-0.27914 -0.12959,-0.47851 -0.20935,-0.59815c-0.07977,-0.11963 -0.2293,-0.24425 -0.44863,-0.37384c-0.20935,-0.13957 -0.58819,-0.33397 -1.13649,-0.58319c-0.47852,-0.23927 -0.9371,-0.58819 -1.37575,-1.04677c-0.42867,-0.45858 -0.64302,-1.05673 -0.64302,-1.79445c0,-0.83742 0.20438,-1.43558 0.61311,-1.79446c0.40873,-0.35888 0.78259,-0.59815 1.12154,-0.71778c0.34892,-0.12959 0.60813,-0.14455 0.77759,-0.04487c0.17944,0.08972 0.13459,0.07477 -0.13459,-0.04487c0.21931,-0.49845 0.48351,-0.81748 0.79255,-0.95705c0.30906,-0.14955 0.66793,-0.22432 1.07667,-0.22432c0.70781,0 1.36081,0.10468 1.95896,0.31404c0.59815,0.20936 1.14148,0.41373 1.62997,0.6131c0.48849,0.18942 0.91716,0.35888 1.28602,0.50843c0.36886,0.14955 0.67291,0.22432 0.91218,0.22432c0.19938,0 0.49347,-0.10966 0.88227,-0.32899c0.3888,-0.22929 0.88726,-0.51841 1.49537,-0.86732c0.61809,-0.34893 1.33587,-0.68289 2.15335,-1.0019c0.81749,-0.31901 1.76954,-0.47852 2.85618,-0.47852c0.53835,0 1.05175,0.10966 1.54025,0.32899c0.49845,0.21931 0.95705,0.47852 1.37574,0.7776c0.41871,0.28909 0.80253,0.60313 1.15145,0.94209c0.35888,0.32899 0.32899,0.69785 -0.08972,1.10658c-0.05981,-0.7477 0.2891,-1.32092 1.04678,-1.71969c0.75765,-0.39878 1.53026,-0.72276 2.31783,-0.97199c0.79753,-0.24922 1.60503,-0.42867 2.42252,-0.53834c0.81749,-0.11963 1.60005,-0.17944 2.34775,-0.17944c0.78757,0 1.48042,0.19937 2.07857,0.59815c0.59815,0.39878 1.09162,0.88727 1.48042,1.46548c0.39877,0.57822 0.72774,1.18634 0.98694,1.82436c0.2592,0.63802 0.49347,1.26111 0.70283,1.86923c0.20935,0.59815 0.38382,1.17636 0.52339,1.73465c0.14955,0.55828 0.27914,0.99692 0.3888,1.31594c0.04985,0.12959 0.0947,0.28909 0.13459,0.47851c0.04985,0.18942 0.07477,0.39878 0.07477,0.62807c0,0.42866 -0.05483,0.81249 -0.16449,1.15145c-0.10966,0.33895 -0.20935,0.63802 -0.29907,0.89722c-0.08972,0.2592 -0.16448,0.4885 -0.22431,0.68787c-0.05981,0.18942 -0.08972,0.36886 -0.08972,0.53834c0,0.11963 0.05483,0.31403 0.16449,0.58319c0.10966,0.26916 0.16448,0.63305 0.16448,1.09163c0,0.48849 -0.0648,0.87729 -0.19439,1.16638c-0.11963,0.27914 -0.17944,0.48352 -0.17944,0.61311c0,0.22929 0.07976,0.53334 0.23927,0.91218c0.15951,0.36886 0.23927,0.85238 0.23927,1.45052c0,0.44863 -0.05981,0.85736 -0.17944,1.22621c-0.11963,0.35888 -0.23927,0.6829 -0.35888,0.97199c-0.10966,0.28909 -0.19938,0.53834 -0.26916,0.7477c-0.06978,0.19937 -0.10468,0.37884 -0.10468,0.53834c0,0.01993 0,0.02991 0,0.02991c0,-0.00998 0.00498,0 0.01496,0.02992l1.22621,3.08049c0.10966,0.2592 0.33895,0.5483 0.68787,0.86732c0.35888,0.31901 0.77759,0.67291 1.25613,1.06173c0.47852,0.3888 0.96203,0.86233 1.45052,1.42061c0.48849,0.55828 0.73275,1.24117 0.73275,2.04867zM426.14634,188.19689c0,0.7477 -0.11963,1.39069 -0.35888,1.92904c-0.23927,0.53834 -0.53834,1.00688 -0.89722,1.40565c-0.34892,0.39878 -0.72276,0.7477 -1.12154,1.04678c-0.3888,0.28909 -0.75765,0.57324 -1.10658,0.85238c-0.35888,0.30905 -0.68787,0.54332 -0.98694,0.70282c-0.2891,0.15951 -0.56326,0.2891 -0.82246,0.3888c-0.24923,0.0997 -0.48849,0.18942 -0.71778,0.26916c-0.21931,0.06978 -0.4536,0.16448 -0.70283,0.28412c-0.36886,0.18942 -0.69785,0.37384 -0.98694,0.5533c-0.27914,0.16949 -0.5832,0.33895 -0.91219,0.50843c-0.32899,0.16949 -0.70282,0.31403 -1.12153,0.43366c-0.40873,0.11963 -0.89225,0.20936 -1.45053,0.26916c-0.8075,0.10966 -1.64991,0.23926 -2.5272,0.3888c-0.86731,0.14955 -1.7496,0.22431 -2.64683,0.22431c-0.34892,0 -0.64302,-0.04985 -0.88227,-0.14955c-0.22929,-0.0997 -0.44362,-0.17944 -0.64302,-0.23926c-0.19938,-0.0598 -0.40874,-0.11964 -0.62807,-0.17944c-0.21931,-0.0598 -0.46855,-0.08972 -0.74769,-0.08972c-0.61811,0 -1.12157,-0.0997 -1.51036,-0.29907c-0.37884,-0.18942 -0.69285,-0.38382 -0.94209,-0.58319c-0.24923,-0.20936 -0.45858,-0.38879 -0.62807,-0.53834c-0.15951,-0.15951 -0.33397,-0.27914 -0.52338,-0.35891c-1.38572,-0.63802 -2.56209,-1.3907 -3.5291,-2.25803c-0.96701,-0.87729 -1.78947,-1.84928 -2.46739,-2.91599c-0.67792,-1.06671 -1.24116,-2.2032 -1.68977,-3.40946c-0.43864,-1.21624 -0.80253,-2.46739 -1.09163,-3.75341c-0.2592,-0.96701 -0.3888,-1.944 -0.3888,-2.93095c0,-1.36579 0.22929,-2.46239 0.68787,-3.28985c-0.12959,-0.35888 -0.1944,-0.88227 -0.1944,-1.57014c0,-0.51841 0.12461,-1.21126 0.37384,-2.07857c0.2592,-0.87729 0.58319,-1.73963 0.97199,-2.587c0.39877,-0.84738 0.85735,-1.65988 1.37574,-2.43747c0.51841,-0.77759 1.10161,-1.296 1.7496,-1.5552c0.20935,-0.06978 0.34394,-0.00998 0.40375,0.17944c0.05981,0.18942 -0.09969,0.2542 -0.47852,0.1944c0,-0.65795 0.20437,-1.15643 0.6131,-1.49538c0.40873,-0.34893 0.79753,-0.58819 1.16641,-0.71778c0.36886,-0.13957 0.68787,-0.24923 0.95705,-0.32899c0.26916,-0.08972 0.46356,-0.1595 0.58319,-0.20935c0.78757,-0.3888 1.5502,-0.71778 2.28792,-0.98694c0.73772,-0.27914 1.48043,-0.51341 2.22815,-0.70283c0.7477,-0.18942 1.52031,-0.32899 2.31784,-0.41871c0.8075,-0.08972 1.65988,-0.13459 2.5571,-0.13459c0.57821,0 1.13649,0.07976 1.67482,0.23927c0.53835,0.14955 1.03181,0.33895 1.48042,0.56824c0.45858,0.21931 0.89224,0.45361 1.30097,0.70283c0.41871,0.24922 2.11846,1.30097 5.09926,3.15525l-4.63567,-1.31593c0.56824,-0.81748 0.99195,-1.15643 1.27107,-1.01686c0.27914,0.13957 0.67791,0.23927 1.1963,0.29907c0.42867,0.53834 0.85736,0.95206 1.28602,1.24118c0.42867,0.28909 0.89225,0.63304 1.3907,1.03181c0.50843,0.3888 0.98197,0.86732 1.42061,1.43557c0.44863,0.55828 0.67292,1.25113 0.67292,2.07857c0,0.13957 -0.00998,0.26916 -0.02991,0.3888c-0.00998,0.11963 -0.43864,0.11963 -1.28602,0l-0.20936,-1.88418c0.96701,0.7477 1.51033,1.25113 1.62997,1.51034c0.12959,0.24922 0.23427,0.4885 0.31403,0.71779c0.08972,0.21931 0.15452,0.43366 0.1944,0.64302c0.04985,0.20936 -0.07477,0.3539 -0.37384,0.43366c0.2592,-0.16949 0.52837,-0.16949 0.80751,0c0.2891,0.16949 0.7477,0.78757 1.37574,1.85428c-0.5882,0.36886 -0.80253,0.57324 -0.64302,0.61311c0,0.16949 0.06978,0.42867 0.20935,0.77759c0.14955,0.33895 0.22431,0.77261 0.22431,1.30098c0,0.46856 -0.01994,0.89723 -0.05981,1.28602c-0.03987,0.37884 -0.05981,0.75267 -0.05981,1.12153c0,0.76763 -0.23426,1.31096 -0.70282,1.62997c-0.45858,0.31901 -0.83742,0.5483 -1.13649,0.68787c-0.29907,0.12959 -0.56326,0.11963 -0.79255,-0.02992c-0.22929,-0.15951 -0.0997,-0.23927 0.3888,-0.23927c0,1.0966 -0.32399,1.62997 -0.97199,1.60006c-0.648,-0.03987 -1.02184,-0.0598 -1.12153,-0.0598c-1.02684,0 -1.99384,-0.11466 -2.90103,-0.34395c-0.89722,-0.22929 -1.73963,-0.34395 -2.5272,-0.34395c-0.91716,0 -1.85428,0.06979 -2.81131,0.20936c-0.94707,0.12959 -1.93902,0.1944 -2.97581,0.1944c-0.7477,0 -1.48042,-0.01993 -2.19821,-0.0598c-0.71778,-0.03987 -1.43059,-0.05981 -2.13842,-0.05981c-0.12959,0 -0.43367,0.0349 -0.91218,0.10468c-0.46856,0.0598 -0.97199,0.14455 -1.51033,0.2542c-0.53835,0.0997 -1.02184,0.21434 -1.45053,0.34395c-0.42867,0.12959 -0.82744,-0.05483 -1.1963,-0.5533c0.62806,0.03987 0.94209,0.10966 0.94209,0.20936c0,0.7477 0.23927,1.56018 0.71779,2.43747c0.47852,0.87729 1.13649,1.69477 1.97389,2.45243c0.83742,0.75765 1.75956,1.38572 2.76648,1.88417c1.01686,0.48849 2.01877,0.73274 3.00571,0.73274c0.70781,0 1.44055,0.02992 2.1982,0.08973c0.76764,0.04985 1.3558,0.15452 1.76456,0.31403c0.13957,-0.06978 0.41373,-0.2592 0.82246,-0.56824c0.41871,-0.31901 0.83242,-0.66296 1.24118,-1.03182c0.41871,-0.37884 0.83242,-0.77262 1.24117,-1.18135c0.40873,-0.40873 0.83242,-0.82246 1.27107,-1.24117c0.2592,-0.24922 0.61809,-0.42867 1.07667,-0.53834c0.46856,-0.10966 0.90221,-0.18941 1.30098,-0.23926c0.40873,-0.04985 0.79753,-0.0947 1.16641,-0.13459c0.37884,-0.03987 0.648,-0.05981 0.8075,-0.05981c0.62806,0 1.44553,0.17945 2.45243,0.53835c0.2592,1.0368 0.3888,1.83932 0.3888,2.40756zM418.84888,175.54596c0,-0.15951 -0.04487,-0.36389 -0.13459,-0.61311c-0.08972,-0.2592 -0.16948,-0.57324 -0.23926,-0.94209c-0.12959,-0.66794 -0.1944,-1.26609 -0.1944,-1.79445c0,-0.53834 0.34394,-1.12652 1.03181,-1.76456l0.04487,-0.01495c0.84738,0.37884 1.12651,0.77759 0.83742,1.1963c-0.2891,0.40873 -0.73772,0.61311 -1.34585,0.61311c-0.46856,0 -0.90721,-0.10966 -1.31594,-0.32899c-0.39877,-0.21931 -0.66793,-0.40874 -0.8075,-0.56824c-0.61809,-0.27914 -1.23617,-0.56824 -1.85428,-0.86731c-0.61809,-0.30905 -1.22123,-0.57324 -1.80941,-0.79255c-0.57821,-0.21931 -1.18635,-0.3888 -1.82437,-0.50843c-0.62806,-0.11963 -1.37076,-0.17944 -2.22812,-0.17944c-0.01994,0 -0.05483,-0.1595 -0.10468,-0.47851c-0.04985,-0.31901 -0.08972,-0.54333 -0.11963,-0.67292l1.76456,1.1963l-1.77949,0.44862c-0.56824,0.10966 -1.0019,0.20437 -1.30098,0.28412c-0.2891,0.06978 -0.53335,0.16449 -0.73274,0.28412c-0.19938,0.10966 -0.42369,0.27417 -0.67296,0.49348c-0.24923,0.20936 -0.58819,0.49347 -1.01686,0.85237c-0.31901,0.28909 -0.64302,0.49846 -0.97199,0.62807c-0.32899,0.12959 -0.6131,0.22929 -0.85238,0.29907c-0.23927,0.06978 -0.40375,0.12461 -0.49347,0.16448c-0.08972,0.02991 -0.07977,-0.02491 0.02991,-0.16448c-0.11963,0.45858 -0.30905,0.9072 -0.56823,1.34585c-0.24923,0.43865 -0.37384,0.80751 -0.37384,1.10658c-0.16948,0 -0.18444,0.00998 -0.04487,0.02991c0.14955,0.00998 0.37384,0.07977 0.67292,0.20936c0.30906,0.11963 0.68289,0.23427 1.12154,0.34395c0.43864,0.10966 0.87231,0.1944 1.30098,0.2542c0.43864,0.0598 0.84738,0.10468 1.22622,0.13459c0.37885,0.02991 0.66796,0.04487 0.86735,0.04487c0.69785,0 1.43059,-0.07476 2.19821,-0.22431c0.76764,-0.15951 1.5901,-0.23927 2.46738,-0.23927c0.84738,0 1.67482,0.0349 2.48232,0.10468c0.81749,0.06978 1.61003,0.10468 2.37767,0.10468c0.18942,0 0.46356,-0.00998 0.82246,-0.02991c0.36886,-0.01993 0.70283,-0.05981 1.0019,-0.11963c0.29907,-0.06978 0.5533,-0.0598 0.76266,0.02992c0.21931,0.08972 0.14455,0.13459 -0.22431,0.13459zM464.95848,171.95705c0,0.648 -0.11963,1.18135 -0.35891,1.60006c-0.23927,0.41871 -0.46356,0.76763 -0.67292,1.04677c-0.20935,0.26916 -0.38381,0.49846 -0.52338,0.68788c-0.12959,0.18942 -0.31403,0.92216 -0.5533,2.1982c-1.06671,-0.47851 -1.65488,-0.72276 -1.76456,-0.73274c-0.0997,-0.00998 -0.23427,-0.01495 -0.40375,-0.01495c-0.43864,0 -0.90221,0.03489 -1.3907,0.10467c-0.48849,0.06978 -1.0019,0.10468 -1.54025,0.10468c-0.90721,0 -1.63992,-0.26418 -2.1982,-0.79255c-0.55828,-0.52836 -0.97199,-1.10658 -1.24117,-1.73465c-0.26916,-0.63802 -0.4536,-1.28104 -0.5533,-1.92904c-0.0997,-0.65795 -0.14955,-1.25113 -0.14955,-1.77949c0,-0.7078 0.41871,-1.24118 1.25613,-1.60006c-0.06978,0.57822 -0.10468,0.92714 -0.10468,1.04678c0,-0.35888 -0.00998,-0.36388 -0.02991,-0.01495c-0.01994,0.33895 -0.35891,0.50843 -1.01686,0.50843c-0.53835,0 -0.84737,-0.15453 -0.92714,-0.46356c-0.06978,-0.30905 -0.10468,-0.2891 -0.10468,0.0598c-0.12959,0 -0.36886,0.07476 -0.71779,0.22431c-0.33895,0.13957 -0.68787,0.33895 -1.04677,0.59815c-0.35888,0.24922 -0.62807,0.47354 -0.80751,0.67292c-0.16948,0.19937 -0.2542,0.70283 -0.2542,1.51034c-1.06671,0.0997 -1.7446,0.22431 -2.03372,0.37384c-0.2891,0.13957 -0.58819,0.31403 -0.89722,0.52338c-0.07977,0.04985 -0.18444,0.18942 -0.31403,0.41871c-0.11963,0.22929 -0.2542,0.53334 -0.40375,0.91218c-0.13957,0.36886 -0.29907,0.79255 -0.47852,1.27107c-0.16948,0.46856 -0.40375,0.89225 -0.70283,1.27107c-0.30906,0.40873 -0.55828,0.78259 -0.7477,1.12154c-0.18942,0.33895 -0.28412,0.68289 -0.28412,1.03182c0,0.59815 0.11466,1.27106 0.34395,2.01876c0.22929,0.7477 0.34394,1.57017 0.34394,2.46739c0,0.55828 -0.03489,1.08664 -0.10468,1.58509c-0.06978,0.49845 -0.10468,0.95705 -0.10468,1.37574c0,0.33895 0.03987,0.58319 0.11963,0.73275c0.08972,0.14955 0.21931,0.27415 0.3888,0.37383c0.17944,0.0997 0.44363,0.17447 0.79255,0.22432c0.34892,0.03987 0.73274,0.0598 1.15145,0.0598c0.48849,0 0.97699,-0.01496 1.46548,-0.04487c0.48849,-0.02991 1.15145,-0.04487 1.98885,-0.04487c0.5882,0.66794 0.90221,1.17636 0.9421,1.52529c0.04985,0.33895 0.04985,0.63802 0,0.89722c-0.04985,0.2592 -0.09471,0.44862 -0.1346,0.56824c-0.03987,0.10966 -0.0598,0.1944 -0.0598,0.25423c-0.32899,0 -0.68289,0.01495 -1.06173,0.04487c-0.05981,-0.69785 -0.0997,-1.04177 -0.11963,-1.03181c-0.00998,0.00998 0.11466,-0.3888 0.37384,-1.1963c1.12651,0.30905 1.86423,0.59815 2.21316,0.86731c0.34892,0.26916 0.52338,0.69785 0.52338,1.28602c0,0.34893 -0.06978,0.648 -0.20935,0.89722c-0.12959,0.24922 -0.23926,0.42368 -0.32898,0.52338c-0.07977,0.0997 -0.17944,0.12462 -0.29907,0.07477c-0.11963,-0.0598 -0.04487,-0.08972 0.22431,-0.08972c-0.10966,0 -0.26418,0.03489 -0.46356,0.10468c-0.18942,0.0598 0.08474,0.17446 0.82246,0.34395c-0.5483,0.93709 -1.03182,1.47047 -1.45053,1.60006c-0.40873,0.12959 -0.77759,0.1944 -1.10658,0.1944c-0.51841,0 -0.95205,-0.07476 -1.30097,-0.22432c-0.33895,-0.15951 -0.61311,-0.31403 -0.82247,-0.46356c-0.20935,-0.15951 -0.31403,-0.30405 -0.31403,-0.43366c0.00998,-0.13957 0.01495,-0.0947 0.01495,0.13459c0,-0.18942 -0.03987,-0.22431 -0.11963,-0.10468c-0.07977,0.10966 -0.16449,0.18444 -0.25423,0.22431c-0.07977,0.02991 -0.24424,-0.07977 -0.49347,-0.32899c-0.23927,-0.2592 -0.00998,-0.38879 0.68787,-0.38879c-0.46856,0 -0.52836,0.01994 -0.17944,0.05981c0.34892,0.02991 0.52339,0.29907 0.52339,0.8075c0,0.58819 -0.17944,1.01686 -0.53835,1.28602c-0.35888,0.26916 -0.67291,0.42866 -0.94209,0.47851c-0.2592,0.0598 -0.48849,0.0997 -0.68787,0.11963c-0.19938,0.01993 -0.37384,0.02991 -0.52339,0.02991c-0.90721,0 -1.75956,-0.08972 -2.55711,-0.26916c-0.79753,-0.17944 -1.5552,-0.26916 -2.27298,-0.26916c-0.17944,0 -0.45858,0.07976 -0.83742,0.23927c-0.36886,0.16949 -0.85735,0.25423 -1.46548,0.25423c-0.52836,0 -0.9421,-0.11466 -1.24118,-0.34395c-0.2891,-0.22929 -0.47852,-0.41373 -0.56824,-0.5533c-0.08972,-0.13957 -0.06978,-0.2592 0.05981,-0.35888c0.12959,-0.10966 0.1944,0 0.1944,0.32899c-0.29907,0 -0.61809,0.03489 -0.95706,0.10468c-0.32899,0.07976 -0.69285,0.16448 -1.09162,0.2542c-0.3888,0.08972 -0.80253,0.17446 -1.24118,0.2542c-0.42867,0.08972 -0.87728,0.13459 -1.34584,0.13459c-0.2891,0 -0.62309,-0.03489 -1.00191,-0.10468c-0.37884,-0.0598 -0.76763,-0.18444 -1.16641,-0.37384c-0.39877,-0.17944 -0.78259,-0.4536 -1.15145,-0.82246c-0.36886,-0.37884 -0.5533,-0.88227 -0.5533,-1.51034c0,-0.44863 0.14455,-0.87729 0.43366,-1.28602c0.29907,-0.41871 0.59815,-0.77759 0.89723,-1.07667c0.29907,-0.30905 0.64302,-0.60813 1.03181,-0.89723c0.39877,-0.29907 0.80751,-0.44862 1.22622,-0.44862c0.35888,0 0.69785,0.00998 1.01686,0.02992c0.32899,0.01993 0.65298,0.02991 0.97199,0.02991c0.42867,0 0.86233,-0.06978 1.30098,-0.20935c0.44863,-0.13957 0.83742,-0.32399 1.16641,-0.5533c0.33895,-0.23927 0.59815,-0.51341 0.77759,-0.82246c0.17944,-0.31901 0.26917,-0.67291 0.26917,-1.06173c0,-0.19937 -0.01994,-0.42867 -0.05981,-0.68787c-0.03987,-0.2592 -0.05981,-0.55828 -0.05981,-0.89723c0,-0.63802 0.05981,-1.22621 0.17944,-1.76456c0.12959,-0.53834 0.1944,-1.03181 0.1944,-1.48042c0,-0.63802 -0.07976,-1.33587 -0.23927,-2.09353c-0.14955,-0.75765 -0.22431,-1.56516 -0.22431,-2.42251c0,-0.69785 0.01495,-1.38572 0.04487,-2.06364c0.02991,-0.67792 0.04487,-1.35082 0.04487,-2.01876c0,-0.29907 -0.00998,-0.72774 -0.02991,-1.28602c-0.01994,-0.55828 -0.07976,-1.08664 -0.17944,-1.58509c-0.08972,-0.50843 -0.14952,-0.89225 -0.17944,-1.15145c-0.02991,-0.2592 -0.04487,-0.2941 -0.04487,-0.10468c-0.35888,0 -0.76763,0.05483 -1.22621,0.16449c-0.44863,0.0997 -0.96204,0.14955 -1.54025,0.14955c-0.40873,0 -0.88727,-0.02992 -1.43557,-0.08972c-0.5483,-0.06978 -1.11156,-0.20438 -1.68977,-0.40376c-0.56824,-0.19937 -1.11156,-0.53834 -1.62997,-1.01686c-0.50843,-0.48849 -0.76263,-1.1614 -0.76263,-2.01876c0,-0.7078 0.11463,-1.32092 0.34394,-1.83933c0.23927,-0.51841 0.56326,-0.92216 0.97199,-1.21126c0.41871,-0.28909 0.85237,-0.47851 1.30097,-0.56824c0.44863,-0.08972 0.9072,-0.13459 1.37574,-0.13459c0.35888,0 0.71281,0.01496 1.06173,0.04487c0.35888,0.01993 0.68787,0.02992 0.98694,0.02992c0.61809,0 1.25113,-0.03489 1.89913,-0.10468c0.65798,-0.07976 1.34585,-0.11963 2.06363,-0.11963c0.49845,0 1.00688,0.02491 1.52529,0.07476c0.52836,0.03987 1.05673,0.14955 1.58509,0.32899c0.72774,0.21931 1.2312,0.59317 1.51034,1.12154c0.27914,0.51841 0.48849,0.93709 0.62806,1.25613c0.14955,0.31901 0.24424,0.51341 0.28412,0.58319c0.04985,0.0598 0.08474,0.08972 0.10468,0.08972c0,0.17944 0.00497,0.21434 0.01495,0.10468c0.01994,-0.11963 0.10468,-0.24923 0.25423,-0.3888c0.15951,-0.13957 0.37384,-0.30405 0.64302,-0.49347c0.26916,-0.19937 0.62806,-0.33895 1.07667,-0.41871c0.27914,-0.03987 0.56824,-0.14955 0.86731,-0.32899c0.30906,-0.17944 0.65798,-0.3888 1.04678,-0.62807c0.39877,-0.23927 0.84738,-0.47851 1.34585,-0.71778c0.49845,-0.23927 1.07168,-0.35888 1.71968,-0.35888c0.19938,0 0.47353,-0.02492 0.82246,-0.07477c0.34892,-0.0598 0.69785,-0.13956 1.04678,-0.23926c0.34892,-0.0997 0.65298,-0.20936 0.91219,-0.32899c0.2592,-0.11963 0.57821,-0.36886 0.95705,-0.7477c1.05673,0.07976 2.00878,0.24922 2.85618,0.50843c0.84738,0.24922 1.66486,0.59317 2.45243,1.03182c0.78757,0.43865 1.52031,0.99194 2.19821,1.65988c0.67792,0.66794 1.07169,1.47046 1.18134,2.40755c0.03987,0.24922 0.12959,0.51841 0.26916,0.80751c0.13957,0.28909 0.29907,0.61311 0.47851,0.97199c0.17944,0.35888 0.35891,0.76763 0.53835,1.22621c0.18942,0.45858 0.28412,0.96701 0.28412,1.52529z" data-paper-data="{&quot;origPos&quot;:null}" fill="#847966" stroke="#847966" stroke-width="2" stroke-linecap="square"/></g></g></svg>