<svg version="1.1" xmlns="http://www.w3.org/2000/svg" xmlns:xlink="http://www.w3.org/1999/xlink" width="41.40018" height="42.4"><g transform="translate(-213.6022,-160.36001)"><g data-paper-data="{&quot;isPaintingLayer&quot;:true}" fill="none" fill-rule="nonzero" stroke="none" stroke-width="none" stroke-linecap="butt" stroke-linejoin="none" stroke-miterlimit="10" stroke-dasharray="" stroke-dashoffset="0" font-family="none" font-weight="none" font-size="none" text-anchor="none" style="mix-blend-mode: normal"><path d="M225.6022,190.76001v-18.4h17.40018v18.4z" data-paper-data="{&quot;zoomLevel&quot;:2.5,&quot;origPos&quot;:null}" fill="none" stroke="#492a2a" stroke-width="24" stroke-linejoin="round"/><path d="M221.32757,181.46071c0,-7.08924 5.74696,-12.8362 12.8362,-12.8362c7.08924,0 12.8362,5.74696 12.8362,12.8362c0,7.08924 -5.74696,12.8362 -12.8362,12.8362c-7.08924,0 -12.8362,-5.74696 -12.8362,-12.8362z" data-paper-data="{&quot;origPos&quot;:null}" fill="#ff7e7e" stroke="none" stroke-width="0.5" stroke-linejoin="miter"/><path d="M246.99996,181.46071c0,7.08924 -5.74696,12.8362 -12.8362,12.8362c-7.08924,0 12.8362,-19.92544 12.8362,-12.8362z" data-paper-data="{&quot;origPos&quot;:null}" fill="#ff8888" stroke="none" stroke-width="0.5" stroke-linejoin="miter"/><path d="M221.91882,182.05195c0,-7.08924 5.74696,-12.8362 12.8362,-12.8362c7.08924,0 12.8362,5.74696 12.8362,12.8362c0,7.08924 -5.74696,12.8362 -12.8362,12.8362c-7.08924,0 -12.8362,-5.74696 -12.8362,-12.8362z" data-paper-data="{&quot;origPos&quot;:null}" fill="none" stroke="#d16a6a" stroke-width="2.5" stroke-linejoin="miter"/><path d="M221.32757,181.46071c0,-7.08924 5.74696,-12.8362 12.8362,-12.8362c7.08924,0 12.8362,5.74696 12.8362,12.8362c0,7.08924 -5.74696,12.8362 -12.8362,12.8362c-7.08924,0 -12.8362,-5.74696 -12.8362,-12.8362z" data-paper-data="{&quot;origPos&quot;:null}" fill="none" stroke="#d17878" stroke-width="2.5" stroke-linejoin="miter"/><path d="M238.8829,188.77383c-1.15841,0.69959 -4.56188,-2.91651 -4.56188,-2.91651c0,0 -3.96589,2.99193 -4.98986,2.10605c-1.02486,-0.88584 1.36377,-5.24151 1.36377,-5.24151c0,0 -4.07037,-2.84744 -3.54432,-4.09488c0.52604,-1.24839 5.40596,-0.32255 5.40596,-0.32255c0,0 1.44917,-4.75088 2.79838,-4.6373c1.35104,0.11447 1.97885,5.04253 1.97885,5.04253c0,0 4.96623,-0.08995 5.27333,1.22927c0.30981,1.31834 -4.18303,3.43892 -4.18303,3.43892c0,0 1.61997,4.69638 0.45881,5.39598z" data-paper-data="{&quot;origPos&quot;:null}" id="Star" fill="#e47070" stroke="#ee7575" stroke-width="2.5" stroke-linejoin="miter"/></g></g></svg>