<svg version="1.1" xmlns="http://www.w3.org/2000/svg" xmlns:xlink="http://www.w3.org/1999/xlink" width="186.79513" height="88.12733"><g transform="translate(-155.70735,-146.08058)"><g data-paper-data="{&quot;isPaintingLayer&quot;:true}" fill="none" fill-rule="nonzero" stroke="none" stroke-width="none" stroke-linecap="none" stroke-linejoin="miter" stroke-miterlimit="10" stroke-dasharray="" stroke-dashoffset="0" font-family="none" font-weight="none" font-size="none" text-anchor="none" style="mix-blend-mode: normal"><path d="M178.71296,223.72332c0,0 -1.36451,-7.36133 -1.09932,-11.42078c0.43584,-6.67198 1.54443,-9.39751 1.54443,-16.07778c0,-4.73628 -2.20966,-10.6396 -3.98931,-15.29507c-2.3762,-6.21598 -0.01664,-14.94899 -0.01664,-14.94899h148.82636c0,0 0,9.77584 0,15.75393c0,16.30159 0,41.33499 0,41.33499z" data-paper-data="{&quot;origPos&quot;:null}" fill="#a1937c" stroke="#000000" stroke-width="0" stroke-linecap="butt"/><path d="M173.17869,170.41782v-11.54852h151.45764v11.54852z" data-paper-data="{&quot;origPos&quot;:null}" fill="#706756" stroke="#000000" stroke-width="0" stroke-linecap="butt"/><path d="M172.67454,168.01868v-10.89071c0,0 26.86835,0 44.06546,0c43.48991,0 111.43749,0 111.43749,0v10.89071z" data-paper-data="{&quot;origPos&quot;:null}" fill="#8b7f6b" stroke="#000000" stroke-width="0" stroke-linecap="butt"/><path d="M160.94133,227.42928l-0.94476,-78.71742l24.51041,1.48242l0.76019,76.92454z" data-paper-data="{&quot;origPos&quot;:null,&quot;origRot&quot;:0}" fill="#d3bb76" stroke="none" stroke-width="0" stroke-linecap="butt"/><path d="M159.86398,184.20488l-0.3691,-26.38931l24.17969,-0.3382l0.36909,26.38931z" data-paper-data="{&quot;origPos&quot;:null,&quot;origRot&quot;:0}" fill="#b9a568" stroke="none" stroke-width="0" stroke-linecap="butt"/><path d="M156.04975,181.67126l-0.3424,-24.48096l31.54695,-0.44124l0.34241,24.48095z" data-paper-data="{&quot;origPos&quot;:null,&quot;origRot&quot;:0}" fill="#e7cd81" stroke="none" stroke-width="0" stroke-linecap="butt"/><path d="M159.96066,177.60796l-0.23779,-17.00134l3.40027,-0.04756l0.23779,17.00135z" data-paper-data="{&quot;origPos&quot;:null,&quot;origRot&quot;:0}" fill="#d3bb76" stroke="none" stroke-width="0" stroke-linecap="butt"/><path d="M179.79294,177.14163l-0.23779,-17.00136l3.40027,-0.04756l0.23779,17.00135z" data-paper-data="{&quot;origPos&quot;:null,&quot;origRot&quot;:0}" fill="#d3bb76" stroke="none" stroke-width="0" stroke-linecap="butt"/><path d="M166.00295,177.33448l-0.23779,-17.00135l3.40027,-0.04756l0.23779,17.00136z" data-paper-data="{&quot;origPos&quot;:null,&quot;origRot&quot;:0}" fill="#d3bb76" stroke="none" stroke-width="0" stroke-linecap="butt"/><path d="M173.93691,177.22351l-0.23779,-17.00135l3.40027,-0.04756l0.23779,17.00135z" data-paper-data="{&quot;origPos&quot;:null,&quot;origRot&quot;:0}" fill="#d3bb76" stroke="none" stroke-width="0" stroke-linecap="butt"/><path d="M166.91404,177.18322l-0.05283,-3.77807l8.50068,-0.1189l0.05284,3.77808z" data-paper-data="{&quot;origPos&quot;:null,&quot;origRot&quot;:0}" fill="#d3bb76" stroke="none" stroke-width="0" stroke-linecap="butt"/><path d="M167.29845,154.69702l-0.05284,-3.77808l8.50068,-0.1189l0.05283,3.77808z" data-paper-data="{&quot;origPos&quot;:null,&quot;origRot&quot;:0}" fill="#d3bb76" stroke="none" stroke-width="0" stroke-linecap="butt"/><path d="M160.18361,234.20791l-0.59316,-42.40893l24.55751,-0.34348l0.59316,42.40893z" data-paper-data="{&quot;origPos&quot;:null,&quot;origRot&quot;:0}" fill="#b9a568" stroke="none" stroke-width="0" stroke-linecap="butt"/><path d="M156.36817,231.58776l-0.59647,-42.64506l31.54695,-0.44125l0.59646,42.64506z" data-paper-data="{&quot;origPos&quot;:null,&quot;origRot&quot;:0}" fill="#e7cd81" stroke="none" stroke-width="0" stroke-linecap="butt"/><path d="M161.09393,224.99376l-0.43595,-31.16913l3.40026,-0.04755l0.43596,31.16914z" data-paper-data="{&quot;origPos&quot;:null,&quot;origRot&quot;:0}" fill="#b9a568" stroke="none" stroke-width="0" stroke-linecap="butt"/><path d="M161.08125,224.08704l-0.43595,-31.16914l3.40026,-0.04756l0.43595,31.16914z" data-paper-data="{&quot;origPos&quot;:null,&quot;origRot&quot;:0}" fill="#d3bb76" stroke="none" stroke-width="0" stroke-linecap="butt"/><path d="M160.80508,196.23723l-0.04598,-3.28692l16.43464,-0.22987l0.04597,3.28693z" data-paper-data="{&quot;origPos&quot;:null,&quot;origRot&quot;:0}" fill="#d3bb76" stroke="none" stroke-width="0" stroke-linecap="butt"/><path d="M174.15602,218.68939l-0.35986,-25.72872l3.40027,-0.04756l0.35986,25.72872z" data-paper-data="{&quot;origPos&quot;:null,&quot;origRot&quot;:0}" fill="#d3bb76" stroke="none" stroke-width="0" stroke-linecap="butt"/><path d="M167.58375,218.89469l-0.25048,-17.90809l3.40027,-0.04756l0.25048,17.9081z" data-paper-data="{&quot;origPos&quot;:null,&quot;origRot&quot;:0}" fill="#d3bb76" stroke="none" stroke-width="0" stroke-linecap="butt"/><path d="M167.69755,218.9271l-0.05073,-3.62696l9.74745,-0.13633l0.05073,3.62696z" data-paper-data="{&quot;origPos&quot;:null,&quot;origRot&quot;:0}" fill="#d3bb76" stroke="none" stroke-width="0" stroke-linecap="butt"/><path d="M161.10231,225.5945l-0.04597,-3.28693l22.32844,-0.3123l0.04598,3.28693z" data-paper-data="{&quot;origPos&quot;:null,&quot;origRot&quot;:0}" fill="#d3bb76" stroke="none" stroke-width="0" stroke-linecap="butt"/><path d="M180.59672,225.2878l-0.45499,-32.52925l3.40026,-0.04756l0.45498,32.52925z" data-paper-data="{&quot;origPos&quot;:null,&quot;origRot&quot;:0}" fill="#d3bb76" stroke="none" stroke-width="0" stroke-linecap="butt"/><path d="M315.52868,222.90923l-0.94476,-76.82865l24.5104,1.44685l0.76019,75.07879z" data-paper-data="{&quot;origPos&quot;:null,&quot;origRot&quot;:0}" fill="#d3bb76" stroke="none" stroke-width="0" stroke-linecap="butt"/><path d="M314.45133,181.57361l-0.3691,-26.38931l24.17969,-0.3382l0.36909,26.38931z" data-paper-data="{&quot;origPos&quot;:null,&quot;origRot&quot;:0}" fill="#b9a568" stroke="none" stroke-width="0" stroke-linecap="butt"/><path d="M310.63709,179.03999l-0.3424,-24.48096l31.54695,-0.44124l0.34241,24.48095z" data-paper-data="{&quot;origPos&quot;:null,&quot;origRot&quot;:0}" fill="#e7cd81" stroke="none" stroke-width="0" stroke-linecap="butt"/><path d="M314.548,174.97669l-0.23779,-17.00134l3.40027,-0.04756l0.2378,17.00135z" data-paper-data="{&quot;origPos&quot;:null,&quot;origRot&quot;:0}" fill="#d3bb76" stroke="none" stroke-width="0" stroke-linecap="butt"/><path d="M334.38028,174.51036l-0.23779,-17.00136l3.40027,-0.04756l0.23779,17.00135z" data-paper-data="{&quot;origPos&quot;:null,&quot;origRot&quot;:0}" fill="#d3bb76" stroke="none" stroke-width="0" stroke-linecap="butt"/><path d="M320.5903,174.70321l-0.23779,-17.00135l3.40027,-0.04756l0.23779,17.00136z" data-paper-data="{&quot;origPos&quot;:null,&quot;origRot&quot;:0}" fill="#d3bb76" stroke="none" stroke-width="0" stroke-linecap="butt"/><path d="M328.52426,174.59223l-0.23779,-17.00135l3.40027,-0.04756l0.23779,17.00135z" data-paper-data="{&quot;origPos&quot;:null,&quot;origRot&quot;:0}" fill="#d3bb76" stroke="none" stroke-width="0" stroke-linecap="butt"/><path d="M321.5014,174.55194l-0.05283,-3.77807l8.50068,-0.1189l0.05284,3.77808z" data-paper-data="{&quot;origPos&quot;:null,&quot;origRot&quot;:0}" fill="#d3bb76" stroke="none" stroke-width="0" stroke-linecap="butt"/><path d="M321.8858,152.06575l-0.05284,-3.77808l8.50068,-0.1189l0.05283,3.77809z" data-paper-data="{&quot;origPos&quot;:null,&quot;origRot&quot;:0}" fill="#d3bb76" stroke="none" stroke-width="0" stroke-linecap="butt"/><path d="M314.77096,231.57664l-0.59316,-42.40893l24.5575,-0.34348l0.59316,42.40893z" data-paper-data="{&quot;origPos&quot;:null,&quot;origRot&quot;:0}" fill="#b9a568" stroke="none" stroke-width="0" stroke-linecap="butt"/><path d="M310.95552,228.95649l-0.59646,-42.64506l31.54695,-0.44125l0.59647,42.64506z" data-paper-data="{&quot;origPos&quot;:null,&quot;origRot&quot;:0}" fill="#e7cd81" stroke="none" stroke-width="0" stroke-linecap="butt"/><path d="M315.68128,222.36248l-0.43596,-31.16913l3.40027,-0.04755l0.43596,31.16914z" data-paper-data="{&quot;origPos&quot;:null,&quot;origRot&quot;:0}" fill="#b9a568" stroke="none" stroke-width="0" stroke-linecap="butt"/><path d="M315.6686,221.45577l-0.43596,-31.16914l3.40027,-0.04756l0.43595,31.16914z" data-paper-data="{&quot;origPos&quot;:null,&quot;origRot&quot;:0}" fill="#d3bb76" stroke="none" stroke-width="0" stroke-linecap="butt"/><path d="M315.39243,193.60595l-0.04598,-3.28692l16.43463,-0.22986l0.04598,3.28692z" data-paper-data="{&quot;origPos&quot;:null,&quot;origRot&quot;:0}" fill="#d3bb76" stroke="none" stroke-width="0" stroke-linecap="butt"/><path d="M328.74338,216.05812l-0.35986,-25.72872l3.40027,-0.04756l0.35986,25.72872z" data-paper-data="{&quot;origPos&quot;:null,&quot;origRot&quot;:0}" fill="#d3bb76" stroke="none" stroke-width="0" stroke-linecap="butt"/><path d="M322.17109,216.26341l-0.25047,-17.90809l3.40027,-0.04756l0.25048,17.9081z" data-paper-data="{&quot;origPos&quot;:null,&quot;origRot&quot;:0}" fill="#d3bb76" stroke="none" stroke-width="0" stroke-linecap="butt"/><path d="M322.2849,216.29583l-0.05073,-3.62697l9.74745,-0.13633l0.05073,3.62696z" data-paper-data="{&quot;origPos&quot;:null,&quot;origRot&quot;:0}" fill="#d3bb76" stroke="none" stroke-width="0" stroke-linecap="butt"/><path d="M315.68966,222.96322l-0.04598,-3.28693l22.32844,-0.3123l0.04597,3.28693z" data-paper-data="{&quot;origPos&quot;:null,&quot;origRot&quot;:0}" fill="#d3bb76" stroke="none" stroke-width="0" stroke-linecap="butt"/><path d="M335.18407,222.65653l-0.45499,-32.52925l3.40027,-0.04756l0.45497,32.52925z" data-paper-data="{&quot;origPos&quot;:null,&quot;origRot&quot;:0}" fill="#d3bb76" stroke="none" stroke-width="0" stroke-linecap="butt"/><path d="M214.50781,207.50394c-1.49326,0 -2.91814,-0.23247 -4.27466,-0.6974c-1.35104,-0.4704 -2.52979,-1.12405 -3.53623,-1.96093c-1.00098,-0.84235 -1.73666,-1.81324 -2.20707,-2.91267c-0.22973,-0.48681 -0.22426,-0.94081 0.01641,-1.36198c0.24614,-0.42118 0.66185,-0.6892 1.24712,-0.80406c0.42118,-0.09299 0.83415,-0.02735 1.23891,0.19691c0.41024,0.21879 0.72202,0.54972 0.93534,0.99277c0.27896,0.58527 0.73842,1.12405 1.37839,1.61633c0.63997,0.48681 1.41395,0.88337 2.32194,1.18968c0.91346,0.30084 1.87341,0.45126 2.87986,0.45126c1.11584,0 2.1469,-0.17503 3.09318,-0.5251c0.94628,-0.35007 1.70932,-0.85603 2.28912,-1.51787c0.58527,-0.66732 0.8779,-1.49326 0.8779,-2.47782c0,-1.23618 -0.48408,-2.34381 -1.45224,-3.32291c-0.96816,-0.9791 -2.55987,-1.58625 -4.77515,-1.82145c-2.89353,-0.27896 -5.16897,-1.12952 -6.82633,-2.55167c-1.65735,-1.42215 -2.48603,-3.18343 -2.48603,-5.28384c0,-1.54249 0.43211,-2.84977 1.29635,-3.92186c0.86423,-1.07208 2.03751,-1.88709 3.51982,-2.44501c1.48232,-0.56339 3.13147,-0.84509 4.94744,-0.84509c1.42762,0 2.672,0.19965 3.73315,0.59894c1.06114,0.39383 1.98828,0.94081 2.7814,1.64094c0.79312,0.70014 1.47959,1.52881 2.05938,2.48603c0.32819,0.51416 0.4622,0.99824 0.40203,1.45224c-0.0547,0.454 -0.2817,0.80953 -0.68099,1.06661c-0.44305,0.27896 -0.92166,0.33639 -1.43583,0.1723c-0.50869,-0.16409 -0.89158,-0.46767 -1.14866,-0.91072c-0.37742,-0.67279 -0.83415,-1.24165 -1.37019,-1.70658c-0.53604,-0.4704 -1.16507,-0.83962 -1.88709,-1.10764c-0.72202,-0.26802 -1.57531,-0.40203 -2.55987,-0.40203c-1.72299,-0.02188 -3.16976,0.30084 -4.3403,0.96816c-1.16507,0.66185 -1.7476,1.67923 -1.7476,3.05216c0,0.70014 0.1805,1.37292 0.54151,2.01836c0.36101,0.63997 1.02559,1.19515 1.99375,1.66556c0.97363,0.46493 2.36843,0.79039 4.18441,0.97636c2.77866,0.27896 4.94198,1.12405 6.48993,2.53526c1.55343,1.41121 2.33014,3.27368 2.33014,5.58741c0,1.32916 -0.27349,2.48329 -0.82047,3.46239c-0.54698,0.9791 -1.28267,1.8023 -2.20707,2.46962c-0.91893,0.66185 -1.96913,1.15687 -3.15061,1.48505c-1.17601,0.32819 -2.39304,0.49228 -3.6511,0.49228zM236.52118,207.15113c-1.16507,0 -2.21527,-0.29811 -3.15061,-0.89431c-0.93534,-0.59621 -1.67103,-1.40574 -2.20707,-2.4286c-0.53604,-1.02833 -0.80406,-2.18519 -0.80406,-3.4706v-16.6884c0,-0.51416 0.16409,-0.93534 0.49228,-1.26353c0.32819,-0.32819 0.74663,-0.49228 1.25532,-0.49228c0.51416,0 0.93534,0.16409 1.26353,0.49228c0.32819,0.32819 0.49228,0.74937 0.49228,1.26353v16.6884c0,0.93534 0.25435,1.71752 0.76304,2.34655c0.51416,0.62903 1.14592,0.94354 1.89529,0.94354h1.18968c0.42118,0 0.77671,0.16409 1.06661,0.49228c0.2899,0.32819 0.43485,0.74937 0.43485,1.26353c0,0.51416 -0.19144,0.93534 -0.57433,1.26353c-0.38289,0.32272 -0.8779,0.48408 -1.48505,0.48408zM228.75131,191.71806c-0.49228,0 -0.89158,-0.13948 -1.19789,-0.41844c-0.30084,-0.28443 -0.45126,-0.6345 -0.45126,-1.0502c0,-0.4704 0.15042,-0.84509 0.45126,-1.12405c0.30631,-0.27896 0.70561,-0.41844 1.19789,-0.41844h8.08165c0.49228,0 0.88885,0.13948 1.18968,0.41844c0.30631,0.27896 0.45946,0.65364 0.45946,1.12405c0,0.4157 -0.15315,0.76577 -0.45946,1.0502c-0.30084,0.27896 -0.6974,0.41844 -1.18968,0.41844zM251.57412,207.29061c-1.70658,0 -3.23813,-0.42391 -4.59464,-1.27173c-1.35104,-0.85329 -2.41766,-2.01016 -3.19984,-3.4706c-0.78218,-1.46044 -1.17327,-3.11232 -1.17327,-4.95565c0,-1.84333 0.42665,-3.49795 1.27994,-4.96385c0.85329,-1.47138 2.00742,-2.63371 3.46239,-3.48701c1.46044,-0.85329 3.10138,-1.27994 4.92283,-1.27994c1.82145,0 3.45419,0.42665 4.89822,1.27994c1.4495,0.85329 2.59816,2.01562 3.44598,3.48701c0.85329,1.46591 1.27994,3.12053 1.27994,4.96385h-1.36198c0,1.84333 -0.39109,3.49521 -1.17327,4.95565c-0.78218,1.46044 -1.85153,2.61731 -3.20804,3.4706c-1.35104,0.84782 -2.87712,1.27173 -4.57823,1.27173zM252.27152,204.14c1.18695,0 2.24809,-0.28443 3.18343,-0.85329c0.93534,-0.57433 1.67103,-1.35651 2.20707,-2.34655c0.53604,-0.99551 0.80406,-2.11135 0.80406,-3.34752c0,-1.25806 -0.26802,-2.3821 -0.80406,-3.37214c-0.53604,-0.99551 -1.27173,-1.77769 -2.20707,-2.34655c-0.93534,-0.57433 -1.99648,-0.8615 -3.18343,-0.8615c-1.16507,0 -2.22074,0.28717 -3.16702,0.8615c-0.94628,0.56886 -1.69291,1.35104 -2.23989,2.34655c-0.54698,0.99004 -0.82047,2.11408 -0.82047,3.37214c0,1.23618 0.27349,2.35202 0.82047,3.34752c0.54698,0.99004 1.29361,1.77222 2.23989,2.34655c0.94628,0.56886 2.00195,0.85329 3.16702,0.85329zM260.10702,207.18395c-0.50869,0 -0.9326,-0.16683 -1.27173,-0.50049c-0.33913,-0.33913 -0.50869,-0.76577 -0.50869,-1.27994v-5.35768l0.66458,-3.70853l2.90447,1.25532v7.81089c0,0.51416 -0.16956,0.94081 -0.50869,1.27994c-0.33913,0.33366 -0.76577,0.50049 -1.27994,0.50049zM268.93165,195.18045c0,-1.40027 0.3446,-2.65286 1.03379,-3.75776c0.6892,-1.11037 1.61633,-1.99101 2.7814,-2.64192c1.16507,-0.65638 2.44774,-0.98457 3.84801,-0.98457c1.40027,0 2.44501,0.227 3.1342,0.68099c0.6892,0.454 0.95175,0.99551 0.78765,1.62453c-0.07111,0.32819 -0.20512,0.5798 -0.40203,0.75483c-0.19691,0.17503 -0.42391,0.28717 -0.68099,0.33639c-0.25708,0.04376 -0.53878,0.03008 -0.84509,-0.04102c-1.49326,-0.30084 -2.8361,-0.32272 -4.02852,-0.06564c-1.18695,0.25708 -2.12502,0.73569 -2.81422,1.43583c-0.68373,0.70014 -1.02559,1.58625 -1.02559,2.65833zM268.96446,207.15113c-0.55792,0 -0.99004,-0.14495 -1.29635,-0.43485c-0.30084,-0.29537 -0.45126,-0.73296 -0.45126,-1.31275v-15.6464c0,-0.56339 0.15042,-0.99551 0.45126,-1.29635c0.30631,-0.30631 0.73842,-0.45946 1.29635,-0.45946c0.58527,0 1.02285,0.14768 1.31275,0.44305c0.29537,0.2899 0.44305,0.72748 0.44305,1.31275v15.6464c0,0.55792 -0.14768,0.99004 -0.44305,1.29635c-0.2899,0.30084 -0.72748,0.45126 -1.31275,0.45126zM291.19334,207.15113c-1.16507,0 -2.21527,-0.29811 -3.15061,-0.89431c-0.93534,-0.59621 -1.67103,-1.40574 -2.20707,-2.4286c-0.53604,-1.02833 -0.80406,-2.18519 -0.80406,-3.4706v-16.6884c0,-0.51416 0.16409,-0.93534 0.49228,-1.26353c0.32819,-0.32819 0.74663,-0.49228 1.25532,-0.49228c0.51416,0 0.93534,0.16409 1.26353,0.49228c0.32819,0.32819 0.49228,0.74937 0.49228,1.26353v16.6884c0,0.93534 0.25435,1.71752 0.76304,2.34655c0.51416,0.62903 1.14592,0.94354 1.89529,0.94354h1.18968c0.42118,0 0.77671,0.16409 1.06661,0.49228c0.2899,0.32819 0.43485,0.74937 0.43485,1.26353c0,0.51416 -0.19144,0.93534 -0.57433,1.26353c-0.38289,0.32272 -0.8779,0.48408 -1.48505,0.48408zM283.42347,191.71806c-0.49228,0 -0.89158,-0.13948 -1.19789,-0.41844c-0.30084,-0.28443 -0.45126,-0.6345 -0.45126,-1.0502c0,-0.4704 0.15042,-0.84509 0.45126,-1.12405c0.30631,-0.27896 0.70561,-0.41844 1.19789,-0.41844h8.08165c0.49228,0 0.88885,0.13948 1.18968,0.41844c0.30631,0.27896 0.45946,0.65364 0.45946,1.12405c0,0.4157 -0.15315,0.76577 -0.45946,1.0502c-0.30084,0.27896 -0.6974,0.41844 -1.18968,0.41844z" data-paper-data="{&quot;origPos&quot;:null}" fill="#fafafa" stroke="#fafafa" stroke-width="1" stroke-linecap="square"/></g></g></svg>