<svg version="1.1" xmlns="http://www.w3.org/2000/svg" xmlns:xlink="http://www.w3.org/1999/xlink" width="145.79766" height="228.92153" viewBox="0,0,145.79766,228.92153"><g transform="translate(-167.10117,-96.12847)"><g data-paper-data="{&quot;isPaintingLayer&quot;:true}" stroke-linecap="butt" stroke-linejoin="miter" stroke-miterlimit="10" stroke-dasharray="" stroke-dashoffset="0" style="mix-blend-mode: normal"><path d="M199.1787,169.6867c0,-22.9108 18.5746,-41.4854 41.4842,-41.4854" fill="none" fill-rule="nonzero" stroke="#1dd4ff" stroke-width="7.09497"/><path d="M239.3371,128.2013c22.9096,0 41.4842,18.5746 41.4842,41.4854" fill="none" fill-rule="nonzero" stroke="#1dd4ff" stroke-width="7.09497"/><g fill="none" fill-rule="nonzero" stroke="#a430ff" stroke-width="7.09497"><path d="M212.4332,169.7328c0,-15.6609 12.6965,-28.3585 28.3574,-28.3585"/><path d="M239.2094,141.3743c15.6609,0 28.3574,12.6976 28.3574,28.3585"/></g><g fill="none" fill-rule="nonzero" stroke="#3131ff" stroke-width="7.09497"><path d="M205.5606,169.7328c0,-19.4579 15.7733,-35.2312 35.23,-35.2312"/><path d="M239.2094,134.5016c19.4567,0 35.23,15.7733 35.23,35.2312"/></g><g fill="none" fill-rule="nonzero" stroke="#00cc44" stroke-width="7.09497"><path d="M192.131,169.6832c0,-26.7977 21.726,-48.5249 48.5236,-48.5249"/><path d="M239.3454,121.1583c26.7976,0 48.5236,21.7272 48.5236,48.5249"/></g><g fill="none" fill-rule="nonzero" stroke="#ffed12" stroke-width="7.09497"><path d="M185.5279,169.6832c0,-30.4445 24.6834,-55.1279 55.1267,-55.1279"/><path d="M239.3454,114.5553c30.4433,0 55.1267,24.6834 55.1267,55.1279"/></g><g fill="none" fill-rule="nonzero" stroke="#ff9f2c" stroke-width="7.09497"><path d="M178.6304,169.6832c0,-34.2557 27.7697,-62.0254 62.0242,-62.0254"/><path d="M239.3454,107.6578c34.2545,0 62.0242,27.7697 62.0242,62.0254"/></g><g fill="none" fill-rule="nonzero" stroke="#ff2929" stroke-width="8.27746"><path d="M171.2399,169.6832c0,-38.3377 31.0783,-69.416 69.4147,-69.416"/><path d="M239.3454,100.2672c38.3364,0 69.4147,31.0783 69.4147,69.416"/></g><g stroke="none" stroke-width="1"><g><path d="M240.29249,264.053c2.92488,-6.54109 9.14689,-11.11454 16.37932,-11.11454c9.99776,0 18.08106,8.66827 18.08106,19.30419c0,21.00594 -21.27184,27.49385 -34.46038,48.81887c-13.98623,-21.43138 -34.46038,-27.12159 -34.46038,-48.81887c0,-10.63592 8.0833,-19.30419 18.08106,-19.30419c7.23242,0 13.45444,4.57345 16.37932,11.11454z" fill="#ffd499" fill-rule="evenodd"/><path d="M240.29249,325.05c-1.32949,0 -2.6058,-0.69133 -3.35031,-1.80811c-5.10524,-7.8174 -9.99776,-13.40126 -15.74116,-18.7724c-9.41279,-8.82781 -19.35737,-17.12383 -19.35737,-32.22683c0,-12.86946 9.8914,-23.29266 22.06953,-23.29266c6.32837,0 12.23131,2.8717 16.37932,7.71104c4.14801,-4.78616 10.05094,-7.71104 16.37932,-7.71104c12.17813,0 22.06953,10.47638 22.06953,23.29266c0,14.46485 -8.82781,22.81405 -18.18742,31.64186c-5.90294,5.58386 -11.96541,11.32725 -16.85793,19.25101c-0.74451,1.16995 -2.02082,1.86129 -3.40349,1.91447zM223.91317,256.92694c-7.76422,0 -14.09259,6.86017 -14.09259,15.31572c0,11.64633 6.59427,17.81516 15.79434,26.37708c4.6798,4.36073 9.83823,9.20007 14.62439,15.42208c4.73298,-6.38155 10.05094,-11.43361 14.83711,-15.95388c8.77463,-8.29602 15.68798,-14.83711 15.68798,-25.84528c0,-8.45556 -6.32837,-15.31572 -14.09259,-15.31572c-5.37114,0 -10.37002,3.45667 -12.70992,8.77463c-0.63816,1.43585 -2.074,2.39308 -3.66939,2.39308c-1.59539,0 -3.03124,-0.95723 -3.66939,-2.39308c-2.3399,-5.31796 -7.33878,-8.77463 -12.70992,-8.77463z" fill="#fff0b3" fill-rule="nonzero"/></g><path d="M274.06153,271.65769c0,13.66716 -8.3492,21.59092 -17.17701,29.94011c-5.53068,5.2116 -11.22089,10.63592 -15.84752,18.08106c-0.74451,1.11677 -1.96765,1.86129 -3.35031,1.86129h-0.05318c-1.32949,0 -2.6058,-0.69133 -3.35031,-1.80811c-4.73298,-7.33878 -10.31684,-12.55038 -15.74116,-17.60245c-8.88099,-8.29602 -17.28337,-16.1666 -17.28337,-30.47191c0,-12.23131 9.41279,-22.17589 21.00594,-22.17589c5.95611,0 11.48679,2.65898 15.42208,7.12607c3.93529,-4.46709 9.51915,-7.12607 15.42208,-7.12607c11.59315,0 21.00594,9.94458 20.95276,22.17589z" fill="#ffffcc" fill-rule="evenodd"/></g><g fill="#cc99ff" stroke="none" stroke-width="1"><path d="M249.46404,266.47043l-0.06216,3.67452l-3.84154,-0.06498l0.06216,-3.67452zM234.59895,266.21898l-0.06216,3.67452l-3.84154,-0.06498l0.06216,-3.67452z" fill-rule="nonzero"/><path d="M242.40402,273.95275l-0.14974,8.85224l-3.25696,-0.05509l0.14974,-8.85224z" fill-rule="evenodd"/><path d="M223.08065,285.40441c3.64344,1.89941 6.29462,3.19729 7.95638,3.72662c2.49122,0.8775 5.49059,1.34591 8.91457,1.40383c3.42398,0.05792 6.52239,-0.39089 9.37733,-1.26149c1.76363,-0.55492 4.28876,-1.6817 7.57539,-3.38036l-0.03673,2.17131c-2.95399,1.78782 -4.7261,2.8438 -5.40125,3.25006c-0.67516,0.40626 -1.60085,0.80828 -2.86059,1.20465c-1.5131,0.55915 -2.93986,0.9527 -4.3638,1.17922c-1.42394,0.22652 -2.84505,0.28602 -4.18124,0.26341c-3.50749,-0.05933 -6.58754,-0.69618 -9.32506,-1.82845c-1.74245,-0.69776 -4.30588,-2.24476 -7.69313,-4.47399z" fill-rule="evenodd"/></g></g></g></svg>