<svg version="1.1" xmlns="http://www.w3.org/2000/svg" xmlns:xlink="http://www.w3.org/1999/xlink" width="145.7" height="143.1" viewBox="0,0,145.7,143.1"><g transform="translate(-167.2,-108.5)"><g data-paper-data="{&quot;isPaintingLayer&quot;:true}" stroke="none" stroke-width="1" stroke-linecap="butt" stroke-linejoin="miter" stroke-miterlimit="10" stroke-dasharray="" stroke-dashoffset="0" style="mix-blend-mode: normal"><g><g><path d="M240.6,136.9c5.5,-12.3 17.2,-20.9 30.8,-20.9c18.8,0 34,16.3 34,36.3c0,39.5 -40,51.7 -64.8,91.8c-26.3,-40.3 -64.8,-51 -64.8,-91.8c0,-20 15.2,-36.3 34,-36.3c13.6,0 25.3,8.6 30.8,20.9z" fill="#ffd499" fill-rule="evenodd"/><path d="M240.6,251.6c-2.5,0 -4.9,-1.3 -6.3,-3.4c-9.6,-14.7 -18.8,-25.2 -29.6,-35.3c-17.7,-16.6 -36.4,-32.2 -36.4,-60.6c0,-24.2 18.6,-43.8 41.5,-43.8c11.9,0 23,5.4 30.8,14.5c7.8,-9 18.9,-14.5 30.8,-14.5c22.9,0 41.5,19.7 41.5,43.8c0,27.2 -16.6,42.9 -34.2,59.5c-11.1,10.5 -22.5,21.3 -31.7,36.2c-1.4,2.2 -3.8,3.5 -6.4,3.6zM209.8,123.5c-14.6,0 -26.5,12.9 -26.5,28.8c0,21.9 12.4,33.5 29.7,49.6c8.8,8.2 18.5,17.3 27.5,29c8.9,-12 18.9,-21.5 27.9,-30c16.5,-15.6 29.5,-27.9 29.5,-48.6c0,-15.9 -11.9,-28.8 -26.5,-28.8c-10.1,0 -19.5,6.5 -23.9,16.5c-1.2,2.7 -3.9,4.5 -6.9,4.5c-3,0 -5.7,-1.8 -6.9,-4.5c-4.4,-10 -13.8,-16.5 -23.9,-16.5z" fill="#fff0b3" fill-rule="nonzero"/></g><path d="M304.1,151.2c0,25.7 -15.7,40.6 -32.3,56.3c-10.4,9.8 -21.1,20 -29.8,34c-1.4,2.1 -3.7,3.5 -6.3,3.5h-0.1c-2.5,0 -4.9,-1.3 -6.3,-3.4c-8.9,-13.8 -19.4,-23.6 -29.6,-33.1c-16.7,-15.6 -32.5,-30.4 -32.5,-57.3c0,-23 17.7,-41.7 39.5,-41.7c11.2,0 21.6,5 29,13.4c7.4,-8.4 17.9,-13.4 29,-13.4c21.8,0 39.5,18.7 39.4,41.7z" fill="#ffffcc" fill-rule="evenodd"/></g><g fill="#cc99ff"><path d="M257.84638,141.44578l-0.11688,6.90964l-7.22371,-0.12219l0.11688,-6.90964zM229.89376,140.97294l-0.11688,6.90964l-7.22371,-0.12219l0.11688,-6.90964z" fill-rule="nonzero"/><path d="M244.57056,155.51568l-0.28157,16.64594l-6.12445,-0.1036l0.28157,-16.64594z" fill-rule="evenodd"/><path d="M208.23451,177.04962c6.8512,3.5717 11.83654,6.01226 14.96135,7.00761c4.68455,1.65006 10.32461,2.53088 16.76313,2.63979c6.43852,0.10891 12.26484,-0.73503 17.63332,-2.37212c3.31638,-1.04348 8.06468,-3.16231 14.24491,-6.35649l-0.06907,4.08297c-5.55474,3.36185 -8.88705,5.34755 -10.15663,6.11148c-1.26958,0.76394 -3.01027,1.5199 -5.37911,2.26524c-2.84526,1.05145 -5.52818,1.79147 -8.20578,2.21743c-2.6776,0.42595 -5.34989,0.53783 -7.86248,0.49533c-6.59556,-0.11157 -12.38734,-1.30911 -17.53504,-3.43825c-3.27653,-1.31208 -8.09687,-4.2211 -14.46633,-8.41297z" fill-rule="evenodd"/></g></g></g></svg>