<svg version="1.1" xmlns="http://www.w3.org/2000/svg" xmlns:xlink="http://www.w3.org/1999/xlink" width="177" height="42.58517" viewBox="0,0,177,42.58517"><g transform="translate(-151.5,-138.41484)"><g data-paper-data="{&quot;isPaintingLayer&quot;:true}" fill-rule="nonzero" stroke="none" stroke-linecap="butt" stroke-linejoin="miter" stroke-miterlimit="10" stroke-dasharray="" stroke-dashoffset="0" style="mix-blend-mode: normal"><path d="M151.5,181.00001v-42h177v42z" fill="#ffffff" stroke-width="0"/><text transform="translate(188.76634,156.11673) scale(0.40694,0.40694)" font-size="40" xml:space="preserve" fill="#000000" fill-rule="nonzero" stroke="none" stroke-width="1" stroke-linecap="butt" stroke-linejoin="miter" stroke-miterlimit="10" stroke-dasharray="" stroke-dashoffset="0" font-family="Sans Serif" font-weight="normal" text-anchor="start" style="mix-blend-mode: normal"><tspan x="0" dy="0"> увеличение</tspan><tspan x="0" dy="48px">громкости:</tspan></text><path d="M295.69567,170.20023c0,0.9222 -0.0215,1.79184 -0.06689,2.58503c-0.00239,0.01911 -0.00239,0.03583 -0.00478,0.05256c-0.09317,1.21367 -0.32492,2.23861 -0.70957,3.13214c-0.47305,1.07511 -1.22323,2.05226 -2.23144,2.92429c-0.16485,0.14096 -0.34403,0.26041 -0.53755,0.35598l-0.56384,0.28191c-0.90787,0.48021 -1.98297,0.75496 -3.19425,0.8147c-0.00955,0.00239 -0.01673,0.00239 -0.02389,0.00239c-0.08362,0.00239 -0.16485,0.00478 -0.24369,0.00478c-1.16111,0 -2.24816,-0.33447 -3.23487,-0.99149c-0.14335,-0.09556 -0.27713,-0.20547 -0.40137,-0.32731c-0.2867,-0.28909 -0.45394,-0.58772 -0.56862,-0.81469c-0.21741,-0.4396 -0.32492,-0.87204 -0.32492,-1.31641c0,-0.25324 0.03584,-0.50171 0.10512,-0.74062c0.08123,-0.44676 0.25324,-0.86486 0.51605,-1.23279c-0.61879,-0.49694 -1.10378,-1.07988 -1.44303,-1.74406c-0.45394,-0.87681 -0.70479,-1.79663 -0.75257,-2.73077c-0.0884,-1.62461 0.20785,-2.91234 0.90787,-3.92055c0.6379,-0.92459 1.54098,-1.74884 2.67582,-2.43929c1.23278,-0.74779 2.37956,-1.12289 3.50245,-1.14678c0.08362,-0.00239 0.16724,0 0.24847,0.00478c0.44916,0.03345 0.7239,0.05256 0.81947,0.05973c0.1099,0.00478 0.2198,0.01433 0.32731,0.03345c1.10856,0.18635 1.8444,0.67374 2.29595,1.10139c0.07645,0.0645 0.16724,0.14574 0.27475,0.23891c0.11707,0.10273 0.22219,0.21741 0.32015,0.33926l0.62595,0.79558c0.38943,0.48499 0.66656,0.92697 0.85769,1.36657c0.10273,0.18396 0.22218,0.40615 0.35836,0.66657c0.03345,0.0645 0.06451,0.12902 0.09318,0.19591c0.25802,0.614 0.3727,1.36897 0.3727,2.44885z" fill="#00cccc" stroke-width="1"/><path d="M293.06788,170.19952c0,0.88254 -0.0215,1.69532 -0.06355,2.43762c-0.07,0.91073 -0.23795,1.6743 -0.50387,2.29069c-0.30843,0.70097 -0.81994,1.35893 -1.53429,1.97532c-0.14024,0.07048 -0.33615,0.16843 -0.58844,0.29434c-0.57459,0.30844 -1.28177,0.48332 -2.1225,0.52537c-0.68664,0.02795 -1.32405,-0.1541 -1.91249,-0.54639c-0.01409,-0.01409 -0.0387,-0.05591 -0.07358,-0.12591c-0.03488,-0.07 -0.05256,-0.11898 -0.05256,-0.14741c0.01385,-0.01362 0.03512,-0.02747 0.06355,-0.04205c-0.05662,-0.42001 0.17536,-0.63049 0.69595,-0.63049c0.18277,0 0.34427,0.03512 0.48523,0.10512c0.04205,0.05614 0.11969,0.11922 0.23222,0.18922c0.25301,0.08409 0.50602,0.1259 0.75974,0.1259c0.8436,0 1.589,-0.37844 2.23598,-1.13483c0.61831,-0.70049 0.92818,-1.43586 0.92818,-2.20659c0,-0.13977 -0.01409,-0.26591 -0.04205,-0.37796c-0.68878,0.65844 -1.58088,0.98743 -2.67701,0.98743c-0.80131,0 -1.56344,-0.18516 -2.28687,-0.55667c-0.72366,-0.37103 -1.22634,-0.83022 -1.5073,-1.37661c-0.2812,-0.54639 -0.43577,-1.09971 -0.46349,-1.6602c-0.05615,-1.0223 0.09079,-1.78635 0.44127,-2.29069c0.4341,-0.63049 1.06124,-1.19409 1.88072,-1.6915c0.81971,-0.49717 1.55149,-0.75305 2.19608,-0.76714c0.5741,0.04205 0.87538,0.06307 0.90357,0.06307c0.42025,0.07048 0.7423,0.22434 0.96663,0.46254c0.07,0.0559 0.16819,0.14024 0.29434,0.25229c0.21001,0.26615 0.42001,0.53253 0.63049,0.79869c0.28001,0.35048 0.46206,0.64435 0.5464,0.8823c0.09747,0.16819 0.23102,0.41332 0.39898,0.73561c0.11205,0.26615 0.16868,0.74254 0.16868,1.42893zM291.49153,168.6442c-0.02843,-0.01362 -0.07382,-0.1013 -0.13666,-0.26256c-0.06308,-0.16102 -0.14382,-0.24178 -0.24154,-0.24178c-0.08434,-0.4482 -0.2523,-0.74923 -0.50435,-0.90356c-0.15434,-0.09796 -0.27331,-0.17489 -0.35717,-0.23127l0.02102,-0.02102c-0.04205,-0.06976 -0.12614,-0.11205 -0.25229,-0.12615c-0.08409,0 -0.1682,0 -0.2523,0c-0.46254,-0.09771 -0.79152,-0.1259 -0.98766,-0.08409c-0.43434,0.08409 -0.9179,0.32946 -1.44996,0.73561c-0.57459,0.42024 -0.94585,0.84766 -1.11381,1.28177c-0.11229,0.26615 -0.17536,0.56073 -0.18921,0.88254c-0.02819,0.36434 0.02485,0.78817 0.1584,1.27149c0.13331,0.48308 0.48141,0.92101 1.04381,1.3133c0.5624,0.39254 1.09661,0.57458 1.60286,0.54639c0.68903,0.0982 1.36419,-0.21024 2.02526,-0.92459c0.61831,-0.6864 0.9277,-1.40815 0.9277,-2.16478c0,-0.3782 -0.10488,-0.70048 -0.31489,-0.96663c0.01338,-0.02723 0.02078,-0.06236 0.02078,-0.10465z" fill="#ffffff" stroke-width="1"/></g></g></svg>