<svg version="1.1" xmlns="http://www.w3.org/2000/svg" xmlns:xlink="http://www.w3.org/1999/xlink" width="636" height="636" viewBox="0,0,636,636"><g transform="translate(78,138)"><g data-paper-data="{&quot;isPaintingLayer&quot;:true}" fill-rule="nonzero" stroke="none" stroke-width="0" stroke-linecap="butt" stroke-linejoin="miter" stroke-miterlimit="10" stroke-dasharray="" stroke-dashoffset="0" style="mix-blend-mode: normal"><path d="M-78,180c0,-175.62655 142.37345,-318 318,-318c175.62655,0 318,142.37345 318,318c0,175.62655 -142.37345,318 -318,318c-175.62655,0 -318,-142.37345 -318,-318z" fill="#ff0000"/><path d="M-41.5,184.23719c0,-157.40115 127.59885,-285 285,-285c157.40116,0 285,127.59885 285,285c0,157.40115 -127.59884,285 -285,285c-157.40115,0 -285,-127.59885 -285,-285z" fill="#ffa000"/><path d="M-5,180c0,-135.30976 109.69024,-245 245,-245c135.30976,0 245,109.69024 245,245c0,135.30976 -109.69024,245 -245,245c-135.30976,0 -245,-109.69024 -245,-245z" fill="#c9ff00"/><path d="M34.5,180c0,-113.49451 92.00549,-205.5 205.5,-205.5c113.49451,0 205.5,92.00549 205.5,205.5c0,113.49451 -92.00549,205.5 -205.5,205.5c-113.49451,0 -205.5,-92.00549 -205.5,-205.5z" fill="#34ff00"/><path d="M76.5,180c0,-90.29855 73.20145,-163.5 163.5,-163.5c90.29855,0 163.5,73.20145 163.5,163.5c0,90.29855 -73.20145,163.5 -163.5,163.5c-90.29855,0 -163.5,-73.20145 -163.5,-163.5z" fill="#00ff61"/><path d="M118,180c0,-67.37874 54.62126,-122 122,-122c67.37874,0 122,54.62126 122,122c0,67.37874 -54.62126,122 -122,122c-67.37874,0 -122,-54.62126 -122,-122z" fill="#00fcff"/><path d="M157,180c0,-45.83963 37.16037,-83 83,-83c45.83963,0 83,37.16037 83,83c0,45.83963 -37.16037,83 -83,83c-45.83963,0 -83,-37.16037 -83,-83z" fill="#0067ff"/><path d="M189.5,180c0,-27.89038 22.60962,-50.5 50.5,-50.5c27.89038,0 50.5,22.60962 50.5,50.5c0,27.89038 -22.60962,50.5 -50.5,50.5c-27.89038,0 -50.5,-22.60962 -50.5,-50.5z" fill="#3a00ff"/><path d="M220,180c0,-11.04569 8.95431,-20 20,-20c11.04569,0 20,8.95431 20,20c0,11.04569 -8.95431,20 -20,20c-11.04569,0 -20,-8.95431 -20,-20z" fill="#d000ff"/><path d="M234,180c0,-3.31371 2.68629,-6 6,-6c3.31371,0 6,2.68629 6,6c0,3.31371 -2.68629,6 -6,6c-3.31371,0 -6,-2.68629 -6,-6z" fill="#ff00a0"/><path d="M238.8125,180c0,-0.65584 0.53166,-1.1875 1.1875,-1.1875c0.65584,0 1.1875,0.53166 1.1875,1.1875c0,0.65584 -0.53166,1.1875 -1.1875,1.1875c-0.65584,0 -1.1875,-0.53166 -1.1875,-1.1875z" fill="#ff0000"/></g></g></svg>