<svg version="1.1" xmlns="http://www.w3.org/2000/svg" xmlns:xlink="http://www.w3.org/1999/xlink" width="100" height="100" viewBox="0,0,100,100"><g transform="translate(-190,-130)"><g data-paper-data="{&quot;isPaintingLayer&quot;:true}" fill-rule="nonzero" stroke="none" stroke-linecap="butt" stroke-linejoin="miter" stroke-miterlimit="10" stroke-dasharray="" stroke-dashoffset="0" style="mix-blend-mode: normal"><path d="M190,230v-100h100v100z" fill="#ffffff" stroke-width="0"/><path d="M235.88108,204.99704c-0.20075,1.94356 -0.96722,3.77762 -2.19905,5.29231c-1.80668,2.22642 -3.91448,3.81411 -6.25952,4.71746c-2.15342,0.83034 -4.55321,1.1132 -7.5096,0.88509c-0.34674,-0.02738 -0.61135,-0.0365 -0.80297,-0.04562c-0.0365,0.00913 -0.07299,0.01825 -0.11862,0.02737c-1.58769,0.41974 -2.91077,0.61136 -4.16997,0.61136c-1.13146,0 -2.13518,-0.19162 -3.00202,-0.44711c-1.25921,0.08212 -2.27204,0.11862 -3.09327,0.11862h-3.84148c-1.74281,-0.07299 -6.94388,-0.27374 -10.13751,-4.69008c-0.42886,-0.56573 -1.2227,-1.67894 -1.83406,-3.21188c-0.26461,-0.53835 -0.50186,-1.09496 -0.69348,-1.68806c-0.54748,-1.64244 -0.6661,-3.39437 -0.32849,-5.09157c1.25921,-6.46027 6.15003,-9.56266 10.96786,-10.52987c-0.05475,-4.74483 -0.20987,-10.53899 -0.47449,-17.346c-0.00913,-0.24636 -0.00913,-0.50186 0,-0.75735c-1.75194,-0.81209 -3.28488,-2.02568 -4.48021,-3.58599c-1.62419,-2.0713 -2.50929,-4.63533 -2.50929,-7.27236c0,-4.60796 2.52754,-8.55894 7.51873,-11.75258c0.04563,-0.02738 0.08212,-0.05475 0.12775,-0.073c0.32849,-0.20987 0.56573,-0.37411 0.7391,-0.49273c0.59311,-0.96722 1.35045,-1.83406 2.24467,-2.55491c2.91077,-2.35416 6.31427,-3.59512 9.8364,-3.59512c6.36902,0 11.47883,4.20648 12.73804,10.47513c0.33761,1.70631 0.22812,3.46738 -0.31023,5.10981c-0.10037,1.18621 -0.23725,3.39437 -0.38324,7.4366c-0.00913,0.46536 -0.0365,1.07672 -0.09125,2.12605c-0.0365,0.53835 -0.05474,0.91247 -0.06387,1.12233v8.18483c0.00913,0.27374 0.04562,0.78472 0.09125,1.52382c0.13687,1.98005 0.14599,2.22642 0.14599,2.6279v9.03342c2.55491,1.11321 4.77221,3.06589 6.41465,5.70292c1.9983,3.17539 1.66069,6.3964 1.47819,8.13921z" fill="#00cccc" stroke-width="1"/><path d="M225.89869,203.95592c-0.69621,0.8559 -1.39151,1.41797 -2.08682,1.68624c-0.69621,0.26736 -1.73916,0.34765 -3.13067,0.24089c-1.55211,-0.10767 -2.56768,-0.10767 -3.05038,0c-0.05383,0 -0.44072,0.09307 -1.1634,0.28104c-0.72176,0.18705 -1.27198,0.28195 -1.64518,0.28195c-0.10767,0 -0.30842,-0.0949 -0.60223,-0.28195c-0.29472,-0.18797 -0.52101,-0.28104 -0.68161,-0.28104c-0.26918,0 -0.97725,0.04015 -2.12696,0.12044c-1.15153,0.0803 -2.04667,0.12044 -2.68904,0.12044c-1.12324,0 -2.27478,0 -3.45095,0c-1.39151,-0.05383 -2.19448,-0.24089 -2.408,-0.56116c-0.48087,-0.64237 -0.72268,-1.12325 -0.72268,-1.44444c-0.1606,-0.16151 -0.29381,-0.40148 -0.40057,-0.72267c0.42794,-2.19357 2.51476,-3.07592 6.26044,-2.64798c2.72827,0.26827 4.33422,0.24089 4.81509,-0.08121c0.2126,-5.72391 0.0803,-14.87504 -0.40058,-27.44884c0.2126,-2.35416 0.42704,-6.2066 0.64147,-11.55822c-0.37502,-0.05292 -0.91064,0.18888 -1.60503,0.72267c-0.80297,0.69621 -1.31213,1.0977 -1.52564,1.20355c-0.69621,0.26827 -1.39151,0.40148 -2.08681,0.40148c-0.90973,0 -1.57766,-0.29381 -2.00561,-0.88327c-0.26827,-0.3221 -0.40149,-0.6953 -0.40149,-1.12324c0,-0.96356 0.96357,-2.05944 2.88979,-3.29036c2.2474,-1.3906 3.58417,-2.64889 4.01303,-3.77305c1.12324,-0.90973 2.29942,-1.36505 3.53125,-1.36505c1.60503,0 2.56768,0.80297 2.88887,2.408c-0.10767,0.21443 -0.21352,0.51007 -0.32119,0.88327c-0.21443,1.65886 -0.40057,4.81509 -0.56208,9.47141c0,0.26827 -0.02737,0.8559 -0.0803,1.76563c-0.05383,0.91064 -0.0803,1.41888 -0.0803,1.52564v8.58723c0,0.10767 0.04015,0.76282 0.12044,1.96636c0.0803,1.20354 0.12136,1.85961 0.12136,1.96637v18.29953c1.44443,0.26827 2.43355,0.29472 2.96917,0.0803c0.6953,-0.26644 1.31122,-0.40058 1.84592,-0.40058c1.23092,0 2.27387,0.69621 3.13067,2.08682c0.10584,0.15877 0.10584,0.74731 0,1.7638z" fill="#ffffff" stroke-width="1"/><path d="M280.73985,204.99703c-0.20075,1.94356 -0.96722,3.77762 -2.19905,5.29231c-1.80668,2.22642 -3.91448,3.81411 -6.25952,4.71746c-2.15342,0.83034 -4.55321,1.1132 -7.5096,0.88509c-0.34674,-0.02738 -0.61135,-0.0365 -0.80297,-0.04562c-0.0365,0.00913 -0.07299,0.01825 -0.11862,0.02737c-1.58769,0.41974 -2.91077,0.61136 -4.16997,0.61136c-1.13146,0 -2.13518,-0.19162 -3.00202,-0.44711c-1.25921,0.08212 -2.27204,0.11862 -3.09327,0.11862h-3.84148c-1.74281,-0.07299 -6.94388,-0.27374 -10.13751,-4.69008c-0.42886,-0.56573 -1.2227,-1.67894 -1.83406,-3.21188c-0.26461,-0.53835 -0.50186,-1.09496 -0.69348,-1.68806c-0.54748,-1.64244 -0.6661,-3.39437 -0.32849,-5.09157c1.25921,-6.46027 6.15003,-9.56266 10.96786,-10.52987c-0.05475,-4.74483 -0.20987,-10.53899 -0.47449,-17.346c-0.00913,-0.24636 -0.00913,-0.50186 0,-0.75735c-1.75194,-0.81209 -3.28488,-2.02568 -4.48021,-3.58599c-1.62419,-2.0713 -2.50929,-4.63533 -2.50929,-7.27236c0,-4.60796 2.52754,-8.55894 7.51873,-11.75258c0.04563,-0.02738 0.08212,-0.05475 0.12775,-0.073c0.32849,-0.20987 0.56573,-0.37411 0.7391,-0.49273c0.59311,-0.96722 1.35045,-1.83406 2.24467,-2.55491c2.91077,-2.35416 6.31427,-3.59512 9.8364,-3.59512c6.36902,0 11.47883,4.20648 12.73804,10.47513c0.33761,1.70631 0.22812,3.46738 -0.31023,5.10981c-0.10037,1.18621 -0.23725,3.39437 -0.38324,7.4366c-0.00913,0.46536 -0.0365,1.07672 -0.09125,2.12605c-0.0365,0.53835 -0.05474,0.91247 -0.06387,1.12233v8.18483c0.00913,0.27374 0.04562,0.78472 0.09125,1.52382c0.13687,1.98005 0.14599,2.22642 0.14599,2.6279v9.03342c2.55491,1.11321 4.77221,3.06589 6.41465,5.70292c1.9983,3.17539 1.66069,6.3964 1.47819,8.13921z" fill="#00cccc" stroke-width="1"/><path d="M270.75746,203.95591c-0.69621,0.8559 -1.39151,1.41797 -2.08682,1.68624c-0.69621,0.26736 -1.73916,0.34765 -3.13067,0.24089c-1.55211,-0.10767 -2.56768,-0.10767 -3.05038,0c-0.05383,0 -0.44072,0.09307 -1.1634,0.28104c-0.72176,0.18705 -1.27198,0.28195 -1.64518,0.28195c-0.10767,0 -0.30842,-0.0949 -0.60223,-0.28195c-0.29472,-0.18797 -0.52101,-0.28104 -0.68161,-0.28104c-0.26918,0 -0.97725,0.04015 -2.12696,0.12044c-1.15153,0.0803 -2.04667,0.12044 -2.68904,0.12044c-1.12324,0 -2.27478,0 -3.45095,0c-1.39151,-0.05383 -2.19448,-0.24089 -2.408,-0.56116c-0.48087,-0.64237 -0.72268,-1.12325 -0.72268,-1.44444c-0.1606,-0.16151 -0.29381,-0.40148 -0.40057,-0.72267c0.42794,-2.19357 2.51476,-3.07592 6.26044,-2.64798c2.72827,0.26827 4.33422,0.24089 4.81509,-0.08121c0.2126,-5.72391 0.0803,-14.87504 -0.40058,-27.44884c0.2126,-2.35416 0.42704,-6.2066 0.64147,-11.55822c-0.37502,-0.05292 -0.91064,0.18888 -1.60503,0.72267c-0.80297,0.69621 -1.31213,1.0977 -1.52564,1.20355c-0.69621,0.26827 -1.39151,0.40148 -2.08681,0.40148c-0.90973,0 -1.57766,-0.29381 -2.00561,-0.88327c-0.26827,-0.3221 -0.40149,-0.6953 -0.40149,-1.12324c0,-0.96356 0.96357,-2.05944 2.88979,-3.29036c2.2474,-1.3906 3.58417,-2.64889 4.01303,-3.77305c1.12324,-0.90973 2.29942,-1.36505 3.53125,-1.36505c1.60503,0 2.56768,0.80297 2.88887,2.408c-0.10767,0.21443 -0.21352,0.51007 -0.32119,0.88327c-0.21443,1.65886 -0.40057,4.81509 -0.56208,9.47141c0,0.26827 -0.02737,0.8559 -0.0803,1.76563c-0.05383,0.91064 -0.0803,1.41888 -0.0803,1.52564v8.58723c0,0.10767 0.04015,0.76282 0.12044,1.96636c0.0803,1.20354 0.12136,1.85961 0.12136,1.96637v18.29953c1.44443,0.26827 2.43355,0.29472 2.96917,0.0803c0.6953,-0.26644 1.31122,-0.40058 1.84592,-0.40058c1.23092,0 2.27387,0.69621 3.13067,2.08682c0.10584,0.15877 0.10584,0.74731 0,1.7638z" fill="#ffffff" stroke-width="1"/></g></g></svg>