<svg version="1.1" xmlns="http://www.w3.org/2000/svg" xmlns:xlink="http://www.w3.org/1999/xlink" width="100" height="100" viewBox="0,0,100,100"><g transform="translate(-190,-130)"><g data-paper-data="{&quot;isPaintingLayer&quot;:true}" fill-rule="nonzero" stroke="none" stroke-linecap="butt" stroke-linejoin="miter" stroke-miterlimit="10" stroke-dasharray="" stroke-dashoffset="0" style="mix-blend-mode: normal"><path d="M190,230v-100h100v100z" fill="#ffffff" stroke-width="0"/><path d="M288.29775,175.34551v4.41634c0,2.61878 -0.45623,6.34165 -1.43257,11.71608c-0.40148,2.50016 -1.16796,5.07332 -2.27204,7.6556c-0.01825,0.0365 -0.0365,0.06387 -0.04563,0.10037c-1.96181,4.42547 -5.19194,8.28521 -9.60827,11.46972c-4.70833,3.38526 -9.5809,5.10069 -14.4991,5.10069c-1.98918,0 -3.88711,-0.31024 -5.66642,-0.91247c-6.30515,-2.0348 -11.28722,-5.90366 -14.80022,-11.49708c-0.75735,-1.23183 -1.50557,-2.75565 -2.43628,-4.98207c-0.01825,-0.05475 -0.0365,-0.10037 -0.06387,-0.15512c-1.14971,-2.8834 -1.76106,-5.19194 -1.92531,-7.27237c-0.02738,-0.35586 -0.12775,-1.21358 -0.45623,-2.89252c-0.11862,-0.6296 -0.18249,-1.26833 -0.18249,-1.90705v-3.90536c-0.40149,-1.54207 -0.43798,-3.19364 -0.04563,-4.82695c0.14599,-0.6296 0.35586,-1.24095 0.61136,-1.80668c0,-1.11321 0.19162,-2.22643 0.5566,-3.28489c0.10037,-0.45623 0.23724,-0.90334 0.40149,-1.35045c0.00913,-0.00913 0.17337,-0.47448 0.40149,-1.76106c0.27374,-1.57857 0.78472,-3.61337 1.55119,-6.1774c0.00913,-0.02738 0.01825,-0.06387 0.02737,-0.09125c1.48732,-4.78133 4.48934,-9.31629 9.17942,-13.86038c0.0365,-0.0365 0.06387,-0.06387 0.10037,-0.09125c2.37241,-2.24467 5.10981,-3.66812 8.13921,-4.2521c0.54748,-0.10037 1.10409,-0.15512 1.66981,-0.17337c0.34674,-0.00913 1.26833,-0.06387 2.7739,-0.14599c0.05475,0 0.10949,-0.00913 0.16424,-0.00913c4.44371,-0.18249 8.65019,0.76648 12.54643,2.80128c4.49847,2.29942 8.05708,5.75767 10.58461,10.2835c1.19533,2.1443 2.2173,4.74483 3.12977,7.97496c1.06759,3.659 1.59681,6.88 1.59681,9.8364z" fill="#00cccc" stroke-width="1"/><path d="M278.25788,179.76276c0,1.98005 -0.42978,5.32515 -1.28476,10.03258c-0.26736,1.7127 -0.80205,3.5057 -1.60594,5.37808c-1.23183,2.78303 -3.33051,5.24487 -6.29968,7.3846c-2.97008,2.13974 -5.84618,3.21006 -8.62829,3.21006c-0.90973,0 -1.73916,-0.13322 -2.48829,-0.40058c-4.06687,-1.28384 -7.2231,-3.71831 -9.4705,-7.3043c-0.42977,-0.69439 -0.99094,-1.87239 -1.68624,-3.53125c-0.74913,-1.87239 -1.1634,-3.31681 -1.2437,-4.33422c-0.0803,-1.01558 -0.28104,-2.35325 -0.60223,-4.01212v-5.94016c0.21352,-0.10584 0.10676,-0.26644 -0.32119,-0.48087h0.48178c0,-0.26736 0.10585,-0.7756 0.32119,-1.52474c0.2126,-0.74913 0.32119,-1.31122 0.32119,-1.68624c0,-0.32119 -0.0803,-0.615 -0.24089,-0.88326c0.2126,0 0.40057,-0.0803 0.56117,-0.24089c-0.05383,-0.10676 -0.18797,-0.16059 -0.40058,-0.16059c0.05292,-0.05292 0.14691,-0.13322 0.28104,-0.24089c0.13322,-0.10676 0.2272,-0.18706 0.28195,-0.24089c-0.05475,-0.05383 -0.12044,-0.09398 -0.20165,-0.12136c-0.0803,-0.02555 -0.14782,-0.0657 -0.20075,-0.12045c0.3221,-0.8559 0.615,-2.03297 0.88327,-3.53124c0.2126,-1.23001 0.64237,-2.91533 1.28384,-5.05598c0.96356,-3.10239 3.15714,-6.31336 6.58163,-9.632c0.96356,-0.90882 2.00651,-1.4709 3.13067,-1.68533c0.1606,0 1.20355,-0.05383 3.13067,-0.16151c2.67536,-0.10584 5.1892,0.45532 7.54428,1.68624c2.7301,1.39151 4.86892,3.47833 6.42103,6.26044c0.80388,1.44443 1.55211,3.39803 2.24741,5.85895c0.80388,2.72827 1.20446,5.08336 1.20446,7.0625v4.41543zM272.96101,170.85434c-0.31937,-0.74822 -0.69348,-1.71178 -1.1196,-2.88978c-0.5347,-2.408 -2.12149,-4.62713 -4.76034,-6.66192c-2.63977,-2.03297 -5.0788,-2.94179 -7.3189,-2.72827c-1.01284,0.10767 -2.72006,1.7939 -5.12076,5.05689c-1.17344,1.55211 -2.34596,4.65541 -3.51847,9.30991c-1.06668,4.33422 -1.57401,7.67841 -1.51926,10.03257c0.10584,2.99654 0.26644,5.08336 0.47996,6.25953c0.37229,2.19448 1.17252,4.201 2.39888,6.02046c1.17344,1.60503 2.08042,2.64798 2.72007,3.13067c2.39888,1.7127 4.66453,2.56768 6.79879,2.56768c0.47904,0 0.93254,-0.05292 1.35958,-0.1606c1.01284,-0.1606 2.21182,-0.82852 3.59877,-2.00651c1.17343,-1.07032 2.05305,-2.05944 2.64068,-2.97008c0.79932,-1.33677 1.54663,-3.34328 2.24011,-6.01954c1.06576,-3.90536 1.60047,-8.05252 1.60047,-12.44057c0.00182,-2.35325 -0.15877,-4.52036 -0.47996,-6.50042z" fill="#ffffff" stroke-width="1"/><path d="M235.88108,204.99704c-0.20075,1.94356 -0.96722,3.77762 -2.19905,5.29231c-1.80668,2.22642 -3.91448,3.81411 -6.25952,4.71746c-2.15342,0.83034 -4.55321,1.1132 -7.5096,0.88509c-0.34674,-0.02738 -0.61135,-0.0365 -0.80297,-0.04562c-0.0365,0.00913 -0.07299,0.01825 -0.11862,0.02737c-1.58769,0.41974 -2.91077,0.61136 -4.16997,0.61136c-1.13146,0 -2.13518,-0.19162 -3.00202,-0.44711c-1.25921,0.08212 -2.27204,0.11862 -3.09327,0.11862h-3.84148c-1.74281,-0.07299 -6.94388,-0.27374 -10.13751,-4.69008c-0.42886,-0.56573 -1.2227,-1.67894 -1.83406,-3.21188c-0.26461,-0.53835 -0.50186,-1.09496 -0.69348,-1.68806c-0.54748,-1.64244 -0.6661,-3.39437 -0.32849,-5.09157c1.25921,-6.46027 6.15003,-9.56266 10.96786,-10.52987c-0.05475,-4.74483 -0.20987,-10.53899 -0.47449,-17.346c-0.00913,-0.24636 -0.00913,-0.50186 0,-0.75735c-1.75194,-0.81209 -3.28488,-2.02568 -4.48021,-3.58599c-1.62419,-2.0713 -2.50929,-4.63533 -2.50929,-7.27236c0,-4.60796 2.52754,-8.55894 7.51873,-11.75258c0.04563,-0.02738 0.08212,-0.05475 0.12775,-0.073c0.32849,-0.20987 0.56573,-0.37411 0.7391,-0.49273c0.59311,-0.96722 1.35045,-1.83406 2.24467,-2.55491c2.91077,-2.35416 6.31427,-3.59512 9.8364,-3.59512c6.36902,0 11.47883,4.20648 12.73804,10.47513c0.33761,1.70631 0.22812,3.46738 -0.31023,5.10981c-0.10037,1.18621 -0.23725,3.39437 -0.38324,7.4366c-0.00913,0.46536 -0.0365,1.07672 -0.09125,2.12605c-0.0365,0.53835 -0.05474,0.91247 -0.06387,1.12233v8.18483c0.00913,0.27374 0.04562,0.78472 0.09125,1.52382c0.13687,1.98005 0.14599,2.22642 0.14599,2.6279v9.03342c2.55491,1.11321 4.77221,3.06589 6.41465,5.70292c1.9983,3.17539 1.66069,6.3964 1.47819,8.13921z" fill="#00cccc" stroke-width="1"/><path d="M225.89869,203.95592c-0.69621,0.8559 -1.39151,1.41797 -2.08682,1.68624c-0.69621,0.26736 -1.73916,0.34765 -3.13067,0.24089c-1.55211,-0.10767 -2.56768,-0.10767 -3.05038,0c-0.05383,0 -0.44072,0.09307 -1.1634,0.28104c-0.72176,0.18705 -1.27198,0.28195 -1.64518,0.28195c-0.10767,0 -0.30842,-0.0949 -0.60223,-0.28195c-0.29472,-0.18797 -0.52101,-0.28104 -0.68161,-0.28104c-0.26918,0 -0.97725,0.04015 -2.12696,0.12044c-1.15153,0.0803 -2.04667,0.12044 -2.68904,0.12044c-1.12324,0 -2.27478,0 -3.45095,0c-1.39151,-0.05383 -2.19448,-0.24089 -2.408,-0.56116c-0.48087,-0.64237 -0.72268,-1.12325 -0.72268,-1.44444c-0.1606,-0.16151 -0.29381,-0.40148 -0.40057,-0.72267c0.42794,-2.19357 2.51476,-3.07592 6.26044,-2.64798c2.72827,0.26827 4.33422,0.24089 4.81509,-0.08121c0.2126,-5.72391 0.0803,-14.87504 -0.40058,-27.44884c0.2126,-2.35416 0.42704,-6.2066 0.64147,-11.55822c-0.37502,-0.05292 -0.91064,0.18888 -1.60503,0.72267c-0.80297,0.69621 -1.31213,1.0977 -1.52564,1.20355c-0.69621,0.26827 -1.39151,0.40148 -2.08681,0.40148c-0.90973,0 -1.57766,-0.29381 -2.00561,-0.88327c-0.26827,-0.3221 -0.40149,-0.6953 -0.40149,-1.12324c0,-0.96356 0.96357,-2.05944 2.88979,-3.29036c2.2474,-1.3906 3.58417,-2.64889 4.01303,-3.77305c1.12324,-0.90973 2.29942,-1.36505 3.53125,-1.36505c1.60503,0 2.56768,0.80297 2.88887,2.408c-0.10767,0.21443 -0.21352,0.51007 -0.32119,0.88327c-0.21443,1.65886 -0.40057,4.81509 -0.56208,9.47141c0,0.26827 -0.02737,0.8559 -0.0803,1.76563c-0.05383,0.91064 -0.0803,1.41888 -0.0803,1.52564v8.58723c0,0.10767 0.04015,0.76282 0.12044,1.96636c0.0803,1.20354 0.12136,1.85961 0.12136,1.96637v18.29953c1.44443,0.26827 2.43355,0.29472 2.96917,0.0803c0.6953,-0.26644 1.31122,-0.40058 1.84592,-0.40058c1.23092,0 2.27387,0.69621 3.13067,2.08682c0.10584,0.15877 0.10584,0.74731 0,1.7638z" fill="#ffffff" stroke-width="1"/></g></g></svg>