<svg version="1.1" xmlns="http://www.w3.org/2000/svg" xmlns:xlink="http://www.w3.org/1999/xlink" width="323" height="118" viewBox="0,0,323,118"><defs><radialGradient cx="241.6719" cy="194" r="161.5" gradientUnits="userSpaceOnUse" id="color-1"><stop offset="0" stop-color="#000000"/><stop offset="1" stop-color="#000000" stop-opacity="0"/></radialGradient></defs><g transform="translate(-80.1719,-135)"><g data-paper-data="{&quot;isPaintingLayer&quot;:true}" fill-rule="nonzero" stroke-linejoin="miter" stroke-miterlimit="10" stroke-dasharray="" stroke-dashoffset="0" style="mix-blend-mode: normal"><path d="M80.1719,253v-118h323v118z" fill="url(#color-1)" stroke="none" stroke-width="0" stroke-linecap="butt"/><text transform="translate(98.17256,239.26872) scale(0.63001,0.63001)" font-size="40" xml:space="preserve" fill="#00cccc" fill-rule="nonzero" stroke="none" stroke-width="1" stroke-linecap="butt" stroke-linejoin="miter" stroke-miterlimit="10" stroke-dasharray="" stroke-dashoffset="0" font-family="Sans Serif" font-weight="normal" text-anchor="start" style="mix-blend-mode: normal"><tspan x="0" dy="0">Если что то сломалось</tspan></text><path d="M180.83597,146.5625c0.11854,-0.02963 0.23683,-0.05893 0.35488,-0.08787c1.7562,-0.94099 3.76334,-1.47463 5.89512,-1.47463c0.79893,0 1.58035,0.07495 2.33761,0.21821c4.78028,-0.09877 9.14349,1.28122 13.20926,5.55523c4.25118,4.46892 1.45565,16.31097 -4.34528,18.4069c-4.80851,1.73736 -5.1934,0.60996 -8.70159,1.19466c-7.20163,1.20027 -12.29165,2.12997 -19.59017,0.30534c-2.41256,-0.60314 -3.66214,-3.61125 -5.81153,-4.15576c-7.44955,-1.88722 -15.5983,-3.25846 -15.5983,-13.52458c0,-2.49528 0.71512,-5.06005 1.95313,-7.22656c4.46349,-7.81111 15.72857,-5.01385 22.2938,-2.93867c0.2455,0.0776 4.2691,1.34447 5.24078,2.18366c0.68551,0.59203 1.35776,2.19026 2.42661,1.83397z" fill="#00cccc" stroke="none" stroke-width="0.5" stroke-linecap="butt"/><path d="M141.30999,191.25c-0.7,7.55 -2.97,13.28 -6.92,17.45c-2.3,2.43 -5.71,4.35 -11.39,6.39c-0.11,0.04 -0.23,0.08 -0.35,0.12c-2.72,0.87 -5.69,1.32 -8.82,1.32c-4.77,0 -9.2,-0.94 -13.17,-2.79c-5.87,-2.74 -8.79,-6.57 -10.24,-9.8c-0.21,-0.35 -0.43,-0.71 -0.64,-1.1c-0.6,-1.09 -1.02,-2.27 -1.22,-3.5c-0.29,-1.72 -0.75,-4.31 -1.38,-7.75c-0.12,-0.66 -0.18,-1.32 -0.18,-1.99v-8.7c0,-1.08 0.09,-2.66 0.74,-6.94c0.63,-4.19 0.9,-5.49 1.4,-6.77c1.31,-3.49 5.23,-13.75 14.73,-15.78c3.12,-0.66 6.63,-0.75 9.95,-0.39c2.35,-3.77 6.55,-6.02 11.32,-6.02c8.28,0 12.86,5.46 13.72,10.86c0.09,0.57 0.13,1.15 0.13,1.73v13.89c0,0.01 0,0.02 0,0.02c0,0.01 0,0.01 0,0.02c0,0 0,0 0,0.01c0,0.91 -0.12,1.78 -0.32,2.63c1.93,2.19 3,4.89 3.05,7.78c0.06,2.9 -0.08,6.04 -0.41,9.31z" fill="#00cccc" stroke="none" stroke-width="1" stroke-linecap="butt"/><path d="M130.71902,182.128c0.057,2.463 -0.059,5.132 -0.352,8.004c-0.471,5.044 -1.789,8.708 -3.959,10.995c-0.998,1.056 -3.372,2.258 -7.124,3.606c-1.643,0.528 -3.461,0.792 -5.454,0.792c-3.166,0 -6.011,-0.586 -8.532,-1.76c-2.757,-1.289 -4.457,-2.96 -5.102,-5.014c-0.234,-0.293 -0.499,-0.703 -0.791,-1.231c-0.295,-1.759 -0.763,-4.397 -1.408,-7.916v-8.708c0,-0.821 0.205,-2.58 0.616,-5.278c0.409,-2.696 0.674,-4.191 0.792,-4.485c2.052,-5.454 4.31,-8.444 6.772,-8.973c1.113,-0.233 2.345,-0.352 3.694,-0.352c4.339,0 8.269,1.056 11.787,3.167c0.233,0.118 0.527,0.176 0.879,0.176c0.059,-0.176 0.117,-0.908 0.177,-2.199c0.058,0 0.058,-1.025 0,-3.078c-0.06,-1.408 0.079,-2.404 0.416,-2.991c0.335,-0.585 1.008,-0.88 2.014,-0.88c1.73,0 2.68,0.528 2.848,1.584c0,0.059 0,2.229 0,6.509c0,3.226 0,5.249 0,6.069c0,0.998 0,1.438 0,1.319c-0.236,0.88 -0.646,1.407 -1.232,1.583c-1.582,0.528 -2.668,0.559 -3.254,0.088c-0.294,0 -0.615,-0.088 -0.968,-0.264c-0.294,-0.82 -0.938,-1.904 -1.935,-3.254c-1.35,-1.113 -3.109,-2.081 -5.277,-2.903c-2.171,-0.82 -4.018,-1.231 -5.542,-1.231c-1.936,0 -3.489,1.495 -4.662,4.486c-1.643,4.105 -2.375,9.411 -2.199,15.921c0.117,2.874 0.205,4.692 0.265,5.453c0.292,2.405 0.938,4.457 1.935,6.157c0.704,1.174 1.788,2.142 3.255,2.903c1.465,0.763 2.902,1.173 4.31,1.231c6.979,0.294 11.053,-2.785 12.228,-9.236c0.645,-3.459 0.703,-6.362 0.176,-8.708c-0.119,-0.469 -0.061,-1.1 0.176,-1.892c0.232,-0.791 1.26,-1.275 3.078,-1.451c0.41,0 0.908,0.191 1.496,0.572c0.582,0.384 0.877,0.779 0.877,1.189z" fill="#ffffff" stroke="none" stroke-width="1" stroke-linecap="butt"/><path d="M271.97005,166.35799c-0.03,0.29 -0.07,0.57 -0.12,0.85c-1.33,6.97 -4.99,12.53 -10.59,16.1c-3.37,2.16 -7.82,3.69 -13.56,4.65c-0.02,0.01 -0.04,0.01 -0.06,0.01c0.03,0.98 0.06,2.07 0.08,3.26c5.61,0.21 8.83,3.11 10.36,5.01c1.39,1.71 2.97,4.56 2.97,8.67c0,6.59 -4.26,11.97 -10.6,13.38c-2.47,0.55 -5.16,0.68 -8,0.37h-0.06c-0.17,0 -0.5,0.01 -1.06,0.07c-2.94,0.33 -3.85,0.41 -4.43,0.43c-0.51,0.03 -1.83,0.15 -4.83,0.59c-3.45,0.51 -5.77,0.73 -7.53,0.73c-4.46,0 -8.16,-1.19 -11.01,-3.55c-4.81,-3.88 -6.08,-10.27 -3.15,-15.56c2.04,-3.9 4.93,-5.71 7.16,-6.55c0.96,-0.38 2,-0.68 3.1,-0.91v-0.01c-0.29,-1.66 -0.39,-3.63 -0.33,-6.25v-4.17c-0.19,-0.79 -0.35,-1.71 -0.35,-2.8v-5.5c-0.02,-0.26 -0.04,-0.53 -0.05,-0.8c-0.04,-0.72 -0.09,-1.81 -0.15,-3.25c-0.02,-0.68 -0.05,-1.44 -0.09,-2.27c-3.44,-0.62 -6.51,-2.33 -8.84,-4.97c-1.41,-1.6 -2.33,-3.59 -2.63,-5.71c-0.14,-0.92 -0.2,-1.83 -0.2,-2.7c0,-3.77 1.62,-7.29 4.45,-9.66c0.12,-0.1 0.23,-0.19 0.35,-0.28c3.02,-2.33 6.83,-3.67 11.64,-4.1c0.12,-0.01 0.24,-0.02 0.35,-0.03l6.26,-0.35c0.2,-0.01 0.41,-0.01 0.61,-0.01h6.32c1.95,-0.07 3.5,-0.06 4.85,0.01c0.11,0.01 0.23,0.02 0.34,0.03c3.34,0.29 7.36,1.05 12.29,2.33c0.25,0.07 0.51,0.15 0.76,0.23c0.88,0.3 1.54,0.61 4.11,1.94c2.05,1.04 4.02,2.49 5.85,4.31c3.02,2.91 4.82,6.16 5.38,9.67c0,0.05 0.01,0.1 0.02,0.16c0.47,3.29 0.57,5.03 0.39,6.63z" fill="#00cccc" stroke="none" stroke-width="1" stroke-linecap="butt"/><path d="M261.04202,165.149c-0.76,3.988 -2.66,6.949 -5.697,8.884c-2.104,1.35 -5.26,2.375 -9.466,3.079c-5.144,0.88 -8.298,1.525 -9.466,1.936v4.573c0.175,1.878 0.292,5.484 0.35,10.819c0.058,3.577 0.379,6.48 0.962,8.708c0.058,0.118 0.495,0.118 1.311,0c1.106,-0.058 2.796,-0.205 5.069,-0.439c0.466,-0.117 1.165,-0.264 2.098,-0.44c1.631,-0.176 2.737,0.118 3.32,0.88c0.349,0.411 0.524,0.998 0.524,1.76c0,1.467 -0.659,2.346 -1.979,2.639c-1.319,0.294 -2.802,0.352 -4.442,0.176c-0.938,-0.116 -2.142,-0.088 -3.606,0.088c-2.111,0.235 -3.284,0.352 -3.519,0.352c-1.231,0.06 -3.24,0.295 -6.025,0.704c-2.785,0.409 -4.765,0.616 -5.937,0.616c-1.878,0 -3.227,-0.359 -4.047,-1.074c-0.703,-0.537 -0.851,-1.134 -0.439,-1.79c0.409,-0.836 0.88,-1.343 1.407,-1.521c1.173,-0.478 2.814,-0.717 4.926,-0.717c1.465,0 3.4,-0.174 5.806,-0.526c-0.118,-0.995 -0.147,-2.457 -0.088,-4.39c0,-0.467 -0.06,-1.171 -0.176,-2.108c0,-0.058 -0.044,-0.203 -0.133,-0.437c-0.088,-0.234 -0.132,-0.41 -0.132,-0.528c0,-2.166 -0.03,-3.482 -0.088,-3.951c-0.234,-0.819 -0.322,-2.369 -0.264,-4.653c0,-3.219 0,-5.003 0,-5.355c0,-0.352 -0.059,-0.717 -0.176,-1.098c-0.118,-0.379 -0.176,-0.6 -0.176,-0.658v-5.883c0,1.055 -0.235,-4.564 -0.704,-16.856c0,-0.409 -0.176,-0.731 -0.527,-0.966c-0.763,0.059 -1.95,0.264 -3.562,0.615c-1.613,0.352 -2.801,0.527 -3.562,0.527c-1.467,0 -2.639,-0.497 -3.519,-1.495c-0.059,-0.409 -0.088,-0.791 -0.088,-1.144c0,-0.527 0.176,-0.937 0.527,-1.231c1.29,-0.996 3.255,-1.612 5.894,-1.847c2.052,-0.117 4.135,-0.233 6.245,-0.352c0.293,0 0.704,0 1.231,0c0.528,0 0.909,0 1.144,0c0.469,0 1.848,0 4.135,0c1.641,-0.059 2.99,-0.059 4.046,0c2.696,0.234 6.187,0.909 10.468,2.022c0.176,0.06 1.055,0.499 2.639,1.319c1.055,0.528 2.111,1.319 3.166,2.375c1.289,1.231 2.023,2.405 2.199,3.519c0.293,2.051 0.41,3.341 0.351,3.868zM255.76503,163.955c-1.057,-5.008 -7.271,-7.542 -18.647,-7.602c-0.294,0 -0.734,0.178 -1.319,0.53c0,0.59 0.088,2.77 0.264,6.541c0.058,2.476 0.205,6.188 0.438,11.137c0.115,0 0.933,-0.088 2.452,-0.266c0.466,0 1.107,-0.088 1.925,-0.265c2.803,-0.471 5.634,-0.972 8.495,-1.503c3.443,-0.824 5.486,-2.68 6.129,-5.568c0.351,-1.237 0.439,-2.237 0.263,-3.004z" fill="#ffffff" stroke="none" stroke-width="1" stroke-linecap="butt"/><path d="M205.55305,201.01112c-0.01,0.06 -0.02,0.11 -0.02,0.16c-0.56,3.51 -2.36,6.76 -5.38,9.67c-1.83,1.82 -3.8,3.27 -5.85,4.31c-2.57,1.33 -3.23,1.64 -4.11,1.94c-0.25,0.08 -0.51,0.16 -0.76,0.23c-4.93,1.28 -8.95,2.04 -12.29,2.33c-0.11,0.01 -0.23,0.02 -0.34,0.03c-1.35,0.07 -2.9,0.08 -4.85,0.01h-6.32c-0.2,0 -0.41,0 -0.61,-0.01l-6.26,-0.35c-0.11,-0.01 -0.23,-0.02 -0.35,-0.03c-4.81,-0.43 -8.62,-1.77 -11.64,-4.1c-0.12,-0.09 -0.23,-0.18 -0.35,-0.28c-2.83,-2.37 -4.45,-5.89 -4.45,-9.66c0,-0.87 0.06,-1.78 0.2,-2.7c0.3,-2.12 1.22,-4.11 2.63,-5.71c2.33,-2.64 5.4,-4.35 8.84,-4.97c0.04,-0.83 0.07,-1.59 0.09,-2.27c0.06,-1.44 0.11,-2.53 0.15,-3.25c0.01,-0.27 0.03,-0.54 0.05,-0.8v-5.5c0,-1.09 0.16,-2.01 0.35,-2.8v-4.17c-0.06,-2.62 0.04,-4.59 0.33,-6.25v-0.01c-1.1,-0.23 -2.14,-0.53 -3.1,-0.91c-2.23,-0.84 -5.12,-2.65 -7.16,-6.55c-2.93,-5.29 -1.66,-11.68 3.15,-15.56c2.85,-2.36 6.55,-3.55 11.01,-3.55c1.76,0 4.08,0.22 7.53,0.73c3,0.44 4.32,0.56 4.83,0.59c0.58,0.02 1.49,0.1 4.43,0.43c0.56,0.06 0.89,0.07 1.06,0.07h0.06c2.84,-0.31 5.53,-0.18 8,0.37c6.34,1.41 10.6,6.79 10.6,13.38c0,4.11 -1.58,6.96 -2.97,8.67c-1.53,1.9 -4.75,4.8 -10.36,5.01c-0.02,1.19 -0.05,2.28 -0.08,3.26c0.02,0 0.04,0 0.06,0.01c5.74,0.96 10.19,2.49 13.56,4.65c5.6,3.57 9.26,9.13 10.59,16.1c0.05,0.28 0.09,0.56 0.12,0.85c0.18,1.6 0.08,3.34 -0.39,6.63z" data-paper-data="{&quot;index&quot;:null}" fill="#00cccc" stroke="none" stroke-width="1" stroke-linecap="butt"/><path d="M194.66402,199.45812c-0.176,1.114 -0.91,2.288 -2.199,3.519c-1.055,1.056 -2.111,1.847 -3.166,2.375c-1.584,0.82 -2.463,1.259 -2.639,1.319c-4.281,1.113 -7.772,1.788 -10.468,2.022c-1.056,0.059 -2.405,0.059 -4.046,0c-2.287,0 -3.666,0 -4.135,0c-0.235,0 -0.616,0 -1.144,0c-0.527,0 -0.938,0 -1.231,0c-2.11,-0.119 -4.193,-0.235 -6.245,-0.352c-2.639,-0.235 -4.604,-0.851 -5.894,-1.847c-0.351,-0.294 -0.527,-0.704 -0.527,-1.231c0,-0.353 0.029,-0.735 0.088,-1.144c0.88,-0.998 2.052,-1.495 3.519,-1.495c0.761,0 1.949,0.175 3.562,0.527c1.612,0.351 2.799,0.556 3.562,0.615c0.351,-0.235 0.527,-0.557 0.527,-0.966c0.469,-12.292 0.704,-17.911 0.704,-16.856v-5.883c0,-0.058 0.058,-0.279 0.176,-0.658c0.117,-0.381 0.176,-0.746 0.176,-1.098c0,-0.352 0,-2.136 0,-5.355c-0.058,-2.284 0.03,-3.834 0.264,-4.653c0.058,-0.469 0.088,-1.785 0.088,-3.951c0,-0.118 0.044,-0.294 0.132,-0.528c0.089,-0.234 0.133,-0.379 0.133,-0.437c0.116,-0.937 0.176,-1.641 0.176,-2.108c-0.059,-1.933 -0.03,-3.395 0.088,-4.39c-2.406,-0.352 -4.341,-0.526 -5.806,-0.526c-2.112,0 -3.753,-0.239 -4.926,-0.717c-0.527,-0.178 -0.998,-0.685 -1.407,-1.521c-0.412,-0.656 -0.264,-1.253 0.439,-1.79c0.82,-0.715 2.169,-1.074 4.047,-1.074c1.172,0 3.152,0.207 5.937,0.616c2.785,0.409 4.794,0.644 6.025,0.704c0.235,0 1.408,0.117 3.519,0.352c1.464,0.176 2.668,0.204 3.606,0.088c1.64,-0.176 3.123,-0.118 4.442,0.176c1.32,0.293 1.979,1.172 1.979,2.639c0,0.762 -0.175,1.349 -0.524,1.76c-0.583,0.762 -1.689,1.056 -3.32,0.88c-0.933,-0.176 -1.632,-0.323 -2.098,-0.44c-2.273,-0.234 -3.963,-0.381 -5.069,-0.439c-0.816,-0.118 -1.253,-0.118 -1.311,0c-0.583,2.228 -0.904,5.131 -0.962,8.708c-0.058,5.335 -0.175,8.941 -0.35,10.819v4.573c1.168,0.411 4.322,1.056 9.466,1.936c4.206,0.704 7.362,1.729 9.466,3.079c3.037,1.935 4.937,4.896 5.697,8.884c0.059,0.527 -0.058,1.817 -0.351,3.868zM189.47505,193.78012c-0.643,-2.888 -2.686,-4.744 -6.129,-5.568c-2.861,-0.531 -5.692,-1.032 -8.495,-1.503c-0.818,-0.177 -1.459,-0.265 -1.925,-0.265c-1.519,-0.178 -2.337,-0.266 -2.452,-0.266c-0.233,4.949 -0.38,8.661 -0.438,11.137c-0.176,3.771 -0.264,5.951 -0.264,6.541c0.585,0.352 1.025,0.53 1.319,0.53c11.376,-0.06 17.59,-2.594 18.647,-7.602c0.176,-0.767 0.088,-1.767 -0.263,-3.004z" data-paper-data="{&quot;index&quot;:null}" fill="#ffffff" stroke="none" stroke-width="1" stroke-linecap="butt"/><path d="M175.7082,155.51289l19.92743,1.97421" fill="none" stroke="#ffffff" stroke-width="5" stroke-linecap="round"/><path d="M333.86204,174.884v4.84c0,2.87 -0.5,6.95 -1.57,12.84c-0.44,2.74 -1.28,5.56 -2.49,8.39c-0.02,0.04 -0.04,0.07 -0.05,0.11c-2.15,4.85 -5.69,9.08 -10.53,12.57c-5.16,3.71 -10.5,5.59 -15.89,5.59c-2.18,0 -4.26,-0.34 -6.21,-1c-6.91,-2.23 -12.37,-6.47 -16.22,-12.6c-0.83,-1.35 -1.65,-3.02 -2.67,-5.46c-0.02,-0.06 -0.04,-0.11 -0.07,-0.17c-1.26,-3.16 -1.93,-5.69 -2.11,-7.97c-0.03,-0.39 -0.14,-1.33 -0.5,-3.17c-0.13,-0.69 -0.2,-1.39 -0.2,-2.09v-4.28c-0.44,-1.69 -0.48,-3.5 -0.05,-5.29c0.16,-0.69 0.39,-1.36 0.67,-1.98c0,-1.22 0.21,-2.44 0.61,-3.6c0.11,-0.5 0.26,-0.99 0.44,-1.48c0.01,-0.01 0.19,-0.52 0.44,-1.93c0.3,-1.73 0.86,-3.96 1.7,-6.77c0.01,-0.03 0.02,-0.07 0.03,-0.1c1.63,-5.24 4.92,-10.21 10.06,-15.19c0.04,-0.04 0.07,-0.07 0.11,-0.1c2.6,-2.46 5.6,-4.02 8.92,-4.66c0.6,-0.11 1.21,-0.17 1.83,-0.19c0.38,-0.01 1.39,-0.07 3.04,-0.16c0.06,0 0.12,-0.01 0.18,-0.01c4.87,-0.2 9.48,0.84 13.75,3.07c4.93,2.52 8.83,6.31 11.6,11.27c1.31,2.35 2.43,5.2 3.43,8.74c1.17,4.01 1.75,7.54 1.75,10.78z" fill="#00cccc" stroke="none" stroke-width="1" stroke-linecap="butt"/><path d="M322.85902,179.725c0,2.17 -0.471,5.836 -1.408,10.995c-0.293,1.877 -0.879,3.842 -1.76,5.894c-1.35,3.05 -3.65,5.748 -6.904,8.093c-3.255,2.345 -6.407,3.518 -9.456,3.518c-0.997,0 -1.906,-0.146 -2.727,-0.439c-4.457,-1.407 -7.916,-4.075 -10.379,-8.005c-0.471,-0.761 -1.086,-2.052 -1.848,-3.87c-0.821,-2.052 -1.275,-3.635 -1.363,-4.75c-0.088,-1.113 -0.308,-2.579 -0.66,-4.397v-6.51c0.234,-0.116 0.117,-0.292 -0.352,-0.527h0.528c0,-0.293 0.116,-0.85 0.352,-1.671c0.233,-0.821 0.352,-1.437 0.352,-1.848c0,-0.352 -0.088,-0.674 -0.264,-0.968c0.233,0 0.439,-0.088 0.615,-0.264c-0.059,-0.117 -0.206,-0.176 -0.439,-0.176c0.058,-0.058 0.161,-0.146 0.308,-0.264c0.146,-0.117 0.249,-0.205 0.309,-0.264c-0.06,-0.059 -0.132,-0.103 -0.221,-0.133c-0.088,-0.028 -0.162,-0.072 -0.22,-0.132c0.353,-0.938 0.674,-2.228 0.968,-3.87c0.233,-1.348 0.704,-3.195 1.407,-5.541c1.056,-3.4 3.46,-6.919 7.213,-10.556c1.056,-0.996 2.199,-1.612 3.431,-1.847c0.176,0 1.319,-0.059 3.431,-0.177c2.932,-0.116 5.687,0.499 8.268,1.848c2.992,1.525 5.336,3.812 7.037,6.861c0.881,1.583 1.701,3.724 2.463,6.421c0.881,2.99 1.32,5.571 1.32,7.74v4.839zM317.05403,169.962c-0.35,-0.82 -0.76,-1.876 -1.227,-3.167c-0.586,-2.639 -2.325,-5.071 -5.217,-7.301c-2.893,-2.228 -5.566,-3.224 -8.021,-2.99c-1.11,0.118 -2.981,1.966 -5.612,5.542c-1.286,1.701 -2.571,5.102 -3.856,10.203c-1.169,4.75 -1.725,8.415 -1.665,10.995c0.116,3.284 0.292,5.571 0.526,6.86c0.408,2.405 1.285,4.604 2.629,6.598c1.286,1.759 2.28,2.902 2.981,3.431c2.629,1.877 5.112,2.814 7.451,2.814c0.525,0 1.022,-0.058 1.49,-0.176c1.11,-0.176 2.424,-0.908 3.944,-2.199c1.286,-1.173 2.25,-2.257 2.894,-3.255c0.876,-1.465 1.695,-3.664 2.455,-6.597c1.168,-4.28 1.754,-8.825 1.754,-13.634c0.002,-2.579 -0.174,-4.954 -0.526,-7.124z" fill="#ffffff" stroke="none" stroke-width="1" stroke-linecap="butt"/><path d="M392.31003,191.25c-0.7,7.55 -2.97,13.28 -6.92,17.45c-2.3,2.43 -5.71,4.35 -11.39,6.39c-0.11,0.04 -0.23,0.08 -0.35,0.12c-2.72,0.87 -5.69,1.32 -8.82,1.32c-4.77,0 -9.2,-0.94 -13.17,-2.79c-5.87,-2.74 -8.79,-6.57 -10.24,-9.8c-0.21,-0.35 -0.43,-0.71 -0.64,-1.1c-0.6,-1.09 -1.02,-2.27 -1.22,-3.5c-0.29,-1.72 -0.75,-4.31 -1.38,-7.75c-0.12,-0.66 -0.18,-1.32 -0.18,-1.99v-8.7c0,-1.08 0.09,-2.66 0.74,-6.94c0.63,-4.19 0.9,-5.49 1.4,-6.77c1.31,-3.49 5.23,-13.75 14.73,-15.78c3.12,-0.66 6.63,-0.75 9.95,-0.39c2.35,-3.77 6.55,-6.02 11.32,-6.02c8.28,0 12.86,5.46 13.72,10.86c0.09,0.57 0.13,1.15 0.13,1.73v13.89c0,0.01 0,0.02 0,0.02c0,0.01 0,0.01 0,0.02c0,0 0,0 0,0.01c0,0.91 -0.12,1.78 -0.32,2.63c1.93,2.19 3,4.89 3.05,7.78c0.06,2.9 -0.08,6.04 -0.41,9.31z" fill="#00cccc" stroke="none" stroke-width="1" stroke-linecap="butt"/><path d="M381.71903,182.128c0.057,2.463 -0.059,5.132 -0.352,8.004c-0.471,5.044 -1.789,8.708 -3.959,10.995c-0.998,1.056 -3.372,2.258 -7.124,3.606c-1.643,0.528 -3.461,0.792 -5.454,0.792c-3.166,0 -6.011,-0.586 -8.532,-1.76c-2.757,-1.289 -4.457,-2.96 -5.102,-5.014c-0.234,-0.293 -0.499,-0.703 -0.791,-1.231c-0.295,-1.759 -0.763,-4.397 -1.408,-7.916v-8.708c0,-0.821 0.205,-2.58 0.616,-5.278c0.409,-2.696 0.674,-4.191 0.792,-4.485c2.052,-5.454 4.31,-8.444 6.772,-8.973c1.113,-0.233 2.345,-0.352 3.694,-0.352c4.339,0 8.269,1.056 11.787,3.167c0.233,0.118 0.527,0.176 0.879,0.176c0.059,-0.176 0.117,-0.908 0.177,-2.199c0.058,0 0.058,-1.025 0,-3.078c-0.06,-1.408 0.079,-2.404 0.416,-2.991c0.335,-0.585 1.008,-0.88 2.014,-0.88c1.73,0 2.68,0.528 2.848,1.584c0,0.059 0,2.229 0,6.509c0,3.226 0,5.249 0,6.069c0,0.998 0,1.438 0,1.319c-0.236,0.88 -0.646,1.407 -1.232,1.583c-1.582,0.528 -2.668,0.559 -3.254,0.088c-0.294,0 -0.615,-0.088 -0.968,-0.264c-0.294,-0.82 -0.938,-1.904 -1.935,-3.254c-1.35,-1.113 -3.109,-2.081 -5.277,-2.903c-2.171,-0.82 -4.018,-1.231 -5.542,-1.231c-1.936,0 -3.489,1.495 -4.662,4.486c-1.643,4.105 -2.375,9.411 -2.199,15.921c0.117,2.874 0.205,4.692 0.265,5.453c0.292,2.405 0.938,4.457 1.935,6.157c0.704,1.174 1.788,2.142 3.255,2.903c1.465,0.763 2.902,1.173 4.31,1.231c6.979,0.294 11.053,-2.785 12.228,-9.236c0.645,-3.459 0.703,-6.362 0.176,-8.708c-0.119,-0.469 -0.061,-1.1 0.176,-1.892c0.232,-0.791 1.26,-1.275 3.078,-1.451c0.41,0 0.908,0.191 1.496,0.572c0.582,0.384 0.877,0.779 0.877,1.189z" fill="#ffffff" stroke="none" stroke-width="1" stroke-linecap="butt"/><text transform="translate(103.05004,240.01875) scale(0.60834,0.60834)" font-size="40" xml:space="preserve" fill="#ffffff" fill-rule="nonzero" stroke="none" stroke-width="1" stroke-linecap="butt" stroke-linejoin="miter" stroke-miterlimit="10" stroke-dasharray="" stroke-dashoffset="0" font-family="Sans Serif" font-weight="normal" text-anchor="start" style="mix-blend-mode: normal"><tspan x="0" dy="0">Если что то сломалось</tspan></text></g></g></svg>