<svg version="1.1" xmlns="http://www.w3.org/2000/svg" xmlns:xlink="http://www.w3.org/1999/xlink" width="63" height="74.15625" viewBox="0,0,63,74.15625"><g transform="translate(-208.5,-140.94375)"><g data-paper-data="{&quot;isPaintingLayer&quot;:true}" fill-rule="nonzero" stroke="none" stroke-linecap="butt" stroke-linejoin="miter" stroke-miterlimit="10" stroke-dasharray="" stroke-dashoffset="0" style="mix-blend-mode: normal"><path d="M208.5,180c0,-15.73039 5.94574,-26.60142 15.84237,-32.6133c4.69689,-2.85321 12.05845,-0.3867 17.65763,-0.3867c5.71773,0 9.97163,-3.40088 14.44896,-0.4303c9.14558,6.06784 15.05104,17.85797 15.05104,33.4303c0,13.2622 -4.61019,22.47356 -11.81035,27.93085c-5.39312,4.08767 -11.23933,1.06915 -18.68965,1.06915c-6.67123,0 -13.85809,3.41127 -18.95106,0.14426c-8.18826,-5.25256 -13.54894,-14.84328 -13.54894,-29.14426z" fill="#00cccc" stroke-width="0"/><text transform="translate(218.91,162.69375) scale(0.5,0.5)" font-size="40" xml:space="preserve" fill="#ffffff" fill-rule="nonzero" stroke="none" stroke-width="1" stroke-linecap="butt" stroke-linejoin="miter" stroke-miterlimit="10" stroke-dasharray="" stroke-dashoffset="0" font-family="Sans Serif" font-weight="normal" text-anchor="start" style="mix-blend-mode: normal"><tspan x="0" dy="0">Слу</tspan><tspan x="0" dy="46.150000000000006px">чай</tspan><tspan x="0" dy="46.150000000000006px">ный</tspan></text></g></g></svg>