<svg version="1.1" xmlns="http://www.w3.org/2000/svg" xmlns:xlink="http://www.w3.org/1999/xlink" width="64.05401" height="79.47777" viewBox="0,0,64.05401,79.47777"><g transform="translate(-207.973,-140.26112)"><g data-paper-data="{&quot;isPaintingLayer&quot;:true}" fill-rule="nonzero" stroke-linejoin="miter" stroke-miterlimit="10" stroke-dasharray="" stroke-dashoffset="0" style="mix-blend-mode: normal"><path d="M246.83593,146.5625c0.11854,-0.02963 0.23683,-0.05893 0.35488,-0.08787c1.7562,-0.94099 3.76334,-1.47463 5.89512,-1.47463c0.79893,0 1.58035,0.07495 2.33761,0.21821c4.78028,-0.09877 9.14349,1.28122 13.20926,5.55523c4.25118,4.46892 1.45565,16.31097 -4.34528,18.4069c-4.80851,1.73736 -5.1934,0.60996 -8.70159,1.19466c-7.20163,1.20027 -12.29165,2.12997 -19.59017,0.30534c-2.41256,-0.60314 -3.66214,-3.61125 -5.81153,-4.15576c-7.44955,-1.88722 -15.5983,-3.25846 -15.5983,-13.52458c0,-2.49528 0.71512,-5.06005 1.95313,-7.22656c4.46349,-7.81111 15.72857,-5.01385 22.2938,-2.93867c0.2455,0.0776 4.2691,1.34447 5.24078,2.18366c0.68551,0.59203 1.35776,2.19026 2.42661,1.83397z" fill="#00cccc" stroke="none" stroke-width="0.5" stroke-linecap="butt"/><path d="M271.553,201.01112c-0.01,0.06 -0.02,0.11 -0.02,0.16c-0.56,3.51 -2.36,6.76 -5.38,9.67c-1.83,1.82 -3.8,3.27 -5.85,4.31c-2.57,1.33 -3.23,1.64 -4.11,1.94c-0.25,0.08 -0.51,0.16 -0.76,0.23c-4.93,1.28 -8.95,2.04 -12.29,2.33c-0.11,0.01 -0.23,0.02 -0.34,0.03c-1.35,0.07 -2.9,0.08 -4.85,0.01h-6.32c-0.2,0 -0.41,0 -0.61,-0.01l-6.26,-0.35c-0.11,-0.01 -0.23,-0.02 -0.35,-0.03c-4.81,-0.43 -8.62,-1.77 -11.64,-4.1c-0.12,-0.09 -0.23,-0.18 -0.35,-0.28c-2.83,-2.37 -4.45,-5.89 -4.45,-9.66c0,-0.87 0.06,-1.78 0.2,-2.7c0.3,-2.12 1.22,-4.11 2.63,-5.71c2.33,-2.64 5.4,-4.35 8.84,-4.97c0.04,-0.83 0.07,-1.59 0.09,-2.27c0.06,-1.44 0.11,-2.53 0.15,-3.25c0.01,-0.27 0.03,-0.54 0.05,-0.8v-5.5c0,-1.09 0.16,-2.01 0.35,-2.8v-4.17c-0.06,-2.62 0.04,-4.59 0.33,-6.25v-0.01c-1.1,-0.23 -2.14,-0.53 -3.1,-0.91c-2.23,-0.84 -5.12,-2.65 -7.16,-6.55c-2.93,-5.29 -1.66,-11.68 3.15,-15.56c2.85,-2.36 6.55,-3.55 11.01,-3.55c1.76,0 4.08,0.22 7.53,0.73c3,0.44 4.32,0.56 4.83,0.59c0.58,0.02 1.49,0.1 4.43,0.43c0.56,0.06 0.89,0.07 1.06,0.07h0.06c2.84,-0.31 5.53,-0.18 8,0.37c6.34,1.41 10.6,6.79 10.6,13.38c0,4.11 -1.58,6.96 -2.97,8.67c-1.53,1.9 -4.75,4.8 -10.36,5.01c-0.02,1.19 -0.05,2.28 -0.08,3.26c0.02,0 0.04,0 0.06,0.01c5.74,0.96 10.19,2.49 13.56,4.65c5.6,3.57 9.26,9.13 10.59,16.1c0.05,0.28 0.09,0.56 0.12,0.85c0.18,1.6 0.08,3.34 -0.39,6.63z" data-paper-data="{&quot;index&quot;:null}" fill="#00cccc" stroke="none" stroke-width="1" stroke-linecap="butt"/><path d="M260.66399,199.45812c-0.176,1.114 -0.91,2.288 -2.199,3.519c-1.055,1.056 -2.111,1.847 -3.166,2.375c-1.584,0.82 -2.463,1.259 -2.639,1.319c-4.281,1.113 -7.772,1.788 -10.468,2.022c-1.056,0.059 -2.405,0.059 -4.046,0c-2.287,0 -3.666,0 -4.135,0c-0.235,0 -0.616,0 -1.144,0c-0.527,0 -0.938,0 -1.231,0c-2.11,-0.119 -4.193,-0.235 -6.245,-0.352c-2.639,-0.235 -4.604,-0.851 -5.894,-1.847c-0.351,-0.294 -0.527,-0.704 -0.527,-1.231c0,-0.353 0.029,-0.735 0.088,-1.144c0.88,-0.998 2.052,-1.495 3.519,-1.495c0.761,0 1.949,0.175 3.562,0.527c1.612,0.351 2.799,0.556 3.562,0.615c0.351,-0.235 0.527,-0.557 0.527,-0.966c0.469,-12.292 0.704,-17.911 0.704,-16.856v-5.883c0,-0.058 0.058,-0.279 0.176,-0.658c0.117,-0.381 0.176,-0.746 0.176,-1.098c0,-0.352 0,-2.136 0,-5.355c-0.058,-2.284 0.03,-3.834 0.264,-4.653c0.058,-0.469 0.088,-1.785 0.088,-3.951c0,-0.118 0.044,-0.294 0.132,-0.528c0.089,-0.234 0.133,-0.379 0.133,-0.437c0.116,-0.937 0.176,-1.641 0.176,-2.108c-0.059,-1.933 -0.03,-3.395 0.088,-4.39c-2.406,-0.352 -4.341,-0.526 -5.806,-0.526c-2.112,0 -3.753,-0.239 -4.926,-0.717c-0.527,-0.178 -0.998,-0.685 -1.407,-1.521c-0.412,-0.656 -0.264,-1.253 0.439,-1.79c0.82,-0.715 2.169,-1.074 4.047,-1.074c1.172,0 3.152,0.207 5.937,0.616c2.785,0.409 4.794,0.644 6.025,0.704c0.235,0 1.408,0.117 3.519,0.352c1.464,0.176 2.668,0.204 3.606,0.088c1.64,-0.176 3.123,-0.118 4.442,0.176c1.32,0.293 1.979,1.172 1.979,2.639c0,0.762 -0.175,1.349 -0.524,1.76c-0.583,0.762 -1.689,1.056 -3.32,0.88c-0.933,-0.176 -1.632,-0.323 -2.098,-0.44c-2.273,-0.234 -3.963,-0.381 -5.069,-0.439c-0.816,-0.118 -1.253,-0.118 -1.311,0c-0.583,2.228 -0.904,5.131 -0.962,8.708c-0.058,5.335 -0.175,8.941 -0.35,10.819v4.573c1.168,0.411 4.322,1.056 9.466,1.936c4.206,0.704 7.362,1.729 9.466,3.079c3.037,1.935 4.937,4.896 5.697,8.884c0.059,0.527 -0.058,1.817 -0.351,3.868zM255.475,193.78012c-0.643,-2.888 -2.686,-4.744 -6.129,-5.568c-2.861,-0.531 -5.692,-1.032 -8.495,-1.503c-0.818,-0.177 -1.459,-0.265 -1.925,-0.265c-1.519,-0.178 -2.337,-0.266 -2.452,-0.266c-0.233,4.949 -0.38,8.661 -0.438,11.137c-0.176,3.771 -0.264,5.951 -0.264,6.541c0.585,0.352 1.025,0.53 1.319,0.53c11.376,-0.06 17.59,-2.594 18.647,-7.602c0.176,-0.767 0.088,-1.767 -0.263,-3.004z" data-paper-data="{&quot;index&quot;:null}" fill="#ffffff" stroke="none" stroke-width="1" stroke-linecap="butt"/><path d="M261.63558,157.4871l-19.92743,-1.97421" fill="none" stroke="#ffffff" stroke-width="5" stroke-linecap="round"/></g></g></svg>