<svg version="1.1" xmlns="http://www.w3.org/2000/svg" xmlns:xlink="http://www.w3.org/1999/xlink" width="492.69497" height="516.77531"><g transform="translate(-180.73657,-49.71561)"><g data-paper-data="{&quot;isPaintingLayer&quot;:true}" fill="none" fill-rule="nonzero" stroke="none" stroke-width="0" stroke-linecap="butt" stroke-linejoin="miter" stroke-miterlimit="10" stroke-dasharray="" stroke-dashoffset="0" font-family="none" font-weight="none" font-size="none" text-anchor="none" style="mix-blend-mode: normal"><path d="M252.04188,566.49092l-4.89399,-25.38004l5.07601,-0.9788l4.894,25.38003z" data-paper-data="{&quot;origPos&quot;:null,&quot;origRot&quot;:0}" fill="#d3bb76" stroke="none"/><path d="M261.01149,564.46884l-4.894,-25.38004l5.07601,-0.9788l4.89399,25.38003z" data-paper-data="{&quot;origPos&quot;:null,&quot;origRot&quot;:0}" fill="#d3bb76" stroke="none"/><path d="M259.42855,544.37802l-1.08754,-5.63999l12.69001,-2.44701l1.08756,5.64001z" data-paper-data="{&quot;origPos&quot;:null,&quot;origRot&quot;:0}" fill="#d3bb76" stroke="none"/><path d="M210.31251,419.21845l-3.18446,-77.4995l436.99238,-0.69295l3.18446,77.4995z" data-paper-data="{&quot;origPos&quot;:null,&quot;origRot&quot;:0,&quot;index&quot;:null}" fill="#a1937c" stroke="none"/><path d="M209.46475,386.77442c0,0 -0.62147,-34.13344 -1.02616,-56.3609c-0.14841,-8.15123 -0.3911,-21.48073 -0.3911,-21.48073l457.71367,-1.63803c0,0 7.47363,11.88163 0.31995,20.38337c-5.35773,6.36739 -12.00696,14.44097 -11.88938,20.89897c0.16584,9.10864 3.64295,12.81274 5.149,21.90529c0.91636,5.53221 -3.09742,15.58451 -3.09742,15.58451z" data-paper-data="{&quot;origPos&quot;:null,&quot;origRot&quot;:0,&quot;index&quot;:null}" fill="#a1937c" stroke="#000000"/><path d="M206.13446,314.9901l-0.2867,-15.7466l465.80612,-1.66699l0.2867,15.7466z" data-paper-data="{&quot;origPos&quot;:null,&quot;origRot&quot;:0,&quot;index&quot;:null}" fill="#706756" stroke="#000000"/><path d="M195.1841,311.7578l-0.27037,-14.84965c0,0 208.97194,-0.74786 342.72465,-1.22652c52.88951,-0.18927 135.52279,-0.485 135.52279,-0.485l0.27037,14.84965z" data-paper-data="{&quot;origPos&quot;:null,&quot;origRot&quot;:0,&quot;index&quot;:null}" fill="#8b7f6b" stroke="#000000"/><path d="M619.00002,321.92227v87.83563h-371v-87.83563z" data-paper-data="{&quot;origPos&quot;:null,&quot;index&quot;:null}" fill="#a1937c" stroke="none"/><g data-paper-data="{&quot;origPos&quot;:null,&quot;origRot&quot;:0,&quot;index&quot;:null}" stroke="none"><path d="M186.53218,236.42071l-0.32055,-182.88023l37.23047,-3.82487l0.07439,187.14466z" data-paper-data="{&quot;origPos&quot;:null,&quot;origRot&quot;:0}" fill="#d3bb76"/><path d="M187.31885,103.45047l0.23726,-40.11962l36.76034,0.21741l-0.23727,40.11961z" data-paper-data="{&quot;origPos&quot;:null,&quot;origRot&quot;:0}" fill="#b9a568"/><path d="M181.88542,99.48601l0.22011,-37.21835l47.96077,0.28364l-0.2201,37.21836z" data-paper-data="{&quot;origPos&quot;:null,&quot;origRot&quot;:0}" fill="#e7cd81"/><path d="M218.68184,93.61036l0.15286,-25.84713l5.16943,0.03057l-0.15285,25.84712z" data-paper-data="{&quot;origPos&quot;:null,&quot;origRot&quot;:0}" fill="#d3bb76"/><path d="M188.52856,93.1448l0.15285,-25.84713l5.16942,0.03057l-0.15285,25.84714z" data-paper-data="{&quot;origPos&quot;:null,&quot;origRot&quot;:0}" fill="#d3bb76"/><path d="M209.49344,93.26877l0.15285,-25.84714l5.16942,0.03057l-0.15285,25.84713z" data-paper-data="{&quot;origPos&quot;:null,&quot;origRot&quot;:0}" fill="#d3bb76"/><path d="M197.43145,93.19742l0.15285,-25.84713l5.16942,0.03057l-0.15285,25.84713z" data-paper-data="{&quot;origPos&quot;:null,&quot;origRot&quot;:0}" fill="#d3bb76"/><path d="M200.35245,93.00414l0.03397,-5.7438l12.92357,0.07644l-0.03396,5.74379z" data-paper-data="{&quot;origPos&quot;:null,&quot;origRot&quot;:0}" fill="#d3bb76"/><path d="M199.60808,73.18286l0.03396,-5.74381l12.92357,0.07644l-0.03397,5.7438z" data-paper-data="{&quot;origPos&quot;:null,&quot;origRot&quot;:0}" fill="#d3bb76"/><path d="M186.87213,179.46195l0.38129,-64.47422l37.33473,0.2208l-0.38129,64.47422z" data-paper-data="{&quot;origPos&quot;:null,&quot;origRot&quot;:0}" fill="#b9a568"/><path d="M182.01389,175.36931l0.38343,-64.83321l47.96077,0.28365l-0.38343,64.83321z" data-paper-data="{&quot;origPos&quot;:null,&quot;origRot&quot;:0}" fill="#e7cd81"/><path d="M217.54057,165.65667l0.28025,-47.38639l5.16942,0.03056l-0.28025,47.38638z" data-paper-data="{&quot;origPos&quot;:null,&quot;origRot&quot;:0}" fill="#b9a568"/><path d="M217.54873,164.27818l0.28024,-47.38639l5.16942,0.03057l-0.28025,47.38638z" data-paper-data="{&quot;origPos&quot;:null,&quot;origRot&quot;:0}" fill="#d3bb76"/><path d="M197.81068,121.82235l0.02956,-4.99711l24.98555,0.14777l-0.02957,4.9971z" data-paper-data="{&quot;origPos&quot;:null,&quot;origRot&quot;:0}" fill="#d3bb76"/><path d="M197.60718,156.2335l0.23133,-39.11532l5.16943,0.03057l-0.23133,39.11532z" data-paper-data="{&quot;origPos&quot;:null,&quot;origRot&quot;:0}" fill="#d3bb76"/><path d="M207.60037,156.46494l0.16102,-27.22565l5.16943,0.03057l-0.16101,27.22564z" data-paper-data="{&quot;origPos&quot;:null,&quot;origRot&quot;:0}" fill="#d3bb76"/><path d="M197.77818,156.45852l0.03261,-5.51406l14.81903,0.08764l-0.03261,5.51406z" data-paper-data="{&quot;origPos&quot;:null,&quot;origRot&quot;:0}" fill="#d3bb76"/><path d="M188.75874,166.39977l0.02956,-4.99711l33.94589,0.20076l-0.02956,4.99711z" data-paper-data="{&quot;origPos&quot;:null,&quot;origRot&quot;:0}" fill="#d3bb76"/><path d="M187.8975,166.34295l0.29247,-49.45416l5.16942,0.03057l-0.29249,49.45416z" data-paper-data="{&quot;origPos&quot;:null,&quot;origRot&quot;:0}" fill="#d3bb76"/><path d="M186.73311,227.25369l0.23726,-40.11962l36.76035,0.2174l-0.23727,40.11962z" data-paper-data="{&quot;origPos&quot;:null,&quot;origRot&quot;:0}" fill="#b9a568"/><path d="M181.29973,223.2891l0.2201,-37.21836l47.96077,0.28365l-0.22011,37.21835z" data-paper-data="{&quot;origPos&quot;:null,&quot;origRot&quot;:0}" fill="#e7cd81"/><path d="M218.09607,217.41343l0.15286,-25.84713l5.16943,0.03057l-0.15285,25.84714z" data-paper-data="{&quot;origPos&quot;:null,&quot;origRot&quot;:0}" fill="#d3bb76"/><path d="M187.94282,216.94789l0.15286,-25.84713l5.16942,0.03056l-0.15286,25.84714z" data-paper-data="{&quot;origPos&quot;:null,&quot;origRot&quot;:0}" fill="#d3bb76"/><path d="M208.9077,217.0719l0.15285,-25.84713l5.16943,0.03057l-0.15286,25.84713z" data-paper-data="{&quot;origPos&quot;:null,&quot;origRot&quot;:0}" fill="#d3bb76"/><path d="M196.84573,217.00057l0.15285,-25.84713l5.16942,0.03057l-0.15285,25.84714z" data-paper-data="{&quot;origPos&quot;:null,&quot;origRot&quot;:0}" fill="#d3bb76"/><path d="M199.02234,196.98599l0.03397,-5.74381l12.92356,0.07645l-0.03396,5.74379z" data-paper-data="{&quot;origPos&quot;:null,&quot;origRot&quot;:0}" fill="#d3bb76"/></g><g data-paper-data="{&quot;origPos&quot;:null,&quot;origRot&quot;:0,&quot;index&quot;:null}" stroke="none"><path d="M185.96902,413.43105l-0.32055,-182.88023l37.23047,-3.82487l0.07439,187.14466z" data-paper-data="{&quot;origPos&quot;:null,&quot;origRot&quot;:0}" fill="#d3bb76"/><path d="M186.75568,280.46081l0.23726,-40.11962l36.76034,0.21741l-0.23727,40.11961z" data-paper-data="{&quot;origPos&quot;:null,&quot;origRot&quot;:0}" fill="#b9a568"/><path d="M181.32227,276.49634l0.22011,-37.21835l47.96077,0.28364l-0.2201,37.21836z" data-paper-data="{&quot;origPos&quot;:null,&quot;origRot&quot;:0}" fill="#e7cd81"/><path d="M218.11866,270.62067l0.15286,-25.84713l5.16943,0.03057l-0.15285,25.84712z" data-paper-data="{&quot;origPos&quot;:null,&quot;origRot&quot;:0}" fill="#d3bb76"/><path d="M187.96538,270.15513l0.15285,-25.84713l5.16942,0.03057l-0.15285,25.84714z" data-paper-data="{&quot;origPos&quot;:null,&quot;origRot&quot;:0}" fill="#d3bb76"/><path d="M208.93027,270.27913l0.15285,-25.84714l5.16942,0.03057l-0.15285,25.84713z" data-paper-data="{&quot;origPos&quot;:null,&quot;origRot&quot;:0}" fill="#d3bb76"/><path d="M196.8683,270.20774l0.15285,-25.84713l5.16942,0.03057l-0.15285,25.84713z" data-paper-data="{&quot;origPos&quot;:null,&quot;origRot&quot;:0}" fill="#d3bb76"/><path d="M199.78928,270.01446l0.03397,-5.7438l12.92357,0.07644l-0.03396,5.74379z" data-paper-data="{&quot;origPos&quot;:null,&quot;origRot&quot;:0}" fill="#d3bb76"/><path d="M199.04493,250.19318l0.03396,-5.74381l12.92357,0.07644l-0.03397,5.7438z" data-paper-data="{&quot;origPos&quot;:null,&quot;origRot&quot;:0}" fill="#d3bb76"/><path d="M186.30897,356.47233l0.38129,-64.47422l37.33473,0.2208l-0.38129,64.47422z" data-paper-data="{&quot;origPos&quot;:null,&quot;origRot&quot;:0}" fill="#b9a568"/><path d="M181.45073,352.37965l0.38343,-64.83321l47.96077,0.28365l-0.38343,64.83321z" data-paper-data="{&quot;origPos&quot;:null,&quot;origRot&quot;:0}" fill="#e7cd81"/><path d="M216.97741,342.66706l0.28025,-47.38639l5.16942,0.03056l-0.28025,47.38638z" data-paper-data="{&quot;origPos&quot;:null,&quot;origRot&quot;:0}" fill="#b9a568"/><path d="M216.98558,341.28856l0.28024,-47.38639l5.16942,0.03057l-0.28025,47.38638z" data-paper-data="{&quot;origPos&quot;:null,&quot;origRot&quot;:0}" fill="#d3bb76"/><path d="M197.24752,298.83271l0.02956,-4.99711l24.98555,0.14777l-0.02957,4.9971z" data-paper-data="{&quot;origPos&quot;:null,&quot;origRot&quot;:0}" fill="#d3bb76"/><path d="M197.04401,333.24384l0.23133,-39.11532l5.16943,0.03057l-0.23133,39.11532z" data-paper-data="{&quot;origPos&quot;:null,&quot;origRot&quot;:0}" fill="#d3bb76"/><path d="M207.03722,333.4753l0.16102,-27.22565l5.16943,0.03057l-0.16101,27.22564z" data-paper-data="{&quot;origPos&quot;:null,&quot;origRot&quot;:0}" fill="#d3bb76"/><path d="M197.21502,333.46889l0.03261,-5.51406l14.81903,0.08764l-0.03261,5.51406z" data-paper-data="{&quot;origPos&quot;:null,&quot;origRot&quot;:0}" fill="#d3bb76"/><path d="M188.19557,343.41014l0.02956,-4.99711l33.94589,0.20076l-0.02956,4.99711z" data-paper-data="{&quot;origPos&quot;:null,&quot;origRot&quot;:0}" fill="#d3bb76"/><path d="M187.33434,343.35333l0.29247,-49.45416l5.16942,0.03057l-0.29249,49.45416z" data-paper-data="{&quot;origPos&quot;:null,&quot;origRot&quot;:0}" fill="#d3bb76"/><path d="M186.16993,404.26404l0.23726,-40.11962l36.76035,0.2174l-0.23727,40.11962z" data-paper-data="{&quot;origPos&quot;:null,&quot;origRot&quot;:0}" fill="#b9a568"/><path d="M180.73657,400.29949l0.2201,-37.21836l47.96077,0.28365l-0.22011,37.21835z" data-paper-data="{&quot;origPos&quot;:null,&quot;origRot&quot;:0}" fill="#e7cd81"/><path d="M217.53292,394.42381l0.15286,-25.84713l5.16943,0.03057l-0.15285,25.84714z" data-paper-data="{&quot;origPos&quot;:null,&quot;origRot&quot;:0}" fill="#d3bb76"/><path d="M187.37966,393.95826l0.15286,-25.84713l5.16942,0.03056l-0.15286,25.84714z" data-paper-data="{&quot;origPos&quot;:null,&quot;origRot&quot;:0}" fill="#d3bb76"/><path d="M208.34455,394.08227l0.15285,-25.84713l5.16943,0.03057l-0.15286,25.84713z" data-paper-data="{&quot;origPos&quot;:null,&quot;origRot&quot;:0}" fill="#d3bb76"/><path d="M196.28256,394.01092l0.15285,-25.84713l5.16942,0.03057l-0.15285,25.84714z" data-paper-data="{&quot;origPos&quot;:null,&quot;origRot&quot;:0}" fill="#d3bb76"/><path d="M198.45917,373.99637l0.03397,-5.74381l12.92356,0.07645l-0.03396,5.74379z" data-paper-data="{&quot;origPos&quot;:null,&quot;origRot&quot;:0}" fill="#d3bb76"/></g></g></g></svg>