<svg version="1.1" xmlns="http://www.w3.org/2000/svg" xmlns:xlink="http://www.w3.org/1999/xlink" width="544.76752" height="542.63101"><g transform="translate(103.43515,82.17693)"><g data-paper-data="{&quot;isPaintingLayer&quot;:true}" fill="none" fill-rule="nonzero" stroke="none" stroke-width="none" stroke-linecap="none" stroke-linejoin="miter" stroke-miterlimit="10" stroke-dasharray="" stroke-dashoffset="0" font-family="none" font-weight="none" font-size="none" text-anchor="none" style="mix-blend-mode: normal"><path d="M-60.31579,415.87495c0,0 9.04063,-36.38326 26.5421,-45.20292c22.16286,-11.16871 52.27229,-2.74729 75.66171,-2.74729c39.75022,0 34.53303,47.95021 34.53303,47.95021z" data-paper-data="{&quot;origPos&quot;:null}" fill="#998c76" stroke="none" stroke-width="0" stroke-linecap="butt"/><path d="M-91.43515,425.27494c0,0 9.04063,-36.38326 26.5421,-45.20292c22.16286,-11.16871 52.27229,-2.74729 75.66171,-2.74729c39.75022,0 34.53303,47.95021 34.53303,47.95021z" data-paper-data="{&quot;origPos&quot;:null}" fill="#776d5b" stroke="none" stroke-width="0" stroke-linecap="butt"/><path d="M-19.02902,409.33933c0,0 8.69771,-33.6153 19.93963,-38.16821c14.23612,-5.76554 31.43378,9.57834 45.3873,15.07171c23.71394,9.33595 16.24669,55.21126 16.24669,55.21126z" data-paper-data="{&quot;origPos&quot;:null,&quot;origRot&quot;:0}" fill="#776d5b" stroke="none" stroke-width="0" stroke-linecap="butt"/><path d="M10.68422,434.87495c0,0 9.04063,-36.38326 26.5421,-45.20292c22.16286,-11.16871 52.27229,-2.74729 75.6617,-2.74729c39.75022,0 34.53303,47.95021 34.53303,47.95021z" data-paper-data="{&quot;origPos&quot;:null}" fill="#998c76" stroke="none" stroke-width="0" stroke-linecap="butt"/><path d="M-20.43515,444.27495c0,0 9.04063,-36.38326 26.5421,-45.20292c22.16286,-11.16871 52.27229,-2.74729 75.6617,-2.74729c39.75022,0 34.53304,47.95021 34.53304,47.95021z" data-paper-data="{&quot;origPos&quot;:null}" fill="#776d5b" stroke="none" stroke-width="0" stroke-linecap="butt"/><path d="M51.97099,428.33933c0,0 8.69771,-33.6153 19.93963,-38.16821c14.23612,-5.76554 31.43378,9.57834 45.38729,15.07171c23.71393,9.33595 16.24669,55.21126 16.24669,55.21126z" data-paper-data="{&quot;origPos&quot;:null,&quot;origRot&quot;:0}" fill="#776d5b" stroke="none" stroke-width="0" stroke-linecap="butt"/><path d="M-28.31579,390.87495c0,0 9.04063,-36.38326 26.5421,-45.20292c22.16286,-11.16871 52.27229,-2.74729 75.66171,-2.74729c39.75022,0 34.53303,47.95021 34.53303,47.95021z" data-paper-data="{&quot;origPos&quot;:null}" fill="#998c76" stroke="none" stroke-width="0" stroke-linecap="butt"/><path d="M-59.43515,400.27494c0,0 9.04063,-36.38326 26.5421,-45.20292c22.16286,-11.16871 52.27229,-2.74729 75.66171,-2.74729c39.75022,0 34.53303,47.95021 34.53303,47.95021z" data-paper-data="{&quot;origPos&quot;:null}" fill="#776d5b" stroke="none" stroke-width="0" stroke-linecap="butt"/><path d="M12.97098,384.33933c0,0 8.69771,-33.6153 19.93963,-38.16821c14.23612,-5.76554 31.43378,9.57834 45.3873,15.07171c23.71394,9.33595 16.24669,55.21126 16.24669,55.21126z" data-paper-data="{&quot;origPos&quot;:null,&quot;origRot&quot;:0}" fill="#776d5b" stroke="none" stroke-width="0" stroke-linecap="butt"/><path d="M19.68422,426.87495c0,0 9.04063,-36.38326 26.5421,-45.20292c22.16286,-11.16871 52.27229,-2.74729 75.6617,-2.74729c39.75022,0 34.53303,47.95021 34.53303,47.95021z" data-paper-data="{&quot;origPos&quot;:null}" fill="#998c76" stroke="none" stroke-width="0" stroke-linecap="butt"/><path d="M-6.43515,436.27495c0,0 9.04063,-36.38326 26.5421,-45.20292c22.16286,-11.16871 52.27229,-2.74729 75.6617,-2.74729c39.75022,0 34.53304,47.95021 34.53304,47.95021z" data-paper-data="{&quot;origPos&quot;:null}" fill="#776d5b" stroke="none" stroke-width="0" stroke-linecap="butt"/><path d="M-60.31579,371.87495c0,0 9.04063,-36.38326 26.5421,-45.20292c22.16286,-11.16871 52.27229,-2.74729 75.66171,-2.74729c39.75022,0 34.53303,47.95021 34.53303,47.95021z" data-paper-data="{&quot;origPos&quot;:null}" fill="#998c76" stroke="none" stroke-width="0" stroke-linecap="butt"/><path d="M-91.43515,381.27494c0,0 9.04063,-36.38326 26.5421,-45.20292c22.16286,-11.16871 52.27229,-2.74729 75.66171,-2.74729c39.75022,0 34.53303,47.95021 34.53303,47.95021z" data-paper-data="{&quot;origPos&quot;:null}" fill="#776d5b" stroke="none" stroke-width="0" stroke-linecap="butt"/><path d="M-19.02902,365.33933c0,0 8.69771,-33.6153 19.93963,-38.16821c14.23612,-5.76554 31.43378,9.57834 45.3873,15.07171c23.71394,9.33595 16.24669,55.21126 16.24669,55.21126z" data-paper-data="{&quot;origPos&quot;:null,&quot;origRot&quot;:0}" fill="#776d5b" stroke="none" stroke-width="0" stroke-linecap="butt"/><path d="M10.68422,390.87495c0,0 9.04063,-36.38326 26.5421,-45.20292c22.16286,-11.16871 52.27229,-2.74729 75.6617,-2.74729c39.75022,0 34.53303,47.95021 34.53303,47.95021z" data-paper-data="{&quot;origPos&quot;:null}" fill="#998c76" stroke="none" stroke-width="0" stroke-linecap="butt"/><path d="M-20.43515,400.27495c0,0 9.04063,-36.38326 26.5421,-45.20292c22.16286,-11.16871 52.27229,-2.74729 75.6617,-2.74729c39.75022,0 34.53304,47.95021 34.53304,47.95021z" data-paper-data="{&quot;origPos&quot;:null}" fill="#776d5b" stroke="none" stroke-width="0" stroke-linecap="butt"/><path d="M51.97099,384.33933c0,0 8.69771,-33.6153 19.93963,-38.16821c14.23612,-5.76554 31.43378,9.57834 45.38729,15.07171c23.71393,9.33595 16.24669,55.21126 16.24669,55.21126z" data-paper-data="{&quot;origPos&quot;:null,&quot;origRot&quot;:0}" fill="#776d5b" stroke="none" stroke-width="0" stroke-linecap="butt"/><path d="M12.97098,340.33933c0,0 8.69771,-33.6153 19.93963,-38.16821c14.23612,-5.76554 31.43378,9.57834 45.3873,15.07171c23.71394,9.33595 16.24669,55.21126 16.24669,55.21126z" data-paper-data="{&quot;origPos&quot;:null,&quot;origRot&quot;:0}" fill="#776d5b" stroke="none" stroke-width="0" stroke-linecap="butt"/><path d="M19.68422,382.87495c0,0 9.04063,-36.38326 26.5421,-45.20292c22.16286,-11.16871 52.27229,-2.74729 75.6617,-2.74729c39.75022,0 34.53303,47.95021 34.53303,47.95021z" data-paper-data="{&quot;origPos&quot;:null}" fill="#998c76" stroke="none" stroke-width="0" stroke-linecap="butt"/><path d="M-6.43515,392.27495c0,0 9.04063,-36.38326 26.5421,-45.20292c22.16286,-11.16871 52.27229,-2.74729 75.6617,-2.74729c39.75022,0 34.53304,47.95021 34.53304,47.95021z" data-paper-data="{&quot;origPos&quot;:null}" fill="#776d5b" stroke="none" stroke-width="0" stroke-linecap="butt"/><path d="M-72.31579,345.87495c0,0 9.04063,-36.38326 26.5421,-45.20292c22.16286,-11.16871 52.27229,-2.74729 75.66171,-2.74729c39.75022,0 34.53303,47.95021 34.53303,47.95021z" data-paper-data="{&quot;origPos&quot;:null}" fill="#998c76" stroke="none" stroke-width="0" stroke-linecap="butt"/><path d="M-103.43515,355.27494c0,0 9.04063,-36.38326 26.5421,-45.20292c22.16286,-11.16871 52.27229,-2.74729 75.66171,-2.74729c39.75022,0 34.53303,47.95021 34.53303,47.95021z" data-paper-data="{&quot;origPos&quot;:null}" fill="#776d5b" stroke="none" stroke-width="0" stroke-linecap="butt"/><path d="M-31.02902,339.33933c0,0 8.69771,-33.6153 19.93963,-38.16821c14.23612,-5.76554 31.43378,9.57834 45.3873,15.07171c23.71394,9.33595 16.24669,55.21126 16.24669,55.21126z" data-paper-data="{&quot;origPos&quot;:null,&quot;origRot&quot;:0}" fill="#776d5b" stroke="none" stroke-width="0" stroke-linecap="butt"/><path d="M-1.31578,364.87495c0,0 9.04063,-36.38326 26.5421,-45.20292c22.16286,-11.16871 52.27229,-2.74729 75.6617,-2.74729c39.75022,0 34.53303,47.95021 34.53303,47.95021z" data-paper-data="{&quot;origPos&quot;:null}" fill="#998c76" stroke="none" stroke-width="0" stroke-linecap="butt"/><path d="M-32.43515,374.27495c0,0 9.04063,-36.38326 26.5421,-45.20292c22.16286,-11.16871 52.27229,-2.74729 75.6617,-2.74729c39.75022,0 34.53304,47.95021 34.53304,47.95021z" data-paper-data="{&quot;origPos&quot;:null}" fill="#776d5b" stroke="none" stroke-width="0" stroke-linecap="butt"/><path d="M39.97099,358.33933c0,0 8.69771,-33.6153 19.93963,-38.16821c14.23612,-5.76554 31.43378,9.57834 45.38729,15.07171c23.71393,9.33595 16.24669,55.21126 16.24669,55.21126z" data-paper-data="{&quot;origPos&quot;:null,&quot;origRot&quot;:0}" fill="#776d5b" stroke="none" stroke-width="0" stroke-linecap="butt"/><path d="M-40.31579,320.87495c0,0 9.04063,-36.38326 26.5421,-45.20292c22.16286,-11.16871 52.27229,-2.74729 75.66171,-2.74729c39.75022,0 34.53303,47.95021 34.53303,47.95021z" data-paper-data="{&quot;origPos&quot;:null}" fill="#998c76" stroke="none" stroke-width="0" stroke-linecap="butt"/><path d="M-71.43515,330.27494c0,0 9.04063,-36.38326 26.5421,-45.20292c22.16286,-11.16871 52.27229,-2.74729 75.66171,-2.74729c39.75022,0 34.53303,47.95021 34.53303,47.95021z" data-paper-data="{&quot;origPos&quot;:null}" fill="#776d5b" stroke="none" stroke-width="0" stroke-linecap="butt"/><path d="M0.97098,314.33932c0,0 8.69771,-33.6153 19.93963,-38.16821c14.23612,-5.76554 31.43378,9.57834 45.3873,15.07171c23.71394,9.33595 16.24669,55.21126 16.24669,55.21126z" data-paper-data="{&quot;origPos&quot;:null,&quot;origRot&quot;:0}" fill="#776d5b" stroke="none" stroke-width="0" stroke-linecap="butt"/><path d="M7.68422,356.87495c0,0 9.04063,-36.38326 26.5421,-45.20292c22.16286,-11.16871 52.27229,-2.74729 75.6617,-2.74729c39.75022,0 34.53303,47.95021 34.53303,47.95021z" data-paper-data="{&quot;origPos&quot;:null}" fill="#998c76" stroke="none" stroke-width="0" stroke-linecap="butt"/><path d="M-18.43515,366.27495c0,0 9.04063,-36.38326 26.5421,-45.20292c22.16286,-11.16871 52.27229,-2.74729 75.6617,-2.74729c39.75022,0 34.53304,47.95021 34.53304,47.95021z" data-paper-data="{&quot;origPos&quot;:null}" fill="#776d5b" stroke="none" stroke-width="0" stroke-linecap="butt"/><path d="M-72.31579,301.87495c0,0 9.04063,-36.38326 26.5421,-45.20292c22.16286,-11.16871 52.27229,-2.74729 75.66171,-2.74729c39.75022,0 34.53303,47.95021 34.53303,47.95021z" data-paper-data="{&quot;origPos&quot;:null}" fill="#998c76" stroke="none" stroke-width="0" stroke-linecap="butt"/><path d="M-103.43515,311.27494c0,0 9.04063,-36.38326 26.5421,-45.20292c22.16286,-11.16871 52.27229,-2.74729 75.66171,-2.74729c39.75022,0 34.53303,47.95021 34.53303,47.95021z" data-paper-data="{&quot;origPos&quot;:null}" fill="#776d5b" stroke="none" stroke-width="0" stroke-linecap="butt"/><path d="M-31.02902,295.33932c0,0 8.69771,-33.6153 19.93963,-38.16821c14.23612,-5.76554 31.43378,9.57834 45.3873,15.07171c23.71394,9.33595 16.24669,55.21126 16.24669,55.21126z" data-paper-data="{&quot;origPos&quot;:null,&quot;origRot&quot;:0}" fill="#776d5b" stroke="none" stroke-width="0" stroke-linecap="butt"/><path d="M-1.31578,320.87495c0,0 9.04063,-36.38326 26.5421,-45.20292c22.16286,-11.16871 52.27229,-2.74729 75.6617,-2.74729c39.75022,0 34.53303,47.95021 34.53303,47.95021z" data-paper-data="{&quot;origPos&quot;:null}" fill="#998c76" stroke="none" stroke-width="0" stroke-linecap="butt"/><path d="M-32.43515,330.27495c0,0 9.04063,-36.38326 26.5421,-45.20292c22.16286,-11.16871 52.27229,-2.74729 75.6617,-2.74729c39.75022,0 34.53304,47.95021 34.53304,47.95021z" data-paper-data="{&quot;origPos&quot;:null}" fill="#776d5b" stroke="none" stroke-width="0" stroke-linecap="butt"/><path d="M39.97099,314.33932c0,0 8.69771,-33.6153 19.93963,-38.16821c14.23612,-5.76554 31.43378,9.57834 45.38729,15.07171c23.71393,9.33595 16.24669,55.21126 16.24669,55.21126z" data-paper-data="{&quot;origPos&quot;:null,&quot;origRot&quot;:0}" fill="#776d5b" stroke="none" stroke-width="0" stroke-linecap="butt"/><path d="M-40.31579,276.87495c0,0 9.04063,-36.38326 26.5421,-45.20292c22.16286,-11.16871 52.27229,-2.74729 75.66171,-2.74729c39.75022,0 34.53303,47.95021 34.53303,47.95021z" data-paper-data="{&quot;origPos&quot;:null}" fill="#998c76" stroke="none" stroke-width="0" stroke-linecap="butt"/><path d="M-71.43515,286.27494c0,0 9.04063,-36.38326 26.5421,-45.20292c22.16286,-11.16871 52.27229,-2.74729 75.66171,-2.74729c39.75022,0 34.53303,47.95021 34.53303,47.95021z" data-paper-data="{&quot;origPos&quot;:null}" fill="#776d5b" stroke="none" stroke-width="0" stroke-linecap="butt"/><path d="M0.97098,270.33932c0,0 8.69771,-33.6153 19.93963,-38.16821c14.23612,-5.76554 31.43378,9.57834 45.3873,15.07171c23.71394,9.33595 16.24669,55.21126 16.24669,55.21126z" data-paper-data="{&quot;origPos&quot;:null,&quot;origRot&quot;:0}" fill="#776d5b" stroke="none" stroke-width="0" stroke-linecap="butt"/><path d="M7.68422,312.87495c0,0 9.04063,-36.38326 26.5421,-45.20292c22.16286,-11.16871 52.27229,-2.74729 75.6617,-2.74729c39.75022,0 34.53303,47.95021 34.53303,47.95021z" data-paper-data="{&quot;origPos&quot;:null}" fill="#998c76" stroke="none" stroke-width="0" stroke-linecap="butt"/><path d="M-18.43515,322.27495c0,0 9.04063,-36.38326 26.5421,-45.20292c22.16286,-11.16871 52.27229,-2.74729 75.6617,-2.74729c39.75022,0 34.53304,47.95021 34.53304,47.95021z" data-paper-data="{&quot;origPos&quot;:null}" fill="#776d5b" stroke="none" stroke-width="0" stroke-linecap="butt"/><path d="M98.68421,199.87495c0,0 9.04063,-36.38326 26.5421,-45.20292c22.16286,-11.16871 52.27229,-2.74729 75.66171,-2.74729c39.75022,0 34.53303,47.95021 34.53303,47.95021z" data-paper-data="{&quot;origPos&quot;:null}" fill="#998c76" stroke="none" stroke-width="0" stroke-linecap="butt"/><path d="M130.68421,174.87495c0,0 9.04063,-36.38326 26.5421,-45.20292c22.16286,-11.16871 52.27229,-2.74729 75.66171,-2.74729c39.75022,0 34.53303,47.95021 34.53303,47.95021z" data-paper-data="{&quot;origPos&quot;:null}" fill="#998c76" stroke="none" stroke-width="0" stroke-linecap="butt"/><path d="M99.56485,184.27494c0,0 9.04063,-36.38326 26.5421,-45.20292c22.16286,-11.16871 52.27229,-2.74729 75.66171,-2.74729c39.75022,0 34.53303,47.95021 34.53303,47.95021z" data-paper-data="{&quot;origPos&quot;:null}" fill="#776d5b" stroke="none" stroke-width="0" stroke-linecap="butt"/><path d="M171.97098,168.33933c0,0 8.69771,-33.6153 19.93963,-38.16821c14.23612,-5.76554 31.43378,9.57834 45.3873,15.07171c23.71394,9.33595 16.24669,55.21126 16.24669,55.21126z" data-paper-data="{&quot;origPos&quot;:null,&quot;origRot&quot;:0}" fill="#776d5b" stroke="none" stroke-width="0" stroke-linecap="butt"/><path d="M98.68421,155.87495c0,0 9.04063,-36.38326 26.5421,-45.20292c22.16286,-11.16871 52.27229,-2.74729 75.66171,-2.74729c39.75022,0 34.53303,47.95021 34.53303,47.95021z" data-paper-data="{&quot;origPos&quot;:null}" fill="#998c76" stroke="none" stroke-width="0" stroke-linecap="butt"/><path d="M67.56485,165.27494c0,0 9.04063,-36.38326 26.5421,-45.20292c22.16286,-11.16871 52.27229,-2.74729 75.66171,-2.74729c39.75022,0 34.53303,47.95021 34.53303,47.95021z" data-paper-data="{&quot;origPos&quot;:null}" fill="#776d5b" stroke="none" stroke-width="0" stroke-linecap="butt"/><path d="M139.97098,149.33933c0,0 8.69771,-33.6153 19.93963,-38.16821c14.23612,-5.76554 31.43378,9.57834 45.3873,15.07171c23.71394,9.33595 16.24669,55.21126 16.24669,55.21126z" data-paper-data="{&quot;origPos&quot;:null,&quot;origRot&quot;:0}" fill="#776d5b" stroke="none" stroke-width="0" stroke-linecap="butt"/><path d="M169.68422,174.87495c0,0 9.04063,-36.38326 26.5421,-45.20292c22.16286,-11.16871 52.27229,-2.74729 75.6617,-2.74729c39.75022,0 34.53303,47.95021 34.53303,47.95021z" data-paper-data="{&quot;origPos&quot;:null}" fill="#998c76" stroke="none" stroke-width="0" stroke-linecap="butt"/><path d="M138.56485,184.27495c0,0 9.04063,-36.38326 26.5421,-45.20292c22.16286,-11.16871 52.27229,-2.74729 75.6617,-2.74729c39.75022,0 34.53304,47.95021 34.53304,47.95021z" data-paper-data="{&quot;origPos&quot;:null}" fill="#776d5b" stroke="none" stroke-width="0" stroke-linecap="butt"/><path d="M210.97099,168.33933c0,0 8.69771,-33.6153 19.93963,-38.16821c14.23612,-5.76554 31.43378,9.57834 45.38729,15.07171c23.71393,9.33595 16.24669,55.21126 16.24669,55.21126z" data-paper-data="{&quot;origPos&quot;:null,&quot;origRot&quot;:0}" fill="#776d5b" stroke="none" stroke-width="0" stroke-linecap="butt"/><path d="M130.68421,130.87495c0,0 9.04063,-36.38326 26.5421,-45.20292c22.16286,-11.16871 52.27229,-2.74729 75.66171,-2.74729c39.75022,0 34.53303,47.95021 34.53303,47.95021z" data-paper-data="{&quot;origPos&quot;:null}" fill="#998c76" stroke="none" stroke-width="0" stroke-linecap="butt"/><path d="M99.56485,140.27494c0,0 9.04063,-36.38326 26.5421,-45.20292c22.16286,-11.16871 52.27229,-2.74729 75.66171,-2.74729c39.75022,0 34.53303,47.95021 34.53303,47.95021z" data-paper-data="{&quot;origPos&quot;:null}" fill="#776d5b" stroke="none" stroke-width="0" stroke-linecap="butt"/><path d="M171.97098,124.33933c0,0 8.69771,-33.6153 19.93963,-38.16821c14.23612,-5.76554 31.43378,9.57834 45.3873,15.07171c23.71394,9.33595 16.24669,55.21126 16.24669,55.21126z" data-paper-data="{&quot;origPos&quot;:null,&quot;origRot&quot;:0}" fill="#776d5b" stroke="none" stroke-width="0" stroke-linecap="butt"/><path d="M178.68422,166.87495c0,0 9.04063,-36.38326 26.5421,-45.20292c22.16286,-11.16871 52.27229,-2.74729 75.6617,-2.74729c39.75022,0 34.53303,47.95021 34.53303,47.95021z" data-paper-data="{&quot;origPos&quot;:null}" fill="#998c76" stroke="none" stroke-width="0" stroke-linecap="butt"/><path d="M152.56485,176.27495c0,0 9.04063,-36.38326 26.5421,-45.20292c22.16286,-11.16871 52.27229,-2.74729 75.6617,-2.74729c39.75022,0 34.53304,47.95021 34.53304,47.95021z" data-paper-data="{&quot;origPos&quot;:null}" fill="#776d5b" stroke="none" stroke-width="0" stroke-linecap="butt"/><path d="M255.58549,-60.08353c-0.38888,0 -0.72374,-0.13683 -1.00459,-0.41048c-0.27365,-0.28085 -0.41048,-0.62292 -0.41048,-1.0262v-6.44884l-7.37782,-11.47181c-0.23765,-0.38888 -0.33126,-0.75254 -0.28085,-1.09101c0.05761,-0.33847 0.21964,-0.61212 0.48609,-0.82096c0.26645,-0.21604 0.57611,-0.32406 0.92898,-0.32406c0.30966,0 0.55811,0.06841 0.74534,0.20524c0.18724,0.13683 0.36367,0.33486 0.5293,0.59411l7.02135,11.14775h-1.10181l7.12938,-11.25577c0.14403,-0.22324 0.31686,-0.39248 0.5185,-0.5077c0.20884,-0.12242 0.46089,-0.18364 0.75615,-0.18364c0.33126,0 0.60492,0.11522 0.82096,0.34567c0.22324,0.23045 0.35287,0.5149 0.38888,0.85336c0.04321,0.33847 -0.04681,0.68413 -0.27005,1.037l-7.44264,11.47181v6.44884c0,0.40328 -0.14043,0.74534 -0.42128,1.0262c-0.27365,0.27365 -0.61212,0.41048 -1.0154,0.41048zM271.45589,-59.97551c-1.49069,0 -2.80854,-0.32766 -3.95356,-0.98299c-1.14502,-0.65533 -2.0452,-1.5591 -2.70052,-2.71132c-0.64813,-1.15222 -0.97219,-2.47368 -0.97219,-3.96436c0,-1.51229 0.32406,-2.84455 0.97219,-3.99677c0.65533,-1.15222 1.5555,-2.056 2.70052,-2.71132c1.14502,-0.65533 2.46288,-0.98299 3.95356,-0.98299c1.47628,0 2.78694,0.32766 3.93196,0.98299c1.14502,0.65533 2.04159,1.5591 2.68972,2.71132c0.65533,1.15222 0.98299,2.48448 0.98299,3.99677c0,1.49069 -0.32406,2.81214 -0.97219,3.96436c-0.64092,1.15222 -1.5339,2.056 -2.67892,2.71132c-1.13782,0.65533 -2.45567,0.98299 -3.95356,0.98299zM271.45589,-62.45999c0.95778,0 1.80395,-0.21964 2.53849,-0.65893c0.74174,-0.44649 1.31785,-1.055 1.72833,-1.82555c0.41768,-0.77775 0.62652,-1.67432 0.62652,-2.68972c0,-1.0154 -0.20884,-1.91197 -0.62652,-2.68972c-0.41048,-0.78495 -0.98659,-1.39707 -1.72833,-1.83635c-0.73454,-0.44649 -1.58071,-0.66973 -2.53849,-0.66973c-0.95778,0 -1.80755,0.22324 -2.54929,0.66973c-0.73454,0.43928 -1.31425,1.0514 -1.73914,1.83635c-0.41768,0.77775 -0.62652,1.67432 -0.62652,2.68972c0,1.0154 0.20884,1.91197 0.62652,2.68972c0.42488,0.77055 1.00459,1.37906 1.73914,1.82555c0.74174,0.43928 1.59151,0.65893 2.54929,0.65893zM289.62498,-59.9431c-1.26745,0 -2.40526,-0.27005 -3.41346,-0.81016c-1.00099,-0.5473 -1.79315,-1.34666 -2.37646,-2.39806c-0.58331,-1.0514 -0.87497,-2.34405 -0.87497,-3.87795v-6.79451c0,-0.41048 0.13323,-0.74895 0.39968,-1.0154c0.26645,-0.26645 0.60492,-0.39968 1.0154,-0.39968c0.40328,0 0.73814,0.13323 1.00459,0.39968c0.26645,0.26645 0.39968,0.60492 0.39968,1.0154v6.79451c0,1.037 0.19444,1.89397 0.58331,2.5709c0.38888,0.66973 0.91458,1.16663 1.5771,1.49069c0.66253,0.31686 1.40787,0.47529 2.23603,0.47529c0.79215,0 1.49789,-0.15483 2.11721,-0.46449c0.61932,-0.31686 1.11261,-0.74174 1.47989,-1.27465c0.36727,-0.5329 0.55091,-1.13062 0.55091,-1.79315h1.74994c0,1.13782 -0.28085,2.16762 -0.84256,3.0894c-0.56171,0.92178 -1.32866,1.65272 -2.30084,2.19282c-0.96499,0.5329 -2.0668,0.79935 -3.30544,0.79935zM295.73895,-60.08353c-0.40328,0 -0.74174,-0.13323 -1.0154,-0.39968c-0.26645,-0.26645 -0.39968,-0.60492 -0.39968,-1.0154v-12.32518c0,-0.42488 0.13323,-0.76695 0.39968,-1.0262c0.27365,-0.25925 0.61212,-0.38888 1.0154,-0.38888c0.42488,0 0.76695,0.12963 1.0262,0.38888c0.25925,0.25925 0.38888,0.60131 0.38888,1.0262v12.32518c0,0.41048 -0.12963,0.74895 -0.38888,1.0154c-0.25925,0.26645 -0.60131,0.39968 -1.0262,0.39968zM317.08384,-59.97551c-1.47628,0 -2.79054,-0.33486 -3.94276,-1.00459c-1.15222,-0.67693 -2.056,-1.59151 -2.71132,-2.74373c-0.64813,-1.15222 -0.97219,-2.45567 -0.97219,-3.91035c0,-1.49069 0.32046,-2.81574 0.96139,-3.97517c0.64813,-1.16663 1.5339,-2.0776 2.65731,-2.73293c1.12342,-0.65533 2.41247,-0.98299 3.86715,-0.98299c1.09461,0 2.092,0.20884 2.99218,0.62652c0.90017,0.41768 1.71033,1.0406 2.43047,1.86876c0.25925,0.29526 0.35287,0.60131 0.28085,0.91818c-0.07201,0.30966 -0.27365,0.58331 -0.60492,0.82096c-0.25925,0.18724 -0.5473,0.24845 -0.86417,0.18364c-0.30966,-0.06481 -0.59411,-0.22684 -0.85336,-0.48609c-0.90738,-0.95778 -2.03439,-1.43668 -3.38105,-1.43668c-0.93618,0 -1.76434,0.21604 -2.48448,0.64813c-0.72014,0.43208 -1.28185,1.037 -1.68513,1.81475c-0.40328,0.77055 -0.60492,1.68152 -0.60492,2.73293c0,0.99379 0.20524,1.87956 0.61572,2.65731c0.41768,0.77055 0.99379,1.38267 1.72833,1.83635c0.74174,0.45369 1.59871,0.68053 2.5709,0.68053c0.64813,0 1.21703,-0.07922 1.70673,-0.23765c0.4897,-0.15843 0.93618,-0.40328 1.33946,-0.73454c0.29526,-0.23765 0.59772,-0.37087 0.90738,-0.39968c0.31686,-0.0288 0.59411,0.05761 0.83176,0.25925c0.31686,0.25925 0.49329,0.55091 0.5293,0.87497c0.03601,0.32406 -0.07561,0.61572 -0.33486,0.87497c-1.32505,1.23144 -2.98498,1.84716 -4.97976,1.84716zM333.15258,-59.97551c-1.34666,0 -2.55649,-0.33486 -3.6295,-1.00459c-1.0658,-0.67693 -1.90837,-1.59151 -2.52769,-2.74373c-0.61212,-1.15222 -0.91818,-2.45567 -0.91818,-3.91035c0,-1.45468 0.33486,-2.76173 1.00459,-3.92116c0.67693,-1.16663 1.59151,-2.0848 2.74373,-2.75453c1.15222,-0.67693 2.44487,-1.0154 3.87795,-1.0154c1.44028,0 2.72933,0.33847 3.86715,1.0154c1.14502,0.66973 2.0524,1.58791 2.72213,2.75453c0.67693,1.15942 1.0154,2.46648 1.0154,3.92116h-1.08021c0,1.45468 -0.30966,2.75813 -0.92898,3.91035c-0.61212,1.15222 -1.45468,2.0668 -2.52769,2.74373c-1.0658,0.66973 -2.27204,1.00459 -3.6187,1.00459zM333.70348,-62.45999c0.94338,0 1.78234,-0.22684 2.51689,-0.68053c0.74174,-0.45369 1.32146,-1.06941 1.73914,-1.84716c0.42488,-0.78495 0.63732,-1.66712 0.63732,-2.64651c0,-0.99379 -0.21244,-1.88316 -0.63732,-2.66811c-0.41768,-0.78495 -0.99739,-1.40067 -1.73914,-1.84716c-0.73454,-0.45369 -1.5735,-0.68053 -2.51689,-0.68053c-0.92178,0 -1.75714,0.22684 -2.50608,0.68053c-0.74174,0.44649 -1.32866,1.06221 -1.76074,1.84716c-0.43208,0.78495 -0.64813,1.67432 -0.64813,2.66811c0,0.97939 0.21604,1.86156 0.64813,2.64651c0.43208,0.77775 1.019,1.39347 1.76074,1.84716c0.74895,0.45369 1.5843,0.68053 2.50608,0.68053zM339.90388,-60.05112c-0.41048,0 -0.74895,-0.13323 -1.0154,-0.39968c-0.26645,-0.27365 -0.39968,-0.61212 -0.39968,-1.0154v-4.23442l0.5293,-2.92736l2.29004,0.99379v6.16799c0,0.40328 -0.13323,0.74174 -0.39968,1.0154c-0.26645,0.26645 -0.60131,0.39968 -1.00459,0.39968zM358.289,-60.05112c-0.40328,0 -0.73814,-0.13323 -1.00459,-0.39968c-0.26645,-0.27365 -0.39968,-0.61212 -0.39968,-1.0154v-6.80531c0,-1.0514 -0.19444,-1.90837 -0.58331,-2.5709c-0.38888,-0.66253 -0.91098,-1.15582 -1.5663,-1.47989c-0.65533,-0.32406 -1.40427,-0.48609 -2.24683,-0.48609c-0.77775,0 -1.47989,0.15843 -2.10641,0.47529c-0.62652,0.30966 -1.12342,0.72734 -1.49069,1.25304c-0.36727,0.5257 -0.55091,1.13062 -0.55091,1.81475h-1.74994c0,-1.15942 0.28085,-2.19642 0.84256,-3.111c0.56171,-0.91458 1.33226,-1.63831 2.31165,-2.17122c0.97939,-0.5329 2.0776,-0.79935 3.29464,-0.79935c1.26745,0 2.40166,0.27365 3.40266,0.82096c1.0082,0.5401 1.80395,1.33586 2.38726,2.38726c0.58331,1.0514 0.87497,2.34045 0.87497,3.86715v6.80531c0,0.40328 -0.13683,0.74174 -0.41048,1.0154c-0.26645,0.26645 -0.60131,0.39968 -1.00459,0.39968zM346.92521,-60.05112c-0.40328,0 -0.74174,-0.13323 -1.0154,-0.39968c-0.26645,-0.27365 -0.39968,-0.61212 -0.39968,-1.0154v-12.33598c0,-0.42488 0.13323,-0.76335 0.39968,-1.0154c0.27365,-0.25925 0.61212,-0.38888 1.0154,-0.38888c0.42488,0 0.76695,0.12963 1.0262,0.38888c0.25925,0.25205 0.38888,0.59051 0.38888,1.0154v12.33598c0,0.40328 -0.12963,0.74174 -0.38888,1.0154c-0.25925,0.26645 -0.60131,0.39968 -1.0262,0.39968zM379.33144,-59.97551c-1.43308,0 -2.72573,-0.33486 -3.87795,-1.00459c-1.15222,-0.67693 -2.0668,-1.59511 -2.74373,-2.75453c-0.66973,-1.15942 -1.00459,-2.46648 -1.00459,-3.92116c0,-1.46188 0.30606,-2.76894 0.91818,-3.92116c0.61932,-1.15222 1.46188,-2.0632 2.52769,-2.73293c1.07301,-0.67693 2.28284,-1.0154 3.6295,-1.0154c1.08741,0 2.092,0.22684 3.01378,0.68053c0.92178,0.45369 1.69593,1.0658 2.32245,1.83635v-7.46424c0,-0.42488 0.13323,-0.76335 0.39968,-1.0154c0.26645,-0.25925 0.60492,-0.38888 1.0154,-0.38888c0.42488,0 0.76335,0.12963 1.0154,0.38888c0.25925,0.25205 0.38888,0.59051 0.38888,1.0154v12.61683c0,1.45468 -0.33847,2.76173 -1.0154,3.92116c-0.66973,1.15942 -1.5771,2.0776 -2.72213,2.75453c-1.13782,0.66973 -2.42687,1.00459 -3.86715,1.00459zM379.33144,-62.45999c0.94338,0 1.78234,-0.22684 2.51689,-0.68053c0.74174,-0.45369 1.32146,-1.07661 1.73914,-1.86876c0.42488,-0.79215 0.63732,-1.67432 0.63732,-2.64651c0,-1.00099 -0.21244,-1.88676 -0.63732,-2.65731c-0.41768,-0.77775 -0.99739,-1.38987 -1.73914,-1.83635c-0.73454,-0.45369 -1.5735,-0.68053 -2.51689,-0.68053c-0.92178,0 -1.75714,0.22684 -2.50608,0.68053c-0.74174,0.44649 -1.32866,1.0586 -1.76074,1.83635c-0.43208,0.77055 -0.64813,1.65632 -0.64813,2.65731c0,0.97219 0.21604,1.85436 0.64813,2.64651c0.43208,0.79215 1.019,1.41507 1.76074,1.86876c0.74895,0.45369 1.5843,0.68053 2.50608,0.68053zM398.77171,-59.97551c-1.49069,0 -2.80854,-0.32766 -3.95356,-0.98299c-1.14502,-0.65533 -2.0452,-1.5591 -2.70052,-2.71132c-0.64813,-1.15222 -0.97219,-2.47368 -0.97219,-3.96436c0,-1.51229 0.32406,-2.84455 0.97219,-3.99677c0.65533,-1.15222 1.5555,-2.056 2.70052,-2.71132c1.14502,-0.65533 2.46288,-0.98299 3.95356,-0.98299c1.47628,0 2.78694,0.32766 3.93196,0.98299c1.14502,0.65533 2.04159,1.5591 2.68972,2.71132c0.65533,1.15222 0.98299,2.48448 0.98299,3.99677c0,1.49069 -0.32406,2.81214 -0.97219,3.96436c-0.64092,1.15222 -1.5339,2.056 -2.67892,2.71132c-1.13782,0.65533 -2.45567,0.98299 -3.95356,0.98299zM398.77171,-62.45999c0.95778,0 1.80395,-0.21964 2.53849,-0.65893c0.74174,-0.44649 1.31785,-1.055 1.72833,-1.82555c0.41768,-0.77775 0.62652,-1.67432 0.62652,-2.68972c0,-1.0154 -0.20884,-1.91197 -0.62652,-2.68972c-0.41048,-0.78495 -0.98659,-1.39707 -1.72833,-1.83635c-0.73454,-0.44649 -1.58071,-0.66973 -2.53849,-0.66973c-0.95778,0 -1.80755,0.22324 -2.54929,0.66973c-0.73454,0.43928 -1.31425,1.0514 -1.73914,1.83635c-0.41768,0.77775 -0.62652,1.67432 -0.62652,2.68972c0,1.0154 0.20884,1.91197 0.62652,2.68972c0.42488,0.77055 1.00459,1.37906 1.73914,1.82555c0.74174,0.43928 1.59151,0.65893 2.54929,0.65893zM420.37672,-60.08353c-0.41048,0 -0.74895,-0.13323 -1.0154,-0.39968c-0.26645,-0.26645 -0.39968,-0.60492 -0.39968,-1.0154v-12.30357c0,-0.42488 0.13323,-0.76335 0.39968,-1.0154c0.26645,-0.25925 0.60492,-0.38888 1.0154,-0.38888c0.41768,0 0.75615,0.12963 1.0154,0.38888c0.25925,0.25205 0.38888,0.59051 0.38888,1.0154v12.30357c0,0.41048 -0.12963,0.74895 -0.38888,1.0154c-0.25925,0.26645 -0.59772,0.39968 -1.0154,0.39968zM420.62517,-77.66932c-0.5041,0 -0.93618,-0.18003 -1.29625,-0.5401c-0.35287,-0.36007 -0.5293,-0.78855 -0.5293,-1.28545c0,-0.4969 0.17644,-0.92538 0.5293,-1.28545c0.36007,-0.36007 0.79215,-0.5401 1.29625,-0.5401c0.4969,0 0.92538,0.18003 1.28545,0.5401c0.36007,0.36007 0.5401,0.78855 0.5401,1.28545c0,0.4969 -0.18003,0.92538 -0.5401,1.28545c-0.36007,0.36007 -0.78855,0.5401 -1.28545,0.5401zM432.54114,-60.08353c-0.92178,0 -1.75354,-0.23404 -2.49528,-0.70214c-0.73454,-0.47529 -1.31425,-1.11622 -1.73914,-1.92277c-0.42488,-0.81376 -0.63732,-1.72833 -0.63732,-2.74373v-13.18934c0,-0.40328 0.12963,-0.73454 0.38888,-0.99379c0.25925,-0.25925 0.59051,-0.38888 0.99379,-0.38888c0.41048,0 0.74174,0.12963 0.99379,0.38888c0.25925,0.25925 0.38888,0.59051 0.38888,0.99379v13.18934c0,0.74174 0.20164,1.36106 0.60492,1.85796c0.41048,0.4969 0.91098,0.74534 1.50149,0.74534h0.93978c0.33126,0 0.61212,0.12963 0.84256,0.38888c0.23045,0.25925 0.34567,0.59051 0.34567,0.99379c0,0.40328 -0.15483,0.73454 -0.46449,0.99379c-0.30246,0.25925 -0.69133,0.38888 -1.16663,0.38888zM426.40555,-72.27908c-0.38888,0 -0.70574,-0.10802 -0.95058,-0.32406c-0.23765,-0.22324 -0.35647,-0.5005 -0.35647,-0.83176c0,-0.37447 0.11882,-0.66973 0.35647,-0.88577c0.24485,-0.22324 0.56171,-0.33486 0.95058,-0.33486h6.38403c0.38888,0 0.70214,0.11162 0.93978,0.33486c0.23765,0.21604 0.35647,0.5113 0.35647,0.88577c0,0.33126 -0.11882,0.60852 -0.35647,0.83176c-0.23765,0.21604 -0.55091,0.32406 -0.93978,0.32406zM438.9312,-65.20373c-0.41048,0 -0.74895,-0.14043 -1.0154,-0.42128c-0.26645,-0.28805 -0.39968,-0.61572 -0.39968,-0.98299v-13.63223c0,-0.41048 0.13323,-0.75254 0.39968,-1.0262c0.26645,-0.27365 0.60492,-0.41048 1.0154,-0.41048c0.40328,0 0.73814,0.13683 1.00459,0.41048c0.26645,0.27365 0.39968,0.61572 0.39968,1.0262v13.63223c0,0.38888 -0.14403,0.72014 -0.43208,0.99379c-0.28085,0.27365 -0.60492,0.41048 -0.97219,0.41048zM438.9312,-60.08353c-0.5185,0 -0.96859,-0.18364 -1.35026,-0.55091c-0.37447,-0.36727 -0.56171,-0.82096 -0.56171,-1.36106c0,-0.5329 0.18724,-0.98659 0.56171,-1.36106c0.38167,-0.38167 0.83176,-0.57251 1.35026,-0.57251c0.5329,0 0.98299,0.19084 1.35026,0.57251c0.36727,0.37447 0.55091,0.82816 0.55091,1.36106c0,0.5401 -0.19084,0.99379 -0.57251,1.36106c-0.37447,0.36727 -0.81736,0.55091 -1.32866,0.55091z" data-paper-data="{&quot;origPos&quot;:null}" fill="#776d5b" stroke="#776d5b" stroke-width="1" stroke-linecap="square"/></g></g></svg>