<svg version="1.1" xmlns="http://www.w3.org/2000/svg" xmlns:xlink="http://www.w3.org/1999/xlink" width="45.68425" height="45.68425"><g transform="translate(-219.65695,-153.95389)"><g data-paper-data="{&quot;isPaintingLayer&quot;:true}" fill="none" fill-rule="nonzero" stroke="none" stroke-width="none" stroke-linecap="butt" stroke-linejoin="miter" stroke-miterlimit="10" stroke-dasharray="" stroke-dashoffset="0" font-family="none" font-weight="none" font-size="none" text-anchor="none" style="mix-blend-mode: normal"><path d="M222.52756,175.91663c0,-10.54429 8.54784,-19.09213 19.09213,-19.09213c10.54429,0 19.09213,8.54783 19.09213,19.09213c0,10.54429 -8.54784,19.09213 -19.09213,19.09213c-10.54429,0 -19.09213,-8.54783 -19.09213,-19.09213z" data-paper-data="{&quot;origPos&quot;:null}" fill="#ff7e7e" stroke="none" stroke-width="0.5"/><path d="M260.71181,175.91663c0,10.54429 -8.54784,19.09213 -19.09213,19.09213c-10.54429,0 19.09213,-29.63643 19.09213,-19.09213z" data-paper-data="{&quot;origPos&quot;:null}" fill="#ff8888" stroke="none" stroke-width="0.5"/><path d="M223.40696,176.79602c0,-10.5443 8.54784,-19.09213 19.09213,-19.09213c10.54429,0 19.09212,8.54784 19.09212,19.09213c0,10.5443 -8.54783,19.09212 -19.09212,19.09212c-10.54429,0 -19.09213,-8.54783 -19.09213,-19.09212z" data-paper-data="{&quot;origPos&quot;:null}" fill="none" stroke="#d16a6a" stroke-width="7.5"/><path d="M222.52756,175.91663c0,-10.5443 8.54784,-19.09212 19.09213,-19.09212c10.54429,0 19.09213,8.54783 19.09213,19.09212c0,10.5443 -8.54784,19.09213 -19.09213,19.09213c-10.54429,0 -19.09213,-8.54783 -19.09213,-19.09213z" data-paper-data="{&quot;origPos&quot;:null}" fill="none" stroke="#d17878" stroke-width="2.5"/><path d="M248.63876,186.79391c-1.72298,1.04055 -6.78519,-4.33793 -6.78519,-4.33793c0,0 -5.89872,4.4501 -7.42175,3.13247c-1.52434,-1.31757 2.02843,-7.79604 2.02843,-7.79604c0,0 -6.05412,-4.2352 -5.2717,-6.09059c0.78242,-1.85682 8.04064,-0.47975 8.04064,-0.47975c0,0 2.15546,-7.06629 4.16222,-6.89736c2.00949,0.17025 2.94328,7.50008 2.94328,7.50008c0,0 7.3866,-0.13379 7.84337,1.82838c0.4608,1.96086 -6.2217,5.11494 -6.2217,5.11494c0,0 2.40949,6.98524 0.68242,8.02579z" data-paper-data="{&quot;origPos&quot;:null}" id="Star" fill="#e47070" stroke="none" stroke-width="0"/></g></g></svg>