<svg version="1.1" xmlns="http://www.w3.org/2000/svg" xmlns:xlink="http://www.w3.org/1999/xlink" width="266.8329" height="359.74338"><g transform="translate(-212.56485,-30.31073)"><g data-paper-data="{&quot;isPaintingLayer&quot;:true}" fill="none" fill-rule="nonzero" stroke="none" stroke-width="none" stroke-linecap="none" stroke-linejoin="miter" stroke-miterlimit="10" stroke-dasharray="" stroke-dashoffset="0" font-family="none" font-weight="none" font-size="none" text-anchor="none" style="mix-blend-mode: normal"><g data-paper-data="{&quot;origPos&quot;:null}" fill="none" stroke-width="17.5" stroke-linecap="round"><path d="M343.22439,39.06073c0,0 1.15093,25.13922 1.3703,29.93086c0.07312,1.59721 -1.48535,4.21229 -2.55599,4.28885c-3.21191,0.2297 -13.57545,0.97084 -13.57545,0.97084" data-paper-data="{&quot;origPos&quot;:null,&quot;origRot&quot;:0}" stroke="#7da17c"/><path d="M321.66747,51.96739l2.88919,74.18636" data-paper-data="{&quot;origPos&quot;:null,&quot;origRot&quot;:0}" stroke="#739472"/><path d="M320.22072,94.9385c0,0 -7.90034,-0.06866 -12.95695,-0.1126c-1.8592,-0.01616 -4.79472,-2.51819 -4.81442,-4.10346c-0.05907,-4.7558 -0.37256,-29.99524 -0.37256,-29.99524" data-paper-data="{&quot;origPos&quot;:null,&quot;origRot&quot;:0}" stroke="#739472"/></g><path d="M252.16758,130.75412c0,0 6.56642,-16.07289 19.27815,-19.96912c16.09741,-4.93396 37.9666,-1.21366 54.95489,-1.21366c28.87152,0 25.08216,21.18278 25.08216,21.18278z" data-paper-data="{&quot;origPos&quot;:null}" fill="#998c76" stroke="none" stroke-width="0" stroke-linecap="butt"/><path d="M229.56485,134.9067c0,0 6.56642,-16.07289 19.27815,-19.96912c16.09741,-4.93396 37.9666,-1.21366 54.95489,-1.21366c28.87152,0 25.08216,21.18278 25.08216,21.18278z" data-paper-data="{&quot;origPos&quot;:null}" fill="#776d5b" stroke="none" stroke-width="0" stroke-linecap="butt"/><path d="M282.15513,127.8669c0,0 6.31735,-14.8501 14.48262,-16.86143c10.34003,-2.54702 22.8311,4.23139 32.96587,6.65817c17.224,4.12431 11.80035,24.39047 11.80035,24.39047z" data-paper-data="{&quot;origPos&quot;:null,&quot;origRot&quot;:0}" fill="#776d5b" stroke="none" stroke-width="0" stroke-linecap="butt"/><path d="M243.68421,364.47497c0,0 9.04063,-36.38326 26.5421,-45.20292c22.16286,-11.16871 52.27229,-2.74729 75.66171,-2.74729c39.75022,0 34.53303,47.95021 34.53303,47.95021z" data-paper-data="{&quot;origPos&quot;:null}" fill="#998c76" stroke="none" stroke-width="0" stroke-linecap="butt"/><path d="M212.56485,373.87496c0,0 9.04063,-36.38326 26.5421,-45.20292c22.16286,-11.16871 52.27229,-2.74729 75.66171,-2.74729c39.75022,0 34.53303,47.95021 34.53303,47.95021z" data-paper-data="{&quot;origPos&quot;:null}" fill="#776d5b" stroke="none" stroke-width="0" stroke-linecap="butt"/><path d="M254.97098,357.93935c0,0 8.69771,-33.6153 19.93963,-38.16821c14.23612,-5.76554 31.43378,9.57834 45.3873,15.07171c23.71394,9.33595 16.24669,55.21126 16.24669,55.21126z" data-paper-data="{&quot;origPos&quot;:null,&quot;origRot&quot;:0}" fill="#776d5b" stroke="none" stroke-width="0" stroke-linecap="butt"/><path d="M320.68422,351.47497c0,0 9.04063,-36.38326 26.5421,-45.20292c22.16286,-11.16871 52.27229,-2.74729 75.6617,-2.74729c39.75022,0 34.53303,47.95021 34.53303,47.95021z" data-paper-data="{&quot;origPos&quot;:null}" fill="#998c76" stroke="none" stroke-width="0" stroke-linecap="butt"/><path d="M289.56485,360.87497c0,0 9.04063,-36.38326 26.5421,-45.20292c22.16286,-11.16871 52.27229,-2.74729 75.6617,-2.74729c39.75022,0 34.53304,47.95021 34.53304,47.95021z" data-paper-data="{&quot;origPos&quot;:null}" fill="#776d5b" stroke="none" stroke-width="0" stroke-linecap="butt"/><path d="M361.97099,344.93935c0,0 8.69771,-33.6153 19.93963,-38.16821c14.23612,-5.76554 31.43378,9.57834 45.38729,15.07171c23.71393,9.33595 16.24669,55.21126 16.24669,55.21126z" data-paper-data="{&quot;origPos&quot;:null,&quot;origRot&quot;:0}" fill="#776d5b" stroke="none" stroke-width="0" stroke-linecap="butt"/><path d="M457.92736,130.6934l-7.88582,-28.94502l14.47251,-3.94291l7.88583,28.94501z" data-paper-data="{&quot;origPos&quot;:null,&quot;origRot&quot;:0}" fill="#999999" stroke="none" stroke-width="0" stroke-linecap="butt"/><path d="M440.16118,113.10721l-6.30866,-23.15601l39.23658,-10.68967l6.30866,23.15601z" data-paper-data="{&quot;origPos&quot;:null,&quot;origRot&quot;:0}" fill="#575757" stroke="none" stroke-width="0" stroke-linecap="butt"/><path d="M439.63545,111.17754l-6.30866,-23.15601l39.23658,-10.68967l6.30866,23.15601z" data-paper-data="{&quot;origPos&quot;:null,&quot;origRot&quot;:0}" fill="#8b8b8b" stroke="none" stroke-width="0" stroke-linecap="butt"/><path d="M444.63366,100.35728l-1.54341,-5.66511l15.04187,-4.09803l1.54342,5.66512z" data-paper-data="{&quot;origPos&quot;:null,&quot;origRot&quot;:0}" fill="#e9e9e9" stroke="none" stroke-width="0" stroke-linecap="butt"/><path d="M459.81582,102.93618l-4.73668,-17.38606l15.07509,4.49671z" data-paper-data="{&quot;origPos&quot;:null,&quot;origRot&quot;:0}" fill="#e9e9e9" stroke="none" stroke-width="0" stroke-linecap="butt"/></g></g></svg>