<svg version="1.1" xmlns="http://www.w3.org/2000/svg" xmlns:xlink="http://www.w3.org/1999/xlink" width="332.8642" height="471.03098"><g transform="translate(-320.81396,18.57689)"><g data-paper-data="{&quot;isPaintingLayer&quot;:true}" fill="none" fill-rule="nonzero" stroke="none" stroke-width="none" stroke-linecap="none" stroke-linejoin="miter" stroke-miterlimit="10" stroke-dasharray="" stroke-dashoffset="0" font-family="none" font-weight="none" font-size="none" text-anchor="none" style="mix-blend-mode: normal"><path d="M409.68422,451.87495c0,0 9.04063,-36.38326 26.5421,-45.20292c22.16286,-11.16871 52.27229,-2.74729 75.66171,-2.74729c39.75022,0 34.53303,47.95021 34.53303,47.95021z" data-paper-data="{&quot;origPos&quot;:null}" fill="#998c76" stroke="none" stroke-width="0" stroke-linecap="butt"/><path d="M441.68422,426.87495c0,0 9.04063,-36.38326 26.5421,-45.20292c22.16286,-11.16871 52.27229,-2.74729 75.66171,-2.74729c39.75022,0 34.53303,47.95021 34.53303,47.95021z" data-paper-data="{&quot;origPos&quot;:null}" fill="#998c76" stroke="none" stroke-width="0" stroke-linecap="butt"/><path d="M410.56486,436.27494c0,0 9.04063,-36.38326 26.5421,-45.20292c22.16286,-11.16871 52.27229,-2.74729 75.66171,-2.74729c39.75022,0 34.53303,47.95021 34.53303,47.95021z" data-paper-data="{&quot;origPos&quot;:null}" fill="#776d5b" stroke="none" stroke-width="0" stroke-linecap="butt"/><path d="M482.97099,420.33933c0,0 8.69771,-33.6153 19.93963,-38.16821c14.23612,-5.76554 31.43378,9.57834 45.3873,15.07171c23.71394,9.33595 16.24669,55.21126 16.24669,55.21126z" data-paper-data="{&quot;origPos&quot;:null,&quot;origRot&quot;:0}" fill="#776d5b" stroke="none" stroke-width="0" stroke-linecap="butt"/><path d="M404.68422,419.87495c0,0 9.04063,-36.38326 26.5421,-45.20292c22.16286,-11.16871 52.27229,-2.74729 75.66171,-2.74729c39.75022,0 34.53303,47.95021 34.53303,47.95021z" data-paper-data="{&quot;origPos&quot;:null}" fill="#998c76" stroke="none" stroke-width="0" stroke-linecap="butt"/><path d="M378.56486,417.27494c0,0 9.04063,-36.38326 26.5421,-45.20292c22.16286,-11.16871 52.27229,-2.74729 75.66171,-2.74729c39.75022,0 34.53303,47.95021 34.53303,47.95021z" data-paper-data="{&quot;origPos&quot;:null}" fill="#776d5b" stroke="none" stroke-width="0" stroke-linecap="butt"/><path d="M450.97099,401.33933c0,0 8.69771,-33.6153 19.93963,-38.16821c14.23612,-5.76554 31.43378,9.57834 45.3873,15.07171c23.71394,9.33595 16.24669,55.21126 16.24669,55.21126z" data-paper-data="{&quot;origPos&quot;:null,&quot;origRot&quot;:0}" fill="#776d5b" stroke="none" stroke-width="0" stroke-linecap="butt"/><path d="M480.68423,426.87495c0,0 9.04063,-36.38326 26.5421,-45.20292c22.16286,-11.16871 52.27229,-2.74729 75.6617,-2.74729c39.75022,0 34.53303,47.95021 34.53303,47.95021z" data-paper-data="{&quot;origPos&quot;:null}" fill="#998c76" stroke="none" stroke-width="0" stroke-linecap="butt"/><path d="M449.56486,436.27495c0,0 9.04063,-36.38326 26.5421,-45.20292c22.16286,-11.16871 52.27229,-2.74729 75.6617,-2.74729c39.75022,0 34.53304,47.95021 34.53304,47.95021z" data-paper-data="{&quot;origPos&quot;:null}" fill="#776d5b" stroke="none" stroke-width="0" stroke-linecap="butt"/><path d="M521.971,420.33933c0,0 8.69771,-33.6153 19.93963,-38.16821c14.23612,-5.76554 31.43378,9.57834 45.38729,15.07171c23.71393,9.33595 16.24669,55.21126 16.24669,55.21126z" data-paper-data="{&quot;origPos&quot;:null,&quot;origRot&quot;:0}" fill="#776d5b" stroke="none" stroke-width="0" stroke-linecap="butt"/><path d="M436.68422,394.87495c0,0 9.04063,-36.38326 26.5421,-45.20292c22.16286,-11.16871 52.27229,-2.74729 75.66171,-2.74729c39.75022,0 34.53303,47.95021 34.53303,47.95021z" data-paper-data="{&quot;origPos&quot;:null}" fill="#998c76" stroke="none" stroke-width="0" stroke-linecap="butt"/><path d="M405.56486,404.27494c0,0 9.04063,-36.38326 26.5421,-45.20292c22.16286,-11.16871 52.27229,-2.74729 75.66171,-2.74729c39.75022,0 34.53303,47.95021 34.53303,47.95021z" data-paper-data="{&quot;origPos&quot;:null}" fill="#776d5b" stroke="none" stroke-width="0" stroke-linecap="butt"/><path d="M477.97099,388.33933c0,0 8.69771,-33.6153 19.93963,-38.16821c14.23612,-5.76554 31.43378,9.57834 45.3873,15.07171c23.71394,9.33595 16.24669,55.21126 16.24669,55.21126z" data-paper-data="{&quot;origPos&quot;:null,&quot;origRot&quot;:0}" fill="#776d5b" stroke="none" stroke-width="0" stroke-linecap="butt"/><path d="M489.68423,418.87495c0,0 9.04063,-36.38326 26.5421,-45.20292c22.16286,-11.16871 52.27229,-2.74729 75.6617,-2.74729c39.75022,0 34.53303,47.95021 34.53303,47.95021z" data-paper-data="{&quot;origPos&quot;:null}" fill="#998c76" stroke="none" stroke-width="0" stroke-linecap="butt"/><path d="M463.56486,428.27495c0,0 9.04063,-36.38326 26.5421,-45.20292c22.16286,-11.16871 52.27229,-2.74729 75.6617,-2.74729c39.75022,0 34.53304,47.95021 34.53304,47.95021z" data-paper-data="{&quot;origPos&quot;:null}" fill="#776d5b" stroke="none" stroke-width="0" stroke-linecap="butt"/><path d="M327.43901,2.09097c-1.19514,0 -2.25747,-0.25895 -3.18702,-0.77684c-0.92291,-0.52453 -1.6433,-1.24824 -2.16119,-2.17115c-0.51789,-0.92954 -0.77683,-1.98857 -0.77683,-3.17706c0,-0.39174 0.12615,-0.71044 0.37846,-0.95611c0.25894,-0.24567 0.57433,-0.36849 0.94615,-0.36849c0.39173,0 0.71044,0.12283 0.95611,0.3685c0.24567,0.24567 0.3685,0.56438 0.3685,0.95611c0,0.73036 0.14939,1.37772 0.44818,1.94209c0.29879,0.55773 0.70712,0.99595 1.22501,1.31465c0.51789,0.31206 1.11878,0.4681 1.80266,0.4681c0.67724,0 1.27812,-0.15603 1.80266,-0.46809c0.53117,-0.3187 0.94283,-0.75691 1.23497,-1.31465c0.29879,-0.56437 0.44817,-1.21174 0.44817,-1.94209v-12.7182c0,-0.39173 0.12284,-0.71043 0.36851,-0.9561c0.2523,-0.24567 0.56437,-0.3685 0.93618,-0.3685c0.39173,0 0.71376,0.12283 0.96607,0.3685c0.25894,0.24567 0.38842,0.56438 0.38842,0.95611v12.71821c0,1.18849 -0.26559,2.24751 -0.79676,3.17706c-0.52454,0.92291 -1.24825,1.64662 -2.17116,2.17115c-0.91627,0.51789 -1.97528,0.77684 -3.17706,0.77684zM344.28598,1.9615c-1.16857,0 -2.21764,-0.24899 -3.14719,-0.74695c-0.92291,-0.50462 -1.65326,-1.24161 -2.19107,-2.21099c-0.53781,-0.96939 -0.80671,-2.16119 -0.80671,-3.57543v-6.26449c0,-0.37846 0.12283,-0.69052 0.3685,-0.93618c0.24567,-0.24567 0.55773,-0.3685 0.93619,-0.3685c0.37181,0 0.68056,0.12284 0.92623,0.3685c0.24567,0.24567 0.3685,0.55773 0.3685,0.93619v6.26449c0,0.9561 0.17927,1.74622 0.53781,2.37035c0.35854,0.61748 0.84324,1.07561 1.45408,1.3744c0.61084,0.29214 1.29805,0.43822 2.06161,0.43822c0.73036,0 1.38105,-0.14275 1.95205,-0.42825c0.571,-0.29214 1.02583,-0.68389 1.36445,-1.17522c0.33862,-0.49133 0.50794,-1.04243 0.50794,-1.65327h1.61343c0,1.04906 -0.25894,1.99853 -0.77683,2.8484c-0.51789,0.84987 -1.22501,1.5238 -2.12136,2.02177c-0.88971,0.49133 -1.90557,0.737 -3.04759,0.737zM349.92303,1.83202c-0.37181,0 -0.68388,-0.12284 -0.93619,-0.3685c-0.24567,-0.24567 -0.3685,-0.55772 -0.3685,-0.93618v-11.36371c0,-0.39174 0.12284,-0.70712 0.36851,-0.94615c0.2523,-0.23902 0.56437,-0.35854 0.93618,-0.35854c0.39173,0 0.70713,0.11952 0.94615,0.35854c0.23902,0.23902 0.35854,0.55441 0.35854,0.94615v11.36372c0,0.37846 -0.11951,0.69052 -0.35854,0.93619c-0.23902,0.24567 -0.55441,0.3685 -0.94614,0.3685zM374.11369,1.8619c-0.37181,0 -0.68057,-0.12283 -0.92623,-0.36849c-0.24567,-0.25231 -0.36849,-0.56438 -0.36849,-0.93619v-7.29031c0,-1.06898 -0.26559,-1.86241 -0.79676,-2.3803c-0.52454,-0.52454 -1.21173,-0.7868 -2.0616,-0.7868c-0.88307,0 -1.61011,0.30875 -2.18111,0.92624c-0.56437,0.61084 -0.84655,1.391 -0.84655,2.34047h-2.12136c0,-1.10218 0.2357,-2.07488 0.70712,-2.91811c0.47806,-0.84323 1.14534,-1.50055 2.00185,-1.97196c0.86315,-0.47806 1.84582,-0.71708 2.948,-0.71708c0.96938,0 1.82922,0.21246 2.5795,0.63741c0.75028,0.42494 1.33125,1.04906 1.74291,1.87237c0.4183,0.82332 0.62745,1.82258 0.62745,2.99779v7.29031c0,0.37181 -0.11951,0.68389 -0.35854,0.93619c-0.23902,0.24567 -0.55441,0.3685 -0.94615,0.3685zM357.11292,1.8619c-0.37182,0 -0.68389,-0.12283 -0.93619,-0.36849c-0.24567,-0.25231 -0.3685,-0.56438 -0.3685,-0.93619v-11.34379c0,-0.39173 0.12284,-0.70712 0.36851,-0.94614c0.2523,-0.23902 0.56437,-0.35854 0.93618,-0.35854c0.39174,0 0.70712,0.11952 0.94615,0.35854c0.23903,0.23902 0.35854,0.55441 0.35854,0.94615v11.34381c0,0.37181 -0.11951,0.68388 -0.35854,0.93618c-0.23903,0.24567 -0.55441,0.3685 -0.94614,0.3685zM365.62824,1.8619c-0.37181,0 -0.68388,-0.12283 -0.93619,-0.36849c-0.24567,-0.25231 -0.3685,-0.56438 -0.3685,-0.93619v-7.29031c0,-1.06898 -0.26227,-1.86241 -0.78679,-2.3803c-0.52454,-0.52454 -1.21173,-0.7868 -2.0616,-0.7868c-0.88307,0 -1.61343,0.30875 -2.19107,0.92624c-0.57765,0.61084 -0.86647,1.391 -0.86647,2.34047h-1.61342c0,-1.10218 0.21911,-2.07488 0.65732,-2.91811c0.44486,-0.84323 1.05902,-1.50055 1.8425,-1.97196c0.78348,-0.47806 1.67651,-0.71708 2.67909,-0.71708c0.96938,0 1.82589,0.21246 2.56953,0.63741c0.75027,0.42494 1.33457,1.04906 1.75287,1.87237c0.4183,0.82332 0.62745,1.82258 0.62745,2.99779v7.29031c0,0.37181 -0.11951,0.68389 -0.35854,0.93619c-0.23902,0.24567 -0.5544,0.3685 -0.94614,0.3685zM381.0283,7.79773c-0.37181,0 -0.68388,-0.12283 -0.93619,-0.36849c-0.24567,-0.24567 -0.36849,-0.55773 -0.36849,-0.93619v-11.62266c0.01992,-1.34121 0.3353,-2.5463 0.94615,-3.61528c0.61085,-1.07562 1.44412,-1.92216 2.49983,-2.53965c1.0557,-0.62412 2.24418,-0.93619 3.56547,-0.93619c1.34784,0 2.5463,0.31206 3.59536,0.93619c1.0557,0.61749 1.8923,1.46404 2.50978,2.53966c0.62412,1.06898 0.93619,2.27408 0.93619,3.61528c0,1.34121 -0.28551,2.54297 -0.85652,3.60531c-0.571,1.06234 -1.35117,1.90557 -2.34047,2.5297c-0.98266,0.61749 -2.09148,0.92623 -3.32645,0.92623c-1.00258,0 -1.92549,-0.20583 -2.76872,-0.61748c-0.84323,-0.4183 -1.56031,-0.98598 -2.15124,-1.70307v6.88198c0,0.37846 -0.11951,0.69052 -0.35854,0.93619c-0.23902,0.24567 -0.55441,0.3685 -0.94614,0.3685zM386.73506,-0.35906c0.86979,0 1.64331,-0.20915 2.32055,-0.62744c0.68388,-0.4183 1.22501,-0.98598 1.62339,-1.70306c0.39838,-0.72372 0.59757,-1.53707 0.59757,-2.44006c0,-0.91627 -0.19918,-1.73627 -0.59757,-2.45998c-0.39838,-0.72372 -0.93951,-1.29141 -1.62338,-1.70306c-0.67724,-0.4183 -1.45076,-0.62744 -2.32055,-0.62744c-0.84987,0 -1.62007,0.20915 -2.31059,0.62744c-0.68388,0.41165 -1.22169,0.97935 -1.61342,1.70307c-0.39174,0.72372 -0.58761,1.54371 -0.58761,2.45998c0,0.90299 0.19587,1.71635 0.58761,2.44007c0.39173,0.71708 0.92954,1.28477 1.61343,1.70307c0.69052,0.4183 1.46072,0.62745 2.31059,0.62745zM406.62164,1.83202c-0.3187,0 -0.60753,-0.11952 -0.86647,-0.35854c-0.2523,-0.23902 -0.37846,-0.55441 -0.37846,-0.94615v-12.56881c0,-1.2217 0.24235,-2.28071 0.72704,-3.17706c0.4847,-0.90299 1.15861,-1.60347 2.02177,-2.10144c0.86979,-0.50462 1.87569,-0.75691 3.01771,-0.75691c0.37181,0 0.68056,0.10956 0.92623,0.32867c0.24567,0.21911 0.3685,0.49797 0.3685,0.83659c0,0.32534 -0.12283,0.60421 -0.36849,0.83659c-0.24567,0.22575 -0.55441,0.33862 -0.92623,0.33862c-0.63076,0 -1.18516,0.14607 -1.66322,0.43822c-0.47805,0.28551 -0.84987,0.68389 -1.11546,1.19513c-0.25895,0.51125 -0.38842,1.11545 -0.38842,1.81261v12.8178c0,0.39174 -0.11951,0.70712 -0.35854,0.94615c-0.23902,0.23902 -0.571,0.35854 -0.99594,0.35854zM404.28117,-9.41218c-0.35854,0 -0.64735,-0.09959 -0.86646,-0.29879c-0.21911,-0.20583 -0.32866,-0.46145 -0.32866,-0.76687c0,-0.34526 0.10956,-0.61748 0.32867,-0.81667c0.21911,-0.20583 0.50794,-0.30874 0.86648,-0.30874h6.29436c0.35854,0 0.64736,0.10291 0.86647,0.30874c0.22575,0.19919 0.33862,0.47141 0.33862,0.81668c0,0.30542 -0.11287,0.56105 -0.33862,0.76688c-0.21911,0.19919 -0.50793,0.29879 -0.86647,0.29879zM415.72975,-6.89245c0,-1.01587 0.24899,-1.92549 0.74696,-2.72888c0.50462,-0.81003 1.18185,-1.45408 2.03172,-1.93213c0.84987,-0.47806 1.78274,-0.71708 2.79861,-0.71708c1.0225,0 1.78274,0.16599 2.28071,0.49797c0.50462,0.33198 0.69716,0.72704 0.57765,1.18517c-0.04648,0.23902 -0.14275,0.42494 -0.28882,0.55773c-0.14607,0.12616 -0.31206,0.20583 -0.49797,0.23902c-0.18591,0.0332 -0.39173,0.02324 -0.61749,-0.02987c-1.08226,-0.21911 -2.05828,-0.23571 -2.92808,-0.0498c-0.86979,0.18591 -1.557,0.53449 -2.0616,1.04575c-0.49797,0.51125 -0.74695,1.1553 -0.74695,1.93213zM415.74965,1.83202c-0.40502,0 -0.72039,-0.10624 -0.94614,-0.3187c-0.21911,-0.21247 -0.32866,-0.53116 -0.32866,-0.95611v-11.3936c0,-0.41165 0.10956,-0.72703 0.32867,-0.94614c0.22575,-0.21911 0.54113,-0.32866 0.94615,-0.32866c0.42494,0 0.74364,0.10624 0.9561,0.3187c0.21247,0.21246 0.3187,0.53116 0.3187,0.95611v11.39359c0,0.40502 -0.10624,0.7204 -0.3187,0.94615c-0.21247,0.21911 -0.53116,0.32867 -0.9561,0.32867zM432.17038,1.93161c-1.37441,0 -2.58945,-0.30211 -3.64515,-0.90631c-1.0557,-0.60421 -1.88565,-1.43748 -2.48986,-2.49982c-0.59757,-1.06234 -0.89635,-2.2807 -0.89635,-3.65511c0,-1.39432 0.29878,-2.62265 0.89635,-3.68499c0.60421,-1.06234 1.43416,-1.89562 2.48986,-2.49982c1.0557,-0.60421 2.27074,-0.9063 3.64515,-0.9063c1.36113,0 2.56954,0.3021 3.62524,0.90631c1.0557,0.60421 1.88233,1.43748 2.4799,2.49982c0.60421,1.06234 0.90632,2.29068 0.90632,3.685c0,1.3744 -0.29878,2.59277 -0.89635,3.65511c-0.59092,1.06234 -1.41424,1.89561 -2.46994,2.49982c-1.04906,0.60421 -2.26411,0.90632 -3.64516,0.90632zM432.17038,-0.35906c0.88307,0 1.66324,-0.20251 2.34047,-0.60752c0.68388,-0.41165 1.21505,-0.9727 1.59351,-1.68314c0.3851,-0.71708 0.57765,-1.54371 0.57765,-2.47989c0,-0.93618 -0.19254,-1.76282 -0.57765,-2.47989c-0.37846,-0.72372 -0.90963,-1.28809 -1.59351,-1.69311c-0.67724,-0.41165 -1.4574,-0.61749 -2.34047,-0.61749c-0.88307,0 -1.66654,0.20583 -2.35043,0.61749c-0.67724,0.40502 -1.21173,0.96938 -1.60346,1.69311c-0.3851,0.71708 -0.57765,1.54371 -0.57765,2.4799c0,0.93618 0.19255,1.76282 0.57765,2.47991c0.39173,0.71044 0.92623,1.27149 1.60348,1.68315c0.68388,0.40502 1.46735,0.60753 2.35043,0.60753zM461.36148,1.8619c-0.37181,0 -0.68056,-0.12283 -0.92622,-0.36849c-0.24567,-0.25231 -0.3685,-0.56438 -0.3685,-0.93619v-7.29031c0,-1.06898 -0.26558,-1.86241 -0.79675,-2.3803c-0.52454,-0.52454 -1.21173,-0.7868 -2.0616,-0.7868c-0.88307,0 -1.61011,0.30875 -2.18112,0.92624c-0.56437,0.61084 -0.84655,1.391 -0.84655,2.34047h-2.12135c0,-1.10218 0.23571,-2.07488 0.70713,-2.91811c0.47805,-0.84323 1.14534,-1.50055 2.00185,-1.97196c0.86316,-0.47806 1.84581,-0.71708 2.94799,-0.71708c0.96939,0 1.82922,0.21246 2.5795,0.63741c0.75028,0.42494 1.33124,1.04906 1.74291,1.87237c0.4183,0.82332 0.62744,1.82258 0.62744,2.99779v7.29031c0,0.37181 -0.11951,0.68389 -0.35854,0.93619c-0.23902,0.24567 -0.5544,0.3685 -0.94614,0.3685zM444.36072,1.8619c-0.37181,0 -0.68388,-0.12283 -0.93618,-0.36849c-0.24567,-0.25231 -0.36849,-0.56438 -0.36849,-0.93619v-11.34379c0,-0.39173 0.12283,-0.70712 0.3685,-0.94614c0.2523,-0.23902 0.56437,-0.35854 0.93619,-0.35854c0.39173,0 0.70712,0.11952 0.94615,0.35854c0.23902,0.23902 0.35854,0.55441 0.35854,0.94615v11.34381c0,0.37181 -0.11952,0.68388 -0.35854,0.93618c-0.23902,0.24567 -0.55441,0.3685 -0.94614,0.3685zM452.87604,1.8619c-0.37181,0 -0.68388,-0.12283 -0.93619,-0.36849c-0.24567,-0.25231 -0.36849,-0.56438 -0.36849,-0.93619v-7.29031c0,-1.06898 -0.26227,-1.86241 -0.78679,-2.3803c-0.52454,-0.52454 -1.21173,-0.7868 -2.0616,-0.7868c-0.88307,0 -1.61343,0.30875 -2.19108,0.92624c-0.57765,0.61084 -0.86647,1.391 -0.86647,2.34047h-1.61343c0,-1.10218 0.2191,-2.07488 0.65732,-2.91811c0.44485,-0.84323 1.05902,-1.50055 1.8425,-1.97196c0.78348,-0.47806 1.67651,-0.71708 2.6791,-0.71708c0.96939,0 1.8259,0.21246 2.56954,0.63741c0.75028,0.42494 1.33456,1.04906 1.75286,1.87237c0.4183,0.82332 0.62745,1.82258 0.62745,2.99779v7.29031c0,0.37181 -0.11951,0.68389 -0.35854,0.93619c-0.23902,0.24567 -0.55441,0.3685 -0.94615,0.3685zM475.74644,7.79773c-0.37181,0 -0.68388,-0.12283 -0.93618,-0.36849c-0.24567,-0.24567 -0.36849,-0.55773 -0.36849,-0.93619v-11.62266c0.01992,-1.34121 0.3353,-2.5463 0.94615,-3.61528c0.61084,-1.07562 1.44412,-1.92216 2.49982,-2.53965c1.0557,-0.62412 2.24419,-0.93619 3.56548,-0.93619c1.34784,0 2.54629,0.31206 3.59536,0.93619c1.0557,0.61749 1.8923,1.46404 2.50978,2.53966c0.62412,1.06898 0.93618,2.27408 0.93618,3.61528c0,1.34121 -0.28551,2.54297 -0.85651,3.60531c-0.57101,1.06234 -1.35117,1.90557 -2.34046,2.5297c-0.98266,0.61749 -2.09149,0.92623 -3.32646,0.92623c-1.00259,0 -1.92549,-0.20583 -2.76872,-0.61748c-0.84323,-0.4183 -1.56032,-0.98598 -2.15124,-1.70307v6.88198c0,0.37846 -0.11952,0.69052 -0.35854,0.93619c-0.23902,0.24567 -0.55441,0.3685 -0.94615,0.3685zM481.45321,-0.35906c0.86979,0 1.64331,-0.20915 2.32055,-0.62744c0.68389,-0.4183 1.22502,-0.98598 1.62339,-1.70306c0.39838,-0.72372 0.59757,-1.53707 0.59757,-2.44006c0,-0.91627 -0.19918,-1.73627 -0.59757,-2.45998c-0.39838,-0.72372 -0.93951,-1.29141 -1.62338,-1.70306c-0.67724,-0.4183 -1.45076,-0.62744 -2.32055,-0.62744c-0.84987,0 -1.62007,0.20915 -2.31059,0.62744c-0.68388,0.41165 -1.22169,0.97935 -1.61343,1.70307c-0.39173,0.72372 -0.5876,1.54371 -0.5876,2.45998c0,0.90299 0.19587,1.71635 0.58761,2.44007c0.39174,0.71708 0.92954,1.28477 1.61343,1.70307c0.69052,0.4183 1.46072,0.62745 2.31059,0.62745zM493.92919,1.83202c-0.37846,0 -0.69051,-0.12284 -0.93618,-0.3685c-0.24567,-0.24567 -0.3685,-0.55772 -0.3685,-0.93618v-11.3438c0,-0.39174 0.12284,-0.7038 0.36851,-0.93618c0.24567,-0.23902 0.55773,-0.35854 0.93618,-0.35854c0.3851,0 0.69717,0.11952 0.93619,0.35854c0.23903,0.23238 0.35854,0.54445 0.35854,0.93618v11.34381c0,0.37846 -0.11951,0.69052 -0.35854,0.93619c-0.23902,0.24567 -0.55109,0.3685 -0.93619,0.3685zM494.15826,-14.38195c-0.46478,0 -0.86316,-0.16599 -1.19514,-0.49797c-0.32534,-0.33198 -0.48801,-0.72704 -0.48801,-1.18517c0,-0.45813 0.16267,-0.85319 0.48802,-1.18517c0.33198,-0.33198 0.73035,-0.49797 1.19513,-0.49797c0.45813,0 0.85319,0.16599 1.18517,0.49797c0.33198,0.33198 0.49798,0.72704 0.49798,1.18517c0,0.45813 -0.166,0.85319 -0.49798,1.18518c-0.33198,0.33198 -0.72704,0.49797 -1.18517,0.49797zM503.38188,1.83202c-0.74364,0 -1.4076,-0.20251 -1.99189,-0.60753c-0.57764,-0.41165 -1.02913,-0.96938 -1.35448,-1.67318c-0.3187,-0.7038 -0.47806,-1.51716 -0.47806,-2.44006v-13.91333c0,-0.37846 0.11952,-0.68389 0.35854,-0.91627c0.23903,-0.23902 0.54446,-0.35854 0.91627,-0.35854c0.37846,0 0.68388,0.11951 0.91627,0.35854c0.23902,0.23238 0.35854,0.53781 0.35854,0.91627v13.91333c0,0.63076 0.11951,1.15197 0.35854,1.56364c0.23902,0.40502 0.54445,0.60753 0.91627,0.60753h0.63741c0.33862,0 0.61417,0.11952 0.82664,0.35854c0.21246,0.23902 0.3187,0.54445 0.3187,0.91627c0,0.37181 -0.16267,0.67724 -0.488,0.91626c-0.3187,0.23902 -0.73368,0.35854 -1.24493,0.35854zM511.0307,1.83202c-0.74364,0 -1.4076,-0.20251 -1.99189,-0.60753c-0.57764,-0.41165 -1.02913,-0.96938 -1.35448,-1.67318c-0.3187,-0.7038 -0.47805,-1.51716 -0.47805,-2.44006v-13.91333c0,-0.37846 0.11951,-0.68389 0.35854,-0.91627c0.23902,-0.23902 0.54445,-0.35854 0.91627,-0.35854c0.37846,0 0.68388,0.11951 0.91626,0.35854c0.23902,0.23238 0.35854,0.53781 0.35854,0.91627v13.91333c0,0.63076 0.11952,1.15197 0.35854,1.56364c0.23903,0.40502 0.54446,0.60753 0.91627,0.60753h0.63741c0.33862,0 0.61417,0.11952 0.82664,0.35854c0.21247,0.23902 0.3187,0.54445 0.3187,0.91627c0,0.37181 -0.16267,0.67724 -0.488,0.91626c-0.3187,0.23902 -0.73368,0.35854 -1.24493,0.35854zM520.4145,1.93161c-1.24161,0 -2.35707,-0.30874 -3.34637,-0.92622c-0.98266,-0.62413 -1.7595,-1.46736 -2.33051,-2.5297c-0.56437,-1.06234 -0.84655,-2.26411 -0.84655,-3.60531c0,-1.34121 0.30875,-2.5463 0.92623,-3.61527c0.62412,-1.07562 1.46736,-1.92217 2.5297,-2.53966c1.06234,-0.62412 2.25415,-0.93618 3.57544,-0.93618c1.32792,0 2.51642,0.31206 3.56548,0.93618c1.0557,0.61749 1.89229,1.46404 2.50977,2.53966c0.62412,1.06898 0.93619,2.27408 0.93619,3.61528h-0.99595c0,1.34121 -0.28551,2.54298 -0.85651,3.60532c-0.56437,1.06234 -1.34121,1.90557 -2.33051,2.5297c-0.98266,0.61748 -2.09481,0.92623 -3.33641,0.92623zM520.92242,-0.35906c0.86979,0 1.64331,-0.20915 2.32055,-0.62744c0.68389,-0.4183 1.21837,-0.98598 1.60347,-1.70306c0.39174,-0.72372 0.58761,-1.53707 0.58761,-2.44006c0,-0.91627 -0.19586,-1.73627 -0.5876,-2.45998c-0.3851,-0.72372 -0.9196,-1.29141 -1.60347,-1.70306c-0.67724,-0.4183 -1.45076,-0.62744 -2.32055,-0.62744c-0.84987,0 -1.62007,0.20915 -2.31059,0.62744c-0.68389,0.41165 -1.225,0.97935 -1.62338,1.70307c-0.39838,0.72372 -0.59757,1.54371 -0.59757,2.45998c0,0.90299 0.19918,1.71635 0.59757,2.44007c0.39838,0.71708 0.93951,1.28477 1.62339,1.70307c0.69052,0.4183 1.46072,0.62745 2.31059,0.62745zM526.63912,1.8619c-0.37846,0 -0.69052,-0.12283 -0.93618,-0.36849c-0.24567,-0.25231 -0.3685,-0.56438 -0.3685,-0.93619v-3.9041l0.48801,-2.699l2.1114,0.91627v5.68684c0,0.37181 -0.12284,0.68388 -0.3685,0.93619c-0.24567,0.24567 -0.55441,0.3685 -0.92622,0.3685zM533.06296,-6.89245c0,-1.01587 0.24899,-1.92549 0.74696,-2.72888c0.50462,-0.81003 1.18186,-1.45408 2.03173,-1.93213c0.84987,-0.47806 1.78274,-0.71708 2.7986,-0.71708c1.0225,0 1.78275,0.16599 2.28072,0.49797c0.50462,0.33198 0.69716,0.72704 0.57764,1.18517c-0.04648,0.23902 -0.14275,0.42494 -0.28882,0.55773c-0.14607,0.12616 -0.31206,0.20583 -0.49797,0.23902c-0.18591,0.0332 -0.39173,0.02324 -0.61748,-0.02987c-1.08226,-0.21911 -2.05829,-0.23571 -2.92808,-0.0498c-0.86979,0.18591 -1.557,0.53449 -2.0616,1.04575c-0.49797,0.51125 -0.74696,1.1553 -0.74696,1.93213zM533.08288,1.83202c-0.40502,0 -0.7204,-0.10624 -0.94615,-0.3187c-0.21911,-0.21247 -0.32865,-0.53116 -0.32865,-0.95611v-11.3936c0,-0.41165 0.10956,-0.72703 0.32867,-0.94614c0.22575,-0.21911 0.54113,-0.32866 0.94615,-0.32866c0.42494,0 0.74364,0.10624 0.95611,0.3187c0.21247,0.21246 0.3187,0.53116 0.3187,0.95611v11.39359c0,0.40502 -0.10623,0.7204 -0.3187,0.94615c-0.21247,0.21911 -0.53117,0.32867 -0.95611,0.32867zM556.74886,1.83202c-0.84987,0 -1.61676,-0.21579 -2.30063,-0.64736c-0.67724,-0.43822 -1.21173,-1.02914 -1.60346,-1.77278c-0.39174,-0.75027 -0.5876,-1.59351 -0.5876,-2.5297v-12.16047c0,-0.37181 0.11952,-0.67724 0.35854,-0.91627c0.23902,-0.23902 0.54445,-0.35854 0.91627,-0.35854c0.37846,0 0.68389,0.11952 0.91627,0.35854c0.23902,0.23902 0.35854,0.54445 0.35854,0.91627v12.16047c0,0.68389 0.18591,1.25489 0.55773,1.71303c0.37846,0.45813 0.83991,0.6872 1.38437,0.6872h0.86648c0.30543,0 0.56437,0.11952 0.77683,0.35854c0.21247,0.23902 0.31871,0.54445 0.31871,0.91627c0,0.37181 -0.14275,0.67724 -0.42826,0.91627c-0.27886,0.23902 -0.63741,0.35854 -1.07562,0.35854zM551.0919,-9.41218c-0.35854,0 -0.65068,-0.09959 -0.87643,-0.29879c-0.21911,-0.20583 -0.32865,-0.46145 -0.32865,-0.76687c0,-0.34526 0.10956,-0.61748 0.32867,-0.81667c0.22575,-0.20583 0.51789,-0.30874 0.87643,-0.30874h5.88603c0.35854,0 0.64737,0.10291 0.86648,0.30874c0.21911,0.19919 0.32867,0.47141 0.32867,0.81668c0,0.30542 -0.10955,0.56105 -0.32866,0.76688c-0.21911,0.19919 -0.50793,0.29879 -0.86647,0.29879zM568.21773,1.93161c-1.3744,0 -2.58945,-0.30211 -3.64515,-0.90631c-1.0557,-0.60421 -1.88565,-1.43748 -2.48986,-2.49982c-0.59757,-1.06234 -0.89635,-2.2807 -0.89635,-3.65511c0,-1.39432 0.29878,-2.62265 0.89635,-3.68499c0.60421,-1.06234 1.43416,-1.89562 2.48986,-2.49982c1.0557,-0.60421 2.27075,-0.9063 3.64515,-0.9063c1.36112,0 2.56954,0.3021 3.62524,0.90631c1.0557,0.60421 1.88234,1.43748 2.47992,2.49982c0.60421,1.06234 0.90632,2.29068 0.90632,3.685c0,1.3744 -0.29879,2.59277 -0.89635,3.65511c-0.59094,1.06234 -1.41426,1.89561 -2.46996,2.49982c-1.04906,0.60421 -2.26411,0.90632 -3.64515,0.90632zM568.21773,-0.35906c0.88307,0 1.66323,-0.20251 2.34047,-0.60752c0.68389,-0.41165 1.21505,-0.9727 1.59351,-1.68314c0.3851,-0.71708 0.57765,-1.54371 0.57765,-2.47989c0,-0.93618 -0.19255,-1.76282 -0.57765,-2.47989c-0.37846,-0.72372 -0.90962,-1.28809 -1.59351,-1.69311c-0.67724,-0.41165 -1.4574,-0.61749 -2.34046,-0.61749c-0.88307,0 -1.66655,0.20583 -2.35043,0.61749c-0.67724,0.40502 -1.21173,0.96938 -1.60346,1.69311c-0.3851,0.71708 -0.57764,1.54371 -0.57764,2.4799c0,0.93618 0.19254,1.76282 0.57764,2.47991c0.39174,0.71044 0.92623,1.27149 1.60348,1.68315c0.68389,0.40502 1.46735,0.60753 2.35043,0.60753zM587.87846,7.79773c-0.37182,0 -0.68388,-0.12283 -0.93619,-0.36849c-0.24567,-0.24567 -0.36849,-0.55773 -0.36849,-0.93619v-11.62266c0.01992,-1.34121 0.3353,-2.5463 0.94615,-3.61528c0.61085,-1.07562 1.44412,-1.92216 2.49982,-2.53965c1.0557,-0.62412 2.24419,-0.93619 3.56548,-0.93619c1.34784,0 2.54629,0.31206 3.59536,0.93619c1.0557,0.61749 1.89229,1.46404 2.50978,2.53966c0.62413,1.06898 0.93619,2.27408 0.93619,3.61528c0,1.34121 -0.2855,2.54297 -0.85651,3.60531c-0.57101,1.06234 -1.35117,1.90557 -2.34046,2.5297c-0.98266,0.61749 -2.09149,0.92623 -3.32646,0.92623c-1.00259,0 -1.92549,-0.20583 -2.76872,-0.61748c-0.84323,-0.4183 -1.56032,-0.98598 -2.15124,-1.70307v6.88198c0,0.37846 -0.11951,0.69052 -0.35854,0.93619c-0.23903,0.24567 -0.55441,0.3685 -0.94615,0.3685zM593.58522,-0.35906c0.86979,0 1.64331,-0.20915 2.32055,-0.62744c0.68389,-0.4183 1.22501,-0.98598 1.62339,-1.70306c0.39838,-0.72372 0.59757,-1.53707 0.59757,-2.44006c0,-0.91627 -0.19919,-1.73627 -0.59757,-2.45998c-0.39838,-0.72372 -0.93951,-1.29141 -1.62338,-1.70306c-0.67724,-0.4183 -1.45075,-0.62744 -2.32054,-0.62744c-0.84987,0 -1.62007,0.20915 -2.31059,0.62744c-0.68389,0.41165 -1.2217,0.97935 -1.61343,1.70307c-0.39174,0.72372 -0.5876,1.54371 -0.5876,2.45998c0,0.90299 0.19587,1.71635 0.58761,2.44007c0.39174,0.71708 0.92954,1.28477 1.61343,1.70307c0.69052,0.4183 1.46071,0.62745 2.31059,0.62745zM606.06121,1.83202c-0.37846,0 -0.69052,-0.12284 -0.93619,-0.3685c-0.24567,-0.24567 -0.36849,-0.55772 -0.36849,-0.93618v-11.3438c0,-0.39174 0.12284,-0.7038 0.3685,-0.93618c0.24567,-0.23902 0.55773,-0.35854 0.93619,-0.35854c0.3851,0 0.69717,0.11952 0.93619,0.35854c0.23902,0.23238 0.35854,0.54445 0.35854,0.93618v11.34381c0,0.37846 -0.11952,0.69052 -0.35854,0.93619c-0.23902,0.24567 -0.55109,0.3685 -0.93619,0.3685zM606.29028,-14.38195c-0.46478,0 -0.86316,-0.16599 -1.19513,-0.49797c-0.32535,-0.33198 -0.48801,-0.72704 -0.48801,-1.18517c0,-0.45813 0.16267,-0.85319 0.48801,-1.18517c0.33198,-0.33198 0.73036,-0.49797 1.19513,-0.49797c0.45813,0 0.85319,0.16599 1.18518,0.49797c0.33198,0.33198 0.49797,0.72704 0.49797,1.18517c0,0.45813 -0.166,0.85319 -0.49797,1.18518c-0.33198,0.33198 -0.72704,0.49797 -1.18517,0.49797zM615.51388,1.83202c-0.74364,0 -1.4076,-0.20251 -1.99189,-0.60753c-0.57764,-0.41165 -1.02913,-0.96938 -1.35448,-1.67318c-0.3187,-0.7038 -0.47805,-1.51716 -0.47805,-2.44006v-13.91333c0,-0.37846 0.11951,-0.68389 0.35854,-0.91627c0.23903,-0.23902 0.54446,-0.35854 0.91627,-0.35854c0.37846,0 0.68388,0.11951 0.91626,0.35854c0.23903,0.23238 0.35854,0.53781 0.35854,0.91627v13.91333c0,0.63076 0.11951,1.15197 0.35854,1.56364c0.23903,0.40502 0.54446,0.60753 0.91627,0.60753h0.6374c0.33862,0 0.61417,0.11952 0.82664,0.35854c0.21247,0.23902 0.31871,0.54445 0.31871,0.91627c0,0.37181 -0.16268,0.67724 -0.48801,0.91626c-0.3187,0.23902 -0.73368,0.35854 -1.24493,0.35854zM623.16273,1.83202c-0.74364,0 -1.4076,-0.20251 -1.99189,-0.60753c-0.57765,-0.41165 -1.02914,-0.96938 -1.35449,-1.67318c-0.3187,-0.7038 -0.47805,-1.51716 -0.47805,-2.44006v-13.91333c0,-0.37846 0.11951,-0.68389 0.35854,-0.91627c0.23902,-0.23902 0.54445,-0.35854 0.91627,-0.35854c0.37846,0 0.68388,0.11951 0.91627,0.35854c0.23902,0.23238 0.35854,0.53781 0.35854,0.91627v13.91333c0,0.63076 0.11952,1.15197 0.35854,1.56364c0.23902,0.40502 0.54445,0.60753 0.91627,0.60753h0.63741c0.33862,0 0.61416,0.11952 0.82664,0.35854c0.21246,0.23902 0.3187,0.54445 0.3187,0.91627c0,0.37181 -0.16267,0.67724 -0.48801,0.91626c-0.3187,0.23902 -0.73368,0.35854 -1.24493,0.35854zM632.54651,1.93161c-1.24161,0 -2.35708,-0.30874 -3.34638,-0.92622c-0.98266,-0.62413 -1.7595,-1.46736 -2.33051,-2.5297c-0.56437,-1.06234 -0.84655,-2.26411 -0.84655,-3.60531c0,-1.34121 0.30875,-2.5463 0.92623,-3.61527c0.62412,-1.07562 1.46736,-1.92217 2.5297,-2.53966c1.06234,-0.62412 2.25415,-0.93618 3.57544,-0.93618c1.32792,0 2.51642,0.31206 3.56548,0.93618c1.0557,0.61749 1.89229,1.46404 2.50977,2.53966c0.62412,1.06898 0.93619,2.27408 0.93619,3.61528h-0.99595c0,1.34121 -0.2855,2.54298 -0.85651,3.60532c-0.56437,1.06234 -1.34121,1.90557 -2.33051,2.5297c-0.98266,0.61748 -2.09481,0.92623 -3.33641,0.92623zM633.05444,-0.35906c0.86979,0 1.64331,-0.20915 2.32055,-0.62744c0.68389,-0.4183 1.21837,-0.98598 1.60347,-1.70306c0.39174,-0.72372 0.58761,-1.53707 0.58761,-2.44006c0,-0.91627 -0.19587,-1.73627 -0.5876,-2.45998c-0.3851,-0.72372 -0.9196,-1.29141 -1.60347,-1.70306c-0.67724,-0.4183 -1.45076,-0.62744 -2.32054,-0.62744c-0.84987,0 -1.62007,0.20915 -2.31059,0.62744c-0.68388,0.41165 -1.225,0.97935 -1.62338,1.70307c-0.39838,0.72372 -0.59756,1.54371 -0.59756,2.45998c0,0.90299 0.19918,1.71635 0.59756,2.44007c0.39838,0.71708 0.93951,1.28477 1.62339,1.70307c0.69052,0.4183 1.46072,0.62745 2.31059,0.62745zM638.77114,1.8619c-0.37846,0 -0.69052,-0.12283 -0.93619,-0.36849c-0.24567,-0.25231 -0.36849,-0.56438 -0.36849,-0.93619v-3.9041l0.48802,-2.699l2.1114,0.91627v5.68684c0,0.37181 -0.12284,0.68388 -0.3685,0.93619c-0.24567,0.24567 -0.55441,0.3685 -0.92622,0.3685zM645.195,-6.89245c0,-1.01587 0.24899,-1.92549 0.74696,-2.72888c0.50462,-0.81003 1.18185,-1.45408 2.03172,-1.93213c0.84987,-0.47806 1.78274,-0.71708 2.79861,-0.71708c1.02251,0 1.78274,0.16599 2.28071,0.49797c0.50462,0.33198 0.69716,0.72704 0.57765,1.18517c-0.04648,0.23902 -0.14275,0.42494 -0.28882,0.55773c-0.14607,0.12616 -0.31207,0.20583 -0.49797,0.23902c-0.18591,0.0332 -0.39173,0.02324 -0.61748,-0.02987c-1.08226,-0.21911 -2.05829,-0.23571 -2.92808,-0.0498c-0.86979,0.18591 -1.55699,0.53449 -2.0616,1.04575c-0.49797,0.51125 -0.74696,1.1553 -0.74696,1.93213zM645.21492,1.83202c-0.40502,0 -0.7204,-0.10624 -0.94615,-0.3187c-0.21911,-0.21247 -0.32866,-0.53116 -0.32866,-0.95611v-11.3936c0,-0.41165 0.10955,-0.72703 0.32866,-0.94614c0.22575,-0.21911 0.54113,-0.32866 0.94615,-0.32866c0.42494,0 0.74365,0.10624 0.95611,0.3187c0.21247,0.21246 0.3187,0.53116 0.3187,0.95611v11.39359c0,0.40502 -0.10623,0.7204 -0.3187,0.94615c-0.21247,0.21911 -0.53117,0.32867 -0.95611,0.32867z" data-paper-data="{&quot;origPos&quot;:null}" fill="#776d5b" stroke="#776d5b" stroke-width="1" stroke-linecap="square"/></g></g></svg>