<svg version="1.1" xmlns="http://www.w3.org/2000/svg" xmlns:xlink="http://www.w3.org/1999/xlink" width="186.79513" height="88.12733"><g transform="translate(-155.70735,-146.08058)"><g data-paper-data="{&quot;isPaintingLayer&quot;:true}" fill="none" fill-rule="nonzero" stroke="none" stroke-width="none" stroke-linecap="none" stroke-linejoin="miter" stroke-miterlimit="10" stroke-dasharray="" stroke-dashoffset="0" font-family="none" font-weight="none" font-size="none" text-anchor="none" style="mix-blend-mode: normal"><path d="M178.71296,223.72332c0,0 -1.36451,-7.36133 -1.09932,-11.42078c0.43584,-6.67198 1.54443,-9.39751 1.54443,-16.07778c0,-4.73628 -2.20966,-10.6396 -3.98931,-15.29507c-2.3762,-6.21598 -0.01664,-14.94899 -0.01664,-14.94899h148.82636c0,0 0,9.77584 0,15.75393c0,16.30159 0,41.33499 0,41.33499z" data-paper-data="{&quot;origPos&quot;:null}" fill="#a1937c" stroke="#000000" stroke-width="0" stroke-linecap="butt"/><path d="M173.17869,170.41782v-11.54852h151.45764v11.54852z" data-paper-data="{&quot;origPos&quot;:null}" fill="#706756" stroke="#000000" stroke-width="0" stroke-linecap="butt"/><path d="M172.67454,168.01868v-10.89071c0,0 26.86835,0 44.06546,0c43.48991,0 111.43749,0 111.43749,0v10.89071z" data-paper-data="{&quot;origPos&quot;:null}" fill="#8b7f6b" stroke="#000000" stroke-width="0" stroke-linecap="butt"/><path d="M160.94133,227.42928l-0.94476,-78.71742l24.51041,1.48242l0.76019,76.92454z" data-paper-data="{&quot;origPos&quot;:null,&quot;origRot&quot;:0}" fill="#d3bb76" stroke="none" stroke-width="0" stroke-linecap="butt"/><path d="M159.86398,184.20488l-0.3691,-26.38931l24.17969,-0.3382l0.36909,26.38931z" data-paper-data="{&quot;origPos&quot;:null,&quot;origRot&quot;:0}" fill="#b9a568" stroke="none" stroke-width="0" stroke-linecap="butt"/><path d="M156.04975,181.67126l-0.3424,-24.48096l31.54695,-0.44124l0.34241,24.48095z" data-paper-data="{&quot;origPos&quot;:null,&quot;origRot&quot;:0}" fill="#e7cd81" stroke="none" stroke-width="0" stroke-linecap="butt"/><path d="M159.96066,177.60796l-0.23779,-17.00134l3.40027,-0.04756l0.23779,17.00135z" data-paper-data="{&quot;origPos&quot;:null,&quot;origRot&quot;:0}" fill="#d3bb76" stroke="none" stroke-width="0" stroke-linecap="butt"/><path d="M179.79294,177.14163l-0.23779,-17.00136l3.40027,-0.04756l0.23779,17.00135z" data-paper-data="{&quot;origPos&quot;:null,&quot;origRot&quot;:0}" fill="#d3bb76" stroke="none" stroke-width="0" stroke-linecap="butt"/><path d="M166.00295,177.33448l-0.23779,-17.00135l3.40027,-0.04756l0.23779,17.00136z" data-paper-data="{&quot;origPos&quot;:null,&quot;origRot&quot;:0}" fill="#d3bb76" stroke="none" stroke-width="0" stroke-linecap="butt"/><path d="M173.93691,177.22351l-0.23779,-17.00135l3.40027,-0.04756l0.23779,17.00135z" data-paper-data="{&quot;origPos&quot;:null,&quot;origRot&quot;:0}" fill="#d3bb76" stroke="none" stroke-width="0" stroke-linecap="butt"/><path d="M166.91404,177.18322l-0.05283,-3.77807l8.50068,-0.1189l0.05284,3.77808z" data-paper-data="{&quot;origPos&quot;:null,&quot;origRot&quot;:0}" fill="#d3bb76" stroke="none" stroke-width="0" stroke-linecap="butt"/><path d="M167.29845,154.69702l-0.05284,-3.77808l8.50068,-0.1189l0.05283,3.77808z" data-paper-data="{&quot;origPos&quot;:null,&quot;origRot&quot;:0}" fill="#d3bb76" stroke="none" stroke-width="0" stroke-linecap="butt"/><path d="M160.18361,234.20791l-0.59316,-42.40893l24.55751,-0.34348l0.59316,42.40893z" data-paper-data="{&quot;origPos&quot;:null,&quot;origRot&quot;:0}" fill="#b9a568" stroke="none" stroke-width="0" stroke-linecap="butt"/><path d="M156.36817,231.58776l-0.59647,-42.64506l31.54695,-0.44125l0.59646,42.64506z" data-paper-data="{&quot;origPos&quot;:null,&quot;origRot&quot;:0}" fill="#e7cd81" stroke="none" stroke-width="0" stroke-linecap="butt"/><path d="M161.09393,224.99376l-0.43595,-31.16913l3.40026,-0.04755l0.43596,31.16914z" data-paper-data="{&quot;origPos&quot;:null,&quot;origRot&quot;:0}" fill="#b9a568" stroke="none" stroke-width="0" stroke-linecap="butt"/><path d="M161.08125,224.08704l-0.43595,-31.16914l3.40026,-0.04756l0.43595,31.16914z" data-paper-data="{&quot;origPos&quot;:null,&quot;origRot&quot;:0}" fill="#d3bb76" stroke="none" stroke-width="0" stroke-linecap="butt"/><path d="M160.80508,196.23723l-0.04598,-3.28692l16.43464,-0.22987l0.04597,3.28693z" data-paper-data="{&quot;origPos&quot;:null,&quot;origRot&quot;:0}" fill="#d3bb76" stroke="none" stroke-width="0" stroke-linecap="butt"/><path d="M174.15602,218.68939l-0.35986,-25.72872l3.40027,-0.04756l0.35986,25.72872z" data-paper-data="{&quot;origPos&quot;:null,&quot;origRot&quot;:0}" fill="#d3bb76" stroke="none" stroke-width="0" stroke-linecap="butt"/><path d="M167.58375,218.89469l-0.25048,-17.90809l3.40027,-0.04756l0.25048,17.9081z" data-paper-data="{&quot;origPos&quot;:null,&quot;origRot&quot;:0}" fill="#d3bb76" stroke="none" stroke-width="0" stroke-linecap="butt"/><path d="M167.69755,218.9271l-0.05073,-3.62696l9.74745,-0.13633l0.05073,3.62696z" data-paper-data="{&quot;origPos&quot;:null,&quot;origRot&quot;:0}" fill="#d3bb76" stroke="none" stroke-width="0" stroke-linecap="butt"/><path d="M161.10231,225.5945l-0.04597,-3.28693l22.32844,-0.3123l0.04598,3.28693z" data-paper-data="{&quot;origPos&quot;:null,&quot;origRot&quot;:0}" fill="#d3bb76" stroke="none" stroke-width="0" stroke-linecap="butt"/><path d="M180.59672,225.2878l-0.45499,-32.52925l3.40026,-0.04756l0.45498,32.52925z" data-paper-data="{&quot;origPos&quot;:null,&quot;origRot&quot;:0}" fill="#d3bb76" stroke="none" stroke-width="0" stroke-linecap="butt"/><path d="M315.52868,222.90923l-0.94476,-76.82865l24.5104,1.44685l0.76019,75.07879z" data-paper-data="{&quot;origPos&quot;:null,&quot;origRot&quot;:0}" fill="#d3bb76" stroke="none" stroke-width="0" stroke-linecap="butt"/><path d="M314.45133,181.57361l-0.3691,-26.38931l24.17969,-0.3382l0.36909,26.38931z" data-paper-data="{&quot;origPos&quot;:null,&quot;origRot&quot;:0}" fill="#b9a568" stroke="none" stroke-width="0" stroke-linecap="butt"/><path d="M310.63709,179.03999l-0.3424,-24.48096l31.54695,-0.44124l0.34241,24.48095z" data-paper-data="{&quot;origPos&quot;:null,&quot;origRot&quot;:0}" fill="#e7cd81" stroke="none" stroke-width="0" stroke-linecap="butt"/><path d="M314.548,174.97669l-0.23779,-17.00134l3.40027,-0.04756l0.2378,17.00135z" data-paper-data="{&quot;origPos&quot;:null,&quot;origRot&quot;:0}" fill="#d3bb76" stroke="none" stroke-width="0" stroke-linecap="butt"/><path d="M334.38028,174.51036l-0.23779,-17.00136l3.40027,-0.04756l0.23779,17.00135z" data-paper-data="{&quot;origPos&quot;:null,&quot;origRot&quot;:0}" fill="#d3bb76" stroke="none" stroke-width="0" stroke-linecap="butt"/><path d="M320.5903,174.70321l-0.23779,-17.00135l3.40027,-0.04756l0.23779,17.00136z" data-paper-data="{&quot;origPos&quot;:null,&quot;origRot&quot;:0}" fill="#d3bb76" stroke="none" stroke-width="0" stroke-linecap="butt"/><path d="M328.52426,174.59223l-0.23779,-17.00135l3.40027,-0.04756l0.23779,17.00135z" data-paper-data="{&quot;origPos&quot;:null,&quot;origRot&quot;:0}" fill="#d3bb76" stroke="none" stroke-width="0" stroke-linecap="butt"/><path d="M321.5014,174.55194l-0.05283,-3.77807l8.50068,-0.1189l0.05284,3.77808z" data-paper-data="{&quot;origPos&quot;:null,&quot;origRot&quot;:0}" fill="#d3bb76" stroke="none" stroke-width="0" stroke-linecap="butt"/><path d="M321.8858,152.06575l-0.05284,-3.77808l8.50068,-0.1189l0.05283,3.77809z" data-paper-data="{&quot;origPos&quot;:null,&quot;origRot&quot;:0}" fill="#d3bb76" stroke="none" stroke-width="0" stroke-linecap="butt"/><path d="M314.77096,231.57664l-0.59316,-42.40893l24.5575,-0.34348l0.59316,42.40893z" data-paper-data="{&quot;origPos&quot;:null,&quot;origRot&quot;:0}" fill="#b9a568" stroke="none" stroke-width="0" stroke-linecap="butt"/><path d="M310.95552,228.95649l-0.59646,-42.64506l31.54695,-0.44125l0.59647,42.64506z" data-paper-data="{&quot;origPos&quot;:null,&quot;origRot&quot;:0}" fill="#e7cd81" stroke="none" stroke-width="0" stroke-linecap="butt"/><path d="M315.68128,222.36248l-0.43596,-31.16913l3.40027,-0.04755l0.43596,31.16914z" data-paper-data="{&quot;origPos&quot;:null,&quot;origRot&quot;:0}" fill="#b9a568" stroke="none" stroke-width="0" stroke-linecap="butt"/><path d="M315.6686,221.45577l-0.43596,-31.16914l3.40027,-0.04756l0.43595,31.16914z" data-paper-data="{&quot;origPos&quot;:null,&quot;origRot&quot;:0}" fill="#d3bb76" stroke="none" stroke-width="0" stroke-linecap="butt"/><path d="M315.39243,193.60595l-0.04598,-3.28692l16.43463,-0.22986l0.04598,3.28692z" data-paper-data="{&quot;origPos&quot;:null,&quot;origRot&quot;:0}" fill="#d3bb76" stroke="none" stroke-width="0" stroke-linecap="butt"/><path d="M328.74338,216.05812l-0.35986,-25.72872l3.40027,-0.04756l0.35986,25.72872z" data-paper-data="{&quot;origPos&quot;:null,&quot;origRot&quot;:0}" fill="#d3bb76" stroke="none" stroke-width="0" stroke-linecap="butt"/><path d="M322.17109,216.26341l-0.25047,-17.90809l3.40027,-0.04756l0.25048,17.9081z" data-paper-data="{&quot;origPos&quot;:null,&quot;origRot&quot;:0}" fill="#d3bb76" stroke="none" stroke-width="0" stroke-linecap="butt"/><path d="M322.2849,216.29583l-0.05073,-3.62697l9.74745,-0.13633l0.05073,3.62696z" data-paper-data="{&quot;origPos&quot;:null,&quot;origRot&quot;:0}" fill="#d3bb76" stroke="none" stroke-width="0" stroke-linecap="butt"/><path d="M315.68966,222.96322l-0.04598,-3.28693l22.32844,-0.3123l0.04597,3.28693z" data-paper-data="{&quot;origPos&quot;:null,&quot;origRot&quot;:0}" fill="#d3bb76" stroke="none" stroke-width="0" stroke-linecap="butt"/><path d="M335.18407,222.65653l-0.45499,-32.52925l3.40027,-0.04756l0.45497,32.52925z" data-paper-data="{&quot;origPos&quot;:null,&quot;origRot&quot;:0}" fill="#d3bb76" stroke="none" stroke-width="0" stroke-linecap="butt"/><path d="M203.17975,204.57436c-0.42984,0 -0.78651,-0.14632 -1.07002,-0.43898c-0.27894,-0.29266 -0.4184,-0.6539 -0.4184,-1.08374v-19.80902c0,-0.42984 0.14632,-0.79108 0.43898,-1.08374c0.29266,-0.29266 0.64246,-0.43898 1.04944,-0.43898c0.42984,0 0.79108,0.14632 1.08374,0.43898c0.29266,0.29266 0.43898,0.6539 0.43898,1.08374v18.2863h10.59042c0.42984,0 0.79108,0.14632 1.08374,0.43898c0.29266,0.29266 0.43898,0.6539 0.43898,1.08374c0,0.42984 -0.14632,0.79108 -0.43898,1.08374c-0.29266,0.29266 -0.6539,0.43898 -1.08374,0.43898zM227.69943,204.69097c-1.61875,0 -3.05686,-0.34524 -4.31436,-1.03572c-1.2575,-0.69505 -2.24292,-1.65075 -2.95626,-2.86709c-0.71335,-1.22092 -1.07002,-2.62245 -1.07002,-4.20461c0,-1.59588 0.3361,-3.00427 1.00829,-4.22519c0.67677,-1.22092 1.6096,-2.17662 2.7985,-2.86709c1.18891,-0.69505 2.55387,-1.04258 4.09487,-1.04258c1.52272,0 2.83051,0.33838 3.92339,1.01515c1.09288,0.67219 1.92741,1.59817 2.50357,2.77793c0.57616,1.17976 0.86425,2.54015 0.86425,4.08115c0,0.37039 -0.12804,0.67905 -0.38411,0.92597c-0.2515,0.24235 -0.57387,0.36353 -0.96713,0.36353h-11.79076v-2.3458h11.70845l-1.20033,0.82309c-0.02286,-0.97399 -0.21949,-1.84509 -0.58988,-2.61331c-0.37039,-0.77279 -0.89626,-1.38324 -1.57759,-1.83137c-0.68133,-0.4527 -1.51128,-0.67905 -2.48984,-0.67905c-1.11117,0 -2.0623,0.24464 -2.85337,0.73392c-0.78651,0.48928 -1.38554,1.15919 -1.79708,2.00972c-0.41155,0.84595 -0.61732,1.80394 -0.61732,2.87396c0,1.07459 0.24464,2.03257 0.73392,2.87395c0.48928,0.83681 1.16147,1.49985 2.01657,1.98914c0.85967,0.48471 1.8451,0.72706 2.95627,0.72706c0.60818,0 1.22778,-0.11203 1.85882,-0.3361c0.63561,-0.22407 1.14775,-0.48242 1.53644,-0.77508c0.29266,-0.21492 0.60818,-0.32695 0.94656,-0.3361c0.34295,-0.00914 0.64246,0.09374 0.89854,0.30866c0.32924,0.29266 0.503,0.61503 0.52129,0.96713c0.02286,0.34753 -0.13261,0.64933 -0.46642,0.9054c-0.66305,0.52587 -1.48613,0.9557 -2.46927,1.28951c-0.98313,0.32924 -1.92511,0.49385 -2.82594,0.49385zM243.17941,204.54693c-0.6036,0 -1.0723,-0.32238 -1.40611,-0.96713l-6.20061,-13.08026c-0.15548,-0.32924 -0.17148,-0.6539 -0.04801,-0.97399c0.12804,-0.32466 0.37725,-0.57616 0.74764,-0.7545c0.33381,-0.17376 0.6699,-0.2012 1.00829,-0.08231c0.34295,0.11432 0.6036,0.33838 0.78194,0.67219l5.78907,12.49038h-1.39926l5.7342,-12.49038c0.17376,-0.33381 0.44127,-0.55787 0.80251,-0.67219c0.36125,-0.11889 0.72706,-0.09145 1.09746,0.08231c0.3521,0.15548 0.58531,0.40011 0.69963,0.73392c0.11889,0.33381 0.1006,0.66533 -0.05487,0.99457l-6.20746,13.08026c-0.29266,0.64476 -0.74078,0.96713 -1.34438,0.96713zM260.7348,204.69097c-1.61875,0 -3.05686,-0.34524 -4.31436,-1.03572c-1.2575,-0.69505 -2.24292,-1.65075 -2.95626,-2.86709c-0.71335,-1.22092 -1.07002,-2.62245 -1.07002,-4.20461c0,-1.59588 0.3361,-3.00427 1.00829,-4.22519c0.67677,-1.22092 1.6096,-2.17662 2.7985,-2.86709c1.18891,-0.69505 2.55387,-1.04258 4.09487,-1.04258c1.52272,0 2.83051,0.33838 3.92339,1.01515c1.09288,0.67219 1.92741,1.59817 2.50357,2.77793c0.57616,1.17976 0.86425,2.54015 0.86425,4.08115c0,0.37039 -0.12804,0.67905 -0.38411,0.92597c-0.2515,0.24235 -0.57387,0.36353 -0.96713,0.36353h-11.79076v-2.3458h11.70845l-1.20033,0.82309c-0.02286,-0.97399 -0.21949,-1.84509 -0.58988,-2.61331c-0.37039,-0.77279 -0.89626,-1.38324 -1.57759,-1.83137c-0.68133,-0.4527 -1.51128,-0.67905 -2.48984,-0.67905c-1.11117,0 -2.0623,0.24464 -2.85337,0.73392c-0.78651,0.48928 -1.38554,1.15919 -1.79708,2.00972c-0.41155,0.84595 -0.61732,1.80394 -0.61732,2.87396c0,1.07459 0.24464,2.03257 0.73392,2.87395c0.48928,0.83681 1.16147,1.49985 2.01657,1.98914c0.85967,0.48471 1.8451,0.72706 2.95627,0.72706c0.60818,0 1.22778,-0.11203 1.85882,-0.3361c0.63561,-0.22407 1.14775,-0.48242 1.53644,-0.77508c0.29266,-0.21492 0.60818,-0.32695 0.94656,-0.3361c0.34295,-0.00914 0.64246,0.09374 0.89854,0.30866c0.32924,0.29266 0.503,0.61503 0.52129,0.96713c0.02286,0.34753 -0.13261,0.64933 -0.46642,0.9054c-0.66305,0.52587 -1.48613,0.9557 -2.46927,1.28951c-0.98313,0.32924 -1.92511,0.49385 -2.82594,0.49385zM275.19506,204.57436c-0.85967,0 -1.62103,-0.23321 -2.28407,-0.69963c-0.66305,-0.47099 -1.17976,-1.11117 -1.55016,-1.92055c-0.37039,-0.80937 -0.55559,-1.73992 -0.55559,-2.79164v-15.9748c0,-0.42984 0.1349,-0.78194 0.40469,-1.0563c0.27436,-0.27436 0.62646,-0.41155 1.0563,-0.41155c0.42984,0 0.77964,0.13718 1.04944,0.41155c0.27436,0.27436 0.41155,0.62646 0.41155,1.0563v15.9748c0,0.72249 0.13718,1.31695 0.41155,1.78337c0.27436,0.46642 0.62646,0.69963 1.0563,0.69963h0.72706c0.38869,0 0.7042,0.13718 0.94656,0.41155c0.24693,0.27436 0.37039,0.62646 0.37039,1.0563c0,0.42984 -0.1852,0.78194 -0.55559,1.0563c-0.37039,0.26979 -0.84824,0.40469 -1.43354,0.40469z" data-paper-data="{&quot;origPos&quot;:null}" fill="#fafafa" stroke="#fafafa" stroke-width="1" stroke-linecap="square"/><g data-paper-data="{&quot;origPos&quot;:null}" fill="#fafafa" stroke="#fafafa" stroke-width="1" stroke-linecap="square"><path d="M297.64466,191.00886c0.58531,-0.65543 1.03801,-1.27152 1.3581,-1.8483c0.32009,-0.57677 0.48014,-1.12733 0.48014,-1.65167c0,-0.8171 -0.14632,-1.52276 -0.43898,-2.11702c-0.29266,-0.59862 -0.71335,-1.06179 -1.26207,-1.3895c-0.54415,-0.32771 -1.19577,-0.49157 -1.95483,-0.49157c-0.74078,0 -1.4084,0.18351 -2.00286,0.55055c-0.59446,0.36266 -1.06316,0.84768 -1.40611,1.45504c-0.34295,0.60299 -0.51443,1.26715 -0.51443,1.9925c0,0.37577 -0.14176,0.70349 -0.42526,0.98313c-0.27894,0.27965 -0.63332,0.41947 -1.06316,0.41947c-0.41155,0 -0.76364,-0.13982 -1.0563,-0.41947c-0.29266,-0.27965 -0.43898,-0.60736 -0.43898,-0.98313c0,-1.26715 0.3018,-2.39885 0.9054,-3.39509c0.60818,-0.99624 1.43355,-1.78275 2.47613,-2.35953c1.04258,-0.58115 2.21777,-0.87172 3.52557,-0.87172c1.32609,0 2.47613,0.27091 3.45012,0.81273c0.97857,0.54182 1.73535,1.30647 2.27036,2.29398c0.53501,0.98751 0.80251,2.16071 0.80251,3.51963c0,0.59862 -0.13261,1.20598 -0.39783,1.82208c-0.26065,0.61173 -0.59217,1.19724 -0.99457,1.75654c-0.39783,0.5593 -0.80023,1.06397 -1.2072,1.51403l-2.27581,2.46848c-0.89978,-0.25404 -1.85242,-0.39039 -2.83838,-0.39039c-0.09465,0 -0.18899,0.00126 -0.283,0.00375z" data-paper-data="{&quot;origPos&quot;:null}"/><path d="M295.85081,192.18269c0.09402,0.0025 0.18836,0.00376 0.28301,0.00376c0.98596,0 1.93859,-0.13635 2.83838,-0.39039l2.27581,2.46848c0.40697,0.45006 0.80937,0.95473 1.2072,1.51403c0.4024,0.5593 0.73392,1.14481 0.99457,1.75654c0.26522,0.6161 0.39783,1.22347 0.39783,1.82208c0,1.35892 -0.2675,2.53212 -0.80251,3.51963c-0.53501,0.9875 -1.29179,1.75216 -2.27036,2.29398c-0.97399,0.54182 -2.12403,0.81273 -3.45012,0.81273c-1.3078,0 -2.48299,-0.29057 -3.52557,-0.87172c-1.04258,-0.57677 -1.86795,-1.36328 -2.47613,-2.35953c-0.6036,-0.99624 -0.9054,-2.12794 -0.9054,-3.39509c0,-0.37577 0.14632,-0.70348 0.43898,-0.98313c0.29266,-0.27965 0.64475,-0.41947 1.0563,-0.41947c0.42984,0 0.78422,0.13982 1.06316,0.41947c0.2835,0.27964 0.42526,0.60736 0.42526,0.98313c0,0.72534 0.17148,1.3895 0.51443,1.9925c0.34295,0.60736 0.81165,1.09238 1.40611,1.45504c0.59446,0.36704 1.26208,0.55055 2.00286,0.55055c0.75906,0 1.41068,-0.16386 1.95483,-0.49157c0.54872,-0.32772 0.96941,-0.79089 1.26207,-1.3895c0.29266,-0.59425 0.43898,-1.29992 0.43898,-2.11702c0,-0.52434 -0.16005,-1.0749 -0.48014,-1.65167c-0.32009,-0.57678 -0.77279,-1.19288 -1.3581,-1.8483z" data-paper-data="{&quot;origPos&quot;:null,&quot;index&quot;:null}"/></g></g></g></svg>