<svg version="1.1" xmlns="http://www.w3.org/2000/svg" xmlns:xlink="http://www.w3.org/1999/xlink" width="819" height="519.43506"><g transform="translate(40,-77.36496)"><g data-paper-data="{&quot;isPaintingLayer&quot;:true}" fill="none" fill-rule="nonzero" stroke="none" stroke-width="0" stroke-linecap="butt" stroke-linejoin="miter" stroke-miterlimit="10" stroke-dasharray="" stroke-dashoffset="0" font-family="none" font-weight="none" font-size="none" text-anchor="none" style="mix-blend-mode: normal"><path d="M28.16349,296.17893l-1.4362,-187.13916l37.26013,3.52423l1.15562,182.87686z" data-paper-data="{&quot;origPos&quot;:null,&quot;origRot&quot;:0}" fill="#d3bb76" stroke="none"/><path d="M26.52573,162.99543l-0.5611,-40.11639l36.75739,-0.51412l0.56109,40.1164z" data-paper-data="{&quot;origPos&quot;:null,&quot;origRot&quot;:0}" fill="#b9a568" stroke="none"/><path d="M20.72742,159.14385l-0.52051,-37.21537l47.95692,-0.67076l0.52052,37.21536z" data-paper-data="{&quot;origPos&quot;:null,&quot;origRot&quot;:0}" fill="#e7cd81" stroke="none"/><path d="M26.67269,152.96693l-0.36148,-25.84504l5.16901,-0.0723l0.36149,25.84505z" data-paper-data="{&quot;origPos&quot;:null,&quot;origRot&quot;:0}" fill="#d3bb76" stroke="none"/><path d="M56.82125,152.25802l-0.36148,-25.84506l5.169,-0.0723l0.36148,25.84505z" data-paper-data="{&quot;origPos&quot;:null,&quot;origRot&quot;:0}" fill="#d3bb76" stroke="none"/><path d="M35.85805,152.5512l-0.36148,-25.84505l5.169,-0.0723l0.36148,25.84506z" data-paper-data="{&quot;origPos&quot;:null,&quot;origRot&quot;:0}" fill="#d3bb76" stroke="none"/><path d="M47.91906,152.3825l-0.36148,-25.84505l5.169,-0.0723l0.36148,25.84505z" data-paper-data="{&quot;origPos&quot;:null,&quot;origRot&quot;:0}" fill="#d3bb76" stroke="none"/><path d="M37.24307,152.32124l-0.08032,-5.74333l12.92253,-0.18075l0.08033,5.74334z" data-paper-data="{&quot;origPos&quot;:null,&quot;origRot&quot;:0}" fill="#d3bb76" stroke="none"/><path d="M37.82743,132.49462l-0.08033,-5.74334l12.92253,-0.18075l0.08032,5.74335z" data-paper-data="{&quot;origPos&quot;:null,&quot;origRot&quot;:0}" fill="#d3bb76" stroke="none"/><path d="M27.01162,239.00889l-0.9017,-64.46904l37.33173,-0.52215l0.9017,64.46904z" data-paper-data="{&quot;origPos&quot;:null,&quot;origRot&quot;:0}" fill="#b9a568" stroke="none"/><path d="M21.21148,235.02576l-0.90673,-64.828l47.95692,-0.67077l0.90673,64.828z" data-paper-data="{&quot;origPos&quot;:null,&quot;origRot&quot;:0}" fill="#e7cd81" stroke="none"/><path d="M28.39547,225.00174l-0.66273,-47.38257l5.169,-0.07229l0.66273,47.38258z" data-paper-data="{&quot;origPos&quot;:null,&quot;origRot&quot;:0}" fill="#b9a568" stroke="none"/><path d="M28.37619,223.62335l-0.66273,-47.38257l5.169,-0.0723l0.66272,47.38258z" data-paper-data="{&quot;origPos&quot;:null,&quot;origRot&quot;:0}" fill="#d3bb76" stroke="none"/><path d="M27.95637,181.28673l-0.0699,-4.9967l24.98354,-0.34944l0.06989,4.99671z" data-paper-data="{&quot;origPos&quot;:null,&quot;origRot&quot;:0}" fill="#d3bb76" stroke="none"/><path d="M48.25215,215.41796l-0.54705,-39.11218l5.16901,-0.0723l0.54705,39.11218z" data-paper-data="{&quot;origPos&quot;:null,&quot;origRot&quot;:0}" fill="#d3bb76" stroke="none"/><path d="M38.26113,215.73007l-0.38076,-27.22345l5.16901,-0.0723l0.38077,27.22346z" data-paper-data="{&quot;origPos&quot;:null,&quot;origRot&quot;:0}" fill="#d3bb76" stroke="none"/><path d="M38.43414,215.77934l-0.07712,-5.51362l14.81784,-0.20725l0.07712,5.51362z" data-paper-data="{&quot;origPos&quot;:null,&quot;origRot&quot;:0}" fill="#d3bb76" stroke="none"/><path d="M28.40821,225.91495l-0.06989,-4.99671l33.94316,-0.47476l0.06989,4.99671z" data-paper-data="{&quot;origPos&quot;:null,&quot;origRot&quot;:0}" fill="#d3bb76" stroke="none"/><path d="M58.04314,225.44874l-0.69166,-49.45019l5.169,-0.0723l0.69164,49.45019z" data-paper-data="{&quot;origPos&quot;:null,&quot;origRot&quot;:0}" fill="#d3bb76" stroke="none"/><path d="M28.11075,286.78986l-0.5611,-40.1164l36.7574,-0.51411l0.56109,40.1164z" data-paper-data="{&quot;origPos&quot;:null,&quot;origRot&quot;:0}" fill="#b9a568" stroke="none"/><path d="M22.31242,282.93823l-0.52052,-37.21536l47.95692,-0.67077l0.52051,37.21537z" data-paper-data="{&quot;origPos&quot;:null,&quot;origRot&quot;:0}" fill="#e7cd81" stroke="none"/><path d="M28.25773,276.76129l-0.36148,-25.84506l5.16901,-0.0723l0.36149,25.84505z" data-paper-data="{&quot;origPos&quot;:null,&quot;origRot&quot;:0}" fill="#d3bb76" stroke="none"/><path d="M58.40627,276.05235l-0.36149,-25.84506l5.169,-0.07229l0.36149,25.84505z" data-paper-data="{&quot;origPos&quot;:null,&quot;origRot&quot;:0}" fill="#d3bb76" stroke="none"/><path d="M37.44306,276.3456l-0.36149,-25.84505l5.16901,-0.0723l0.36148,25.84505z" data-paper-data="{&quot;origPos&quot;:null,&quot;origRot&quot;:0}" fill="#d3bb76" stroke="none"/><path d="M49.50408,276.1769l-0.36148,-25.84506l5.169,-0.0723l0.36148,25.84505z" data-paper-data="{&quot;origPos&quot;:null,&quot;origRot&quot;:0}" fill="#d3bb76" stroke="none"/><path d="M39.41246,256.289l-0.08032,-5.74333l12.92252,-0.18076l0.08033,5.74335z" data-paper-data="{&quot;origPos&quot;:null,&quot;origRot&quot;:0}" fill="#d3bb76" stroke="none"/><path d="M-38,511.20004v-174h664v174z" data-paper-data="{&quot;origPos&quot;:null}" fill="#9e8f7a" stroke="none"/><path d="M152,392.40006v-84h182v84z" data-paper-data="{&quot;origPos&quot;:null}" fill="#a1937c" stroke="none"/><path d="M-8.66666,495.1334v-105h196v105z" data-paper-data="{&quot;origPos&quot;:null}" fill="#9e8f7a" stroke="none"/><path d="M-13.66666,391.7334v-84h175v84z" data-paper-data="{&quot;origPos&quot;:null}" fill="#a1937c" stroke="none"/><path d="M-9.66666,312.50003v-17h174.68095v17z" data-paper-data="{&quot;origPos&quot;:null}" fill="#706756" stroke="#000000"/><path d="M-9.66666,308.00003v-17c0,0 30.18199,0 49.5,0c48.85348,0 125.18095,0 125.18095,0v17z" data-paper-data="{&quot;origPos&quot;:null}" fill="#8b7f6b" stroke="#000000"/><path d="M334.65684,413.29698v-47.38721h5.16951v47.38722z" data-paper-data="{&quot;origPos&quot;:null}" fill="#b9a568" stroke="none"/><path d="M334.65684,411.91844v-47.38721h5.16951v47.38722z" data-paper-data="{&quot;origPos&quot;:null}" fill="#d3bb76" stroke="none"/><path d="M344.65121,404.16414v-27.22611h5.16952v27.22611z" data-paper-data="{&quot;origPos&quot;:null}" fill="#d3bb76" stroke="none"/><path d="M344.82353,404.21586v-5.51415h14.81928v5.51415z" data-paper-data="{&quot;origPos&quot;:null}" fill="#d3bb76" stroke="none"/><path d="M334.65683,416.21025v-4.9972h33.94648v4.9972z" data-paper-data="{&quot;origPos&quot;:null}" fill="#d3bb76" stroke="none"/><path d="M333.50802,475.07507v-40.12033h36.76099v40.12033z" data-paper-data="{&quot;origPos&quot;:null}" fill="#b9a568" stroke="none"/><path d="M327.76415,471.14274v-37.21901h47.96161v37.21901z" data-paper-data="{&quot;origPos&quot;:null}" fill="#e7cd81" stroke="none"/><path d="M333.79525,465.04957v-25.84758h5.16952v25.84758z" data-paper-data="{&quot;origPos&quot;:null}" fill="#d3bb76" stroke="none"/><path d="M302.95075,464.76236v-25.84758h5.16951v25.84758z" data-paper-data="{&quot;origPos&quot;:null}" fill="#d3bb76" stroke="none"/><path d="M342.9855,464.76236v-25.84758h5.16951v25.84758z" data-paper-data="{&quot;origPos&quot;:null}" fill="#d3bb76" stroke="none"/><path d="M355.04769,464.76236v-25.84758h5.16951v25.84758z" data-paper-data="{&quot;origPos&quot;:null}" fill="#d3bb76" stroke="none"/><path d="M344.37361,464.55176v-5.7439h12.92379v5.7439z" data-paper-data="{&quot;origPos&quot;:null}" fill="#d3bb76" stroke="none"/><path d="M345.23519,444.73529v-5.74391h12.92379v5.74391z" data-paper-data="{&quot;origPos&quot;:null}" fill="#d3bb76" stroke="none"/><path d="M146,456.80004v-80h198v80z" data-paper-data="{&quot;origPos&quot;:null}" fill="#9e8f7a" stroke="none"/><path d="M330.17949,345.07043c0,0 -2.07429,-11.19051 -1.67116,-17.3616c0.66255,-10.14259 2.3478,-14.28587 2.3478,-24.44105c0,-7.19999 -3.35907,-16.17407 -6.06446,-23.2512c-3.61225,-9.44938 -0.02529,-22.7251 -0.02529,-22.7251h226.24228c0,0 0,14.86099 0,23.94875c0,24.78129 0,62.83647 0,62.83647z" data-paper-data="{&quot;origPos&quot;:null}" fill="#a1937c" stroke="#000000"/><path d="M323,372.00001v-71c0,0 80.53455,1 157.24137,1c101.25302,0 298.75863,-1 298.75863,-1v71z" data-paper-data="{&quot;origPos&quot;:null}" fill="#9e8f7a" stroke="none"/><path d="M327.76639,264.03666v-17.55579h226.24228v17.55579z" data-paper-data="{&quot;origPos&quot;:null}" fill="#706756" stroke="#000000"/><path d="M321,259.38955v-16.55579c0,0 40.84462,0 66.98726,0c66.11233,0 169.40461,0 169.40461,0v16.55579z" data-paper-data="{&quot;origPos&quot;:null}" fill="#8b7f6b" stroke="#000000"/><path d="M160.99999,312.50003v-17h174.68095v17z" data-paper-data="{&quot;origPos&quot;:null}" fill="#706756" stroke="#000000"/><path d="M26.52573,114.99548l-0.5611,-37.15435l36.75739,-0.47616l0.56109,37.15436z" data-paper-data="{&quot;origPos&quot;:null,&quot;origRot&quot;:0}" fill="#b9a568" stroke="none"/><path d="M160.99999,308.00003v-17c0,0 30.18199,0 49.5,0c48.85348,0 125.18095,0 125.18095,0v17z" data-paper-data="{&quot;origPos&quot;:null}" fill="#8b7f6b" stroke="#000000"/><path d="M1,596.80003v-253h528v253z" data-paper-data="{&quot;origPos&quot;:null}" fill="#9e8f7a" stroke="none"/><path d="M-40,112.80004v-35h112v35z" data-paper-data="{&quot;origPos&quot;:null}" fill="#e7cd81" stroke="none"/><path d="M-40,101.80005v-24h112v24z" data-paper-data="{&quot;origPos&quot;:null}" fill="#d8c079" stroke="none"/><path d="M-40,94.80004v-17h112v17z" data-paper-data="{&quot;origPos&quot;:null}" fill="#d3bb76" stroke="none"/><path d="M-27.23584,87.11171v-6.62785h26.36392v6.62785z" data-paper-data="{&quot;origPos&quot;:null}" fill="#e7cd81" stroke="none"/><path d="M-23.92062,86.02666v-4.60286h2.84162v4.60286z" data-paper-data="{&quot;origPos&quot;:null}" fill="#d3bb76" stroke="none"/><path d="M-18.86884,85.97551v-4.60286h2.84162v4.60286z" data-paper-data="{&quot;origPos&quot;:null}" fill="#d3bb76" stroke="none"/><path d="M-2.73584,87.11171v-6.62785h26.36392v6.62785z" data-paper-data="{&quot;origPos&quot;:null}" fill="#e7cd81" stroke="none"/><path d="M23.01416,87.1927v-6.62785h25.32728v6.62785z" data-paper-data="{&quot;origPos&quot;:null}" fill="#e7cd81" stroke="none"/><path d="M46.5508,87.1927v-6.62785h25.32727v6.62785z" data-paper-data="{&quot;origPos&quot;:null}" fill="#e7cd81" stroke="none"/></g></g></svg>