<svg version="1.1" xmlns="http://www.w3.org/2000/svg" xmlns:xlink="http://www.w3.org/1999/xlink" width="401.22447" height="553.02789"><g transform="translate(-206.63272,63.57379)"><g data-paper-data="{&quot;isPaintingLayer&quot;:true}" fill="none" fill-rule="nonzero" stroke="none" stroke-width="none" stroke-linecap="none" stroke-linejoin="miter" stroke-miterlimit="10" stroke-dasharray="" stroke-dashoffset="0" font-family="none" font-weight="none" font-size="none" text-anchor="none" style="mix-blend-mode: normal"><path d="M290.68421,444.87496c0,0 9.04063,-36.38326 26.5421,-45.20292c22.16286,-11.16871 52.27229,-2.74729 75.66171,-2.74729c39.75022,0 34.53303,47.95021 34.53303,47.95021z" data-paper-data="{&quot;origPos&quot;:null}" fill="#998c76" stroke="none" stroke-width="0" stroke-linecap="butt"/><path d="M259.56485,454.27495c0,0 9.04063,-36.38326 26.5421,-45.20292c22.16286,-11.16871 52.27229,-2.74729 75.66171,-2.74729c39.75022,0 34.53303,47.95021 34.53303,47.95021z" data-paper-data="{&quot;origPos&quot;:null}" fill="#776d5b" stroke="none" stroke-width="0" stroke-linecap="butt"/><path d="M331.97098,438.33934c0,0 8.69771,-33.6153 19.93963,-38.16821c14.23612,-5.76554 31.43378,9.57834 45.3873,15.07171c23.71394,9.33595 16.24669,55.21126 16.24669,55.21126z" data-paper-data="{&quot;origPos&quot;:null,&quot;origRot&quot;:0}" fill="#776d5b" stroke="none" stroke-width="0" stroke-linecap="butt"/><path d="M361.68422,463.87496c0,0 9.04063,-36.38326 26.5421,-45.20292c22.16286,-11.16871 52.27229,-2.74729 75.6617,-2.74729c39.75022,0 34.53303,47.95021 34.53303,47.95021z" data-paper-data="{&quot;origPos&quot;:null}" fill="#998c76" stroke="none" stroke-width="0" stroke-linecap="butt"/><path d="M330.56485,473.27496c0,0 9.04063,-36.38326 26.5421,-45.20292c22.16286,-11.16871 52.27229,-2.74729 75.6617,-2.74729c39.75022,0 34.53304,47.95021 34.53304,47.95021z" data-paper-data="{&quot;origPos&quot;:null}" fill="#776d5b" stroke="none" stroke-width="0" stroke-linecap="butt"/><path d="M402.97099,457.33934c0,0 8.69771,-33.6153 19.93963,-38.16821c14.23612,-5.76554 31.43378,9.57834 45.38729,15.07171c23.71393,9.33595 16.24669,55.21126 16.24669,55.21126z" data-paper-data="{&quot;origPos&quot;:null,&quot;origRot&quot;:0}" fill="#776d5b" stroke="none" stroke-width="0" stroke-linecap="butt"/><path d="M322.68421,419.87496c0,0 9.04063,-36.38326 26.5421,-45.20292c22.16286,-11.16871 52.27229,-2.74729 75.66171,-2.74729c39.75022,0 34.53303,47.95021 34.53303,47.95021z" data-paper-data="{&quot;origPos&quot;:null}" fill="#998c76" stroke="none" stroke-width="0" stroke-linecap="butt"/><path d="M291.56485,429.27495c0,0 9.04063,-36.38326 26.5421,-45.20292c22.16286,-11.16871 52.27229,-2.74729 75.66171,-2.74729c39.75022,0 34.53303,47.95021 34.53303,47.95021z" data-paper-data="{&quot;origPos&quot;:null}" fill="#776d5b" stroke="none" stroke-width="0" stroke-linecap="butt"/><path d="M363.97098,413.33934c0,0 8.69771,-33.6153 19.93963,-38.16821c14.23612,-5.76554 31.43378,9.57834 45.3873,15.07171c23.71394,9.33595 16.24669,55.21126 16.24669,55.21126z" data-paper-data="{&quot;origPos&quot;:null,&quot;origRot&quot;:0}" fill="#776d5b" stroke="none" stroke-width="0" stroke-linecap="butt"/><path d="M370.68422,455.87496c0,0 9.04063,-36.38326 26.5421,-45.20292c22.16286,-11.16871 52.27229,-2.74729 75.6617,-2.74729c39.75022,0 34.53303,47.95021 34.53303,47.95021z" data-paper-data="{&quot;origPos&quot;:null}" fill="#998c76" stroke="none" stroke-width="0" stroke-linecap="butt"/><path d="M344.56485,465.27496c0,0 9.04063,-36.38326 26.5421,-45.20292c22.16286,-11.16871 52.27229,-2.74729 75.6617,-2.74729c39.75022,0 34.53304,47.95021 34.53304,47.95021z" data-paper-data="{&quot;origPos&quot;:null}" fill="#776d5b" stroke="none" stroke-width="0" stroke-linecap="butt"/><path d="M290.68421,400.87496c0,0 9.04063,-36.38326 26.5421,-45.20292c22.16286,-11.16871 52.27229,-2.74729 75.66171,-2.74729c39.75022,0 34.53303,47.95021 34.53303,47.95021z" data-paper-data="{&quot;origPos&quot;:null}" fill="#998c76" stroke="none" stroke-width="0" stroke-linecap="butt"/><path d="M259.56485,410.27495c0,0 9.04063,-36.38326 26.5421,-45.20292c22.16286,-11.16871 52.27229,-2.74729 75.66171,-2.74729c39.75022,0 34.53303,47.95021 34.53303,47.95021z" data-paper-data="{&quot;origPos&quot;:null}" fill="#776d5b" stroke="none" stroke-width="0" stroke-linecap="butt"/><path d="M331.97098,394.33934c0,0 8.69771,-33.6153 19.93963,-38.16821c14.23612,-5.76554 31.43378,9.57834 45.3873,15.07171c23.71394,9.33595 16.24669,55.21126 16.24669,55.21126z" data-paper-data="{&quot;origPos&quot;:null,&quot;origRot&quot;:0}" fill="#776d5b" stroke="none" stroke-width="0" stroke-linecap="butt"/><path d="M361.68422,419.87496c0,0 9.04063,-36.38326 26.5421,-45.20292c22.16286,-11.16871 52.27229,-2.74729 75.6617,-2.74729c39.75022,0 34.53303,47.95021 34.53303,47.95021z" data-paper-data="{&quot;origPos&quot;:null}" fill="#998c76" stroke="none" stroke-width="0" stroke-linecap="butt"/><path d="M330.56485,429.27496c0,0 9.04063,-36.38326 26.5421,-45.20292c22.16286,-11.16871 52.27229,-2.74729 75.6617,-2.74729c39.75022,0 34.53304,47.95021 34.53304,47.95021z" data-paper-data="{&quot;origPos&quot;:null}" fill="#776d5b" stroke="none" stroke-width="0" stroke-linecap="butt"/><path d="M402.97099,413.33934c0,0 8.69771,-33.6153 19.93963,-38.16821c14.23612,-5.76554 31.43378,9.57834 45.38729,15.07171c23.71393,9.33595 16.24669,55.21126 16.24669,55.21126z" data-paper-data="{&quot;origPos&quot;:null,&quot;origRot&quot;:0}" fill="#776d5b" stroke="none" stroke-width="0" stroke-linecap="butt"/><path d="M322.68421,375.87496c0,0 9.04063,-36.38326 26.5421,-45.20292c22.16286,-11.16871 52.27229,-2.74729 75.66171,-2.74729c39.75022,0 34.53303,47.95021 34.53303,47.95021z" data-paper-data="{&quot;origPos&quot;:null}" fill="#998c76" stroke="none" stroke-width="0" stroke-linecap="butt"/><path d="M291.56485,385.27495c0,0 9.04063,-36.38326 26.5421,-45.20292c22.16286,-11.16871 52.27229,-2.74729 75.66171,-2.74729c39.75022,0 34.53303,47.95021 34.53303,47.95021z" data-paper-data="{&quot;origPos&quot;:null}" fill="#776d5b" stroke="none" stroke-width="0" stroke-linecap="butt"/><path d="M363.97098,369.33934c0,0 8.69771,-33.6153 19.93963,-38.16821c14.23612,-5.76554 31.43378,9.57834 45.3873,15.07171c23.71394,9.33595 16.24669,55.21126 16.24669,55.21126z" data-paper-data="{&quot;origPos&quot;:null,&quot;origRot&quot;:0}" fill="#776d5b" stroke="none" stroke-width="0" stroke-linecap="butt"/><path d="M370.68422,411.87496c0,0 9.04063,-36.38326 26.5421,-45.20292c22.16286,-11.16871 52.27229,-2.74729 75.6617,-2.74729c39.75022,0 34.53303,47.95021 34.53303,47.95021z" data-paper-data="{&quot;origPos&quot;:null}" fill="#998c76" stroke="none" stroke-width="0" stroke-linecap="butt"/><path d="M344.56485,421.27496c0,0 9.04063,-36.38326 26.5421,-45.20292c22.16286,-11.16871 52.27229,-2.74729 75.6617,-2.74729c39.75022,0 34.53304,47.95021 34.53304,47.95021z" data-paper-data="{&quot;origPos&quot;:null}" fill="#776d5b" stroke="none" stroke-width="0" stroke-linecap="butt"/><g data-paper-data="{&quot;origPos&quot;:null}" fill="#776d5b" stroke="#776d5b" stroke-width="1" stroke-linecap="square"><path d="M222.1674,-46.85278c-0.30508,0 -0.56147,-0.10386 -0.76918,-0.31157c-0.20771,-0.20771 -0.31157,-0.46411 -0.31157,-0.76918v-15.14026h2.16151v15.14026c0,0.30508 -0.10386,0.56147 -0.31157,0.76919c-0.20771,0.20771 -0.46411,0.31157 -0.76918,0.31157zM216.59812,-61.07781c-0.2856,0 -0.52252,-0.09411 -0.71076,-0.28235c-0.18824,-0.18824 -0.28236,-0.42516 -0.28236,-0.71077c0,-0.29209 0.09412,-0.53226 0.28237,-0.7205c0.18824,-0.18824 0.42516,-0.28236 0.71077,-0.28236h11.11908c0.2856,0 0.52253,0.09413 0.71077,0.28237c0.18824,0.18824 0.28237,0.42841 0.28237,0.7205c0,0.2856 -0.09412,0.52253 -0.28236,0.71077c-0.18824,0.18824 -0.42516,0.28237 -0.71077,0.28237zM240.48088,-46.8333c-0.30508,0 -0.55823,-0.10062 -0.75945,-0.30183c-0.19473,-0.20122 -0.29209,-0.45437 -0.29209,-0.75945v-5.10192c0,-0.7919 -0.14604,-1.43776 -0.43814,-1.93755c-0.29209,-0.49981 -0.6848,-0.86979 -1.17812,-1.10996c-0.48683,-0.24017 -1.05154,-0.36024 -1.69415,-0.36024c-0.57769,0 -1.10348,0.11684 -1.57731,0.35051c-0.46735,0.23367 -0.84058,0.54849 -1.11969,0.94444c-0.27262,0.39595 -0.40894,0.85032 -0.40894,1.36311h-1.31442c0,-0.87629 0.21096,-1.65521 0.63288,-2.33676c0.42191,-0.68805 0.99961,-1.23005 1.73309,-1.62599c0.73348,-0.40244 1.55785,-0.60367 2.47308,-0.60367c0.95418,0 1.80775,0.20446 2.56071,0.6134c0.75944,0.40244 1.35661,0.99962 1.79151,1.79152c0.4349,0.7919 0.65235,1.76231 0.65235,2.91122v5.10192c0,0.30508 -0.10062,0.55822 -0.30183,0.75944c-0.20122,0.20122 -0.45437,0.30184 -0.75944,0.30184zM231.95171,-46.8333c-0.30508,0 -0.55822,-0.10062 -0.75945,-0.30183c-0.20122,-0.20122 -0.30182,-0.45437 -0.30182,-0.75945v-9.25941c0,-0.31806 0.10061,-0.57444 0.30183,-0.76918c0.20122,-0.19473 0.45437,-0.2921 0.75945,-0.2921c0.31806,0 0.57446,0.09737 0.76919,0.2921c0.19473,0.19473 0.29209,0.45112 0.29209,0.76919v9.25941c0,0.30508 -0.09736,0.55823 -0.29209,0.75945c-0.19473,0.20122 -0.45113,0.30183 -0.76919,0.30183zM231.95171,-50.98106c-0.30508,0 -0.55822,-0.10062 -0.75945,-0.30183c-0.20122,-0.20122 -0.30182,-0.45437 -0.30182,-0.75944v-9.97018c0,-0.31806 0.10061,-0.57445 0.30183,-0.76918c0.20122,-0.19473 0.45437,-0.29209 0.75945,-0.29209c0.31806,0 0.57446,0.09736 0.76919,0.29209c0.19473,0.19473 0.29209,0.45112 0.29209,0.76919v9.97018c0,0.30508 -0.09736,0.55823 -0.29209,0.75945c-0.19473,0.20122 -0.45113,0.30183 -0.76919,0.30183zM250.41053,-46.76515c-1.14891,0 -2.17124,-0.24666 -3.06699,-0.73998c-0.88927,-0.49332 -1.58705,-1.17162 -2.09335,-2.03492c-0.50629,-0.86979 -0.75944,-1.86292 -0.75944,-2.97937c0,-1.13593 0.23692,-2.13554 0.71077,-2.99884c0.48033,-0.86979 1.14241,-1.5481 1.98625,-2.03492c0.85032,-0.49332 1.82074,-0.73998 2.91122,-0.73998c1.08399,0 2.01221,0.24016 2.78463,0.7205c0.77243,0.47384 1.3631,1.12944 1.77204,1.96677c0.40894,0.83734 0.6134,1.80126 0.6134,2.89175c0,0.26612 -0.09087,0.48682 -0.27262,0.66208c-0.17525,0.16876 -0.40244,0.25315 -0.68156,0.25315h-8.36366v-1.65521h8.30525l-0.85681,0.57446c-0.01299,-0.68805 -0.15254,-1.30469 -0.41867,-1.84994c-0.25964,-0.55174 -0.63287,-0.98663 -1.11969,-1.30469c-0.48033,-0.31806 -1.06777,-0.47709 -1.76231,-0.47709c-0.78541,0 -1.46048,0.17526 -2.02519,0.52578c-0.55823,0.34403 -0.98339,0.81787 -1.27547,1.42153c-0.29209,0.59716 -0.43815,1.27872 -0.43815,2.04467c0,0.75945 0.17201,1.43776 0.51604,2.03493c0.35051,0.59068 0.83085,1.06128 1.441,1.4118c0.61015,0.34403 1.30794,0.51604 2.09335,0.51604c0.4284,0 0.86655,-0.07789 1.31443,-0.23367c0.45437,-0.16228 0.82112,-0.34727 1.10023,-0.55498c0.20771,-0.14929 0.43166,-0.22719 0.67182,-0.23367c0.24017,-0.01298 0.45113,0.05842 0.63288,0.2142c0.23367,0.20771 0.357,0.43815 0.36999,0.69129c0.01298,0.24665 -0.09736,0.45762 -0.33104,0.63288c-0.46735,0.37648 -1.05154,0.6848 -1.75256,0.92497c-0.70103,0.23367 -1.36961,0.35051 -2.00572,0.35051zM258.98439,-53.95068c0,-0.83085 0.20447,-1.57407 0.61341,-2.22966c0.40894,-0.66208 0.96066,-1.18785 1.65521,-1.57731c0.69454,-0.38946 1.45723,-0.5842 2.28808,-0.5842c0.83085,0 1.4475,0.13631 1.84994,0.40894c0.40894,0.27262 0.56795,0.59393 0.47708,0.96392c-0.04544,0.19473 -0.12657,0.34402 -0.2434,0.44787c-0.11684,0.10386 -0.25315,0.17201 -0.40894,0.20447c-0.14929,0.02596 -0.31481,0.01623 -0.49656,-0.02921c-0.88278,-0.18175 -1.67793,-0.19473 -2.38544,-0.03895c-0.70753,0.14929 -1.26574,0.43165 -1.67468,0.84707c-0.40894,0.41542 -0.6134,0.94445 -0.6134,1.58706zM259.0136,-46.85278c-0.33753,0 -0.59716,-0.08438 -0.77891,-0.25315c-0.17525,-0.17526 -0.26288,-0.43815 -0.26288,-0.78866v-9.27888c0,-0.33104 0.08763,-0.58744 0.26289,-0.76918c0.18175,-0.18175 0.44139,-0.27262 0.77891,-0.27262c0.34403,0 0.60042,0.08763 0.76919,0.26289c0.17525,0.17526 0.26288,0.4349 0.26288,0.77891v9.27889c0,0.33754 -0.08762,0.59717 -0.26288,0.77892c-0.16876,0.17526 -0.42516,0.26288 -0.76919,0.26288zM272.56976,-46.76515c-1.14891,0 -2.17124,-0.24666 -3.06699,-0.73998c-0.88927,-0.49332 -1.58705,-1.17162 -2.09334,-2.03492c-0.5063,-0.86979 -0.75945,-1.86292 -0.75945,-2.97937c0,-1.13593 0.23692,-2.13554 0.71077,-2.99884c0.48033,-0.86979 1.14241,-1.5481 1.98625,-2.03492c0.85032,-0.49332 1.82073,-0.73998 2.91122,-0.73998c1.08399,0 2.01221,0.24016 2.78463,0.7205c0.77243,0.47384 1.36311,1.12944 1.77205,1.96677c0.40894,0.83734 0.6134,1.80126 0.6134,2.89175c0,0.26612 -0.09087,0.48682 -0.27262,0.66208c-0.17525,0.16876 -0.40244,0.25315 -0.68156,0.25315h-8.36365v-1.65521h8.30524l-0.85682,0.57446c-0.01298,-0.68805 -0.15253,-1.30469 -0.41866,-1.84994c-0.25964,-0.55174 -0.63287,-0.98663 -1.11969,-1.30469c-0.48033,-0.31806 -1.06777,-0.47709 -1.7623,-0.47709c-0.78541,0 -1.46048,0.17526 -2.02519,0.52578c-0.55823,0.34403 -0.98339,0.81787 -1.27548,1.42153c-0.29209,0.59716 -0.43814,1.27872 -0.43814,2.04467c0,0.75945 0.172,1.43776 0.51603,2.03493c0.35051,0.59068 0.83085,1.06128 1.44101,1.4118c0.61015,0.34403 1.30794,0.51604 2.09335,0.51604c0.42841,0 0.86655,-0.07789 1.31443,-0.23367c0.45437,-0.16228 0.82112,-0.34727 1.10023,-0.55498c0.20771,-0.14929 0.43165,-0.22719 0.67182,-0.23367c0.24017,-0.01298 0.45113,0.05842 0.63288,0.2142c0.23367,0.20771 0.35701,0.43815 0.36999,0.69129c0.01298,0.24665 -0.09736,0.45762 -0.33104,0.63288c-0.46735,0.37648 -1.05154,0.6848 -1.75257,0.92497c-0.70103,0.23367 -1.36961,0.35051 -2.00572,0.35051zM287.48177,-46.85278c-0.30508,0 -0.55823,-0.10061 -0.75944,-0.30182c-0.20122,-0.20122 -0.30183,-0.45437 -0.30183,-0.75945v-9.23994c0,-0.31806 0.10061,-0.57444 0.30184,-0.76918c0.20122,-0.19473 0.45437,-0.2921 0.75945,-0.2921c0.31806,0 0.57446,0.09737 0.76919,0.2921c0.19473,0.19473 0.29209,0.45112 0.29209,0.76919v9.23994c0,0.30508 -0.09736,0.55823 -0.29209,0.75945c-0.19473,0.20122 -0.45113,0.30183 -0.76919,0.30183zM287.66675,-60.06521c-0.36999,0 -0.69128,-0.13307 -0.9639,-0.3992c-0.26612,-0.27262 -0.39919,-0.59392 -0.39919,-0.9639c0,-0.37648 0.13306,-0.69779 0.3992,-0.96391c0.27262,-0.27262 0.59393,-0.40893 0.96392,-0.40893c0.37648,0 0.69778,0.13631 0.96392,0.40893c0.27262,0.26612 0.40894,0.58744 0.40894,0.96392c0,0.36999 -0.13631,0.6913 -0.40894,0.96392c-0.26612,0.26612 -0.58744,0.39921 -0.9639,0.39921zM296.61622,-46.76515c-0.96715,0 -1.86292,-0.14929 -2.68728,-0.44788c-0.82436,-0.29859 -1.46372,-0.67831 -1.91809,-1.13917c-0.20771,-0.2207 -0.29533,-0.4706 -0.26288,-0.7497c0.03895,-0.2856 0.17525,-0.51928 0.40893,-0.70103c0.27911,-0.2207 0.55174,-0.31157 0.81787,-0.27262c0.27262,0.03245 0.5063,0.15254 0.70103,0.36025c0.23367,0.25964 0.61015,0.50629 1.12944,0.73998c0.51928,0.22718 1.09699,0.34078 1.7331,0.34078c0.80489,0 1.41828,-0.12982 1.8402,-0.38946c0.42191,-0.26612 0.63937,-0.60691 0.65235,-1.02233c0.01299,-0.41542 -0.18498,-0.77567 -0.59392,-1.08075c-0.40894,-0.30508 -1.15216,-0.55498 -2.22966,-0.7497c-1.40206,-0.27911 -2.4179,-0.69454 -3.04753,-1.24628c-0.62963,-0.55174 -0.94444,-1.23005 -0.94444,-2.03492c0,-0.70753 0.20771,-1.29171 0.62314,-1.75257c0.41543,-0.46735 0.94769,-0.81462 1.59678,-1.0418c0.65559,-0.22718 1.33715,-0.34078 2.04467,-0.34078c0.90873,0 1.71687,0.14605 2.42439,0.43815c0.70753,0.2856 1.26898,0.6848 1.68442,1.19759c0.19473,0.2207 0.28236,0.45438 0.26288,0.70103c-0.01298,0.24017 -0.12981,0.44463 -0.35051,0.61341c-0.2207,0.14929 -0.48358,0.19797 -0.78866,0.14605c-0.30507,-0.05842 -0.56147,-0.18499 -0.76918,-0.37972c-0.34403,-0.33104 -0.71725,-0.55823 -1.11969,-0.68156c-0.40244,-0.12333 -0.86655,-0.18499 -1.39232,-0.18499c-0.61015,0 -1.12619,0.10386 -1.5481,0.31157c-0.42191,0.20771 -0.63287,0.50954 -0.63287,0.90549c0,0.25315 0.06492,0.48033 0.19473,0.68156c0.13631,0.20122 0.39595,0.38297 0.77891,0.54525c0.38946,0.15579 0.95742,0.30832 1.70389,0.45762c1.03856,0.20771 1.85968,0.4706 2.46334,0.78866c0.60366,0.31806 1.03532,0.68805 1.29496,1.10996c0.26612,0.42191 0.39921,0.91198 0.39921,1.47022c0,0.63611 -0.16876,1.21057 -0.5063,1.72336c-0.33753,0.51279 -0.83734,0.92173 -1.49942,1.22681c-0.65559,0.30508 -1.4767,0.45762 -2.46333,0.45762zM315.00054,-46.76515c-1.12294,0 -2.11282,-0.24666 -2.96963,-0.73998c-0.85681,-0.49332 -1.53188,-1.17162 -2.02519,-2.03492c-0.49332,-0.86979 -0.73998,-1.86292 -0.73998,-2.97937c0,-1.13593 0.24666,-2.13554 0.73998,-2.99884c0.49332,-0.86979 1.16838,-1.5481 2.02519,-2.03492c0.85681,-0.49332 1.84669,-0.73998 2.96963,-0.73998c1.10996,0 2.09335,0.24666 2.95016,0.73998c0.85681,0.48683 1.53188,1.16514 2.02519,2.03493c0.49332,0.86331 0.73998,1.86292 0.73998,2.99884c0,1.11645 -0.24341,2.10958 -0.73024,2.97937c-0.48683,0.86331 -1.15864,1.54161 -2.01545,2.03493c-0.85682,0.49332 -1.84669,0.73998 -2.96963,0.73998zM315.00054,-48.63455c0.7205,0 1.35661,-0.16552 1.90835,-0.49656c0.55823,-0.33754 0.98987,-0.79515 1.29495,-1.37285c0.31157,-0.58419 0.46736,-1.25601 0.46736,-2.01546c0,-0.76594 -0.15579,-1.44101 -0.46736,-2.02519c-0.30508,-0.59068 -0.73673,-1.05154 -1.29495,-1.38258c-0.55174,-0.33104 -1.18785,-0.49656 -1.90835,-0.49656c-0.7205,0 -1.35986,0.16552 -1.91809,0.49657c-0.55174,0.33104 -0.98663,0.79189 -1.30469,1.38258c-0.31806,0.58419 -0.47708,1.25926 -0.47708,2.02519c0,0.75945 0.15903,1.43127 0.47709,2.01546c0.31806,0.5777 0.75295,1.03532 1.30469,1.37285c0.55823,0.33104 1.19759,0.49657 1.9181,0.49657zM333.45872,-46.8333c-0.30507,0 -0.55823,-0.10062 -0.75944,-0.30183c-0.19473,-0.20122 -0.29209,-0.45437 -0.29209,-0.75945v-5.10192c0,-0.7919 -0.14604,-1.43776 -0.43814,-1.93755c-0.29209,-0.49981 -0.6848,-0.86979 -1.17811,-1.10996c-0.48683,-0.24017 -1.05154,-0.36024 -1.69415,-0.36024c-0.57769,0 -1.10347,0.11684 -1.57731,0.35051c-0.46735,0.23367 -0.84058,0.54849 -1.11969,0.94444c-0.27262,0.39595 -0.40894,0.85032 -0.40894,1.36311h-1.31443c0,-0.87629 0.21095,-1.65521 0.63287,-2.33676c0.42191,-0.68805 0.99962,-1.23005 1.7331,-1.62599c0.73348,-0.40244 1.55785,-0.60367 2.47307,-0.60367c0.95418,0 1.80775,0.20446 2.56071,0.6134c0.75944,0.40244 1.35661,0.99962 1.79151,1.79152c0.43491,0.7919 0.65235,1.76231 0.65235,2.91122v5.10192c0,0.30508 -0.10062,0.55822 -0.30183,0.75944c-0.20122,0.20122 -0.45437,0.30184 -0.75945,0.30184zM324.92954,-46.8333c-0.30507,0 -0.55823,-0.10062 -0.75945,-0.30183c-0.20122,-0.20122 -0.30183,-0.45437 -0.30183,-0.75945v-9.25941c0,-0.31806 0.10062,-0.57444 0.30184,-0.76918c0.20122,-0.19473 0.45437,-0.2921 0.75944,-0.2921c0.31806,0 0.57446,0.09737 0.76919,0.2921c0.19473,0.19473 0.2921,0.45112 0.2921,0.76919v9.25941c0,0.30508 -0.09737,0.55823 -0.2921,0.75945c-0.19473,0.20122 -0.45112,0.30183 -0.76918,0.30183zM343.36759,-46.76515c-1.14891,0 -2.17123,-0.24666 -3.06699,-0.73998c-0.88927,-0.49332 -1.58705,-1.17162 -2.09335,-2.03492c-0.5063,-0.86979 -0.75944,-1.86292 -0.75944,-2.97937c0,-1.13593 0.23692,-2.13554 0.71077,-2.99884c0.48033,-0.86979 1.14241,-1.5481 1.98625,-2.03492c0.85032,-0.49332 1.82073,-0.73998 2.91122,-0.73998c1.08399,0 2.01222,0.24016 2.78464,0.7205c0.77243,0.47384 1.36311,1.12944 1.77204,1.96677c0.40894,0.83734 0.61341,1.80126 0.61341,2.89175c0,0.26612 -0.09087,0.48682 -0.27262,0.66208c-0.17526,0.16876 -0.40244,0.25315 -0.68156,0.25315h-8.36365v-1.65521h8.30524l-0.85681,0.57446c-0.01298,-0.68805 -0.15254,-1.30469 -0.41867,-1.84994c-0.25964,-0.55174 -0.63287,-0.98663 -1.11969,-1.30469c-0.48033,-0.31806 -1.06777,-0.47709 -1.7623,-0.47709c-0.78541,0 -1.46047,0.17526 -2.02519,0.52578c-0.55823,0.34403 -0.98339,0.81787 -1.27547,1.42153c-0.29209,0.59716 -0.43815,1.27872 -0.43815,2.04467c0,0.75945 0.17201,1.43776 0.51604,2.03493c0.35051,0.59068 0.83085,1.06128 1.441,1.4118c0.61016,0.34403 1.30794,0.51604 2.09335,0.51604c0.42841,0 0.86655,-0.07789 1.31444,-0.23367c0.45437,-0.16228 0.82112,-0.34727 1.10023,-0.55498c0.20771,-0.14929 0.43165,-0.22719 0.67182,-0.23367c0.24017,-0.01298 0.45112,0.05842 0.63287,0.2142c0.23367,0.20771 0.35701,0.43815 0.36999,0.69129c0.01298,0.24665 -0.09737,0.45762 -0.33104,0.63288c-0.46735,0.37648 -1.05154,0.6848 -1.75257,0.92497c-0.70103,0.23367 -1.36961,0.35051 -2.00572,0.35051zM366.60433,-46.8333c-0.30508,0 -0.55823,-0.10062 -0.75945,-0.30183c-0.19473,-0.20122 -0.29209,-0.45437 -0.29209,-0.75945v-5.10192c0,-0.7919 -0.14604,-1.43776 -0.43814,-1.93755c-0.29209,-0.49981 -0.6848,-0.86979 -1.17811,-1.10996c-0.48683,-0.24017 -1.05154,-0.36024 -1.69414,-0.36024c-0.5777,0 -1.10348,0.11684 -1.57732,0.35051c-0.46735,0.23367 -0.84058,0.54849 -1.11969,0.94444c-0.27262,0.39595 -0.40894,0.85032 -0.40894,1.36311h-1.31443c0,-0.87629 0.21096,-1.65521 0.63288,-2.33676c0.42191,-0.68805 0.99962,-1.23005 1.73309,-1.62599c0.73348,-0.40244 1.55785,-0.60367 2.47308,-0.60367c0.95418,0 1.80775,0.20446 2.56071,0.6134c0.75944,0.40244 1.35661,0.99962 1.79152,1.79152c0.4349,0.7919 0.65235,1.76231 0.65235,2.91122v5.10192c0,0.30508 -0.10062,0.55822 -0.30183,0.75944c-0.20122,0.20122 -0.45437,0.30184 -0.75944,0.30184zM358.07514,-46.8333c-0.30508,0 -0.55823,-0.10062 -0.75945,-0.30183c-0.20122,-0.20122 -0.30183,-0.45437 -0.30183,-0.75945v-9.25941c0,-0.31806 0.10061,-0.57444 0.30184,-0.76918c0.20122,-0.19473 0.45437,-0.2921 0.75945,-0.2921c0.31806,0 0.57445,0.09737 0.76919,0.2921c0.19473,0.19473 0.29209,0.45112 0.29209,0.76919v9.25941c0,0.30508 -0.09737,0.55823 -0.29209,0.75945c-0.19473,0.20122 -0.45113,0.30183 -0.76918,0.30183zM358.07514,-50.98106c-0.30508,0 -0.55823,-0.10062 -0.75945,-0.30183c-0.20122,-0.20122 -0.30183,-0.45437 -0.30183,-0.75944v-9.97018c0,-0.31806 0.10061,-0.57445 0.30184,-0.76918c0.20122,-0.19473 0.45437,-0.29209 0.75945,-0.29209c0.31806,0 0.57445,0.09736 0.76919,0.29209c0.19473,0.19473 0.29209,0.45112 0.29209,0.76919v9.97018c0,0.30508 -0.09737,0.55823 -0.29209,0.75945c-0.19473,0.20122 -0.45113,0.30183 -0.76918,0.30183zM372.46408,-46.85278c-0.30508,0 -0.55823,-0.10061 -0.75945,-0.30182c-0.20122,-0.20122 -0.30182,-0.45437 -0.30182,-0.75945v-9.23994c0,-0.31806 0.10061,-0.57444 0.30184,-0.76918c0.20122,-0.19473 0.45437,-0.2921 0.75944,-0.2921c0.31806,0 0.57446,0.09737 0.76919,0.2921c0.19473,0.19473 0.29209,0.45112 0.29209,0.76919v9.23994c0,0.30508 -0.09737,0.55823 -0.29209,0.75945c-0.19473,0.20122 -0.45112,0.30183 -0.76918,0.30183zM372.64908,-60.06521c-0.36999,0 -0.69128,-0.13307 -0.9639,-0.3992c-0.26612,-0.27262 -0.39919,-0.59392 -0.39919,-0.9639c0,-0.37648 0.13306,-0.69779 0.3992,-0.96391c0.27262,-0.27262 0.59393,-0.40893 0.96392,-0.40893c0.37648,0 0.69778,0.13631 0.96392,0.40893c0.27262,0.26612 0.40894,0.58744 0.40894,0.96392c0,0.36999 -0.13631,0.6913 -0.40894,0.96392c-0.26612,0.26612 -0.58744,0.39921 -0.9639,0.39921zM382.62088,-46.76515c-1.07751,0 -2.05116,-0.25315 -2.92096,-0.75945c-0.86331,-0.5063 -1.5481,-1.19434 -2.0544,-2.06413c-0.5063,-0.87629 -0.75945,-1.85968 -0.75945,-2.95016c0,-1.09699 0.23043,-2.07712 0.69129,-2.94042c0.46735,-0.86979 1.10347,-1.5546 1.90835,-2.0544c0.80489,-0.5063 1.71038,-0.75944 2.71649,-0.75944c0.81787,0 1.57082,0.16876 2.25888,0.5063c0.69454,0.33754 1.27872,0.79839 1.75256,1.38258v-5.60823c0,-0.31806 0.10062,-0.57444 0.30184,-0.76918c0.20122,-0.19473 0.45437,-0.2921 0.75944,-0.2921c0.31806,0 0.57446,0.09737 0.76919,0.2921c0.19473,0.19473 0.29209,0.45112 0.29209,0.76919v9.47362c0,1.09049 -0.25315,2.07388 -0.75945,2.95016c-0.5063,0.86979 -1.1911,1.55785 -2.0544,2.06414c-0.85682,0.5063 -1.82396,0.75944 -2.90148,0.75944zM382.62088,-48.63455c0.70752,0 1.33714,-0.16876 1.88888,-0.50629c0.55174,-0.34403 0.98663,-0.81137 1.30469,-1.40206c0.31806,-0.59716 0.47709,-1.2625 0.47709,-1.99598c0,-0.75295 -0.15903,-1.41828 -0.47708,-1.99597c-0.31806,-0.58419 -0.75295,-1.04505 -1.30469,-1.38258c-0.55174,-0.33754 -1.18136,-0.50629 -1.88888,-0.50629c-0.69454,0 -1.32092,0.16876 -1.87914,0.50629c-0.55823,0.33754 -1.00285,0.7984 -1.33389,1.38258c-0.32455,0.5777 -0.48683,1.24302 -0.48683,1.99598c0,0.73348 0.16228,1.39881 0.48683,1.99598c0.33104,0.59068 0.77567,1.05803 1.33391,1.40206c0.55823,0.33754 1.18461,0.50629 1.87914,0.50629zM397.22072,-46.76515c-1.07751,0 -2.05116,-0.25315 -2.92095,-0.75945c-0.86331,-0.5063 -1.5481,-1.19434 -2.0544,-2.06413c-0.50629,-0.87629 -0.75944,-1.85968 -0.75944,-2.95016c0,-1.09699 0.23043,-2.07712 0.69129,-2.94042c0.46735,-0.86979 1.10348,-1.5546 1.90836,-2.0544c0.80489,-0.5063 1.71038,-0.75944 2.71649,-0.75944c0.81786,0 1.57081,0.16876 2.25887,0.5063c0.69453,0.33754 1.27873,0.79839 1.75257,1.38258v-5.60823c0,-0.31806 0.10061,-0.57444 0.30184,-0.76918c0.20122,-0.19473 0.45437,-0.2921 0.75944,-0.2921c0.31806,0 0.57446,0.09737 0.76919,0.2921c0.19473,0.19473 0.29209,0.45112 0.29209,0.76919v9.47362c0,1.09049 -0.25315,2.07388 -0.75944,2.95016c-0.5063,0.86979 -1.19111,1.55785 -2.0544,2.06414c-0.85681,0.5063 -1.82396,0.75944 -2.90148,0.75944zM397.22072,-48.63455c0.70753,0 1.33715,-0.16876 1.88889,-0.50629c0.55174,-0.34403 0.98663,-0.81137 1.30469,-1.40206c0.31806,-0.59716 0.47709,-1.2625 0.47709,-1.99598c0,-0.75295 -0.15904,-1.41828 -0.47708,-1.99597c-0.31806,-0.58419 -0.75295,-1.04505 -1.30469,-1.38258c-0.55174,-0.33754 -1.18136,-0.50629 -1.88888,-0.50629c-0.69454,0 -1.32092,0.16876 -1.87914,0.50629c-0.55823,0.33754 -1.00286,0.7984 -1.3339,1.38258c-0.32455,0.5777 -0.48682,1.24302 -0.48682,1.99598c0,0.73348 0.16228,1.39881 0.48682,1.99598c0.33104,0.59068 0.77567,1.05803 1.3339,1.40206c0.55823,0.33754 1.18461,0.50629 1.87915,0.50629zM412.00556,-46.76515c-1.14891,0 -2.17124,-0.24666 -3.06699,-0.73998c-0.88927,-0.49332 -1.58704,-1.17162 -2.09334,-2.03492c-0.50629,-0.86979 -0.75945,-1.86292 -0.75945,-2.97937c0,-1.13593 0.23692,-2.13554 0.71077,-2.99884c0.48033,-0.86979 1.14241,-1.5481 1.98625,-2.03492c0.85032,-0.49332 1.82073,-0.73998 2.91121,-0.73998c1.08399,0 2.01221,0.24016 2.78463,0.7205c0.77243,0.47384 1.3631,1.12944 1.77205,1.96677c0.40894,0.83734 0.6134,1.80126 0.6134,2.89175c0,0.26612 -0.09087,0.48682 -0.27262,0.66208c-0.17526,0.16876 -0.40245,0.25315 -0.68156,0.25315h-8.36365v-1.65521h8.30524l-0.85681,0.57446c-0.01298,-0.68805 -0.15254,-1.30469 -0.41867,-1.84994c-0.25964,-0.55174 -0.63286,-0.98663 -1.11969,-1.30469c-0.48033,-0.31806 -1.06777,-0.47709 -1.76231,-0.47709c-0.78541,0 -1.46047,0.17526 -2.02519,0.52578c-0.55823,0.34403 -0.98339,0.81787 -1.27547,1.42153c-0.29209,0.59716 -0.43814,1.27872 -0.43814,2.04467c0,0.75945 0.17201,1.43776 0.51604,2.03493c0.35051,0.59068 0.83085,1.06128 1.441,1.4118c0.61015,0.34403 1.30794,0.51604 2.09335,0.51604c0.4284,0 0.86655,-0.07789 1.31443,-0.23367c0.45437,-0.16228 0.82112,-0.34727 1.10023,-0.55498c0.20771,-0.14929 0.43165,-0.22719 0.67183,-0.23367c0.24017,-0.01298 0.45112,0.05842 0.63287,0.2142c0.23368,0.20771 0.35701,0.43815 0.36999,0.69129c0.01298,0.24665 -0.09736,0.45762 -0.33104,0.63288c-0.46735,0.37648 -1.05154,0.6848 -1.75257,0.92497c-0.70103,0.23367 -1.36961,0.35051 -2.00572,0.35051zM429.15728,-46.8333c-0.30507,0 -0.55823,-0.10062 -0.75944,-0.30183c-0.19473,-0.20122 -0.2921,-0.45437 -0.2921,-0.75945v-5.10192c0,-0.7919 -0.14604,-1.43776 -0.43814,-1.93755c-0.29209,-0.49981 -0.6848,-0.86979 -1.17811,-1.10996c-0.48682,-0.24017 -1.05154,-0.36024 -1.69415,-0.36024c-0.57769,0 -1.10348,0.11684 -1.57731,0.35051c-0.46735,0.23367 -0.84058,0.54849 -1.11969,0.94444c-0.27262,0.39595 -0.40894,0.85032 -0.40894,1.36311h-1.31442c0,-0.87629 0.21095,-1.65521 0.63287,-2.33676c0.42191,-0.68805 0.99962,-1.23005 1.7331,-1.62599c0.73348,-0.40244 1.55785,-0.60367 2.47308,-0.60367c0.95418,0 1.80774,0.20446 2.5607,0.6134c0.75944,0.40244 1.35661,0.99962 1.79152,1.79152c0.43491,0.7919 0.65235,1.76231 0.65235,2.91122v5.10192c0,0.30508 -0.10062,0.55822 -0.30183,0.75944c-0.20122,0.20122 -0.45437,0.30184 -0.75945,0.30184zM420.62811,-46.8333c-0.30507,0 -0.55823,-0.10062 -0.75945,-0.30183c-0.20122,-0.20122 -0.30183,-0.45437 -0.30183,-0.75945v-9.25941c0,-0.31806 0.10062,-0.57444 0.30184,-0.76918c0.20122,-0.19473 0.45437,-0.2921 0.75944,-0.2921c0.31806,0 0.57446,0.09737 0.76919,0.2921c0.19473,0.19473 0.29209,0.45112 0.29209,0.76919v9.25941c0,0.30508 -0.09736,0.55823 -0.29209,0.75945c-0.19473,0.20122 -0.45112,0.30183 -0.76918,0.30183zM444.96615,-46.76515c-1.10996,0 -2.09659,-0.25315 -2.9599,-0.75945c-0.86331,-0.5063 -1.54161,-1.1911 -2.03493,-2.0544c-0.49332,-0.86979 -0.73998,-1.84994 -0.73998,-2.94042c0,-1.12294 0.24342,-2.1193 0.73024,-2.9891c0.48682,-0.87629 1.15216,-1.55784 1.99598,-2.04467c0.84383,-0.49332 1.81099,-0.73998 2.90148,-0.73998c0.81787,0 1.56433,0.15579 2.23939,0.46735c0.68156,0.31157 1.29171,0.77892 1.83046,1.40206c0.19473,0.2207 0.26289,0.44787 0.20447,0.68155c-0.05192,0.23367 -0.20122,0.44139 -0.44787,0.62314c-0.19473,0.13631 -0.41218,0.18175 -0.65235,0.13631c-0.23367,-0.05192 -0.44463,-0.17201 -0.63287,-0.36025c-0.68156,-0.7205 -1.52863,-1.08075 -2.54122,-1.08075c-0.70103,0 -1.32416,0.16228 -1.86941,0.48683c-0.53875,0.32455 -0.96067,0.77892 -1.26574,1.36311c-0.30507,0.5777 -0.45761,1.2625 -0.45761,2.0544c0,0.74647 0.15578,1.4118 0.46735,1.99598c0.31157,0.5777 0.74322,1.03856 1.29495,1.38258c0.55823,0.33754 1.20408,0.50629 1.93757,0.50629c0.48682,0 0.91199,-0.05842 1.27549,-0.17525c0.36999,-0.12333 0.70753,-0.30832 1.0126,-0.55497c0.2207,-0.18175 0.44787,-0.28236 0.68155,-0.30183c0.23367,-0.01947 0.44139,0.04544 0.62314,0.19473c0.23367,0.19473 0.36349,0.41543 0.38945,0.66208c0.03246,0.24017 -0.04868,0.45762 -0.24341,0.65235c-0.99962,0.92821 -2.24589,1.39232 -3.73882,1.39232zM457.44766,-46.76515c-1.12294,0 -2.11282,-0.24666 -2.96963,-0.73998c-0.85682,-0.49332 -1.53188,-1.17162 -2.02519,-2.03492c-0.49332,-0.86979 -0.73998,-1.86292 -0.73998,-2.97937c0,-1.13593 0.24665,-2.13554 0.73998,-2.99884c0.49332,-0.86979 1.16838,-1.5481 2.02519,-2.03492c0.85682,-0.49332 1.84669,-0.73998 2.96964,-0.73998c1.10996,0 2.09334,0.24666 2.95016,0.73998c0.85682,0.48683 1.53188,1.16514 2.02519,2.03493c0.49332,0.86331 0.73998,1.86292 0.73998,2.99884c0,1.11645 -0.24341,2.10958 -0.73024,2.97937c-0.48682,0.86331 -1.15864,1.54161 -2.01545,2.03493c-0.85682,0.49332 -1.84669,0.73998 -2.96963,0.73998zM457.44766,-48.63455c0.7205,0 1.35661,-0.16552 1.90835,-0.49656c0.55823,-0.33754 0.98987,-0.79515 1.29495,-1.37285c0.31157,-0.58419 0.46736,-1.25601 0.46736,-2.01546c0,-0.76594 -0.15579,-1.44101 -0.46736,-2.02519c-0.30507,-0.59068 -0.73673,-1.05154 -1.29495,-1.38258c-0.55174,-0.33104 -1.18785,-0.49656 -1.90835,-0.49656c-0.7205,0 -1.35987,0.16552 -1.91809,0.49657c-0.55174,0.33104 -0.98663,0.79189 -1.30469,1.38258c-0.31806,0.58419 -0.47708,1.25926 -0.47708,2.02519c0,0.75945 0.15904,1.43127 0.47709,2.01546c0.31806,0.5777 0.75295,1.03532 1.30469,1.37285c0.55823,0.33104 1.19759,0.49657 1.9181,0.49657zM467.58117,-46.85278c-0.30507,0 -0.55823,-0.10061 -0.75944,-0.30182c-0.20122,-0.20122 -0.30183,-0.45437 -0.30183,-0.75945v-9.23994c0,-0.31806 0.10061,-0.57444 0.30183,-0.76918c0.20122,-0.19473 0.45438,-0.2921 0.75945,-0.2921c0.31806,0 0.57445,0.09737 0.76919,0.2921c0.19473,0.19473 0.29209,0.45112 0.29209,0.76919v9.23994c0,0.30508 -0.09737,0.55823 -0.29209,0.75945c-0.19473,0.20122 -0.45112,0.30183 -0.76918,0.30183zM467.76616,-60.06521c-0.36999,0 -0.69128,-0.13307 -0.9639,-0.3992c-0.26613,-0.27262 -0.3992,-0.59392 -0.3992,-0.9639c0,-0.37648 0.13307,-0.69779 0.39921,-0.96391c0.27262,-0.27262 0.59392,-0.40893 0.96391,-0.40893c0.37648,0 0.69778,0.13631 0.96392,0.40893c0.27262,0.26612 0.40894,0.58744 0.40894,0.96392c0,0.36999 -0.13631,0.6913 -0.40894,0.96392c-0.26613,0.26612 -0.58744,0.39921 -0.96391,0.39921zM482.17778,-46.8333c-0.30507,0 -0.55823,-0.10062 -0.75944,-0.30183c-0.19473,-0.20122 -0.29209,-0.45437 -0.29209,-0.75945v-5.10192c0,-0.7919 -0.14604,-1.43776 -0.43814,-1.93755c-0.29209,-0.49981 -0.6848,-0.86979 -1.17811,-1.10996c-0.48682,-0.24017 -1.05154,-0.36024 -1.69415,-0.36024c-0.57769,0 -1.10347,0.11684 -1.57731,0.35051c-0.46735,0.23367 -0.84058,0.54849 -1.11969,0.94444c-0.27262,0.39595 -0.40894,0.85032 -0.40894,1.36311h-1.31443c0,-0.87629 0.21096,-1.65521 0.63288,-2.33676c0.42191,-0.68805 0.99962,-1.23005 1.7331,-1.62599c0.73348,-0.40244 1.55785,-0.60367 2.47308,-0.60367c0.95418,0 1.80774,0.20446 2.5607,0.6134c0.75944,0.40244 1.35661,0.99962 1.79152,1.79152c0.43491,0.7919 0.65235,1.76231 0.65235,2.91122v5.10192c0,0.30508 -0.10061,0.55822 -0.30182,0.75944c-0.20122,0.20122 -0.45438,0.30184 -0.75945,0.30184zM473.64861,-46.8333c-0.30507,0 -0.55823,-0.10062 -0.75944,-0.30183c-0.20122,-0.20122 -0.30183,-0.45437 -0.30183,-0.75945v-9.25941c0,-0.31806 0.10062,-0.57444 0.30184,-0.76918c0.20122,-0.19473 0.45437,-0.2921 0.75944,-0.2921c0.31806,0 0.57446,0.09737 0.76919,0.2921c0.19473,0.19473 0.29209,0.45112 0.29209,0.76919v9.25941c0,0.30508 -0.09736,0.55823 -0.29209,0.75945c-0.19473,0.20122 -0.45112,0.30183 -0.76918,0.30183zM493.89734,-41.99426c-0.30507,0 -0.55823,-0.10062 -0.75944,-0.30183c-0.20122,-0.20122 -0.30183,-0.45437 -0.30183,-0.75944v-9.46389c0.01299,-1.09699 0.26938,-2.08036 0.76919,-2.95015c0.49981,-0.87629 1.17812,-1.56433 2.03493,-2.06414c0.85681,-0.5063 1.82721,-0.75944 2.91122,-0.75944c1.09049,0 2.06413,0.25315 2.92095,0.75944c0.86331,0.49981 1.54486,1.18786 2.04467,2.06414c0.50629,0.86979 0.75945,1.85318 0.75945,2.95016c0,1.09049 -0.23367,2.07063 -0.70103,2.94042c-0.46086,0.86331 -1.09373,1.5481 -1.89862,2.0544c-0.79839,0.5063 -1.70389,0.75945 -2.71648,0.75945c-0.81787,0 -1.57082,-0.16876 -2.25887,-0.5063c-0.68156,-0.34403 -1.2625,-0.80813 -1.74283,-1.39231v5.60823c0,0.30508 -0.09736,0.55823 -0.29209,0.75945c-0.19473,0.20122 -0.45112,0.30183 -0.76918,0.30183zM498.55139,-48.63455c0.70103,0 1.32741,-0.16876 1.87915,-0.50629c0.55822,-0.34403 0.99961,-0.80813 1.32416,-1.39232c0.32454,-0.59068 0.48682,-1.25277 0.48682,-1.98625c0,-0.74647 -0.16228,-1.41504 -0.48682,-2.00572c-0.32455,-0.59068 -0.76595,-1.05479 -1.32416,-1.39232c-0.55174,-0.33754 -1.17811,-0.50629 -1.87914,-0.50629c-0.69454,0 -1.32416,0.16876 -1.88888,0.50629c-0.55823,0.33754 -0.99637,0.80165 -1.31443,1.39233c-0.31806,0.59068 -0.47709,1.25925 -0.47709,2.00572c0,0.73348 0.15904,1.39556 0.47709,1.98625c0.31806,0.58419 0.7562,1.0483 1.31443,1.39232c0.56471,0.33754 1.19435,0.50629 1.88889,0.50629zM512.77152,-46.76515c-1.14891,0 -2.17124,-0.24666 -3.067,-0.73998c-0.88926,-0.49332 -1.58705,-1.17162 -2.09334,-2.03492c-0.50629,-0.86979 -0.75945,-1.86292 -0.75945,-2.97937c0,-1.13593 0.23692,-2.13554 0.71077,-2.99884c0.48033,-0.86979 1.14241,-1.5481 1.98625,-2.03492c0.85032,-0.49332 1.82073,-0.73998 2.91122,-0.73998c1.08399,0 2.01221,0.24016 2.78463,0.7205c0.77243,0.47384 1.3631,1.12944 1.77204,1.96677c0.40894,0.83734 0.61341,1.80126 0.61341,2.89175c0,0.26612 -0.09087,0.48682 -0.27262,0.66208c-0.17526,0.16876 -0.40245,0.25315 -0.68156,0.25315h-8.36366v-1.65521h8.30524l-0.85681,0.57446c-0.01298,-0.68805 -0.15254,-1.30469 -0.41867,-1.84994c-0.25964,-0.55174 -0.63287,-0.98663 -1.11969,-1.30469c-0.48033,-0.31806 -1.06777,-0.47709 -1.76231,-0.47709c-0.78541,0 -1.46048,0.17526 -2.02519,0.52578c-0.55823,0.34403 -0.98339,0.81787 -1.27547,1.42153c-0.29209,0.59716 -0.43814,1.27872 -0.43814,2.04467c0,0.75945 0.17201,1.43776 0.51604,2.03493c0.35051,0.59068 0.83085,1.06128 1.44101,1.4118c0.61015,0.34403 1.30794,0.51604 2.09335,0.51604c0.42841,0 0.86655,-0.07789 1.31444,-0.23367c0.45437,-0.16228 0.82112,-0.34727 1.10023,-0.55498c0.20771,-0.14929 0.43165,-0.22719 0.67183,-0.23367c0.24017,-0.01298 0.45112,0.05842 0.63287,0.2142c0.23367,0.20771 0.35701,0.43815 0.36999,0.69129c0.01298,0.24665 -0.09736,0.45762 -0.33104,0.63288c-0.46735,0.37648 -1.05154,0.6848 -1.75257,0.92497c-0.70103,0.23367 -1.3696,0.35051 -2.00572,0.35051zM521.34538,-53.95068c0,-0.83085 0.20447,-1.57407 0.6134,-2.22966c0.40894,-0.66208 0.96066,-1.18785 1.65521,-1.57731c0.69454,-0.38946 1.45723,-0.5842 2.28808,-0.5842c0.83085,0 1.4475,0.13631 1.84994,0.40894c0.40894,0.27262 0.56796,0.59393 0.47709,0.96392c-0.04544,0.19473 -0.12658,0.34402 -0.24341,0.44787c-0.11683,0.10386 -0.25316,0.17201 -0.40894,0.20447c-0.14929,0.02596 -0.31482,0.01623 -0.49656,-0.02921c-0.88278,-0.18175 -1.67793,-0.19473 -2.38544,-0.03895c-0.70753,0.14929 -1.26574,0.43165 -1.67468,0.84707c-0.40894,0.41542 -0.6134,0.94445 -0.6134,1.58706zM521.37459,-46.85278c-0.33754,0 -0.59717,-0.08438 -0.77892,-0.25315c-0.17526,-0.17526 -0.26288,-0.43815 -0.26288,-0.78866v-9.27888c0,-0.33104 0.08763,-0.58744 0.26288,-0.76918c0.18175,-0.18175 0.44139,-0.27262 0.77892,-0.27262c0.34403,0 0.60042,0.08763 0.76919,0.26289c0.17526,0.17526 0.26289,0.4349 0.26289,0.77891v9.27889c0,0.33754 -0.08762,0.59717 -0.26288,0.77892c-0.16876,0.17526 -0.42516,0.26288 -0.76918,0.26288zM539.20801,-46.85278c-0.61015,0 -1.15215,-0.16552 -1.62599,-0.49656c-0.46735,-0.33104 -0.8341,-0.78217 -1.10022,-1.35337c-0.25964,-0.5777 -0.38946,-1.24303 -0.38946,-1.99598v-11.33329c0,-0.30508 0.09737,-0.55498 0.29209,-0.7497c0.19473,-0.19473 0.44463,-0.2921 0.74971,-0.2921c0.30507,0 0.55498,0.09737 0.74971,0.2921c0.19473,0.19473 0.29209,0.44463 0.29209,0.74971v11.33329c0,0.51279 0.09412,0.93795 0.28236,1.27548c0.19473,0.33104 0.44463,0.49657 0.74971,0.49657h0.52578c0.27262,0 0.49656,0.09736 0.67182,0.29209c0.17526,0.18824 0.26289,0.43491 0.26289,0.73998c0,0.30508 -0.13307,0.55498 -0.39919,0.74971c-0.25964,0.19473 -0.59717,0.29209 -1.0126,0.29209zM547.45384,-46.76515c-1.1489,0 -2.17123,-0.24666 -3.06699,-0.73998c-0.88927,-0.49332 -1.58705,-1.17162 -2.09335,-2.03492c-0.5063,-0.86979 -0.75944,-1.86292 -0.75944,-2.97937c0,-1.13593 0.23692,-2.13554 0.71077,-2.99884c0.48033,-0.86979 1.14241,-1.5481 1.98625,-2.03492c0.85032,-0.49332 1.82073,-0.73998 2.91121,-0.73998c1.08399,0 2.01222,0.24016 2.78463,0.7205c0.77243,0.47384 1.36311,1.12944 1.77205,1.96677c0.40894,0.83734 0.6134,1.80126 0.6134,2.89175c0,0.26612 -0.09087,0.48682 -0.27262,0.66208c-0.17526,0.16876 -0.40244,0.25315 -0.68155,0.25315h-8.36366v-1.65521h8.30524l-0.85681,0.57446c-0.01298,-0.68805 -0.15254,-1.30469 -0.41867,-1.84994c-0.25964,-0.55174 -0.63287,-0.98663 -1.1197,-1.30469c-0.48033,-0.31806 -1.06776,-0.47709 -1.7623,-0.47709c-0.78541,0 -1.46048,0.17526 -2.02519,0.52578c-0.55822,0.34403 -0.98339,0.81787 -1.27547,1.42153c-0.29209,0.59716 -0.43814,1.27872 -0.43814,2.04467c0,0.75945 0.17201,1.43776 0.51604,2.03493c0.35051,0.59068 0.83085,1.06128 1.44101,1.4118c0.61016,0.34403 1.30794,0.51604 2.09335,0.51604c0.4284,0 0.86655,-0.07789 1.31443,-0.23367c0.45437,-0.16228 0.82112,-0.34727 1.10023,-0.55498c0.20771,-0.14929 0.43165,-0.22719 0.67182,-0.23367c0.24017,-0.01298 0.45112,0.05842 0.63287,0.2142c0.23368,0.20771 0.35701,0.43815 0.36999,0.69129c0.01298,0.24665 -0.09737,0.45762 -0.33104,0.63288c-0.46735,0.37648 -1.05154,0.6848 -1.75256,0.92497c-0.70103,0.23367 -1.36961,0.35051 -2.00572,0.35051zM558.44559,-46.87225c-0.4349,0 -0.76918,-0.23043 -1.00285,-0.69128l-4.40089,-9.27888c-0.11034,-0.23367 -0.12009,-0.46411 -0.02921,-0.69129c0.09087,-0.23367 0.26612,-0.41218 0.52577,-0.5355c0.23367,-0.12333 0.4706,-0.1428 0.71077,-0.05842c0.24665,0.08438 0.43165,0.24341 0.55499,0.47709l4.11854,8.86996h-1.00285l4.06986,-8.86995c0.12982,-0.23367 0.3213,-0.39271 0.57446,-0.47708c0.25315,-0.08438 0.5128,-0.06492 0.77892,0.05841c0.24666,0.11034 0.41218,0.2856 0.49657,0.52578c0.08438,0.23367 0.0714,0.46735 -0.03895,0.70103l-4.4009,9.27889c-0.20771,0.46086 -0.52578,0.6913 -0.95418,0.6913zM570.90067,-46.76515c-1.1489,0 -2.17124,-0.24666 -3.06699,-0.73998c-0.88927,-0.49332 -1.58705,-1.17162 -2.09334,-2.03492c-0.50629,-0.86979 -0.75945,-1.86292 -0.75945,-2.97937c0,-1.13593 0.23692,-2.13554 0.71077,-2.99884c0.48033,-0.86979 1.14241,-1.5481 1.98625,-2.03492c0.85032,-0.49332 1.82073,-0.73998 2.91122,-0.73998c1.08399,0 2.01221,0.24016 2.78463,0.7205c0.77243,0.47384 1.36311,1.12944 1.77204,1.96677c0.40894,0.83734 0.61341,1.80126 0.61341,2.89175c0,0.26612 -0.09087,0.48682 -0.27262,0.66208c-0.17526,0.16876 -0.40244,0.25315 -0.68156,0.25315h-8.36366v-1.65521h8.30524l-0.85681,0.57446c-0.01298,-0.68805 -0.15254,-1.30469 -0.41867,-1.84994c-0.25964,-0.55174 -0.63286,-0.98663 -1.11969,-1.30469c-0.48033,-0.31806 -1.06777,-0.47709 -1.76231,-0.47709c-0.78541,0 -1.46048,0.17526 -2.02519,0.52578c-0.55822,0.34403 -0.98338,0.81787 -1.27547,1.42153c-0.29209,0.59716 -0.43815,1.27872 -0.43815,2.04467c0,0.75945 0.17201,1.43776 0.51604,2.03493c0.35051,0.59068 0.83085,1.06128 1.441,1.4118c0.61016,0.34403 1.30794,0.51604 2.09335,0.51604c0.4284,0 0.86655,-0.07789 1.31444,-0.23367c0.45437,-0.16228 0.82112,-0.34727 1.10023,-0.55498c0.20771,-0.14929 0.43166,-0.22719 0.67183,-0.23367c0.24017,-0.01298 0.45113,0.05842 0.63288,0.2142c0.23367,0.20771 0.35701,0.43815 0.36999,0.69129c0.01299,0.24665 -0.09736,0.45762 -0.33104,0.63288c-0.46735,0.37648 -1.05154,0.6848 -1.75257,0.92497c-0.70103,0.23367 -1.36961,0.35051 -2.00572,0.35051zM581.15896,-46.85278c-0.61015,0 -1.15216,-0.16552 -1.626,-0.49656c-0.46735,-0.33104 -0.83409,-0.78217 -1.10022,-1.35337c-0.25964,-0.5777 -0.38946,-1.24303 -0.38946,-1.99598v-11.33329c0,-0.30508 0.09736,-0.55498 0.29209,-0.7497c0.19473,-0.19473 0.44463,-0.2921 0.74971,-0.2921c0.30508,0 0.55499,0.09737 0.74972,0.2921c0.19473,0.19473 0.29209,0.44463 0.29209,0.74971v11.33329c0,0.51279 0.09412,0.93795 0.28236,1.27548c0.19473,0.33104 0.44463,0.49657 0.74971,0.49657h0.52578c0.27262,0 0.49657,0.09736 0.67183,0.29209c0.17526,0.18824 0.26288,0.43491 0.26288,0.73998c0,0.30508 -0.13307,0.55498 -0.39919,0.74971c-0.25964,0.19473 -0.59717,0.29209 -1.0126,0.29209zM585.29598,-46.52174c-0.38946,0 -0.72699,-0.13955 -1.0126,-0.41866c-0.27911,-0.2856 -0.41867,-0.62314 -0.41867,-1.0126c0,-0.40244 0.13955,-0.74322 0.41867,-1.02233c0.2856,-0.2856 0.62314,-0.42841 1.0126,-0.42841c0.40244,0 0.73998,0.1428 1.0126,0.42841c0.27911,0.27911 0.41867,0.61989 0.41867,1.02233c0,0.38946 -0.13955,0.72699 -0.41867,1.0126c-0.27262,0.27911 -0.61016,0.41867 -1.0126,0.41867z" data-paper-data="{&quot;origPos&quot;:null}"/><path d="M208.23713,-20.84385c-0.31176,0 -0.57377,-0.10613 -0.78602,-0.31839c-0.21226,-0.21226 -0.31839,-0.47427 -0.31839,-0.78602v-14.36737c0,-0.32503 0.10613,-0.59035 0.31839,-0.79598c0.21226,-0.20563 0.47427,-0.30844 0.78603,-0.30844c0.32503,0 0.59035,0.10281 0.79598,0.30844c0.20563,0.20563 0.30844,0.47095 0.30844,0.79598v14.36737c0,0.31176 -0.10281,0.57377 -0.30844,0.78603c-0.20563,0.21226 -0.47095,0.31839 -0.79598,0.31839zM214.62912,-20.84385c-0.27196,0 -0.51407,-0.0995 -0.72633,-0.29849c-0.21226,-0.19899 -0.31839,-0.461 -0.31839,-0.78602v-10.45713c0,-1.0215 0.20231,-1.90703 0.60694,-2.65657c0.40462,-0.74954 0.96512,-1.33326 1.6815,-1.75115c0.72301,-0.41789 1.55879,-0.62683 2.50733,-0.62683c0.31176,0 0.57045,0.09286 0.77608,0.27859c0.20563,0.18573 0.30844,0.41789 0.30844,0.69648c0,0.27196 -0.10281,0.50412 -0.30844,0.69648c-0.20563,0.18573 -0.46432,0.27859 -0.77608,0.27859c-0.52402,0 -0.98502,0.12271 -1.38301,0.36814c-0.39135,0.23879 -0.69648,0.57045 -0.91537,0.99497c-0.21889,0.42452 -0.32834,0.92533 -0.32834,1.50241v10.67603c0,0.32503 -0.0995,0.58704 -0.29849,0.78603c-0.19899,0.19899 -0.47427,0.29849 -0.82582,0.29849zM212.67898,-30.20652c-0.29849,0 -0.5406,-0.08292 -0.72633,-0.24874c-0.18573,-0.17246 -0.27859,-0.38472 -0.27859,-0.63678c0,-0.28523 0.09286,-0.51075 0.27859,-0.67658c0.18573,-0.17246 0.42784,-0.25869 0.72633,-0.25869h5.23354c0.29849,0 0.5406,0.08623 0.72633,0.25869c0.18573,0.16583 0.27859,0.39135 0.27859,0.67658c0,0.25206 -0.09286,0.46432 -0.27859,0.63678c-0.18573,0.16583 -0.42783,0.24875 -0.72633,0.24875zM229.46192,-15.7496c-0.1393,0 -0.30844,-0.04312 -0.50743,-0.12934c-0.62352,-0.28523 -0.79266,-0.72964 -0.50743,-1.33326l6.46731,-14.62606c0.28523,-0.59035 0.73296,-0.7595 1.34321,-0.50743c0.63678,0.26533 0.81256,0.70974 0.52734,1.33326l-6.49715,14.60616c-0.16583,0.43779 -0.4411,0.65668 -0.82582,0.65668zM231.96924,-21.31148c-0.27196,0.11276 -0.52402,0.12271 -0.75618,0.02985c-0.23216,-0.09286 -0.42121,-0.27196 -0.56713,-0.53728l-4.85545,-9.23332c-0.1393,-0.26533 -0.15588,-0.5207 -0.04975,-0.76612c0.10613,-0.25206 0.29186,-0.43447 0.55718,-0.54723c0.27196,-0.11276 0.52734,-0.12271 0.76613,-0.02985c0.23879,0.08623 0.42121,0.26533 0.54724,0.53728l4.65646,9.23332c0.1393,0.26533 0.18905,0.52402 0.14925,0.77608c-0.03316,0.24543 -0.18241,0.42452 -0.44773,0.53728zM243.66031,-20.7543c-1.14753,0 -2.15908,-0.25206 -3.03466,-0.75618c-0.87557,-0.50412 -1.56542,-1.19728 -2.06954,-2.07948c-0.50412,-0.88884 -0.75618,-1.90371 -0.75618,-3.04461c0,-1.1608 0.25206,-2.1823 0.75618,-3.06451c0.50412,-0.88884 1.19396,-1.582 2.06954,-2.07948c0.87557,-0.50412 1.88713,-0.75618 3.03466,-0.75618c1.13427,0 2.13919,0.25206 3.01476,0.75618c0.87557,0.49749 1.56542,1.19065 2.06954,2.07949c0.50412,0.88221 0.75618,1.90371 0.75618,3.06451c0,1.1409 -0.24874,2.15577 -0.74622,3.04461c-0.49749,0.88221 -1.18401,1.57537 -2.05959,2.07949c-0.87557,0.50412 -1.88713,0.75618 -3.03466,0.75618zM243.66031,-22.66464c0.73628,0 1.38632,-0.16914 1.95014,-0.50743c0.57045,-0.34493 1.01155,-0.81256 1.32331,-1.4029c0.31839,-0.59698 0.47759,-1.28351 0.47759,-2.05959c0,-0.78271 -0.1592,-1.47256 -0.47759,-2.06954c-0.31176,-0.60362 -0.75286,-1.07457 -1.32331,-1.41286c-0.56382,-0.33829 -1.21386,-0.50743 -1.95014,-0.50743c-0.73628,0 -1.38964,0.16915 -1.96009,0.50744c-0.56382,0.33829 -1.00823,0.80924 -1.33326,1.41286c-0.32503,0.59698 -0.48753,1.28683 -0.48753,2.06954c0,0.77608 0.16251,1.46261 0.48754,2.05959c0.32503,0.59035 0.76944,1.05799 1.33326,1.40291c0.57045,0.33829 1.22382,0.50744 1.96009,0.50744zM257.60753,-20.7344c-0.98171,0 -1.85728,-0.20894 -2.62672,-0.62683c-0.76944,-0.41789 -1.37638,-1.02813 -1.82079,-1.83075c-0.44442,-0.80924 -0.66663,-1.80089 -0.66663,-2.97496v-5.22359c0,-0.31176 0.0995,-0.57045 0.29849,-0.77608c0.20563,-0.20563 0.46432,-0.30844 0.77608,-0.30844c0.31176,0 0.57045,0.10281 0.77608,0.30844c0.20563,0.20563 0.30844,0.46432 0.30844,0.77608v5.2236c0,0.78934 0.14925,1.44271 0.44774,1.96009c0.29849,0.51738 0.6998,0.89879 1.20392,1.14422c0.51075,0.24543 1.08452,0.36814 1.7213,0.36814c0.61025,0 1.15085,-0.1194 1.6218,-0.35819c0.47759,-0.23879 0.85567,-0.56382 1.13427,-0.97507c0.28523,-0.41125 0.42784,-0.87226 0.42784,-1.38301h1.34321c0,0.88221 -0.21889,1.67819 -0.65668,2.38793c-0.43115,0.70311 -1.01819,1.2603 -1.76109,1.67155c-0.74291,0.41125 -1.58532,0.61688 -2.52722,0.61688zM262.29384,-20.84385c-0.31176,0 -0.57045,-0.10281 -0.77608,-0.30844c-0.20563,-0.20563 -0.30844,-0.46432 -0.30844,-0.77608v-9.46216c0,-0.32503 0.10281,-0.58703 0.30844,-0.78602c0.20563,-0.19899 0.46432,-0.29849 0.77608,-0.29849c0.32503,0 0.58704,0.0995 0.78603,0.29849c0.19899,0.19899 0.29849,0.461 0.29849,0.78603v9.46217c0,0.31176 -0.0995,0.57045 -0.29849,0.77608c-0.19899,0.20563 -0.461,0.30844 -0.78602,0.30844zM276.09081,-20.84385c-0.22553,0 -0.43447,-0.06633 -0.62683,-0.19899c-0.19236,-0.1393 -0.32503,-0.30513 -0.39799,-0.49749l-3.13415,-9.42237c-0.11276,-0.44442 -0.10944,-0.80261 0.00995,-1.07457c0.1194,-0.27859 0.38472,-0.41789 0.79598,-0.41789c0.26533,0 0.48754,0.07628 0.66663,0.22885c0.17909,0.14593 0.32503,0.39467 0.43779,0.74623l2.66652,8.3677h-0.73628l2.52722,-8.53684c0.06633,-0.23879 0.18241,-0.43115 0.34824,-0.57708c0.17246,-0.15256 0.40794,-0.22884 0.70643,-0.22884c0.28523,0 0.51407,0.07628 0.68653,0.22885c0.17909,0.14593 0.29849,0.33829 0.35819,0.57708l2.05959,8.02941h-0.31839l2.49738,-7.86026c0.19899,-0.65005 0.56714,-0.97507 1.10442,-0.97507c0.39799,0 0.66663,0.1393 0.80593,0.41789c0.14593,0.27196 0.1393,0.63015 -0.0199,1.07457l-3.14411,9.42237c-0.05306,0.19236 -0.17246,0.35819 -0.35819,0.49749c-0.18573,0.13266 -0.39799,0.19899 -0.63678,0.19899c-0.22553,0 -0.43779,-0.06633 -0.63678,-0.19899c-0.19899,-0.1393 -0.32503,-0.30513 -0.37809,-0.49749l-2.18893,-8.0891h0.20895l-2.28843,8.08911c-0.05306,0.19236 -0.17578,0.35819 -0.36814,0.49749c-0.19236,0.13266 -0.40793,0.19899 -0.64673,0.19899zM293.27548,-20.7543c-1.02813,0 -1.95346,-0.25869 -2.77596,-0.77608c-0.82251,-0.51738 -1.47256,-1.21718 -1.95014,-2.09938c-0.47095,-0.88884 -0.70643,-1.89044 -0.70643,-3.00481c0,-1.121 0.25869,-2.12592 0.77608,-3.01476c0.51738,-0.89547 1.21718,-1.59859 2.09939,-2.10934c0.88884,-0.51738 1.88381,-0.77608 2.98491,-0.77608c1.1011,0 2.08944,0.25869 2.96502,0.77608c0.88221,0.51075 1.58201,1.21386 2.09939,2.10934c0.51738,0.88884 0.77608,1.89376 0.77608,3.01476h-0.83578c0,1.11437 -0.23879,2.11597 -0.71638,3.00481c-0.47095,0.88221 -1.11768,1.58201 -1.94019,2.09939c-0.81588,0.51738 -1.74121,0.77608 -2.77598,0.77608zM293.70332,-22.66464c0.72301,0 1.36642,-0.17246 1.93024,-0.51738c0.56382,-0.35155 1.00825,-0.82582 1.33327,-1.4228c0.32503,-0.60362 0.48754,-1.2802 0.48754,-2.02974c0,-0.76281 -0.16251,-1.44602 -0.48753,-2.04964c-0.32503,-0.60362 -0.76945,-1.07789 -1.33327,-1.4228c-0.56382,-0.34493 -1.20723,-0.51738 -1.93024,-0.51738c-0.70974,0 -1.34984,0.17246 -1.92029,0.51738c-0.57045,0.34493 -1.02482,0.81919 -1.36311,1.42281c-0.33165,0.60362 -0.49749,1.28683 -0.49749,2.04964c0,0.74954 0.16583,1.42612 0.49749,2.02974c0.33829,0.59698 0.79266,1.07125 1.36311,1.42281c0.57045,0.34493 1.21055,0.51738 1.9203,0.51738zM298.45928,-20.82395c-0.31176,0 -0.57045,-0.10281 -0.77608,-0.30844c-0.20563,-0.20563 -0.30844,-0.46432 -0.30844,-0.77608v-3.2436l0.39799,-2.24863l1.77105,0.76613v4.72611c0,0.31176 -0.10281,0.57045 -0.30844,0.77608c-0.20563,0.20563 -0.46432,0.30844 -0.77608,0.30844zM312.56568,-20.82395c-0.31176,0 -0.57045,-0.10281 -0.77608,-0.30844c-0.19899,-0.20563 -0.29849,-0.46432 -0.29849,-0.77608v-5.21364c0,-0.80924 -0.14924,-1.46924 -0.44773,-1.97999c-0.29849,-0.51075 -0.6998,-0.88884 -1.20391,-1.13427c-0.49749,-0.24543 -1.07457,-0.36814 -1.73125,-0.36814c-0.59035,0 -1.12763,0.1194 -1.61185,0.35819c-0.47759,0.23879 -0.85899,0.5605 -1.14421,0.96512c-0.27859,0.40462 -0.41789,0.86894 -0.41789,1.39296h-1.34321c0,-0.89547 0.21558,-1.69145 0.64673,-2.38793c0.43115,-0.70311 1.0215,-1.25698 1.77105,-1.6616c0.74954,-0.41125 1.59195,-0.61688 2.52722,-0.61688c0.97507,0 1.84733,0.20895 2.61677,0.62683c0.77608,0.41125 1.38632,1.0215 1.83075,1.83075c0.44442,0.80924 0.66663,1.8009 0.66663,2.97496v5.21364c0,0.31176 -0.10281,0.57045 -0.30844,0.77608c-0.20563,0.20563 -0.46432,0.30844 -0.77608,0.30844zM303.84975,-20.82395c-0.31176,0 -0.57045,-0.10281 -0.77608,-0.30844c-0.20563,-0.20563 -0.30844,-0.46432 -0.30844,-0.77608v-9.46216c0,-0.32503 0.10281,-0.58703 0.30844,-0.78602c0.20563,-0.19899 0.46432,-0.29849 0.77608,-0.29849c0.32503,0 0.58704,0.0995 0.78603,0.29849c0.19899,0.19899 0.29849,0.461 0.29849,0.78603v9.46217c0,0.31176 -0.0995,0.57045 -0.29849,0.77608c-0.19899,0.20563 -0.461,0.30844 -0.78602,0.30844zM321.45777,-20.84385c-0.70311,0 -1.3399,-0.17909 -1.91034,-0.53728c-0.56382,-0.36482 -1.00823,-0.85567 -1.33326,-1.47256c-0.32503,-0.62352 -0.48753,-1.32662 -0.48753,-2.10934v-10.11884c0,-0.31176 0.0995,-0.56713 0.29849,-0.76612c0.19899,-0.19899 0.45437,-0.29849 0.76613,-0.29849c0.31176,0 0.56382,0.0995 0.75618,0.29849c0.19899,0.19899 0.29849,0.45437 0.29849,0.76613v10.11885c0,0.57045 0.15588,1.04803 0.46764,1.43276c0.31176,0.37809 0.69316,0.56714 1.14422,0.56714h0.72633c0.25206,0 0.46764,0.0995 0.64673,0.29849c0.17909,0.19236 0.26865,0.44442 0.26865,0.75618c0,0.31176 -0.1194,0.56714 -0.35819,0.76613c-0.23216,0.19899 -0.53065,0.29849 -0.89547,0.29849zM316.75156,-30.20652c-0.29849,0 -0.5406,-0.08292 -0.72633,-0.24874c-0.17909,-0.17246 -0.26864,-0.38472 -0.26864,-0.63678c0,-0.28523 0.08955,-0.51075 0.26865,-0.67658c0.18573,-0.17246 0.42784,-0.25869 0.72633,-0.25869h4.90521c0.29186,0 0.53065,0.08623 0.71638,0.25869c0.18573,0.16583 0.27859,0.39135 0.27859,0.67658c0,0.25206 -0.09286,0.46432 -0.27859,0.63678c-0.18573,0.16583 -0.42452,0.24875 -0.71638,0.24875zM336.80318,-20.7543c-1.02813,0 -1.95346,-0.25869 -2.77596,-0.77608c-0.82251,-0.51738 -1.47256,-1.21718 -1.95014,-2.09938c-0.47095,-0.88884 -0.70643,-1.89044 -0.70643,-3.00481c0,-1.121 0.25869,-2.12592 0.77608,-3.01476c0.51738,-0.89547 1.21718,-1.59859 2.09939,-2.10934c0.88884,-0.51738 1.88381,-0.77608 2.98491,-0.77608c1.1011,0 2.08944,0.25869 2.96501,0.77608c0.88221,0.51075 1.58201,1.21386 2.09939,2.10934c0.51738,0.88884 0.77608,1.89376 0.77608,3.01476h-0.83578c0,1.11437 -0.23879,2.11597 -0.71638,3.00481c-0.47095,0.88221 -1.11768,1.58201 -1.94019,2.09939c-0.81588,0.51738 -1.74119,0.77608 -2.77596,0.77608zM337.23102,-22.66464c0.72301,0 1.36642,-0.17246 1.93024,-0.51738c0.56382,-0.35155 1.00823,-0.82582 1.33326,-1.4228c0.32503,-0.60362 0.48754,-1.2802 0.48754,-2.02974c0,-0.76281 -0.16251,-1.44602 -0.48753,-2.04964c-0.32503,-0.60362 -0.76944,-1.07789 -1.33326,-1.4228c-0.56382,-0.34493 -1.20723,-0.51738 -1.93024,-0.51738c-0.70974,0 -1.34984,0.17246 -1.92029,0.51738c-0.57045,0.34493 -1.02482,0.81919 -1.36311,1.42281c-0.33165,0.60362 -0.49749,1.28683 -0.49749,2.04964c0,0.74954 0.16583,1.42612 0.49749,2.02974c0.33829,0.59698 0.79266,1.07125 1.36311,1.42281c0.57045,0.34493 1.21055,0.51738 1.9203,0.51738zM341.98698,-20.82395c-0.31176,0 -0.57045,-0.10281 -0.77608,-0.30844c-0.20563,-0.20563 -0.30844,-0.46432 -0.30844,-0.77608v-3.2436l0.39799,-2.24863l1.77105,0.76613v4.72611c0,0.31176 -0.10281,0.57045 -0.30844,0.77608c-0.20563,0.20563 -0.46432,0.30844 -0.77608,0.30844zM356.0934,-20.82395c-0.31176,0 -0.57045,-0.10281 -0.77608,-0.30844c-0.19899,-0.20563 -0.29849,-0.46432 -0.29849,-0.77608v-5.21364c0,-0.80924 -0.14924,-1.46924 -0.44773,-1.97999c-0.29849,-0.51075 -0.6998,-0.88884 -1.20391,-1.13427c-0.49749,-0.24543 -1.07457,-0.36814 -1.73125,-0.36814c-0.59035,0 -1.12763,0.1194 -1.61185,0.35819c-0.47759,0.23879 -0.85899,0.5605 -1.14421,0.96512c-0.27859,0.40462 -0.41789,0.86894 -0.41789,1.39296h-1.34321c0,-0.89547 0.21558,-1.69145 0.64673,-2.38793c0.43115,-0.70311 1.0215,-1.25698 1.77105,-1.6616c0.74954,-0.41125 1.59195,-0.61688 2.52722,-0.61688c0.97507,0 1.84733,0.20895 2.61677,0.62683c0.77608,0.41125 1.38632,1.0215 1.83075,1.83075c0.44442,0.80924 0.66663,1.8009 0.66663,2.97496v5.21364c0,0.31176 -0.10281,0.57045 -0.30844,0.77608c-0.20563,0.20563 -0.46432,0.30844 -0.77608,0.30844zM347.37746,-20.82395c-0.31176,0 -0.57045,-0.10281 -0.77608,-0.30844c-0.20563,-0.20563 -0.30844,-0.46432 -0.30844,-0.77608v-9.46216c0,-0.32503 0.10281,-0.58703 0.30844,-0.78602c0.20563,-0.19899 0.46432,-0.29849 0.77608,-0.29849c0.32503,0 0.58704,0.0995 0.78603,0.29849c0.19899,0.19899 0.29849,0.461 0.29849,0.78603v9.46217c0,0.31176 -0.0995,0.57045 -0.29849,0.77608c-0.19899,0.20563 -0.461,0.30844 -0.78602,0.30844zM372.43748,-20.7543c-1.17406,0 -2.21878,-0.25206 -3.13415,-0.75618c-0.90874,-0.50412 -1.6218,-1.19728 -2.13918,-2.07948c-0.51738,-0.88884 -0.77608,-1.90371 -0.77608,-3.04461c0,-1.1608 0.24211,-2.1823 0.72633,-3.06451c0.49085,-0.88884 1.16743,-1.582 2.02974,-2.07948c0.86894,-0.50412 1.8606,-0.75618 2.97496,-0.75618c1.10773,0 2.05627,0.24543 2.84561,0.73628c0.78934,0.48422 1.39296,1.15417 1.81085,2.00984c0.41789,0.85567 0.62683,1.8407 0.62683,2.95506c0,0.27196 -0.09286,0.49749 -0.27859,0.67658c-0.17909,0.17246 -0.41125,0.25869 -0.69648,0.25869h-8.54679v-1.69145h8.4871l-0.87557,0.58704c-0.01326,-0.70311 -0.15588,-1.33326 -0.42783,-1.89044c-0.26533,-0.56382 -0.64673,-1.00823 -1.14421,-1.33326c-0.49085,-0.32503 -1.09115,-0.48753 -1.80089,-0.48753c-0.80261,0 -1.49246,0.17909 -2.06954,0.53728c-0.57045,0.35155 -1.00492,0.83578 -1.30341,1.45266c-0.29849,0.61025 -0.44773,1.30673 -0.44773,2.08944c0,0.77608 0.17578,1.46924 0.52734,2.07949c0.35819,0.60362 0.84904,1.08452 1.47256,1.44271c0.62352,0.35155 1.33658,0.52734 2.13919,0.52734c0.43779,0 0.88553,-0.0796 1.34321,-0.23879c0.46432,-0.16583 0.83909,-0.35487 1.12432,-0.56713c0.21226,-0.15256 0.4411,-0.23216 0.68653,-0.23879c0.24543,-0.01326 0.461,0.0597 0.64673,0.21889c0.23879,0.21226 0.36482,0.44774 0.37809,0.70643c0.01326,0.25206 -0.0995,0.46764 -0.33829,0.64673c-0.47759,0.38472 -1.07457,0.6998 -1.79095,0.94522c-0.71638,0.23879 -1.39959,0.35819 -2.04964,0.35819zM387.67634,-20.84385c-0.1393,0 -0.27527,-0.0199 -0.40793,-0.0597c-0.12603,-0.04643 -0.24543,-0.1393 -0.35819,-0.27859l-3.71124,-4.45747l-0.76612,-0.76612l-3.69134,-4.36792c-0.18573,-0.22553 -0.28523,-0.46763 -0.29849,-0.72633c-0.01326,-0.26533 0.05638,-0.49085 0.20895,-0.67658c0.1592,-0.18573 0.39467,-0.27859 0.70643,-0.27859c0.33829,0 0.60694,0.12271 0.80593,0.36814l3.63164,4.32812l0.54724,0.50744l3.98983,4.77586c0.21226,0.25206 0.31507,0.50412 0.30844,0.75618c-0.00664,0.24543 -0.0995,0.45437 -0.27859,0.62683c-0.17246,0.16583 -0.40131,0.24875 -0.68653,0.24875zM379.56733,-20.84385c-0.27859,0 -0.5008,-0.08623 -0.66663,-0.25869c-0.1592,-0.17909 -0.23879,-0.39467 -0.23879,-0.64673c0,-0.25869 0.09618,-0.51738 0.28854,-0.77608l3.61175,-4.51716l1.14422,1.61185l-3.37295,4.24853c-0.21226,0.22553 -0.46763,0.33829 -0.76612,0.33829zM384.81083,-26.29629l-1.4626,-1.25366l3.41275,-4.53706c0.11276,-0.14593 0.23216,-0.24211 0.35819,-0.28854c0.13266,-0.05306 0.27527,-0.0796 0.42784,-0.0796c0.31176,0 0.54392,0.09618 0.69648,0.28854c0.1592,0.19236 0.23548,0.42452 0.22885,0.69648c-0.00664,0.26533 -0.10944,0.52402 -0.30844,0.77608zM395.56723,-20.84385c-0.70311,0 -1.3399,-0.17909 -1.91034,-0.53728c-0.56382,-0.36482 -1.00823,-0.85567 -1.33326,-1.47256c-0.32503,-0.62352 -0.48753,-1.32662 -0.48753,-2.10934v-10.11884c0,-0.31176 0.0995,-0.56713 0.29849,-0.76612c0.19899,-0.19899 0.45437,-0.29849 0.76613,-0.29849c0.31176,0 0.56382,0.0995 0.75618,0.29849c0.19899,0.19899 0.29849,0.45437 0.29849,0.76613v10.11885c0,0.57045 0.15588,1.04803 0.46764,1.43276c0.31176,0.37809 0.69316,0.56714 1.14422,0.56714h0.72633c0.25206,0 0.46764,0.0995 0.64673,0.29849c0.17909,0.19236 0.26865,0.44442 0.26865,0.75618c0,0.31176 -0.1194,0.56714 -0.35819,0.76613c-0.23216,0.19899 -0.53065,0.29849 -0.89547,0.29849zM390.86102,-30.20652c-0.29849,0 -0.5406,-0.08292 -0.72633,-0.24874c-0.17909,-0.17246 -0.26864,-0.38472 -0.26864,-0.63678c0,-0.28523 0.08955,-0.51075 0.26865,-0.67658c0.18573,-0.17246 0.42784,-0.25869 0.72633,-0.25869h4.90521c0.29186,0 0.53065,0.08623 0.71638,0.25869c0.18573,0.16583 0.27859,0.39135 0.27859,0.67658c0,0.25206 -0.09286,0.46432 -0.27859,0.63678c-0.18573,0.16583 -0.42452,0.24875 -0.71638,0.24875zM400.89361,-28.09718c0,-0.84904 0.20895,-1.60853 0.62683,-2.27848c0.41789,-0.67658 0.98171,-1.21386 1.69145,-1.61185c0.70974,-0.39799 1.48914,-0.59698 2.33818,-0.59698c0.84904,0 1.47919,0.1393 1.89044,0.41789c0.41789,0.27859 0.5804,0.60694 0.48754,0.98502c-0.04643,0.19899 -0.12934,0.35155 -0.24874,0.45769c-0.1194,0.10613 -0.25869,0.17578 -0.41789,0.20895c-0.15256,0.02653 -0.32171,0.01658 -0.50743,-0.02985c-0.90211,-0.18573 -1.71467,-0.19899 -2.43767,-0.0398c-0.72301,0.15256 -1.29346,0.4411 -1.71135,0.86563c-0.41789,0.42452 -0.62683,0.96512 -0.62683,1.6218zM400.92346,-20.84385c-0.34493,0 -0.61025,-0.08623 -0.79598,-0.25869c-0.17909,-0.17909 -0.26864,-0.44773 -0.26864,-0.80592v-9.48206c0,-0.33829 0.08955,-0.6003 0.26865,-0.78602c0.18573,-0.18573 0.45105,-0.27859 0.79598,-0.27859c0.35155,0 0.61356,0.08955 0.78603,0.26865c0.17909,0.17909 0.26865,0.44442 0.26865,0.79598v9.48207c0,0.34493 -0.08954,0.61025 -0.26864,0.79598c-0.17246,0.17909 -0.43447,0.26865 -0.78602,0.26865zM414.15957,-20.7543c-1.02813,0 -1.95346,-0.25869 -2.77596,-0.77608c-0.82251,-0.51738 -1.47256,-1.21718 -1.95014,-2.09938c-0.47095,-0.88884 -0.70643,-1.89044 -0.70643,-3.00481c0,-1.121 0.25869,-2.12592 0.77608,-3.01476c0.51738,-0.89547 1.21718,-1.59859 2.09939,-2.10934c0.88884,-0.51738 1.88381,-0.77608 2.98491,-0.77608c1.1011,0 2.08944,0.25869 2.96501,0.77608c0.88221,0.51075 1.58201,1.21386 2.09939,2.10934c0.51738,0.88884 0.77608,1.89376 0.77608,3.01476h-0.83578c0,1.11437 -0.23879,2.11597 -0.71638,3.00481c-0.47095,0.88221 -1.11768,1.58201 -1.94019,2.09939c-0.81588,0.51738 -1.74119,0.77608 -2.77596,0.77608zM414.58741,-22.66464c0.72301,0 1.36642,-0.17246 1.93024,-0.51738c0.56382,-0.35155 1.00823,-0.82582 1.33326,-1.4228c0.32503,-0.60362 0.48754,-1.2802 0.48754,-2.02974c0,-0.76281 -0.16251,-1.44602 -0.48753,-2.04964c-0.32503,-0.60362 -0.76944,-1.07789 -1.33326,-1.4228c-0.56382,-0.34493 -1.20723,-0.51738 -1.93024,-0.51738c-0.70974,0 -1.34984,0.17246 -1.92029,0.51738c-0.57045,0.34493 -1.02482,0.81919 -1.36311,1.42281c-0.33165,0.60362 -0.49749,1.28683 -0.49749,2.04964c0,0.74954 0.16583,1.42612 0.49749,2.02974c0.33829,0.59698 0.79266,1.07125 1.36311,1.42281c0.57045,0.34493 1.21055,0.51738 1.9203,0.51738zM419.34337,-20.82395c-0.31176,0 -0.57045,-0.10281 -0.77608,-0.30844c-0.20563,-0.20563 -0.30844,-0.46432 -0.30844,-0.77608v-3.2436l0.39799,-2.24863l1.77105,0.76613v4.72611c0,0.31176 -0.10281,0.57045 -0.30844,0.77608c-0.20563,0.20563 -0.46432,0.30844 -0.77608,0.30844zM435.13096,-20.7543c-1.13427,0 -2.1425,-0.25869 -3.02471,-0.77608c-0.88221,-0.51738 -1.57537,-1.21718 -2.07948,-2.09938c-0.50412,-0.88884 -0.75618,-1.89044 -0.75618,-3.00481c0,-1.14753 0.24875,-2.16572 0.74623,-3.05456c0.49749,-0.89547 1.17738,-1.59195 2.03969,-2.08944c0.86231,-0.50412 1.85064,-0.75618 2.96501,-0.75618c0.83578,0 1.59859,0.1592 2.28843,0.47759c0.69648,0.31839 1.32,0.79598 1.87054,1.43276c0.19899,0.22553 0.26865,0.45769 0.20895,0.69648c-0.05306,0.23879 -0.20563,0.45105 -0.45769,0.63678c-0.19899,0.1393 -0.42121,0.18573 -0.66663,0.1393c-0.23879,-0.05306 -0.45437,-0.17578 -0.64673,-0.36814c-0.69648,-0.73628 -1.5621,-1.10441 -2.59687,-1.10441c-0.71638,0 -1.35316,0.16583 -1.91034,0.49749c-0.55055,0.33165 -0.98171,0.79598 -1.29346,1.39296c-0.31176,0.59035 -0.46763,1.29014 -0.46763,2.09939c0,0.76281 0.1592,1.44271 0.47759,2.03969c0.31839,0.59035 0.7595,1.0613 1.32331,1.41286c0.57045,0.34493 1.23045,0.51738 1.97999,0.51738c0.49749,0 0.93195,-0.0597 1.30341,-0.17909c0.37809,-0.12603 0.72301,-0.31507 1.03477,-0.56713c0.22553,-0.18573 0.45769,-0.28854 0.69648,-0.30844c0.23879,-0.0199 0.45105,0.04643 0.63678,0.19899c0.23879,0.19899 0.37145,0.42452 0.39799,0.67658c0.03316,0.24543 -0.04975,0.46764 -0.24874,0.66663c-1.0215,0.94854 -2.29507,1.42281 -3.82069,1.42281zM452.42284,-20.82395c-0.31176,0 -0.57045,-0.10281 -0.77608,-0.30844c-0.19899,-0.20563 -0.29849,-0.46432 -0.29849,-0.77608v-5.21364c0,-0.80924 -0.14924,-1.46924 -0.44773,-1.97999c-0.29849,-0.51075 -0.6998,-0.88884 -1.20391,-1.13427c-0.49749,-0.24543 -1.07457,-0.36814 -1.73125,-0.36814c-0.59035,0 -1.12763,0.1194 -1.61185,0.35819c-0.47759,0.23879 -0.85899,0.5605 -1.14421,0.96512c-0.27859,0.40462 -0.41789,0.86894 -0.41789,1.39296h-1.34321c0,-0.89547 0.21558,-1.69145 0.64673,-2.38793c0.43115,-0.70311 1.0215,-1.25698 1.77105,-1.6616c0.74954,-0.41125 1.59195,-0.61688 2.52722,-0.61688c0.97507,0 1.84733,0.20895 2.61677,0.62683c0.77608,0.41125 1.38632,1.0215 1.83075,1.83075c0.44442,0.80924 0.66663,1.8009 0.66663,2.97496v5.21364c0,0.31176 -0.10281,0.57045 -0.30844,0.77608c-0.20563,0.20563 -0.46432,0.30844 -0.77608,0.30844zM443.7069,-20.82395c-0.31176,0 -0.57045,-0.10281 -0.77608,-0.30844c-0.20563,-0.20563 -0.30844,-0.46432 -0.30844,-0.77608v-9.46216c0,-0.32503 0.10281,-0.58703 0.30844,-0.78602c0.20563,-0.19899 0.46432,-0.29849 0.77608,-0.29849c0.32503,0 0.58704,0.0995 0.78603,0.29849c0.19899,0.19899 0.29849,0.461 0.29849,0.78603v9.46217c0,0.31176 -0.0995,0.57045 -0.29849,0.77608c-0.19899,0.20563 -0.461,0.30844 -0.78602,0.30844zM443.7069,-25.06252c-0.31176,0 -0.57045,-0.10281 -0.77608,-0.30844c-0.20563,-0.20563 -0.30844,-0.46432 -0.30844,-0.77608v-10.1885c0,-0.32503 0.10281,-0.58703 0.30844,-0.78602c0.20563,-0.19899 0.46432,-0.29849 0.77608,-0.29849c0.32503,0 0.58704,0.0995 0.78603,0.29849c0.19899,0.19899 0.29849,0.461 0.29849,0.78603v10.1885c0,0.31176 -0.0995,0.57045 -0.29849,0.77608c-0.19899,0.20563 -0.461,0.30844 -0.78602,0.30844zM461.95305,-20.7543c-1.02813,0 -1.95346,-0.25869 -2.77596,-0.77608c-0.82252,-0.51738 -1.47258,-1.21718 -1.95016,-2.09938c-0.47095,-0.88884 -0.70643,-1.89044 -0.70643,-3.00481c0,-1.121 0.25869,-2.12592 0.77608,-3.01476c0.51738,-0.89547 1.21719,-1.59859 2.09941,-2.10934c0.88884,-0.51738 1.88381,-0.77608 2.98491,-0.77608c1.1011,0 2.08944,0.25869 2.96501,0.77608c0.88221,0.51075 1.58201,1.21386 2.09939,2.10934c0.51738,0.88884 0.77608,1.89376 0.77608,3.01476h-0.83578c0,1.11437 -0.23879,2.11597 -0.71638,3.00481c-0.47095,0.88221 -1.11768,1.58201 -1.94019,2.09939c-0.81588,0.51738 -1.74119,0.77608 -2.77596,0.77608zM462.38089,-22.66464c0.72301,0 1.36642,-0.17246 1.93024,-0.51738c0.56382,-0.35155 1.00823,-0.82582 1.33326,-1.4228c0.32503,-0.60362 0.48754,-1.2802 0.48754,-2.02974c0,-0.76281 -0.16251,-1.44602 -0.48753,-2.04964c-0.32503,-0.60362 -0.76944,-1.07789 -1.33326,-1.4228c-0.56382,-0.34493 -1.20723,-0.51738 -1.93024,-0.51738c-0.70974,0 -1.34984,0.17246 -1.92029,0.51738c-0.57045,0.34493 -1.02482,0.81919 -1.36311,1.42281c-0.33167,0.60362 -0.4975,1.28683 -0.4975,2.04964c0,0.74954 0.16584,1.42612 0.4975,2.02974c0.33829,0.59698 0.79266,1.07125 1.36311,1.42281c0.57045,0.34493 1.21055,0.51738 1.9203,0.51738zM467.13684,-20.82395c-0.31176,0 -0.57045,-0.10281 -0.77608,-0.30844c-0.20563,-0.20563 -0.30844,-0.46432 -0.30844,-0.77608v-3.2436l0.39799,-2.24863l1.77105,0.76613v4.72611c0,0.31176 -0.10281,0.57045 -0.30844,0.77608c-0.20563,0.20563 -0.46432,0.30844 -0.77608,0.30844zM474.19888,-20.84385c-0.62352,0 -1.17738,-0.16914 -1.6616,-0.50743c-0.47759,-0.33829 -0.85236,-0.79929 -1.12431,-1.38301c-0.26533,-0.59035 -0.39799,-1.27024 -0.39799,-2.03969v-11.58145c0,-0.31176 0.0995,-0.56713 0.29849,-0.76612c0.19899,-0.19899 0.45437,-0.29849 0.76613,-0.29849c0.31176,0 0.56714,0.0995 0.76613,0.29849c0.19899,0.19899 0.29849,0.45437 0.29849,0.76613v11.58145c0,0.52402 0.09618,0.95849 0.28854,1.30341c0.19899,0.33829 0.45437,0.50744 0.76613,0.50744h0.53728c0.27859,0 0.50744,0.0995 0.68653,0.29849c0.17909,0.19236 0.26865,0.44442 0.26865,0.75618c0,0.31176 -0.13598,0.56714 -0.40793,0.76613c-0.26533,0.19899 -0.61025,0.29849 -1.03477,0.29849zM480.56568,-20.84385c-0.62352,0 -1.17738,-0.16914 -1.6616,-0.50743c-0.47759,-0.33829 -0.85236,-0.79929 -1.12431,-1.38301c-0.26533,-0.59035 -0.39799,-1.27024 -0.39799,-2.03969v-11.58145c0,-0.31176 0.0995,-0.56713 0.29849,-0.76612c0.19899,-0.19899 0.45437,-0.29849 0.76613,-0.29849c0.31176,0 0.56714,0.0995 0.76613,0.29849c0.19899,0.19899 0.29849,0.45437 0.29849,0.76613v11.58145c0,0.52402 0.09618,0.95849 0.28854,1.30341c0.19899,0.33829 0.45437,0.50744 0.76613,0.50744h0.53728c0.27859,0 0.50744,0.0995 0.68653,0.29849c0.17909,0.19236 0.26865,0.44442 0.26865,0.75618c0,0.31176 -0.13598,0.56714 -0.40793,0.76613c-0.26533,0.19899 -0.61025,0.29849 -1.03477,0.29849zM488.37518,-20.7543c-1.02813,0 -1.95346,-0.25869 -2.77596,-0.77608c-0.82251,-0.51738 -1.47256,-1.21718 -1.95014,-2.09938c-0.47095,-0.88884 -0.70643,-1.89044 -0.70643,-3.00481c0,-1.121 0.25869,-2.12592 0.77608,-3.01476c0.51738,-0.89547 1.21718,-1.59859 2.09939,-2.10934c0.88884,-0.51738 1.88381,-0.77608 2.98491,-0.77608c1.1011,0 2.08944,0.25869 2.96501,0.77608c0.88221,0.51075 1.58201,1.21386 2.09939,2.10934c0.51738,0.88884 0.77608,1.89376 0.77608,3.01476h-0.83578c0,1.11437 -0.23879,2.11597 -0.71638,3.00481c-0.47095,0.88221 -1.11768,1.58201 -1.94019,2.09939c-0.81588,0.51738 -1.74119,0.77608 -2.77596,0.77608zM488.80302,-22.66464c0.72301,0 1.36642,-0.17246 1.93024,-0.51738c0.56382,-0.35155 1.00823,-0.82582 1.33326,-1.4228c0.32503,-0.60362 0.48754,-1.2802 0.48754,-2.02974c0,-0.76281 -0.16251,-1.44602 -0.48753,-2.04964c-0.32503,-0.60362 -0.76944,-1.07789 -1.33326,-1.4228c-0.56382,-0.34493 -1.20723,-0.51738 -1.93024,-0.51738c-0.70974,0 -1.34984,0.17246 -1.92029,0.51738c-0.57045,0.34493 -1.02482,0.81919 -1.36311,1.42281c-0.33165,0.60362 -0.49749,1.28683 -0.49749,2.04964c0,0.74954 0.16583,1.42612 0.49749,2.02974c0.33829,0.59698 0.79266,1.07125 1.36311,1.42281c0.57045,0.34493 1.21055,0.51738 1.9203,0.51738zM493.55898,-20.82395c-0.31176,0 -0.57045,-0.10281 -0.77608,-0.30844c-0.20563,-0.20563 -0.30844,-0.46432 -0.30844,-0.77608v-3.2436l0.39799,-2.24863l1.77105,0.76613v4.72611c0,0.31176 -0.10281,0.57045 -0.30844,0.77608c-0.20563,0.20563 -0.46432,0.30844 -0.77608,0.30844zM507.6654,-20.82395c-0.31176,0 -0.57045,-0.10281 -0.77608,-0.30844c-0.19899,-0.20563 -0.29849,-0.46432 -0.29849,-0.77608v-5.21364c0,-0.80924 -0.14924,-1.46924 -0.44773,-1.97999c-0.29849,-0.51075 -0.6998,-0.88884 -1.20391,-1.13427c-0.49749,-0.24543 -1.07457,-0.36814 -1.73125,-0.36814c-0.59035,0 -1.12763,0.1194 -1.61185,0.35819c-0.47759,0.23879 -0.85899,0.5605 -1.14421,0.96512c-0.27859,0.40462 -0.41789,0.86894 -0.41789,1.39296h-1.34321c0,-0.89547 0.21558,-1.69145 0.64673,-2.38793c0.43115,-0.70311 1.0215,-1.25698 1.77105,-1.6616c0.74954,-0.41125 1.59195,-0.61688 2.52722,-0.61688c0.97507,0 1.84733,0.20895 2.61677,0.62683c0.77608,0.41125 1.38632,1.0215 1.83075,1.83075c0.44442,0.80924 0.66663,1.8009 0.66663,2.97496v5.21364c0,0.31176 -0.10281,0.57045 -0.30844,0.77608c-0.20563,0.20563 -0.46432,0.30844 -0.77608,0.30844zM498.94946,-20.82395c-0.31176,0 -0.57045,-0.10281 -0.77608,-0.30844c-0.20563,-0.20563 -0.30844,-0.46432 -0.30844,-0.77608v-9.46216c0,-0.32503 0.10281,-0.58703 0.30844,-0.78602c0.20563,-0.19899 0.46432,-0.29849 0.77608,-0.29849c0.32503,0 0.58704,0.0995 0.78603,0.29849c0.19899,0.19899 0.29849,0.461 0.29849,0.78603v9.46217c0,0.31176 -0.0995,0.57045 -0.29849,0.77608c-0.19899,0.20563 -0.461,0.30844 -0.78602,0.30844zM517.17436,-20.7543c-1.0613,0 -1.99989,-0.25206 -2.81576,-0.75618c-0.80924,-0.50412 -1.44934,-1.19728 -1.92029,-2.07948c-0.46432,-0.88884 -0.69648,-1.90371 -0.69648,-3.04461c0,-1.1608 0.25206,-2.1823 0.75618,-3.06451c0.50412,-0.88884 1.19396,-1.582 2.06954,-2.07948c0.87557,-0.50412 1.88713,-0.75618 3.03466,-0.75618c1.13427,0 2.13919,0.25206 3.01476,0.75618c0.87557,0.49749 1.56542,1.19065 2.06954,2.07949c0.50412,0.88221 0.75618,1.90371 0.75618,3.06451h-1.25366c0,1.1409 -0.21558,2.15577 -0.64673,3.04461c-0.43115,0.88221 -1.02482,1.57537 -1.78099,2.07949c-0.74954,0.50412 -1.61185,0.75618 -2.58692,0.75618zM517.5624,-16.02819c-1.00823,0 -1.95014,-0.19899 -2.82572,-0.59698c-0.87557,-0.39135 -1.61849,-0.96844 -2.22873,-1.73125c-0.18573,-0.24543 -0.25537,-0.49417 -0.20894,-0.74622c0.05306,-0.25206 0.19236,-0.45769 0.41789,-0.61688c0.25869,-0.17246 0.52402,-0.22884 0.79598,-0.16914c0.27859,0.0597 0.50412,0.20231 0.67658,0.42784c0.37809,0.47759 0.85567,0.84904 1.43276,1.11437c0.58372,0.27196 1.24372,0.40794 1.97999,0.40794c0.67658,0 1.3001,-0.16251 1.87054,-0.48753c0.57708,-0.32503 1.03477,-0.80592 1.37306,-1.4427c0.33829,-0.63678 0.50744,-1.41618 0.50744,-2.33818v-3.00481l0.70643,-1.87054l1.38301,0.44774v4.57686c0,1.121 -0.24874,2.13587 -0.74622,3.04461c-0.49749,0.91537 -1.18733,1.6417 -2.06954,2.17899c-0.88221,0.53728 -1.90371,0.80593 -3.06451,0.80593zM517.6022,-22.66464c0.73628,0 1.38632,-0.16914 1.95014,-0.50743c0.57045,-0.34493 1.01155,-0.81256 1.32331,-1.4029c0.31839,-0.59698 0.47759,-1.28351 0.47759,-2.05959c0,-0.78271 -0.1592,-1.47256 -0.47759,-2.06954c-0.31176,-0.60362 -0.75286,-1.07457 -1.32331,-1.41286c-0.56382,-0.33829 -1.21386,-0.50743 -1.95014,-0.50743c-0.73628,0 -1.38964,0.16915 -1.96009,0.50744c-0.56382,0.33829 -1.00823,0.80924 -1.33326,1.41286c-0.32503,0.59698 -0.48753,1.28683 -0.48753,2.06954c0,0.77608 0.16251,1.46261 0.48754,2.05959c0.32503,0.59035 0.76944,1.05799 1.33326,1.40291c0.57045,0.33829 1.22382,0.50744 1.96009,0.50744zM532.11656,-20.7543c-1.17406,0 -2.21878,-0.25206 -3.13415,-0.75618c-0.90874,-0.50412 -1.6218,-1.19728 -2.13918,-2.07948c-0.51738,-0.88884 -0.77608,-1.90371 -0.77608,-3.04461c0,-1.1608 0.24211,-2.1823 0.72633,-3.06451c0.49085,-0.88884 1.16743,-1.582 2.02974,-2.07948c0.86894,-0.50412 1.8606,-0.75618 2.97496,-0.75618c1.10773,0 2.05627,0.24543 2.84561,0.73628c0.78934,0.48422 1.39296,1.15417 1.81085,2.00984c0.41789,0.85567 0.62683,1.8407 0.62683,2.95506c0,0.27196 -0.09286,0.49749 -0.27859,0.67658c-0.17909,0.17246 -0.41125,0.25869 -0.69648,0.25869h-8.54679v-1.69145h8.4871l-0.87557,0.58704c-0.01326,-0.70311 -0.15588,-1.33326 -0.42783,-1.89044c-0.26533,-0.56382 -0.64673,-1.00823 -1.14421,-1.33326c-0.49085,-0.32503 -1.09115,-0.48753 -1.80089,-0.48753c-0.80261,0 -1.49246,0.17909 -2.06954,0.53728c-0.57045,0.35155 -1.00492,0.83578 -1.30341,1.45266c-0.29849,0.61025 -0.44773,1.30673 -0.44773,2.08944c0,0.77608 0.17578,1.46924 0.52734,2.07949c0.35819,0.60362 0.84904,1.08452 1.47256,1.44271c0.62352,0.35155 1.33658,0.52734 2.13919,0.52734c0.43779,0 0.88553,-0.0796 1.34321,-0.23879c0.46432,-0.16583 0.83909,-0.35487 1.12432,-0.56713c0.21226,-0.15256 0.4411,-0.23216 0.68653,-0.23879c0.24543,-0.01326 0.461,0.0597 0.64673,0.21889c0.23879,0.21226 0.36482,0.44774 0.37809,0.70643c0.01326,0.25206 -0.0995,0.46764 -0.33829,0.64673c-0.47759,0.38472 -1.07457,0.6998 -1.79095,0.94522c-0.71638,0.23879 -1.39959,0.35819 -2.04964,0.35819zM539.65435,-17.17241c-0.17246,0 -0.30513,-0.05638 -0.39799,-0.16914c-0.09286,-0.11276 -0.1393,-0.23879 -0.1393,-0.37809c0,-0.28523 0.08292,-0.53065 0.24875,-0.73628c0.16583,-0.20563 0.32834,-0.42783 0.48754,-0.66663c0.16583,-0.23879 0.24875,-0.53065 0.24875,-0.87557c0,-0.23879 -0.0597,-0.43779 -0.17909,-0.59698c-0.11276,-0.15256 -0.23879,-0.29517 -0.37809,-0.42783c-0.1393,-0.13266 -0.26533,-0.28523 -0.37809,-0.45769c-0.11276,-0.17246 -0.16914,-0.38472 -0.16914,-0.63678c0,-0.38472 0.12603,-0.70311 0.37809,-0.95517c0.25206,-0.25206 0.6003,-0.37809 1.04472,-0.37809c0.53728,0 0.94191,0.18573 1.21386,0.55718c0.27859,0.36482 0.42452,0.85567 0.43779,1.47256c0,0.45769 -0.07628,0.93195 -0.22884,1.42281c-0.14593,0.49749 -0.34493,0.95849 -0.59698,1.38301c-0.24543,0.42452 -0.51075,0.76944 -0.79598,1.03477c-0.27859,0.27196 -0.54392,0.40794 -0.79598,0.40794zM555.4799,-20.84385c-0.70311,0 -1.3399,-0.17909 -1.91034,-0.53728c-0.56382,-0.36482 -1.00823,-0.85567 -1.33326,-1.47256c-0.32503,-0.62352 -0.48753,-1.32662 -0.48753,-2.10934v-10.11884c0,-0.31176 0.0995,-0.56713 0.29849,-0.76612c0.19899,-0.19899 0.45437,-0.29849 0.76613,-0.29849c0.31176,0 0.56382,0.0995 0.75618,0.29849c0.19899,0.19899 0.29849,0.45437 0.29849,0.76613v10.11885c0,0.57045 0.15588,1.04803 0.46764,1.43276c0.31176,0.37809 0.69316,0.56714 1.14422,0.56714h0.72633c0.25206,0 0.46764,0.0995 0.64673,0.29849c0.17909,0.19236 0.26865,0.44442 0.26865,0.75618c0,0.31176 -0.1194,0.56714 -0.35819,0.76613c-0.23216,0.19899 -0.53065,0.29849 -0.89547,0.29849zM550.77369,-30.20652c-0.29849,0 -0.5406,-0.08292 -0.72633,-0.24874c-0.17909,-0.17246 -0.26864,-0.38472 -0.26864,-0.63678c0,-0.28523 0.08955,-0.51075 0.26865,-0.67658c0.18573,-0.17246 0.42784,-0.25869 0.72633,-0.25869h4.90521c0.29186,0 0.53065,0.08623 0.71638,0.25869c0.18573,0.16583 0.27859,0.39135 0.27859,0.67658c0,0.25206 -0.09286,0.46432 -0.27859,0.63678c-0.18573,0.16583 -0.42452,0.24875 -0.71638,0.24875zM560.80629,-28.09718c0,-0.84904 0.20895,-1.60853 0.62683,-2.27848c0.41789,-0.67658 0.98171,-1.21386 1.69145,-1.61185c0.70974,-0.39799 1.48914,-0.59698 2.33818,-0.59698c0.84904,0 1.47919,0.1393 1.89044,0.41789c0.41789,0.27859 0.5804,0.60694 0.48754,0.98502c-0.04643,0.19899 -0.12934,0.35155 -0.24874,0.45769c-0.1194,0.10613 -0.25869,0.17578 -0.41789,0.20895c-0.15256,0.02653 -0.32171,0.01658 -0.50743,-0.02985c-0.90211,-0.18573 -1.71467,-0.19899 -2.43767,-0.0398c-0.72301,0.15256 -1.29346,0.4411 -1.71135,0.86563c-0.41789,0.42452 -0.62683,0.96512 -0.62683,1.6218zM560.83614,-20.84385c-0.34493,0 -0.61025,-0.08623 -0.79598,-0.25869c-0.17909,-0.17909 -0.26864,-0.44773 -0.26864,-0.80592v-9.48206c0,-0.33829 0.08955,-0.6003 0.26865,-0.78602c0.18573,-0.18573 0.45105,-0.27859 0.79598,-0.27859c0.35155,0 0.61356,0.08955 0.78603,0.26865c0.17909,0.17909 0.26865,0.44442 0.26865,0.79598v9.48207c0,0.34493 -0.08954,0.61025 -0.26864,0.79598c-0.17246,0.17909 -0.43447,0.26865 -0.78602,0.26865zM572.16524,-15.7496c-0.1393,0 -0.30844,-0.04312 -0.50743,-0.12934c-0.62352,-0.28523 -0.79266,-0.72964 -0.50743,-1.33326l6.46731,-14.62606c0.28523,-0.59035 0.73296,-0.7595 1.34321,-0.50743c0.63678,0.26533 0.81256,0.70974 0.52734,1.33326l-6.49715,14.60616c-0.16583,0.43779 -0.4411,0.65668 -0.82582,0.65668zM574.67257,-21.31148c-0.27196,0.11276 -0.52402,0.12271 -0.75618,0.02985c-0.23216,-0.09286 -0.42121,-0.27196 -0.56713,-0.53728l-4.85545,-9.23332c-0.1393,-0.26533 -0.15588,-0.5207 -0.04975,-0.76612c0.10613,-0.25206 0.29186,-0.43447 0.55718,-0.54723c0.27196,-0.11276 0.52734,-0.12271 0.76613,-0.02985c0.23879,0.08623 0.42121,0.26533 0.54724,0.53728l4.65646,9.23332c0.1393,0.26533 0.18905,0.52402 0.14925,0.77608c-0.03316,0.24543 -0.18241,0.42452 -0.44773,0.53728zM591.96169,-20.84385c-0.70311,0 -1.3399,-0.17909 -1.91034,-0.53728c-0.56382,-0.36482 -1.00823,-0.85567 -1.33326,-1.47256c-0.32503,-0.62352 -0.48753,-1.32662 -0.48753,-2.10934v-10.11884c0,-0.31176 0.0995,-0.56713 0.29849,-0.76612c0.19899,-0.19899 0.45437,-0.29849 0.76613,-0.29849c0.31176,0 0.56382,0.0995 0.75618,0.29849c0.19899,0.19899 0.29849,0.45437 0.29849,0.76613v10.11885c0,0.57045 0.15588,1.04803 0.46764,1.43276c0.31176,0.37809 0.69316,0.56714 1.14422,0.56714h0.72633c0.25206,0 0.46764,0.0995 0.64673,0.29849c0.17909,0.19236 0.26865,0.44442 0.26865,0.75618c0,0.31176 -0.1194,0.56714 -0.35819,0.76613c-0.23216,0.19899 -0.53065,0.29849 -0.89547,0.29849zM587.25548,-30.20652c-0.29849,0 -0.5406,-0.08292 -0.72633,-0.24874c-0.17909,-0.17246 -0.26864,-0.38472 -0.26864,-0.63678c0,-0.28523 0.08955,-0.51075 0.26865,-0.67658c0.18573,-0.17246 0.42784,-0.25869 0.72633,-0.25869h4.90521c0.29186,0 0.53065,0.08623 0.71638,0.25869c0.18573,0.16583 0.27859,0.39135 0.27859,0.67658c0,0.25206 -0.09286,0.46432 -0.27859,0.63678c-0.18573,0.16583 -0.42452,0.24875 -0.71638,0.24875zM601.51671,-20.7543c-1.14753,0 -2.15908,-0.25206 -3.03466,-0.75618c-0.87557,-0.50412 -1.56542,-1.19728 -2.06954,-2.07948c-0.50412,-0.88884 -0.75618,-1.90371 -0.75618,-3.04461c0,-1.1608 0.25206,-2.1823 0.75618,-3.06451c0.50412,-0.88884 1.19396,-1.582 2.06954,-2.07948c0.87557,-0.50412 1.88713,-0.75618 3.03466,-0.75618c1.13427,0 2.13919,0.25206 3.01476,0.75618c0.87557,0.49749 1.56542,1.19065 2.06954,2.07949c0.50412,0.88221 0.75618,1.90371 0.75618,3.06451c0,1.1409 -0.24874,2.15577 -0.74622,3.04461c-0.49749,0.88221 -1.18401,1.57537 -2.05959,2.07949c-0.87557,0.50412 -1.88713,0.75618 -3.03466,0.75618zM601.51671,-22.66464c0.73628,0 1.38632,-0.16914 1.95014,-0.50743c0.57045,-0.34493 1.01155,-0.81256 1.32331,-1.4029c0.31839,-0.59698 0.47759,-1.28351 0.47759,-2.05959c0,-0.78271 -0.1592,-1.47256 -0.47759,-2.06954c-0.31176,-0.60362 -0.75286,-1.07457 -1.32331,-1.41286c-0.56382,-0.33829 -1.21386,-0.50743 -1.95014,-0.50743c-0.73628,0 -1.38964,0.16915 -1.96009,0.50744c-0.56382,0.33829 -1.00823,0.80924 -1.33326,1.41286c-0.32503,0.59698 -0.48753,1.28683 -0.48753,2.06954c0,0.77608 0.16251,1.46261 0.48754,2.05959c0.32503,0.59035 0.76944,1.05799 1.33326,1.40291c0.57045,0.33829 1.22382,0.50744 1.96009,0.50744z" data-paper-data="{&quot;origPos&quot;:null}"/><path d="M306.2815,7.76291c-0.31176,0 -0.57045,-0.10613 -0.77608,-0.31839c-0.20563,-0.21226 -0.30844,-0.46763 -0.30844,-0.76612v-10.45713c0,-1.0613 0.20895,-1.97668 0.62683,-2.74612c0.41789,-0.77608 1.07457,-1.37638 1.97004,-1.80089c0.90211,-0.42452 2.06622,-0.63678 3.49235,-0.63678c0.68322,0 1.27356,0.0796 1.77105,0.23879c0.50412,0.15256 0.89879,0.36482 1.18402,0.63678c0.28523,0.26533 0.42784,0.58372 0.42784,0.95517c0,0.61688 -0.38472,0.92533 -1.15417,0.92533c-0.29186,0 -0.55718,-0.06302 -0.79598,-0.18904c-0.23216,-0.12603 -0.461,-0.27196 -0.68653,-0.43779c-0.22553,-0.17246 -0.46763,-0.32171 -0.72633,-0.44773c-0.25206,-0.12603 -0.54723,-0.18904 -0.88552,-0.18904c-0.52402,0 -1.0215,0.10281 -1.49246,0.30844c-0.46432,0.19899 -0.84241,0.56714 -1.13427,1.10442c-0.28523,0.53728 -0.42783,1.29678 -0.42783,2.27849v10.45714c0,0.29849 -0.10281,0.55387 -0.30844,0.76613c-0.20563,0.21226 -0.46432,0.31839 -0.77608,0.31839zM304.29156,-1.59976c-0.29849,0 -0.5406,-0.08292 -0.72633,-0.24874c-0.18573,-0.17246 -0.27859,-0.38472 -0.27859,-0.63678c0,-0.28523 0.09286,-0.51075 0.27859,-0.67658c0.18573,-0.17246 0.42784,-0.25869 0.72633,-0.25869h5.2634c0.29186,0 0.53065,0.08623 0.71638,0.25869c0.18573,0.16583 0.27859,0.39135 0.27859,0.67658c0,0.25206 -0.09286,0.46432 -0.27859,0.63678c-0.18573,0.16583 -0.42452,0.24875 -0.71638,0.24875zM313.34579,7.76291c-0.31176,0 -0.57045,-0.10281 -0.77608,-0.30844c-0.19899,-0.20563 -0.29849,-0.46432 -0.29849,-0.77608v-9.44226c0,-0.32503 0.0995,-0.58703 0.29849,-0.78602c0.20563,-0.19899 0.46432,-0.29849 0.77608,-0.29849c0.32503,0 0.58704,0.0995 0.78603,0.29849c0.19899,0.19899 0.29849,0.461 0.29849,0.78603v9.44227c0,0.31176 -0.0995,0.57045 -0.29849,0.77608c-0.19899,0.20563 -0.461,0.30844 -0.78602,0.30844zM328.17999,7.78281c-0.31176,0 -0.57045,-0.10281 -0.77608,-0.30844c-0.19899,-0.20563 -0.29849,-0.46432 -0.29849,-0.77608v-5.21364c0,-0.80924 -0.14924,-1.46924 -0.44773,-1.97999c-0.29849,-0.51075 -0.6998,-0.88884 -1.20391,-1.13427c-0.49749,-0.24543 -1.07457,-0.36814 -1.73125,-0.36814c-0.59035,0 -1.12763,0.1194 -1.61185,0.35819c-0.47759,0.23879 -0.85899,0.5605 -1.14421,0.96512c-0.27859,0.40462 -0.41789,0.86894 -0.41789,1.39296h-1.34321c0,-0.89547 0.21558,-1.69145 0.64673,-2.38793c0.43115,-0.70311 1.0215,-1.25698 1.77105,-1.6616c0.74954,-0.41125 1.59195,-0.61688 2.52722,-0.61688c0.97507,0 1.84733,0.20895 2.61677,0.62683c0.77608,0.41125 1.38632,1.0215 1.83075,1.83075c0.44442,0.80924 0.66663,1.8009 0.66663,2.97496v5.21364c0,0.31176 -0.10281,0.57045 -0.30844,0.77608c-0.20563,0.20563 -0.46432,0.30844 -0.77608,0.30844zM319.46405,7.78281c-0.31176,0 -0.57045,-0.10281 -0.77608,-0.30844c-0.20563,-0.20563 -0.30844,-0.46432 -0.30844,-0.77608v-9.46216c0,-0.32503 0.10281,-0.58703 0.30844,-0.78602c0.20563,-0.19899 0.46432,-0.29849 0.77608,-0.29849c0.32503,0 0.58704,0.0995 0.78603,0.29849c0.19899,0.19899 0.29849,0.461 0.29849,0.78603v9.46217c0,0.31176 -0.0995,0.57045 -0.29849,0.77608c-0.19899,0.20563 -0.461,0.30844 -0.78602,0.30844zM338.11679,7.85246c-1.1011,0 -2.09607,-0.25869 -2.98491,-0.77608c-0.88221,-0.51738 -1.582,-1.2205 -2.09938,-2.10934c-0.51738,-0.89547 -0.77608,-1.90039 -0.77608,-3.01476c0,-1.121 0.23548,-2.1226 0.70643,-3.00481c0.47759,-0.88884 1.12763,-1.58863 1.95014,-2.09938c0.82251,-0.51738 1.74783,-0.77608 2.77597,-0.77608c0.83578,0 1.60522,0.17246 2.30833,0.51738c0.70974,0.34493 1.30673,0.81588 1.79095,1.41286v-5.73103c0,-0.32503 0.10281,-0.58703 0.30844,-0.78602c0.20563,-0.19899 0.46432,-0.29849 0.77608,-0.29849c0.32503,0 0.58704,0.0995 0.78603,0.29849c0.19899,0.19899 0.29849,0.461 0.29849,0.78603v9.68106c0,1.11437 -0.25869,2.11929 -0.77608,3.01476c-0.51738,0.88884 -1.21718,1.59195 -2.09938,2.10934c-0.87557,0.51738 -1.86391,0.77608 -2.96501,0.77608zM338.11679,5.94211c0.72301,0 1.36642,-0.17246 1.93024,-0.51738c0.56382,-0.35155 1.00823,-0.82914 1.33326,-1.43276c0.32503,-0.61025 0.48754,-1.29014 0.48754,-2.03969c0,-0.76944 -0.16251,-1.44934 -0.48753,-2.03969c-0.32503,-0.59698 -0.76944,-1.06793 -1.33326,-1.41286c-0.56382,-0.34493 -1.20723,-0.51738 -1.93024,-0.51738c-0.70974,0 -1.34984,0.17246 -1.92029,0.51738c-0.57045,0.34493 -1.02482,0.81588 -1.36311,1.41286c-0.33165,0.59035 -0.49749,1.27024 -0.49749,2.03969c0,0.74954 0.16583,1.42944 0.49749,2.03969c0.33829,0.60362 0.79266,1.0812 1.36311,1.43276c0.57045,0.34493 1.21055,0.51738 1.9203,0.51738zM358.20986,7.76291c-0.70311,0 -1.3399,-0.17909 -1.91034,-0.53728c-0.56382,-0.36482 -1.00823,-0.85567 -1.33326,-1.47256c-0.32503,-0.62352 -0.48753,-1.32662 -0.48753,-2.10934v-10.11884c0,-0.31176 0.0995,-0.56713 0.29849,-0.76612c0.19899,-0.19899 0.45437,-0.29849 0.76613,-0.29849c0.31176,0 0.56382,0.0995 0.75618,0.29849c0.19899,0.19899 0.29849,0.45437 0.29849,0.76613v10.11885c0,0.57045 0.15588,1.04803 0.46764,1.43276c0.31176,0.37809 0.69316,0.56714 1.14422,0.56714h0.72633c0.25206,0 0.46764,0.0995 0.64673,0.29849c0.17909,0.19236 0.26865,0.44442 0.26865,0.75618c0,0.31176 -0.1194,0.56714 -0.35819,0.76613c-0.23216,0.19899 -0.53065,0.29849 -0.89547,0.29849zM353.50365,-1.59976c-0.29849,0 -0.5406,-0.08292 -0.72633,-0.24874c-0.17909,-0.17246 -0.26864,-0.38472 -0.26864,-0.63678c0,-0.28523 0.08955,-0.51075 0.26865,-0.67658c0.18573,-0.17246 0.42784,-0.25869 0.72633,-0.25869h4.90521c0.29186,0 0.53065,0.08623 0.71638,0.25869c0.18573,0.16583 0.27859,0.39135 0.27859,0.67658c0,0.25206 -0.09286,0.46432 -0.27859,0.63678c-0.18573,0.16583 -0.42452,0.24875 -0.71638,0.24875zM372.30193,7.78281c-0.31176,0 -0.57045,-0.10281 -0.77608,-0.30844c-0.19899,-0.20563 -0.29849,-0.46432 -0.29849,-0.77608v-5.21364c0,-0.80924 -0.14924,-1.46924 -0.44773,-1.97999c-0.29849,-0.51075 -0.6998,-0.88884 -1.20391,-1.13427c-0.49749,-0.24543 -1.07457,-0.36814 -1.73125,-0.36814c-0.59035,0 -1.12763,0.1194 -1.61185,0.35819c-0.47759,0.23879 -0.85899,0.5605 -1.14421,0.96512c-0.27859,0.40462 -0.41789,0.86894 -0.41789,1.39296h-1.34321c0,-0.89547 0.21558,-1.69145 0.64673,-2.38793c0.43115,-0.70311 1.0215,-1.25698 1.77105,-1.6616c0.74954,-0.41125 1.59195,-0.61688 2.52722,-0.61688c0.97507,0 1.84733,0.20895 2.61677,0.62683c0.77608,0.41125 1.38632,1.0215 1.83075,1.83075c0.44442,0.80924 0.66663,1.8009 0.66663,2.97496v5.21364c0,0.31176 -0.10281,0.57045 -0.30844,0.77608c-0.20563,0.20563 -0.46432,0.30844 -0.77608,0.30844zM363.586,7.78281c-0.31176,0 -0.57045,-0.10281 -0.77608,-0.30844c-0.20563,-0.20563 -0.30844,-0.46432 -0.30844,-0.77608v-9.46216c0,-0.32503 0.10281,-0.58703 0.30844,-0.78602c0.20563,-0.19899 0.46432,-0.29849 0.77608,-0.29849c0.32503,0 0.58704,0.0995 0.78603,0.29849c0.19899,0.19899 0.29849,0.461 0.29849,0.78603v9.46217c0,0.31176 -0.0995,0.57045 -0.29849,0.77608c-0.19899,0.20563 -0.461,0.30844 -0.78602,0.30844zM363.586,3.54423c-0.31176,0 -0.57045,-0.10281 -0.77608,-0.30844c-0.20563,-0.20563 -0.30844,-0.46432 -0.30844,-0.77608v-10.1885c0,-0.32503 0.10281,-0.58703 0.30844,-0.78602c0.20563,-0.19899 0.46432,-0.29849 0.77608,-0.29849c0.32503,0 0.58704,0.0995 0.78603,0.29849c0.19899,0.19899 0.29849,0.461 0.29849,0.78603v10.1885c0,0.31176 -0.0995,0.57045 -0.29849,0.77608c-0.19899,0.20563 -0.461,0.30844 -0.78602,0.30844zM382.44899,7.85246c-1.17406,0 -2.21878,-0.25206 -3.13415,-0.75618c-0.90874,-0.50412 -1.6218,-1.19728 -2.13918,-2.07948c-0.51738,-0.88884 -0.77608,-1.90371 -0.77608,-3.04461c0,-1.1608 0.24211,-2.1823 0.72633,-3.06451c0.49085,-0.88884 1.16743,-1.582 2.02974,-2.07948c0.86894,-0.50412 1.8606,-0.75618 2.97496,-0.75618c1.10773,0 2.05627,0.24543 2.84561,0.73628c0.78934,0.48422 1.39296,1.15417 1.81085,2.00984c0.41789,0.85567 0.62683,1.8407 0.62683,2.95506c0,0.27196 -0.09286,0.49749 -0.27859,0.67658c-0.17909,0.17246 -0.41125,0.25869 -0.69648,0.25869h-8.54679v-1.69145h8.4871l-0.87557,0.58704c-0.01326,-0.70311 -0.15588,-1.33326 -0.42783,-1.89044c-0.26533,-0.56382 -0.64673,-1.00823 -1.14421,-1.33326c-0.49085,-0.32503 -1.09115,-0.48753 -1.80089,-0.48753c-0.80261,0 -1.49246,0.17909 -2.06954,0.53728c-0.57045,0.35155 -1.00492,0.83578 -1.30341,1.45266c-0.29849,0.61025 -0.44773,1.30673 -0.44773,2.08944c0,0.77608 0.17578,1.46924 0.52734,2.07949c0.35819,0.60362 0.84904,1.08452 1.47256,1.44271c0.62352,0.35155 1.33658,0.52734 2.13919,0.52734c0.43779,0 0.88553,-0.0796 1.34321,-0.23879c0.46432,-0.16583 0.83909,-0.35487 1.12432,-0.56713c0.21226,-0.15256 0.4411,-0.23216 0.68653,-0.23879c0.24543,-0.01326 0.461,0.0597 0.64673,0.21889c0.23879,0.21226 0.36482,0.44774 0.37809,0.70643c0.01326,0.25206 -0.0995,0.46764 -0.33829,0.64673c-0.47759,0.38472 -1.07457,0.6998 -1.79095,0.94522c-0.71638,0.23879 -1.39959,0.35819 -2.04964,0.35819zM405.40883,7.78281c-0.30513,0 -0.5605,-0.10281 -0.76612,-0.30844c-0.20563,-0.20563 -0.30844,-0.46432 -0.30844,-0.77608v-6.06932c0,-0.88884 -0.22221,-1.54884 -0.66663,-1.97999c-0.43779,-0.43115 -1.00823,-0.64673 -1.71135,-0.64673c-0.73628,0 -1.34321,0.25537 -1.82079,0.76613c-0.47095,0.50412 -0.70643,1.15417 -0.70643,1.95014h-1.76109c0,-0.92201 0.19568,-1.73125 0.58704,-2.42773c0.39799,-0.70311 0.95517,-1.25034 1.67155,-1.6417c0.71638,-0.39799 1.53225,-0.59698 2.44763,-0.59698c0.80924,0 1.52562,0.17578 2.14914,0.52734c0.62352,0.35155 1.10773,0.87226 1.45266,1.56211c0.34493,0.68322 0.51738,1.51235 0.51738,2.48743v6.06932c0,0.31176 -0.0995,0.57045 -0.29849,0.77608c-0.19236,0.20563 -0.45437,0.30844 -0.78602,0.30844zM391.26035,7.78281c-0.31176,0 -0.57045,-0.10281 -0.77608,-0.30844c-0.20563,-0.20563 -0.30844,-0.46432 -0.30844,-0.77608v-9.44226c0,-0.32503 0.10281,-0.58703 0.30844,-0.78602c0.20563,-0.19899 0.46432,-0.29849 0.77608,-0.29849c0.32503,0 0.58704,0.0995 0.78603,0.29849c0.19899,0.19899 0.29849,0.461 0.29849,0.78603v9.44227c0,0.31176 -0.0995,0.57045 -0.29849,0.77608c-0.19899,0.20563 -0.461,0.30844 -0.78602,0.30844zM398.34454,7.78281c-0.31176,0 -0.57045,-0.10281 -0.77608,-0.30844c-0.20563,-0.20563 -0.30844,-0.46432 -0.30844,-0.77608v-6.06932c0,-0.88884 -0.21889,-1.54884 -0.65668,-1.97999c-0.43779,-0.43115 -1.01155,-0.64673 -1.7213,-0.64673c-0.72964,0 -1.33658,0.25537 -1.82079,0.76613c-0.47759,0.50412 -0.71638,1.15417 -0.71638,1.95014h-1.34321c0,-0.92201 0.18241,-1.73125 0.54724,-2.42773c0.37145,-0.70311 0.88221,-1.25034 1.53225,-1.6417c0.65005,-0.39799 1.39296,-0.59698 2.22873,-0.59698c0.80924,0 1.52231,0.17578 2.13919,0.52734c0.62352,0.35155 1.10773,0.87226 1.45266,1.56211c0.35155,0.68322 0.52734,1.51235 0.52734,2.48743v6.06932c0,0.31176 -0.0995,0.57045 -0.29849,0.77608c-0.19899,0.20563 -0.461,0.30844 -0.78602,0.30844zM421.13651,7.85246c-1.02813,0 -1.95346,-0.25869 -2.77596,-0.77608c-0.82251,-0.51738 -1.47256,-1.21718 -1.95014,-2.09938c-0.47095,-0.88884 -0.70643,-1.89044 -0.70643,-3.00481c0,-1.121 0.25869,-2.12592 0.77608,-3.01476c0.51738,-0.89547 1.21718,-1.59859 2.09939,-2.10934c0.88884,-0.51738 1.88381,-0.77608 2.98491,-0.77608c1.1011,0 2.08944,0.25869 2.96501,0.77608c0.88221,0.51075 1.58201,1.21386 2.09939,2.10934c0.51738,0.88884 0.77608,1.89376 0.77608,3.01476h-0.83578c0,1.11437 -0.23879,2.11597 -0.71638,3.00481c-0.47095,0.88221 -1.11768,1.58201 -1.94019,2.09939c-0.81588,0.51738 -1.74119,0.77608 -2.77596,0.77608zM421.56435,5.94211c0.72301,0 1.36642,-0.17246 1.93024,-0.51738c0.56382,-0.35155 1.00823,-0.82582 1.33326,-1.4228c0.32503,-0.60362 0.48754,-1.2802 0.48754,-2.02974c0,-0.76281 -0.16251,-1.44602 -0.48753,-2.04964c-0.32503,-0.60362 -0.76944,-1.07789 -1.33326,-1.4228c-0.56382,-0.34493 -1.20723,-0.51738 -1.93024,-0.51738c-0.70974,0 -1.34984,0.17246 -1.92029,0.51738c-0.57045,0.34493 -1.02482,0.81919 -1.36311,1.42281c-0.33165,0.60362 -0.49749,1.28683 -0.49749,2.04964c0,0.74954 0.16583,1.42612 0.49749,2.02974c0.33829,0.59698 0.79266,1.07125 1.36311,1.42281c0.57045,0.34493 1.21055,0.51738 1.9203,0.51738zM426.32031,7.78281c-0.31176,0 -0.57045,-0.10281 -0.77608,-0.30844c-0.20563,-0.20563 -0.30844,-0.46432 -0.30844,-0.77608v-3.2436l0.39799,-2.24863l1.77105,0.76613v4.72611c0,0.31176 -0.10281,0.57045 -0.30844,0.77608c-0.20563,0.20563 -0.46432,0.30844 -0.77608,0.30844zM433.38232,7.76291c-0.62352,0 -1.17738,-0.16914 -1.6616,-0.50743c-0.47759,-0.33829 -0.85236,-0.79929 -1.12431,-1.38301c-0.26533,-0.59035 -0.39799,-1.27024 -0.39799,-2.03969v-11.58145c0,-0.31176 0.0995,-0.56713 0.29849,-0.76612c0.19899,-0.19899 0.45437,-0.29849 0.76613,-0.29849c0.31176,0 0.56714,0.0995 0.76613,0.29849c0.19899,0.19899 0.29849,0.45437 0.29849,0.76613v11.58145c0,0.52402 0.09618,0.95849 0.28854,1.30341c0.19899,0.33829 0.45437,0.50744 0.76613,0.50744h0.53728c0.27859,0 0.50744,0.0995 0.68653,0.29849c0.17909,0.19236 0.26865,0.44442 0.26865,0.75618c0,0.31176 -0.13598,0.56714 -0.40793,0.76613c-0.26533,0.19899 -0.61025,0.29849 -1.03477,0.29849zM439.74912,7.76291c-0.62352,0 -1.17738,-0.16914 -1.6616,-0.50743c-0.47759,-0.33829 -0.85236,-0.79929 -1.12431,-1.38301c-0.26533,-0.59035 -0.39799,-1.27024 -0.39799,-2.03969v-11.58145c0,-0.31176 0.0995,-0.56713 0.29849,-0.76612c0.19899,-0.19899 0.45437,-0.29849 0.76613,-0.29849c0.31176,0 0.56714,0.0995 0.76613,0.29849c0.19899,0.19899 0.29849,0.45437 0.29849,0.76613v11.58145c0,0.52402 0.09618,0.95849 0.28854,1.30341c0.19899,0.33829 0.45437,0.50744 0.76613,0.50744h0.53728c0.27859,0 0.50744,0.0995 0.68653,0.29849c0.17909,0.19236 0.26865,0.44442 0.26865,0.75618c0,0.31176 -0.13598,0.56714 -0.40793,0.76613c-0.26533,0.19899 -0.61025,0.29849 -1.03477,0.29849zM443.97673,3.83278c-0.31176,0 -0.57045,-0.10944 -0.77608,-0.32834c-0.20563,-0.21889 -0.30844,-0.46763 -0.30844,-0.74622v-10.46709c0,-0.31176 0.10281,-0.57377 0.30844,-0.78602c0.20563,-0.21226 0.46432,-0.31839 0.77608,-0.31839c0.31176,0 0.57045,0.10613 0.77608,0.31839c0.20563,0.21226 0.30844,0.47427 0.30844,0.78603v10.46709c0,0.29186 -0.11276,0.54392 -0.33829,0.75618c-0.21889,0.21226 -0.46763,0.31839 -0.74622,0.31839zM443.97673,7.76291c-0.39799,0 -0.74291,-0.1393 -1.03477,-0.41789c-0.28523,-0.28523 -0.42783,-0.63346 -0.42783,-1.04472c0,-0.41125 0.14261,-0.7595 0.42784,-1.04472c0.29186,-0.29186 0.63678,-0.43779 1.03477,-0.43779c0.41125,0 0.75618,0.14593 1.03477,0.43779c0.28523,0.28523 0.42784,0.63346 0.42784,1.04472c0,0.41125 -0.14593,0.7595 -0.43779,1.04472c-0.28523,0.27859 -0.62683,0.41789 -1.02482,0.41789z" data-paper-data="{&quot;origPos&quot;:null}"/></g></g></g></svg>